<?xml version="1.0" encoding="UTF-8" standalone="no"?>
<!DOCTYPE svg PUBLIC "-//W3C//DTD SVG 1.1//EN"
 "http://www.w3.org/Graphics/SVG/1.1/DTD/svg11.dtd">
<!-- Generated by graphviz version 7.0.5 (20221223.1930)
 -->
<!-- Title: com.fs.starfarer.api.impl.campaign.rulecmd.BeginMission Pages: 1 -->
<svg width="211pt" height="170pt"
 viewBox="0.00 0.00 211.00 170.00" xmlns="http://www.w3.org/2000/svg" xmlns:xlink="http://www.w3.org/1999/xlink">
<g id="graph0" class="graph" transform="scale(1 1) rotate(0) translate(4 166)">
<title>com.fs.starfarer.api.impl.campaign.rulecmd.BeginMission</title>
<!-- Node1 -->
<g id="node1" class="node">
<title>Node1</title>
<g id="a_node1"><a xlink:title=" ">
<polygon fill="#999999" stroke="#666666" points="203,-30 0,-30 0,0 203,0 203,-30"/>
<text text-anchor="start" x="8" y="-18" font-family="Helvetica,sans-Serif" font-size="10.00">com.fs.starfarer.api.impl.campaign.rulecmd.</text>
<text text-anchor="middle" x="101.5" y="-7" font-family="Helvetica,sans-Serif" font-size="10.00">BeginMission</text>
</a>
</g>
</g>
<!-- Node2 -->
<g id="node2" class="node">
<title>Node2</title>
<g id="a_node2"><a xlink:href="../../d7/dd6/classcom_1_1fs_1_1starfarer_1_1api_1_1impl_1_1campaign_1_1rulecmd_1_1BaseCommandPlugin.html" target="_top" xlink:title=" ">
<polygon fill="white" stroke="#666666" points="203,-96 0,-96 0,-66 203,-66 203,-96"/>
<text text-anchor="start" x="8" y="-84" font-family="Helvetica,sans-Serif" font-size="10.00">com.fs.starfarer.api.impl.campaign.rulecmd.</text>
<text text-anchor="middle" x="101.5" y="-73" font-family="Helvetica,sans-Serif" font-size="10.00">BaseCommandPlugin</text>
</a>
</g>
</g>
<!-- Node2&#45;&gt;Node1 -->
<g id="edge1" class="edge">
<title>Node2&#45;&gt;Node1</title>
<path fill="none" stroke="#63b8ff" d="M101.5,-54.39C101.5,-46.13 101.5,-37.28 101.5,-30.16"/>
<polygon fill="#63b8ff" stroke="#63b8ff" points="98,-54.28 101.5,-64.28 105,-54.28 98,-54.28"/>
</g>
<!-- Node3 -->
<g id="node3" class="node">
<title>Node3</title>
<g id="a_node3"><a xlink:href="../../d0/d5c/interfacecom_1_1fs_1_1starfarer_1_1api_1_1campaign_1_1rules_1_1CommandPlugin.html" target="_top" xlink:title=" ">
<polygon fill="white" stroke="#666666" points="186,-162 17,-162 17,-132 186,-132 186,-162"/>
<text text-anchor="start" x="25" y="-150" font-family="Helvetica,sans-Serif" font-size="10.00">com.fs.starfarer.api.campaign.rules.</text>
<text text-anchor="middle" x="101.5" y="-139" font-family="Helvetica,sans-Serif" font-size="10.00">CommandPlugin</text>
</a>
</g>
</g>
<!-- Node3&#45;&gt;Node2 -->
<g id="edge2" class="edge">
<title>Node3&#45;&gt;Node2</title>
<path fill="none" stroke="#63b8ff" d="M101.5,-120.39C101.5,-112.13 101.5,-103.28 101.5,-96.16"/>
<polygon fill="#63b8ff" stroke="#63b8ff" points="98,-120.28 101.5,-130.28 105,-120.28 98,-120.28"/>
</g>
</g>
</svg>
