<?xml version="1.0" encoding="UTF-8" standalone="no"?>
<!DOCTYPE svg PUBLIC "-//W3C//DTD SVG 1.1//EN"
 "http://www.w3.org/Graphics/SVG/1.1/DTD/svg11.dtd">
<!-- Generated by graphviz version 2.44.0 ()
 -->
<!-- Title: com.fs.starfarer.api.impl.campaign.procgen.themes.SalvageSpecialAssigner.SurveyDataSpecialCreator Pages: 1 -->
<svg width="247pt" height="204pt"
 viewBox="0.00 0.00 247.00 204.00" xmlns="http://www.w3.org/2000/svg" xmlns:xlink="http://www.w3.org/1999/xlink">
<g id="graph0" class="graph" transform="scale(1 1) rotate(0) translate(4 200)">
<title>com.fs.starfarer.api.impl.campaign.procgen.themes.SalvageSpecialAssigner.SurveyDataSpecialCreator</title>
<!-- Node1 -->
<g id="node1" class="node">
<title>Node1</title>
<g id="a_node1"><a xlink:title=" ">
<polygon fill="#bfbfbf" stroke="black" points="0,-0.5 0,-90.5 239,-90.5 239,-0.5 0,-0.5"/>
<text text-anchor="start" x="8" y="-78.5" font-family="Helvetica,sans-Serif" font-size="10.00">com.fs.starfarer.api.impl.campaign.procgen.themes.</text>
<text text-anchor="middle" x="119.5" y="-67.5" font-family="Helvetica,sans-Serif" font-size="10.00">SalvageSpecialAssigner.SurveyDataSpecialCreator</text>
<polyline fill="none" stroke="black" points="0,-60.5 239,-60.5 "/>
<text text-anchor="start" x="8" y="-48.5" font-family="Helvetica,sans-Serif" font-size="10.00">&#45; random</text>
<text text-anchor="start" x="8" y="-37.5" font-family="Helvetica,sans-Serif" font-size="10.00">&#45; type</text>
<polyline fill="none" stroke="black" points="0,-30.5 239,-30.5 "/>
<text text-anchor="start" x="8" y="-18.5" font-family="Helvetica,sans-Serif" font-size="10.00">+ SurveyDataSpecialCreator()</text>
<text text-anchor="start" x="8" y="-7.5" font-family="Helvetica,sans-Serif" font-size="10.00">+ createSpecial()</text>
</a>
</g>
</g>
<!-- Node2 -->
<g id="node2" class="node">
<title>Node2</title>
<g id="a_node2"><a xlink:href="../../dc/d6d/interfacecom_1_1fs_1_1starfarer_1_1api_1_1impl_1_1campaign_1_1procgen_1_1themes_1_1SalvageSpecialAssigner_1_1SpecialCreator.html" target="_top" xlink:title=" ">
<polygon fill="none" stroke="black" points="1,-127.5 1,-195.5 238,-195.5 238,-127.5 1,-127.5"/>
<text text-anchor="start" x="9" y="-183.5" font-family="Helvetica,sans-Serif" font-size="10.00">com.fs.starfarer.api.impl.campaign.procgen.themes.</text>
<text text-anchor="middle" x="119.5" y="-172.5" font-family="Helvetica,sans-Serif" font-size="10.00">SalvageSpecialAssigner.SpecialCreator</text>
<polyline fill="none" stroke="black" points="1,-165.5 238,-165.5 "/>
<text text-anchor="middle" x="119.5" y="-153.5" font-family="Helvetica,sans-Serif" font-size="10.00"> </text>
<polyline fill="none" stroke="black" points="1,-146.5 238,-146.5 "/>
<text text-anchor="start" x="9" y="-134.5" font-family="Helvetica,sans-Serif" font-size="10.00">+ createSpecial()</text>
</a>
</g>
</g>
<!-- Node2&#45;&gt;Node1 -->
<g id="edge1" class="edge">
<title>Node2&#45;&gt;Node1</title>
<path fill="none" stroke="midnightblue" d="M119.5,-116.97C119.5,-108.35 119.5,-99.28 119.5,-90.64"/>
<polygon fill="none" stroke="midnightblue" points="116,-117.22 119.5,-127.22 123,-117.22 116,-117.22"/>
</g>
</g>
</svg>
