<?xml version="1.0" encoding="UTF-8" standalone="no"?>
<!DOCTYPE svg PUBLIC "-//W3C//DTD SVG 1.1//EN"
 "http://www.w3.org/Graphics/SVG/1.1/DTD/svg11.dtd">
<!-- Generated by graphviz version 2.44.0 ()
 -->
<!-- Title: com.fs.starfarer.api.impl.campaign.rulecmd.salvage.special.DomainSurveyDerelictSpecial Pages: 1 -->
<svg width="2000pt" height="1225pt"
 viewBox="0.00 0.00 1999.50 1225.00" xmlns="http://www.w3.org/2000/svg" xmlns:xlink="http://www.w3.org/1999/xlink">
<g id="graph0" class="graph" transform="scale(1 1) rotate(0) translate(4 1221)">
<title>com.fs.starfarer.api.impl.campaign.rulecmd.salvage.special.DomainSurveyDerelictSpecial</title>
<!-- Node1 -->
<g id="node1" class="node">
<title>Node1</title>
<g id="a_node1"><a xlink:title=" ">
<polygon fill="#bfbfbf" stroke="black" points="1057.5,-0.5 1057.5,-167.5 1329.5,-167.5 1329.5,-0.5 1057.5,-0.5"/>
<text text-anchor="start" x="1065.5" y="-155.5" font-family="Helvetica,sans-Serif" font-size="10.00">com.fs.starfarer.api.impl.campaign.rulecmd.salvage.special.</text>
<text text-anchor="middle" x="1193.5" y="-144.5" font-family="Helvetica,sans-Serif" font-size="10.00">DomainSurveyDerelictSpecial</text>
<polyline fill="none" stroke="black" points="1057.5,-137.5 1329.5,-137.5 "/>
<text text-anchor="middle" x="1193.5" y="-125.5" font-family="Helvetica,sans-Serif" font-size="10.00"> </text>
<polyline fill="none" stroke="black" points="1057.5,-118.5 1329.5,-118.5 "/>
<text text-anchor="start" x="1065.5" y="-106.5" font-family="Helvetica,sans-Serif" font-size="10.00">+ DomainSurveyDerelictSpecial()</text>
<text text-anchor="start" x="1065.5" y="-95.5" font-family="Helvetica,sans-Serif" font-size="10.00">+ init()</text>
<text text-anchor="start" x="1065.5" y="-84.5" font-family="Helvetica,sans-Serif" font-size="10.00">+ shouldShowAgain()</text>
<text text-anchor="start" x="1065.5" y="-73.5" font-family="Helvetica,sans-Serif" font-size="10.00">+ initNothing()</text>
<text text-anchor="start" x="1065.5" y="-62.5" font-family="Helvetica,sans-Serif" font-size="10.00">+ optionSelected()</text>
<text text-anchor="start" x="1065.5" y="-51.5" font-family="Helvetica,sans-Serif" font-size="10.00">+ endWithContinue()</text>
<text text-anchor="start" x="1065.5" y="-40.5" font-family="Helvetica,sans-Serif" font-size="10.00">+ getLocationName()</text>
<text text-anchor="start" x="1065.5" y="-29.5" font-family="Helvetica,sans-Serif" font-size="10.00">+ getLocationDescription()</text>
<text text-anchor="start" x="1065.5" y="-18.5" font-family="Helvetica,sans-Serif" font-size="10.00">+ getStarDescription()</text>
<text text-anchor="start" x="1065.5" y="-7.5" font-family="Helvetica,sans-Serif" font-size="10.00">&#45; initSurveyParentEntity()</text>
</a>
</g>
</g>
<!-- Node2 -->
<g id="node2" class="node">
<title>Node2</title>
<g id="a_node2"><a xlink:href="../../d3/d39/classcom_1_1fs_1_1starfarer_1_1api_1_1impl_1_1campaign_1_1rulecmd_1_1salvage_1_1special_1_1BaseSalvageSpecial.html" target="_top" xlink:title=" ">
<polygon fill="none" stroke="black" points="752.5,-215.5 752.5,-657.5 1024.5,-657.5 1024.5,-215.5 752.5,-215.5"/>
<text text-anchor="start" x="760.5" y="-645.5" font-family="Helvetica,sans-Serif" font-size="10.00">com.fs.starfarer.api.impl.campaign.rulecmd.salvage.special.</text>
<text text-anchor="middle" x="888.5" y="-634.5" font-family="Helvetica,sans-Serif" font-size="10.00">BaseSalvageSpecial</text>
<polyline fill="none" stroke="black" points="752.5,-627.5 1024.5,-627.5 "/>
<text text-anchor="start" x="760.5" y="-615.5" font-family="Helvetica,sans-Serif" font-size="10.00">+ EXTRA_SALVAGE</text>
<text text-anchor="start" x="760.5" y="-604.5" font-family="Helvetica,sans-Serif" font-size="10.00">+ TEMP_EXTRA_SALVAGE</text>
<text text-anchor="start" x="760.5" y="-593.5" font-family="Helvetica,sans-Serif" font-size="10.00"># done</text>
<text text-anchor="start" x="760.5" y="-582.5" font-family="Helvetica,sans-Serif" font-size="10.00"># endWithContinue</text>
<text text-anchor="start" x="760.5" y="-571.5" font-family="Helvetica,sans-Serif" font-size="10.00">&#45; showAgain</text>
<text text-anchor="start" x="760.5" y="-560.5" font-family="Helvetica,sans-Serif" font-size="10.00">&#45; shouldAbortSalvageAndRemove</text>
<text text-anchor="start" x="760.5" y="-549.5" font-family="Helvetica,sans-Serif" font-size="10.00">Entity</text>
<polyline fill="none" stroke="black" points="752.5,-542.5 1024.5,-542.5 "/>
<text text-anchor="start" x="760.5" y="-530.5" font-family="Helvetica,sans-Serif" font-size="10.00">+ init()</text>
<text text-anchor="start" x="760.5" y="-519.5" font-family="Helvetica,sans-Serif" font-size="10.00">+ optionSelected()</text>
<text text-anchor="start" x="760.5" y="-508.5" font-family="Helvetica,sans-Serif" font-size="10.00">+ initNothing()</text>
<text text-anchor="start" x="760.5" y="-497.5" font-family="Helvetica,sans-Serif" font-size="10.00">+ isDone()</text>
<text text-anchor="start" x="760.5" y="-486.5" font-family="Helvetica,sans-Serif" font-size="10.00">+ setDone()</text>
<text text-anchor="start" x="760.5" y="-475.5" font-family="Helvetica,sans-Serif" font-size="10.00">+ endWithContinue()</text>
<text text-anchor="start" x="760.5" y="-464.5" font-family="Helvetica,sans-Serif" font-size="10.00">+ setEndWithContinue()</text>
<text text-anchor="start" x="760.5" y="-453.5" font-family="Helvetica,sans-Serif" font-size="10.00">+ getString()</text>
<text text-anchor="start" x="760.5" y="-442.5" font-family="Helvetica,sans-Serif" font-size="10.00">+ addText()</text>
<text text-anchor="start" x="760.5" y="-431.5" font-family="Helvetica,sans-Serif" font-size="10.00">+ shouldShowAgain()</text>
<text text-anchor="start" x="760.5" y="-420.5" font-family="Helvetica,sans-Serif" font-size="10.00">+ setShowAgain()</text>
<text text-anchor="start" x="760.5" y="-409.5" font-family="Helvetica,sans-Serif" font-size="10.00">+ shouldAbortSalvageAndRemove</text>
<text text-anchor="start" x="760.5" y="-398.5" font-family="Helvetica,sans-Serif" font-size="10.00">Entity()</text>
<text text-anchor="start" x="760.5" y="-387.5" font-family="Helvetica,sans-Serif" font-size="10.00">+ setShouldAbortSalvageAnd</text>
<text text-anchor="start" x="760.5" y="-376.5" font-family="Helvetica,sans-Serif" font-size="10.00">RemoveEntity()</text>
<text text-anchor="start" x="760.5" y="-365.5" font-family="Helvetica,sans-Serif" font-size="10.00">+ addExtraSalvage()</text>
<text text-anchor="start" x="760.5" y="-354.5" font-family="Helvetica,sans-Serif" font-size="10.00">+ addExtraSalvage()</text>
<text text-anchor="start" x="760.5" y="-343.5" font-family="Helvetica,sans-Serif" font-size="10.00">+ getCombinedExtraSalvage()</text>
<text text-anchor="start" x="760.5" y="-332.5" font-family="Helvetica,sans-Serif" font-size="10.00">+ getCombinedExtraSalvage()</text>
<text text-anchor="start" x="760.5" y="-321.5" font-family="Helvetica,sans-Serif" font-size="10.00">+ getTempExtraSalvage()</text>
<text text-anchor="start" x="760.5" y="-310.5" font-family="Helvetica,sans-Serif" font-size="10.00">+ getExtraSalvage()</text>
<text text-anchor="start" x="760.5" y="-299.5" font-family="Helvetica,sans-Serif" font-size="10.00">+ getExtraSalvage()</text>
<text text-anchor="start" x="760.5" y="-288.5" font-family="Helvetica,sans-Serif" font-size="10.00">+ getTempExtraSalvage()</text>
<text text-anchor="start" x="760.5" y="-277.5" font-family="Helvetica,sans-Serif" font-size="10.00">+ getTempExtraSalvage()</text>
<text text-anchor="start" x="760.5" y="-266.5" font-family="Helvetica,sans-Serif" font-size="10.00">+ getExtraSalvage()</text>
<text text-anchor="start" x="760.5" y="-255.5" font-family="Helvetica,sans-Serif" font-size="10.00">+ clearExtraSalvage()</text>
<text text-anchor="start" x="760.5" y="-244.5" font-family="Helvetica,sans-Serif" font-size="10.00">+ clearExtraSalvage()</text>
<text text-anchor="start" x="760.5" y="-233.5" font-family="Helvetica,sans-Serif" font-size="10.00">+ clearExtraSalvage()</text>
<text text-anchor="start" x="760.5" y="-222.5" font-family="Helvetica,sans-Serif" font-size="10.00"># addTempExtraSalvage()</text>
</a>
</g>
</g>
<!-- Node2&#45;&gt;Node1 -->
<g id="edge1" class="edge">
<title>Node2&#45;&gt;Node1</title>
<path fill="none" stroke="midnightblue" d="M1031.37,-271.31C1062.6,-235.43 1094.36,-198.93 1121.4,-167.85"/>
<polygon fill="none" stroke="midnightblue" points="1028.64,-269.12 1024.72,-278.96 1033.93,-273.71 1028.64,-269.12"/>
</g>
<!-- Node3 -->
<g id="node3" class="node">
<title>Node3</title>
<g id="a_node3"><a xlink:href="../../d9/d29/interfacecom_1_1fs_1_1starfarer_1_1api_1_1impl_1_1campaign_1_1rulecmd_1_1salvage_1_1SalvageSpeci0c23cb623422966b4963c997c750605b.html" target="_top" xlink:title=" ">
<polygon fill="none" stroke="black" points="0,-727.5 0,-861.5 239,-861.5 239,-727.5 0,-727.5"/>
<text text-anchor="start" x="8" y="-849.5" font-family="Helvetica,sans-Serif" font-size="10.00">com.fs.starfarer.api.impl.campaign.rulecmd.salvage.</text>
<text text-anchor="middle" x="119.5" y="-838.5" font-family="Helvetica,sans-Serif" font-size="10.00">SalvageSpecialInteraction.SalvageSpecialPlugin</text>
<polyline fill="none" stroke="black" points="0,-831.5 239,-831.5 "/>
<text text-anchor="middle" x="119.5" y="-819.5" font-family="Helvetica,sans-Serif" font-size="10.00"> </text>
<polyline fill="none" stroke="black" points="0,-812.5 239,-812.5 "/>
<text text-anchor="start" x="8" y="-800.5" font-family="Helvetica,sans-Serif" font-size="10.00">+ init()</text>
<text text-anchor="start" x="8" y="-789.5" font-family="Helvetica,sans-Serif" font-size="10.00">+ optionSelected()</text>
<text text-anchor="start" x="8" y="-778.5" font-family="Helvetica,sans-Serif" font-size="10.00">+ isDone()</text>
<text text-anchor="start" x="8" y="-767.5" font-family="Helvetica,sans-Serif" font-size="10.00">+ endWithContinue()</text>
<text text-anchor="start" x="8" y="-756.5" font-family="Helvetica,sans-Serif" font-size="10.00">+ shouldShowAgain()</text>
<text text-anchor="start" x="8" y="-745.5" font-family="Helvetica,sans-Serif" font-size="10.00">+ shouldAbortSalvageAndRemove</text>
<text text-anchor="start" x="8" y="-734.5" font-family="Helvetica,sans-Serif" font-size="10.00">Entity()</text>
</a>
</g>
</g>
<!-- Node3&#45;&gt;Node2 -->
<g id="edge2" class="edge">
<title>Node3&#45;&gt;Node2</title>
<path fill="none" stroke="midnightblue" d="M218.98,-721.79C228.46,-715.85 238.06,-710.16 247.5,-705 414.82,-613.56 620,-533.02 752.43,-484.81"/>
<polygon fill="none" stroke="midnightblue" points="216.87,-718.98 210.32,-727.31 220.63,-724.89 216.87,-718.98"/>
</g>
<!-- Node4 -->
<g id="node4" class="node">
<title>Node4</title>
<g id="a_node4"><a xlink:title=" ">
<polygon fill="none" stroke="#bfbfbf" points="257,-760.5 257,-828.5 484,-828.5 484,-760.5 257,-760.5"/>
<text text-anchor="start" x="265" y="-816.5" font-family="Helvetica,sans-Serif" font-size="10.00">Map&lt; String, com.fs.starfarer.api.campaign.rules.</text>
<text text-anchor="middle" x="370.5" y="-805.5" font-family="Helvetica,sans-Serif" font-size="10.00">MemoryAPI &gt;</text>
<polyline fill="none" stroke="#bfbfbf" points="257,-798.5 484,-798.5 "/>
<text text-anchor="middle" x="370.5" y="-786.5" font-family="Helvetica,sans-Serif" font-size="10.00"> </text>
<polyline fill="none" stroke="#bfbfbf" points="257,-779.5 484,-779.5 "/>
<text text-anchor="middle" x="370.5" y="-767.5" font-family="Helvetica,sans-Serif" font-size="10.00"> </text>
</a>
</g>
</g>
<!-- Node4&#45;&gt;Node2 -->
<g id="edge3" class="edge">
<title>Node4&#45;&gt;Node2</title>
<path fill="none" stroke="#404040" d="M385.8,-760.38C398.85,-734.88 419.61,-700.04 445.5,-676 531.31,-596.33 648.72,-534.7 741.11,-494.07"/>
<polygon fill="none" stroke="#404040" points="741.25,-494.01 745.15,-487.94 752.25,-489.21 748.35,-495.28 741.25,-494.01"/>
<text text-anchor="middle" x="476" y="-679" font-family="Helvetica,sans-Serif" font-size="10.00"> #memoryMap</text>
</g>
<!-- Node5 -->
<g id="node5" class="node">
<title>Node5</title>
<g id="a_node5"><a xlink:href="../../db/d56/interfacecom_1_1fs_1_1starfarer_1_1api_1_1campaign_1_1CampaignFleetAPI.html" target="_top" xlink:title=" ">
<polygon fill="none" stroke="black" points="569.5,-705.5 569.5,-883.5 715.5,-883.5 715.5,-705.5 569.5,-705.5"/>
<text text-anchor="start" x="577.5" y="-871.5" font-family="Helvetica,sans-Serif" font-size="10.00">com.fs.starfarer.api.campaign.</text>
<text text-anchor="middle" x="642.5" y="-860.5" font-family="Helvetica,sans-Serif" font-size="10.00">CampaignFleetAPI</text>
<polyline fill="none" stroke="black" points="569.5,-853.5 715.5,-853.5 "/>
<text text-anchor="middle" x="642.5" y="-841.5" font-family="Helvetica,sans-Serif" font-size="10.00"> </text>
<polyline fill="none" stroke="black" points="569.5,-834.5 715.5,-834.5 "/>
<text text-anchor="start" x="577.5" y="-822.5" font-family="Helvetica,sans-Serif" font-size="10.00">+ isInCurrentLocation()</text>
<text text-anchor="start" x="577.5" y="-811.5" font-family="Helvetica,sans-Serif" font-size="10.00">+ isInHyperspace()</text>
<text text-anchor="start" x="577.5" y="-800.5" font-family="Helvetica,sans-Serif" font-size="10.00">+ setLocation()</text>
<text text-anchor="start" x="577.5" y="-789.5" font-family="Helvetica,sans-Serif" font-size="10.00">+ despawn()</text>
<text text-anchor="start" x="577.5" y="-778.5" font-family="Helvetica,sans-Serif" font-size="10.00">+ despawn()</text>
<text text-anchor="start" x="577.5" y="-767.5" font-family="Helvetica,sans-Serif" font-size="10.00">+ addAssignment()</text>
<text text-anchor="start" x="577.5" y="-756.5" font-family="Helvetica,sans-Serif" font-size="10.00">+ addAssignment()</text>
<text text-anchor="start" x="577.5" y="-745.5" font-family="Helvetica,sans-Serif" font-size="10.00">+ addAssignment()</text>
<text text-anchor="start" x="577.5" y="-734.5" font-family="Helvetica,sans-Serif" font-size="10.00">+ addAssignment()</text>
<text text-anchor="start" x="577.5" y="-723.5" font-family="Helvetica,sans-Serif" font-size="10.00">+ clearAssignments()</text>
<text text-anchor="start" x="577.5" y="-712.5" font-family="Helvetica,sans-Serif" font-size="10.00">and 92 more...</text>
</a>
</g>
</g>
<!-- Node5&#45;&gt;Node2 -->
<g id="edge4" class="edge">
<title>Node5&#45;&gt;Node2</title>
<path fill="none" stroke="#404040" d="M703.31,-705.5C716.33,-686.66 730.61,-665.99 745.29,-644.75"/>
<polygon fill="none" stroke="#404040" points="745.46,-644.5 745.58,-637.29 752.29,-634.62 752.17,-641.83 745.46,-644.5"/>
<text text-anchor="middle" x="750" y="-679" font-family="Helvetica,sans-Serif" font-size="10.00"> #playerFleet</text>
</g>
<!-- Node6 -->
<g id="node6" class="node">
<title>Node6</title>
<g id="a_node6"><a xlink:href="../../d6/de1/interfacecom_1_1fs_1_1starfarer_1_1api_1_1campaign_1_1SectorEntityToken.html" target="_top" xlink:title=" ">
<polygon fill="none" stroke="black" points="447.5,-921.5 447.5,-1099.5 593.5,-1099.5 593.5,-921.5 447.5,-921.5"/>
<text text-anchor="start" x="455.5" y="-1087.5" font-family="Helvetica,sans-Serif" font-size="10.00">com.fs.starfarer.api.campaign.</text>
<text text-anchor="middle" x="520.5" y="-1076.5" font-family="Helvetica,sans-Serif" font-size="10.00">SectorEntityToken</text>
<polyline fill="none" stroke="black" points="447.5,-1069.5 593.5,-1069.5 "/>
<text text-anchor="middle" x="520.5" y="-1057.5" font-family="Helvetica,sans-Serif" font-size="10.00"> </text>
<polyline fill="none" stroke="black" points="447.5,-1050.5 593.5,-1050.5 "/>
<text text-anchor="start" x="455.5" y="-1038.5" font-family="Helvetica,sans-Serif" font-size="10.00">+ isPlayerFleet()</text>
<text text-anchor="start" x="455.5" y="-1027.5" font-family="Helvetica,sans-Serif" font-size="10.00">+ getMarket()</text>
<text text-anchor="start" x="455.5" y="-1016.5" font-family="Helvetica,sans-Serif" font-size="10.00">+ setMarket()</text>
<text text-anchor="start" x="455.5" y="-1005.5" font-family="Helvetica,sans-Serif" font-size="10.00">+ getCargo()</text>
<text text-anchor="start" x="455.5" y="-994.5" font-family="Helvetica,sans-Serif" font-size="10.00">+ getLocation()</text>
<text text-anchor="start" x="455.5" y="-983.5" font-family="Helvetica,sans-Serif" font-size="10.00">+ getLocationInHyperspace()</text>
<text text-anchor="start" x="455.5" y="-972.5" font-family="Helvetica,sans-Serif" font-size="10.00">+ getOrbit()</text>
<text text-anchor="start" x="455.5" y="-961.5" font-family="Helvetica,sans-Serif" font-size="10.00">+ setOrbit()</text>
<text text-anchor="start" x="455.5" y="-950.5" font-family="Helvetica,sans-Serif" font-size="10.00">+ getId()</text>
<text text-anchor="start" x="455.5" y="-939.5" font-family="Helvetica,sans-Serif" font-size="10.00">+ getName()</text>
<text text-anchor="start" x="455.5" y="-928.5" font-family="Helvetica,sans-Serif" font-size="10.00">and 115 more...</text>
</a>
</g>
</g>
<!-- Node6&#45;&gt;Node2 -->
<g id="edge8" class="edge">
<title>Node6&#45;&gt;Node2</title>
<path fill="none" stroke="#404040" d="M503.59,-921.42C495.84,-857.71 494.88,-771.5 529.5,-705 575.01,-617.59 663.49,-551.15 741.23,-506.34"/>
<polygon fill="none" stroke="#404040" points="741.68,-506.09 744.93,-499.65 752.12,-500.17 748.87,-506.61 741.68,-506.09"/>
<text text-anchor="middle" x="545" y="-792" font-family="Helvetica,sans-Serif" font-size="10.00"> #entity</text>
</g>
<!-- Node6&#45;&gt;Node5 -->
<g id="edge5" class="edge">
<title>Node6&#45;&gt;Node5</title>
<path fill="none" stroke="midnightblue" d="M575.84,-912.43C581.32,-902.82 586.86,-893.09 592.29,-883.57"/>
<polygon fill="none" stroke="midnightblue" points="572.74,-910.8 570.83,-921.22 578.82,-914.27 572.74,-910.8"/>
</g>
<!-- Node7 -->
<g id="node7" class="node">
<title>Node7</title>
<g id="a_node7"><a xlink:href="../../de/da5/interfacecom_1_1fs_1_1starfarer_1_1api_1_1campaign_1_1rules_1_1HasMemory.html" target="_top" xlink:title=" ">
<polygon fill="none" stroke="black" points="436,-1137.5 436,-1216.5 605,-1216.5 605,-1137.5 436,-1137.5"/>
<text text-anchor="start" x="444" y="-1204.5" font-family="Helvetica,sans-Serif" font-size="10.00">com.fs.starfarer.api.campaign.rules.</text>
<text text-anchor="middle" x="520.5" y="-1193.5" font-family="Helvetica,sans-Serif" font-size="10.00">HasMemory</text>
<polyline fill="none" stroke="black" points="436,-1186.5 605,-1186.5 "/>
<text text-anchor="middle" x="520.5" y="-1174.5" font-family="Helvetica,sans-Serif" font-size="10.00"> </text>
<polyline fill="none" stroke="black" points="436,-1167.5 605,-1167.5 "/>
<text text-anchor="start" x="444" y="-1155.5" font-family="Helvetica,sans-Serif" font-size="10.00">+ getMemory()</text>
<text text-anchor="start" x="444" y="-1144.5" font-family="Helvetica,sans-Serif" font-size="10.00">+ getMemoryWithoutUpdate()</text>
</a>
</g>
</g>
<!-- Node7&#45;&gt;Node6 -->
<g id="edge6" class="edge">
<title>Node7&#45;&gt;Node6</title>
<path fill="none" stroke="midnightblue" d="M520.5,-1127.39C520.5,-1118.56 520.5,-1109.11 520.5,-1099.55"/>
<polygon fill="none" stroke="midnightblue" points="517,-1127.43 520.5,-1137.43 524,-1127.43 517,-1127.43"/>
</g>
<!-- Node8 -->
<g id="node8" class="node">
<title>Node8</title>
<g id="a_node8"><a xlink:href="../../da/db1/interfacecom_1_1fs_1_1starfarer_1_1api_1_1campaign_1_1FleetOrStubAPI.html" target="_top" xlink:title=" ">
<polygon fill="none" stroke="black" points="611.5,-921.5 611.5,-1099.5 757.5,-1099.5 757.5,-921.5 611.5,-921.5"/>
<text text-anchor="start" x="619.5" y="-1087.5" font-family="Helvetica,sans-Serif" font-size="10.00">com.fs.starfarer.api.campaign.</text>
<text text-anchor="middle" x="684.5" y="-1076.5" font-family="Helvetica,sans-Serif" font-size="10.00">FleetOrStubAPI</text>
<polyline fill="none" stroke="black" points="611.5,-1069.5 757.5,-1069.5 "/>
<text text-anchor="middle" x="684.5" y="-1057.5" font-family="Helvetica,sans-Serif" font-size="10.00"> </text>
<polyline fill="none" stroke="black" points="611.5,-1050.5 757.5,-1050.5 "/>
<text text-anchor="start" x="619.5" y="-1038.5" font-family="Helvetica,sans-Serif" font-size="10.00">+ getId()</text>
<text text-anchor="start" x="619.5" y="-1027.5" font-family="Helvetica,sans-Serif" font-size="10.00">+ getContainingLocation()</text>
<text text-anchor="start" x="619.5" y="-1016.5" font-family="Helvetica,sans-Serif" font-size="10.00">+ getLocation()</text>
<text text-anchor="start" x="619.5" y="-1005.5" font-family="Helvetica,sans-Serif" font-size="10.00">+ getCurrentAssignment()</text>
<text text-anchor="start" x="619.5" y="-994.5" font-family="Helvetica,sans-Serif" font-size="10.00">+ getAssignmentsCopy()</text>
<text text-anchor="start" x="619.5" y="-983.5" font-family="Helvetica,sans-Serif" font-size="10.00">+ addAssignment()</text>
<text text-anchor="start" x="619.5" y="-972.5" font-family="Helvetica,sans-Serif" font-size="10.00">+ addAssignment()</text>
<text text-anchor="start" x="619.5" y="-961.5" font-family="Helvetica,sans-Serif" font-size="10.00">+ addAssignment()</text>
<text text-anchor="start" x="619.5" y="-950.5" font-family="Helvetica,sans-Serif" font-size="10.00">+ addAssignmentAtStart()</text>
<text text-anchor="start" x="619.5" y="-939.5" font-family="Helvetica,sans-Serif" font-size="10.00">+ addAssignmentAtStart()</text>
<text text-anchor="start" x="619.5" y="-928.5" font-family="Helvetica,sans-Serif" font-size="10.00">and 15 more...</text>
</a>
</g>
</g>
<!-- Node8&#45;&gt;Node5 -->
<g id="edge7" class="edge">
<title>Node8&#45;&gt;Node5</title>
<path fill="none" stroke="midnightblue" d="M665.22,-911.25C663.41,-902.02 661.58,-892.7 659.79,-883.57"/>
<polygon fill="none" stroke="midnightblue" points="661.81,-912.08 667.17,-921.22 668.68,-910.74 661.81,-912.08"/>
</g>
<!-- Node9 -->
<g id="node9" class="node">
<title>Node9</title>
<g id="a_node9"><a xlink:href="../../da/d65/interfacecom_1_1fs_1_1starfarer_1_1api_1_1campaign_1_1OptionPanelAPI.html" target="_top" xlink:title=" ">
<polygon fill="none" stroke="black" points="733.5,-705.5 733.5,-883.5 879.5,-883.5 879.5,-705.5 733.5,-705.5"/>
<text text-anchor="start" x="741.5" y="-871.5" font-family="Helvetica,sans-Serif" font-size="10.00">com.fs.starfarer.api.campaign.</text>
<text text-anchor="middle" x="806.5" y="-860.5" font-family="Helvetica,sans-Serif" font-size="10.00">OptionPanelAPI</text>
<polyline fill="none" stroke="black" points="733.5,-853.5 879.5,-853.5 "/>
<text text-anchor="middle" x="806.5" y="-841.5" font-family="Helvetica,sans-Serif" font-size="10.00"> </text>
<polyline fill="none" stroke="black" points="733.5,-834.5 879.5,-834.5 "/>
<text text-anchor="start" x="741.5" y="-822.5" font-family="Helvetica,sans-Serif" font-size="10.00">+ setTooltipHighlights()</text>
<text text-anchor="start" x="741.5" y="-811.5" font-family="Helvetica,sans-Serif" font-size="10.00">+ setTooltipHighlightColors()</text>
<text text-anchor="start" x="741.5" y="-800.5" font-family="Helvetica,sans-Serif" font-size="10.00">+ clearOptions()</text>
<text text-anchor="start" x="741.5" y="-789.5" font-family="Helvetica,sans-Serif" font-size="10.00">+ addOption()</text>
<text text-anchor="start" x="741.5" y="-778.5" font-family="Helvetica,sans-Serif" font-size="10.00">+ addOption()</text>
<text text-anchor="start" x="741.5" y="-767.5" font-family="Helvetica,sans-Serif" font-size="10.00">+ addOption()</text>
<text text-anchor="start" x="741.5" y="-756.5" font-family="Helvetica,sans-Serif" font-size="10.00">+ setShortcut()</text>
<text text-anchor="start" x="741.5" y="-745.5" font-family="Helvetica,sans-Serif" font-size="10.00">+ setEnabled()</text>
<text text-anchor="start" x="741.5" y="-734.5" font-family="Helvetica,sans-Serif" font-size="10.00">+ setTooltip()</text>
<text text-anchor="start" x="741.5" y="-723.5" font-family="Helvetica,sans-Serif" font-size="10.00">+ addSelector()</text>
<text text-anchor="start" x="741.5" y="-712.5" font-family="Helvetica,sans-Serif" font-size="10.00">and 16 more...</text>
</a>
</g>
</g>
<!-- Node9&#45;&gt;Node2 -->
<g id="edge9" class="edge">
<title>Node9&#45;&gt;Node2</title>
<path fill="none" stroke="#404040" d="M826.77,-705.5C829.39,-694.11 832.17,-682.05 835.04,-669.6"/>
<polygon fill="none" stroke="#404040" points="835.12,-669.25 832.57,-662.51 837.81,-657.56 840.36,-664.3 835.12,-669.25"/>
<text text-anchor="middle" x="853.5" y="-679" font-family="Helvetica,sans-Serif" font-size="10.00"> #options</text>
</g>
<!-- Node10 -->
<g id="node10" class="node">
<title>Node10</title>
<g id="a_node10"><a xlink:href="../../d4/ddc/interfacecom_1_1fs_1_1starfarer_1_1api_1_1campaign_1_1TextPanelAPI.html" target="_top" xlink:title=" ">
<polygon fill="none" stroke="black" points="897.5,-705.5 897.5,-883.5 1043.5,-883.5 1043.5,-705.5 897.5,-705.5"/>
<text text-anchor="start" x="905.5" y="-871.5" font-family="Helvetica,sans-Serif" font-size="10.00">com.fs.starfarer.api.campaign.</text>
<text text-anchor="middle" x="970.5" y="-860.5" font-family="Helvetica,sans-Serif" font-size="10.00">TextPanelAPI</text>
<polyline fill="none" stroke="black" points="897.5,-853.5 1043.5,-853.5 "/>
<text text-anchor="middle" x="970.5" y="-841.5" font-family="Helvetica,sans-Serif" font-size="10.00"> </text>
<polyline fill="none" stroke="black" points="897.5,-834.5 1043.5,-834.5 "/>
<text text-anchor="start" x="905.5" y="-822.5" font-family="Helvetica,sans-Serif" font-size="10.00">+ setFontInsignia()</text>
<text text-anchor="start" x="905.5" y="-811.5" font-family="Helvetica,sans-Serif" font-size="10.00">+ setFontOrbitron()</text>
<text text-anchor="start" x="905.5" y="-800.5" font-family="Helvetica,sans-Serif" font-size="10.00">+ setFontVictor()</text>
<text text-anchor="start" x="905.5" y="-789.5" font-family="Helvetica,sans-Serif" font-size="10.00">+ setFontSmallInsignia()</text>
<text text-anchor="start" x="905.5" y="-778.5" font-family="Helvetica,sans-Serif" font-size="10.00">+ addPara()</text>
<text text-anchor="start" x="905.5" y="-767.5" font-family="Helvetica,sans-Serif" font-size="10.00">+ addPara()</text>
<text text-anchor="start" x="905.5" y="-756.5" font-family="Helvetica,sans-Serif" font-size="10.00">+ addParagraph()</text>
<text text-anchor="start" x="905.5" y="-745.5" font-family="Helvetica,sans-Serif" font-size="10.00">+ addParagraph()</text>
<text text-anchor="start" x="905.5" y="-734.5" font-family="Helvetica,sans-Serif" font-size="10.00">+ replaceLastParagraph()</text>
<text text-anchor="start" x="905.5" y="-723.5" font-family="Helvetica,sans-Serif" font-size="10.00">+ replaceLastParagraph()</text>
<text text-anchor="start" x="905.5" y="-712.5" font-family="Helvetica,sans-Serif" font-size="10.00">and 25 more...</text>
</a>
</g>
</g>
<!-- Node10&#45;&gt;Node2 -->
<g id="edge10" class="edge">
<title>Node10&#45;&gt;Node2</title>
<path fill="none" stroke="#404040" d="M950.23,-705.5C947.61,-694.11 944.83,-682.05 941.96,-669.6"/>
<polygon fill="none" stroke="#404040" points="941.88,-669.25 936.64,-664.3 939.19,-657.56 944.43,-662.51 941.88,-669.25"/>
<text text-anchor="middle" x="956.5" y="-679" font-family="Helvetica,sans-Serif" font-size="10.00"> #text</text>
</g>
<!-- Node11 -->
<g id="node11" class="node">
<title>Node11</title>
<g id="a_node11"><a xlink:title=" ">
<polygon fill="none" stroke="#bfbfbf" points="1062,-766 1062,-823 1115,-823 1115,-766 1062,-766"/>
<text text-anchor="middle" x="1088.5" y="-811" font-family="Helvetica,sans-Serif" font-size="10.00">Random</text>
<polyline fill="none" stroke="#bfbfbf" points="1062,-804 1115,-804 "/>
<text text-anchor="middle" x="1088.5" y="-792" font-family="Helvetica,sans-Serif" font-size="10.00"> </text>
<polyline fill="none" stroke="#bfbfbf" points="1062,-785 1115,-785 "/>
<text text-anchor="middle" x="1088.5" y="-773" font-family="Helvetica,sans-Serif" font-size="10.00"> </text>
</a>
</g>
</g>
<!-- Node11&#45;&gt;Node2 -->
<g id="edge11" class="edge">
<title>Node11&#45;&gt;Node2</title>
<path fill="none" stroke="#404040" d="M1078.6,-765.87C1071.92,-748.15 1062.53,-724.84 1052.5,-705 1045.6,-691.34 1038.23,-677.47 1030.59,-663.58"/>
<polygon fill="none" stroke="#404040" points="1030.52,-663.45 1024.11,-660.14 1024.7,-652.96 1031.11,-656.26 1030.52,-663.45"/>
<text text-anchor="middle" x="1061.5" y="-679" font-family="Helvetica,sans-Serif" font-size="10.00"> #random</text>
</g>
<!-- Node12 -->
<g id="node12" class="node">
<title>Node12</title>
<g id="a_node12"><a xlink:href="../../da/d82/interfacecom_1_1fs_1_1starfarer_1_1api_1_1campaign_1_1InteractionDialogAPI.html" target="_top" xlink:title=" ">
<polygon fill="none" stroke="black" points="1133.5,-705.5 1133.5,-883.5 1279.5,-883.5 1279.5,-705.5 1133.5,-705.5"/>
<text text-anchor="start" x="1141.5" y="-871.5" font-family="Helvetica,sans-Serif" font-size="10.00">com.fs.starfarer.api.campaign.</text>
<text text-anchor="middle" x="1206.5" y="-860.5" font-family="Helvetica,sans-Serif" font-size="10.00">InteractionDialogAPI</text>
<polyline fill="none" stroke="black" points="1133.5,-853.5 1279.5,-853.5 "/>
<text text-anchor="middle" x="1206.5" y="-841.5" font-family="Helvetica,sans-Serif" font-size="10.00"> </text>
<polyline fill="none" stroke="black" points="1133.5,-834.5 1279.5,-834.5 "/>
<text text-anchor="start" x="1141.5" y="-822.5" font-family="Helvetica,sans-Serif" font-size="10.00">+ setTextWidth()</text>
<text text-anchor="start" x="1141.5" y="-811.5" font-family="Helvetica,sans-Serif" font-size="10.00">+ setTextHeight()</text>
<text text-anchor="start" x="1141.5" y="-800.5" font-family="Helvetica,sans-Serif" font-size="10.00">+ setXOffset()</text>
<text text-anchor="start" x="1141.5" y="-789.5" font-family="Helvetica,sans-Serif" font-size="10.00">+ setYOffset()</text>
<text text-anchor="start" x="1141.5" y="-778.5" font-family="Helvetica,sans-Serif" font-size="10.00">+ setPromptText()</text>
<text text-anchor="start" x="1141.5" y="-767.5" font-family="Helvetica,sans-Serif" font-size="10.00">+ hideTextPanel()</text>
<text text-anchor="start" x="1141.5" y="-756.5" font-family="Helvetica,sans-Serif" font-size="10.00">+ showTextPanel()</text>
<text text-anchor="start" x="1141.5" y="-745.5" font-family="Helvetica,sans-Serif" font-size="10.00">+ getTextWidth()</text>
<text text-anchor="start" x="1141.5" y="-734.5" font-family="Helvetica,sans-Serif" font-size="10.00">+ getTextHeight()</text>
<text text-anchor="start" x="1141.5" y="-723.5" font-family="Helvetica,sans-Serif" font-size="10.00">+ getXOffset()</text>
<text text-anchor="start" x="1141.5" y="-712.5" font-family="Helvetica,sans-Serif" font-size="10.00">and 37 more...</text>
</a>
</g>
</g>
<!-- Node12&#45;&gt;Node2 -->
<g id="edge12" class="edge">
<title>Node12&#45;&gt;Node2</title>
<path fill="none" stroke="#404040" d="M1133.15,-711.38C1103.26,-677.92 1067.62,-638.02 1032.91,-599.17"/>
<polygon fill="none" stroke="#404040" points="1032.58,-598.8 1025.6,-596.99 1024.59,-589.85 1031.57,-591.66 1032.58,-598.8"/>
<text text-anchor="middle" x="1121.5" y="-679" font-family="Helvetica,sans-Serif" font-size="10.00"> #dialog</text>
</g>
<!-- Node13 -->
<g id="node13" class="node">
<title>Node13</title>
<g id="a_node13"><a xlink:href="../../d1/d60/interfacecom_1_1fs_1_1starfarer_1_1api_1_1campaign_1_1VisualPanelAPI.html" target="_top" xlink:title=" ">
<polygon fill="none" stroke="black" points="1297.5,-705.5 1297.5,-883.5 1443.5,-883.5 1443.5,-705.5 1297.5,-705.5"/>
<text text-anchor="start" x="1305.5" y="-871.5" font-family="Helvetica,sans-Serif" font-size="10.00">com.fs.starfarer.api.campaign.</text>
<text text-anchor="middle" x="1370.5" y="-860.5" font-family="Helvetica,sans-Serif" font-size="10.00">VisualPanelAPI</text>
<polyline fill="none" stroke="black" points="1297.5,-853.5 1443.5,-853.5 "/>
<text text-anchor="middle" x="1370.5" y="-841.5" font-family="Helvetica,sans-Serif" font-size="10.00"> </text>
<polyline fill="none" stroke="black" points="1297.5,-834.5 1443.5,-834.5 "/>
<text text-anchor="start" x="1305.5" y="-822.5" font-family="Helvetica,sans-Serif" font-size="10.00">+ setVisualFade()</text>
<text text-anchor="start" x="1305.5" y="-811.5" font-family="Helvetica,sans-Serif" font-size="10.00">+ showFleetInfo()</text>
<text text-anchor="start" x="1305.5" y="-800.5" font-family="Helvetica,sans-Serif" font-size="10.00">+ showFleetInfo()</text>
<text text-anchor="start" x="1305.5" y="-789.5" font-family="Helvetica,sans-Serif" font-size="10.00">+ showPersonInfo()</text>
<text text-anchor="start" x="1305.5" y="-778.5" font-family="Helvetica,sans-Serif" font-size="10.00">+ showSecondPerson()</text>
<text text-anchor="start" x="1305.5" y="-767.5" font-family="Helvetica,sans-Serif" font-size="10.00">+ hideSecondPerson()</text>
<text text-anchor="start" x="1305.5" y="-756.5" font-family="Helvetica,sans-Serif" font-size="10.00">+ showPlanetInfo()</text>
<text text-anchor="start" x="1305.5" y="-745.5" font-family="Helvetica,sans-Serif" font-size="10.00">+ showFleetMemberInfo()</text>
<text text-anchor="start" x="1305.5" y="-734.5" font-family="Helvetica,sans-Serif" font-size="10.00">+ showImagePortion()</text>
<text text-anchor="start" x="1305.5" y="-723.5" font-family="Helvetica,sans-Serif" font-size="10.00">+ showImagePortion()</text>
<text text-anchor="start" x="1305.5" y="-712.5" font-family="Helvetica,sans-Serif" font-size="10.00">and 24 more...</text>
</a>
</g>
</g>
<!-- Node13&#45;&gt;Node2 -->
<g id="edge13" class="edge">
<title>Node13&#45;&gt;Node2</title>
<path fill="none" stroke="#404040" d="M1297.1,-712.6C1294.24,-709.99 1291.37,-707.45 1288.5,-705 1209.74,-637.79 1113.49,-572.96 1035.14,-523.96"/>
<polygon fill="none" stroke="#404040" points="1034.89,-523.8 1027.68,-524.02 1024.7,-517.45 1031.91,-517.23 1034.89,-523.8"/>
<text text-anchor="middle" x="1275.5" y="-679" font-family="Helvetica,sans-Serif" font-size="10.00"> #visual</text>
</g>
<!-- Node14 -->
<g id="node14" class="node">
<title>Node14</title>
<g id="a_node14"><a xlink:href="../../dc/d59/classcom_1_1fs_1_1starfarer_1_1api_1_1impl_1_1campaign_1_1rulecmd_1_1salvage_1_1special_1_1Domaic0ede09a91e009d308822dc91c83213a.html" target="_top" xlink:title=" ">
<polygon fill="none" stroke="black" points="1433.5,-386 1433.5,-487 1729.5,-487 1729.5,-386 1433.5,-386"/>
<text text-anchor="start" x="1441.5" y="-475" font-family="Helvetica,sans-Serif" font-size="10.00">com.fs.starfarer.api.impl.campaign.rulecmd.salvage.special.</text>
<text text-anchor="middle" x="1581.5" y="-464" font-family="Helvetica,sans-Serif" font-size="10.00">DomainSurveyDerelictSpecial.DomainSurveyDerelictSpecialData</text>
<polyline fill="none" stroke="black" points="1433.5,-457 1729.5,-457 "/>
<text text-anchor="start" x="1441.5" y="-445" font-family="Helvetica,sans-Serif" font-size="10.00">+ entityId</text>
<text text-anchor="start" x="1441.5" y="-434" font-family="Helvetica,sans-Serif" font-size="10.00">+ secondaryId</text>
<polyline fill="none" stroke="black" points="1433.5,-427 1729.5,-427 "/>
<text text-anchor="start" x="1441.5" y="-415" font-family="Helvetica,sans-Serif" font-size="10.00">+ DomainSurveyDerelictSpecial</text>
<text text-anchor="start" x="1441.5" y="-404" font-family="Helvetica,sans-Serif" font-size="10.00">Data()</text>
<text text-anchor="start" x="1441.5" y="-393" font-family="Helvetica,sans-Serif" font-size="10.00">+ createSpecialPlugin()</text>
</a>
</g>
</g>
<!-- Node14&#45;&gt;Node1 -->
<g id="edge14" class="edge">
<title>Node14&#45;&gt;Node1</title>
<path fill="none" stroke="#404040" d="M1526.32,-385.65C1466.01,-331.17 1368.1,-242.73 1294.05,-175.84"/>
<polygon fill="none" stroke="#404040" points="1294.05,-175.83 1286.92,-174.78 1285.15,-167.79 1292.28,-168.84 1294.05,-175.83"/>
<text text-anchor="middle" x="1321" y="-189" font-family="Helvetica,sans-Serif" font-size="10.00"> &#45;data</text>
</g>
<!-- Node15 -->
<g id="node15" class="node">
<title>Node15</title>
<g id="a_node15"><a xlink:href="../../dd/db2/interfacecom_1_1fs_1_1starfarer_1_1api_1_1impl_1_1campaign_1_1rulecmd_1_1salvage_1_1SalvageSpeci94e51af396b9f0721ebe1b0e0552adfe.html" target="_top" xlink:title=" ">
<polygon fill="none" stroke="black" points="1462,-760.5 1462,-828.5 1701,-828.5 1701,-760.5 1462,-760.5"/>
<text text-anchor="start" x="1470" y="-816.5" font-family="Helvetica,sans-Serif" font-size="10.00">com.fs.starfarer.api.impl.campaign.rulecmd.salvage.</text>
<text text-anchor="middle" x="1581.5" y="-805.5" font-family="Helvetica,sans-Serif" font-size="10.00">SalvageSpecialInteraction.SalvageSpecialData</text>
<polyline fill="none" stroke="black" points="1462,-798.5 1701,-798.5 "/>
<text text-anchor="middle" x="1581.5" y="-786.5" font-family="Helvetica,sans-Serif" font-size="10.00"> </text>
<polyline fill="none" stroke="black" points="1462,-779.5 1701,-779.5 "/>
<text text-anchor="start" x="1470" y="-767.5" font-family="Helvetica,sans-Serif" font-size="10.00">+ createSpecialPlugin()</text>
</a>
</g>
</g>
<!-- Node15&#45;&gt;Node14 -->
<g id="edge15" class="edge">
<title>Node15&#45;&gt;Node14</title>
<path fill="none" stroke="midnightblue" d="M1581.5,-750.2C1581.5,-683.78 1581.5,-557.09 1581.5,-487.08"/>
<polygon fill="none" stroke="midnightblue" points="1578,-750.33 1581.5,-760.33 1585,-750.33 1578,-750.33"/>
</g>
<!-- Node16 -->
<g id="node16" class="node">
<title>Node16</title>
<g id="a_node16"><a xlink:href="../../da/d8d/enumcom_1_1fs_1_1starfarer_1_1api_1_1impl_1_1campaign_1_1rulecmd_1_1salvage_1_1special_1_1Domain30d5a8557cd7c99d3bda9f8850793a09.html" target="_top" xlink:title=" ">
<polygon fill="none" stroke="black" points="1719.5,-738.5 1719.5,-850.5 1991.5,-850.5 1991.5,-738.5 1719.5,-738.5"/>
<text text-anchor="start" x="1727.5" y="-838.5" font-family="Helvetica,sans-Serif" font-size="10.00">com.fs.starfarer.api.impl.campaign.rulecmd.salvage.special.</text>
<text text-anchor="middle" x="1855.5" y="-827.5" font-family="Helvetica,sans-Serif" font-size="10.00">DomainSurveyDerelictSpecial.SpecialType</text>
<polyline fill="none" stroke="black" points="1719.5,-820.5 1991.5,-820.5 "/>
<text text-anchor="start" x="1727.5" y="-808.5" font-family="Helvetica,sans-Serif" font-size="10.00">+ SCRAMBLED</text>
<text text-anchor="start" x="1727.5" y="-797.5" font-family="Helvetica,sans-Serif" font-size="10.00">+ LOCATION_SURVEY_SHIP</text>
<text text-anchor="start" x="1727.5" y="-786.5" font-family="Helvetica,sans-Serif" font-size="10.00">+ LOCATION_MOTHERSHIP</text>
<text text-anchor="start" x="1727.5" y="-775.5" font-family="Helvetica,sans-Serif" font-size="10.00">+ ACTIVATE_PROBE</text>
<text text-anchor="start" x="1727.5" y="-764.5" font-family="Helvetica,sans-Serif" font-size="10.00">+ ACTIVATE_SURVEY_SHIP</text>
<polyline fill="none" stroke="black" points="1719.5,-757.5 1991.5,-757.5 "/>
<text text-anchor="middle" x="1855.5" y="-745.5" font-family="Helvetica,sans-Serif" font-size="10.00"> </text>
</a>
</g>
</g>
<!-- Node16&#45;&gt;Node14 -->
<g id="edge16" class="edge">
<title>Node16&#45;&gt;Node14</title>
<path fill="none" stroke="#404040" d="M1812.99,-738.27C1762.56,-672.74 1678.82,-563.95 1627.08,-496.72"/>
<polygon fill="none" stroke="#404040" points="1627.01,-496.63 1620.18,-494.31 1619.69,-487.12 1626.52,-489.43 1627.01,-496.63"/>
<text text-anchor="middle" x="1780" y="-679" font-family="Helvetica,sans-Serif" font-size="10.00"> +type</text>
</g>
</g>
</svg>
