<?xml version="1.0" encoding="UTF-8" standalone="no"?>
<!DOCTYPE svg PUBLIC "-//W3C//DTD SVG 1.1//EN"
 "http://www.w3.org/Graphics/SVG/1.1/DTD/svg11.dtd">
<!-- Generated by graphviz version 2.44.0 ()
 -->
<!-- Title: com.fs.starfarer.api.impl.campaign.intel.SystemBountyIntel.reportBattleOccurred Pages: 1 -->
<svg width="415pt" height="137pt"
 viewBox="0.00 0.00 415.00 137.00" xmlns="http://www.w3.org/2000/svg" xmlns:xlink="http://www.w3.org/1999/xlink">
<g id="graph0" class="graph" transform="scale(1 1) rotate(0) translate(4 133)">
<title>com.fs.starfarer.api.impl.campaign.intel.SystemBountyIntel.reportBattleOccurred</title>
<!-- Node1 -->
<g id="node1" class="node">
<title>Node1</title>
<g id="a_node1"><a xlink:title=" ">
<polygon fill="#bfbfbf" stroke="black" points="0,-49.5 0,-79.5 191,-79.5 191,-49.5 0,-49.5"/>
<text text-anchor="start" x="8" y="-67.5" font-family="Helvetica,sans-Serif" font-size="10.00">com.fs.starfarer.api.impl.campaign.intel.</text>
<text text-anchor="middle" x="95.5" y="-56.5" font-family="Helvetica,sans-Serif" font-size="10.00">SystemBountyIntel.reportBattleOccurred</text>
</a>
</g>
</g>
<!-- Node2 -->
<g id="node2" class="node">
<title>Node2</title>
<g id="a_node2"><a xlink:href="../../d4/dad/interfacecom_1_1fs_1_1starfarer_1_1api_1_1campaign_1_1SectorAPI.html#a254a303dda0ab94233231615f0ebeee1" target="_top" xlink:title=" ">
<polygon fill="none" stroke="black" points="235,-98.5 235,-128.5 399,-128.5 399,-98.5 235,-98.5"/>
<text text-anchor="start" x="243" y="-116.5" font-family="Helvetica,sans-Serif" font-size="10.00">com.fs.starfarer.api.campaign.</text>
<text text-anchor="middle" x="317" y="-105.5" font-family="Helvetica,sans-Serif" font-size="10.00">SectorAPI.adjustPlayerReputation</text>
</a>
</g>
</g>
<!-- Node1&#45;&gt;Node2 -->
<g id="edge1" class="edge">
<title>Node1&#45;&gt;Node2</title>
<path fill="none" stroke="midnightblue" d="M163.85,-79.53C187.55,-84.83 214.37,-90.81 238.82,-96.27"/>
<polygon fill="midnightblue" stroke="midnightblue" points="238.26,-99.73 248.78,-98.49 239.78,-92.9 238.26,-99.73"/>
</g>
<!-- Node3 -->
<g id="node3" class="node">
<title>Node3</title>
<g id="a_node3"><a xlink:href="../../d6/de1/interfacecom_1_1fs_1_1starfarer_1_1api_1_1campaign_1_1SectorEntityToken.html#ab219cada372a13654e8e912aba977b05" target="_top" xlink:title=" ">
<polygon fill="none" stroke="black" points="244,-49.5 244,-79.5 390,-79.5 390,-49.5 244,-49.5"/>
<text text-anchor="start" x="252" y="-67.5" font-family="Helvetica,sans-Serif" font-size="10.00">com.fs.starfarer.api.campaign.</text>
<text text-anchor="middle" x="317" y="-56.5" font-family="Helvetica,sans-Serif" font-size="10.00">SectorEntityToken.getCargo</text>
</a>
</g>
</g>
<!-- Node1&#45;&gt;Node3 -->
<g id="edge2" class="edge">
<title>Node1&#45;&gt;Node3</title>
<path fill="none" stroke="midnightblue" d="M191.18,-64.5C205.23,-64.5 219.62,-64.5 233.41,-64.5"/>
<polygon fill="midnightblue" stroke="midnightblue" points="233.81,-68 243.81,-64.5 233.81,-61 233.81,-68"/>
</g>
<!-- Node4 -->
<g id="node4" class="node">
<title>Node4</title>
<g id="a_node4"><a xlink:href="../../da/df9/interfacecom_1_1fs_1_1starfarer_1_1api_1_1campaign_1_1BattleAPI.html#a9c340e45334098226816d379614ee329" target="_top" xlink:title=" ">
<polygon fill="none" stroke="black" points="227,-0.5 227,-30.5 407,-30.5 407,-0.5 227,-0.5"/>
<text text-anchor="start" x="235" y="-18.5" font-family="Helvetica,sans-Serif" font-size="10.00">com.fs.starfarer.api.campaign.</text>
<text text-anchor="middle" x="317" y="-7.5" font-family="Helvetica,sans-Serif" font-size="10.00">BattleAPI.getNonPlayerSideSnapshot</text>
</a>
</g>
</g>
<!-- Node1&#45;&gt;Node4 -->
<g id="edge3" class="edge">
<title>Node1&#45;&gt;Node4</title>
<path fill="none" stroke="midnightblue" d="M163.85,-49.47C187.55,-44.17 214.37,-38.19 238.82,-32.73"/>
<polygon fill="midnightblue" stroke="midnightblue" points="239.78,-36.1 248.78,-30.51 238.26,-29.27 239.78,-36.1"/>
</g>
</g>
</svg>
