<?xml version="1.0" encoding="UTF-8" standalone="no"?>
<!DOCTYPE svg PUBLIC "-//W3C//DTD SVG 1.1//EN"
 "http://www.w3.org/Graphics/SVG/1.1/DTD/svg11.dtd">
<!-- Generated by graphviz version 2.44.0 ()
 -->
<!-- Title: com.fs.starfarer.api.impl.campaign.terrain.AsteroidBeltTerrainPlugin Pages: 1 -->
<svg width="864pt" height="1301pt"
 viewBox="0.00 0.00 863.50 1301.00" xmlns="http://www.w3.org/2000/svg" xmlns:xlink="http://www.w3.org/1999/xlink">
<g id="graph0" class="graph" transform="scale(1 1) rotate(0) translate(4 1297)">
<title>com.fs.starfarer.api.impl.campaign.terrain.AsteroidBeltTerrainPlugin</title>
<!-- Node1 -->
<g id="node1" class="node">
<title>Node1</title>
<g id="a_node1"><a xlink:title=" ">
<polygon fill="#bfbfbf" stroke="black" points="393.5,-0.5 393.5,-244.5 588.5,-244.5 588.5,-0.5 393.5,-0.5"/>
<text text-anchor="start" x="401.5" y="-232.5" font-family="Helvetica,sans-Serif" font-size="10.00">com.fs.starfarer.api.impl.campaign.terrain.</text>
<text text-anchor="middle" x="491" y="-221.5" font-family="Helvetica,sans-Serif" font-size="10.00">AsteroidBeltTerrainPlugin</text>
<polyline fill="none" stroke="black" points="393.5,-214.5 588.5,-214.5 "/>
<text text-anchor="start" x="401.5" y="-202.5" font-family="Helvetica,sans-Serif" font-size="10.00"># needToCreateAsteroids</text>
<polyline fill="none" stroke="black" points="393.5,-195.5 588.5,-195.5 "/>
<text text-anchor="start" x="401.5" y="-183.5" font-family="Helvetica,sans-Serif" font-size="10.00">+ renderOnMap()</text>
<text text-anchor="start" x="401.5" y="-172.5" font-family="Helvetica,sans-Serif" font-size="10.00">+ regenerateAsteroids()</text>
<text text-anchor="start" x="401.5" y="-161.5" font-family="Helvetica,sans-Serif" font-size="10.00">+ advance()</text>
<text text-anchor="start" x="401.5" y="-150.5" font-family="Helvetica,sans-Serif" font-size="10.00">+ init()</text>
<text text-anchor="start" x="401.5" y="-139.5" font-family="Helvetica,sans-Serif" font-size="10.00">+ render()</text>
<text text-anchor="start" x="401.5" y="-128.5" font-family="Helvetica,sans-Serif" font-size="10.00">+ applyEffect()</text>
<text text-anchor="start" x="401.5" y="-117.5" font-family="Helvetica,sans-Serif" font-size="10.00">+ hasTooltip()</text>
<text text-anchor="start" x="401.5" y="-106.5" font-family="Helvetica,sans-Serif" font-size="10.00">+ getNameForTooltip()</text>
<text text-anchor="start" x="401.5" y="-95.5" font-family="Helvetica,sans-Serif" font-size="10.00">+ getNameAOrAn()</text>
<text text-anchor="start" x="401.5" y="-84.5" font-family="Helvetica,sans-Serif" font-size="10.00">+ createTooltip()</text>
<text text-anchor="start" x="401.5" y="-73.5" font-family="Helvetica,sans-Serif" font-size="10.00">+ isTooltipExpandable()</text>
<text text-anchor="start" x="401.5" y="-62.5" font-family="Helvetica,sans-Serif" font-size="10.00">+ getTooltipWidth()</text>
<text text-anchor="start" x="401.5" y="-51.5" font-family="Helvetica,sans-Serif" font-size="10.00">+ getEffectCategory()</text>
<text text-anchor="start" x="401.5" y="-40.5" font-family="Helvetica,sans-Serif" font-size="10.00">+ hasAIFlag()</text>
<text text-anchor="start" x="401.5" y="-29.5" font-family="Helvetica,sans-Serif" font-size="10.00">+ reportAsteroidPersisted()</text>
<text text-anchor="start" x="401.5" y="-18.5" font-family="Helvetica,sans-Serif" font-size="10.00"># readResolve()</text>
<text text-anchor="start" x="401.5" y="-7.5" font-family="Helvetica,sans-Serif" font-size="10.00"># createAsteroids()</text>
</a>
</g>
</g>
<!-- Node2 -->
<g id="node2" class="node">
<title>Node2</title>
<g id="a_node2"><a xlink:href="../../da/de6/classcom_1_1fs_1_1starfarer_1_1api_1_1impl_1_1campaign_1_1terrain_1_1BaseRingTerrain.html" target="_top" xlink:title=" ">
<polygon fill="none" stroke="black" points="234.5,-292.5 234.5,-558.5 429.5,-558.5 429.5,-292.5 234.5,-292.5"/>
<text text-anchor="start" x="242.5" y="-546.5" font-family="Helvetica,sans-Serif" font-size="10.00">com.fs.starfarer.api.impl.campaign.terrain.</text>
<text text-anchor="middle" x="332" y="-535.5" font-family="Helvetica,sans-Serif" font-size="10.00">BaseRingTerrain</text>
<polyline fill="none" stroke="black" points="234.5,-528.5 429.5,-528.5 "/>
<text text-anchor="middle" x="332" y="-516.5" font-family="Helvetica,sans-Serif" font-size="10.00"> </text>
<polyline fill="none" stroke="black" points="234.5,-509.5 429.5,-509.5 "/>
<text text-anchor="start" x="242.5" y="-497.5" font-family="Helvetica,sans-Serif" font-size="10.00">+ init()</text>
<text text-anchor="start" x="242.5" y="-486.5" font-family="Helvetica,sans-Serif" font-size="10.00">+ getRelatedEntity()</text>
<text text-anchor="start" x="242.5" y="-475.5" font-family="Helvetica,sans-Serif" font-size="10.00">+ getActiveLayers()</text>
<text text-anchor="start" x="242.5" y="-464.5" font-family="Helvetica,sans-Serif" font-size="10.00">+ containsEntity()</text>
<text text-anchor="start" x="242.5" y="-453.5" font-family="Helvetica,sans-Serif" font-size="10.00">+ containsPoint()</text>
<text text-anchor="start" x="242.5" y="-442.5" font-family="Helvetica,sans-Serif" font-size="10.00">+ getRenderRange()</text>
<text text-anchor="start" x="242.5" y="-431.5" font-family="Helvetica,sans-Serif" font-size="10.00">+ getRingParams()</text>
<text text-anchor="start" x="242.5" y="-420.5" font-family="Helvetica,sans-Serif" font-size="10.00">+ getProximitySoundFactor()</text>
<text text-anchor="start" x="242.5" y="-409.5" font-family="Helvetica,sans-Serif" font-size="10.00">+ render()</text>
<text text-anchor="start" x="242.5" y="-398.5" font-family="Helvetica,sans-Serif" font-size="10.00">+ renderOnMap()</text>
<text text-anchor="start" x="242.5" y="-387.5" font-family="Helvetica,sans-Serif" font-size="10.00">+ renderOnMapAbove()</text>
<text text-anchor="start" x="242.5" y="-376.5" font-family="Helvetica,sans-Serif" font-size="10.00">+ getMaxEffectRadius()</text>
<text text-anchor="start" x="242.5" y="-365.5" font-family="Helvetica,sans-Serif" font-size="10.00">+ getMinEffectRadius()</text>
<text text-anchor="start" x="242.5" y="-354.5" font-family="Helvetica,sans-Serif" font-size="10.00">+ getOptimalEffectRadius()</text>
<text text-anchor="start" x="242.5" y="-343.5" font-family="Helvetica,sans-Serif" font-size="10.00">+ getNameAOrAn()</text>
<text text-anchor="start" x="242.5" y="-332.5" font-family="Helvetica,sans-Serif" font-size="10.00">~ writeReplace()</text>
<text text-anchor="start" x="242.5" y="-321.5" font-family="Helvetica,sans-Serif" font-size="10.00"># readResolve()</text>
<text text-anchor="start" x="242.5" y="-310.5" font-family="Helvetica,sans-Serif" font-size="10.00"># getMinRadiusForContains()</text>
<text text-anchor="start" x="242.5" y="-299.5" font-family="Helvetica,sans-Serif" font-size="10.00"># getMaxRadiusForContains()</text>
</a>
</g>
</g>
<!-- Node2&#45;&gt;Node1 -->
<g id="edge1" class="edge">
<title>Node2&#45;&gt;Node1</title>
<path fill="none" stroke="midnightblue" d="M406.49,-283.48C413.37,-270.45 420.31,-257.33 427.08,-244.5"/>
<polygon fill="none" stroke="midnightblue" points="403.32,-282 401.74,-292.48 409.51,-285.27 403.32,-282"/>
</g>
<!-- Node3 -->
<g id="node3" class="node">
<title>Node3</title>
<g id="a_node3"><a xlink:href="../../d9/d9b/classcom_1_1fs_1_1starfarer_1_1api_1_1impl_1_1campaign_1_1terrain_1_1BaseTerrain.html" target="_top" xlink:title=" ">
<polygon fill="none" stroke="black" points="440.5,-606.5 440.5,-949.5 635.5,-949.5 635.5,-606.5 440.5,-606.5"/>
<text text-anchor="start" x="448.5" y="-937.5" font-family="Helvetica,sans-Serif" font-size="10.00">com.fs.starfarer.api.impl.campaign.terrain.</text>
<text text-anchor="middle" x="538" y="-926.5" font-family="Helvetica,sans-Serif" font-size="10.00">BaseTerrain</text>
<polyline fill="none" stroke="black" points="440.5,-919.5 635.5,-919.5 "/>
<text text-anchor="start" x="448.5" y="-907.5" font-family="Helvetica,sans-Serif" font-size="10.00">+ EXTRA_SOUND_RADIUS</text>
<text text-anchor="start" x="448.5" y="-896.5" font-family="Helvetica,sans-Serif" font-size="10.00">+ TERRAIN_LOCK_KEY</text>
<text text-anchor="start" x="448.5" y="-885.5" font-family="Helvetica,sans-Serif" font-size="10.00"># terrainId</text>
<text text-anchor="start" x="448.5" y="-874.5" font-family="Helvetica,sans-Serif" font-size="10.00"># name</text>
<polyline fill="none" stroke="black" points="440.5,-867.5 635.5,-867.5 "/>
<text text-anchor="start" x="448.5" y="-855.5" font-family="Helvetica,sans-Serif" font-size="10.00">+ init()</text>
<text text-anchor="start" x="448.5" y="-844.5" font-family="Helvetica,sans-Serif" font-size="10.00">+ getIconSpriteName()</text>
<text text-anchor="start" x="448.5" y="-833.5" font-family="Helvetica,sans-Serif" font-size="10.00">+ getRelatedEntity()</text>
<text text-anchor="start" x="448.5" y="-822.5" font-family="Helvetica,sans-Serif" font-size="10.00">+ getEntity()</text>
<text text-anchor="start" x="448.5" y="-811.5" font-family="Helvetica,sans-Serif" font-size="10.00">+ getTerrainId()</text>
<text text-anchor="start" x="448.5" y="-800.5" font-family="Helvetica,sans-Serif" font-size="10.00">+ advance()</text>
<text text-anchor="start" x="448.5" y="-789.5" font-family="Helvetica,sans-Serif" font-size="10.00">+ getEffectCategory()</text>
<text text-anchor="start" x="448.5" y="-778.5" font-family="Helvetica,sans-Serif" font-size="10.00">+ containsEntity()</text>
<text text-anchor="start" x="448.5" y="-767.5" font-family="Helvetica,sans-Serif" font-size="10.00">+ containsPoint()</text>
<text text-anchor="start" x="448.5" y="-756.5" font-family="Helvetica,sans-Serif" font-size="10.00">+ stacksWithSelf()</text>
<text text-anchor="start" x="448.5" y="-745.5" font-family="Helvetica,sans-Serif" font-size="10.00">and 27 more...</text>
<text text-anchor="start" x="448.5" y="-734.5" font-family="Helvetica,sans-Serif" font-size="10.00"># shouldCheckFleetsToApply</text>
<text text-anchor="start" x="448.5" y="-723.5" font-family="Helvetica,sans-Serif" font-size="10.00">Effect()</text>
<text text-anchor="start" x="448.5" y="-712.5" font-family="Helvetica,sans-Serif" font-size="10.00"># getExtraSoundRadius()</text>
<text text-anchor="start" x="448.5" y="-701.5" font-family="Helvetica,sans-Serif" font-size="10.00"># createFirstSection()</text>
<text text-anchor="start" x="448.5" y="-690.5" font-family="Helvetica,sans-Serif" font-size="10.00"># createTravelSection()</text>
<text text-anchor="start" x="448.5" y="-679.5" font-family="Helvetica,sans-Serif" font-size="10.00"># createCombatSection()</text>
<text text-anchor="start" x="448.5" y="-668.5" font-family="Helvetica,sans-Serif" font-size="10.00"># shouldPlayLoopOne()</text>
<text text-anchor="start" x="448.5" y="-657.5" font-family="Helvetica,sans-Serif" font-size="10.00"># shouldPlayLoopTwo()</text>
<text text-anchor="start" x="448.5" y="-646.5" font-family="Helvetica,sans-Serif" font-size="10.00"># shouldPlayLoopThree()</text>
<text text-anchor="start" x="448.5" y="-635.5" font-family="Helvetica,sans-Serif" font-size="10.00"># shouldPlayLoopFour()</text>
<text text-anchor="start" x="448.5" y="-624.5" font-family="Helvetica,sans-Serif" font-size="10.00"># getLoopOnePitch()</text>
<text text-anchor="start" x="448.5" y="-613.5" font-family="Helvetica,sans-Serif" font-size="10.00">and 9 more...</text>
</a>
</g>
</g>
<!-- Node3&#45;&gt;Node2 -->
<g id="edge2" class="edge">
<title>Node3&#45;&gt;Node2</title>
<path fill="none" stroke="midnightblue" d="M435.33,-602.32C426.67,-587.58 418.01,-572.84 409.59,-558.51"/>
<polygon fill="none" stroke="midnightblue" points="432.34,-604.14 440.43,-610.99 438.38,-600.59 432.34,-604.14"/>
</g>
<!-- Node4 -->
<g id="node4" class="node">
<title>Node4</title>
<g id="a_node4"><a xlink:href="../../df/d02/interfacecom_1_1fs_1_1starfarer_1_1api_1_1campaign_1_1CampaignTerrainPlugin.html" target="_top" xlink:title=" ">
<polygon fill="none" stroke="black" points="544,-997.5 544,-1175.5 690,-1175.5 690,-997.5 544,-997.5"/>
<text text-anchor="start" x="552" y="-1163.5" font-family="Helvetica,sans-Serif" font-size="10.00">com.fs.starfarer.api.campaign.</text>
<text text-anchor="middle" x="617" y="-1152.5" font-family="Helvetica,sans-Serif" font-size="10.00">CampaignTerrainPlugin</text>
<polyline fill="none" stroke="black" points="544,-1145.5 690,-1145.5 "/>
<text text-anchor="middle" x="617" y="-1133.5" font-family="Helvetica,sans-Serif" font-size="10.00"> </text>
<polyline fill="none" stroke="black" points="544,-1126.5 690,-1126.5 "/>
<text text-anchor="start" x="552" y="-1114.5" font-family="Helvetica,sans-Serif" font-size="10.00">+ init()</text>
<text text-anchor="start" x="552" y="-1103.5" font-family="Helvetica,sans-Serif" font-size="10.00">+ getTerrainId()</text>
<text text-anchor="start" x="552" y="-1092.5" font-family="Helvetica,sans-Serif" font-size="10.00">+ getRenderRange()</text>
<text text-anchor="start" x="552" y="-1081.5" font-family="Helvetica,sans-Serif" font-size="10.00">+ getActiveLayers()</text>
<text text-anchor="start" x="552" y="-1070.5" font-family="Helvetica,sans-Serif" font-size="10.00">+ render()</text>
<text text-anchor="start" x="552" y="-1059.5" font-family="Helvetica,sans-Serif" font-size="10.00">+ advance()</text>
<text text-anchor="start" x="552" y="-1048.5" font-family="Helvetica,sans-Serif" font-size="10.00">+ renderOnMap()</text>
<text text-anchor="start" x="552" y="-1037.5" font-family="Helvetica,sans-Serif" font-size="10.00">+ renderOnMapAbove()</text>
<text text-anchor="start" x="552" y="-1026.5" font-family="Helvetica,sans-Serif" font-size="10.00">+ containsEntity()</text>
<text text-anchor="start" x="552" y="-1015.5" font-family="Helvetica,sans-Serif" font-size="10.00">+ containsPoint()</text>
<text text-anchor="start" x="552" y="-1004.5" font-family="Helvetica,sans-Serif" font-size="10.00">and 19 more...</text>
</a>
</g>
</g>
<!-- Node4&#45;&gt;Node3 -->
<g id="edge3" class="edge">
<title>Node4&#45;&gt;Node3</title>
<path fill="none" stroke="midnightblue" d="M591.76,-987.56C588.6,-975.31 585.3,-962.52 581.96,-949.56"/>
<polygon fill="none" stroke="midnightblue" points="588.37,-988.45 594.26,-997.26 595.15,-986.7 588.37,-988.45"/>
</g>
<!-- Node5 -->
<g id="node5" class="node">
<title>Node5</title>
<g id="a_node5"><a xlink:href="../../d6/de1/interfacecom_1_1fs_1_1starfarer_1_1api_1_1campaign_1_1SectorEntityToken.html" target="_top" xlink:title=" ">
<polygon fill="none" stroke="black" points="201,-997.5 201,-1175.5 347,-1175.5 347,-997.5 201,-997.5"/>
<text text-anchor="start" x="209" y="-1163.5" font-family="Helvetica,sans-Serif" font-size="10.00">com.fs.starfarer.api.campaign.</text>
<text text-anchor="middle" x="274" y="-1152.5" font-family="Helvetica,sans-Serif" font-size="10.00">SectorEntityToken</text>
<polyline fill="none" stroke="black" points="201,-1145.5 347,-1145.5 "/>
<text text-anchor="middle" x="274" y="-1133.5" font-family="Helvetica,sans-Serif" font-size="10.00"> </text>
<polyline fill="none" stroke="black" points="201,-1126.5 347,-1126.5 "/>
<text text-anchor="start" x="209" y="-1114.5" font-family="Helvetica,sans-Serif" font-size="10.00">+ isPlayerFleet()</text>
<text text-anchor="start" x="209" y="-1103.5" font-family="Helvetica,sans-Serif" font-size="10.00">+ getMarket()</text>
<text text-anchor="start" x="209" y="-1092.5" font-family="Helvetica,sans-Serif" font-size="10.00">+ setMarket()</text>
<text text-anchor="start" x="209" y="-1081.5" font-family="Helvetica,sans-Serif" font-size="10.00">+ getCargo()</text>
<text text-anchor="start" x="209" y="-1070.5" font-family="Helvetica,sans-Serif" font-size="10.00">+ getLocation()</text>
<text text-anchor="start" x="209" y="-1059.5" font-family="Helvetica,sans-Serif" font-size="10.00">+ getLocationInHyperspace()</text>
<text text-anchor="start" x="209" y="-1048.5" font-family="Helvetica,sans-Serif" font-size="10.00">+ getOrbit()</text>
<text text-anchor="start" x="209" y="-1037.5" font-family="Helvetica,sans-Serif" font-size="10.00">+ setOrbit()</text>
<text text-anchor="start" x="209" y="-1026.5" font-family="Helvetica,sans-Serif" font-size="10.00">+ getId()</text>
<text text-anchor="start" x="209" y="-1015.5" font-family="Helvetica,sans-Serif" font-size="10.00">+ getName()</text>
<text text-anchor="start" x="209" y="-1004.5" font-family="Helvetica,sans-Serif" font-size="10.00">and 115 more...</text>
</a>
</g>
</g>
<!-- Node5&#45;&gt;Node3 -->
<g id="edge4" class="edge">
<title>Node5&#45;&gt;Node3</title>
<path fill="none" stroke="#404040" d="M347.18,-1026.4C381.4,-998.04 417.72,-966.67 432,-950 432.18,-949.79 432.35,-949.59 432.53,-949.38"/>
<polygon fill="none" stroke="#404040" points="432.79,-949.06 433.54,-941.89 440.44,-939.82 439.7,-946.99 432.79,-949.06"/>
<text text-anchor="middle" x="430.5" y="-971" font-family="Helvetica,sans-Serif" font-size="10.00"> #entity</text>
</g>
<!-- Node9 -->
<g id="node9" class="node">
<title>Node9</title>
<g id="a_node9"><a xlink:href="../../d7/dd4/classcom_1_1fs_1_1starfarer_1_1api_1_1impl_1_1campaign_1_1terrain_1_1BaseRingTerrain_1_1RingParams.html" target="_top" xlink:title=" ">
<polygon fill="none" stroke="black" points="16.5,-727.5 16.5,-828.5 211.5,-828.5 211.5,-727.5 16.5,-727.5"/>
<text text-anchor="start" x="24.5" y="-816.5" font-family="Helvetica,sans-Serif" font-size="10.00">com.fs.starfarer.api.impl.campaign.terrain.</text>
<text text-anchor="middle" x="114" y="-805.5" font-family="Helvetica,sans-Serif" font-size="10.00">BaseRingTerrain.RingParams</text>
<polyline fill="none" stroke="black" points="16.5,-798.5 211.5,-798.5 "/>
<text text-anchor="start" x="24.5" y="-786.5" font-family="Helvetica,sans-Serif" font-size="10.00">+ bandWidthInEngine</text>
<text text-anchor="start" x="24.5" y="-775.5" font-family="Helvetica,sans-Serif" font-size="10.00">+ middleRadius</text>
<text text-anchor="start" x="24.5" y="-764.5" font-family="Helvetica,sans-Serif" font-size="10.00">+ name</text>
<polyline fill="none" stroke="black" points="16.5,-757.5 211.5,-757.5 "/>
<text text-anchor="start" x="24.5" y="-745.5" font-family="Helvetica,sans-Serif" font-size="10.00">+ RingParams()</text>
<text text-anchor="start" x="24.5" y="-734.5" font-family="Helvetica,sans-Serif" font-size="10.00">+ RingParams()</text>
</a>
</g>
</g>
<!-- Node5&#45;&gt;Node9 -->
<g id="edge9" class="edge">
<title>Node5&#45;&gt;Node9</title>
<path fill="none" stroke="#404040" d="M227.94,-997.26C201.5,-946.61 168.99,-884.34 145.47,-839.29"/>
<polygon fill="none" stroke="#404040" points="145.4,-839.15 139.08,-835.68 139.85,-828.51 146.17,-831.98 145.4,-839.15"/>
<text text-anchor="middle" x="249" y="-971" font-family="Helvetica,sans-Serif" font-size="10.00"> +relatedEntity</text>
</g>
<!-- Node6 -->
<g id="node6" class="node">
<title>Node6</title>
<g id="a_node6"><a xlink:href="../../de/da5/interfacecom_1_1fs_1_1starfarer_1_1api_1_1campaign_1_1rules_1_1HasMemory.html" target="_top" xlink:title=" ">
<polygon fill="none" stroke="black" points="189.5,-1213.5 189.5,-1292.5 358.5,-1292.5 358.5,-1213.5 189.5,-1213.5"/>
<text text-anchor="start" x="197.5" y="-1280.5" font-family="Helvetica,sans-Serif" font-size="10.00">com.fs.starfarer.api.campaign.rules.</text>
<text text-anchor="middle" x="274" y="-1269.5" font-family="Helvetica,sans-Serif" font-size="10.00">HasMemory</text>
<polyline fill="none" stroke="black" points="189.5,-1262.5 358.5,-1262.5 "/>
<text text-anchor="middle" x="274" y="-1250.5" font-family="Helvetica,sans-Serif" font-size="10.00"> </text>
<polyline fill="none" stroke="black" points="189.5,-1243.5 358.5,-1243.5 "/>
<text text-anchor="start" x="197.5" y="-1231.5" font-family="Helvetica,sans-Serif" font-size="10.00">+ getMemory()</text>
<text text-anchor="start" x="197.5" y="-1220.5" font-family="Helvetica,sans-Serif" font-size="10.00">+ getMemoryWithoutUpdate()</text>
</a>
</g>
</g>
<!-- Node6&#45;&gt;Node5 -->
<g id="edge5" class="edge">
<title>Node6&#45;&gt;Node5</title>
<path fill="none" stroke="midnightblue" d="M274,-1203.39C274,-1194.56 274,-1185.11 274,-1175.55"/>
<polygon fill="none" stroke="midnightblue" points="270.5,-1203.43 274,-1213.43 277.5,-1203.43 270.5,-1203.43"/>
</g>
<!-- Node7 -->
<g id="node7" class="node">
<title>Node7</title>
<g id="a_node7"><a xlink:href="../../d4/d32/interfacecom_1_1fs_1_1starfarer_1_1api_1_1loading_1_1TerrainSpecAPI.html" target="_top" xlink:title=" ">
<polygon fill="none" stroke="black" points="392,-1014 392,-1159 526,-1159 526,-1014 392,-1014"/>
<text text-anchor="start" x="400" y="-1147" font-family="Helvetica,sans-Serif" font-size="10.00">com.fs.starfarer.api.loading.</text>
<text text-anchor="middle" x="459" y="-1136" font-family="Helvetica,sans-Serif" font-size="10.00">TerrainSpecAPI</text>
<polyline fill="none" stroke="black" points="392,-1129 526,-1129 "/>
<text text-anchor="middle" x="459" y="-1117" font-family="Helvetica,sans-Serif" font-size="10.00"> </text>
<polyline fill="none" stroke="black" points="392,-1110 526,-1110 "/>
<text text-anchor="start" x="400" y="-1098" font-family="Helvetica,sans-Serif" font-size="10.00">+ getId()</text>
<text text-anchor="start" x="400" y="-1087" font-family="Helvetica,sans-Serif" font-size="10.00">+ getPluginClass()</text>
<text text-anchor="start" x="400" y="-1076" font-family="Helvetica,sans-Serif" font-size="10.00">+ getLoopOne()</text>
<text text-anchor="start" x="400" y="-1065" font-family="Helvetica,sans-Serif" font-size="10.00">+ getLoopTwo()</text>
<text text-anchor="start" x="400" y="-1054" font-family="Helvetica,sans-Serif" font-size="10.00">+ getLoopThree()</text>
<text text-anchor="start" x="400" y="-1043" font-family="Helvetica,sans-Serif" font-size="10.00">+ getLoopFour()</text>
<text text-anchor="start" x="400" y="-1032" font-family="Helvetica,sans-Serif" font-size="10.00">+ getCustom()</text>
<text text-anchor="start" x="400" y="-1021" font-family="Helvetica,sans-Serif" font-size="10.00">+ getMusicSuppression()</text>
</a>
</g>
</g>
<!-- Node7&#45;&gt;Node3 -->
<g id="edge6" class="edge">
<title>Node7&#45;&gt;Node3</title>
<path fill="none" stroke="#404040" d="M477.52,-1013.64C481.68,-997.52 486.27,-979.72 491,-961.33"/>
<polygon fill="none" stroke="#404040" points="491.06,-961.12 488.68,-954.31 494.05,-949.5 496.43,-956.31 491.06,-961.12"/>
<text text-anchor="middle" x="503.5" y="-971" font-family="Helvetica,sans-Serif" font-size="10.00"> &#45;spec</text>
</g>
<!-- Node8 -->
<g id="node8" class="node">
<title>Node8</title>
<g id="a_node8"><a xlink:title=" ">
<polygon fill="none" stroke="#bfbfbf" points="229,-744 229,-812 423,-812 423,-744 229,-744"/>
<text text-anchor="start" x="237" y="-800" font-family="Helvetica,sans-Serif" font-size="10.00">EnumSet&lt; com.fs.starfarer.api.campaign.</text>
<text text-anchor="middle" x="326" y="-789" font-family="Helvetica,sans-Serif" font-size="10.00">CampaignEngineLayers &gt;</text>
<polyline fill="none" stroke="#bfbfbf" points="229,-782 423,-782 "/>
<text text-anchor="middle" x="326" y="-770" font-family="Helvetica,sans-Serif" font-size="10.00"> </text>
<polyline fill="none" stroke="#bfbfbf" points="229,-763 423,-763 "/>
<text text-anchor="middle" x="326" y="-751" font-family="Helvetica,sans-Serif" font-size="10.00"> </text>
</a>
</g>
</g>
<!-- Node8&#45;&gt;Node2 -->
<g id="edge7" class="edge">
<title>Node8&#45;&gt;Node2</title>
<path fill="none" stroke="#404040" d="M326.57,-743.71C327.25,-703.9 328.44,-634.63 329.53,-570.97"/>
<polygon fill="none" stroke="#404040" points="329.53,-570.73 325.63,-564.67 329.74,-558.74 333.63,-564.8 329.53,-570.73"/>
<text text-anchor="middle" x="347" y="-580" font-family="Helvetica,sans-Serif" font-size="10.00"> #layers</text>
</g>
<!-- Node9&#45;&gt;Node2 -->
<g id="edge8" class="edge">
<title>Node9&#45;&gt;Node2</title>
<path fill="none" stroke="#404040" d="M144.81,-727.22C165.94,-693.09 194.64,-646.78 220,-606 227.43,-594.06 235.14,-581.68 242.88,-569.25"/>
<polygon fill="none" stroke="#404040" points="243.04,-568.99 242.82,-561.79 249.38,-558.81 249.61,-566.02 243.04,-568.99"/>
<text text-anchor="middle" x="256.5" y="-580" font-family="Helvetica,sans-Serif" font-size="10.00"> +params</text>
</g>
<!-- Node11 -->
<g id="node11" class="node">
<title>Node11</title>
<g id="a_node11"><a xlink:href="../../d5/dca/classcom_1_1fs_1_1starfarer_1_1api_1_1impl_1_1campaign_1_1terrain_1_1AsteroidBeltTerrainPlugin_1_1AsteroidBeltParams.html" target="_top" xlink:title=" ">
<polygon fill="none" stroke="black" points="0,-369.5 0,-481.5 216,-481.5 216,-369.5 0,-369.5"/>
<text text-anchor="start" x="8" y="-469.5" font-family="Helvetica,sans-Serif" font-size="10.00">com.fs.starfarer.api.impl.campaign.terrain.</text>
<text text-anchor="middle" x="108" y="-458.5" font-family="Helvetica,sans-Serif" font-size="10.00">AsteroidBeltTerrainPlugin.AsteroidBeltParams</text>
<polyline fill="none" stroke="black" points="0,-451.5 216,-451.5 "/>
<text text-anchor="start" x="8" y="-439.5" font-family="Helvetica,sans-Serif" font-size="10.00">+ numAsteroids</text>
<text text-anchor="start" x="8" y="-428.5" font-family="Helvetica,sans-Serif" font-size="10.00">+ minOrbitDays</text>
<text text-anchor="start" x="8" y="-417.5" font-family="Helvetica,sans-Serif" font-size="10.00">+ maxOrbitDays</text>
<text text-anchor="start" x="8" y="-406.5" font-family="Helvetica,sans-Serif" font-size="10.00">+ minSize</text>
<text text-anchor="start" x="8" y="-395.5" font-family="Helvetica,sans-Serif" font-size="10.00">+ maxSize</text>
<polyline fill="none" stroke="black" points="0,-388.5 216,-388.5 "/>
<text text-anchor="start" x="8" y="-376.5" font-family="Helvetica,sans-Serif" font-size="10.00">+ AsteroidBeltParams()</text>
</a>
</g>
</g>
<!-- Node9&#45;&gt;Node11 -->
<g id="edge12" class="edge">
<title>Node9&#45;&gt;Node11</title>
<path fill="none" stroke="midnightblue" d="M112.97,-716.9C111.84,-650.86 110.04,-545.67 108.94,-481.66"/>
<polygon fill="none" stroke="midnightblue" points="109.48,-717.22 113.15,-727.15 116.47,-717.1 109.48,-717.22"/>
</g>
<!-- Node10 -->
<g id="node10" class="node">
<title>Node10</title>
<g id="a_node10"><a xlink:href="../../dd/d22/interfacecom_1_1fs_1_1starfarer_1_1api_1_1impl_1_1campaign_1_1terrain_1_1AsteroidSource.html" target="_top" xlink:title=" ">
<polygon fill="none" stroke="black" points="447.5,-386 447.5,-465 642.5,-465 642.5,-386 447.5,-386"/>
<text text-anchor="start" x="455.5" y="-453" font-family="Helvetica,sans-Serif" font-size="10.00">com.fs.starfarer.api.impl.campaign.terrain.</text>
<text text-anchor="middle" x="545" y="-442" font-family="Helvetica,sans-Serif" font-size="10.00">AsteroidSource</text>
<polyline fill="none" stroke="black" points="447.5,-435 642.5,-435 "/>
<text text-anchor="middle" x="545" y="-423" font-family="Helvetica,sans-Serif" font-size="10.00"> </text>
<polyline fill="none" stroke="black" points="447.5,-416 642.5,-416 "/>
<text text-anchor="start" x="455.5" y="-404" font-family="Helvetica,sans-Serif" font-size="10.00">+ reportAsteroidPersisted()</text>
<text text-anchor="start" x="455.5" y="-393" font-family="Helvetica,sans-Serif" font-size="10.00">+ regenerateAsteroids()</text>
</a>
</g>
</g>
<!-- Node10&#45;&gt;Node1 -->
<g id="edge10" class="edge">
<title>Node10&#45;&gt;Node1</title>
<path fill="none" stroke="midnightblue" d="M536.24,-375.69C529.88,-340.2 520.97,-290.54 512.74,-244.66"/>
<polygon fill="none" stroke="midnightblue" points="532.84,-376.54 538.05,-385.77 539.73,-375.3 532.84,-376.54"/>
</g>
<!-- Node11&#45;&gt;Node1 -->
<g id="edge11" class="edge">
<title>Node11&#45;&gt;Node1</title>
<path fill="none" stroke="#404040" d="M150.67,-369.36C171.58,-344.21 198.03,-315 225,-292 273.25,-250.86 332.39,-212.4 382.64,-182.65"/>
<polygon fill="none" stroke="#404040" points="382.88,-182.51 386.03,-176.02 393.22,-176.43 390.08,-182.92 382.88,-182.51"/>
<text text-anchor="middle" x="279.5" y="-266" font-family="Helvetica,sans-Serif" font-size="10.00"> +params</text>
</g>
<!-- Node12 -->
<g id="node12" class="node">
<title>Node12</title>
<g id="a_node12"><a xlink:href="../../d6/db7/classcom_1_1fs_1_1starfarer_1_1api_1_1impl_1_1campaign_1_1terrain_1_1RingRenderer.html" target="_top" xlink:title=" ">
<polygon fill="none" stroke="black" points="660.5,-386 660.5,-465 855.5,-465 855.5,-386 660.5,-386"/>
<text text-anchor="start" x="668.5" y="-453" font-family="Helvetica,sans-Serif" font-size="10.00">com.fs.starfarer.api.impl.campaign.terrain.</text>
<text text-anchor="middle" x="758" y="-442" font-family="Helvetica,sans-Serif" font-size="10.00">RingRenderer</text>
<polyline fill="none" stroke="black" points="660.5,-435 855.5,-435 "/>
<text text-anchor="middle" x="758" y="-423" font-family="Helvetica,sans-Serif" font-size="10.00"> </text>
<polyline fill="none" stroke="black" points="660.5,-416 855.5,-416 "/>
<text text-anchor="start" x="668.5" y="-404" font-family="Helvetica,sans-Serif" font-size="10.00">+ RingRenderer()</text>
<text text-anchor="start" x="668.5" y="-393" font-family="Helvetica,sans-Serif" font-size="10.00">+ render()</text>
</a>
</g>
</g>
<!-- Node12&#45;&gt;Node1 -->
<g id="edge13" class="edge">
<title>Node12&#45;&gt;Node1</title>
<path fill="none" stroke="#404040" d="M728.12,-385.85C707.09,-359.06 677.98,-322.8 651,-292 633.94,-272.53 615.38,-252.23 597.14,-232.74"/>
<polygon fill="none" stroke="#404040" points="597.01,-232.6 589.99,-230.97 588.79,-223.85 595.82,-225.49 597.01,-232.6"/>
<text text-anchor="middle" x="641" y="-266" font-family="Helvetica,sans-Serif" font-size="10.00"> &#45;rr</text>
</g>
<!-- Node13 -->
<g id="node13" class="node">
<title>Node13</title>
<g id="a_node13"><a xlink:href="../../db/d53/interfacecom_1_1fs_1_1starfarer_1_1api_1_1graphics_1_1SpriteAPI.html" target="_top" xlink:title=" ">
<polygon fill="none" stroke="black" points="688,-689 688,-867 828,-867 828,-689 688,-689"/>
<text text-anchor="start" x="696" y="-855" font-family="Helvetica,sans-Serif" font-size="10.00">com.fs.starfarer.api.graphics.</text>
<text text-anchor="middle" x="758" y="-844" font-family="Helvetica,sans-Serif" font-size="10.00">SpriteAPI</text>
<polyline fill="none" stroke="black" points="688,-837 828,-837 "/>
<text text-anchor="middle" x="758" y="-825" font-family="Helvetica,sans-Serif" font-size="10.00"> </text>
<polyline fill="none" stroke="black" points="688,-818 828,-818 "/>
<text text-anchor="start" x="696" y="-806" font-family="Helvetica,sans-Serif" font-size="10.00">+ setBlendFunc()</text>
<text text-anchor="start" x="696" y="-795" font-family="Helvetica,sans-Serif" font-size="10.00">+ setNormalBlend()</text>
<text text-anchor="start" x="696" y="-784" font-family="Helvetica,sans-Serif" font-size="10.00">+ setAdditiveBlend()</text>
<text text-anchor="start" x="696" y="-773" font-family="Helvetica,sans-Serif" font-size="10.00">+ setCenter()</text>
<text text-anchor="start" x="696" y="-762" font-family="Helvetica,sans-Serif" font-size="10.00">+ setSize()</text>
<text text-anchor="start" x="696" y="-751" font-family="Helvetica,sans-Serif" font-size="10.00">+ getAngle()</text>
<text text-anchor="start" x="696" y="-740" font-family="Helvetica,sans-Serif" font-size="10.00">+ setAngle()</text>
<text text-anchor="start" x="696" y="-729" font-family="Helvetica,sans-Serif" font-size="10.00">+ getColor()</text>
<text text-anchor="start" x="696" y="-718" font-family="Helvetica,sans-Serif" font-size="10.00">+ setColor()</text>
<text text-anchor="start" x="696" y="-707" font-family="Helvetica,sans-Serif" font-size="10.00">+ setHeight()</text>
<text text-anchor="start" x="696" y="-696" font-family="Helvetica,sans-Serif" font-size="10.00">and 24 more...</text>
</a>
</g>
</g>
<!-- Node13&#45;&gt;Node12 -->
<g id="edge14" class="edge">
<title>Node13&#45;&gt;Node12</title>
<path fill="none" stroke="#404040" d="M758,-688.55C758,-621.76 758,-532.47 758,-477.26"/>
<polygon fill="none" stroke="#404040" points="758,-477 754,-471 758,-465 762,-471 758,-477"/>
<text text-anchor="middle" x="775.5" y="-580" font-family="Helvetica,sans-Serif" font-size="10.00"> &#45;texture</text>
</g>
</g>
</svg>
