<?xml version="1.0" encoding="UTF-8" standalone="no"?>
<!DOCTYPE svg PUBLIC "-//W3C//DTD SVG 1.1//EN"
 "http://www.w3.org/Graphics/SVG/1.1/DTD/svg11.dtd">
<!-- Generated by graphviz version 2.44.0 ()
 -->
<!-- Title: com.fs.starfarer.api.impl.campaign.ghosts.SensorGhostManager.advance Pages: 1 -->
<svg width="366pt" height="88pt"
 viewBox="0.00 0.00 366.00 88.00" xmlns="http://www.w3.org/2000/svg" xmlns:xlink="http://www.w3.org/1999/xlink">
<g id="graph0" class="graph" transform="scale(1 1) rotate(0) translate(4 84)">
<title>com.fs.starfarer.api.impl.campaign.ghosts.SensorGhostManager.advance</title>
<!-- Node1 -->
<g id="node1" class="node">
<title>Node1</title>
<g id="a_node1"><a xlink:title=" ">
<polygon fill="#bfbfbf" stroke="black" points="0,-24.5 0,-54.5 197,-54.5 197,-24.5 0,-24.5"/>
<text text-anchor="start" x="8" y="-42.5" font-family="Helvetica,sans-Serif" font-size="10.00">com.fs.starfarer.api.impl.campaign.ghosts.</text>
<text text-anchor="middle" x="98.5" y="-31.5" font-family="Helvetica,sans-Serif" font-size="10.00">SensorGhostManager.advance</text>
</a>
</g>
</g>
<!-- Node2 -->
<g id="node2" class="node">
<title>Node2</title>
<g id="a_node2"><a xlink:href="../../d7/d63/interfacecom_1_1fs_1_1starfarer_1_1api_1_1EveryFrameScript.html#a3a97090ca8cfdc230e9ad7e633407af6" target="_top" xlink:title=" ">
<polygon fill="none" stroke="black" points="233,-49.5 233,-79.5 358,-79.5 358,-49.5 233,-49.5"/>
<text text-anchor="start" x="241" y="-67.5" font-family="Helvetica,sans-Serif" font-size="10.00">com.fs.starfarer.api.Every</text>
<text text-anchor="middle" x="295.5" y="-56.5" font-family="Helvetica,sans-Serif" font-size="10.00">FrameScript.advance</text>
</a>
</g>
</g>
<!-- Node1&#45;&gt;Node2 -->
<g id="edge1" class="edge">
<title>Node1&#45;&gt;Node2</title>
<path fill="none" stroke="midnightblue" d="M197.29,-52.04C205.87,-53.14 214.44,-54.24 222.75,-55.3"/>
<polygon fill="midnightblue" stroke="midnightblue" points="222.37,-58.78 232.73,-56.58 223.26,-51.84 222.37,-58.78"/>
</g>
<!-- Node3 -->
<g id="node3" class="node">
<title>Node3</title>
<g id="a_node3"><a xlink:href="../../d7/d63/interfacecom_1_1fs_1_1starfarer_1_1api_1_1EveryFrameScript.html#a2b9a206acf99d1cdc1511885d14bb58c" target="_top" xlink:title=" ">
<polygon fill="none" stroke="black" points="233,-0.5 233,-30.5 358,-30.5 358,-0.5 233,-0.5"/>
<text text-anchor="start" x="241" y="-18.5" font-family="Helvetica,sans-Serif" font-size="10.00">com.fs.starfarer.api.Every</text>
<text text-anchor="middle" x="295.5" y="-7.5" font-family="Helvetica,sans-Serif" font-size="10.00">FrameScript.isDone</text>
</a>
</g>
</g>
<!-- Node1&#45;&gt;Node3 -->
<g id="edge2" class="edge">
<title>Node1&#45;&gt;Node3</title>
<path fill="none" stroke="midnightblue" d="M197.29,-27.46C205.87,-26.41 214.44,-25.35 222.75,-24.33"/>
<polygon fill="midnightblue" stroke="midnightblue" points="223.24,-27.8 232.73,-23.1 222.38,-20.85 223.24,-27.8"/>
</g>
</g>
</svg>
