<?xml version="1.0" encoding="UTF-8" standalone="no"?>
<!DOCTYPE svg PUBLIC "-//W3C//DTD SVG 1.1//EN"
 "http://www.w3.org/Graphics/SVG/1.1/DTD/svg11.dtd">
<!-- Generated by graphviz version 2.44.0 ()
 -->
<!-- Title: com.fs.starfarer.api.impl.campaign.procgen.ProcgenUsedNames Pages: 1 -->
<svg width="211pt" height="226pt"
 viewBox="0.00 0.00 211.00 226.00" xmlns="http://www.w3.org/2000/svg" xmlns:xlink="http://www.w3.org/1999/xlink">
<g id="graph0" class="graph" transform="scale(1 1) rotate(0) translate(4 222)">
<title>com.fs.starfarer.api.impl.campaign.procgen.ProcgenUsedNames</title>
<!-- Node1 -->
<g id="node1" class="node">
<title>Node1</title>
<g id="a_node1"><a xlink:title=" ">
<polygon fill="#bfbfbf" stroke="black" points="0,-0.5 0,-112.5 203,-112.5 203,-0.5 0,-0.5"/>
<text text-anchor="start" x="8" y="-100.5" font-family="Helvetica,sans-Serif" font-size="10.00">com.fs.starfarer.api.impl.campaign.procgen.</text>
<text text-anchor="middle" x="101.5" y="-89.5" font-family="Helvetica,sans-Serif" font-size="10.00">ProcgenUsedNames</text>
<polyline fill="none" stroke="black" points="0,-82.5 203,-82.5 "/>
<text text-anchor="start" x="8" y="-70.5" font-family="Helvetica,sans-Serif" font-size="10.00">+ KEY</text>
<polyline fill="none" stroke="black" points="0,-63.5 203,-63.5 "/>
<text text-anchor="start" x="8" y="-51.5" font-family="Helvetica,sans-Serif" font-size="10.00">+ notifyUsed()</text>
<text text-anchor="start" x="8" y="-40.5" font-family="Helvetica,sans-Serif" font-size="10.00">+ isUsed()</text>
<text text-anchor="start" x="8" y="-29.5" font-family="Helvetica,sans-Serif" font-size="10.00">+ getUsed()</text>
<text text-anchor="start" x="8" y="-18.5" font-family="Helvetica,sans-Serif" font-size="10.00">+ pickName()</text>
<text text-anchor="start" x="8" y="-7.5" font-family="Helvetica,sans-Serif" font-size="10.00">+ doTokenReplacement()</text>
</a>
</g>
</g>
<!-- Node2 -->
<g id="node2" class="node">
<title>Node2</title>
<g id="a_node2"><a xlink:title=" ">
<polygon fill="none" stroke="#bfbfbf" points="64.5,-160.5 64.5,-217.5 138.5,-217.5 138.5,-160.5 64.5,-160.5"/>
<text text-anchor="middle" x="101.5" y="-205.5" font-family="Helvetica,sans-Serif" font-size="10.00">Set&lt; String &gt;</text>
<polyline fill="none" stroke="#bfbfbf" points="64.5,-198.5 138.5,-198.5 "/>
<text text-anchor="middle" x="101.5" y="-186.5" font-family="Helvetica,sans-Serif" font-size="10.00"> </text>
<polyline fill="none" stroke="#bfbfbf" points="64.5,-179.5 138.5,-179.5 "/>
<text text-anchor="middle" x="101.5" y="-167.5" font-family="Helvetica,sans-Serif" font-size="10.00"> </text>
</a>
</g>
</g>
<!-- Node2&#45;&gt;Node1 -->
<g id="edge1" class="edge">
<title>Node2&#45;&gt;Node1</title>
<path fill="none" stroke="#404040" d="M101.5,-160.32C101.5,-149.78 101.5,-137.25 101.5,-124.62"/>
<polygon fill="none" stroke="#404040" points="101.5,-124.55 97.5,-118.55 101.5,-112.55 105.5,-118.55 101.5,-124.55"/>
<text text-anchor="middle" x="119" y="-134" font-family="Helvetica,sans-Serif" font-size="10.00"> &#45;names</text>
</g>
</g>
</svg>
