<?xml version="1.0" encoding="UTF-8" standalone="no"?>
<!DOCTYPE svg PUBLIC "-//W3C//DTD SVG 1.1//EN"
 "http://www.w3.org/Graphics/SVG/1.1/DTD/svg11.dtd">
<!-- Generated by graphviz version 7.0.5 (20221223.1930)
 -->
<!-- Title: com.fs.starfarer.api.impl.campaign.intel.events.ht.HyperspaceTopographyEventIntel Pages: 1 -->
<svg width="1469pt" height="487pt"
 viewBox="0.00 0.00 1469.00 486.50" xmlns="http://www.w3.org/2000/svg" xmlns:xlink="http://www.w3.org/1999/xlink">
<g id="graph0" class="graph" transform="scale(1 1) rotate(0) translate(4 482.5)">
<title>com.fs.starfarer.api.impl.campaign.intel.events.ht.HyperspaceTopographyEventIntel</title>
<!-- Node1 -->
<g id="node1" class="node">
<title>Node1</title>
<g id="a_node1"><a xlink:title=" ">
<polygon fill="#999999" stroke="#666666" points="1461,-150.5 1233,-150.5 1233,-120.5 1461,-120.5 1461,-150.5"/>
<text text-anchor="start" x="1241" y="-138.5" font-family="Helvetica,sans-Serif" font-size="10.00">com.fs.starfarer.api.impl.campaign.intel.events.ht.</text>
<text text-anchor="middle" x="1347" y="-127.5" font-family="Helvetica,sans-Serif" font-size="10.00">HyperspaceTopographyEventIntel</text>
</a>
</g>
</g>
<!-- Node2 -->
<g id="node2" class="node">
<title>Node2</title>
<g id="a_node2"><a xlink:href="classcom_1_1fs_1_1starfarer_1_1api_1_1impl_1_1campaign_1_1intel_1_1events_1_1BaseEventIntel.html" target="_top" xlink:title=" ">
<polygon fill="white" stroke="#666666" points="1134,-270.5 916,-270.5 916,-240.5 1134,-240.5 1134,-270.5"/>
<text text-anchor="start" x="924" y="-258.5" font-family="Helvetica,sans-Serif" font-size="10.00">com.fs.starfarer.api.impl.campaign.intel.events.</text>
<text text-anchor="middle" x="1025" y="-247.5" font-family="Helvetica,sans-Serif" font-size="10.00">BaseEventIntel</text>
</a>
</g>
</g>
<!-- Node2&#45;&gt;Node1 -->
<g id="edge1" class="edge">
<title>Node2&#45;&gt;Node1</title>
<path fill="none" stroke="#63b8ff" d="M1115.4,-237.16C1121.73,-235.39 1127.99,-233.51 1134,-231.5 1201.65,-208.94 1276.79,-171.85 1316.93,-151"/>
<polygon fill="#63b8ff" stroke="#63b8ff" points="1114.91,-233.67 1106.14,-239.62 1116.71,-240.43 1114.91,-233.67"/>
</g>
<!-- Node3 -->
<g id="node3" class="node">
<title>Node3</title>
<g id="a_node3"><a xlink:href="classcom_1_1fs_1_1starfarer_1_1api_1_1impl_1_1campaign_1_1intel_1_1BaseIntelPlugin.html" target="_top" xlink:title=" ">
<polygon fill="white" stroke="#666666" points="766,-382.5 580,-382.5 580,-352.5 766,-352.5 766,-382.5"/>
<text text-anchor="start" x="588" y="-370.5" font-family="Helvetica,sans-Serif" font-size="10.00">com.fs.starfarer.api.impl.campaign.intel.</text>
<text text-anchor="middle" x="673" y="-359.5" font-family="Helvetica,sans-Serif" font-size="10.00">BaseIntelPlugin</text>
</a>
</g>
</g>
<!-- Node3&#45;&gt;Node2 -->
<g id="edge2" class="edge">
<title>Node3&#45;&gt;Node2</title>
<path fill="none" stroke="#63b8ff" d="M771.25,-349.5C778.99,-347.63 786.65,-345.63 794,-343.5 864.85,-323.02 944.65,-290.18 989.17,-270.94"/>
<polygon fill="#63b8ff" stroke="#63b8ff" points="770.71,-346.03 761.77,-351.71 772.3,-352.85 770.71,-346.03"/>
</g>
<!-- Node4 -->
<g id="node4" class="node">
<title>Node4</title>
<g id="a_node4"><a xlink:href="interfacecom_1_1fs_1_1starfarer_1_1api_1_1campaign_1_1comm_1_1IntelInfoPlugin.html" target="_top" xlink:title=" ">
<polygon fill="white" stroke="#666666" points="412.5,-478.5 237.5,-478.5 237.5,-448.5 412.5,-448.5 412.5,-478.5"/>
<text text-anchor="start" x="245.5" y="-466.5" font-family="Helvetica,sans-Serif" font-size="10.00">com.fs.starfarer.api.campaign.comm.</text>
<text text-anchor="middle" x="325" y="-455.5" font-family="Helvetica,sans-Serif" font-size="10.00">IntelInfoPlugin</text>
</a>
</g>
</g>
<!-- Node4&#45;&gt;Node3 -->
<g id="edge3" class="edge">
<title>Node4&#45;&gt;Node3</title>
<path fill="none" stroke="#63b8ff" d="M418.98,-445.55C427.47,-443.62 435.91,-441.59 444,-439.5 508.7,-422.75 582.2,-398.59 627.84,-382.97"/>
<polygon fill="#63b8ff" stroke="#63b8ff" points="418.31,-442.11 409.3,-447.69 419.82,-448.94 418.31,-442.11"/>
</g>
<!-- Node5 -->
<g id="node5" class="node">
<title>Node5</title>
<g id="a_node5"><a xlink:title=" ">
<polygon fill="white" stroke="#666666" points="426.5,-430.5 223.5,-430.5 223.5,-400.5 426.5,-400.5 426.5,-430.5"/>
<text text-anchor="start" x="231.5" y="-418.5" font-family="Helvetica,sans-Serif" font-size="10.00">com.fs.starfarer.api.impl.campaign.rulecmd.</text>
<text text-anchor="middle" x="325" y="-407.5" font-family="Helvetica,sans-Serif" font-size="10.00">CallEvent.CallableEvent</text>
</a>
</g>
</g>
<!-- Node5&#45;&gt;Node3 -->
<g id="edge4" class="edge">
<title>Node5&#45;&gt;Node3</title>
<path fill="none" stroke="#63b8ff" d="M437.75,-400C483.64,-393.63 536.14,-386.35 579.79,-380.29"/>
<polygon fill="#63b8ff" stroke="#63b8ff" points="437.47,-396.5 428.04,-401.34 438.43,-403.44 437.47,-396.5"/>
</g>
<!-- Node6 -->
<g id="node6" class="node">
<title>Node6</title>
<g id="a_node6"><a xlink:href="interfacecom_1_1fs_1_1starfarer_1_1api_1_1EveryFrameScript.html" target="_top" xlink:title=" ">
<polygon fill="white" stroke="#666666" points="387.5,-382.5 262.5,-382.5 262.5,-352.5 387.5,-352.5 387.5,-382.5"/>
<text text-anchor="start" x="270.5" y="-370.5" font-family="Helvetica,sans-Serif" font-size="10.00">com.fs.starfarer.api.Every</text>
<text text-anchor="middle" x="325" y="-359.5" font-family="Helvetica,sans-Serif" font-size="10.00">FrameScript</text>
</a>
</g>
</g>
<!-- Node6&#45;&gt;Node3 -->
<g id="edge5" class="edge">
<title>Node6&#45;&gt;Node3</title>
<path fill="none" stroke="#63b8ff" d="M399.13,-367.5C451.77,-367.5 523.18,-367.5 579.75,-367.5"/>
<polygon fill="#63b8ff" stroke="#63b8ff" points="399.37,-364 389.37,-367.5 399.37,-371 399.37,-364"/>
</g>
<!-- Node7 -->
<g id="node7" class="node">
<title>Node7</title>
<g id="a_node7"><a xlink:title=" ">
<polygon fill="white" stroke="#666666" points="444,-334.5 206,-334.5 206,-304.5 444,-304.5 444,-334.5"/>
<text text-anchor="start" x="214" y="-322.5" font-family="Helvetica,sans-Serif" font-size="10.00">com.fs.starfarer.api.impl.campaign.</text>
<text text-anchor="middle" x="325" y="-311.5" font-family="Helvetica,sans-Serif" font-size="10.00">CommRelayEntityPlugin.CommSnifferReadableIntel</text>
</a>
</g>
</g>
<!-- Node7&#45;&gt;Node3 -->
<g id="edge6" class="edge">
<title>Node7&#45;&gt;Node3</title>
<path fill="none" stroke="#63b8ff" d="M448.54,-336.5C491.68,-342.48 539.41,-349.11 579.65,-354.69"/>
<polygon fill="#63b8ff" stroke="#63b8ff" points="449.27,-333.07 438.88,-335.16 448.3,-340 449.27,-333.07"/>
</g>
<!-- Node8 -->
<g id="node8" class="node">
<title>Node8</title>
<g id="a_node8"><a xlink:href="interfacecom_1_1fs_1_1starfarer_1_1api_1_1campaign_1_1SectorEntityToken.html" target="_top" xlink:title=" ">
<polygon fill="white" stroke="#666666" points="398,-286.5 252,-286.5 252,-256.5 398,-256.5 398,-286.5"/>
<text text-anchor="start" x="260" y="-274.5" font-family="Helvetica,sans-Serif" font-size="10.00">com.fs.starfarer.api.campaign.</text>
<text text-anchor="middle" x="325" y="-263.5" font-family="Helvetica,sans-Serif" font-size="10.00">SectorEntityToken</text>
</a>
</g>
</g>
<!-- Node8&#45;&gt;Node3 -->
<g id="edge7" class="edge">
<title>Node8&#45;&gt;Node3</title>
<path fill="none" stroke="#9a32cd" stroke-dasharray="5,2" d="M409.44,-287.38C421.09,-289.91 432.87,-292.65 444,-295.5 484.58,-305.91 498.73,-300.9 534,-323.5 544.07,-329.95 541.61,-337.58 552,-343.5 560.58,-348.39 570.01,-352.29 579.69,-355.41"/>
<polygon fill="#9a32cd" stroke="#9a32cd" points="410.33,-283.99 399.82,-285.33 408.87,-290.83 410.33,-283.99"/>
<text text-anchor="middle" x="498" y="-326.5" font-family="Helvetica,sans-Serif" font-size="10.00"> postingLocation</text>
</g>
<!-- Node9 -->
<g id="node9" class="node">
<title>Node9</title>
<g id="a_node9"><a xlink:href="interfacecom_1_1fs_1_1starfarer_1_1api_1_1campaign_1_1rules_1_1HasMemory.html" target="_top" xlink:title=" ">
<polygon fill="white" stroke="#666666" points="169,-286.5 0,-286.5 0,-256.5 169,-256.5 169,-286.5"/>
<text text-anchor="start" x="8" y="-274.5" font-family="Helvetica,sans-Serif" font-size="10.00">com.fs.starfarer.api.campaign.rules.</text>
<text text-anchor="middle" x="84.5" y="-263.5" font-family="Helvetica,sans-Serif" font-size="10.00">HasMemory</text>
</a>
</g>
</g>
<!-- Node9&#45;&gt;Node8 -->
<g id="edge8" class="edge">
<title>Node9&#45;&gt;Node8</title>
<path fill="none" stroke="#63b8ff" d="M180.72,-271.5C204.32,-271.5 229.23,-271.5 251.55,-271.5"/>
<polygon fill="#63b8ff" stroke="#63b8ff" points="180.76,-268 170.76,-271.5 180.76,-275 180.76,-268"/>
</g>
<!-- Node10 -->
<g id="node10" class="node">
<title>Node10</title>
<g id="a_node10"><a xlink:href="interfacecom_1_1fs_1_1starfarer_1_1api_1_1campaign_1_1listeners_1_1EconomyTickListener.html" target="_top" xlink:title=" ">
<polygon fill="white" stroke="#666666" points="765.5,-334.5 580.5,-334.5 580.5,-304.5 765.5,-304.5 765.5,-334.5"/>
<text text-anchor="start" x="588.5" y="-322.5" font-family="Helvetica,sans-Serif" font-size="10.00">com.fs.starfarer.api.campaign.listeners.</text>
<text text-anchor="middle" x="673" y="-311.5" font-family="Helvetica,sans-Serif" font-size="10.00">EconomyTickListener</text>
</a>
</g>
</g>
<!-- Node10&#45;&gt;Node2 -->
<g id="edge9" class="edge">
<title>Node10&#45;&gt;Node2</title>
<path fill="none" stroke="#63b8ff" d="M777.1,-303.52C815.16,-297.34 858.61,-289.97 898,-282.5 916.46,-279 936.38,-274.89 954.8,-270.95"/>
<polygon fill="#63b8ff" stroke="#63b8ff" points="776.8,-300.02 767.49,-305.07 777.92,-306.93 776.8,-300.02"/>
</g>
<!-- Node11 -->
<g id="node11" class="node">
<title>Node11</title>
<g id="a_node11"><a xlink:title=" ">
<polygon fill="white" stroke="#666666" points="733,-286 613,-286 613,-267 733,-267 733,-286"/>
<text text-anchor="middle" x="673" y="-274" font-family="Helvetica,sans-Serif" font-size="10.00">List&lt; EventStageData &gt;</text>
</a>
</g>
</g>
<!-- Node11&#45;&gt;Node2 -->
<g id="edge10" class="edge">
<title>Node11&#45;&gt;Node2</title>
<path fill="none" stroke="#9a32cd" stroke-dasharray="5,2" d="M744.83,-272.25C793.89,-269.31 860.14,-265.33 915.78,-261.99"/>
<polygon fill="#9a32cd" stroke="#9a32cd" points="744.66,-268.75 734.88,-272.85 745.08,-275.74 744.66,-268.75"/>
<text text-anchor="middle" x="855" y="-270.5" font-family="Helvetica,sans-Serif" font-size="10.00"> stages</text>
</g>
<!-- Node12 -->
<g id="node12" class="node">
<title>Node12</title>
<g id="a_node12"><a xlink:title=" ">
<polygon fill="white" stroke="#666666" points="794,-248.5 552,-248.5 552,-218.5 794,-218.5 794,-248.5"/>
<text text-anchor="start" x="560" y="-236.5" font-family="Helvetica,sans-Serif" font-size="10.00">List&lt; com.fs.starfarer.api.impl.campaign.intel.events.</text>
<text text-anchor="middle" x="673" y="-225.5" font-family="Helvetica,sans-Serif" font-size="10.00">EventFactor &gt;</text>
</a>
</g>
</g>
<!-- Node12&#45;&gt;Node2 -->
<g id="edge11" class="edge">
<title>Node12&#45;&gt;Node2</title>
<path fill="none" stroke="#9a32cd" stroke-dasharray="5,2" d="M805.62,-241.77C841.9,-244.05 880.84,-246.5 915.64,-248.69"/>
<polygon fill="#9a32cd" stroke="#9a32cd" points="806.16,-238.3 795.96,-241.17 805.72,-245.29 806.16,-238.3"/>
<text text-anchor="middle" x="855" y="-249.5" font-family="Helvetica,sans-Serif" font-size="10.00"> factors</text>
</g>
<!-- Node13 -->
<g id="node13" class="node">
<title>Node13</title>
<g id="a_node13"><a xlink:title=" ">
<polygon fill="white" stroke="#666666" points="699.5,-200 646.5,-200 646.5,-181 699.5,-181 699.5,-200"/>
<text text-anchor="middle" x="673" y="-188" font-family="Helvetica,sans-Serif" font-size="10.00">Random</text>
</a>
</g>
</g>
<!-- Node13&#45;&gt;Node2 -->
<g id="edge12" class="edge">
<title>Node13&#45;&gt;Node2</title>
<path fill="none" stroke="#9a32cd" stroke-dasharray="5,2" d="M711.08,-196.23C734.8,-199.93 766.23,-204.9 794,-209.5 840.28,-217.17 851.98,-218.41 898,-227.5 898.2,-227.54 925.44,-233.59 954.54,-240.06"/>
<polygon fill="#9a32cd" stroke="#9a32cd" points="711.68,-192.78 701.26,-194.7 710.61,-199.7 711.68,-192.78"/>
<text text-anchor="middle" x="855" y="-230.5" font-family="Helvetica,sans-Serif" font-size="10.00"> random</text>
</g>
<!-- Node14 -->
<g id="node14" class="node">
<title>Node14</title>
<g id="a_node14"><a xlink:href="interfacecom_1_1fs_1_1starfarer_1_1api_1_1campaign_1_1InteractionDialogAPI.html" target="_top" xlink:title=" ">
<polygon fill="white" stroke="#666666" points="746,-162.5 600,-162.5 600,-132.5 746,-132.5 746,-162.5"/>
<text text-anchor="start" x="608" y="-150.5" font-family="Helvetica,sans-Serif" font-size="10.00">com.fs.starfarer.api.campaign.</text>
<text text-anchor="middle" x="673" y="-139.5" font-family="Helvetica,sans-Serif" font-size="10.00">InteractionDialogAPI</text>
</a>
</g>
</g>
<!-- Node14&#45;&gt;Node2 -->
<g id="edge13" class="edge">
<title>Node14&#45;&gt;Node2</title>
<path fill="none" stroke="#9a32cd" stroke-dasharray="5,2" d="M757.62,-149.24C803.19,-154.07 858.24,-166.65 898,-197.5 911.51,-207.98 902.4,-221.13 916,-231.5 920.28,-234.76 924.91,-237.59 929.77,-240.06"/>
<polygon fill="#9a32cd" stroke="#9a32cd" points="758.04,-145.77 747.76,-148.32 757.39,-152.73 758.04,-145.77"/>
<text text-anchor="middle" x="855" y="-200.5" font-family="Helvetica,sans-Serif" font-size="10.00"> addingFactorDialog</text>
</g>
<!-- Node15 -->
<g id="node15" class="node">
<title>Node15</title>
<g id="a_node15"><a xlink:href="interfacecom_1_1fs_1_1starfarer_1_1api_1_1campaign_1_1listeners_1_1FleetEventListener.html" target="_top" xlink:title=" ">
<polygon fill="white" stroke="#666666" points="1117.5,-222.5 932.5,-222.5 932.5,-192.5 1117.5,-192.5 1117.5,-222.5"/>
<text text-anchor="start" x="940.5" y="-210.5" font-family="Helvetica,sans-Serif" font-size="10.00">com.fs.starfarer.api.campaign.listeners.</text>
<text text-anchor="middle" x="1025" y="-199.5" font-family="Helvetica,sans-Serif" font-size="10.00">FleetEventListener</text>
</a>
</g>
</g>
<!-- Node15&#45;&gt;Node1 -->
<g id="edge14" class="edge">
<title>Node15&#45;&gt;Node1</title>
<path fill="none" stroke="#63b8ff" d="M1106.85,-189.57C1116.01,-187.53 1125.21,-185.47 1134,-183.5 1182.24,-172.68 1236.62,-160.36 1278.23,-150.92"/>
<polygon fill="#63b8ff" stroke="#63b8ff" points="1106.2,-186.13 1097.2,-191.72 1107.72,-192.96 1106.2,-186.13"/>
</g>
<!-- Node16 -->
<g id="node16" class="node">
<title>Node16</title>
<g id="a_node16"><a xlink:href="interfacecom_1_1fs_1_1starfarer_1_1api_1_1campaign_1_1listeners_1_1CharacterStatsRefreshListener.html" target="_top" xlink:title=" ">
<polygon fill="white" stroke="#666666" points="1117.5,-174.5 932.5,-174.5 932.5,-144.5 1117.5,-144.5 1117.5,-174.5"/>
<text text-anchor="start" x="940.5" y="-162.5" font-family="Helvetica,sans-Serif" font-size="10.00">com.fs.starfarer.api.campaign.listeners.</text>
<text text-anchor="middle" x="1025" y="-151.5" font-family="Helvetica,sans-Serif" font-size="10.00">CharacterStatsRefreshListener</text>
</a>
</g>
</g>
<!-- Node16&#45;&gt;Node1 -->
<g id="edge15" class="edge">
<title>Node16&#45;&gt;Node1</title>
<path fill="none" stroke="#63b8ff" d="M1128.78,-151.79C1161.91,-149.31 1198.81,-146.54 1232.66,-144"/>
<polygon fill="#63b8ff" stroke="#63b8ff" points="1128.92,-148.27 1119.21,-152.51 1129.44,-155.25 1128.92,-148.27"/>
</g>
<!-- Node17 -->
<g id="node17" class="node">
<title>Node17</title>
<g id="a_node17"><a xlink:href="interfacecom_1_1fs_1_1starfarer_1_1api_1_1campaign_1_1listeners_1_1CurrentLocationChangedListener.html" target="_top" xlink:title=" ">
<polygon fill="white" stroke="#666666" points="1117.5,-126.5 932.5,-126.5 932.5,-96.5 1117.5,-96.5 1117.5,-126.5"/>
<text text-anchor="start" x="940.5" y="-114.5" font-family="Helvetica,sans-Serif" font-size="10.00">com.fs.starfarer.api.campaign.listeners.</text>
<text text-anchor="middle" x="1025" y="-103.5" font-family="Helvetica,sans-Serif" font-size="10.00">CurrentLocationChangedListener</text>
</a>
</g>
</g>
<!-- Node17&#45;&gt;Node1 -->
<g id="edge16" class="edge">
<title>Node17&#45;&gt;Node1</title>
<path fill="none" stroke="#63b8ff" d="M1128.78,-119.21C1161.91,-121.69 1198.81,-124.46 1232.66,-127"/>
<polygon fill="#63b8ff" stroke="#63b8ff" points="1129.44,-115.75 1119.21,-118.49 1128.92,-122.73 1129.44,-115.75"/>
</g>
<!-- Node18 -->
<g id="node18" class="node">
<title>Node18</title>
<g id="a_node18"><a xlink:title=" ">
<polygon fill="white" stroke="#666666" points="1044.5,-78 1005.5,-78 1005.5,-59 1044.5,-59 1044.5,-78"/>
<text text-anchor="middle" x="1025" y="-66" font-family="Helvetica,sans-Serif" font-size="10.00">Color</text>
</a>
</g>
</g>
<!-- Node18&#45;&gt;Node1 -->
<g id="edge17" class="edge">
<title>Node18&#45;&gt;Node1</title>
<path fill="none" stroke="#9a32cd" stroke-dasharray="5,2" d="M1055.91,-73.39C1077.62,-77.04 1107.69,-82.27 1134,-87.5 1183.78,-97.4 1239.77,-110.15 1281.71,-120.02"/>
<polygon fill="#9a32cd" stroke="#9a32cd" points="1056.71,-69.98 1046.27,-71.79 1055.56,-76.88 1056.71,-69.98"/>
<text text-anchor="middle" x="1183.5" y="-106.5" font-family="Helvetica,sans-Serif" font-size="10.00"> BAR_COLOR</text>
</g>
<!-- Node19 -->
<g id="node19" class="node">
<title>Node19</title>
<g id="a_node19"><a xlink:href="classcom_1_1fs_1_1starfarer_1_1api_1_1util_1_1TimeoutTracker.html" target="_top" xlink:title=" ">
<polygon fill="white" stroke="#666666" points="1112,-41 938,-41 938,0 1112,0 1112,-41"/>
<text text-anchor="start" x="946" y="-29" font-family="Helvetica,sans-Serif" font-size="10.00">com.fs.starfarer.api.util.</text>
<text text-anchor="start" x="946" y="-18" font-family="Helvetica,sans-Serif" font-size="10.00">TimeoutTracker&lt; RecentTopography</text>
<text text-anchor="middle" x="1025" y="-7" font-family="Helvetica,sans-Serif" font-size="10.00">Readings &gt;</text>
</a>
</g>
</g>
<!-- Node19&#45;&gt;Node1 -->
<g id="edge18" class="edge">
<title>Node19&#45;&gt;Node1</title>
<path fill="none" stroke="#9a32cd" stroke-dasharray="5,2" d="M1117.12,-44.55C1122.84,-46.19 1128.51,-47.85 1134,-49.5 1170.34,-60.43 1179.65,-62.69 1215,-76.5 1249.38,-89.93 1287.8,-107.55 1314.09,-120.03"/>
<polygon fill="#9a32cd" stroke="#9a32cd" points="1118.1,-41.19 1107.52,-41.84 1116.19,-47.93 1118.1,-41.19"/>
<text text-anchor="middle" x="1183.5" y="-79.5" font-family="Helvetica,sans-Serif" font-size="10.00"> recent</text>
</g>
</g>
</svg>
