<?xml version="1.0" encoding="UTF-8" standalone="no"?>
<!DOCTYPE svg PUBLIC "-//W3C//DTD SVG 1.1//EN"
 "http://www.w3.org/Graphics/SVG/1.1/DTD/svg11.dtd">
<!-- Generated by graphviz version 7.0.5 (20221223.1930)
 -->
<!-- Title: com.fs.starfarer.api.impl.campaign.procgen.themes.PKDefenderPluginImpl Pages: 1 -->
<svg width="781pt" height="86pt"
 viewBox="0.00 0.00 781.00 86.00" xmlns="http://www.w3.org/2000/svg" xmlns:xlink="http://www.w3.org/1999/xlink">
<g id="graph0" class="graph" transform="scale(1 1) rotate(0) translate(4 82)">
<title>com.fs.starfarer.api.impl.campaign.procgen.themes.PKDefenderPluginImpl</title>
<!-- Node1 -->
<g id="node1" class="node">
<title>Node1</title>
<g id="a_node1"><a xlink:title=" ">
<polygon fill="#999999" stroke="#666666" points="773,-54 536,-54 536,-24 773,-24 773,-54"/>
<text text-anchor="start" x="544" y="-42" font-family="Helvetica,sans-Serif" font-size="10.00">com.fs.starfarer.api.impl.campaign.procgen.themes.</text>
<text text-anchor="middle" x="654.5" y="-31" font-family="Helvetica,sans-Serif" font-size="10.00">PKDefenderPluginImpl</text>
</a>
</g>
</g>
<!-- Node2 -->
<g id="node2" class="node">
<title>Node2</title>
<g id="a_node2"><a xlink:href="classcom_1_1fs_1_1starfarer_1_1api_1_1impl_1_1campaign_1_1BaseGenericPlugin.html" target="_top" xlink:title=" ">
<polygon fill="white" stroke="#666666" points="448,-78 282,-78 282,-48 448,-48 448,-78"/>
<text text-anchor="start" x="290" y="-66" font-family="Helvetica,sans-Serif" font-size="10.00">com.fs.starfarer.api.impl.campaign.</text>
<text text-anchor="middle" x="365" y="-55" font-family="Helvetica,sans-Serif" font-size="10.00">BaseGenericPlugin</text>
</a>
</g>
</g>
<!-- Node2&#45;&gt;Node1 -->
<g id="edge1" class="edge">
<title>Node2&#45;&gt;Node1</title>
<path fill="none" stroke="#63b8ff" d="M459.74,-55.18C484,-53.15 510.43,-50.94 535.75,-48.83"/>
<polygon fill="#63b8ff" stroke="#63b8ff" points="459.57,-51.68 449.89,-56 460.15,-58.65 459.57,-51.68"/>
</g>
<!-- Node3 -->
<g id="node3" class="node">
<title>Node3</title>
<g id="a_node3"><a xlink:title=" ">
<polygon fill="white" stroke="#666666" points="194,-54 0,-54 0,-24 194,-24 194,-54"/>
<text text-anchor="start" x="8" y="-42" font-family="Helvetica,sans-Serif" font-size="10.00">com.fs.starfarer.api.campaign.</text>
<text text-anchor="middle" x="97" y="-31" font-family="Helvetica,sans-Serif" font-size="10.00">GenericPluginManagerAPI.GenericPlugin</text>
</a>
</g>
</g>
<!-- Node3&#45;&gt;Node2 -->
<g id="edge2" class="edge">
<title>Node3&#45;&gt;Node2</title>
<path fill="none" stroke="#63b8ff" d="M205.56,-48.7C230.89,-50.99 257.5,-53.39 281.52,-55.56"/>
<polygon fill="#63b8ff" stroke="#63b8ff" points="206.19,-45.25 195.92,-47.83 205.56,-52.22 206.19,-45.25"/>
</g>
<!-- Node4 -->
<g id="node4" class="node">
<title>Node4</title>
<g id="a_node4"><a xlink:title=" ">
<polygon fill="white" stroke="#666666" points="500,-30 230,-30 230,0 500,0 500,-30"/>
<text text-anchor="start" x="238" y="-18" font-family="Helvetica,sans-Serif" font-size="10.00">com.fs.starfarer.api.impl.campaign.rulecmd.salvage.</text>
<text text-anchor="middle" x="365" y="-7" font-family="Helvetica,sans-Serif" font-size="10.00">SalvageGenFromSeed.SalvageDefenderModificationPlugin</text>
</a>
</g>
</g>
<!-- Node3&#45;&gt;Node4 -->
<g id="edge4" class="edge">
<title>Node3&#45;&gt;Node4</title>
<path fill="none" stroke="#63b8ff" d="M205.79,-29.27C213.63,-28.57 221.59,-27.85 229.55,-27.13"/>
<polygon fill="#63b8ff" stroke="#63b8ff" points="205.56,-25.78 195.92,-30.17 206.19,-32.75 205.56,-25.78"/>
</g>
<!-- Node4&#45;&gt;Node1 -->
<g id="edge3" class="edge">
<title>Node4&#45;&gt;Node1</title>
<path fill="none" stroke="#63b8ff" d="M511.88,-27.18C519.94,-27.85 527.99,-28.52 535.93,-29.19"/>
<polygon fill="#63b8ff" stroke="#63b8ff" points="512.26,-23.7 502,-26.35 511.67,-30.67 512.26,-23.7"/>
</g>
</g>
</svg>
