<?xml version="1.0" encoding="UTF-8" standalone="no"?>
<!DOCTYPE svg PUBLIC "-//W3C//DTD SVG 1.1//EN"
 "http://www.w3.org/Graphics/SVG/1.1/DTD/svg11.dtd">
<!-- Generated by graphviz version 7.0.5 (20221223.1930)
 -->
<!-- Title: com.fs.starfarer.api.campaign.CombatDamageData.DealtByFleetMember Pages: 1 -->
<svg width="506pt" height="98pt"
 viewBox="0.00 0.00 506.00 97.50" xmlns="http://www.w3.org/2000/svg" xmlns:xlink="http://www.w3.org/1999/xlink">
<g id="graph0" class="graph" transform="scale(1 1) rotate(0) translate(4 93.5)">
<title>com.fs.starfarer.api.campaign.CombatDamageData.DealtByFleetMember</title>
<!-- Node1 -->
<g id="node1" class="node">
<title>Node1</title>
<g id="a_node1"><a xlink:title=" ">
<polygon fill="#999999" stroke="#666666" points="498,-62.5 298,-62.5 298,-32.5 498,-32.5 498,-62.5"/>
<text text-anchor="start" x="306" y="-50.5" font-family="Helvetica,sans-Serif" font-size="10.00">com.fs.starfarer.api.campaign.</text>
<text text-anchor="middle" x="398" y="-39.5" font-family="Helvetica,sans-Serif" font-size="10.00">CombatDamageData.DealtByFleetMember</text>
</a>
</g>
</g>
<!-- Node2 -->
<g id="node2" class="node">
<title>Node2</title>
<g id="a_node2"><a xlink:href="interfacecom_1_1fs_1_1starfarer_1_1api_1_1fleet_1_1FleetMemberAPI.html" target="_top" xlink:title=" ">
<polygon fill="white" stroke="#666666" points="173,-89.5 51,-89.5 51,-59.5 173,-59.5 173,-89.5"/>
<text text-anchor="start" x="59" y="-77.5" font-family="Helvetica,sans-Serif" font-size="10.00">com.fs.starfarer.api.fleet.</text>
<text text-anchor="middle" x="112" y="-66.5" font-family="Helvetica,sans-Serif" font-size="10.00">FleetMemberAPI</text>
</a>
</g>
</g>
<!-- Node2&#45;&gt;Node1 -->
<g id="edge1" class="edge">
<title>Node2&#45;&gt;Node1</title>
<path fill="none" stroke="#9a32cd" stroke-dasharray="5,2" d="M184.56,-67.7C218.84,-64.44 260.46,-60.48 297.75,-56.94"/>
<polygon fill="#9a32cd" stroke="#9a32cd" points="184.36,-64.2 174.74,-68.63 185.02,-71.17 184.36,-64.2"/>
<text text-anchor="middle" x="261" y="-64.5" font-family="Helvetica,sans-Serif" font-size="10.00"> member</text>
</g>
<!-- Node3 -->
<g id="node3" class="node">
<title>Node3</title>
<g id="a_node3"><a xlink:title=" ">
<polygon fill="white" stroke="#bfbfbf" points="224,-41 0,-41 0,0 224,0 224,-41"/>
<text text-anchor="start" x="8" y="-29" font-family="Helvetica,sans-Serif" font-size="10.00">Map&lt; com.fs.starfarer.api.fleet.</text>
<text text-anchor="start" x="8" y="-18" font-family="Helvetica,sans-Serif" font-size="10.00">FleetMemberAPI, com.fs.starfarer.api.campaign.</text>
<text text-anchor="middle" x="112" y="-7" font-family="Helvetica,sans-Serif" font-size="10.00">CombatDamageData.DamageToFleetMember &gt;</text>
</a>
</g>
</g>
<!-- Node3&#45;&gt;Node1 -->
<g id="edge2" class="edge">
<title>Node3&#45;&gt;Node1</title>
<path fill="none" stroke="#9a32cd" stroke-dasharray="5,2" d="M235.87,-32.18C256.59,-34.15 277.87,-36.17 297.89,-38.08"/>
<polygon fill="#9a32cd" stroke="#9a32cd" points="236.22,-28.7 225.94,-31.24 235.56,-35.67 236.22,-28.7"/>
<text text-anchor="middle" x="261" y="-39.5" font-family="Helvetica,sans-Serif" font-size="10.00"> damage</text>
</g>
</g>
</svg>
