<?xml version="1.0" encoding="UTF-8" standalone="no"?>
<!DOCTYPE svg PUBLIC "-//W3C//DTD SVG 1.1//EN"
 "http://www.w3.org/Graphics/SVG/1.1/DTD/svg11.dtd">
<!-- Generated by graphviz version 7.0.5 (20221223.1930)
 -->
<!-- Title: com.fs.starfarer.api.impl.campaign.events.InvestigationEventSmugglingV2 Pages: 1 -->
<svg width="1408pt" height="447pt"
 viewBox="0.00 0.00 1408.00 447.00" xmlns="http://www.w3.org/2000/svg" xmlns:xlink="http://www.w3.org/1999/xlink">
<g id="graph0" class="graph" transform="scale(1 1) rotate(0) translate(4 443)">
<title>com.fs.starfarer.api.impl.campaign.events.InvestigationEventSmugglingV2</title>
<!-- Node1 -->
<g id="node1" class="node">
<title>Node1</title>
<g id="a_node1"><a xlink:title=" ">
<polygon fill="#999999" stroke="#666666" points="1400,-92 1203,-92 1203,-62 1400,-62 1400,-92"/>
<text text-anchor="start" x="1211" y="-80" font-family="Helvetica,sans-Serif" font-size="10.00">com.fs.starfarer.api.impl.campaign.events.</text>
<text text-anchor="middle" x="1301.5" y="-69" font-family="Helvetica,sans-Serif" font-size="10.00">InvestigationEventSmugglingV2</text>
</a>
</g>
</g>
<!-- Node2 -->
<g id="node2" class="node">
<title>Node2</title>
<g id="a_node2"><a xlink:href="classcom_1_1fs_1_1starfarer_1_1api_1_1impl_1_1campaign_1_1events_1_1BaseEventPlugin.html" target="_top" xlink:title=" ">
<polygon fill="white" stroke="#bfbfbf" points="1105.5,-270 908.5,-270 908.5,-240 1105.5,-240 1105.5,-270"/>
<text text-anchor="start" x="916.5" y="-258" font-family="Helvetica,sans-Serif" font-size="10.00">com.fs.starfarer.api.impl.campaign.events.</text>
<text text-anchor="middle" x="1007" y="-247" font-family="Helvetica,sans-Serif" font-size="10.00">BaseEventPlugin</text>
</a>
</g>
</g>
<!-- Node2&#45;&gt;Node1 -->
<g id="edge1" class="edge">
<title>Node2&#45;&gt;Node1</title>
<path fill="none" stroke="#63b8ff" d="M1043.2,-233.58C1103.03,-197.17 1223.13,-124.08 1275.32,-92.32"/>
<polygon fill="#63b8ff" stroke="#63b8ff" points="1041.46,-230.54 1034.74,-238.73 1045.1,-236.52 1041.46,-230.54"/>
</g>
<!-- Node3 -->
<g id="node3" class="node">
<title>Node3</title>
<g id="a_node3"><a xlink:href="interfacecom_1_1fs_1_1starfarer_1_1api_1_1campaign_1_1events_1_1CampaignEventPlugin.html" target="_top" xlink:title=" ">
<polygon fill="white" stroke="#bfbfbf" points="791,-391 614,-391 614,-361 791,-361 791,-391"/>
<text text-anchor="start" x="622" y="-379" font-family="Helvetica,sans-Serif" font-size="10.00">com.fs.starfarer.api.campaign.events.</text>
<text text-anchor="middle" x="702.5" y="-368" font-family="Helvetica,sans-Serif" font-size="10.00">CampaignEventPlugin</text>
</a>
</g>
</g>
<!-- Node3&#45;&gt;Node2 -->
<g id="edge2" class="edge">
<title>Node3&#45;&gt;Node2</title>
<path fill="none" stroke="#63b8ff" d="M775.49,-357.23C780.77,-355.56 785.98,-353.81 791,-352 858.81,-327.57 935,-290.89 976,-270.34"/>
<polygon fill="#63b8ff" stroke="#63b8ff" points="774.59,-353.84 766.05,-360.11 776.64,-360.54 774.59,-353.84"/>
</g>
<!-- Node4 -->
<g id="node4" class="node">
<title>Node4</title>
<g id="a_node4"><a xlink:href="interfacecom_1_1fs_1_1starfarer_1_1api_1_1impl_1_1campaign_1_1rulecmd_1_1CallEvent_1_1CallableEvent.html" target="_top" xlink:title=" ">
<polygon fill="white" stroke="#bfbfbf" points="409,-391 206,-391 206,-361 409,-361 409,-391"/>
<text text-anchor="start" x="214" y="-379" font-family="Helvetica,sans-Serif" font-size="10.00">com.fs.starfarer.api.impl.campaign.rulecmd.</text>
<text text-anchor="middle" x="307.5" y="-368" font-family="Helvetica,sans-Serif" font-size="10.00">CallEvent.CallableEvent</text>
</a>
</g>
</g>
<!-- Node4&#45;&gt;Node3 -->
<g id="edge3" class="edge">
<title>Node4&#45;&gt;Node3</title>
<path fill="none" stroke="#63b8ff" d="M420.72,-376C481.93,-376 556.6,-376 613.54,-376"/>
<polygon fill="#63b8ff" stroke="#63b8ff" points="420.97,-372.5 410.97,-376 420.97,-379.5 420.97,-372.5"/>
</g>
<!-- Node5 -->
<g id="node5" class="node">
<title>Node5</title>
<g id="a_node5"><a xlink:href="interfacecom_1_1fs_1_1starfarer_1_1api_1_1campaign_1_1CampaignEventListener.html" target="_top" xlink:title=" ">
<polygon fill="white" stroke="#666666" points="775.5,-343 629.5,-343 629.5,-313 775.5,-313 775.5,-343"/>
<text text-anchor="start" x="637.5" y="-331" font-family="Helvetica,sans-Serif" font-size="10.00">com.fs.starfarer.api.campaign.</text>
<text text-anchor="middle" x="702.5" y="-320" font-family="Helvetica,sans-Serif" font-size="10.00">CampaignEventListener</text>
</a>
</g>
</g>
<!-- Node5&#45;&gt;Node2 -->
<g id="edge4" class="edge">
<title>Node5&#45;&gt;Node2</title>
<path fill="none" stroke="#63b8ff" d="M778.77,-309.84C828.96,-297.72 894.24,-281.97 941.94,-270.46"/>
<polygon fill="#63b8ff" stroke="#63b8ff" points="778.02,-306.42 769.12,-312.16 779.67,-313.22 778.02,-306.42"/>
</g>
<!-- Node6 -->
<g id="node6" class="node">
<title>Node6</title>
<g id="a_node6"><a xlink:href="classcom_1_1fs_1_1starfarer_1_1api_1_1campaign_1_1events_1_1CampaignEventTarget.html" target="_top" xlink:title=" ">
<polygon fill="white" stroke="#bfbfbf" points="791,-295 614,-295 614,-265 791,-265 791,-295"/>
<text text-anchor="start" x="622" y="-283" font-family="Helvetica,sans-Serif" font-size="10.00">com.fs.starfarer.api.campaign.events.</text>
<text text-anchor="middle" x="702.5" y="-272" font-family="Helvetica,sans-Serif" font-size="10.00">CampaignEventTarget</text>
</a>
</g>
</g>
<!-- Node6&#45;&gt;Node2 -->
<g id="edge5" class="edge">
<title>Node6&#45;&gt;Node2</title>
<path fill="none" stroke="#9a32cd" stroke-dasharray="5,2" d="M802.71,-271.8C836.54,-269 874.33,-265.88 908.06,-263.09"/>
<polygon fill="#9a32cd" stroke="#9a32cd" points="802.59,-268.3 792.91,-272.61 803.16,-275.28 802.59,-268.3"/>
<text text-anchor="middle" x="836.5" y="-274" font-family="Helvetica,sans-Serif" font-size="10.00"> eventTarget</text>
</g>
<!-- Node7 -->
<g id="node7" class="node">
<title>Node7</title>
<g id="a_node7"><a xlink:href="interfacecom_1_1fs_1_1starfarer_1_1api_1_1campaign_1_1LocationAPI.html" target="_top" xlink:title=" ">
<polygon fill="white" stroke="#666666" points="380.5,-318 234.5,-318 234.5,-288 380.5,-288 380.5,-318"/>
<text text-anchor="start" x="242.5" y="-306" font-family="Helvetica,sans-Serif" font-size="10.00">com.fs.starfarer.api.campaign.</text>
<text text-anchor="middle" x="307.5" y="-295" font-family="Helvetica,sans-Serif" font-size="10.00">LocationAPI</text>
</a>
</g>
</g>
<!-- Node7&#45;&gt;Node6 -->
<g id="edge6" class="edge">
<title>Node7&#45;&gt;Node6</title>
<path fill="none" stroke="#9a32cd" stroke-dasharray="5,2" d="M392.04,-298.11C457.21,-294.3 547.49,-289.01 613.72,-285.14"/>
<polygon fill="#9a32cd" stroke="#9a32cd" points="391.87,-294.61 382.09,-298.69 392.28,-301.6 391.87,-294.61"/>
<text text-anchor="middle" x="511.5" y="-298" font-family="Helvetica,sans-Serif" font-size="10.00"> location</text>
</g>
<!-- Node8 -->
<g id="node8" class="node">
<title>Node8</title>
<g id="a_node8"><a xlink:href="interfacecom_1_1fs_1_1starfarer_1_1api_1_1campaign_1_1SectorEntityToken.html" target="_top" xlink:title=" ">
<polygon fill="white" stroke="#666666" points="380.5,-251 234.5,-251 234.5,-221 380.5,-221 380.5,-251"/>
<text text-anchor="start" x="242.5" y="-239" font-family="Helvetica,sans-Serif" font-size="10.00">com.fs.starfarer.api.campaign.</text>
<text text-anchor="middle" x="307.5" y="-228" font-family="Helvetica,sans-Serif" font-size="10.00">SectorEntityToken</text>
</a>
</g>
</g>
<!-- Node8&#45;&gt;Node2 -->
<g id="edge11" class="edge">
<title>Node8&#45;&gt;Node2</title>
<path fill="none" stroke="#9a32cd" stroke-dasharray="5,2" d="M392.26,-236.86C488.51,-238 651.19,-240.45 791,-245 829.28,-246.25 871.37,-248.1 908.09,-249.87"/>
<polygon fill="#9a32cd" stroke="#9a32cd" points="392.41,-233.36 382.37,-236.74 392.33,-240.36 392.41,-233.36"/>
<text text-anchor="middle" x="702.5" y="-248" font-family="Helvetica,sans-Serif" font-size="10.00"> entity</text>
</g>
<!-- Node8&#45;&gt;Node6 -->
<g id="edge7" class="edge">
<title>Node8&#45;&gt;Node6</title>
<path fill="none" stroke="#9a32cd" stroke-dasharray="5,2" d="M391.63,-245.31C456.84,-252.61 547.35,-262.74 613.72,-270.17"/>
<polygon fill="#9a32cd" stroke="#9a32cd" points="392.41,-241.87 382.09,-244.24 391.63,-248.83 392.41,-241.87"/>
<text text-anchor="middle" x="511.5" y="-269" font-family="Helvetica,sans-Serif" font-size="10.00"> entity</text>
</g>
<!-- Node9 -->
<g id="node9" class="node">
<title>Node9</title>
<g id="a_node9"><a xlink:href="interfacecom_1_1fs_1_1starfarer_1_1api_1_1campaign_1_1rules_1_1HasMemory.html" target="_top" xlink:title=" ">
<polygon fill="white" stroke="#bfbfbf" points="169,-179 0,-179 0,-149 169,-149 169,-179"/>
<text text-anchor="start" x="8" y="-167" font-family="Helvetica,sans-Serif" font-size="10.00">com.fs.starfarer.api.campaign.rules.</text>
<text text-anchor="middle" x="84.5" y="-156" font-family="Helvetica,sans-Serif" font-size="10.00">HasMemory</text>
</a>
</g>
</g>
<!-- Node9&#45;&gt;Node8 -->
<g id="edge8" class="edge">
<title>Node9&#45;&gt;Node8</title>
<path fill="none" stroke="#63b8ff" d="M136.59,-183.35C152.65,-189.24 170.49,-195.58 187,-201 207.74,-207.81 230.72,-214.7 250.94,-220.54"/>
<polygon fill="#63b8ff" stroke="#63b8ff" points="137.8,-180.07 127.21,-179.89 135.38,-186.64 137.8,-180.07"/>
</g>
<!-- Node10 -->
<g id="node10" class="node">
<title>Node10</title>
<g id="a_node10"><a xlink:href="interfacecom_1_1fs_1_1starfarer_1_1api_1_1campaign_1_1econ_1_1MarketAPI.html" target="_top" xlink:title=" ">
<polygon fill="white" stroke="#bfbfbf" points="596,-203 427,-203 427,-173 596,-173 596,-203"/>
<text text-anchor="start" x="435" y="-191" font-family="Helvetica,sans-Serif" font-size="10.00">com.fs.starfarer.api.campaign.econ.</text>
<text text-anchor="middle" x="511.5" y="-180" font-family="Helvetica,sans-Serif" font-size="10.00">MarketAPI</text>
</a>
</g>
</g>
<!-- Node9&#45;&gt;Node10 -->
<g id="edge10" class="edge">
<title>Node9&#45;&gt;Node10</title>
<path fill="none" stroke="#63b8ff" d="M180.76,-171.59C182.86,-171.73 184.94,-171.87 187,-172 268.37,-177.22 361.35,-181.66 426.68,-184.53"/>
<polygon fill="#63b8ff" stroke="#63b8ff" points="181.13,-168.11 170.91,-170.91 180.64,-175.09 181.13,-168.11"/>
</g>
<!-- Node11 -->
<g id="node11" class="node">
<title>Node11</title>
<g id="a_node11"><a xlink:href="interfacecom_1_1fs_1_1starfarer_1_1api_1_1campaign_1_1FactionAPI.html" target="_top" xlink:title=" ">
<polygon fill="white" stroke="#666666" points="584.5,-158 438.5,-158 438.5,-128 584.5,-128 584.5,-158"/>
<text text-anchor="start" x="446.5" y="-146" font-family="Helvetica,sans-Serif" font-size="10.00">com.fs.starfarer.api.campaign.</text>
<text text-anchor="middle" x="511.5" y="-135" font-family="Helvetica,sans-Serif" font-size="10.00">FactionAPI</text>
</a>
</g>
</g>
<!-- Node9&#45;&gt;Node11 -->
<g id="edge13" class="edge">
<title>Node9&#45;&gt;Node11</title>
<path fill="none" stroke="#63b8ff" d="M180.73,-159.29C258.61,-155.45 367.08,-150.09 438.03,-146.58"/>
<polygon fill="#63b8ff" stroke="#63b8ff" points="180.79,-155.79 170.98,-159.78 181.14,-162.78 180.79,-155.79"/>
</g>
<!-- Node15 -->
<g id="node15" class="node">
<title>Node15</title>
<g id="a_node15"><a xlink:href="interfacecom_1_1fs_1_1starfarer_1_1api_1_1characters_1_1PersonAPI.html" target="_top" xlink:title=" ">
<polygon fill="white" stroke="#666666" points="586,-116 437,-116 437,-86 586,-86 586,-116"/>
<text text-anchor="start" x="445" y="-104" font-family="Helvetica,sans-Serif" font-size="10.00">com.fs.starfarer.api.characters.</text>
<text text-anchor="middle" x="511.5" y="-93" font-family="Helvetica,sans-Serif" font-size="10.00">PersonAPI</text>
</a>
</g>
</g>
<!-- Node9&#45;&gt;Node15 -->
<g id="edge18" class="edge">
<title>Node9&#45;&gt;Node15</title>
<path fill="none" stroke="#63b8ff" d="M180.65,-147.99C189.22,-146.61 197.77,-145.26 206,-144 284.63,-131.92 374.88,-119.34 436.59,-110.93"/>
<polygon fill="#63b8ff" stroke="#63b8ff" points="180.21,-144.51 170.9,-149.56 181.33,-151.42 180.21,-144.51"/>
</g>
<!-- Node10&#45;&gt;Node2 -->
<g id="edge9" class="edge">
<title>Node10&#45;&gt;Node2</title>
<path fill="none" stroke="#9a32cd" stroke-dasharray="5,2" d="M607.67,-188.81C661.68,-190.35 730.39,-194.12 791,-203 847.42,-211.27 910.73,-227.44 953.95,-239.57"/>
<polygon fill="#9a32cd" stroke="#9a32cd" points="607.98,-185.32 597.89,-188.56 607.79,-192.32 607.98,-185.32"/>
<text text-anchor="middle" x="702.5" y="-206" font-family="Helvetica,sans-Serif" font-size="10.00"> market</text>
</g>
<!-- Node11&#45;&gt;Node2 -->
<g id="edge12" class="edge">
<title>Node11&#45;&gt;Node2</title>
<path fill="none" stroke="#9a32cd" stroke-dasharray="5,2" d="M596.15,-146.86C651.95,-150.76 726.61,-158.54 791,-174 857.52,-189.97 931.4,-220.89 972.93,-239.57"/>
<polygon fill="#9a32cd" stroke="#9a32cd" points="596.62,-143.38 586.41,-146.21 596.15,-150.37 596.62,-143.38"/>
<text text-anchor="middle" x="702.5" y="-177" font-family="Helvetica,sans-Serif" font-size="10.00"> faction</text>
</g>
<!-- Node12 -->
<g id="node12" class="node">
<title>Node12</title>
<g id="a_node12"><a xlink:href="interfacecom_1_1fs_1_1starfarer_1_1api_1_1campaign_1_1rules_1_1MemoryAPI.html" target="_top" xlink:title=" ">
<polygon fill="white" stroke="#bfbfbf" points="787,-439 618,-439 618,-409 787,-409 787,-439"/>
<text text-anchor="start" x="626" y="-427" font-family="Helvetica,sans-Serif" font-size="10.00">com.fs.starfarer.api.campaign.rules.</text>
<text text-anchor="middle" x="702.5" y="-416" font-family="Helvetica,sans-Serif" font-size="10.00">MemoryAPI</text>
</a>
</g>
</g>
<!-- Node12&#45;&gt;Node2 -->
<g id="edge14" class="edge">
<title>Node12&#45;&gt;Node2</title>
<path fill="none" stroke="#9a32cd" stroke-dasharray="5,2" d="M779.45,-404.84C783.4,-403.32 787.27,-401.71 791,-400 869.96,-363.74 952.07,-299.74 987.69,-270.43"/>
<polygon fill="#9a32cd" stroke="#9a32cd" points="778.52,-401.45 770.28,-408.11 780.87,-408.05 778.52,-401.45"/>
<text text-anchor="middle" x="836.5" y="-393" font-family="Helvetica,sans-Serif" font-size="10.00"> memory</text>
</g>
<!-- Node13 -->
<g id="node13" class="node">
<title>Node13</title>
<g id="a_node13"><a xlink:title=" ">
<polygon fill="white" stroke="#bfbfbf" points="1030.5,-67.5 983.5,-67.5 983.5,-48.5 1030.5,-48.5 1030.5,-67.5"/>
<text text-anchor="middle" x="1007" y="-55.5" font-family="Helvetica,sans-Serif" font-size="10.00">Logger</text>
</a>
</g>
</g>
<!-- Node13&#45;&gt;Node1 -->
<g id="edge15" class="edge">
<title>Node13&#45;&gt;Node1</title>
<path fill="none" stroke="#9a32cd" stroke-dasharray="5,2" d="M1042.22,-60.22C1081.41,-62.77 1147.38,-67.05 1202.83,-70.66"/>
<polygon fill="#9a32cd" stroke="#9a32cd" points="1042.67,-56.74 1032.46,-59.59 1042.21,-63.73 1042.67,-56.74"/>
<text text-anchor="middle" x="1167.5" y="-72" font-family="Helvetica,sans-Serif" font-size="10.00"> log</text>
</g>
<!-- Node14 -->
<g id="node14" class="node">
<title>Node14</title>
<g id="a_node14"><a xlink:href="classcom_1_1fs_1_1starfarer_1_1api_1_1impl_1_1campaign_1_1events_1_1InvestigationEventSmugglingV2_1_1InvSmugglingParams.html" target="_top" xlink:title=" ">
<polygon fill="white" stroke="#bfbfbf" points="1132,-30 882,-30 882,0 1132,0 1132,-30"/>
<text text-anchor="start" x="890" y="-18" font-family="Helvetica,sans-Serif" font-size="10.00">com.fs.starfarer.api.impl.campaign.events.</text>
<text text-anchor="middle" x="1007" y="-7" font-family="Helvetica,sans-Serif" font-size="10.00">InvestigationEventSmugglingV2.InvSmugglingParams</text>
</a>
</g>
</g>
<!-- Node14&#45;&gt;Node1 -->
<g id="edge16" class="edge">
<title>Node14&#45;&gt;Node1</title>
<path fill="none" stroke="#9a32cd" stroke-dasharray="5,2" d="M1101.07,-32.69C1111.52,-34.77 1121.99,-36.9 1132,-39 1165.75,-46.07 1203.18,-54.46 1234.18,-61.55"/>
<polygon fill="#9a32cd" stroke="#9a32cd" points="1101.75,-29.26 1091.26,-30.75 1100.39,-36.13 1101.75,-29.26"/>
<text text-anchor="middle" x="1167.5" y="-53" font-family="Helvetica,sans-Serif" font-size="10.00"> params</text>
</g>
<!-- Node15&#45;&gt;Node1 -->
<g id="edge17" class="edge">
<title>Node15&#45;&gt;Node1</title>
<path fill="none" stroke="#9a32cd" stroke-dasharray="5,2" d="M597.36,-99.01C724.93,-95.93 973.68,-89.56 1185,-82 1190.72,-81.8 1196.59,-81.57 1202.52,-81.34"/>
<polygon fill="#9a32cd" stroke="#9a32cd" points="597.58,-95.5 587.66,-99.24 597.74,-102.5 597.58,-95.5"/>
<text text-anchor="middle" x="836.5" y="-96" font-family="Helvetica,sans-Serif" font-size="10.00"> investigator</text>
</g>
</g>
</svg>
