<?xml version="1.0" encoding="UTF-8" standalone="no"?>
<!DOCTYPE svg PUBLIC "-//W3C//DTD SVG 1.1//EN"
 "http://www.w3.org/Graphics/SVG/1.1/DTD/svg11.dtd">
<!-- Generated by graphviz version 12.2.0 (20241103.1931)
 -->
<!-- Title: com.fs.starfarer.api.impl.campaign.ExplosionEntityPlugin Pages: 1 -->
<svg width="957pt" height="297pt"
 viewBox="0.00 0.00 956.50 296.88" xmlns="http://www.w3.org/2000/svg" xmlns:xlink="http://www.w3.org/1999/xlink">
<g id="graph0" class="graph" transform="scale(1 1) rotate(0) translate(4 292.88)">
<title>com.fs.starfarer.api.impl.campaign.ExplosionEntityPlugin</title>
<!-- Node1 -->
<g id="Node000001" class="node">
<title>Node1</title>
<g id="a_Node000001"><a xlink:title=" ">
<polygon fill="#999999" stroke="#666666" points="948.5,-110.88 783.25,-110.88 783.25,-80.38 948.5,-80.38 948.5,-110.88"/>
<text text-anchor="start" x="791.25" y="-97.38" font-family="Helvetica,sans-Serif" font-size="10.00">com.fs.starfarer.api.impl.campaign.</text>
<text text-anchor="middle" x="865.88" y="-86.12" font-family="Helvetica,sans-Serif" font-size="10.00">ExplosionEntityPlugin</text>
</a>
</g>
</g>
<!-- Node2 -->
<g id="Node000002" class="node">
<title>Node2</title>
<g id="a_Node000002"><a xlink:href="classcom_1_1fs_1_1starfarer_1_1api_1_1impl_1_1campaign_1_1BaseCustomEntityPlugin.html" target="_top" xlink:title=" ">
<polygon fill="white" stroke="#666666" points="662.88,-239.88 497.62,-239.88 497.62,-209.38 662.88,-209.38 662.88,-239.88"/>
<text text-anchor="start" x="505.62" y="-226.38" font-family="Helvetica,sans-Serif" font-size="10.00">com.fs.starfarer.api.impl.campaign.</text>
<text text-anchor="middle" x="580.25" y="-215.12" font-family="Helvetica,sans-Serif" font-size="10.00">BaseCustomEntityPlugin</text>
</a>
</g>
</g>
<!-- Node2&#45;&gt;Node1 -->
<g id="edge1_Node000001_Node000002" class="edge">
<title>Node2&#45;&gt;Node1</title>
<g id="a_edge1_Node000001_Node000002"><a xlink:title=" ">
<path fill="none" stroke="#63b8ff" d="M626.21,-204.18C682.99,-178.35 779.45,-134.48 830.62,-111.2"/>
<polygon fill="#63b8ff" stroke="#63b8ff" points="624.78,-200.98 617.12,-208.31 627.67,-207.36 624.78,-200.98"/>
</a>
</g>
</g>
<!-- Node3 -->
<g id="Node000003" class="node">
<title>Node3</title>
<g id="a_Node000003"><a xlink:href="interfacecom_1_1fs_1_1starfarer_1_1api_1_1campaign_1_1CustomCampaignEntityPlugin.html" target="_top" xlink:title=" ">
<polygon fill="white" stroke="#666666" points="382.5,-288.88 237.5,-288.88 237.5,-258.38 382.5,-258.38 382.5,-288.88"/>
<text text-anchor="start" x="245.5" y="-275.38" font-family="Helvetica,sans-Serif" font-size="10.00">com.fs.starfarer.api.campaign.</text>
<text text-anchor="middle" x="310" y="-264.12" font-family="Helvetica,sans-Serif" font-size="10.00">CustomCampaignEntityPlugin</text>
</a>
</g>
</g>
<!-- Node3&#45;&gt;Node2 -->
<g id="edge2_Node000002_Node000003" class="edge">
<title>Node3&#45;&gt;Node2</title>
<g id="a_edge2_Node000002_Node000003"><a xlink:title=" ">
<path fill="none" stroke="#63b8ff" d="M393.83,-258.49C426.7,-252.49 464.41,-245.6 497.2,-239.61"/>
<polygon fill="#63b8ff" stroke="#63b8ff" points="393.58,-254.98 384.37,-260.22 394.84,-261.87 393.58,-254.98"/>
</a>
</g>
</g>
<!-- Node4 -->
<g id="Node000004" class="node">
<title>Node4</title>
<g id="a_Node000004"><a xlink:href="interfacecom_1_1fs_1_1starfarer_1_1api_1_1campaign_1_1SectorEntityToken.html" target="_top" xlink:title=" ">
<polygon fill="white" stroke="#666666" points="382.5,-239.88 237.5,-239.88 237.5,-209.38 382.5,-209.38 382.5,-239.88"/>
<text text-anchor="start" x="245.5" y="-226.38" font-family="Helvetica,sans-Serif" font-size="10.00">com.fs.starfarer.api.campaign.</text>
<text text-anchor="middle" x="310" y="-215.12" font-family="Helvetica,sans-Serif" font-size="10.00">SectorEntityToken</text>
</a>
</g>
</g>
<!-- Node4&#45;&gt;Node2 -->
<g id="edge3_Node000002_Node000004" class="edge">
<title>Node4&#45;&gt;Node2</title>
<g id="a_edge3_Node000002_Node000004"><a xlink:title=" ">
<path fill="none" stroke="#9a32cd" stroke-dasharray="5,2" d="M394.26,-224.62C427.03,-224.62 464.55,-224.62 497.2,-224.62"/>
<polygon fill="#9a32cd" stroke="#9a32cd" points="394.4,-221.13 384.4,-224.63 394.4,-228.13 394.4,-221.13"/>
</a>
</g>
<text text-anchor="middle" x="451.12" y="-226.38" font-family="Helvetica,sans-Serif" font-size="10.00" fill="grey"> entity</text>
</g>
<!-- Node5 -->
<g id="Node000005" class="node">
<title>Node5</title>
<g id="a_Node000005"><a xlink:href="interfacecom_1_1fs_1_1starfarer_1_1api_1_1campaign_1_1rules_1_1HasMemory.html" target="_top" xlink:title=" ">
<polygon fill="white" stroke="#666666" points="168.25,-239.88 0,-239.88 0,-209.38 168.25,-209.38 168.25,-239.88"/>
<text text-anchor="start" x="8" y="-226.38" font-family="Helvetica,sans-Serif" font-size="10.00">com.fs.starfarer.api.campaign.rules.</text>
<text text-anchor="middle" x="84.12" y="-215.12" font-family="Helvetica,sans-Serif" font-size="10.00">HasMemory</text>
</a>
</g>
</g>
<!-- Node5&#45;&gt;Node4 -->
<g id="edge4_Node000004_Node000005" class="edge">
<title>Node5&#45;&gt;Node4</title>
<g id="a_edge4_Node000004_Node000005"><a xlink:title=" ">
<path fill="none" stroke="#63b8ff" d="M179.74,-224.62C199.02,-224.62 219,-224.62 237.33,-224.62"/>
<polygon fill="#63b8ff" stroke="#63b8ff" points="180,-221.13 170,-224.63 180,-228.13 180,-221.13"/>
</a>
</g>
</g>
<!-- Node6 -->
<g id="Node000006" class="node">
<title>Node6</title>
<g id="a_Node000006"><a xlink:title=" ">
<polygon fill="white" stroke="#666666" points="673,-153.88 487.5,-153.88 487.5,-123.38 673,-123.38 673,-153.88"/>
<text text-anchor="start" x="495.5" y="-140.38" font-family="Helvetica,sans-Serif" font-size="10.00">com.fs.starfarer.api.impl.campaign.</text>
<text text-anchor="middle" x="580.25" y="-129.12" font-family="Helvetica,sans-Serif" font-size="10.00">ExplosionEntityPlugin.ExplosionParams</text>
</a>
</g>
</g>
<!-- Node6&#45;&gt;Node1 -->
<g id="edge5_Node000001_Node000006" class="edge">
<title>Node6&#45;&gt;Node1</title>
<g id="a_edge5_Node000001_Node000006"><a xlink:title=" ">
<path fill="none" stroke="#9a32cd" stroke-dasharray="5,2" d="M684.64,-122.95C716.96,-118.05 752.17,-112.71 782.82,-108.07"/>
<polygon fill="#9a32cd" stroke="#9a32cd" points="684.19,-119.48 674.83,-124.44 685.24,-126.4 684.19,-119.48"/>
</a>
</g>
<text text-anchor="middle" x="728.12" y="-122.73" font-family="Helvetica,sans-Serif" font-size="10.00" fill="grey"> params</text>
</g>
<!-- Node7 -->
<g id="Node000007" class="node">
<title>Node7</title>
<g id="a_Node000007"><a xlink:title=" ">
<polygon fill="white" stroke="#666666" points="329.25,-191.25 290.75,-191.25 290.75,-172 329.25,-172 329.25,-191.25"/>
<text text-anchor="middle" x="310" y="-177.75" font-family="Helvetica,sans-Serif" font-size="10.00">Color</text>
</a>
</g>
</g>
<!-- Node7&#45;&gt;Node6 -->
<g id="edge6_Node000006_Node000007" class="edge">
<title>Node7&#45;&gt;Node6</title>
<g id="a_edge6_Node000006_Node000007"><a xlink:title=" ">
<path fill="none" stroke="#9a32cd" stroke-dasharray="5,2" d="M340.78,-176.85C375.96,-171.21 436.15,-161.56 487.26,-153.37"/>
<polygon fill="#9a32cd" stroke="#9a32cd" points="340.25,-173.39 330.93,-178.43 341.36,-180.3 340.25,-173.39"/>
</a>
</g>
<text text-anchor="middle" x="451.12" y="-163.16" font-family="Helvetica,sans-Serif" font-size="10.00" fill="grey"> color</text>
</g>
<!-- Node8 -->
<g id="Node000008" class="node">
<title>Node8</title>
<g id="a_Node000008"><a xlink:title=" ">
<polygon fill="white" stroke="#666666" points="414.75,-153.88 205.25,-153.88 205.25,-123.38 414.75,-123.38 414.75,-153.88"/>
<text text-anchor="start" x="213.25" y="-140.38" font-family="Helvetica,sans-Serif" font-size="10.00">com.fs.starfarer.api.impl.campaign.</text>
<text text-anchor="middle" x="310" y="-129.12" font-family="Helvetica,sans-Serif" font-size="10.00">ExplosionEntityPlugin.ExplosionFleetDamage</text>
</a>
</g>
</g>
<!-- Node8&#45;&gt;Node6 -->
<g id="edge7_Node000006_Node000008" class="edge">
<title>Node8&#45;&gt;Node6</title>
<g id="a_edge7_Node000006_Node000008"><a xlink:title=" ">
<path fill="none" stroke="#9a32cd" stroke-dasharray="5,2" d="M426.58,-138.62C446.78,-138.62 467.55,-138.62 487.01,-138.62"/>
<polygon fill="#9a32cd" stroke="#9a32cd" points="426.61,-135.13 416.61,-138.63 426.61,-142.13 426.61,-135.13"/>
</a>
</g>
<text text-anchor="middle" x="451.12" y="-140.38" font-family="Helvetica,sans-Serif" font-size="10.00" fill="grey"> damage</text>
</g>
<!-- Node9 -->
<g id="Node000009" class="node">
<title>Node9</title>
<g id="a_Node000009"><a xlink:title=" ">
<polygon fill="white" stroke="#666666" points="336.38,-105.25 283.62,-105.25 283.62,-86 336.38,-86 336.38,-105.25"/>
<text text-anchor="middle" x="310" y="-91.75" font-family="Helvetica,sans-Serif" font-size="10.00">Vector2f</text>
</a>
</g>
</g>
<!-- Node9&#45;&gt;Node6 -->
<g id="edge8_Node000006_Node000009" class="edge">
<title>Node9&#45;&gt;Node6</title>
<g id="a_edge8_Node000006_Node000009"><a xlink:title=" ">
<path fill="none" stroke="#9a32cd" stroke-dasharray="5,2" d="M348.05,-101.56C383.81,-107.3 439.41,-116.21 487.13,-123.86"/>
<polygon fill="#9a32cd" stroke="#9a32cd" points="348.64,-98.11 338.22,-99.99 347.54,-105.03 348.64,-98.11"/>
</a>
</g>
<text text-anchor="middle" x="451.12" y="-122.73" font-family="Helvetica,sans-Serif" font-size="10.00" fill="grey"> loc</text>
</g>
<!-- Node10 -->
<g id="Node000010" class="node">
<title>Node10</title>
<g id="a_Node000010"><a xlink:href="interfacecom_1_1fs_1_1starfarer_1_1api_1_1campaign_1_1LocationAPI.html" target="_top" xlink:title=" ">
<polygon fill="white" stroke="#666666" points="382.5,-67.88 237.5,-67.88 237.5,-37.38 382.5,-37.38 382.5,-67.88"/>
<text text-anchor="start" x="245.5" y="-54.38" font-family="Helvetica,sans-Serif" font-size="10.00">com.fs.starfarer.api.campaign.</text>
<text text-anchor="middle" x="310" y="-43.12" font-family="Helvetica,sans-Serif" font-size="10.00">LocationAPI</text>
</a>
</g>
</g>
<!-- Node10&#45;&gt;Node6 -->
<g id="edge9_Node000006_Node000010" class="edge">
<title>Node10&#45;&gt;Node6</title>
<g id="a_edge9_Node000006_Node000010"><a xlink:title=" ">
<path fill="none" stroke="#9a32cd" stroke-dasharray="5,2" d="M394.02,-70.4C401.08,-72.34 408.07,-74.42 414.75,-76.62 439.94,-84.93 446.74,-86.75 469.5,-100.38 478.25,-105.62 478.37,-110.07 487.5,-114.62 493.84,-117.79 500.63,-120.56 507.55,-122.99"/>
<polygon fill="#9a32cd" stroke="#9a32cd" points="394.94,-67.02 384.37,-67.85 393.15,-73.79 394.94,-67.02"/>
</a>
</g>
<text text-anchor="middle" x="451.12" y="-102.12" font-family="Helvetica,sans-Serif" font-size="10.00" fill="grey"> where</text>
</g>
<!-- Node11 -->
<g id="Node000011" class="node">
<title>Node11</title>
<g id="a_Node000011"><a xlink:title=" ">
<polygon fill="white" stroke="#666666" points="631.38,-105.25 529.12,-105.25 529.12,-86 631.38,-86 631.38,-105.25"/>
<text text-anchor="middle" x="580.25" y="-91.75" font-family="Helvetica,sans-Serif" font-size="10.00">List&lt; ParticleData &gt;</text>
</a>
</g>
</g>
<!-- Node11&#45;&gt;Node1 -->
<g id="edge10_Node000001_Node000011" class="edge">
<title>Node11&#45;&gt;Node1</title>
<g id="a_edge10_Node000001_Node000011"><a xlink:title=" ">
<path fill="none" stroke="#9a32cd" stroke-dasharray="5,2" d="M643.1,-95.62C684.13,-95.62 738.42,-95.62 783.02,-95.62"/>
<polygon fill="#9a32cd" stroke="#9a32cd" points="643.14,-92.13 633.14,-95.63 643.14,-99.13 643.14,-92.13"/>
</a>
</g>
<text text-anchor="middle" x="728.12" y="-97.38" font-family="Helvetica,sans-Serif" font-size="10.00" fill="grey"> particles</text>
</g>
<!-- Node12 -->
<g id="Node000012" class="node">
<title>Node12</title>
<g id="a_Node000012"><a xlink:href="interfacecom_1_1fs_1_1starfarer_1_1api_1_1graphics_1_1SpriteAPI.html" target="_top" xlink:title=" ">
<polygon fill="white" stroke="#666666" points="650.12,-67.88 510.38,-67.88 510.38,-37.38 650.12,-37.38 650.12,-67.88"/>
<text text-anchor="start" x="518.38" y="-54.38" font-family="Helvetica,sans-Serif" font-size="10.00">com.fs.starfarer.api.graphics.</text>
<text text-anchor="middle" x="580.25" y="-43.12" font-family="Helvetica,sans-Serif" font-size="10.00">SpriteAPI</text>
</a>
</g>
</g>
<!-- Node12&#45;&gt;Node1 -->
<g id="edge11_Node000001_Node000012" class="edge">
<title>Node12&#45;&gt;Node1</title>
<g id="a_edge11_Node000001_Node000012"><a xlink:title=" ">
<path fill="none" stroke="#9a32cd" stroke-dasharray="5,2" d="M661.46,-64.68C693.71,-69.54 731.25,-75.21 765.25,-80.38 770.96,-81.24 776.85,-82.14 782.78,-83.04"/>
<polygon fill="#9a32cd" stroke="#9a32cd" points="662.19,-61.25 651.78,-63.22 661.15,-68.17 662.19,-61.25"/>
</a>
</g>
<text text-anchor="middle" x="728.12" y="-82.12" font-family="Helvetica,sans-Serif" font-size="10.00" fill="grey"> sprite</text>
</g>
<!-- Node13 -->
<g id="Node000013" class="node">
<title>Node13</title>
<g id="a_Node000013"><a xlink:title=" ">
<polygon fill="white" stroke="#666666" points="643,-19.25 517.5,-19.25 517.5,0 643,0 643,-19.25"/>
<text text-anchor="middle" x="580.25" y="-5.75" font-family="Helvetica,sans-Serif" font-size="10.00">LinkedHashSet&lt; String &gt;</text>
</a>
</g>
</g>
<!-- Node13&#45;&gt;Node1 -->
<g id="edge12_Node000001_Node000013" class="edge">
<title>Node13&#45;&gt;Node1</title>
<g id="a_edge12_Node000001_Node000013"><a xlink:title=" ">
<path fill="none" stroke="#9a32cd" stroke-dasharray="5,2" d="M644.09,-22.05C653.79,-24.14 663.68,-26.36 673,-28.62 714.37,-38.67 725.01,-40.49 765.25,-54.38 787.02,-61.89 810.86,-71.7 829.77,-79.88"/>
<polygon fill="#9a32cd" stroke="#9a32cd" points="644.81,-18.62 634.31,-19.98 643.37,-25.47 644.81,-18.62"/>
</a>
</g>
<text text-anchor="middle" x="728.12" y="-56.12" font-family="Helvetica,sans-Serif" font-size="10.00" fill="grey"> damagedAlready</text>
</g>
</g>
</svg>
