<?xml version="1.0" encoding="UTF-8" standalone="no"?>
<!DOCTYPE svg PUBLIC "-//W3C//DTD SVG 1.1//EN"
 "http://www.w3.org/Graphics/SVG/1.1/DTD/svg11.dtd">
<!-- Generated by graphviz version 12.2.0 (20241103.1931)
 -->
<!-- Title: com.fs.starfarer.api.impl.campaign.econ.OrbitalBurns Pages: 1 -->
<svg width="197pt" height="172pt"
 viewBox="0.00 0.00 196.50 171.50" xmlns="http://www.w3.org/2000/svg" xmlns:xlink="http://www.w3.org/1999/xlink">
<g id="graph0" class="graph" transform="scale(1 1) rotate(0) translate(4 167.5)">
<title>com.fs.starfarer.api.impl.campaign.econ.OrbitalBurns</title>
<!-- Node1 -->
<g id="Node000001" class="node">
<title>Node1</title>
<g id="a_Node000001"><a xlink:title=" ">
<polygon fill="#999999" stroke="#666666" points="188.5,-30.5 0,-30.5 0,0 188.5,0 188.5,-30.5"/>
<text text-anchor="start" x="8" y="-17" font-family="Helvetica,sans-Serif" font-size="10.00">com.fs.starfarer.api.impl.campaign.econ.</text>
<text text-anchor="middle" x="94.25" y="-5.75" font-family="Helvetica,sans-Serif" font-size="10.00">OrbitalBurns</text>
</a>
</g>
</g>
<!-- Node2 -->
<g id="Node000002" class="node">
<title>Node2</title>
<g id="a_Node000002"><a xlink:href="classcom_1_1fs_1_1starfarer_1_1api_1_1impl_1_1campaign_1_1econ_1_1BaseMarketConditionPlugin.html" target="_top" xlink:title=" ">
<polygon fill="white" stroke="#666666" points="188.5,-97 0,-97 0,-66.5 188.5,-66.5 188.5,-97"/>
<text text-anchor="start" x="8" y="-83.5" font-family="Helvetica,sans-Serif" font-size="10.00">com.fs.starfarer.api.impl.campaign.econ.</text>
<text text-anchor="middle" x="94.25" y="-72.25" font-family="Helvetica,sans-Serif" font-size="10.00">BaseMarketConditionPlugin</text>
</a>
</g>
</g>
<!-- Node2&#45;&gt;Node1 -->
<g id="edge1_Node000001_Node000002" class="edge">
<title>Node2&#45;&gt;Node1</title>
<g id="a_edge1_Node000001_Node000002"><a xlink:title=" ">
<path fill="none" stroke="#63b8ff" d="M94.25,-54.81C94.25,-46.64 94.25,-37.91 94.25,-30.83"/>
<polygon fill="#63b8ff" stroke="#63b8ff" points="90.75,-54.6 94.25,-64.6 97.75,-54.6 90.75,-54.6"/>
</a>
</g>
</g>
<!-- Node3 -->
<g id="Node000003" class="node">
<title>Node3</title>
<g id="a_Node000003"><a xlink:href="interfacecom_1_1fs_1_1starfarer_1_1api_1_1campaign_1_1econ_1_1MarketConditionPlugin.html" target="_top" xlink:title=" ">
<polygon fill="white" stroke="#666666" points="178.38,-163.5 10.12,-163.5 10.12,-133 178.38,-133 178.38,-163.5"/>
<text text-anchor="start" x="18.12" y="-150" font-family="Helvetica,sans-Serif" font-size="10.00">com.fs.starfarer.api.campaign.econ.</text>
<text text-anchor="middle" x="94.25" y="-138.75" font-family="Helvetica,sans-Serif" font-size="10.00">MarketConditionPlugin</text>
</a>
</g>
</g>
<!-- Node3&#45;&gt;Node2 -->
<g id="edge2_Node000002_Node000003" class="edge">
<title>Node3&#45;&gt;Node2</title>
<g id="a_edge2_Node000002_Node000003"><a xlink:title=" ">
<path fill="none" stroke="#63b8ff" d="M94.25,-121.31C94.25,-113.14 94.25,-104.41 94.25,-97.33"/>
<polygon fill="#63b8ff" stroke="#63b8ff" points="90.75,-121.1 94.25,-131.1 97.75,-121.1 90.75,-121.1"/>
</a>
</g>
</g>
</g>
</svg>
