<?xml version="1.0" encoding="UTF-8" standalone="no"?>
<!DOCTYPE svg PUBLIC "-//W3C//DTD SVG 1.1//EN"
 "http://www.w3.org/Graphics/SVG/1.1/DTD/svg11.dtd">
<!-- Generated by graphviz version 2.49.3 (20211027.1501)
 -->
<!-- Title: com.fs.starfarer.api.impl.campaign.intel.bases.LuddicPathBaseManager Pages: 1 -->
<svg width="665pt" height="144pt"
 viewBox="0.00 0.00 665.00 143.50" xmlns="http://www.w3.org/2000/svg" xmlns:xlink="http://www.w3.org/1999/xlink">
<g id="graph0" class="graph" transform="scale(1 1) rotate(0) translate(4 139.5)">
<title>com.fs.starfarer.api.impl.campaign.intel.bases.LuddicPathBaseManager</title>
<!-- Node1 -->
<g id="node1" class="node">
<title>Node1</title>
<g id="a_node1"><a xlink:title=" ">
<polygon fill="#bfbfbf" stroke="black" points="442,-46 442,-76 657,-76 657,-46 442,-46"/>
<text text-anchor="start" x="450" y="-64" font-family="Helvetica,sans-Serif" font-size="10.00">com.fs.starfarer.api.impl.campaign.intel.bases.</text>
<text text-anchor="middle" x="549.5" y="-53" font-family="Helvetica,sans-Serif" font-size="10.00">LuddicPathBaseManager</text>
</a>
</g>
</g>
<!-- Node2 -->
<g id="node2" class="node">
<title>Node2</title>
<g id="a_node2"><a xlink:href="classcom_1_1fs_1_1starfarer_1_1api_1_1impl_1_1campaign_1_1intel_1_1BaseEventManager.html" target="_top" xlink:title=" ">
<polygon fill="none" stroke="black" points="219,-46 219,-76 405,-76 405,-46 219,-46"/>
<text text-anchor="start" x="227" y="-64" font-family="Helvetica,sans-Serif" font-size="10.00">com.fs.starfarer.api.impl.campaign.intel.</text>
<text text-anchor="middle" x="312" y="-53" font-family="Helvetica,sans-Serif" font-size="10.00">BaseEventManager</text>
</a>
</g>
</g>
<!-- Node2&#45;&gt;Node1 -->
<g id="edge1" class="edge">
<title>Node2&#45;&gt;Node1</title>
<path fill="none" stroke="midnightblue" d="M415.26,-61C424.01,-61 432.87,-61 441.65,-61"/>
<polygon fill="midnightblue" stroke="midnightblue" points="415.06,-57.5 405.06,-61 415.06,-64.5 415.06,-57.5"/>
</g>
<!-- Node3 -->
<g id="node3" class="node">
<title>Node3</title>
<g id="a_node3"><a xlink:href="interfacecom_1_1fs_1_1starfarer_1_1api_1_1EveryFrameScript.html" target="_top" xlink:title=" ">
<polygon fill="none" stroke="black" points="0,-46 0,-76 125,-76 125,-46 0,-46"/>
<text text-anchor="start" x="8" y="-64" font-family="Helvetica,sans-Serif" font-size="10.00">com.fs.starfarer.api.Every</text>
<text text-anchor="middle" x="62.5" y="-53" font-family="Helvetica,sans-Serif" font-size="10.00">FrameScript</text>
</a>
</g>
</g>
<!-- Node3&#45;&gt;Node2 -->
<g id="edge2" class="edge">
<title>Node3&#45;&gt;Node2</title>
<path fill="none" stroke="midnightblue" d="M135.46,-61C161.45,-61 191.16,-61 218.66,-61"/>
<polygon fill="midnightblue" stroke="midnightblue" points="135.32,-57.5 125.32,-61 135.32,-64.5 135.32,-57.5"/>
</g>
<!-- Node4 -->
<g id="node4" class="node">
<title>Node4</title>
<g id="a_node4"><a xlink:href="classcom_1_1fs_1_1starfarer_1_1api_1_1util_1_1IntervalUtil.html" target="_top" xlink:title=" ">
<polygon fill="none" stroke="black" points="4.5,-105 4.5,-135 120.5,-135 120.5,-105 4.5,-105"/>
<text text-anchor="start" x="12.5" y="-123" font-family="Helvetica,sans-Serif" font-size="10.00">com.fs.starfarer.api.util.</text>
<text text-anchor="middle" x="62.5" y="-112" font-family="Helvetica,sans-Serif" font-size="10.00">IntervalUtil</text>
</a>
</g>
</g>
<!-- Node4&#45;&gt;Node1 -->
<g id="edge5" class="edge">
<title>Node4&#45;&gt;Node1</title>
<path fill="none" stroke="#9a32cd" stroke-dasharray="5,2" d="M130.86,-120.26C153.21,-119.89 178.21,-118.97 201,-117 296.43,-108.74 405.28,-89.6 475.34,-76"/>
<polygon fill="#9a32cd" stroke="#9a32cd" points="130.74,-116.76 120.79,-120.4 130.83,-123.76 130.74,-116.76"/>
<text text-anchor="middle" x="312" y="-118" font-family="Helvetica,sans-Serif" font-size="10.00"> cellChecker</text>
</g>
<!-- Node4&#45;&gt;Node2 -->
<g id="edge3" class="edge">
<title>Node4&#45;&gt;Node2</title>
<path fill="none" stroke="#9a32cd" stroke-dasharray="5,2" d="M118.24,-101.96C126.5,-99.48 134.94,-97.08 143,-95 170.38,-87.95 200.57,-81.45 227.72,-76.06"/>
<polygon fill="#9a32cd" stroke="#9a32cd" points="117.2,-98.62 108.67,-104.89 119.25,-105.31 117.2,-98.62"/>
<text text-anchor="middle" x="172" y="-109" font-family="Helvetica,sans-Serif" font-size="10.00"> tracker</text>
<text text-anchor="middle" x="172" y="-98" font-family="Helvetica,sans-Serif" font-size="10.00">trackerMax</text>
</g>
<!-- Node5 -->
<g id="node5" class="node">
<title>Node5</title>
<g id="a_node5"><a xlink:title=" ">
<polygon fill="none" stroke="#bfbfbf" points="36,-0.5 36,-19.5 89,-19.5 89,-0.5 36,-0.5"/>
<text text-anchor="middle" x="62.5" y="-7.5" font-family="Helvetica,sans-Serif" font-size="10.00">Random</text>
</a>
</g>
</g>
<!-- Node5&#45;&gt;Node1 -->
<g id="edge6" class="edge">
<title>Node5&#45;&gt;Node1</title>
<path fill="none" stroke="#9a32cd" stroke-dasharray="5,2" d="M99.49,-9.42C161.99,-8.92 294.49,-10.09 405,-26 435.97,-30.46 470.01,-38.62 497.16,-45.94"/>
<polygon fill="#9a32cd" stroke="#9a32cd" points="99.33,-5.92 89.36,-9.52 99.4,-12.92 99.33,-5.92"/>
<text text-anchor="middle" x="312" y="-29" font-family="Helvetica,sans-Serif" font-size="10.00"> random</text>
</g>
<!-- Node5&#45;&gt;Node2 -->
<g id="edge4" class="edge">
<title>Node5&#45;&gt;Node2</title>
<path fill="none" stroke="#9a32cd" stroke-dasharray="5,2" d="M99.11,-17.34C135.24,-24.78 192.19,-36.52 237.96,-45.95"/>
<polygon fill="#9a32cd" stroke="#9a32cd" points="99.56,-13.86 89.05,-15.27 98.14,-20.71 99.56,-13.86"/>
<text text-anchor="middle" x="172" y="-40" font-family="Helvetica,sans-Serif" font-size="10.00"> randomBase</text>
</g>
</g>
</svg>
