<?xml version="1.0" encoding="UTF-8" standalone="no"?>
<!DOCTYPE svg PUBLIC "-//W3C//DTD SVG 1.1//EN"
 "http://www.w3.org/Graphics/SVG/1.1/DTD/svg11.dtd">
<!-- Generated by graphviz version 12.2.0 (20241103.1931)
 -->
<!-- Title: com.fs.starfarer.api.impl.combat.ShipExplosionFlareVisual Pages: 1 -->
<svg width="656pt" height="275pt"
 viewBox="0.00 0.00 656.00 274.50" xmlns="http://www.w3.org/2000/svg" xmlns:xlink="http://www.w3.org/1999/xlink">
<g id="graph0" class="graph" transform="scale(1 1) rotate(0) translate(4 270.5)">
<title>com.fs.starfarer.api.impl.combat.ShipExplosionFlareVisual</title>
<!-- Node1 -->
<g id="Node000001" class="node">
<title>Node1</title>
<g id="a_Node000001"><a xlink:title=" ">
<polygon fill="#999999" stroke="#666666" points="648,-96.5 492.5,-96.5 492.5,-66 648,-66 648,-96.5"/>
<text text-anchor="start" x="500.5" y="-83" font-family="Helvetica,sans-Serif" font-size="10.00">com.fs.starfarer.api.impl.combat.</text>
<text text-anchor="middle" x="570.25" y="-71.75" font-family="Helvetica,sans-Serif" font-size="10.00">ShipExplosionFlareVisual</text>
</a>
</g>
</g>
<!-- Node2 -->
<g id="Node000002" class="node">
<title>Node2</title>
<g id="a_Node000002"><a xlink:href="classcom_1_1fs_1_1starfarer_1_1api_1_1combat_1_1BaseCombatLayeredRenderingPlugin.html" target="_top" xlink:title=" ">
<polygon fill="white" stroke="#666666" points="424.62,-202.5 247.38,-202.5 247.38,-172 424.62,-172 424.62,-202.5"/>
<text text-anchor="start" x="255.38" y="-189" font-family="Helvetica,sans-Serif" font-size="10.00">com.fs.starfarer.api.combat.</text>
<text text-anchor="middle" x="336" y="-177.75" font-family="Helvetica,sans-Serif" font-size="10.00">BaseCombatLayeredRenderingPlugin</text>
</a>
</g>
</g>
<!-- Node2&#45;&gt;Node1 -->
<g id="edge1_Node000001_Node000002" class="edge">
<title>Node2&#45;&gt;Node1</title>
<g id="a_edge1_Node000001_Node000002"><a xlink:title=" ">
<path fill="none" stroke="#63b8ff" d="M386.35,-167.18C400.59,-161.24 416.09,-154.62 430.25,-148.25 467.63,-131.44 509.98,-110.79 538.01,-96.9"/>
<polygon fill="#63b8ff" stroke="#63b8ff" points="385.05,-163.93 377.16,-171 387.74,-170.4 385.05,-163.93"/>
</a>
</g>
</g>
<!-- Node3 -->
<g id="Node000003" class="node">
<title>Node3</title>
<g id="a_Node000003"><a xlink:href="interfacecom_1_1fs_1_1starfarer_1_1api_1_1combat_1_1CombatLayeredRenderingPlugin.html" target="_top" xlink:title=" ">
<polygon fill="white" stroke="#666666" points="154.75,-266.5 0,-266.5 0,-236 154.75,-236 154.75,-266.5"/>
<text text-anchor="start" x="8" y="-253" font-family="Helvetica,sans-Serif" font-size="10.00">com.fs.starfarer.api.combat.</text>
<text text-anchor="middle" x="77.38" y="-241.75" font-family="Helvetica,sans-Serif" font-size="10.00">CombatLayeredRenderingPlugin</text>
</a>
</g>
</g>
<!-- Node3&#45;&gt;Node2 -->
<g id="edge2_Node000002_Node000003" class="edge">
<title>Node3&#45;&gt;Node2</title>
<g id="a_edge2_Node000002_Node000003"><a xlink:title=" ">
<path fill="none" stroke="#63b8ff" d="M152.46,-232.77C190.35,-223.32 235.98,-211.94 272.14,-202.93"/>
<polygon fill="#63b8ff" stroke="#63b8ff" points="151.81,-229.33 142.95,-235.15 153.5,-236.12 151.81,-229.33"/>
</a>
</g>
</g>
<!-- Node4 -->
<g id="Node000004" class="node">
<title>Node4</title>
<g id="a_Node000004"><a xlink:href="enumcom_1_1fs_1_1starfarer_1_1api_1_1combat_1_1CombatEngineLayers.html" target="_top" xlink:title=" ">
<polygon fill="white" stroke="#666666" points="145,-217.5 9.75,-217.5 9.75,-187 145,-187 145,-217.5"/>
<text text-anchor="start" x="17.75" y="-204" font-family="Helvetica,sans-Serif" font-size="10.00">com.fs.starfarer.api.combat.</text>
<text text-anchor="middle" x="77.38" y="-192.75" font-family="Helvetica,sans-Serif" font-size="10.00">CombatEngineLayers</text>
</a>
</g>
</g>
<!-- Node4&#45;&gt;Node2 -->
<g id="edge3_Node000002_Node000004" class="edge">
<title>Node4&#45;&gt;Node2</title>
<g id="a_edge3_Node000002_Node000004"><a xlink:title=" ">
<path fill="none" stroke="#9a32cd" stroke-dasharray="5,2" d="M156.62,-197.68C185.19,-196.01 217.68,-194.11 247.04,-192.39"/>
<polygon fill="#9a32cd" stroke="#9a32cd" points="156.75,-194.16 146.98,-198.24 157.16,-201.15 156.75,-194.16"/>
</a>
</g>
<text text-anchor="middle" x="198.25" y="-198.28" font-family="Helvetica,sans-Serif" font-size="10.00" fill="grey"> layer</text>
</g>
<!-- Node5 -->
<g id="Node000005" class="node">
<title>Node5</title>
<g id="a_Node000005"><a xlink:href="interfacecom_1_1fs_1_1starfarer_1_1api_1_1combat_1_1CombatEntityAPI.html" target="_top" xlink:title=" ">
<polygon fill="white" stroke="#666666" points="145,-164.5 9.75,-164.5 9.75,-134 145,-134 145,-164.5"/>
<text text-anchor="start" x="17.75" y="-151" font-family="Helvetica,sans-Serif" font-size="10.00">com.fs.starfarer.api.combat.</text>
<text text-anchor="middle" x="77.38" y="-139.75" font-family="Helvetica,sans-Serif" font-size="10.00">CombatEntityAPI</text>
</a>
</g>
</g>
<!-- Node5&#45;&gt;Node2 -->
<g id="edge4_Node000002_Node000005" class="edge">
<title>Node5&#45;&gt;Node2</title>
<g id="a_edge4_Node000002_Node000005"><a xlink:title=" ">
<path fill="none" stroke="#9a32cd" stroke-dasharray="5,2" d="M156.62,-160.84C185.19,-165.07 217.68,-169.88 247.04,-174.22"/>
<polygon fill="#9a32cd" stroke="#9a32cd" points="157.37,-157.41 146.96,-159.41 156.34,-164.33 157.37,-157.41"/>
</a>
</g>
<text text-anchor="middle" x="198.25" y="-172.28" font-family="Helvetica,sans-Serif" font-size="10.00" fill="grey"> entity</text>
</g>
<!-- Node6 -->
<g id="Node000006" class="node">
<title>Node6</title>
<g id="a_Node000006"><a xlink:title=" ">
<polygon fill="white" stroke="#666666" points="430.25,-139.12 241.75,-139.12 241.75,-97.38 430.25,-97.38 430.25,-139.12"/>
<text text-anchor="start" x="249.75" y="-125.62" font-family="Helvetica,sans-Serif" font-size="10.00">com.fs.starfarer.api.impl.combat.</text>
<text text-anchor="start" x="249.75" y="-114.38" font-family="Helvetica,sans-Serif" font-size="10.00">ShipExplosionFlareVisual.ShipExplosion</text>
<text text-anchor="middle" x="336" y="-103.12" font-family="Helvetica,sans-Serif" font-size="10.00">FlareParams</text>
</a>
</g>
</g>
<!-- Node5&#45;&gt;Node6 -->
<g id="edge7_Node000006_Node000005" class="edge">
<title>Node5&#45;&gt;Node6</title>
<g id="a_edge7_Node000006_Node000005"><a xlink:title=" ">
<path fill="none" stroke="#9a32cd" stroke-dasharray="5,2" d="M156.58,-137.15C162.05,-136.39 167.48,-135.67 172.75,-135 194.94,-132.18 218.89,-129.51 241.39,-127.16"/>
<polygon fill="#9a32cd" stroke="#9a32cd" points="156.25,-133.66 146.84,-138.53 157.23,-140.59 156.25,-133.66"/>
</a>
</g>
<text text-anchor="middle" x="198.25" y="-136.75" font-family="Helvetica,sans-Serif" font-size="10.00" fill="grey"> attachedTo</text>
</g>
<!-- Node6&#45;&gt;Node1 -->
<g id="edge5_Node000001_Node000006" class="edge">
<title>Node6&#45;&gt;Node1</title>
<g id="a_edge5_Node000001_Node000006"><a xlink:title=" ">
<path fill="none" stroke="#9a32cd" stroke-dasharray="5,2" d="M441.62,-101.58C458.69,-98.86 476.1,-96.09 492.34,-93.5"/>
<polygon fill="#9a32cd" stroke="#9a32cd" points="441.28,-98.09 431.96,-103.12 442.38,-105.01 441.28,-98.09"/>
</a>
</g>
<text text-anchor="middle" x="461.38" y="-101.5" font-family="Helvetica,sans-Serif" font-size="10.00" fill="grey"> p</text>
</g>
<!-- Node7 -->
<g id="Node000007" class="node">
<title>Node7</title>
<g id="a_Node000007"><a xlink:title=" ">
<polygon fill="white" stroke="#666666" points="106.75,-110.88 48,-110.88 48,-91.62 106.75,-91.62 106.75,-110.88"/>
<text text-anchor="middle" x="77.38" y="-97.38" font-family="Helvetica,sans-Serif" font-size="10.00">Cloneable</text>
</a>
</g>
</g>
<!-- Node7&#45;&gt;Node6 -->
<g id="edge6_Node000006_Node000007" class="edge">
<title>Node7&#45;&gt;Node6</title>
<g id="a_edge6_Node000006_Node000007"><a xlink:title=" ">
<path fill="none" stroke="#63b8ff" d="M118.2,-103.89C151.03,-106.06 198.94,-109.24 241.38,-112.05"/>
<polygon fill="#63b8ff" stroke="#63b8ff" points="118.54,-100.4 108.33,-103.23 118.08,-107.39 118.54,-100.4"/>
</a>
</g>
</g>
<!-- Node8 -->
<g id="Node000008" class="node">
<title>Node8</title>
<g id="a_Node000008"><a xlink:title=" ">
<polygon fill="white" stroke="#666666" points="96.62,-73.88 58.12,-73.88 58.12,-54.62 96.62,-54.62 96.62,-73.88"/>
<text text-anchor="middle" x="77.38" y="-60.38" font-family="Helvetica,sans-Serif" font-size="10.00">Color</text>
</a>
</g>
</g>
<!-- Node8&#45;&gt;Node6 -->
<g id="edge8_Node000006_Node000008" class="edge">
<title>Node8&#45;&gt;Node6</title>
<g id="a_edge8_Node000006_Node000008"><a xlink:title=" ">
<path fill="none" stroke="#9a32cd" stroke-dasharray="5,2" d="M107.92,-69.5C137.34,-74.83 183.77,-83.47 223.75,-92 231.03,-93.55 238.56,-95.21 246.12,-96.92"/>
<polygon fill="#9a32cd" stroke="#9a32cd" points="108.74,-66.09 98.27,-67.77 107.5,-72.98 108.74,-66.09"/>
</a>
</g>
<text text-anchor="middle" x="198.25" y="-93.75" font-family="Helvetica,sans-Serif" font-size="10.00" fill="grey"> color</text>
</g>
<!-- Node9 -->
<g id="Node000009" class="node">
<title>Node9</title>
<g id="a_Node000009"><a xlink:href="interfacecom_1_1fs_1_1starfarer_1_1api_1_1graphics_1_1SpriteAPI.html" target="_top" xlink:title=" ">
<polygon fill="white" stroke="#666666" points="405.88,-79.5 266.12,-79.5 266.12,-49 405.88,-49 405.88,-79.5"/>
<text text-anchor="start" x="274.12" y="-66" font-family="Helvetica,sans-Serif" font-size="10.00">com.fs.starfarer.api.graphics.</text>
<text text-anchor="middle" x="336" y="-54.75" font-family="Helvetica,sans-Serif" font-size="10.00">SpriteAPI</text>
</a>
</g>
</g>
<!-- Node9&#45;&gt;Node1 -->
<g id="edge9_Node000001_Node000009" class="edge">
<title>Node9&#45;&gt;Node1</title>
<g id="a_edge9_Node000001_Node000009"><a xlink:title=" ">
<path fill="none" stroke="#9a32cd" stroke-dasharray="5,2" d="M417.65,-70.15C441.8,-71.92 468.2,-73.85 492.12,-75.6"/>
<polygon fill="#9a32cd" stroke="#9a32cd" points="418.11,-66.68 407.88,-69.44 417.6,-73.66 418.11,-66.68"/>
</a>
</g>
<text text-anchor="middle" x="461.38" y="-76.02" font-family="Helvetica,sans-Serif" font-size="10.00" fill="grey"> sprite</text>
</g>
<!-- Node10 -->
<g id="Node000010" class="node">
<title>Node10</title>
<g id="a_Node000010"><a xlink:href="classcom_1_1fs_1_1starfarer_1_1api_1_1util_1_1FaderUtil.html" target="_top" xlink:title=" ">
<polygon fill="white" stroke="#666666" points="393.88,-30.5 278.12,-30.5 278.12,0 393.88,0 393.88,-30.5"/>
<text text-anchor="start" x="286.12" y="-17" font-family="Helvetica,sans-Serif" font-size="10.00">com.fs.starfarer.api.util.</text>
<text text-anchor="middle" x="336" y="-5.75" font-family="Helvetica,sans-Serif" font-size="10.00">FaderUtil</text>
</a>
</g>
</g>
<!-- Node10&#45;&gt;Node1 -->
<g id="edge10_Node000001_Node000010" class="edge">
<title>Node10&#45;&gt;Node1</title>
<g id="a_edge10_Node000001_Node000010"><a xlink:title=" ">
<path fill="none" stroke="#9a32cd" stroke-dasharray="5,2" d="M405.27,-33.34C413.69,-35.64 422.17,-37.98 430.25,-40.25 459.07,-48.36 491.13,-57.79 517.19,-65.56"/>
<polygon fill="#9a32cd" stroke="#9a32cd" points="406.3,-29.99 395.73,-30.76 404.46,-36.75 406.3,-29.99"/>
</a>
</g>
<text text-anchor="middle" x="461.38" y="-54.09" font-family="Helvetica,sans-Serif" font-size="10.00" fill="grey"> fader</text>
</g>
</g>
</svg>
