<?xml version="1.0" encoding="UTF-8" standalone="no"?>
<!DOCTYPE svg PUBLIC "-//W3C//DTD SVG 1.1//EN"
 "http://www.w3.org/Graphics/SVG/1.1/DTD/svg11.dtd">
<!-- Generated by graphviz version 2.44.0 ()
 -->
<!-- Title: com.fs.starfarer.api.impl.campaign.intel.BaseEventManager Pages: 1 -->
<svg width="606pt" height="284pt"
 viewBox="0.00 0.00 606.00 284.00" xmlns="http://www.w3.org/2000/svg" xmlns:xlink="http://www.w3.org/1999/xlink">
<g id="graph0" class="graph" transform="scale(1 1) rotate(0) translate(4 280)">
<title>com.fs.starfarer.api.impl.campaign.intel.BaseEventManager</title>
<!-- Node1 -->
<g id="node1" class="node">
<title>Node1</title>
<g id="a_node1"><a xlink:title=" ">
<polygon fill="#bfbfbf" stroke="black" points="161,-122.5 161,-152.5 347,-152.5 347,-122.5 161,-122.5"/>
<text text-anchor="start" x="169" y="-140.5" font-family="Helvetica,sans-Serif" font-size="10.00">com.fs.starfarer.api.impl.campaign.intel.</text>
<text text-anchor="middle" x="254" y="-129.5" font-family="Helvetica,sans-Serif" font-size="10.00">BaseEventManager</text>
</a>
</g>
</g>
<!-- Node3 -->
<g id="node3" class="node">
<title>Node3</title>
<g id="a_node3"><a xlink:href="classcom_1_1fs_1_1starfarer_1_1api_1_1impl_1_1campaign_1_1intel_1_1FactionHostilityManager.html" target="_top" xlink:title=" ">
<polygon fill="none" stroke="black" points="397.5,-245.5 397.5,-275.5 583.5,-275.5 583.5,-245.5 397.5,-245.5"/>
<text text-anchor="start" x="405.5" y="-263.5" font-family="Helvetica,sans-Serif" font-size="10.00">com.fs.starfarer.api.impl.campaign.intel.</text>
<text text-anchor="middle" x="490.5" y="-252.5" font-family="Helvetica,sans-Serif" font-size="10.00">FactionHostilityManager</text>
</a>
</g>
</g>
<!-- Node1&#45;&gt;Node3 -->
<g id="edge2" class="edge">
<title>Node1&#45;&gt;Node3</title>
<path fill="none" stroke="midnightblue" d="M277.57,-160.02C301.64,-182.74 341.89,-217.15 383,-236.5 390.29,-239.93 398.09,-242.88 406.04,-245.42"/>
<polygon fill="midnightblue" stroke="midnightblue" points="279.69,-157.2 270.05,-152.8 274.84,-162.25 279.69,-157.2"/>
</g>
<!-- Node4 -->
<g id="node4" class="node">
<title>Node4</title>
<g id="a_node4"><a xlink:href="classcom_1_1fs_1_1starfarer_1_1api_1_1impl_1_1campaign_1_1intel_1_1GenericMissionManager.html" target="_top" xlink:title=" ">
<polygon fill="none" stroke="black" points="397.5,-196.5 397.5,-226.5 583.5,-226.5 583.5,-196.5 397.5,-196.5"/>
<text text-anchor="start" x="405.5" y="-214.5" font-family="Helvetica,sans-Serif" font-size="10.00">com.fs.starfarer.api.impl.campaign.intel.</text>
<text text-anchor="middle" x="490.5" y="-203.5" font-family="Helvetica,sans-Serif" font-size="10.00">GenericMissionManager</text>
</a>
</g>
</g>
<!-- Node1&#45;&gt;Node4 -->
<g id="edge3" class="edge">
<title>Node1&#45;&gt;Node4</title>
<path fill="none" stroke="midnightblue" d="M298.64,-156.43C323.12,-166.58 354.4,-178.75 383,-187.5 393.6,-190.75 404.92,-193.76 416.07,-196.48"/>
<polygon fill="midnightblue" stroke="midnightblue" points="299.85,-153.15 289.27,-152.52 297.14,-159.6 299.85,-153.15"/>
</g>
<!-- Node5 -->
<g id="node5" class="node">
<title>Node5</title>
<g id="a_node5"><a xlink:href="classcom_1_1fs_1_1starfarer_1_1api_1_1impl_1_1campaign_1_1intel_1_1PersonBountyManager.html" target="_top" xlink:title=" ">
<polygon fill="none" stroke="black" points="397.5,-147.5 397.5,-177.5 583.5,-177.5 583.5,-147.5 397.5,-147.5"/>
<text text-anchor="start" x="405.5" y="-165.5" font-family="Helvetica,sans-Serif" font-size="10.00">com.fs.starfarer.api.impl.campaign.intel.</text>
<text text-anchor="middle" x="490.5" y="-154.5" font-family="Helvetica,sans-Serif" font-size="10.00">PersonBountyManager</text>
</a>
</g>
</g>
<!-- Node1&#45;&gt;Node5 -->
<g id="edge4" class="edge">
<title>Node1&#45;&gt;Node5</title>
<path fill="none" stroke="midnightblue" d="M357.17,-148.39C370.54,-149.82 384.18,-151.27 397.37,-152.68"/>
<polygon fill="midnightblue" stroke="midnightblue" points="357.32,-144.89 347.01,-147.31 356.58,-151.85 357.32,-144.89"/>
</g>
<!-- Node6 -->
<g id="node6" class="node">
<title>Node6</title>
<g id="a_node6"><a xlink:href="classcom_1_1fs_1_1starfarer_1_1api_1_1impl_1_1campaign_1_1intel_1_1SystemBountyManager.html" target="_top" xlink:title=" ">
<polygon fill="none" stroke="black" points="397.5,-98.5 397.5,-128.5 583.5,-128.5 583.5,-98.5 397.5,-98.5"/>
<text text-anchor="start" x="405.5" y="-116.5" font-family="Helvetica,sans-Serif" font-size="10.00">com.fs.starfarer.api.impl.campaign.intel.</text>
<text text-anchor="middle" x="490.5" y="-105.5" font-family="Helvetica,sans-Serif" font-size="10.00">SystemBountyManager</text>
</a>
</g>
</g>
<!-- Node1&#45;&gt;Node6 -->
<g id="edge5" class="edge">
<title>Node1&#45;&gt;Node6</title>
<path fill="none" stroke="midnightblue" d="M357.17,-127.04C370.54,-125.67 384.18,-124.28 397.37,-122.93"/>
<polygon fill="midnightblue" stroke="midnightblue" points="356.6,-123.58 347.01,-128.08 357.31,-130.55 356.6,-123.58"/>
</g>
<!-- Node7 -->
<g id="node7" class="node">
<title>Node7</title>
<g id="a_node7"><a xlink:href="classcom_1_1fs_1_1starfarer_1_1api_1_1impl_1_1campaign_1_1intel_1_1bases_1_1LuddicPathBaseManager.html" target="_top" xlink:title=" ">
<polygon fill="none" stroke="black" points="383,-49.5 383,-79.5 598,-79.5 598,-49.5 383,-49.5"/>
<text text-anchor="start" x="391" y="-67.5" font-family="Helvetica,sans-Serif" font-size="10.00">com.fs.starfarer.api.impl.campaign.intel.bases.</text>
<text text-anchor="middle" x="490.5" y="-56.5" font-family="Helvetica,sans-Serif" font-size="10.00">LuddicPathBaseManager</text>
</a>
</g>
</g>
<!-- Node1&#45;&gt;Node7 -->
<g id="edge6" class="edge">
<title>Node1&#45;&gt;Node7</title>
<path fill="none" stroke="midnightblue" d="M299.45,-118.67C323.83,-108.81 354.75,-97.04 383,-88.5 393.7,-85.26 405.13,-82.24 416.38,-79.51"/>
<polygon fill="midnightblue" stroke="midnightblue" points="298.05,-115.46 290.11,-122.49 300.69,-121.94 298.05,-115.46"/>
</g>
<!-- Node8 -->
<g id="node8" class="node">
<title>Node8</title>
<g id="a_node8"><a xlink:href="classcom_1_1fs_1_1starfarer_1_1api_1_1impl_1_1campaign_1_1intel_1_1bases_1_1PirateBaseManager.html" target="_top" xlink:title=" ">
<polygon fill="none" stroke="black" points="383,-0.5 383,-30.5 598,-30.5 598,-0.5 383,-0.5"/>
<text text-anchor="start" x="391" y="-18.5" font-family="Helvetica,sans-Serif" font-size="10.00">com.fs.starfarer.api.impl.campaign.intel.bases.</text>
<text text-anchor="middle" x="490.5" y="-7.5" font-family="Helvetica,sans-Serif" font-size="10.00">PirateBaseManager</text>
</a>
</g>
</g>
<!-- Node1&#45;&gt;Node8 -->
<g id="edge7" class="edge">
<title>Node1&#45;&gt;Node8</title>
<path fill="none" stroke="midnightblue" d="M277.61,-115.22C301.72,-92.73 342,-58.68 383,-39.5 390.38,-36.05 398.29,-33.08 406.34,-30.52"/>
<polygon fill="midnightblue" stroke="midnightblue" points="274.93,-112.94 270.08,-122.36 279.75,-118.02 274.93,-112.94"/>
</g>
<!-- Node2 -->
<g id="node2" class="node">
<title>Node2</title>
<g id="a_node2"><a xlink:href="interfacecom_1_1fs_1_1starfarer_1_1api_1_1EveryFrameScript.html" target="_top" xlink:title=" ">
<polygon fill="none" stroke="black" points="0,-122.5 0,-152.5 125,-152.5 125,-122.5 0,-122.5"/>
<text text-anchor="start" x="8" y="-140.5" font-family="Helvetica,sans-Serif" font-size="10.00">com.fs.starfarer.api.Every</text>
<text text-anchor="middle" x="62.5" y="-129.5" font-family="Helvetica,sans-Serif" font-size="10.00">FrameScript</text>
</a>
</g>
</g>
<!-- Node2&#45;&gt;Node1 -->
<g id="edge1" class="edge">
<title>Node2&#45;&gt;Node1</title>
<path fill="none" stroke="midnightblue" d="M135.13,-137.5C143.53,-137.5 152.19,-137.5 160.82,-137.5"/>
<polygon fill="midnightblue" stroke="midnightblue" points="135.03,-134 125.03,-137.5 135.03,-141 135.03,-134"/>
</g>
</g>
</svg>
