<?xml version="1.0" encoding="UTF-8" standalone="no"?>
<!DOCTYPE svg PUBLIC "-//W3C//DTD SVG 1.1//EN"
 "http://www.w3.org/Graphics/SVG/1.1/DTD/svg11.dtd">
<!-- Generated by graphviz version 2.44.0 ()
 -->
<!-- Title: com.fs.starfarer.api.util.WeightedRandomPicker&lt; T &gt; Pages: 1 -->
<svg width="302pt" height="106pt"
 viewBox="0.00 0.00 301.50 106.00" xmlns="http://www.w3.org/2000/svg" xmlns:xlink="http://www.w3.org/1999/xlink">
<g id="graph0" class="graph" transform="scale(1 1) rotate(0) translate(4 102)">
<title>com.fs.starfarer.api.util.WeightedRandomPicker&lt; T &gt;</title>
<!-- Node1 -->
<g id="node1" class="node">
<title>Node1</title>
<g id="a_node1"><a xlink:title=" ">
<polygon fill="#bfbfbf" stroke="black" points="81,-0.5 81,-30.5 224,-30.5 224,-0.5 81,-0.5"/>
<text text-anchor="start" x="89" y="-18.5" font-family="Helvetica,sans-Serif" font-size="10.00">com.fs.starfarer.api.util.</text>
<text text-anchor="middle" x="152.5" y="-7.5" font-family="Helvetica,sans-Serif" font-size="10.00">WeightedRandomPicker&lt; T &gt;</text>
</a>
</g>
</g>
<!-- Node2 -->
<g id="node2" class="node">
<title>Node2</title>
<g id="a_node2"><a xlink:title=" ">
<polygon fill="none" stroke="#bfbfbf" points="0,-78.5 0,-97.5 59,-97.5 59,-78.5 0,-78.5"/>
<text text-anchor="middle" x="29.5" y="-85.5" font-family="Helvetica,sans-Serif" font-size="10.00">Cloneable</text>
</a>
</g>
</g>
<!-- Node2&#45;&gt;Node1 -->
<g id="edge1" class="edge">
<title>Node2&#45;&gt;Node1</title>
<path fill="none" stroke="midnightblue" d="M53.4,-73.3C74.87,-60.99 106.27,-43 127.94,-30.58"/>
<polygon fill="midnightblue" stroke="midnightblue" points="51.52,-70.35 44.58,-78.36 55,-76.42 51.52,-70.35"/>
</g>
<!-- Node3 -->
<g id="node3" class="node">
<title>Node3</title>
<g id="a_node3"><a xlink:title=" ">
<polygon fill="none" stroke="#bfbfbf" points="77,-78.5 77,-97.5 148,-97.5 148,-78.5 77,-78.5"/>
<text text-anchor="middle" x="112.5" y="-85.5" font-family="Helvetica,sans-Serif" font-size="10.00">List&lt; Float &gt;</text>
</a>
</g>
</g>
<!-- Node3&#45;&gt;Node1 -->
<g id="edge2" class="edge">
<title>Node3&#45;&gt;Node1</title>
<path fill="none" stroke="#9a32cd" stroke-dasharray="5,2" d="M122.27,-69.12C125.78,-62.75 129.78,-55.54 133.5,-49 136.92,-42.98 140.77,-36.37 144.1,-30.69"/>
<polygon fill="#9a32cd" stroke="#9a32cd" points="119.02,-67.76 117.28,-78.21 125.16,-71.13 119.02,-67.76"/>
<text text-anchor="middle" x="152" y="-52" font-family="Helvetica,sans-Serif" font-size="10.00"> weights</text>
</g>
<!-- Node4 -->
<g id="node4" class="node">
<title>Node4</title>
<g id="a_node4"><a xlink:title=" ">
<polygon fill="none" stroke="#bfbfbf" points="166,-78.5 166,-97.5 219,-97.5 219,-78.5 166,-78.5"/>
<text text-anchor="middle" x="192.5" y="-85.5" font-family="Helvetica,sans-Serif" font-size="10.00">Random</text>
</a>
</g>
</g>
<!-- Node4&#45;&gt;Node1 -->
<g id="edge3" class="edge">
<title>Node4&#45;&gt;Node1</title>
<path fill="none" stroke="#9a32cd" stroke-dasharray="5,2" d="M182.47,-69.32C175.67,-57.34 166.81,-41.72 160.49,-30.58"/>
<polygon fill="#9a32cd" stroke="#9a32cd" points="179.62,-71.38 187.6,-78.36 185.7,-67.93 179.62,-71.38"/>
<text text-anchor="middle" x="193" y="-52" font-family="Helvetica,sans-Serif" font-size="10.00"> random</text>
</g>
<!-- Node5 -->
<g id="node5" class="node">
<title>Node5</title>
<g id="a_node5"><a xlink:title=" ">
<polygon fill="none" stroke="#bfbfbf" points="237.5,-78.5 237.5,-97.5 293.5,-97.5 293.5,-78.5 237.5,-78.5"/>
<text text-anchor="middle" x="265.5" y="-85.5" font-family="Helvetica,sans-Serif" font-size="10.00">List&lt; T &gt;</text>
</a>
</g>
</g>
<!-- Node5&#45;&gt;Node1 -->
<g id="edge4" class="edge">
<title>Node5&#45;&gt;Node1</title>
<path fill="none" stroke="#9a32cd" stroke-dasharray="5,2" d="M246.97,-72.09C237.51,-64.76 225.66,-56.02 214.5,-49 204.11,-42.46 192.27,-36.03 181.74,-30.63"/>
<polygon fill="#9a32cd" stroke="#9a32cd" points="244.88,-74.9 254.91,-78.33 249.21,-69.4 244.88,-74.9"/>
<text text-anchor="middle" x="243" y="-52" font-family="Helvetica,sans-Serif" font-size="10.00"> items</text>
</g>
</g>
</svg>
