<?xml version="1.0" encoding="UTF-8" standalone="no"?>
<!DOCTYPE svg PUBLIC "-//W3C//DTD SVG 1.1//EN"
 "http://www.w3.org/Graphics/SVG/1.1/DTD/svg11.dtd">
<!-- Generated by graphviz version 7.0.5 (20221223.1930)
 -->
<!-- Title: com.fs.starfarer.api.impl.campaign.missions.hub.HubMissionWithTriggers.PickSetLocationAction Pages: 1 -->
<svg width="547pt" height="124pt"
 viewBox="0.00 0.00 547.00 124.00" xmlns="http://www.w3.org/2000/svg" xmlns:xlink="http://www.w3.org/1999/xlink">
<g id="graph0" class="graph" transform="scale(1 1) rotate(0) translate(4 120)">
<title>com.fs.starfarer.api.impl.campaign.missions.hub.HubMissionWithTriggers.PickSetLocationAction</title>
<!-- Node1 -->
<g id="node1" class="node">
<title>Node1</title>
<g id="a_node1"><a xlink:title=" ">
<polygon fill="#999999" stroke="#666666" points="539,-73 314,-73 314,-43 539,-43 539,-73"/>
<text text-anchor="start" x="322" y="-61" font-family="Helvetica,sans-Serif" font-size="10.00">com.fs.starfarer.api.impl.campaign.missions.hub.</text>
<text text-anchor="middle" x="426.5" y="-50" font-family="Helvetica,sans-Serif" font-size="10.00">HubMissionWithTriggers.PickSetLocationAction</text>
</a>
</g>
</g>
<!-- Node2 -->
<g id="node2" class="node">
<title>Node2</title>
<g id="a_node2"><a xlink:href="interfacecom_1_1fs_1_1starfarer_1_1api_1_1impl_1_1campaign_1_1missions_1_1hub_1_1MissionTrigger_1_1TriggerAction.html" target="_top" xlink:title=" ">
<polygon fill="white" stroke="#bfbfbf" points="225,-116 0,-116 0,-86 225,-86 225,-116"/>
<text text-anchor="start" x="8" y="-104" font-family="Helvetica,sans-Serif" font-size="10.00">com.fs.starfarer.api.impl.campaign.missions.hub.</text>
<text text-anchor="middle" x="112.5" y="-93" font-family="Helvetica,sans-Serif" font-size="10.00">MissionTrigger.TriggerAction</text>
</a>
</g>
</g>
<!-- Node2&#45;&gt;Node1 -->
<g id="edge1" class="edge">
<title>Node2&#45;&gt;Node1</title>
<path fill="none" stroke="#63b8ff" d="M236.48,-84.05C261.96,-80.54 288.68,-76.86 313.74,-73.4"/>
<polygon fill="#63b8ff" stroke="#63b8ff" points="236.19,-80.56 226.76,-85.39 237.14,-87.49 236.19,-80.56"/>
</g>
<!-- Node3 -->
<g id="node3" class="node">
<title>Node3</title>
<g id="a_node3"><a xlink:title=" ">
<polygon fill="white" stroke="#bfbfbf" points="139,-67.5 86,-67.5 86,-48.5 139,-48.5 139,-67.5"/>
<text text-anchor="middle" x="112.5" y="-55.5" font-family="Helvetica,sans-Serif" font-size="10.00">Vector2f</text>
</a>
</g>
</g>
<!-- Node3&#45;&gt;Node1 -->
<g id="edge2" class="edge">
<title>Node3&#45;&gt;Node1</title>
<path fill="none" stroke="#9a32cd" stroke-dasharray="5,2" d="M150.63,-58C190.72,-58 256.53,-58 313.7,-58"/>
<polygon fill="#9a32cd" stroke="#9a32cd" points="150.81,-54.5 140.81,-58 150.81,-61.5 150.81,-54.5"/>
<text text-anchor="middle" x="269.5" y="-61" font-family="Helvetica,sans-Serif" font-size="10.00"> coordinates</text>
</g>
<!-- Node4 -->
<g id="node4" class="node">
<title>Node4</title>
<g id="a_node4"><a xlink:href="interfacecom_1_1fs_1_1starfarer_1_1api_1_1campaign_1_1LocationAPI.html" target="_top" xlink:title=" ">
<polygon fill="white" stroke="#666666" points="185.5,-30 39.5,-30 39.5,0 185.5,0 185.5,-30"/>
<text text-anchor="start" x="47.5" y="-18" font-family="Helvetica,sans-Serif" font-size="10.00">com.fs.starfarer.api.campaign.</text>
<text text-anchor="middle" x="112.5" y="-7" font-family="Helvetica,sans-Serif" font-size="10.00">LocationAPI</text>
</a>
</g>
</g>
<!-- Node4&#45;&gt;Node1 -->
<g id="edge3" class="edge">
<title>Node4&#45;&gt;Node1</title>
<path fill="none" stroke="#9a32cd" stroke-dasharray="5,2" d="M197.25,-26.54C233.05,-31.48 275.38,-37.31 313.8,-42.61"/>
<polygon fill="#9a32cd" stroke="#9a32cd" points="197.75,-23.08 187.36,-25.18 196.79,-30.01 197.75,-23.08"/>
<text text-anchor="middle" x="269.5" y="-43" font-family="Helvetica,sans-Serif" font-size="10.00"> location</text>
</g>
</g>
</svg>
