<?xml version="1.0" encoding="UTF-8" standalone="no"?>
<!DOCTYPE svg PUBLIC "-//W3C//DTD SVG 1.1//EN"
 "http://www.w3.org/Graphics/SVG/1.1/DTD/svg11.dtd">
<!-- Generated by graphviz version 2.44.0 ()
 -->
<!-- Title: com.fs.starfarer.api.impl.campaign.eventide.QuadParticles Pages: 1 -->
<svg width="225pt" height="117pt"
 viewBox="0.00 0.00 224.50 117.00" xmlns="http://www.w3.org/2000/svg" xmlns:xlink="http://www.w3.org/1999/xlink">
<g id="graph0" class="graph" transform="scale(1 1) rotate(0) translate(4 113)">
<title>com.fs.starfarer.api.impl.campaign.eventide.QuadParticles</title>
<!-- Node1 -->
<g id="node1" class="node">
<title>Node1</title>
<g id="a_node1"><a xlink:title=" ">
<polygon fill="#bfbfbf" stroke="black" points="0,-0.5 0,-30.5 205,-30.5 205,-0.5 0,-0.5"/>
<text text-anchor="start" x="8" y="-18.5" font-family="Helvetica,sans-Serif" font-size="10.00">com.fs.starfarer.api.impl.campaign.eventide.</text>
<text text-anchor="middle" x="102.5" y="-7.5" font-family="Helvetica,sans-Serif" font-size="10.00">QuadParticles</text>
</a>
</g>
</g>
<!-- Node2 -->
<g id="node2" class="node">
<title>Node2</title>
<g id="a_node2"><a xlink:title=" ">
<polygon fill="none" stroke="#bfbfbf" points="33,-89.5 33,-108.5 72,-108.5 72,-89.5 33,-89.5"/>
<text text-anchor="middle" x="52.5" y="-96.5" font-family="Helvetica,sans-Serif" font-size="10.00">Color</text>
</a>
</g>
</g>
<!-- Node2&#45;&gt;Node1 -->
<g id="edge1" class="edge">
<title>Node2&#45;&gt;Node1</title>
<path fill="none" stroke="#9a32cd" stroke-dasharray="5,2" d="M63.22,-80.52C72.37,-65.61 85.36,-44.45 93.85,-30.6"/>
<polygon fill="#9a32cd" stroke="#9a32cd" points="60.1,-78.92 57.85,-89.28 66.06,-82.58 60.1,-78.92"/>
<text text-anchor="middle" x="104" y="-63" font-family="Helvetica,sans-Serif" font-size="10.00"> maxColor</text>
<text text-anchor="middle" x="104" y="-52" font-family="Helvetica,sans-Serif" font-size="10.00">minColor</text>
</g>
<!-- Node3 -->
<g id="node3" class="node">
<title>Node3</title>
<g id="a_node3"><a xlink:title=" ">
<polygon fill="none" stroke="#bfbfbf" points="90.5,-89.5 90.5,-108.5 216.5,-108.5 216.5,-89.5 90.5,-89.5"/>
<text text-anchor="middle" x="153.5" y="-96.5" font-family="Helvetica,sans-Serif" font-size="10.00">List&lt; QuadParticleData &gt;</text>
</a>
</g>
</g>
<!-- Node3&#45;&gt;Node1 -->
<g id="edge2" class="edge">
<title>Node3&#45;&gt;Node1</title>
<path fill="none" stroke="#9a32cd" stroke-dasharray="5,2" d="M145.96,-80.07C141.65,-70.55 135.85,-58.81 129.5,-49 125.44,-42.72 120.32,-36.28 115.64,-30.81"/>
<polygon fill="#9a32cd" stroke="#9a32cd" points="142.8,-81.58 150.01,-89.35 149.22,-78.78 142.8,-81.58"/>
<text text-anchor="middle" x="160.5" y="-57.5" font-family="Helvetica,sans-Serif" font-size="10.00"> particles</text>
</g>
</g>
</svg>
