<?xml version="1.0" encoding="UTF-8" standalone="no"?>
<!DOCTYPE svg PUBLIC "-//W3C//DTD SVG 1.1//EN"
 "http://www.w3.org/Graphics/SVG/1.1/DTD/svg11.dtd">
<!-- Generated by graphviz version 12.2.0 (20241103.1931)
 -->
<!-- Title: com.fs.starfarer.api.impl.campaign.plog.PlaythroughLog Pages: 1 -->
<svg width="414pt" height="186pt"
 viewBox="0.00 0.00 413.50 185.50" xmlns="http://www.w3.org/2000/svg" xmlns:xlink="http://www.w3.org/1999/xlink">
<g id="graph0" class="graph" transform="scale(1 1) rotate(0) translate(4 181.5)">
<title>com.fs.starfarer.api.impl.campaign.plog.PlaythroughLog</title>
<!-- Node1 -->
<g id="Node000001" class="node">
<title>Node1</title>
<g id="a_Node000001"><a xlink:title=" ">
<polygon fill="#999999" stroke="#666666" points="405.5,-103.5 220,-103.5 220,-73 405.5,-73 405.5,-103.5"/>
<text text-anchor="start" x="228" y="-90" font-family="Helvetica,sans-Serif" font-size="10.00">com.fs.starfarer.api.impl.campaign.plog.</text>
<text text-anchor="middle" x="312.75" y="-78.75" font-family="Helvetica,sans-Serif" font-size="10.00">PlaythroughLog</text>
</a>
</g>
</g>
<!-- Node2 -->
<g id="Node000002" class="node">
<title>Node2</title>
<g id="a_Node000002"><a xlink:href="interfacecom_1_1fs_1_1starfarer_1_1api_1_1campaign_1_1listeners_1_1EconomyTickListener.html" target="_top" xlink:title=" ">
<polygon fill="white" stroke="#666666" points="184,-177.5 0,-177.5 0,-147 184,-147 184,-177.5"/>
<text text-anchor="start" x="8" y="-164" font-family="Helvetica,sans-Serif" font-size="10.00">com.fs.starfarer.api.campaign.listeners.</text>
<text text-anchor="middle" x="92" y="-152.75" font-family="Helvetica,sans-Serif" font-size="10.00">EconomyTickListener</text>
</a>
</g>
</g>
<!-- Node2&#45;&gt;Node1 -->
<g id="edge1_Node000001_Node000002" class="edge">
<title>Node2&#45;&gt;Node1</title>
<g id="a_edge1_Node000001_Node000002"><a xlink:title=" ">
<path fill="none" stroke="#63b8ff" d="M164.07,-143.45C170.83,-141.45 177.56,-139.36 184,-137.25 214.58,-127.21 248.58,-114.07 273.81,-103.93"/>
<polygon fill="#63b8ff" stroke="#63b8ff" points="163.54,-139.96 154.91,-146.11 165.49,-146.68 163.54,-139.96"/>
</a>
</g>
</g>
<!-- Node3 -->
<g id="Node000003" class="node">
<title>Node3</title>
<g id="a_Node000003"><a xlink:href="interfacecom_1_1fs_1_1starfarer_1_1api_1_1campaign_1_1listeners_1_1ColonyInteractionListener.html" target="_top" xlink:title=" ">
<polygon fill="white" stroke="#666666" points="184,-128.5 0,-128.5 0,-98 184,-98 184,-128.5"/>
<text text-anchor="start" x="8" y="-115" font-family="Helvetica,sans-Serif" font-size="10.00">com.fs.starfarer.api.campaign.listeners.</text>
<text text-anchor="middle" x="92" y="-103.75" font-family="Helvetica,sans-Serif" font-size="10.00">ColonyInteractionListener</text>
</a>
</g>
</g>
<!-- Node3&#45;&gt;Node1 -->
<g id="edge2_Node000001_Node000003" class="edge">
<title>Node3&#45;&gt;Node1</title>
<g id="a_edge2_Node000001_Node000003"><a xlink:title=" ">
<path fill="none" stroke="#63b8ff" d="M195.52,-101.53C203.57,-100.61 211.68,-99.69 219.66,-98.77"/>
<polygon fill="#63b8ff" stroke="#63b8ff" points="195.23,-98.04 185.69,-102.66 196.02,-105 195.23,-98.04"/>
</a>
</g>
</g>
<!-- Node4 -->
<g id="Node000004" class="node">
<title>Node4</title>
<g id="a_Node000004"><a xlink:href="interfacecom_1_1fs_1_1starfarer_1_1api_1_1campaign_1_1listeners_1_1PlayerColonizationListener.html" target="_top" xlink:title=" ">
<polygon fill="white" stroke="#666666" points="184,-79.5 0,-79.5 0,-49 184,-49 184,-79.5"/>
<text text-anchor="start" x="8" y="-66" font-family="Helvetica,sans-Serif" font-size="10.00">com.fs.starfarer.api.campaign.listeners.</text>
<text text-anchor="middle" x="92" y="-54.75" font-family="Helvetica,sans-Serif" font-size="10.00">PlayerColonizationListener</text>
</a>
</g>
</g>
<!-- Node4&#45;&gt;Node1 -->
<g id="edge3_Node000001_Node000004" class="edge">
<title>Node4&#45;&gt;Node1</title>
<g id="a_edge3_Node000001_Node000004"><a xlink:title=" ">
<path fill="none" stroke="#63b8ff" d="M195.52,-75.5C203.57,-76.38 211.68,-77.27 219.66,-78.15"/>
<polygon fill="#63b8ff" stroke="#63b8ff" points="196.01,-72.03 185.69,-74.42 195.25,-78.99 196.01,-72.03"/>
</a>
</g>
</g>
<!-- Node5 -->
<g id="Node000005" class="node">
<title>Node5</title>
<g id="a_Node000005"><a xlink:href="interfacecom_1_1fs_1_1starfarer_1_1api_1_1campaign_1_1listeners_1_1ColonyPlayerHostileActListener.html" target="_top" xlink:title=" ">
<polygon fill="white" stroke="#666666" points="184,-30.5 0,-30.5 0,0 184,0 184,-30.5"/>
<text text-anchor="start" x="8" y="-17" font-family="Helvetica,sans-Serif" font-size="10.00">com.fs.starfarer.api.campaign.listeners.</text>
<text text-anchor="middle" x="92" y="-5.75" font-family="Helvetica,sans-Serif" font-size="10.00">ColonyPlayerHostileActListener</text>
</a>
</g>
</g>
<!-- Node5&#45;&gt;Node1 -->
<g id="edge4_Node000001_Node000005" class="edge">
<title>Node5&#45;&gt;Node1</title>
<g id="a_edge4_Node000001_Node000005"><a xlink:title=" ">
<path fill="none" stroke="#63b8ff" d="M163.73,-34C170.61,-36.03 177.45,-38.13 184,-40.25 214.09,-50.01 247.53,-62.65 272.66,-72.5"/>
<polygon fill="#63b8ff" stroke="#63b8ff" points="164.98,-30.72 154.4,-31.3 163.04,-37.44 164.98,-30.72"/>
</a>
</g>
</g>
</g>
</svg>
