<?xml version="1.0" encoding="UTF-8" standalone="no"?>
<!DOCTYPE svg PUBLIC "-//W3C//DTD SVG 1.1//EN"
 "http://www.w3.org/Graphics/SVG/1.1/DTD/svg11.dtd">
<!-- Generated by graphviz version 9.0.0 (20230911.1827)
 -->
<!-- Title: com.fs.starfarer.api.impl.campaign.intel.punitive.PEAvertInteractionDialogPluginImpl Pages: 1 -->
<!--zoomable 162 -->

<svg id="main" version="1.1" xmlns="http://www.w3.org/2000/svg" xmlns:xlink="http://www.w3.org/1999/xlink" xml:space="preserve" onload="init(evt)">
<style type="text/css"><![CDATA[
.node, .edge {opacity: 0.7;}
.node.selected, .edge.selected {opacity: 1;}
.edge:hover path { stroke: red; }
.edge:hover polygon { stroke: red; fill: red; }
]]></style>

<defs>
  <circle id="rim" cx="0" cy="0" r="7"/>
  <circle id="rim2" cx="0" cy="0" r="3.5"/>
  <g id="zoomPlus">
    <use xlink:href="#rim" fill="#404040"><set attributeName="fill" to="#808080" begin="zoomplus.mouseover" end="zoomplus.mouseout"/></use>
    <path d="M-4,0h8M0,-4v8" fill="none" stroke="white" stroke-width="1.5" pointer-events="none"/>
  </g>
  <g id="zoomMin">
    <use xlink:href="#rim" fill="#404040"><set attributeName="fill" to="#808080" begin="zoomminus.mouseover" end="zoomminus.mouseout"/></use>
    <path d="M-4,0h8" fill="none" stroke="white" stroke-width="1.5" pointer-events="none"/>
  </g>
  <g id="arrowUp" transform="translate(30 24)">
    <use xlink:href="#rim"/>
    <path pointer-events="none" fill="none" stroke="white" stroke-width="1.5" d="M0,-3.0v7 M-2.5,-0.5L0,-3.0L2.5,-0.5"/>
  </g>
  <g id="arrowRight" transform="rotate(90) translate(36 -43)">
    <use xlink:href="#rim"/>
    <path pointer-events="none" fill="none" stroke="white" stroke-width="1.5" d="M0,-3.0v7 M-2.5,-0.5L0,-3.0L2.5,-0.5"/>
  </g>
  <g id="arrowDown" transform="rotate(180) translate(-30 -48)">
    <use xlink:href="#rim"/>
    <path pointer-events="none" fill="none" stroke="white" stroke-width="1.5" d="M0,-3.0v7 M-2.5,-0.5L0,-3.0L2.5,-0.5"/>
  </g>
  <g id="arrowLeft" transform="rotate(270) translate(-36 17)">
    <use xlink:href="#rim"/>
    <path pointer-events="none" fill="none" stroke="white" stroke-width="1.5" d="M0,-3.0v7 M-2.5,-0.5L0,-3.0L2.5,-0.5"/>
  </g>
  <g id="resetDef">
    <use xlink:href="#rim2" fill="#404040"><set attributeName="fill" to="#808080" begin="reset.mouseover" end="reset.mouseout"/></use>
  </g>
</defs>
<script type="application/ecmascript">
var viewWidth = 994;
var viewHeight = 162;
var sectionId = 'dynsection-1';
</script>
<script type="application/ecmascript" xlink:href="svg.min.js"/>
<svg id="graph" class="graph">
<g id="viewport">
<title>com.fs.starfarer.api.impl.campaign.intel.punitive.PEAvertInteractionDialogPluginImpl</title>
<!-- Node1 -->
<g id="Node000001" class="node">
<title>Node1</title>
<g id="a_Node000001"><a xlink:title=" ">
<polygon fill="#999999" stroke="#666666" points="986,-105.5 764.5,-105.5 764.5,-75 986,-75 986,-105.5"/>
<text text-anchor="start" x="772.5" y="-92" font-family="Helvetica,sans-Serif" font-size="10.00">com.fs.starfarer.api.impl.campaign.intel.punitive.</text>
<text text-anchor="middle" x="875.25" y="-80.75" font-family="Helvetica,sans-Serif" font-size="10.00">PEAvertInteractionDialogPluginImpl</text>
</a>
</g>
</g>
<!-- Node2 -->
<g id="Node000002" class="node">
<title>Node2</title>
<g id="a_Node000002"><a xlink:title=" ">
<polygon fill="white" stroke="#666666" points="606.62,-142.88 490.88,-142.88 490.88,-123.62 606.62,-123.62 606.62,-142.88"/>
<text text-anchor="middle" x="548.75" y="-129.38" font-family="Helvetica,sans-Serif" font-size="10.00">InteractionDialogPlugin</text>
</a>
</g>
</g>
<!-- Node2&#45;&gt;Node1 -->
<g id="edge1_Node000001_Node000002" class="edge">
<title>Node2&#45;&gt;Node1</title>
<g id="a_edge1_Node000001_Node000002"><a xlink:title=" ">
<path fill="none" stroke="#63b8ff" d="M618.31,-124.17C660.59,-118.56 715.79,-111.25 764.1,-104.85"/>
<polygon fill="#63b8ff" stroke="#63b8ff" points="617.97,-120.68 608.52,-125.46 618.89,-127.62 617.97,-120.68"/>
</a>
</g>
</g>
<!-- Node3 -->
<g id="Node000003" class="node">
<title>Node3</title>
<g id="a_Node000003"><a xlink:href="classcom_1_1fs_1_1starfarer_1_1api_1_1impl_1_1campaign_1_1intel_1_1punitive_1_1PunitiveExpeditionIntel.html" target="_top" xlink:title=" ">
<polygon fill="white" stroke="#666666" points="659.5,-105.5 438,-105.5 438,-75 659.5,-75 659.5,-105.5"/>
<text text-anchor="start" x="446" y="-92" font-family="Helvetica,sans-Serif" font-size="10.00">com.fs.starfarer.api.impl.campaign.intel.punitive.</text>
<text text-anchor="middle" x="548.75" y="-80.75" font-family="Helvetica,sans-Serif" font-size="10.00">PunitiveExpeditionIntel</text>
</a>
</g>
</g>
<!-- Node3&#45;&gt;Node1 -->
<g id="edge2_Node000001_Node000003" class="edge">
<title>Node3&#45;&gt;Node1</title>
<g id="a_edge2_Node000001_Node000003"><a xlink:title=" ">
<path fill="none" stroke="#9a32cd" stroke-dasharray="5,2" d="M670.79,-90.25C701.43,-90.25 734.17,-90.25 764.23,-90.25"/>
<polygon fill="#9a32cd" stroke="#9a32cd" points="671.12,-86.75 661.12,-90.25 671.12,-93.75 671.12,-86.75"/>
</a>
</g>
<text text-anchor="middle" x="712" y="-92" font-family="Helvetica,sans-Serif" font-size="10.00" fill="grey"> intel</text>
</g>
<!-- Node4 -->
<g id="Node000004" class="node">
<title>Node4</title>
<g id="a_Node000004"><a xlink:title=" ">
<polygon fill="white" stroke="#666666" points="278.62,-153.88 224.38,-153.88 224.38,-134.62 278.62,-134.62 278.62,-153.88"/>
<text text-anchor="middle" x="251.5" y="-140.38" font-family="Helvetica,sans-Serif" font-size="10.00">RaidIntel</text>
</a>
</g>
</g>
<!-- Node4&#45;&gt;Node3 -->
<g id="edge3_Node000003_Node000004" class="edge">
<title>Node4&#45;&gt;Node3</title>
<g id="a_edge3_Node000003_Node000004"><a xlink:title=" ">
<path fill="none" stroke="#63b8ff" d="M289.85,-138.4C311.1,-135 338.2,-130.56 362.25,-126.25 397.45,-119.95 436.3,-112.49 469.32,-106"/>
<polygon fill="#63b8ff" stroke="#63b8ff" points="289.52,-134.91 280.2,-139.93 290.62,-141.82 289.52,-134.91"/>
</a>
</g>
</g>
<!-- Node5 -->
<g id="Node000005" class="node">
<title>Node5</title>
<g id="a_Node000005"><a xlink:title=" ">
<polygon fill="white" stroke="#666666" points="288.38,-116.88 214.62,-116.88 214.62,-97.62 288.38,-97.62 288.38,-116.88"/>
<text text-anchor="middle" x="251.5" y="-103.38" font-family="Helvetica,sans-Serif" font-size="10.00">RaidDelegate</text>
</a>
</g>
</g>
<!-- Node5&#45;&gt;Node3 -->
<g id="edge4_Node000003_Node000005" class="edge">
<title>Node5&#45;&gt;Node3</title>
<g id="a_edge4_Node000003_Node000005"><a xlink:title=" ">
<path fill="none" stroke="#63b8ff" d="M300.17,-104.51C337.27,-102.37 390.27,-99.32 437.72,-96.59"/>
<polygon fill="#63b8ff" stroke="#63b8ff" points="300,-101.01 290.21,-105.08 300.4,-108 300,-101.01"/>
</a>
</g>
</g>
<!-- Node6 -->
<g id="Node000006" class="node">
<title>Node6</title>
<g id="a_Node000006"><a xlink:href="classcom_1_1fs_1_1starfarer_1_1api_1_1impl_1_1campaign_1_1intel_1_1punitive_1_1PEActionStage.html" target="_top" xlink:title=" ">
<polygon fill="white" stroke="#666666" points="362.25,-79.5 140.75,-79.5 140.75,-49 362.25,-49 362.25,-79.5"/>
<text text-anchor="start" x="148.75" y="-66" font-family="Helvetica,sans-Serif" font-size="10.00">com.fs.starfarer.api.impl.campaign.intel.punitive.</text>
<text text-anchor="middle" x="251.5" y="-54.75" font-family="Helvetica,sans-Serif" font-size="10.00">PEActionStage</text>
</a>
</g>
</g>
<!-- Node6&#45;&gt;Node3 -->
<g id="edge5_Node000003_Node000006" class="edge">
<title>Node6&#45;&gt;Node3</title>
<g id="a_edge5_Node000003_Node000006"><a xlink:title=" ">
<path fill="none" stroke="#9a32cd" stroke-dasharray="5,2" d="M373.77,-74.93C394.95,-76.79 416.87,-78.72 437.72,-80.56"/>
<polygon fill="#9a32cd" stroke="#9a32cd" points="374.22,-71.46 363.95,-74.06 373.6,-78.43 374.22,-71.46"/>
</a>
</g>
<text text-anchor="middle" x="400.12" y="-80" font-family="Helvetica,sans-Serif" font-size="10.00" fill="grey"> action</text>
</g>
<!-- Node7 -->
<g id="Node000007" class="node">
<title>Node7</title>
<g id="a_Node000007"><a xlink:title=" ">
<polygon fill="white" stroke="#666666" points="86.5,-91.88 17.25,-91.88 17.25,-72.62 86.5,-72.62 86.5,-91.88"/>
<text text-anchor="middle" x="51.88" y="-78.38" font-family="Helvetica,sans-Serif" font-size="10.00">ActionStage</text>
</a>
</g>
</g>
<!-- Node7&#45;&gt;Node6 -->
<g id="edge6_Node000006_Node000007" class="edge">
<title>Node7&#45;&gt;Node6</title>
<g id="a_edge6_Node000006_Node000007"><a xlink:title=" ">
<path fill="none" stroke="#63b8ff" d="M98.12,-78.13C110.97,-76.96 125.56,-75.63 140.48,-74.27"/>
<polygon fill="#63b8ff" stroke="#63b8ff" points="98,-74.63 88.36,-79.02 98.63,-81.6 98,-74.63"/>
</a>
</g>
</g>
<!-- Node8 -->
<g id="Node000008" class="node">
<title>Node8</title>
<g id="a_Node000008"><a xlink:title=" ">
<polygon fill="white" stroke="#666666" points="103.75,-54.88 0,-54.88 0,-35.62 103.75,-35.62 103.75,-54.88"/>
<text text-anchor="middle" x="51.88" y="-41.38" font-family="Helvetica,sans-Serif" font-size="10.00">FleetActionDelegate</text>
</a>
</g>
</g>
<!-- Node8&#45;&gt;Node6 -->
<g id="edge7_Node000006_Node000008" class="edge">
<title>Node8&#45;&gt;Node6</title>
<g id="a_edge7_Node000006_Node000008"><a xlink:title=" ">
<path fill="none" stroke="#63b8ff" d="M115.22,-51.24C123.33,-52.02 131.83,-52.84 140.44,-53.67"/>
<polygon fill="#63b8ff" stroke="#63b8ff" points="115.82,-47.79 105.53,-50.31 115.15,-54.75 115.82,-47.79"/>
</a>
</g>
</g>
<!-- Node9 -->
<g id="Node000009" class="node">
<title>Node9</title>
<g id="a_Node000009"><a xlink:title=" ">
<polygon fill="white" stroke="#666666" points="362.25,-30.5 140.75,-30.5 140.75,0 362.25,0 362.25,-30.5"/>
<text text-anchor="start" x="148.75" y="-17" font-family="Helvetica,sans-Serif" font-size="10.00">com.fs.starfarer.api.impl.campaign.intel.punitive.</text>
<text text-anchor="middle" x="251.5" y="-5.75" font-family="Helvetica,sans-Serif" font-size="10.00">PunitiveExpeditionIntel.PunExOutcome</text>
</a>
</g>
</g>
<!-- Node9&#45;&gt;Node3 -->
<g id="edge8_Node000003_Node000009" class="edge">
<title>Node9&#45;&gt;Node3</title>
<g id="a_edge8_Node000003_Node000009"><a xlink:title=" ">
<path fill="none" stroke="#9a32cd" stroke-dasharray="5,2" d="M337.12,-33.68C345.64,-35.79 354.13,-37.99 362.25,-40.25 396.41,-49.75 403.84,-55.75 438,-65.25 449.67,-68.5 462.13,-71.64 474.3,-74.53"/>
<polygon fill="#9a32cd" stroke="#9a32cd" points="337.96,-30.28 327.42,-31.32 336.31,-37.08 337.96,-30.28"/>
</a>
</g>
<text text-anchor="middle" x="400.12" y="-61" font-family="Helvetica,sans-Serif" font-size="10.00" fill="grey"> outcome</text>
</g>
<!-- Node10 -->
<g id="Node000010" class="node">
<title>Node10</title>
<g id="a_Node000010"><a xlink:title=" ">
<polygon fill="white" stroke="#666666" points="659.5,-56.5 438,-56.5 438,-26 659.5,-26 659.5,-56.5"/>
<text text-anchor="start" x="446" y="-43" font-family="Helvetica,sans-Serif" font-size="10.00">com.fs.starfarer.api.impl.campaign.intel.punitive.</text>
<text text-anchor="middle" x="548.75" y="-31.75" font-family="Helvetica,sans-Serif" font-size="10.00">PEAvertInteractionDialogPluginImpl.OptionId</text>
</a>
</g>
</g>
<!-- Node10&#45;&gt;Node1 -->
<g id="edge9_Node000001_Node000010" class="edge">
<title>Node10&#45;&gt;Node1</title>
<g id="a_edge9_Node000001_Node000010"><a xlink:title=" ">
<path fill="none" stroke="#9a32cd" stroke-dasharray="5,2" d="M664.78,-58.62C699.06,-63.8 736.43,-69.44 769.99,-74.51"/>
<polygon fill="#9a32cd" stroke="#9a32cd" points="665.67,-55.21 655.26,-57.18 664.62,-62.14 665.67,-55.21"/>
</a>
</g>
<text text-anchor="middle" x="712" y="-71" font-family="Helvetica,sans-Serif" font-size="10.00" fill="grey"> beingConfirmed</text>
</g>
</g>
</svg>

<g id="navigator" transform="translate(0 0)" fill="#404254">
  <rect fill="#f2f5e9" fill-opacity="0.5" stroke="#606060" stroke-width=".5" x="0" y="0" width="60" height="60"/>
  <use id="zoomplus" xlink:href="#zoomPlus" x="17" y="9" onmousedown="handleZoom(evt,'in')"/>
  <use id="zoomminus" xlink:href="#zoomMin" x="42" y="9" onmousedown="handleZoom(evt,'out')"/>
  <use id="reset" xlink:href="#resetDef" x="30" y="36" onmousedown="handleReset()"/>
   <use id="arrowup" xlink:href="#arrowUp" x="0" y="0" onmousedown="handlePan(0,-1)"/>
  <use id="arrowright" xlink:href="#arrowRight" x="0" y="0" onmousedown="handlePan(1,0)"/>
  <use id="arrowdown" xlink:href="#arrowDown" x="0" y="0" onmousedown="handlePan(0,1)"/>
  <use id="arrowleft" xlink:href="#arrowLeft" x="0" y="0" onmousedown="handlePan(-1,0)"/>
</g>
<svg viewBox="0 0 15 15" width="100%" height="30px" preserveAspectRatio="xMaxYMin meet">
 <g id="arrow_out" transform="scale(0.3 0.3)">
  <a xlink:href="classcom_1_1fs_1_1starfarer_1_1api_1_1impl_1_1campaign_1_1intel_1_1punitive_1_1PEAvertInteractionDialogPluginImpl__coll__graph_org.svg" target="_base">
   <rect id="button" ry="5" rx="5" y="6" x="6" height="38" width="38"
        fill="#f2f5e9" fill-opacity="0.5" stroke="#606060" stroke-width="1.0"/>
   <path id="arrow"
     d="M 11.500037,31.436501 C 11.940474,20.09759 22.043105,11.32322 32.158766,21.979434 L 37.068811,17.246167 C 37.068811,17.246167 37.088388,32 37.088388,32 L 22.160133,31.978069 C 22.160133,31.978069 26.997745,27.140456 26.997745,27.140456 C 18.528582,18.264221 13.291696,25.230495 11.500037,31.436501 z"
     style="fill:#404040;"/>
  </a>
 </g>
</svg>

<style type='text/css'>
<![CDATA[
[data-mouse-over-selected='false'] { opacity: 0.7; }
[data-mouse-over-selected='true']  { opacity: 1.0; }
]]>
</style>
<script type="application/ecmascript"><![CDATA[
document.addEventListener('DOMContentLoaded', (event) => {
  highlightEdges();
  highlightAdjacentNodes();
});
]]></script>
</svg>
