<?xml version="1.0" encoding="UTF-8" standalone="no"?>
<!DOCTYPE svg PUBLIC "-//W3C//DTD SVG 1.1//EN"
 "http://www.w3.org/Graphics/SVG/1.1/DTD/svg11.dtd">
<!-- Generated by graphviz version 2.44.0 ()
 -->
<!-- Title: com.fs.starfarer.api.impl.campaign.velfield.SlipstreamEntityPlugin Pages: 1 -->
<svg width="945pt" height="235pt"
 viewBox="0.00 0.00 945.00 235.00" xmlns="http://www.w3.org/2000/svg" xmlns:xlink="http://www.w3.org/1999/xlink">
<g id="graph0" class="graph" transform="scale(1 1) rotate(0) translate(4 231)">
<title>com.fs.starfarer.api.impl.campaign.velfield.SlipstreamEntityPlugin</title>
<!-- Node1 -->
<g id="node1" class="node">
<title>Node1</title>
<g id="a_node1"><a xlink:title=" ">
<polygon fill="#bfbfbf" stroke="black" points="739,-66.5 739,-96.5 937,-96.5 937,-66.5 739,-66.5"/>
<text text-anchor="start" x="747" y="-84.5" font-family="Helvetica,sans-Serif" font-size="10.00">com.fs.starfarer.api.impl.campaign.velfield.</text>
<text text-anchor="middle" x="838" y="-73.5" font-family="Helvetica,sans-Serif" font-size="10.00">SlipstreamEntityPlugin</text>
</a>
</g>
</g>
<!-- Node2 -->
<g id="node2" class="node">
<title>Node2</title>
<g id="a_node2"><a xlink:href="classcom_1_1fs_1_1starfarer_1_1api_1_1impl_1_1campaign_1_1BaseCustomEntityPlugin.html" target="_top" xlink:title=" ">
<polygon fill="none" stroke="black" points="468.5,-147.5 468.5,-177.5 634.5,-177.5 634.5,-147.5 468.5,-147.5"/>
<text text-anchor="start" x="476.5" y="-165.5" font-family="Helvetica,sans-Serif" font-size="10.00">com.fs.starfarer.api.impl.campaign.</text>
<text text-anchor="middle" x="551.5" y="-154.5" font-family="Helvetica,sans-Serif" font-size="10.00">BaseCustomEntityPlugin</text>
</a>
</g>
</g>
<!-- Node2&#45;&gt;Node1 -->
<g id="edge1" class="edge">
<title>Node2&#45;&gt;Node1</title>
<path fill="none" stroke="midnightblue" d="M636.77,-145.14C645.66,-143.03 654.53,-140.8 663,-138.5 708.71,-126.08 760.15,-108.81 795.17,-96.54"/>
<polygon fill="midnightblue" stroke="midnightblue" points="635.7,-141.79 626.76,-147.47 637.29,-148.61 635.7,-141.79"/>
</g>
<!-- Node3 -->
<g id="node3" class="node">
<title>Node3</title>
<g id="a_node3"><a xlink:href="interfacecom_1_1fs_1_1starfarer_1_1api_1_1campaign_1_1CustomCampaignEntityPlugin.html" target="_top" xlink:title=" ">
<polygon fill="none" stroke="black" points="206,-196.5 206,-226.5 352,-226.5 352,-196.5 206,-196.5"/>
<text text-anchor="start" x="214" y="-214.5" font-family="Helvetica,sans-Serif" font-size="10.00">com.fs.starfarer.api.campaign.</text>
<text text-anchor="middle" x="279" y="-203.5" font-family="Helvetica,sans-Serif" font-size="10.00">CustomCampaignEntityPlugin</text>
</a>
</g>
</g>
<!-- Node3&#45;&gt;Node2 -->
<g id="edge2" class="edge">
<title>Node3&#45;&gt;Node2</title>
<path fill="none" stroke="midnightblue" d="M362.36,-196.58C395.87,-190.51 434.52,-183.51 468.05,-177.44"/>
<polygon fill="midnightblue" stroke="midnightblue" points="361.35,-193.21 352.13,-198.43 362.6,-200.09 361.35,-193.21"/>
</g>
<!-- Node4 -->
<g id="node4" class="node">
<title>Node4</title>
<g id="a_node4"><a xlink:href="interfacecom_1_1fs_1_1starfarer_1_1api_1_1campaign_1_1SectorEntityToken.html" target="_top" xlink:title=" ">
<polygon fill="none" stroke="black" points="206,-147.5 206,-177.5 352,-177.5 352,-147.5 206,-147.5"/>
<text text-anchor="start" x="214" y="-165.5" font-family="Helvetica,sans-Serif" font-size="10.00">com.fs.starfarer.api.campaign.</text>
<text text-anchor="middle" x="279" y="-154.5" font-family="Helvetica,sans-Serif" font-size="10.00">SectorEntityToken</text>
</a>
</g>
</g>
<!-- Node4&#45;&gt;Node2 -->
<g id="edge3" class="edge">
<title>Node4&#45;&gt;Node2</title>
<path fill="none" stroke="#9a32cd" stroke-dasharray="5,2" d="M362.36,-162.5C395.87,-162.5 434.52,-162.5 468.05,-162.5"/>
<polygon fill="#9a32cd" stroke="#9a32cd" points="362.13,-159 352.13,-162.5 362.13,-166 362.13,-159"/>
<text text-anchor="middle" x="396" y="-165.5" font-family="Helvetica,sans-Serif" font-size="10.00"> entity</text>
</g>
<!-- Node5 -->
<g id="node5" class="node">
<title>Node5</title>
<g id="a_node5"><a xlink:href="interfacecom_1_1fs_1_1starfarer_1_1api_1_1campaign_1_1rules_1_1HasMemory.html" target="_top" xlink:title=" ">
<polygon fill="none" stroke="black" points="0,-147.5 0,-177.5 169,-177.5 169,-147.5 0,-147.5"/>
<text text-anchor="start" x="8" y="-165.5" font-family="Helvetica,sans-Serif" font-size="10.00">com.fs.starfarer.api.campaign.rules.</text>
<text text-anchor="middle" x="84.5" y="-154.5" font-family="Helvetica,sans-Serif" font-size="10.00">HasMemory</text>
</a>
</g>
</g>
<!-- Node5&#45;&gt;Node4 -->
<g id="edge4" class="edge">
<title>Node5&#45;&gt;Node4</title>
<path fill="none" stroke="midnightblue" d="M179.21,-162.5C188.2,-162.5 197.21,-162.5 205.95,-162.5"/>
<polygon fill="midnightblue" stroke="midnightblue" points="179.09,-159 169.09,-162.5 179.09,-166 179.09,-159"/>
</g>
<!-- Node6 -->
<g id="node6" class="node">
<title>Node6</title>
<g id="a_node6"><a xlink:href="classcom_1_1fs_1_1starfarer_1_1api_1_1util_1_1FaderUtil.html" target="_top" xlink:title=" ">
<polygon fill="none" stroke="black" points="493.5,-98.5 493.5,-128.5 609.5,-128.5 609.5,-98.5 493.5,-98.5"/>
<text text-anchor="start" x="501.5" y="-116.5" font-family="Helvetica,sans-Serif" font-size="10.00">com.fs.starfarer.api.util.</text>
<text text-anchor="middle" x="551.5" y="-105.5" font-family="Helvetica,sans-Serif" font-size="10.00">FaderUtil</text>
</a>
</g>
</g>
<!-- Node6&#45;&gt;Node1 -->
<g id="edge5" class="edge">
<title>Node6&#45;&gt;Node1</title>
<path fill="none" stroke="#9a32cd" stroke-dasharray="5,2" d="M619.98,-105.91C655.5,-101.91 699.71,-96.94 738.95,-92.53"/>
<polygon fill="#9a32cd" stroke="#9a32cd" points="619.28,-102.47 609.73,-107.06 620.06,-109.42 619.28,-102.47"/>
<text text-anchor="middle" x="701" y="-100.5" font-family="Helvetica,sans-Serif" font-size="10.00"> fader</text>
</g>
<!-- Node7 -->
<g id="node7" class="node">
<title>Node7</title>
<g id="a_node7"><a xlink:href="enumcom_1_1fs_1_1starfarer_1_1api_1_1util_1_1FaderUtil_1_1State.html" target="_top" xlink:title=" ">
<polygon fill="none" stroke="black" points="221,-98.5 221,-128.5 337,-128.5 337,-98.5 221,-98.5"/>
<text text-anchor="start" x="229" y="-116.5" font-family="Helvetica,sans-Serif" font-size="10.00">com.fs.starfarer.api.util.</text>
<text text-anchor="middle" x="279" y="-105.5" font-family="Helvetica,sans-Serif" font-size="10.00">FaderUtil.State</text>
</a>
</g>
</g>
<!-- Node7&#45;&gt;Node6 -->
<g id="edge6" class="edge">
<title>Node7&#45;&gt;Node6</title>
<path fill="none" stroke="#9a32cd" stroke-dasharray="5,2" d="M347.26,-113.5C392.1,-113.5 450.42,-113.5 493.08,-113.5"/>
<polygon fill="#9a32cd" stroke="#9a32cd" points="347.04,-110 337.04,-113.5 347.04,-117 347.04,-110"/>
<text text-anchor="middle" x="396" y="-116.5" font-family="Helvetica,sans-Serif" font-size="10.00"> state</text>
</g>
<!-- Node8 -->
<g id="node8" class="node">
<title>Node8</title>
<g id="a_node8"><a xlink:title=" ">
<polygon fill="none" stroke="#bfbfbf" points="440,-49.5 440,-79.5 663,-79.5 663,-49.5 440,-49.5"/>
<text text-anchor="start" x="448" y="-67.5" font-family="Helvetica,sans-Serif" font-size="10.00">List&lt; com.fs.starfarer.api.impl.campaign.velfield.</text>
<text text-anchor="middle" x="551.5" y="-56.5" font-family="Helvetica,sans-Serif" font-size="10.00">SlipstreamEntityPlugin.SlipstreamParticle &gt;</text>
</a>
</g>
</g>
<!-- Node8&#45;&gt;Node1 -->
<g id="edge7" class="edge">
<title>Node8&#45;&gt;Node1</title>
<path fill="none" stroke="#9a32cd" stroke-dasharray="5,2" d="M673.1,-69.79C689.21,-70.62 705.51,-71.53 721,-72.5 726.85,-72.87 732.86,-73.26 738.92,-73.68"/>
<polygon fill="#9a32cd" stroke="#9a32cd" points="673.27,-66.29 663.1,-69.28 672.91,-73.28 673.27,-66.29"/>
<text text-anchor="middle" x="701" y="-75.5" font-family="Helvetica,sans-Serif" font-size="10.00"> particles</text>
</g>
<!-- Node9 -->
<g id="node9" class="node">
<title>Node9</title>
<g id="a_node9"><a xlink:href="classcom_1_1fs_1_1starfarer_1_1api_1_1impl_1_1campaign_1_1velfield_1_1SlipstreamEntityPlugin_1_1SlipstreamParams.html" target="_top" xlink:title=" ">
<polygon fill="none" stroke="black" points="452.5,-0.5 452.5,-30.5 650.5,-30.5 650.5,-0.5 452.5,-0.5"/>
<text text-anchor="start" x="460.5" y="-18.5" font-family="Helvetica,sans-Serif" font-size="10.00">com.fs.starfarer.api.impl.campaign.velfield.</text>
<text text-anchor="middle" x="551.5" y="-7.5" font-family="Helvetica,sans-Serif" font-size="10.00">SlipstreamEntityPlugin.SlipstreamParams</text>
</a>
</g>
</g>
<!-- Node9&#45;&gt;Node1 -->
<g id="edge8" class="edge">
<title>Node9&#45;&gt;Node1</title>
<path fill="none" stroke="#9a32cd" stroke-dasharray="5,2" d="M629.29,-32.78C640.6,-35.35 652.11,-37.98 663,-40.5 699.74,-48.98 740.8,-58.65 773.8,-66.47"/>
<polygon fill="#9a32cd" stroke="#9a32cd" points="629.96,-29.34 619.43,-30.54 628.41,-36.17 629.96,-29.34"/>
<text text-anchor="middle" x="701" y="-56.5" font-family="Helvetica,sans-Serif" font-size="10.00"> params</text>
</g>
<!-- Node10 -->
<g id="node10" class="node">
<title>Node10</title>
<g id="a_node10"><a xlink:title=" ">
<polygon fill="none" stroke="#bfbfbf" points="259.5,-6 259.5,-25 298.5,-25 298.5,-6 259.5,-6"/>
<text text-anchor="middle" x="279" y="-13" font-family="Helvetica,sans-Serif" font-size="10.00">Color</text>
</a>
</g>
</g>
<!-- Node10&#45;&gt;Node9 -->
<g id="edge9" class="edge">
<title>Node10&#45;&gt;Node9</title>
<path fill="none" stroke="#9a32cd" stroke-dasharray="5,2" d="M308.75,-15.5C342.81,-15.5 401.36,-15.5 452.31,-15.5"/>
<polygon fill="#9a32cd" stroke="#9a32cd" points="308.59,-12 298.59,-15.5 308.59,-19 308.59,-12"/>
<text text-anchor="middle" x="396" y="-40.5" font-family="Helvetica,sans-Serif" font-size="10.00"> maxColor</text>
<text text-anchor="middle" x="396" y="-29.5" font-family="Helvetica,sans-Serif" font-size="10.00">minColor</text>
<text text-anchor="middle" x="396" y="-18.5" font-family="Helvetica,sans-Serif" font-size="10.00">spriteColor1</text>
</g>
</g>
</svg>
