<?xml version="1.0" encoding="UTF-8" standalone="no"?>
<!DOCTYPE svg PUBLIC "-//W3C//DTD SVG 1.1//EN"
 "http://www.w3.org/Graphics/SVG/1.1/DTD/svg11.dtd">
<!-- Generated by graphviz version 2.44.0 ()
 -->
<!-- Title: com.fs.starfarer.api.impl.campaign.intel.PersonBountyManager Pages: 1 -->
<svg width="637pt" height="176pt"
 viewBox="0.00 0.00 637.00 175.50" xmlns="http://www.w3.org/2000/svg" xmlns:xlink="http://www.w3.org/1999/xlink">
<g id="graph0" class="graph" transform="scale(1 1) rotate(0) translate(4 171.5)">
<title>com.fs.starfarer.api.impl.campaign.intel.PersonBountyManager</title>
<!-- Node1 -->
<g id="node1" class="node">
<title>Node1</title>
<g id="a_node1"><a xlink:title=" ">
<polygon fill="#bfbfbf" stroke="black" points="443,-63 443,-93 629,-93 629,-63 443,-63"/>
<text text-anchor="start" x="451" y="-81" font-family="Helvetica,sans-Serif" font-size="10.00">com.fs.starfarer.api.impl.campaign.intel.</text>
<text text-anchor="middle" x="536" y="-70" font-family="Helvetica,sans-Serif" font-size="10.00">PersonBountyManager</text>
</a>
</g>
</g>
<!-- Node2 -->
<g id="node2" class="node">
<title>Node2</title>
<g id="a_node2"><a xlink:href="classcom_1_1fs_1_1starfarer_1_1api_1_1impl_1_1campaign_1_1intel_1_1BaseEventManager.html" target="_top" xlink:title=" ">
<polygon fill="none" stroke="black" points="220,-63 220,-93 406,-93 406,-63 220,-63"/>
<text text-anchor="start" x="228" y="-81" font-family="Helvetica,sans-Serif" font-size="10.00">com.fs.starfarer.api.impl.campaign.intel.</text>
<text text-anchor="middle" x="313" y="-70" font-family="Helvetica,sans-Serif" font-size="10.00">BaseEventManager</text>
</a>
</g>
</g>
<!-- Node2&#45;&gt;Node1 -->
<g id="edge1" class="edge">
<title>Node2&#45;&gt;Node1</title>
<path fill="none" stroke="midnightblue" d="M416.37,-78C425.15,-78 433.98,-78 442.67,-78"/>
<polygon fill="midnightblue" stroke="midnightblue" points="416.12,-74.5 406.12,-78 416.12,-81.5 416.12,-74.5"/>
</g>
<!-- Node3 -->
<g id="node3" class="node">
<title>Node3</title>
<g id="a_node3"><a xlink:href="interfacecom_1_1fs_1_1starfarer_1_1api_1_1EveryFrameScript.html" target="_top" xlink:title=" ">
<polygon fill="none" stroke="black" points="0.5,-137 0.5,-167 125.5,-167 125.5,-137 0.5,-137"/>
<text text-anchor="start" x="8.5" y="-155" font-family="Helvetica,sans-Serif" font-size="10.00">com.fs.starfarer.api.Every</text>
<text text-anchor="middle" x="63" y="-144" font-family="Helvetica,sans-Serif" font-size="10.00">FrameScript</text>
</a>
</g>
</g>
<!-- Node3&#45;&gt;Node2 -->
<g id="edge2" class="edge">
<title>Node3&#45;&gt;Node2</title>
<path fill="none" stroke="midnightblue" d="M124.33,-134C166.39,-121.45 221.88,-104.89 261.59,-93.04"/>
<polygon fill="midnightblue" stroke="midnightblue" points="123.07,-130.72 114.49,-136.94 125.07,-137.43 123.07,-130.72"/>
</g>
<!-- Node4 -->
<g id="node4" class="node">
<title>Node4</title>
<g id="a_node4"><a xlink:title=" ">
<polygon fill="none" stroke="#bfbfbf" points="0,-88 0,-118 126,-118 126,-88 0,-88"/>
<text text-anchor="start" x="8" y="-106" font-family="Helvetica,sans-Serif" font-size="10.00">List&lt; com.fs.starfarer.api.</text>
<text text-anchor="middle" x="63" y="-95" font-family="Helvetica,sans-Serif" font-size="10.00">EveryFrameScript &gt;</text>
</a>
</g>
</g>
<!-- Node4&#45;&gt;Node2 -->
<g id="edge3" class="edge">
<title>Node4&#45;&gt;Node2</title>
<path fill="none" stroke="#9a32cd" stroke-dasharray="5,2" d="M136.42,-95.7C162.46,-93.07 192.19,-90.08 219.69,-87.31"/>
<polygon fill="#9a32cd" stroke="#9a32cd" points="135.86,-92.24 126.26,-96.72 136.56,-99.2 135.86,-92.24"/>
<text text-anchor="middle" x="173" y="-97" font-family="Helvetica,sans-Serif" font-size="10.00"> active</text>
</g>
<!-- Node5 -->
<g id="node5" class="node">
<title>Node5</title>
<g id="a_node5"><a xlink:href="classcom_1_1fs_1_1starfarer_1_1api_1_1util_1_1IntervalUtil.html" target="_top" xlink:title=" ">
<polygon fill="none" stroke="black" points="5,-39 5,-69 121,-69 121,-39 5,-39"/>
<text text-anchor="start" x="13" y="-57" font-family="Helvetica,sans-Serif" font-size="10.00">com.fs.starfarer.api.util.</text>
<text text-anchor="middle" x="63" y="-46" font-family="Helvetica,sans-Serif" font-size="10.00">IntervalUtil</text>
</a>
</g>
</g>
<!-- Node5&#45;&gt;Node2 -->
<g id="edge4" class="edge">
<title>Node5&#45;&gt;Node2</title>
<path fill="none" stroke="#9a32cd" stroke-dasharray="5,2" d="M131.33,-54.62C153.84,-55.31 179.05,-56.61 202,-59 211.93,-60.03 222.31,-61.42 232.57,-62.97"/>
<polygon fill="#9a32cd" stroke="#9a32cd" points="131.28,-51.12 121.19,-54.35 131.09,-58.12 131.28,-51.12"/>
<text text-anchor="middle" x="173" y="-73" font-family="Helvetica,sans-Serif" font-size="10.00"> tracker</text>
<text text-anchor="middle" x="173" y="-62" font-family="Helvetica,sans-Serif" font-size="10.00">trackerMax</text>
</g>
<!-- Node6 -->
<g id="node6" class="node">
<title>Node6</title>
<g id="a_node6"><a xlink:title=" ">
<polygon fill="none" stroke="#bfbfbf" points="36.5,-0.5 36.5,-19.5 89.5,-19.5 89.5,-0.5 36.5,-0.5"/>
<text text-anchor="middle" x="63" y="-7.5" font-family="Helvetica,sans-Serif" font-size="10.00">Random</text>
</a>
</g>
</g>
<!-- Node6&#45;&gt;Node2 -->
<g id="edge5" class="edge">
<title>Node6&#45;&gt;Node2</title>
<path fill="none" stroke="#9a32cd" stroke-dasharray="5,2" d="M99.78,-16.57C127.81,-22 167.67,-30.38 202,-40 225.54,-46.6 251.4,-55.45 272.13,-62.95"/>
<polygon fill="#9a32cd" stroke="#9a32cd" points="100.14,-13.07 89.66,-14.63 98.82,-19.95 100.14,-13.07"/>
<text text-anchor="middle" x="173" y="-43" font-family="Helvetica,sans-Serif" font-size="10.00"> randomBase</text>
</g>
</g>
</svg>
