<?xml version="1.0" encoding="UTF-8" standalone="no"?>
<!DOCTYPE svg PUBLIC "-//W3C//DTD SVG 1.1//EN"
 "http://www.w3.org/Graphics/SVG/1.1/DTD/svg11.dtd">
<!-- Generated by graphviz version 2.44.0 ()
 -->
<!-- Title: com.fs.starfarer.api.impl.campaign.intel.inspection.HegemonyInspectionManager Pages: 1 -->
<svg width="2686pt" height="570pt"
 viewBox="0.00 0.00 2686.00 569.50" xmlns="http://www.w3.org/2000/svg" xmlns:xlink="http://www.w3.org/1999/xlink">
<g id="graph0" class="graph" transform="scale(1 1) rotate(0) translate(4 565.5)">
<title>com.fs.starfarer.api.impl.campaign.intel.inspection.HegemonyInspectionManager</title>
<!-- Node1 -->
<g id="node1" class="node">
<title>Node1</title>
<g id="a_node1"><a xlink:title=" ">
<polygon fill="#bfbfbf" stroke="black" points="2445,-425 2445,-455 2678,-455 2678,-425 2445,-425"/>
<text text-anchor="start" x="2453" y="-443" font-family="Helvetica,sans-Serif" font-size="10.00">com.fs.starfarer.api.impl.campaign.intel.inspection.</text>
<text text-anchor="middle" x="2561.5" y="-432" font-family="Helvetica,sans-Serif" font-size="10.00">HegemonyInspectionManager</text>
</a>
</g>
</g>
<!-- Node2 -->
<g id="node2" class="node">
<title>Node2</title>
<g id="a_node2"><a xlink:href="interfacecom_1_1fs_1_1starfarer_1_1api_1_1EveryFrameScript.html" target="_top" xlink:title=" ">
<polygon fill="none" stroke="black" points="262.5,-250 262.5,-280 387.5,-280 387.5,-250 262.5,-250"/>
<text text-anchor="start" x="270.5" y="-268" font-family="Helvetica,sans-Serif" font-size="10.00">com.fs.starfarer.api.Every</text>
<text text-anchor="middle" x="325" y="-257" font-family="Helvetica,sans-Serif" font-size="10.00">FrameScript</text>
</a>
</g>
</g>
<!-- Node2&#45;&gt;Node1 -->
<g id="edge1" class="edge">
<title>Node2&#45;&gt;Node1</title>
<path fill="none" stroke="midnightblue" d="M397.83,-254.99C487.78,-242.04 646.43,-217.81 781,-190 1136.98,-116.42 1213,0 1576.5,0 1576.5,0 1576.5,0 2272.5,0 2480.2,0 2546.19,-347.48 2558.31,-424.85"/>
<polygon fill="midnightblue" stroke="midnightblue" points="397.14,-251.56 387.74,-256.44 398.14,-258.49 397.14,-251.56"/>
</g>
<!-- Node7 -->
<g id="node7" class="node">
<title>Node7</title>
<g id="a_node7"><a xlink:href="classcom_1_1fs_1_1starfarer_1_1api_1_1impl_1_1campaign_1_1intel_1_1BaseIntelPlugin.html" target="_top" xlink:title=" ">
<polygon fill="none" stroke="black" points="573.5,-150 573.5,-180 759.5,-180 759.5,-150 573.5,-150"/>
<text text-anchor="start" x="581.5" y="-168" font-family="Helvetica,sans-Serif" font-size="10.00">com.fs.starfarer.api.impl.campaign.intel.</text>
<text text-anchor="middle" x="666.5" y="-157" font-family="Helvetica,sans-Serif" font-size="10.00">BaseIntelPlugin</text>
</a>
</g>
</g>
<!-- Node2&#45;&gt;Node7 -->
<g id="edge9" class="edge">
<title>Node2&#45;&gt;Node7</title>
<path fill="none" stroke="midnightblue" d="M397.72,-255.48C413.36,-252.02 429.55,-247.33 444,-241 453.04,-237.04 453.17,-232.41 462,-228 488.06,-215 559.08,-194.15 609.88,-180.03"/>
<polygon fill="midnightblue" stroke="midnightblue" points="396.63,-252.13 387.55,-257.58 398.05,-258.98 396.63,-252.13"/>
</g>
<!-- Node3 -->
<g id="node3" class="node">
<title>Node3</title>
<g id="a_node3"><a xlink:href="classcom_1_1fs_1_1starfarer_1_1api_1_1util_1_1IntervalUtil.html" target="_top" xlink:title=" ">
<polygon fill="none" stroke="black" points="901,-505 901,-535 1017,-535 1017,-505 901,-505"/>
<text text-anchor="start" x="909" y="-523" font-family="Helvetica,sans-Serif" font-size="10.00">com.fs.starfarer.api.util.</text>
<text text-anchor="middle" x="959" y="-512" font-family="Helvetica,sans-Serif" font-size="10.00">IntervalUtil</text>
</a>
</g>
</g>
<!-- Node3&#45;&gt;Node1 -->
<g id="edge2" class="edge">
<title>Node3&#45;&gt;Node1</title>
<path fill="none" stroke="#9a32cd" stroke-dasharray="5,2" d="M1027.46,-522.12C1088.25,-523.85 1180.1,-526 1260,-526 1260,-526 1260,-526 2272.5,-526 2370.34,-526 2479.36,-479.87 2530.69,-455.18"/>
<polygon fill="#9a32cd" stroke="#9a32cd" points="1027.32,-518.61 1017.23,-521.82 1027.12,-525.61 1027.32,-518.61"/>
<text text-anchor="middle" x="1755.5" y="-529" font-family="Helvetica,sans-Serif" font-size="10.00"> inspectionChecker</text>
</g>
<!-- Node26 -->
<g id="node26" class="node">
<title>Node26</title>
<g id="a_node26"><a xlink:href="classcom_1_1fs_1_1starfarer_1_1api_1_1impl_1_1campaign_1_1intel_1_1raid_1_1BaseRaidStage.html" target="_top" xlink:title=" ">
<polygon fill="none" stroke="black" points="1159,-426 1159,-456 1363,-456 1363,-426 1159,-426"/>
<text text-anchor="start" x="1167" y="-444" font-family="Helvetica,sans-Serif" font-size="10.00">com.fs.starfarer.api.impl.campaign.intel.raid.</text>
<text text-anchor="middle" x="1261" y="-433" font-family="Helvetica,sans-Serif" font-size="10.00">BaseRaidStage</text>
</a>
</g>
</g>
<!-- Node3&#45;&gt;Node26 -->
<g id="edge34" class="edge">
<title>Node3&#45;&gt;Node26</title>
<path fill="none" stroke="#9a32cd" stroke-dasharray="5,2" d="M1027.1,-504.42C1038.43,-501.68 1050.06,-498.81 1061,-496 1110.82,-483.2 1167.31,-467.47 1207.35,-456.11"/>
<polygon fill="#9a32cd" stroke="#9a32cd" points="1026.15,-501.04 1017.24,-506.78 1027.78,-507.85 1026.15,-501.04"/>
<text text-anchor="middle" x="1110" y="-493" font-family="Helvetica,sans-Serif" font-size="10.00"> statusInterval</text>
</g>
<!-- Node4 -->
<g id="node4" class="node">
<title>Node4</title>
<g id="a_node4"><a xlink:title=" ">
<polygon fill="none" stroke="#bfbfbf" points="1918.5,-473.5 1918.5,-492.5 1971.5,-492.5 1971.5,-473.5 1918.5,-473.5"/>
<text text-anchor="middle" x="1945" y="-480.5" font-family="Helvetica,sans-Serif" font-size="10.00">Random</text>
</a>
</g>
</g>
<!-- Node4&#45;&gt;Node1 -->
<g id="edge3" class="edge">
<title>Node4&#45;&gt;Node1</title>
<path fill="none" stroke="#9a32cd" stroke-dasharray="5,2" d="M1981.81,-481.4C2020.2,-479.62 2082.94,-476.52 2137,-473 2241.13,-466.22 2359.53,-456.85 2444.62,-449.83"/>
<polygon fill="#9a32cd" stroke="#9a32cd" points="1981.48,-477.91 1971.65,-481.86 1981.8,-484.9 1981.48,-477.91"/>
<text text-anchor="middle" x="2271.5" y="-474" font-family="Helvetica,sans-Serif" font-size="10.00"> random</text>
</g>
<!-- Node5 -->
<g id="node5" class="node">
<title>Node5</title>
<g id="a_node5"><a xlink:href="classcom_1_1fs_1_1starfarer_1_1api_1_1impl_1_1campaign_1_1intel_1_1inspection_1_1HegemonyInspectionIntel.html" target="_top" xlink:title=" ">
<polygon fill="none" stroke="black" points="2155,-286 2155,-316 2388,-316 2388,-286 2155,-286"/>
<text text-anchor="start" x="2163" y="-304" font-family="Helvetica,sans-Serif" font-size="10.00">com.fs.starfarer.api.impl.campaign.intel.inspection.</text>
<text text-anchor="middle" x="2271.5" y="-293" font-family="Helvetica,sans-Serif" font-size="10.00">HegemonyInspectionIntel</text>
</a>
</g>
</g>
<!-- Node4&#45;&gt;Node5 -->
<g id="edge27" class="edge">
<title>Node4&#45;&gt;Node5</title>
<path fill="none" stroke="#9a32cd" stroke-dasharray="5,2" d="M1981.84,-481.35C2022.18,-478.07 2088.44,-468.26 2137,-439 2191.82,-405.97 2239.5,-344.86 2259.92,-316.37"/>
<polygon fill="#9a32cd" stroke="#9a32cd" points="1981.39,-477.88 1971.67,-482.09 1981.9,-484.86 1981.39,-477.88"/>
<text text-anchor="middle" x="2115" y="-462" font-family="Helvetica,sans-Serif" font-size="10.00"> random</text>
</g>
<!-- Node5&#45;&gt;Node1 -->
<g id="edge4" class="edge">
<title>Node5&#45;&gt;Node1</title>
<path fill="none" stroke="#9a32cd" stroke-dasharray="5,2" d="M2312.82,-320.46C2370.8,-348.44 2476.53,-399.47 2529.1,-424.84"/>
<polygon fill="#9a32cd" stroke="#9a32cd" points="2314.12,-317.2 2303.59,-316.01 2311.08,-323.51 2314.12,-317.2"/>
<text text-anchor="middle" x="2416.5" y="-377" font-family="Helvetica,sans-Serif" font-size="10.00"> intel</text>
</g>
<!-- Node6 -->
<g id="node6" class="node">
<title>Node6</title>
<g id="a_node6"><a xlink:href="classcom_1_1fs_1_1starfarer_1_1api_1_1impl_1_1campaign_1_1intel_1_1raid_1_1RaidIntel.html" target="_top" xlink:title=" ">
<polygon fill="none" stroke="black" points="857,-358 857,-388 1061,-388 1061,-358 857,-358"/>
<text text-anchor="start" x="865" y="-376" font-family="Helvetica,sans-Serif" font-size="10.00">com.fs.starfarer.api.impl.campaign.intel.raid.</text>
<text text-anchor="middle" x="959" y="-365" font-family="Helvetica,sans-Serif" font-size="10.00">RaidIntel</text>
</a>
</g>
</g>
<!-- Node6&#45;&gt;Node5 -->
<g id="edge5" class="edge">
<title>Node6&#45;&gt;Node5</title>
<path fill="none" stroke="midnightblue" d="M1071.32,-384.93C1273.17,-403.87 1712.25,-432.64 2075,-370 2134.76,-359.68 2200.55,-333.05 2238.54,-316.06"/>
<polygon fill="midnightblue" stroke="midnightblue" points="1071.59,-381.44 1061.31,-383.98 1070.93,-388.41 1071.59,-381.44"/>
</g>
<!-- Node6&#45;&gt;Node26 -->
<g id="edge33" class="edge">
<title>Node6&#45;&gt;Node26</title>
<path fill="none" stroke="#9a32cd" stroke-dasharray="5,2" d="M1036.44,-390.31C1068.71,-397.62 1106.69,-406.22 1141,-414 1158.04,-417.86 1176.46,-422.04 1193.6,-425.93"/>
<polygon fill="#9a32cd" stroke="#9a32cd" points="1037.15,-386.88 1026.62,-388.09 1035.6,-393.71 1037.15,-386.88"/>
<text text-anchor="middle" x="1110" y="-417" font-family="Helvetica,sans-Serif" font-size="10.00"> intel</text>
</g>
<!-- Node7&#45;&gt;Node6 -->
<g id="edge6" class="edge">
<title>Node7&#45;&gt;Node6</title>
<path fill="none" stroke="midnightblue" d="M697.35,-186.37C756.26,-228.55 886.15,-321.55 937,-357.96"/>
<polygon fill="midnightblue" stroke="midnightblue" points="699.03,-183.27 688.86,-180.29 694.95,-188.96 699.03,-183.27"/>
</g>
<!-- Node8 -->
<g id="node8" class="node">
<title>Node8</title>
<g id="a_node8"><a xlink:href="interfacecom_1_1fs_1_1starfarer_1_1api_1_1campaign_1_1comm_1_1IntelInfoPlugin.html" target="_top" xlink:title=" ">
<polygon fill="none" stroke="black" points="237.5,-152 237.5,-182 412.5,-182 412.5,-152 237.5,-152"/>
<text text-anchor="start" x="245.5" y="-170" font-family="Helvetica,sans-Serif" font-size="10.00">com.fs.starfarer.api.campaign.comm.</text>
<text text-anchor="middle" x="325" y="-159" font-family="Helvetica,sans-Serif" font-size="10.00">IntelInfoPlugin</text>
</a>
</g>
</g>
<!-- Node8&#45;&gt;Node7 -->
<g id="edge7" class="edge">
<title>Node8&#45;&gt;Node7</title>
<path fill="none" stroke="midnightblue" d="M422.81,-166.43C470.13,-166.15 526.79,-165.82 573.46,-165.54"/>
<polygon fill="midnightblue" stroke="midnightblue" points="422.53,-162.93 412.55,-166.49 422.57,-169.93 422.53,-162.93"/>
</g>
<!-- Node9 -->
<g id="node9" class="node">
<title>Node9</title>
<g id="a_node9"><a xlink:href="interfacecom_1_1fs_1_1starfarer_1_1api_1_1impl_1_1campaign_1_1rulecmd_1_1CallEvent_1_1CallableEvent.html" target="_top" xlink:title=" ">
<polygon fill="none" stroke="black" points="223.5,-103 223.5,-133 426.5,-133 426.5,-103 223.5,-103"/>
<text text-anchor="start" x="231.5" y="-121" font-family="Helvetica,sans-Serif" font-size="10.00">com.fs.starfarer.api.impl.campaign.rulecmd.</text>
<text text-anchor="middle" x="325" y="-110" font-family="Helvetica,sans-Serif" font-size="10.00">CallEvent.CallableEvent</text>
</a>
</g>
</g>
<!-- Node9&#45;&gt;Node7 -->
<g id="edge8" class="edge">
<title>Node9&#45;&gt;Node7</title>
<path fill="none" stroke="midnightblue" d="M436.85,-133.35C481.01,-139.46 531.23,-146.41 573.34,-152.24"/>
<polygon fill="midnightblue" stroke="midnightblue" points="437.33,-129.88 426.94,-131.97 436.37,-136.81 437.33,-129.88"/>
</g>
<!-- Node10 -->
<g id="node10" class="node">
<title>Node10</title>
<g id="a_node10"><a xlink:href="interfacecom_1_1fs_1_1starfarer_1_1api_1_1impl_1_1campaign_1_1CommRelayEntityPlugin_1_1CommSnifferReadableIntel.html" target="_top" xlink:title=" ">
<polygon fill="none" stroke="black" points="206,-54 206,-84 444,-84 444,-54 206,-54"/>
<text text-anchor="start" x="214" y="-72" font-family="Helvetica,sans-Serif" font-size="10.00">com.fs.starfarer.api.impl.campaign.</text>
<text text-anchor="middle" x="325" y="-61" font-family="Helvetica,sans-Serif" font-size="10.00">CommRelayEntityPlugin.CommSnifferReadableIntel</text>
</a>
</g>
</g>
<!-- Node10&#45;&gt;Node7 -->
<g id="edge10" class="edge">
<title>Node10&#45;&gt;Node7</title>
<path fill="none" stroke="midnightblue" d="M412.26,-86.22C422.99,-88.67 433.77,-91.28 444,-94 507.03,-110.73 578.69,-134.61 623,-149.96"/>
<polygon fill="midnightblue" stroke="midnightblue" points="412.96,-82.79 402.44,-84.01 411.43,-89.62 412.96,-82.79"/>
</g>
<!-- Node11 -->
<g id="node11" class="node">
<title>Node11</title>
<g id="a_node11"><a xlink:href="interfacecom_1_1fs_1_1starfarer_1_1api_1_1campaign_1_1SectorEntityToken.html" target="_top" xlink:title=" ">
<polygon fill="none" stroke="black" points="252,-201 252,-231 398,-231 398,-201 252,-201"/>
<text text-anchor="start" x="260" y="-219" font-family="Helvetica,sans-Serif" font-size="10.00">com.fs.starfarer.api.campaign.</text>
<text text-anchor="middle" x="325" y="-208" font-family="Helvetica,sans-Serif" font-size="10.00">SectorEntityToken</text>
</a>
</g>
</g>
<!-- Node11&#45;&gt;Node7 -->
<g id="edge11" class="edge">
<title>Node11&#45;&gt;Node7</title>
<path fill="none" stroke="#9a32cd" stroke-dasharray="5,2" d="M407.91,-199.19C430.08,-194.77 450.97,-190.74 462,-189 498.28,-183.27 538.4,-178.26 573.36,-174.32"/>
<polygon fill="#9a32cd" stroke="#9a32cd" points="407.13,-195.78 398.02,-201.18 408.51,-202.64 407.13,-195.78"/>
<text text-anchor="middle" x="498" y="-192" font-family="Helvetica,sans-Serif" font-size="10.00"> postingLocation</text>
</g>
<!-- Node12 -->
<g id="node12" class="node">
<title>Node12</title>
<g id="a_node12"><a xlink:href="interfacecom_1_1fs_1_1starfarer_1_1api_1_1campaign_1_1rules_1_1HasMemory.html" target="_top" xlink:title=" ">
<polygon fill="none" stroke="black" points="0,-201 0,-231 169,-231 169,-201 0,-201"/>
<text text-anchor="start" x="8" y="-219" font-family="Helvetica,sans-Serif" font-size="10.00">com.fs.starfarer.api.campaign.rules.</text>
<text text-anchor="middle" x="84.5" y="-208" font-family="Helvetica,sans-Serif" font-size="10.00">HasMemory</text>
</a>
</g>
</g>
<!-- Node12&#45;&gt;Node11 -->
<g id="edge12" class="edge">
<title>Node12&#45;&gt;Node11</title>
<path fill="none" stroke="midnightblue" d="M179.48,-216C203.58,-216 229.13,-216 251.94,-216"/>
<polygon fill="midnightblue" stroke="midnightblue" points="179.25,-212.5 169.25,-216 179.25,-219.5 179.25,-212.5"/>
</g>
<!-- Node15 -->
<g id="node15" class="node">
<title>Node15</title>
<g id="a_node15"><a xlink:href="interfacecom_1_1fs_1_1starfarer_1_1api_1_1campaign_1_1FactionAPI.html" target="_top" xlink:title=" ">
<polygon fill="none" stroke="black" points="593.5,-294 593.5,-324 739.5,-324 739.5,-294 593.5,-294"/>
<text text-anchor="start" x="601.5" y="-312" font-family="Helvetica,sans-Serif" font-size="10.00">com.fs.starfarer.api.campaign.</text>
<text text-anchor="middle" x="666.5" y="-301" font-family="Helvetica,sans-Serif" font-size="10.00">FactionAPI</text>
</a>
</g>
</g>
<!-- Node12&#45;&gt;Node15 -->
<g id="edge16" class="edge">
<title>Node12&#45;&gt;Node15</title>
<path fill="none" stroke="midnightblue" d="M111.2,-237.22C134.38,-254.97 170.24,-279.09 206,-290 337.93,-330.24 501.04,-324.82 593.18,-317.04"/>
<polygon fill="midnightblue" stroke="midnightblue" points="113.28,-234.41 103.25,-231.01 108.97,-239.93 113.28,-234.41"/>
</g>
<!-- Node22 -->
<g id="node22" class="node">
<title>Node22</title>
<g id="a_node22"><a xlink:href="interfacecom_1_1fs_1_1starfarer_1_1api_1_1campaign_1_1econ_1_1MarketAPI.html" target="_top" xlink:title=" ">
<polygon fill="none" stroke="black" points="1493,-31 1493,-61 1662,-61 1662,-31 1493,-31"/>
<text text-anchor="start" x="1501" y="-49" font-family="Helvetica,sans-Serif" font-size="10.00">com.fs.starfarer.api.campaign.econ.</text>
<text text-anchor="middle" x="1577.5" y="-38" font-family="Helvetica,sans-Serif" font-size="10.00">MarketAPI</text>
</a>
</g>
</g>
<!-- Node12&#45;&gt;Node22 -->
<g id="edge26" class="edge">
<title>Node12&#45;&gt;Node22</title>
<path fill="none" stroke="midnightblue" d="M95.11,-191.61C111.56,-153.3 148.99,-79.72 206,-44 251.02,-15.8 270.88,-25 324,-25 324,-25 324,-25 1262,-25 1340.39,-25 1429.53,-31.58 1492.84,-37.37"/>
<polygon fill="midnightblue" stroke="midnightblue" points="91.81,-190.4 91.2,-200.98 98.28,-193.1 91.81,-190.4"/>
</g>
<!-- Node13 -->
<g id="node13" class="node">
<title>Node13</title>
<g id="a_node13"><a xlink:href="interfacecom_1_1fs_1_1starfarer_1_1api_1_1impl_1_1campaign_1_1fleets_1_1RouteManager_1_1RouteFleetSpawner.html" target="_top" xlink:title=" ">
<polygon fill="none" stroke="black" points="571,-415 571,-445 762,-445 762,-415 571,-415"/>
<text text-anchor="start" x="579" y="-433" font-family="Helvetica,sans-Serif" font-size="10.00">com.fs.starfarer.api.impl.campaign.fleets.</text>
<text text-anchor="middle" x="666.5" y="-422" font-family="Helvetica,sans-Serif" font-size="10.00">RouteManager.RouteFleetSpawner</text>
</a>
</g>
</g>
<!-- Node13&#45;&gt;Node6 -->
<g id="edge13" class="edge">
<title>Node13&#45;&gt;Node6</title>
<path fill="none" stroke="midnightblue" d="M754.05,-413.02C794.5,-405.08 842.25,-395.71 881.37,-388.04"/>
<polygon fill="midnightblue" stroke="midnightblue" points="753.34,-409.59 744.21,-414.95 754.69,-416.46 753.34,-409.59"/>
</g>
<!-- Node14 -->
<g id="node14" class="node">
<title>Node14</title>
<g id="a_node14"><a xlink:href="interfacecom_1_1fs_1_1starfarer_1_1api_1_1impl_1_1campaign_1_1intel_1_1raid_1_1RaidIntel_1_1RaidDelegate.html" target="_top" xlink:title=" ">
<polygon fill="none" stroke="black" points="564.5,-531 564.5,-561 768.5,-561 768.5,-531 564.5,-531"/>
<text text-anchor="start" x="572.5" y="-549" font-family="Helvetica,sans-Serif" font-size="10.00">com.fs.starfarer.api.impl.campaign.intel.raid.</text>
<text text-anchor="middle" x="666.5" y="-538" font-family="Helvetica,sans-Serif" font-size="10.00">RaidIntel.RaidDelegate</text>
</a>
</g>
</g>
<!-- Node14&#45;&gt;Node5 -->
<g id="edge20" class="edge">
<title>Node14&#45;&gt;Node5</title>
<path fill="none" stroke="midnightblue" d="M779.16,-549.54C858,-551.11 966.08,-551.37 1061,-545 1515.36,-514.5 1635.76,-518.16 2075,-398 2141.51,-379.8 2212.27,-338.45 2247.61,-316.07"/>
<polygon fill="midnightblue" stroke="midnightblue" points="778.79,-546.03 768.72,-549.32 778.64,-553.03 778.79,-546.03"/>
</g>
<!-- Node14&#45;&gt;Node6 -->
<g id="edge14" class="edge">
<title>Node14&#45;&gt;Node6</title>
<path fill="none" stroke="#9a32cd" stroke-dasharray="5,2" d="M727.45,-527.54C745.17,-521.11 764.29,-513.17 781,-504 809.37,-488.44 820.67,-486.66 839,-460 855.25,-436.35 836.31,-417.88 857,-398 860.91,-394.25 865.29,-391.03 869.97,-388.27"/>
<polygon fill="#9a32cd" stroke="#9a32cd" points="726.04,-524.33 717.78,-530.96 728.37,-530.93 726.04,-524.33"/>
<text text-anchor="middle" x="819" y="-496" font-family="Helvetica,sans-Serif" font-size="10.00"> delegate</text>
</g>
<!-- Node15&#45;&gt;Node5 -->
<g id="edge23" class="edge">
<title>Node15&#45;&gt;Node5</title>
<path fill="none" stroke="#9a32cd" stroke-dasharray="5,2" d="M749.94,-305.52C808.09,-303.36 887.8,-301 958,-301 958,-301 958,-301 1946,-301 2015.29,-301 2092.91,-301 2154.86,-301"/>
<polygon fill="#9a32cd" stroke="#9a32cd" points="749.57,-302.03 739.71,-305.91 749.84,-309.03 749.57,-302.03"/>
<text text-anchor="middle" x="1411" y="-304" font-family="Helvetica,sans-Serif" font-size="10.00"> targetFaction</text>
</g>
<!-- Node15&#45;&gt;Node6 -->
<g id="edge15" class="edge">
<title>Node15&#45;&gt;Node6</title>
<path fill="none" stroke="#9a32cd" stroke-dasharray="5,2" d="M745.62,-326.21C790.61,-336.12 846.61,-348.46 889.81,-357.98"/>
<polygon fill="#9a32cd" stroke="#9a32cd" points="746.13,-322.74 735.61,-324.01 744.62,-329.57 746.13,-322.74"/>
<text text-anchor="middle" x="819" y="-349" font-family="Helvetica,sans-Serif" font-size="10.00"> faction</text>
</g>
<!-- Node16 -->
<g id="node16" class="node">
<title>Node16</title>
<g id="a_node16"><a xlink:href="interfacecom_1_1fs_1_1starfarer_1_1api_1_1campaign_1_1StarSystemAPI.html" target="_top" xlink:title=" ">
<polygon fill="none" stroke="black" points="593.5,-464 593.5,-494 739.5,-494 739.5,-464 593.5,-464"/>
<text text-anchor="start" x="601.5" y="-482" font-family="Helvetica,sans-Serif" font-size="10.00">com.fs.starfarer.api.campaign.</text>
<text text-anchor="middle" x="666.5" y="-471" font-family="Helvetica,sans-Serif" font-size="10.00">StarSystemAPI</text>
</a>
</g>
</g>
<!-- Node16&#45;&gt;Node6 -->
<g id="edge17" class="edge">
<title>Node16&#45;&gt;Node6</title>
<path fill="none" stroke="#9a32cd" stroke-dasharray="5,2" d="M749.66,-465.92C760.42,-462.97 771.13,-459.38 781,-455 810.09,-442.09 813.87,-432.53 839,-413 847.22,-406.61 847.71,-402.7 857,-398 864.66,-394.12 872.95,-390.83 881.37,-388.02"/>
<polygon fill="#9a32cd" stroke="#9a32cd" points="748.59,-462.58 739.77,-468.46 750.33,-469.36 748.59,-462.58"/>
<text text-anchor="middle" x="819" y="-448" font-family="Helvetica,sans-Serif" font-size="10.00"> system</text>
</g>
<!-- Node17 -->
<g id="node17" class="node">
<title>Node17</title>
<g id="a_node17"><a xlink:href="interfacecom_1_1fs_1_1starfarer_1_1api_1_1campaign_1_1LocationAPI.html" target="_top" xlink:title=" ">
<polygon fill="none" stroke="black" points="252,-464 252,-494 398,-494 398,-464 252,-464"/>
<text text-anchor="start" x="260" y="-482" font-family="Helvetica,sans-Serif" font-size="10.00">com.fs.starfarer.api.campaign.</text>
<text text-anchor="middle" x="325" y="-471" font-family="Helvetica,sans-Serif" font-size="10.00">LocationAPI</text>
</a>
</g>
</g>
<!-- Node17&#45;&gt;Node16 -->
<g id="edge18" class="edge">
<title>Node17&#45;&gt;Node16</title>
<path fill="none" stroke="midnightblue" d="M408.75,-479C465.27,-479 539.41,-479 593.49,-479"/>
<polygon fill="midnightblue" stroke="midnightblue" points="408.41,-475.5 398.41,-479 408.41,-482.5 408.41,-475.5"/>
</g>
<!-- Node18 -->
<g id="node18" class="node">
<title>Node18</title>
<g id="a_node18"><a xlink:title=" ">
<polygon fill="none" stroke="#bfbfbf" points="552,-366 552,-396 781,-396 781,-366 552,-366"/>
<text text-anchor="start" x="560" y="-384" font-family="Helvetica,sans-Serif" font-size="10.00">List&lt; com.fs.starfarer.api.impl.campaign.intel.raid.</text>
<text text-anchor="middle" x="666.5" y="-373" font-family="Helvetica,sans-Serif" font-size="10.00">RaidIntel.RaidStage &gt;</text>
</a>
</g>
</g>
<!-- Node18&#45;&gt;Node6 -->
<g id="edge19" class="edge">
<title>Node18&#45;&gt;Node6</title>
<path fill="none" stroke="#9a32cd" stroke-dasharray="5,2" d="M791.08,-377.6C813,-376.99 835.59,-376.37 856.8,-375.79"/>
<polygon fill="#9a32cd" stroke="#9a32cd" points="790.96,-374.1 781.06,-377.87 791.16,-381.1 790.96,-374.1"/>
<text text-anchor="middle" x="819" y="-380" font-family="Helvetica,sans-Serif" font-size="10.00"> stages</text>
</g>
<!-- Node19 -->
<g id="node19" class="node">
<title>Node19</title>
<g id="a_node19"><a xlink:href="enumcom_1_1fs_1_1starfarer_1_1api_1_1impl_1_1campaign_1_1intel_1_1inspection_1_1HegemonyInspecti2c90f9ea07def774c537c9e4ffd33c18.html" target="_top" xlink:title=" ">
<polygon fill="none" stroke="black" points="1815,-330 1815,-360 2075,-360 2075,-330 1815,-330"/>
<text text-anchor="start" x="1823" y="-348" font-family="Helvetica,sans-Serif" font-size="10.00">com.fs.starfarer.api.impl.campaign.intel.inspection.</text>
<text text-anchor="middle" x="1945" y="-337" font-family="Helvetica,sans-Serif" font-size="10.00">HegemonyInspectionIntel.HegemonyInspectionOutcome</text>
</a>
</g>
</g>
<!-- Node19&#45;&gt;Node5 -->
<g id="edge21" class="edge">
<title>Node19&#45;&gt;Node5</title>
<path fill="none" stroke="#9a32cd" stroke-dasharray="5,2" d="M2066.99,-328.6C2097.37,-324.48 2129.82,-320.08 2159.68,-316.03"/>
<polygon fill="#9a32cd" stroke="#9a32cd" points="2066.21,-325.17 2056.77,-329.98 2067.15,-332.11 2066.21,-325.17"/>
<text text-anchor="middle" x="2115" y="-327" font-family="Helvetica,sans-Serif" font-size="10.00"> outcome</text>
</g>
<!-- Node20 -->
<g id="node20" class="node">
<title>Node20</title>
<g id="a_node20"><a xlink:title=" ">
<polygon fill="none" stroke="#bfbfbf" points="1540,-123.5 1540,-142.5 1615,-142.5 1615,-123.5 1540,-123.5"/>
<text text-anchor="middle" x="1577.5" y="-130.5" font-family="Helvetica,sans-Serif" font-size="10.00">List&lt; String &gt;</text>
</a>
</g>
</g>
<!-- Node20&#45;&gt;Node5 -->
<g id="edge22" class="edge">
<title>Node20&#45;&gt;Node5</title>
<path fill="none" stroke="#9a32cd" stroke-dasharray="5,2" d="M1619.11,-120.69C1706.35,-96.51 1916.56,-50.42 2075,-114 2164.36,-149.86 2235.97,-248.2 2260.95,-285.96"/>
<polygon fill="#9a32cd" stroke="#9a32cd" points="1618.01,-117.36 1609.34,-123.45 1619.92,-124.1 1618.01,-117.36"/>
<text text-anchor="middle" x="1945" y="-117" font-family="Helvetica,sans-Serif" font-size="10.00"> expectedCores</text>
</g>
<!-- Node24 -->
<g id="node24" class="node">
<title>Node24</title>
<g id="a_node24"><a xlink:href="classcom_1_1fs_1_1starfarer_1_1api_1_1impl_1_1campaign_1_1intel_1_1inspection_1_1HIActionStage.html" target="_top" xlink:title=" ">
<polygon fill="none" stroke="black" points="1828.5,-134 1828.5,-164 2061.5,-164 2061.5,-134 1828.5,-134"/>
<text text-anchor="start" x="1836.5" y="-152" font-family="Helvetica,sans-Serif" font-size="10.00">com.fs.starfarer.api.impl.campaign.intel.inspection.</text>
<text text-anchor="middle" x="1945" y="-141" font-family="Helvetica,sans-Serif" font-size="10.00">HIActionStage</text>
</a>
</g>
</g>
<!-- Node20&#45;&gt;Node24 -->
<g id="edge37" class="edge">
<title>Node20&#45;&gt;Node24</title>
<path fill="none" stroke="#9a32cd" stroke-dasharray="5,2" d="M1625.19,-139.88C1651.25,-143.38 1684.36,-147.26 1714,-149 1751.17,-151.19 1791.78,-151.78 1828.39,-151.65"/>
<polygon fill="#9a32cd" stroke="#9a32cd" points="1625.59,-136.41 1615.2,-138.52 1624.64,-143.34 1625.59,-136.41"/>
<text text-anchor="middle" x="1755.5" y="-154" font-family="Helvetica,sans-Serif" font-size="10.00"> coresRemoved</text>
</g>
<!-- Node21 -->
<g id="node21" class="node">
<title>Node21</title>
<g id="a_node21"><a xlink:href="classcom_1_1fs_1_1starfarer_1_1api_1_1campaign_1_1ReputationActionResponsePlugin_1_1ReputationAdjustmentResult.html" target="_top" xlink:title=" ">
<polygon fill="none" stroke="black" points="1840,-182.5 1840,-223.5 2050,-223.5 2050,-182.5 1840,-182.5"/>
<text text-anchor="start" x="1848" y="-211.5" font-family="Helvetica,sans-Serif" font-size="10.00">com.fs.starfarer.api.campaign.</text>
<text text-anchor="start" x="1848" y="-200.5" font-family="Helvetica,sans-Serif" font-size="10.00">ReputationActionResponsePlugin.Reputation</text>
<text text-anchor="middle" x="1945" y="-189.5" font-family="Helvetica,sans-Serif" font-size="10.00">AdjustmentResult</text>
</a>
</g>
</g>
<!-- Node21&#45;&gt;Node5 -->
<g id="edge24" class="edge">
<title>Node21&#45;&gt;Node5</title>
<path fill="none" stroke="#9a32cd" stroke-dasharray="5,2" d="M2049.46,-226.04C2058.13,-228.28 2066.74,-230.61 2075,-233 2129.89,-248.88 2192.01,-271.26 2231.21,-285.95"/>
<polygon fill="#9a32cd" stroke="#9a32cd" points="2050.22,-222.62 2039.66,-223.55 2048.49,-229.4 2050.22,-222.62"/>
<text text-anchor="middle" x="2115" y="-254" font-family="Helvetica,sans-Serif" font-size="10.00"> repResult</text>
</g>
<!-- Node22&#45;&gt;Node5 -->
<g id="edge25" class="edge">
<title>Node22&#45;&gt;Node5</title>
<path fill="none" stroke="#9a32cd" stroke-dasharray="5,2" d="M1672.36,-39.37C1795.77,-32.06 2005.13,-24.98 2075,-55 2181.26,-100.65 2245.6,-239.4 2264.58,-285.74"/>
<polygon fill="#9a32cd" stroke="#9a32cd" points="1671.93,-35.89 1662.16,-39.98 1672.35,-42.87 1671.93,-35.89"/>
<text text-anchor="middle" x="1945" y="-69" font-family="Helvetica,sans-Serif" font-size="10.00"> from</text>
<text text-anchor="middle" x="1945" y="-58" font-family="Helvetica,sans-Serif" font-size="10.00">target</text>
</g>
<!-- Node22&#45;&gt;Node24 -->
<g id="edge39" class="edge">
<title>Node22&#45;&gt;Node24</title>
<path fill="none" stroke="#9a32cd" stroke-dasharray="5,2" d="M1633.52,-64.2C1681.25,-79.69 1752.32,-102.06 1815,-119 1834.42,-124.25 1855.64,-129.41 1875.15,-133.94"/>
<polygon fill="#9a32cd" stroke="#9a32cd" points="1634.59,-60.86 1624,-61.1 1632.43,-67.52 1634.59,-60.86"/>
<text text-anchor="middle" x="1755.5" y="-116" font-family="Helvetica,sans-Serif" font-size="10.00"> target</text>
</g>
<!-- Node23 -->
<g id="node23" class="node">
<title>Node23</title>
<g id="a_node23"><a xlink:href="enumcom_1_1fs_1_1starfarer_1_1api_1_1impl_1_1campaign_1_1intel_1_1inspection_1_1HegemonyInspectionIntel_1_1AntiInspectionOrders.html" target="_top" xlink:title=" ">
<polygon fill="none" stroke="black" points="1828.5,-242 1828.5,-272 2061.5,-272 2061.5,-242 1828.5,-242"/>
<text text-anchor="start" x="1836.5" y="-260" font-family="Helvetica,sans-Serif" font-size="10.00">com.fs.starfarer.api.impl.campaign.intel.inspection.</text>
<text text-anchor="middle" x="1945" y="-249" font-family="Helvetica,sans-Serif" font-size="10.00">HegemonyInspectionIntel.AntiInspectionOrders</text>
</a>
</g>
</g>
<!-- Node23&#45;&gt;Node5 -->
<g id="edge28" class="edge">
<title>Node23&#45;&gt;Node5</title>
<path fill="none" stroke="#9a32cd" stroke-dasharray="5,2" d="M2071.58,-267.94C2093.43,-270.28 2115.9,-272.98 2137,-276 2156.37,-278.77 2177.22,-282.38 2196.54,-285.98"/>
<polygon fill="#9a32cd" stroke="#9a32cd" points="2071.9,-264.45 2061.59,-266.88 2071.17,-271.41 2071.9,-264.45"/>
<text text-anchor="middle" x="2115" y="-279" font-family="Helvetica,sans-Serif" font-size="10.00"> orders</text>
</g>
<!-- Node24&#45;&gt;Node5 -->
<g id="edge29" class="edge">
<title>Node24&#45;&gt;Node5</title>
<path fill="none" stroke="#9a32cd" stroke-dasharray="5,2" d="M2058.01,-166.97C2063.82,-168.8 2069.52,-170.8 2075,-173 2146.72,-201.8 2219.96,-258.62 2252.74,-285.81"/>
<polygon fill="#9a32cd" stroke="#9a32cd" points="2058.72,-163.54 2048.13,-164.08 2056.75,-170.25 2058.72,-163.54"/>
<text text-anchor="middle" x="2115" y="-204" font-family="Helvetica,sans-Serif" font-size="10.00"> action</text>
</g>
<!-- Node25 -->
<g id="node25" class="node">
<title>Node25</title>
<g id="a_node25"><a xlink:href="classcom_1_1fs_1_1starfarer_1_1api_1_1impl_1_1campaign_1_1intel_1_1raid_1_1ActionStage.html" target="_top" xlink:title=" ">
<polygon fill="none" stroke="black" points="1475.5,-421 1475.5,-451 1679.5,-451 1679.5,-421 1475.5,-421"/>
<text text-anchor="start" x="1483.5" y="-439" font-family="Helvetica,sans-Serif" font-size="10.00">com.fs.starfarer.api.impl.campaign.intel.raid.</text>
<text text-anchor="middle" x="1577.5" y="-428" font-family="Helvetica,sans-Serif" font-size="10.00">ActionStage</text>
</a>
</g>
</g>
<!-- Node25&#45;&gt;Node24 -->
<g id="edge30" class="edge">
<title>Node25&#45;&gt;Node24</title>
<path fill="none" stroke="midnightblue" d="M1608.21,-414.75C1654.72,-380.05 1744.79,-306.81 1797,-225 1810.16,-204.38 1796.47,-188.96 1815,-173 1819.14,-169.43 1823.64,-166.32 1828.4,-163.62"/>
<polygon fill="midnightblue" stroke="midnightblue" points="1606.01,-412.02 1600.05,-420.78 1610.17,-417.65 1606.01,-412.02"/>
</g>
<!-- Node26&#45;&gt;Node25 -->
<g id="edge31" class="edge">
<title>Node26&#45;&gt;Node25</title>
<path fill="none" stroke="midnightblue" d="M1373.45,-439.23C1406.69,-438.7 1442.92,-438.12 1475.45,-437.61"/>
<polygon fill="midnightblue" stroke="midnightblue" points="1373.18,-435.73 1363.24,-439.39 1373.3,-442.73 1373.18,-435.73"/>
</g>
<!-- Node27 -->
<g id="node27" class="node">
<title>Node27</title>
<g id="a_node27"><a xlink:href="interfacecom_1_1fs_1_1starfarer_1_1api_1_1impl_1_1campaign_1_1intel_1_1raid_1_1RaidIntel_1_1RaidStage.html" target="_top" xlink:title=" ">
<polygon fill="none" stroke="black" points="857,-456 857,-486 1061,-486 1061,-456 857,-456"/>
<text text-anchor="start" x="865" y="-474" font-family="Helvetica,sans-Serif" font-size="10.00">com.fs.starfarer.api.impl.campaign.intel.raid.</text>
<text text-anchor="middle" x="959" y="-463" font-family="Helvetica,sans-Serif" font-size="10.00">RaidIntel.RaidStage</text>
</a>
</g>
</g>
<!-- Node27&#45;&gt;Node26 -->
<g id="edge32" class="edge">
<title>Node27&#45;&gt;Node26</title>
<path fill="none" stroke="midnightblue" d="M1071.21,-459.88C1099.9,-457.01 1130.63,-453.94 1158.78,-451.12"/>
<polygon fill="midnightblue" stroke="midnightblue" points="1070.75,-456.41 1061.15,-460.89 1071.45,-463.37 1070.75,-456.41"/>
</g>
<!-- Node28 -->
<g id="node28" class="node">
<title>Node28</title>
<g id="a_node28"><a xlink:href="enumcom_1_1fs_1_1starfarer_1_1api_1_1impl_1_1campaign_1_1intel_1_1raid_1_1RaidIntel_1_1RaidStageStatus.html" target="_top" xlink:title=" ">
<polygon fill="none" stroke="black" points="857,-407 857,-437 1061,-437 1061,-407 857,-407"/>
<text text-anchor="start" x="865" y="-425" font-family="Helvetica,sans-Serif" font-size="10.00">com.fs.starfarer.api.impl.campaign.intel.raid.</text>
<text text-anchor="middle" x="959" y="-414" font-family="Helvetica,sans-Serif" font-size="10.00">RaidIntel.RaidStageStatus</text>
</a>
</g>
</g>
<!-- Node28&#45;&gt;Node26 -->
<g id="edge35" class="edge">
<title>Node28&#45;&gt;Node26</title>
<path fill="none" stroke="#9a32cd" stroke-dasharray="5,2" d="M1071.21,-429.04C1099.9,-430.86 1130.63,-432.81 1158.78,-434.59"/>
<polygon fill="#9a32cd" stroke="#9a32cd" points="1071.35,-425.55 1061.15,-428.41 1070.91,-432.53 1071.35,-425.55"/>
<text text-anchor="middle" x="1110" y="-436" font-family="Helvetica,sans-Serif" font-size="10.00"> status</text>
</g>
<!-- Node29 -->
<g id="node29" class="node">
<title>Node29</title>
<g id="a_node29"><a xlink:href="interfacecom_1_1fs_1_1starfarer_1_1api_1_1impl_1_1campaign_1_1procgen_1_1themes_1_1BaseAssignmentAI_1_1FleetActionDelegate.html" target="_top" xlink:title=" ">
<polygon fill="none" stroke="black" points="1459,-239 1459,-269 1696,-269 1696,-239 1459,-239"/>
<text text-anchor="start" x="1467" y="-257" font-family="Helvetica,sans-Serif" font-size="10.00">com.fs.starfarer.api.impl.campaign.procgen.themes.</text>
<text text-anchor="middle" x="1577.5" y="-246" font-family="Helvetica,sans-Serif" font-size="10.00">BaseAssignmentAI.FleetActionDelegate</text>
</a>
</g>
</g>
<!-- Node29&#45;&gt;Node24 -->
<g id="edge36" class="edge">
<title>Node29&#45;&gt;Node24</title>
<path fill="none" stroke="midnightblue" d="M1667.73,-236.8C1677.31,-234.65 1686.88,-232.37 1696,-230 1741.58,-218.16 1758.86,-225.62 1797,-198 1808.09,-189.97 1803.44,-180.33 1815,-173 1820.39,-169.58 1826.14,-166.63 1832.11,-164.07"/>
<polygon fill="midnightblue" stroke="midnightblue" points="1666.78,-233.43 1657.77,-239 1668.29,-240.27 1666.78,-233.43"/>
</g>
<!-- Node30 -->
<g id="node30" class="node">
<title>Node30</title>
<g id="a_node30"><a xlink:title=" ">
<polygon fill="none" stroke="#bfbfbf" points="1482,-190 1482,-220 1673,-220 1673,-190 1482,-190"/>
<text text-anchor="start" x="1490" y="-208" font-family="Helvetica,sans-Serif" font-size="10.00">List&lt; com.fs.starfarer.api.impl.campaign.</text>
<text text-anchor="middle" x="1577.5" y="-197" font-family="Helvetica,sans-Serif" font-size="10.00">MilitaryResponseScript &gt;</text>
</a>
</g>
</g>
<!-- Node30&#45;&gt;Node24 -->
<g id="edge38" class="edge">
<title>Node30&#45;&gt;Node24</title>
<path fill="none" stroke="#9a32cd" stroke-dasharray="5,2" d="M1683.2,-188.96C1734.41,-181.11 1795.69,-171.72 1845.97,-164.02"/>
<polygon fill="#9a32cd" stroke="#9a32cd" points="1682.46,-185.53 1673.1,-190.51 1683.52,-192.45 1682.46,-185.53"/>
<text text-anchor="middle" x="1755.5" y="-186" font-family="Helvetica,sans-Serif" font-size="10.00"> scripts</text>
</g>
</g>
</svg>
