<?xml version="1.0" encoding="UTF-8" standalone="no"?>
<!DOCTYPE svg PUBLIC "-//W3C//DTD SVG 1.1//EN"
 "http://www.w3.org/Graphics/SVG/1.1/DTD/svg11.dtd">
<!-- Generated by graphviz version 2.44.0 ()
 -->
<!-- Title: com.fs.starfarer.api.impl.campaign.intel.inspection.HIOrganizeStage Pages: 1 -->
<svg width="1979pt" height="418pt"
 viewBox="0.00 0.00 1979.00 418.00" xmlns="http://www.w3.org/2000/svg" xmlns:xlink="http://www.w3.org/1999/xlink">
<g id="graph0" class="graph" transform="scale(1 1) rotate(0) translate(4 414)">
<title>com.fs.starfarer.api.impl.campaign.intel.inspection.HIOrganizeStage</title>
<!-- Node1 -->
<g id="node1" class="node">
<title>Node1</title>
<g id="a_node1"><a xlink:title=" ">
<polygon fill="#bfbfbf" stroke="black" points="1738,-180.5 1738,-210.5 1971,-210.5 1971,-180.5 1738,-180.5"/>
<text text-anchor="start" x="1746" y="-198.5" font-family="Helvetica,sans-Serif" font-size="10.00">com.fs.starfarer.api.impl.campaign.intel.inspection.</text>
<text text-anchor="middle" x="1854.5" y="-187.5" font-family="Helvetica,sans-Serif" font-size="10.00">HIOrganizeStage</text>
</a>
</g>
</g>
<!-- Node2 -->
<g id="node2" class="node">
<title>Node2</title>
<g id="a_node2"><a xlink:href="classcom_1_1fs_1_1starfarer_1_1api_1_1impl_1_1campaign_1_1intel_1_1raid_1_1OrganizeStage.html" target="_top" xlink:title=" ">
<polygon fill="none" stroke="black" points="1497,-180.5 1497,-210.5 1701,-210.5 1701,-180.5 1497,-180.5"/>
<text text-anchor="start" x="1505" y="-198.5" font-family="Helvetica,sans-Serif" font-size="10.00">com.fs.starfarer.api.impl.campaign.intel.raid.</text>
<text text-anchor="middle" x="1599" y="-187.5" font-family="Helvetica,sans-Serif" font-size="10.00">OrganizeStage</text>
</a>
</g>
</g>
<!-- Node2&#45;&gt;Node1 -->
<g id="edge1" class="edge">
<title>Node2&#45;&gt;Node1</title>
<path fill="none" stroke="midnightblue" d="M1711.47,-195.5C1720.2,-195.5 1729.02,-195.5 1737.78,-195.5"/>
<polygon fill="midnightblue" stroke="midnightblue" points="1711.28,-192 1701.28,-195.5 1711.28,-199 1711.28,-192"/>
</g>
<!-- Node3 -->
<g id="node3" class="node">
<title>Node3</title>
<g id="a_node3"><a xlink:href="classcom_1_1fs_1_1starfarer_1_1api_1_1impl_1_1campaign_1_1intel_1_1raid_1_1BaseRaidStage.html" target="_top" xlink:title=" ">
<polygon fill="none" stroke="black" points="1256,-180.5 1256,-210.5 1460,-210.5 1460,-180.5 1256,-180.5"/>
<text text-anchor="start" x="1264" y="-198.5" font-family="Helvetica,sans-Serif" font-size="10.00">com.fs.starfarer.api.impl.campaign.intel.raid.</text>
<text text-anchor="middle" x="1358" y="-187.5" font-family="Helvetica,sans-Serif" font-size="10.00">BaseRaidStage</text>
</a>
</g>
</g>
<!-- Node3&#45;&gt;Node2 -->
<g id="edge2" class="edge">
<title>Node3&#45;&gt;Node2</title>
<path fill="none" stroke="midnightblue" d="M1470.09,-195.5C1479.05,-195.5 1488.08,-195.5 1496.97,-195.5"/>
<polygon fill="midnightblue" stroke="midnightblue" points="1470.01,-192 1460.01,-195.5 1470.01,-199 1470.01,-192"/>
</g>
<!-- Node4 -->
<g id="node4" class="node">
<title>Node4</title>
<g id="a_node4"><a xlink:href="interfacecom_1_1fs_1_1starfarer_1_1api_1_1impl_1_1campaign_1_1intel_1_1raid_1_1RaidIntel_1_1RaidStage.html" target="_top" xlink:title=" ">
<polygon fill="none" stroke="black" points="954,-246.5 954,-276.5 1158,-276.5 1158,-246.5 954,-246.5"/>
<text text-anchor="start" x="962" y="-264.5" font-family="Helvetica,sans-Serif" font-size="10.00">com.fs.starfarer.api.impl.campaign.intel.raid.</text>
<text text-anchor="middle" x="1056" y="-253.5" font-family="Helvetica,sans-Serif" font-size="10.00">RaidIntel.RaidStage</text>
</a>
</g>
</g>
<!-- Node4&#45;&gt;Node3 -->
<g id="edge3" class="edge">
<title>Node4&#45;&gt;Node3</title>
<path fill="none" stroke="midnightblue" d="M1135.39,-244.25C1182.92,-233.8 1242.98,-220.58 1288.58,-210.55"/>
<polygon fill="midnightblue" stroke="midnightblue" points="1134.46,-240.87 1125.45,-246.44 1135.97,-247.71 1134.46,-240.87"/>
</g>
<!-- Node5 -->
<g id="node5" class="node">
<title>Node5</title>
<g id="a_node5"><a xlink:href="classcom_1_1fs_1_1starfarer_1_1api_1_1impl_1_1campaign_1_1intel_1_1raid_1_1RaidIntel.html" target="_top" xlink:title=" ">
<polygon fill="none" stroke="black" points="954,-147.5 954,-177.5 1158,-177.5 1158,-147.5 954,-147.5"/>
<text text-anchor="start" x="962" y="-165.5" font-family="Helvetica,sans-Serif" font-size="10.00">com.fs.starfarer.api.impl.campaign.intel.raid.</text>
<text text-anchor="middle" x="1056" y="-154.5" font-family="Helvetica,sans-Serif" font-size="10.00">RaidIntel</text>
</a>
</g>
</g>
<!-- Node5&#45;&gt;Node3 -->
<g id="edge4" class="edge">
<title>Node5&#45;&gt;Node3</title>
<path fill="none" stroke="#9a32cd" stroke-dasharray="5,2" d="M1168.21,-174.73C1196.9,-177.89 1227.63,-181.27 1255.78,-184.37"/>
<polygon fill="#9a32cd" stroke="#9a32cd" points="1168.47,-171.24 1158.15,-173.63 1167.71,-178.2 1168.47,-171.24"/>
<text text-anchor="middle" x="1207" y="-184.5" font-family="Helvetica,sans-Serif" font-size="10.00"> intel</text>
</g>
<!-- Node6 -->
<g id="node6" class="node">
<title>Node6</title>
<g id="a_node6"><a xlink:href="classcom_1_1fs_1_1starfarer_1_1api_1_1impl_1_1campaign_1_1intel_1_1BaseIntelPlugin.html" target="_top" xlink:title=" ">
<polygon fill="none" stroke="black" points="670.5,-244.5 670.5,-274.5 856.5,-274.5 856.5,-244.5 670.5,-244.5"/>
<text text-anchor="start" x="678.5" y="-262.5" font-family="Helvetica,sans-Serif" font-size="10.00">com.fs.starfarer.api.impl.campaign.intel.</text>
<text text-anchor="middle" x="763.5" y="-251.5" font-family="Helvetica,sans-Serif" font-size="10.00">BaseIntelPlugin</text>
</a>
</g>
</g>
<!-- Node6&#45;&gt;Node5 -->
<g id="edge5" class="edge">
<title>Node6&#45;&gt;Node5</title>
<path fill="none" stroke="midnightblue" d="M866.84,-257.28C891.46,-252.58 916.3,-243.89 936,-228.5 951.36,-216.5 939.09,-201.06 954,-188.5 959.12,-184.18 964.88,-180.57 970.97,-177.55"/>
<polygon fill="midnightblue" stroke="midnightblue" points="865.96,-253.88 856.69,-259.01 867.14,-260.78 865.96,-253.88"/>
</g>
<!-- Node7 -->
<g id="node7" class="node">
<title>Node7</title>
<g id="a_node7"><a xlink:href="interfacecom_1_1fs_1_1starfarer_1_1api_1_1campaign_1_1comm_1_1IntelInfoPlugin.html" target="_top" xlink:title=" ">
<polygon fill="none" stroke="black" points="237.5,-244.5 237.5,-274.5 412.5,-274.5 412.5,-244.5 237.5,-244.5"/>
<text text-anchor="start" x="245.5" y="-262.5" font-family="Helvetica,sans-Serif" font-size="10.00">com.fs.starfarer.api.campaign.comm.</text>
<text text-anchor="middle" x="325" y="-251.5" font-family="Helvetica,sans-Serif" font-size="10.00">IntelInfoPlugin</text>
</a>
</g>
</g>
<!-- Node7&#45;&gt;Node6 -->
<g id="edge6" class="edge">
<title>Node7&#45;&gt;Node6</title>
<path fill="none" stroke="midnightblue" d="M422.99,-259.5C496.78,-259.5 597.66,-259.5 670.25,-259.5"/>
<polygon fill="midnightblue" stroke="midnightblue" points="422.76,-256 412.76,-259.5 422.76,-263 422.76,-256"/>
</g>
<!-- Node8 -->
<g id="node8" class="node">
<title>Node8</title>
<g id="a_node8"><a xlink:href="interfacecom_1_1fs_1_1starfarer_1_1api_1_1impl_1_1campaign_1_1rulecmd_1_1CallEvent_1_1CallableEvent.html" target="_top" xlink:title=" ">
<polygon fill="none" stroke="black" points="223.5,-195.5 223.5,-225.5 426.5,-225.5 426.5,-195.5 223.5,-195.5"/>
<text text-anchor="start" x="231.5" y="-213.5" font-family="Helvetica,sans-Serif" font-size="10.00">com.fs.starfarer.api.impl.campaign.rulecmd.</text>
<text text-anchor="middle" x="325" y="-202.5" font-family="Helvetica,sans-Serif" font-size="10.00">CallEvent.CallableEvent</text>
</a>
</g>
</g>
<!-- Node8&#45;&gt;Node6 -->
<g id="edge7" class="edge">
<title>Node8&#45;&gt;Node6</title>
<path fill="none" stroke="midnightblue" d="M436.73,-222.93C508.89,-231.03 601.96,-241.48 670.13,-249.13"/>
<polygon fill="midnightblue" stroke="midnightblue" points="437.02,-219.44 426.69,-221.8 436.24,-226.4 437.02,-219.44"/>
</g>
<!-- Node9 -->
<g id="node9" class="node">
<title>Node9</title>
<g id="a_node9"><a xlink:href="interfacecom_1_1fs_1_1starfarer_1_1api_1_1EveryFrameScript.html" target="_top" xlink:title=" ">
<polygon fill="none" stroke="black" points="262.5,-146.5 262.5,-176.5 387.5,-176.5 387.5,-146.5 262.5,-146.5"/>
<text text-anchor="start" x="270.5" y="-164.5" font-family="Helvetica,sans-Serif" font-size="10.00">com.fs.starfarer.api.Every</text>
<text text-anchor="middle" x="325" y="-153.5" font-family="Helvetica,sans-Serif" font-size="10.00">FrameScript</text>
</a>
</g>
</g>
<!-- Node9&#45;&gt;Node6 -->
<g id="edge8" class="edge">
<title>Node9&#45;&gt;Node6</title>
<path fill="none" stroke="midnightblue" d="M397.93,-171C460.46,-180.35 553.01,-196.84 631,-221.5 639.35,-224.14 640.74,-226.59 649,-229.5 664.77,-235.05 682.08,-240.12 698.33,-244.45"/>
<polygon fill="midnightblue" stroke="midnightblue" points="398.17,-167.5 387.77,-169.5 397.15,-174.42 398.17,-167.5"/>
</g>
<!-- Node10 -->
<g id="node10" class="node">
<title>Node10</title>
<g id="a_node10"><a xlink:href="interfacecom_1_1fs_1_1starfarer_1_1api_1_1impl_1_1campaign_1_1CommRelayEntityPlugin_1_1CommSnifferReadableIntel.html" target="_top" xlink:title=" ">
<polygon fill="none" stroke="black" points="206,-342.5 206,-372.5 444,-372.5 444,-342.5 206,-342.5"/>
<text text-anchor="start" x="214" y="-360.5" font-family="Helvetica,sans-Serif" font-size="10.00">com.fs.starfarer.api.impl.campaign.</text>
<text text-anchor="middle" x="325" y="-349.5" font-family="Helvetica,sans-Serif" font-size="10.00">CommRelayEntityPlugin.CommSnifferReadableIntel</text>
</a>
</g>
</g>
<!-- Node10&#45;&gt;Node6 -->
<g id="edge9" class="edge">
<title>Node10&#45;&gt;Node6</title>
<path fill="none" stroke="midnightblue" d="M454.17,-341.94C509.12,-333.87 573.71,-322.51 631,-307.5 664.15,-298.82 700.67,-285.14 726.8,-274.6"/>
<polygon fill="midnightblue" stroke="midnightblue" points="453.43,-338.51 444.03,-343.41 454.43,-345.44 453.43,-338.51"/>
</g>
<!-- Node11 -->
<g id="node11" class="node">
<title>Node11</title>
<g id="a_node11"><a xlink:href="interfacecom_1_1fs_1_1starfarer_1_1api_1_1campaign_1_1SectorEntityToken.html" target="_top" xlink:title=" ">
<polygon fill="none" stroke="black" points="252,-293.5 252,-323.5 398,-323.5 398,-293.5 252,-293.5"/>
<text text-anchor="start" x="260" y="-311.5" font-family="Helvetica,sans-Serif" font-size="10.00">com.fs.starfarer.api.campaign.</text>
<text text-anchor="middle" x="325" y="-300.5" font-family="Helvetica,sans-Serif" font-size="10.00">SectorEntityToken</text>
</a>
</g>
</g>
<!-- Node11&#45;&gt;Node6 -->
<g id="edge10" class="edge">
<title>Node11&#45;&gt;Node6</title>
<path fill="none" stroke="#9a32cd" stroke-dasharray="5,2" d="M408.36,-299.25C482.93,-290.88 592.65,-278.57 670.17,-269.86"/>
<polygon fill="#9a32cd" stroke="#9a32cd" points="407.63,-295.81 398.08,-300.41 408.41,-302.77 407.63,-295.81"/>
<text text-anchor="middle" x="546.5" y="-295.5" font-family="Helvetica,sans-Serif" font-size="10.00"> postingLocation</text>
</g>
<!-- Node12 -->
<g id="node12" class="node">
<title>Node12</title>
<g id="a_node12"><a xlink:href="interfacecom_1_1fs_1_1starfarer_1_1api_1_1campaign_1_1rules_1_1HasMemory.html" target="_top" xlink:title=" ">
<polygon fill="none" stroke="black" points="0,-293.5 0,-323.5 169,-323.5 169,-293.5 0,-293.5"/>
<text text-anchor="start" x="8" y="-311.5" font-family="Helvetica,sans-Serif" font-size="10.00">com.fs.starfarer.api.campaign.rules.</text>
<text text-anchor="middle" x="84.5" y="-300.5" font-family="Helvetica,sans-Serif" font-size="10.00">HasMemory</text>
</a>
</g>
</g>
<!-- Node12&#45;&gt;Node11 -->
<g id="edge11" class="edge">
<title>Node12&#45;&gt;Node11</title>
<path fill="none" stroke="midnightblue" d="M179.48,-308.5C203.58,-308.5 229.13,-308.5 251.94,-308.5"/>
<polygon fill="midnightblue" stroke="midnightblue" points="179.25,-305 169.25,-308.5 179.25,-312 179.25,-305"/>
</g>
<!-- Node15 -->
<g id="node15" class="node">
<title>Node15</title>
<g id="a_node15"><a xlink:href="interfacecom_1_1fs_1_1starfarer_1_1api_1_1campaign_1_1FactionAPI.html" target="_top" xlink:title=" ">
<polygon fill="none" stroke="black" points="473.5,-108.5 473.5,-138.5 619.5,-138.5 619.5,-108.5 473.5,-108.5"/>
<text text-anchor="start" x="481.5" y="-126.5" font-family="Helvetica,sans-Serif" font-size="10.00">com.fs.starfarer.api.campaign.</text>
<text text-anchor="middle" x="546.5" y="-115.5" font-family="Helvetica,sans-Serif" font-size="10.00">FactionAPI</text>
</a>
</g>
</g>
<!-- Node12&#45;&gt;Node15 -->
<g id="edge15" class="edge">
<title>Node12&#45;&gt;Node15</title>
<path fill="none" stroke="midnightblue" d="M94.29,-284.12C109.89,-244.9 146.51,-168.92 206,-136.5 289,-91.27 401.12,-97.57 473.38,-108.61"/>
<polygon fill="midnightblue" stroke="midnightblue" points="91.01,-282.88 90.69,-293.47 97.55,-285.4 91.01,-282.88"/>
</g>
<!-- Node21 -->
<g id="node21" class="node">
<title>Node21</title>
<g id="a_node21"><a xlink:href="interfacecom_1_1fs_1_1starfarer_1_1api_1_1campaign_1_1econ_1_1MarketAPI.html" target="_top" xlink:title=" ">
<polygon fill="none" stroke="black" points="462,-379.5 462,-409.5 631,-409.5 631,-379.5 462,-379.5"/>
<text text-anchor="start" x="470" y="-397.5" font-family="Helvetica,sans-Serif" font-size="10.00">com.fs.starfarer.api.campaign.econ.</text>
<text text-anchor="middle" x="546.5" y="-386.5" font-family="Helvetica,sans-Serif" font-size="10.00">MarketAPI</text>
</a>
</g>
</g>
<!-- Node12&#45;&gt;Node21 -->
<g id="edge23" class="edge">
<title>Node12&#45;&gt;Node21</title>
<path fill="none" stroke="midnightblue" d="M111.18,-329.77C134.35,-347.56 170.2,-371.7 206,-382.5 290.41,-407.97 392.02,-407.78 461.94,-403.22"/>
<polygon fill="midnightblue" stroke="midnightblue" points="113.27,-326.96 103.24,-323.55 108.95,-332.47 113.27,-326.96"/>
</g>
<!-- Node13 -->
<g id="node13" class="node">
<title>Node13</title>
<g id="a_node13"><a xlink:href="interfacecom_1_1fs_1_1starfarer_1_1api_1_1impl_1_1campaign_1_1fleets_1_1RouteManager_1_1RouteFleetSpawner.html" target="_top" xlink:title=" ">
<polygon fill="none" stroke="black" points="668,-98.5 668,-128.5 859,-128.5 859,-98.5 668,-98.5"/>
<text text-anchor="start" x="676" y="-116.5" font-family="Helvetica,sans-Serif" font-size="10.00">com.fs.starfarer.api.impl.campaign.fleets.</text>
<text text-anchor="middle" x="763.5" y="-105.5" font-family="Helvetica,sans-Serif" font-size="10.00">RouteManager.RouteFleetSpawner</text>
</a>
</g>
</g>
<!-- Node13&#45;&gt;Node5 -->
<g id="edge12" class="edge">
<title>Node13&#45;&gt;Node5</title>
<path fill="none" stroke="midnightblue" d="M863.8,-130.25C896.97,-135.84 933.7,-142.04 966.03,-147.49"/>
<polygon fill="midnightblue" stroke="midnightblue" points="864.08,-126.75 853.63,-128.53 862.91,-133.65 864.08,-126.75"/>
</g>
<!-- Node14 -->
<g id="node14" class="node">
<title>Node14</title>
<g id="a_node14"><a xlink:href="interfacecom_1_1fs_1_1starfarer_1_1api_1_1impl_1_1campaign_1_1intel_1_1raid_1_1RaidIntel_1_1RaidDelegate.html" target="_top" xlink:title=" ">
<polygon fill="none" stroke="black" points="661.5,-49.5 661.5,-79.5 865.5,-79.5 865.5,-49.5 661.5,-49.5"/>
<text text-anchor="start" x="669.5" y="-67.5" font-family="Helvetica,sans-Serif" font-size="10.00">com.fs.starfarer.api.impl.campaign.intel.raid.</text>
<text text-anchor="middle" x="763.5" y="-56.5" font-family="Helvetica,sans-Serif" font-size="10.00">RaidIntel.RaidDelegate</text>
</a>
</g>
</g>
<!-- Node14&#45;&gt;Node5 -->
<g id="edge13" class="edge">
<title>Node14&#45;&gt;Node5</title>
<path fill="none" stroke="#9a32cd" stroke-dasharray="5,2" d="M860.01,-82.34C866.16,-84.21 872.21,-86.26 878,-88.5 905.87,-99.29 911.27,-105.74 936,-122.5 944.39,-128.19 944.9,-132.03 954,-136.5 962.69,-140.77 972.17,-144.39 981.71,-147.45"/>
<polygon fill="#9a32cd" stroke="#9a32cd" points="860.85,-78.94 850.28,-79.54 858.92,-85.66 860.85,-78.94"/>
<text text-anchor="middle" x="916" y="-125.5" font-family="Helvetica,sans-Serif" font-size="10.00"> delegate</text>
</g>
<!-- Node15&#45;&gt;Node5 -->
<g id="edge14" class="edge">
<title>Node15&#45;&gt;Node5</title>
<path fill="none" stroke="#9a32cd" stroke-dasharray="5,2" d="M579.17,-144.06C607.46,-162.34 645.06,-186.36 649,-187.5 770.27,-222.54 920.13,-196.46 999.53,-177.53"/>
<polygon fill="#9a32cd" stroke="#9a32cd" points="581.03,-141.1 570.73,-138.61 577.23,-146.98 581.03,-141.1"/>
<text text-anchor="middle" x="763.5" y="-207.5" font-family="Helvetica,sans-Serif" font-size="10.00"> faction</text>
</g>
<!-- Node16 -->
<g id="node16" class="node">
<title>Node16</title>
<g id="a_node16"><a xlink:href="interfacecom_1_1fs_1_1starfarer_1_1api_1_1campaign_1_1StarSystemAPI.html" target="_top" xlink:title=" ">
<polygon fill="none" stroke="black" points="690.5,-0.5 690.5,-30.5 836.5,-30.5 836.5,-0.5 690.5,-0.5"/>
<text text-anchor="start" x="698.5" y="-18.5" font-family="Helvetica,sans-Serif" font-size="10.00">com.fs.starfarer.api.campaign.</text>
<text text-anchor="middle" x="763.5" y="-7.5" font-family="Helvetica,sans-Serif" font-size="10.00">StarSystemAPI</text>
</a>
</g>
</g>
<!-- Node16&#45;&gt;Node5 -->
<g id="edge16" class="edge">
<title>Node16&#45;&gt;Node5</title>
<path fill="none" stroke="#9a32cd" stroke-dasharray="5,2" d="M846.47,-28.41C857.31,-31.39 868.09,-35.04 878,-39.5 907.26,-52.68 917.16,-56.52 936,-82.5 950.85,-102.98 935.5,-119.25 954,-136.5 958.63,-140.82 963.89,-144.45 969.51,-147.49"/>
<polygon fill="#9a32cd" stroke="#9a32cd" points="847.08,-24.95 836.52,-25.86 845.34,-31.73 847.08,-24.95"/>
<text text-anchor="middle" x="916" y="-85.5" font-family="Helvetica,sans-Serif" font-size="10.00"> system</text>
</g>
<!-- Node17 -->
<g id="node17" class="node">
<title>Node17</title>
<g id="a_node17"><a xlink:href="interfacecom_1_1fs_1_1starfarer_1_1api_1_1campaign_1_1LocationAPI.html" target="_top" xlink:title=" ">
<polygon fill="none" stroke="black" points="252,-0.5 252,-30.5 398,-30.5 398,-0.5 252,-0.5"/>
<text text-anchor="start" x="260" y="-18.5" font-family="Helvetica,sans-Serif" font-size="10.00">com.fs.starfarer.api.campaign.</text>
<text text-anchor="middle" x="325" y="-7.5" font-family="Helvetica,sans-Serif" font-size="10.00">LocationAPI</text>
</a>
</g>
</g>
<!-- Node17&#45;&gt;Node16 -->
<g id="edge17" class="edge">
<title>Node17&#45;&gt;Node16</title>
<path fill="none" stroke="midnightblue" d="M408.27,-15.5C489.57,-15.5 612.71,-15.5 690.31,-15.5"/>
<polygon fill="midnightblue" stroke="midnightblue" points="408.08,-12 398.08,-15.5 408.08,-19 408.08,-12"/>
</g>
<!-- Node18 -->
<g id="node18" class="node">
<title>Node18</title>
<g id="a_node18"><a xlink:title=" ">
<polygon fill="none" stroke="#bfbfbf" points="649,-147.5 649,-177.5 878,-177.5 878,-147.5 649,-147.5"/>
<text text-anchor="start" x="657" y="-165.5" font-family="Helvetica,sans-Serif" font-size="10.00">List&lt; com.fs.starfarer.api.impl.campaign.intel.raid.</text>
<text text-anchor="middle" x="763.5" y="-154.5" font-family="Helvetica,sans-Serif" font-size="10.00">RaidIntel.RaidStage &gt;</text>
</a>
</g>
</g>
<!-- Node18&#45;&gt;Node5 -->
<g id="edge18" class="edge">
<title>Node18&#45;&gt;Node5</title>
<path fill="none" stroke="#9a32cd" stroke-dasharray="5,2" d="M888.08,-162.5C910,-162.5 932.59,-162.5 953.8,-162.5"/>
<polygon fill="#9a32cd" stroke="#9a32cd" points="888.06,-159 878.06,-162.5 888.06,-166 888.06,-159"/>
<text text-anchor="middle" x="916" y="-165.5" font-family="Helvetica,sans-Serif" font-size="10.00"> stages</text>
</g>
<!-- Node19 -->
<g id="node19" class="node">
<title>Node19</title>
<g id="a_node19"><a xlink:href="classcom_1_1fs_1_1starfarer_1_1api_1_1util_1_1IntervalUtil.html" target="_top" xlink:title=" ">
<polygon fill="none" stroke="black" points="998,-97.5 998,-127.5 1114,-127.5 1114,-97.5 998,-97.5"/>
<text text-anchor="start" x="1006" y="-115.5" font-family="Helvetica,sans-Serif" font-size="10.00">com.fs.starfarer.api.util.</text>
<text text-anchor="middle" x="1056" y="-104.5" font-family="Helvetica,sans-Serif" font-size="10.00">IntervalUtil</text>
</a>
</g>
</g>
<!-- Node19&#45;&gt;Node2 -->
<g id="edge21" class="edge">
<title>Node19&#45;&gt;Node2</title>
<path fill="none" stroke="#9a32cd" stroke-dasharray="5,2" d="M1124.06,-117.8C1204.37,-124.77 1342.74,-138.74 1460,-160.5 1488.43,-165.78 1519.7,-173.54 1545.28,-180.42"/>
<polygon fill="#9a32cd" stroke="#9a32cd" points="1124.34,-114.32 1114.08,-116.95 1123.74,-121.29 1124.34,-114.32"/>
<text text-anchor="middle" x="1358" y="-163.5" font-family="Helvetica,sans-Serif" font-size="10.00"> interval</text>
</g>
<!-- Node19&#45;&gt;Node3 -->
<g id="edge19" class="edge">
<title>Node19&#45;&gt;Node3</title>
<path fill="none" stroke="#9a32cd" stroke-dasharray="5,2" d="M1124.1,-128.74C1135.44,-131.59 1147.07,-134.58 1158,-137.5 1209.28,-151.21 1267.53,-168.38 1307.69,-180.47"/>
<polygon fill="#9a32cd" stroke="#9a32cd" points="1124.8,-125.3 1114.25,-126.28 1123.1,-132.1 1124.8,-125.3"/>
<text text-anchor="middle" x="1207" y="-161.5" font-family="Helvetica,sans-Serif" font-size="10.00"> statusInterval</text>
</g>
<!-- Node20 -->
<g id="node20" class="node">
<title>Node20</title>
<g id="a_node20"><a xlink:href="enumcom_1_1fs_1_1starfarer_1_1api_1_1impl_1_1campaign_1_1intel_1_1raid_1_1RaidIntel_1_1RaidStageStatus.html" target="_top" xlink:title=" ">
<polygon fill="none" stroke="black" points="954,-197.5 954,-227.5 1158,-227.5 1158,-197.5 954,-197.5"/>
<text text-anchor="start" x="962" y="-215.5" font-family="Helvetica,sans-Serif" font-size="10.00">com.fs.starfarer.api.impl.campaign.intel.raid.</text>
<text text-anchor="middle" x="1056" y="-204.5" font-family="Helvetica,sans-Serif" font-size="10.00">RaidIntel.RaidStageStatus</text>
</a>
</g>
</g>
<!-- Node20&#45;&gt;Node3 -->
<g id="edge20" class="edge">
<title>Node20&#45;&gt;Node3</title>
<path fill="none" stroke="#9a32cd" stroke-dasharray="5,2" d="M1168.21,-206.2C1196.9,-204.57 1227.63,-202.83 1255.78,-201.24"/>
<polygon fill="#9a32cd" stroke="#9a32cd" points="1167.93,-202.71 1158.15,-206.77 1168.33,-209.7 1167.93,-202.71"/>
<text text-anchor="middle" x="1207" y="-208.5" font-family="Helvetica,sans-Serif" font-size="10.00"> status</text>
</g>
<!-- Node21&#45;&gt;Node2 -->
<g id="edge22" class="edge">
<title>Node21&#45;&gt;Node2</title>
<path fill="none" stroke="#9a32cd" stroke-dasharray="5,2" d="M636.98,-377.74C711.18,-365.31 819.57,-350.5 915,-350.5 915,-350.5 915,-350.5 1359,-350.5 1461.12,-350.5 1554,-249.65 1586.1,-210.64"/>
<polygon fill="#9a32cd" stroke="#9a32cd" points="636.02,-374.36 626.75,-379.48 637.19,-381.26 636.02,-374.36"/>
<text text-anchor="middle" x="1056" y="-353.5" font-family="Helvetica,sans-Serif" font-size="10.00"> market</text>
</g>
</g>
</svg>
