<?xml version="1.0" encoding="UTF-8" standalone="no"?>
<!DOCTYPE svg PUBLIC "-//W3C//DTD SVG 1.1//EN"
 "http://www.w3.org/Graphics/SVG/1.1/DTD/svg11.dtd">
<!-- Generated by graphviz version 12.2.0 (20241103.1931)
 -->
<!-- Title: com.fs.starfarer.api.impl.combat.MoteControlScript Pages: 1 -->
<svg width="918pt" height="234pt"
 viewBox="0.00 0.00 917.75 233.50" xmlns="http://www.w3.org/2000/svg" xmlns:xlink="http://www.w3.org/1999/xlink">
<g id="graph0" class="graph" transform="scale(1 1) rotate(0) translate(4 229.5)">
<title>com.fs.starfarer.api.impl.combat.MoteControlScript</title>
<!-- Node1 -->
<g id="Node000001" class="node">
<title>Node1</title>
<g id="a_Node000001"><a xlink:title=" ">
<polygon fill="#999999" stroke="#666666" points="909.75,-136.5 754.25,-136.5 754.25,-106 909.75,-106 909.75,-136.5"/>
<text text-anchor="start" x="762.25" y="-123" font-family="Helvetica,sans-Serif" font-size="10.00">com.fs.starfarer.api.impl.combat.</text>
<text text-anchor="middle" x="832" y="-111.75" font-family="Helvetica,sans-Serif" font-size="10.00">MoteControlScript</text>
</a>
</g>
</g>
<!-- Node2 -->
<g id="Node000002" class="node">
<title>Node2</title>
<g id="a_Node000002"><a xlink:href="classcom_1_1fs_1_1starfarer_1_1api_1_1impl_1_1combat_1_1BaseShipSystemScript.html" target="_top" xlink:title=" ">
<polygon fill="white" stroke="#666666" points="569.38,-225.5 413.88,-225.5 413.88,-195 569.38,-195 569.38,-225.5"/>
<text text-anchor="start" x="421.88" y="-212" font-family="Helvetica,sans-Serif" font-size="10.00">com.fs.starfarer.api.impl.combat.</text>
<text text-anchor="middle" x="491.62" y="-200.75" font-family="Helvetica,sans-Serif" font-size="10.00">BaseShipSystemScript</text>
</a>
</g>
</g>
<!-- Node2&#45;&gt;Node1 -->
<g id="edge1_Node000001_Node000002" class="edge">
<title>Node2&#45;&gt;Node1</title>
<g id="a_edge1_Node000001_Node000002"><a xlink:title=" ">
<path fill="none" stroke="#63b8ff" d="M581.1,-204.34C628.12,-199.33 686.37,-190.13 736.25,-173.25 762.2,-164.47 789.37,-148.79 807.93,-136.94"/>
<polygon fill="#63b8ff" stroke="#63b8ff" points="580.81,-200.85 571.21,-205.34 581.51,-207.81 580.81,-200.85"/>
</a>
</g>
</g>
<!-- Node3 -->
<g id="Node000003" class="node">
<title>Node3</title>
<g id="a_Node000003"><a xlink:href="interfacecom_1_1fs_1_1starfarer_1_1api_1_1plugins_1_1ShipSystemStatsScriptAdvanced.html" target="_top" xlink:title=" ">
<polygon fill="white" stroke="#666666" points="331.5,-225.5 170.75,-225.5 170.75,-195 331.5,-195 331.5,-225.5"/>
<text text-anchor="start" x="178.75" y="-212" font-family="Helvetica,sans-Serif" font-size="10.00">com.fs.starfarer.api.plugins.</text>
<text text-anchor="middle" x="251.12" y="-200.75" font-family="Helvetica,sans-Serif" font-size="10.00">ShipSystemStatsScriptAdvanced</text>
</a>
</g>
</g>
<!-- Node3&#45;&gt;Node2 -->
<g id="edge2_Node000002_Node000003" class="edge">
<title>Node3&#45;&gt;Node2</title>
<g id="a_edge2_Node000002_Node000003"><a xlink:title=" ">
<path fill="none" stroke="#63b8ff" d="M343.11,-210.25C366.28,-210.25 390.97,-210.25 413.38,-210.25"/>
<polygon fill="#63b8ff" stroke="#63b8ff" points="343.39,-206.75 333.39,-210.25 343.39,-213.75 343.39,-206.75"/>
</a>
</g>
</g>
<!-- Node4 -->
<g id="Node000004" class="node">
<title>Node4</title>
<g id="a_Node000004"><a xlink:href="interfacecom_1_1fs_1_1starfarer_1_1api_1_1plugins_1_1ShipSystemStatsScript.html" target="_top" xlink:title=" ">
<polygon fill="white" stroke="#666666" points="133.75,-225.5 0,-225.5 0,-195 133.75,-195 133.75,-225.5"/>
<text text-anchor="start" x="8" y="-212" font-family="Helvetica,sans-Serif" font-size="10.00">com.fs.starfarer.api.plugins.</text>
<text text-anchor="middle" x="66.88" y="-200.75" font-family="Helvetica,sans-Serif" font-size="10.00">ShipSystemStatsScript</text>
</a>
</g>
</g>
<!-- Node4&#45;&gt;Node3 -->
<g id="edge3_Node000003_Node000004" class="edge">
<title>Node4&#45;&gt;Node3</title>
<g id="a_edge3_Node000003_Node000004"><a xlink:title=" ">
<path fill="none" stroke="#63b8ff" d="M145.69,-210.25C153.91,-210.25 162.29,-210.25 170.53,-210.25"/>
<polygon fill="#63b8ff" stroke="#63b8ff" points="145.7,-206.75 135.7,-210.25 145.7,-213.75 145.7,-206.75"/>
</a>
</g>
</g>
<!-- Node5 -->
<g id="Node000005" class="node">
<title>Node5</title>
<g id="a_Node000005"><a xlink:title=" ">
<polygon fill="white" stroke="#666666" points="553.62,-176.88 429.62,-176.88 429.62,-157.62 553.62,-157.62 553.62,-176.88"/>
<text text-anchor="middle" x="491.62" y="-163.38" font-family="Helvetica,sans-Serif" font-size="10.00">Map&lt; String, MoteData &gt;</text>
</a>
</g>
</g>
<!-- Node5&#45;&gt;Node1 -->
<g id="edge4_Node000001_Node000005" class="edge">
<title>Node5&#45;&gt;Node1</title>
<g id="a_edge4_Node000001_Node000005"><a xlink:title=" ">
<path fill="none" stroke="#9a32cd" stroke-dasharray="5,2" d="M565.41,-163.69C614.03,-160.58 679.28,-154.97 736.25,-145.25 748.96,-143.08 762.48,-140.08 775.2,-136.94"/>
<polygon fill="#9a32cd" stroke="#9a32cd" points="565.32,-160.19 555.56,-164.3 565.75,-167.18 565.32,-160.19"/>
</a>
</g>
<text text-anchor="middle" x="684.5" y="-159.82" font-family="Helvetica,sans-Serif" font-size="10.00" fill="grey"> MOTE_DATA</text>
</g>
<!-- Node6 -->
<g id="Node000006" class="node">
<title>Node6</title>
<g id="a_Node000006"><a xlink:href="classcom_1_1fs_1_1starfarer_1_1api_1_1util_1_1IntervalUtil.html" target="_top" xlink:title=" ">
<polygon fill="white" stroke="#666666" points="549.5,-138.5 433.75,-138.5 433.75,-108 549.5,-108 549.5,-138.5"/>
<text text-anchor="start" x="441.75" y="-125" font-family="Helvetica,sans-Serif" font-size="10.00">com.fs.starfarer.api.util.</text>
<text text-anchor="middle" x="491.62" y="-113.75" font-family="Helvetica,sans-Serif" font-size="10.00">IntervalUtil</text>
</a>
</g>
</g>
<!-- Node6&#45;&gt;Node1 -->
<g id="edge5_Node000001_Node000006" class="edge">
<title>Node6&#45;&gt;Node1</title>
<g id="a_edge5_Node000001_Node000006"><a xlink:title=" ">
<path fill="none" stroke="#9a32cd" stroke-dasharray="5,2" d="M560.86,-122.85C616.77,-122.52 695.88,-122.05 754.05,-121.7"/>
<polygon fill="#9a32cd" stroke="#9a32cd" points="561.14,-119.34 551.16,-122.9 561.18,-126.34 561.14,-119.34"/>
</a>
</g>
<text text-anchor="middle" x="684.5" y="-135.37" font-family="Helvetica,sans-Serif" font-size="10.00" fill="grey"> attractorParticleInterval</text>
<text text-anchor="middle" x="684.5" y="-124.12" font-family="Helvetica,sans-Serif" font-size="10.00" fill="grey">launchInterval</text>
</g>
<!-- Node7 -->
<g id="Node000007" class="node">
<title>Node7</title>
<g id="a_Node000007"><a xlink:href="classcom_1_1fs_1_1starfarer_1_1api_1_1util_1_1WeightedRandomPicker.html" target="_top" xlink:title=" ">
<polygon fill="white" stroke="#666666" points="614.75,-90.12 368.5,-90.12 368.5,-48.38 614.75,-48.38 614.75,-90.12"/>
<text text-anchor="start" x="376.5" y="-76.62" font-family="Helvetica,sans-Serif" font-size="10.00">com.fs.starfarer.api.util.</text>
<text text-anchor="start" x="376.5" y="-65.38" font-family="Helvetica,sans-Serif" font-size="10.00">WeightedRandomPicker&lt; com.fs.starfarer.api.loading.</text>
<text text-anchor="middle" x="491.62" y="-54.12" font-family="Helvetica,sans-Serif" font-size="10.00">WeaponSlotAPI &gt;</text>
</a>
</g>
</g>
<!-- Node7&#45;&gt;Node1 -->
<g id="edge6_Node000001_Node000007" class="edge">
<title>Node7&#45;&gt;Node1</title>
<g id="a_edge6_Node000001_Node000007"><a xlink:title=" ">
<path fill="none" stroke="#9a32cd" stroke-dasharray="5,2" d="M626.02,-89.75C669.35,-96.41 715.96,-103.57 753.77,-109.38"/>
<polygon fill="#9a32cd" stroke="#9a32cd" points="626.7,-86.31 616.28,-88.25 625.63,-93.23 626.7,-86.31"/>
</a>
</g>
<text text-anchor="middle" x="684.5" y="-107.63" font-family="Helvetica,sans-Serif" font-size="10.00" fill="grey"> launchSlots</text>
</g>
<!-- Node8 -->
<g id="Node000008" class="node">
<title>Node8</title>
<g id="a_Node000008"><a xlink:href="interfacecom_1_1fs_1_1starfarer_1_1api_1_1loading_1_1WeaponSlotAPI.html" target="_top" xlink:title=" ">
<polygon fill="white" stroke="#666666" points="558.5,-30.5 424.75,-30.5 424.75,0 558.5,0 558.5,-30.5"/>
<text text-anchor="start" x="432.75" y="-17" font-family="Helvetica,sans-Serif" font-size="10.00">com.fs.starfarer.api.loading.</text>
<text text-anchor="middle" x="491.62" y="-5.75" font-family="Helvetica,sans-Serif" font-size="10.00">WeaponSlotAPI</text>
</a>
</g>
</g>
<!-- Node8&#45;&gt;Node1 -->
<g id="edge7_Node000001_Node000008" class="edge">
<title>Node8&#45;&gt;Node1</title>
<g id="a_edge7_Node000001_Node000008"><a xlink:title=" ">
<path fill="none" stroke="#9a32cd" stroke-dasharray="5,2" d="M570.08,-29.17C584.97,-32.21 600.39,-35.62 614.75,-39.25 669.57,-53.11 683.51,-56.6 736.25,-77 758.09,-85.45 781.98,-96.62 800.31,-105.62"/>
<polygon fill="#9a32cd" stroke="#9a32cd" points="570.81,-25.75 560.31,-27.22 569.43,-32.61 570.81,-25.75"/>
</a>
</g>
<text text-anchor="middle" x="684.5" y="-78.75" font-family="Helvetica,sans-Serif" font-size="10.00" fill="grey"> attractor</text>
</g>
</g>
</svg>
