<?xml version="1.0" encoding="UTF-8" standalone="no"?>
<!DOCTYPE svg PUBLIC "-//W3C//DTD SVG 1.1//EN"
 "http://www.w3.org/Graphics/SVG/1.1/DTD/svg11.dtd">
<!-- Generated by graphviz version 2.44.0 ()
 -->
<!-- Title: com.fs.starfarer.api.impl.campaign.graid.DisruptIndustryRaidObjectivePluginImpl Pages: 1 -->
<svg width="981pt" height="176pt"
 viewBox="0.00 0.00 981.00 176.00" xmlns="http://www.w3.org/2000/svg" xmlns:xlink="http://www.w3.org/1999/xlink">
<g id="graph0" class="graph" transform="scale(1 1) rotate(0) translate(4 172)">
<title>com.fs.starfarer.api.impl.campaign.graid.DisruptIndustryRaidObjectivePluginImpl</title>
<!-- Node1 -->
<g id="node1" class="node">
<title>Node1</title>
<g id="a_node1"><a xlink:title=" ">
<polygon fill="#bfbfbf" stroke="black" points="784,-76.5 784,-106.5 973,-106.5 973,-76.5 784,-76.5"/>
<text text-anchor="start" x="792" y="-94.5" font-family="Helvetica,sans-Serif" font-size="10.00">com.fs.starfarer.api.impl.campaign.graid.</text>
<text text-anchor="middle" x="878.5" y="-83.5" font-family="Helvetica,sans-Serif" font-size="10.00">DisruptIndustryRaidObjectivePluginImpl</text>
</a>
</g>
</g>
<!-- Node2 -->
<g id="node2" class="node">
<title>Node2</title>
<g id="a_node2"><a xlink:href="classcom_1_1fs_1_1starfarer_1_1api_1_1impl_1_1campaign_1_1graid_1_1BaseGroundRaidObjectivePluginImpl.html" target="_top" xlink:title=" ">
<polygon fill="none" stroke="black" points="558,-76.5 558,-106.5 747,-106.5 747,-76.5 558,-76.5"/>
<text text-anchor="start" x="566" y="-94.5" font-family="Helvetica,sans-Serif" font-size="10.00">com.fs.starfarer.api.impl.campaign.graid.</text>
<text text-anchor="middle" x="652.5" y="-83.5" font-family="Helvetica,sans-Serif" font-size="10.00">BaseGroundRaidObjectivePluginImpl</text>
</a>
</g>
</g>
<!-- Node2&#45;&gt;Node1 -->
<g id="edge1" class="edge">
<title>Node2&#45;&gt;Node1</title>
<path fill="none" stroke="midnightblue" d="M757.47,-91.5C766.26,-91.5 775.11,-91.5 783.82,-91.5"/>
<polygon fill="midnightblue" stroke="midnightblue" points="757.2,-88 747.2,-91.5 757.2,-95 757.2,-88"/>
</g>
<!-- Node3 -->
<g id="node3" class="node">
<title>Node3</title>
<g id="a_node3"><a xlink:href="interfacecom_1_1fs_1_1starfarer_1_1api_1_1impl_1_1campaign_1_1graid_1_1GroundRaidObjectivePlugin.html" target="_top" xlink:title=" ">
<polygon fill="none" stroke="black" points="206,-137.5 206,-167.5 395,-167.5 395,-137.5 206,-137.5"/>
<text text-anchor="start" x="214" y="-155.5" font-family="Helvetica,sans-Serif" font-size="10.00">com.fs.starfarer.api.impl.campaign.graid.</text>
<text text-anchor="middle" x="300.5" y="-144.5" font-family="Helvetica,sans-Serif" font-size="10.00">GroundRaidObjectivePlugin</text>
</a>
</g>
</g>
<!-- Node3&#45;&gt;Node2 -->
<g id="edge2" class="edge">
<title>Node3&#45;&gt;Node2</title>
<path fill="none" stroke="midnightblue" d="M405.21,-139.2C447.19,-133.32 496.03,-125.84 540,-117.5 556.7,-114.33 574.68,-110.38 591.22,-106.52"/>
<polygon fill="midnightblue" stroke="midnightblue" points="404.67,-135.74 395.25,-140.58 405.64,-142.67 404.67,-135.74"/>
</g>
<!-- Node4 -->
<g id="node4" class="node">
<title>Node4</title>
<g id="a_node4"><a xlink:title=" ">
<polygon fill="none" stroke="#bfbfbf" points="281,-99 281,-118 320,-118 320,-99 281,-99"/>
<text text-anchor="middle" x="300.5" y="-106" font-family="Helvetica,sans-Serif" font-size="10.00">Color</text>
</a>
</g>
</g>
<!-- Node4&#45;&gt;Node2 -->
<g id="edge3" class="edge">
<title>Node4&#45;&gt;Node2</title>
<path fill="none" stroke="#9a32cd" stroke-dasharray="5,2" d="M330.56,-107.09C379.84,-104.69 481.83,-99.74 557.68,-96.06"/>
<polygon fill="#9a32cd" stroke="#9a32cd" points="330.14,-103.6 320.32,-107.59 330.48,-110.6 330.14,-103.6"/>
<text text-anchor="middle" x="476.5" y="-105.5" font-family="Helvetica,sans-Serif" font-size="10.00"> assignedForcesColumnColor</text>
</g>
<!-- Node5 -->
<g id="node5" class="node">
<title>Node5</title>
<g id="a_node5"><a xlink:href="interfacecom_1_1fs_1_1starfarer_1_1api_1_1campaign_1_1econ_1_1MarketAPI.html" target="_top" xlink:title=" ">
<polygon fill="none" stroke="black" points="216,-49.5 216,-79.5 385,-79.5 385,-49.5 216,-49.5"/>
<text text-anchor="start" x="224" y="-67.5" font-family="Helvetica,sans-Serif" font-size="10.00">com.fs.starfarer.api.campaign.econ.</text>
<text text-anchor="middle" x="300.5" y="-56.5" font-family="Helvetica,sans-Serif" font-size="10.00">MarketAPI</text>
</a>
</g>
</g>
<!-- Node5&#45;&gt;Node2 -->
<g id="edge4" class="edge">
<title>Node5&#45;&gt;Node2</title>
<path fill="none" stroke="#9a32cd" stroke-dasharray="5,2" d="M395.24,-70.78C439.2,-73.83 492.3,-77.66 540,-81.5 545.81,-81.97 551.79,-82.46 557.82,-82.97"/>
<polygon fill="#9a32cd" stroke="#9a32cd" points="395.36,-67.28 385.14,-70.09 394.87,-74.27 395.36,-67.28"/>
<text text-anchor="middle" x="476.5" y="-84.5" font-family="Helvetica,sans-Serif" font-size="10.00"> market</text>
</g>
<!-- Node6 -->
<g id="node6" class="node">
<title>Node6</title>
<g id="a_node6"><a xlink:href="interfacecom_1_1fs_1_1starfarer_1_1api_1_1campaign_1_1rules_1_1HasMemory.html" target="_top" xlink:title=" ">
<polygon fill="none" stroke="black" points="0,-49.5 0,-79.5 169,-79.5 169,-49.5 0,-49.5"/>
<text text-anchor="start" x="8" y="-67.5" font-family="Helvetica,sans-Serif" font-size="10.00">com.fs.starfarer.api.campaign.rules.</text>
<text text-anchor="middle" x="84.5" y="-56.5" font-family="Helvetica,sans-Serif" font-size="10.00">HasMemory</text>
</a>
</g>
</g>
<!-- Node6&#45;&gt;Node5 -->
<g id="edge5" class="edge">
<title>Node6&#45;&gt;Node5</title>
<path fill="none" stroke="midnightblue" d="M179.32,-64.5C191.5,-64.5 203.9,-64.5 215.9,-64.5"/>
<polygon fill="midnightblue" stroke="midnightblue" points="179.16,-61 169.16,-64.5 179.16,-68 179.16,-61"/>
</g>
<!-- Node7 -->
<g id="node7" class="node">
<title>Node7</title>
<g id="a_node7"><a xlink:href="interfacecom_1_1fs_1_1starfarer_1_1api_1_1campaign_1_1econ_1_1Industry.html" target="_top" xlink:title=" ">
<polygon fill="none" stroke="black" points="216,-0.5 216,-30.5 385,-30.5 385,-0.5 216,-0.5"/>
<text text-anchor="start" x="224" y="-18.5" font-family="Helvetica,sans-Serif" font-size="10.00">com.fs.starfarer.api.campaign.econ.</text>
<text text-anchor="middle" x="300.5" y="-7.5" font-family="Helvetica,sans-Serif" font-size="10.00">Industry</text>
</a>
</g>
</g>
<!-- Node7&#45;&gt;Node2 -->
<g id="edge6" class="edge">
<title>Node7&#45;&gt;Node2</title>
<path fill="none" stroke="#9a32cd" stroke-dasharray="5,2" d="M395.27,-28.65C439.46,-35.6 492.74,-45.07 540,-56.5 562.78,-62.01 587.7,-69.67 608.19,-76.42"/>
<polygon fill="#9a32cd" stroke="#9a32cd" points="395.54,-25.15 385.12,-27.07 394.46,-32.06 395.54,-25.15"/>
<text text-anchor="middle" x="476.5" y="-59.5" font-family="Helvetica,sans-Serif" font-size="10.00"> source</text>
</g>
</g>
</svg>
