<?xml version="1.0" encoding="UTF-8" standalone="no"?>
<!DOCTYPE svg PUBLIC "-//W3C//DTD SVG 1.1//EN"
 "http://www.w3.org/Graphics/SVG/1.1/DTD/svg11.dtd">
<!-- Generated by graphviz version 12.2.0 (20241103.1931)
 -->
<!-- Title: com.fs.starfarer.api.impl.campaign.intel.raid.PirateRaidAssembleStage2 Pages: 1 -->
<svg width="212pt" height="238pt"
 viewBox="0.00 0.00 211.50 238.00" xmlns="http://www.w3.org/2000/svg" xmlns:xlink="http://www.w3.org/1999/xlink">
<g id="graph0" class="graph" transform="scale(1 1) rotate(0) translate(4 234)">
<title>com.fs.starfarer.api.impl.campaign.intel.raid.PirateRaidAssembleStage2</title>
<!-- Node1 -->
<g id="Node000001" class="node">
<title>Node1</title>
<g id="a_Node000001"><a xlink:title=" ">
<polygon fill="#999999" stroke="#666666" points="203.5,-30.5 0,-30.5 0,0 203.5,0 203.5,-30.5"/>
<text text-anchor="start" x="8" y="-17" font-family="Helvetica,sans-Serif" font-size="10.00">com.fs.starfarer.api.impl.campaign.intel.raid.</text>
<text text-anchor="middle" x="101.75" y="-5.75" font-family="Helvetica,sans-Serif" font-size="10.00">PirateRaidAssembleStage2</text>
</a>
</g>
</g>
<!-- Node2 -->
<g id="Node000002" class="node">
<title>Node2</title>
<g id="a_Node000002"><a xlink:href="classcom_1_1fs_1_1starfarer_1_1api_1_1impl_1_1campaign_1_1intel_1_1raid_1_1AssembleStage.html" target="_top" xlink:title=" ">
<polygon fill="white" stroke="#666666" points="203.5,-97 0,-97 0,-66.5 203.5,-66.5 203.5,-97"/>
<text text-anchor="start" x="8" y="-83.5" font-family="Helvetica,sans-Serif" font-size="10.00">com.fs.starfarer.api.impl.campaign.intel.raid.</text>
<text text-anchor="middle" x="101.75" y="-72.25" font-family="Helvetica,sans-Serif" font-size="10.00">AssembleStage</text>
</a>
</g>
</g>
<!-- Node2&#45;&gt;Node1 -->
<g id="edge1_Node000001_Node000002" class="edge">
<title>Node2&#45;&gt;Node1</title>
<g id="a_edge1_Node000001_Node000002"><a xlink:title=" ">
<path fill="none" stroke="#63b8ff" d="M101.75,-54.81C101.75,-46.64 101.75,-37.91 101.75,-30.83"/>
<polygon fill="#63b8ff" stroke="#63b8ff" points="98.25,-54.6 101.75,-64.6 105.25,-54.6 98.25,-54.6"/>
</a>
</g>
</g>
<!-- Node3 -->
<g id="Node000003" class="node">
<title>Node3</title>
<g id="a_Node000003"><a xlink:href="classcom_1_1fs_1_1starfarer_1_1api_1_1impl_1_1campaign_1_1intel_1_1raid_1_1BaseRaidStage.html" target="_top" xlink:title=" ">
<polygon fill="white" stroke="#666666" points="203.5,-163.5 0,-163.5 0,-133 203.5,-133 203.5,-163.5"/>
<text text-anchor="start" x="8" y="-150" font-family="Helvetica,sans-Serif" font-size="10.00">com.fs.starfarer.api.impl.campaign.intel.raid.</text>
<text text-anchor="middle" x="101.75" y="-138.75" font-family="Helvetica,sans-Serif" font-size="10.00">BaseRaidStage</text>
</a>
</g>
</g>
<!-- Node3&#45;&gt;Node2 -->
<g id="edge2_Node000002_Node000003" class="edge">
<title>Node3&#45;&gt;Node2</title>
<g id="a_edge2_Node000002_Node000003"><a xlink:title=" ">
<path fill="none" stroke="#63b8ff" d="M101.75,-121.31C101.75,-113.14 101.75,-104.41 101.75,-97.33"/>
<polygon fill="#63b8ff" stroke="#63b8ff" points="98.25,-121.1 101.75,-131.1 105.25,-121.1 98.25,-121.1"/>
</a>
</g>
</g>
<!-- Node4 -->
<g id="Node000004" class="node">
<title>Node4</title>
<g id="a_Node000004"><a xlink:title=" ">
<polygon fill="white" stroke="#666666" points="203.5,-230 0,-230 0,-199.5 203.5,-199.5 203.5,-230"/>
<text text-anchor="start" x="8" y="-216.5" font-family="Helvetica,sans-Serif" font-size="10.00">com.fs.starfarer.api.impl.campaign.intel.raid.</text>
<text text-anchor="middle" x="101.75" y="-205.25" font-family="Helvetica,sans-Serif" font-size="10.00">RaidIntel.RaidStage</text>
</a>
</g>
</g>
<!-- Node4&#45;&gt;Node3 -->
<g id="edge3_Node000003_Node000004" class="edge">
<title>Node4&#45;&gt;Node3</title>
<g id="a_edge3_Node000003_Node000004"><a xlink:title=" ">
<path fill="none" stroke="#63b8ff" d="M101.75,-187.81C101.75,-179.64 101.75,-170.91 101.75,-163.83"/>
<polygon fill="#63b8ff" stroke="#63b8ff" points="98.25,-187.6 101.75,-197.6 105.25,-187.6 98.25,-187.6"/>
</a>
</g>
</g>
</g>
</svg>
