<?xml version="1.0" encoding="UTF-8" standalone="no"?>
<!DOCTYPE svg PUBLIC "-//W3C//DTD SVG 1.1//EN"
 "http://www.w3.org/Graphics/SVG/1.1/DTD/svg11.dtd">
<!-- Generated by graphviz version 7.0.5 (20221223.1930)
 -->
<!-- Title: com.fs.starfarer.api.impl.campaign.submarkets.BaseSubmarketPlugin Pages: 1 -->
<svg width="714pt" height="220pt"
 viewBox="0.00 0.00 714.00 219.50" xmlns="http://www.w3.org/2000/svg" xmlns:xlink="http://www.w3.org/1999/xlink">
<g id="graph0" class="graph" transform="scale(1 1) rotate(0) translate(4 215.5)">
<title>com.fs.starfarer.api.impl.campaign.submarkets.BaseSubmarketPlugin</title>
<!-- Node1 -->
<g id="node1" class="node">
<title>Node1</title>
<g id="a_node1"><a xlink:title=" ">
<polygon fill="#999999" stroke="#666666" points="706,-115.5 487,-115.5 487,-85.5 706,-85.5 706,-115.5"/>
<text text-anchor="start" x="495" y="-103.5" font-family="Helvetica,sans-Serif" font-size="10.00">com.fs.starfarer.api.impl.campaign.submarkets.</text>
<text text-anchor="middle" x="596.5" y="-92.5" font-family="Helvetica,sans-Serif" font-size="10.00">BaseSubmarketPlugin</text>
</a>
</g>
</g>
<!-- Node2 -->
<g id="node2" class="node">
<title>Node2</title>
<g id="a_node2"><a xlink:href="interfacecom_1_1fs_1_1starfarer_1_1api_1_1campaign_1_1SubmarketPlugin.html" target="_top" xlink:title=" ">
<polygon fill="white" stroke="#bfbfbf" points="363.5,-211.5 217.5,-211.5 217.5,-181.5 363.5,-181.5 363.5,-211.5"/>
<text text-anchor="start" x="225.5" y="-199.5" font-family="Helvetica,sans-Serif" font-size="10.00">com.fs.starfarer.api.campaign.</text>
<text text-anchor="middle" x="290.5" y="-188.5" font-family="Helvetica,sans-Serif" font-size="10.00">SubmarketPlugin</text>
</a>
</g>
</g>
<!-- Node2&#45;&gt;Node1 -->
<g id="edge1" class="edge">
<title>Node2&#45;&gt;Node1</title>
<path fill="none" stroke="#63b8ff" d="M361.45,-178.08C394.27,-169.11 433.82,-157.83 469,-146.5 498.14,-137.11 530.58,-125.29 555.31,-115.98"/>
<polygon fill="#63b8ff" stroke="#63b8ff" points="360.78,-174.64 352.05,-180.64 362.62,-181.39 360.78,-174.64"/>
</g>
<!-- Node3 -->
<g id="node3" class="node">
<title>Node3</title>
<g id="a_node3"><a xlink:href="interfacecom_1_1fs_1_1starfarer_1_1api_1_1campaign_1_1econ_1_1MarketAPI.html" target="_top" xlink:title=" ">
<polygon fill="white" stroke="#bfbfbf" points="375,-163.5 206,-163.5 206,-133.5 375,-133.5 375,-163.5"/>
<text text-anchor="start" x="214" y="-151.5" font-family="Helvetica,sans-Serif" font-size="10.00">com.fs.starfarer.api.campaign.econ.</text>
<text text-anchor="middle" x="290.5" y="-140.5" font-family="Helvetica,sans-Serif" font-size="10.00">MarketAPI</text>
</a>
</g>
</g>
<!-- Node3&#45;&gt;Node1 -->
<g id="edge2" class="edge">
<title>Node3&#45;&gt;Node1</title>
<path fill="none" stroke="#9a32cd" stroke-dasharray="5,2" d="M386.63,-133.48C421.87,-127.92 461.87,-121.6 497.37,-115.99"/>
<polygon fill="#9a32cd" stroke="#9a32cd" points="386.2,-130 376.87,-135.02 387.29,-136.92 386.2,-130"/>
<text text-anchor="middle" x="431" y="-134.5" font-family="Helvetica,sans-Serif" font-size="10.00"> market</text>
</g>
<!-- Node4 -->
<g id="node4" class="node">
<title>Node4</title>
<g id="a_node4"><a xlink:href="interfacecom_1_1fs_1_1starfarer_1_1api_1_1campaign_1_1rules_1_1HasMemory.html" target="_top" xlink:title=" ">
<polygon fill="white" stroke="#bfbfbf" points="169,-163.5 0,-163.5 0,-133.5 169,-133.5 169,-163.5"/>
<text text-anchor="start" x="8" y="-151.5" font-family="Helvetica,sans-Serif" font-size="10.00">com.fs.starfarer.api.campaign.rules.</text>
<text text-anchor="middle" x="84.5" y="-140.5" font-family="Helvetica,sans-Serif" font-size="10.00">HasMemory</text>
</a>
</g>
</g>
<!-- Node4&#45;&gt;Node3 -->
<g id="edge3" class="edge">
<title>Node4&#45;&gt;Node3</title>
<path fill="none" stroke="#63b8ff" d="M180.67,-148.5C189,-148.5 197.4,-148.5 205.64,-148.5"/>
<polygon fill="#63b8ff" stroke="#63b8ff" points="180.87,-145 170.87,-148.5 180.87,-152 180.87,-145"/>
</g>
<!-- Node5 -->
<g id="node5" class="node">
<title>Node5</title>
<g id="a_node5"><a xlink:href="interfacecom_1_1fs_1_1starfarer_1_1api_1_1campaign_1_1econ_1_1SubmarketAPI.html" target="_top" xlink:title=" ">
<polygon fill="white" stroke="#bfbfbf" points="375,-115.5 206,-115.5 206,-85.5 375,-85.5 375,-115.5"/>
<text text-anchor="start" x="214" y="-103.5" font-family="Helvetica,sans-Serif" font-size="10.00">com.fs.starfarer.api.campaign.econ.</text>
<text text-anchor="middle" x="290.5" y="-92.5" font-family="Helvetica,sans-Serif" font-size="10.00">SubmarketAPI</text>
</a>
</g>
</g>
<!-- Node5&#45;&gt;Node1 -->
<g id="edge4" class="edge">
<title>Node5&#45;&gt;Node1</title>
<path fill="none" stroke="#9a32cd" stroke-dasharray="5,2" d="M386.85,-100.5C418.49,-100.5 453.95,-100.5 486.53,-100.5"/>
<polygon fill="#9a32cd" stroke="#9a32cd" points="386.89,-97 376.89,-100.5 386.89,-104 386.89,-97"/>
<text text-anchor="middle" x="431" y="-103.5" font-family="Helvetica,sans-Serif" font-size="10.00"> submarket</text>
</g>
<!-- Node6 -->
<g id="node6" class="node">
<title>Node6</title>
<g id="a_node6"><a xlink:href="interfacecom_1_1fs_1_1starfarer_1_1api_1_1campaign_1_1CargoAPI.html" target="_top" xlink:title=" ">
<polygon fill="white" stroke="#666666" points="363.5,-67.5 217.5,-67.5 217.5,-37.5 363.5,-37.5 363.5,-67.5"/>
<text text-anchor="start" x="225.5" y="-55.5" font-family="Helvetica,sans-Serif" font-size="10.00">com.fs.starfarer.api.campaign.</text>
<text text-anchor="middle" x="290.5" y="-44.5" font-family="Helvetica,sans-Serif" font-size="10.00">CargoAPI</text>
</a>
</g>
</g>
<!-- Node6&#45;&gt;Node1 -->
<g id="edge5" class="edge">
<title>Node6&#45;&gt;Node1</title>
<path fill="none" stroke="#9a32cd" stroke-dasharray="5,2" d="M374.93,-65.67C412.84,-71.66 457.95,-78.78 497.47,-85.02"/>
<polygon fill="#9a32cd" stroke="#9a32cd" points="375.85,-62.27 365.42,-64.17 374.76,-69.19 375.85,-62.27"/>
<text text-anchor="middle" x="431" y="-82.5" font-family="Helvetica,sans-Serif" font-size="10.00"> cargo</text>
</g>
<!-- Node7 -->
<g id="node7" class="node">
<title>Node7</title>
<g id="a_node7"><a xlink:title=" ">
<polygon fill="white" stroke="#bfbfbf" points="317,-19 264,-19 264,0 317,0 317,-19"/>
<text text-anchor="middle" x="290.5" y="-7" font-family="Helvetica,sans-Serif" font-size="10.00">Random</text>
</a>
</g>
</g>
<!-- Node7&#45;&gt;Node1 -->
<g id="edge6" class="edge">
<title>Node7&#45;&gt;Node1</title>
<path fill="none" stroke="#9a32cd" stroke-dasharray="5,2" d="M328.28,-17.48C342.86,-20.75 359.76,-24.66 375,-28.5 417.03,-39.09 427.71,-41.31 469,-54.5 498.27,-63.85 530.85,-75.74 555.61,-85.08"/>
<polygon fill="#9a32cd" stroke="#9a32cd" points="329.15,-14.09 318.63,-15.34 327.64,-20.93 329.15,-14.09"/>
<text text-anchor="middle" x="431" y="-57.5" font-family="Helvetica,sans-Serif" font-size="10.00"> itemGenRandom</text>
</g>
</g>
</svg>
