<?xml version="1.0" encoding="UTF-8" standalone="no"?>
<!DOCTYPE svg PUBLIC "-//W3C//DTD SVG 1.1//EN"
 "http://www.w3.org/Graphics/SVG/1.1/DTD/svg11.dtd">
<!-- Generated by graphviz version 12.2.0 (20241103.1931)
 -->
<!-- Title: com.fs.starfarer.api.impl.campaign.fleets.AutoDespawnScript Pages: 1 -->
<svg width="787pt" height="100pt"
 viewBox="0.00 0.00 787.25 99.50" xmlns="http://www.w3.org/2000/svg" xmlns:xlink="http://www.w3.org/1999/xlink">
<g id="graph0" class="graph" transform="scale(1 1) rotate(0) translate(4 95.5)">
<title>com.fs.starfarer.api.impl.campaign.fleets.AutoDespawnScript</title>
<!-- Node1 -->
<g id="Node000001" class="node">
<title>Node1</title>
<g id="a_Node000001"><a xlink:title=" ">
<polygon fill="#999999" stroke="#666666" points="779.25,-67.5 588.5,-67.5 588.5,-37 779.25,-37 779.25,-67.5"/>
<text text-anchor="start" x="596.5" y="-54" font-family="Helvetica,sans-Serif" font-size="10.00">com.fs.starfarer.api.impl.campaign.fleets.</text>
<text text-anchor="middle" x="683.88" y="-42.75" font-family="Helvetica,sans-Serif" font-size="10.00">AutoDespawnScript</text>
</a>
</g>
</g>
<!-- Node2 -->
<g id="Node000002" class="node">
<title>Node2</title>
<g id="a_Node000002"><a xlink:href="interfacecom_1_1fs_1_1starfarer_1_1api_1_1EveryFrameScript.html" target="_top" xlink:title=" ">
<polygon fill="white" stroke="#666666" points="522.12,-91.5 397.38,-91.5 397.38,-61 522.12,-61 522.12,-91.5"/>
<text text-anchor="start" x="405.38" y="-78" font-family="Helvetica,sans-Serif" font-size="10.00">com.fs.starfarer.api.Every</text>
<text text-anchor="middle" x="459.75" y="-66.75" font-family="Helvetica,sans-Serif" font-size="10.00">FrameScript</text>
</a>
</g>
</g>
<!-- Node2&#45;&gt;Node1 -->
<g id="edge1_Node000001_Node000002" class="edge">
<title>Node2&#45;&gt;Node1</title>
<g id="a_edge1_Node000001_Node000002"><a xlink:title=" ">
<path fill="none" stroke="#63b8ff" d="M533.8,-68.36C551.15,-66.48 569.91,-64.46 588.08,-62.49"/>
<polygon fill="#63b8ff" stroke="#63b8ff" points="533.7,-64.85 524.13,-69.4 534.45,-71.81 533.7,-64.85"/>
</a>
</g>
</g>
<!-- Node3 -->
<g id="Node000003" class="node">
<title>Node3</title>
<g id="a_Node000003"><a xlink:href="interfacecom_1_1fs_1_1starfarer_1_1api_1_1campaign_1_1CampaignFleetAPI.html" target="_top" xlink:title=" ">
<polygon fill="white" stroke="#666666" points="532.25,-42.5 387.25,-42.5 387.25,-12 532.25,-12 532.25,-42.5"/>
<text text-anchor="start" x="395.25" y="-29" font-family="Helvetica,sans-Serif" font-size="10.00">com.fs.starfarer.api.campaign.</text>
<text text-anchor="middle" x="459.75" y="-17.75" font-family="Helvetica,sans-Serif" font-size="10.00">CampaignFleetAPI</text>
</a>
</g>
</g>
<!-- Node3&#45;&gt;Node1 -->
<g id="edge2_Node000001_Node000003" class="edge">
<title>Node3&#45;&gt;Node1</title>
<g id="a_edge2_Node000001_Node000003"><a xlink:title=" ">
<path fill="none" stroke="#9a32cd" stroke-dasharray="5,2" d="M543.97,-36.62C558.41,-38.24 573.52,-39.94 588.23,-41.6"/>
<polygon fill="#9a32cd" stroke="#9a32cd" points="544.39,-33.14 534.06,-35.5 543.61,-40.1 544.39,-33.14"/>
</a>
</g>
<text text-anchor="middle" x="560.38" y="-40.75" font-family="Helvetica,sans-Serif" font-size="10.00" fill="grey"> fleet</text>
</g>
<!-- Node4 -->
<g id="Node000004" class="node">
<title>Node4</title>
<g id="a_Node000004"><a xlink:href="interfacecom_1_1fs_1_1starfarer_1_1api_1_1campaign_1_1SectorEntityToken.html" target="_top" xlink:title=" ">
<polygon fill="white" stroke="#666666" points="350.25,-79.5 205.25,-79.5 205.25,-49 350.25,-49 350.25,-79.5"/>
<text text-anchor="start" x="213.25" y="-66" font-family="Helvetica,sans-Serif" font-size="10.00">com.fs.starfarer.api.campaign.</text>
<text text-anchor="middle" x="277.75" y="-54.75" font-family="Helvetica,sans-Serif" font-size="10.00">SectorEntityToken</text>
</a>
</g>
</g>
<!-- Node4&#45;&gt;Node3 -->
<g id="edge3_Node000003_Node000004" class="edge">
<title>Node4&#45;&gt;Node3</title>
<g id="a_edge3_Node000003_Node000004"><a xlink:title=" ">
<path fill="none" stroke="#63b8ff" d="M361.69,-47.2C370.12,-45.47 378.64,-43.72 386.95,-42.01"/>
<polygon fill="#63b8ff" stroke="#63b8ff" points="361.24,-43.72 352.15,-49.16 362.65,-50.58 361.24,-43.72"/>
</a>
</g>
</g>
<!-- Node5 -->
<g id="Node000005" class="node">
<title>Node5</title>
<g id="a_Node000005"><a xlink:href="interfacecom_1_1fs_1_1starfarer_1_1api_1_1campaign_1_1rules_1_1HasMemory.html" target="_top" xlink:title=" ">
<polygon fill="white" stroke="#666666" points="168.25,-79.5 0,-79.5 0,-49 168.25,-49 168.25,-79.5"/>
<text text-anchor="start" x="8" y="-66" font-family="Helvetica,sans-Serif" font-size="10.00">com.fs.starfarer.api.campaign.rules.</text>
<text text-anchor="middle" x="84.12" y="-54.75" font-family="Helvetica,sans-Serif" font-size="10.00">HasMemory</text>
</a>
</g>
</g>
<!-- Node5&#45;&gt;Node4 -->
<g id="edge4_Node000004_Node000005" class="edge">
<title>Node5&#45;&gt;Node4</title>
<g id="a_edge4_Node000004_Node000005"><a xlink:title=" ">
<path fill="none" stroke="#63b8ff" d="M180.02,-64.25C188.4,-64.25 196.79,-64.25 204.94,-64.25"/>
<polygon fill="#63b8ff" stroke="#63b8ff" points="180.13,-60.75 170.13,-64.25 180.13,-67.75 180.13,-60.75"/>
</a>
</g>
</g>
<!-- Node6 -->
<g id="Node000006" class="node">
<title>Node6</title>
<g id="a_Node000006"><a xlink:href="interfacecom_1_1fs_1_1starfarer_1_1api_1_1campaign_1_1FleetOrStubAPI.html" target="_top" xlink:title=" ">
<polygon fill="white" stroke="#666666" points="350.25,-30.5 205.25,-30.5 205.25,0 350.25,0 350.25,-30.5"/>
<text text-anchor="start" x="213.25" y="-17" font-family="Helvetica,sans-Serif" font-size="10.00">com.fs.starfarer.api.campaign.</text>
<text text-anchor="middle" x="277.75" y="-5.75" font-family="Helvetica,sans-Serif" font-size="10.00">FleetOrStubAPI</text>
</a>
</g>
</g>
<!-- Node6&#45;&gt;Node3 -->
<g id="edge5_Node000003_Node000006" class="edge">
<title>Node6&#45;&gt;Node3</title>
<g id="a_edge5_Node000003_Node000006"><a xlink:title=" ">
<path fill="none" stroke="#63b8ff" d="M361.97,-20.8C370.31,-21.35 378.74,-21.92 386.95,-22.46"/>
<polygon fill="#63b8ff" stroke="#63b8ff" points="362.39,-17.32 352.18,-20.15 361.92,-24.3 362.39,-17.32"/>
</a>
</g>
</g>
</g>
</svg>
