<?xml version="1.0" encoding="UTF-8" standalone="no"?>
<!DOCTYPE svg PUBLIC "-//W3C//DTD SVG 1.1//EN"
 "http://www.w3.org/Graphics/SVG/1.1/DTD/svg11.dtd">
<!-- Generated by graphviz version 2.44.0 ()
 -->
<!-- Title: com.fs.starfarer.api.impl.campaign.skills.CoordinatedManeuversScript Pages: 1 -->
<svg width="789pt" height="88pt"
 viewBox="0.00 0.00 789.00 88.00" xmlns="http://www.w3.org/2000/svg" xmlns:xlink="http://www.w3.org/1999/xlink">
<g id="graph0" class="graph" transform="scale(1 1) rotate(0) translate(4 84)">
<title>com.fs.starfarer.api.impl.campaign.skills.CoordinatedManeuversScript</title>
<!-- Node1 -->
<g id="node1" class="node">
<title>Node1</title>
<g id="a_node1"><a xlink:title=" ">
<polygon fill="#bfbfbf" stroke="black" points="590,-24.5 590,-54.5 781,-54.5 781,-24.5 590,-24.5"/>
<text text-anchor="start" x="598" y="-42.5" font-family="Helvetica,sans-Serif" font-size="10.00">com.fs.starfarer.api.impl.campaign.skills.</text>
<text text-anchor="middle" x="685.5" y="-31.5" font-family="Helvetica,sans-Serif" font-size="10.00">CoordinatedManeuversScript</text>
</a>
</g>
</g>
<!-- Node2 -->
<g id="node2" class="node">
<title>Node2</title>
<g id="a_node2"><a xlink:href="classcom_1_1fs_1_1starfarer_1_1api_1_1combat_1_1BaseEveryFrameCombatPlugin.html" target="_top" xlink:title=" ">
<polygon fill="none" stroke="black" points="346,-49.5 346,-79.5 498,-79.5 498,-49.5 346,-49.5"/>
<text text-anchor="start" x="354" y="-67.5" font-family="Helvetica,sans-Serif" font-size="10.00">com.fs.starfarer.api.combat.</text>
<text text-anchor="middle" x="422" y="-56.5" font-family="Helvetica,sans-Serif" font-size="10.00">BaseEveryFrameCombatPlugin</text>
</a>
</g>
</g>
<!-- Node2&#45;&gt;Node1 -->
<g id="edge1" class="edge">
<title>Node2&#45;&gt;Node1</title>
<path fill="none" stroke="midnightblue" d="M508.48,-56.33C534.46,-53.84 563.17,-51.1 589.72,-48.56"/>
<polygon fill="midnightblue" stroke="midnightblue" points="507.91,-52.87 498.29,-57.3 508.57,-59.83 507.91,-52.87"/>
</g>
<!-- Node3 -->
<g id="node3" class="node">
<title>Node3</title>
<g id="a_node3"><a xlink:href="interfacecom_1_1fs_1_1starfarer_1_1api_1_1combat_1_1EveryFrameCombatPlugin.html" target="_top" xlink:title=" ">
<polygon fill="none" stroke="black" points="173,-49.5 173,-79.5 309,-79.5 309,-49.5 173,-49.5"/>
<text text-anchor="start" x="181" y="-67.5" font-family="Helvetica,sans-Serif" font-size="10.00">com.fs.starfarer.api.combat.</text>
<text text-anchor="middle" x="241" y="-56.5" font-family="Helvetica,sans-Serif" font-size="10.00">EveryFrameCombatPlugin</text>
</a>
</g>
</g>
<!-- Node3&#45;&gt;Node2 -->
<g id="edge2" class="edge">
<title>Node3&#45;&gt;Node2</title>
<path fill="none" stroke="midnightblue" d="M319.41,-64.5C328.21,-64.5 337.18,-64.5 345.95,-64.5"/>
<polygon fill="midnightblue" stroke="midnightblue" points="319.16,-61 309.16,-64.5 319.16,-68 319.16,-61"/>
</g>
<!-- Node4 -->
<g id="node4" class="node">
<title>Node4</title>
<g id="a_node4"><a xlink:href="interfacecom_1_1fs_1_1starfarer_1_1api_1_1combat_1_1CombatEnginePlugin.html" target="_top" xlink:title=" ">
<polygon fill="none" stroke="black" points="0,-49.5 0,-79.5 136,-79.5 136,-49.5 0,-49.5"/>
<text text-anchor="start" x="8" y="-67.5" font-family="Helvetica,sans-Serif" font-size="10.00">com.fs.starfarer.api.combat.</text>
<text text-anchor="middle" x="68" y="-56.5" font-family="Helvetica,sans-Serif" font-size="10.00">CombatEnginePlugin</text>
</a>
</g>
</g>
<!-- Node4&#45;&gt;Node3 -->
<g id="edge3" class="edge">
<title>Node4&#45;&gt;Node3</title>
<path fill="none" stroke="midnightblue" d="M146.38,-64.5C155.2,-64.5 164.14,-64.5 172.82,-64.5"/>
<polygon fill="midnightblue" stroke="midnightblue" points="146.09,-61 136.09,-64.5 146.09,-68 146.09,-61"/>
</g>
<!-- Node5 -->
<g id="node5" class="node">
<title>Node5</title>
<g id="a_node5"><a xlink:href="interfacecom_1_1fs_1_1starfarer_1_1api_1_1combat_1_1ShipAPI.html" target="_top" xlink:title=" ">
<polygon fill="none" stroke="black" points="354,-0.5 354,-30.5 490,-30.5 490,-0.5 354,-0.5"/>
<text text-anchor="start" x="362" y="-18.5" font-family="Helvetica,sans-Serif" font-size="10.00">com.fs.starfarer.api.combat.</text>
<text text-anchor="middle" x="422" y="-7.5" font-family="Helvetica,sans-Serif" font-size="10.00">ShipAPI</text>
</a>
</g>
</g>
<!-- Node5&#45;&gt;Node1 -->
<g id="edge4" class="edge">
<title>Node5&#45;&gt;Node1</title>
<path fill="none" stroke="#9a32cd" stroke-dasharray="5,2" d="M500.14,-22.58C528.17,-25.15 560.18,-28.09 589.57,-30.79"/>
<polygon fill="#9a32cd" stroke="#9a32cd" points="500.28,-19.08 490,-21.65 499.64,-26.05 500.28,-19.08"/>
<text text-anchor="middle" x="544" y="-32.5" font-family="Helvetica,sans-Serif" font-size="10.00"> undoDPMod</text>
</g>
<!-- Node6 -->
<g id="node6" class="node">
<title>Node6</title>
<g id="a_node6"><a xlink:href="interfacecom_1_1fs_1_1starfarer_1_1api_1_1combat_1_1CombatEntityAPI.html" target="_top" xlink:title=" ">
<polygon fill="none" stroke="black" points="173,-0.5 173,-30.5 309,-30.5 309,-0.5 173,-0.5"/>
<text text-anchor="start" x="181" y="-18.5" font-family="Helvetica,sans-Serif" font-size="10.00">com.fs.starfarer.api.combat.</text>
<text text-anchor="middle" x="241" y="-7.5" font-family="Helvetica,sans-Serif" font-size="10.00">CombatEntityAPI</text>
</a>
</g>
</g>
<!-- Node6&#45;&gt;Node5 -->
<g id="edge5" class="edge">
<title>Node6&#45;&gt;Node5</title>
<path fill="none" stroke="midnightblue" d="M319.18,-15.5C330.69,-15.5 342.48,-15.5 353.76,-15.5"/>
<polygon fill="midnightblue" stroke="midnightblue" points="319.16,-12 309.16,-15.5 319.16,-19 319.16,-12"/>
</g>
</g>
</svg>
