<?xml version="1.0" encoding="UTF-8" standalone="no"?>
<!DOCTYPE svg PUBLIC "-//W3C//DTD SVG 1.1//EN"
 "http://www.w3.org/Graphics/SVG/1.1/DTD/svg11.dtd">
<!-- Generated by graphviz version 7.0.5 (20221223.1930)
 -->
<!-- Title: com.fs.starfarer.api.impl.campaign.graid.BlueprintGroundRaidObjectivePluginImpl Pages: 1 -->
<svg width="1013pt" height="172pt"
 viewBox="0.00 0.00 1013.00 171.50" xmlns="http://www.w3.org/2000/svg" xmlns:xlink="http://www.w3.org/1999/xlink">
<g id="graph0" class="graph" transform="scale(1 1) rotate(0) translate(4 167.5)">
<title>com.fs.starfarer.api.impl.campaign.graid.BlueprintGroundRaidObjectivePluginImpl</title>
<!-- Node1 -->
<g id="node1" class="node">
<title>Node1</title>
<g id="a_node1"><a xlink:title=" ">
<polygon fill="#999999" stroke="#666666" points="1005,-52.5 812,-52.5 812,-22.5 1005,-22.5 1005,-52.5"/>
<text text-anchor="start" x="820" y="-40.5" font-family="Helvetica,sans-Serif" font-size="10.00">com.fs.starfarer.api.impl.campaign.graid.</text>
<text text-anchor="middle" x="908.5" y="-29.5" font-family="Helvetica,sans-Serif" font-size="10.00">BlueprintGroundRaidObjectivePluginImpl</text>
</a>
</g>
</g>
<!-- Node2 -->
<g id="node2" class="node">
<title>Node2</title>
<g id="a_node2"><a xlink:href="classcom_1_1fs_1_1starfarer_1_1api_1_1impl_1_1campaign_1_1graid_1_1BaseGroundRaidObjectivePluginImpl.html" target="_top" xlink:title=" ">
<polygon fill="white" stroke="#bfbfbf" points="747,-87.5 558,-87.5 558,-57.5 747,-57.5 747,-87.5"/>
<text text-anchor="start" x="566" y="-75.5" font-family="Helvetica,sans-Serif" font-size="10.00">com.fs.starfarer.api.impl.campaign.graid.</text>
<text text-anchor="middle" x="652.5" y="-64.5" font-family="Helvetica,sans-Serif" font-size="10.00">BaseGroundRaidObjectivePluginImpl</text>
</a>
</g>
</g>
<!-- Node2&#45;&gt;Node1 -->
<g id="edge1" class="edge">
<title>Node2&#45;&gt;Node1</title>
<path fill="none" stroke="#63b8ff" d="M758.57,-58.02C776.24,-55.59 794.49,-53.07 811.9,-50.67"/>
<polygon fill="#63b8ff" stroke="#63b8ff" points="758.29,-54.53 748.86,-59.36 759.24,-61.46 758.29,-54.53"/>
</g>
<!-- Node3 -->
<g id="node3" class="node">
<title>Node3</title>
<g id="a_node3"><a xlink:href="interfacecom_1_1fs_1_1starfarer_1_1api_1_1impl_1_1campaign_1_1graid_1_1GroundRaidObjectivePlugin.html" target="_top" xlink:title=" ">
<polygon fill="white" stroke="#bfbfbf" points="395,-163.5 206,-163.5 206,-133.5 395,-133.5 395,-163.5"/>
<text text-anchor="start" x="214" y="-151.5" font-family="Helvetica,sans-Serif" font-size="10.00">com.fs.starfarer.api.impl.campaign.graid.</text>
<text text-anchor="middle" x="300.5" y="-140.5" font-family="Helvetica,sans-Serif" font-size="10.00">GroundRaidObjectivePlugin</text>
</a>
</g>
</g>
<!-- Node3&#45;&gt;Node2 -->
<g id="edge2" class="edge">
<title>Node3&#45;&gt;Node2</title>
<path fill="none" stroke="#63b8ff" d="M406.74,-132.08C448.44,-124.91 496.69,-115.78 540,-105.5 561.02,-100.51 583.94,-93.93 603.51,-87.95"/>
<polygon fill="#63b8ff" stroke="#63b8ff" points="406.2,-128.62 396.93,-133.75 407.38,-135.52 406.2,-128.62"/>
</g>
<!-- Node4 -->
<g id="node4" class="node">
<title>Node4</title>
<g id="a_node4"><a xlink:href="interfacecom_1_1fs_1_1starfarer_1_1api_1_1campaign_1_1econ_1_1MarketAPI.html" target="_top" xlink:title=" ">
<polygon fill="white" stroke="#bfbfbf" points="385,-115.5 216,-115.5 216,-85.5 385,-85.5 385,-115.5"/>
<text text-anchor="start" x="224" y="-103.5" font-family="Helvetica,sans-Serif" font-size="10.00">com.fs.starfarer.api.campaign.econ.</text>
<text text-anchor="middle" x="300.5" y="-92.5" font-family="Helvetica,sans-Serif" font-size="10.00">MarketAPI</text>
</a>
</g>
</g>
<!-- Node4&#45;&gt;Node2 -->
<g id="edge3" class="edge">
<title>Node4&#45;&gt;Node2</title>
<path fill="none" stroke="#9a32cd" stroke-dasharray="5,2" d="M396.8,-92.88C446.78,-88.88 507.78,-84 557.56,-80.02"/>
<polygon fill="#9a32cd" stroke="#9a32cd" points="396.53,-89.39 386.84,-93.67 397.09,-96.36 396.53,-89.39"/>
<text text-anchor="middle" x="476.5" y="-93.5" font-family="Helvetica,sans-Serif" font-size="10.00"> market</text>
</g>
<!-- Node5 -->
<g id="node5" class="node">
<title>Node5</title>
<g id="a_node5"><a xlink:href="interfacecom_1_1fs_1_1starfarer_1_1api_1_1campaign_1_1rules_1_1HasMemory.html" target="_top" xlink:title=" ">
<polygon fill="white" stroke="#bfbfbf" points="169,-115.5 0,-115.5 0,-85.5 169,-85.5 169,-115.5"/>
<text text-anchor="start" x="8" y="-103.5" font-family="Helvetica,sans-Serif" font-size="10.00">com.fs.starfarer.api.campaign.rules.</text>
<text text-anchor="middle" x="84.5" y="-92.5" font-family="Helvetica,sans-Serif" font-size="10.00">HasMemory</text>
</a>
</g>
</g>
<!-- Node5&#45;&gt;Node4 -->
<g id="edge4" class="edge">
<title>Node5&#45;&gt;Node4</title>
<path fill="none" stroke="#63b8ff" d="M180.62,-100.5C192.34,-100.5 204.25,-100.5 215.78,-100.5"/>
<polygon fill="#63b8ff" stroke="#63b8ff" points="180.98,-97 170.98,-100.5 180.98,-104 180.98,-97"/>
</g>
<!-- Node6 -->
<g id="node6" class="node">
<title>Node6</title>
<g id="a_node6"><a xlink:href="interfacecom_1_1fs_1_1starfarer_1_1api_1_1campaign_1_1econ_1_1Industry.html" target="_top" xlink:title=" ">
<polygon fill="white" stroke="#bfbfbf" points="385,-67.5 216,-67.5 216,-37.5 385,-37.5 385,-67.5"/>
<text text-anchor="start" x="224" y="-55.5" font-family="Helvetica,sans-Serif" font-size="10.00">com.fs.starfarer.api.campaign.econ.</text>
<text text-anchor="middle" x="300.5" y="-44.5" font-family="Helvetica,sans-Serif" font-size="10.00">Industry</text>
</a>
</g>
</g>
<!-- Node6&#45;&gt;Node2 -->
<g id="edge5" class="edge">
<title>Node6&#45;&gt;Node2</title>
<path fill="none" stroke="#9a32cd" stroke-dasharray="5,2" d="M396.95,-54.09C440.6,-55.24 492.96,-57.18 540,-60.5 545.73,-60.9 551.62,-61.37 557.56,-61.89"/>
<polygon fill="#9a32cd" stroke="#9a32cd" points="397.06,-50.6 386.98,-53.84 396.89,-57.59 397.06,-50.6"/>
<text text-anchor="middle" x="476.5" y="-63.5" font-family="Helvetica,sans-Serif" font-size="10.00"> source</text>
</g>
<!-- Node7 -->
<g id="node7" class="node">
<title>Node7</title>
<g id="a_node7"><a xlink:title=" ">
<polygon fill="white" stroke="#bfbfbf" points="320,-19 281,-19 281,0 320,0 320,-19"/>
<text text-anchor="middle" x="300.5" y="-7" font-family="Helvetica,sans-Serif" font-size="10.00">Color</text>
</a>
</g>
</g>
<!-- Node7&#45;&gt;Node2 -->
<g id="edge6" class="edge">
<title>Node7&#45;&gt;Node2</title>
<path fill="none" stroke="#9a32cd" stroke-dasharray="5,2" d="M331.67,-10.05C377.6,-11.61 467.38,-17.48 540,-39.5 548.56,-42.1 549.62,-45.37 558,-48.5 566.32,-51.61 575.2,-54.46 584.06,-57.02"/>
<polygon fill="#9a32cd" stroke="#9a32cd" points="331.8,-6.55 321.71,-9.77 331.6,-13.55 331.8,-6.55"/>
<text text-anchor="middle" x="476.5" y="-42.5" font-family="Helvetica,sans-Serif" font-size="10.00"> assignedForcesColumnColor</text>
</g>
<!-- Node8 -->
<g id="node8" class="node">
<title>Node8</title>
<g id="a_node8"><a xlink:href="interfacecom_1_1fs_1_1starfarer_1_1api_1_1campaign_1_1CargoAPI.html" target="_top" xlink:title=" ">
<polygon fill="white" stroke="#666666" points="725.5,-39.5 579.5,-39.5 579.5,-9.5 725.5,-9.5 725.5,-39.5"/>
<text text-anchor="start" x="587.5" y="-27.5" font-family="Helvetica,sans-Serif" font-size="10.00">com.fs.starfarer.api.campaign.</text>
<text text-anchor="middle" x="652.5" y="-16.5" font-family="Helvetica,sans-Serif" font-size="10.00">CargoAPI</text>
</a>
</g>
</g>
<!-- Node8&#45;&gt;Node1 -->
<g id="edge7" class="edge">
<title>Node8&#45;&gt;Node1</title>
<path fill="none" stroke="#9a32cd" stroke-dasharray="5,2" d="M737.42,-28.8C761.21,-30.01 787.29,-31.35 811.72,-32.6"/>
<polygon fill="#9a32cd" stroke="#9a32cd" points="737.62,-25.3 727.46,-28.29 737.27,-32.29 737.62,-25.3"/>
<text text-anchor="middle" x="779.5" y="-34.5" font-family="Helvetica,sans-Serif" font-size="10.00"> looted</text>
</g>
</g>
</svg>
