<?xml version="1.0" encoding="UTF-8" standalone="no"?>
<!DOCTYPE svg PUBLIC "-//W3C//DTD SVG 1.1//EN"
 "http://www.w3.org/Graphics/SVG/1.1/DTD/svg11.dtd">
<!-- Generated by graphviz version 12.2.0 (20241103.1931)
 -->
<!-- Title: com.fs.starfarer.api.impl.campaign.econ.impl.MilitaryBase Pages: 1 -->
<svg width="666pt" height="158pt"
 viewBox="0.00 0.00 665.75 157.50" xmlns="http://www.w3.org/2000/svg" xmlns:xlink="http://www.w3.org/1999/xlink">
<g id="graph0" class="graph" transform="scale(1 1) rotate(0) translate(4 153.5)">
<title>com.fs.starfarer.api.impl.campaign.econ.impl.MilitaryBase</title>
<!-- Node1 -->
<g id="Node000001" class="node">
<title>Node1</title>
<g id="a_Node000001"><a xlink:title=" ">
<polygon fill="#999999" stroke="#666666" points="657.75,-79.5 449,-79.5 449,-49 657.75,-49 657.75,-79.5"/>
<text text-anchor="start" x="457" y="-66" font-family="Helvetica,sans-Serif" font-size="10.00">com.fs.starfarer.api.impl.campaign.econ.impl.</text>
<text text-anchor="middle" x="553.38" y="-54.75" font-family="Helvetica,sans-Serif" font-size="10.00">MilitaryBase</text>
</a>
</g>
</g>
<!-- Node2 -->
<g id="Node000002" class="node">
<title>Node2</title>
<g id="a_Node000002"><a xlink:href="classcom_1_1fs_1_1starfarer_1_1api_1_1impl_1_1campaign_1_1econ_1_1impl_1_1BaseIndustry.html" target="_top" xlink:title=" ">
<polygon fill="white" stroke="#666666" points="413,-128.5 204.25,-128.5 204.25,-98 413,-98 413,-128.5"/>
<text text-anchor="start" x="212.25" y="-115" font-family="Helvetica,sans-Serif" font-size="10.00">com.fs.starfarer.api.impl.campaign.econ.impl.</text>
<text text-anchor="middle" x="308.62" y="-103.75" font-family="Helvetica,sans-Serif" font-size="10.00">BaseIndustry</text>
</a>
</g>
</g>
<!-- Node2&#45;&gt;Node1 -->
<g id="edge1_Node000001_Node000002" class="edge">
<title>Node2&#45;&gt;Node1</title>
<g id="a_edge1_Node000001_Node000002"><a xlink:title=" ">
<path fill="none" stroke="#63b8ff" d="M398.71,-95.27C423.59,-90.25 450.42,-84.83 474.59,-79.95"/>
<polygon fill="#63b8ff" stroke="#63b8ff" points="398.03,-91.83 388.92,-97.24 399.41,-98.7 398.03,-91.83"/>
</a>
</g>
</g>
<!-- Node3 -->
<g id="Node000003" class="node">
<title>Node3</title>
<g id="a_Node000003"><a xlink:href="interfacecom_1_1fs_1_1starfarer_1_1api_1_1campaign_1_1econ_1_1Industry.html" target="_top" xlink:title=" ">
<polygon fill="white" stroke="#666666" points="168.25,-149.5 0,-149.5 0,-119 168.25,-119 168.25,-149.5"/>
<text text-anchor="start" x="8" y="-136" font-family="Helvetica,sans-Serif" font-size="10.00">com.fs.starfarer.api.campaign.econ.</text>
<text text-anchor="middle" x="84.12" y="-124.75" font-family="Helvetica,sans-Serif" font-size="10.00">Industry</text>
</a>
</g>
</g>
<!-- Node3&#45;&gt;Node2 -->
<g id="edge2_Node000002_Node000003" class="edge">
<title>Node3&#45;&gt;Node2</title>
<g id="a_edge2_Node000002_Node000003"><a xlink:title=" ">
<path fill="none" stroke="#63b8ff" d="M179.86,-125.31C187.89,-124.55 196.03,-123.78 204.12,-123.02"/>
<polygon fill="#63b8ff" stroke="#63b8ff" points="179.74,-121.8 170.12,-126.23 180.4,-128.77 179.74,-121.8"/>
</a>
</g>
</g>
<!-- Node4 -->
<g id="Node000004" class="node">
<title>Node4</title>
<g id="a_Node000004"><a xlink:title=" ">
<polygon fill="white" stroke="#666666" points="113.5,-100.88 54.75,-100.88 54.75,-81.62 113.5,-81.62 113.5,-100.88"/>
<text text-anchor="middle" x="84.12" y="-87.38" font-family="Helvetica,sans-Serif" font-size="10.00">Cloneable</text>
</a>
</g>
</g>
<!-- Node4&#45;&gt;Node2 -->
<g id="edge3_Node000002_Node000004" class="edge">
<title>Node4&#45;&gt;Node2</title>
<g id="a_edge3_Node000002_Node000004"><a xlink:title=" ">
<path fill="none" stroke="#63b8ff" d="M125.01,-95.19C147.13,-97.38 175.77,-100.21 203.78,-102.98"/>
<polygon fill="#63b8ff" stroke="#63b8ff" points="125.56,-91.73 115.26,-94.23 124.87,-98.7 125.56,-91.73"/>
</a>
</g>
</g>
<!-- Node5 -->
<g id="Node000005" class="node">
<title>Node5</title>
<g id="a_Node000005"><a xlink:title=" ">
<polygon fill="white" stroke="#666666" points="404,-79.5 213.25,-79.5 213.25,-49 404,-49 404,-79.5"/>
<text text-anchor="start" x="221.25" y="-66" font-family="Helvetica,sans-Serif" font-size="10.00">com.fs.starfarer.api.impl.campaign.fleets.</text>
<text text-anchor="middle" x="308.62" y="-54.75" font-family="Helvetica,sans-Serif" font-size="10.00">RouteManager.RouteFleetSpawner</text>
</a>
</g>
</g>
<!-- Node5&#45;&gt;Node1 -->
<g id="edge4_Node000001_Node000005" class="edge">
<title>Node5&#45;&gt;Node1</title>
<g id="a_edge4_Node000001_Node000005"><a xlink:title=" ">
<path fill="none" stroke="#63b8ff" d="M415.59,-64.25C426.63,-64.25 437.83,-64.25 448.84,-64.25"/>
<polygon fill="#63b8ff" stroke="#63b8ff" points="415.69,-60.75 405.69,-64.25 415.69,-67.75 415.69,-60.75"/>
</a>
</g>
</g>
<!-- Node6 -->
<g id="Node000006" class="node">
<title>Node6</title>
<g id="a_Node000006"><a xlink:href="interfacecom_1_1fs_1_1starfarer_1_1api_1_1campaign_1_1listeners_1_1FleetEventListener.html" target="_top" xlink:title=" ">
<polygon fill="white" stroke="#666666" points="400.62,-30.5 216.62,-30.5 216.62,0 400.62,0 400.62,-30.5"/>
<text text-anchor="start" x="224.62" y="-17" font-family="Helvetica,sans-Serif" font-size="10.00">com.fs.starfarer.api.campaign.listeners.</text>
<text text-anchor="middle" x="308.62" y="-5.75" font-family="Helvetica,sans-Serif" font-size="10.00">FleetEventListener</text>
</a>
</g>
</g>
<!-- Node6&#45;&gt;Node1 -->
<g id="edge5_Node000001_Node000006" class="edge">
<title>Node6&#45;&gt;Node1</title>
<g id="a_edge5_Node000001_Node000006"><a xlink:title=" ">
<path fill="none" stroke="#63b8ff" d="M398.71,-33.23C423.59,-38.25 450.42,-43.67 474.59,-48.55"/>
<polygon fill="#63b8ff" stroke="#63b8ff" points="399.41,-29.8 388.92,-31.26 398.03,-36.67 399.41,-29.8"/>
</a>
</g>
</g>
</g>
</svg>
