<?xml version="1.0" encoding="UTF-8" standalone="no"?>
<!DOCTYPE svg PUBLIC "-//W3C//DTD SVG 1.1//EN"
 "http://www.w3.org/Graphics/SVG/1.1/DTD/svg11.dtd">
<!-- Generated by graphviz version 7.0.5 (20221223.1930)
 -->
<!-- Title: com.fs.starfarer.api.impl.campaign.intel.PersonBountyIntel Pages: 1 -->
<svg width="1097pt" height="622pt"
 viewBox="0.00 0.00 1097.00 622.00" xmlns="http://www.w3.org/2000/svg" xmlns:xlink="http://www.w3.org/1999/xlink">
<g id="graph0" class="graph" transform="scale(1 1) rotate(0) translate(4 618)">
<title>com.fs.starfarer.api.impl.campaign.intel.PersonBountyIntel</title>
<!-- Node1 -->
<g id="node1" class="node">
<title>Node1</title>
<g id="a_node1"><a xlink:title=" ">
<polygon fill="#999999" stroke="#666666" points="1089,-290 903,-290 903,-260 1089,-260 1089,-290"/>
<text text-anchor="start" x="911" y="-278" font-family="Helvetica,sans-Serif" font-size="10.00">com.fs.starfarer.api.impl.campaign.intel.</text>
<text text-anchor="middle" x="996" y="-267" font-family="Helvetica,sans-Serif" font-size="10.00">PersonBountyIntel</text>
</a>
</g>
</g>
<!-- Node2 -->
<g id="node2" class="node">
<title>Node2</title>
<g id="a_node2"><a xlink:href="classcom_1_1fs_1_1starfarer_1_1api_1_1impl_1_1campaign_1_1intel_1_1BaseIntelPlugin.html" target="_top" xlink:title=" ">
<polygon fill="white" stroke="#666666" points="815,-505 629,-505 629,-475 815,-475 815,-505"/>
<text text-anchor="start" x="637" y="-493" font-family="Helvetica,sans-Serif" font-size="10.00">com.fs.starfarer.api.impl.campaign.intel.</text>
<text text-anchor="middle" x="722" y="-482" font-family="Helvetica,sans-Serif" font-size="10.00">BaseIntelPlugin</text>
</a>
</g>
</g>
<!-- Node2&#45;&gt;Node1 -->
<g id="edge1" class="edge">
<title>Node2&#45;&gt;Node1</title>
<path fill="none" stroke="#63b8ff" d="M803.87,-471.17C831.45,-462.1 861.28,-449.14 885,-431 936.59,-391.54 973.66,-321.06 988.21,-290.19"/>
<polygon fill="#63b8ff" stroke="#63b8ff" points="802.96,-467.78 794.47,-474.12 805.06,-474.46 802.96,-467.78"/>
</g>
<!-- Node3 -->
<g id="node3" class="node">
<title>Node3</title>
<g id="a_node3"><a xlink:href="interfacecom_1_1fs_1_1starfarer_1_1api_1_1campaign_1_1comm_1_1IntelInfoPlugin.html" target="_top" xlink:title=" ">
<polygon fill="white" stroke="#bfbfbf" points="412.5,-518 237.5,-518 237.5,-488 412.5,-488 412.5,-518"/>
<text text-anchor="start" x="245.5" y="-506" font-family="Helvetica,sans-Serif" font-size="10.00">com.fs.starfarer.api.campaign.comm.</text>
<text text-anchor="middle" x="325" y="-495" font-family="Helvetica,sans-Serif" font-size="10.00">IntelInfoPlugin</text>
</a>
</g>
</g>
<!-- Node3&#45;&gt;Node2 -->
<g id="edge2" class="edge">
<title>Node3&#45;&gt;Node2</title>
<path fill="none" stroke="#63b8ff" d="M424.15,-499.77C486.71,-497.71 567.27,-495.06 628.67,-493.04"/>
<polygon fill="#63b8ff" stroke="#63b8ff" points="424.08,-496.27 414.2,-500.1 424.31,-503.27 424.08,-496.27"/>
</g>
<!-- Node4 -->
<g id="node4" class="node">
<title>Node4</title>
<g id="a_node4"><a xlink:href="interfacecom_1_1fs_1_1starfarer_1_1api_1_1impl_1_1campaign_1_1rulecmd_1_1CallEvent_1_1CallableEvent.html" target="_top" xlink:title=" ">
<polygon fill="white" stroke="#bfbfbf" points="426.5,-470 223.5,-470 223.5,-440 426.5,-440 426.5,-470"/>
<text text-anchor="start" x="231.5" y="-458" font-family="Helvetica,sans-Serif" font-size="10.00">com.fs.starfarer.api.impl.campaign.rulecmd.</text>
<text text-anchor="middle" x="325" y="-447" font-family="Helvetica,sans-Serif" font-size="10.00">CallEvent.CallableEvent</text>
</a>
</g>
</g>
<!-- Node4&#45;&gt;Node2 -->
<g id="edge3" class="edge">
<title>Node4&#45;&gt;Node2</title>
<path fill="none" stroke="#63b8ff" d="M438.05,-464.93C498.33,-470.27 571.77,-476.78 628.73,-481.82"/>
<polygon fill="#63b8ff" stroke="#63b8ff" points="438.73,-461.48 428.46,-464.08 438.11,-468.45 438.73,-461.48"/>
</g>
<!-- Node5 -->
<g id="node5" class="node">
<title>Node5</title>
<g id="a_node5"><a xlink:href="interfacecom_1_1fs_1_1starfarer_1_1api_1_1EveryFrameScript.html" target="_top" xlink:title=" ">
<polygon fill="white" stroke="#bfbfbf" points="387.5,-614 262.5,-614 262.5,-584 387.5,-584 387.5,-614"/>
<text text-anchor="start" x="270.5" y="-602" font-family="Helvetica,sans-Serif" font-size="10.00">com.fs.starfarer.api.Every</text>
<text text-anchor="middle" x="325" y="-591" font-family="Helvetica,sans-Serif" font-size="10.00">FrameScript</text>
</a>
</g>
</g>
<!-- Node5&#45;&gt;Node1 -->
<g id="edge8" class="edge">
<title>Node5&#45;&gt;Node1</title>
<path fill="none" stroke="#63b8ff" d="M399.28,-599.29C498.67,-596.87 679.36,-582.35 815,-514 912.65,-464.8 971.41,-334.92 989.22,-290.3"/>
<polygon fill="#63b8ff" stroke="#63b8ff" points="399.3,-595.79 389.38,-599.49 399.45,-602.79 399.3,-595.79"/>
</g>
<!-- Node5&#45;&gt;Node2 -->
<g id="edge4" class="edge">
<title>Node5&#45;&gt;Node2</title>
<path fill="none" stroke="#63b8ff" d="M399.03,-586.39C457.19,-575.45 540.3,-557.78 611,-535 637.12,-526.58 665.79,-514.77 687.31,-505.35"/>
<polygon fill="#63b8ff" stroke="#63b8ff" points="398.42,-582.94 389.23,-588.21 399.7,-589.83 398.42,-582.94"/>
</g>
<!-- Node6 -->
<g id="node6" class="node">
<title>Node6</title>
<g id="a_node6"><a xlink:href="interfacecom_1_1fs_1_1starfarer_1_1api_1_1impl_1_1campaign_1_1CommRelayEntityPlugin_1_1CommSnifferReadableIntel.html" target="_top" xlink:title=" ">
<polygon fill="white" stroke="#bfbfbf" points="444,-566 206,-566 206,-536 444,-536 444,-566"/>
<text text-anchor="start" x="214" y="-554" font-family="Helvetica,sans-Serif" font-size="10.00">com.fs.starfarer.api.impl.campaign.</text>
<text text-anchor="middle" x="325" y="-543" font-family="Helvetica,sans-Serif" font-size="10.00">CommRelayEntityPlugin.CommSnifferReadableIntel</text>
</a>
</g>
</g>
<!-- Node6&#45;&gt;Node2 -->
<g id="edge5" class="edge">
<title>Node6&#45;&gt;Node2</title>
<path fill="none" stroke="#63b8ff" d="M451.69,-533.94C501.37,-526.93 558.94,-518.47 611,-510 619.72,-508.58 628.81,-507.03 637.87,-505.45"/>
<polygon fill="#63b8ff" stroke="#63b8ff" points="451.47,-530.44 442.05,-535.29 452.44,-537.37 451.47,-530.44"/>
</g>
<!-- Node7 -->
<g id="node7" class="node">
<title>Node7</title>
<g id="a_node7"><a xlink:href="interfacecom_1_1fs_1_1starfarer_1_1api_1_1campaign_1_1SectorEntityToken.html" target="_top" xlink:title=" ">
<polygon fill="white" stroke="#666666" points="398,-422 252,-422 252,-392 398,-392 398,-422"/>
<text text-anchor="start" x="260" y="-410" font-family="Helvetica,sans-Serif" font-size="10.00">com.fs.starfarer.api.campaign.</text>
<text text-anchor="middle" x="325" y="-399" font-family="Helvetica,sans-Serif" font-size="10.00">SectorEntityToken</text>
</a>
</g>
</g>
<!-- Node7&#45;&gt;Node1 -->
<g id="edge20" class="edge">
<title>Node7&#45;&gt;Node1</title>
<path fill="none" stroke="#9a32cd" stroke-dasharray="5,2" d="M409.45,-412.37C507.58,-416.79 674.85,-418.39 815,-390 847.53,-383.41 856.17,-380.43 885,-364 921.92,-342.96 959.18,-309.71 979.45,-290.36"/>
<polygon fill="#9a32cd" stroke="#9a32cd" points="409.79,-408.88 399.64,-411.91 409.46,-415.88 409.79,-408.88"/>
<text text-anchor="middle" x="722" y="-414" font-family="Helvetica,sans-Serif" font-size="10.00"> hideoutLocation</text>
</g>
<!-- Node7&#45;&gt;Node2 -->
<g id="edge6" class="edge">
<title>Node7&#45;&gt;Node2</title>
<path fill="none" stroke="#9a32cd" stroke-dasharray="5,2" d="M409.54,-420.01C491.85,-432.86 606.05,-450.76 611,-452 634.92,-457.97 661.02,-466.88 681.79,-474.57"/>
<polygon fill="#9a32cd" stroke="#9a32cd" points="410.32,-416.59 399.9,-418.51 409.24,-423.51 410.32,-416.59"/>
<text text-anchor="middle" x="536.5" y="-455" font-family="Helvetica,sans-Serif" font-size="10.00"> postingLocation</text>
</g>
<!-- Node13 -->
<g id="node13" class="node">
<title>Node13</title>
<g id="a_node13"><a xlink:href="interfacecom_1_1fs_1_1starfarer_1_1api_1_1campaign_1_1CampaignFleetAPI.html" target="_top" xlink:title=" ">
<polygon fill="white" stroke="#666666" points="795,-381 649,-381 649,-351 795,-351 795,-381"/>
<text text-anchor="start" x="657" y="-369" font-family="Helvetica,sans-Serif" font-size="10.00">com.fs.starfarer.api.campaign.</text>
<text text-anchor="middle" x="722" y="-358" font-family="Helvetica,sans-Serif" font-size="10.00">CampaignFleetAPI</text>
</a>
</g>
</g>
<!-- Node7&#45;&gt;Node13 -->
<g id="edge16" class="edge">
<title>Node7&#45;&gt;Node13</title>
<path fill="none" stroke="#63b8ff" d="M409.56,-398.33C480.48,-390.97 581.17,-380.51 648.68,-373.51"/>
<polygon fill="#63b8ff" stroke="#63b8ff" points="409.54,-394.81 399.95,-399.32 410.26,-401.77 409.54,-394.81"/>
</g>
<!-- Node8 -->
<g id="node8" class="node">
<title>Node8</title>
<g id="a_node8"><a xlink:href="interfacecom_1_1fs_1_1starfarer_1_1api_1_1campaign_1_1rules_1_1HasMemory.html" target="_top" xlink:title=" ">
<polygon fill="white" stroke="#bfbfbf" points="169,-331 0,-331 0,-301 169,-301 169,-331"/>
<text text-anchor="start" x="8" y="-319" font-family="Helvetica,sans-Serif" font-size="10.00">com.fs.starfarer.api.campaign.rules.</text>
<text text-anchor="middle" x="84.5" y="-308" font-family="Helvetica,sans-Serif" font-size="10.00">HasMemory</text>
</a>
</g>
</g>
<!-- Node8&#45;&gt;Node7 -->
<g id="edge7" class="edge">
<title>Node8&#45;&gt;Node7</title>
<path fill="none" stroke="#63b8ff" d="M117.5,-337.37C141.06,-352.2 174.37,-371.31 206,-383 220.41,-388.33 236.28,-392.57 251.57,-395.92"/>
<polygon fill="#63b8ff" stroke="#63b8ff" points="119.62,-334.57 109.31,-332.13 115.84,-340.47 119.62,-334.57"/>
</g>
<!-- Node11 -->
<g id="node11" class="node">
<title>Node11</title>
<g id="a_node11"><a xlink:href="interfacecom_1_1fs_1_1starfarer_1_1api_1_1campaign_1_1FactionAPI.html" target="_top" xlink:title=" ">
<polygon fill="white" stroke="#666666" points="609.5,-334 463.5,-334 463.5,-304 609.5,-304 609.5,-334"/>
<text text-anchor="start" x="471.5" y="-322" font-family="Helvetica,sans-Serif" font-size="10.00">com.fs.starfarer.api.campaign.</text>
<text text-anchor="middle" x="536.5" y="-311" font-family="Helvetica,sans-Serif" font-size="10.00">FactionAPI</text>
</a>
</g>
</g>
<!-- Node8&#45;&gt;Node11 -->
<g id="edge12" class="edge">
<title>Node8&#45;&gt;Node11</title>
<path fill="none" stroke="#63b8ff" d="M180.75,-316.63C265.16,-317.2 386.58,-318.01 463.22,-318.52"/>
<polygon fill="#63b8ff" stroke="#63b8ff" points="180.89,-313.14 170.86,-316.57 180.84,-320.14 180.89,-313.14"/>
</g>
<!-- Node12 -->
<g id="node12" class="node">
<title>Node12</title>
<g id="a_node12"><a xlink:href="interfacecom_1_1fs_1_1starfarer_1_1api_1_1characters_1_1PersonAPI.html" target="_top" xlink:title=" ">
<polygon fill="white" stroke="#666666" points="611,-293 462,-293 462,-263 611,-263 611,-293"/>
<text text-anchor="start" x="470" y="-281" font-family="Helvetica,sans-Serif" font-size="10.00">com.fs.starfarer.api.characters.</text>
<text text-anchor="middle" x="536.5" y="-270" font-family="Helvetica,sans-Serif" font-size="10.00">PersonAPI</text>
</a>
</g>
</g>
<!-- Node8&#45;&gt;Node12 -->
<g id="edge14" class="edge">
<title>Node8&#45;&gt;Node12</title>
<path fill="none" stroke="#63b8ff" d="M180.68,-307.96C264.56,-300.88 385.03,-290.71 461.77,-284.23"/>
<polygon fill="#63b8ff" stroke="#63b8ff" points="180.53,-304.46 170.86,-308.79 181.12,-311.44 180.53,-304.46"/>
</g>
<!-- Node9 -->
<g id="node9" class="node">
<title>Node9</title>
<g id="a_node9"><a xlink:href="interfacecom_1_1fs_1_1starfarer_1_1api_1_1campaign_1_1listeners_1_1FleetEventListener.html" target="_top" xlink:title=" ">
<polygon fill="white" stroke="#bfbfbf" points="814.5,-239 629.5,-239 629.5,-209 814.5,-209 814.5,-239"/>
<text text-anchor="start" x="637.5" y="-227" font-family="Helvetica,sans-Serif" font-size="10.00">com.fs.starfarer.api.campaign.listeners.</text>
<text text-anchor="middle" x="722" y="-216" font-family="Helvetica,sans-Serif" font-size="10.00">FleetEventListener</text>
</a>
</g>
</g>
<!-- Node9&#45;&gt;Node1 -->
<g id="edge9" class="edge">
<title>Node9&#45;&gt;Node1</title>
<path fill="none" stroke="#63b8ff" d="M816.66,-241.56C847.8,-247.4 882.23,-253.86 912.46,-259.52"/>
<polygon fill="#63b8ff" stroke="#63b8ff" points="817.31,-238.12 806.83,-239.72 816.02,-245 817.31,-238.12"/>
</g>
<!-- Node10 -->
<g id="node10" class="node">
<title>Node10</title>
<g id="a_node10"><a xlink:title=" ">
<polygon fill="white" stroke="#bfbfbf" points="745.5,-190.5 698.5,-190.5 698.5,-171.5 745.5,-171.5 745.5,-190.5"/>
<text text-anchor="middle" x="722" y="-178.5" font-family="Helvetica,sans-Serif" font-size="10.00">Logger</text>
</a>
</g>
</g>
<!-- Node10&#45;&gt;Node1 -->
<g id="edge10" class="edge">
<title>Node10&#45;&gt;Node1</title>
<path fill="none" stroke="#9a32cd" stroke-dasharray="5,2" d="M757.11,-186.45C774.61,-189.65 796.16,-194.21 815,-200 868.39,-216.41 927.74,-242.82 963.18,-259.53"/>
<polygon fill="#9a32cd" stroke="#9a32cd" points="757.93,-183.05 747.48,-184.77 756.72,-189.94 757.93,-183.05"/>
<text text-anchor="middle" x="859" y="-226" font-family="Helvetica,sans-Serif" font-size="10.00"> log</text>
</g>
<!-- Node11&#45;&gt;Node1 -->
<g id="edge11" class="edge">
<title>Node11&#45;&gt;Node1</title>
<path fill="none" stroke="#9a32cd" stroke-dasharray="5,2" d="M621.24,-312.73C691.69,-307.22 795.02,-298.61 885,-289 890.74,-288.39 896.65,-287.73 902.6,-287.03"/>
<polygon fill="#9a32cd" stroke="#9a32cd" points="621,-309.23 611.3,-313.5 621.54,-316.21 621,-309.23"/>
<text text-anchor="middle" x="722" y="-314" font-family="Helvetica,sans-Serif" font-size="10.00"> faction</text>
</g>
<!-- Node12&#45;&gt;Node1 -->
<g id="edge13" class="edge">
<title>Node12&#45;&gt;Node1</title>
<path fill="none" stroke="#9a32cd" stroke-dasharray="5,2" d="M622.72,-277.44C702.38,-276.92 820.99,-276.14 902.83,-275.6"/>
<polygon fill="#9a32cd" stroke="#9a32cd" points="622.75,-273.94 612.77,-277.51 622.8,-280.94 622.75,-273.94"/>
<text text-anchor="middle" x="722" y="-280" font-family="Helvetica,sans-Serif" font-size="10.00"> person</text>
</g>
<!-- Node13&#45;&gt;Node1 -->
<g id="edge15" class="edge">
<title>Node13&#45;&gt;Node1</title>
<path fill="none" stroke="#9a32cd" stroke-dasharray="5,2" d="M806.5,-355.84C832.14,-351.31 860.14,-344.93 885,-336 917.06,-324.49 950.9,-304.35 972.44,-290.38"/>
<polygon fill="#9a32cd" stroke="#9a32cd" points="806.06,-352.36 796.78,-357.47 807.22,-359.26 806.06,-352.36"/>
<text text-anchor="middle" x="859" y="-352" font-family="Helvetica,sans-Serif" font-size="10.00"> fleet</text>
</g>
<!-- Node14 -->
<g id="node14" class="node">
<title>Node14</title>
<g id="a_node14"><a xlink:href="interfacecom_1_1fs_1_1starfarer_1_1api_1_1campaign_1_1FleetOrStubAPI.html" target="_top" xlink:title=" ">
<polygon fill="white" stroke="#bfbfbf" points="398,-374 252,-374 252,-344 398,-344 398,-374"/>
<text text-anchor="start" x="260" y="-362" font-family="Helvetica,sans-Serif" font-size="10.00">com.fs.starfarer.api.campaign.</text>
<text text-anchor="middle" x="325" y="-351" font-family="Helvetica,sans-Serif" font-size="10.00">FleetOrStubAPI</text>
</a>
</g>
</g>
<!-- Node14&#45;&gt;Node13 -->
<g id="edge17" class="edge">
<title>Node14&#45;&gt;Node13</title>
<path fill="none" stroke="#63b8ff" d="M409.56,-360.48C480.48,-361.74 581.17,-363.52 648.68,-364.72"/>
<polygon fill="#63b8ff" stroke="#63b8ff" points="410.02,-356.99 399.96,-360.31 409.9,-363.99 410.02,-356.99"/>
</g>
<!-- Node15 -->
<g id="node15" class="node">
<title>Node15</title>
<g id="a_node15"><a xlink:href="interfacecom_1_1fs_1_1starfarer_1_1api_1_1fleet_1_1FleetMemberAPI.html" target="_top" xlink:title=" ">
<polygon fill="white" stroke="#666666" points="783,-153 661,-153 661,-123 783,-123 783,-153"/>
<text text-anchor="start" x="669" y="-141" font-family="Helvetica,sans-Serif" font-size="10.00">com.fs.starfarer.api.fleet.</text>
<text text-anchor="middle" x="722" y="-130" font-family="Helvetica,sans-Serif" font-size="10.00">FleetMemberAPI</text>
</a>
</g>
</g>
<!-- Node15&#45;&gt;Node1 -->
<g id="edge18" class="edge">
<title>Node15&#45;&gt;Node1</title>
<path fill="none" stroke="#9a32cd" stroke-dasharray="5,2" d="M794.24,-156.48C801.29,-158.57 808.3,-160.76 815,-163 846.78,-173.63 855.86,-174.46 885,-191 920.52,-211.17 957.37,-241.59 978.13,-259.76"/>
<polygon fill="#9a32cd" stroke="#9a32cd" points="795.21,-153.12 784.63,-153.7 793.27,-159.84 795.21,-153.12"/>
<text text-anchor="middle" x="859" y="-194" font-family="Helvetica,sans-Serif" font-size="10.00"> flagship</text>
</g>
<!-- Node16 -->
<g id="node16" class="node">
<title>Node16</title>
<g id="a_node16"><a xlink:href="enumcom_1_1fs_1_1starfarer_1_1api_1_1impl_1_1campaign_1_1intel_1_1PersonBountyIntel_1_1BountyType.html" target="_top" xlink:title=" ">
<polygon fill="white" stroke="#bfbfbf" points="815,-105 629,-105 629,-75 815,-75 815,-105"/>
<text text-anchor="start" x="637" y="-93" font-family="Helvetica,sans-Serif" font-size="10.00">com.fs.starfarer.api.impl.campaign.intel.</text>
<text text-anchor="middle" x="722" y="-82" font-family="Helvetica,sans-Serif" font-size="10.00">PersonBountyIntel.BountyType</text>
</a>
</g>
</g>
<!-- Node16&#45;&gt;Node1 -->
<g id="edge19" class="edge">
<title>Node16&#45;&gt;Node1</title>
<path fill="none" stroke="#9a32cd" stroke-dasharray="5,2" d="M801.4,-108.99C806.04,-110.57 810.61,-112.24 815,-114 848.05,-127.27 857.14,-130.81 885,-153 926.27,-185.87 965.34,-234.95 983.83,-259.64"/>
<polygon fill="#9a32cd" stroke="#9a32cd" points="802.5,-105.67 791.91,-105.95 800.37,-112.34 802.5,-105.67"/>
<text text-anchor="middle" x="859" y="-156" font-family="Helvetica,sans-Serif" font-size="10.00"> bountyType</text>
</g>
<!-- Node17 -->
<g id="node17" class="node">
<title>Node17</title>
<g id="a_node17"><a xlink:href="classcom_1_1fs_1_1starfarer_1_1api_1_1impl_1_1campaign_1_1intel_1_1PersonBountyIntel_1_1BountyResult.html" target="_top" xlink:title=" ">
<polygon fill="white" stroke="#bfbfbf" points="815,-57 629,-57 629,-27 815,-27 815,-57"/>
<text text-anchor="start" x="637" y="-45" font-family="Helvetica,sans-Serif" font-size="10.00">com.fs.starfarer.api.impl.campaign.intel.</text>
<text text-anchor="middle" x="722" y="-34" font-family="Helvetica,sans-Serif" font-size="10.00">PersonBountyIntel.BountyResult</text>
</a>
</g>
</g>
<!-- Node17&#45;&gt;Node1 -->
<g id="edge21" class="edge">
<title>Node17&#45;&gt;Node1</title>
<path fill="none" stroke="#9a32cd" stroke-dasharray="5,2" d="M804.75,-60.9C832.84,-70.63 862.77,-85.02 885,-106 935.16,-153.34 973.26,-227.9 988.16,-259.75"/>
<polygon fill="#9a32cd" stroke="#9a32cd" points="806.12,-57.66 795.53,-57.86 803.94,-64.31 806.12,-57.66"/>
<text text-anchor="middle" x="859" y="-109" font-family="Helvetica,sans-Serif" font-size="10.00"> result</text>
</g>
<!-- Node18 -->
<g id="node18" class="node">
<title>Node18</title>
<g id="a_node18"><a xlink:href="enumcom_1_1fs_1_1starfarer_1_1api_1_1impl_1_1campaign_1_1intel_1_1PersonBountyIntel_1_1BountyResultType.html" target="_top" xlink:title=" ">
<polygon fill="white" stroke="#bfbfbf" points="418,-30 232,-30 232,0 418,0 418,-30"/>
<text text-anchor="start" x="240" y="-18" font-family="Helvetica,sans-Serif" font-size="10.00">com.fs.starfarer.api.impl.campaign.intel.</text>
<text text-anchor="middle" x="325" y="-7" font-family="Helvetica,sans-Serif" font-size="10.00">PersonBountyIntel.BountyResultType</text>
</a>
</g>
</g>
<!-- Node18&#45;&gt;Node17 -->
<g id="edge22" class="edge">
<title>Node18&#45;&gt;Node17</title>
<path fill="none" stroke="#9a32cd" stroke-dasharray="5,2" d="M429.45,-22.07C491.24,-26.3 569.05,-31.61 628.74,-35.69"/>
<polygon fill="#9a32cd" stroke="#9a32cd" points="429.84,-18.59 419.62,-21.4 429.36,-25.57 429.84,-18.59"/>
<text text-anchor="middle" x="536.5" y="-37" font-family="Helvetica,sans-Serif" font-size="10.00"> type</text>
</g>
<!-- Node19 -->
<g id="node19" class="node">
<title>Node19</title>
<g id="a_node19"><a xlink:href="classcom_1_1fs_1_1starfarer_1_1api_1_1campaign_1_1ReputationActionResponsePlugin_1_1ReputationAdjustmentResult.html" target="_top" xlink:title=" ">
<polygon fill="white" stroke="#bfbfbf" points="430,-89.5 220,-89.5 220,-48.5 430,-48.5 430,-89.5"/>
<text text-anchor="start" x="228" y="-77.5" font-family="Helvetica,sans-Serif" font-size="10.00">com.fs.starfarer.api.campaign.</text>
<text text-anchor="start" x="228" y="-66.5" font-family="Helvetica,sans-Serif" font-size="10.00">ReputationActionResponsePlugin.Reputation</text>
<text text-anchor="middle" x="325" y="-55.5" font-family="Helvetica,sans-Serif" font-size="10.00">AdjustmentResult</text>
</a>
</g>
</g>
<!-- Node19&#45;&gt;Node17 -->
<g id="edge23" class="edge">
<title>Node19&#45;&gt;Node17</title>
<path fill="none" stroke="#9a32cd" stroke-dasharray="5,2" d="M441.65,-61.09C501.19,-57.02 572.79,-52.13 628.59,-48.32"/>
<polygon fill="#9a32cd" stroke="#9a32cd" points="441.55,-57.59 431.81,-61.77 442.02,-64.58 441.55,-57.59"/>
<text text-anchor="middle" x="536.5" y="-62" font-family="Helvetica,sans-Serif" font-size="10.00"> rep</text>
</g>
</g>
</svg>
