<?xml version="1.0" encoding="UTF-8" standalone="no"?>
<!DOCTYPE svg PUBLIC "-//W3C//DTD SVG 1.1//EN"
 "http://www.w3.org/Graphics/SVG/1.1/DTD/svg11.dtd">
<!-- Generated by graphviz version 7.0.5 (20221223.1930)
 -->
<!-- Title: com.fs.starfarer.api.impl.combat.CryofluxTransducerEffect.ParticleData Pages: 1 -->
<svg width="587pt" height="173pt"
 viewBox="0.00 0.00 587.00 173.00" xmlns="http://www.w3.org/2000/svg" xmlns:xlink="http://www.w3.org/1999/xlink">
<g id="graph0" class="graph" transform="scale(1 1) rotate(0) translate(4 169)">
<title>com.fs.starfarer.api.impl.combat.CryofluxTransducerEffect.ParticleData</title>
<!-- Node1 -->
<g id="node1" class="node">
<title>Node1</title>
<g id="a_node1"><a xlink:title=" ">
<polygon fill="#999999" stroke="#666666" points="579,-102 400,-102 400,-72 579,-72 579,-102"/>
<text text-anchor="start" x="408" y="-90" font-family="Helvetica,sans-Serif" font-size="10.00">com.fs.starfarer.api.impl.combat.</text>
<text text-anchor="middle" x="489.5" y="-79" font-family="Helvetica,sans-Serif" font-size="10.00">CryofluxTransducerEffect.ParticleData</text>
</a>
</g>
</g>
<!-- Node2 -->
<g id="node2" class="node">
<title>Node2</title>
<g id="a_node2"><a xlink:href="interfacecom_1_1fs_1_1starfarer_1_1api_1_1graphics_1_1SpriteAPI.html" target="_top" xlink:title=" ">
<polygon fill="white" stroke="#bfbfbf" points="337,-165 197,-165 197,-135 337,-135 337,-165"/>
<text text-anchor="start" x="205" y="-153" font-family="Helvetica,sans-Serif" font-size="10.00">com.fs.starfarer.api.graphics.</text>
<text text-anchor="middle" x="267" y="-142" font-family="Helvetica,sans-Serif" font-size="10.00">SpriteAPI</text>
</a>
</g>
</g>
<!-- Node2&#45;&gt;Node1 -->
<g id="edge1" class="edge">
<title>Node2&#45;&gt;Node1</title>
<path fill="none" stroke="#9a32cd" stroke-dasharray="5,2" d="M348.2,-132.88C359.6,-130.11 371.13,-127.12 382,-124 403.83,-117.74 427.74,-109.56 447.37,-102.48"/>
<polygon fill="#9a32cd" stroke="#9a32cd" points="347.73,-129.4 338.81,-135.12 349.35,-136.21 347.73,-129.4"/>
<text text-anchor="middle" x="368.5" y="-133" font-family="Helvetica,sans-Serif" font-size="10.00"> sprite</text>
</g>
<!-- Node3 -->
<g id="node3" class="node">
<title>Node3</title>
<g id="a_node3"><a xlink:title=" ">
<polygon fill="white" stroke="#bfbfbf" points="293.5,-115.5 240.5,-115.5 240.5,-96.5 293.5,-96.5 293.5,-115.5"/>
<text text-anchor="middle" x="267" y="-103.5" font-family="Helvetica,sans-Serif" font-size="10.00">Vector2f</text>
</a>
</g>
</g>
<!-- Node3&#45;&gt;Node1 -->
<g id="edge2" class="edge">
<title>Node3&#45;&gt;Node1</title>
<path fill="none" stroke="#9a32cd" stroke-dasharray="5,2" d="M304.88,-102.82C330.76,-100.59 366.52,-97.51 399.61,-94.66"/>
<polygon fill="#9a32cd" stroke="#9a32cd" points="304.9,-99.31 295.23,-103.65 305.5,-106.28 304.9,-99.31"/>
<text text-anchor="middle" x="368.5" y="-112" font-family="Helvetica,sans-Serif" font-size="10.00"> offset</text>
<text text-anchor="middle" x="368.5" y="-101" font-family="Helvetica,sans-Serif" font-size="10.00">vel</text>
</g>
<!-- Node4 -->
<g id="node4" class="node">
<title>Node4</title>
<g id="a_node4"><a xlink:href="interfacecom_1_1fs_1_1starfarer_1_1api_1_1combat_1_1DamagingProjectileAPI.html" target="_top" xlink:title=" ">
<polygon fill="white" stroke="#bfbfbf" points="335,-78 199,-78 199,-48 335,-48 335,-78"/>
<text text-anchor="start" x="207" y="-66" font-family="Helvetica,sans-Serif" font-size="10.00">com.fs.starfarer.api.combat.</text>
<text text-anchor="middle" x="267" y="-55" font-family="Helvetica,sans-Serif" font-size="10.00">DamagingProjectileAPI</text>
</a>
</g>
</g>
<!-- Node4&#45;&gt;Node1 -->
<g id="edge3" class="edge">
<title>Node4&#45;&gt;Node1</title>
<path fill="none" stroke="#9a32cd" stroke-dasharray="5,2" d="M346.48,-71.54C363.69,-73.42 382.03,-75.41 399.61,-77.32"/>
<polygon fill="#9a32cd" stroke="#9a32cd" points="347.18,-68.1 336.86,-70.49 346.42,-75.06 347.18,-68.1"/>
<text text-anchor="middle" x="368.5" y="-78" font-family="Helvetica,sans-Serif" font-size="10.00"> proj</text>
</g>
<!-- Node5 -->
<g id="node5" class="node">
<title>Node5</title>
<g id="a_node5"><a xlink:href="interfacecom_1_1fs_1_1starfarer_1_1api_1_1combat_1_1CombatEntityAPI.html" target="_top" xlink:title=" ">
<polygon fill="white" stroke="#bfbfbf" points="136,-78 0,-78 0,-48 136,-48 136,-78"/>
<text text-anchor="start" x="8" y="-66" font-family="Helvetica,sans-Serif" font-size="10.00">com.fs.starfarer.api.combat.</text>
<text text-anchor="middle" x="68" y="-55" font-family="Helvetica,sans-Serif" font-size="10.00">CombatEntityAPI</text>
</a>
</g>
</g>
<!-- Node5&#45;&gt;Node4 -->
<g id="edge4" class="edge">
<title>Node5&#45;&gt;Node4</title>
<path fill="none" stroke="#63b8ff" d="M147.29,-63C164.31,-63 182.17,-63 198.72,-63"/>
<polygon fill="#63b8ff" stroke="#63b8ff" points="147.76,-59.5 137.76,-63 147.76,-66.5 147.76,-59.5"/>
</g>
<!-- Node6 -->
<g id="node6" class="node">
<title>Node6</title>
<g id="a_node6"><a xlink:href="classcom_1_1fs_1_1starfarer_1_1api_1_1util_1_1FaderUtil.html" target="_top" xlink:title=" ">
<polygon fill="white" stroke="#bfbfbf" points="325,-30 209,-30 209,0 325,0 325,-30"/>
<text text-anchor="start" x="217" y="-18" font-family="Helvetica,sans-Serif" font-size="10.00">com.fs.starfarer.api.util.</text>
<text text-anchor="middle" x="267" y="-7" font-family="Helvetica,sans-Serif" font-size="10.00">FaderUtil</text>
</a>
</g>
</g>
<!-- Node6&#45;&gt;Node1 -->
<g id="edge5" class="edge">
<title>Node6&#45;&gt;Node1</title>
<path fill="none" stroke="#9a32cd" stroke-dasharray="5,2" d="M326.12,-33.98C362.05,-45.71 407.58,-60.58 441.28,-71.58"/>
<polygon fill="#9a32cd" stroke="#9a32cd" points="327.33,-30.69 316.74,-30.92 325.16,-37.35 327.33,-30.69"/>
<text text-anchor="middle" x="368.5" y="-54" font-family="Helvetica,sans-Serif" font-size="10.00"> fader</text>
</g>
<!-- Node7 -->
<g id="node7" class="node">
<title>Node7</title>
<g id="a_node7"><a xlink:href="enumcom_1_1fs_1_1starfarer_1_1api_1_1util_1_1FaderUtil_1_1State.html" target="_top" xlink:title=" ">
<polygon fill="white" stroke="#bfbfbf" points="126,-30 10,-30 10,0 126,0 126,-30"/>
<text text-anchor="start" x="18" y="-18" font-family="Helvetica,sans-Serif" font-size="10.00">com.fs.starfarer.api.util.</text>
<text text-anchor="middle" x="68" y="-7" font-family="Helvetica,sans-Serif" font-size="10.00">FaderUtil.State</text>
</a>
</g>
</g>
<!-- Node7&#45;&gt;Node6 -->
<g id="edge6" class="edge">
<title>Node7&#45;&gt;Node6</title>
<path fill="none" stroke="#9a32cd" stroke-dasharray="5,2" d="M137.74,-15C160.88,-15 186.44,-15 208.61,-15"/>
<polygon fill="#9a32cd" stroke="#9a32cd" points="137.76,-11.5 127.76,-15 137.76,-18.5 137.76,-11.5"/>
<text text-anchor="middle" x="166.5" y="-18" font-family="Helvetica,sans-Serif" font-size="10.00"> state</text>
</g>
</g>
</svg>
