<?xml version="1.0" encoding="UTF-8" standalone="no"?>
<!DOCTYPE svg PUBLIC "-//W3C//DTD SVG 1.1//EN"
 "http://www.w3.org/Graphics/SVG/1.1/DTD/svg11.dtd">
<!-- Generated by graphviz version 9.0.0 (20230911.1827)
 -->
<!-- Title: com.fs.starfarer.api.impl.campaign.abilities.ToggleAbilityWithCost Pages: 1 -->
<svg width="229pt" height="238pt"
 viewBox="0.00 0.00 228.62 238.00" xmlns="http://www.w3.org/2000/svg" xmlns:xlink="http://www.w3.org/1999/xlink">
<g id="graph0" class="graph" transform="scale(1 1) rotate(0) translate(4 234)">
<title>com.fs.starfarer.api.impl.campaign.abilities.ToggleAbilityWithCost</title>
<!-- Node1 -->
<g id="Node000001" class="node">
<title>Node1</title>
<g id="a_Node000001"><a xlink:title=" ">
<polygon fill="#999999" stroke="#666666" points="200.5,-30.5 0,-30.5 0,0 200.5,0 200.5,-30.5"/>
<text text-anchor="start" x="8" y="-17" font-family="Helvetica,sans-Serif" font-size="10.00">com.fs.starfarer.api.impl.campaign.abilities.</text>
<text text-anchor="middle" x="100.25" y="-5.75" font-family="Helvetica,sans-Serif" font-size="10.00">ToggleAbilityWithCost</text>
</a>
</g>
</g>
<!-- Node2 -->
<g id="Node000002" class="node">
<title>Node2</title>
<g id="a_Node000002"><a xlink:href="classcom_1_1fs_1_1starfarer_1_1api_1_1impl_1_1campaign_1_1abilities_1_1BaseToggleAbility.html" target="_top" xlink:title=" ">
<polygon fill="white" stroke="#666666" points="200.5,-97 0,-97 0,-66.5 200.5,-66.5 200.5,-97"/>
<text text-anchor="start" x="8" y="-83.5" font-family="Helvetica,sans-Serif" font-size="10.00">com.fs.starfarer.api.impl.campaign.abilities.</text>
<text text-anchor="middle" x="100.25" y="-72.25" font-family="Helvetica,sans-Serif" font-size="10.00">BaseToggleAbility</text>
</a>
</g>
</g>
<!-- Node2&#45;&gt;Node1 -->
<g id="edge1_Node000001_Node000002" class="edge">
<title>Node2&#45;&gt;Node1</title>
<g id="a_edge1_Node000001_Node000002"><a xlink:title=" ">
<path fill="none" stroke="#63b8ff" d="M100.25,-54.81C100.25,-46.64 100.25,-37.91 100.25,-30.83"/>
<polygon fill="#63b8ff" stroke="#63b8ff" points="96.75,-54.6 100.25,-64.6 103.75,-54.6 96.75,-54.6"/>
</a>
</g>
</g>
<!-- Node3 -->
<g id="Node000003" class="node">
<title>Node3</title>
<g id="a_Node000003"><a xlink:href="classcom_1_1fs_1_1starfarer_1_1api_1_1impl_1_1campaign_1_1abilities_1_1BaseAbilityPlugin.html" target="_top" xlink:title=" ">
<polygon fill="white" stroke="#666666" points="200.5,-163.5 0,-163.5 0,-133 200.5,-133 200.5,-163.5"/>
<text text-anchor="start" x="8" y="-150" font-family="Helvetica,sans-Serif" font-size="10.00">com.fs.starfarer.api.impl.campaign.abilities.</text>
<text text-anchor="middle" x="100.25" y="-138.75" font-family="Helvetica,sans-Serif" font-size="10.00">BaseAbilityPlugin</text>
</a>
</g>
</g>
<!-- Node3&#45;&gt;Node2 -->
<g id="edge2_Node000002_Node000003" class="edge">
<title>Node3&#45;&gt;Node2</title>
<g id="a_edge2_Node000002_Node000003"><a xlink:title=" ">
<path fill="none" stroke="#63b8ff" d="M100.25,-121.31C100.25,-113.14 100.25,-104.41 100.25,-97.33"/>
<polygon fill="#63b8ff" stroke="#63b8ff" points="96.75,-121.1 100.25,-131.1 103.75,-121.1 96.75,-121.1"/>
</a>
</g>
</g>
<!-- Node4 -->
<g id="Node000004" class="node">
<title>Node4</title>
<g id="a_Node000004"><a xlink:title=" ">
<polygon fill="white" stroke="#666666" points="77.88,-224.38 8.62,-224.38 8.62,-205.12 77.88,-205.12 77.88,-224.38"/>
<text text-anchor="middle" x="43.25" y="-210.88" font-family="Helvetica,sans-Serif" font-size="10.00">AbilityPlugin</text>
</a>
</g>
</g>
<!-- Node4&#45;&gt;Node3 -->
<g id="edge3_Node000003_Node000004" class="edge">
<title>Node4&#45;&gt;Node3</title>
<g id="a_edge3_Node000003_Node000004"><a xlink:title=" ">
<path fill="none" stroke="#63b8ff" d="M58.72,-196.25C67.77,-186.01 79.05,-173.24 87.57,-163.59"/>
<polygon fill="#63b8ff" stroke="#63b8ff" points="56.18,-193.84 52.18,-203.65 61.42,-198.47 56.18,-193.84"/>
</a>
</g>
</g>
<!-- Node5 -->
<g id="Node000005" class="node">
<title>Node5</title>
<g id="a_Node000005"><a xlink:href="interfacecom_1_1fs_1_1starfarer_1_1api_1_1EveryFrameScript.html" target="_top" xlink:title=" ">
<polygon fill="white" stroke="#666666" points="220.62,-230 95.88,-230 95.88,-199.5 220.62,-199.5 220.62,-230"/>
<text text-anchor="start" x="103.88" y="-216.5" font-family="Helvetica,sans-Serif" font-size="10.00">com.fs.starfarer.api.Every</text>
<text text-anchor="middle" x="158.25" y="-205.25" font-family="Helvetica,sans-Serif" font-size="10.00">FrameScript</text>
</a>
</g>
</g>
<!-- Node5&#45;&gt;Node3 -->
<g id="edge4_Node000003_Node000005" class="edge">
<title>Node5&#45;&gt;Node3</title>
<g id="a_edge4_Node000003_Node000005"><a xlink:title=" ">
<path fill="none" stroke="#63b8ff" d="M137.46,-190.63C129.42,-181.69 120.47,-171.74 113.36,-163.83"/>
<polygon fill="#63b8ff" stroke="#63b8ff" points="134.79,-192.89 144.08,-197.99 139.99,-188.21 134.79,-192.89"/>
</a>
</g>
</g>
</g>
</svg>
