<?xml version="1.0" encoding="UTF-8" standalone="no"?>
<!DOCTYPE svg PUBLIC "-//W3C//DTD SVG 1.1//EN"
 "http://www.w3.org/Graphics/SVG/1.1/DTD/svg11.dtd">
<!-- Generated by graphviz version 2.44.0 ()
 -->
<!-- Title: com.fs.starfarer.api.impl.campaign.skills.FieldRepairsScript Pages: 1 -->
<svg width="418pt" height="214pt"
 viewBox="0.00 0.00 418.00 213.50" xmlns="http://www.w3.org/2000/svg" xmlns:xlink="http://www.w3.org/1999/xlink">
<g id="graph0" class="graph" transform="scale(1 1) rotate(0) translate(4 209.5)">
<title>com.fs.starfarer.api.impl.campaign.skills.FieldRepairsScript</title>
<!-- Node1 -->
<g id="node1" class="node">
<title>Node1</title>
<g id="a_node1"><a xlink:title=" ">
<polygon fill="#bfbfbf" stroke="black" points="219,-77 219,-107 410,-107 410,-77 219,-77"/>
<text text-anchor="start" x="227" y="-95" font-family="Helvetica,sans-Serif" font-size="10.00">com.fs.starfarer.api.impl.campaign.skills.</text>
<text text-anchor="middle" x="314.5" y="-84" font-family="Helvetica,sans-Serif" font-size="10.00">FieldRepairsScript</text>
</a>
</g>
</g>
<!-- Node2 -->
<g id="node2" class="node">
<title>Node2</title>
<g id="a_node2"><a xlink:href="interfacecom_1_1fs_1_1starfarer_1_1api_1_1EveryFrameScript.html" target="_top" xlink:title=" ">
<polygon fill="none" stroke="black" points="0.5,-175 0.5,-205 125.5,-205 125.5,-175 0.5,-175"/>
<text text-anchor="start" x="8.5" y="-193" font-family="Helvetica,sans-Serif" font-size="10.00">com.fs.starfarer.api.Every</text>
<text text-anchor="middle" x="63" y="-182" font-family="Helvetica,sans-Serif" font-size="10.00">FrameScript</text>
</a>
</g>
</g>
<!-- Node2&#45;&gt;Node1 -->
<g id="edge1" class="edge">
<title>Node2&#45;&gt;Node1</title>
<path fill="none" stroke="midnightblue" d="M135.73,-174.7C157.08,-169.2 180.3,-162.28 201,-154 233.3,-141.09 268.01,-120.89 290.2,-107.08"/>
<polygon fill="midnightblue" stroke="midnightblue" points="134.59,-171.38 125.74,-177.21 136.29,-178.17 134.59,-171.38"/>
</g>
<!-- Node3 -->
<g id="node3" class="node">
<title>Node3</title>
<g id="a_node3"><a xlink:href="classcom_1_1fs_1_1starfarer_1_1api_1_1util_1_1IntervalUtil.html" target="_top" xlink:title=" ">
<polygon fill="none" stroke="black" points="5,-126 5,-156 121,-156 121,-126 5,-126"/>
<text text-anchor="start" x="13" y="-144" font-family="Helvetica,sans-Serif" font-size="10.00">com.fs.starfarer.api.util.</text>
<text text-anchor="middle" x="63" y="-133" font-family="Helvetica,sans-Serif" font-size="10.00">IntervalUtil</text>
</a>
</g>
</g>
<!-- Node3&#45;&gt;Node1 -->
<g id="edge2" class="edge">
<title>Node3&#45;&gt;Node1</title>
<path fill="none" stroke="#9a32cd" stroke-dasharray="5,2" d="M131.17,-130.56C153.44,-126.88 178.34,-122.52 201,-118 217.42,-114.73 235.09,-110.82 251.46,-107.05"/>
<polygon fill="#9a32cd" stroke="#9a32cd" points="130.43,-127.13 121.13,-132.2 131.57,-134.04 130.43,-127.13"/>
<text text-anchor="middle" x="172.5" y="-142" font-family="Helvetica,sans-Serif" font-size="10.00"> tracker</text>
<text text-anchor="middle" x="172.5" y="-131" font-family="Helvetica,sans-Serif" font-size="10.00">tracker2</text>
</g>
<!-- Node4 -->
<g id="node4" class="node">
<title>Node4</title>
<g id="a_node4"><a xlink:href="interfacecom_1_1fs_1_1starfarer_1_1api_1_1fleet_1_1FleetMemberAPI.html" target="_top" xlink:title=" ">
<polygon fill="none" stroke="black" points="2,-77 2,-107 124,-107 124,-77 2,-77"/>
<text text-anchor="start" x="10" y="-95" font-family="Helvetica,sans-Serif" font-size="10.00">com.fs.starfarer.api.fleet.</text>
<text text-anchor="middle" x="63" y="-84" font-family="Helvetica,sans-Serif" font-size="10.00">FleetMemberAPI</text>
</a>
</g>
</g>
<!-- Node4&#45;&gt;Node1 -->
<g id="edge3" class="edge">
<title>Node4&#45;&gt;Node1</title>
<path fill="none" stroke="#9a32cd" stroke-dasharray="5,2" d="M134.31,-92C160.55,-92 190.8,-92 218.88,-92"/>
<polygon fill="#9a32cd" stroke="#9a32cd" points="134.08,-88.5 124.08,-92 134.08,-95.5 134.08,-88.5"/>
<text text-anchor="middle" x="172.5" y="-106" font-family="Helvetica,sans-Serif" font-size="10.00"> picked</text>
<text text-anchor="middle" x="172.5" y="-95" font-family="Helvetica,sans-Serif" font-size="10.00">pickedNew</text>
</g>
<!-- Node5 -->
<g id="node5" class="node">
<title>Node5</title>
<g id="a_node5"><a xlink:title=" ">
<polygon fill="none" stroke="#bfbfbf" points="0,-38.5 0,-57.5 126,-57.5 126,-38.5 0,-38.5"/>
<text text-anchor="middle" x="63" y="-45.5" font-family="Helvetica,sans-Serif" font-size="10.00">LinkedHashSet&lt; String &gt;</text>
</a>
</g>
</g>
<!-- Node5&#45;&gt;Node1 -->
<g id="edge4" class="edge">
<title>Node5&#45;&gt;Node1</title>
<path fill="none" stroke="#9a32cd" stroke-dasharray="5,2" d="M128.19,-59.32C158.6,-64.68 195.35,-71.16 228.07,-76.93"/>
<polygon fill="#9a32cd" stroke="#9a32cd" points="128.59,-55.84 118.14,-57.55 127.38,-62.73 128.59,-55.84"/>
<text text-anchor="middle" x="172.5" y="-74" font-family="Helvetica,sans-Serif" font-size="10.00"> seen</text>
</g>
<!-- Node6 -->
<g id="node6" class="node">
<title>Node6</title>
<g id="a_node6"><a xlink:title=" ">
<polygon fill="none" stroke="#bfbfbf" points="36.5,-0.5 36.5,-19.5 89.5,-19.5 89.5,-0.5 36.5,-0.5"/>
<text text-anchor="middle" x="63" y="-7.5" font-family="Helvetica,sans-Serif" font-size="10.00">Random</text>
</a>
</g>
</g>
<!-- Node6&#45;&gt;Node1 -->
<g id="edge5" class="edge">
<title>Node6&#45;&gt;Node1</title>
<path fill="none" stroke="#9a32cd" stroke-dasharray="5,2" d="M99.58,-18.4C127.43,-25.26 167.02,-35.66 201,-47 227.54,-55.86 256.87,-67.66 278.92,-76.95"/>
<polygon fill="#9a32cd" stroke="#9a32cd" points="100.06,-14.91 89.51,-15.94 98.4,-21.71 100.06,-14.91"/>
<text text-anchor="middle" x="172.5" y="-50" font-family="Helvetica,sans-Serif" font-size="10.00"> newRandom</text>
</g>
</g>
</svg>
