<?xml version="1.0" encoding="UTF-8" standalone="no"?>
<!DOCTYPE svg PUBLIC "-//W3C//DTD SVG 1.1//EN"
 "http://www.w3.org/Graphics/SVG/1.1/DTD/svg11.dtd">
<!-- Generated by graphviz version 12.2.0 (20241103.1931)
 -->
<!-- Title: com.fs.starfarer.api.impl.campaign.velfield.SlipstreamEntityPlugin2 Pages: 1 -->
<!--zoomable 312 -->

<svg id="main" version="1.1" xmlns="http://www.w3.org/2000/svg" xmlns:xlink="http://www.w3.org/1999/xlink" xml:space="preserve" onload="init(evt)">

<style type="text/css"><![CDATA[
.node, .edge {opacity: 0.7;}
.node.selected, .edge.selected {opacity: 1;}
.edge:hover path { stroke: red; }
.edge:hover polygon { stroke: red; fill: red; }
]]></style>

<defs>
  <circle id="rim" cx="0" cy="0" r="7"/>
  <circle id="rim2" cx="0" cy="0" r="3.5"/>
  <g id="zoomPlus">
    <use xlink:href="#rim" fill="#404040"><set attributeName="fill" to="#808080" begin="zoomplus.mouseover" end="zoomplus.mouseout"/></use>
    <path d="M-4,0h8M0,-4v8" fill="none" stroke="white" stroke-width="1.5" pointer-events="none"/>
  </g>
  <g id="zoomMin">
    <use xlink:href="#rim" fill="#404040"><set attributeName="fill" to="#808080" begin="zoomminus.mouseover" end="zoomminus.mouseout"/></use>
    <path d="M-4,0h8" fill="none" stroke="white" stroke-width="1.5" pointer-events="none"/>
  </g>
  <g id="arrowUp" transform="translate(30 24)">
    <use xlink:href="#rim"/>
    <path pointer-events="none" fill="none" stroke="white" stroke-width="1.5" d="M0,-3.0v7 M-2.5,-0.5L0,-3.0L2.5,-0.5"/>
  </g>
  <g id="arrowRight" transform="rotate(90) translate(36 -43)">
    <use xlink:href="#rim"/>
    <path pointer-events="none" fill="none" stroke="white" stroke-width="1.5" d="M0,-3.0v7 M-2.5,-0.5L0,-3.0L2.5,-0.5"/>
  </g>
  <g id="arrowDown" transform="rotate(180) translate(-30 -48)">
    <use xlink:href="#rim"/>
    <path pointer-events="none" fill="none" stroke="white" stroke-width="1.5" d="M0,-3.0v7 M-2.5,-0.5L0,-3.0L2.5,-0.5"/>
  </g>
  <g id="arrowLeft" transform="rotate(270) translate(-36 17)">
    <use xlink:href="#rim"/>
    <path pointer-events="none" fill="none" stroke="white" stroke-width="1.5" d="M0,-3.0v7 M-2.5,-0.5L0,-3.0L2.5,-0.5"/>
  </g>
  <g id="resetDef">
    <use xlink:href="#rim2" fill="#404040"><set attributeName="fill" to="#808080" begin="reset.mouseover" end="reset.mouseout"/></use>
  </g>
</defs>
<script type="application/ecmascript">
var viewWidth = 960;
var viewHeight = 312;
var sectionId = 'dynsection-1';
</script>
<script type="application/ecmascript" xlink:href="svg.min.js"/>
<svg id="graph" class="graph">
<g id="viewport">
<title>com.fs.starfarer.api.impl.campaign.velfield.SlipstreamEntityPlugin2</title>
<!-- Node1 -->
<g id="Node000001" class="node">
<title>Node1</title>
<g id="a_Node000001"><a xlink:title=" ">
<polygon fill="#999999" stroke="#666666" points="952.25,-140.5 754.75,-140.5 754.75,-110 952.25,-110 952.25,-140.5"/>
<text text-anchor="start" x="762.75" y="-127" font-family="Helvetica,sans-Serif" font-size="10.00">com.fs.starfarer.api.impl.campaign.velfield.</text>
<text text-anchor="middle" x="853.5" y="-115.75" font-family="Helvetica,sans-Serif" font-size="10.00">SlipstreamEntityPlugin2</text>
</a>
</g>
</g>
<!-- Node2 -->
<g id="Node000002" class="node">
<title>Node2</title>
<g id="a_Node000002"><a xlink:href="classcom_1_1fs_1_1starfarer_1_1api_1_1impl_1_1campaign_1_1BaseCustomEntityPlugin.html" target="_top" xlink:title=" ">
<polygon fill="white" stroke="#666666" points="645.25,-266.5 480,-266.5 480,-236 645.25,-236 645.25,-266.5"/>
<text text-anchor="start" x="488" y="-253" font-family="Helvetica,sans-Serif" font-size="10.00">com.fs.starfarer.api.impl.campaign.</text>
<text text-anchor="middle" x="562.62" y="-241.75" font-family="Helvetica,sans-Serif" font-size="10.00">BaseCustomEntityPlugin</text>
</a>
</g>
</g>
<!-- Node2&#45;&gt;Node1 -->
<g id="edge1_Node000001_Node000002" class="edge">
<title>Node2&#45;&gt;Node1</title>
<g id="a_edge1_Node000001_Node000002"><a xlink:title=" ">
<path fill="none" stroke="#63b8ff" d="M620.58,-231.79C637.8,-225.58 656.67,-218.44 673.75,-211.25 726.92,-188.87 787.03,-158.96 822.24,-140.95"/>
<polygon fill="#63b8ff" stroke="#63b8ff" points="619.77,-228.36 611.53,-235.02 622.12,-234.95 619.77,-228.36"/>
</a>
</g>
</g>
<!-- Node3 -->
<g id="Node000003" class="node">
<title>Node3</title>
<g id="a_Node000003"><a xlink:href="interfacecom_1_1fs_1_1starfarer_1_1api_1_1campaign_1_1CustomCampaignEntityPlugin.html" target="_top" xlink:title=" ">
<polygon fill="white" stroke="#666666" points="350.25,-303.5 205.25,-303.5 205.25,-273 350.25,-273 350.25,-303.5"/>
<text text-anchor="start" x="213.25" y="-290" font-family="Helvetica,sans-Serif" font-size="10.00">com.fs.starfarer.api.campaign.</text>
<text text-anchor="middle" x="277.75" y="-278.75" font-family="Helvetica,sans-Serif" font-size="10.00">CustomCampaignEntityPlugin</text>
</a>
</g>
</g>
<!-- Node3&#45;&gt;Node2 -->
<g id="edge2_Node000002_Node000003" class="edge">
<title>Node3&#45;&gt;Node2</title>
<g id="a_edge2_Node000002_Node000003"><a xlink:title=" ">
<path fill="none" stroke="#63b8ff" d="M361.81,-277.39C398.97,-272.52 442.66,-266.81 479.69,-261.97"/>
<polygon fill="#63b8ff" stroke="#63b8ff" points="361.46,-273.9 352,-278.67 362.37,-280.84 361.46,-273.9"/>
</a>
</g>
</g>
<!-- Node4 -->
<g id="Node000004" class="node">
<title>Node4</title>
<g id="a_Node000004"><a xlink:href="interfacecom_1_1fs_1_1starfarer_1_1api_1_1campaign_1_1SectorEntityToken.html" target="_top" xlink:title=" ">
<polygon fill="white" stroke="#666666" points="350.25,-254.5 205.25,-254.5 205.25,-224 350.25,-224 350.25,-254.5"/>
<text text-anchor="start" x="213.25" y="-241" font-family="Helvetica,sans-Serif" font-size="10.00">com.fs.starfarer.api.campaign.</text>
<text text-anchor="middle" x="277.75" y="-229.75" font-family="Helvetica,sans-Serif" font-size="10.00">SectorEntityToken</text>
</a>
</g>
</g>
<!-- Node4&#45;&gt;Node2 -->
<g id="edge3_Node000002_Node000004" class="edge">
<title>Node4&#45;&gt;Node2</title>
<g id="a_edge3_Node000002_Node000004"><a xlink:title=" ">
<path fill="none" stroke="#9a32cd" stroke-dasharray="5,2" d="M361.81,-242.77C398.97,-244.35 442.66,-246.2 479.69,-247.77"/>
<polygon fill="#9a32cd" stroke="#9a32cd" points="362.15,-239.28 352.01,-242.36 361.85,-246.28 362.15,-239.28"/>
</a>
</g>
<text text-anchor="middle" x="400.88" y="-247.36" font-family="Helvetica,sans-Serif" font-size="10.00" fill="grey"> entity</text>
</g>
<!-- Node5 -->
<g id="Node000005" class="node">
<title>Node5</title>
<g id="a_Node000005"><a xlink:href="interfacecom_1_1fs_1_1starfarer_1_1api_1_1campaign_1_1rules_1_1HasMemory.html" target="_top" xlink:title=" ">
<polygon fill="white" stroke="#666666" points="168.25,-254.5 0,-254.5 0,-224 168.25,-224 168.25,-254.5"/>
<text text-anchor="start" x="8" y="-241" font-family="Helvetica,sans-Serif" font-size="10.00">com.fs.starfarer.api.campaign.rules.</text>
<text text-anchor="middle" x="84.12" y="-229.75" font-family="Helvetica,sans-Serif" font-size="10.00">HasMemory</text>
</a>
</g>
</g>
<!-- Node5&#45;&gt;Node4 -->
<g id="edge4_Node000004_Node000005" class="edge">
<title>Node5&#45;&gt;Node4</title>
<g id="a_edge4_Node000004_Node000005"><a xlink:title=" ">
<path fill="none" stroke="#63b8ff" d="M180.02,-239.25C188.4,-239.25 196.79,-239.25 204.94,-239.25"/>
<polygon fill="#63b8ff" stroke="#63b8ff" points="180.13,-235.75 170.13,-239.25 180.13,-242.75 180.13,-235.75"/>
</a>
</g>
</g>
<!-- Node6 -->
<g id="Node000006" class="node">
<title>Node6</title>
<g id="a_Node000006"><a xlink:title=" ">
<polygon fill="white" stroke="#666666" points="665.88,-202.5 459.38,-202.5 459.38,-172 665.88,-172 665.88,-202.5"/>
<text text-anchor="start" x="467.38" y="-189" font-family="Helvetica,sans-Serif" font-size="10.00">com.fs.starfarer.api.impl.campaign.velfield.</text>
<text text-anchor="middle" x="562.62" y="-177.75" font-family="Helvetica,sans-Serif" font-size="10.00">SlipstreamEntityPlugin2.SlipstreamParams2</text>
</a>
</g>
</g>
<!-- Node6&#45;&gt;Node1 -->
<g id="edge5_Node000001_Node000006" class="edge">
<title>Node6&#45;&gt;Node1</title>
<g id="a_edge5_Node000001_Node000006"><a xlink:title=" ">
<path fill="none" stroke="#9a32cd" stroke-dasharray="5,2" d="M648.36,-169.18C676.49,-163.17 707.97,-156.43 736.75,-150.25 750.72,-147.25 765.64,-144.03 779.95,-140.94"/>
<polygon fill="#9a32cd" stroke="#9a32cd" points="647.87,-165.7 638.82,-171.22 649.34,-172.55 647.87,-165.7"/>
</a>
</g>
<text text-anchor="middle" x="714.25" y="-161.17" font-family="Helvetica,sans-Serif" font-size="10.00" fill="grey"> params</text>
</g>
<!-- Node7 -->
<g id="Node000007" class="node">
<title>Node7</title>
<g id="a_Node000007"><a xlink:title=" ">
<polygon fill="white" stroke="#666666" points="297,-181.88 258.5,-181.88 258.5,-162.62 297,-162.62 297,-181.88"/>
<text text-anchor="middle" x="277.75" y="-168.38" font-family="Helvetica,sans-Serif" font-size="10.00">Color</text>
</a>
</g>
</g>
<!-- Node7&#45;&gt;Node6 -->
<g id="edge6_Node000006_Node000007" class="edge">
<title>Node7&#45;&gt;Node6</title>
<g id="a_edge6_Node000006_Node000007"><a xlink:title=" ">
<path fill="none" stroke="#9a32cd" stroke-dasharray="5,2" d="M308.8,-173.84C344.47,-175.73 405.83,-178.99 459.18,-181.82"/>
<polygon fill="#9a32cd" stroke="#9a32cd" points="308.99,-170.35 298.82,-173.31 308.62,-177.34 308.99,-170.35"/>
</a>
</g>
<text text-anchor="middle" x="400.88" y="-226.95" font-family="Helvetica,sans-Serif" font-size="10.00" fill="grey"> edgeColor</text>
<text text-anchor="middle" x="400.88" y="-215.7" font-family="Helvetica,sans-Serif" font-size="10.00" fill="grey">maxColor</text>
<text text-anchor="middle" x="400.88" y="-204.45" font-family="Helvetica,sans-Serif" font-size="10.00" fill="grey">minColor</text>
<text text-anchor="middle" x="400.88" y="-193.2" font-family="Helvetica,sans-Serif" font-size="10.00" fill="grey">spriteColor</text>
<text text-anchor="middle" x="400.88" y="-181.95" font-family="Helvetica,sans-Serif" font-size="10.00" fill="grey">windGlowColor</text>
</g>
<!-- Node8 -->
<g id="Node000008" class="node">
<title>Node8</title>
<g id="a_Node000008"><a xlink:title=" ">
<polygon fill="white" stroke="#666666" points="629.88,-153.88 495.38,-153.88 495.38,-134.62 629.88,-134.62 629.88,-153.88"/>
<text text-anchor="middle" x="562.62" y="-140.38" font-family="Helvetica,sans-Serif" font-size="10.00">List&lt; SlipstreamSegment &gt;</text>
</a>
</g>
</g>
<!-- Node8&#45;&gt;Node1 -->
<g id="edge7_Node000001_Node000008" class="edge">
<title>Node8&#45;&gt;Node1</title>
<g id="a_edge7_Node000001_Node000008"><a xlink:title=" ">
<path fill="none" stroke="#9a32cd" stroke-dasharray="5,2" d="M641.31,-139.14C676.1,-136.85 717.52,-134.13 754.42,-131.7"/>
<polygon fill="#9a32cd" stroke="#9a32cd" points="641.52,-135.62 631.77,-139.77 641.98,-142.6 641.52,-135.62"/>
</a>
</g>
<text text-anchor="middle" x="714.25" y="-137.07" font-family="Helvetica,sans-Serif" font-size="10.00" fill="grey"> segments</text>
</g>
<!-- Node9 -->
<g id="Node000009" class="node">
<title>Node9</title>
<g id="a_Node000009"><a xlink:title=" ">
<polygon fill="white" stroke="#666666" points="626.88,-116.88 498.38,-116.88 498.38,-97.62 626.88,-97.62 626.88,-116.88"/>
<text text-anchor="middle" x="562.62" y="-103.38" font-family="Helvetica,sans-Serif" font-size="10.00">List&lt; SlipstreamParticle &gt;</text>
</a>
</g>
</g>
<!-- Node9&#45;&gt;Node1 -->
<g id="edge8_Node000001_Node000009" class="edge">
<title>Node9&#45;&gt;Node1</title>
<g id="a_edge8_Node000001_Node000009"><a xlink:title=" ">
<path fill="none" stroke="#9a32cd" stroke-dasharray="5,2" d="M638.44,-107.22C668.96,-107.64 704.58,-108.68 736.75,-111 742.51,-111.42 748.41,-111.92 754.37,-112.48"/>
<polygon fill="#9a32cd" stroke="#9a32cd" points="638.56,-103.73 628.53,-107.11 638.48,-110.73 638.56,-103.73"/>
</a>
</g>
<text text-anchor="middle" x="714.25" y="-112.75" font-family="Helvetica,sans-Serif" font-size="10.00" fill="grey"> particles</text>
</g>
<!-- Node10 -->
<g id="Node000010" class="node">
<title>Node10</title>
<g id="a_Node000010"><a xlink:title=" ">
<polygon fill="white" stroke="#666666" points="673.75,-79.5 451.5,-79.5 451.5,-49 673.75,-49 673.75,-79.5"/>
<text text-anchor="start" x="459.5" y="-66" font-family="Helvetica,sans-Serif" font-size="10.00">List&lt; com.fs.starfarer.api.impl.campaign.velfield.</text>
<text text-anchor="middle" x="562.62" y="-54.75" font-family="Helvetica,sans-Serif" font-size="10.00">BoundingBox &gt;</text>
</a>
</g>
</g>
<!-- Node10&#45;&gt;Node1 -->
<g id="edge9_Node000001_Node000010" class="edge">
<title>Node10&#45;&gt;Node1</title>
<g id="a_edge9_Node000001_Node000010"><a xlink:title=" ">
<path fill="none" stroke="#9a32cd" stroke-dasharray="5,2" d="M680.34,-81.88C699.26,-85.24 718.6,-88.98 736.75,-93 757.83,-97.67 780.78,-103.84 800.65,-109.53"/>
<polygon fill="#9a32cd" stroke="#9a32cd" points="681.2,-78.47 670.75,-80.2 680,-85.37 681.2,-78.47"/>
</a>
</g>
<text text-anchor="middle" x="714.25" y="-94.75" font-family="Helvetica,sans-Serif" font-size="10.00" fill="grey"> bounds</text>
</g>
<!-- Node11 -->
<g id="Node000011" class="node">
<title>Node11</title>
<g id="a_Node000011"><a xlink:href="classcom_1_1fs_1_1starfarer_1_1api_1_1util_1_1FaderUtil.html" target="_top" xlink:title=" ">
<polygon fill="white" stroke="#666666" points="620.5,-30.5 504.75,-30.5 504.75,0 620.5,0 620.5,-30.5"/>
<text text-anchor="start" x="512.75" y="-17" font-family="Helvetica,sans-Serif" font-size="10.00">com.fs.starfarer.api.util.</text>
<text text-anchor="middle" x="562.62" y="-5.75" font-family="Helvetica,sans-Serif" font-size="10.00">FaderUtil</text>
</a>
</g>
</g>
<!-- Node11&#45;&gt;Node1 -->
<g id="edge10_Node000001_Node000011" class="edge">
<title>Node11&#45;&gt;Node1</title>
<g id="a_edge10_Node000001_Node000011"><a xlink:title=" ">
<path fill="none" stroke="#9a32cd" stroke-dasharray="5,2" d="M631.9,-28.46C645.89,-31.8 660.41,-35.75 673.75,-40.25 729.42,-59.05 790.47,-90.66 824.88,-109.58"/>
<polygon fill="#9a32cd" stroke="#9a32cd" points="632.84,-25.08 622.31,-26.25 631.26,-31.9 632.84,-25.08"/>
</a>
</g>
<text text-anchor="middle" x="714.25" y="-66.04" font-family="Helvetica,sans-Serif" font-size="10.00" fill="grey"> fader</text>
</g>
</g>
</svg>

<g id="navigator" transform="translate(0 0)" fill="#404254">
  <rect fill="#f2f5e9" fill-opacity="0.5" stroke="#606060" stroke-width=".5" x="0" y="0" width="60" height="60"/>
  <use id="zoomplus" xlink:href="#zoomPlus" x="17" y="9" onmousedown="handleZoom(evt,'in')"/>
  <use id="zoomminus" xlink:href="#zoomMin" x="42" y="9" onmousedown="handleZoom(evt,'out')"/>
  <use id="reset" xlink:href="#resetDef" x="30" y="36" onmousedown="handleReset()"/>
   <use id="arrowup" xlink:href="#arrowUp" x="0" y="0" onmousedown="handlePan(0,-1)"/>
  <use id="arrowright" xlink:href="#arrowRight" x="0" y="0" onmousedown="handlePan(1,0)"/>
  <use id="arrowdown" xlink:href="#arrowDown" x="0" y="0" onmousedown="handlePan(0,1)"/>
  <use id="arrowleft" xlink:href="#arrowLeft" x="0" y="0" onmousedown="handlePan(-1,0)"/>
</g>
<svg viewBox="0 0 15 15" width="100%" height="30px" preserveAspectRatio="xMaxYMin meet">
 <g id="arrow_out" transform="scale(0.3 0.3)">
  <a xlink:href="classcom_1_1fs_1_1starfarer_1_1api_1_1impl_1_1campaign_1_1velfield_1_1SlipstreamEntityPlugin2__coll__graph_org.svg" target="_base">
   <rect id="button" ry="5" rx="5" y="6" x="6" height="38" width="38"
        fill="#f2f5e9" fill-opacity="0.5" stroke="#606060" stroke-width="1.0"/>
   <path id="arrow"
     d="M 11.500037,31.436501 C 11.940474,20.09759 22.043105,11.32322 32.158766,21.979434 L 37.068811,17.246167 C 37.068811,17.246167 37.088388,32 37.088388,32 L 22.160133,31.978069 C 22.160133,31.978069 26.997745,27.140456 26.997745,27.140456 C 18.528582,18.264221 13.291696,25.230495 11.500037,31.436501 z"
     style="fill:#404040;"/>
  </a>
 </g>
</svg>

<style type='text/css'>
<![CDATA[
[data-mouse-over-selected='false'] { opacity: 0.7; }
[data-mouse-over-selected='true']  { opacity: 1.0; }
]]>
</style>
<script type="application/ecmascript"><![CDATA[
document.addEventListener('DOMContentLoaded', (event) => {
  highlightEdges();
  highlightAdjacentNodes();
});
]]></script>
</svg>
