<?xml version="1.0" encoding="UTF-8" standalone="no"?>
<!DOCTYPE svg PUBLIC "-//W3C//DTD SVG 1.1//EN"
 "http://www.w3.org/Graphics/SVG/1.1/DTD/svg11.dtd">
<!-- Generated by graphviz version 2.44.0 ()
 -->
<!-- Title: com.fs.starfarer.api.impl.campaign.intel.events.PirateHostileActivityFactor Pages: 1 -->
<svg width="988pt" height="137pt"
 viewBox="0.00 0.00 988.00 137.00" xmlns="http://www.w3.org/2000/svg" xmlns:xlink="http://www.w3.org/1999/xlink">
<g id="graph0" class="graph" transform="scale(1 1) rotate(0) translate(4 133)">
<title>com.fs.starfarer.api.impl.campaign.intel.events.PirateHostileActivityFactor</title>
<!-- Node1 -->
<g id="node1" class="node">
<title>Node1</title>
<g id="a_node1"><a xlink:title=" ">
<polygon fill="#bfbfbf" stroke="black" points="762,-49.5 762,-79.5 980,-79.5 980,-49.5 762,-49.5"/>
<text text-anchor="start" x="770" y="-67.5" font-family="Helvetica,sans-Serif" font-size="10.00">com.fs.starfarer.api.impl.campaign.intel.events.</text>
<text text-anchor="middle" x="871" y="-56.5" font-family="Helvetica,sans-Serif" font-size="10.00">PirateHostileActivityFactor</text>
</a>
</g>
</g>
<!-- Node2 -->
<g id="node2" class="node">
<title>Node2</title>
<g id="a_node2"><a xlink:href="classcom_1_1fs_1_1starfarer_1_1api_1_1impl_1_1campaign_1_1intel_1_1events_1_1BaseHostileActivityFactor.html" target="_top" xlink:title=" ">
<polygon fill="none" stroke="black" points="508,-49.5 508,-79.5 726,-79.5 726,-49.5 508,-49.5"/>
<text text-anchor="start" x="516" y="-67.5" font-family="Helvetica,sans-Serif" font-size="10.00">com.fs.starfarer.api.impl.campaign.intel.events.</text>
<text text-anchor="middle" x="617" y="-56.5" font-family="Helvetica,sans-Serif" font-size="10.00">BaseHostileActivityFactor</text>
</a>
</g>
</g>
<!-- Node2&#45;&gt;Node1 -->
<g id="edge1" class="edge">
<title>Node2&#45;&gt;Node1</title>
<path fill="none" stroke="midnightblue" d="M736.56,-64.5C744.96,-64.5 753.41,-64.5 761.76,-64.5"/>
<polygon fill="midnightblue" stroke="midnightblue" points="736.33,-61 726.33,-64.5 736.33,-68 736.33,-61"/>
</g>
<!-- Node3 -->
<g id="node3" class="node">
<title>Node3</title>
<g id="a_node3"><a xlink:href="classcom_1_1fs_1_1starfarer_1_1api_1_1impl_1_1campaign_1_1intel_1_1events_1_1BaseEventFactor.html" target="_top" xlink:title=" ">
<polygon fill="none" stroke="black" points="254,-98.5 254,-128.5 472,-128.5 472,-98.5 254,-98.5"/>
<text text-anchor="start" x="262" y="-116.5" font-family="Helvetica,sans-Serif" font-size="10.00">com.fs.starfarer.api.impl.campaign.intel.events.</text>
<text text-anchor="middle" x="363" y="-105.5" font-family="Helvetica,sans-Serif" font-size="10.00">BaseEventFactor</text>
</a>
</g>
</g>
<!-- Node3&#45;&gt;Node2 -->
<g id="edge2" class="edge">
<title>Node3&#45;&gt;Node2</title>
<path fill="none" stroke="midnightblue" d="M451.26,-96.53C479.74,-91 511.14,-84.89 538.83,-79.51"/>
<polygon fill="midnightblue" stroke="midnightblue" points="450.47,-93.12 441.32,-98.47 451.81,-99.99 450.47,-93.12"/>
</g>
<!-- Node4 -->
<g id="node4" class="node">
<title>Node4</title>
<g id="a_node4"><a xlink:href="interfacecom_1_1fs_1_1starfarer_1_1api_1_1impl_1_1campaign_1_1intel_1_1events_1_1EventFactor.html" target="_top" xlink:title=" ">
<polygon fill="none" stroke="black" points="0,-98.5 0,-128.5 218,-128.5 218,-98.5 0,-98.5"/>
<text text-anchor="start" x="8" y="-116.5" font-family="Helvetica,sans-Serif" font-size="10.00">com.fs.starfarer.api.impl.campaign.intel.events.</text>
<text text-anchor="middle" x="109" y="-105.5" font-family="Helvetica,sans-Serif" font-size="10.00">EventFactor</text>
</a>
</g>
</g>
<!-- Node4&#45;&gt;Node3 -->
<g id="edge3" class="edge">
<title>Node4&#45;&gt;Node3</title>
<path fill="none" stroke="midnightblue" d="M228.56,-113.5C236.96,-113.5 245.41,-113.5 253.76,-113.5"/>
<polygon fill="midnightblue" stroke="midnightblue" points="228.33,-110 218.33,-113.5 228.33,-117 228.33,-110"/>
</g>
<!-- Node5 -->
<g id="node5" class="node">
<title>Node5</title>
<g id="a_node5"><a xlink:href="interfacecom_1_1fs_1_1starfarer_1_1api_1_1impl_1_1campaign_1_1intel_1_1events_1_1HostileActivityFactor.html" target="_top" xlink:title=" ">
<polygon fill="none" stroke="black" points="254,-49.5 254,-79.5 472,-79.5 472,-49.5 254,-49.5"/>
<text text-anchor="start" x="262" y="-67.5" font-family="Helvetica,sans-Serif" font-size="10.00">com.fs.starfarer.api.impl.campaign.intel.events.</text>
<text text-anchor="middle" x="363" y="-56.5" font-family="Helvetica,sans-Serif" font-size="10.00">HostileActivityFactor</text>
</a>
</g>
</g>
<!-- Node5&#45;&gt;Node2 -->
<g id="edge4" class="edge">
<title>Node5&#45;&gt;Node2</title>
<path fill="none" stroke="midnightblue" d="M482.56,-64.5C490.96,-64.5 499.41,-64.5 507.76,-64.5"/>
<polygon fill="midnightblue" stroke="midnightblue" points="482.33,-61 472.33,-64.5 482.33,-68 482.33,-61"/>
</g>
<!-- Node6 -->
<g id="node6" class="node">
<title>Node6</title>
<g id="a_node6"><a xlink:href="interfacecom_1_1fs_1_1starfarer_1_1api_1_1impl_1_1campaign_1_1intel_1_1raid_1_1RaidIntel_1_1RaidDelegate.html" target="_top" xlink:title=" ">
<polygon fill="none" stroke="black" points="261,-0.5 261,-30.5 465,-30.5 465,-0.5 261,-0.5"/>
<text text-anchor="start" x="269" y="-18.5" font-family="Helvetica,sans-Serif" font-size="10.00">com.fs.starfarer.api.impl.campaign.intel.raid.</text>
<text text-anchor="middle" x="363" y="-7.5" font-family="Helvetica,sans-Serif" font-size="10.00">RaidIntel.RaidDelegate</text>
</a>
</g>
</g>
<!-- Node6&#45;&gt;Node2 -->
<g id="edge5" class="edge">
<title>Node6&#45;&gt;Node2</title>
<path fill="none" stroke="midnightblue" d="M451.26,-32.47C479.74,-38 511.14,-44.11 538.83,-49.49"/>
<polygon fill="midnightblue" stroke="midnightblue" points="451.81,-29.01 441.32,-30.53 450.47,-35.88 451.81,-29.01"/>
</g>
</g>
</svg>
