<?xml version="1.0" encoding="UTF-8" standalone="no"?>
<!DOCTYPE svg PUBLIC "-//W3C//DTD SVG 1.1//EN"
 "http://www.w3.org/Graphics/SVG/1.1/DTD/svg11.dtd">
<!-- Generated by graphviz version 2.49.3 (20211027.1501)
 -->
<!-- Title: com.fs.starfarer.api.impl.combat.AcausalDisruptorStats Pages: 1 -->
<svg width="297pt" height="275pt"
 viewBox="0.00 0.00 296.50 275.00" xmlns="http://www.w3.org/2000/svg" xmlns:xlink="http://www.w3.org/1999/xlink">
<g id="graph0" class="graph" transform="scale(1 1) rotate(0) translate(4 271)">
<title>com.fs.starfarer.api.impl.combat.AcausalDisruptorStats</title>
<!-- Node1 -->
<g id="node1" class="node">
<title>Node1</title>
<g id="a_node1"><a xlink:title=" ">
<polygon fill="#bfbfbf" stroke="black" points="60.5,-0.5 60.5,-30.5 216.5,-30.5 216.5,-0.5 60.5,-0.5"/>
<text text-anchor="start" x="68.5" y="-18.5" font-family="Helvetica,sans-Serif" font-size="10.00">com.fs.starfarer.api.impl.combat.</text>
<text text-anchor="middle" x="138.5" y="-7.5" font-family="Helvetica,sans-Serif" font-size="10.00">AcausalDisruptorStats</text>
</a>
</g>
</g>
<!-- Node2 -->
<g id="node2" class="node">
<title>Node2</title>
<g id="a_node2"><a xlink:href="classcom_1_1fs_1_1starfarer_1_1api_1_1impl_1_1combat_1_1BaseShipSystemScript.html" target="_top" xlink:title=" ">
<polygon fill="none" stroke="black" points="2.5,-100.5 2.5,-130.5 158.5,-130.5 158.5,-100.5 2.5,-100.5"/>
<text text-anchor="start" x="10.5" y="-118.5" font-family="Helvetica,sans-Serif" font-size="10.00">com.fs.starfarer.api.impl.combat.</text>
<text text-anchor="middle" x="80.5" y="-107.5" font-family="Helvetica,sans-Serif" font-size="10.00">BaseShipSystemScript</text>
</a>
</g>
</g>
<!-- Node2&#45;&gt;Node1 -->
<g id="edge1" class="edge">
<title>Node2&#45;&gt;Node1</title>
<path fill="none" stroke="midnightblue" d="M93.91,-91.84C105.11,-72.91 120.74,-46.51 130.21,-30.51"/>
<polygon fill="midnightblue" stroke="midnightblue" points="90.89,-90.07 88.81,-100.46 96.92,-93.64 90.89,-90.07"/>
</g>
<!-- Node3 -->
<g id="node3" class="node">
<title>Node3</title>
<g id="a_node3"><a xlink:href="interfacecom_1_1fs_1_1starfarer_1_1api_1_1plugins_1_1ShipSystemStatsScriptAdvanced.html" target="_top" xlink:title=" ">
<polygon fill="none" stroke="black" points="0,-168.5 0,-198.5 161,-198.5 161,-168.5 0,-168.5"/>
<text text-anchor="start" x="8" y="-186.5" font-family="Helvetica,sans-Serif" font-size="10.00">com.fs.starfarer.api.plugins.</text>
<text text-anchor="middle" x="80.5" y="-175.5" font-family="Helvetica,sans-Serif" font-size="10.00">ShipSystemStatsScriptAdvanced</text>
</a>
</g>
</g>
<!-- Node3&#45;&gt;Node2 -->
<g id="edge2" class="edge">
<title>Node3&#45;&gt;Node2</title>
<path fill="none" stroke="midnightblue" d="M80.5,-158.03C80.5,-148.86 80.5,-138.74 80.5,-130.79"/>
<polygon fill="midnightblue" stroke="midnightblue" points="77,-158.18 80.5,-168.18 84,-158.18 77,-158.18"/>
</g>
<!-- Node4 -->
<g id="node4" class="node">
<title>Node4</title>
<g id="a_node4"><a xlink:href="interfacecom_1_1fs_1_1starfarer_1_1api_1_1plugins_1_1ShipSystemStatsScript.html" target="_top" xlink:title=" ">
<polygon fill="none" stroke="black" points="13.5,-236.5 13.5,-266.5 147.5,-266.5 147.5,-236.5 13.5,-236.5"/>
<text text-anchor="start" x="21.5" y="-254.5" font-family="Helvetica,sans-Serif" font-size="10.00">com.fs.starfarer.api.plugins.</text>
<text text-anchor="middle" x="80.5" y="-243.5" font-family="Helvetica,sans-Serif" font-size="10.00">ShipSystemStatsScript</text>
</a>
</g>
</g>
<!-- Node4&#45;&gt;Node3 -->
<g id="edge3" class="edge">
<title>Node4&#45;&gt;Node3</title>
<path fill="none" stroke="midnightblue" d="M80.5,-226.03C80.5,-216.86 80.5,-206.74 80.5,-198.79"/>
<polygon fill="midnightblue" stroke="midnightblue" points="77,-226.18 80.5,-236.18 84,-226.18 77,-226.18"/>
</g>
<!-- Node5 -->
<g id="node5" class="node">
<title>Node5</title>
<g id="a_node5"><a xlink:title=" ">
<polygon fill="none" stroke="#bfbfbf" points="177,-106 177,-125 216,-125 216,-106 177,-106"/>
<text text-anchor="middle" x="196.5" y="-113" font-family="Helvetica,sans-Serif" font-size="10.00">Color</text>
</a>
</g>
</g>
<!-- Node5&#45;&gt;Node1 -->
<g id="edge4" class="edge">
<title>Node5&#45;&gt;Node1</title>
<path fill="none" stroke="#9a32cd" stroke-dasharray="5,2" d="M186.15,-97.01C174.93,-78.05 157.24,-48.17 146.87,-30.64"/>
<polygon fill="#9a32cd" stroke="#9a32cd" points="183.25,-98.98 191.35,-105.8 189.27,-95.41 183.25,-98.98"/>
<text text-anchor="middle" x="232" y="-74" font-family="Helvetica,sans-Serif" font-size="10.00"> JITTER_COLOR</text>
<text text-anchor="middle" x="232" y="-63" font-family="Helvetica,sans-Serif" font-size="10.00">JITTER_UNDER_COLOR</text>
<text text-anchor="middle" x="232" y="-52" font-family="Helvetica,sans-Serif" font-size="10.00">OVERLOAD_COLOR</text>
</g>
</g>
</svg>
