<?xml version="1.0" encoding="UTF-8" standalone="no"?>
<!DOCTYPE svg PUBLIC "-//W3C//DTD SVG 1.1//EN"
 "http://www.w3.org/Graphics/SVG/1.1/DTD/svg11.dtd">
<!-- Generated by graphviz version 2.44.0 ()
 -->
<!-- Title: com.fs.starfarer.api.impl.campaign.fleets.BaseRouteFleetManager Pages: 1 -->
<svg width="699pt" height="235pt"
 viewBox="0.00 0.00 699.00 235.00" xmlns="http://www.w3.org/2000/svg" xmlns:xlink="http://www.w3.org/1999/xlink">
<g id="graph0" class="graph" transform="scale(1 1) rotate(0) translate(4 231)">
<title>com.fs.starfarer.api.impl.campaign.fleets.BaseRouteFleetManager</title>
<!-- Node1 -->
<g id="node1" class="node">
<title>Node1</title>
<g id="a_node1"><a xlink:title=" ">
<polygon fill="#bfbfbf" stroke="black" points="227,-98.5 227,-128.5 418,-128.5 418,-98.5 227,-98.5"/>
<text text-anchor="start" x="235" y="-116.5" font-family="Helvetica,sans-Serif" font-size="10.00">com.fs.starfarer.api.impl.campaign.fleets.</text>
<text text-anchor="middle" x="322.5" y="-105.5" font-family="Helvetica,sans-Serif" font-size="10.00">BaseRouteFleetManager</text>
</a>
</g>
</g>
<!-- Node4 -->
<g id="node4" class="node">
<title>Node4</title>
<g id="a_node4"><a xlink:href="classcom_1_1fs_1_1starfarer_1_1api_1_1impl_1_1campaign_1_1fleets_1_1EconomyFleetRouteManager.html" target="_top" xlink:title=" ">
<polygon fill="none" stroke="black" points="477,-196.5 477,-226.5 668,-226.5 668,-196.5 477,-196.5"/>
<text text-anchor="start" x="485" y="-214.5" font-family="Helvetica,sans-Serif" font-size="10.00">com.fs.starfarer.api.impl.campaign.fleets.</text>
<text text-anchor="middle" x="572.5" y="-203.5" font-family="Helvetica,sans-Serif" font-size="10.00">EconomyFleetRouteManager</text>
</a>
</g>
</g>
<!-- Node1&#45;&gt;Node4 -->
<g id="edge3" class="edge">
<title>Node1&#45;&gt;Node4</title>
<path fill="none" stroke="midnightblue" d="M353.59,-134.21C379.22,-150.93 417.57,-173.84 454,-187.5 463.16,-190.93 472.92,-193.92 482.75,-196.5"/>
<polygon fill="midnightblue" stroke="midnightblue" points="355.35,-131.18 345.08,-128.58 351.49,-137.01 355.35,-131.18"/>
</g>
<!-- Node5 -->
<g id="node5" class="node">
<title>Node5</title>
<g id="a_node5"><a xlink:href="classcom_1_1fs_1_1starfarer_1_1api_1_1impl_1_1campaign_1_1fleets_1_1MercFleetManagerV2.html" target="_top" xlink:title=" ">
<polygon fill="none" stroke="black" points="477,-147.5 477,-177.5 668,-177.5 668,-147.5 477,-147.5"/>
<text text-anchor="start" x="485" y="-165.5" font-family="Helvetica,sans-Serif" font-size="10.00">com.fs.starfarer.api.impl.campaign.fleets.</text>
<text text-anchor="middle" x="572.5" y="-154.5" font-family="Helvetica,sans-Serif" font-size="10.00">MercFleetManagerV2</text>
</a>
</g>
</g>
<!-- Node1&#45;&gt;Node5 -->
<g id="edge4" class="edge">
<title>Node1&#45;&gt;Node5</title>
<path fill="none" stroke="midnightblue" d="M409.74,-130.54C437.67,-136.06 468.43,-142.13 495.55,-147.49"/>
<polygon fill="midnightblue" stroke="midnightblue" points="410.08,-127.04 399.59,-128.53 408.73,-133.91 410.08,-127.04"/>
</g>
<!-- Node6 -->
<g id="node6" class="node">
<title>Node6</title>
<g id="a_node6"><a xlink:href="classcom_1_1fs_1_1starfarer_1_1api_1_1impl_1_1campaign_1_1fleets_1_1PilgrimageFleetRouteManager.html" target="_top" xlink:title=" ">
<polygon fill="none" stroke="black" points="477,-98.5 477,-128.5 668,-128.5 668,-98.5 477,-98.5"/>
<text text-anchor="start" x="485" y="-116.5" font-family="Helvetica,sans-Serif" font-size="10.00">com.fs.starfarer.api.impl.campaign.fleets.</text>
<text text-anchor="middle" x="572.5" y="-105.5" font-family="Helvetica,sans-Serif" font-size="10.00">PilgrimageFleetRouteManager</text>
</a>
</g>
</g>
<!-- Node1&#45;&gt;Node6 -->
<g id="edge5" class="edge">
<title>Node1&#45;&gt;Node6</title>
<path fill="none" stroke="midnightblue" d="M428.72,-113.5C444.66,-113.5 461.03,-113.5 476.73,-113.5"/>
<polygon fill="midnightblue" stroke="midnightblue" points="428.32,-110 418.32,-113.5 428.32,-117 428.32,-110"/>
</g>
<!-- Node7 -->
<g id="node7" class="node">
<title>Node7</title>
<g id="a_node7"><a xlink:href="classcom_1_1fs_1_1starfarer_1_1api_1_1impl_1_1campaign_1_1fleets_1_1misc_1_1MiscFleetRouteManager.html" target="_top" xlink:title=" ">
<polygon fill="none" stroke="black" points="465,-49.5 465,-79.5 680,-79.5 680,-49.5 465,-49.5"/>
<text text-anchor="start" x="473" y="-67.5" font-family="Helvetica,sans-Serif" font-size="10.00">com.fs.starfarer.api.impl.campaign.fleets.misc.</text>
<text text-anchor="middle" x="572.5" y="-56.5" font-family="Helvetica,sans-Serif" font-size="10.00">MiscFleetRouteManager</text>
</a>
</g>
</g>
<!-- Node1&#45;&gt;Node7 -->
<g id="edge6" class="edge">
<title>Node1&#45;&gt;Node7</title>
<path fill="none" stroke="midnightblue" d="M409.74,-96.46C437.67,-90.94 468.43,-84.87 495.55,-79.51"/>
<polygon fill="midnightblue" stroke="midnightblue" points="408.73,-93.09 399.59,-98.47 410.08,-99.96 408.73,-93.09"/>
</g>
<!-- Node8 -->
<g id="node8" class="node">
<title>Node8</title>
<g id="a_node8"><a xlink:href="classcom_1_1fs_1_1starfarer_1_1api_1_1impl_1_1campaign_1_1procgen_1_1themes_1_1RuinsFleetRouteManager.html" target="_top" xlink:title=" ">
<polygon fill="none" stroke="black" points="454,-0.5 454,-30.5 691,-30.5 691,-0.5 454,-0.5"/>
<text text-anchor="start" x="462" y="-18.5" font-family="Helvetica,sans-Serif" font-size="10.00">com.fs.starfarer.api.impl.campaign.procgen.themes.</text>
<text text-anchor="middle" x="572.5" y="-7.5" font-family="Helvetica,sans-Serif" font-size="10.00">RuinsFleetRouteManager</text>
</a>
</g>
</g>
<!-- Node1&#45;&gt;Node8 -->
<g id="edge7" class="edge">
<title>Node1&#45;&gt;Node8</title>
<path fill="none" stroke="midnightblue" d="M353.59,-92.79C379.22,-76.07 417.57,-53.16 454,-39.5 463.16,-36.07 472.92,-33.08 482.75,-30.5"/>
<polygon fill="midnightblue" stroke="midnightblue" points="351.49,-89.99 345.08,-98.42 355.35,-95.82 351.49,-89.99"/>
</g>
<!-- Node2 -->
<g id="node2" class="node">
<title>Node2</title>
<g id="a_node2"><a xlink:href="interfacecom_1_1fs_1_1starfarer_1_1api_1_1EveryFrameScript.html" target="_top" xlink:title=" ">
<polygon fill="none" stroke="black" points="33,-123.5 33,-153.5 158,-153.5 158,-123.5 33,-123.5"/>
<text text-anchor="start" x="41" y="-141.5" font-family="Helvetica,sans-Serif" font-size="10.00">com.fs.starfarer.api.Every</text>
<text text-anchor="middle" x="95.5" y="-130.5" font-family="Helvetica,sans-Serif" font-size="10.00">FrameScript</text>
</a>
</g>
</g>
<!-- Node2&#45;&gt;Node1 -->
<g id="edge1" class="edge">
<title>Node2&#45;&gt;Node1</title>
<path fill="none" stroke="midnightblue" d="M168.43,-130.51C187.04,-128.44 207.36,-126.18 226.93,-124.01"/>
<polygon fill="midnightblue" stroke="midnightblue" points="167.83,-127.05 158.28,-131.64 168.61,-134.01 167.83,-127.05"/>
</g>
<!-- Node3 -->
<g id="node3" class="node">
<title>Node3</title>
<g id="a_node3"><a xlink:href="interfacecom_1_1fs_1_1starfarer_1_1api_1_1impl_1_1campaign_1_1fleets_1_1RouteManager_1_1RouteFleetSpawner.html" target="_top" xlink:title=" ">
<polygon fill="none" stroke="black" points="0,-74.5 0,-104.5 191,-104.5 191,-74.5 0,-74.5"/>
<text text-anchor="start" x="8" y="-92.5" font-family="Helvetica,sans-Serif" font-size="10.00">com.fs.starfarer.api.impl.campaign.fleets.</text>
<text text-anchor="middle" x="95.5" y="-81.5" font-family="Helvetica,sans-Serif" font-size="10.00">RouteManager.RouteFleetSpawner</text>
</a>
</g>
</g>
<!-- Node3&#45;&gt;Node1 -->
<g id="edge2" class="edge">
<title>Node3&#45;&gt;Node1</title>
<path fill="none" stroke="midnightblue" d="M201.25,-100.67C209.79,-101.58 218.38,-102.5 226.84,-103.4"/>
<polygon fill="midnightblue" stroke="midnightblue" points="201.58,-97.19 191.27,-99.61 200.84,-104.15 201.58,-97.19"/>
</g>
</g>
</svg>
