<?xml version="1.0" encoding="UTF-8" standalone="no"?>
<!DOCTYPE svg PUBLIC "-//W3C//DTD SVG 1.1//EN"
 "http://www.w3.org/Graphics/SVG/1.1/DTD/svg11.dtd">
<!-- Generated by graphviz version 12.2.0 (20241103.1931)
 -->
<!-- Title: com.fs.starfarer.api.impl.combat.threat.ThreatCombatStrategyAI Pages: 1 -->
<svg width="513pt" height="235pt"
 viewBox="0.00 0.00 512.50 234.50" xmlns="http://www.w3.org/2000/svg" xmlns:xlink="http://www.w3.org/1999/xlink">
<g id="graph0" class="graph" transform="scale(1 1) rotate(0) translate(4 230.5)">
<title>com.fs.starfarer.api.impl.combat.threat.ThreatCombatStrategyAI</title>
<!-- Node1 -->
<g id="Node000001" class="node">
<title>Node1</title>
<g id="a_Node000001"><a xlink:title=" ">
<polygon fill="#999999" stroke="#666666" points="504.5,-128.5 322,-128.5 322,-98 504.5,-98 504.5,-128.5"/>
<text text-anchor="start" x="330" y="-115" font-family="Helvetica,sans-Serif" font-size="10.00">com.fs.starfarer.api.impl.combat.threat.</text>
<text text-anchor="middle" x="413.25" y="-103.75" font-family="Helvetica,sans-Serif" font-size="10.00">ThreatCombatStrategyAI</text>
</a>
</g>
</g>
<!-- Node2 -->
<g id="Node000002" class="node">
<title>Node2</title>
<g id="a_Node000002"><a xlink:href="interfacecom_1_1fs_1_1starfarer_1_1api_1_1combat_1_1CombatTaskManagerAPI.html" target="_top" xlink:title=" ">
<polygon fill="white" stroke="#666666" points="165.62,-226.5 30.38,-226.5 30.38,-196 165.62,-196 165.62,-226.5"/>
<text text-anchor="start" x="38.38" y="-213" font-family="Helvetica,sans-Serif" font-size="10.00">com.fs.starfarer.api.combat.</text>
<text text-anchor="middle" x="98" y="-201.75" font-family="Helvetica,sans-Serif" font-size="10.00">CombatTaskManagerAPI</text>
</a>
</g>
</g>
<!-- Node2&#45;&gt;Node1 -->
<g id="edge1_Node000001_Node000002" class="edge">
<title>Node2&#45;&gt;Node1</title>
<g id="a_edge1_Node000001_Node000002"><a xlink:title=" ">
<path fill="none" stroke="#9a32cd" stroke-dasharray="5,2" d="M177.1,-201.04C215.96,-194.61 263.22,-184.72 304,-170.25 334.02,-159.59 366.03,-141.86 387.38,-128.99"/>
<polygon fill="#9a32cd" stroke="#9a32cd" points="176.66,-197.57 167.34,-202.61 177.77,-204.48 176.66,-197.57"/>
</a>
</g>
<text text-anchor="middle" x="259" y="-195.7" font-family="Helvetica,sans-Serif" font-size="10.00" fill="grey"> taskManager</text>
</g>
<!-- Node3 -->
<g id="Node000003" class="node">
<title>Node3</title>
<g id="a_Node000003"><a xlink:href="interfacecom_1_1fs_1_1starfarer_1_1api_1_1combat_1_1CombatFleetManagerAPI.html" target="_top" xlink:title=" ">
<polygon fill="white" stroke="#666666" points="165.62,-177.5 30.38,-177.5 30.38,-147 165.62,-147 165.62,-177.5"/>
<text text-anchor="start" x="38.38" y="-164" font-family="Helvetica,sans-Serif" font-size="10.00">com.fs.starfarer.api.combat.</text>
<text text-anchor="middle" x="98" y="-152.75" font-family="Helvetica,sans-Serif" font-size="10.00">CombatFleetManagerAPI</text>
</a>
</g>
</g>
<!-- Node3&#45;&gt;Node1 -->
<g id="edge2_Node000001_Node000003" class="edge">
<title>Node3&#45;&gt;Node1</title>
<g id="a_edge2_Node000001_Node000003"><a xlink:title=" ">
<path fill="none" stroke="#9a32cd" stroke-dasharray="5,2" d="M177.02,-150.05C220.93,-143.18 275.97,-134.57 321.77,-127.4"/>
<polygon fill="#9a32cd" stroke="#9a32cd" points="176.65,-146.56 167.31,-151.56 177.73,-153.48 176.65,-146.56"/>
</a>
</g>
<text text-anchor="middle" x="259" y="-156.58" font-family="Helvetica,sans-Serif" font-size="10.00" fill="grey"> enemyFleetManager</text>
<text text-anchor="middle" x="259" y="-145.33" font-family="Helvetica,sans-Serif" font-size="10.00" fill="grey">fleetManager</text>
</g>
<!-- Node4 -->
<g id="Node000004" class="node">
<title>Node4</title>
<g id="a_Node000004"><a xlink:href="classcom_1_1fs_1_1starfarer_1_1api_1_1util_1_1IntervalUtil.html" target="_top" xlink:title=" ">
<polygon fill="white" stroke="#666666" points="155.88,-128.5 40.12,-128.5 40.12,-98 155.88,-98 155.88,-128.5"/>
<text text-anchor="start" x="48.12" y="-115" font-family="Helvetica,sans-Serif" font-size="10.00">com.fs.starfarer.api.util.</text>
<text text-anchor="middle" x="98" y="-103.75" font-family="Helvetica,sans-Serif" font-size="10.00">IntervalUtil</text>
</a>
</g>
</g>
<!-- Node4&#45;&gt;Node1 -->
<g id="edge3_Node000001_Node000004" class="edge">
<title>Node4&#45;&gt;Node1</title>
<g id="a_edge3_Node000001_Node000004"><a xlink:title=" ">
<path fill="none" stroke="#9a32cd" stroke-dasharray="5,2" d="M167.56,-113.25C212.81,-113.25 272.6,-113.25 321.74,-113.25"/>
<polygon fill="#9a32cd" stroke="#9a32cd" points="167.6,-109.75 157.6,-113.25 167.6,-116.75 167.6,-109.75"/>
</a>
</g>
<text text-anchor="middle" x="259" y="-115" font-family="Helvetica,sans-Serif" font-size="10.00" fill="grey"> everySecond</text>
</g>
<!-- Node5 -->
<g id="Node000005" class="node">
<title>Node5</title>
<g id="a_Node000005"><a xlink:href="interfacecom_1_1fs_1_1starfarer_1_1api_1_1combat_1_1CombatEngineAPI.html" target="_top" xlink:title=" ">
<polygon fill="white" stroke="#666666" points="165.62,-79.5 30.38,-79.5 30.38,-49 165.62,-49 165.62,-79.5"/>
<text text-anchor="start" x="38.38" y="-66" font-family="Helvetica,sans-Serif" font-size="10.00">com.fs.starfarer.api.combat.</text>
<text text-anchor="middle" x="98" y="-54.75" font-family="Helvetica,sans-Serif" font-size="10.00">CombatEngineAPI</text>
</a>
</g>
</g>
<!-- Node5&#45;&gt;Node1 -->
<g id="edge4_Node000001_Node000005" class="edge">
<title>Node5&#45;&gt;Node1</title>
<g id="a_edge4_Node000001_Node000005"><a xlink:title=" ">
<path fill="none" stroke="#9a32cd" stroke-dasharray="5,2" d="M177.02,-76.45C220.93,-83.32 275.97,-91.93 321.77,-99.1"/>
<polygon fill="#9a32cd" stroke="#9a32cd" points="177.73,-73.02 167.31,-74.94 176.65,-79.94 177.73,-73.02"/>
</a>
</g>
<text text-anchor="middle" x="259" y="-97.75" font-family="Helvetica,sans-Serif" font-size="10.00" fill="grey"> engine</text>
</g>
<!-- Node6 -->
<g id="Node000006" class="node">
<title>Node6</title>
<g id="a_Node000006"><a xlink:href="interfacecom_1_1fs_1_1starfarer_1_1api_1_1combat_1_1CombatFleetManagerAPI_1_1AssignmentInfo.html" target="_top" xlink:title=" ">
<polygon fill="white" stroke="#666666" points="196,-30.5 0,-30.5 0,0 196,0 196,-30.5"/>
<text text-anchor="start" x="8" y="-17" font-family="Helvetica,sans-Serif" font-size="10.00">com.fs.starfarer.api.combat.</text>
<text text-anchor="middle" x="98" y="-5.75" font-family="Helvetica,sans-Serif" font-size="10.00">CombatFleetManagerAPI.AssignmentInfo</text>
</a>
</g>
</g>
<!-- Node6&#45;&gt;Node1 -->
<g id="edge5_Node000001_Node000006" class="edge">
<title>Node6&#45;&gt;Node1</title>
<g id="a_edge5_Node000001_Node000006"><a xlink:title=" ">
<path fill="none" stroke="#9a32cd" stroke-dasharray="5,2" d="M207.52,-31.32C239.13,-37.57 273.38,-45.91 304,-56.75 333.97,-67.37 365.99,-84.94 387.36,-97.67"/>
<polygon fill="#9a32cd" stroke="#9a32cd" points="208.43,-27.93 197.95,-29.48 207.11,-34.8 208.43,-27.93"/>
</a>
</g>
<text text-anchor="middle" x="259" y="-69.75" font-family="Helvetica,sans-Serif" font-size="10.00" fill="grey"> mainDefend1</text>
<text text-anchor="middle" x="259" y="-58.5" font-family="Helvetica,sans-Serif" font-size="10.00" fill="grey">mainDefend2</text>
</g>
</g>
</svg>
