<?xml version="1.0" encoding="UTF-8" standalone="no"?>
<!DOCTYPE svg PUBLIC "-//W3C//DTD SVG 1.1//EN"
 "http://www.w3.org/Graphics/SVG/1.1/DTD/svg11.dtd">
<!-- Generated by graphviz version 7.0.5 (20221223.1930)
 -->
<!-- Title: com.fs.starfarer.api.plugins.DModAdderPlugin.DModAdderParams Pages: 1 -->
<svg width="804pt" height="124pt"
 viewBox="0.00 0.00 804.00 123.50" xmlns="http://www.w3.org/2000/svg" xmlns:xlink="http://www.w3.org/1999/xlink">
<g id="graph0" class="graph" transform="scale(1 1) rotate(0) translate(4 119.5)">
<title>com.fs.starfarer.api.plugins.DModAdderPlugin.DModAdderParams</title>
<!-- Node1 -->
<g id="node1" class="node">
<title>Node1</title>
<g id="a_node1"><a xlink:title=" ">
<polygon fill="#999999" stroke="#666666" points="796,-67.5 614,-67.5 614,-37.5 796,-37.5 796,-67.5"/>
<text text-anchor="start" x="622" y="-55.5" font-family="Helvetica,sans-Serif" font-size="10.00">com.fs.starfarer.api.plugins.</text>
<text text-anchor="middle" x="705" y="-44.5" font-family="Helvetica,sans-Serif" font-size="10.00">DModAdderPlugin.DModAdderParams</text>
</a>
</g>
</g>
<!-- Node2 -->
<g id="node2" class="node">
<title>Node2</title>
<g id="a_node2"><a xlink:href="interfacecom_1_1fs_1_1starfarer_1_1api_1_1combat_1_1ShipVariantAPI.html" target="_top" xlink:title=" ">
<polygon fill="white" stroke="#bfbfbf" points="530,-115.5 394,-115.5 394,-85.5 530,-85.5 530,-115.5"/>
<text text-anchor="start" x="402" y="-103.5" font-family="Helvetica,sans-Serif" font-size="10.00">com.fs.starfarer.api.combat.</text>
<text text-anchor="middle" x="462" y="-92.5" font-family="Helvetica,sans-Serif" font-size="10.00">ShipVariantAPI</text>
</a>
</g>
</g>
<!-- Node2&#45;&gt;Node1 -->
<g id="edge1" class="edge">
<title>Node2&#45;&gt;Node1</title>
<path fill="none" stroke="#9a32cd" stroke-dasharray="5,2" d="M541.5,-84.87C568.72,-79.44 599.2,-73.37 626.35,-67.97"/>
<polygon fill="#9a32cd" stroke="#9a32cd" points="541.06,-81.38 531.94,-86.77 542.43,-88.25 541.06,-81.38"/>
<text text-anchor="middle" x="574.5" y="-84.5" font-family="Helvetica,sans-Serif" font-size="10.00"> variant</text>
</g>
<!-- Node3 -->
<g id="node3" class="node">
<title>Node3</title>
<g id="a_node3"><a xlink:href="interfacecom_1_1fs_1_1starfarer_1_1api_1_1campaign_1_1CampaignFleetAPI.html" target="_top" xlink:title=" ">
<polygon fill="white" stroke="#666666" points="535,-67.5 389,-67.5 389,-37.5 535,-37.5 535,-67.5"/>
<text text-anchor="start" x="397" y="-55.5" font-family="Helvetica,sans-Serif" font-size="10.00">com.fs.starfarer.api.campaign.</text>
<text text-anchor="middle" x="462" y="-44.5" font-family="Helvetica,sans-Serif" font-size="10.00">CampaignFleetAPI</text>
</a>
</g>
</g>
<!-- Node3&#45;&gt;Node1 -->
<g id="edge2" class="edge">
<title>Node3&#45;&gt;Node1</title>
<path fill="none" stroke="#9a32cd" stroke-dasharray="5,2" d="M546.79,-52.5C568.44,-52.5 591.84,-52.5 613.81,-52.5"/>
<polygon fill="#9a32cd" stroke="#9a32cd" points="546.82,-49 536.82,-52.5 546.82,-56 546.82,-49"/>
<text text-anchor="middle" x="574.5" y="-55.5" font-family="Helvetica,sans-Serif" font-size="10.00"> recoverer</text>
</g>
<!-- Node4 -->
<g id="node4" class="node">
<title>Node4</title>
<g id="a_node4"><a xlink:href="interfacecom_1_1fs_1_1starfarer_1_1api_1_1campaign_1_1SectorEntityToken.html" target="_top" xlink:title=" ">
<polygon fill="white" stroke="#666666" points="352,-97.5 206,-97.5 206,-67.5 352,-67.5 352,-97.5"/>
<text text-anchor="start" x="214" y="-85.5" font-family="Helvetica,sans-Serif" font-size="10.00">com.fs.starfarer.api.campaign.</text>
<text text-anchor="middle" x="279" y="-74.5" font-family="Helvetica,sans-Serif" font-size="10.00">SectorEntityToken</text>
</a>
</g>
</g>
<!-- Node4&#45;&gt;Node3 -->
<g id="edge3" class="edge">
<title>Node4&#45;&gt;Node3</title>
<path fill="none" stroke="#63b8ff" d="M363.59,-68.65C371.91,-67.27 380.31,-65.87 388.5,-64.52"/>
<polygon fill="#63b8ff" stroke="#63b8ff" points="363.1,-65.18 353.81,-70.27 364.25,-72.08 363.1,-65.18"/>
</g>
<!-- Node5 -->
<g id="node5" class="node">
<title>Node5</title>
<g id="a_node5"><a xlink:href="interfacecom_1_1fs_1_1starfarer_1_1api_1_1campaign_1_1rules_1_1HasMemory.html" target="_top" xlink:title=" ">
<polygon fill="white" stroke="#bfbfbf" points="169,-97.5 0,-97.5 0,-67.5 169,-67.5 169,-97.5"/>
<text text-anchor="start" x="8" y="-85.5" font-family="Helvetica,sans-Serif" font-size="10.00">com.fs.starfarer.api.campaign.rules.</text>
<text text-anchor="middle" x="84.5" y="-74.5" font-family="Helvetica,sans-Serif" font-size="10.00">HasMemory</text>
</a>
</g>
</g>
<!-- Node5&#45;&gt;Node4 -->
<g id="edge4" class="edge">
<title>Node5&#45;&gt;Node4</title>
<path fill="none" stroke="#63b8ff" d="M180.73,-82.5C189.08,-82.5 197.44,-82.5 205.56,-82.5"/>
<polygon fill="#63b8ff" stroke="#63b8ff" points="180.89,-79 170.89,-82.5 180.89,-86 180.89,-79"/>
</g>
<!-- Node6 -->
<g id="node6" class="node">
<title>Node6</title>
<g id="a_node6"><a xlink:href="interfacecom_1_1fs_1_1starfarer_1_1api_1_1campaign_1_1FleetOrStubAPI.html" target="_top" xlink:title=" ">
<polygon fill="white" stroke="#bfbfbf" points="352,-49.5 206,-49.5 206,-19.5 352,-19.5 352,-49.5"/>
<text text-anchor="start" x="214" y="-37.5" font-family="Helvetica,sans-Serif" font-size="10.00">com.fs.starfarer.api.campaign.</text>
<text text-anchor="middle" x="279" y="-26.5" font-family="Helvetica,sans-Serif" font-size="10.00">FleetOrStubAPI</text>
</a>
</g>
</g>
<!-- Node6&#45;&gt;Node3 -->
<g id="edge5" class="edge">
<title>Node6&#45;&gt;Node3</title>
<path fill="none" stroke="#63b8ff" d="M363.59,-42.81C371.91,-43.64 380.31,-44.48 388.5,-45.29"/>
<polygon fill="#63b8ff" stroke="#63b8ff" points="364.12,-39.35 353.82,-41.84 363.43,-46.31 364.12,-39.35"/>
</g>
<!-- Node7 -->
<g id="node7" class="node">
<title>Node7</title>
<g id="a_node7"><a xlink:title=" ">
<polygon fill="white" stroke="#bfbfbf" points="488.5,-19 435.5,-19 435.5,0 488.5,0 488.5,-19"/>
<text text-anchor="middle" x="462" y="-7" font-family="Helvetica,sans-Serif" font-size="10.00">Random</text>
</a>
</g>
</g>
<!-- Node7&#45;&gt;Node1 -->
<g id="edge6" class="edge">
<title>Node7&#45;&gt;Node1</title>
<path fill="none" stroke="#9a32cd" stroke-dasharray="5,2" d="M499.97,-16.1C531.13,-21.66 576.95,-29.83 617.28,-37.03"/>
<polygon fill="#9a32cd" stroke="#9a32cd" points="500.74,-12.68 490.28,-14.37 499.51,-19.57 500.74,-12.68"/>
<text text-anchor="middle" x="574.5" y="-34.5" font-family="Helvetica,sans-Serif" font-size="10.00"> random</text>
</g>
</g>
</svg>
