<?xml version="1.0" encoding="UTF-8" standalone="no"?>
<!DOCTYPE svg PUBLIC "-//W3C//DTD SVG 1.1//EN"
 "http://www.w3.org/Graphics/SVG/1.1/DTD/svg11.dtd">
<!-- Generated by graphviz version 2.44.0 ()
 -->
<!-- Title: com.fs.starfarer.api.impl.campaign.skills.CrewTraining.Level2 Pages: 1 -->
<svg width="947pt" height="141pt"
 viewBox="0.00 0.00 947.00 141.30" xmlns="http://www.w3.org/2000/svg" xmlns:xlink="http://www.w3.org/1999/xlink">
<g id="graph0" class="graph" transform="scale(1 1) rotate(0) translate(4 137.3)">
<title>com.fs.starfarer.api.impl.campaign.skills.CrewTraining.Level2</title>
<!-- Node1 -->
<g id="node1" class="node">
<title>Node1</title>
<g id="a_node1"><a xlink:title=" ">
<polygon fill="#bfbfbf" stroke="black" points="748,-58.8 748,-88.8 939,-88.8 939,-58.8 748,-58.8"/>
<text text-anchor="start" x="756" y="-76.8" font-family="Helvetica,sans-Serif" font-size="10.00">com.fs.starfarer.api.impl.campaign.skills.</text>
<text text-anchor="middle" x="843.5" y="-65.8" font-family="Helvetica,sans-Serif" font-size="10.00">CrewTraining.Level2</text>
</a>
</g>
</g>
<!-- Node2 -->
<g id="node2" class="node">
<title>Node2</title>
<g id="a_node2"><a xlink:href="classcom_1_1fs_1_1starfarer_1_1api_1_1impl_1_1campaign_1_1skills_1_1BaseSkillEffectDescription.html" target="_top" xlink:title=" ">
<polygon fill="none" stroke="black" points="520,-58.8 520,-88.8 711,-88.8 711,-58.8 520,-58.8"/>
<text text-anchor="start" x="528" y="-76.8" font-family="Helvetica,sans-Serif" font-size="10.00">com.fs.starfarer.api.impl.campaign.skills.</text>
<text text-anchor="middle" x="615.5" y="-65.8" font-family="Helvetica,sans-Serif" font-size="10.00">BaseSkillEffectDescription</text>
</a>
</g>
</g>
<!-- Node2&#45;&gt;Node1 -->
<g id="edge1" class="edge">
<title>Node2&#45;&gt;Node1</title>
<path fill="none" stroke="midnightblue" d="M721.11,-73.8C730.07,-73.8 739.1,-73.8 747.98,-73.8"/>
<polygon fill="midnightblue" stroke="midnightblue" points="721.03,-70.3 711.03,-73.8 721.03,-77.3 721.03,-70.3"/>
</g>
<!-- Node3 -->
<g id="node3" class="node">
<title>Node3</title>
<g id="a_node3"><a xlink:href="interfacecom_1_1fs_1_1starfarer_1_1api_1_1characters_1_1CustomSkillDescription.html" target="_top" xlink:title=" ">
<polygon fill="none" stroke="black" points="186,-58.8 186,-88.8 335,-88.8 335,-58.8 186,-58.8"/>
<text text-anchor="start" x="194" y="-76.8" font-family="Helvetica,sans-Serif" font-size="10.00">com.fs.starfarer.api.characters.</text>
<text text-anchor="middle" x="260.5" y="-65.8" font-family="Helvetica,sans-Serif" font-size="10.00">CustomSkillDescription</text>
</a>
</g>
</g>
<!-- Node3&#45;&gt;Node2 -->
<g id="edge2" class="edge">
<title>Node3&#45;&gt;Node2</title>
<path fill="none" stroke="midnightblue" d="M345.35,-73.8C397.8,-73.8 465.49,-73.8 519.86,-73.8"/>
<polygon fill="midnightblue" stroke="midnightblue" points="345.07,-70.3 335.07,-73.8 345.07,-77.3 345.07,-70.3"/>
</g>
<!-- Node4 -->
<g id="node4" class="node">
<title>Node4</title>
<g id="a_node4"><a xlink:href="interfacecom_1_1fs_1_1starfarer_1_1api_1_1characters_1_1LevelBasedEffect.html" target="_top" xlink:title=" ">
<polygon fill="none" stroke="black" points="0,-80.8 0,-110.8 149,-110.8 149,-80.8 0,-80.8"/>
<text text-anchor="start" x="8" y="-98.8" font-family="Helvetica,sans-Serif" font-size="10.00">com.fs.starfarer.api.characters.</text>
<text text-anchor="middle" x="74.5" y="-87.8" font-family="Helvetica,sans-Serif" font-size="10.00">LevelBasedEffect</text>
</a>
</g>
</g>
<!-- Node4&#45;&gt;Node3 -->
<g id="edge3" class="edge">
<title>Node4&#45;&gt;Node3</title>
<path fill="none" stroke="midnightblue" d="M159.03,-85.81C167.96,-84.75 177,-83.67 185.8,-82.61"/>
<polygon fill="midnightblue" stroke="midnightblue" points="158.53,-82.35 149.01,-87.01 159.36,-89.3 158.53,-82.35"/>
</g>
<!-- Node6 -->
<g id="node6" class="node">
<title>Node6</title>
<g id="a_node6"><a xlink:href="interfacecom_1_1fs_1_1starfarer_1_1api_1_1characters_1_1ShipSkillEffect.html" target="_top" xlink:title=" ">
<polygon fill="none" stroke="black" points="353,-102.8 353,-132.8 502,-132.8 502,-102.8 353,-102.8"/>
<text text-anchor="start" x="361" y="-120.8" font-family="Helvetica,sans-Serif" font-size="10.00">com.fs.starfarer.api.characters.</text>
<text text-anchor="middle" x="427.5" y="-109.8" font-family="Helvetica,sans-Serif" font-size="10.00">ShipSkillEffect</text>
</a>
</g>
</g>
<!-- Node4&#45;&gt;Node6 -->
<g id="edge6" class="edge">
<title>Node4&#45;&gt;Node6</title>
<path fill="none" stroke="midnightblue" d="M159.1,-101.04C218,-104.73 296.13,-109.63 352.71,-113.18"/>
<polygon fill="midnightblue" stroke="midnightblue" points="159.28,-97.55 149.08,-100.41 158.84,-104.53 159.28,-97.55"/>
</g>
<!-- Node5 -->
<g id="node5" class="node">
<title>Node5</title>
<g id="a_node5"><a xlink:title=" ">
<polygon fill="none" stroke="#bfbfbf" points="241,-5.3 241,-24.3 280,-24.3 280,-5.3 241,-5.3"/>
<text text-anchor="middle" x="260.5" y="-12.3" font-family="Helvetica,sans-Serif" font-size="10.00">Color</text>
</a>
</g>
</g>
<!-- Node5&#45;&gt;Node2 -->
<g id="edge4" class="edge">
<title>Node5&#45;&gt;Node2</title>
<path fill="none" stroke="#9a32cd" stroke-dasharray="5,2" d="M289.89,-8.72C337.04,-0.16 433.13,10.62 502,-25.8 513.79,-32.04 508.91,-42.41 520,-49.8 525.21,-53.28 530.89,-56.25 536.79,-58.79"/>
<polygon fill="#9a32cd" stroke="#9a32cd" points="289.23,-5.29 280.06,-10.6 290.54,-12.16 289.23,-5.29"/>
<text text-anchor="middle" x="427.5" y="-61.8" font-family="Helvetica,sans-Serif" font-size="10.00"> dhc</text>
<text text-anchor="middle" x="427.5" y="-50.8" font-family="Helvetica,sans-Serif" font-size="10.00">dtc</text>
<text text-anchor="middle" x="427.5" y="-39.8" font-family="Helvetica,sans-Serif" font-size="10.00">hc</text>
<text text-anchor="middle" x="427.5" y="-28.8" font-family="Helvetica,sans-Serif" font-size="10.00">tc</text>
</g>
<!-- Node6&#45;&gt;Node1 -->
<g id="edge5" class="edge">
<title>Node6&#45;&gt;Node1</title>
<path fill="none" stroke="midnightblue" d="M512.48,-114.81C568.81,-112.15 644.56,-107.32 711,-98.8 730.94,-96.25 752.42,-92.56 772.12,-88.81"/>
<polygon fill="midnightblue" stroke="midnightblue" points="512.03,-111.33 502.2,-115.28 512.35,-118.32 512.03,-111.33"/>
</g>
<!-- Node7 -->
<g id="node7" class="node">
<title>Node7</title>
<g id="a_node7"><a xlink:href="interfacecom_1_1fs_1_1starfarer_1_1api_1_1characters_1_1FleetTotalSource.html" target="_top" xlink:title=" ">
<polygon fill="none" stroke="black" points="541,-9.8 541,-39.8 690,-39.8 690,-9.8 541,-9.8"/>
<text text-anchor="start" x="549" y="-27.8" font-family="Helvetica,sans-Serif" font-size="10.00">com.fs.starfarer.api.characters.</text>
<text text-anchor="middle" x="615.5" y="-16.8" font-family="Helvetica,sans-Serif" font-size="10.00">FleetTotalSource</text>
</a>
</g>
</g>
<!-- Node7&#45;&gt;Node1 -->
<g id="edge7" class="edge">
<title>Node7&#45;&gt;Node1</title>
<path fill="none" stroke="midnightblue" d="M695.76,-41.99C721.04,-47.47 748.79,-53.48 773.29,-58.8"/>
<polygon fill="midnightblue" stroke="midnightblue" points="696.36,-38.54 685.84,-39.84 694.87,-45.38 696.36,-38.54"/>
</g>
</g>
</svg>
