<?xml version="1.0" encoding="UTF-8" standalone="no"?>
<!DOCTYPE svg PUBLIC "-//W3C//DTD SVG 1.1//EN"
 "http://www.w3.org/Graphics/SVG/1.1/DTD/svg11.dtd">
<!-- Generated by graphviz version 12.2.0 (20241103.1931)
 -->
<!-- Title: com.fs.starfarer.api.impl.campaign.enc.AbyssalRogueStellarObjectDireHintsEPEC Pages: 1 -->
<svg width="1087pt" height="152pt"
 viewBox="0.00 0.00 1087.00 152.12" xmlns="http://www.w3.org/2000/svg" xmlns:xlink="http://www.w3.org/1999/xlink">
<g id="graph0" class="graph" transform="scale(1 1) rotate(0) translate(4 148.12)">
<title>com.fs.starfarer.api.impl.campaign.enc.AbyssalRogueStellarObjectDireHintsEPEC</title>
<!-- Node1 -->
<g id="Node000001" class="node">
<title>Node1</title>
<g id="a_Node000001"><a xlink:title=" ">
<polygon fill="#999999" stroke="#666666" points="1079,-49.12 878.5,-49.12 878.5,-18.62 1079,-18.62 1079,-49.12"/>
<text text-anchor="start" x="886.5" y="-35.62" font-family="Helvetica,sans-Serif" font-size="10.00">com.fs.starfarer.api.impl.campaign.enc.</text>
<text text-anchor="middle" x="978.75" y="-24.38" font-family="Helvetica,sans-Serif" font-size="10.00">AbyssalRogueStellarObjectDireHintsEPEC</text>
</a>
</g>
</g>
<!-- Node2 -->
<g id="Node000002" class="node">
<title>Node2</title>
<g id="a_Node000002"><a xlink:href="classcom_1_1fs_1_1starfarer_1_1api_1_1impl_1_1campaign_1_1enc_1_1AbyssalRogueStellarObjectEPEC.html" target="_top" xlink:title=" ">
<polygon fill="white" stroke="#666666" points="751,-90.12 567.75,-90.12 567.75,-59.62 751,-59.62 751,-90.12"/>
<text text-anchor="start" x="575.75" y="-76.62" font-family="Helvetica,sans-Serif" font-size="10.00">com.fs.starfarer.api.impl.campaign.enc.</text>
<text text-anchor="middle" x="659.38" y="-65.38" font-family="Helvetica,sans-Serif" font-size="10.00">AbyssalRogueStellarObjectEPEC</text>
</a>
</g>
</g>
<!-- Node2&#45;&gt;Node1 -->
<g id="edge1_Node000001_Node000002" class="edge">
<title>Node2&#45;&gt;Node1</title>
<g id="a_edge1_Node000001_Node000002"><a xlink:title=" ">
<path fill="none" stroke="#63b8ff" d="M762.65,-61.66C799.66,-56.88 841.39,-51.49 878.17,-46.74"/>
<polygon fill="#63b8ff" stroke="#63b8ff" points="762.29,-58.18 752.82,-62.93 763.19,-65.12 762.29,-58.18"/>
</a>
</g>
</g>
<!-- Node3 -->
<g id="Node000003" class="node">
<title>Node3</title>
<g id="a_Node000003"><a xlink:href="classcom_1_1fs_1_1starfarer_1_1api_1_1impl_1_1campaign_1_1enc_1_1BaseEPEncounterCreator.html" target="_top" xlink:title=" ">
<polygon fill="white" stroke="#666666" points="403.88,-144.12 220.62,-144.12 220.62,-113.62 403.88,-113.62 403.88,-144.12"/>
<text text-anchor="start" x="228.62" y="-130.62" font-family="Helvetica,sans-Serif" font-size="10.00">com.fs.starfarer.api.impl.campaign.enc.</text>
<text text-anchor="middle" x="312.25" y="-119.38" font-family="Helvetica,sans-Serif" font-size="10.00">BaseEPEncounterCreator</text>
</a>
</g>
</g>
<!-- Node3&#45;&gt;Node2 -->
<g id="edge2_Node000002_Node000003" class="edge">
<title>Node3&#45;&gt;Node2</title>
<g id="a_edge2_Node000002_Node000003"><a xlink:title=" ">
<path fill="none" stroke="#63b8ff" d="M415.04,-112.95C463.34,-105.39 520.58,-96.44 567.4,-89.11"/>
<polygon fill="#63b8ff" stroke="#63b8ff" points="414.76,-109.45 405.42,-114.45 415.84,-116.37 414.76,-109.45"/>
</a>
</g>
</g>
<!-- Node4 -->
<g id="Node000004" class="node">
<title>Node4</title>
<g id="a_Node000004"><a xlink:href="interfacecom_1_1fs_1_1starfarer_1_1api_1_1impl_1_1campaign_1_1enc_1_1EPEncounterCreator.html" target="_top" xlink:title=" ">
<polygon fill="white" stroke="#666666" points="183.25,-144.12 0,-144.12 0,-113.62 183.25,-113.62 183.25,-144.12"/>
<text text-anchor="start" x="8" y="-130.62" font-family="Helvetica,sans-Serif" font-size="10.00">com.fs.starfarer.api.impl.campaign.enc.</text>
<text text-anchor="middle" x="91.62" y="-119.38" font-family="Helvetica,sans-Serif" font-size="10.00">EPEncounterCreator</text>
</a>
</g>
</g>
<!-- Node4&#45;&gt;Node3 -->
<g id="edge3_Node000003_Node000004" class="edge">
<title>Node4&#45;&gt;Node3</title>
<g id="a_edge3_Node000003_Node000004"><a xlink:title=" ">
<path fill="none" stroke="#63b8ff" d="M194.95,-128.88C203.44,-128.88 211.97,-128.88 220.36,-128.88"/>
<polygon fill="#63b8ff" stroke="#63b8ff" points="194.96,-125.38 184.96,-128.88 194.96,-132.38 194.96,-125.38"/>
</a>
</g>
</g>
<!-- Node5 -->
<g id="Node000005" class="node">
<title>Node5</title>
<g id="a_Node000005"><a xlink:href="classcom_1_1fs_1_1starfarer_1_1api_1_1util_1_1WeightedRandomPicker.html" target="_top" xlink:title=" ">
<polygon fill="white" stroke="#666666" points="404.25,-95.75 220.25,-95.75 220.25,-54 404.25,-54 404.25,-95.75"/>
<text text-anchor="start" x="228.25" y="-82.25" font-family="Helvetica,sans-Serif" font-size="10.00">com.fs.starfarer.api.util.</text>
<text text-anchor="start" x="228.25" y="-71" font-family="Helvetica,sans-Serif" font-size="10.00">WeightedRandomPicker&lt; RogueStellar</text>
<text text-anchor="middle" x="312.25" y="-59.75" font-family="Helvetica,sans-Serif" font-size="10.00">ObjectType &gt;</text>
</a>
</g>
</g>
<!-- Node5&#45;&gt;Node2 -->
<g id="edge4_Node000002_Node000005" class="edge">
<title>Node5&#45;&gt;Node2</title>
<g id="a_edge4_Node000002_Node000005"><a xlink:title=" ">
<path fill="none" stroke="#9a32cd" stroke-dasharray="5,2" d="M415.77,-74.88C463.89,-74.88 520.76,-74.88 567.33,-74.88"/>
<polygon fill="#9a32cd" stroke="#9a32cd" points="415.89,-71.38 405.89,-74.88 415.89,-78.38 415.89,-71.38"/>
</a>
</g>
<text text-anchor="middle" x="486" y="-76.62" font-family="Helvetica,sans-Serif" font-size="10.00" fill="grey"> STELLAR_OBJECT_TYPES</text>
</g>
<!-- Node6 -->
<g id="Node000006" class="node">
<title>Node6</title>
<g id="a_Node000006"><a xlink:href="classcom_1_1fs_1_1starfarer_1_1api_1_1util_1_1WeightedRandomPicker.html" target="_top" xlink:title=" ">
<polygon fill="white" stroke="#666666" points="393.38,-33.12 231.12,-33.12 231.12,-2.62 393.38,-2.62 393.38,-33.12"/>
<text text-anchor="start" x="239.12" y="-19.62" font-family="Helvetica,sans-Serif" font-size="10.00">com.fs.starfarer.api.util.</text>
<text text-anchor="middle" x="312.25" y="-8.38" font-family="Helvetica,sans-Serif" font-size="10.00">WeightedRandomPicker&lt; String &gt;</text>
</a>
</g>
</g>
<!-- Node6&#45;&gt;Node2 -->
<g id="edge5_Node000002_Node000006" class="edge">
<title>Node6&#45;&gt;Node2</title>
<g id="a_edge5_Node000002_Node000006"><a xlink:title=" ">
<path fill="none" stroke="#9a32cd" stroke-dasharray="5,2" d="M405.27,-13.42C450.18,-14.2 504.2,-19.63 549.75,-37.12 559.15,-40.74 558.71,-46.45 567.75,-50.88 574.18,-54.03 581.08,-56.8 588.09,-59.24"/>
<polygon fill="#9a32cd" stroke="#9a32cd" points="405.31,-9.92 395.28,-13.33 405.24,-16.92 405.31,-9.92"/>
</a>
</g>
<text text-anchor="middle" x="486" y="-61.38" font-family="Helvetica,sans-Serif" font-size="10.00" fill="grey"> BLACK_HOLE_TYPES</text>
<text text-anchor="middle" x="486" y="-50.12" font-family="Helvetica,sans-Serif" font-size="10.00" fill="grey">GAS_GIANT_TYPES</text>
<text text-anchor="middle" x="486" y="-38.88" font-family="Helvetica,sans-Serif" font-size="10.00" fill="grey">PLANETOID_TYPES</text>
</g>
<!-- Node7 -->
<g id="Node000007" class="node">
<title>Node7</title>
<g id="a_Node000007"><a xlink:href="classcom_1_1fs_1_1starfarer_1_1api_1_1util_1_1WeightedRandomPicker.html" target="_top" xlink:title=" ">
<polygon fill="white" stroke="#666666" points="749.5,-41.75 569.25,-41.75 569.25,0 749.5,0 749.5,-41.75"/>
<text text-anchor="start" x="577.25" y="-28.25" font-family="Helvetica,sans-Serif" font-size="10.00">com.fs.starfarer.api.util.</text>
<text text-anchor="start" x="577.25" y="-17" font-family="Helvetica,sans-Serif" font-size="10.00">WeightedRandomPicker&lt; AbyssalDire</text>
<text text-anchor="middle" x="659.38" y="-5.75" font-family="Helvetica,sans-Serif" font-size="10.00">HintType &gt;</text>
</a>
</g>
</g>
<!-- Node7&#45;&gt;Node1 -->
<g id="edge6_Node000001_Node000007" class="edge">
<title>Node7&#45;&gt;Node1</title>
<g id="a_edge6_Node000001_Node000007"><a xlink:title=" ">
<path fill="none" stroke="#9a32cd" stroke-dasharray="5,2" d="M761.05,-25C798.41,-26.53 840.74,-28.26 878.01,-29.79"/>
<polygon fill="#9a32cd" stroke="#9a32cd" points="761.27,-21.51 751.14,-24.59 760.99,-28.5 761.27,-21.51"/>
</a>
</g>
<text text-anchor="middle" x="814.75" y="-30.67" font-family="Helvetica,sans-Serif" font-size="10.00" fill="grey"> DIRE_HINT_TYPES</text>
</g>
</g>
</svg>
