<?xml version="1.0" encoding="UTF-8" standalone="no"?>
<!DOCTYPE svg PUBLIC "-//W3C//DTD SVG 1.1//EN"
 "http://www.w3.org/Graphics/SVG/1.1/DTD/svg11.dtd">
<!-- Generated by graphviz version 7.0.5 (20221223.1930)
 -->
<!-- Title: com.fs.starfarer.api.impl.combat.RealityDisruptorChargeGlow Pages: 1 -->
<svg width="1013pt" height="439pt"
 viewBox="0.00 0.00 1013.00 439.00" xmlns="http://www.w3.org/2000/svg" xmlns:xlink="http://www.w3.org/1999/xlink">
<g id="graph0" class="graph" transform="scale(1 1) rotate(0) translate(4 435)">
<title>com.fs.starfarer.api.impl.combat.RealityDisruptorChargeGlow</title>
<!-- Node1 -->
<g id="node1" class="node">
<title>Node1</title>
<g id="a_node1"><a xlink:title=" ">
<polygon fill="#999999" stroke="#666666" points="1005,-121 849,-121 849,-91 1005,-91 1005,-121"/>
<text text-anchor="start" x="857" y="-109" font-family="Helvetica,sans-Serif" font-size="10.00">com.fs.starfarer.api.impl.combat.</text>
<text text-anchor="middle" x="927" y="-98" font-family="Helvetica,sans-Serif" font-size="10.00">RealityDisruptorChargeGlow</text>
</a>
</g>
</g>
<!-- Node2 -->
<g id="node2" class="node">
<title>Node2</title>
<g id="a_node2"><a xlink:href="classcom_1_1fs_1_1starfarer_1_1api_1_1impl_1_1combat_1_1CombatEntityPluginWithParticles.html" target="_top" xlink:title=" ">
<polygon fill="white" stroke="#666666" points="764,-273 605,-273 605,-243 764,-243 764,-273"/>
<text text-anchor="start" x="613" y="-261" font-family="Helvetica,sans-Serif" font-size="10.00">com.fs.starfarer.api.impl.combat.</text>
<text text-anchor="middle" x="684.5" y="-250" font-family="Helvetica,sans-Serif" font-size="10.00">CombatEntityPluginWithParticles</text>
</a>
</g>
</g>
<!-- Node2&#45;&gt;Node1 -->
<g id="edge1" class="edge">
<title>Node2&#45;&gt;Node1</title>
<path fill="none" stroke="#63b8ff" d="M719.43,-236.55C768.57,-205.5 858.38,-148.74 901.55,-121.45"/>
<polygon fill="#63b8ff" stroke="#63b8ff" points="717.75,-233.48 711.16,-241.78 721.49,-239.4 717.75,-233.48"/>
</g>
<!-- Node3 -->
<g id="node3" class="node">
<title>Node3</title>
<g id="a_node3"><a xlink:href="classcom_1_1fs_1_1starfarer_1_1api_1_1combat_1_1BaseCombatLayeredRenderingPlugin.html" target="_top" xlink:title=" ">
<polygon fill="white" stroke="#666666" points="414.5,-346 236.5,-346 236.5,-316 414.5,-316 414.5,-346"/>
<text text-anchor="start" x="244.5" y="-334" font-family="Helvetica,sans-Serif" font-size="10.00">com.fs.starfarer.api.combat.</text>
<text text-anchor="middle" x="325.5" y="-323" font-family="Helvetica,sans-Serif" font-size="10.00">BaseCombatLayeredRenderingPlugin</text>
</a>
</g>
</g>
<!-- Node3&#45;&gt;Node2 -->
<g id="edge2" class="edge">
<title>Node3&#45;&gt;Node2</title>
<path fill="none" stroke="#63b8ff" d="M426.15,-319.22C475,-312.46 534.48,-302.75 587,-290 605.35,-285.54 625.22,-279.22 642.13,-273.37"/>
<polygon fill="#63b8ff" stroke="#63b8ff" points="425.87,-315.73 416.44,-320.54 426.82,-322.66 425.87,-315.73"/>
</g>
<!-- Node4 -->
<g id="node4" class="node">
<title>Node4</title>
<g id="a_node4"><a xlink:href="interfacecom_1_1fs_1_1starfarer_1_1api_1_1combat_1_1CombatLayeredRenderingPlugin.html" target="_top" xlink:title=" ">
<polygon fill="white" stroke="#666666" points="155,-375 0,-375 0,-345 155,-345 155,-375"/>
<text text-anchor="start" x="8" y="-363" font-family="Helvetica,sans-Serif" font-size="10.00">com.fs.starfarer.api.combat.</text>
<text text-anchor="middle" x="77.5" y="-352" font-family="Helvetica,sans-Serif" font-size="10.00">CombatLayeredRenderingPlugin</text>
</a>
</g>
</g>
<!-- Node4&#45;&gt;Node3 -->
<g id="edge3" class="edge">
<title>Node4&#45;&gt;Node3</title>
<path fill="none" stroke="#63b8ff" d="M166.63,-349.61C189.26,-346.94 213.6,-344.07 236.23,-341.41"/>
<polygon fill="#63b8ff" stroke="#63b8ff" points="166.35,-346.12 156.83,-350.77 167.17,-353.07 166.35,-346.12"/>
</g>
<!-- Node5 -->
<g id="node5" class="node">
<title>Node5</title>
<g id="a_node5"><a xlink:href="enumcom_1_1fs_1_1starfarer_1_1api_1_1combat_1_1CombatEngineLayers.html" target="_top" xlink:title=" ">
<polygon fill="white" stroke="#666666" points="145.5,-327 9.5,-327 9.5,-297 145.5,-297 145.5,-327"/>
<text text-anchor="start" x="17.5" y="-315" font-family="Helvetica,sans-Serif" font-size="10.00">com.fs.starfarer.api.combat.</text>
<text text-anchor="middle" x="77.5" y="-304" font-family="Helvetica,sans-Serif" font-size="10.00">CombatEngineLayers</text>
</a>
</g>
</g>
<!-- Node5&#45;&gt;Node2 -->
<g id="edge8" class="edge">
<title>Node5&#45;&gt;Node2</title>
<path fill="none" stroke="#9a32cd" stroke-dasharray="5,2" d="M157.11,-294.89C176.9,-291.1 198.16,-287.48 218,-285 290.49,-275.92 492.18,-266.22 604.83,-261.29"/>
<polygon fill="#9a32cd" stroke="#9a32cd" points="156.6,-291.42 147.46,-296.77 157.94,-298.29 156.6,-291.42"/>
<text text-anchor="middle" x="325.5" y="-299" font-family="Helvetica,sans-Serif" font-size="10.00"> darkLayer</text>
<text text-anchor="middle" x="325.5" y="-288" font-family="Helvetica,sans-Serif" font-size="10.00">normalLayer</text>
</g>
<!-- Node5&#45;&gt;Node3 -->
<g id="edge4" class="edge">
<title>Node5&#45;&gt;Node3</title>
<path fill="none" stroke="#9a32cd" stroke-dasharray="5,2" d="M157.07,-318.07C182.25,-320.01 210.29,-322.18 236.12,-324.17"/>
<polygon fill="#9a32cd" stroke="#9a32cd" points="157.47,-314.59 147.23,-317.31 156.93,-321.57 157.47,-314.59"/>
<text text-anchor="middle" x="186.5" y="-323" font-family="Helvetica,sans-Serif" font-size="10.00"> layer</text>
</g>
<!-- Node6 -->
<g id="node6" class="node">
<title>Node6</title>
<g id="a_node6"><a xlink:href="interfacecom_1_1fs_1_1starfarer_1_1api_1_1combat_1_1CombatEntityAPI.html" target="_top" xlink:title=" ">
<polygon fill="white" stroke="#666666" points="145.5,-428 9.5,-428 9.5,-398 145.5,-398 145.5,-428"/>
<text text-anchor="start" x="17.5" y="-416" font-family="Helvetica,sans-Serif" font-size="10.00">com.fs.starfarer.api.combat.</text>
<text text-anchor="middle" x="77.5" y="-405" font-family="Helvetica,sans-Serif" font-size="10.00">CombatEntityAPI</text>
</a>
</g>
</g>
<!-- Node6&#45;&gt;Node3 -->
<g id="edge5" class="edge">
<title>Node6&#45;&gt;Node3</title>
<path fill="none" stroke="#9a32cd" stroke-dasharray="5,2" d="M131.47,-393.47C139.39,-390.39 147.44,-387.17 155,-384 183.43,-372.09 188.8,-364.89 218,-355 227.25,-351.87 237.08,-349.03 246.89,-346.48"/>
<polygon fill="#9a32cd" stroke="#9a32cd" points="130.29,-390.17 122.21,-397.02 132.8,-396.7 130.29,-390.17"/>
<text text-anchor="middle" x="186.5" y="-378" font-family="Helvetica,sans-Serif" font-size="10.00"> entity</text>
</g>
<!-- Node15 -->
<g id="node15" class="node">
<title>Node15</title>
<g id="a_node15"><a xlink:href="interfacecom_1_1fs_1_1starfarer_1_1api_1_1combat_1_1DamagingProjectileAPI.html" target="_top" xlink:title=" ">
<polygon fill="white" stroke="#666666" points="587,-431 451,-431 451,-401 587,-401 587,-431"/>
<text text-anchor="start" x="459" y="-419" font-family="Helvetica,sans-Serif" font-size="10.00">com.fs.starfarer.api.combat.</text>
<text text-anchor="middle" x="519" y="-408" font-family="Helvetica,sans-Serif" font-size="10.00">DamagingProjectileAPI</text>
</a>
</g>
</g>
<!-- Node6&#45;&gt;Node15 -->
<g id="edge17" class="edge">
<title>Node6&#45;&gt;Node15</title>
<path fill="none" stroke="#63b8ff" d="M157.21,-413.54C240.88,-414.11 371.78,-415 450.78,-415.54"/>
<polygon fill="#63b8ff" stroke="#63b8ff" points="157.27,-410.04 147.24,-413.47 157.22,-417.04 157.27,-410.04"/>
</g>
<!-- Node7 -->
<g id="node7" class="node">
<title>Node7</title>
<g id="a_node7"><a xlink:title=" ">
<polygon fill="white" stroke="#666666" points="377,-187.5 274,-187.5 274,-168.5 377,-168.5 377,-187.5"/>
<text text-anchor="middle" x="325.5" y="-175.5" font-family="Helvetica,sans-Serif" font-size="10.00">List&lt; ParticleData &gt;</text>
</a>
</g>
</g>
<!-- Node7&#45;&gt;Node2 -->
<g id="edge6" class="edge">
<title>Node7&#45;&gt;Node2</title>
<path fill="none" stroke="#9a32cd" stroke-dasharray="5,2" d="M388.42,-178.85C442.03,-181.06 521.08,-187.87 587,-208 613.35,-216.05 641.03,-231.18 659.95,-242.69"/>
<polygon fill="#9a32cd" stroke="#9a32cd" points="388.68,-175.36 378.56,-178.49 388.43,-182.35 388.68,-175.36"/>
<text text-anchor="middle" x="519" y="-222" font-family="Helvetica,sans-Serif" font-size="10.00"> darkParticles</text>
<text text-anchor="middle" x="519" y="-211" font-family="Helvetica,sans-Serif" font-size="10.00">particles</text>
</g>
<!-- Node8 -->
<g id="node8" class="node">
<title>Node8</title>
<g id="a_node8"><a xlink:title=" ">
<polygon fill="white" stroke="#666666" points="417.5,-394 233.5,-394 233.5,-364 417.5,-364 417.5,-394"/>
<text text-anchor="start" x="241.5" y="-382" font-family="Helvetica,sans-Serif" font-size="10.00">EnumSet&lt; com.fs.starfarer.api.combat.</text>
<text text-anchor="middle" x="325.5" y="-371" font-family="Helvetica,sans-Serif" font-size="10.00">CombatEngineLayers &gt;</text>
</a>
</g>
</g>
<!-- Node8&#45;&gt;Node2 -->
<g id="edge7" class="edge">
<title>Node8&#45;&gt;Node2</title>
<path fill="none" stroke="#9a32cd" stroke-dasharray="5,2" d="M429.18,-361.93C478.12,-351.86 536.79,-336.91 587,-316 614.43,-304.58 643.3,-286.27 662.24,-273.28"/>
<polygon fill="#9a32cd" stroke="#9a32cd" points="428.53,-358.49 419.42,-363.9 429.91,-365.36 428.53,-358.49"/>
<text text-anchor="middle" x="519" y="-359" font-family="Helvetica,sans-Serif" font-size="10.00"> layers</text>
</g>
<!-- Node9 -->
<g id="node9" class="node">
<title>Node9</title>
<g id="a_node9"><a xlink:title=" ">
<polygon fill="white" stroke="#666666" points="433,-236 218,-236 218,-206 433,-206 433,-236"/>
<text text-anchor="start" x="226" y="-224" font-family="Helvetica,sans-Serif" font-size="10.00">com.fs.starfarer.api.impl.combat.</text>
<text text-anchor="middle" x="325.5" y="-213" font-family="Helvetica,sans-Serif" font-size="10.00">CombatEntityPluginWithParticles.ParticleData</text>
</a>
</g>
</g>
<!-- Node9&#45;&gt;Node2 -->
<g id="edge9" class="edge">
<title>Node9&#45;&gt;Node2</title>
<path fill="none" stroke="#9a32cd" stroke-dasharray="5,2" d="M444.57,-233.24C497.14,-238.69 557.66,-244.96 604.63,-249.83"/>
<polygon fill="#9a32cd" stroke="#9a32cd" points="444.94,-229.76 434.63,-232.21 444.22,-236.72 444.94,-229.76"/>
<text text-anchor="middle" x="519" y="-250" font-family="Helvetica,sans-Serif" font-size="10.00"> prev</text>
</g>
<!-- Node10 -->
<g id="node10" class="node">
<title>Node10</title>
<g id="a_node10"><a xlink:href="interfacecom_1_1fs_1_1starfarer_1_1api_1_1graphics_1_1SpriteAPI.html" target="_top" xlink:title=" ">
<polygon fill="white" stroke="#666666" points="147.5,-231 7.5,-231 7.5,-201 147.5,-201 147.5,-231"/>
<text text-anchor="start" x="15.5" y="-219" font-family="Helvetica,sans-Serif" font-size="10.00">com.fs.starfarer.api.graphics.</text>
<text text-anchor="middle" x="77.5" y="-208" font-family="Helvetica,sans-Serif" font-size="10.00">SpriteAPI</text>
</a>
</g>
</g>
<!-- Node10&#45;&gt;Node9 -->
<g id="edge10" class="edge">
<title>Node10&#45;&gt;Node9</title>
<path fill="none" stroke="#9a32cd" stroke-dasharray="5,2" d="M159.12,-217.64C177.83,-218.02 198.04,-218.43 217.68,-218.83"/>
<polygon fill="#9a32cd" stroke="#9a32cd" points="159.26,-214.14 149.19,-217.44 159.12,-221.14 159.26,-214.14"/>
<text text-anchor="middle" x="186.5" y="-221" font-family="Helvetica,sans-Serif" font-size="10.00"> sprite</text>
</g>
<!-- Node11 -->
<g id="node11" class="node">
<title>Node11</title>
<g id="a_node11"><a xlink:title=" ">
<polygon fill="white" stroke="#666666" points="104,-182.5 51,-182.5 51,-163.5 104,-163.5 104,-182.5"/>
<text text-anchor="middle" x="77.5" y="-170.5" font-family="Helvetica,sans-Serif" font-size="10.00">Vector2f</text>
</a>
</g>
</g>
<!-- Node11&#45;&gt;Node9 -->
<g id="edge11" class="edge">
<title>Node11&#45;&gt;Node9</title>
<path fill="none" stroke="#9a32cd" stroke-dasharray="5,2" d="M115.43,-177.64C139.62,-180.96 171.85,-185.91 200,-192 208.12,-193.76 209.95,-194.98 218,-197 229.49,-199.89 241.71,-202.8 253.63,-205.54"/>
<polygon fill="#9a32cd" stroke="#9a32cd" points="116.14,-174.21 105.76,-176.35 115.21,-181.14 116.14,-174.21"/>
<text text-anchor="middle" x="186.5" y="-206" font-family="Helvetica,sans-Serif" font-size="10.00"> offset</text>
<text text-anchor="middle" x="186.5" y="-195" font-family="Helvetica,sans-Serif" font-size="10.00">vel</text>
</g>
<!-- Node12 -->
<g id="node12" class="node">
<title>Node12</title>
<g id="a_node12"><a xlink:href="classcom_1_1fs_1_1starfarer_1_1api_1_1util_1_1FaderUtil.html" target="_top" xlink:title=" ">
<polygon fill="white" stroke="#666666" points="135.5,-279 19.5,-279 19.5,-249 135.5,-249 135.5,-279"/>
<text text-anchor="start" x="27.5" y="-267" font-family="Helvetica,sans-Serif" font-size="10.00">com.fs.starfarer.api.util.</text>
<text text-anchor="middle" x="77.5" y="-256" font-family="Helvetica,sans-Serif" font-size="10.00">FaderUtil</text>
</a>
</g>
</g>
<!-- Node12&#45;&gt;Node9 -->
<g id="edge12" class="edge">
<title>Node12&#45;&gt;Node9</title>
<path fill="none" stroke="#9a32cd" stroke-dasharray="5,2" d="M147,-252.03C174.61,-247.2 206.81,-241.57 236.15,-236.44"/>
<polygon fill="#9a32cd" stroke="#9a32cd" points="146.6,-248.54 137.36,-253.71 147.81,-255.44 146.6,-248.54"/>
<text text-anchor="middle" x="186.5" y="-249" font-family="Helvetica,sans-Serif" font-size="10.00"> fader</text>
</g>
<!-- Node13 -->
<g id="node13" class="node">
<title>Node13</title>
<g id="a_node13"><a xlink:title=" ">
<polygon fill="white" stroke="#666666" points="97,-130.5 58,-130.5 58,-111.5 97,-111.5 97,-130.5"/>
<text text-anchor="middle" x="77.5" y="-118.5" font-family="Helvetica,sans-Serif" font-size="10.00">Color</text>
</a>
</g>
</g>
<!-- Node13&#45;&gt;Node1 -->
<g id="edge14" class="edge">
<title>Node13&#45;&gt;Node1</title>
<path fill="none" stroke="#9a32cd" stroke-dasharray="5,2" d="M108.85,-120.46C228.35,-118.35 668.7,-110.55 848.63,-107.37"/>
<polygon fill="#9a32cd" stroke="#9a32cd" points="108.84,-116.96 98.9,-120.64 108.96,-123.96 108.84,-116.96"/>
<text text-anchor="middle" x="519" y="-128" font-family="Helvetica,sans-Serif" font-size="10.00"> RIFT_COLOR</text>
<text text-anchor="middle" x="519" y="-117" font-family="Helvetica,sans-Serif" font-size="10.00">UNDERCOLOR</text>
</g>
<!-- Node13&#45;&gt;Node9 -->
<g id="edge13" class="edge">
<title>Node13&#45;&gt;Node9</title>
<path fill="none" stroke="#9a32cd" stroke-dasharray="5,2" d="M107.87,-127.97C134.14,-135.32 172.61,-148.95 200,-171 210.95,-179.81 206.35,-189.14 218,-197 222.87,-200.29 228.12,-203.13 233.59,-205.59"/>
<polygon fill="#9a32cd" stroke="#9a32cd" points="109.11,-124.68 98.55,-125.5 107.32,-131.44 109.11,-124.68"/>
<text text-anchor="middle" x="186.5" y="-174" font-family="Helvetica,sans-Serif" font-size="10.00"> color</text>
</g>
<!-- Node14 -->
<g id="node14" class="node">
<title>Node14</title>
<g id="a_node14"><a xlink:href="interfacecom_1_1fs_1_1starfarer_1_1api_1_1combat_1_1WeaponAPI.html" target="_top" xlink:title=" ">
<polygon fill="white" stroke="#666666" points="752.5,-78 616.5,-78 616.5,-48 752.5,-48 752.5,-78"/>
<text text-anchor="start" x="624.5" y="-66" font-family="Helvetica,sans-Serif" font-size="10.00">com.fs.starfarer.api.combat.</text>
<text text-anchor="middle" x="684.5" y="-55" font-family="Helvetica,sans-Serif" font-size="10.00">WeaponAPI</text>
</a>
</g>
</g>
<!-- Node14&#45;&gt;Node1 -->
<g id="edge15" class="edge">
<title>Node14&#45;&gt;Node1</title>
<path fill="none" stroke="#9a32cd" stroke-dasharray="5,2" d="M764.01,-70.76C785.8,-73.44 809.4,-76.84 831,-81 844.57,-83.61 859.06,-87.07 872.53,-90.59"/>
<polygon fill="#9a32cd" stroke="#9a32cd" points="764.65,-67.31 754.3,-69.6 763.82,-74.26 764.65,-67.31"/>
<text text-anchor="middle" x="806.5" y="-84" font-family="Helvetica,sans-Serif" font-size="10.00"> weapon</text>
</g>
<!-- Node15&#45;&gt;Node1 -->
<g id="edge16" class="edge">
<title>Node15&#45;&gt;Node1</title>
<path fill="none" stroke="#9a32cd" stroke-dasharray="5,2" d="M566.55,-395.99C617.76,-372.75 701.13,-331.25 764,-282 828.73,-231.29 890.24,-153.74 914.79,-121.2"/>
<polygon fill="#9a32cd" stroke="#9a32cd" points="565.2,-392.76 557.51,-400.04 568.07,-399.14 565.2,-392.76"/>
<text text-anchor="middle" x="684.5" y="-380" font-family="Helvetica,sans-Serif" font-size="10.00"> proj</text>
</g>
<!-- Node16 -->
<g id="node16" class="node">
<title>Node16</title>
<g id="a_node16"><a xlink:href="classcom_1_1fs_1_1starfarer_1_1api_1_1util_1_1IntervalUtil.html" target="_top" xlink:title=" ">
<polygon fill="white" stroke="#666666" points="742.5,-30 626.5,-30 626.5,0 742.5,0 742.5,-30"/>
<text text-anchor="start" x="634.5" y="-18" font-family="Helvetica,sans-Serif" font-size="10.00">com.fs.starfarer.api.util.</text>
<text text-anchor="middle" x="684.5" y="-7" font-family="Helvetica,sans-Serif" font-size="10.00">IntervalUtil</text>
</a>
</g>
</g>
<!-- Node16&#45;&gt;Node1 -->
<g id="edge18" class="edge">
<title>Node16&#45;&gt;Node1</title>
<path fill="none" stroke="#9a32cd" stroke-dasharray="5,2" d="M753.93,-25.75C778.75,-30.88 806.65,-38.12 831,-48 858.22,-59.05 886.6,-77.42 905.18,-90.53"/>
<polygon fill="#9a32cd" stroke="#9a32cd" points="754.74,-22.35 744.25,-23.84 753.38,-29.21 754.74,-22.35"/>
<text text-anchor="middle" x="806.5" y="-62" font-family="Helvetica,sans-Serif" font-size="10.00"> arcInterval</text>
<text text-anchor="middle" x="806.5" y="-51" font-family="Helvetica,sans-Serif" font-size="10.00">interval</text>
</g>
</g>
</svg>
