<?xml version="1.0" encoding="UTF-8" standalone="no"?>
<!DOCTYPE svg PUBLIC "-//W3C//DTD SVG 1.1//EN"
 "http://www.w3.org/Graphics/SVG/1.1/DTD/svg11.dtd">
<!-- Generated by graphviz version 2.49.3 (20211027.1501)
 -->
<!-- Title: com.fs.starfarer.api.impl.combat.MoteControlScript Pages: 1 -->
<svg width="829pt" height="137pt"
 viewBox="0.00 0.00 829.00 137.00" xmlns="http://www.w3.org/2000/svg" xmlns:xlink="http://www.w3.org/1999/xlink">
<g id="graph0" class="graph" transform="scale(1 1) rotate(0) translate(4 133)">
<title>com.fs.starfarer.api.impl.combat.MoteControlScript</title>
<!-- Node1 -->
<g id="node1" class="node">
<title>Node1</title>
<g id="a_node1"><a xlink:title=" ">
<polygon fill="#bfbfbf" stroke="black" points="665,-49.5 665,-79.5 821,-79.5 821,-49.5 665,-49.5"/>
<text text-anchor="start" x="673" y="-67.5" font-family="Helvetica,sans-Serif" font-size="10.00">com.fs.starfarer.api.impl.combat.</text>
<text text-anchor="middle" x="743" y="-56.5" font-family="Helvetica,sans-Serif" font-size="10.00">MoteControlScript</text>
</a>
</g>
</g>
<!-- Node2 -->
<g id="node2" class="node">
<title>Node2</title>
<g id="a_node2"><a xlink:href="classcom_1_1fs_1_1starfarer_1_1api_1_1impl_1_1combat_1_1BaseShipSystemScript.html" target="_top" xlink:title=" ">
<polygon fill="none" stroke="black" points="369,-98.5 369,-128.5 525,-128.5 525,-98.5 369,-98.5"/>
<text text-anchor="start" x="377" y="-116.5" font-family="Helvetica,sans-Serif" font-size="10.00">com.fs.starfarer.api.impl.combat.</text>
<text text-anchor="middle" x="447" y="-105.5" font-family="Helvetica,sans-Serif" font-size="10.00">BaseShipSystemScript</text>
</a>
</g>
</g>
<!-- Node2&#45;&gt;Node1 -->
<g id="edge1" class="edge">
<title>Node2&#45;&gt;Node1</title>
<path fill="none" stroke="midnightblue" d="M535.59,-106.28C570.44,-102.65 610.79,-97.5 647,-90.5 661.94,-87.61 677.98,-83.59 692.54,-79.57"/>
<polygon fill="midnightblue" stroke="midnightblue" points="535.03,-102.82 525.44,-107.31 535.74,-109.78 535.03,-102.82"/>
</g>
<!-- Node3 -->
<g id="node3" class="node">
<title>Node3</title>
<g id="a_node3"><a xlink:href="interfacecom_1_1fs_1_1starfarer_1_1api_1_1plugins_1_1ShipSystemStatsScriptAdvanced.html" target="_top" xlink:title=" ">
<polygon fill="none" stroke="black" points="171,-98.5 171,-128.5 332,-128.5 332,-98.5 171,-98.5"/>
<text text-anchor="start" x="179" y="-116.5" font-family="Helvetica,sans-Serif" font-size="10.00">com.fs.starfarer.api.plugins.</text>
<text text-anchor="middle" x="251.5" y="-105.5" font-family="Helvetica,sans-Serif" font-size="10.00">ShipSystemStatsScriptAdvanced</text>
</a>
</g>
</g>
<!-- Node3&#45;&gt;Node2 -->
<g id="edge2" class="edge">
<title>Node3&#45;&gt;Node2</title>
<path fill="none" stroke="midnightblue" d="M342.11,-113.5C351.08,-113.5 360.13,-113.5 368.95,-113.5"/>
<polygon fill="midnightblue" stroke="midnightblue" points="342.04,-110 332.04,-113.5 342.04,-117 342.04,-110"/>
</g>
<!-- Node4 -->
<g id="node4" class="node">
<title>Node4</title>
<g id="a_node4"><a xlink:href="interfacecom_1_1fs_1_1starfarer_1_1api_1_1plugins_1_1ShipSystemStatsScript.html" target="_top" xlink:title=" ">
<polygon fill="none" stroke="black" points="0,-98.5 0,-128.5 134,-128.5 134,-98.5 0,-98.5"/>
<text text-anchor="start" x="8" y="-116.5" font-family="Helvetica,sans-Serif" font-size="10.00">com.fs.starfarer.api.plugins.</text>
<text text-anchor="middle" x="67" y="-105.5" font-family="Helvetica,sans-Serif" font-size="10.00">ShipSystemStatsScript</text>
</a>
</g>
</g>
<!-- Node4&#45;&gt;Node3 -->
<g id="edge3" class="edge">
<title>Node4&#45;&gt;Node3</title>
<path fill="none" stroke="midnightblue" d="M144.34,-113.5C153.12,-113.5 162.09,-113.5 170.91,-113.5"/>
<polygon fill="midnightblue" stroke="midnightblue" points="144.14,-110 134.14,-113.5 144.14,-117 144.14,-110"/>
</g>
<!-- Node5 -->
<g id="node5" class="node">
<title>Node5</title>
<g id="a_node5"><a xlink:href="classcom_1_1fs_1_1starfarer_1_1api_1_1util_1_1IntervalUtil.html" target="_top" xlink:title=" ">
<polygon fill="none" stroke="black" points="389,-49.5 389,-79.5 505,-79.5 505,-49.5 389,-49.5"/>
<text text-anchor="start" x="397" y="-67.5" font-family="Helvetica,sans-Serif" font-size="10.00">com.fs.starfarer.api.util.</text>
<text text-anchor="middle" x="447" y="-56.5" font-family="Helvetica,sans-Serif" font-size="10.00">IntervalUtil</text>
</a>
</g>
</g>
<!-- Node5&#45;&gt;Node1 -->
<g id="edge4" class="edge">
<title>Node5&#45;&gt;Node1</title>
<path fill="none" stroke="#9a32cd" stroke-dasharray="5,2" d="M515.18,-64.5C559.74,-64.5 618.35,-64.5 664.83,-64.5"/>
<polygon fill="#9a32cd" stroke="#9a32cd" points="515.03,-61 505.03,-64.5 515.03,-68 515.03,-61"/>
<text text-anchor="middle" x="595" y="-78.5" font-family="Helvetica,sans-Serif" font-size="10.00"> attractorParticleInterval</text>
<text text-anchor="middle" x="595" y="-67.5" font-family="Helvetica,sans-Serif" font-size="10.00">launchInterval</text>
</g>
<!-- Node6 -->
<g id="node6" class="node">
<title>Node6</title>
<g id="a_node6"><a xlink:href="interfacecom_1_1fs_1_1starfarer_1_1api_1_1loading_1_1WeaponSlotAPI.html" target="_top" xlink:title=" ">
<polygon fill="none" stroke="black" points="380,-0.5 380,-30.5 514,-30.5 514,-0.5 380,-0.5"/>
<text text-anchor="start" x="388" y="-18.5" font-family="Helvetica,sans-Serif" font-size="10.00">com.fs.starfarer.api.loading.</text>
<text text-anchor="middle" x="447" y="-7.5" font-family="Helvetica,sans-Serif" font-size="10.00">WeaponSlotAPI</text>
</a>
</g>
</g>
<!-- Node6&#45;&gt;Node1 -->
<g id="edge5" class="edge">
<title>Node6&#45;&gt;Node1</title>
<path fill="none" stroke="#9a32cd" stroke-dasharray="5,2" d="M524.25,-28.21C567.54,-35.42 621.57,-44.43 664.98,-51.66"/>
<polygon fill="#9a32cd" stroke="#9a32cd" points="524.79,-24.75 514.35,-26.56 523.63,-31.65 524.79,-24.75"/>
<text text-anchor="middle" x="595" y="-52.5" font-family="Helvetica,sans-Serif" font-size="10.00"> attractor</text>
</g>
</g>
</svg>
