<?xml version="1.0" encoding="UTF-8" standalone="no"?>
<!DOCTYPE svg PUBLIC "-//W3C//DTD SVG 1.1//EN"
 "http://www.w3.org/Graphics/SVG/1.1/DTD/svg11.dtd">
<!-- Generated by graphviz version 2.44.0 ()
 -->
<!-- Title: com.fs.starfarer.api.impl.campaign.BattleAutoresolverPluginImpl Pages: 1 -->
<svg width="1040pt" height="623pt"
 viewBox="0.00 0.00 1040.00 622.50" xmlns="http://www.w3.org/2000/svg" xmlns:xlink="http://www.w3.org/1999/xlink">
<g id="graph0" class="graph" transform="scale(1 1) rotate(0) translate(4 618.5)">
<title>com.fs.starfarer.api.impl.campaign.BattleAutoresolverPluginImpl</title>
<!-- Node1 -->
<g id="node1" class="node">
<title>Node1</title>
<g id="a_node1"><a xlink:title=" ">
<polygon fill="#bfbfbf" stroke="black" points="866,-461 866,-491 1032,-491 1032,-461 866,-461"/>
<text text-anchor="start" x="874" y="-479" font-family="Helvetica,sans-Serif" font-size="10.00">com.fs.starfarer.api.impl.campaign.</text>
<text text-anchor="middle" x="949" y="-468" font-family="Helvetica,sans-Serif" font-size="10.00">BattleAutoresolverPluginImpl</text>
</a>
</g>
</g>
<!-- Node2 -->
<g id="node2" class="node">
<title>Node2</title>
<g id="a_node2"><a xlink:href="interfacecom_1_1fs_1_1starfarer_1_1api_1_1campaign_1_1BattleAutoresolverPlugin.html" target="_top" xlink:title=" ">
<polygon fill="none" stroke="black" points="580,-584 580,-614 726,-614 726,-584 580,-584"/>
<text text-anchor="start" x="588" y="-602" font-family="Helvetica,sans-Serif" font-size="10.00">com.fs.starfarer.api.campaign.</text>
<text text-anchor="middle" x="653" y="-591" font-family="Helvetica,sans-Serif" font-size="10.00">BattleAutoresolverPlugin</text>
</a>
</g>
</g>
<!-- Node2&#45;&gt;Node1 -->
<g id="edge1" class="edge">
<title>Node2&#45;&gt;Node1</title>
<path fill="none" stroke="midnightblue" d="M735.94,-588.13C771.57,-581.37 813.06,-570.67 848,-554 881.78,-537.88 914.8,-508.77 933.16,-491.04"/>
<polygon fill="midnightblue" stroke="midnightblue" points="735.27,-584.69 726.06,-589.93 736.53,-591.58 735.27,-584.69"/>
</g>
<!-- Node3 -->
<g id="node3" class="node">
<title>Node3</title>
<g id="a_node3"><a xlink:href="interfacecom_1_1fs_1_1starfarer_1_1api_1_1campaign_1_1CampaignFleetAPI.html" target="_top" xlink:title=" ">
<polygon fill="none" stroke="black" points="580,-535 580,-565 726,-565 726,-535 580,-535"/>
<text text-anchor="start" x="588" y="-553" font-family="Helvetica,sans-Serif" font-size="10.00">com.fs.starfarer.api.campaign.</text>
<text text-anchor="middle" x="653" y="-542" font-family="Helvetica,sans-Serif" font-size="10.00">CampaignFleetAPI</text>
</a>
</g>
</g>
<!-- Node3&#45;&gt;Node1 -->
<g id="edge2" class="edge">
<title>Node3&#45;&gt;Node1</title>
<path fill="none" stroke="#9a32cd" stroke-dasharray="5,2" d="M736.28,-533.33C770.93,-525.91 811.58,-516.66 848,-507 865.83,-502.27 885.24,-496.42 902.18,-491.07"/>
<polygon fill="#9a32cd" stroke="#9a32cd" points="735.26,-529.97 726.2,-535.48 736.71,-536.82 735.26,-529.97"/>
<text text-anchor="middle" x="801" y="-542" font-family="Helvetica,sans-Serif" font-size="10.00"> one</text>
<text text-anchor="middle" x="801" y="-531" font-family="Helvetica,sans-Serif" font-size="10.00">two</text>
</g>
<!-- Node4 -->
<g id="node4" class="node">
<title>Node4</title>
<g id="a_node4"><a xlink:href="interfacecom_1_1fs_1_1starfarer_1_1api_1_1campaign_1_1SectorEntityToken.html" target="_top" xlink:title=" ">
<polygon fill="none" stroke="black" points="232,-566 232,-596 378,-596 378,-566 232,-566"/>
<text text-anchor="start" x="240" y="-584" font-family="Helvetica,sans-Serif" font-size="10.00">com.fs.starfarer.api.campaign.</text>
<text text-anchor="middle" x="305" y="-573" font-family="Helvetica,sans-Serif" font-size="10.00">SectorEntityToken</text>
</a>
</g>
</g>
<!-- Node4&#45;&gt;Node3 -->
<g id="edge3" class="edge">
<title>Node4&#45;&gt;Node3</title>
<path fill="none" stroke="midnightblue" d="M388.4,-573.62C446.71,-568.39 524.14,-561.46 579.98,-556.45"/>
<polygon fill="midnightblue" stroke="midnightblue" points="387.76,-570.16 378.11,-574.54 388.38,-577.13 387.76,-570.16"/>
</g>
<!-- Node5 -->
<g id="node5" class="node">
<title>Node5</title>
<g id="a_node5"><a xlink:href="interfacecom_1_1fs_1_1starfarer_1_1api_1_1campaign_1_1rules_1_1HasMemory.html" target="_top" xlink:title=" ">
<polygon fill="none" stroke="black" points="0,-566 0,-596 169,-596 169,-566 0,-566"/>
<text text-anchor="start" x="8" y="-584" font-family="Helvetica,sans-Serif" font-size="10.00">com.fs.starfarer.api.campaign.rules.</text>
<text text-anchor="middle" x="84.5" y="-573" font-family="Helvetica,sans-Serif" font-size="10.00">HasMemory</text>
</a>
</g>
</g>
<!-- Node5&#45;&gt;Node4 -->
<g id="edge4" class="edge">
<title>Node5&#45;&gt;Node4</title>
<path fill="none" stroke="midnightblue" d="M179.33,-581C196.94,-581 215.09,-581 231.91,-581"/>
<polygon fill="midnightblue" stroke="midnightblue" points="179.04,-577.5 169.04,-581 179.04,-584.5 179.04,-577.5"/>
</g>
<!-- Node6 -->
<g id="node6" class="node">
<title>Node6</title>
<g id="a_node6"><a xlink:href="interfacecom_1_1fs_1_1starfarer_1_1api_1_1campaign_1_1FleetOrStubAPI.html" target="_top" xlink:title=" ">
<polygon fill="none" stroke="black" points="232,-517 232,-547 378,-547 378,-517 232,-517"/>
<text text-anchor="start" x="240" y="-535" font-family="Helvetica,sans-Serif" font-size="10.00">com.fs.starfarer.api.campaign.</text>
<text text-anchor="middle" x="305" y="-524" font-family="Helvetica,sans-Serif" font-size="10.00">FleetOrStubAPI</text>
</a>
</g>
</g>
<!-- Node6&#45;&gt;Node3 -->
<g id="edge5" class="edge">
<title>Node6&#45;&gt;Node3</title>
<path fill="none" stroke="midnightblue" d="M388.4,-536.29C446.71,-539.32 524.14,-543.35 579.98,-546.25"/>
<polygon fill="midnightblue" stroke="midnightblue" points="388.28,-532.78 378.11,-535.75 387.92,-539.77 388.28,-532.78"/>
</g>
<!-- Node7 -->
<g id="node7" class="node">
<title>Node7</title>
<g id="a_node7"><a xlink:href="interfacecom_1_1fs_1_1starfarer_1_1api_1_1combat_1_1EngagementResultAPI.html" target="_top" xlink:title=" ">
<polygon fill="none" stroke="black" points="585,-486 585,-516 721,-516 721,-486 585,-486"/>
<text text-anchor="start" x="593" y="-504" font-family="Helvetica,sans-Serif" font-size="10.00">com.fs.starfarer.api.combat.</text>
<text text-anchor="middle" x="653" y="-493" font-family="Helvetica,sans-Serif" font-size="10.00">EngagementResultAPI</text>
</a>
</g>
</g>
<!-- Node7&#45;&gt;Node1 -->
<g id="edge6" class="edge">
<title>Node7&#45;&gt;Node1</title>
<path fill="none" stroke="#9a32cd" stroke-dasharray="5,2" d="M731.12,-494.44C772.52,-490.92 823.57,-486.58 865.73,-483"/>
<polygon fill="#9a32cd" stroke="#9a32cd" points="730.75,-490.96 721.08,-495.3 731.34,-497.94 730.75,-490.96"/>
<text text-anchor="middle" x="801" y="-495" font-family="Helvetica,sans-Serif" font-size="10.00"> result</text>
</g>
<!-- Node8 -->
<g id="node8" class="node">
<title>Node8</title>
<g id="a_node8"><a xlink:title=" ">
<polygon fill="none" stroke="#bfbfbf" points="580,-437 580,-467 726,-467 726,-437 580,-437"/>
<text text-anchor="start" x="588" y="-455" font-family="Helvetica,sans-Serif" font-size="10.00">List&lt; com.fs.starfarer.api.fleet.</text>
<text text-anchor="middle" x="653" y="-444" font-family="Helvetica,sans-Serif" font-size="10.00">FleetMemberAPI &gt;</text>
</a>
</g>
</g>
<!-- Node8&#45;&gt;Node1 -->
<g id="edge7" class="edge">
<title>Node8&#45;&gt;Node1</title>
<path fill="none" stroke="#9a32cd" stroke-dasharray="5,2" d="M736.39,-458.73C776.84,-462.03 825.44,-465.99 865.85,-469.29"/>
<polygon fill="#9a32cd" stroke="#9a32cd" points="736.55,-455.23 726.3,-457.9 735.98,-462.2 736.55,-455.23"/>
<text text-anchor="middle" x="801" y="-470" font-family="Helvetica,sans-Serif" font-size="10.00"> playerShipsToDeploy</text>
</g>
<!-- Node9 -->
<g id="node9" class="node">
<title>Node9</title>
<g id="a_node9"><a xlink:href="interfacecom_1_1fs_1_1starfarer_1_1api_1_1campaign_1_1BattleAPI.html" target="_top" xlink:title=" ">
<polygon fill="none" stroke="black" points="232,-392 232,-422 378,-422 378,-392 232,-392"/>
<text text-anchor="start" x="240" y="-410" font-family="Helvetica,sans-Serif" font-size="10.00">com.fs.starfarer.api.campaign.</text>
<text text-anchor="middle" x="305" y="-399" font-family="Helvetica,sans-Serif" font-size="10.00">BattleAPI</text>
</a>
</g>
</g>
<!-- Node9&#45;&gt;Node1 -->
<g id="edge8" class="edge">
<title>Node9&#45;&gt;Node1</title>
<path fill="none" stroke="#9a32cd" stroke-dasharray="5,2" d="M388.43,-402.89C475.37,-399.96 616.1,-399.2 736,-417 796.28,-425.95 863.74,-446.65 906.03,-460.98"/>
<polygon fill="#9a32cd" stroke="#9a32cd" points="388.23,-399.39 378.36,-403.25 388.48,-406.39 388.23,-399.39"/>
<text text-anchor="middle" x="653" y="-420" font-family="Helvetica,sans-Serif" font-size="10.00"> battle</text>
</g>
<!-- Node10 -->
<g id="node10" class="node">
<title>Node10</title>
<g id="a_node10"><a xlink:href="classcom_1_1fs_1_1starfarer_1_1api_1_1impl_1_1campaign_1_1FleetEncounterContext.html" target="_top" xlink:title=" ">
<polygon fill="none" stroke="black" points="570,-221 570,-251 736,-251 736,-221 570,-221"/>
<text text-anchor="start" x="578" y="-239" font-family="Helvetica,sans-Serif" font-size="10.00">com.fs.starfarer.api.impl.campaign.</text>
<text text-anchor="middle" x="653" y="-228" font-family="Helvetica,sans-Serif" font-size="10.00">FleetEncounterContext</text>
</a>
</g>
</g>
<!-- Node9&#45;&gt;Node10 -->
<g id="edge17" class="edge">
<title>Node9&#45;&gt;Node10</title>
<path fill="none" stroke="#9a32cd" stroke-dasharray="5,2" d="M385.12,-389.68C445.84,-375.49 523.89,-355.05 552,-338 590.38,-314.72 624.48,-273.37 641.16,-251.14"/>
<polygon fill="#9a32cd" stroke="#9a32cd" points="384.1,-386.32 375.15,-391.99 385.68,-393.14 384.1,-386.32"/>
<text text-anchor="middle" x="487" y="-383" font-family="Helvetica,sans-Serif" font-size="10.00"> battle</text>
</g>
<!-- Node10&#45;&gt;Node1 -->
<g id="edge9" class="edge">
<title>Node10&#45;&gt;Node1</title>
<path fill="none" stroke="#9a32cd" stroke-dasharray="5,2" d="M683.79,-256.87C722.55,-284.37 791.94,-334.8 848,-382 879.35,-408.4 913.72,-441.76 932.89,-460.81"/>
<polygon fill="#9a32cd" stroke="#9a32cd" points="685.73,-253.95 675.54,-251.04 681.68,-259.67 685.73,-253.95"/>
<text text-anchor="middle" x="801" y="-385" font-family="Helvetica,sans-Serif" font-size="10.00"> context</text>
</g>
<!-- Node11 -->
<g id="node11" class="node">
<title>Node11</title>
<g id="a_node11"><a xlink:href="interfacecom_1_1fs_1_1starfarer_1_1api_1_1campaign_1_1FleetEncounterContextPlugin.html" target="_top" xlink:title=" ">
<polygon fill="none" stroke="black" points="232,-343 232,-373 378,-373 378,-343 232,-343"/>
<text text-anchor="start" x="240" y="-361" font-family="Helvetica,sans-Serif" font-size="10.00">com.fs.starfarer.api.campaign.</text>
<text text-anchor="middle" x="305" y="-350" font-family="Helvetica,sans-Serif" font-size="10.00">FleetEncounterContextPlugin</text>
</a>
</g>
</g>
<!-- Node11&#45;&gt;Node10 -->
<g id="edge10" class="edge">
<title>Node11&#45;&gt;Node10</title>
<path fill="none" stroke="midnightblue" d="M387.98,-349.08C437.06,-341.71 499.83,-328.64 552,-306 583.88,-292.16 615.95,-267.33 634.89,-251.26"/>
<polygon fill="midnightblue" stroke="midnightblue" points="387.43,-345.62 378.03,-350.52 388.43,-352.55 387.43,-345.62"/>
</g>
<!-- Node12 -->
<g id="node12" class="node">
<title>Node12</title>
<g id="a_node12"><a xlink:href="interfacecom_1_1fs_1_1starfarer_1_1api_1_1campaign_1_1CargoAPI.html" target="_top" xlink:title=" ">
<polygon fill="none" stroke="black" points="232,-294 232,-324 378,-324 378,-294 232,-294"/>
<text text-anchor="start" x="240" y="-312" font-family="Helvetica,sans-Serif" font-size="10.00">com.fs.starfarer.api.campaign.</text>
<text text-anchor="middle" x="305" y="-301" font-family="Helvetica,sans-Serif" font-size="10.00">CargoAPI</text>
</a>
</g>
</g>
<!-- Node12&#45;&gt;Node10 -->
<g id="edge11" class="edge">
<title>Node12&#45;&gt;Node10</title>
<path fill="none" stroke="#9a32cd" stroke-dasharray="5,2" d="M388.08,-297.15C436.14,-289.59 497.84,-278.81 552,-266 569.82,-261.79 589.14,-256.23 606.01,-251.04"/>
<polygon fill="#9a32cd" stroke="#9a32cd" points="387.38,-293.71 378.04,-298.71 388.46,-300.63 387.38,-293.71"/>
<text text-anchor="middle" x="487" y="-294" font-family="Helvetica,sans-Serif" font-size="10.00"> loot</text>
</g>
<!-- Node13 -->
<g id="node13" class="node">
<title>Node13</title>
<g id="a_node13"><a xlink:title=" ">
<polygon fill="none" stroke="#bfbfbf" points="230.5,-245 230.5,-275 379.5,-275 379.5,-245 230.5,-245"/>
<text text-anchor="start" x="238.5" y="-263" font-family="Helvetica,sans-Serif" font-size="10.00">Map&lt; com.fs.starfarer.api.fleet.</text>
<text text-anchor="middle" x="305" y="-252" font-family="Helvetica,sans-Serif" font-size="10.00">FleetMemberAPI, Float &gt;</text>
</a>
</g>
</g>
<!-- Node13&#45;&gt;Node10 -->
<g id="edge12" class="edge">
<title>Node13&#45;&gt;Node10</title>
<path fill="none" stroke="#9a32cd" stroke-dasharray="5,2" d="M389.81,-254.19C444.48,-250.39 515.5,-245.47 569.83,-241.7"/>
<polygon fill="#9a32cd" stroke="#9a32cd" points="389.54,-250.7 379.8,-254.88 390.02,-257.68 389.54,-250.7"/>
<text text-anchor="middle" x="487" y="-254" font-family="Helvetica,sans-Serif" font-size="10.00"> preEngagementCRForWinner</text>
</g>
<!-- Node14 -->
<g id="node14" class="node">
<title>Node14</title>
<g id="a_node14"><a xlink:title=" ">
<polygon fill="none" stroke="#bfbfbf" points="218.5,-196 218.5,-226 391.5,-226 391.5,-196 218.5,-196"/>
<text text-anchor="start" x="226.5" y="-214" font-family="Helvetica,sans-Serif" font-size="10.00">Map&lt; com.fs.starfarer.api.campaign.</text>
<text text-anchor="middle" x="305" y="-203" font-family="Helvetica,sans-Serif" font-size="10.00">FactionAPI, Float &gt;</text>
</a>
</g>
</g>
<!-- Node14&#45;&gt;Node10 -->
<g id="edge13" class="edge">
<title>Node14&#45;&gt;Node10</title>
<path fill="none" stroke="#9a32cd" stroke-dasharray="5,2" d="M401.78,-209.71C447.39,-210.02 502.63,-211.74 552,-217 561.31,-217.99 571.06,-219.39 580.65,-220.98"/>
<polygon fill="#9a32cd" stroke="#9a32cd" points="401.63,-206.21 391.61,-209.66 401.59,-213.21 401.63,-206.21"/>
<text text-anchor="start" x="422" y="-231" font-family="Helvetica,sans-Serif" font-size="10.00"> playerFPHullDamageToAllies</text>
<text text-anchor="middle" x="487" y="-220" font-family="Helvetica,sans-Serif" font-size="10.00">ByFaction</text>
</g>
<!-- Node15 -->
<g id="node15" class="node">
<title>Node15</title>
<g id="a_node15"><a xlink:href="classcom_1_1fs_1_1starfarer_1_1api_1_1campaign_1_1CombatDamageData.html" target="_top" xlink:title=" ">
<polygon fill="none" stroke="black" points="232,-147 232,-177 378,-177 378,-147 232,-147"/>
<text text-anchor="start" x="240" y="-165" font-family="Helvetica,sans-Serif" font-size="10.00">com.fs.starfarer.api.campaign.</text>
<text text-anchor="middle" x="305" y="-154" font-family="Helvetica,sans-Serif" font-size="10.00">CombatDamageData</text>
</a>
</g>
</g>
<!-- Node15&#45;&gt;Node10 -->
<g id="edge14" class="edge">
<title>Node15&#45;&gt;Node10</title>
<path fill="none" stroke="#9a32cd" stroke-dasharray="5,2" d="M388.14,-167.15C436.47,-171.54 498.43,-179.55 552,-194 576.36,-200.57 602.62,-211.77 622.11,-220.95"/>
<polygon fill="#9a32cd" stroke="#9a32cd" points="388.31,-163.65 378.04,-166.26 387.7,-170.62 388.31,-163.65"/>
<text text-anchor="middle" x="487" y="-197" font-family="Helvetica,sans-Serif" font-size="10.00"> runningDamageTotal</text>
</g>
<!-- Node16 -->
<g id="node16" class="node">
<title>Node16</title>
<g id="a_node16"><a xlink:title=" ">
<polygon fill="none" stroke="#bfbfbf" points="206,-87.5 206,-128.5 404,-128.5 404,-87.5 206,-87.5"/>
<text text-anchor="start" x="214" y="-116.5" font-family="Helvetica,sans-Serif" font-size="10.00">com.fs.starfarer.api.campaign.</text>
<text text-anchor="start" x="214" y="-105.5" font-family="Helvetica,sans-Serif" font-size="10.00">FleetEncounterContextPlugin.Engagement</text>
<text text-anchor="middle" x="305" y="-94.5" font-family="Helvetica,sans-Serif" font-size="10.00">Outcome</text>
</a>
</g>
</g>
<!-- Node16&#45;&gt;Node10 -->
<g id="edge15" class="edge">
<title>Node16&#45;&gt;Node10</title>
<path fill="none" stroke="#9a32cd" stroke-dasharray="5,2" d="M414.17,-117.67C458.41,-124.51 509.14,-136.15 552,-156 586.5,-171.98 619.53,-202.3 637.66,-220.68"/>
<polygon fill="#9a32cd" stroke="#9a32cd" points="414.66,-114.21 404.26,-116.21 413.64,-121.13 414.66,-114.21"/>
<text text-anchor="middle" x="487" y="-159" font-family="Helvetica,sans-Serif" font-size="10.00"> lastOutcome</text>
</g>
<!-- Node17 -->
<g id="node17" class="node">
<title>Node17</title>
<g id="a_node17"><a xlink:href="interfacecom_1_1fs_1_1starfarer_1_1api_1_1campaign_1_1TextPanelAPI.html" target="_top" xlink:title=" ">
<polygon fill="none" stroke="black" points="232,-39 232,-69 378,-69 378,-39 232,-39"/>
<text text-anchor="start" x="240" y="-57" font-family="Helvetica,sans-Serif" font-size="10.00">com.fs.starfarer.api.campaign.</text>
<text text-anchor="middle" x="305" y="-46" font-family="Helvetica,sans-Serif" font-size="10.00">TextPanelAPI</text>
</a>
</g>
</g>
<!-- Node17&#45;&gt;Node10 -->
<g id="edge16" class="edge">
<title>Node17&#45;&gt;Node10</title>
<path fill="none" stroke="#9a32cd" stroke-dasharray="5,2" d="M388.26,-56.2C438.83,-60.92 503.08,-73.23 552,-104 598.73,-133.39 631.61,-192.95 645.14,-220.89"/>
<polygon fill="#9a32cd" stroke="#9a32cd" points="388.27,-52.69 378.01,-55.33 387.68,-59.67 388.27,-52.69"/>
<text text-anchor="middle" x="487" y="-107" font-family="Helvetica,sans-Serif" font-size="10.00"> textPanelForXPGain</text>
</g>
<!-- Node18 -->
<g id="node18" class="node">
<title>Node18</title>
<g id="a_node18"><a xlink:title=" ">
<polygon fill="none" stroke="#bfbfbf" points="231.5,-0.5 231.5,-19.5 378.5,-19.5 378.5,-0.5 231.5,-0.5"/>
<text text-anchor="middle" x="305" y="-7.5" font-family="Helvetica,sans-Serif" font-size="10.00">List&lt; DataForEncounterSide &gt;</text>
</a>
</g>
</g>
<!-- Node18&#45;&gt;Node10 -->
<g id="edge18" class="edge">
<title>Node18&#45;&gt;Node10</title>
<path fill="none" stroke="#9a32cd" stroke-dasharray="5,2" d="M388.66,-3.55C439.99,-3.68 504.93,-11.75 552,-45 614.22,-88.94 640.71,-183.72 648.96,-220.74"/>
<polygon fill="#9a32cd" stroke="#9a32cd" points="388.55,-0.05 378.58,-3.63 388.6,-7.05 388.55,-0.05"/>
<text text-anchor="middle" x="487" y="-48" font-family="Helvetica,sans-Serif" font-size="10.00"> sideData</text>
</g>
</g>
</svg>
