<?xml version="1.0" encoding="UTF-8" standalone="no"?>
<!DOCTYPE svg PUBLIC "-//W3C//DTD SVG 1.1//EN"
 "http://www.w3.org/Graphics/SVG/1.1/DTD/svg11.dtd">
<!-- Generated by graphviz version 7.0.5 (20221223.1930)
 -->
<!-- Title: com.fs.starfarer.api.impl.campaign.missions.hub.HubMissionWithTriggers.SaveFleetReferenceAction Pages: 1 -->
<svg width="548pt" height="86pt"
 viewBox="0.00 0.00 548.00 86.00" xmlns="http://www.w3.org/2000/svg" xmlns:xlink="http://www.w3.org/1999/xlink">
<g id="graph0" class="graph" transform="scale(1 1) rotate(0) translate(4 82)">
<title>com.fs.starfarer.api.impl.campaign.missions.hub.HubMissionWithTriggers.SaveFleetReferenceAction</title>
<!-- Node1 -->
<g id="node1" class="node">
<title>Node1</title>
<g id="a_node1"><a xlink:title=" ">
<polygon fill="#999999" stroke="#666666" points="540,-54 298,-54 298,-24 540,-24 540,-54"/>
<text text-anchor="start" x="306" y="-42" font-family="Helvetica,sans-Serif" font-size="10.00">com.fs.starfarer.api.impl.campaign.missions.hub.</text>
<text text-anchor="middle" x="419" y="-31" font-family="Helvetica,sans-Serif" font-size="10.00">HubMissionWithTriggers.SaveFleetReferenceAction</text>
</a>
</g>
</g>
<!-- Node2 -->
<g id="node2" class="node">
<title>Node2</title>
<g id="a_node2"><a xlink:href="interfacecom_1_1fs_1_1starfarer_1_1api_1_1impl_1_1campaign_1_1missions_1_1hub_1_1MissionTrigger_1_1TriggerAction.html" target="_top" xlink:title=" ">
<polygon fill="white" stroke="#bfbfbf" points="225,-78 0,-78 0,-48 225,-48 225,-78"/>
<text text-anchor="start" x="8" y="-66" font-family="Helvetica,sans-Serif" font-size="10.00">com.fs.starfarer.api.impl.campaign.missions.hub.</text>
<text text-anchor="middle" x="112.5" y="-55" font-family="Helvetica,sans-Serif" font-size="10.00">MissionTrigger.TriggerAction</text>
</a>
</g>
</g>
<!-- Node2&#45;&gt;Node1 -->
<g id="edge1" class="edge">
<title>Node2&#45;&gt;Node1</title>
<path fill="none" stroke="#63b8ff" d="M236.59,-53.3C256.73,-51.71 277.57,-50.07 297.64,-48.49"/>
<polygon fill="#63b8ff" stroke="#63b8ff" points="236.36,-49.81 226.66,-54.08 236.91,-56.78 236.36,-49.81"/>
</g>
<!-- Node3 -->
<g id="node3" class="node">
<title>Node3</title>
<g id="a_node3"><a xlink:href="interfacecom_1_1fs_1_1starfarer_1_1api_1_1campaign_1_1rules_1_1MemoryAPI.html" target="_top" xlink:title=" ">
<polygon fill="white" stroke="#bfbfbf" points="197,-30 28,-30 28,0 197,0 197,-30"/>
<text text-anchor="start" x="36" y="-18" font-family="Helvetica,sans-Serif" font-size="10.00">com.fs.starfarer.api.campaign.rules.</text>
<text text-anchor="middle" x="112.5" y="-7" font-family="Helvetica,sans-Serif" font-size="10.00">MemoryAPI</text>
</a>
</g>
</g>
<!-- Node3&#45;&gt;Node1 -->
<g id="edge2" class="edge">
<title>Node3&#45;&gt;Node1</title>
<path fill="none" stroke="#9a32cd" stroke-dasharray="5,2" d="M208.56,-22.49C236.73,-24.71 267.95,-27.17 297.5,-29.5"/>
<polygon fill="#9a32cd" stroke="#9a32cd" points="208.86,-19.01 198.62,-21.71 208.31,-25.98 208.86,-19.01"/>
<text text-anchor="middle" x="261.5" y="-30" font-family="Helvetica,sans-Serif" font-size="10.00"> memory</text>
</g>
</g>
</svg>
