<?xml version="1.0" encoding="UTF-8" standalone="no"?>
<!DOCTYPE svg PUBLIC "-//W3C//DTD SVG 1.1//EN"
 "http://www.w3.org/Graphics/SVG/1.1/DTD/svg11.dtd">
<!-- Generated by graphviz version 2.49.3 (20211027.1501)
 -->
<!-- Title: com.fs.starfarer.api.impl.campaign.intel.raid.AssembleStage Pages: 1 -->
<svg width="1661pt" height="332pt"
 viewBox="0.00 0.00 1661.00 332.00" xmlns="http://www.w3.org/2000/svg" xmlns:xlink="http://www.w3.org/1999/xlink">
<g id="graph0" class="graph" transform="scale(1 1) rotate(0) translate(4 328)">
<title>com.fs.starfarer.api.impl.campaign.intel.raid.AssembleStage</title>
<!-- Node1 -->
<g id="node1" class="node">
<title>Node1</title>
<g id="a_node1"><a xlink:title=" ">
<polygon fill="#bfbfbf" stroke="black" points="1449,-155.5 1449,-185.5 1653,-185.5 1653,-155.5 1449,-155.5"/>
<text text-anchor="start" x="1457" y="-173.5" font-family="Helvetica,sans-Serif" font-size="10.00">com.fs.starfarer.api.impl.campaign.intel.raid.</text>
<text text-anchor="middle" x="1551" y="-162.5" font-family="Helvetica,sans-Serif" font-size="10.00">AssembleStage</text>
</a>
</g>
</g>
<!-- Node2 -->
<g id="node2" class="node">
<title>Node2</title>
<g id="a_node2"><a xlink:href="classcom_1_1fs_1_1starfarer_1_1api_1_1impl_1_1campaign_1_1intel_1_1raid_1_1BaseRaidStage.html" target="_top" xlink:title=" ">
<polygon fill="none" stroke="black" points="1208,-155.5 1208,-185.5 1412,-185.5 1412,-155.5 1208,-155.5"/>
<text text-anchor="start" x="1216" y="-173.5" font-family="Helvetica,sans-Serif" font-size="10.00">com.fs.starfarer.api.impl.campaign.intel.raid.</text>
<text text-anchor="middle" x="1310" y="-162.5" font-family="Helvetica,sans-Serif" font-size="10.00">BaseRaidStage</text>
</a>
</g>
</g>
<!-- Node2&#45;&gt;Node1 -->
<g id="edge1" class="edge">
<title>Node2&#45;&gt;Node1</title>
<path fill="none" stroke="midnightblue" d="M1422.09,-170.5C1431.05,-170.5 1440.08,-170.5 1448.97,-170.5"/>
<polygon fill="midnightblue" stroke="midnightblue" points="1422.01,-167 1412.01,-170.5 1422.01,-174 1422.01,-167"/>
</g>
<!-- Node3 -->
<g id="node3" class="node">
<title>Node3</title>
<g id="a_node3"><a xlink:title=" ">
<polygon fill="none" stroke="#bfbfbf" points="906,-221.5 906,-251.5 1110,-251.5 1110,-221.5 906,-221.5"/>
<text text-anchor="start" x="914" y="-239.5" font-family="Helvetica,sans-Serif" font-size="10.00">com.fs.starfarer.api.impl.campaign.intel.raid.</text>
<text text-anchor="middle" x="1008" y="-228.5" font-family="Helvetica,sans-Serif" font-size="10.00">RaidIntel.RaidStage</text>
</a>
</g>
</g>
<!-- Node3&#45;&gt;Node2 -->
<g id="edge2" class="edge">
<title>Node3&#45;&gt;Node2</title>
<path fill="none" stroke="midnightblue" d="M1087.39,-219.25C1134.92,-208.8 1194.98,-195.58 1240.58,-185.55"/>
<polygon fill="midnightblue" stroke="midnightblue" points="1086.46,-215.87 1077.45,-221.44 1087.97,-222.71 1086.46,-215.87"/>
</g>
<!-- Node4 -->
<g id="node4" class="node">
<title>Node4</title>
<g id="a_node4"><a xlink:href="classcom_1_1fs_1_1starfarer_1_1api_1_1impl_1_1campaign_1_1intel_1_1raid_1_1RaidIntel.html" target="_top" xlink:title=" ">
<polygon fill="none" stroke="black" points="906,-122.5 906,-152.5 1110,-152.5 1110,-122.5 906,-122.5"/>
<text text-anchor="start" x="914" y="-140.5" font-family="Helvetica,sans-Serif" font-size="10.00">com.fs.starfarer.api.impl.campaign.intel.raid.</text>
<text text-anchor="middle" x="1008" y="-129.5" font-family="Helvetica,sans-Serif" font-size="10.00">RaidIntel</text>
</a>
</g>
</g>
<!-- Node4&#45;&gt;Node2 -->
<g id="edge3" class="edge">
<title>Node4&#45;&gt;Node2</title>
<path fill="none" stroke="#9a32cd" stroke-dasharray="5,2" d="M1120.21,-149.73C1148.9,-152.89 1179.63,-156.27 1207.78,-159.37"/>
<polygon fill="#9a32cd" stroke="#9a32cd" points="1120.47,-146.24 1110.15,-148.63 1119.71,-153.2 1120.47,-146.24"/>
<text text-anchor="middle" x="1159" y="-159.5" font-family="Helvetica,sans-Serif" font-size="10.00"> intel</text>
</g>
<!-- Node5 -->
<g id="node5" class="node">
<title>Node5</title>
<g id="a_node5"><a xlink:href="classcom_1_1fs_1_1starfarer_1_1api_1_1impl_1_1campaign_1_1intel_1_1BaseIntelPlugin.html" target="_top" xlink:title=" ">
<polygon fill="none" stroke="black" points="635,-195.5 635,-225.5 821,-225.5 821,-195.5 635,-195.5"/>
<text text-anchor="start" x="643" y="-213.5" font-family="Helvetica,sans-Serif" font-size="10.00">com.fs.starfarer.api.impl.campaign.intel.</text>
<text text-anchor="middle" x="728" y="-202.5" font-family="Helvetica,sans-Serif" font-size="10.00">BaseIntelPlugin</text>
</a>
</g>
</g>
<!-- Node5&#45;&gt;Node4 -->
<g id="edge4" class="edge">
<title>Node5&#45;&gt;Node4</title>
<path fill="none" stroke="midnightblue" d="M804.84,-193C813.34,-190.89 821.87,-188.69 830,-186.5 864.07,-177.31 872.02,-173.01 906,-163.5 919.16,-159.82 933.35,-156.04 946.81,-152.55"/>
<polygon fill="midnightblue" stroke="midnightblue" points="803.76,-189.67 794.88,-195.45 805.43,-196.46 803.76,-189.67"/>
</g>
<!-- Node6 -->
<g id="node6" class="node">
<title>Node6</title>
<g id="a_node6"><a xlink:href="interfacecom_1_1fs_1_1starfarer_1_1api_1_1campaign_1_1comm_1_1IntelInfoPlugin.html" target="_top" xlink:title=" ">
<polygon fill="none" stroke="black" points="237.5,-195.5 237.5,-225.5 412.5,-225.5 412.5,-195.5 237.5,-195.5"/>
<text text-anchor="start" x="245.5" y="-213.5" font-family="Helvetica,sans-Serif" font-size="10.00">com.fs.starfarer.api.campaign.comm.</text>
<text text-anchor="middle" x="325" y="-202.5" font-family="Helvetica,sans-Serif" font-size="10.00">IntelInfoPlugin</text>
</a>
</g>
</g>
<!-- Node6&#45;&gt;Node5 -->
<g id="edge5" class="edge">
<title>Node6&#45;&gt;Node5</title>
<path fill="none" stroke="midnightblue" d="M422.68,-210.5C487.08,-210.5 571.22,-210.5 634.71,-210.5"/>
<polygon fill="midnightblue" stroke="midnightblue" points="422.52,-207 412.52,-210.5 422.52,-214 422.52,-207"/>
</g>
<!-- Node7 -->
<g id="node7" class="node">
<title>Node7</title>
<g id="a_node7"><a xlink:title=" ">
<polygon fill="none" stroke="#bfbfbf" points="223.5,-146.5 223.5,-176.5 426.5,-176.5 426.5,-146.5 223.5,-146.5"/>
<text text-anchor="start" x="231.5" y="-164.5" font-family="Helvetica,sans-Serif" font-size="10.00">com.fs.starfarer.api.impl.campaign.rulecmd.</text>
<text text-anchor="middle" x="325" y="-153.5" font-family="Helvetica,sans-Serif" font-size="10.00">CallEvent.CallableEvent</text>
</a>
</g>
</g>
<!-- Node7&#45;&gt;Node5 -->
<g id="edge6" class="edge">
<title>Node7&#45;&gt;Node5</title>
<path fill="none" stroke="midnightblue" d="M436.93,-175.05C499.19,-182.66 575.95,-192.04 634.87,-199.24"/>
<polygon fill="midnightblue" stroke="midnightblue" points="437.02,-171.54 426.67,-173.8 436.17,-178.49 437.02,-171.54"/>
</g>
<!-- Node8 -->
<g id="node8" class="node">
<title>Node8</title>
<g id="a_node8"><a xlink:href="interfacecom_1_1fs_1_1starfarer_1_1api_1_1EveryFrameScript.html" target="_top" xlink:title=" ">
<polygon fill="none" stroke="black" points="262.5,-97.5 262.5,-127.5 387.5,-127.5 387.5,-97.5 262.5,-97.5"/>
<text text-anchor="start" x="270.5" y="-115.5" font-family="Helvetica,sans-Serif" font-size="10.00">com.fs.starfarer.api.Every</text>
<text text-anchor="middle" x="325" y="-104.5" font-family="Helvetica,sans-Serif" font-size="10.00">FrameScript</text>
</a>
</g>
</g>
<!-- Node8&#45;&gt;Node5 -->
<g id="edge7" class="edge">
<title>Node8&#45;&gt;Node5</title>
<path fill="none" stroke="midnightblue" d="M397.53,-127.5C412.87,-130.76 428.98,-134.21 444,-137.5 517,-153.47 539.32,-145.06 608,-174.5 616.84,-178.29 617.18,-182.66 626,-186.5 633.85,-189.92 642.26,-192.89 650.76,-195.47"/>
<polygon fill="midnightblue" stroke="midnightblue" points="398.09,-124.04 387.58,-125.39 396.64,-130.89 398.09,-124.04"/>
</g>
<!-- Node9 -->
<g id="node9" class="node">
<title>Node9</title>
<g id="a_node9"><a xlink:title=" ">
<polygon fill="none" stroke="#bfbfbf" points="206,-244.5 206,-274.5 444,-274.5 444,-244.5 206,-244.5"/>
<text text-anchor="start" x="214" y="-262.5" font-family="Helvetica,sans-Serif" font-size="10.00">com.fs.starfarer.api.impl.campaign.</text>
<text text-anchor="middle" x="325" y="-251.5" font-family="Helvetica,sans-Serif" font-size="10.00">CommRelayEntityPlugin.CommSnifferReadableIntel</text>
</a>
</g>
</g>
<!-- Node9&#45;&gt;Node5 -->
<g id="edge8" class="edge">
<title>Node9&#45;&gt;Node5</title>
<path fill="none" stroke="midnightblue" d="M454.24,-243.83C512.97,-236.65 581.25,-228.31 634.81,-221.77"/>
<polygon fill="midnightblue" stroke="midnightblue" points="453.65,-240.38 444.14,-245.06 454.5,-247.32 453.65,-240.38"/>
</g>
<!-- Node10 -->
<g id="node10" class="node">
<title>Node10</title>
<g id="a_node10"><a xlink:href="interfacecom_1_1fs_1_1starfarer_1_1api_1_1campaign_1_1SectorEntityToken.html" target="_top" xlink:title=" ">
<polygon fill="none" stroke="black" points="252,-293.5 252,-323.5 398,-323.5 398,-293.5 252,-293.5"/>
<text text-anchor="start" x="260" y="-311.5" font-family="Helvetica,sans-Serif" font-size="10.00">com.fs.starfarer.api.campaign.</text>
<text text-anchor="middle" x="325" y="-300.5" font-family="Helvetica,sans-Serif" font-size="10.00">SectorEntityToken</text>
</a>
</g>
</g>
<!-- Node10&#45;&gt;Node1 -->
<g id="edge20" class="edge">
<title>Node10&#45;&gt;Node1</title>
<path fill="none" stroke="#9a32cd" stroke-dasharray="5,2" d="M408.22,-308.5C489.28,-308.5 616.67,-308.5 727,-308.5 727,-308.5 727,-308.5 1311,-308.5 1408.5,-308.5 1502.02,-221.3 1536.27,-185.53"/>
<polygon fill="#9a32cd" stroke="#9a32cd" points="408.08,-305 398.08,-308.5 408.08,-312 408.08,-305"/>
<text text-anchor="middle" x="1008" y="-311.5" font-family="Helvetica,sans-Serif" font-size="10.00"> gatheringPoint</text>
</g>
<!-- Node10&#45;&gt;Node5 -->
<g id="edge9" class="edge">
<title>Node10&#45;&gt;Node5</title>
<path fill="none" stroke="#9a32cd" stroke-dasharray="5,2" d="M408.16,-292.02C420.19,-289.54 432.42,-286.98 444,-284.5 517.06,-268.83 535.82,-266.83 608,-247.5 632.45,-240.95 659.41,-232.66 681.48,-225.59"/>
<polygon fill="#9a32cd" stroke="#9a32cd" points="407.22,-288.64 398.13,-294.08 408.63,-295.5 407.22,-288.64"/>
<text text-anchor="middle" x="535" y="-282.5" font-family="Helvetica,sans-Serif" font-size="10.00"> postingLocation</text>
</g>
<!-- Node11 -->
<g id="node11" class="node">
<title>Node11</title>
<g id="a_node11"><a xlink:href="interfacecom_1_1fs_1_1starfarer_1_1api_1_1campaign_1_1rules_1_1HasMemory.html" target="_top" xlink:title=" ">
<polygon fill="none" stroke="black" points="0,-65.5 0,-95.5 169,-95.5 169,-65.5 0,-65.5"/>
<text text-anchor="start" x="8" y="-83.5" font-family="Helvetica,sans-Serif" font-size="10.00">com.fs.starfarer.api.campaign.rules.</text>
<text text-anchor="middle" x="84.5" y="-72.5" font-family="Helvetica,sans-Serif" font-size="10.00">HasMemory</text>
</a>
</g>
</g>
<!-- Node11&#45;&gt;Node10 -->
<g id="edge10" class="edge">
<title>Node11&#45;&gt;Node10</title>
<path fill="none" stroke="midnightblue" d="M92.75,-105.29C106.88,-148.95 142.42,-239.21 206,-284.5 219.37,-294.02 235.63,-299.96 251.76,-303.62"/>
<polygon fill="midnightblue" stroke="midnightblue" points="96.09,-104.24 89.76,-95.74 89.41,-106.33 96.09,-104.24"/>
</g>
<!-- Node15 -->
<g id="node15" class="node">
<title>Node15</title>
<g id="a_node15"><a xlink:href="interfacecom_1_1fs_1_1starfarer_1_1api_1_1campaign_1_1FactionAPI.html" target="_top" xlink:title=" ">
<polygon fill="none" stroke="black" points="462,-59.5 462,-89.5 608,-89.5 608,-59.5 462,-59.5"/>
<text text-anchor="start" x="470" y="-77.5" font-family="Helvetica,sans-Serif" font-size="10.00">com.fs.starfarer.api.campaign.</text>
<text text-anchor="middle" x="535" y="-66.5" font-family="Helvetica,sans-Serif" font-size="10.00">FactionAPI</text>
</a>
</g>
</g>
<!-- Node11&#45;&gt;Node15 -->
<g id="edge15" class="edge">
<title>Node11&#45;&gt;Node15</title>
<path fill="none" stroke="midnightblue" d="M179.14,-79.25C263.32,-78.12 385.18,-76.49 461.96,-75.46"/>
<polygon fill="midnightblue" stroke="midnightblue" points="179.02,-75.75 169.07,-79.38 179.12,-82.75 179.02,-75.75"/>
</g>
<!-- Node12 -->
<g id="node12" class="node">
<title>Node12</title>
<g id="a_node12"><a xlink:title=" ">
<polygon fill="none" stroke="#bfbfbf" points="632.5,-49.5 632.5,-79.5 823.5,-79.5 823.5,-49.5 632.5,-49.5"/>
<text text-anchor="start" x="640.5" y="-67.5" font-family="Helvetica,sans-Serif" font-size="10.00">com.fs.starfarer.api.impl.campaign.fleets.</text>
<text text-anchor="middle" x="728" y="-56.5" font-family="Helvetica,sans-Serif" font-size="10.00">RouteManager.RouteFleetSpawner</text>
</a>
</g>
</g>
<!-- Node12&#45;&gt;Node4 -->
<g id="edge11" class="edge">
<title>Node12&#45;&gt;Node4</title>
<path fill="none" stroke="midnightblue" d="M817.54,-81.87C840.78,-87.45 865.6,-94.34 888,-102.5 896.4,-105.56 897.62,-108.37 906,-111.5 916.94,-115.59 928.78,-119.27 940.37,-122.49"/>
<polygon fill="midnightblue" stroke="midnightblue" points="818.22,-78.43 807.69,-79.55 816.62,-85.25 818.22,-78.43"/>
</g>
<!-- Node13 -->
<g id="node13" class="node">
<title>Node13</title>
<g id="a_node13"><a xlink:href="interfacecom_1_1fs_1_1starfarer_1_1api_1_1campaign_1_1StarSystemAPI.html" target="_top" xlink:title=" ">
<polygon fill="none" stroke="black" points="655,-0.5 655,-30.5 801,-30.5 801,-0.5 655,-0.5"/>
<text text-anchor="start" x="663" y="-18.5" font-family="Helvetica,sans-Serif" font-size="10.00">com.fs.starfarer.api.campaign.</text>
<text text-anchor="middle" x="728" y="-7.5" font-family="Helvetica,sans-Serif" font-size="10.00">StarSystemAPI</text>
</a>
</g>
</g>
<!-- Node13&#45;&gt;Node4 -->
<g id="edge12" class="edge">
<title>Node13&#45;&gt;Node4</title>
<path fill="none" stroke="#9a32cd" stroke-dasharray="5,2" d="M810.79,-32.52C817.37,-34.62 823.85,-36.94 830,-39.5 858.01,-51.16 867.55,-53.08 888,-75.5 900.06,-88.72 892.09,-100.26 906,-111.5 911.35,-115.82 917.34,-119.44 923.66,-122.46"/>
<polygon fill="#9a32cd" stroke="#9a32cd" points="811.68,-29.14 801.09,-29.61 809.66,-35.84 811.68,-29.14"/>
<text text-anchor="middle" x="868" y="-78.5" font-family="Helvetica,sans-Serif" font-size="10.00"> system</text>
</g>
<!-- Node14 -->
<g id="node14" class="node">
<title>Node14</title>
<g id="a_node14"><a xlink:href="interfacecom_1_1fs_1_1starfarer_1_1api_1_1campaign_1_1LocationAPI.html" target="_top" xlink:title=" ">
<polygon fill="none" stroke="black" points="252,-0.5 252,-30.5 398,-30.5 398,-0.5 252,-0.5"/>
<text text-anchor="start" x="260" y="-18.5" font-family="Helvetica,sans-Serif" font-size="10.00">com.fs.starfarer.api.campaign.</text>
<text text-anchor="middle" x="325" y="-7.5" font-family="Helvetica,sans-Serif" font-size="10.00">LocationAPI</text>
</a>
</g>
</g>
<!-- Node14&#45;&gt;Node13 -->
<g id="edge13" class="edge">
<title>Node14&#45;&gt;Node13</title>
<path fill="none" stroke="midnightblue" d="M408.17,-15.5C480.69,-15.5 585.37,-15.5 654.75,-15.5"/>
<polygon fill="midnightblue" stroke="midnightblue" points="408.15,-12 398.15,-15.5 408.15,-19 408.15,-12"/>
</g>
<!-- Node15&#45;&gt;Node4 -->
<g id="edge14" class="edge">
<title>Node15&#45;&gt;Node4</title>
<path fill="none" stroke="#9a32cd" stroke-dasharray="5,2" d="M618.29,-87.39C620.89,-87.77 623.47,-88.14 626,-88.5 720.75,-101.96 828.99,-115.73 905.83,-125.23"/>
<polygon fill="#9a32cd" stroke="#9a32cd" points="618.59,-83.9 608.19,-85.9 617.57,-90.82 618.59,-83.9"/>
<text text-anchor="middle" x="728" y="-118.5" font-family="Helvetica,sans-Serif" font-size="10.00"> faction</text>
</g>
<!-- Node16 -->
<g id="node16" class="node">
<title>Node16</title>
<g id="a_node16"><a xlink:title=" ">
<polygon fill="none" stroke="#bfbfbf" points="626,-146.5 626,-176.5 830,-176.5 830,-146.5 626,-146.5"/>
<text text-anchor="start" x="634" y="-164.5" font-family="Helvetica,sans-Serif" font-size="10.00">com.fs.starfarer.api.impl.campaign.intel.raid.</text>
<text text-anchor="middle" x="728" y="-153.5" font-family="Helvetica,sans-Serif" font-size="10.00">RaidIntel.RaidDelegate</text>
</a>
</g>
</g>
<!-- Node16&#45;&gt;Node4 -->
<g id="edge16" class="edge">
<title>Node16&#45;&gt;Node4</title>
<path fill="none" stroke="#9a32cd" stroke-dasharray="5,2" d="M840.36,-151.89C862.02,-150.02 884.62,-148.07 905.92,-146.23"/>
<polygon fill="#9a32cd" stroke="#9a32cd" points="839.81,-148.42 830.15,-152.77 840.41,-155.39 839.81,-148.42"/>
<text text-anchor="middle" x="868" y="-153.5" font-family="Helvetica,sans-Serif" font-size="10.00"> delegate</text>
</g>
<!-- Node17 -->
<g id="node17" class="node">
<title>Node17</title>
<g id="a_node17"><a xlink:href="classcom_1_1fs_1_1starfarer_1_1api_1_1util_1_1IntervalUtil.html" target="_top" xlink:title=" ">
<polygon fill="none" stroke="black" points="950,-72.5 950,-102.5 1066,-102.5 1066,-72.5 950,-72.5"/>
<text text-anchor="start" x="958" y="-90.5" font-family="Helvetica,sans-Serif" font-size="10.00">com.fs.starfarer.api.util.</text>
<text text-anchor="middle" x="1008" y="-79.5" font-family="Helvetica,sans-Serif" font-size="10.00">IntervalUtil</text>
</a>
</g>
</g>
<!-- Node17&#45;&gt;Node1 -->
<g id="edge19" class="edge">
<title>Node17&#45;&gt;Node1</title>
<path fill="none" stroke="#9a32cd" stroke-dasharray="5,2" d="M1076.06,-92.8C1156.37,-99.77 1294.74,-113.74 1412,-135.5 1440.43,-140.78 1471.7,-148.54 1497.28,-155.42"/>
<polygon fill="#9a32cd" stroke="#9a32cd" points="1076.34,-89.32 1066.08,-91.95 1075.74,-96.29 1076.34,-89.32"/>
<text text-anchor="middle" x="1310" y="-138.5" font-family="Helvetica,sans-Serif" font-size="10.00"> interval</text>
</g>
<!-- Node17&#45;&gt;Node2 -->
<g id="edge17" class="edge">
<title>Node17&#45;&gt;Node2</title>
<path fill="none" stroke="#9a32cd" stroke-dasharray="5,2" d="M1076.1,-103.74C1087.44,-106.59 1099.07,-109.58 1110,-112.5 1161.28,-126.21 1219.53,-143.38 1259.69,-155.47"/>
<polygon fill="#9a32cd" stroke="#9a32cd" points="1076.8,-100.3 1066.25,-101.28 1075.1,-107.1 1076.8,-100.3"/>
<text text-anchor="middle" x="1159" y="-136.5" font-family="Helvetica,sans-Serif" font-size="10.00"> statusInterval</text>
</g>
<!-- Node18 -->
<g id="node18" class="node">
<title>Node18</title>
<g id="a_node18"><a xlink:title=" ">
<polygon fill="none" stroke="#bfbfbf" points="906,-172.5 906,-202.5 1110,-202.5 1110,-172.5 906,-172.5"/>
<text text-anchor="start" x="914" y="-190.5" font-family="Helvetica,sans-Serif" font-size="10.00">com.fs.starfarer.api.impl.campaign.intel.raid.</text>
<text text-anchor="middle" x="1008" y="-179.5" font-family="Helvetica,sans-Serif" font-size="10.00">RaidIntel.RaidStageStatus</text>
</a>
</g>
</g>
<!-- Node18&#45;&gt;Node2 -->
<g id="edge18" class="edge">
<title>Node18&#45;&gt;Node2</title>
<path fill="none" stroke="#9a32cd" stroke-dasharray="5,2" d="M1120.21,-181.2C1148.9,-179.57 1179.63,-177.83 1207.78,-176.24"/>
<polygon fill="#9a32cd" stroke="#9a32cd" points="1119.93,-177.71 1110.15,-181.77 1120.33,-184.7 1119.93,-177.71"/>
<text text-anchor="middle" x="1159" y="-183.5" font-family="Helvetica,sans-Serif" font-size="10.00"> status</text>
</g>
</g>
</svg>
