<?xml version="1.0" encoding="UTF-8" standalone="no"?>
<!DOCTYPE svg PUBLIC "-//W3C//DTD SVG 1.1//EN"
 "http://www.w3.org/Graphics/SVG/1.1/DTD/svg11.dtd">
<!-- Generated by graphviz version 2.49.3 (20211027.1501)
 -->
<!-- Title: com.fs.starfarer.api.impl.campaign.missions.hub.HubMissionWithSearch Pages: 1 -->
<svg width="2101pt" height="1803pt"
 viewBox="0.00 0.00 2101.00 1803.00" xmlns="http://www.w3.org/2000/svg" xmlns:xlink="http://www.w3.org/1999/xlink">
<g id="graph0" class="graph" transform="scale(1 1) rotate(0) translate(4 1799)">
<title>com.fs.starfarer.api.impl.campaign.missions.hub.HubMissionWithSearch</title>
<!-- Node1 -->
<g id="node1" class="node">
<title>Node1</title>
<g id="a_node1"><a xlink:title=" ">
<polygon fill="#bfbfbf" stroke="black" points="1057,-882.5 1057,-912.5 1282,-912.5 1282,-882.5 1057,-882.5"/>
<text text-anchor="start" x="1065" y="-900.5" font-family="Helvetica,sans-Serif" font-size="10.00">com.fs.starfarer.api.impl.campaign.missions.hub.</text>
<text text-anchor="middle" x="1169.5" y="-889.5" font-family="Helvetica,sans-Serif" font-size="10.00">HubMissionWithSearch</text>
</a>
</g>
</g>
<!-- Node10 -->
<g id="node10" class="node">
<title>Node10</title>
<g id="a_node10"><a xlink:href="classcom_1_1fs_1_1starfarer_1_1api_1_1impl_1_1campaign_1_1missions_1_1academy_1_1GABaseMission.html" target="_top" xlink:title=" ">
<polygon fill="none" stroke="black" points="1318,-1323.5 1318,-1353.5 1566,-1353.5 1566,-1323.5 1318,-1323.5"/>
<text text-anchor="start" x="1326" y="-1341.5" font-family="Helvetica,sans-Serif" font-size="10.00">com.fs.starfarer.api.impl.campaign.missions.academy.</text>
<text text-anchor="middle" x="1442" y="-1330.5" font-family="Helvetica,sans-Serif" font-size="10.00">GABaseMission</text>
</a>
</g>
</g>
<!-- Node1&#45;&gt;Node10 -->
<g id="edge9" class="edge">
<title>Node1&#45;&gt;Node10</title>
<path fill="none" stroke="midnightblue" d="M1185.26,-921.56C1234.42,-1001.71 1391.81,-1258.31 1431.73,-1323.38"/>
<polygon fill="midnightblue" stroke="midnightblue" points="1188.02,-919.37 1179.81,-912.68 1182.06,-923.03 1188.02,-919.37"/>
</g>
<!-- Node29 -->
<g id="node29" class="node">
<title>Node29</title>
<g id="a_node29"><a xlink:href="classcom_1_1fs_1_1starfarer_1_1api_1_1impl_1_1campaign_1_1missions_1_1hub_1_1HubMissionWithBarEvent.html" target="_top" xlink:title=" ">
<polygon fill="none" stroke="black" points="1329.5,-466.5 1329.5,-496.5 1554.5,-496.5 1554.5,-466.5 1329.5,-466.5"/>
<text text-anchor="start" x="1337.5" y="-484.5" font-family="Helvetica,sans-Serif" font-size="10.00">com.fs.starfarer.api.impl.campaign.missions.hub.</text>
<text text-anchor="middle" x="1442" y="-473.5" font-family="Helvetica,sans-Serif" font-size="10.00">HubMissionWithBarEvent</text>
</a>
</g>
</g>
<!-- Node1&#45;&gt;Node29 -->
<g id="edge28" class="edge">
<title>Node1&#45;&gt;Node29</title>
<path fill="none" stroke="midnightblue" d="M1185.97,-873.71C1235.61,-797.37 1390.04,-559.88 1430.96,-496.94"/>
<polygon fill="midnightblue" stroke="midnightblue" points="1182.97,-871.91 1180.45,-882.2 1188.83,-875.73 1182.97,-871.91"/>
</g>
<!-- Node2 -->
<g id="node2" class="node">
<title>Node2</title>
<g id="a_node2"><a xlink:href="classcom_1_1fs_1_1starfarer_1_1api_1_1impl_1_1campaign_1_1missions_1_1hub_1_1HubMissionWithTriggers.html" target="_top" xlink:title=" ">
<polygon fill="none" stroke="black" points="796,-882.5 796,-912.5 1021,-912.5 1021,-882.5 796,-882.5"/>
<text text-anchor="start" x="804" y="-900.5" font-family="Helvetica,sans-Serif" font-size="10.00">com.fs.starfarer.api.impl.campaign.missions.hub.</text>
<text text-anchor="middle" x="908.5" y="-889.5" font-family="Helvetica,sans-Serif" font-size="10.00">HubMissionWithTriggers</text>
</a>
</g>
</g>
<!-- Node2&#45;&gt;Node1 -->
<g id="edge1" class="edge">
<title>Node2&#45;&gt;Node1</title>
<path fill="none" stroke="midnightblue" d="M1031.47,-897.5C1039.9,-897.5 1048.37,-897.5 1056.74,-897.5"/>
<polygon fill="midnightblue" stroke="midnightblue" points="1031.22,-894 1021.22,-897.5 1031.22,-901 1031.22,-894"/>
</g>
<!-- Node3 -->
<g id="node3" class="node">
<title>Node3</title>
<g id="a_node3"><a xlink:href="classcom_1_1fs_1_1starfarer_1_1api_1_1impl_1_1campaign_1_1missions_1_1hub_1_1BaseHubMission.html" target="_top" xlink:title=" ">
<polygon fill="none" stroke="black" points="535,-882.5 535,-912.5 760,-912.5 760,-882.5 535,-882.5"/>
<text text-anchor="start" x="543" y="-900.5" font-family="Helvetica,sans-Serif" font-size="10.00">com.fs.starfarer.api.impl.campaign.missions.hub.</text>
<text text-anchor="middle" x="647.5" y="-889.5" font-family="Helvetica,sans-Serif" font-size="10.00">BaseHubMission</text>
</a>
</g>
</g>
<!-- Node3&#45;&gt;Node2 -->
<g id="edge2" class="edge">
<title>Node3&#45;&gt;Node2</title>
<path fill="none" stroke="midnightblue" d="M770.47,-897.5C778.9,-897.5 787.37,-897.5 795.74,-897.5"/>
<polygon fill="midnightblue" stroke="midnightblue" points="770.22,-894 760.22,-897.5 770.22,-901 770.22,-894"/>
</g>
<!-- Node4 -->
<g id="node4" class="node">
<title>Node4</title>
<g id="a_node4"><a xlink:href="classcom_1_1fs_1_1starfarer_1_1api_1_1impl_1_1campaign_1_1intel_1_1BaseIntelPlugin.html" target="_top" xlink:title=" ">
<polygon fill="none" stroke="black" points="293.5,-907.5 293.5,-937.5 479.5,-937.5 479.5,-907.5 293.5,-907.5"/>
<text text-anchor="start" x="301.5" y="-925.5" font-family="Helvetica,sans-Serif" font-size="10.00">com.fs.starfarer.api.impl.campaign.intel.</text>
<text text-anchor="middle" x="386.5" y="-914.5" font-family="Helvetica,sans-Serif" font-size="10.00">BaseIntelPlugin</text>
</a>
</g>
</g>
<!-- Node4&#45;&gt;Node3 -->
<g id="edge3" class="edge">
<title>Node4&#45;&gt;Node3</title>
<path fill="none" stroke="midnightblue" d="M489.7,-912.63C504.51,-911.21 519.81,-909.73 534.79,-908.28"/>
<polygon fill="midnightblue" stroke="midnightblue" points="489.16,-909.17 479.54,-913.62 489.83,-916.14 489.16,-909.17"/>
</g>
<!-- Node5 -->
<g id="node5" class="node">
<title>Node5</title>
<g id="a_node5"><a xlink:href="interfacecom_1_1fs_1_1starfarer_1_1api_1_1campaign_1_1comm_1_1IntelInfoPlugin.html" target="_top" xlink:title=" ">
<polygon fill="none" stroke="black" points="31.5,-981.5 31.5,-1011.5 206.5,-1011.5 206.5,-981.5 31.5,-981.5"/>
<text text-anchor="start" x="39.5" y="-999.5" font-family="Helvetica,sans-Serif" font-size="10.00">com.fs.starfarer.api.campaign.comm.</text>
<text text-anchor="middle" x="119" y="-988.5" font-family="Helvetica,sans-Serif" font-size="10.00">IntelInfoPlugin</text>
</a>
</g>
</g>
<!-- Node5&#45;&gt;Node4 -->
<g id="edge4" class="edge">
<title>Node5&#45;&gt;Node4</title>
<path fill="none" stroke="midnightblue" d="M207.1,-979.2C217.55,-976.79 228.04,-974.2 238,-971.5 274.33,-961.65 314.87,-947.98 344.23,-937.59"/>
<polygon fill="midnightblue" stroke="midnightblue" points="206.08,-975.84 197.1,-981.46 207.63,-982.67 206.08,-975.84"/>
</g>
<!-- Node6 -->
<g id="node6" class="node">
<title>Node6</title>
<g id="a_node6"><a xlink:title=" ">
<polygon fill="none" stroke="#bfbfbf" points="17.5,-932.5 17.5,-962.5 220.5,-962.5 220.5,-932.5 17.5,-932.5"/>
<text text-anchor="start" x="25.5" y="-950.5" font-family="Helvetica,sans-Serif" font-size="10.00">com.fs.starfarer.api.impl.campaign.rulecmd.</text>
<text text-anchor="middle" x="119" y="-939.5" font-family="Helvetica,sans-Serif" font-size="10.00">CallEvent.CallableEvent</text>
</a>
</g>
</g>
<!-- Node6&#45;&gt;Node4 -->
<g id="edge5" class="edge">
<title>Node6&#45;&gt;Node4</title>
<path fill="none" stroke="midnightblue" d="M230.86,-937.06C251.57,-935.11 273.02,-933.09 293.11,-931.2"/>
<polygon fill="midnightblue" stroke="midnightblue" points="230.38,-933.59 220.75,-938.01 231.04,-940.56 230.38,-933.59"/>
</g>
<!-- Node7 -->
<g id="node7" class="node">
<title>Node7</title>
<g id="a_node7"><a xlink:href="interfacecom_1_1fs_1_1starfarer_1_1api_1_1EveryFrameScript.html" target="_top" xlink:title=" ">
<polygon fill="none" stroke="black" points="56.5,-883.5 56.5,-913.5 181.5,-913.5 181.5,-883.5 56.5,-883.5"/>
<text text-anchor="start" x="64.5" y="-901.5" font-family="Helvetica,sans-Serif" font-size="10.00">com.fs.starfarer.api.Every</text>
<text text-anchor="middle" x="119" y="-890.5" font-family="Helvetica,sans-Serif" font-size="10.00">FrameScript</text>
</a>
</g>
</g>
<!-- Node7&#45;&gt;Node4 -->
<g id="edge6" class="edge">
<title>Node7&#45;&gt;Node4</title>
<path fill="none" stroke="midnightblue" d="M191.93,-905C223.14,-907.82 260.07,-911.16 293.27,-914.16"/>
<polygon fill="midnightblue" stroke="midnightblue" points="191.85,-901.48 181.58,-904.07 191.22,-908.45 191.85,-901.48"/>
</g>
<!-- Node8 -->
<g id="node8" class="node">
<title>Node8</title>
<g id="a_node8"><a xlink:title=" ">
<polygon fill="none" stroke="#bfbfbf" points="0,-834.5 0,-864.5 238,-864.5 238,-834.5 0,-834.5"/>
<text text-anchor="start" x="8" y="-852.5" font-family="Helvetica,sans-Serif" font-size="10.00">com.fs.starfarer.api.impl.campaign.</text>
<text text-anchor="middle" x="119" y="-841.5" font-family="Helvetica,sans-Serif" font-size="10.00">CommRelayEntityPlugin.CommSnifferReadableIntel</text>
</a>
</g>
</g>
<!-- Node8&#45;&gt;Node4 -->
<g id="edge7" class="edge">
<title>Node8&#45;&gt;Node4</title>
<path fill="none" stroke="midnightblue" d="M221.49,-867.44C227.14,-869.27 232.68,-871.29 238,-873.5 255.75,-880.89 256.32,-889.94 274,-897.5 283.03,-901.36 292.73,-904.67 302.52,-907.48"/>
<polygon fill="midnightblue" stroke="midnightblue" points="222.48,-864.08 211.89,-864.52 220.44,-870.78 222.48,-864.08"/>
</g>
<!-- Node9 -->
<g id="node9" class="node">
<title>Node9</title>
<g id="a_node9"><a xlink:href="interfacecom_1_1fs_1_1starfarer_1_1api_1_1impl_1_1campaign_1_1missions_1_1hub_1_1HubMission.html" target="_top" xlink:title=" ">
<polygon fill="none" stroke="black" points="274,-858.5 274,-888.5 499,-888.5 499,-858.5 274,-858.5"/>
<text text-anchor="start" x="282" y="-876.5" font-family="Helvetica,sans-Serif" font-size="10.00">com.fs.starfarer.api.impl.campaign.missions.hub.</text>
<text text-anchor="middle" x="386.5" y="-865.5" font-family="Helvetica,sans-Serif" font-size="10.00">HubMission</text>
</a>
</g>
</g>
<!-- Node9&#45;&gt;Node3 -->
<g id="edge8" class="edge">
<title>Node9&#45;&gt;Node3</title>
<path fill="none" stroke="midnightblue" d="M509.19,-884.78C517.71,-885.57 526.28,-886.36 534.74,-887.14"/>
<polygon fill="midnightblue" stroke="midnightblue" points="509.5,-881.29 499.22,-883.85 508.85,-888.26 509.5,-881.29"/>
</g>
<!-- Node11 -->
<g id="node11" class="node">
<title>Node11</title>
<g id="a_node11"><a xlink:href="classcom_1_1fs_1_1starfarer_1_1api_1_1impl_1_1campaign_1_1missions_1_1academy_1_1BasicExampleGADataFromRuins.html" target="_top" xlink:title=" ">
<polygon fill="none" stroke="black" points="1602,-1764.5 1602,-1794.5 1850,-1794.5 1850,-1764.5 1602,-1764.5"/>
<text text-anchor="start" x="1610" y="-1782.5" font-family="Helvetica,sans-Serif" font-size="10.00">com.fs.starfarer.api.impl.campaign.missions.academy.</text>
<text text-anchor="middle" x="1726" y="-1771.5" font-family="Helvetica,sans-Serif" font-size="10.00">BasicExampleGADataFromRuins</text>
</a>
</g>
</g>
<!-- Node10&#45;&gt;Node11 -->
<g id="edge10" class="edge">
<title>Node10&#45;&gt;Node11</title>
<path fill="none" stroke="midnightblue" d="M1444.54,-1363.58C1450.44,-1436.42 1478.02,-1649.41 1602,-1754.5 1606.49,-1758.3 1611.4,-1761.58 1616.59,-1764.41"/>
<polygon fill="midnightblue" stroke="midnightblue" points="1448.02,-1363.22 1443.79,-1353.51 1441.04,-1363.74 1448.02,-1363.22"/>
</g>
<!-- Node12 -->
<g id="node12" class="node">
<title>Node12</title>
<g id="a_node12"><a xlink:href="classcom_1_1fs_1_1starfarer_1_1api_1_1impl_1_1campaign_1_1missions_1_1academy_1_1GAAtTheGates.html" target="_top" xlink:title=" ">
<polygon fill="none" stroke="black" points="1602,-1715.5 1602,-1745.5 1850,-1745.5 1850,-1715.5 1602,-1715.5"/>
<text text-anchor="start" x="1610" y="-1733.5" font-family="Helvetica,sans-Serif" font-size="10.00">com.fs.starfarer.api.impl.campaign.missions.academy.</text>
<text text-anchor="middle" x="1726" y="-1722.5" font-family="Helvetica,sans-Serif" font-size="10.00">GAAtTheGates</text>
</a>
</g>
</g>
<!-- Node10&#45;&gt;Node12 -->
<g id="edge11" class="edge">
<title>Node10&#45;&gt;Node12</title>
<path fill="none" stroke="midnightblue" d="M1445.98,-1363.76C1455.31,-1430.93 1490.36,-1614.99 1602,-1705.5 1606.74,-1709.34 1611.91,-1712.64 1617.37,-1715.48"/>
<polygon fill="midnightblue" stroke="midnightblue" points="1449.42,-1363.13 1444.65,-1353.67 1442.48,-1364.04 1449.42,-1363.13"/>
</g>
<!-- Node13 -->
<g id="node13" class="node">
<title>Node13</title>
<g id="a_node13"><a xlink:href="classcom_1_1fs_1_1starfarer_1_1api_1_1impl_1_1campaign_1_1missions_1_1academy_1_1GABuyArtifact.html" target="_top" xlink:title=" ">
<polygon fill="none" stroke="black" points="1602,-1666.5 1602,-1696.5 1850,-1696.5 1850,-1666.5 1602,-1666.5"/>
<text text-anchor="start" x="1610" y="-1684.5" font-family="Helvetica,sans-Serif" font-size="10.00">com.fs.starfarer.api.impl.campaign.missions.academy.</text>
<text text-anchor="middle" x="1726" y="-1673.5" font-family="Helvetica,sans-Serif" font-size="10.00">GABuyArtifact</text>
</a>
</g>
</g>
<!-- Node10&#45;&gt;Node13 -->
<g id="edge12" class="edge">
<title>Node10&#45;&gt;Node13</title>
<path fill="none" stroke="midnightblue" d="M1447.78,-1363.68C1460.72,-1424.54 1502.4,-1580.18 1602,-1656.5 1607.02,-1660.34 1612.47,-1663.64 1618.21,-1666.46"/>
<polygon fill="midnightblue" stroke="midnightblue" points="1451.19,-1362.88 1445.75,-1353.78 1444.33,-1364.28 1451.19,-1362.88"/>
</g>
<!-- Node14 -->
<g id="node14" class="node">
<title>Node14</title>
<g id="a_node14"><a xlink:href="classcom_1_1fs_1_1starfarer_1_1api_1_1impl_1_1campaign_1_1missions_1_1academy_1_1GACelestialObject.html" target="_top" xlink:title=" ">
<polygon fill="none" stroke="black" points="1602,-1617.5 1602,-1647.5 1850,-1647.5 1850,-1617.5 1602,-1617.5"/>
<text text-anchor="start" x="1610" y="-1635.5" font-family="Helvetica,sans-Serif" font-size="10.00">com.fs.starfarer.api.impl.campaign.missions.academy.</text>
<text text-anchor="middle" x="1726" y="-1624.5" font-family="Helvetica,sans-Serif" font-size="10.00">GACelestialObject</text>
</a>
</g>
</g>
<!-- Node10&#45;&gt;Node14 -->
<g id="edge13" class="edge">
<title>Node10&#45;&gt;Node14</title>
<path fill="none" stroke="midnightblue" d="M1450.12,-1363.46C1466.88,-1417.39 1514.17,-1544.96 1602,-1607.5 1607.41,-1611.35 1613.28,-1614.65 1619.42,-1617.45"/>
<polygon fill="midnightblue" stroke="midnightblue" points="1453.41,-1362.26 1447.17,-1353.7 1446.71,-1364.28 1453.41,-1362.26"/>
</g>
<!-- Node15 -->
<g id="node15" class="node">
<title>Node15</title>
<g id="a_node15"><a xlink:href="classcom_1_1fs_1_1starfarer_1_1api_1_1impl_1_1campaign_1_1missions_1_1academy_1_1GADataFromRuins.html" target="_top" xlink:title=" ">
<polygon fill="none" stroke="black" points="1602,-1568.5 1602,-1598.5 1850,-1598.5 1850,-1568.5 1602,-1568.5"/>
<text text-anchor="start" x="1610" y="-1586.5" font-family="Helvetica,sans-Serif" font-size="10.00">com.fs.starfarer.api.impl.campaign.missions.academy.</text>
<text text-anchor="middle" x="1726" y="-1575.5" font-family="Helvetica,sans-Serif" font-size="10.00">GADataFromRuins</text>
</a>
</g>
</g>
<!-- Node10&#45;&gt;Node15 -->
<g id="edge14" class="edge">
<title>Node10&#45;&gt;Node15</title>
<path fill="none" stroke="midnightblue" d="M1453.31,-1363.07C1474.09,-1409.35 1525.62,-1509.25 1602,-1558.5 1607.95,-1562.34 1614.37,-1565.6 1621.05,-1568.38"/>
<polygon fill="midnightblue" stroke="midnightblue" points="1456.46,-1361.53 1449.24,-1353.78 1450.05,-1364.35 1456.46,-1361.53"/>
</g>
<!-- Node16 -->
<g id="node16" class="node">
<title>Node16</title>
<g id="a_node16"><a xlink:href="classcom_1_1fs_1_1starfarer_1_1api_1_1impl_1_1campaign_1_1missions_1_1academy_1_1GADeliverVIP.html" target="_top" xlink:title=" ">
<polygon fill="none" stroke="black" points="1602,-1519.5 1602,-1549.5 1850,-1549.5 1850,-1519.5 1602,-1519.5"/>
<text text-anchor="start" x="1610" y="-1537.5" font-family="Helvetica,sans-Serif" font-size="10.00">com.fs.starfarer.api.impl.campaign.missions.academy.</text>
<text text-anchor="middle" x="1726" y="-1526.5" font-family="Helvetica,sans-Serif" font-size="10.00">GADeliverVIP</text>
</a>
</g>
</g>
<!-- Node10&#45;&gt;Node16 -->
<g id="edge15" class="edge">
<title>Node10&#45;&gt;Node16</title>
<path fill="none" stroke="midnightblue" d="M1458.07,-1362.58C1483.05,-1400.34 1536.81,-1472.94 1602,-1509.5 1608.94,-1513.39 1616.4,-1516.68 1624.09,-1519.46"/>
<polygon fill="midnightblue" stroke="midnightblue" points="1460.73,-1360.25 1452.35,-1353.77 1454.86,-1364.07 1460.73,-1360.25"/>
</g>
<!-- Node17 -->
<g id="node17" class="node">
<title>Node17</title>
<g id="a_node17"><a xlink:href="classcom_1_1fs_1_1starfarer_1_1api_1_1impl_1_1campaign_1_1missions_1_1academy_1_1GADerelictArtifact.html" target="_top" xlink:title=" ">
<polygon fill="none" stroke="black" points="1602,-1470.5 1602,-1500.5 1850,-1500.5 1850,-1470.5 1602,-1470.5"/>
<text text-anchor="start" x="1610" y="-1488.5" font-family="Helvetica,sans-Serif" font-size="10.00">com.fs.starfarer.api.impl.campaign.missions.academy.</text>
<text text-anchor="middle" x="1726" y="-1477.5" font-family="Helvetica,sans-Serif" font-size="10.00">GADerelictArtifact</text>
</a>
</g>
</g>
<!-- Node10&#45;&gt;Node17 -->
<g id="edge16" class="edge">
<title>Node10&#45;&gt;Node17</title>
<path fill="none" stroke="midnightblue" d="M1465.15,-1360.9C1494.02,-1388.73 1547.3,-1435.58 1602,-1460.5 1610.53,-1464.38 1619.66,-1467.67 1628.95,-1470.45"/>
<polygon fill="midnightblue" stroke="midnightblue" points="1467.27,-1358.08 1457.68,-1353.59 1462.38,-1363.09 1467.27,-1358.08"/>
</g>
<!-- Node18 -->
<g id="node18" class="node">
<title>Node18</title>
<g id="a_node18"><a xlink:href="classcom_1_1fs_1_1starfarer_1_1api_1_1impl_1_1campaign_1_1missions_1_1academy_1_1GAFindingCoureuse.html" target="_top" xlink:title=" ">
<polygon fill="none" stroke="black" points="1602,-1421.5 1602,-1451.5 1850,-1451.5 1850,-1421.5 1602,-1421.5"/>
<text text-anchor="start" x="1610" y="-1439.5" font-family="Helvetica,sans-Serif" font-size="10.00">com.fs.starfarer.api.impl.campaign.missions.academy.</text>
<text text-anchor="middle" x="1726" y="-1428.5" font-family="Helvetica,sans-Serif" font-size="10.00">GAFindingCoureuse</text>
</a>
</g>
</g>
<!-- Node10&#45;&gt;Node18 -->
<g id="edge17" class="edge">
<title>Node10&#45;&gt;Node18</title>
<path fill="none" stroke="midnightblue" d="M1479.53,-1358.21C1511.15,-1374.54 1558.5,-1397.3 1602,-1411.5 1613.6,-1415.29 1626.01,-1418.61 1638.32,-1421.5"/>
<polygon fill="midnightblue" stroke="midnightblue" points="1481.13,-1355.09 1470.65,-1353.57 1477.89,-1361.3 1481.13,-1355.09"/>
</g>
<!-- Node19 -->
<g id="node19" class="node">
<title>Node19</title>
<g id="a_node19"><a xlink:href="classcom_1_1fs_1_1starfarer_1_1api_1_1impl_1_1campaign_1_1missions_1_1academy_1_1GAIntro.html" target="_top" xlink:title=" ">
<polygon fill="none" stroke="black" points="1602,-1372.5 1602,-1402.5 1850,-1402.5 1850,-1372.5 1602,-1372.5"/>
<text text-anchor="start" x="1610" y="-1390.5" font-family="Helvetica,sans-Serif" font-size="10.00">com.fs.starfarer.api.impl.campaign.missions.academy.</text>
<text text-anchor="middle" x="1726" y="-1379.5" font-family="Helvetica,sans-Serif" font-size="10.00">GAIntro</text>
</a>
</g>
</g>
<!-- Node10&#45;&gt;Node19 -->
<g id="edge18" class="edge">
<title>Node10&#45;&gt;Node19</title>
<path fill="none" stroke="midnightblue" d="M1539.4,-1355.25C1571.6,-1360.84 1607.25,-1367.04 1638.64,-1372.49"/>
<polygon fill="midnightblue" stroke="midnightblue" points="1539.98,-1351.8 1529.53,-1353.53 1538.78,-1358.69 1539.98,-1351.8"/>
</g>
<!-- Node20 -->
<g id="node20" class="node">
<title>Node20</title>
<g id="a_node20"><a xlink:href="classcom_1_1fs_1_1starfarer_1_1api_1_1impl_1_1campaign_1_1missions_1_1academy_1_1GAKallichore.html" target="_top" xlink:title=" ">
<polygon fill="none" stroke="black" points="1602,-1323.5 1602,-1353.5 1850,-1353.5 1850,-1323.5 1602,-1323.5"/>
<text text-anchor="start" x="1610" y="-1341.5" font-family="Helvetica,sans-Serif" font-size="10.00">com.fs.starfarer.api.impl.campaign.missions.academy.</text>
<text text-anchor="middle" x="1726" y="-1330.5" font-family="Helvetica,sans-Serif" font-size="10.00">GAKallichore</text>
</a>
</g>
</g>
<!-- Node10&#45;&gt;Node20 -->
<g id="edge19" class="edge">
<title>Node10&#45;&gt;Node20</title>
<path fill="none" stroke="midnightblue" d="M1576.47,-1338.5C1584.84,-1338.5 1593.25,-1338.5 1601.57,-1338.5"/>
<polygon fill="midnightblue" stroke="midnightblue" points="1576.28,-1335 1566.28,-1338.5 1576.28,-1342 1576.28,-1335"/>
</g>
<!-- Node21 -->
<g id="node21" class="node">
<title>Node21</title>
<g id="a_node21"><a xlink:href="classcom_1_1fs_1_1starfarer_1_1api_1_1impl_1_1campaign_1_1missions_1_1academy_1_1GAOutpost.html" target="_top" xlink:title=" ">
<polygon fill="none" stroke="black" points="1602,-1274.5 1602,-1304.5 1850,-1304.5 1850,-1274.5 1602,-1274.5"/>
<text text-anchor="start" x="1610" y="-1292.5" font-family="Helvetica,sans-Serif" font-size="10.00">com.fs.starfarer.api.impl.campaign.missions.academy.</text>
<text text-anchor="middle" x="1726" y="-1281.5" font-family="Helvetica,sans-Serif" font-size="10.00">GAOutpost</text>
</a>
</g>
</g>
<!-- Node10&#45;&gt;Node21 -->
<g id="edge20" class="edge">
<title>Node10&#45;&gt;Node21</title>
<path fill="none" stroke="midnightblue" d="M1539.4,-1321.75C1571.6,-1316.16 1607.25,-1309.96 1638.64,-1304.51"/>
<polygon fill="midnightblue" stroke="midnightblue" points="1538.78,-1318.31 1529.53,-1323.47 1539.98,-1325.2 1538.78,-1318.31"/>
</g>
<!-- Node22 -->
<g id="node22" class="node">
<title>Node22</title>
<g id="a_node22"><a xlink:href="classcom_1_1fs_1_1starfarer_1_1api_1_1impl_1_1campaign_1_1missions_1_1academy_1_1GAProbePackage.html" target="_top" xlink:title=" ">
<polygon fill="none" stroke="black" points="1602,-1225.5 1602,-1255.5 1850,-1255.5 1850,-1225.5 1602,-1225.5"/>
<text text-anchor="start" x="1610" y="-1243.5" font-family="Helvetica,sans-Serif" font-size="10.00">com.fs.starfarer.api.impl.campaign.missions.academy.</text>
<text text-anchor="middle" x="1726" y="-1232.5" font-family="Helvetica,sans-Serif" font-size="10.00">GAProbePackage</text>
</a>
</g>
</g>
<!-- Node10&#45;&gt;Node22 -->
<g id="edge21" class="edge">
<title>Node10&#45;&gt;Node22</title>
<path fill="none" stroke="midnightblue" d="M1478.9,-1318.71C1510.47,-1302.07 1558.12,-1278.76 1602,-1264.5 1612.45,-1261.1 1623.56,-1258.12 1634.67,-1255.5"/>
<polygon fill="midnightblue" stroke="midnightblue" points="1477.22,-1315.64 1470.03,-1323.43 1480.51,-1321.82 1477.22,-1315.64"/>
</g>
<!-- Node23 -->
<g id="node23" class="node">
<title>Node23</title>
<g id="a_node23"><a xlink:href="classcom_1_1fs_1_1starfarer_1_1api_1_1impl_1_1campaign_1_1missions_1_1academy_1_1GAProjectZiggurat.html" target="_top" xlink:title=" ">
<polygon fill="none" stroke="black" points="1602,-1176.5 1602,-1206.5 1850,-1206.5 1850,-1176.5 1602,-1176.5"/>
<text text-anchor="start" x="1610" y="-1194.5" font-family="Helvetica,sans-Serif" font-size="10.00">com.fs.starfarer.api.impl.campaign.missions.academy.</text>
<text text-anchor="middle" x="1726" y="-1183.5" font-family="Helvetica,sans-Serif" font-size="10.00">GAProjectZiggurat</text>
</a>
</g>
</g>
<!-- Node10&#45;&gt;Node23 -->
<g id="edge22" class="edge">
<title>Node10&#45;&gt;Node23</title>
<path fill="none" stroke="midnightblue" d="M1465.08,-1315.84C1493.88,-1287.7 1547.09,-1240.39 1602,-1215.5 1609.63,-1212.04 1617.75,-1209.08 1626.03,-1206.55"/>
<polygon fill="midnightblue" stroke="midnightblue" points="1462.26,-1313.7 1457.63,-1323.23 1467.19,-1318.67 1462.26,-1313.7"/>
</g>
<!-- Node24 -->
<g id="node24" class="node">
<title>Node24</title>
<g id="a_node24"><a xlink:href="classcom_1_1fs_1_1starfarer_1_1api_1_1impl_1_1campaign_1_1missions_1_1academy_1_1GARansomResearcher.html" target="_top" xlink:title=" ">
<polygon fill="none" stroke="black" points="1602,-1127.5 1602,-1157.5 1850,-1157.5 1850,-1127.5 1602,-1127.5"/>
<text text-anchor="start" x="1610" y="-1145.5" font-family="Helvetica,sans-Serif" font-size="10.00">com.fs.starfarer.api.impl.campaign.missions.academy.</text>
<text text-anchor="middle" x="1726" y="-1134.5" font-family="Helvetica,sans-Serif" font-size="10.00">GARansomResearcher</text>
</a>
</g>
</g>
<!-- Node10&#45;&gt;Node24 -->
<g id="edge23" class="edge">
<title>Node10&#45;&gt;Node24</title>
<path fill="none" stroke="midnightblue" d="M1457.81,-1314.5C1482.61,-1276.52 1536.35,-1203.11 1602,-1166.5 1608.18,-1163.06 1614.77,-1160.1 1621.57,-1157.56"/>
<polygon fill="midnightblue" stroke="midnightblue" points="1454.59,-1313.04 1452.14,-1323.35 1460.48,-1316.82 1454.59,-1313.04"/>
</g>
<!-- Node25 -->
<g id="node25" class="node">
<title>Node25</title>
<g id="a_node25"><a xlink:href="classcom_1_1fs_1_1starfarer_1_1api_1_1impl_1_1campaign_1_1missions_1_1academy_1_1GAReturnHamatsu.html" target="_top" xlink:title=" ">
<polygon fill="none" stroke="black" points="1602,-1078.5 1602,-1108.5 1850,-1108.5 1850,-1078.5 1602,-1078.5"/>
<text text-anchor="start" x="1610" y="-1096.5" font-family="Helvetica,sans-Serif" font-size="10.00">com.fs.starfarer.api.impl.campaign.missions.academy.</text>
<text text-anchor="middle" x="1726" y="-1085.5" font-family="Helvetica,sans-Serif" font-size="10.00">GAReturnHamatsu</text>
</a>
</g>
</g>
<!-- Node10&#45;&gt;Node25 -->
<g id="edge24" class="edge">
<title>Node10&#45;&gt;Node25</title>
<path fill="none" stroke="midnightblue" d="M1453.09,-1314.11C1473.66,-1267.67 1525.07,-1166.8 1602,-1117.5 1607.31,-1114.1 1613,-1111.15 1618.91,-1108.62"/>
<polygon fill="midnightblue" stroke="midnightblue" points="1449.83,-1312.84 1449.07,-1323.41 1456.25,-1315.62 1449.83,-1312.84"/>
</g>
<!-- Node26 -->
<g id="node26" class="node">
<title>Node26</title>
<g id="a_node26"><a xlink:href="classcom_1_1fs_1_1starfarer_1_1api_1_1impl_1_1campaign_1_1missions_1_1academy_1_1GATalkToBaird.html" target="_top" xlink:title=" ">
<polygon fill="none" stroke="black" points="1602,-1029.5 1602,-1059.5 1850,-1059.5 1850,-1029.5 1602,-1029.5"/>
<text text-anchor="start" x="1610" y="-1047.5" font-family="Helvetica,sans-Serif" font-size="10.00">com.fs.starfarer.api.impl.campaign.missions.academy.</text>
<text text-anchor="middle" x="1726" y="-1036.5" font-family="Helvetica,sans-Serif" font-size="10.00">GATalkToBaird</text>
</a>
</g>
</g>
<!-- Node10&#45;&gt;Node26 -->
<g id="edge25" class="edge">
<title>Node10&#45;&gt;Node26</title>
<path fill="none" stroke="midnightblue" d="M1450.06,-1313.4C1466.68,-1259.17 1513.73,-1130.94 1602,-1068.5 1606.8,-1065.11 1611.95,-1062.16 1617.33,-1059.61"/>
<polygon fill="midnightblue" stroke="midnightblue" points="1446.63,-1312.63 1447.13,-1323.22 1453.34,-1314.63 1446.63,-1312.63"/>
</g>
<!-- Node27 -->
<g id="node27" class="node">
<title>Node27</title>
<g id="a_node27"><a xlink:href="classcom_1_1fs_1_1starfarer_1_1api_1_1impl_1_1campaign_1_1missions_1_1academy_1_1GATalkToSebestyen.html" target="_top" xlink:title=" ">
<polygon fill="none" stroke="black" points="1602,-980.5 1602,-1010.5 1850,-1010.5 1850,-980.5 1602,-980.5"/>
<text text-anchor="start" x="1610" y="-998.5" font-family="Helvetica,sans-Serif" font-size="10.00">com.fs.starfarer.api.impl.campaign.missions.academy.</text>
<text text-anchor="middle" x="1726" y="-987.5" font-family="Helvetica,sans-Serif" font-size="10.00">GATalkToSebestyen</text>
</a>
</g>
</g>
<!-- Node10&#45;&gt;Node27 -->
<g id="edge26" class="edge">
<title>Node10&#45;&gt;Node27</title>
<path fill="none" stroke="midnightblue" d="M1447.63,-1313.61C1460.32,-1252.77 1501.66,-1095.86 1602,-1019.5 1606.5,-1016.07 1611.36,-1013.1 1616.45,-1010.51"/>
<polygon fill="midnightblue" stroke="midnightblue" points="1444.18,-1313.01 1445.64,-1323.5 1451.04,-1314.38 1444.18,-1313.01"/>
</g>
<!-- Node28 -->
<g id="node28" class="node">
<title>Node28</title>
<g id="a_node28"><a xlink:href="classcom_1_1fs_1_1starfarer_1_1api_1_1impl_1_1campaign_1_1missions_1_1academy_1_1GATransverseJump.html" target="_top" xlink:title=" ">
<polygon fill="none" stroke="black" points="1602,-931.5 1602,-961.5 1850,-961.5 1850,-931.5 1602,-931.5"/>
<text text-anchor="start" x="1610" y="-949.5" font-family="Helvetica,sans-Serif" font-size="10.00">com.fs.starfarer.api.impl.campaign.missions.academy.</text>
<text text-anchor="middle" x="1726" y="-938.5" font-family="Helvetica,sans-Serif" font-size="10.00">GATransverseJump</text>
</a>
</g>
</g>
<!-- Node10&#45;&gt;Node28 -->
<g id="edge27" class="edge">
<title>Node10&#45;&gt;Node28</title>
<path fill="none" stroke="midnightblue" d="M1445.91,-1313.12C1455.09,-1245.65 1489.79,-1060.83 1602,-970.5 1606.24,-967.09 1610.82,-964.12 1615.64,-961.53"/>
<polygon fill="midnightblue" stroke="midnightblue" points="1442.41,-1312.9 1444.61,-1323.26 1449.36,-1313.79 1442.41,-1312.9"/>
</g>
<!-- Node30 -->
<g id="node30" class="node">
<title>Node30</title>
<g id="a_node30"><a xlink:href="classcom_1_1fs_1_1starfarer_1_1api_1_1impl_1_1campaign_1_1missions_1_1BaseDisruptIndustry.html" target="_top" xlink:title=" ">
<polygon fill="none" stroke="red" points="1622.5,-882.5 1622.5,-912.5 1829.5,-912.5 1829.5,-882.5 1622.5,-882.5"/>
<text text-anchor="start" x="1630.5" y="-900.5" font-family="Helvetica,sans-Serif" font-size="10.00">com.fs.starfarer.api.impl.campaign.missions.</text>
<text text-anchor="middle" x="1726" y="-889.5" font-family="Helvetica,sans-Serif" font-size="10.00">BaseDisruptIndustry</text>
</a>
</g>
</g>
<!-- Node29&#45;&gt;Node30 -->
<g id="edge29" class="edge">
<title>Node29&#45;&gt;Node30</title>
<path fill="none" stroke="midnightblue" d="M1445.26,-506.96C1452.94,-577.21 1484.49,-775.01 1602,-872.5 1608.12,-877.58 1615,-881.72 1622.29,-885.08"/>
<polygon fill="midnightblue" stroke="midnightblue" points="1448.72,-506.41 1444.23,-496.82 1441.76,-507.12 1448.72,-506.41"/>
</g>
<!-- Node33 -->
<g id="node32" class="node">
<title>Node33</title>
<g id="a_node32"><a xlink:href="classcom_1_1fs_1_1starfarer_1_1api_1_1impl_1_1campaign_1_1missions_1_1BlueprintIntel.html" target="_top" xlink:title=" ">
<polygon fill="none" stroke="black" points="1622.5,-833.5 1622.5,-863.5 1829.5,-863.5 1829.5,-833.5 1622.5,-833.5"/>
<text text-anchor="start" x="1630.5" y="-851.5" font-family="Helvetica,sans-Serif" font-size="10.00">com.fs.starfarer.api.impl.campaign.missions.</text>
<text text-anchor="middle" x="1726" y="-840.5" font-family="Helvetica,sans-Serif" font-size="10.00">BlueprintIntel</text>
</a>
</g>
</g>
<!-- Node29&#45;&gt;Node33 -->
<g id="edge31" class="edge">
<title>Node29&#45;&gt;Node33</title>
<path fill="none" stroke="midnightblue" d="M1446.85,-506.79C1458.01,-570.84 1496.56,-740.29 1602,-823.5 1608.16,-828.36 1615.02,-832.35 1622.26,-835.61"/>
<polygon fill="midnightblue" stroke="midnightblue" points="1450.28,-506.05 1445.18,-496.77 1443.37,-507.2 1450.28,-506.05"/>
</g>
<!-- Node34 -->
<g id="node33" class="node">
<title>Node34</title>
<g id="a_node33"><a xlink:href="classcom_1_1fs_1_1starfarer_1_1api_1_1impl_1_1campaign_1_1missions_1_1CheapCommodityMission.html" target="_top" xlink:title=" ">
<polygon fill="none" stroke="black" points="1622.5,-784.5 1622.5,-814.5 1829.5,-814.5 1829.5,-784.5 1622.5,-784.5"/>
<text text-anchor="start" x="1630.5" y="-802.5" font-family="Helvetica,sans-Serif" font-size="10.00">com.fs.starfarer.api.impl.campaign.missions.</text>
<text text-anchor="middle" x="1726" y="-791.5" font-family="Helvetica,sans-Serif" font-size="10.00">CheapCommodityMission</text>
</a>
</g>
</g>
<!-- Node29&#45;&gt;Node34 -->
<g id="edge32" class="edge">
<title>Node29&#45;&gt;Node34</title>
<path fill="none" stroke="midnightblue" d="M1448.91,-506.64C1463.78,-564.08 1508.47,-705.29 1602,-774.5 1608.22,-779.1 1615.08,-782.91 1622.28,-786.05"/>
<polygon fill="midnightblue" stroke="midnightblue" points="1452.22,-505.47 1446.4,-496.62 1445.43,-507.17 1452.22,-505.47"/>
</g>
<!-- Node35 -->
<g id="node34" class="node">
<title>Node35</title>
<g id="a_node34"><a xlink:href="classcom_1_1fs_1_1starfarer_1_1api_1_1impl_1_1campaign_1_1missions_1_1CommodityProductionMission.html" target="_top" xlink:title=" ">
<polygon fill="none" stroke="black" points="1622.5,-735.5 1622.5,-765.5 1829.5,-765.5 1829.5,-735.5 1622.5,-735.5"/>
<text text-anchor="start" x="1630.5" y="-753.5" font-family="Helvetica,sans-Serif" font-size="10.00">com.fs.starfarer.api.impl.campaign.missions.</text>
<text text-anchor="middle" x="1726" y="-742.5" font-family="Helvetica,sans-Serif" font-size="10.00">CommodityProductionMission</text>
</a>
</g>
</g>
<!-- Node29&#45;&gt;Node35 -->
<g id="edge33" class="edge">
<title>Node29&#45;&gt;Node35</title>
<path fill="none" stroke="midnightblue" d="M1451.59,-506.21C1470.35,-556.3 1520.01,-669.78 1602,-725.5 1608.31,-729.79 1615.19,-733.37 1622.37,-736.36"/>
<polygon fill="midnightblue" stroke="midnightblue" points="1454.77,-504.72 1448.05,-496.52 1448.19,-507.12 1454.77,-504.72"/>
</g>
<!-- Node36 -->
<g id="node35" class="node">
<title>Node36</title>
<g id="a_node35"><a xlink:href="classcom_1_1fs_1_1starfarer_1_1api_1_1impl_1_1campaign_1_1missions_1_1CustomProductionContract.html" target="_top" xlink:title=" ">
<polygon fill="none" stroke="black" points="1622.5,-686.5 1622.5,-716.5 1829.5,-716.5 1829.5,-686.5 1622.5,-686.5"/>
<text text-anchor="start" x="1630.5" y="-704.5" font-family="Helvetica,sans-Serif" font-size="10.00">com.fs.starfarer.api.impl.campaign.missions.</text>
<text text-anchor="middle" x="1726" y="-693.5" font-family="Helvetica,sans-Serif" font-size="10.00">CustomProductionContract</text>
</a>
</g>
</g>
<!-- Node29&#45;&gt;Node36 -->
<g id="edge34" class="edge">
<title>Node29&#45;&gt;Node36</title>
<path fill="none" stroke="midnightblue" d="M1455.36,-505.63C1478.21,-547.63 1531.25,-633.74 1602,-676.5 1608.43,-680.39 1615.37,-683.68 1622.55,-686.47"/>
<polygon fill="midnightblue" stroke="midnightblue" points="1458.37,-503.84 1450.58,-496.66 1452.19,-507.13 1458.37,-503.84"/>
</g>
<!-- Node37 -->
<g id="node36" class="node">
<title>Node37</title>
<g id="a_node36"><a xlink:href="classcom_1_1fs_1_1starfarer_1_1api_1_1impl_1_1campaign_1_1missions_1_1DeadDropMission.html" target="_top" xlink:title=" ">
<polygon fill="none" stroke="black" points="1622.5,-637.5 1622.5,-667.5 1829.5,-667.5 1829.5,-637.5 1622.5,-637.5"/>
<text text-anchor="start" x="1630.5" y="-655.5" font-family="Helvetica,sans-Serif" font-size="10.00">com.fs.starfarer.api.impl.campaign.missions.</text>
<text text-anchor="middle" x="1726" y="-644.5" font-family="Helvetica,sans-Serif" font-size="10.00">DeadDropMission</text>
</a>
</g>
</g>
<!-- Node29&#45;&gt;Node37 -->
<g id="edge35" class="edge">
<title>Node29&#45;&gt;Node37</title>
<path fill="none" stroke="midnightblue" d="M1461.28,-504.91C1488.31,-537.78 1542.24,-597.02 1602,-627.5 1609.67,-631.41 1617.9,-634.71 1626.33,-637.49"/>
<polygon fill="midnightblue" stroke="midnightblue" points="1463.7,-502.34 1454.69,-496.76 1458.26,-506.74 1463.7,-502.34"/>
</g>
<!-- Node38 -->
<g id="node37" class="node">
<title>Node38</title>
<g id="a_node37"><a xlink:href="classcom_1_1fs_1_1starfarer_1_1api_1_1impl_1_1campaign_1_1missions_1_1DisruptCompetitorMission.html" target="_top" xlink:title=" ">
<polygon fill="none" stroke="black" points="1622.5,-588.5 1622.5,-618.5 1829.5,-618.5 1829.5,-588.5 1622.5,-588.5"/>
<text text-anchor="start" x="1630.5" y="-606.5" font-family="Helvetica,sans-Serif" font-size="10.00">com.fs.starfarer.api.impl.campaign.missions.</text>
<text text-anchor="middle" x="1726" y="-595.5" font-family="Helvetica,sans-Serif" font-size="10.00">DisruptCompetitorMission</text>
</a>
</g>
</g>
<!-- Node29&#45;&gt;Node38 -->
<g id="edge36" class="edge">
<title>Node29&#45;&gt;Node38</title>
<path fill="none" stroke="midnightblue" d="M1471.33,-503.01C1501.95,-525.21 1552.96,-559.25 1602,-578.5 1611.84,-582.36 1622.36,-585.66 1632.96,-588.47"/>
<polygon fill="midnightblue" stroke="midnightblue" points="1473.01,-499.9 1462.88,-496.81 1468.87,-505.55 1473.01,-499.9"/>
</g>
<!-- Node39 -->
<g id="node38" class="node">
<title>Node39</title>
<g id="a_node38"><a xlink:href="classcom_1_1fs_1_1starfarer_1_1api_1_1impl_1_1campaign_1_1missions_1_1ExtractionMission.html" target="_top" xlink:title=" ">
<polygon fill="none" stroke="black" points="1622.5,-539.5 1622.5,-569.5 1829.5,-569.5 1829.5,-539.5 1622.5,-539.5"/>
<text text-anchor="start" x="1630.5" y="-557.5" font-family="Helvetica,sans-Serif" font-size="10.00">com.fs.starfarer.api.impl.campaign.missions.</text>
<text text-anchor="middle" x="1726" y="-546.5" font-family="Helvetica,sans-Serif" font-size="10.00">ExtractionMission</text>
</a>
</g>
</g>
<!-- Node29&#45;&gt;Node39 -->
<g id="edge37" class="edge">
<title>Node29&#45;&gt;Node39</title>
<path fill="none" stroke="midnightblue" d="M1498.52,-499.64C1528.9,-509.21 1567.31,-520.76 1602,-529.5 1615.95,-533.01 1630.88,-536.38 1645.36,-539.44"/>
<polygon fill="midnightblue" stroke="midnightblue" points="1499.54,-496.29 1488.95,-496.61 1497.43,-502.96 1499.54,-496.29"/>
</g>
<!-- Node40 -->
<g id="node39" class="node">
<title>Node40</title>
<g id="a_node39"><a xlink:href="classcom_1_1fs_1_1starfarer_1_1api_1_1impl_1_1campaign_1_1missions_1_1HandMeDownFreighter.html" target="_top" xlink:title=" ">
<polygon fill="none" stroke="black" points="1622.5,-490.5 1622.5,-520.5 1829.5,-520.5 1829.5,-490.5 1622.5,-490.5"/>
<text text-anchor="start" x="1630.5" y="-508.5" font-family="Helvetica,sans-Serif" font-size="10.00">com.fs.starfarer.api.impl.campaign.missions.</text>
<text text-anchor="middle" x="1726" y="-497.5" font-family="Helvetica,sans-Serif" font-size="10.00">HandMeDownFreighter</text>
</a>
</g>
</g>
<!-- Node29&#45;&gt;Node40 -->
<g id="edge38" class="edge">
<title>Node29&#45;&gt;Node40</title>
<path fill="none" stroke="midnightblue" d="M1564.85,-491.87C1584.05,-493.5 1603.73,-495.18 1622.44,-496.77"/>
<polygon fill="midnightblue" stroke="midnightblue" points="1565.12,-488.38 1554.86,-491.02 1564.53,-495.36 1565.12,-488.38"/>
</g>
<!-- Node41 -->
<g id="node40" class="node">
<title>Node41</title>
<g id="a_node40"><a xlink:href="classcom_1_1fs_1_1starfarer_1_1api_1_1impl_1_1campaign_1_1missions_1_1HijackingMission.html" target="_top" xlink:title=" ">
<polygon fill="none" stroke="black" points="1622.5,-441.5 1622.5,-471.5 1829.5,-471.5 1829.5,-441.5 1622.5,-441.5"/>
<text text-anchor="start" x="1630.5" y="-459.5" font-family="Helvetica,sans-Serif" font-size="10.00">com.fs.starfarer.api.impl.campaign.missions.</text>
<text text-anchor="middle" x="1726" y="-448.5" font-family="Helvetica,sans-Serif" font-size="10.00">HijackingMission</text>
</a>
</g>
</g>
<!-- Node29&#45;&gt;Node41 -->
<g id="edge39" class="edge">
<title>Node29&#45;&gt;Node41</title>
<path fill="none" stroke="midnightblue" d="M1564.85,-470.7C1584.05,-469 1603.73,-467.25 1622.44,-465.59"/>
<polygon fill="midnightblue" stroke="midnightblue" points="1564.51,-467.21 1554.86,-471.58 1565.13,-474.19 1564.51,-467.21"/>
</g>
<!-- Node42 -->
<g id="node41" class="node">
<title>Node42</title>
<g id="a_node41"><a xlink:href="classcom_1_1fs_1_1starfarer_1_1api_1_1impl_1_1campaign_1_1missions_1_1JailbreakMission.html" target="_top" xlink:title=" ">
<polygon fill="none" stroke="black" points="1622.5,-392.5 1622.5,-422.5 1829.5,-422.5 1829.5,-392.5 1622.5,-392.5"/>
<text text-anchor="start" x="1630.5" y="-410.5" font-family="Helvetica,sans-Serif" font-size="10.00">com.fs.starfarer.api.impl.campaign.missions.</text>
<text text-anchor="middle" x="1726" y="-399.5" font-family="Helvetica,sans-Serif" font-size="10.00">JailbreakMission</text>
</a>
</g>
</g>
<!-- Node29&#45;&gt;Node42 -->
<g id="edge40" class="edge">
<title>Node29&#45;&gt;Node42</title>
<path fill="none" stroke="midnightblue" d="M1495.81,-463.26C1526.55,-453.05 1566.19,-440.59 1602,-431.5 1614.65,-428.29 1628.13,-425.26 1641.35,-422.51"/>
<polygon fill="midnightblue" stroke="midnightblue" points="1494.53,-460 1486.15,-466.49 1496.75,-466.64 1494.53,-460"/>
</g>
<!-- Node43 -->
<g id="node42" class="node">
<title>Node43</title>
<g id="a_node42"><a xlink:href="classcom_1_1fs_1_1starfarer_1_1api_1_1impl_1_1campaign_1_1missions_1_1PirateSystemBounty.html" target="_top" xlink:title=" ">
<polygon fill="none" stroke="black" points="1622.5,-343.5 1622.5,-373.5 1829.5,-373.5 1829.5,-343.5 1622.5,-343.5"/>
<text text-anchor="start" x="1630.5" y="-361.5" font-family="Helvetica,sans-Serif" font-size="10.00">com.fs.starfarer.api.impl.campaign.missions.</text>
<text text-anchor="middle" x="1726" y="-350.5" font-family="Helvetica,sans-Serif" font-size="10.00">PirateSystemBounty</text>
</a>
</g>
</g>
<!-- Node29&#45;&gt;Node43 -->
<g id="edge41" class="edge">
<title>Node29&#45;&gt;Node43</title>
<path fill="none" stroke="midnightblue" d="M1470.32,-460.12C1500.74,-437.39 1552.21,-402.09 1602,-382.5 1610.71,-379.08 1619.96,-376.12 1629.33,-373.58"/>
<polygon fill="midnightblue" stroke="midnightblue" points="1468.18,-457.35 1462.32,-466.17 1472.41,-462.93 1468.18,-457.35"/>
</g>
<!-- Node44 -->
<g id="node43" class="node">
<title>Node44</title>
<g id="a_node43"><a xlink:href="classcom_1_1fs_1_1starfarer_1_1api_1_1impl_1_1campaign_1_1missions_1_1ProcurementMission.html" target="_top" xlink:title=" ">
<polygon fill="none" stroke="black" points="1622.5,-294.5 1622.5,-324.5 1829.5,-324.5 1829.5,-294.5 1622.5,-294.5"/>
<text text-anchor="start" x="1630.5" y="-312.5" font-family="Helvetica,sans-Serif" font-size="10.00">com.fs.starfarer.api.impl.campaign.missions.</text>
<text text-anchor="middle" x="1726" y="-301.5" font-family="Helvetica,sans-Serif" font-size="10.00">ProcurementMission</text>
</a>
</g>
</g>
<!-- Node29&#45;&gt;Node44 -->
<g id="edge42" class="edge">
<title>Node29&#45;&gt;Node44</title>
<path fill="none" stroke="midnightblue" d="M1460.76,-458.22C1487.53,-424.91 1541.54,-364.3 1602,-333.5 1608.79,-330.04 1616.01,-327.08 1623.44,-324.55"/>
<polygon fill="midnightblue" stroke="midnightblue" points="1457.71,-456.43 1454.25,-466.45 1463.2,-460.77 1457.71,-456.43"/>
</g>
<!-- Node45 -->
<g id="node44" class="node">
<title>Node45</title>
<g id="a_node44"><a xlink:href="classcom_1_1fs_1_1starfarer_1_1api_1_1impl_1_1campaign_1_1missions_1_1SecurityCodes.html" target="_top" xlink:title=" ">
<polygon fill="none" stroke="black" points="1622.5,-245.5 1622.5,-275.5 1829.5,-275.5 1829.5,-245.5 1622.5,-245.5"/>
<text text-anchor="start" x="1630.5" y="-263.5" font-family="Helvetica,sans-Serif" font-size="10.00">com.fs.starfarer.api.impl.campaign.missions.</text>
<text text-anchor="middle" x="1726" y="-252.5" font-family="Helvetica,sans-Serif" font-size="10.00">SecurityCodes</text>
</a>
</g>
</g>
<!-- Node29&#45;&gt;Node45 -->
<g id="edge43" class="edge">
<title>Node29&#45;&gt;Node45</title>
<path fill="none" stroke="midnightblue" d="M1455.09,-457.38C1477.69,-414.98 1530.57,-327.53 1602,-284.5 1608.34,-280.68 1615.16,-277.46 1622.23,-274.73"/>
<polygon fill="midnightblue" stroke="midnightblue" points="1451.89,-455.94 1450.37,-466.42 1458.1,-459.18 1451.89,-455.94"/>
</g>
<!-- Node46 -->
<g id="node45" class="node">
<title>Node46</title>
<g id="a_node45"><a xlink:href="classcom_1_1fs_1_1starfarer_1_1api_1_1impl_1_1campaign_1_1missions_1_1SmugglingMission.html" target="_top" xlink:title=" ">
<polygon fill="none" stroke="black" points="1622.5,-196.5 1622.5,-226.5 1829.5,-226.5 1829.5,-196.5 1622.5,-196.5"/>
<text text-anchor="start" x="1630.5" y="-214.5" font-family="Helvetica,sans-Serif" font-size="10.00">com.fs.starfarer.api.impl.campaign.missions.</text>
<text text-anchor="middle" x="1726" y="-203.5" font-family="Helvetica,sans-Serif" font-size="10.00">SmugglingMission</text>
</a>
</g>
</g>
<!-- Node29&#45;&gt;Node46 -->
<g id="edge44" class="edge">
<title>Node29&#45;&gt;Node46</title>
<path fill="none" stroke="midnightblue" d="M1451.37,-456.86C1469.87,-406.43 1519.25,-291.49 1602,-235.5 1608.31,-231.23 1615.19,-227.68 1622.37,-224.74"/>
<polygon fill="midnightblue" stroke="midnightblue" points="1448.06,-455.73 1447.99,-466.32 1454.65,-458.08 1448.06,-455.73"/>
</g>
<!-- Node47 -->
<g id="node46" class="node">
<title>Node47</title>
<g id="a_node46"><a xlink:href="classcom_1_1fs_1_1starfarer_1_1api_1_1impl_1_1campaign_1_1missions_1_1SpySatDeployment.html" target="_top" xlink:title=" ">
<polygon fill="none" stroke="black" points="1622.5,-147.5 1622.5,-177.5 1829.5,-177.5 1829.5,-147.5 1622.5,-147.5"/>
<text text-anchor="start" x="1630.5" y="-165.5" font-family="Helvetica,sans-Serif" font-size="10.00">com.fs.starfarer.api.impl.campaign.missions.</text>
<text text-anchor="middle" x="1726" y="-154.5" font-family="Helvetica,sans-Serif" font-size="10.00">SpySatDeployment</text>
</a>
</g>
</g>
<!-- Node29&#45;&gt;Node47 -->
<g id="edge45" class="edge">
<title>Node29&#45;&gt;Node47</title>
<path fill="none" stroke="midnightblue" d="M1448.72,-456.5C1463.31,-398.8 1507.61,-255.99 1602,-186.5 1608.22,-181.92 1615.08,-178.15 1622.28,-175.05"/>
<polygon fill="midnightblue" stroke="midnightblue" points="1445.31,-455.7 1446.34,-466.24 1452.11,-457.36 1445.31,-455.7"/>
</g>
<!-- Node48 -->
<g id="node47" class="node">
<title>Node48</title>
<g id="a_node47"><a xlink:href="classcom_1_1fs_1_1starfarer_1_1api_1_1impl_1_1campaign_1_1missions_1_1SurplusShipHull.html" target="_top" xlink:title=" ">
<polygon fill="none" stroke="black" points="1622.5,-98.5 1622.5,-128.5 1829.5,-128.5 1829.5,-98.5 1622.5,-98.5"/>
<text text-anchor="start" x="1630.5" y="-116.5" font-family="Helvetica,sans-Serif" font-size="10.00">com.fs.starfarer.api.impl.campaign.missions.</text>
<text text-anchor="middle" x="1726" y="-105.5" font-family="Helvetica,sans-Serif" font-size="10.00">SurplusShipHull</text>
</a>
</g>
</g>
<!-- Node29&#45;&gt;Node48 -->
<g id="edge46" class="edge">
<title>Node29&#45;&gt;Node48</title>
<path fill="none" stroke="midnightblue" d="M1446.69,-456.46C1457.54,-392.27 1495.57,-221 1602,-137.5 1608.16,-132.67 1615.02,-128.72 1622.27,-125.5"/>
<polygon fill="midnightblue" stroke="midnightblue" points="1443.21,-456.06 1445.07,-466.49 1450.12,-457.18 1443.21,-456.06"/>
</g>
<!-- Node49 -->
<g id="node48" class="node">
<title>Node49</title>
<g id="a_node48"><a xlink:href="classcom_1_1fs_1_1starfarer_1_1api_1_1impl_1_1campaign_1_1missions_1_1TacticallyBombardColony.html" target="_top" xlink:title=" ">
<polygon fill="none" stroke="black" points="1622.5,-49.5 1622.5,-79.5 1829.5,-79.5 1829.5,-49.5 1622.5,-49.5"/>
<text text-anchor="start" x="1630.5" y="-67.5" font-family="Helvetica,sans-Serif" font-size="10.00">com.fs.starfarer.api.impl.campaign.missions.</text>
<text text-anchor="middle" x="1726" y="-56.5" font-family="Helvetica,sans-Serif" font-size="10.00">TacticallyBombardColony</text>
</a>
</g>
</g>
<!-- Node29&#45;&gt;Node49 -->
<g id="edge47" class="edge">
<title>Node29&#45;&gt;Node49</title>
<path fill="none" stroke="midnightblue" d="M1445.13,-456.35C1452.49,-386.05 1483.41,-186.28 1602,-88.5 1608.13,-83.45 1615.01,-79.35 1622.3,-76.03"/>
<polygon fill="midnightblue" stroke="midnightblue" points="1441.63,-456.19 1444.14,-466.48 1448.59,-456.87 1441.63,-456.19"/>
</g>
<!-- Node50 -->
<g id="node49" class="node">
<title>Node50</title>
<g id="a_node49"><a xlink:href="classcom_1_1fs_1_1starfarer_1_1api_1_1impl_1_1campaign_1_1missions_1_1cb_1_1BaseCustomBounty.html" target="_top" xlink:title=" ">
<polygon fill="none" stroke="red" points="1616,-0.5 1616,-30.5 1836,-30.5 1836,-0.5 1616,-0.5"/>
<text text-anchor="start" x="1624" y="-18.5" font-family="Helvetica,sans-Serif" font-size="10.00">com.fs.starfarer.api.impl.campaign.missions.cb.</text>
<text text-anchor="middle" x="1726" y="-7.5" font-family="Helvetica,sans-Serif" font-size="10.00">BaseCustomBounty</text>
</a>
</g>
</g>
<!-- Node29&#45;&gt;Node50 -->
<g id="edge48" class="edge">
<title>Node29&#45;&gt;Node50</title>
<path fill="none" stroke="midnightblue" d="M1443.87,-456.36C1447.94,-380.44 1471.04,-151.86 1602,-39.5 1606.29,-35.82 1610.98,-32.63 1615.94,-29.89"/>
<polygon fill="midnightblue" stroke="midnightblue" points="1440.37,-456.27 1443.4,-466.42 1447.36,-456.6 1440.37,-456.27"/>
</g>
<!-- Node31 -->
<g id="node31" class="node">
<title>Node31</title>
<g id="a_node31"><a xlink:href="classcom_1_1fs_1_1starfarer_1_1api_1_1impl_1_1campaign_1_1missions_1_1DisruptHeavyIndustry.html" target="_top" xlink:title=" ">
<polygon fill="none" stroke="black" points="1886,-882.5 1886,-912.5 2093,-912.5 2093,-882.5 1886,-882.5"/>
<text text-anchor="start" x="1894" y="-900.5" font-family="Helvetica,sans-Serif" font-size="10.00">com.fs.starfarer.api.impl.campaign.missions.</text>
<text text-anchor="middle" x="1989.5" y="-889.5" font-family="Helvetica,sans-Serif" font-size="10.00">DisruptHeavyIndustry</text>
</a>
</g>
</g>
<!-- Node30&#45;&gt;Node31 -->
<g id="edge30" class="edge">
<title>Node30&#45;&gt;Node31</title>
<path fill="none" stroke="midnightblue" d="M1839.62,-897.5C1854.95,-897.5 1870.62,-897.5 1885.77,-897.5"/>
<polygon fill="midnightblue" stroke="midnightblue" points="1839.6,-894 1829.6,-897.5 1839.6,-901 1839.6,-894"/>
</g>
</g>
</svg>
