<?xml version="1.0" encoding="UTF-8" standalone="no"?>
<!DOCTYPE svg PUBLIC "-//W3C//DTD SVG 1.1//EN"
 "http://www.w3.org/Graphics/SVG/1.1/DTD/svg11.dtd">
<!-- Generated by graphviz version 7.0.5 (20221223.1930)
 -->
<!-- Title: com.fs.starfarer.api.impl.campaign.skills.EnergyWeaponMastery.Level1 Pages: 1 -->
<svg width="817pt" height="141pt"
 viewBox="0.00 0.00 817.00 141.00" xmlns="http://www.w3.org/2000/svg" xmlns:xlink="http://www.w3.org/1999/xlink">
<g id="graph0" class="graph" transform="scale(1 1) rotate(0) translate(4 137)">
<title>com.fs.starfarer.api.impl.campaign.skills.EnergyWeaponMastery.Level1</title>
<!-- Node1 -->
<g id="node1" class="node">
<title>Node1</title>
<g id="a_node1"><a xlink:title=" ">
<polygon fill="#999999" stroke="#666666" points="809,-56 618,-56 618,-26 809,-26 809,-56"/>
<text text-anchor="start" x="626" y="-44" font-family="Helvetica,sans-Serif" font-size="10.00">com.fs.starfarer.api.impl.campaign.skills.</text>
<text text-anchor="middle" x="713.5" y="-33" font-family="Helvetica,sans-Serif" font-size="10.00">EnergyWeaponMastery.Level1</text>
</a>
</g>
</g>
<!-- Node2 -->
<g id="node2" class="node">
<title>Node2</title>
<g id="a_node2"><a xlink:href="classcom_1_1fs_1_1starfarer_1_1api_1_1impl_1_1campaign_1_1skills_1_1BaseSkillEffectDescription.html" target="_top" xlink:title=" ">
<polygon fill="white" stroke="#bfbfbf" points="581,-78 390,-78 390,-48 581,-48 581,-78"/>
<text text-anchor="start" x="398" y="-66" font-family="Helvetica,sans-Serif" font-size="10.00">com.fs.starfarer.api.impl.campaign.skills.</text>
<text text-anchor="middle" x="485.5" y="-55" font-family="Helvetica,sans-Serif" font-size="10.00">BaseSkillEffectDescription</text>
</a>
</g>
</g>
<!-- Node2&#45;&gt;Node1 -->
<g id="edge1" class="edge">
<title>Node2&#45;&gt;Node1</title>
<path fill="none" stroke="#63b8ff" d="M592.64,-52.67C600.94,-51.86 609.3,-51.05 617.52,-50.25"/>
<polygon fill="#63b8ff" stroke="#63b8ff" points="592.48,-49.17 582.87,-53.62 593.16,-56.13 592.48,-49.17"/>
</g>
<!-- Node3 -->
<g id="node3" class="node">
<title>Node3</title>
<g id="a_node3"><a xlink:href="interfacecom_1_1fs_1_1starfarer_1_1api_1_1characters_1_1CustomSkillDescription.html" target="_top" xlink:title=" ">
<polygon fill="white" stroke="#666666" points="335,-78 186,-78 186,-48 335,-48 335,-78"/>
<text text-anchor="start" x="194" y="-66" font-family="Helvetica,sans-Serif" font-size="10.00">com.fs.starfarer.api.characters.</text>
<text text-anchor="middle" x="260.5" y="-55" font-family="Helvetica,sans-Serif" font-size="10.00">CustomSkillDescription</text>
</a>
</g>
</g>
<!-- Node3&#45;&gt;Node2 -->
<g id="edge2" class="edge">
<title>Node3&#45;&gt;Node2</title>
<path fill="none" stroke="#63b8ff" d="M346.6,-63C360.7,-63 375.39,-63 389.7,-63"/>
<polygon fill="#63b8ff" stroke="#63b8ff" points="346.96,-59.5 336.96,-63 346.96,-66.5 346.96,-59.5"/>
</g>
<!-- Node4 -->
<g id="node4" class="node">
<title>Node4</title>
<g id="a_node4"><a xlink:href="interfacecom_1_1fs_1_1starfarer_1_1api_1_1characters_1_1LevelBasedEffect.html" target="_top" xlink:title=" ">
<polygon fill="white" stroke="#bfbfbf" points="149,-53 0,-53 0,-23 149,-23 149,-53"/>
<text text-anchor="start" x="8" y="-41" font-family="Helvetica,sans-Serif" font-size="10.00">com.fs.starfarer.api.characters.</text>
<text text-anchor="middle" x="74.5" y="-30" font-family="Helvetica,sans-Serif" font-size="10.00">LevelBasedEffect</text>
</a>
</g>
</g>
<!-- Node4&#45;&gt;Node3 -->
<g id="edge3" class="edge">
<title>Node4&#45;&gt;Node3</title>
<path fill="none" stroke="#63b8ff" d="M160.63,-49.57C169,-50.7 177.46,-51.85 185.7,-52.97"/>
<polygon fill="#63b8ff" stroke="#63b8ff" points="161.16,-46.11 150.78,-48.23 160.22,-53.04 161.16,-46.11"/>
</g>
<!-- Node7 -->
<g id="node7" class="node">
<title>Node7</title>
<g id="a_node7"><a xlink:href="interfacecom_1_1fs_1_1starfarer_1_1api_1_1characters_1_1ShipSkillEffect.html" target="_top" xlink:title=" ">
<polygon fill="white" stroke="#666666" points="335,-30 186,-30 186,0 335,0 335,-30"/>
<text text-anchor="start" x="194" y="-18" font-family="Helvetica,sans-Serif" font-size="10.00">com.fs.starfarer.api.characters.</text>
<text text-anchor="middle" x="260.5" y="-7" font-family="Helvetica,sans-Serif" font-size="10.00">ShipSkillEffect</text>
</a>
</g>
</g>
<!-- Node4&#45;&gt;Node7 -->
<g id="edge7" class="edge">
<title>Node4&#45;&gt;Node7</title>
<path fill="none" stroke="#63b8ff" d="M160.63,-27.36C169,-26.31 177.46,-25.26 185.7,-24.22"/>
<polygon fill="#63b8ff" stroke="#63b8ff" points="160.27,-23.88 150.78,-28.59 161.14,-30.82 160.27,-23.88"/>
</g>
<!-- Node5 -->
<g id="node5" class="node">
<title>Node5</title>
<g id="a_node5"><a xlink:title=" ">
<polygon fill="white" stroke="#bfbfbf" points="280,-115.5 241,-115.5 241,-96.5 280,-96.5 280,-115.5"/>
<text text-anchor="middle" x="260.5" y="-103.5" font-family="Helvetica,sans-Serif" font-size="10.00">Color</text>
</a>
</g>
</g>
<!-- Node5&#45;&gt;Node2 -->
<g id="edge4" class="edge">
<title>Node5&#45;&gt;Node2</title>
<path fill="none" stroke="#9a32cd" stroke-dasharray="5,2" d="M291.42,-100.23C320.21,-94.68 365.02,-86.04 404.23,-78.48"/>
<polygon fill="#9a32cd" stroke="#9a32cd" points="290.77,-96.79 281.62,-102.12 292.1,-103.66 290.77,-96.79"/>
<text text-anchor="middle" x="362.5" y="-125" font-family="Helvetica,sans-Serif" font-size="10.00"> dhc</text>
<text text-anchor="middle" x="362.5" y="-114" font-family="Helvetica,sans-Serif" font-size="10.00">dtc</text>
<text text-anchor="middle" x="362.5" y="-103" font-family="Helvetica,sans-Serif" font-size="10.00">hc</text>
<text text-anchor="middle" x="362.5" y="-92" font-family="Helvetica,sans-Serif" font-size="10.00">tc</text>
</g>
<!-- Node6 -->
<g id="node6" class="node">
<title>Node6</title>
<g id="a_node6"><a xlink:href="interfacecom_1_1fs_1_1starfarer_1_1api_1_1characters_1_1AfterShipCreationSkillEffect.html" target="_top" xlink:title=" ">
<polygon fill="white" stroke="#666666" points="560,-30 411,-30 411,0 560,0 560,-30"/>
<text text-anchor="start" x="419" y="-18" font-family="Helvetica,sans-Serif" font-size="10.00">com.fs.starfarer.api.characters.</text>
<text text-anchor="middle" x="485.5" y="-7" font-family="Helvetica,sans-Serif" font-size="10.00">AfterShipCreationSkillEffect</text>
</a>
</g>
</g>
<!-- Node6&#45;&gt;Node1 -->
<g id="edge5" class="edge">
<title>Node6&#45;&gt;Node1</title>
<path fill="none" stroke="#63b8ff" d="M571.59,-24.79C586.71,-26.53 602.54,-28.35 617.9,-30.12"/>
<polygon fill="#63b8ff" stroke="#63b8ff" points="572.03,-21.32 561.69,-23.65 571.23,-28.27 572.03,-21.32"/>
</g>
<!-- Node7&#45;&gt;Node6 -->
<g id="edge6" class="edge">
<title>Node7&#45;&gt;Node6</title>
<path fill="none" stroke="#63b8ff" d="M346.68,-15C367.79,-15 390.24,-15 410.75,-15"/>
<polygon fill="#63b8ff" stroke="#63b8ff" points="346.96,-11.5 336.96,-15 346.96,-18.5 346.96,-11.5"/>
</g>
</g>
</svg>
