<?xml version="1.0" encoding="UTF-8" standalone="no"?>
<!DOCTYPE svg PUBLIC "-//W3C//DTD SVG 1.1//EN"
 "http://www.w3.org/Graphics/SVG/1.1/DTD/svg11.dtd">
<!-- Generated by graphviz version 2.44.0 ()
 -->
<!-- Title: com.fs.starfarer.api.impl.campaign.procgen.ProcGenTestPluginImpl Pages: 1 -->
<svg width="942pt" height="421pt"
 viewBox="0.00 0.00 942.00 421.00" xmlns="http://www.w3.org/2000/svg" xmlns:xlink="http://www.w3.org/1999/xlink">
<g id="graph0" class="graph" transform="scale(1 1) rotate(0) translate(4 417)">
<title>com.fs.starfarer.api.impl.campaign.procgen.ProcGenTestPluginImpl</title>
<!-- Node1 -->
<g id="node1" class="node">
<title>Node1</title>
<g id="a_node1"><a xlink:title=" ">
<polygon fill="#bfbfbf" stroke="black" points="731,-191.5 731,-221.5 934,-221.5 934,-191.5 731,-191.5"/>
<text text-anchor="start" x="739" y="-209.5" font-family="Helvetica,sans-Serif" font-size="10.00">com.fs.starfarer.api.impl.campaign.procgen.</text>
<text text-anchor="middle" x="832.5" y="-198.5" font-family="Helvetica,sans-Serif" font-size="10.00">ProcGenTestPluginImpl</text>
</a>
</g>
</g>
<!-- Node2 -->
<g id="node2" class="node">
<title>Node2</title>
<g id="a_node2"><a xlink:href="interfacecom_1_1fs_1_1starfarer_1_1api_1_1campaign_1_1InteractionDialogPlugin.html" target="_top" xlink:title=" ">
<polygon fill="none" stroke="black" points="417.5,-382.5 417.5,-412.5 563.5,-412.5 563.5,-382.5 417.5,-382.5"/>
<text text-anchor="start" x="425.5" y="-400.5" font-family="Helvetica,sans-Serif" font-size="10.00">com.fs.starfarer.api.campaign.</text>
<text text-anchor="middle" x="490.5" y="-389.5" font-family="Helvetica,sans-Serif" font-size="10.00">InteractionDialogPlugin</text>
</a>
</g>
</g>
<!-- Node2&#45;&gt;Node1 -->
<g id="edge1" class="edge">
<title>Node2&#45;&gt;Node1</title>
<path fill="none" stroke="midnightblue" d="M573.77,-385.86C617.66,-376.86 671.1,-361.23 713,-334.5 761.25,-303.72 802.85,-248.62 821.31,-221.89"/>
<polygon fill="midnightblue" stroke="midnightblue" points="572.83,-382.48 563.7,-387.84 574.18,-389.34 572.83,-382.48"/>
</g>
<!-- Node3 -->
<g id="node3" class="node">
<title>Node3</title>
<g id="a_node3"><a xlink:href="interfacecom_1_1fs_1_1starfarer_1_1api_1_1campaign_1_1PlanetAPI.html" target="_top" xlink:title=" ">
<polygon fill="none" stroke="black" points="417.5,-284.5 417.5,-314.5 563.5,-314.5 563.5,-284.5 417.5,-284.5"/>
<text text-anchor="start" x="425.5" y="-302.5" font-family="Helvetica,sans-Serif" font-size="10.00">com.fs.starfarer.api.campaign.</text>
<text text-anchor="middle" x="490.5" y="-291.5" font-family="Helvetica,sans-Serif" font-size="10.00">PlanetAPI</text>
</a>
</g>
</g>
<!-- Node3&#45;&gt;Node1 -->
<g id="edge2" class="edge">
<title>Node3&#45;&gt;Node1</title>
<path fill="none" stroke="#9a32cd" stroke-dasharray="5,2" d="M573.57,-283.55C615.59,-274.74 667.38,-262.87 713,-249.5 740.41,-241.47 770.67,-230.45 793.75,-221.58"/>
<polygon fill="#9a32cd" stroke="#9a32cd" points="572.74,-280.15 563.66,-285.61 574.16,-287 572.74,-280.15"/>
<text text-anchor="middle" x="661.5" y="-278.5" font-family="Helvetica,sans-Serif" font-size="10.00"> planet</text>
</g>
<!-- Node4 -->
<g id="node4" class="node">
<title>Node4</title>
<g id="a_node4"><a xlink:href="interfacecom_1_1fs_1_1starfarer_1_1api_1_1campaign_1_1SectorEntityToken.html" target="_top" xlink:title=" ">
<polygon fill="none" stroke="black" points="206,-285.5 206,-315.5 352,-315.5 352,-285.5 206,-285.5"/>
<text text-anchor="start" x="214" y="-303.5" font-family="Helvetica,sans-Serif" font-size="10.00">com.fs.starfarer.api.campaign.</text>
<text text-anchor="middle" x="279" y="-292.5" font-family="Helvetica,sans-Serif" font-size="10.00">SectorEntityToken</text>
</a>
</g>
</g>
<!-- Node4&#45;&gt;Node3 -->
<g id="edge3" class="edge">
<title>Node4&#45;&gt;Node3</title>
<path fill="none" stroke="midnightblue" d="M362.1,-300.11C380.31,-300.02 399.49,-299.93 417.27,-299.84"/>
<polygon fill="midnightblue" stroke="midnightblue" points="362.08,-296.61 352.1,-300.16 362.11,-303.61 362.08,-296.61"/>
</g>
<!-- Node8 -->
<g id="node8" class="node">
<title>Node8</title>
<g id="a_node8"><a xlink:href="interfacecom_1_1fs_1_1starfarer_1_1api_1_1campaign_1_1CampaignFleetAPI.html" target="_top" xlink:title=" ">
<polygon fill="none" stroke="black" points="417.5,-333.5 417.5,-363.5 563.5,-363.5 563.5,-333.5 417.5,-333.5"/>
<text text-anchor="start" x="425.5" y="-351.5" font-family="Helvetica,sans-Serif" font-size="10.00">com.fs.starfarer.api.campaign.</text>
<text text-anchor="middle" x="490.5" y="-340.5" font-family="Helvetica,sans-Serif" font-size="10.00">CampaignFleetAPI</text>
</a>
</g>
</g>
<!-- Node4&#45;&gt;Node8 -->
<g id="edge8" class="edge">
<title>Node4&#45;&gt;Node8</title>
<path fill="none" stroke="midnightblue" d="M355.52,-317.8C377.94,-322.94 402.3,-328.52 424.02,-333.5"/>
<polygon fill="midnightblue" stroke="midnightblue" points="356.24,-314.38 345.71,-315.56 354.68,-321.2 356.24,-314.38"/>
</g>
<!-- Node5 -->
<g id="node5" class="node">
<title>Node5</title>
<g id="a_node5"><a xlink:href="interfacecom_1_1fs_1_1starfarer_1_1api_1_1campaign_1_1rules_1_1HasMemory.html" target="_top" xlink:title=" ">
<polygon fill="none" stroke="black" points="0,-285.5 0,-315.5 169,-315.5 169,-285.5 0,-285.5"/>
<text text-anchor="start" x="8" y="-303.5" font-family="Helvetica,sans-Serif" font-size="10.00">com.fs.starfarer.api.campaign.rules.</text>
<text text-anchor="middle" x="84.5" y="-292.5" font-family="Helvetica,sans-Serif" font-size="10.00">HasMemory</text>
</a>
</g>
</g>
<!-- Node5&#45;&gt;Node4 -->
<g id="edge4" class="edge">
<title>Node5&#45;&gt;Node4</title>
<path fill="none" stroke="midnightblue" d="M179.21,-300.5C188.2,-300.5 197.21,-300.5 205.95,-300.5"/>
<polygon fill="midnightblue" stroke="midnightblue" points="179.09,-297 169.09,-300.5 179.09,-304 179.09,-297"/>
</g>
<!-- Node6 -->
<g id="node6" class="node">
<title>Node6</title>
<g id="a_node6"><a xlink:href="enumcom_1_1fs_1_1starfarer_1_1api_1_1impl_1_1campaign_1_1procgen_1_1ProcGenTestPluginImpl_1_1OptionId.html" target="_top" xlink:title=" ">
<polygon fill="none" stroke="black" points="389,-235.5 389,-265.5 592,-265.5 592,-235.5 389,-235.5"/>
<text text-anchor="start" x="397" y="-253.5" font-family="Helvetica,sans-Serif" font-size="10.00">com.fs.starfarer.api.impl.campaign.procgen.</text>
<text text-anchor="middle" x="490.5" y="-242.5" font-family="Helvetica,sans-Serif" font-size="10.00">ProcGenTestPluginImpl.OptionId</text>
</a>
</g>
</g>
<!-- Node6&#45;&gt;Node1 -->
<g id="edge5" class="edge">
<title>Node6&#45;&gt;Node1</title>
<path fill="none" stroke="#9a32cd" stroke-dasharray="5,2" d="M602.25,-236.17C643.65,-230.81 690.4,-224.76 730.83,-219.53"/>
<polygon fill="#9a32cd" stroke="#9a32cd" points="601.6,-232.72 592.13,-237.48 602.5,-239.66 601.6,-232.72"/>
<text text-anchor="middle" x="661.5" y="-237.5" font-family="Helvetica,sans-Serif" font-size="10.00"> lastOptionMousedOver</text>
</g>
<!-- Node7 -->
<g id="node7" class="node">
<title>Node7</title>
<g id="a_node7"><a xlink:title=" ">
<polygon fill="none" stroke="#bfbfbf" points="471,-197 471,-216 510,-216 510,-197 471,-197"/>
<text text-anchor="middle" x="490.5" y="-204" font-family="Helvetica,sans-Serif" font-size="10.00">Color</text>
</a>
</g>
</g>
<!-- Node7&#45;&gt;Node1 -->
<g id="edge6" class="edge">
<title>Node7&#45;&gt;Node1</title>
<path fill="none" stroke="#9a32cd" stroke-dasharray="5,2" d="M520.41,-206.5C566.43,-206.5 658.52,-206.5 730.62,-206.5"/>
<polygon fill="#9a32cd" stroke="#9a32cd" points="520.26,-203 510.26,-206.5 520.26,-210 520.26,-203"/>
<text text-anchor="middle" x="661.5" y="-209.5" font-family="Helvetica,sans-Serif" font-size="10.00"> HIGHLIGHT_COLOR</text>
</g>
<!-- Node8&#45;&gt;Node1 -->
<g id="edge7" class="edge">
<title>Node8&#45;&gt;Node1</title>
<path fill="none" stroke="#9a32cd" stroke-dasharray="5,2" d="M566.05,-331.04C574.81,-328.89 583.61,-326.68 592,-324.5 646.07,-310.45 662.59,-314.56 713,-290.5 752.14,-271.82 792.18,-240.32 814.24,-221.66"/>
<polygon fill="#9a32cd" stroke="#9a32cd" points="565.08,-327.68 556.2,-333.45 566.74,-334.48 565.08,-327.68"/>
<text text-anchor="middle" x="661.5" y="-322.5" font-family="Helvetica,sans-Serif" font-size="10.00"> playerFleet</text>
</g>
<!-- Node9 -->
<g id="node9" class="node">
<title>Node9</title>
<g id="a_node9"><a xlink:href="interfacecom_1_1fs_1_1starfarer_1_1api_1_1campaign_1_1FleetOrStubAPI.html" target="_top" xlink:title=" ">
<polygon fill="none" stroke="black" points="206,-334.5 206,-364.5 352,-364.5 352,-334.5 206,-334.5"/>
<text text-anchor="start" x="214" y="-352.5" font-family="Helvetica,sans-Serif" font-size="10.00">com.fs.starfarer.api.campaign.</text>
<text text-anchor="middle" x="279" y="-341.5" font-family="Helvetica,sans-Serif" font-size="10.00">FleetOrStubAPI</text>
</a>
</g>
</g>
<!-- Node9&#45;&gt;Node8 -->
<g id="edge9" class="edge">
<title>Node9&#45;&gt;Node8</title>
<path fill="none" stroke="midnightblue" d="M362.1,-349.11C380.31,-349.02 399.49,-348.93 417.27,-348.84"/>
<polygon fill="midnightblue" stroke="midnightblue" points="362.08,-345.61 352.1,-349.16 362.11,-352.61 362.08,-345.61"/>
</g>
<!-- Node10 -->
<g id="node10" class="node">
<title>Node10</title>
<g id="a_node10"><a xlink:href="interfacecom_1_1fs_1_1starfarer_1_1api_1_1campaign_1_1OptionPanelAPI.html" target="_top" xlink:title=" ">
<polygon fill="none" stroke="black" points="417.5,-147.5 417.5,-177.5 563.5,-177.5 563.5,-147.5 417.5,-147.5"/>
<text text-anchor="start" x="425.5" y="-165.5" font-family="Helvetica,sans-Serif" font-size="10.00">com.fs.starfarer.api.campaign.</text>
<text text-anchor="middle" x="490.5" y="-154.5" font-family="Helvetica,sans-Serif" font-size="10.00">OptionPanelAPI</text>
</a>
</g>
</g>
<!-- Node10&#45;&gt;Node1 -->
<g id="edge10" class="edge">
<title>Node10&#45;&gt;Node1</title>
<path fill="none" stroke="#9a32cd" stroke-dasharray="5,2" d="M573.8,-173.15C621.05,-179.27 680.76,-186.99 730.8,-193.47"/>
<polygon fill="#9a32cd" stroke="#9a32cd" points="573.97,-169.64 563.61,-171.83 573.07,-176.59 573.97,-169.64"/>
<text text-anchor="middle" x="661.5" y="-193.5" font-family="Helvetica,sans-Serif" font-size="10.00"> options</text>
</g>
<!-- Node11 -->
<g id="node11" class="node">
<title>Node11</title>
<g id="a_node11"><a xlink:href="interfacecom_1_1fs_1_1starfarer_1_1api_1_1campaign_1_1TextPanelAPI.html" target="_top" xlink:title=" ">
<polygon fill="none" stroke="black" points="417.5,-98.5 417.5,-128.5 563.5,-128.5 563.5,-98.5 417.5,-98.5"/>
<text text-anchor="start" x="425.5" y="-116.5" font-family="Helvetica,sans-Serif" font-size="10.00">com.fs.starfarer.api.campaign.</text>
<text text-anchor="middle" x="490.5" y="-105.5" font-family="Helvetica,sans-Serif" font-size="10.00">TextPanelAPI</text>
</a>
</g>
</g>
<!-- Node11&#45;&gt;Node1 -->
<g id="edge11" class="edge">
<title>Node11&#45;&gt;Node1</title>
<path fill="none" stroke="#9a32cd" stroke-dasharray="5,2" d="M573.63,-128.86C615.66,-137.42 667.45,-149.07 713,-162.5 740.89,-170.72 771.66,-182.22 794.85,-191.4"/>
<polygon fill="#9a32cd" stroke="#9a32cd" points="574.21,-125.4 563.71,-126.86 572.82,-132.26 574.21,-125.4"/>
<text text-anchor="middle" x="661.5" y="-165.5" font-family="Helvetica,sans-Serif" font-size="10.00"> textPanel</text>
</g>
<!-- Node12 -->
<g id="node12" class="node">
<title>Node12</title>
<g id="a_node12"><a xlink:href="interfacecom_1_1fs_1_1starfarer_1_1api_1_1campaign_1_1InteractionDialogAPI.html" target="_top" xlink:title=" ">
<polygon fill="none" stroke="black" points="417.5,-49.5 417.5,-79.5 563.5,-79.5 563.5,-49.5 417.5,-49.5"/>
<text text-anchor="start" x="425.5" y="-67.5" font-family="Helvetica,sans-Serif" font-size="10.00">com.fs.starfarer.api.campaign.</text>
<text text-anchor="middle" x="490.5" y="-56.5" font-family="Helvetica,sans-Serif" font-size="10.00">InteractionDialogAPI</text>
</a>
</g>
</g>
<!-- Node12&#45;&gt;Node1 -->
<g id="edge12" class="edge">
<title>Node12&#45;&gt;Node1</title>
<path fill="none" stroke="#9a32cd" stroke-dasharray="5,2" d="M573.53,-77.93C616.42,-86.83 669.01,-100.77 713,-121.5 752.62,-140.17 792.81,-172.43 814.7,-191.38"/>
<polygon fill="#9a32cd" stroke="#9a32cd" points="574.18,-74.49 563.69,-75.94 572.8,-81.35 574.18,-74.49"/>
<text text-anchor="middle" x="661.5" y="-124.5" font-family="Helvetica,sans-Serif" font-size="10.00"> dialog</text>
</g>
<!-- Node13 -->
<g id="node13" class="node">
<title>Node13</title>
<g id="a_node13"><a xlink:href="interfacecom_1_1fs_1_1starfarer_1_1api_1_1campaign_1_1VisualPanelAPI.html" target="_top" xlink:title=" ">
<polygon fill="none" stroke="black" points="417.5,-0.5 417.5,-30.5 563.5,-30.5 563.5,-0.5 417.5,-0.5"/>
<text text-anchor="start" x="425.5" y="-18.5" font-family="Helvetica,sans-Serif" font-size="10.00">com.fs.starfarer.api.campaign.</text>
<text text-anchor="middle" x="490.5" y="-7.5" font-family="Helvetica,sans-Serif" font-size="10.00">VisualPanelAPI</text>
</a>
</g>
</g>
<!-- Node13&#45;&gt;Node1 -->
<g id="edge13" class="edge">
<title>Node13&#45;&gt;Node1</title>
<path fill="none" stroke="#9a32cd" stroke-dasharray="5,2" d="M573.67,-24.23C617.53,-31.75 670.98,-45.7 713,-71.5 764.03,-102.83 805.17,-163.1 822.55,-191.28"/>
<polygon fill="#9a32cd" stroke="#9a32cd" points="574.04,-20.74 563.61,-22.59 572.91,-27.65 574.04,-20.74"/>
<text text-anchor="middle" x="661.5" y="-74.5" font-family="Helvetica,sans-Serif" font-size="10.00"> visual</text>
</g>
</g>
</svg>
