<?xml version="1.0" encoding="UTF-8" standalone="no"?>
<!DOCTYPE svg PUBLIC "-//W3C//DTD SVG 1.1//EN"
 "http://www.w3.org/Graphics/SVG/1.1/DTD/svg11.dtd">
<!-- Generated by graphviz version 12.2.0 (20241103.1931)
 -->
<!-- Title: com.fs.starfarer.api.impl.campaign.missions.hub.MissionFleetStopPursuingPlayer Pages: 1 -->
<!--zoomable 1171 -->

<svg id="main" version="1.1" xmlns="http://www.w3.org/2000/svg" xmlns:xlink="http://www.w3.org/1999/xlink" xml:space="preserve" onload="init(evt)">

<style type="text/css"><![CDATA[
.node, .edge {opacity: 0.7;}
.node.selected, .edge.selected {opacity: 1;}
.edge:hover path { stroke: red; }
.edge:hover polygon { stroke: red; fill: red; }
]]></style>

<defs>
  <circle id="rim" cx="0" cy="0" r="7"/>
  <circle id="rim2" cx="0" cy="0" r="3.5"/>
  <g id="zoomPlus">
    <use xlink:href="#rim" fill="#404040"><set attributeName="fill" to="#808080" begin="zoomplus.mouseover" end="zoomplus.mouseout"/></use>
    <path d="M-4,0h8M0,-4v8" fill="none" stroke="white" stroke-width="1.5" pointer-events="none"/>
  </g>
  <g id="zoomMin">
    <use xlink:href="#rim" fill="#404040"><set attributeName="fill" to="#808080" begin="zoomminus.mouseover" end="zoomminus.mouseout"/></use>
    <path d="M-4,0h8" fill="none" stroke="white" stroke-width="1.5" pointer-events="none"/>
  </g>
  <g id="arrowUp" transform="translate(30 24)">
    <use xlink:href="#rim"/>
    <path pointer-events="none" fill="none" stroke="white" stroke-width="1.5" d="M0,-3.0v7 M-2.5,-0.5L0,-3.0L2.5,-0.5"/>
  </g>
  <g id="arrowRight" transform="rotate(90) translate(36 -43)">
    <use xlink:href="#rim"/>
    <path pointer-events="none" fill="none" stroke="white" stroke-width="1.5" d="M0,-3.0v7 M-2.5,-0.5L0,-3.0L2.5,-0.5"/>
  </g>
  <g id="arrowDown" transform="rotate(180) translate(-30 -48)">
    <use xlink:href="#rim"/>
    <path pointer-events="none" fill="none" stroke="white" stroke-width="1.5" d="M0,-3.0v7 M-2.5,-0.5L0,-3.0L2.5,-0.5"/>
  </g>
  <g id="arrowLeft" transform="rotate(270) translate(-36 17)">
    <use xlink:href="#rim"/>
    <path pointer-events="none" fill="none" stroke="white" stroke-width="1.5" d="M0,-3.0v7 M-2.5,-0.5L0,-3.0L2.5,-0.5"/>
  </g>
  <g id="resetDef">
    <use xlink:href="#rim2" fill="#404040"><set attributeName="fill" to="#808080" begin="reset.mouseover" end="reset.mouseout"/></use>
  </g>
</defs>
<script type="application/ecmascript">
var viewWidth = 1566;
var viewHeight = 1171;
var sectionId = 'dynsection-1';
</script>
<script type="application/ecmascript" xlink:href="svg.min.js"/>
<svg id="graph" class="graph">
<g id="viewport">
<title>com.fs.starfarer.api.impl.campaign.missions.hub.MissionFleetStopPursuingPlayer</title>
<!-- Node1 -->
<g id="Node000001" class="node">
<title>Node1</title>
<g id="a_Node000001"><a xlink:title=" ">
<polygon fill="#999999" stroke="#666666" points="1558,-968.92 1333.5,-968.92 1333.5,-938.42 1558,-938.42 1558,-968.92"/>
<text text-anchor="start" x="1341.5" y="-955.42" font-family="Helvetica,sans-Serif" font-size="10.00">com.fs.starfarer.api.impl.campaign.missions.hub.</text>
<text text-anchor="middle" x="1445.75" y="-944.17" font-family="Helvetica,sans-Serif" font-size="10.00">MissionFleetStopPursuingPlayer</text>
</a>
</g>
</g>
<!-- Node2 -->
<g id="Node000002" class="node">
<title>Node2</title>
<g id="a_Node000002"><a xlink:href="interfacecom_1_1fs_1_1starfarer_1_1api_1_1EveryFrameScript.html" target="_top" xlink:title=" ">
<polygon fill="white" stroke="#666666" points="386.25,-1047.92 261.5,-1047.92 261.5,-1017.42 386.25,-1017.42 386.25,-1047.92"/>
<text text-anchor="start" x="269.5" y="-1034.42" font-family="Helvetica,sans-Serif" font-size="10.00">com.fs.starfarer.api.Every</text>
<text text-anchor="middle" x="323.88" y="-1023.17" font-family="Helvetica,sans-Serif" font-size="10.00">FrameScript</text>
</a>
</g>
</g>
<!-- Node2&#45;&gt;Node1 -->
<g id="edge1_Node000001_Node000002" class="edge">
<title>Node2&#45;&gt;Node1</title>
<g id="a_edge1_Node000001_Node000002"><a xlink:title=" ">
<path fill="none" stroke="#63b8ff" d="M397.92,-1046.28C412.79,-1049.58 428.23,-1053.41 442.5,-1057.67 450.72,-1060.12 452.06,-1063.08 460.5,-1064.67 525.48,-1076.86 543.14,-1065.41 609.25,-1064.67 791.59,-1062.62 838.88,-1072.11 1019,-1043.67 1148.29,-1023.25 1297.58,-989.25 1380.58,-969.4"/>
<polygon fill="#63b8ff" stroke="#63b8ff" points="398.69,-1042.86 388.18,-1044.17 397.22,-1049.7 398.69,-1042.86"/>
</a>
</g>
</g>
<!-- Node8 -->
<g id="Node000008" class="node">
<title>Node8</title>
<g id="a_Node000008"><a xlink:href="classcom_1_1fs_1_1starfarer_1_1api_1_1impl_1_1campaign_1_1intel_1_1BaseIntelPlugin.html" target="_top" xlink:title=" ">
<polygon fill="white" stroke="#666666" points="844.62,-858.92 659.12,-858.92 659.12,-828.42 844.62,-828.42 844.62,-858.92"/>
<text text-anchor="start" x="667.12" y="-845.42" font-family="Helvetica,sans-Serif" font-size="10.00">com.fs.starfarer.api.impl.campaign.intel.</text>
<text text-anchor="middle" x="751.88" y="-834.17" font-family="Helvetica,sans-Serif" font-size="10.00">BaseIntelPlugin</text>
</a>
</g>
</g>
<!-- Node2&#45;&gt;Node8 -->
<g id="edge10_Node000008_Node000002" class="edge">
<title>Node2&#45;&gt;Node8</title>
<g id="a_edge10_Node000008_Node000002"><a xlink:title=" ">
<path fill="none" stroke="#63b8ff" d="M381.39,-1013.27C459.51,-986.03 592.76,-937.86 609.25,-920.67 626.18,-903.01 608.84,-884.77 627.25,-868.67 636.32,-860.74 647.19,-855.06 658.68,-851.04"/>
<polygon fill="#63b8ff" stroke="#63b8ff" points="380.48,-1009.88 372.19,-1016.47 382.78,-1016.49 380.48,-1009.88"/>
</a>
</g>
</g>
<!-- Node3 -->
<g id="Node000003" class="node">
<title>Node3</title>
<g id="a_Node000003"><a xlink:href="interfacecom_1_1fs_1_1starfarer_1_1api_1_1campaign_1_1CampaignFleetAPI.html" target="_top" xlink:title=" ">
<polygon fill="white" stroke="#666666" points="824.38,-1141.92 679.38,-1141.92 679.38,-1111.42 824.38,-1111.42 824.38,-1141.92"/>
<text text-anchor="start" x="687.38" y="-1128.42" font-family="Helvetica,sans-Serif" font-size="10.00">com.fs.starfarer.api.campaign.</text>
<text text-anchor="middle" x="751.88" y="-1117.17" font-family="Helvetica,sans-Serif" font-size="10.00">CampaignFleetAPI</text>
</a>
</g>
</g>
<!-- Node3&#45;&gt;Node1 -->
<g id="edge2_Node000001_Node000003" class="edge">
<title>Node3&#45;&gt;Node1</title>
<g id="a_edge2_Node000001_Node000003"><a xlink:title=" ">
<path fill="none" stroke="#9a32cd" stroke-dasharray="5,2" d="M835.64,-1140.58C949.73,-1155.75 1158.94,-1168.91 1315.5,-1094.67 1374.01,-1066.92 1418.38,-999.63 1436.2,-969.14"/>
<polygon fill="#9a32cd" stroke="#9a32cd" points="836.45,-1137.16 826.07,-1139.27 835.5,-1144.09 836.45,-1137.16"/>
</a>
</g>
<text text-anchor="middle" x="1149.25" y="-1153.52" font-family="Helvetica,sans-Serif" font-size="10.00" fill="grey"> fleet</text>
</g>
<!-- Node4 -->
<g id="Node000004" class="node">
<title>Node4</title>
<g id="a_Node000004"><a xlink:href="interfacecom_1_1fs_1_1starfarer_1_1api_1_1campaign_1_1SectorEntityToken.html" target="_top" xlink:title=" ">
<polygon fill="white" stroke="#666666" points="396.38,-1096.92 251.38,-1096.92 251.38,-1066.42 396.38,-1066.42 396.38,-1096.92"/>
<text text-anchor="start" x="259.38" y="-1083.42" font-family="Helvetica,sans-Serif" font-size="10.00">com.fs.starfarer.api.campaign.</text>
<text text-anchor="middle" x="323.88" y="-1072.17" font-family="Helvetica,sans-Serif" font-size="10.00">SectorEntityToken</text>
</a>
</g>
</g>
<!-- Node4&#45;&gt;Node3 -->
<g id="edge3_Node000003_Node000004" class="edge">
<title>Node4&#45;&gt;Node3</title>
<g id="a_edge3_Node000003_Node000004"><a xlink:title=" ">
<path fill="none" stroke="#63b8ff" d="M408.01,-1090.45C486.91,-1098.78 604.25,-1111.18 679.15,-1119.09"/>
<polygon fill="#63b8ff" stroke="#63b8ff" points="408.48,-1086.98 398.16,-1089.41 407.74,-1093.94 408.48,-1086.98"/>
</a>
</g>
</g>
<!-- Node4&#45;&gt;Node8 -->
<g id="edge12_Node000008_Node000004" class="edge">
<title>Node4&#45;&gt;Node8</title>
<g id="a_edge12_Node000008_Node000004"><a xlink:title=" ">
<path fill="none" stroke="#9a32cd" stroke-dasharray="5,2" d="M407.58,-1075.27C420.33,-1071.28 432.55,-1065.36 442.5,-1056.67 460.36,-1041.06 443.1,-1022.54 460.5,-1006.42 510.79,-959.84 562.86,-1016.13 609.25,-965.67 638.93,-933.39 596.5,-899.92 627.25,-868.67 636,-859.77 646.99,-853.6 658.78,-849.37"/>
<polygon fill="#9a32cd" stroke="#9a32cd" points="406.98,-1071.81 398.23,-1077.8 408.8,-1078.57 406.98,-1071.81"/>
</a>
</g>
<text text-anchor="middle" x="534.88" y="-1008.17" font-family="Helvetica,sans-Serif" font-size="10.00" fill="grey"> postingLocation</text>
</g>
<!-- Node5 -->
<g id="Node000005" class="node">
<title>Node5</title>
<g id="a_Node000005"><a xlink:href="interfacecom_1_1fs_1_1starfarer_1_1api_1_1campaign_1_1rules_1_1HasMemory.html" target="_top" xlink:title=" ">
<polygon fill="white" stroke="#666666" points="168.25,-1016.92 0,-1016.92 0,-986.42 168.25,-986.42 168.25,-1016.92"/>
<text text-anchor="start" x="8" y="-1003.42" font-family="Helvetica,sans-Serif" font-size="10.00">com.fs.starfarer.api.campaign.rules.</text>
<text text-anchor="middle" x="84.12" y="-992.17" font-family="Helvetica,sans-Serif" font-size="10.00">HasMemory</text>
</a>
</g>
</g>
<!-- Node5&#45;&gt;Node4 -->
<g id="edge4_Node000004_Node000005" class="edge">
<title>Node5&#45;&gt;Node4</title>
<g id="a_edge4_Node000004_Node000005"><a xlink:title=" ">
<path fill="none" stroke="#63b8ff" d="M124.56,-1022.39C147.59,-1033.81 177.49,-1047.49 205.25,-1056.67 219.82,-1061.48 235.72,-1065.6 250.98,-1069.01"/>
<polygon fill="#63b8ff" stroke="#63b8ff" points="126.36,-1019.38 115.85,-1018.01 123.21,-1025.63 126.36,-1019.38"/>
</a>
</g>
</g>
<!-- Node28 -->
<g id="Node000028" class="node">
<title>Node28</title>
<g id="a_Node000028"><a xlink:href="interfacecom_1_1fs_1_1starfarer_1_1api_1_1characters_1_1PersonAPI.html" target="_top" xlink:title=" ">
<polygon fill="white" stroke="#666666" points="609.25,-1055.92 460.5,-1055.92 460.5,-1025.42 609.25,-1025.42 609.25,-1055.92"/>
<text text-anchor="start" x="468.5" y="-1042.42" font-family="Helvetica,sans-Serif" font-size="10.00">com.fs.starfarer.api.characters.</text>
<text text-anchor="middle" x="534.88" y="-1031.17" font-family="Helvetica,sans-Serif" font-size="10.00">PersonAPI</text>
</a>
</g>
</g>
<!-- Node5&#45;&gt;Node28 -->
<g id="edge30_Node000028_Node000005" class="edge">
<title>Node5&#45;&gt;Node28</title>
<g id="a_edge30_Node000028_Node000005"><a xlink:title=" ">
<path fill="none" stroke="#63b8ff" d="M179.49,-988.46C253.09,-981.7 356.85,-980.04 442.5,-1008.67 451.86,-1011.79 451.57,-1017.47 460.5,-1021.67 463,-1022.84 465.59,-1023.95 468.22,-1025"/>
<polygon fill="#63b8ff" stroke="#63b8ff" points="179.52,-984.94 169.9,-989.39 180.19,-991.91 179.52,-984.94"/>
</a>
</g>
</g>
<!-- Node6 -->
<g id="Node000006" class="node">
<title>Node6</title>
<g id="a_Node000006"><a xlink:href="interfacecom_1_1fs_1_1starfarer_1_1api_1_1campaign_1_1FleetOrStubAPI.html" target="_top" xlink:title=" ">
<polygon fill="white" stroke="#666666" points="396.38,-1145.92 251.38,-1145.92 251.38,-1115.42 396.38,-1115.42 396.38,-1145.92"/>
<text text-anchor="start" x="259.38" y="-1132.42" font-family="Helvetica,sans-Serif" font-size="10.00">com.fs.starfarer.api.campaign.</text>
<text text-anchor="middle" x="323.88" y="-1121.17" font-family="Helvetica,sans-Serif" font-size="10.00">FleetOrStubAPI</text>
</a>
</g>
</g>
<!-- Node6&#45;&gt;Node3 -->
<g id="edge5_Node000003_Node000006" class="edge">
<title>Node6&#45;&gt;Node3</title>
<g id="a_edge5_Node000003_Node000006"><a xlink:title=" ">
<path fill="none" stroke="#63b8ff" d="M408.01,-1129.89C486.91,-1129.15 604.25,-1128.04 679.15,-1127.34"/>
<polygon fill="#63b8ff" stroke="#63b8ff" points="408.14,-1126.38 398.17,-1129.98 408.2,-1133.38 408.14,-1126.38"/>
</a>
</g>
</g>
<!-- Node7 -->
<g id="Node000007" class="node">
<title>Node7</title>
<g id="a_Node000007"><a xlink:href="classcom_1_1fs_1_1starfarer_1_1api_1_1impl_1_1campaign_1_1missions_1_1hub_1_1BaseHubMission.html" target="_top" xlink:title=" ">
<polygon fill="white" stroke="#666666" points="1261.5,-590.92 1037,-590.92 1037,-560.42 1261.5,-560.42 1261.5,-590.92"/>
<text text-anchor="start" x="1045" y="-577.42" font-family="Helvetica,sans-Serif" font-size="10.00">com.fs.starfarer.api.impl.campaign.missions.hub.</text>
<text text-anchor="middle" x="1149.25" y="-566.17" font-family="Helvetica,sans-Serif" font-size="10.00">BaseHubMission</text>
</a>
</g>
</g>
<!-- Node7&#45;&gt;Node1 -->
<g id="edge6_Node000001_Node000007" class="edge">
<title>Node7&#45;&gt;Node1</title>
<g id="a_edge6_Node000001_Node000007"><a xlink:title=" ">
<path fill="none" stroke="#9a32cd" stroke-dasharray="5,2" d="M1168.97,-599.69C1224.45,-670.9 1387.02,-879.57 1432.69,-938.19"/>
<polygon fill="#9a32cd" stroke="#9a32cd" points="1172,-597.88 1163.09,-592.15 1166.47,-602.19 1172,-597.88"/>
</a>
</g>
<text text-anchor="middle" x="1297.5" y="-789.05" font-family="Helvetica,sans-Serif" font-size="10.00" fill="grey"> mission</text>
</g>
<!-- Node8&#45;&gt;Node7 -->
<g id="edge7_Node000007_Node000008" class="edge">
<title>Node8&#45;&gt;Node7</title>
<g id="a_edge7_Node000007_Node000008"><a xlink:title=" ">
<path fill="none" stroke="#63b8ff" d="M856.27,-853.18C909.03,-852.98 971.86,-844.49 1019,-812.67 1100.19,-757.87 1134.96,-634.58 1144.99,-591.16"/>
<polygon fill="#63b8ff" stroke="#63b8ff" points="856.36,-849.68 846.34,-853.1 856.31,-856.68 856.36,-849.68"/>
</a>
</g>
</g>
<!-- Node9 -->
<g id="Node000009" class="node">
<title>Node9</title>
<g id="a_Node000009"><a xlink:href="interfacecom_1_1fs_1_1starfarer_1_1api_1_1campaign_1_1comm_1_1IntelInfoPlugin.html" target="_top" xlink:title=" ">
<polygon fill="white" stroke="#666666" points="411,-910.92 236.75,-910.92 236.75,-880.42 411,-880.42 411,-910.92"/>
<text text-anchor="start" x="244.75" y="-897.42" font-family="Helvetica,sans-Serif" font-size="10.00">com.fs.starfarer.api.campaign.comm.</text>
<text text-anchor="middle" x="323.88" y="-886.17" font-family="Helvetica,sans-Serif" font-size="10.00">IntelInfoPlugin</text>
</a>
</g>
</g>
<!-- Node9&#45;&gt;Node8 -->
<g id="edge8_Node000008_Node000009" class="edge">
<title>Node9&#45;&gt;Node8</title>
<g id="a_edge8_Node000008_Node000009"><a xlink:title=" ">
<path fill="none" stroke="#63b8ff" d="M422.51,-883.75C493.49,-875.08 588.94,-863.43 658.64,-854.93"/>
<polygon fill="#63b8ff" stroke="#63b8ff" points="422.34,-880.24 412.84,-884.93 423.19,-887.19 422.34,-880.24"/>
</a>
</g>
</g>
<!-- Node10 -->
<g id="Node000010" class="node">
<title>Node10</title>
<g id="a_Node000010"><a xlink:title=" ">
<polygon fill="white" stroke="#666666" points="424.88,-861.92 222.88,-861.92 222.88,-831.42 424.88,-831.42 424.88,-861.92"/>
<text text-anchor="start" x="230.88" y="-848.42" font-family="Helvetica,sans-Serif" font-size="10.00">com.fs.starfarer.api.impl.campaign.rulecmd.</text>
<text text-anchor="middle" x="323.88" y="-837.17" font-family="Helvetica,sans-Serif" font-size="10.00">CallEvent.CallableEvent</text>
</a>
</g>
</g>
<!-- Node10&#45;&gt;Node8 -->
<g id="edge9_Node000008_Node000010" class="edge">
<title>Node10&#45;&gt;Node8</title>
<g id="a_edge9_Node000008_Node000010"><a xlink:title=" ">
<path fill="none" stroke="#63b8ff" d="M436.67,-845.88C505.85,-845.39 593.6,-844.77 658.77,-844.32"/>
<polygon fill="#63b8ff" stroke="#63b8ff" points="436.78,-842.38 426.81,-845.95 436.83,-849.38 436.78,-842.38"/>
</a>
</g>
</g>
<!-- Node11 -->
<g id="Node000011" class="node">
<title>Node11</title>
<g id="a_Node000011"><a xlink:title=" ">
<polygon fill="white" stroke="#666666" points="442.5,-959.92 205.25,-959.92 205.25,-929.42 442.5,-929.42 442.5,-959.92"/>
<text text-anchor="start" x="213.25" y="-946.42" font-family="Helvetica,sans-Serif" font-size="10.00">com.fs.starfarer.api.impl.campaign.</text>
<text text-anchor="middle" x="323.88" y="-935.17" font-family="Helvetica,sans-Serif" font-size="10.00">CommRelayEntityPlugin.CommSnifferReadableIntel</text>
</a>
</g>
</g>
<!-- Node11&#45;&gt;Node8 -->
<g id="edge11_Node000008_Node000011" class="edge">
<title>Node11&#45;&gt;Node8</title>
<g id="a_edge11_Node000008_Node000011"><a xlink:title=" ">
<path fill="none" stroke="#63b8ff" d="M454.2,-931.82C504.55,-923.18 561.51,-908.76 609.25,-884.67 618.81,-879.85 617.67,-873.45 627.25,-868.67 637.14,-863.73 647.94,-859.76 658.91,-856.58"/>
<polygon fill="#63b8ff" stroke="#63b8ff" points="453.69,-928.36 444.39,-933.44 454.82,-935.26 453.69,-928.36"/>
</a>
</g>
</g>
<!-- Node12 -->
<g id="Node000012" class="node">
<title>Node12</title>
<g id="a_Node000012"><a xlink:title=" ">
<polygon fill="white" stroke="#666666" points="360.38,-810.29 287.38,-810.29 287.38,-791.04 360.38,-791.04 360.38,-810.29"/>
<text text-anchor="middle" x="323.88" y="-796.79" font-family="Helvetica,sans-Serif" font-size="10.00">Set&lt; String &gt;</text>
</a>
</g>
</g>
<!-- Node12&#45;&gt;Node7 -->
<g id="edge37_Node000007_Node000012" class="edge">
<title>Node12&#45;&gt;Node7</title>
<g id="a_edge37_Node000007_Node000012"><a xlink:title=" ">
<path fill="none" stroke="#9a32cd" stroke-dasharray="5,2" d="M371.87,-802.48C509.71,-806.98 910.15,-813.9 1019,-747.67 1082.82,-708.84 1125.81,-625.7 1141.56,-591.18"/>
<polygon fill="#9a32cd" stroke="#9a32cd" points="372.12,-798.99 362.01,-802.15 371.88,-805.99 372.12,-798.99"/>
</a>
</g>
<text text-anchor="middle" x="751.88" y="-805.84" font-family="Helvetica,sans-Serif" font-size="10.00" fill="grey"> addedTags</text>
</g>
<!-- Node12&#45;&gt;Node8 -->
<g id="edge13_Node000008_Node000012" class="edge">
<title>Node12&#45;&gt;Node8</title>
<g id="a_edge13_Node000008_Node000012"><a xlink:title=" ">
<path fill="none" stroke="#9a32cd" stroke-dasharray="5,2" d="M372.17,-805.44C441.15,-812.4 570.71,-825.48 658.88,-834.38"/>
<polygon fill="#9a32cd" stroke="#9a32cd" points="372.64,-801.97 362.33,-804.45 371.93,-808.93 372.64,-801.97"/>
</a>
</g>
<text text-anchor="middle" x="534.88" y="-830.28" font-family="Helvetica,sans-Serif" font-size="10.00" fill="grey"> tagsForSort</text>
</g>
<!-- Node13 -->
<g id="Node000013" class="node">
<title>Node13</title>
<g id="a_Node000013"><a xlink:href="interfacecom_1_1fs_1_1starfarer_1_1api_1_1impl_1_1campaign_1_1missions_1_1hub_1_1HubMission.html" target="_top" xlink:title=" ">
<polygon fill="white" stroke="#666666" points="864.12,-762.92 639.62,-762.92 639.62,-732.42 864.12,-732.42 864.12,-762.92"/>
<text text-anchor="start" x="647.62" y="-749.42" font-family="Helvetica,sans-Serif" font-size="10.00">com.fs.starfarer.api.impl.campaign.missions.hub.</text>
<text text-anchor="middle" x="751.88" y="-738.17" font-family="Helvetica,sans-Serif" font-size="10.00">HubMission</text>
</a>
</g>
</g>
<!-- Node13&#45;&gt;Node7 -->
<g id="edge14_Node000007_Node000013" class="edge">
<title>Node13&#45;&gt;Node7</title>
<g id="a_edge14_Node000007_Node000013"><a xlink:title=" ">
<path fill="none" stroke="#63b8ff" d="M875.92,-751.86C922.86,-748.93 975.49,-739.9 1019,-717.67 1076.89,-688.09 1121.58,-621.18 1139.59,-590.97"/>
<polygon fill="#63b8ff" stroke="#63b8ff" points="875.75,-748.36 865.95,-752.38 876.12,-755.35 875.75,-748.36"/>
</a>
</g>
</g>
<!-- Node14 -->
<g id="Node000014" class="node">
<title>Node14</title>
<g id="a_Node000014"><a xlink:title=" ">
<polygon fill="white" stroke="#666666" points="815.38,-713.92 688.38,-713.92 688.38,-683.42 815.38,-683.42 815.38,-713.92"/>
<text text-anchor="start" x="696.38" y="-700.42" font-family="Helvetica,sans-Serif" font-size="10.00">LinkedHashMap&lt; Object,</text>
<text text-anchor="middle" x="751.88" y="-689.17" font-family="Helvetica,sans-Serif" font-size="10.00"> StageData &gt;</text>
</a>
</g>
</g>
<!-- Node14&#45;&gt;Node7 -->
<g id="edge15_Node000007_Node000014" class="edge">
<title>Node14&#45;&gt;Node7</title>
<g id="a_edge15_Node000007_Node000014"><a xlink:title=" ">
<path fill="none" stroke="#9a32cd" stroke-dasharray="5,2" d="M827.04,-704.15C881.9,-705.54 957.46,-701.78 1019,-677.67 1067.71,-658.58 1112.82,-614.66 1134.6,-591.16"/>
<polygon fill="#9a32cd" stroke="#9a32cd" points="827.28,-700.65 817.17,-703.83 827.05,-707.65 827.28,-700.65"/>
</a>
</g>
<text text-anchor="middle" x="956.75" y="-704.28" font-family="Helvetica,sans-Serif" font-size="10.00" fill="grey"> stages</text>
</g>
<!-- Node15 -->
<g id="Node000015" class="node">
<title>Node15</title>
<g id="a_Node000015"><a xlink:title=" ">
<polygon fill="white" stroke="#666666" points="790.62,-665.29 713.12,-665.29 713.12,-646.04 790.62,-646.04 790.62,-665.29"/>
<text text-anchor="middle" x="751.88" y="-651.79" font-family="Helvetica,sans-Serif" font-size="10.00">List&lt; Object &gt;</text>
</a>
</g>
</g>
<!-- Node15&#45;&gt;Node7 -->
<g id="edge16_Node000007_Node000015" class="edge">
<title>Node15&#45;&gt;Node7</title>
<g id="a_edge16_Node000007_Node000015"><a xlink:title=" ">
<path fill="none" stroke="#9a32cd" stroke-dasharray="5,2" d="M801.97,-651.22C855.72,-645.75 944.24,-635.01 1019,-617.67 1048.65,-610.79 1081.24,-600.18 1106.27,-591.34"/>
<polygon fill="#9a32cd" stroke="#9a32cd" points="801.83,-647.71 792.22,-652.19 802.52,-654.68 801.83,-647.71"/>
</a>
</g>
<text text-anchor="middle" x="956.75" y="-664.11" font-family="Helvetica,sans-Serif" font-size="10.00" fill="grey"> failStages</text>
<text text-anchor="middle" x="956.75" y="-652.86" font-family="Helvetica,sans-Serif" font-size="10.00" fill="grey">noPenaltyFailStages</text>
<text text-anchor="middle" x="956.75" y="-641.61" font-family="Helvetica,sans-Serif" font-size="10.00" fill="grey">successStages</text>
</g>
<!-- Node16 -->
<g id="Node000016" class="node">
<title>Node16</title>
<g id="a_Node000016"><a xlink:title=" ">
<polygon fill="white" stroke="#666666" points="813.5,-628.29 690.25,-628.29 690.25,-609.04 813.5,-609.04 813.5,-628.29"/>
<text text-anchor="middle" x="751.88" y="-614.79" font-family="Helvetica,sans-Serif" font-size="10.00">List&lt; StageConnection &gt;</text>
</a>
</g>
</g>
<!-- Node16&#45;&gt;Node7 -->
<g id="edge17_Node000007_Node000016" class="edge">
<title>Node16&#45;&gt;Node7</title>
<g id="a_edge17_Node000007_Node000016"><a xlink:title=" ">
<path fill="none" stroke="#9a32cd" stroke-dasharray="5,2" d="M824.89,-610.83C884.03,-604.4 968.8,-595.18 1036.7,-587.8"/>
<polygon fill="#9a32cd" stroke="#9a32cd" points="824.85,-607.32 815.29,-611.88 825.61,-614.28 824.85,-607.32"/>
</a>
</g>
<text text-anchor="middle" x="956.75" y="-604.03" font-family="Helvetica,sans-Serif" font-size="10.00" fill="grey"> connections</text>
</g>
<!-- Node17 -->
<g id="Node000017" class="node">
<title>Node17</title>
<g id="a_Node000017"><a xlink:title=" ">
<polygon fill="white" stroke="#666666" points="876.5,-590.92 627.25,-590.92 627.25,-560.42 876.5,-560.42 876.5,-590.92"/>
<text text-anchor="start" x="635.25" y="-577.42" font-family="Helvetica,sans-Serif" font-size="10.00">List&lt; com.fs.starfarer.api.impl.campaign.missions.hub.</text>
<text text-anchor="middle" x="751.88" y="-566.17" font-family="Helvetica,sans-Serif" font-size="10.00">MissionTrigger &gt;</text>
</a>
</g>
</g>
<!-- Node17&#45;&gt;Node7 -->
<g id="edge18_Node000007_Node000017" class="edge">
<title>Node17&#45;&gt;Node7</title>
<g id="a_edge18_Node000007_Node000017"><a xlink:title=" ">
<path fill="none" stroke="#9a32cd" stroke-dasharray="5,2" d="M888.1,-575.67C936.53,-575.67 990.54,-575.67 1036.74,-575.67"/>
<polygon fill="#9a32cd" stroke="#9a32cd" points="888.4,-572.17 878.4,-575.67 888.4,-579.17 888.4,-572.17"/>
</a>
</g>
<text text-anchor="middle" x="956.75" y="-577.42" font-family="Helvetica,sans-Serif" font-size="10.00" fill="grey"> triggers</text>
</g>
<!-- Node18 -->
<g id="Node000018" class="node">
<title>Node18</title>
<g id="a_Node000018"><a xlink:title=" ">
<polygon fill="white" stroke="#666666" points="797,-542.29 706.75,-542.29 706.75,-523.04 797,-523.04 797,-542.29"/>
<text text-anchor="middle" x="751.88" y="-528.79" font-family="Helvetica,sans-Serif" font-size="10.00">List&lt; Abortable &gt;</text>
</a>
</g>
</g>
<!-- Node18&#45;&gt;Node7 -->
<g id="edge19_Node000007_Node000018" class="edge">
<title>Node18&#45;&gt;Node7</title>
<g id="a_edge19_Node000007_Node000018"><a xlink:title=" ">
<path fill="none" stroke="#9a32cd" stroke-dasharray="5,2" d="M808.51,-538.25C862.37,-543.7 946.31,-552.34 1019,-560.42 1024.73,-561.05 1030.59,-561.71 1036.52,-562.39"/>
<polygon fill="#9a32cd" stroke="#9a32cd" points="808.96,-534.77 798.66,-537.25 808.26,-541.74 808.96,-534.77"/>
</a>
</g>
<text text-anchor="middle" x="956.75" y="-562.17" font-family="Helvetica,sans-Serif" font-size="10.00" fill="grey"> changes</text>
</g>
<!-- Node19 -->
<g id="Node000019" class="node">
<title>Node19</title>
<g id="a_Node000019"><a xlink:title=" ">
<polygon fill="white" stroke="#666666" points="795.88,-505.29 707.88,-505.29 707.88,-486.04 795.88,-486.04 795.88,-505.29"/>
<text text-anchor="middle" x="751.88" y="-491.79" font-family="Helvetica,sans-Serif" font-size="10.00">List&lt; FlagData &gt;</text>
</a>
</g>
</g>
<!-- Node19&#45;&gt;Node7 -->
<g id="edge20_Node000007_Node000019" class="edge">
<title>Node19&#45;&gt;Node7</title>
<g id="a_edge20_Node000007_Node000019"><a xlink:title=" ">
<path fill="none" stroke="#9a32cd" stroke-dasharray="5,2" d="M807.71,-492.23C864,-491.09 952.53,-496.06 1019,-531.42 1029.63,-537.07 1026.6,-545.6 1037,-551.67 1042.46,-554.85 1048.29,-557.62 1054.32,-560.02"/>
<polygon fill="#9a32cd" stroke="#9a32cd" points="807.61,-488.73 797.72,-492.52 807.81,-495.73 807.61,-488.73"/>
</a>
</g>
<text text-anchor="middle" x="956.75" y="-533.17" font-family="Helvetica,sans-Serif" font-size="10.00" fill="grey"> flags</text>
</g>
<!-- Node20 -->
<g id="Node000020" class="node">
<title>Node20</title>
<g id="a_Node000020"><a xlink:href="interfacecom_1_1fs_1_1starfarer_1_1api_1_1campaign_1_1CargoAPI.html" target="_top" xlink:title=" ">
<polygon fill="white" stroke="#666666" points="824.38,-467.92 679.38,-467.92 679.38,-437.42 824.38,-437.42 824.38,-467.92"/>
<text text-anchor="start" x="687.38" y="-454.42" font-family="Helvetica,sans-Serif" font-size="10.00">com.fs.starfarer.api.campaign.</text>
<text text-anchor="middle" x="751.88" y="-443.17" font-family="Helvetica,sans-Serif" font-size="10.00">CargoAPI</text>
</a>
</g>
</g>
<!-- Node20&#45;&gt;Node7 -->
<g id="edge21_Node000007_Node000020" class="edge">
<title>Node20&#45;&gt;Node7</title>
<g id="a_edge21_Node000007_Node000020"><a xlink:title=" ">
<path fill="none" stroke="#9a32cd" stroke-dasharray="5,2" d="M829.55,-435.2C888.27,-426.63 967.68,-426.1 1019,-470.17 1047.14,-494.33 1010.71,-525.5 1037,-551.67 1040.22,-554.87 1043.76,-557.7 1047.54,-560.18"/>
<polygon fill="#9a32cd" stroke="#9a32cd" points="829.29,-431.7 819.96,-436.72 830.38,-438.62 829.29,-431.7"/>
</a>
</g>
<text text-anchor="middle" x="956.75" y="-483.17" font-family="Helvetica,sans-Serif" font-size="10.00" fill="grey"> cargoOnAccept</text>
<text text-anchor="middle" x="956.75" y="-471.92" font-family="Helvetica,sans-Serif" font-size="10.00" fill="grey">cargoOnSuccess</text>
</g>
<!-- Node21 -->
<g id="Node000021" class="node">
<title>Node21</title>
<g id="a_Node000021"><a xlink:title=" ">
<polygon fill="white" stroke="#666666" points="864.12,-381.92 639.62,-381.92 639.62,-351.42 864.12,-351.42 864.12,-381.92"/>
<text text-anchor="start" x="647.62" y="-368.42" font-family="Helvetica,sans-Serif" font-size="10.00">com.fs.starfarer.api.impl.campaign.missions.hub.</text>
<text text-anchor="middle" x="751.88" y="-357.17" font-family="Helvetica,sans-Serif" font-size="10.00">BaseHubMission.TimeLimitData</text>
</a>
</g>
</g>
<!-- Node21&#45;&gt;Node7 -->
<g id="edge22_Node000007_Node000021" class="edge">
<title>Node21&#45;&gt;Node7</title>
<g id="a_edge22_Node000007_Node000021"><a xlink:title=" ">
<path fill="none" stroke="#9a32cd" stroke-dasharray="5,2" d="M875.92,-358.61C935.36,-357.58 998.25,-361.68 1019,-381.42 1046.56,-407.64 1011.58,-523.36 1037,-551.67 1039.77,-554.75 1042.84,-557.5 1046.13,-559.93"/>
<polygon fill="#9a32cd" stroke="#9a32cd" points="875.91,-355.11 866,-358.84 876.07,-362.11 875.91,-355.11"/>
</a>
</g>
<text text-anchor="middle" x="956.75" y="-383.17" font-family="Helvetica,sans-Serif" font-size="10.00" fill="grey"> timeLimit</text>
</g>
<!-- Node22 -->
<g id="Node000022" class="node">
<title>Node22</title>
<g id="a_Node000022"><a xlink:title=" ">
<polygon fill="white" stroke="#666666" points="388.12,-395.29 259.62,-395.29 259.62,-376.04 388.12,-376.04 388.12,-395.29"/>
<text text-anchor="middle" x="323.88" y="-381.79" font-family="Helvetica,sans-Serif" font-size="10.00">LinkedHashSet&lt; Object &gt;</text>
</a>
</g>
</g>
<!-- Node22&#45;&gt;Node21 -->
<g id="edge23_Node000021_Node000022" class="edge">
<title>Node22&#45;&gt;Node21</title>
<g id="a_edge23_Node000021_Node000022"><a xlink:title=" ">
<path fill="none" stroke="#9a32cd" stroke-dasharray="5,2" d="M399.37,-382.34C465.65,-379.39 563.52,-375.02 639.17,-371.65"/>
<polygon fill="#9a32cd" stroke="#9a32cd" points="399.54,-378.83 389.7,-382.78 399.85,-385.83 399.54,-378.83"/>
</a>
</g>
<text text-anchor="middle" x="534.88" y="-381.27" font-family="Helvetica,sans-Serif" font-size="10.00" fill="grey"> endLimitStages</text>
</g>
<!-- Node23 -->
<g id="Node000023" class="node">
<title>Node23</title>
<g id="a_Node000023"><a xlink:href="interfacecom_1_1fs_1_1starfarer_1_1api_1_1campaign_1_1StarSystemAPI.html" target="_top" xlink:title=" ">
<polygon fill="white" stroke="#666666" points="396.38,-357.92 251.38,-357.92 251.38,-327.42 396.38,-327.42 396.38,-357.92"/>
<text text-anchor="start" x="259.38" y="-344.42" font-family="Helvetica,sans-Serif" font-size="10.00">com.fs.starfarer.api.campaign.</text>
<text text-anchor="middle" x="323.88" y="-333.17" font-family="Helvetica,sans-Serif" font-size="10.00">StarSystemAPI</text>
</a>
</g>
</g>
<!-- Node23&#45;&gt;Node21 -->
<g id="edge24_Node000021_Node000023" class="edge">
<title>Node23&#45;&gt;Node21</title>
<g id="a_edge24_Node000021_Node000023"><a xlink:title=" ">
<path fill="none" stroke="#9a32cd" stroke-dasharray="5,2" d="M408.18,-347.22C464.87,-350.33 541.59,-354.57 609.25,-358.42 618.96,-358.97 629.05,-359.55 639.17,-360.13"/>
<polygon fill="#9a32cd" stroke="#9a32cd" points="408.44,-343.73 398.27,-346.67 408.06,-350.72 408.44,-343.73"/>
</a>
</g>
<text text-anchor="middle" x="534.88" y="-360.17" font-family="Helvetica,sans-Serif" font-size="10.00" fill="grey"> noLimitWhileInSystem</text>
</g>
<!-- Node24 -->
<g id="Node000024" class="node">
<title>Node24</title>
<g id="a_Node000024"><a xlink:href="interfacecom_1_1fs_1_1starfarer_1_1api_1_1campaign_1_1LocationAPI.html" target="_top" xlink:title=" ">
<polygon fill="white" stroke="#666666" points="156.62,-357.92 11.62,-357.92 11.62,-327.42 156.62,-327.42 156.62,-357.92"/>
<text text-anchor="start" x="19.62" y="-344.42" font-family="Helvetica,sans-Serif" font-size="10.00">com.fs.starfarer.api.campaign.</text>
<text text-anchor="middle" x="84.12" y="-333.17" font-family="Helvetica,sans-Serif" font-size="10.00">LocationAPI</text>
</a>
</g>
</g>
<!-- Node24&#45;&gt;Node23 -->
<g id="edge25_Node000023_Node000024" class="edge">
<title>Node24&#45;&gt;Node23</title>
<g id="a_edge25_Node000023_Node000024"><a xlink:title=" ">
<path fill="none" stroke="#63b8ff" d="M168.48,-342.67C195.44,-342.67 225.09,-342.67 251.14,-342.67"/>
<polygon fill="#63b8ff" stroke="#63b8ff" points="168.62,-339.17 158.62,-342.67 168.62,-346.17 168.62,-339.17"/>
</a>
</g>
</g>
<!-- Node25 -->
<g id="Node000025" class="node">
<title>Node25</title>
<g id="a_Node000025"><a xlink:title=" ">
<polygon fill="white" stroke="#666666" points="864.12,-283.92 639.62,-283.92 639.62,-253.42 864.12,-253.42 864.12,-283.92"/>
<text text-anchor="start" x="647.62" y="-270.42" font-family="Helvetica,sans-Serif" font-size="10.00">com.fs.starfarer.api.impl.campaign.missions.hub.</text>
<text text-anchor="middle" x="751.88" y="-259.17" font-family="Helvetica,sans-Serif" font-size="10.00">BaseHubMission.HubMissionResult</text>
</a>
</g>
</g>
<!-- Node25&#45;&gt;Node7 -->
<g id="edge26_Node000007_Node000025" class="edge">
<title>Node25&#45;&gt;Node7</title>
<g id="a_edge26_Node000007_Node000025"><a xlink:title=" ">
<path fill="none" stroke="#9a32cd" stroke-dasharray="5,2" d="M875.86,-259.81C935.48,-258.43 998.56,-262.29 1019,-282.42 1061.72,-324.5 997.8,-506.29 1037,-551.67 1039.71,-554.81 1042.73,-557.59 1045.98,-560.06"/>
<polygon fill="#9a32cd" stroke="#9a32cd" points="875.8,-256.31 865.9,-260.09 876,-263.31 875.8,-256.31"/>
</a>
</g>
<text text-anchor="middle" x="956.75" y="-284.17" font-family="Helvetica,sans-Serif" font-size="10.00" fill="grey"> result</text>
</g>
<!-- Node26 -->
<g id="Node000026" class="node">
<title>Node26</title>
<g id="a_Node000026"><a xlink:title=" ">
<polygon fill="white" stroke="#666666" points="428.62,-289.54 219.12,-289.54 219.12,-247.79 428.62,-247.79 428.62,-289.54"/>
<text text-anchor="start" x="227.12" y="-276.04" font-family="Helvetica,sans-Serif" font-size="10.00">com.fs.starfarer.api.campaign.</text>
<text text-anchor="start" x="227.12" y="-264.79" font-family="Helvetica,sans-Serif" font-size="10.00">ReputationActionResponsePlugin.Reputation</text>
<text text-anchor="middle" x="323.88" y="-253.54" font-family="Helvetica,sans-Serif" font-size="10.00">AdjustmentResult</text>
</a>
</g>
</g>
<!-- Node26&#45;&gt;Node25 -->
<g id="edge27_Node000025_Node000026" class="edge">
<title>Node26&#45;&gt;Node25</title>
<g id="a_edge27_Node000025_Node000026"><a xlink:title=" ">
<path fill="none" stroke="#9a32cd" stroke-dasharray="5,2" d="M440.45,-268.67C502.24,-268.67 577.97,-268.67 639.16,-268.67"/>
<polygon fill="#9a32cd" stroke="#9a32cd" points="440.6,-265.17 430.6,-268.67 440.6,-272.17 440.6,-265.17"/>
</a>
</g>
<text text-anchor="middle" x="534.88" y="-281.67" font-family="Helvetica,sans-Serif" font-size="10.00" fill="grey"> repFaction</text>
<text text-anchor="middle" x="534.88" y="-270.42" font-family="Helvetica,sans-Serif" font-size="10.00" fill="grey">repPerson</text>
</g>
<!-- Node27 -->
<g id="Node000027" class="node">
<title>Node27</title>
<g id="a_Node000027"><a xlink:href="interfacecom_1_1fs_1_1starfarer_1_1api_1_1impl_1_1campaign_1_1missions_1_1hub_1_1MissionHub.html" target="_top" xlink:title=" ">
<polygon fill="white" stroke="#666666" points="864.12,-332.92 639.62,-332.92 639.62,-302.42 864.12,-302.42 864.12,-332.92"/>
<text text-anchor="start" x="647.62" y="-319.42" font-family="Helvetica,sans-Serif" font-size="10.00">com.fs.starfarer.api.impl.campaign.missions.hub.</text>
<text text-anchor="middle" x="751.88" y="-308.17" font-family="Helvetica,sans-Serif" font-size="10.00">MissionHub</text>
</a>
</g>
</g>
<!-- Node27&#45;&gt;Node7 -->
<g id="edge28_Node000007_Node000027" class="edge">
<title>Node27&#45;&gt;Node7</title>
<g id="a_edge28_Node000007_Node000027"><a xlink:title=" ">
<path fill="none" stroke="#9a32cd" stroke-dasharray="5,2" d="M837.08,-300.51C896.23,-293.79 972.75,-296.7 1019,-343.42 1051.68,-376.43 1006.29,-516.81 1037,-551.67 1039.74,-554.78 1042.78,-557.54 1046.06,-560"/>
<polygon fill="#9a32cd" stroke="#9a32cd" points="836.86,-297.01 827.38,-301.74 837.74,-303.96 836.86,-297.01"/>
</a>
</g>
<text text-anchor="middle" x="956.75" y="-345.17" font-family="Helvetica,sans-Serif" font-size="10.00" fill="grey"> hub</text>
</g>
<!-- Node28&#45;&gt;Node7 -->
<g id="edge29_Node000007_Node000028" class="edge">
<title>Node28&#45;&gt;Node7</title>
<g id="a_edge29_Node000007_Node000028"><a xlink:title=" ">
<path fill="none" stroke="#9a32cd" stroke-dasharray="5,2" d="M621.15,-1042.45C751.52,-1044.4 988.55,-1044.53 1019,-1020.67 1090.23,-964.84 1136.09,-663.39 1146.16,-591.21"/>
<polygon fill="#9a32cd" stroke="#9a32cd" points="621.21,-1038.95 611.16,-1042.3 621.1,-1045.95 621.21,-1038.95"/>
</a>
</g>
<text text-anchor="middle" x="751.88" y="-1044.99" font-family="Helvetica,sans-Serif" font-size="10.00" fill="grey"> personOverride</text>
</g>
<!-- Node29 -->
<g id="Node000029" class="node">
<title>Node29</title>
<g id="a_Node000029"><a xlink:href="interfacecom_1_1fs_1_1starfarer_1_1api_1_1impl_1_1campaign_1_1missions_1_1hub_1_1HubMissionCreator.html" target="_top" xlink:title=" ">
<polygon fill="white" stroke="#666666" points="864.12,-234.92 639.62,-234.92 639.62,-204.42 864.12,-204.42 864.12,-234.92"/>
<text text-anchor="start" x="647.62" y="-221.42" font-family="Helvetica,sans-Serif" font-size="10.00">com.fs.starfarer.api.impl.campaign.missions.hub.</text>
<text text-anchor="middle" x="751.88" y="-210.17" font-family="Helvetica,sans-Serif" font-size="10.00">HubMissionCreator</text>
</a>
</g>
</g>
<!-- Node29&#45;&gt;Node7 -->
<g id="edge31_Node000007_Node000029" class="edge">
<title>Node29&#45;&gt;Node7</title>
<g id="a_edge31_Node000007_Node000029"><a xlink:title=" ">
<path fill="none" stroke="#9a32cd" stroke-dasharray="5,2" d="M833.03,-202.33C892.92,-194.52 972.2,-195.99 1019,-244.42 1066.53,-293.6 992.5,-499.73 1037,-551.67 1039.7,-554.82 1042.71,-557.61 1045.95,-560.09"/>
<polygon fill="#9a32cd" stroke="#9a32cd" points="832.62,-198.85 823.21,-203.73 833.6,-205.78 832.62,-198.85"/>
</a>
</g>
<text text-anchor="middle" x="956.75" y="-246.17" font-family="Helvetica,sans-Serif" font-size="10.00" fill="grey"> creator</text>
</g>
<!-- Node30 -->
<g id="Node000030" class="node">
<title>Node30</title>
<g id="a_Node000030"><a xlink:title=" ">
<polygon fill="white" stroke="#666666" points="777.88,-186.29 725.88,-186.29 725.88,-167.04 777.88,-167.04 777.88,-186.29"/>
<text text-anchor="middle" x="751.88" y="-172.79" font-family="Helvetica,sans-Serif" font-size="10.00">Random</text>
</a>
</g>
</g>
<!-- Node30&#45;&gt;Node7 -->
<g id="edge32_Node000007_Node000030" class="edge">
<title>Node30&#45;&gt;Node7</title>
<g id="a_edge32_Node000007_Node000030"><a xlink:title=" ">
<path fill="none" stroke="#9a32cd" stroke-dasharray="5,2" d="M789.42,-171.8C854.68,-164.01 987.41,-152.56 1019,-183.42 1048.31,-212.04 1010.5,-520.43 1037,-551.67 1039.68,-554.83 1042.68,-557.64 1045.91,-560.12"/>
<polygon fill="#9a32cd" stroke="#9a32cd" points="789.06,-168.32 779.56,-173.01 789.91,-175.26 789.06,-168.32"/>
</a>
</g>
<text text-anchor="middle" x="956.75" y="-185.17" font-family="Helvetica,sans-Serif" font-size="10.00" fill="grey"> genRandom</text>
</g>
<!-- Node31 -->
<g id="Node000031" class="node">
<title>Node31</title>
<g id="a_Node000031"><a xlink:href="classcom_1_1fs_1_1starfarer_1_1api_1_1util_1_1IntervalUtil.html" target="_top" xlink:title=" ">
<polygon fill="white" stroke="#666666" points="809.75,-148.92 694,-148.92 694,-118.42 809.75,-118.42 809.75,-148.92"/>
<text text-anchor="start" x="702" y="-135.42" font-family="Helvetica,sans-Serif" font-size="10.00">com.fs.starfarer.api.util.</text>
<text text-anchor="middle" x="751.88" y="-124.17" font-family="Helvetica,sans-Serif" font-size="10.00">IntervalUtil</text>
</a>
</g>
</g>
<!-- Node31&#45;&gt;Node7 -->
<g id="edge33_Node000007_Node000031" class="edge">
<title>Node31&#45;&gt;Node7</title>
<g id="a_edge33_Node000007_Node000031"><a xlink:title=" ">
<path fill="none" stroke="#9a32cd" stroke-dasharray="5,2" d="M821.21,-132.53C895.44,-132.02 1005.34,-133.66 1019,-147.42 1050.68,-179.32 1007.99,-517.32 1037,-551.67 1039.68,-554.84 1042.66,-557.65 1045.89,-560.14"/>
<polygon fill="#9a32cd" stroke="#9a32cd" points="821.57,-129.03 811.6,-132.61 821.62,-136.03 821.57,-129.03"/>
</a>
</g>
<text text-anchor="middle" x="956.75" y="-149.17" font-family="Helvetica,sans-Serif" font-size="10.00" fill="grey"> tracker</text>
</g>
<!-- Node32 -->
<g id="Node000032" class="node">
<title>Node32</title>
<g id="a_Node000032"><a xlink:href="enumcom_1_1fs_1_1starfarer_1_1api_1_1campaign_1_1RepLevel.html" target="_top" xlink:title=" ">
<polygon fill="white" stroke="#666666" points="824.38,-94.92 679.38,-94.92 679.38,-64.42 824.38,-64.42 824.38,-94.92"/>
<text text-anchor="start" x="687.38" y="-81.42" font-family="Helvetica,sans-Serif" font-size="10.00">com.fs.starfarer.api.campaign.</text>
<text text-anchor="middle" x="751.88" y="-70.17" font-family="Helvetica,sans-Serif" font-size="10.00">RepLevel</text>
</a>
</g>
</g>
<!-- Node32&#45;&gt;Node7 -->
<g id="edge34_Node000007_Node000032" class="edge">
<title>Node32&#45;&gt;Node7</title>
<g id="a_edge34_Node000007_Node000032"><a xlink:title=" ">
<path fill="none" stroke="#9a32cd" stroke-dasharray="5,2" d="M835.83,-69.03C904.17,-62.34 993.79,-59.04 1019,-83.67 1056.22,-120.03 1003.54,-511.81 1037,-551.67 1039.67,-554.84 1042.65,-557.66 1045.87,-560.16"/>
<polygon fill="#9a32cd" stroke="#9a32cd" points="835.73,-65.52 826.13,-70.02 836.44,-72.48 835.73,-65.52"/>
</a>
</g>
<text text-anchor="middle" x="956.75" y="-119.17" font-family="Helvetica,sans-Serif" font-size="10.00" fill="grey"> penaltyLimitFaction</text>
<text text-anchor="middle" x="956.75" y="-107.92" font-family="Helvetica,sans-Serif" font-size="10.00" fill="grey">penaltyLimitPerson</text>
<text text-anchor="middle" x="956.75" y="-96.67" font-family="Helvetica,sans-Serif" font-size="10.00" fill="grey">rewardLimitFaction</text>
<text text-anchor="middle" x="956.75" y="-85.42" font-family="Helvetica,sans-Serif" font-size="10.00" fill="grey">rewardLimitPerson</text>
</g>
<!-- Node33 -->
<g id="Node000033" class="node">
<title>Node33</title>
<g id="a_Node000033"><a xlink:title=" ">
<polygon fill="white" stroke="#666666" points="822.5,-43.29 681.25,-43.29 681.25,-24.04 822.5,-24.04 822.5,-43.29"/>
<text text-anchor="middle" x="751.88" y="-29.79" font-family="Helvetica,sans-Serif" font-size="10.00">List&lt; PotentialContactData &gt;</text>
</a>
</g>
</g>
<!-- Node33&#45;&gt;Node7 -->
<g id="edge35_Node000007_Node000033" class="edge">
<title>Node33&#45;&gt;Node7</title>
<g id="a_edge35_Node000007_Node000033"><a xlink:title=" ">
<path fill="none" stroke="#9a32cd" stroke-dasharray="5,2" d="M790.91,-20.05C848.83,-2.03 958.73,21.02 1019,-38.17 1059.73,-78.17 1000.37,-507.88 1037,-551.67 1039.66,-554.85 1042.64,-557.67 1045.85,-560.17"/>
<polygon fill="#9a32cd" stroke="#9a32cd" points="789.93,-16.69 781.49,-23.09 792.09,-23.35 789.93,-16.69"/>
</a>
</g>
<text text-anchor="start" x="894.5" y="-51.17" font-family="Helvetica,sans-Serif" font-size="10.00" fill="grey"> potentialContactsOnMission</text>
<text text-anchor="middle" x="956.75" y="-39.92" font-family="Helvetica,sans-Serif" font-size="10.00" fill="grey">Success</text>
</g>
<!-- Node34 -->
<g id="Node000034" class="node">
<title>Node34</title>
<g id="a_Node000034"><a xlink:href="interfacecom_1_1fs_1_1starfarer_1_1api_1_1campaign_1_1rules_1_1MemoryAPI.html" target="_top" xlink:title=" ">
<polygon fill="white" stroke="#666666" points="836,-1005.92 667.75,-1005.92 667.75,-975.42 836,-975.42 836,-1005.92"/>
<text text-anchor="start" x="675.75" y="-992.42" font-family="Helvetica,sans-Serif" font-size="10.00">com.fs.starfarer.api.campaign.rules.</text>
<text text-anchor="middle" x="751.88" y="-981.17" font-family="Helvetica,sans-Serif" font-size="10.00">MemoryAPI</text>
</a>
</g>
</g>
<!-- Node34&#45;&gt;Node7 -->
<g id="edge36_Node000007_Node000034" class="edge">
<title>Node34&#45;&gt;Node7</title>
<g id="a_edge36_Node000007_Node000034"><a xlink:title=" ">
<path fill="none" stroke="#9a32cd" stroke-dasharray="5,2" d="M847.59,-1005.28C903.17,-1008.5 971.57,-1002.53 1019,-964.67 1141.08,-867.21 1148.83,-650.89 1148.56,-591.19"/>
<polygon fill="#9a32cd" stroke="#9a32cd" points="848.03,-1001.8 837.81,-1004.6 847.54,-1008.78 848.03,-1001.8"/>
</a>
</g>
<text text-anchor="middle" x="956.75" y="-1006.9" font-family="Helvetica,sans-Serif" font-size="10.00" fill="grey"> interactionMemory</text>
</g>
<!-- Node35 -->
<g id="Node000035" class="node">
<title>Node35</title>
<g id="a_Node000035"><a xlink:href="enumcom_1_1fs_1_1starfarer_1_1api_1_1campaign_1_1PersonImportance.html" target="_top" xlink:title=" ">
<polygon fill="white" stroke="#666666" points="824.38,-956.92 679.38,-956.92 679.38,-926.42 824.38,-926.42 824.38,-956.92"/>
<text text-anchor="start" x="687.38" y="-943.42" font-family="Helvetica,sans-Serif" font-size="10.00">com.fs.starfarer.api.campaign.</text>
<text text-anchor="middle" x="751.88" y="-932.17" font-family="Helvetica,sans-Serif" font-size="10.00">PersonImportance</text>
</a>
</g>
</g>
<!-- Node35&#45;&gt;Node7 -->
<g id="edge38_Node000007_Node000035" class="edge">
<title>Node35&#45;&gt;Node7</title>
<g id="a_edge38_Node000007_Node000035"><a xlink:title=" ">
<path fill="none" stroke="#9a32cd" stroke-dasharray="5,2" d="M836.03,-951.42C893.2,-953.57 967.76,-946.82 1019,-906.67 1123.89,-824.48 1143.79,-645.34 1147.45,-591.37"/>
<polygon fill="#9a32cd" stroke="#9a32cd" points="836.51,-947.94 826.35,-950.95 836.17,-954.93 836.51,-947.94"/>
</a>
</g>
<text text-anchor="middle" x="956.75" y="-951.31" font-family="Helvetica,sans-Serif" font-size="10.00" fill="grey"> giverImportance</text>
</g>
<!-- Node36 -->
<g id="Node000036" class="node">
<title>Node36</title>
<g id="a_Node000036"><a xlink:title=" ">
<polygon fill="white" stroke="#666666" points="826.25,-907.92 677.5,-907.92 677.5,-877.42 826.25,-877.42 826.25,-907.92"/>
<text text-anchor="start" x="685.5" y="-894.42" font-family="Helvetica,sans-Serif" font-size="10.00">com.fs.starfarer.api.characters.</text>
<text text-anchor="middle" x="751.88" y="-883.17" font-family="Helvetica,sans-Serif" font-size="10.00">FullName.Gender</text>
</a>
</g>
</g>
<!-- Node36&#45;&gt;Node7 -->
<g id="edge39_Node000007_Node000036" class="edge">
<title>Node36&#45;&gt;Node7</title>
<g id="a_edge39_Node000007_Node000036"><a xlink:title=" ">
<path fill="none" stroke="#9a32cd" stroke-dasharray="5,2" d="M838.1,-896.86C894.64,-895.35 967.62,-884.69 1019,-845.67 1106.53,-779.19 1137.65,-638.26 1145.83,-591.28"/>
<polygon fill="#9a32cd" stroke="#9a32cd" points="838.11,-893.36 828.17,-897.02 838.23,-900.36 838.11,-893.36"/>
</a>
</g>
<text text-anchor="middle" x="956.75" y="-893.44" font-family="Helvetica,sans-Serif" font-size="10.00" fill="grey"> giverGender</text>
</g>
<!-- Node37 -->
<g id="Node000037" class="node">
<title>Node37</title>
<g id="a_Node000037"><a xlink:title=" ">
<polygon fill="white" stroke="#666666" points="771.12,-419.29 732.62,-419.29 732.62,-400.04 771.12,-400.04 771.12,-419.29"/>
<text text-anchor="middle" x="751.88" y="-405.79" font-family="Helvetica,sans-Serif" font-size="10.00">Color</text>
</a>
</g>
</g>
<!-- Node37&#45;&gt;Node7 -->
<g id="edge40_Node000007_Node000037" class="edge">
<title>Node37&#45;&gt;Node7</title>
<g id="a_edge40_Node000007_Node000037"><a xlink:title=" ">
<path fill="none" stroke="#9a32cd" stroke-dasharray="5,2" d="M782.59,-405.7C844.63,-398.12 984.96,-384.92 1019,-415.42 1064.5,-456.17 995.6,-506.76 1037,-551.67 1039.95,-554.86 1043.21,-557.69 1046.71,-560.18"/>
<polygon fill="#9a32cd" stroke="#9a32cd" points="782.27,-402.21 772.79,-406.93 783.15,-409.15 782.27,-402.21"/>
</a>
</g>
<text text-anchor="middle" x="956.75" y="-417.17" font-family="Helvetica,sans-Serif" font-size="10.00" fill="grey"> mapMarkerNameColor</text>
</g>
<!-- Node38 -->
<g id="Node000038" class="node">
<title>Node38</title>
<g id="a_Node000038"><a xlink:title=" ">
<polygon fill="white" stroke="#666666" points="1187.25,-542.29 1111.25,-542.29 1111.25,-523.04 1187.25,-523.04 1187.25,-542.29"/>
<text text-anchor="middle" x="1149.25" y="-528.79" font-family="Helvetica,sans-Serif" font-size="10.00">Set&lt; Object &gt;</text>
</a>
</g>
</g>
<!-- Node38&#45;&gt;Node1 -->
<g id="edge41_Node000001_Node000038" class="edge">
<title>Node38&#45;&gt;Node1</title>
<g id="a_edge41_Node000001_Node000038"><a xlink:title=" ">
<path fill="none" stroke="#9a32cd" stroke-dasharray="5,2" d="M1198.92,-531.16C1220.02,-532.83 1243.88,-538.1 1261.5,-551.67 1395.2,-654.61 1434.44,-877.51 1442.83,-938.16"/>
<polygon fill="#9a32cd" stroke="#9a32cd" points="1199.21,-527.67 1189.04,-530.66 1198.85,-534.67 1199.21,-527.67"/>
</a>
</g>
<text text-anchor="middle" x="1297.5" y="-602.79" font-family="Helvetica,sans-Serif" font-size="10.00" fill="grey"> stages</text>
</g>
</g>
</svg>

<g id="navigator" transform="translate(0 0)" fill="#404254">
  <rect fill="#f2f5e9" fill-opacity="0.5" stroke="#606060" stroke-width=".5" x="0" y="0" width="60" height="60"/>
  <use id="zoomplus" xlink:href="#zoomPlus" x="17" y="9" onmousedown="handleZoom(evt,'in')"/>
  <use id="zoomminus" xlink:href="#zoomMin" x="42" y="9" onmousedown="handleZoom(evt,'out')"/>
  <use id="reset" xlink:href="#resetDef" x="30" y="36" onmousedown="handleReset()"/>
   <use id="arrowup" xlink:href="#arrowUp" x="0" y="0" onmousedown="handlePan(0,-1)"/>
  <use id="arrowright" xlink:href="#arrowRight" x="0" y="0" onmousedown="handlePan(1,0)"/>
  <use id="arrowdown" xlink:href="#arrowDown" x="0" y="0" onmousedown="handlePan(0,1)"/>
  <use id="arrowleft" xlink:href="#arrowLeft" x="0" y="0" onmousedown="handlePan(-1,0)"/>
</g>
<svg viewBox="0 0 15 15" width="100%" height="30px" preserveAspectRatio="xMaxYMin meet">
 <g id="arrow_out" transform="scale(0.3 0.3)">
  <a xlink:href="classcom_1_1fs_1_1starfarer_1_1api_1_1impl_1_1campaign_1_1missions_1_1hub_1_1MissionFleetStopPursuingPlayer__coll__graph_org.svg" target="_base">
   <rect id="button" ry="5" rx="5" y="6" x="6" height="38" width="38"
        fill="#f2f5e9" fill-opacity="0.5" stroke="#606060" stroke-width="1.0"/>
   <path id="arrow"
     d="M 11.500037,31.436501 C 11.940474,20.09759 22.043105,11.32322 32.158766,21.979434 L 37.068811,17.246167 C 37.068811,17.246167 37.088388,32 37.088388,32 L 22.160133,31.978069 C 22.160133,31.978069 26.997745,27.140456 26.997745,27.140456 C 18.528582,18.264221 13.291696,25.230495 11.500037,31.436501 z"
     style="fill:#404040;"/>
  </a>
 </g>
</svg>

<style type='text/css'>
<![CDATA[
[data-mouse-over-selected='false'] { opacity: 0.7; }
[data-mouse-over-selected='true']  { opacity: 1.0; }
]]>
</style>
<script type="application/ecmascript"><![CDATA[
document.addEventListener('DOMContentLoaded', (event) => {
  highlightEdges();
  highlightAdjacentNodes();
});
]]></script>
</svg>
