<?xml version="1.0" encoding="UTF-8" standalone="no"?>
<!DOCTYPE svg PUBLIC "-//W3C//DTD SVG 1.1//EN"
 "http://www.w3.org/Graphics/SVG/1.1/DTD/svg11.dtd">
<!-- Generated by graphviz version 9.0.0 (20230911.1827)
 -->
<!-- Title: com.fs.starfarer.api.impl.campaign.velfield.SlipstreamBuilder Pages: 1 -->
<svg width="753pt" height="142pt"
 viewBox="0.00 0.00 752.75 141.74" xmlns="http://www.w3.org/2000/svg" xmlns:xlink="http://www.w3.org/1999/xlink">
<g id="graph0" class="graph" transform="scale(1 1) rotate(0) translate(4 137.74)">
<title>com.fs.starfarer.api.impl.campaign.velfield.SlipstreamBuilder</title>
<!-- Node1 -->
<g id="Node000001" class="node">
<title>Node1</title>
<g id="a_Node000001"><a xlink:title=" ">
<polygon fill="#999999" stroke="#666666" points="744.75,-43.37 547.25,-43.37 547.25,-12.87 744.75,-12.87 744.75,-43.37"/>
<text text-anchor="start" x="555.25" y="-29.87" font-family="Helvetica,sans-Serif" font-size="10.00">com.fs.starfarer.api.impl.campaign.velfield.</text>
<text text-anchor="middle" x="646" y="-18.62" font-family="Helvetica,sans-Serif" font-size="10.00">SlipstreamBuilder</text>
</a>
</g>
</g>
<!-- Node2 -->
<g id="Node000002" class="node">
<title>Node2</title>
<g id="a_Node000002"><a xlink:href="classcom_1_1fs_1_1starfarer_1_1api_1_1impl_1_1campaign_1_1velfield_1_1SlipstreamTerrainPlugin2.html" target="_top" xlink:title=" ">
<polygon fill="white" stroke="#666666" points="480.5,-118.37 283,-118.37 283,-87.87 480.5,-87.87 480.5,-118.37"/>
<text text-anchor="start" x="291" y="-104.87" font-family="Helvetica,sans-Serif" font-size="10.00">com.fs.starfarer.api.impl.campaign.velfield.</text>
<text text-anchor="middle" x="381.75" y="-93.62" font-family="Helvetica,sans-Serif" font-size="10.00">SlipstreamTerrainPlugin2</text>
</a>
</g>
</g>
<!-- Node2&#45;&gt;Node1 -->
<g id="edge1_Node000001_Node000002" class="edge">
<title>Node2&#45;&gt;Node1</title>
<g id="a_edge1_Node000001_Node000002"><a xlink:title=" ">
<path fill="none" stroke="#9a32cd" stroke-dasharray="5,2" d="M448.53,-84.31C492.2,-71.82 548.85,-55.62 590.1,-43.82"/>
<polygon fill="#9a32cd" stroke="#9a32cd" points="447.83,-80.87 439.18,-86.98 449.76,-87.6 447.83,-80.87"/>
</a>
</g>
<text text-anchor="middle" x="513.88" y="-69.87" font-family="Helvetica,sans-Serif" font-size="10.00" fill="grey"> plugin</text>
</g>
<!-- Node5 -->
<g id="Node000005" class="node">
<title>Node5</title>
<g id="a_Node000005"><a xlink:href="classcom_1_1fs_1_1starfarer_1_1api_1_1impl_1_1campaign_1_1velfield_1_1SlipstreamBuilder.html" target="_top" xlink:title=" ">
<polygon fill="white" stroke="#666666" points="744.75,-118.37 547.25,-118.37 547.25,-87.87 744.75,-87.87 744.75,-118.37"/>
<text text-anchor="start" x="555.25" y="-104.87" font-family="Helvetica,sans-Serif" font-size="10.00">com.fs.starfarer.api.impl.campaign.velfield.</text>
<text text-anchor="middle" x="646" y="-93.62" font-family="Helvetica,sans-Serif" font-size="10.00">SlipstreamBuilder</text>
</a>
</g>
</g>
<!-- Node2&#45;&gt;Node5 -->
<g id="edge5_Node000005_Node000002" class="edge">
<title>Node2&#45;&gt;Node5</title>
<g id="a_edge5_Node000005_Node000002"><a xlink:title=" ">
<path fill="none" stroke="#9a32cd" stroke-dasharray="5,2" d="M492.27,-101.91C494.36,-101.89 496.44,-101.88 498.5,-101.87 514.14,-101.78 530.72,-101.81 546.89,-101.9"/>
<polygon fill="#9a32cd" stroke="#9a32cd" points="492.43,-98.4 482.46,-101.97 492.48,-105.4 492.43,-98.4"/>
</a>
</g>
<text text-anchor="middle" x="513.88" y="-103.87" font-family="Helvetica,sans-Serif" font-size="10.00" fill="grey"> plugin</text>
</g>
<!-- Node3 -->
<g id="Node000003" class="node">
<title>Node3</title>
<g id="a_Node000003"><a xlink:title=" ">
<polygon fill="white" stroke="#666666" points="140.5,-133.74 72,-133.74 72,-114.49 140.5,-114.49 140.5,-133.74"/>
<text text-anchor="middle" x="106.25" y="-120.24" font-family="Helvetica,sans-Serif" font-size="10.00">BaseTerrain</text>
</a>
</g>
</g>
<!-- Node3&#45;&gt;Node2 -->
<g id="edge2_Node000002_Node000003" class="edge">
<title>Node3&#45;&gt;Node2</title>
<g id="a_edge2_Node000002_Node000003"><a xlink:title=" ">
<path fill="none" stroke="#63b8ff" d="M152.17,-120.67C187.54,-117.95 238.15,-114.07 282.76,-110.64"/>
<polygon fill="#63b8ff" stroke="#63b8ff" points="152,-117.17 142.3,-121.43 152.53,-124.15 152,-117.17"/>
</a>
</g>
</g>
<!-- Node4 -->
<g id="Node000004" class="node">
<title>Node4</title>
<g id="a_Node000004"><a xlink:title=" ">
<polygon fill="white" stroke="#666666" points="212.5,-96.37 0,-96.37 0,-65.87 212.5,-65.87 212.5,-96.37"/>
<text text-anchor="start" x="8" y="-82.87" font-family="Helvetica,sans-Serif" font-size="10.00">com.fs.starfarer.api.impl.campaign.velfield.</text>
<text text-anchor="middle" x="106.25" y="-71.62" font-family="Helvetica,sans-Serif" font-size="10.00">SlipstreamTerrainPlugin2.SlipstreamParams2</text>
</a>
</g>
</g>
<!-- Node4&#45;&gt;Node2 -->
<g id="edge3_Node000002_Node000004" class="edge">
<title>Node4&#45;&gt;Node2</title>
<g id="a_edge3_Node000002_Node000004"><a xlink:title=" ">
<path fill="none" stroke="#9a32cd" stroke-dasharray="5,2" d="M224.4,-90.54C243.9,-92.11 263.95,-93.72 282.9,-95.25"/>
<polygon fill="#9a32cd" stroke="#9a32cd" points="224.75,-87.06 214.5,-89.75 224.19,-94.04 224.75,-87.06"/>
</a>
</g>
<text text-anchor="middle" x="247.75" y="-95.87" font-family="Helvetica,sans-Serif" font-size="10.00" fill="grey"> params</text>
</g>
<!-- Node5&#45;&gt;Node2 -->
<g id="edge4_Node000002_Node000005" class="edge">
<title>Node5&#45;&gt;Node2</title>
<g id="a_edge4_Node000002_Node000005"><a xlink:title=" ">
<path fill="none" stroke="#9a32cd" stroke-dasharray="5,2" d="M535.52,-115.29C523.04,-115.73 510.5,-115.74 498.5,-115.12 492.75,-114.82 486.85,-114.44 480.89,-114"/>
<polygon fill="#9a32cd" stroke="#9a32cd" points="535.6,-118.79 545.43,-114.84 535.29,-111.8 535.6,-118.79"/>
</a>
</g>
<text text-anchor="middle" x="513.88" y="-116.87" font-family="Helvetica,sans-Serif" font-size="10.00" fill="grey"> builder</text>
</g>
<!-- Node6 -->
<g id="Node000006" class="node">
<title>Node6</title>
<g id="a_Node000006"><a xlink:title=" ">
<polygon fill="white" stroke="#666666" points="480.5,-33.37 283,-33.37 283,-2.87 480.5,-2.87 480.5,-33.37"/>
<text text-anchor="start" x="291" y="-19.87" font-family="Helvetica,sans-Serif" font-size="10.00">com.fs.starfarer.api.impl.campaign.velfield.</text>
<text text-anchor="middle" x="381.75" y="-8.62" font-family="Helvetica,sans-Serif" font-size="10.00">SlipstreamBuilder.StreamType</text>
</a>
</g>
</g>
<!-- Node6&#45;&gt;Node1 -->
<g id="edge7_Node000001_Node000006" class="edge">
<title>Node6&#45;&gt;Node1</title>
<g id="a_edge7_Node000001_Node000006"><a xlink:title=" ">
<path fill="none" stroke="#9a32cd" stroke-dasharray="5,2" d="M477.62,-1.42C494.8,-0.16 512.56,0 529.25,-1.87 548.4,-4.01 569,-8.09 587.44,-12.41"/>
<polygon fill="#9a32cd" stroke="#9a32cd" points="477.59,2.09 467.93,-2.28 478.2,-4.89 477.59,2.09"/>
</a>
</g>
<text text-anchor="middle" x="513.88" y="-3.87" font-family="Helvetica,sans-Serif" font-size="10.00" fill="grey"> type</text>
</g>
<!-- Node6&#45;&gt;Node5 -->
<g id="edge6_Node000005_Node000006" class="edge">
<title>Node6&#45;&gt;Node5</title>
<g id="a_edge6_Node000005_Node000006"><a xlink:title=" ">
<path fill="none" stroke="#9a32cd" stroke-dasharray="5,2" d="M484.81,-36.36C499.86,-39.97 515.07,-44.13 529.25,-48.87 560.19,-59.21 593.76,-75.56 616.74,-87.61"/>
<polygon fill="#9a32cd" stroke="#9a32cd" points="485.89,-33.02 475.36,-34.17 484.32,-39.84 485.89,-33.02"/>
</a>
</g>
<text text-anchor="middle" x="513.88" y="-50.87" font-family="Helvetica,sans-Serif" font-size="10.00" fill="grey"> type</text>
</g>
</g>
</svg>
