<?xml version="1.0" encoding="UTF-8" standalone="no"?>
<!DOCTYPE svg PUBLIC "-//W3C//DTD SVG 1.1//EN"
 "http://www.w3.org/Graphics/SVG/1.1/DTD/svg11.dtd">
<!-- Generated by graphviz version 7.0.5 (20221223.1930)
 -->
<!-- Title: com.fs.starfarer.api.impl.campaign.procgen.SalvageEntityGenDataSpec.DropData Pages: 1 -->
<svg width="597pt" height="86pt"
 viewBox="0.00 0.00 597.00 86.00" xmlns="http://www.w3.org/2000/svg" xmlns:xlink="http://www.w3.org/1999/xlink">
<g id="graph0" class="graph" transform="scale(1 1) rotate(0) translate(4 82)">
<title>com.fs.starfarer.api.impl.campaign.procgen.SalvageEntityGenDataSpec.DropData</title>
<!-- Node1 -->
<g id="node1" class="node">
<title>Node1</title>
<g id="a_node1"><a xlink:title=" ">
<polygon fill="#999999" stroke="#666666" points="589,-59.5 386,-59.5 386,-29.5 589,-29.5 589,-59.5"/>
<text text-anchor="start" x="394" y="-47.5" font-family="Helvetica,sans-Serif" font-size="10.00">com.fs.starfarer.api.impl.campaign.procgen.</text>
<text text-anchor="middle" x="487.5" y="-36.5" font-family="Helvetica,sans-Serif" font-size="10.00">SalvageEntityGenDataSpec.DropData</text>
</a>
</g>
</g>
<!-- Node2 -->
<g id="node2" class="node">
<title>Node2</title>
<g id="a_node2"><a xlink:title=" ">
<polygon fill="white" stroke="#bfbfbf" points="187,-78 128,-78 128,-59 187,-59 187,-78"/>
<text text-anchor="middle" x="157.5" y="-66" font-family="Helvetica,sans-Serif" font-size="10.00">Cloneable</text>
</a>
</g>
</g>
<!-- Node2&#45;&gt;Node1 -->
<g id="edge1" class="edge">
<title>Node2&#45;&gt;Node1</title>
<path fill="none" stroke="#63b8ff" d="M198.65,-65.56C244.88,-62.18 322.56,-56.5 385.58,-51.88"/>
<polygon fill="#63b8ff" stroke="#63b8ff" points="198.55,-62.06 188.83,-66.28 199.06,-69.04 198.55,-62.06"/>
</g>
<!-- Node3 -->
<g id="node3" class="node">
<title>Node3</title>
<g id="a_node3"><a xlink:href="classcom_1_1fs_1_1starfarer_1_1api_1_1util_1_1WeightedRandomPicker.html" target="_top" xlink:title=" ">
<polygon fill="white" stroke="#bfbfbf" points="315,-41 0,-41 0,0 315,0 315,-41"/>
<text text-anchor="start" x="8" y="-29" font-family="Helvetica,sans-Serif" font-size="10.00">com.fs.starfarer.api.util.</text>
<text text-anchor="start" x="8" y="-18" font-family="Helvetica,sans-Serif" font-size="10.00">WeightedRandomPicker&lt; com.fs.starfarer.api.impl.campaign.procgen.</text>
<text text-anchor="middle" x="157.5" y="-7" font-family="Helvetica,sans-Serif" font-size="10.00">DropGroupRow &gt;</text>
</a>
</g>
</g>
<!-- Node3&#45;&gt;Node1 -->
<g id="edge2" class="edge">
<title>Node3&#45;&gt;Node1</title>
<path fill="none" stroke="#9a32cd" stroke-dasharray="5,2" d="M326.78,-32.81C346.85,-34.28 366.83,-35.74 385.52,-37.11"/>
<polygon fill="#9a32cd" stroke="#9a32cd" points="327.03,-29.32 316.8,-32.08 326.52,-36.3 327.03,-29.32"/>
<text text-anchor="middle" x="350.5" y="-37.5" font-family="Helvetica,sans-Serif" font-size="10.00"> custom</text>
</g>
</g>
</svg>
