<?xml version="1.0" encoding="UTF-8" standalone="no"?>
<!DOCTYPE svg PUBLIC "-//W3C//DTD SVG 1.1//EN"
 "http://www.w3.org/Graphics/SVG/1.1/DTD/svg11.dtd">
<!-- Generated by graphviz version 9.0.0 (20230911.1827)
 -->
<!-- Title: com.fs.starfarer.api.impl.campaign.missions.PirateSystemBounty Pages: 1 -->
<svg width="250pt" height="94pt"
 viewBox="0.00 0.00 250.38 93.75" xmlns="http://www.w3.org/2000/svg" xmlns:xlink="http://www.w3.org/1999/xlink">
<g id="graph0" class="graph" transform="scale(1 1) rotate(0) translate(4 89.75)">
<title>com.fs.starfarer.api.impl.campaign.missions.PirateSystemBounty</title>
<!-- Node1 -->
<g id="Node000001" class="node">
<title>Node1</title>
<g id="a_Node000001"><a xlink:title=" ">
<polygon fill="#999999" stroke="#666666" points="231.75,-30.5 25.25,-30.5 25.25,0 231.75,0 231.75,-30.5"/>
<text text-anchor="start" x="33.25" y="-17" font-family="Helvetica,sans-Serif" font-size="10.00">com.fs.starfarer.api.impl.campaign.missions.</text>
<text text-anchor="middle" x="128.5" y="-5.75" font-family="Helvetica,sans-Serif" font-size="10.00">PirateSystemBounty</text>
</a>
</g>
</g>
<!-- Node2 -->
<g id="Node000002" class="node">
<title>Node2</title>
<g id="a_Node000002"><a xlink:title=" ">
<polygon fill="white" stroke="#666666" points="127,-85.75 0,-85.75 0,-66.5 127,-66.5 127,-85.75"/>
<text text-anchor="middle" x="63.5" y="-72.25" font-family="Helvetica,sans-Serif" font-size="10.00">HubMissionWithBarEvent</text>
</a>
</g>
</g>
<!-- Node2&#45;&gt;Node1 -->
<g id="edge1_Node000001_Node000002" class="edge">
<title>Node2&#45;&gt;Node1</title>
<g id="a_edge1_Node000001_Node000002"><a xlink:title=" ">
<path fill="none" stroke="#63b8ff" d="M81.83,-58.52C91.47,-49.79 103.18,-39.18 112.46,-30.78"/>
<polygon fill="#63b8ff" stroke="#63b8ff" points="79.56,-55.86 74.49,-65.17 84.26,-61.05 79.56,-55.86"/>
</a>
</g>
</g>
<!-- Node3 -->
<g id="Node000003" class="node">
<title>Node3</title>
<g id="a_Node000003"><a xlink:title=" ">
<polygon fill="white" stroke="#666666" points="242.38,-85.75 144.62,-85.75 144.62,-66.5 242.38,-66.5 242.38,-85.75"/>
<text text-anchor="middle" x="193.5" y="-72.25" font-family="Helvetica,sans-Serif" font-size="10.00">FleetEventListener</text>
</a>
</g>
</g>
<!-- Node3&#45;&gt;Node1 -->
<g id="edge2_Node000001_Node000003" class="edge">
<title>Node3&#45;&gt;Node1</title>
<g id="a_edge2_Node000001_Node000003"><a xlink:title=" ">
<path fill="none" stroke="#63b8ff" d="M175.17,-58.52C165.53,-49.79 153.82,-39.18 144.54,-30.78"/>
<polygon fill="#63b8ff" stroke="#63b8ff" points="172.74,-61.05 182.51,-65.17 177.44,-55.86 172.74,-61.05"/>
</a>
</g>
</g>
</g>
</svg>
