<?xml version="1.0" encoding="UTF-8" standalone="no"?>
<!DOCTYPE svg PUBLIC "-//W3C//DTD SVG 1.1//EN"
 "http://www.w3.org/Graphics/SVG/1.1/DTD/svg11.dtd">
<!-- Generated by graphviz version 12.2.0 (20241103.1931)
 -->
<!-- Title: com.fs.starfarer.api.impl.combat.MineStrikeStats Pages: 1 -->
<svg width="836pt" height="125pt"
 viewBox="0.00 0.00 836.00 124.88" xmlns="http://www.w3.org/2000/svg" xmlns:xlink="http://www.w3.org/1999/xlink">
<g id="graph0" class="graph" transform="scale(1 1) rotate(0) translate(4 120.88)">
<title>com.fs.starfarer.api.impl.combat.MineStrikeStats</title>
<!-- Node1 -->
<g id="Node000001" class="node">
<title>Node1</title>
<g id="a_Node000001"><a xlink:title=" ">
<polygon fill="#999999" stroke="#666666" points="828,-67.88 672.5,-67.88 672.5,-37.38 828,-37.38 828,-67.88"/>
<text text-anchor="start" x="680.5" y="-54.38" font-family="Helvetica,sans-Serif" font-size="10.00">com.fs.starfarer.api.impl.combat.</text>
<text text-anchor="middle" x="750.25" y="-43.12" font-family="Helvetica,sans-Serif" font-size="10.00">MineStrikeStats</text>
</a>
</g>
</g>
<!-- Node2 -->
<g id="Node000002" class="node">
<title>Node2</title>
<g id="a_Node000002"><a xlink:href="classcom_1_1fs_1_1starfarer_1_1api_1_1impl_1_1combat_1_1BaseShipSystemScript.html" target="_top" xlink:title=" ">
<polygon fill="white" stroke="#666666" points="524,-116.88 368.5,-116.88 368.5,-86.38 524,-86.38 524,-116.88"/>
<text text-anchor="start" x="376.5" y="-103.38" font-family="Helvetica,sans-Serif" font-size="10.00">com.fs.starfarer.api.impl.combat.</text>
<text text-anchor="middle" x="446.25" y="-92.12" font-family="Helvetica,sans-Serif" font-size="10.00">BaseShipSystemScript</text>
</a>
</g>
</g>
<!-- Node2&#45;&gt;Node1 -->
<g id="edge1_Node000001_Node000002" class="edge">
<title>Node2&#45;&gt;Node1</title>
<g id="a_edge1_Node000001_Node000002"><a xlink:title=" ">
<path fill="none" stroke="#63b8ff" d="M535.35,-87.33C578.67,-80.3 630.4,-71.91 672.14,-65.14"/>
<polygon fill="#63b8ff" stroke="#63b8ff" points="535.04,-83.83 525.73,-88.89 536.16,-90.74 535.04,-83.83"/>
</a>
</g>
</g>
<!-- Node3 -->
<g id="Node000003" class="node">
<title>Node3</title>
<g id="a_Node000003"><a xlink:href="interfacecom_1_1fs_1_1starfarer_1_1api_1_1plugins_1_1ShipSystemStatsScriptAdvanced.html" target="_top" xlink:title=" ">
<polygon fill="white" stroke="#666666" points="331.5,-116.88 170.75,-116.88 170.75,-86.38 331.5,-86.38 331.5,-116.88"/>
<text text-anchor="start" x="178.75" y="-103.38" font-family="Helvetica,sans-Serif" font-size="10.00">com.fs.starfarer.api.plugins.</text>
<text text-anchor="middle" x="251.12" y="-92.12" font-family="Helvetica,sans-Serif" font-size="10.00">ShipSystemStatsScriptAdvanced</text>
</a>
</g>
</g>
<!-- Node3&#45;&gt;Node2 -->
<g id="edge2_Node000002_Node000003" class="edge">
<title>Node3&#45;&gt;Node2</title>
<g id="a_edge2_Node000002_Node000003"><a xlink:title=" ">
<path fill="none" stroke="#63b8ff" d="M343.17,-101.62C351.56,-101.62 360.01,-101.62 368.25,-101.62"/>
<polygon fill="#63b8ff" stroke="#63b8ff" points="343.3,-98.13 333.3,-101.63 343.3,-105.13 343.3,-98.13"/>
</a>
</g>
</g>
<!-- Node4 -->
<g id="Node000004" class="node">
<title>Node4</title>
<g id="a_Node000004"><a xlink:href="interfacecom_1_1fs_1_1starfarer_1_1api_1_1plugins_1_1ShipSystemStatsScript.html" target="_top" xlink:title=" ">
<polygon fill="white" stroke="#666666" points="133.75,-116.88 0,-116.88 0,-86.38 133.75,-86.38 133.75,-116.88"/>
<text text-anchor="start" x="8" y="-103.38" font-family="Helvetica,sans-Serif" font-size="10.00">com.fs.starfarer.api.plugins.</text>
<text text-anchor="middle" x="66.88" y="-92.12" font-family="Helvetica,sans-Serif" font-size="10.00">ShipSystemStatsScript</text>
</a>
</g>
</g>
<!-- Node4&#45;&gt;Node3 -->
<g id="edge3_Node000003_Node000004" class="edge">
<title>Node4&#45;&gt;Node3</title>
<g id="a_edge3_Node000003_Node000004"><a xlink:title=" ">
<path fill="none" stroke="#63b8ff" d="M145.69,-101.62C153.91,-101.62 162.29,-101.62 170.53,-101.62"/>
<polygon fill="#63b8ff" stroke="#63b8ff" points="145.7,-98.13 135.7,-101.63 145.7,-105.13 145.7,-98.13"/>
</a>
</g>
</g>
<!-- Node5 -->
<g id="Node000005" class="node">
<title>Node5</title>
<g id="a_Node000005"><a xlink:href="interfacecom_1_1fs_1_1starfarer_1_1api_1_1impl_1_1combat_1_1MineStrikeStatsAIInfoProvider.html" target="_top" xlink:title=" ">
<polygon fill="white" stroke="#666666" points="524,-67.88 368.5,-67.88 368.5,-37.38 524,-37.38 524,-67.88"/>
<text text-anchor="start" x="376.5" y="-54.38" font-family="Helvetica,sans-Serif" font-size="10.00">com.fs.starfarer.api.impl.combat.</text>
<text text-anchor="middle" x="446.25" y="-43.12" font-family="Helvetica,sans-Serif" font-size="10.00">MineStrikeStatsAIInfoProvider</text>
</a>
</g>
</g>
<!-- Node5&#45;&gt;Node1 -->
<g id="edge4_Node000001_Node000005" class="edge">
<title>Node5&#45;&gt;Node1</title>
<g id="a_edge4_Node000001_Node000005"><a xlink:title=" ">
<path fill="none" stroke="#63b8ff" d="M535.62,-52.62C578.89,-52.62 630.49,-52.62 672.14,-52.62"/>
<polygon fill="#63b8ff" stroke="#63b8ff" points="535.75,-49.13 525.75,-52.63 535.75,-56.13 535.75,-49.13"/>
</a>
</g>
</g>
<!-- Node6 -->
<g id="Node000006" class="node">
<title>Node6</title>
<g id="a_Node000006"><a xlink:title=" ">
<polygon fill="white" stroke="#666666" points="465.5,-19.25 427,-19.25 427,0 465.5,0 465.5,-19.25"/>
<text text-anchor="middle" x="446.25" y="-5.75" font-family="Helvetica,sans-Serif" font-size="10.00">Color</text>
</a>
</g>
</g>
<!-- Node6&#45;&gt;Node1 -->
<g id="edge5_Node000001_Node000006" class="edge">
<title>Node6&#45;&gt;Node1</title>
<g id="a_edge5_Node000001_Node000006"><a xlink:title=" ">
<path fill="none" stroke="#9a32cd" stroke-dasharray="5,2" d="M477.44,-10.2C517.99,-11.4 592.18,-15.04 654.5,-26.12 669.47,-28.79 685.48,-32.8 700,-36.91"/>
<polygon fill="#9a32cd" stroke="#9a32cd" points="477.58,-6.71 467.49,-9.95 477.4,-13.7 477.58,-6.71"/>
</a>
</g>
<text text-anchor="middle" x="598.25" y="-39.12" font-family="Helvetica,sans-Serif" font-size="10.00" fill="grey"> JITTER_COLOR</text>
<text text-anchor="middle" x="598.25" y="-27.88" font-family="Helvetica,sans-Serif" font-size="10.00" fill="grey">JITTER_UNDER_COLOR</text>
</g>
</g>
</svg>
