<?xml version="1.0" encoding="UTF-8" standalone="no"?>
<!DOCTYPE svg PUBLIC "-//W3C//DTD SVG 1.1//EN"
 "http://www.w3.org/Graphics/SVG/1.1/DTD/svg11.dtd">
<!-- Generated by graphviz version 7.0.5 (20221223.1930)
 -->
<!-- Title: com.fs.starfarer.api.impl.campaign.rulecmd.FireAll.OptionAdder Pages: 1 -->
<svg width="465pt" height="86pt"
 viewBox="0.00 0.00 465.00 86.00" xmlns="http://www.w3.org/2000/svg" xmlns:xlink="http://www.w3.org/1999/xlink">
<g id="graph0" class="graph" transform="scale(1 1) rotate(0) translate(4 82)">
<title>com.fs.starfarer.api.impl.campaign.rulecmd.FireAll.OptionAdder</title>
<!-- Node1 -->
<g id="node1" class="node">
<title>Node1</title>
<g id="a_node1"><a xlink:title=" ">
<polygon fill="#999999" stroke="#666666" points="457,-54 254,-54 254,-24 457,-24 457,-54"/>
<text text-anchor="start" x="262" y="-42" font-family="Helvetica,sans-Serif" font-size="10.00">com.fs.starfarer.api.impl.campaign.rulecmd.</text>
<text text-anchor="middle" x="355.5" y="-31" font-family="Helvetica,sans-Serif" font-size="10.00">FireAll.OptionAdder</text>
</a>
</g>
</g>
<!-- Node2 -->
<g id="node2" class="node">
<title>Node2</title>
<g id="a_node2"><a xlink:href="classcom_1_1fs_1_1starfarer_1_1api_1_1campaign_1_1rules_1_1Option.html" target="_top" xlink:title=" ">
<polygon fill="white" stroke="#bfbfbf" points="169,-78 0,-78 0,-48 169,-48 169,-78"/>
<text text-anchor="start" x="8" y="-66" font-family="Helvetica,sans-Serif" font-size="10.00">com.fs.starfarer.api.campaign.rules.</text>
<text text-anchor="middle" x="84.5" y="-55" font-family="Helvetica,sans-Serif" font-size="10.00">Option</text>
</a>
</g>
</g>
<!-- Node2&#45;&gt;Node1 -->
<g id="edge1" class="edge">
<title>Node2&#45;&gt;Node1</title>
<path fill="none" stroke="#9a32cd" stroke-dasharray="5,2" d="M180.31,-54.54C204.14,-52.42 229.8,-50.13 253.9,-47.98"/>
<polygon fill="#9a32cd" stroke="#9a32cd" points="180.3,-51.03 170.65,-55.4 180.92,-58 180.3,-51.03"/>
<text text-anchor="middle" x="211.5" y="-56" font-family="Helvetica,sans-Serif" font-size="10.00"> option</text>
</g>
<!-- Node3 -->
<g id="node3" class="node">
<title>Node3</title>
<g id="a_node3"><a xlink:href="interfacecom_1_1fs_1_1starfarer_1_1api_1_1campaign_1_1rules_1_1ExpressionAPI.html" target="_top" xlink:title=" ">
<polygon fill="white" stroke="#bfbfbf" points="169,-30 0,-30 0,0 169,0 169,-30"/>
<text text-anchor="start" x="8" y="-18" font-family="Helvetica,sans-Serif" font-size="10.00">com.fs.starfarer.api.campaign.rules.</text>
<text text-anchor="middle" x="84.5" y="-7" font-family="Helvetica,sans-Serif" font-size="10.00">ExpressionAPI</text>
</a>
</g>
</g>
<!-- Node3&#45;&gt;Node1 -->
<g id="edge2" class="edge">
<title>Node3&#45;&gt;Node1</title>
<path fill="none" stroke="#9a32cd" stroke-dasharray="5,2" d="M180.31,-23.46C204.14,-25.58 229.8,-27.87 253.9,-30.02"/>
<polygon fill="#9a32cd" stroke="#9a32cd" points="180.92,-20 170.65,-22.6 180.3,-26.97 180.92,-20"/>
<text text-anchor="middle" x="211.5" y="-30" font-family="Helvetica,sans-Serif" font-size="10.00"> expression</text>
</g>
</g>
</svg>
