<?xml version="1.0" encoding="UTF-8" standalone="no"?>
<!DOCTYPE svg PUBLIC "-//W3C//DTD SVG 1.1//EN"
 "http://www.w3.org/Graphics/SVG/1.1/DTD/svg11.dtd">
<!-- Generated by graphviz version 2.44.0 ()
 -->
<!-- Title: com.fs.starfarer.api.impl.campaign.terrain.EventHorizonPlugin Pages: 1 -->
<svg width="1478pt" height="472pt"
 viewBox="0.00 0.00 1478.00 472.00" xmlns="http://www.w3.org/2000/svg" xmlns:xlink="http://www.w3.org/1999/xlink">
<g id="graph0" class="graph" transform="scale(1 1) rotate(0) translate(4 468)">
<title>com.fs.starfarer.api.impl.campaign.terrain.EventHorizonPlugin</title>
<!-- Node1 -->
<g id="node1" class="node">
<title>Node1</title>
<g id="a_node1"><a xlink:title=" ">
<polygon fill="#bfbfbf" stroke="black" points="1275,-200.5 1275,-230.5 1470,-230.5 1470,-200.5 1275,-200.5"/>
<text text-anchor="start" x="1283" y="-218.5" font-family="Helvetica,sans-Serif" font-size="10.00">com.fs.starfarer.api.impl.campaign.terrain.</text>
<text text-anchor="middle" x="1372.5" y="-207.5" font-family="Helvetica,sans-Serif" font-size="10.00">EventHorizonPlugin</text>
</a>
</g>
</g>
<!-- Node2 -->
<g id="node2" class="node">
<title>Node2</title>
<g id="a_node2"><a xlink:href="classcom_1_1fs_1_1starfarer_1_1api_1_1impl_1_1campaign_1_1terrain_1_1StarCoronaTerrainPlugin.html" target="_top" xlink:title=" ">
<polygon fill="none" stroke="black" points="1043,-200.5 1043,-230.5 1238,-230.5 1238,-200.5 1043,-200.5"/>
<text text-anchor="start" x="1051" y="-218.5" font-family="Helvetica,sans-Serif" font-size="10.00">com.fs.starfarer.api.impl.campaign.terrain.</text>
<text text-anchor="middle" x="1140.5" y="-207.5" font-family="Helvetica,sans-Serif" font-size="10.00">StarCoronaTerrainPlugin</text>
</a>
</g>
</g>
<!-- Node2&#45;&gt;Node1 -->
<g id="edge1" class="edge">
<title>Node2&#45;&gt;Node1</title>
<path fill="none" stroke="midnightblue" d="M1248.08,-215.5C1257,-215.5 1265.99,-215.5 1274.84,-215.5"/>
<polygon fill="midnightblue" stroke="midnightblue" points="1248.04,-212 1238.04,-215.5 1248.04,-219 1248.04,-212"/>
</g>
<!-- Node3 -->
<g id="node3" class="node">
<title>Node3</title>
<g id="a_node3"><a xlink:href="classcom_1_1fs_1_1starfarer_1_1api_1_1impl_1_1campaign_1_1terrain_1_1BaseRingTerrain.html" target="_top" xlink:title=" ">
<polygon fill="none" stroke="black" points="754,-367.5 754,-397.5 949,-397.5 949,-367.5 754,-367.5"/>
<text text-anchor="start" x="762" y="-385.5" font-family="Helvetica,sans-Serif" font-size="10.00">com.fs.starfarer.api.impl.campaign.terrain.</text>
<text text-anchor="middle" x="851.5" y="-374.5" font-family="Helvetica,sans-Serif" font-size="10.00">BaseRingTerrain</text>
</a>
</g>
</g>
<!-- Node3&#45;&gt;Node2 -->
<g id="edge2" class="edge">
<title>Node3&#45;&gt;Node2</title>
<path fill="none" stroke="midnightblue" d="M958.89,-369.99C981.73,-364.37 1004.98,-356.25 1025,-344.5 1074.32,-315.54 1113.78,-257.99 1130.64,-230.63"/>
<polygon fill="midnightblue" stroke="midnightblue" points="958.09,-366.58 949.14,-372.25 959.67,-373.4 958.09,-366.58"/>
</g>
<!-- Node4 -->
<g id="node4" class="node">
<title>Node4</title>
<g id="a_node4"><a xlink:href="classcom_1_1fs_1_1starfarer_1_1api_1_1impl_1_1campaign_1_1terrain_1_1BaseTerrain.html" target="_top" xlink:title=" ">
<polygon fill="none" stroke="black" points="456.5,-372.5 456.5,-402.5 651.5,-402.5 651.5,-372.5 456.5,-372.5"/>
<text text-anchor="start" x="464.5" y="-390.5" font-family="Helvetica,sans-Serif" font-size="10.00">com.fs.starfarer.api.impl.campaign.terrain.</text>
<text text-anchor="middle" x="554" y="-379.5" font-family="Helvetica,sans-Serif" font-size="10.00">BaseTerrain</text>
</a>
</g>
</g>
<!-- Node4&#45;&gt;Node3 -->
<g id="edge3" class="edge">
<title>Node4&#45;&gt;Node3</title>
<path fill="none" stroke="midnightblue" d="M661.84,-385.69C691.88,-385.18 724.37,-384.63 753.78,-384.14"/>
<polygon fill="midnightblue" stroke="midnightblue" points="661.7,-382.19 651.76,-385.86 661.82,-389.19 661.7,-382.19"/>
</g>
<!-- Node5 -->
<g id="node5" class="node">
<title>Node5</title>
<g id="a_node5"><a xlink:href="interfacecom_1_1fs_1_1starfarer_1_1api_1_1campaign_1_1CampaignTerrainPlugin.html" target="_top" xlink:title=" ">
<polygon fill="none" stroke="black" points="206,-369.5 206,-399.5 352,-399.5 352,-369.5 206,-369.5"/>
<text text-anchor="start" x="214" y="-387.5" font-family="Helvetica,sans-Serif" font-size="10.00">com.fs.starfarer.api.campaign.</text>
<text text-anchor="middle" x="279" y="-376.5" font-family="Helvetica,sans-Serif" font-size="10.00">CampaignTerrainPlugin</text>
</a>
</g>
</g>
<!-- Node5&#45;&gt;Node4 -->
<g id="edge4" class="edge">
<title>Node5&#45;&gt;Node4</title>
<path fill="none" stroke="midnightblue" d="M362.37,-385.41C391.97,-385.73 425.62,-386.1 456.32,-386.44"/>
<polygon fill="midnightblue" stroke="midnightblue" points="362.12,-381.9 352.08,-385.29 362.05,-388.9 362.12,-381.9"/>
</g>
<!-- Node6 -->
<g id="node6" class="node">
<title>Node6</title>
<g id="a_node6"><a xlink:href="interfacecom_1_1fs_1_1starfarer_1_1api_1_1campaign_1_1SectorEntityToken.html" target="_top" xlink:title=" ">
<polygon fill="none" stroke="black" points="206,-427.5 206,-457.5 352,-457.5 352,-427.5 206,-427.5"/>
<text text-anchor="start" x="214" y="-445.5" font-family="Helvetica,sans-Serif" font-size="10.00">com.fs.starfarer.api.campaign.</text>
<text text-anchor="middle" x="279" y="-434.5" font-family="Helvetica,sans-Serif" font-size="10.00">SectorEntityToken</text>
</a>
</g>
</g>
<!-- Node6&#45;&gt;Node4 -->
<g id="edge5" class="edge">
<title>Node6&#45;&gt;Node4</title>
<path fill="none" stroke="#9a32cd" stroke-dasharray="5,2" d="M362.29,-425.92C399.11,-418.5 442.22,-409.82 478.13,-402.58"/>
<polygon fill="#9a32cd" stroke="#9a32cd" points="361.2,-422.57 352.08,-427.98 362.58,-429.43 361.2,-422.57"/>
<text text-anchor="middle" x="398" y="-425.5" font-family="Helvetica,sans-Serif" font-size="10.00"> entity</text>
</g>
<!-- Node10 -->
<g id="node10" class="node">
<title>Node10</title>
<g id="a_node10"><a xlink:href="classcom_1_1fs_1_1starfarer_1_1api_1_1impl_1_1campaign_1_1terrain_1_1BaseRingTerrain_1_1RingParams.html" target="_top" xlink:title=" ">
<polygon fill="none" stroke="black" points="456.5,-433.5 456.5,-463.5 651.5,-463.5 651.5,-433.5 456.5,-433.5"/>
<text text-anchor="start" x="464.5" y="-451.5" font-family="Helvetica,sans-Serif" font-size="10.00">com.fs.starfarer.api.impl.campaign.terrain.</text>
<text text-anchor="middle" x="554" y="-440.5" font-family="Helvetica,sans-Serif" font-size="10.00">BaseRingTerrain.RingParams</text>
</a>
</g>
</g>
<!-- Node6&#45;&gt;Node10 -->
<g id="edge10" class="edge">
<title>Node6&#45;&gt;Node10</title>
<path fill="none" stroke="#9a32cd" stroke-dasharray="5,2" d="M362.37,-444.31C391.97,-444.96 425.62,-445.7 456.32,-446.38"/>
<polygon fill="#9a32cd" stroke="#9a32cd" points="362.16,-440.8 352.08,-444.08 362.01,-447.8 362.16,-440.8"/>
<text text-anchor="middle" x="398" y="-448.5" font-family="Helvetica,sans-Serif" font-size="10.00"> relatedEntity</text>
</g>
<!-- Node7 -->
<g id="node7" class="node">
<title>Node7</title>
<g id="a_node7"><a xlink:href="interfacecom_1_1fs_1_1starfarer_1_1api_1_1campaign_1_1rules_1_1HasMemory.html" target="_top" xlink:title=" ">
<polygon fill="none" stroke="black" points="0,-427.5 0,-457.5 169,-457.5 169,-427.5 0,-427.5"/>
<text text-anchor="start" x="8" y="-445.5" font-family="Helvetica,sans-Serif" font-size="10.00">com.fs.starfarer.api.campaign.rules.</text>
<text text-anchor="middle" x="84.5" y="-434.5" font-family="Helvetica,sans-Serif" font-size="10.00">HasMemory</text>
</a>
</g>
</g>
<!-- Node7&#45;&gt;Node6 -->
<g id="edge6" class="edge">
<title>Node7&#45;&gt;Node6</title>
<path fill="none" stroke="midnightblue" d="M179.21,-442.5C188.2,-442.5 197.21,-442.5 205.95,-442.5"/>
<polygon fill="midnightblue" stroke="midnightblue" points="179.09,-439 169.09,-442.5 179.09,-446 179.09,-439"/>
</g>
<!-- Node8 -->
<g id="node8" class="node">
<title>Node8</title>
<g id="a_node8"><a xlink:href="interfacecom_1_1fs_1_1starfarer_1_1api_1_1loading_1_1TerrainSpecAPI.html" target="_top" xlink:title=" ">
<polygon fill="none" stroke="black" points="212,-320.5 212,-350.5 346,-350.5 346,-320.5 212,-320.5"/>
<text text-anchor="start" x="220" y="-338.5" font-family="Helvetica,sans-Serif" font-size="10.00">com.fs.starfarer.api.loading.</text>
<text text-anchor="middle" x="279" y="-327.5" font-family="Helvetica,sans-Serif" font-size="10.00">TerrainSpecAPI</text>
</a>
</g>
</g>
<!-- Node8&#45;&gt;Node4 -->
<g id="edge7" class="edge">
<title>Node8&#45;&gt;Node4</title>
<path fill="none" stroke="#9a32cd" stroke-dasharray="5,2" d="M356.23,-350.02C392.92,-357.01 436.87,-365.38 473.92,-372.44"/>
<polygon fill="#9a32cd" stroke="#9a32cd" points="356.56,-346.52 346.09,-348.09 355.25,-353.4 356.56,-346.52"/>
<text text-anchor="middle" x="398" y="-365.5" font-family="Helvetica,sans-Serif" font-size="10.00"> spec</text>
</g>
<!-- Node9 -->
<g id="node9" class="node">
<title>Node9</title>
<g id="a_node9"><a xlink:title=" ">
<polygon fill="none" stroke="#bfbfbf" points="457,-318.5 457,-348.5 651,-348.5 651,-318.5 457,-318.5"/>
<text text-anchor="start" x="465" y="-336.5" font-family="Helvetica,sans-Serif" font-size="10.00">EnumSet&lt; com.fs.starfarer.api.campaign.</text>
<text text-anchor="middle" x="554" y="-325.5" font-family="Helvetica,sans-Serif" font-size="10.00">CampaignEngineLayers &gt;</text>
</a>
</g>
</g>
<!-- Node9&#45;&gt;Node2 -->
<g id="edge13" class="edge">
<title>Node9&#45;&gt;Node2</title>
<path fill="none" stroke="#9a32cd" stroke-dasharray="5,2" d="M661.36,-333.66C741.35,-331.79 853.18,-324.95 949,-303.5 984.28,-295.6 991.99,-289.25 1025,-274.5 1055.42,-260.91 1089.22,-243.15 1112.16,-230.68"/>
<polygon fill="#9a32cd" stroke="#9a32cd" points="661.2,-330.16 651.27,-333.87 661.35,-337.16 661.2,-330.16"/>
<text text-anchor="middle" x="851.5" y="-331.5" font-family="Helvetica,sans-Serif" font-size="10.00"> layers</text>
</g>
<!-- Node9&#45;&gt;Node3 -->
<g id="edge8" class="edge">
<title>Node9&#45;&gt;Node3</title>
<path fill="none" stroke="#9a32cd" stroke-dasharray="5,2" d="M655.58,-350.18C689.43,-355.79 726.97,-362.02 760,-367.49"/>
<polygon fill="#9a32cd" stroke="#9a32cd" points="656.11,-346.72 645.67,-348.53 654.96,-353.62 656.11,-346.72"/>
<text text-anchor="middle" x="709" y="-364.5" font-family="Helvetica,sans-Serif" font-size="10.00"> layers</text>
</g>
<!-- Node10&#45;&gt;Node3 -->
<g id="edge9" class="edge">
<title>Node10&#45;&gt;Node3</title>
<path fill="none" stroke="#9a32cd" stroke-dasharray="5,2" d="M632.22,-431.25C679.03,-420.8 738.19,-407.58 783.11,-397.55"/>
<polygon fill="#9a32cd" stroke="#9a32cd" points="631.42,-427.85 622.42,-433.44 632.95,-434.68 631.42,-427.85"/>
<text text-anchor="middle" x="709" y="-421.5" font-family="Helvetica,sans-Serif" font-size="10.00"> params</text>
</g>
<!-- Node20 -->
<g id="node20" class="node">
<title>Node20</title>
<g id="a_node20"><a xlink:href="classcom_1_1fs_1_1starfarer_1_1api_1_1impl_1_1campaign_1_1terrain_1_1StarCoronaTerrainPlugin_1_1CoronaParams.html" target="_top" xlink:title=" ">
<polygon fill="none" stroke="black" points="754,-425.5 754,-455.5 949,-455.5 949,-425.5 754,-425.5"/>
<text text-anchor="start" x="762" y="-443.5" font-family="Helvetica,sans-Serif" font-size="10.00">com.fs.starfarer.api.impl.campaign.terrain.</text>
<text text-anchor="middle" x="851.5" y="-432.5" font-family="Helvetica,sans-Serif" font-size="10.00">StarCoronaTerrainPlugin.CoronaParams</text>
</a>
</g>
</g>
<!-- Node10&#45;&gt;Node20 -->
<g id="edge24" class="edge">
<title>Node10&#45;&gt;Node20</title>
<path fill="none" stroke="midnightblue" d="M661.84,-445.61C691.88,-444.79 724.37,-443.91 753.78,-443.12"/>
<polygon fill="midnightblue" stroke="midnightblue" points="661.66,-442.11 651.76,-445.88 661.85,-449.11 661.66,-442.11"/>
</g>
<!-- Node11 -->
<g id="node11" class="node">
<title>Node11</title>
<g id="a_node11"><a xlink:href="interfacecom_1_1fs_1_1starfarer_1_1api_1_1impl_1_1campaign_1_1terrain_1_1AuroraRenderer_1_1AuroraRendererDelegate.html" target="_top" xlink:title=" ">
<polygon fill="none" stroke="black" points="456.5,-242.5 456.5,-272.5 651.5,-272.5 651.5,-242.5 456.5,-242.5"/>
<text text-anchor="start" x="464.5" y="-260.5" font-family="Helvetica,sans-Serif" font-size="10.00">com.fs.starfarer.api.impl.campaign.terrain.</text>
<text text-anchor="middle" x="554" y="-249.5" font-family="Helvetica,sans-Serif" font-size="10.00">AuroraRenderer.AuroraRendererDelegate</text>
</a>
</g>
</g>
<!-- Node11&#45;&gt;Node2 -->
<g id="edge11" class="edge">
<title>Node11&#45;&gt;Node2</title>
<path fill="none" stroke="midnightblue" d="M661.53,-249.84C770.33,-242.03 937.76,-230 1042.84,-222.45"/>
<polygon fill="midnightblue" stroke="midnightblue" points="661.24,-246.36 651.52,-250.56 661.74,-253.34 661.24,-246.36"/>
</g>
<!-- Node19 -->
<g id="node19" class="node">
<title>Node19</title>
<g id="a_node19"><a xlink:href="classcom_1_1fs_1_1starfarer_1_1api_1_1impl_1_1campaign_1_1terrain_1_1AuroraRenderer.html" target="_top" xlink:title=" ">
<polygon fill="none" stroke="black" points="754,-263.5 754,-293.5 949,-293.5 949,-263.5 754,-263.5"/>
<text text-anchor="start" x="762" y="-281.5" font-family="Helvetica,sans-Serif" font-size="10.00">com.fs.starfarer.api.impl.campaign.terrain.</text>
<text text-anchor="middle" x="851.5" y="-270.5" font-family="Helvetica,sans-Serif" font-size="10.00">AuroraRenderer</text>
</a>
</g>
</g>
<!-- Node11&#45;&gt;Node19 -->
<g id="edge22" class="edge">
<title>Node11&#45;&gt;Node19</title>
<path fill="none" stroke="#9a32cd" stroke-dasharray="5,2" d="M661.84,-265.09C691.88,-267.23 724.37,-269.54 753.78,-271.63"/>
<polygon fill="#9a32cd" stroke="#9a32cd" points="661.98,-261.59 651.76,-264.38 661.48,-268.58 661.98,-261.59"/>
<text text-anchor="middle" x="709" y="-272.5" font-family="Helvetica,sans-Serif" font-size="10.00"> delegate</text>
</g>
<!-- Node12 -->
<g id="node12" class="node">
<title>Node12</title>
<g id="a_node12"><a xlink:href="interfacecom_1_1fs_1_1starfarer_1_1api_1_1impl_1_1campaign_1_1terrain_1_1FlareManager_1_1FlareManagerDelegate.html" target="_top" xlink:title=" ">
<polygon fill="none" stroke="black" points="456.5,-176.5 456.5,-206.5 651.5,-206.5 651.5,-176.5 456.5,-176.5"/>
<text text-anchor="start" x="464.5" y="-194.5" font-family="Helvetica,sans-Serif" font-size="10.00">com.fs.starfarer.api.impl.campaign.terrain.</text>
<text text-anchor="middle" x="554" y="-183.5" font-family="Helvetica,sans-Serif" font-size="10.00">FlareManager.FlareManagerDelegate</text>
</a>
</g>
</g>
<!-- Node12&#45;&gt;Node2 -->
<g id="edge12" class="edge">
<title>Node12&#45;&gt;Node2</title>
<path fill="none" stroke="midnightblue" d="M661.53,-195.87C770.33,-200.34 937.76,-207.22 1042.84,-211.53"/>
<polygon fill="midnightblue" stroke="midnightblue" points="661.65,-192.38 651.52,-195.46 661.37,-199.37 661.65,-192.38"/>
</g>
<!-- Node13 -->
<g id="node13" class="node">
<title>Node13</title>
<g id="a_node13"><a xlink:href="classcom_1_1fs_1_1starfarer_1_1api_1_1impl_1_1campaign_1_1terrain_1_1FlareManager.html" target="_top" xlink:title=" ">
<polygon fill="none" stroke="black" points="754,-137.5 754,-167.5 949,-167.5 949,-137.5 754,-137.5"/>
<text text-anchor="start" x="762" y="-155.5" font-family="Helvetica,sans-Serif" font-size="10.00">com.fs.starfarer.api.impl.campaign.terrain.</text>
<text text-anchor="middle" x="851.5" y="-144.5" font-family="Helvetica,sans-Serif" font-size="10.00">FlareManager</text>
</a>
</g>
</g>
<!-- Node12&#45;&gt;Node13 -->
<g id="edge17" class="edge">
<title>Node12&#45;&gt;Node13</title>
<path fill="none" stroke="#9a32cd" stroke-dasharray="5,2" d="M657.08,-175.02C665.5,-173.79 673.89,-172.6 682,-171.5 705.19,-168.37 730.23,-165.35 753.73,-162.67"/>
<polygon fill="#9a32cd" stroke="#9a32cd" points="656.56,-171.56 647.19,-176.5 657.59,-178.49 656.56,-171.56"/>
<text text-anchor="middle" x="709" y="-174.5" font-family="Helvetica,sans-Serif" font-size="10.00"> delegate</text>
</g>
<!-- Node13&#45;&gt;Node2 -->
<g id="edge14" class="edge">
<title>Node13&#45;&gt;Node2</title>
<path fill="none" stroke="#9a32cd" stroke-dasharray="5,2" d="M959.09,-159.9C981.07,-162.64 1003.93,-166.38 1025,-171.5 1053.56,-178.44 1084.6,-190.68 1107.15,-200.49"/>
<polygon fill="#9a32cd" stroke="#9a32cd" points="959.41,-156.42 949.07,-158.72 958.59,-163.37 959.41,-156.42"/>
<text text-anchor="middle" x="996" y="-174.5" font-family="Helvetica,sans-Serif" font-size="10.00"> flareManager</text>
</g>
<!-- Node14 -->
<g id="node14" class="node">
<title>Node14</title>
<g id="a_node14"><a xlink:title=" ">
<polygon fill="none" stroke="#bfbfbf" points="444,-121.5 444,-151.5 664,-151.5 664,-121.5 444,-121.5"/>
<text text-anchor="start" x="452" y="-139.5" font-family="Helvetica,sans-Serif" font-size="10.00">List&lt; com.fs.starfarer.api.impl.campaign.terrain.</text>
<text text-anchor="middle" x="554" y="-128.5" font-family="Helvetica,sans-Serif" font-size="10.00">FlareManager.Flare &gt;</text>
</a>
</g>
</g>
<!-- Node14&#45;&gt;Node13 -->
<g id="edge15" class="edge">
<title>Node14&#45;&gt;Node13</title>
<path fill="none" stroke="#9a32cd" stroke-dasharray="5,2" d="M674.25,-135.05C694.86,-135.4 716.06,-136.14 736,-137.5 741.8,-137.89 747.76,-138.39 753.76,-138.96"/>
<polygon fill="#9a32cd" stroke="#9a32cd" points="674.24,-131.55 664.19,-134.91 674.14,-138.55 674.24,-131.55"/>
<text text-anchor="middle" x="709" y="-140.5" font-family="Helvetica,sans-Serif" font-size="10.00"> flares</text>
</g>
<!-- Node15 -->
<g id="node15" class="node">
<title>Node15</title>
<g id="a_node15"><a xlink:href="classcom_1_1fs_1_1starfarer_1_1api_1_1util_1_1IntervalUtil.html" target="_top" xlink:title=" ">
<polygon fill="none" stroke="black" points="496,-72.5 496,-102.5 612,-102.5 612,-72.5 496,-72.5"/>
<text text-anchor="start" x="504" y="-90.5" font-family="Helvetica,sans-Serif" font-size="10.00">com.fs.starfarer.api.util.</text>
<text text-anchor="middle" x="554" y="-79.5" font-family="Helvetica,sans-Serif" font-size="10.00">IntervalUtil</text>
</a>
</g>
</g>
<!-- Node15&#45;&gt;Node13 -->
<g id="edge16" class="edge">
<title>Node15&#45;&gt;Node13</title>
<path fill="none" stroke="#9a32cd" stroke-dasharray="5,2" d="M622.07,-95.39C656.58,-100.44 699.06,-108.21 736,-119.5 744.37,-122.06 745.73,-124.61 754,-127.5 764.38,-131.12 775.54,-134.49 786.47,-137.5"/>
<polygon fill="#9a32cd" stroke="#9a32cd" points="622.48,-91.91 612.09,-93.97 621.5,-98.84 622.48,-91.91"/>
<text text-anchor="middle" x="709" y="-122.5" font-family="Helvetica,sans-Serif" font-size="10.00"> flareTracker</text>
</g>
<!-- Node16 -->
<g id="node16" class="node">
<title>Node16</title>
<g id="a_node16"><a xlink:title=" ">
<polygon fill="none" stroke="#bfbfbf" points="832,-99 832,-118 871,-118 871,-99 832,-99"/>
<text text-anchor="middle" x="851.5" y="-106" font-family="Helvetica,sans-Serif" font-size="10.00">Color</text>
</a>
</g>
</g>
<!-- Node16&#45;&gt;Node2 -->
<g id="edge18" class="edge">
<title>Node16&#45;&gt;Node2</title>
<path fill="none" stroke="#9a32cd" stroke-dasharray="5,2" d="M880.95,-114.27C900.18,-118.21 926.14,-123.57 949,-128.5 982.84,-135.79 992.91,-132.52 1025,-145.5 1060.42,-159.83 1097.45,-184.53 1119.49,-200.43"/>
<polygon fill="#9a32cd" stroke="#9a32cd" points="881.52,-110.82 871.02,-112.25 880.12,-117.68 881.52,-110.82"/>
<text text-anchor="middle" x="996" y="-148.5" font-family="Helvetica,sans-Serif" font-size="10.00"> color</text>
</g>
<!-- Node17 -->
<g id="node17" class="node">
<title>Node17</title>
<g id="a_node17"><a xlink:href="classcom_1_1fs_1_1starfarer_1_1api_1_1impl_1_1campaign_1_1terrain_1_1RangeBlockerUtil.html" target="_top" xlink:title=" ">
<polygon fill="none" stroke="black" points="754,-49.5 754,-79.5 949,-79.5 949,-49.5 754,-49.5"/>
<text text-anchor="start" x="762" y="-67.5" font-family="Helvetica,sans-Serif" font-size="10.00">com.fs.starfarer.api.impl.campaign.terrain.</text>
<text text-anchor="middle" x="851.5" y="-56.5" font-family="Helvetica,sans-Serif" font-size="10.00">RangeBlockerUtil</text>
</a>
</g>
</g>
<!-- Node17&#45;&gt;Node2 -->
<g id="edge19" class="edge">
<title>Node17&#45;&gt;Node2</title>
<path fill="none" stroke="#9a32cd" stroke-dasharray="5,2" d="M923.91,-82.25C932.4,-84.58 940.91,-87.02 949,-89.5 983.27,-100.01 994.02,-98.47 1025,-116.5 1065.65,-140.16 1105.44,-179.14 1125.69,-200.44"/>
<polygon fill="#9a32cd" stroke="#9a32cd" points="924.55,-78.79 913.99,-79.57 922.73,-85.55 924.55,-78.79"/>
<text text-anchor="middle" x="996" y="-119.5" font-family="Helvetica,sans-Serif" font-size="10.00"> blocker</text>
</g>
<!-- Node18 -->
<g id="node18" class="node">
<title>Node18</title>
<g id="a_node18"><a xlink:href="interfacecom_1_1fs_1_1starfarer_1_1api_1_1graphics_1_1SpriteAPI.html" target="_top" xlink:title=" ">
<polygon fill="none" stroke="black" points="781.5,-0.5 781.5,-30.5 921.5,-30.5 921.5,-0.5 781.5,-0.5"/>
<text text-anchor="start" x="789.5" y="-18.5" font-family="Helvetica,sans-Serif" font-size="10.00">com.fs.starfarer.api.graphics.</text>
<text text-anchor="middle" x="851.5" y="-7.5" font-family="Helvetica,sans-Serif" font-size="10.00">SpriteAPI</text>
</a>
</g>
</g>
<!-- Node18&#45;&gt;Node2 -->
<g id="edge20" class="edge">
<title>Node18&#45;&gt;Node2</title>
<path fill="none" stroke="#9a32cd" stroke-dasharray="5,2" d="M931.69,-33.47C937.6,-35.33 943.43,-37.34 949,-39.5 984.79,-53.35 995.18,-56.34 1025,-80.5 1070.13,-117.07 1111.03,-173.23 1129.35,-200.11"/>
<polygon fill="#9a32cd" stroke="#9a32cd" points="932.27,-29.99 921.69,-30.46 930.26,-36.69 932.27,-29.99"/>
<text text-anchor="middle" x="996" y="-83.5" font-family="Helvetica,sans-Serif" font-size="10.00"> texture</text>
</g>
<!-- Node19&#45;&gt;Node2 -->
<g id="edge21" class="edge">
<title>Node19&#45;&gt;Node2</title>
<path fill="none" stroke="#9a32cd" stroke-dasharray="5,2" d="M959.11,-261.82C980.99,-257.88 1003.81,-253.38 1025,-248.5 1047.07,-243.42 1071.21,-236.64 1091.61,-230.56"/>
<polygon fill="#9a32cd" stroke="#9a32cd" points="958.36,-258.4 949.13,-263.6 959.59,-265.29 958.36,-258.4"/>
<text text-anchor="middle" x="996" y="-262.5" font-family="Helvetica,sans-Serif" font-size="10.00"> renderer</text>
</g>
<!-- Node20&#45;&gt;Node2 -->
<g id="edge23" class="edge">
<title>Node20&#45;&gt;Node2</title>
<path fill="none" stroke="#9a32cd" stroke-dasharray="5,2" d="M923.03,-422.34C956.56,-411.14 995.63,-394.11 1025,-369.5 1074.54,-327.98 1114.75,-260.95 1131.32,-230.92"/>
<polygon fill="#9a32cd" stroke="#9a32cd" points="921.72,-419.08 913.28,-425.49 923.87,-425.75 921.72,-419.08"/>
<text text-anchor="middle" x="996" y="-406.5" font-family="Helvetica,sans-Serif" font-size="10.00"> params</text>
</g>
</g>
</svg>
