<?xml version="1.0" encoding="UTF-8" standalone="no"?>
<!DOCTYPE svg PUBLIC "-//W3C//DTD SVG 1.1//EN"
 "http://www.w3.org/Graphics/SVG/1.1/DTD/svg11.dtd">
<!-- Generated by graphviz version 12.2.0 (20241103.1931)
 -->
<!-- Title: com.fs.starfarer.api.impl.campaign.terrain.BaseRingTerrain Pages: 1 -->
<svg width="1075pt" height="431pt"
 viewBox="0.00 0.00 1075.00 430.50" xmlns="http://www.w3.org/2000/svg" xmlns:xlink="http://www.w3.org/1999/xlink">
<g id="graph0" class="graph" transform="scale(1 1) rotate(0) translate(4 426.5)">
<title>com.fs.starfarer.api.impl.campaign.terrain.BaseRingTerrain</title>
<!-- Node1 -->
<g id="Node000001" class="node">
<title>Node1</title>
<g id="a_Node000001"><a xlink:title=" ">
<polygon fill="#999999" stroke="#666666" points="606,-250.5 411.5,-250.5 411.5,-220 606,-220 606,-250.5"/>
<text text-anchor="start" x="419.5" y="-237" font-family="Helvetica,sans-Serif" font-size="10.00">com.fs.starfarer.api.impl.campaign.terrain.</text>
<text text-anchor="middle" x="508.75" y="-225.75" font-family="Helvetica,sans-Serif" font-size="10.00">BaseRingTerrain</text>
</a>
</g>
</g>
<!-- Node4 -->
<g id="Node000004" class="node">
<title>Node4</title>
<g id="a_Node000004"><a xlink:href="classcom_1_1fs_1_1starfarer_1_1api_1_1impl_1_1campaign_1_1terrain_1_1AsteroidBeltTerrainPlugin.html" target="_top" xlink:title=" ">
<polygon fill="white" stroke="#666666" points="836.5,-422.5 642,-422.5 642,-392 836.5,-392 836.5,-422.5"/>
<text text-anchor="start" x="650" y="-409" font-family="Helvetica,sans-Serif" font-size="10.00">com.fs.starfarer.api.impl.campaign.terrain.</text>
<text text-anchor="middle" x="739.25" y="-397.75" font-family="Helvetica,sans-Serif" font-size="10.00">AsteroidBeltTerrainPlugin</text>
</a>
</g>
</g>
<!-- Node1&#45;&gt;Node4 -->
<g id="edge3_Node000001_Node000004" class="edge">
<title>Node1&#45;&gt;Node4</title>
<g id="a_edge3_Node000001_Node000004"><a xlink:title=" ">
<path fill="none" stroke="#63b8ff" d="M525.37,-260.26C547.31,-293.28 590.43,-350.9 642,-382.25 647.9,-385.84 654.31,-388.91 660.92,-391.55"/>
<polygon fill="#63b8ff" stroke="#63b8ff" points="528.46,-258.6 520.08,-252.12 522.6,-262.41 528.46,-258.6"/>
</a>
</g>
</g>
<!-- Node6 -->
<g id="Node000006" class="node">
<title>Node6</title>
<g id="a_Node000006"><a xlink:href="classcom_1_1fs_1_1starfarer_1_1api_1_1impl_1_1campaign_1_1terrain_1_1DebrisFieldTerrainPlugin.html" target="_top" xlink:title=" ">
<polygon fill="white" stroke="#666666" points="836.5,-373.5 642,-373.5 642,-343 836.5,-343 836.5,-373.5"/>
<text text-anchor="start" x="650" y="-360" font-family="Helvetica,sans-Serif" font-size="10.00">com.fs.starfarer.api.impl.campaign.terrain.</text>
<text text-anchor="middle" x="739.25" y="-348.75" font-family="Helvetica,sans-Serif" font-size="10.00">DebrisFieldTerrainPlugin</text>
</a>
</g>
</g>
<!-- Node1&#45;&gt;Node6 -->
<g id="edge5_Node000001_Node000006" class="edge">
<title>Node1&#45;&gt;Node6</title>
<g id="a_edge5_Node000001_Node000006"><a xlink:title=" ">
<path fill="none" stroke="#63b8ff" d="M534.89,-258.55C560.16,-280.79 601.13,-313.71 642,-333.25 649.4,-336.79 657.37,-339.87 665.43,-342.55"/>
<polygon fill="#63b8ff" stroke="#63b8ff" points="537.23,-255.96 527.45,-251.9 532.57,-261.17 537.23,-255.96"/>
</a>
</g>
</g>
<!-- Node7 -->
<g id="Node000007" class="node">
<title>Node7</title>
<g id="a_Node000007"><a xlink:href="classcom_1_1fs_1_1starfarer_1_1api_1_1impl_1_1campaign_1_1terrain_1_1MagneticFieldTerrainPlugin.html" target="_top" xlink:title=" ">
<polygon fill="white" stroke="#666666" points="836.5,-324.5 642,-324.5 642,-294 836.5,-294 836.5,-324.5"/>
<text text-anchor="start" x="650" y="-311" font-family="Helvetica,sans-Serif" font-size="10.00">com.fs.starfarer.api.impl.campaign.terrain.</text>
<text text-anchor="middle" x="739.25" y="-299.75" font-family="Helvetica,sans-Serif" font-size="10.00">MagneticFieldTerrainPlugin</text>
</a>
</g>
</g>
<!-- Node1&#45;&gt;Node7 -->
<g id="edge6_Node000001_Node000007" class="edge">
<title>Node1&#45;&gt;Node7</title>
<g id="a_edge6_Node000001_Node000007"><a xlink:title=" ">
<path fill="none" stroke="#63b8ff" d="M559.56,-255.06C584.17,-264.49 614.43,-275.59 642,-284.25 652.29,-287.48 663.3,-290.63 674.05,-293.54"/>
<polygon fill="#63b8ff" stroke="#63b8ff" points="561.03,-251.87 550.44,-251.53 558.51,-258.4 561.03,-251.87"/>
</a>
</g>
</g>
<!-- Node8 -->
<g id="Node000008" class="node">
<title>Node8</title>
<g id="a_Node000008"><a xlink:href="classcom_1_1fs_1_1starfarer_1_1api_1_1impl_1_1campaign_1_1terrain_1_1PulsarBeamTerrainPlugin.html" target="_top" xlink:title=" ">
<polygon fill="white" stroke="#666666" points="836.5,-275.5 642,-275.5 642,-245 836.5,-245 836.5,-275.5"/>
<text text-anchor="start" x="650" y="-262" font-family="Helvetica,sans-Serif" font-size="10.00">com.fs.starfarer.api.impl.campaign.terrain.</text>
<text text-anchor="middle" x="739.25" y="-250.75" font-family="Helvetica,sans-Serif" font-size="10.00">PulsarBeamTerrainPlugin</text>
</a>
</g>
</g>
<!-- Node1&#45;&gt;Node8 -->
<g id="edge7_Node000001_Node000008" class="edge">
<title>Node1&#45;&gt;Node8</title>
<g id="a_edge7_Node000001_Node000008"><a xlink:title=" ">
<path fill="none" stroke="#63b8ff" d="M617.62,-247.05C625.64,-247.93 633.71,-248.81 641.66,-249.68"/>
<polygon fill="#63b8ff" stroke="#63b8ff" points="618.15,-243.59 607.83,-245.98 617.39,-250.55 618.15,-243.59"/>
</a>
</g>
</g>
<!-- Node9 -->
<g id="Node000009" class="node">
<title>Node9</title>
<g id="a_Node000009"><a xlink:href="classcom_1_1fs_1_1starfarer_1_1api_1_1impl_1_1campaign_1_1terrain_1_1RadioChatterTerrainPlugin.html" target="_top" xlink:title=" ">
<polygon fill="white" stroke="#666666" points="836.5,-226.5 642,-226.5 642,-196 836.5,-196 836.5,-226.5"/>
<text text-anchor="start" x="650" y="-213" font-family="Helvetica,sans-Serif" font-size="10.00">com.fs.starfarer.api.impl.campaign.terrain.</text>
<text text-anchor="middle" x="739.25" y="-201.75" font-family="Helvetica,sans-Serif" font-size="10.00">RadioChatterTerrainPlugin</text>
</a>
</g>
</g>
<!-- Node1&#45;&gt;Node9 -->
<g id="edge8_Node000001_Node000009" class="edge">
<title>Node1&#45;&gt;Node9</title>
<g id="a_edge8_Node000001_Node000009"><a xlink:title=" ">
<path fill="none" stroke="#63b8ff" d="M617.62,-223.92C625.64,-223.08 633.71,-222.23 641.66,-221.4"/>
<polygon fill="#63b8ff" stroke="#63b8ff" points="617.41,-220.42 607.83,-224.95 618.14,-227.38 617.41,-220.42"/>
</a>
</g>
</g>
<!-- Node10 -->
<g id="Node000010" class="node">
<title>Node10</title>
<g id="a_Node000010"><a xlink:href="classcom_1_1fs_1_1starfarer_1_1api_1_1impl_1_1campaign_1_1terrain_1_1RingSystemTerrainPlugin.html" target="_top" xlink:title=" ">
<polygon fill="white" stroke="#666666" points="836.5,-177.5 642,-177.5 642,-147 836.5,-147 836.5,-177.5"/>
<text text-anchor="start" x="650" y="-164" font-family="Helvetica,sans-Serif" font-size="10.00">com.fs.starfarer.api.impl.campaign.terrain.</text>
<text text-anchor="middle" x="739.25" y="-152.75" font-family="Helvetica,sans-Serif" font-size="10.00">RingSystemTerrainPlugin</text>
</a>
</g>
</g>
<!-- Node1&#45;&gt;Node10 -->
<g id="edge9_Node000001_Node000010" class="edge">
<title>Node1&#45;&gt;Node10</title>
<g id="a_edge9_Node000001_Node000010"><a xlink:title=" ">
<path fill="none" stroke="#63b8ff" d="M560.41,-215.6C584.88,-206.43 614.77,-195.71 642,-187.25 652.39,-184.02 663.49,-180.87 674.33,-177.95"/>
<polygon fill="#63b8ff" stroke="#63b8ff" points="559.47,-212.21 551.35,-219.02 561.94,-218.76 559.47,-212.21"/>
</a>
</g>
</g>
<!-- Node11 -->
<g id="Node000011" class="node">
<title>Node11</title>
<g id="a_Node000011"><a xlink:href="classcom_1_1fs_1_1starfarer_1_1api_1_1impl_1_1campaign_1_1terrain_1_1SpatialAnomalyTerrainPlugin.html" target="_top" xlink:title=" ">
<polygon fill="white" stroke="#666666" points="836.5,-128.5 642,-128.5 642,-98 836.5,-98 836.5,-128.5"/>
<text text-anchor="start" x="650" y="-115" font-family="Helvetica,sans-Serif" font-size="10.00">com.fs.starfarer.api.impl.campaign.terrain.</text>
<text text-anchor="middle" x="739.25" y="-103.75" font-family="Helvetica,sans-Serif" font-size="10.00">SpatialAnomalyTerrainPlugin</text>
</a>
</g>
</g>
<!-- Node1&#45;&gt;Node11 -->
<g id="edge10_Node000001_Node000011" class="edge">
<title>Node1&#45;&gt;Node11</title>
<g id="a_edge10_Node000001_Node000011"><a xlink:title=" ">
<path fill="none" stroke="#63b8ff" d="M534.93,-212.2C560.24,-190.2 601.23,-157.62 642,-138.25 649.41,-134.73 657.38,-131.66 665.45,-128.98"/>
<polygon fill="#63b8ff" stroke="#63b8ff" points="532.66,-209.53 527.48,-218.78 537.3,-214.78 532.66,-209.53"/>
</a>
</g>
</g>
<!-- Node12 -->
<g id="Node000012" class="node">
<title>Node12</title>
<g id="a_Node000012"><a xlink:href="classcom_1_1fs_1_1starfarer_1_1api_1_1impl_1_1campaign_1_1terrain_1_1StarCoronaTerrainPlugin.html" target="_top" xlink:title=" ">
<polygon fill="white" stroke="#666666" points="836.5,-79.5 642,-79.5 642,-49 836.5,-49 836.5,-79.5"/>
<text text-anchor="start" x="650" y="-66" font-family="Helvetica,sans-Serif" font-size="10.00">com.fs.starfarer.api.impl.campaign.terrain.</text>
<text text-anchor="middle" x="739.25" y="-54.75" font-family="Helvetica,sans-Serif" font-size="10.00">StarCoronaTerrainPlugin</text>
</a>
</g>
</g>
<!-- Node1&#45;&gt;Node12 -->
<g id="edge11_Node000001_Node000012" class="edge">
<title>Node1&#45;&gt;Node12</title>
<g id="a_edge11_Node000001_Node000012"><a xlink:title=" ">
<path fill="none" stroke="#63b8ff" d="M525.41,-210.42C547.4,-177.62 590.57,-120.39 642,-89.25 647.91,-85.67 654.32,-82.6 660.93,-79.97"/>
<polygon fill="#63b8ff" stroke="#63b8ff" points="522.67,-208.21 520.11,-218.49 528.52,-212.05 522.67,-208.21"/>
</a>
</g>
</g>
<!-- Node2 -->
<g id="Node000002" class="node">
<title>Node2</title>
<g id="a_Node000002"><a xlink:href="classcom_1_1fs_1_1starfarer_1_1api_1_1impl_1_1campaign_1_1terrain_1_1BaseTerrain.html" target="_top" xlink:title=" ">
<polygon fill="white" stroke="#666666" points="375.5,-250.5 181,-250.5 181,-220 375.5,-220 375.5,-250.5"/>
<text text-anchor="start" x="189" y="-237" font-family="Helvetica,sans-Serif" font-size="10.00">com.fs.starfarer.api.impl.campaign.terrain.</text>
<text text-anchor="middle" x="278.25" y="-225.75" font-family="Helvetica,sans-Serif" font-size="10.00">BaseTerrain</text>
</a>
</g>
</g>
<!-- Node2&#45;&gt;Node1 -->
<g id="edge1_Node000001_Node000002" class="edge">
<title>Node2&#45;&gt;Node1</title>
<g id="a_edge1_Node000001_Node000002"><a xlink:title=" ">
<path fill="none" stroke="#63b8ff" d="M387.12,-235.25C395.14,-235.25 403.21,-235.25 411.16,-235.25"/>
<polygon fill="#63b8ff" stroke="#63b8ff" points="387.34,-231.75 377.34,-235.25 387.34,-238.75 387.34,-231.75"/>
</a>
</g>
</g>
<!-- Node3 -->
<g id="Node000003" class="node">
<title>Node3</title>
<g id="a_Node000003"><a xlink:href="interfacecom_1_1fs_1_1starfarer_1_1api_1_1campaign_1_1CampaignTerrainPlugin.html" target="_top" xlink:title=" ">
<polygon fill="white" stroke="#666666" points="145,-250.5 0,-250.5 0,-220 145,-220 145,-250.5"/>
<text text-anchor="start" x="8" y="-237" font-family="Helvetica,sans-Serif" font-size="10.00">com.fs.starfarer.api.campaign.</text>
<text text-anchor="middle" x="72.5" y="-225.75" font-family="Helvetica,sans-Serif" font-size="10.00">CampaignTerrainPlugin</text>
</a>
</g>
</g>
<!-- Node3&#45;&gt;Node2 -->
<g id="edge2_Node000002_Node000003" class="edge">
<title>Node3&#45;&gt;Node2</title>
<g id="a_edge2_Node000002_Node000003"><a xlink:title=" ">
<path fill="none" stroke="#63b8ff" d="M156.77,-235.25C164.67,-235.25 172.72,-235.25 180.72,-235.25"/>
<polygon fill="#63b8ff" stroke="#63b8ff" points="156.85,-231.75 146.85,-235.25 156.85,-238.75 156.85,-231.75"/>
</a>
</g>
</g>
<!-- Node5 -->
<g id="Node000005" class="node">
<title>Node5</title>
<g id="a_Node000005"><a xlink:href="classcom_1_1fs_1_1starfarer_1_1api_1_1impl_1_1campaign_1_1terrain_1_1AsteroidFieldTerrainPlugin.html" target="_top" xlink:title=" ">
<polygon fill="white" stroke="#666666" points="1067,-422.5 872.5,-422.5 872.5,-392 1067,-392 1067,-422.5"/>
<text text-anchor="start" x="880.5" y="-409" font-family="Helvetica,sans-Serif" font-size="10.00">com.fs.starfarer.api.impl.campaign.terrain.</text>
<text text-anchor="middle" x="969.75" y="-397.75" font-family="Helvetica,sans-Serif" font-size="10.00">AsteroidFieldTerrainPlugin</text>
</a>
</g>
</g>
<!-- Node4&#45;&gt;Node5 -->
<g id="edge4_Node000004_Node000005" class="edge">
<title>Node4&#45;&gt;Node5</title>
<g id="a_edge4_Node000004_Node000005"><a xlink:title=" ">
<path fill="none" stroke="#63b8ff" d="M848.12,-407.25C856.14,-407.25 864.21,-407.25 872.16,-407.25"/>
<polygon fill="#63b8ff" stroke="#63b8ff" points="848.34,-403.75 838.34,-407.25 848.34,-410.75 848.34,-403.75"/>
</a>
</g>
</g>
<!-- Node13 -->
<g id="Node000013" class="node">
<title>Node13</title>
<g id="a_Node000013"><a xlink:href="classcom_1_1fs_1_1starfarer_1_1api_1_1impl_1_1campaign_1_1terrain_1_1EventHorizonPlugin.html" target="_top" xlink:title=" ">
<polygon fill="white" stroke="#666666" points="1067,-128.5 872.5,-128.5 872.5,-98 1067,-98 1067,-128.5"/>
<text text-anchor="start" x="880.5" y="-115" font-family="Helvetica,sans-Serif" font-size="10.00">com.fs.starfarer.api.impl.campaign.terrain.</text>
<text text-anchor="middle" x="969.75" y="-103.75" font-family="Helvetica,sans-Serif" font-size="10.00">EventHorizonPlugin</text>
</a>
</g>
</g>
<!-- Node12&#45;&gt;Node13 -->
<g id="edge12_Node000012_Node000013" class="edge">
<title>Node12&#45;&gt;Node13</title>
<g id="a_edge12_Node000012_Node000013"><a xlink:title=" ">
<path fill="none" stroke="#63b8ff" d="M824.74,-82.37C847.98,-87.35 872.98,-92.71 895.53,-97.55"/>
<polygon fill="#63b8ff" stroke="#63b8ff" points="825.48,-78.95 814.97,-80.27 824.02,-85.79 825.48,-78.95"/>
</a>
</g>
</g>
<!-- Node14 -->
<g id="Node000014" class="node">
<title>Node14</title>
<g id="a_Node000014"><a xlink:href="classcom_1_1fs_1_1starfarer_1_1api_1_1impl_1_1campaign_1_1terrain_1_1StarCoronaAkaMainyuTerrainPlugin.html" target="_top" xlink:title=" ">
<polygon fill="white" stroke="#666666" points="1067,-79.5 872.5,-79.5 872.5,-49 1067,-49 1067,-79.5"/>
<text text-anchor="start" x="880.5" y="-66" font-family="Helvetica,sans-Serif" font-size="10.00">com.fs.starfarer.api.impl.campaign.terrain.</text>
<text text-anchor="middle" x="969.75" y="-54.75" font-family="Helvetica,sans-Serif" font-size="10.00">StarCoronaAkaMainyuTerrainPlugin</text>
</a>
</g>
</g>
<!-- Node12&#45;&gt;Node14 -->
<g id="edge13_Node000012_Node000014" class="edge">
<title>Node12&#45;&gt;Node14</title>
<g id="a_edge13_Node000012_Node000014"><a xlink:title=" ">
<path fill="none" stroke="#63b8ff" d="M848.12,-64.25C856.14,-64.25 864.21,-64.25 872.16,-64.25"/>
<polygon fill="#63b8ff" stroke="#63b8ff" points="848.34,-60.75 838.34,-64.25 848.34,-67.75 848.34,-60.75"/>
</a>
</g>
</g>
<!-- Node15 -->
<g id="Node000015" class="node">
<title>Node15</title>
<g id="a_Node000015"><a xlink:href="classcom_1_1fs_1_1starfarer_1_1api_1_1impl_1_1campaign_1_1terrain_1_1StarCoronaJetTerrainPlugin.html" target="_top" xlink:title=" ">
<polygon fill="white" stroke="#666666" points="1067,-30.5 872.5,-30.5 872.5,0 1067,0 1067,-30.5"/>
<text text-anchor="start" x="880.5" y="-17" font-family="Helvetica,sans-Serif" font-size="10.00">com.fs.starfarer.api.impl.campaign.terrain.</text>
<text text-anchor="middle" x="969.75" y="-5.75" font-family="Helvetica,sans-Serif" font-size="10.00">StarCoronaJetTerrainPlugin</text>
</a>
</g>
</g>
<!-- Node12&#45;&gt;Node15 -->
<g id="edge14_Node000012_Node000015" class="edge">
<title>Node12&#45;&gt;Node15</title>
<g id="a_edge14_Node000012_Node000015"><a xlink:title=" ">
<path fill="none" stroke="#63b8ff" d="M824.74,-46.13C847.98,-41.15 872.98,-35.79 895.53,-30.95"/>
<polygon fill="#63b8ff" stroke="#63b8ff" points="824.02,-42.71 814.97,-48.23 825.48,-49.55 824.02,-42.71"/>
</a>
</g>
</g>
</g>
</svg>
