<?xml version="1.0" encoding="UTF-8" standalone="no"?>
<!DOCTYPE svg PUBLIC "-//W3C//DTD SVG 1.1//EN"
 "http://www.w3.org/Graphics/SVG/1.1/DTD/svg11.dtd">
<!-- Generated by graphviz version 7.0.5 (20221223.1930)
 -->
<!-- Title: com.fs.starfarer.api.impl.campaign.SmugglingScanScript Pages: 1 -->
<svg width="779pt" height="146pt"
 viewBox="0.00 0.00 779.00 146.00" xmlns="http://www.w3.org/2000/svg" xmlns:xlink="http://www.w3.org/1999/xlink">
<g id="graph0" class="graph" transform="scale(1 1) rotate(0) translate(4 142)">
<title>com.fs.starfarer.api.impl.campaign.SmugglingScanScript</title>
<!-- Node1 -->
<g id="node1" class="node">
<title>Node1</title>
<g id="a_node1"><a xlink:title=" ">
<polygon fill="#999999" stroke="#666666" points="771,-90 605,-90 605,-60 771,-60 771,-90"/>
<text text-anchor="start" x="613" y="-78" font-family="Helvetica,sans-Serif" font-size="10.00">com.fs.starfarer.api.impl.campaign.</text>
<text text-anchor="middle" x="688" y="-67" font-family="Helvetica,sans-Serif" font-size="10.00">SmugglingScanScript</text>
</a>
</g>
</g>
<!-- Node2 -->
<g id="node2" class="node">
<title>Node2</title>
<g id="a_node2"><a xlink:href="interfacecom_1_1fs_1_1starfarer_1_1api_1_1EveryFrameScript.html" target="_top" xlink:title=" ">
<polygon fill="white" stroke="#bfbfbf" points="524.5,-138 399.5,-138 399.5,-108 524.5,-108 524.5,-138"/>
<text text-anchor="start" x="407.5" y="-126" font-family="Helvetica,sans-Serif" font-size="10.00">com.fs.starfarer.api.Every</text>
<text text-anchor="middle" x="462" y="-115" font-family="Helvetica,sans-Serif" font-size="10.00">FrameScript</text>
</a>
</g>
</g>
<!-- Node2&#45;&gt;Node1 -->
<g id="edge1" class="edge">
<title>Node2&#45;&gt;Node1</title>
<path fill="none" stroke="#63b8ff" d="M535.81,-107.4C561.1,-101.98 589.44,-95.91 614.69,-90.49"/>
<polygon fill="#63b8ff" stroke="#63b8ff" points="535.33,-103.92 526.28,-109.44 536.79,-110.77 535.33,-103.92"/>
</g>
<!-- Node3 -->
<g id="node3" class="node">
<title>Node3</title>
<g id="a_node3"><a xlink:href="classcom_1_1fs_1_1starfarer_1_1api_1_1util_1_1IntervalUtil.html" target="_top" xlink:title=" ">
<polygon fill="white" stroke="#bfbfbf" points="520,-90 404,-90 404,-60 520,-60 520,-90"/>
<text text-anchor="start" x="412" y="-78" font-family="Helvetica,sans-Serif" font-size="10.00">com.fs.starfarer.api.util.</text>
<text text-anchor="middle" x="462" y="-67" font-family="Helvetica,sans-Serif" font-size="10.00">IntervalUtil</text>
</a>
</g>
</g>
<!-- Node3&#45;&gt;Node1 -->
<g id="edge2" class="edge">
<title>Node3&#45;&gt;Node1</title>
<path fill="none" stroke="#9a32cd" stroke-dasharray="5,2" d="M531.82,-75C554.89,-75 580.84,-75 604.83,-75"/>
<polygon fill="#9a32cd" stroke="#9a32cd" points="531.91,-71.5 521.91,-75 531.91,-78.5 531.91,-71.5"/>
<text text-anchor="middle" x="570" y="-78" font-family="Helvetica,sans-Serif" font-size="10.00"> interval</text>
</g>
<!-- Node4 -->
<g id="node4" class="node">
<title>Node4</title>
<g id="a_node4"><a xlink:href="interfacecom_1_1fs_1_1starfarer_1_1api_1_1campaign_1_1CampaignFleetAPI.html" target="_top" xlink:title=" ">
<polygon fill="white" stroke="#666666" points="535,-42 389,-42 389,-12 535,-12 535,-42"/>
<text text-anchor="start" x="397" y="-30" font-family="Helvetica,sans-Serif" font-size="10.00">com.fs.starfarer.api.campaign.</text>
<text text-anchor="middle" x="462" y="-19" font-family="Helvetica,sans-Serif" font-size="10.00">CampaignFleetAPI</text>
</a>
</g>
</g>
<!-- Node4&#45;&gt;Node1 -->
<g id="edge3" class="edge">
<title>Node4&#45;&gt;Node1</title>
<path fill="none" stroke="#9a32cd" stroke-dasharray="5,2" d="M546.07,-44.8C568.72,-49.65 593.05,-54.87 615.03,-59.58"/>
<polygon fill="#9a32cd" stroke="#9a32cd" points="547.1,-41.44 536.59,-42.77 545.63,-48.29 547.1,-41.44"/>
<text text-anchor="middle" x="570" y="-56" font-family="Helvetica,sans-Serif" font-size="10.00"> curr</text>
</g>
<!-- Node5 -->
<g id="node5" class="node">
<title>Node5</title>
<g id="a_node5"><a xlink:href="interfacecom_1_1fs_1_1starfarer_1_1api_1_1campaign_1_1SectorEntityToken.html" target="_top" xlink:title=" ">
<polygon fill="white" stroke="#666666" points="352,-78 206,-78 206,-48 352,-48 352,-78"/>
<text text-anchor="start" x="214" y="-66" font-family="Helvetica,sans-Serif" font-size="10.00">com.fs.starfarer.api.campaign.</text>
<text text-anchor="middle" x="279" y="-55" font-family="Helvetica,sans-Serif" font-size="10.00">SectorEntityToken</text>
</a>
</g>
</g>
<!-- Node5&#45;&gt;Node4 -->
<g id="edge4" class="edge">
<title>Node5&#45;&gt;Node4</title>
<path fill="none" stroke="#63b8ff" d="M363.59,-46.37C371.91,-44.72 380.31,-43.05 388.5,-41.42"/>
<polygon fill="#63b8ff" stroke="#63b8ff" points="362.93,-42.94 353.8,-48.32 364.29,-49.8 362.93,-42.94"/>
</g>
<!-- Node6 -->
<g id="node6" class="node">
<title>Node6</title>
<g id="a_node6"><a xlink:href="interfacecom_1_1fs_1_1starfarer_1_1api_1_1campaign_1_1rules_1_1HasMemory.html" target="_top" xlink:title=" ">
<polygon fill="white" stroke="#bfbfbf" points="169,-78 0,-78 0,-48 169,-48 169,-78"/>
<text text-anchor="start" x="8" y="-66" font-family="Helvetica,sans-Serif" font-size="10.00">com.fs.starfarer.api.campaign.rules.</text>
<text text-anchor="middle" x="84.5" y="-55" font-family="Helvetica,sans-Serif" font-size="10.00">HasMemory</text>
</a>
</g>
</g>
<!-- Node6&#45;&gt;Node5 -->
<g id="edge5" class="edge">
<title>Node6&#45;&gt;Node5</title>
<path fill="none" stroke="#63b8ff" d="M180.73,-63C189.08,-63 197.44,-63 205.56,-63"/>
<polygon fill="#63b8ff" stroke="#63b8ff" points="180.89,-59.5 170.89,-63 180.89,-66.5 180.89,-59.5"/>
</g>
<!-- Node7 -->
<g id="node7" class="node">
<title>Node7</title>
<g id="a_node7"><a xlink:href="interfacecom_1_1fs_1_1starfarer_1_1api_1_1campaign_1_1FleetOrStubAPI.html" target="_top" xlink:title=" ">
<polygon fill="white" stroke="#bfbfbf" points="352,-30 206,-30 206,0 352,0 352,-30"/>
<text text-anchor="start" x="214" y="-18" font-family="Helvetica,sans-Serif" font-size="10.00">com.fs.starfarer.api.campaign.</text>
<text text-anchor="middle" x="279" y="-7" font-family="Helvetica,sans-Serif" font-size="10.00">FleetOrStubAPI</text>
</a>
</g>
</g>
<!-- Node7&#45;&gt;Node4 -->
<g id="edge6" class="edge">
<title>Node7&#45;&gt;Node4</title>
<path fill="none" stroke="#63b8ff" d="M363.59,-20.54C371.91,-21.09 380.31,-21.65 388.5,-22.19"/>
<polygon fill="#63b8ff" stroke="#63b8ff" points="364.04,-17.06 353.83,-19.89 363.57,-24.05 364.04,-17.06"/>
</g>
</g>
</svg>
