<?xml version="1.0" encoding="UTF-8" standalone="no"?>
<!DOCTYPE svg PUBLIC "-//W3C//DTD SVG 1.1//EN"
 "http://www.w3.org/Graphics/SVG/1.1/DTD/svg11.dtd">
<!-- Generated by graphviz version 7.0.5 (20221223.1930)
 -->
<!-- Title: com.fs.starfarer.api.impl.campaign.missions.hub.HubMissionWithSearch.SystemInDirectionFrom Pages: 1 -->
<svg width="780pt" height="76pt"
 viewBox="0.00 0.00 780.00 75.50" xmlns="http://www.w3.org/2000/svg" xmlns:xlink="http://www.w3.org/1999/xlink">
<g id="graph0" class="graph" transform="scale(1 1) rotate(0) translate(4 71.5)">
<title>com.fs.starfarer.api.impl.campaign.missions.hub.HubMissionWithSearch.SystemInDirectionFrom</title>
<!-- Node1 -->
<g id="node1" class="node">
<title>Node1</title>
<g id="a_node1"><a xlink:title=" ">
<polygon fill="#999999" stroke="#666666" points="772,-37.5 547,-37.5 547,-7.5 772,-7.5 772,-37.5"/>
<text text-anchor="start" x="555" y="-25.5" font-family="Helvetica,sans-Serif" font-size="10.00">com.fs.starfarer.api.impl.campaign.missions.hub.</text>
<text text-anchor="middle" x="659.5" y="-14.5" font-family="Helvetica,sans-Serif" font-size="10.00">HubMissionWithSearch.SystemInDirectionFrom</text>
</a>
</g>
</g>
<!-- Node2 -->
<g id="node2" class="node">
<title>Node2</title>
<g id="a_node2"><a xlink:href="interfacecom_1_1fs_1_1starfarer_1_1api_1_1impl_1_1campaign_1_1missions_1_1hub_1_1HubMissionWithSearch_1_1StarSystemRequirement.html" target="_top" xlink:title=" ">
<polygon fill="white" stroke="#bfbfbf" points="489,-67.5 262,-67.5 262,-37.5 489,-37.5 489,-67.5"/>
<text text-anchor="start" x="270" y="-55.5" font-family="Helvetica,sans-Serif" font-size="10.00">com.fs.starfarer.api.impl.campaign.missions.hub.</text>
<text text-anchor="middle" x="375.5" y="-44.5" font-family="Helvetica,sans-Serif" font-size="10.00">HubMissionWithSearch.StarSystemRequirement</text>
</a>
</g>
</g>
<!-- Node2&#45;&gt;Node1 -->
<g id="edge1" class="edge">
<title>Node2&#45;&gt;Node1</title>
<path fill="none" stroke="#63b8ff" d="M500.39,-39.32C515.88,-37.67 531.64,-36 546.93,-34.37"/>
<polygon fill="#63b8ff" stroke="#63b8ff" points="500.25,-35.82 490.67,-40.35 500.99,-42.78 500.25,-35.82"/>
</g>
<!-- Node3 -->
<g id="node3" class="node">
<title>Node3</title>
<g id="a_node3"><a xlink:href="interfacecom_1_1fs_1_1starfarer_1_1api_1_1impl_1_1campaign_1_1missions_1_1hub_1_1HubMissionWithSearch_1_1GenericRequirement.html" target="_top" xlink:title=" ">
<polygon fill="white" stroke="#bfbfbf" points="225,-67.5 0,-67.5 0,-37.5 225,-37.5 225,-67.5"/>
<text text-anchor="start" x="8" y="-55.5" font-family="Helvetica,sans-Serif" font-size="10.00">com.fs.starfarer.api.impl.campaign.missions.hub.</text>
<text text-anchor="middle" x="112.5" y="-44.5" font-family="Helvetica,sans-Serif" font-size="10.00">HubMissionWithSearch.GenericRequirement</text>
</a>
</g>
</g>
<!-- Node3&#45;&gt;Node2 -->
<g id="edge2" class="edge">
<title>Node3&#45;&gt;Node2</title>
<path fill="none" stroke="#63b8ff" d="M236.66,-52.5C245,-52.5 253.38,-52.5 261.66,-52.5"/>
<polygon fill="#63b8ff" stroke="#63b8ff" points="236.84,-49 226.84,-52.5 236.84,-56 236.84,-49"/>
</g>
<!-- Node4 -->
<g id="node4" class="node">
<title>Node4</title>
<g id="a_node4"><a xlink:title=" ">
<polygon fill="white" stroke="#bfbfbf" points="402,-19 349,-19 349,0 402,0 402,-19"/>
<text text-anchor="middle" x="375.5" y="-7" font-family="Helvetica,sans-Serif" font-size="10.00">Vector2f</text>
</a>
</g>
</g>
<!-- Node4&#45;&gt;Node1 -->
<g id="edge3" class="edge">
<title>Node4&#45;&gt;Node1</title>
<path fill="none" stroke="#9a32cd" stroke-dasharray="5,2" d="M413.22,-11.19C447.13,-12.76 499.28,-15.16 546.8,-17.35"/>
<polygon fill="#9a32cd" stroke="#9a32cd" points="413.69,-7.71 403.53,-10.75 413.36,-14.7 413.69,-7.71"/>
<text text-anchor="middle" x="518" y="-19.5" font-family="Helvetica,sans-Serif" font-size="10.00"> from</text>
</g>
</g>
</svg>
