<?xml version="1.0" encoding="UTF-8" standalone="no"?>
<!DOCTYPE svg PUBLIC "-//W3C//DTD SVG 1.1//EN"
 "http://www.w3.org/Graphics/SVG/1.1/DTD/svg11.dtd">
<!-- Generated by graphviz version 9.0.0 (20230911.1827)
 -->
<!-- Title: com.fs.starfarer.api.impl.campaign.rulecmd.salvage.DemandCargo Pages: 1 -->
<svg width="665pt" height="88pt"
 viewBox="0.00 0.00 665.25 87.50" xmlns="http://www.w3.org/2000/svg" xmlns:xlink="http://www.w3.org/1999/xlink">
<g id="graph0" class="graph" transform="scale(1 1) rotate(0) translate(4 83.5)">
<title>com.fs.starfarer.api.impl.campaign.rulecmd.salvage.DemandCargo</title>
<!-- Node1 -->
<g id="Node000001" class="node">
<title>Node1</title>
<g id="a_Node000001"><a xlink:title=" ">
<polygon fill="#999999" stroke="#666666" points="657.25,-43.5 419.25,-43.5 419.25,-13 657.25,-13 657.25,-43.5"/>
<text text-anchor="start" x="427.25" y="-30" font-family="Helvetica,sans-Serif" font-size="10.00">com.fs.starfarer.api.impl.campaign.rulecmd.salvage.</text>
<text text-anchor="middle" x="538.25" y="-18.75" font-family="Helvetica,sans-Serif" font-size="10.00">DemandCargo</text>
</a>
</g>
</g>
<!-- Node2 -->
<g id="Node000002" class="node">
<title>Node2</title>
<g id="a_Node000002"><a xlink:href="classcom_1_1fs_1_1starfarer_1_1api_1_1impl_1_1campaign_1_1rulecmd_1_1BaseCommandPlugin.html" target="_top" xlink:title=" ">
<polygon fill="white" stroke="#666666" points="344.25,-79.5 142.25,-79.5 142.25,-49 344.25,-49 344.25,-79.5"/>
<text text-anchor="start" x="150.25" y="-66" font-family="Helvetica,sans-Serif" font-size="10.00">com.fs.starfarer.api.impl.campaign.rulecmd.</text>
<text text-anchor="middle" x="243.25" y="-54.75" font-family="Helvetica,sans-Serif" font-size="10.00">BaseCommandPlugin</text>
</a>
</g>
</g>
<!-- Node2&#45;&gt;Node1 -->
<g id="edge1_Node000001_Node000002" class="edge">
<title>Node2&#45;&gt;Node1</title>
<g id="a_edge1_Node000001_Node000002"><a xlink:title=" ">
<path fill="none" stroke="#63b8ff" d="M355.98,-50.52C376.52,-48 398.04,-45.35 418.78,-42.81"/>
<polygon fill="#63b8ff" stroke="#63b8ff" points="355.67,-47.03 346.18,-51.73 356.53,-53.98 355.67,-47.03"/>
</a>
</g>
</g>
<!-- Node3 -->
<g id="Node000003" class="node">
<title>Node3</title>
<g id="a_Node000003"><a xlink:title=" ">
<polygon fill="white" stroke="#666666" points="87.25,-73.88 0,-73.88 0,-54.62 87.25,-54.62 87.25,-73.88"/>
<text text-anchor="middle" x="43.62" y="-60.38" font-family="Helvetica,sans-Serif" font-size="10.00">CommandPlugin</text>
</a>
</g>
</g>
<!-- Node3&#45;&gt;Node2 -->
<g id="edge2_Node000002_Node000003" class="edge">
<title>Node3&#45;&gt;Node2</title>
<g id="a_edge2_Node000002_Node000003"><a xlink:title=" ">
<path fill="none" stroke="#63b8ff" d="M98.89,-64.25C112.28,-64.25 127.05,-64.25 141.87,-64.25"/>
<polygon fill="#63b8ff" stroke="#63b8ff" points="99.02,-60.75 89.02,-64.25 99.02,-67.75 99.02,-60.75"/>
</a>
</g>
</g>
<!-- Node4 -->
<g id="Node000004" class="node">
<title>Node4</title>
<g id="a_Node000004"><a xlink:title=" ">
<polygon fill="white" stroke="#666666" points="362.25,-30.5 124.25,-30.5 124.25,0 362.25,0 362.25,-30.5"/>
<text text-anchor="start" x="132.25" y="-17" font-family="Helvetica,sans-Serif" font-size="10.00">com.fs.starfarer.api.impl.campaign.rulecmd.salvage.</text>
<text text-anchor="middle" x="243.25" y="-5.75" font-family="Helvetica,sans-Serif" font-size="10.00">DemandCargo.DemandData</text>
</a>
</g>
</g>
<!-- Node4&#45;&gt;Node1 -->
<g id="edge3_Node000001_Node000004" class="edge">
<title>Node4&#45;&gt;Node1</title>
<g id="a_edge3_Node000001_Node000004"><a xlink:title=" ">
<path fill="none" stroke="#9a32cd" stroke-dasharray="5,2" d="M373.97,-21.01C388.94,-21.67 404.15,-22.34 418.95,-23"/>
<polygon fill="#9a32cd" stroke="#9a32cd" points="374.24,-17.51 364.09,-20.57 373.93,-24.51 374.24,-17.51"/>
</a>
</g>
<text text-anchor="middle" x="390.75" y="-24" font-family="Helvetica,sans-Serif" font-size="10.00" fill="grey"> data</text>
</g>
</g>
</svg>
