<?xml version="1.0" encoding="UTF-8" standalone="no"?>
<!DOCTYPE svg PUBLIC "-//W3C//DTD SVG 1.1//EN"
 "http://www.w3.org/Graphics/SVG/1.1/DTD/svg11.dtd">
<!-- Generated by graphviz version 7.0.5 (20221223.1930)
 -->
<!-- Title: com.fs.starfarer.api.impl.combat.dem.DEMScript Pages: 1 -->
<svg width="717pt" height="86pt"
 viewBox="0.00 0.00 717.00 86.00" xmlns="http://www.w3.org/2000/svg" xmlns:xlink="http://www.w3.org/1999/xlink">
<g id="graph0" class="graph" transform="scale(1 1) rotate(0) translate(4 82)">
<title>com.fs.starfarer.api.impl.combat.dem.DEMScript</title>
<!-- Node1 -->
<g id="node1" class="node">
<title>Node1</title>
<g id="a_node1"><a xlink:title=" ">
<polygon fill="#999999" stroke="#666666" points="709,-54 532,-54 532,-24 709,-24 709,-54"/>
<text text-anchor="start" x="540" y="-42" font-family="Helvetica,sans-Serif" font-size="10.00">com.fs.starfarer.api.impl.combat.dem.</text>
<text text-anchor="middle" x="620.5" y="-31" font-family="Helvetica,sans-Serif" font-size="10.00">DEMScript</text>
</a>
</g>
</g>
<!-- Node2 -->
<g id="node2" class="node">
<title>Node2</title>
<g id="a_node2"><a xlink:href="classcom_1_1fs_1_1starfarer_1_1api_1_1combat_1_1BaseEveryFrameCombatPlugin.html" target="_top" xlink:title=" ">
<polygon fill="white" stroke="#bfbfbf" points="496,-78 344,-78 344,-48 496,-48 496,-78"/>
<text text-anchor="start" x="352" y="-66" font-family="Helvetica,sans-Serif" font-size="10.00">com.fs.starfarer.api.combat.</text>
<text text-anchor="middle" x="420" y="-55" font-family="Helvetica,sans-Serif" font-size="10.00">BaseEveryFrameCombatPlugin</text>
</a>
</g>
</g>
<!-- Node2&#45;&gt;Node1 -->
<g id="edge1" class="edge">
<title>Node2&#45;&gt;Node1</title>
<path fill="none" stroke="#63b8ff" d="M507.51,-52.54C515.49,-51.58 523.58,-50.6 531.57,-49.63"/>
<polygon fill="#63b8ff" stroke="#63b8ff" points="507.34,-49.04 497.83,-53.71 508.18,-55.99 507.34,-49.04"/>
</g>
<!-- Node3 -->
<g id="node3" class="node">
<title>Node3</title>
<g id="a_node3"><a xlink:href="interfacecom_1_1fs_1_1starfarer_1_1api_1_1combat_1_1EveryFrameCombatPlugin.html" target="_top" xlink:title=" ">
<polygon fill="white" stroke="#bfbfbf" points="308,-78 172,-78 172,-48 308,-48 308,-78"/>
<text text-anchor="start" x="180" y="-66" font-family="Helvetica,sans-Serif" font-size="10.00">com.fs.starfarer.api.combat.</text>
<text text-anchor="middle" x="240" y="-55" font-family="Helvetica,sans-Serif" font-size="10.00">EveryFrameCombatPlugin</text>
</a>
</g>
</g>
<!-- Node3&#45;&gt;Node2 -->
<g id="edge2" class="edge">
<title>Node3&#45;&gt;Node2</title>
<path fill="none" stroke="#63b8ff" d="M319.77,-63C327.68,-63 335.69,-63 343.56,-63"/>
<polygon fill="#63b8ff" stroke="#63b8ff" points="319.81,-59.5 309.81,-63 319.81,-66.5 319.81,-59.5"/>
</g>
<!-- Node4 -->
<g id="node4" class="node">
<title>Node4</title>
<g id="a_node4"><a xlink:href="interfacecom_1_1fs_1_1starfarer_1_1api_1_1combat_1_1CombatEnginePlugin.html" target="_top" xlink:title=" ">
<polygon fill="white" stroke="#666666" points="136,-78 0,-78 0,-48 136,-48 136,-78"/>
<text text-anchor="start" x="8" y="-66" font-family="Helvetica,sans-Serif" font-size="10.00">com.fs.starfarer.api.combat.</text>
<text text-anchor="middle" x="68" y="-55" font-family="Helvetica,sans-Serif" font-size="10.00">CombatEnginePlugin</text>
</a>
</g>
</g>
<!-- Node4&#45;&gt;Node3 -->
<g id="edge3" class="edge">
<title>Node4&#45;&gt;Node3</title>
<path fill="none" stroke="#63b8ff" d="M147.54,-63C155.63,-63 163.79,-63 171.74,-63"/>
<polygon fill="#63b8ff" stroke="#63b8ff" points="147.7,-59.5 137.7,-63 147.7,-66.5 147.7,-59.5"/>
</g>
<!-- Node5 -->
<g id="node5" class="node">
<title>Node5</title>
<g id="a_node5"><a xlink:href="interfacecom_1_1fs_1_1starfarer_1_1api_1_1combat_1_1MissileAIPlugin.html" target="_top" xlink:title=" ">
<polygon fill="white" stroke="#666666" points="488,-30 352,-30 352,0 488,0 488,-30"/>
<text text-anchor="start" x="360" y="-18" font-family="Helvetica,sans-Serif" font-size="10.00">com.fs.starfarer.api.combat.</text>
<text text-anchor="middle" x="420" y="-7" font-family="Helvetica,sans-Serif" font-size="10.00">MissileAIPlugin</text>
</a>
</g>
</g>
<!-- Node5&#45;&gt;Node1 -->
<g id="edge4" class="edge">
<title>Node5&#45;&gt;Node1</title>
<path fill="none" stroke="#63b8ff" d="M499.76,-24.52C510.29,-25.8 521.15,-27.11 531.82,-28.4"/>
<polygon fill="#63b8ff" stroke="#63b8ff" points="500.33,-21.07 489.98,-23.34 499.49,-28.02 500.33,-21.07"/>
</g>
</g>
</svg>
