<?xml version="1.0" encoding="UTF-8" standalone="no"?>
<!DOCTYPE svg PUBLIC "-//W3C//DTD SVG 1.1//EN"
 "http://www.w3.org/Graphics/SVG/1.1/DTD/svg11.dtd">
<!-- Generated by graphviz version 7.0.5 (20221223.1930)
 -->
<!-- Title: com.fs.starfarer.api.impl.campaign.events.nearby.NearbyEventsEvent Pages: 1 -->
<svg width="921pt" height="110pt"
 viewBox="0.00 0.00 921.00 110.00" xmlns="http://www.w3.org/2000/svg" xmlns:xlink="http://www.w3.org/1999/xlink">
<g id="graph0" class="graph" transform="scale(1 1) rotate(0) translate(4 106)">
<title>com.fs.starfarer.api.impl.campaign.events.nearby.NearbyEventsEvent</title>
<!-- Node1 -->
<g id="node1" class="node">
<title>Node1</title>
<g id="a_node1"><a xlink:title=" ">
<polygon fill="#999999" stroke="#666666" points="913,-54 685,-54 685,-24 913,-24 913,-54"/>
<text text-anchor="start" x="693" y="-42" font-family="Helvetica,sans-Serif" font-size="10.00">com.fs.starfarer.api.impl.campaign.events.nearby.</text>
<text text-anchor="middle" x="799" y="-31" font-family="Helvetica,sans-Serif" font-size="10.00">NearbyEventsEvent</text>
</a>
</g>
</g>
<!-- Node2 -->
<g id="node2" class="node">
<title>Node2</title>
<g id="a_node2"><a xlink:href="classcom_1_1fs_1_1starfarer_1_1api_1_1impl_1_1campaign_1_1events_1_1BaseEventPlugin.html" target="_top" xlink:title=" ">
<polygon fill="white" stroke="#666666" points="649,-78 452,-78 452,-48 649,-48 649,-78"/>
<text text-anchor="start" x="460" y="-66" font-family="Helvetica,sans-Serif" font-size="10.00">com.fs.starfarer.api.impl.campaign.events.</text>
<text text-anchor="middle" x="550.5" y="-55" font-family="Helvetica,sans-Serif" font-size="10.00">BaseEventPlugin</text>
</a>
</g>
</g>
<!-- Node2&#45;&gt;Node1 -->
<g id="edge1" class="edge">
<title>Node2&#45;&gt;Node1</title>
<path fill="none" stroke="#63b8ff" d="M660.6,-52.38C668.66,-51.59 676.79,-50.8 684.87,-50.01"/>
<polygon fill="#63b8ff" stroke="#63b8ff" points="660.4,-48.88 650.78,-53.33 661.08,-55.85 660.4,-48.88"/>
</g>
<!-- Node3 -->
<g id="node3" class="node">
<title>Node3</title>
<g id="a_node3"><a xlink:href="interfacecom_1_1fs_1_1starfarer_1_1api_1_1campaign_1_1events_1_1CampaignEventPlugin.html" target="_top" xlink:title=" ">
<polygon fill="white" stroke="#666666" points="416,-102 239,-102 239,-72 416,-72 416,-102"/>
<text text-anchor="start" x="247" y="-90" font-family="Helvetica,sans-Serif" font-size="10.00">com.fs.starfarer.api.campaign.events.</text>
<text text-anchor="middle" x="327.5" y="-79" font-family="Helvetica,sans-Serif" font-size="10.00">CampaignEventPlugin</text>
</a>
</g>
</g>
<!-- Node3&#45;&gt;Node2 -->
<g id="edge2" class="edge">
<title>Node3&#45;&gt;Node2</title>
<path fill="none" stroke="#63b8ff" d="M427.67,-76.23C435.64,-75.37 443.68,-74.49 451.64,-73.63"/>
<polygon fill="#63b8ff" stroke="#63b8ff" points="427.55,-72.72 417.98,-77.28 428.3,-79.68 427.55,-72.72"/>
</g>
<!-- Node4 -->
<g id="node4" class="node">
<title>Node4</title>
<g id="a_node4"><a xlink:title=" ">
<polygon fill="white" stroke="#666666" points="203,-102 0,-102 0,-72 203,-72 203,-102"/>
<text text-anchor="start" x="8" y="-90" font-family="Helvetica,sans-Serif" font-size="10.00">com.fs.starfarer.api.impl.campaign.rulecmd.</text>
<text text-anchor="middle" x="101.5" y="-79" font-family="Helvetica,sans-Serif" font-size="10.00">CallEvent.CallableEvent</text>
</a>
</g>
</g>
<!-- Node4&#45;&gt;Node3 -->
<g id="edge3" class="edge">
<title>Node4&#45;&gt;Node3</title>
<path fill="none" stroke="#63b8ff" d="M214.66,-87C222.67,-87 230.68,-87 238.52,-87"/>
<polygon fill="#63b8ff" stroke="#63b8ff" points="214.87,-83.5 204.87,-87 214.87,-90.5 214.87,-83.5"/>
</g>
<!-- Node5 -->
<g id="node5" class="node">
<title>Node5</title>
<g id="a_node5"><a xlink:href="interfacecom_1_1fs_1_1starfarer_1_1api_1_1campaign_1_1CampaignEventListener.html" target="_top" xlink:title=" ">
<polygon fill="white" stroke="#666666" points="400.5,-54 254.5,-54 254.5,-24 400.5,-24 400.5,-54"/>
<text text-anchor="start" x="262.5" y="-42" font-family="Helvetica,sans-Serif" font-size="10.00">com.fs.starfarer.api.campaign.</text>
<text text-anchor="middle" x="327.5" y="-31" font-family="Helvetica,sans-Serif" font-size="10.00">CampaignEventListener</text>
</a>
</g>
</g>
<!-- Node5&#45;&gt;Node2 -->
<g id="edge4" class="edge">
<title>Node5&#45;&gt;Node2</title>
<path fill="none" stroke="#63b8ff" d="M412.07,-48.08C425.01,-49.48 438.46,-50.94 451.68,-52.38"/>
<polygon fill="#63b8ff" stroke="#63b8ff" points="412.69,-44.62 402.37,-47.02 411.93,-51.58 412.69,-44.62"/>
</g>
<!-- Node6 -->
<g id="node6" class="node">
<title>Node6</title>
<g id="a_node6"><a xlink:title=" ">
<polygon fill="white" stroke="#666666" points="646,-30 455,-30 455,0 646,0 646,-30"/>
<text text-anchor="start" x="463" y="-18" font-family="Helvetica,sans-Serif" font-size="10.00">com.fs.starfarer.api.impl.campaign.fleets.</text>
<text text-anchor="middle" x="550.5" y="-7" font-family="Helvetica,sans-Serif" font-size="10.00">RouteManager.RouteFleetSpawner</text>
</a>
</g>
</g>
<!-- Node6&#45;&gt;Node1 -->
<g id="edge5" class="edge">
<title>Node6&#45;&gt;Node1</title>
<path fill="none" stroke="#63b8ff" d="M657.66,-25.34C666.57,-26.2 675.6,-27.08 684.56,-27.96"/>
<polygon fill="#63b8ff" stroke="#63b8ff" points="658.25,-21.88 647.96,-24.39 657.57,-28.84 658.25,-21.88"/>
</g>
</g>
</svg>
