<?xml version="1.0" encoding="UTF-8" standalone="no"?>
<!DOCTYPE svg PUBLIC "-//W3C//DTD SVG 1.1//EN"
 "http://www.w3.org/Graphics/SVG/1.1/DTD/svg11.dtd">
<!-- Generated by graphviz version 9.0.0 (20230911.1827)
 -->
<!-- Title: com.fs.starfarer.api.impl.campaign.ghosts.GBLeviathanCalfRun Pages: 1 -->
<svg width="670pt" height="76pt"
 viewBox="0.00 0.00 670.25 75.88" xmlns="http://www.w3.org/2000/svg" xmlns:xlink="http://www.w3.org/1999/xlink">
<g id="graph0" class="graph" transform="scale(1 1) rotate(0) translate(4 71.88)">
<title>com.fs.starfarer.api.impl.campaign.ghosts.GBLeviathanCalfRun</title>
<!-- Node1 -->
<g id="Node000001" class="node">
<title>Node1</title>
<g id="a_Node000001"><a xlink:title=" ">
<polygon fill="#999999" stroke="#666666" points="662.25,-45.88 465.5,-45.88 465.5,-15.37 662.25,-15.37 662.25,-45.88"/>
<text text-anchor="start" x="473.5" y="-32.38" font-family="Helvetica,sans-Serif" font-size="10.00">com.fs.starfarer.api.impl.campaign.ghosts.</text>
<text text-anchor="middle" x="563.88" y="-21.12" font-family="Helvetica,sans-Serif" font-size="10.00">GBLeviathanCalfRun</text>
</a>
</g>
</g>
<!-- Node2 -->
<g id="Node000002" class="node">
<title>Node2</title>
<g id="a_Node000002"><a xlink:href="classcom_1_1fs_1_1starfarer_1_1api_1_1impl_1_1campaign_1_1ghosts_1_1BaseGhostBehavior.html" target="_top" xlink:title=" ">
<polygon fill="white" stroke="#666666" points="429.5,-67.88 232.75,-67.88 232.75,-37.38 429.5,-37.38 429.5,-67.88"/>
<text text-anchor="start" x="240.75" y="-54.38" font-family="Helvetica,sans-Serif" font-size="10.00">com.fs.starfarer.api.impl.campaign.ghosts.</text>
<text text-anchor="middle" x="331.12" y="-43.12" font-family="Helvetica,sans-Serif" font-size="10.00">BaseGhostBehavior</text>
</a>
</g>
</g>
<!-- Node2&#45;&gt;Node1 -->
<g id="edge1_Node000001_Node000002" class="edge">
<title>Node2&#45;&gt;Node1</title>
<g id="a_edge1_Node000001_Node000002"><a xlink:title=" ">
<path fill="none" stroke="#63b8ff" d="M441.26,-42.22C449.26,-41.46 457.3,-40.69 465.23,-39.93"/>
<polygon fill="#63b8ff" stroke="#63b8ff" points="441.11,-38.72 431.49,-43.15 441.78,-45.69 441.11,-38.72"/>
</a>
</g>
</g>
<!-- Node3 -->
<g id="Node000003" class="node">
<title>Node3</title>
<g id="a_Node000003"><a xlink:href="interfacecom_1_1fs_1_1starfarer_1_1api_1_1impl_1_1campaign_1_1ghosts_1_1GhostBehavior.html" target="_top" xlink:title=" ">
<polygon fill="white" stroke="#666666" points="196.75,-67.88 0,-67.88 0,-37.38 196.75,-37.38 196.75,-67.88"/>
<text text-anchor="start" x="8" y="-54.38" font-family="Helvetica,sans-Serif" font-size="10.00">com.fs.starfarer.api.impl.campaign.ghosts.</text>
<text text-anchor="middle" x="98.38" y="-43.12" font-family="Helvetica,sans-Serif" font-size="10.00">GhostBehavior</text>
</a>
</g>
</g>
<!-- Node3&#45;&gt;Node2 -->
<g id="edge2_Node000002_Node000003" class="edge">
<title>Node3&#45;&gt;Node2</title>
<g id="a_edge2_Node000002_Node000003"><a xlink:title=" ">
<path fill="none" stroke="#63b8ff" d="M208.51,-52.62C216.51,-52.62 224.55,-52.62 232.48,-52.62"/>
<polygon fill="#63b8ff" stroke="#63b8ff" points="208.75,-49.13 198.75,-52.63 208.75,-56.13 208.75,-49.13"/>
</a>
</g>
</g>
<!-- Node4 -->
<g id="Node000004" class="node">
<title>Node4</title>
<g id="a_Node000004"><a xlink:title=" ">
<polygon fill="white" stroke="#666666" points="404.38,-19.25 257.88,-19.25 257.88,0 404.38,0 404.38,-19.25"/>
<text text-anchor="middle" x="331.12" y="-5.75" font-family="Helvetica,sans-Serif" font-size="10.00">GhostBehaviorWithSlipstream</text>
</a>
</g>
</g>
<!-- Node4&#45;&gt;Node1 -->
<g id="edge3_Node000001_Node000004" class="edge">
<title>Node4&#45;&gt;Node1</title>
<g id="a_edge3_Node000001_Node000004"><a xlink:title=" ">
<path fill="none" stroke="#63b8ff" d="M416.23,-17.28C432.14,-18.73 448.91,-20.25 465.19,-21.74"/>
<polygon fill="#63b8ff" stroke="#63b8ff" points="416.6,-13.8 406.33,-16.38 415.97,-20.77 416.6,-13.8"/>
</a>
</g>
</g>
</g>
</svg>
