<?xml version="1.0" encoding="UTF-8" standalone="no"?>
<!DOCTYPE svg PUBLIC "-//W3C//DTD SVG 1.1//EN"
 "http://www.w3.org/Graphics/SVG/1.1/DTD/svg11.dtd">
<!-- Generated by graphviz version 12.2.0 (20241103.1931)
 -->
<!-- Title: com.fs.starfarer.api.impl.campaign.procgen.themes.RuinsFleetRouteManager Pages: 1 -->
<svg width="766pt" height="186pt"
 viewBox="0.00 0.00 765.50 185.50" xmlns="http://www.w3.org/2000/svg" xmlns:xlink="http://www.w3.org/1999/xlink">
<g id="graph0" class="graph" transform="scale(1 1) rotate(0) translate(4 181.5)">
<title>com.fs.starfarer.api.impl.campaign.procgen.themes.RuinsFleetRouteManager</title>
<!-- Node1 -->
<g id="Node000001" class="node">
<title>Node1</title>
<g id="a_Node000001"><a xlink:title=" ">
<polygon fill="#999999" stroke="#666666" points="757.5,-78.5 521,-78.5 521,-48 757.5,-48 757.5,-78.5"/>
<text text-anchor="start" x="529" y="-65" font-family="Helvetica,sans-Serif" font-size="10.00">com.fs.starfarer.api.impl.campaign.procgen.themes.</text>
<text text-anchor="middle" x="639.25" y="-53.75" font-family="Helvetica,sans-Serif" font-size="10.00">RuinsFleetRouteManager</text>
</a>
</g>
</g>
<!-- Node2 -->
<g id="Node000002" class="node">
<title>Node2</title>
<g id="a_Node000002"><a xlink:href="classcom_1_1fs_1_1starfarer_1_1api_1_1impl_1_1campaign_1_1fleets_1_1BaseRouteFleetManager.html" target="_top" xlink:title=" ">
<polygon fill="white" stroke="#666666" points="451.25,-115.5 260.5,-115.5 260.5,-85 451.25,-85 451.25,-115.5"/>
<text text-anchor="start" x="268.5" y="-102" font-family="Helvetica,sans-Serif" font-size="10.00">com.fs.starfarer.api.impl.campaign.fleets.</text>
<text text-anchor="middle" x="355.88" y="-90.75" font-family="Helvetica,sans-Serif" font-size="10.00">BaseRouteFleetManager</text>
</a>
</g>
</g>
<!-- Node2&#45;&gt;Node1 -->
<g id="edge1_Node000001_Node000002" class="edge">
<title>Node2&#45;&gt;Node1</title>
<g id="a_edge1_Node000001_Node000002"><a xlink:title=" ">
<path fill="none" stroke="#63b8ff" d="M463.05,-86.29C481.92,-83.81 501.67,-81.21 520.83,-78.69"/>
<polygon fill="#63b8ff" stroke="#63b8ff" points="462.7,-82.8 453.24,-87.58 463.62,-89.74 462.7,-82.8"/>
</a>
</g>
</g>
<!-- Node3 -->
<g id="Node000003" class="node">
<title>Node3</title>
<g id="a_Node000003"><a xlink:href="interfacecom_1_1fs_1_1starfarer_1_1api_1_1EveryFrameScript.html" target="_top" xlink:title=" ">
<polygon fill="white" stroke="#666666" points="157.75,-177.5 33,-177.5 33,-147 157.75,-147 157.75,-177.5"/>
<text text-anchor="start" x="41" y="-164" font-family="Helvetica,sans-Serif" font-size="10.00">com.fs.starfarer.api.Every</text>
<text text-anchor="middle" x="95.38" y="-152.75" font-family="Helvetica,sans-Serif" font-size="10.00">FrameScript</text>
</a>
</g>
</g>
<!-- Node3&#45;&gt;Node2 -->
<g id="edge2_Node000002_Node000003" class="edge">
<title>Node3&#45;&gt;Node2</title>
<g id="a_edge2_Node000002_Node000003"><a xlink:title=" ">
<path fill="none" stroke="#63b8ff" d="M168.9,-144.86C206.68,-135.79 252.52,-124.8 289.24,-115.99"/>
<polygon fill="#63b8ff" stroke="#63b8ff" points="168.34,-141.39 159.44,-147.13 169.98,-148.2 168.34,-141.39"/>
</a>
</g>
</g>
<!-- Node4 -->
<g id="Node000004" class="node">
<title>Node4</title>
<g id="a_Node000004"><a xlink:title=" ">
<polygon fill="white" stroke="#666666" points="190.75,-128.5 0,-128.5 0,-98 190.75,-98 190.75,-128.5"/>
<text text-anchor="start" x="8" y="-115" font-family="Helvetica,sans-Serif" font-size="10.00">com.fs.starfarer.api.impl.campaign.fleets.</text>
<text text-anchor="middle" x="95.38" y="-103.75" font-family="Helvetica,sans-Serif" font-size="10.00">RouteManager.RouteFleetSpawner</text>
</a>
</g>
</g>
<!-- Node4&#45;&gt;Node2 -->
<g id="edge3_Node000002_Node000004" class="edge">
<title>Node4&#45;&gt;Node2</title>
<g id="a_edge3_Node000002_Node000004"><a xlink:title=" ">
<path fill="none" stroke="#63b8ff" d="M202.6,-107.91C221.65,-106.95 241.4,-105.96 260.1,-105.02"/>
<polygon fill="#63b8ff" stroke="#63b8ff" points="202.49,-104.41 192.67,-108.41 202.84,-111.4 202.49,-104.41"/>
</a>
</g>
</g>
<!-- Node5 -->
<g id="Node000005" class="node">
<title>Node5</title>
<g id="a_Node000005"><a xlink:href="classcom_1_1fs_1_1starfarer_1_1api_1_1util_1_1IntervalUtil.html" target="_top" xlink:title=" ">
<polygon fill="white" stroke="#666666" points="153.25,-79.5 37.5,-79.5 37.5,-49 153.25,-49 153.25,-79.5"/>
<text text-anchor="start" x="45.5" y="-66" font-family="Helvetica,sans-Serif" font-size="10.00">com.fs.starfarer.api.util.</text>
<text text-anchor="middle" x="95.38" y="-54.75" font-family="Helvetica,sans-Serif" font-size="10.00">IntervalUtil</text>
</a>
</g>
</g>
<!-- Node5&#45;&gt;Node2 -->
<g id="edge4_Node000002_Node000005" class="edge">
<title>Node5&#45;&gt;Node2</title>
<g id="a_edge4_Node000002_Node000005"><a xlink:title=" ">
<path fill="none" stroke="#9a32cd" stroke-dasharray="5,2" d="M165.04,-73.81C194.17,-77.87 228.61,-82.67 260.1,-87.05"/>
<polygon fill="#9a32cd" stroke="#9a32cd" points="165.63,-70.36 155.24,-72.45 164.67,-77.29 165.63,-70.36"/>
</a>
</g>
<text text-anchor="middle" x="225.62" y="-86.16" font-family="Helvetica,sans-Serif" font-size="10.00" fill="grey"> interval</text>
</g>
<!-- Node6 -->
<g id="Node000006" class="node">
<title>Node6</title>
<g id="a_Node000006"><a xlink:href="interfacecom_1_1fs_1_1starfarer_1_1api_1_1campaign_1_1StarSystemAPI.html" target="_top" xlink:title=" ">
<polygon fill="white" stroke="#666666" points="428.38,-54.5 283.38,-54.5 283.38,-24 428.38,-24 428.38,-54.5"/>
<text text-anchor="start" x="291.38" y="-41" font-family="Helvetica,sans-Serif" font-size="10.00">com.fs.starfarer.api.campaign.</text>
<text text-anchor="middle" x="355.88" y="-29.75" font-family="Helvetica,sans-Serif" font-size="10.00">StarSystemAPI</text>
</a>
</g>
</g>
<!-- Node6&#45;&gt;Node1 -->
<g id="edge5_Node000001_Node000006" class="edge">
<title>Node6&#45;&gt;Node1</title>
<g id="a_edge5_Node000001_Node000006"><a xlink:title=" ">
<path fill="none" stroke="#9a32cd" stroke-dasharray="5,2" d="M440.01,-46.34C465.31,-48.5 493.61,-50.91 520.74,-53.23"/>
<polygon fill="#9a32cd" stroke="#9a32cd" points="440.38,-42.86 430.11,-45.5 439.78,-49.83 440.38,-42.86"/>
</a>
</g>
<text text-anchor="middle" x="486.12" y="-53" font-family="Helvetica,sans-Serif" font-size="10.00" fill="grey"> system</text>
</g>
<!-- Node7 -->
<g id="Node000007" class="node">
<title>Node7</title>
<g id="a_Node000007"><a xlink:href="interfacecom_1_1fs_1_1starfarer_1_1api_1_1campaign_1_1LocationAPI.html" target="_top" xlink:title=" ">
<polygon fill="white" stroke="#666666" points="167.88,-30.5 22.88,-30.5 22.88,0 167.88,0 167.88,-30.5"/>
<text text-anchor="start" x="30.88" y="-17" font-family="Helvetica,sans-Serif" font-size="10.00">com.fs.starfarer.api.campaign.</text>
<text text-anchor="middle" x="95.38" y="-5.75" font-family="Helvetica,sans-Serif" font-size="10.00">LocationAPI</text>
</a>
</g>
</g>
<!-- Node7&#45;&gt;Node6 -->
<g id="edge6_Node000006_Node000007" class="edge">
<title>Node7&#45;&gt;Node6</title>
<g id="a_edge6_Node000006_Node000007"><a xlink:title=" ">
<path fill="none" stroke="#63b8ff" d="M179.18,-22.94C212.62,-26.04 250.84,-29.59 283.07,-32.58"/>
<polygon fill="#63b8ff" stroke="#63b8ff" points="179.83,-19.48 169.55,-22.04 179.18,-26.45 179.83,-19.48"/>
</a>
</g>
</g>
</g>
</svg>
