<?xml version="1.0" encoding="UTF-8" standalone="no"?>
<!DOCTYPE svg PUBLIC "-//W3C//DTD SVG 1.1//EN"
 "http://www.w3.org/Graphics/SVG/1.1/DTD/svg11.dtd">
<!-- Generated by graphviz version 2.49.3 (20211027.1501)
 -->
<!-- Title: com.fs.starfarer.api.impl.combat.MoteAIScript Pages: 1 -->
<svg width="870pt" height="274pt"
 viewBox="0.00 0.00 870.00 274.00" xmlns="http://www.w3.org/2000/svg" xmlns:xlink="http://www.w3.org/1999/xlink">
<g id="graph0" class="graph" transform="scale(1 1) rotate(0) translate(4 270)">
<title>com.fs.starfarer.api.impl.combat.MoteAIScript</title>
<!-- Node1 -->
<g id="node1" class="node">
<title>Node1</title>
<g id="a_node1"><a xlink:title=" ">
<polygon fill="#bfbfbf" stroke="black" points="706,-130.5 706,-160.5 862,-160.5 862,-130.5 706,-130.5"/>
<text text-anchor="start" x="714" y="-148.5" font-family="Helvetica,sans-Serif" font-size="10.00">com.fs.starfarer.api.impl.combat.</text>
<text text-anchor="middle" x="784" y="-137.5" font-family="Helvetica,sans-Serif" font-size="10.00">MoteAIScript</text>
</a>
</g>
</g>
<!-- Node2 -->
<g id="node2" class="node">
<title>Node2</title>
<g id="a_node2"><a xlink:href="interfacecom_1_1fs_1_1starfarer_1_1api_1_1combat_1_1MissileAIPlugin.html" target="_top" xlink:title=" ">
<polygon fill="none" stroke="black" points="433.5,-235.5 433.5,-265.5 569.5,-265.5 569.5,-235.5 433.5,-235.5"/>
<text text-anchor="start" x="441.5" y="-253.5" font-family="Helvetica,sans-Serif" font-size="10.00">com.fs.starfarer.api.combat.</text>
<text text-anchor="middle" x="501.5" y="-242.5" font-family="Helvetica,sans-Serif" font-size="10.00">MissileAIPlugin</text>
</a>
</g>
</g>
<!-- Node2&#45;&gt;Node1 -->
<g id="edge1" class="edge">
<title>Node2&#45;&gt;Node1</title>
<path fill="none" stroke="midnightblue" d="M579.6,-246.8C613.93,-242.97 654.16,-235.38 688,-220.5 720.51,-206.2 751.5,-178.1 768.81,-160.65"/>
<polygon fill="midnightblue" stroke="midnightblue" points="579.21,-243.32 569.62,-247.83 579.93,-250.28 579.21,-243.32"/>
</g>
<!-- Node3 -->
<g id="node3" class="node">
<title>Node3</title>
<g id="a_node3"><a xlink:href="interfacecom_1_1fs_1_1starfarer_1_1api_1_1combat_1_1MissileAPI.html" target="_top" xlink:title=" ">
<polygon fill="none" stroke="black" points="433.5,-147.5 433.5,-177.5 569.5,-177.5 569.5,-147.5 433.5,-147.5"/>
<text text-anchor="start" x="441.5" y="-165.5" font-family="Helvetica,sans-Serif" font-size="10.00">com.fs.starfarer.api.combat.</text>
<text text-anchor="middle" x="501.5" y="-154.5" font-family="Helvetica,sans-Serif" font-size="10.00">MissileAPI</text>
</a>
</g>
</g>
<!-- Node3&#45;&gt;Node1 -->
<g id="edge2" class="edge">
<title>Node3&#45;&gt;Node1</title>
<path fill="none" stroke="#9a32cd" stroke-dasharray="5,2" d="M579.75,-157.82C619.05,-155.44 666.68,-152.55 705.95,-150.17"/>
<polygon fill="#9a32cd" stroke="#9a32cd" points="579.46,-154.33 569.69,-158.43 579.88,-161.32 579.46,-154.33"/>
<text text-anchor="middle" x="648.5" y="-158.5" font-family="Helvetica,sans-Serif" font-size="10.00"> missile</text>
</g>
<!-- Node4 -->
<g id="node4" class="node">
<title>Node4</title>
<g id="a_node4"><a xlink:href="interfacecom_1_1fs_1_1starfarer_1_1api_1_1combat_1_1DamagingProjectileAPI.html" target="_top" xlink:title=" ">
<polygon fill="none" stroke="black" points="173,-147.5 173,-177.5 309,-177.5 309,-147.5 173,-147.5"/>
<text text-anchor="start" x="181" y="-165.5" font-family="Helvetica,sans-Serif" font-size="10.00">com.fs.starfarer.api.combat.</text>
<text text-anchor="middle" x="241" y="-154.5" font-family="Helvetica,sans-Serif" font-size="10.00">DamagingProjectileAPI</text>
</a>
</g>
</g>
<!-- Node4&#45;&gt;Node3 -->
<g id="edge3" class="edge">
<title>Node4&#45;&gt;Node3</title>
<path fill="none" stroke="midnightblue" d="M319.27,-162.5C355.5,-162.5 398.26,-162.5 433.15,-162.5"/>
<polygon fill="midnightblue" stroke="midnightblue" points="319.24,-159 309.24,-162.5 319.24,-166 319.24,-159"/>
</g>
<!-- Node5 -->
<g id="node5" class="node">
<title>Node5</title>
<g id="a_node5"><a xlink:href="interfacecom_1_1fs_1_1starfarer_1_1api_1_1combat_1_1CombatEntityAPI.html" target="_top" xlink:title=" ">
<polygon fill="none" stroke="black" points="0,-147.5 0,-177.5 136,-177.5 136,-147.5 0,-147.5"/>
<text text-anchor="start" x="8" y="-165.5" font-family="Helvetica,sans-Serif" font-size="10.00">com.fs.starfarer.api.combat.</text>
<text text-anchor="middle" x="68" y="-154.5" font-family="Helvetica,sans-Serif" font-size="10.00">CombatEntityAPI</text>
</a>
</g>
</g>
<!-- Node5&#45;&gt;Node1 -->
<g id="edge6" class="edge">
<title>Node5&#45;&gt;Node1</title>
<path fill="none" stroke="#9a32cd" stroke-dasharray="5,2" d="M130.8,-179.88C144.58,-183.05 159.2,-185.86 173,-187.5 357.49,-209.36 405.92,-203.6 591,-187.5 639.27,-183.3 693.07,-170.84 731.4,-160.57"/>
<polygon fill="#9a32cd" stroke="#9a32cd" points="131.48,-176.45 120.94,-177.53 129.85,-183.25 131.48,-176.45"/>
<text text-anchor="middle" x="360.5" y="-204.5" font-family="Helvetica,sans-Serif" font-size="10.00"> target</text>
</g>
<!-- Node5&#45;&gt;Node4 -->
<g id="edge4" class="edge">
<title>Node5&#45;&gt;Node4</title>
<path fill="none" stroke="midnightblue" d="M146.38,-162.5C155.2,-162.5 164.14,-162.5 172.82,-162.5"/>
<polygon fill="midnightblue" stroke="midnightblue" points="146.09,-159 136.09,-162.5 146.09,-166 146.09,-159"/>
</g>
<!-- Node9 -->
<g id="node9" class="node">
<title>Node9</title>
<g id="a_node9"><a xlink:href="interfacecom_1_1fs_1_1starfarer_1_1api_1_1combat_1_1ShipAPI.html" target="_top" xlink:title=" ">
<polygon fill="none" stroke="black" points="173,-98.5 173,-128.5 309,-128.5 309,-98.5 173,-98.5"/>
<text text-anchor="start" x="181" y="-116.5" font-family="Helvetica,sans-Serif" font-size="10.00">com.fs.starfarer.api.combat.</text>
<text text-anchor="middle" x="241" y="-105.5" font-family="Helvetica,sans-Serif" font-size="10.00">ShipAPI</text>
</a>
</g>
</g>
<!-- Node5&#45;&gt;Node9 -->
<g id="edge10" class="edge">
<title>Node5&#45;&gt;Node9</title>
<path fill="none" stroke="midnightblue" d="M131.45,-144.61C149.84,-139.34 169.77,-133.62 187.47,-128.55"/>
<polygon fill="midnightblue" stroke="midnightblue" points="130.35,-141.28 121.7,-147.4 132.28,-148.01 130.35,-141.28"/>
</g>
<!-- Node6 -->
<g id="node6" class="node">
<title>Node6</title>
<g id="a_node6"><a xlink:href="classcom_1_1fs_1_1starfarer_1_1api_1_1util_1_1IntervalUtil.html" target="_top" xlink:title=" ">
<polygon fill="none" stroke="black" points="443.5,-49.5 443.5,-79.5 559.5,-79.5 559.5,-49.5 443.5,-49.5"/>
<text text-anchor="start" x="451.5" y="-67.5" font-family="Helvetica,sans-Serif" font-size="10.00">com.fs.starfarer.api.util.</text>
<text text-anchor="middle" x="501.5" y="-56.5" font-family="Helvetica,sans-Serif" font-size="10.00">IntervalUtil</text>
</a>
</g>
</g>
<!-- Node6&#45;&gt;Node1 -->
<g id="edge5" class="edge">
<title>Node6&#45;&gt;Node1</title>
<path fill="none" stroke="#9a32cd" stroke-dasharray="5,2" d="M570.24,-66.59C606.07,-69.35 650.31,-75.4 688,-88.5 716.16,-98.29 745.05,-117.12 763.46,-130.45"/>
<polygon fill="#9a32cd" stroke="#9a32cd" points="570.12,-63.07 559.9,-65.87 569.63,-70.06 570.12,-63.07"/>
<text text-anchor="middle" x="648.5" y="-113.5" font-family="Helvetica,sans-Serif" font-size="10.00"> flutterCheck</text>
<text text-anchor="middle" x="648.5" y="-102.5" font-family="Helvetica,sans-Serif" font-size="10.00">tracker</text>
<text text-anchor="middle" x="648.5" y="-91.5" font-family="Helvetica,sans-Serif" font-size="10.00">updateListTracker</text>
</g>
<!-- Node7 -->
<g id="node7" class="node">
<title>Node7</title>
<g id="a_node7"><a xlink:title=" ">
<polygon fill="none" stroke="#bfbfbf" points="412,-98.5 412,-128.5 591,-128.5 591,-98.5 412,-98.5"/>
<text text-anchor="start" x="420" y="-116.5" font-family="Helvetica,sans-Serif" font-size="10.00">com.fs.starfarer.api.impl.combat.</text>
<text text-anchor="middle" x="501.5" y="-105.5" font-family="Helvetica,sans-Serif" font-size="10.00">MoteControlScript.SharedMoteAIData</text>
</a>
</g>
</g>
<!-- Node7&#45;&gt;Node1 -->
<g id="edge7" class="edge">
<title>Node7&#45;&gt;Node1</title>
<path fill="none" stroke="#9a32cd" stroke-dasharray="5,2" d="M601.28,-124.77C635.54,-128.68 673.43,-133 705.7,-136.68"/>
<polygon fill="#9a32cd" stroke="#9a32cd" points="601.58,-121.28 591.25,-123.62 600.79,-128.24 601.58,-121.28"/>
<text text-anchor="middle" x="648.5" y="-136.5" font-family="Helvetica,sans-Serif" font-size="10.00"> data</text>
</g>
<!-- Node8 -->
<g id="node8" class="node">
<title>Node8</title>
<g id="a_node8"><a xlink:title=" ">
<polygon fill="none" stroke="#bfbfbf" points="214.5,-60 214.5,-79 267.5,-79 267.5,-60 214.5,-60"/>
<text text-anchor="middle" x="241" y="-67" font-family="Helvetica,sans-Serif" font-size="10.00">Vector2f</text>
</a>
</g>
</g>
<!-- Node8&#45;&gt;Node7 -->
<g id="edge8" class="edge">
<title>Node8&#45;&gt;Node7</title>
<path fill="none" stroke="#9a32cd" stroke-dasharray="5,2" d="M277.82,-75.6C312.39,-81.48 366.12,-90.63 412.14,-98.46"/>
<polygon fill="#9a32cd" stroke="#9a32cd" points="278.18,-72.11 267.73,-73.88 277,-79.01 278.18,-72.11"/>
<text text-anchor="middle" x="360.5" y="-96.5" font-family="Helvetica,sans-Serif" font-size="10.00"> attractorTarget</text>
</g>
<!-- Node9&#45;&gt;Node7 -->
<g id="edge9" class="edge">
<title>Node9&#45;&gt;Node7</title>
<path fill="none" stroke="#9a32cd" stroke-dasharray="5,2" d="M319.34,-113.5C348.4,-113.5 381.66,-113.5 411.68,-113.5"/>
<polygon fill="#9a32cd" stroke="#9a32cd" points="319.24,-110 309.24,-113.5 319.24,-117 319.24,-110"/>
<text text-anchor="middle" x="360.5" y="-116.5" font-family="Helvetica,sans-Serif" font-size="10.00"> attractorLock</text>
</g>
<!-- Node10 -->
<g id="node10" class="node">
<title>Node10</title>
<g id="a_node10"><a xlink:href="classcom_1_1fs_1_1starfarer_1_1api_1_1util_1_1FaderUtil.html" target="_top" xlink:title=" ">
<polygon fill="none" stroke="black" points="443.5,-0.5 443.5,-30.5 559.5,-30.5 559.5,-0.5 443.5,-0.5"/>
<text text-anchor="start" x="451.5" y="-18.5" font-family="Helvetica,sans-Serif" font-size="10.00">com.fs.starfarer.api.util.</text>
<text text-anchor="middle" x="501.5" y="-7.5" font-family="Helvetica,sans-Serif" font-size="10.00">FaderUtil</text>
</a>
</g>
</g>
<!-- Node10&#45;&gt;Node1 -->
<g id="edge11" class="edge">
<title>Node10&#45;&gt;Node1</title>
<path fill="none" stroke="#9a32cd" stroke-dasharray="5,2" d="M569.7,-21.08C606.33,-26.26 651.51,-36.25 688,-55.5 723.57,-74.26 755.37,-110.1 771.6,-130.44"/>
<polygon fill="#9a32cd" stroke="#9a32cd" points="569.98,-17.59 559.61,-19.74 569.06,-24.53 569.98,-17.59"/>
<text text-anchor="middle" x="648.5" y="-58.5" font-family="Helvetica,sans-Serif" font-size="10.00"> currFlutter</text>
</g>
</g>
</svg>
