<?xml version="1.0" encoding="UTF-8" standalone="no"?>
<!DOCTYPE svg PUBLIC "-//W3C//DTD SVG 1.1//EN"
 "http://www.w3.org/Graphics/SVG/1.1/DTD/svg11.dtd">
<!-- Generated by graphviz version 2.44.0 ()
 -->
<!-- Title: com.fs.starfarer.api.impl.campaign.missions.hub.BaseHubMission.LocData Pages: 1 -->
<svg width="1056pt" height="234pt"
 viewBox="0.00 0.00 1056.00 234.00" xmlns="http://www.w3.org/2000/svg" xmlns:xlink="http://www.w3.org/1999/xlink">
<g id="graph0" class="graph" transform="scale(1 1) rotate(0) translate(4 230)">
<title>com.fs.starfarer.api.impl.campaign.missions.hub.BaseHubMission.LocData</title>
<!-- Node1 -->
<g id="node1" class="node">
<title>Node1</title>
<g id="a_node1"><a xlink:title=" ">
<polygon fill="#bfbfbf" stroke="black" points="823,-98.5 823,-128.5 1048,-128.5 1048,-98.5 823,-98.5"/>
<text text-anchor="start" x="831" y="-116.5" font-family="Helvetica,sans-Serif" font-size="10.00">com.fs.starfarer.api.impl.campaign.missions.hub.</text>
<text text-anchor="middle" x="935.5" y="-105.5" font-family="Helvetica,sans-Serif" font-size="10.00">BaseHubMission.LocData</text>
</a>
</g>
</g>
<!-- Node2 -->
<g id="node2" class="node">
<title>Node2</title>
<g id="a_node2"><a xlink:href="interfacecom_1_1fs_1_1starfarer_1_1api_1_1campaign_1_1LocationAPI.html" target="_top" xlink:title=" ">
<polygon fill="none" stroke="black" points="561.5,-195.5 561.5,-225.5 707.5,-225.5 707.5,-195.5 561.5,-195.5"/>
<text text-anchor="start" x="569.5" y="-213.5" font-family="Helvetica,sans-Serif" font-size="10.00">com.fs.starfarer.api.campaign.</text>
<text text-anchor="middle" x="634.5" y="-202.5" font-family="Helvetica,sans-Serif" font-size="10.00">LocationAPI</text>
</a>
</g>
</g>
<!-- Node2&#45;&gt;Node1 -->
<g id="edge1" class="edge">
<title>Node2&#45;&gt;Node1</title>
<path fill="none" stroke="#9a32cd" stroke-dasharray="5,2" d="M717.79,-200.38C745.9,-195.63 777.24,-188.89 805,-179.5 843.49,-166.48 884.78,-143.74 910.13,-128.64"/>
<polygon fill="#9a32cd" stroke="#9a32cd" points="716.9,-196.98 707.59,-202.04 718.02,-203.89 716.9,-196.98"/>
<text text-anchor="middle" x="788" y="-191.5" font-family="Helvetica,sans-Serif" font-size="10.00"> system</text>
</g>
<!-- Node3 -->
<g id="node3" class="node">
<title>Node3</title>
<g id="a_node3"><a xlink:href="interfacecom_1_1fs_1_1starfarer_1_1api_1_1campaign_1_1SectorEntityToken.html" target="_top" xlink:title=" ">
<polygon fill="none" stroke="black" points="251.5,-144.5 251.5,-174.5 397.5,-174.5 397.5,-144.5 251.5,-144.5"/>
<text text-anchor="start" x="259.5" y="-162.5" font-family="Helvetica,sans-Serif" font-size="10.00">com.fs.starfarer.api.campaign.</text>
<text text-anchor="middle" x="324.5" y="-151.5" font-family="Helvetica,sans-Serif" font-size="10.00">SectorEntityToken</text>
</a>
</g>
</g>
<!-- Node3&#45;&gt;Node1 -->
<g id="edge2" class="edge">
<title>Node3&#45;&gt;Node1</title>
<path fill="none" stroke="#9a32cd" stroke-dasharray="5,2" d="M408.12,-157.59C494.34,-155.1 633.38,-149.65 753,-138.5 780.4,-135.95 810,-132.26 837.19,-128.51"/>
<polygon fill="#9a32cd" stroke="#9a32cd" points="407.77,-154.1 397.87,-157.88 407.97,-161.1 407.77,-154.1"/>
<text text-anchor="middle" x="634.5" y="-156.5" font-family="Helvetica,sans-Serif" font-size="10.00"> centerOn</text>
</g>
<!-- Node10 -->
<g id="node10" class="node">
<title>Node10</title>
<g id="a_node10"><a xlink:href="interfacecom_1_1fs_1_1starfarer_1_1api_1_1campaign_1_1CampaignTerrainAPI.html" target="_top" xlink:title=" ">
<polygon fill="none" stroke="black" points="561.5,-98.5 561.5,-128.5 707.5,-128.5 707.5,-98.5 561.5,-98.5"/>
<text text-anchor="start" x="569.5" y="-116.5" font-family="Helvetica,sans-Serif" font-size="10.00">com.fs.starfarer.api.campaign.</text>
<text text-anchor="middle" x="634.5" y="-105.5" font-family="Helvetica,sans-Serif" font-size="10.00">CampaignTerrainAPI</text>
</a>
</g>
</g>
<!-- Node3&#45;&gt;Node10 -->
<g id="edge10" class="edge">
<title>Node3&#45;&gt;Node10</title>
<path fill="none" stroke="midnightblue" d="M407.74,-147.22C455.63,-140.06 515.45,-131.13 561.47,-124.26"/>
<polygon fill="midnightblue" stroke="midnightblue" points="407.09,-143.78 397.71,-148.72 408.12,-150.7 407.09,-143.78"/>
</g>
<!-- Node4 -->
<g id="node4" class="node">
<title>Node4</title>
<g id="a_node4"><a xlink:href="interfacecom_1_1fs_1_1starfarer_1_1api_1_1campaign_1_1rules_1_1HasMemory.html" target="_top" xlink:title=" ">
<polygon fill="none" stroke="black" points="0,-144.5 0,-174.5 169,-174.5 169,-144.5 0,-144.5"/>
<text text-anchor="start" x="8" y="-162.5" font-family="Helvetica,sans-Serif" font-size="10.00">com.fs.starfarer.api.campaign.rules.</text>
<text text-anchor="middle" x="84.5" y="-151.5" font-family="Helvetica,sans-Serif" font-size="10.00">HasMemory</text>
</a>
</g>
</g>
<!-- Node4&#45;&gt;Node3 -->
<g id="edge3" class="edge">
<title>Node4&#45;&gt;Node3</title>
<path fill="none" stroke="midnightblue" d="M179.23,-159.5C203.16,-159.5 228.53,-159.5 251.2,-159.5"/>
<polygon fill="midnightblue" stroke="midnightblue" points="179.08,-156 169.08,-159.5 179.08,-163 179.08,-156"/>
</g>
<!-- Node5 -->
<g id="node5" class="node">
<title>Node5</title>
<g id="a_node5"><a xlink:href="classcom_1_1fs_1_1starfarer_1_1api_1_1impl_1_1campaign_1_1procgen_1_1themes_1_1BaseThemeGenerator_1_1EntityLocation.html" target="_top" xlink:title=" ">
<polygon fill="none" stroke="black" points="516,-49.5 516,-79.5 753,-79.5 753,-49.5 516,-49.5"/>
<text text-anchor="start" x="524" y="-67.5" font-family="Helvetica,sans-Serif" font-size="10.00">com.fs.starfarer.api.impl.campaign.procgen.themes.</text>
<text text-anchor="middle" x="634.5" y="-56.5" font-family="Helvetica,sans-Serif" font-size="10.00">BaseThemeGenerator.EntityLocation</text>
</a>
</g>
</g>
<!-- Node5&#45;&gt;Node1 -->
<g id="edge4" class="edge">
<title>Node5&#45;&gt;Node1</title>
<path fill="none" stroke="#9a32cd" stroke-dasharray="5,2" d="M737.27,-81.18C771.52,-86.79 809.51,-93.02 842.93,-98.49"/>
<polygon fill="#9a32cd" stroke="#9a32cd" points="737.68,-77.7 727.24,-79.53 736.54,-84.61 737.68,-77.7"/>
<text text-anchor="middle" x="788" y="-94.5" font-family="Helvetica,sans-Serif" font-size="10.00"> loc</text>
</g>
<!-- Node6 -->
<g id="node6" class="node">
<title>Node6</title>
<g id="a_node6"><a xlink:title=" ">
<polygon fill="none" stroke="#bfbfbf" points="298,-99 298,-118 351,-118 351,-99 298,-99"/>
<text text-anchor="middle" x="324.5" y="-106" font-family="Helvetica,sans-Serif" font-size="10.00">Vector2f</text>
</a>
</g>
</g>
<!-- Node6&#45;&gt;Node5 -->
<g id="edge5" class="edge">
<title>Node6&#45;&gt;Node5</title>
<path fill="none" stroke="#9a32cd" stroke-dasharray="5,2" d="M361.2,-103.4C401.89,-97.59 470.27,-87.82 528.33,-79.52"/>
<polygon fill="#9a32cd" stroke="#9a32cd" points="360.63,-99.95 351.23,-104.82 361.62,-106.87 360.63,-99.95"/>
<text text-anchor="middle" x="479.5" y="-91.5" font-family="Helvetica,sans-Serif" font-size="10.00"> location</text>
</g>
<!-- Node7 -->
<g id="node7" class="node">
<title>Node7</title>
<g id="a_node7"><a xlink:href="enumcom_1_1fs_1_1starfarer_1_1api_1_1impl_1_1campaign_1_1procgen_1_1themes_1_1BaseThemeGenerator_1_1LocationType.html" target="_top" xlink:title=" ">
<polygon fill="none" stroke="black" points="206,-49.5 206,-79.5 443,-79.5 443,-49.5 206,-49.5"/>
<text text-anchor="start" x="214" y="-67.5" font-family="Helvetica,sans-Serif" font-size="10.00">com.fs.starfarer.api.impl.campaign.procgen.themes.</text>
<text text-anchor="middle" x="324.5" y="-56.5" font-family="Helvetica,sans-Serif" font-size="10.00">BaseThemeGenerator.LocationType</text>
</a>
</g>
</g>
<!-- Node7&#45;&gt;Node5 -->
<g id="edge6" class="edge">
<title>Node7&#45;&gt;Node5</title>
<path fill="none" stroke="#9a32cd" stroke-dasharray="5,2" d="M453.36,-64.5C474.04,-64.5 495.38,-64.5 515.81,-64.5"/>
<polygon fill="#9a32cd" stroke="#9a32cd" points="453.26,-61 443.26,-64.5 453.26,-68 453.26,-61"/>
<text text-anchor="middle" x="479.5" y="-67.5" font-family="Helvetica,sans-Serif" font-size="10.00"> type</text>
</g>
<!-- Node8 -->
<g id="node8" class="node">
<title>Node8</title>
<g id="a_node8"><a xlink:href="interfacecom_1_1fs_1_1starfarer_1_1api_1_1campaign_1_1OrbitAPI.html" target="_top" xlink:title=" ">
<polygon fill="none" stroke="black" points="251.5,-0.5 251.5,-30.5 397.5,-30.5 397.5,-0.5 251.5,-0.5"/>
<text text-anchor="start" x="259.5" y="-18.5" font-family="Helvetica,sans-Serif" font-size="10.00">com.fs.starfarer.api.campaign.</text>
<text text-anchor="middle" x="324.5" y="-7.5" font-family="Helvetica,sans-Serif" font-size="10.00">OrbitAPI</text>
</a>
</g>
</g>
<!-- Node8&#45;&gt;Node5 -->
<g id="edge7" class="edge">
<title>Node8&#45;&gt;Node5</title>
<path fill="none" stroke="#9a32cd" stroke-dasharray="5,2" d="M407.79,-28.59C448.18,-35.02 497.05,-42.79 538.98,-49.46"/>
<polygon fill="#9a32cd" stroke="#9a32cd" points="408.14,-25.1 397.71,-26.99 407.04,-32.02 408.14,-25.1"/>
<text text-anchor="middle" x="479.5" y="-45.5" font-family="Helvetica,sans-Serif" font-size="10.00"> orbit</text>
</g>
<!-- Node9 -->
<g id="node9" class="node">
<title>Node9</title>
<g id="a_node9"><a xlink:href="enumcom_1_1fs_1_1starfarer_1_1api_1_1impl_1_1campaign_1_1missions_1_1hub_1_1BaseHubMission_1_1EntityLocationType.html" target="_top" xlink:title=" ">
<polygon fill="none" stroke="black" points="522,-0.5 522,-30.5 747,-30.5 747,-0.5 522,-0.5"/>
<text text-anchor="start" x="530" y="-18.5" font-family="Helvetica,sans-Serif" font-size="10.00">com.fs.starfarer.api.impl.campaign.missions.hub.</text>
<text text-anchor="middle" x="634.5" y="-7.5" font-family="Helvetica,sans-Serif" font-size="10.00">BaseHubMission.EntityLocationType</text>
</a>
</g>
</g>
<!-- Node9&#45;&gt;Node1 -->
<g id="edge8" class="edge">
<title>Node9&#45;&gt;Node1</title>
<path fill="none" stroke="#9a32cd" stroke-dasharray="5,2" d="M725.15,-32.89C734.61,-35.23 744.04,-37.77 753,-40.5 806.44,-56.8 866.14,-82.29 902,-98.44"/>
<polygon fill="#9a32cd" stroke="#9a32cd" points="725.84,-29.46 715.3,-30.53 724.21,-36.26 725.84,-29.46"/>
<text text-anchor="middle" x="788" y="-60.5" font-family="Helvetica,sans-Serif" font-size="10.00"> type</text>
</g>
<!-- Node10&#45;&gt;Node1 -->
<g id="edge9" class="edge">
<title>Node10&#45;&gt;Node1</title>
<path fill="none" stroke="#9a32cd" stroke-dasharray="5,2" d="M718.19,-113.5C750.53,-113.5 788.13,-113.5 822.82,-113.5"/>
<polygon fill="#9a32cd" stroke="#9a32cd" points="717.88,-110 707.88,-113.5 717.88,-117 717.88,-110"/>
<text text-anchor="middle" x="788" y="-116.5" font-family="Helvetica,sans-Serif" font-size="10.00"> terrain</text>
</g>
</g>
</svg>
