<?xml version="1.0" encoding="UTF-8" standalone="no"?>
<!DOCTYPE svg PUBLIC "-//W3C//DTD SVG 1.1//EN"
 "http://www.w3.org/Graphics/SVG/1.1/DTD/svg11.dtd">
<!-- Generated by graphviz version 12.2.0 (20241103.1931)
 -->
<!-- Title: com.fs.starfarer.api.impl.campaign.econ.ResourceDepositsCondition Pages: 1 -->
<svg width="1178pt" height="254pt"
 viewBox="0.00 0.00 1178.25 253.88" xmlns="http://www.w3.org/2000/svg" xmlns:xlink="http://www.w3.org/1999/xlink">
<g id="graph0" class="graph" transform="scale(1 1) rotate(0) translate(4 249.88)">
<title>com.fs.starfarer.api.impl.campaign.econ.ResourceDepositsCondition</title>
<!-- Node1 -->
<g id="Node000001" class="node">
<title>Node1</title>
<g id="a_Node000001"><a xlink:title=" ">
<polygon fill="#999999" stroke="#666666" points="1170.25,-107.88 981.75,-107.88 981.75,-77.38 1170.25,-77.38 1170.25,-107.88"/>
<text text-anchor="start" x="989.75" y="-94.38" font-family="Helvetica,sans-Serif" font-size="10.00">com.fs.starfarer.api.impl.campaign.econ.</text>
<text text-anchor="middle" x="1076" y="-83.12" font-family="Helvetica,sans-Serif" font-size="10.00">ResourceDepositsCondition</text>
</a>
</g>
</g>
<!-- Node2 -->
<g id="Node000002" class="node">
<title>Node2</title>
<g id="a_Node000002"><a xlink:href="classcom_1_1fs_1_1starfarer_1_1api_1_1impl_1_1campaign_1_1econ_1_1BaseHazardCondition.html" target="_top" xlink:title=" ">
<polygon fill="white" stroke="#666666" points="864.75,-196.88 676.25,-196.88 676.25,-166.38 864.75,-166.38 864.75,-196.88"/>
<text text-anchor="start" x="684.25" y="-183.38" font-family="Helvetica,sans-Serif" font-size="10.00">com.fs.starfarer.api.impl.campaign.econ.</text>
<text text-anchor="middle" x="770.5" y="-172.12" font-family="Helvetica,sans-Serif" font-size="10.00">BaseHazardCondition</text>
</a>
</g>
</g>
<!-- Node2&#45;&gt;Node1 -->
<g id="edge1_Node000001_Node000002" class="edge">
<title>Node2&#45;&gt;Node1</title>
<g id="a_edge1_Node000001_Node000002"><a xlink:title=" ">
<path fill="none" stroke="#63b8ff" d="M858.52,-163.4C891.72,-155.77 929.75,-146.21 963.75,-135.62 988.96,-127.78 1016.65,-117.08 1038.1,-108.32"/>
<polygon fill="#63b8ff" stroke="#63b8ff" points="857.91,-159.95 848.94,-165.58 859.46,-166.78 857.91,-159.95"/>
</a>
</g>
</g>
<!-- Node3 -->
<g id="Node000003" class="node">
<title>Node3</title>
<g id="a_Node000003"><a xlink:href="classcom_1_1fs_1_1starfarer_1_1api_1_1impl_1_1campaign_1_1econ_1_1BaseMarketConditionPlugin.html" target="_top" xlink:title=" ">
<polygon fill="white" stroke="#666666" points="639.25,-196.88 450.75,-196.88 450.75,-166.38 639.25,-166.38 639.25,-196.88"/>
<text text-anchor="start" x="458.75" y="-183.38" font-family="Helvetica,sans-Serif" font-size="10.00">com.fs.starfarer.api.impl.campaign.econ.</text>
<text text-anchor="middle" x="545" y="-172.12" font-family="Helvetica,sans-Serif" font-size="10.00">BaseMarketConditionPlugin</text>
</a>
</g>
</g>
<!-- Node3&#45;&gt;Node2 -->
<g id="edge2_Node000002_Node000003" class="edge">
<title>Node3&#45;&gt;Node2</title>
<g id="a_edge2_Node000002_Node000003"><a xlink:title=" ">
<path fill="none" stroke="#63b8ff" d="M650.88,-181.62C659.28,-181.62 667.72,-181.62 676.03,-181.62"/>
<polygon fill="#63b8ff" stroke="#63b8ff" points="651,-178.13 641,-181.63 651,-185.13 651,-178.13"/>
</a>
</g>
</g>
<!-- Node4 -->
<g id="Node000004" class="node">
<title>Node4</title>
<g id="a_Node000004"><a xlink:href="interfacecom_1_1fs_1_1starfarer_1_1api_1_1campaign_1_1econ_1_1MarketConditionPlugin.html" target="_top" xlink:title=" ">
<polygon fill="white" stroke="#666666" points="373.5,-245.88 205.25,-245.88 205.25,-215.38 373.5,-215.38 373.5,-245.88"/>
<text text-anchor="start" x="213.25" y="-232.38" font-family="Helvetica,sans-Serif" font-size="10.00">com.fs.starfarer.api.campaign.econ.</text>
<text text-anchor="middle" x="289.38" y="-221.12" font-family="Helvetica,sans-Serif" font-size="10.00">MarketConditionPlugin</text>
</a>
</g>
</g>
<!-- Node4&#45;&gt;Node3 -->
<g id="edge3_Node000003_Node000004" class="edge">
<title>Node4&#45;&gt;Node3</title>
<g id="a_edge3_Node000003_Node000004"><a xlink:title=" ">
<path fill="none" stroke="#63b8ff" d="M382.75,-212.78C408.94,-207.72 437.25,-202.25 462.73,-197.33"/>
<polygon fill="#63b8ff" stroke="#63b8ff" points="382.31,-209.3 373.16,-214.63 383.64,-216.17 382.31,-209.3"/>
</a>
</g>
</g>
<!-- Node5 -->
<g id="Node000005" class="node">
<title>Node5</title>
<g id="a_Node000005"><a xlink:href="interfacecom_1_1fs_1_1starfarer_1_1api_1_1campaign_1_1econ_1_1MarketAPI.html" target="_top" xlink:title=" ">
<polygon fill="white" stroke="#666666" points="373.5,-196.88 205.25,-196.88 205.25,-166.38 373.5,-166.38 373.5,-196.88"/>
<text text-anchor="start" x="213.25" y="-183.38" font-family="Helvetica,sans-Serif" font-size="10.00">com.fs.starfarer.api.campaign.econ.</text>
<text text-anchor="middle" x="289.38" y="-172.12" font-family="Helvetica,sans-Serif" font-size="10.00">MarketAPI</text>
</a>
</g>
</g>
<!-- Node5&#45;&gt;Node3 -->
<g id="edge4_Node000003_Node000005" class="edge">
<title>Node5&#45;&gt;Node3</title>
<g id="a_edge4_Node000003_Node000005"><a xlink:title=" ">
<path fill="none" stroke="#9a32cd" stroke-dasharray="5,2" d="M385.15,-181.62C406.5,-181.62 429.16,-181.62 450.46,-181.62"/>
<polygon fill="#9a32cd" stroke="#9a32cd" points="385.29,-178.13 375.29,-181.63 385.29,-185.13 385.29,-178.13"/>
</a>
</g>
<text text-anchor="middle" x="412.12" y="-183.38" font-family="Helvetica,sans-Serif" font-size="10.00" fill="grey"> market</text>
</g>
<!-- Node6 -->
<g id="Node000006" class="node">
<title>Node6</title>
<g id="a_Node000006"><a xlink:href="interfacecom_1_1fs_1_1starfarer_1_1api_1_1campaign_1_1rules_1_1HasMemory.html" target="_top" xlink:title=" ">
<polygon fill="white" stroke="#666666" points="168.25,-196.88 0,-196.88 0,-166.38 168.25,-166.38 168.25,-196.88"/>
<text text-anchor="start" x="8" y="-183.38" font-family="Helvetica,sans-Serif" font-size="10.00">com.fs.starfarer.api.campaign.rules.</text>
<text text-anchor="middle" x="84.12" y="-172.12" font-family="Helvetica,sans-Serif" font-size="10.00">HasMemory</text>
</a>
</g>
</g>
<!-- Node6&#45;&gt;Node5 -->
<g id="edge5_Node000005_Node000006" class="edge">
<title>Node6&#45;&gt;Node5</title>
<g id="a_edge5_Node000005_Node000006"><a xlink:title=" ">
<path fill="none" stroke="#63b8ff" d="M179.94,-181.62C188.25,-181.62 196.62,-181.62 204.82,-181.62"/>
<polygon fill="#63b8ff" stroke="#63b8ff" points="180.19,-178.13 170.19,-181.63 180.19,-185.13 180.19,-178.13"/>
</a>
</g>
</g>
<!-- Node7 -->
<g id="Node000007" class="node">
<title>Node7</title>
<g id="a_Node000007"><a xlink:href="interfacecom_1_1fs_1_1starfarer_1_1api_1_1campaign_1_1econ_1_1MarketConditionAPI.html" target="_top" xlink:title=" ">
<polygon fill="white" stroke="#666666" points="373.5,-147.88 205.25,-147.88 205.25,-117.38 373.5,-117.38 373.5,-147.88"/>
<text text-anchor="start" x="213.25" y="-134.38" font-family="Helvetica,sans-Serif" font-size="10.00">com.fs.starfarer.api.campaign.econ.</text>
<text text-anchor="middle" x="289.38" y="-123.12" font-family="Helvetica,sans-Serif" font-size="10.00">MarketConditionAPI</text>
</a>
</g>
</g>
<!-- Node7&#45;&gt;Node3 -->
<g id="edge6_Node000003_Node000007" class="edge">
<title>Node7&#45;&gt;Node3</title>
<g id="a_edge6_Node000003_Node000007"><a xlink:title=" ">
<path fill="none" stroke="#9a32cd" stroke-dasharray="5,2" d="M382.75,-150.47C408.94,-155.53 437.25,-161 462.73,-165.92"/>
<polygon fill="#9a32cd" stroke="#9a32cd" points="383.64,-147.08 373.16,-148.62 382.31,-153.95 383.64,-147.08"/>
</a>
</g>
<text text-anchor="middle" x="412.12" y="-161.81" font-family="Helvetica,sans-Serif" font-size="10.00" fill="grey"> condition</text>
</g>
<!-- Node8 -->
<g id="Node000008" class="node">
<title>Node8</title>
<g id="a_Node000008"><a xlink:href="interfacecom_1_1fs_1_1starfarer_1_1api_1_1campaign_1_1econ_1_1MarketImmigrationModifier.html" target="_top" xlink:title=" ">
<polygon fill="white" stroke="#666666" points="854.62,-147.88 686.38,-147.88 686.38,-117.38 854.62,-117.38 854.62,-147.88"/>
<text text-anchor="start" x="694.38" y="-134.38" font-family="Helvetica,sans-Serif" font-size="10.00">com.fs.starfarer.api.campaign.econ.</text>
<text text-anchor="middle" x="770.5" y="-123.12" font-family="Helvetica,sans-Serif" font-size="10.00">MarketImmigrationModifier</text>
</a>
</g>
</g>
<!-- Node8&#45;&gt;Node1 -->
<g id="edge7_Node000001_Node000008" class="edge">
<title>Node8&#45;&gt;Node1</title>
<g id="a_edge7_Node000001_Node000008"><a xlink:title=" ">
<path fill="none" stroke="#63b8ff" d="M866.37,-127.93C897.5,-125.67 932.2,-122.38 963.75,-117.62 979.61,-115.24 996.57,-111.86 1012.34,-108.35"/>
<polygon fill="#63b8ff" stroke="#63b8ff" points="866.31,-124.42 856.58,-128.61 866.8,-131.41 866.31,-124.42"/>
</a>
</g>
</g>
<!-- Node9 -->
<g id="Node000009" class="node">
<title>Node9</title>
<g id="a_Node000009"><a xlink:title=" ">
<polygon fill="white" stroke="#666666" points="824.25,-99.25 716.75,-99.25 716.75,-80 824.25,-80 824.25,-99.25"/>
<text text-anchor="middle" x="770.5" y="-85.75" font-family="Helvetica,sans-Serif" font-size="10.00">Map&lt; String, String &gt;</text>
</a>
</g>
</g>
<!-- Node9&#45;&gt;Node1 -->
<g id="edge8_Node000001_Node000009" class="edge">
<title>Node9&#45;&gt;Node1</title>
<g id="a_edge8_Node000001_Node000009"><a xlink:title=" ">
<path fill="none" stroke="#9a32cd" stroke-dasharray="5,2" d="M835.97,-90.26C878.22,-90.68 934.15,-91.23 981.28,-91.7"/>
<polygon fill="#9a32cd" stroke="#9a32cd" points="836.26,-86.77 826.23,-90.17 836.19,-93.76 836.26,-86.77"/>
</a>
</g>
<text text-anchor="middle" x="923.25" y="-104.48" font-family="Helvetica,sans-Serif" font-size="10.00" fill="grey"> COMMODITY</text>
<text text-anchor="middle" x="923.25" y="-93.23" font-family="Helvetica,sans-Serif" font-size="10.00" fill="grey">INDUSTRY</text>
</g>
<!-- Node10 -->
<g id="Node000010" class="node">
<title>Node10</title>
<g id="a_Node000010"><a xlink:title=" ">
<polygon fill="white" stroke="#666666" points="826.5,-56.25 714.5,-56.25 714.5,-37 826.5,-37 826.5,-56.25"/>
<text text-anchor="middle" x="770.5" y="-42.75" font-family="Helvetica,sans-Serif" font-size="10.00">Map&lt; String, Integer &gt;</text>
</a>
</g>
</g>
<!-- Node10&#45;&gt;Node1 -->
<g id="edge9_Node000001_Node000010" class="edge">
<title>Node10&#45;&gt;Node1</title>
<g id="a_edge9_Node000001_Node000010"><a xlink:title=" ">
<path fill="none" stroke="#9a32cd" stroke-dasharray="5,2" d="M838.11,-50.06C875.28,-52.63 922.3,-56.98 963.75,-64.12 982.51,-67.36 1002.76,-72.15 1020.77,-76.88"/>
<polygon fill="#9a32cd" stroke="#9a32cd" points="838.63,-46.58 828.42,-49.42 838.17,-53.57 838.63,-46.58"/>
</a>
</g>
<text text-anchor="middle" x="923.25" y="-77.12" font-family="Helvetica,sans-Serif" font-size="10.00" fill="grey"> BASE_MODIFIER</text>
<text text-anchor="middle" x="923.25" y="-65.88" font-family="Helvetica,sans-Serif" font-size="10.00" fill="grey">MODIFIER</text>
</g>
<!-- Node11 -->
<g id="Node000011" class="node">
<title>Node11</title>
<g id="a_Node000011"><a xlink:title=" ">
<polygon fill="white" stroke="#666666" points="807,-19.25 734,-19.25 734,0 807,0 807,-19.25"/>
<text text-anchor="middle" x="770.5" y="-5.75" font-family="Helvetica,sans-Serif" font-size="10.00">Set&lt; String &gt;</text>
</a>
</g>
</g>
<!-- Node11&#45;&gt;Node1 -->
<g id="edge10_Node000001_Node000011" class="edge">
<title>Node11&#45;&gt;Node1</title>
<g id="a_edge10_Node000001_Node000011"><a xlink:title=" ">
<path fill="none" stroke="#9a32cd" stroke-dasharray="5,2" d="M818.7,-12.65C858.17,-16.13 915.6,-23.42 963.75,-38.38 994.33,-47.87 1027,-64.69 1048.97,-77.09"/>
<polygon fill="#9a32cd" stroke="#9a32cd" points="819.07,-9.17 808.81,-11.83 818.49,-16.15 819.07,-9.17"/>
</a>
</g>
<text text-anchor="middle" x="923.25" y="-40.12" font-family="Helvetica,sans-Serif" font-size="10.00" fill="grey"> BASE_ZERO</text>
</g>
</g>
</svg>
