<?xml version="1.0" encoding="UTF-8" standalone="no"?>
<!DOCTYPE svg PUBLIC "-//W3C//DTD SVG 1.1//EN"
 "http://www.w3.org/Graphics/SVG/1.1/DTD/svg11.dtd">
<!-- Generated by graphviz version 2.44.0 ()
 -->
<!-- Title: com.fs.starfarer.api.impl.campaign.econ.impl.TradeCenter Pages: 1 -->
<svg width="1141pt" height="356pt"
 viewBox="0.00 0.00 1141.00 356.14" xmlns="http://www.w3.org/2000/svg" xmlns:xlink="http://www.w3.org/1999/xlink">
<g id="graph0" class="graph" transform="scale(1 1) rotate(0) translate(4 352.14)">
<title>com.fs.starfarer.api.impl.campaign.econ.impl.TradeCenter</title>
<!-- Node1 -->
<g id="node1" class="node">
<title>Node1</title>
<g id="a_node1"><a xlink:title=" ">
<polygon fill="#bfbfbf" stroke="black" points="924,-146.64 924,-176.64 1133,-176.64 1133,-146.64 924,-146.64"/>
<text text-anchor="start" x="932" y="-164.64" font-family="Helvetica,sans-Serif" font-size="10.00">com.fs.starfarer.api.impl.campaign.econ.impl.</text>
<text text-anchor="middle" x="1028.5" y="-153.64" font-family="Helvetica,sans-Serif" font-size="10.00">TradeCenter</text>
</a>
</g>
</g>
<!-- Node2 -->
<g id="node2" class="node">
<title>Node2</title>
<g id="a_node2"><a xlink:href="classcom_1_1fs_1_1starfarer_1_1api_1_1impl_1_1campaign_1_1econ_1_1impl_1_1BaseIndustry.html" target="_top" xlink:title=" ">
<polygon fill="none" stroke="black" points="650,-195.64 650,-225.64 859,-225.64 859,-195.64 650,-195.64"/>
<text text-anchor="start" x="658" y="-213.64" font-family="Helvetica,sans-Serif" font-size="10.00">com.fs.starfarer.api.impl.campaign.econ.impl.</text>
<text text-anchor="middle" x="754.5" y="-202.64" font-family="Helvetica,sans-Serif" font-size="10.00">BaseIndustry</text>
</a>
</g>
</g>
<!-- Node2&#45;&gt;Node1 -->
<g id="edge1" class="edge">
<title>Node2&#45;&gt;Node1</title>
<path fill="none" stroke="midnightblue" d="M848.88,-193.82C879.83,-188.24 914.06,-182.07 944.2,-176.64"/>
<polygon fill="midnightblue" stroke="midnightblue" points="848.18,-190.39 838.96,-195.6 849.42,-197.28 848.18,-190.39"/>
</g>
<!-- Node3 -->
<g id="node3" class="node">
<title>Node3</title>
<g id="a_node3"><a xlink:href="interfacecom_1_1fs_1_1starfarer_1_1api_1_1campaign_1_1econ_1_1Industry.html" target="_top" xlink:title=" ">
<polygon fill="none" stroke="black" points="291,-317.64 291,-347.64 460,-347.64 460,-317.64 291,-317.64"/>
<text text-anchor="start" x="299" y="-335.64" font-family="Helvetica,sans-Serif" font-size="10.00">com.fs.starfarer.api.campaign.econ.</text>
<text text-anchor="middle" x="375.5" y="-324.64" font-family="Helvetica,sans-Serif" font-size="10.00">Industry</text>
</a>
</g>
</g>
<!-- Node3&#45;&gt;Node2 -->
<g id="edge2" class="edge">
<title>Node3&#45;&gt;Node2</title>
<path fill="none" stroke="midnightblue" d="M455.18,-315.38C466.54,-312.82 478.07,-310.19 489,-307.64 552.72,-292.76 570.67,-295.44 632,-272.64 666.63,-259.76 704.17,-239.56 728.22,-225.74"/>
<polygon fill="midnightblue" stroke="midnightblue" points="454.26,-312 445.27,-317.6 455.79,-318.83 454.26,-312"/>
</g>
<!-- Node4 -->
<g id="node4" class="node">
<title>Node4</title>
<g id="a_node4"><a xlink:title=" ">
<polygon fill="none" stroke="#bfbfbf" points="346,-279.14 346,-298.14 405,-298.14 405,-279.14 346,-279.14"/>
<text text-anchor="middle" x="375.5" y="-286.14" font-family="Helvetica,sans-Serif" font-size="10.00">Cloneable</text>
</a>
</g>
</g>
<!-- Node4&#45;&gt;Node2 -->
<g id="edge3" class="edge">
<title>Node4&#45;&gt;Node2</title>
<path fill="none" stroke="midnightblue" d="M415.21,-284.1C465.54,-277.82 556,-265.22 632,-247.64 657.89,-241.65 686.32,-233.1 709.17,-225.73"/>
<polygon fill="midnightblue" stroke="midnightblue" points="414.6,-280.65 405.1,-285.34 415.45,-287.6 414.6,-280.65"/>
</g>
<!-- Node5 -->
<g id="node5" class="node">
<title>Node5</title>
<g id="a_node5"><a xlink:href="interfacecom_1_1fs_1_1starfarer_1_1api_1_1loading_1_1IndustrySpecAPI.html" target="_top" xlink:title=" ">
<polygon fill="none" stroke="black" points="308.5,-229.64 308.5,-259.64 442.5,-259.64 442.5,-229.64 308.5,-229.64"/>
<text text-anchor="start" x="316.5" y="-247.64" font-family="Helvetica,sans-Serif" font-size="10.00">com.fs.starfarer.api.loading.</text>
<text text-anchor="middle" x="375.5" y="-236.64" font-family="Helvetica,sans-Serif" font-size="10.00">IndustrySpecAPI</text>
</a>
</g>
</g>
<!-- Node5&#45;&gt;Node2 -->
<g id="edge4" class="edge">
<title>Node5&#45;&gt;Node2</title>
<path fill="none" stroke="#9a32cd" stroke-dasharray="5,2" d="M452.57,-237.78C509.26,-232.67 587.32,-225.63 649.74,-220"/>
<polygon fill="#9a32cd" stroke="#9a32cd" points="452.24,-234.29 442.6,-238.68 452.87,-241.26 452.24,-234.29"/>
<text text-anchor="middle" x="569.5" y="-235.64" font-family="Helvetica,sans-Serif" font-size="10.00"> spec</text>
</g>
<!-- Node6 -->
<g id="node6" class="node">
<title>Node6</title>
<g id="a_node6"><a xlink:href="interfacecom_1_1fs_1_1starfarer_1_1api_1_1campaign_1_1econ_1_1MarketAPI.html" target="_top" xlink:title=" ">
<polygon fill="none" stroke="black" points="291,-180.64 291,-210.64 460,-210.64 460,-180.64 291,-180.64"/>
<text text-anchor="start" x="299" y="-198.64" font-family="Helvetica,sans-Serif" font-size="10.00">com.fs.starfarer.api.campaign.econ.</text>
<text text-anchor="middle" x="375.5" y="-187.64" font-family="Helvetica,sans-Serif" font-size="10.00">MarketAPI</text>
</a>
</g>
</g>
<!-- Node6&#45;&gt;Node2 -->
<g id="edge5" class="edge">
<title>Node6&#45;&gt;Node2</title>
<path fill="none" stroke="#9a32cd" stroke-dasharray="5,2" d="M470.19,-199.37C524.76,-201.54 593.68,-204.28 649.88,-206.52"/>
<polygon fill="#9a32cd" stroke="#9a32cd" points="470.3,-195.87 460.17,-198.97 470.02,-202.86 470.3,-195.87"/>
<text text-anchor="middle" x="569.5" y="-208.64" font-family="Helvetica,sans-Serif" font-size="10.00"> market</text>
</g>
<!-- Node7 -->
<g id="node7" class="node">
<title>Node7</title>
<g id="a_node7"><a xlink:href="interfacecom_1_1fs_1_1starfarer_1_1api_1_1campaign_1_1rules_1_1HasMemory.html" target="_top" xlink:title=" ">
<polygon fill="none" stroke="black" points="0,-180.64 0,-210.64 169,-210.64 169,-180.64 0,-180.64"/>
<text text-anchor="start" x="8" y="-198.64" font-family="Helvetica,sans-Serif" font-size="10.00">com.fs.starfarer.api.campaign.rules.</text>
<text text-anchor="middle" x="84.5" y="-187.64" font-family="Helvetica,sans-Serif" font-size="10.00">HasMemory</text>
</a>
</g>
</g>
<!-- Node7&#45;&gt;Node6 -->
<g id="edge6" class="edge">
<title>Node7&#45;&gt;Node6</title>
<path fill="none" stroke="midnightblue" d="M179.1,-195.64C215.07,-195.64 255.87,-195.64 290.85,-195.64"/>
<polygon fill="midnightblue" stroke="midnightblue" points="179.09,-192.14 169.09,-195.64 179.09,-199.14 179.09,-192.14"/>
</g>
<!-- Node8 -->
<g id="node8" class="node">
<title>Node8</title>
<g id="a_node8"><a xlink:href="classcom_1_1fs_1_1starfarer_1_1api_1_1combat_1_1MutableStat.html" target="_top" xlink:title=" ">
<polygon fill="none" stroke="black" points="307.5,-110.64 307.5,-140.64 443.5,-140.64 443.5,-110.64 307.5,-110.64"/>
<text text-anchor="start" x="315.5" y="-128.64" font-family="Helvetica,sans-Serif" font-size="10.00">com.fs.starfarer.api.combat.</text>
<text text-anchor="middle" x="375.5" y="-117.64" font-family="Helvetica,sans-Serif" font-size="10.00">MutableStat</text>
</a>
</g>
</g>
<!-- Node8&#45;&gt;Node2 -->
<g id="edge7" class="edge">
<title>Node8&#45;&gt;Node2</title>
<path fill="none" stroke="#9a32cd" stroke-dasharray="5,2" d="M454,-117.58C518.76,-112.55 604.76,-110.37 632,-130.64 652.97,-146.24 630.76,-168.94 650,-186.64 653.66,-190.01 657.71,-192.94 662.01,-195.48"/>
<polygon fill="#9a32cd" stroke="#9a32cd" points="453.48,-114.11 443.8,-118.41 454.05,-121.09 453.48,-114.11"/>
<text text-anchor="middle" x="569.5" y="-188.64" font-family="Helvetica,sans-Serif" font-size="10.00"> demandReduction</text>
<text text-anchor="middle" x="569.5" y="-177.64" font-family="Helvetica,sans-Serif" font-size="10.00">demandReductionFromOther</text>
<text text-anchor="middle" x="569.5" y="-166.64" font-family="Helvetica,sans-Serif" font-size="10.00">income</text>
<text text-anchor="middle" x="569.5" y="-155.64" font-family="Helvetica,sans-Serif" font-size="10.00">supplyBonus</text>
<text text-anchor="middle" x="569.5" y="-144.64" font-family="Helvetica,sans-Serif" font-size="10.00">supplyBonusFromOther</text>
<text text-anchor="middle" x="569.5" y="-133.64" font-family="Helvetica,sans-Serif" font-size="10.00">upkeep</text>
</g>
<!-- Node9 -->
<g id="node9" class="node">
<title>Node9</title>
<g id="a_node9"><a xlink:title=" ">
<polygon fill="none" stroke="#bfbfbf" points="15.5,-105.14 15.5,-146.14 153.5,-146.14 153.5,-105.14 15.5,-105.14"/>
<text text-anchor="start" x="23.5" y="-134.14" font-family="Helvetica,sans-Serif" font-size="10.00">LinkedHashMap&lt; String,</text>
<text text-anchor="start" x="23.5" y="-123.14" font-family="Helvetica,sans-Serif" font-size="10.00"> com.fs.starfarer.api.combat.</text>
<text text-anchor="middle" x="84.5" y="-112.14" font-family="Helvetica,sans-Serif" font-size="10.00">MutableStat.StatMod &gt;</text>
</a>
</g>
</g>
<!-- Node9&#45;&gt;Node8 -->
<g id="edge8" class="edge">
<title>Node9&#45;&gt;Node8</title>
<path fill="none" stroke="#9a32cd" stroke-dasharray="5,2" d="M163.9,-125.64C208.77,-125.64 264.48,-125.64 307.33,-125.64"/>
<polygon fill="#9a32cd" stroke="#9a32cd" points="163.62,-122.14 153.62,-125.64 163.62,-129.14 163.62,-122.14"/>
<text text-anchor="middle" x="215.5" y="-150.64" font-family="Helvetica,sans-Serif" font-size="10.00"> flatMods</text>
<text text-anchor="middle" x="215.5" y="-139.64" font-family="Helvetica,sans-Serif" font-size="10.00">multMods</text>
<text text-anchor="middle" x="215.5" y="-128.64" font-family="Helvetica,sans-Serif" font-size="10.00">percentMods</text>
</g>
<!-- Node10 -->
<g id="node10" class="node">
<title>Node10</title>
<g id="a_node10"><a xlink:title=" ">
<polygon fill="none" stroke="#bfbfbf" points="262,-61.64 262,-91.64 489,-91.64 489,-61.64 262,-61.64"/>
<text text-anchor="start" x="270" y="-79.64" font-family="Helvetica,sans-Serif" font-size="10.00">Map&lt; String, com.fs.starfarer.api.campaign.econ.</text>
<text text-anchor="middle" x="375.5" y="-68.64" font-family="Helvetica,sans-Serif" font-size="10.00">MutableCommodityQuantity &gt;</text>
</a>
</g>
</g>
<!-- Node10&#45;&gt;Node2 -->
<g id="edge9" class="edge">
<title>Node10&#45;&gt;Node2</title>
<path fill="none" stroke="#9a32cd" stroke-dasharray="5,2" d="M440.54,-59.56C497.74,-48.49 580.26,-43.44 632,-88.64 665.35,-117.77 619.42,-154.61 650,-186.64 653.18,-189.97 656.73,-192.89 660.55,-195.43"/>
<polygon fill="#9a32cd" stroke="#9a32cd" points="439.62,-56.18 430.53,-61.61 441.03,-63.03 439.62,-56.18"/>
<text text-anchor="middle" x="569.5" y="-102.64" font-family="Helvetica,sans-Serif" font-size="10.00"> demand</text>
<text text-anchor="middle" x="569.5" y="-91.64" font-family="Helvetica,sans-Serif" font-size="10.00">supply</text>
</g>
<!-- Node11 -->
<g id="node11" class="node">
<title>Node11</title>
<g id="a_node11"><a xlink:href="classcom_1_1fs_1_1starfarer_1_1api_1_1campaign_1_1SpecialItemData.html" target="_top" xlink:title=" ">
<polygon fill="none" stroke="black" points="302.5,-12.64 302.5,-42.64 448.5,-42.64 448.5,-12.64 302.5,-12.64"/>
<text text-anchor="start" x="310.5" y="-30.64" font-family="Helvetica,sans-Serif" font-size="10.00">com.fs.starfarer.api.campaign.</text>
<text text-anchor="middle" x="375.5" y="-19.64" font-family="Helvetica,sans-Serif" font-size="10.00">SpecialItemData</text>
</a>
</g>
</g>
<!-- Node11&#45;&gt;Node2 -->
<g id="edge10" class="edge">
<title>Node11&#45;&gt;Node2</title>
<path fill="none" stroke="#9a32cd" stroke-dasharray="5,2" d="M436.19,-10.3C493.91,2.46 580.05,10.26 632,-37.64 681.04,-82.85 605.44,-137 650,-186.64 652.96,-189.93 656.27,-192.82 659.85,-195.35"/>
<polygon fill="#9a32cd" stroke="#9a32cd" points="435.06,-6.96 426.11,-12.64 436.65,-13.78 435.06,-6.96"/>
<text text-anchor="middle" x="569.5" y="-40.64" font-family="Helvetica,sans-Serif" font-size="10.00"> special</text>
</g>
<!-- Node12 -->
<g id="node12" class="node">
<title>Node12</title>
<g id="a_node12"><a xlink:href="interfacecom_1_1fs_1_1starfarer_1_1api_1_1campaign_1_1econ_1_1MarketImmigrationModifier.html" target="_top" xlink:title=" ">
<polygon fill="none" stroke="black" points="670,-146.64 670,-176.64 839,-176.64 839,-146.64 670,-146.64"/>
<text text-anchor="start" x="678" y="-164.64" font-family="Helvetica,sans-Serif" font-size="10.00">com.fs.starfarer.api.campaign.econ.</text>
<text text-anchor="middle" x="754.5" y="-153.64" font-family="Helvetica,sans-Serif" font-size="10.00">MarketImmigrationModifier</text>
</a>
</g>
</g>
<!-- Node12&#45;&gt;Node1 -->
<g id="edge11" class="edge">
<title>Node12&#45;&gt;Node1</title>
<path fill="none" stroke="midnightblue" d="M849.48,-161.64C873.45,-161.64 899.36,-161.64 923.8,-161.64"/>
<polygon fill="midnightblue" stroke="midnightblue" points="849.33,-158.14 839.33,-161.64 849.33,-165.14 849.33,-158.14"/>
</g>
<!-- Node13 -->
<g id="node13" class="node">
<title>Node13</title>
<g id="a_node13"><a xlink:href="interfacecom_1_1fs_1_1starfarer_1_1api_1_1campaign_1_1econ_1_1SubmarketAPI.html" target="_top" xlink:title=" ">
<polygon fill="none" stroke="black" points="670,-97.64 670,-127.64 839,-127.64 839,-97.64 670,-97.64"/>
<text text-anchor="start" x="678" y="-115.64" font-family="Helvetica,sans-Serif" font-size="10.00">com.fs.starfarer.api.campaign.econ.</text>
<text text-anchor="middle" x="754.5" y="-104.64" font-family="Helvetica,sans-Serif" font-size="10.00">SubmarketAPI</text>
</a>
</g>
</g>
<!-- Node13&#45;&gt;Node1 -->
<g id="edge12" class="edge">
<title>Node13&#45;&gt;Node1</title>
<path fill="none" stroke="#9a32cd" stroke-dasharray="5,2" d="M848.88,-129.46C879.83,-135.04 914.06,-141.2 944.2,-146.63"/>
<polygon fill="#9a32cd" stroke="#9a32cd" points="849.42,-126 838.96,-127.67 848.18,-132.89 849.42,-126"/>
<text text-anchor="middle" x="891.5" y="-140.64" font-family="Helvetica,sans-Serif" font-size="10.00"> saved</text>
</g>
</g>
</svg>
