<?xml version="1.0" encoding="UTF-8" standalone="no"?>
<!DOCTYPE svg PUBLIC "-//W3C//DTD SVG 1.1//EN"
 "http://www.w3.org/Graphics/SVG/1.1/DTD/svg11.dtd">
<!-- Generated by graphviz version 2.44.0 ()
 -->
<!-- Title: com.fs.starfarer.api.util.Misc Pages: 1 -->
<svg width="439pt" height="351pt"
 viewBox="0.00 0.00 439.00 351.00" xmlns="http://www.w3.org/2000/svg" xmlns:xlink="http://www.w3.org/1999/xlink">
<g id="graph0" class="graph" transform="scale(1 1) rotate(0) translate(4 347)">
<title>com.fs.starfarer.api.util.Misc</title>
<!-- Node1 -->
<g id="node1" class="node">
<title>Node1</title>
<g id="a_node1"><a xlink:title=" ">
<polygon fill="#bfbfbf" stroke="black" points="294,-114.5 294,-133.5 431,-133.5 431,-114.5 294,-114.5"/>
<text text-anchor="middle" x="362.5" y="-121.5" font-family="Helvetica,sans-Serif" font-size="10.00">com.fs.starfarer.api.util.Misc</text>
</a>
</g>
</g>
<!-- Node2 -->
<g id="node2" class="node">
<title>Node2</title>
<g id="a_node2"><a xlink:title=" ">
<polygon fill="none" stroke="#bfbfbf" points="22.5,-314.5 22.5,-333.5 105.5,-333.5 105.5,-314.5 22.5,-314.5"/>
<text text-anchor="middle" x="64" y="-321.5" font-family="Helvetica,sans-Serif" font-size="10.00">DecimalFormat</text>
</a>
</g>
</g>
<!-- Node2&#45;&gt;Node1 -->
<g id="edge1" class="edge">
<title>Node2&#45;&gt;Node1</title>
<path fill="none" stroke="#9a32cd" stroke-dasharray="5,2" d="M115.6,-331.14C161.62,-334.85 229.28,-333.07 276,-300 335.06,-258.2 355.03,-164.12 360.07,-133.69"/>
<polygon fill="#9a32cd" stroke="#9a32cd" points="115.83,-327.64 105.55,-330.21 115.19,-334.61 115.83,-327.64"/>
<text text-anchor="middle" x="211" y="-335" font-family="Helvetica,sans-Serif" font-size="10.00"> format</text>
</g>
<!-- Node3 -->
<g id="node3" class="node">
<title>Node3</title>
<g id="a_node3"><a xlink:href="interfacecom_1_1fs_1_1starfarer_1_1api_1_1MusicPlayerPlugin.html" target="_top" xlink:title=" ">
<polygon fill="none" stroke="black" points="0,-265 0,-295 128,-295 128,-265 0,-265"/>
<text text-anchor="start" x="8" y="-283" font-family="Helvetica,sans-Serif" font-size="10.00">com.fs.starfarer.api.Music</text>
<text text-anchor="middle" x="64" y="-272" font-family="Helvetica,sans-Serif" font-size="10.00">PlayerPlugin</text>
</a>
</g>
</g>
<!-- Node3&#45;&gt;Node1 -->
<g id="edge2" class="edge">
<title>Node3&#45;&gt;Node1</title>
<path fill="none" stroke="#9a32cd" stroke-dasharray="5,2" d="M138.33,-285.7C181.41,-285.63 235.22,-279.33 276,-254 323.27,-224.64 349.83,-158.35 358.4,-133.58"/>
<polygon fill="#9a32cd" stroke="#9a32cd" points="138.23,-282.2 128.19,-285.61 138.16,-289.2 138.23,-282.2"/>
<text text-anchor="middle" x="211" y="-288" font-family="Helvetica,sans-Serif" font-size="10.00"> musicPlugin</text>
</g>
<!-- Node4 -->
<g id="node4" class="node">
<title>Node4</title>
<g id="a_node4"><a xlink:title=" ">
<polygon fill="none" stroke="#bfbfbf" points="44.5,-152.5 44.5,-171.5 83.5,-171.5 83.5,-152.5 44.5,-152.5"/>
<text text-anchor="middle" x="64" y="-159.5" font-family="Helvetica,sans-Serif" font-size="10.00">Color</text>
</a>
</g>
</g>
<!-- Node4&#45;&gt;Node1 -->
<g id="edge3" class="edge">
<title>Node4&#45;&gt;Node1</title>
<path fill="none" stroke="#9a32cd" stroke-dasharray="5,2" d="M93.63,-158.63C134.22,-153.81 210.83,-144.59 276,-136 281.94,-135.22 288.12,-134.39 294.31,-133.54"/>
<polygon fill="#9a32cd" stroke="#9a32cd" points="93.16,-155.16 83.64,-159.81 93.98,-162.11 93.16,-155.16"/>
<text text-anchor="start" x="146" y="-242" font-family="Helvetica,sans-Serif" font-size="10.00"> FLOATY_ARMOR_DAMAGE</text>
<text text-anchor="middle" x="211" y="-231" font-family="Helvetica,sans-Serif" font-size="10.00">_COLOR</text>
<text text-anchor="start" x="146" y="-220" font-family="Helvetica,sans-Serif" font-size="10.00">FLOATY_EMP_DAMAGE</text>
<text text-anchor="middle" x="211" y="-209" font-family="Helvetica,sans-Serif" font-size="10.00">_COLOR</text>
<text text-anchor="start" x="146" y="-198" font-family="Helvetica,sans-Serif" font-size="10.00">FLOATY_HULL_DAMAGE</text>
<text text-anchor="middle" x="211" y="-187" font-family="Helvetica,sans-Serif" font-size="10.00">_COLOR</text>
<text text-anchor="start" x="146" y="-176" font-family="Helvetica,sans-Serif" font-size="10.00">FLOATY_SHIELD_DAMAGE</text>
<text text-anchor="middle" x="211" y="-165" font-family="Helvetica,sans-Serif" font-size="10.00">_COLOR</text>
<text text-anchor="middle" x="211" y="-154" font-family="Helvetica,sans-Serif" font-size="10.00">zeroColor</text>
</g>
<!-- Node5 -->
<g id="node5" class="node">
<title>Node5</title>
<g id="a_node5"><a xlink:title=" ">
<polygon fill="none" stroke="#bfbfbf" points="37.5,-114.5 37.5,-133.5 90.5,-133.5 90.5,-114.5 37.5,-114.5"/>
<text text-anchor="middle" x="64" y="-121.5" font-family="Helvetica,sans-Serif" font-size="10.00">Vector2f</text>
</a>
</g>
</g>
<!-- Node5&#45;&gt;Node1 -->
<g id="edge4" class="edge">
<title>Node5&#45;&gt;Node1</title>
<path fill="none" stroke="#9a32cd" stroke-dasharray="5,2" d="M100.68,-124C148.34,-124 233.75,-124 293.82,-124"/>
<polygon fill="#9a32cd" stroke="#9a32cd" points="100.54,-120.5 90.54,-124 100.54,-127.5 100.54,-120.5"/>
<text text-anchor="middle" x="211" y="-127" font-family="Helvetica,sans-Serif" font-size="10.00"> ZERO</text>
</g>
<!-- Node6 -->
<g id="node6" class="node">
<title>Node6</title>
<g id="a_node6"><a xlink:title=" ">
<polygon fill="none" stroke="#bfbfbf" points="7.5,-76.5 7.5,-95.5 120.5,-95.5 120.5,-76.5 7.5,-76.5"/>
<text text-anchor="middle" x="64" y="-83.5" font-family="Helvetica,sans-Serif" font-size="10.00">Map&lt; String, Integer &gt;</text>
</a>
</g>
</g>
<!-- Node6&#45;&gt;Node1 -->
<g id="edge5" class="edge">
<title>Node6&#45;&gt;Node1</title>
<path fill="none" stroke="#9a32cd" stroke-dasharray="5,2" d="M130.69,-92.05C172.4,-96.17 227.47,-102.1 276,-109 287.19,-110.59 299.16,-112.54 310.5,-114.49"/>
<polygon fill="#9a32cd" stroke="#9a32cd" points="130.95,-88.56 120.66,-91.07 130.27,-95.53 130.95,-88.56"/>
<text text-anchor="middle" x="211" y="-112" font-family="Helvetica,sans-Serif" font-size="10.00"> variantToFPCache</text>
</g>
<!-- Node7 -->
<g id="node7" class="node">
<title>Node7</title>
<g id="a_node7"><a xlink:title=" ">
<polygon fill="none" stroke="#bfbfbf" points="10,-38.5 10,-57.5 118,-57.5 118,-38.5 10,-38.5"/>
<text text-anchor="middle" x="64" y="-45.5" font-family="Helvetica,sans-Serif" font-size="10.00">Map&lt; String, String &gt;</text>
</a>
</g>
</g>
<!-- Node7&#45;&gt;Node1 -->
<g id="edge6" class="edge">
<title>Node7&#45;&gt;Node1</title>
<path fill="none" stroke="#9a32cd" stroke-dasharray="5,2" d="M128.38,-51.7C170.96,-55.53 227.87,-63.31 276,-79 302.47,-87.63 330.56,-103.99 347.04,-114.43"/>
<polygon fill="#9a32cd" stroke="#9a32cd" points="128.42,-48.19 118.16,-50.83 127.82,-55.16 128.42,-48.19"/>
<text text-anchor="middle" x="211" y="-82" font-family="Helvetica,sans-Serif" font-size="10.00"> variantToHullCache</text>
</g>
<!-- Node8 -->
<g id="node8" class="node">
<title>Node8</title>
<g id="a_node8"><a xlink:title=" ">
<polygon fill="none" stroke="#bfbfbf" points="37.5,-0.5 37.5,-19.5 90.5,-19.5 90.5,-0.5 37.5,-0.5"/>
<text text-anchor="middle" x="64" y="-7.5" font-family="Helvetica,sans-Serif" font-size="10.00">Random</text>
</a>
</g>
</g>
<!-- Node8&#45;&gt;Node1 -->
<g id="edge7" class="edge">
<title>Node8&#45;&gt;Node1</title>
<path fill="none" stroke="#9a32cd" stroke-dasharray="5,2" d="M100.68,-7.93C144.34,-6.88 219.41,-9.96 276,-38 312.41,-56.04 342.52,-95.76 355.13,-114.22"/>
<polygon fill="#9a32cd" stroke="#9a32cd" points="100.43,-4.43 90.55,-8.26 100.66,-11.43 100.43,-4.43"/>
<text text-anchor="middle" x="211" y="-41" font-family="Helvetica,sans-Serif" font-size="10.00"> random</text>
</g>
</g>
</svg>
