<?xml version="1.0" encoding="UTF-8" standalone="no"?>
<!DOCTYPE svg PUBLIC "-//W3C//DTD SVG 1.1//EN"
 "http://www.w3.org/Graphics/SVG/1.1/DTD/svg11.dtd">
<!-- Generated by graphviz version 12.2.0 (20241103.1931)
 -->
<!-- Title: com.fs.starfarer.api.impl.campaign.intel.inspection.HIActionStage Pages: 1 -->
<svg width="2047pt" height="416pt"
 viewBox="0.00 0.00 2046.75 415.50" xmlns="http://www.w3.org/2000/svg" xmlns:xlink="http://www.w3.org/1999/xlink">
<g id="graph0" class="graph" transform="scale(1 1) rotate(0) translate(4 411.5)">
<title>com.fs.starfarer.api.impl.campaign.intel.inspection.HIActionStage</title>
<!-- Node1 -->
<g id="Node000001" class="node">
<title>Node1</title>
<g id="a_Node000001"><a xlink:title=" ">
<polygon fill="#999999" stroke="#666666" points="2038.75,-223.5 1806.75,-223.5 1806.75,-193 2038.75,-193 2038.75,-223.5"/>
<text text-anchor="start" x="1814.75" y="-210" font-family="Helvetica,sans-Serif" font-size="10.00">com.fs.starfarer.api.impl.campaign.intel.inspection.</text>
<text text-anchor="middle" x="1922.75" y="-198.75" font-family="Helvetica,sans-Serif" font-size="10.00">HIActionStage</text>
</a>
</g>
</g>
<!-- Node2 -->
<g id="Node000002" class="node">
<title>Node2</title>
<g id="a_Node000002"><a xlink:href="classcom_1_1fs_1_1starfarer_1_1api_1_1impl_1_1campaign_1_1intel_1_1raid_1_1ActionStage.html" target="_top" xlink:title=" ">
<polygon fill="white" stroke="#666666" points="1686.75,-272.5 1483.25,-272.5 1483.25,-242 1686.75,-242 1686.75,-272.5"/>
<text text-anchor="start" x="1491.25" y="-259" font-family="Helvetica,sans-Serif" font-size="10.00">com.fs.starfarer.api.impl.campaign.intel.raid.</text>
<text text-anchor="middle" x="1585" y="-247.75" font-family="Helvetica,sans-Serif" font-size="10.00">ActionStage</text>
</a>
</g>
</g>
<!-- Node2&#45;&gt;Node1 -->
<g id="edge1_Node000001_Node000002" class="edge">
<title>Node2&#45;&gt;Node1</title>
<g id="a_edge1_Node000001_Node000002"><a xlink:title=" ">
<path fill="none" stroke="#63b8ff" d="M1698.13,-240.89C1735.5,-235.43 1777.03,-229.37 1814.05,-223.97"/>
<polygon fill="#63b8ff" stroke="#63b8ff" points="1698.08,-237.36 1688.69,-242.26 1699.09,-244.28 1698.08,-237.36"/>
</a>
</g>
</g>
<!-- Node3 -->
<g id="Node000003" class="node">
<title>Node3</title>
<g id="a_Node000003"><a xlink:href="classcom_1_1fs_1_1starfarer_1_1api_1_1impl_1_1campaign_1_1intel_1_1raid_1_1BaseRaidStage.html" target="_top" xlink:title=" ">
<polygon fill="white" stroke="#666666" points="1429.75,-214.5 1226.25,-214.5 1226.25,-184 1429.75,-184 1429.75,-214.5"/>
<text text-anchor="start" x="1234.25" y="-201" font-family="Helvetica,sans-Serif" font-size="10.00">com.fs.starfarer.api.impl.campaign.intel.raid.</text>
<text text-anchor="middle" x="1328" y="-189.75" font-family="Helvetica,sans-Serif" font-size="10.00">BaseRaidStage</text>
</a>
</g>
</g>
<!-- Node3&#45;&gt;Node2 -->
<g id="edge2_Node000002_Node000003" class="edge">
<title>Node3&#45;&gt;Node2</title>
<g id="a_edge2_Node000002_Node000003"><a xlink:title=" ">
<path fill="none" stroke="#63b8ff" d="M1404.13,-217.61C1424.43,-222.47 1446.41,-227.65 1466.75,-232.25 1480.35,-235.33 1494.86,-238.51 1508.88,-241.53"/>
<polygon fill="#63b8ff" stroke="#63b8ff" points="1405.06,-214.23 1394.52,-215.3 1403.43,-221.04 1405.06,-214.23"/>
</a>
</g>
</g>
<!-- Node4 -->
<g id="Node000004" class="node">
<title>Node4</title>
<g id="a_Node000004"><a xlink:title=" ">
<polygon fill="white" stroke="#666666" points="1128.75,-263.5 925.25,-263.5 925.25,-233 1128.75,-233 1128.75,-263.5"/>
<text text-anchor="start" x="933.25" y="-250" font-family="Helvetica,sans-Serif" font-size="10.00">com.fs.starfarer.api.impl.campaign.intel.raid.</text>
<text text-anchor="middle" x="1027" y="-238.75" font-family="Helvetica,sans-Serif" font-size="10.00">RaidIntel.RaidStage</text>
</a>
</g>
</g>
<!-- Node4&#45;&gt;Node3 -->
<g id="edge3_Node000003_Node000004" class="edge">
<title>Node4&#45;&gt;Node3</title>
<g id="a_edge3_Node000003_Node000004"><a xlink:title=" ">
<path fill="none" stroke="#63b8ff" d="M1134.81,-230.75C1166.18,-225.61 1200.28,-220.02 1230.93,-214.99"/>
<polygon fill="#63b8ff" stroke="#63b8ff" points="1134.64,-227.23 1125.33,-232.3 1135.77,-234.14 1134.64,-227.23"/>
</a>
</g>
</g>
<!-- Node5 -->
<g id="Node000005" class="node">
<title>Node5</title>
<g id="a_Node000005"><a xlink:href="classcom_1_1fs_1_1starfarer_1_1api_1_1impl_1_1campaign_1_1intel_1_1raid_1_1RaidIntel.html" target="_top" xlink:title=" ">
<polygon fill="white" stroke="#666666" points="1128.75,-165.5 925.25,-165.5 925.25,-135 1128.75,-135 1128.75,-165.5"/>
<text text-anchor="start" x="933.25" y="-152" font-family="Helvetica,sans-Serif" font-size="10.00">com.fs.starfarer.api.impl.campaign.intel.raid.</text>
<text text-anchor="middle" x="1027" y="-140.75" font-family="Helvetica,sans-Serif" font-size="10.00">RaidIntel</text>
</a>
</g>
</g>
<!-- Node5&#45;&gt;Node3 -->
<g id="edge4_Node000003_Node000005" class="edge">
<title>Node5&#45;&gt;Node3</title>
<g id="a_edge4_Node000003_Node000005"><a xlink:title=" ">
<path fill="none" stroke="#9a32cd" stroke-dasharray="5,2" d="M1134.81,-167.75C1166.18,-172.89 1200.28,-178.48 1230.93,-183.51"/>
<polygon fill="#9a32cd" stroke="#9a32cd" points="1135.77,-164.36 1125.33,-166.2 1134.64,-171.27 1135.77,-164.36"/>
</a>
</g>
<text text-anchor="middle" x="1177.5" y="-180.89" font-family="Helvetica,sans-Serif" font-size="10.00" fill="grey"> intel</text>
</g>
<!-- Node6 -->
<g id="Node000006" class="node">
<title>Node6</title>
<g id="a_Node000006"><a xlink:href="classcom_1_1fs_1_1starfarer_1_1api_1_1impl_1_1campaign_1_1intel_1_1BaseIntelPlugin.html" target="_top" xlink:title=" ">
<polygon fill="white" stroke="#666666" points="841.25,-261.5 655.75,-261.5 655.75,-231 841.25,-231 841.25,-261.5"/>
<text text-anchor="start" x="663.75" y="-248" font-family="Helvetica,sans-Serif" font-size="10.00">com.fs.starfarer.api.impl.campaign.intel.</text>
<text text-anchor="middle" x="748.5" y="-236.75" font-family="Helvetica,sans-Serif" font-size="10.00">BaseIntelPlugin</text>
</a>
</g>
</g>
<!-- Node6&#45;&gt;Node5 -->
<g id="edge5_Node000005_Node000006" class="edge">
<title>Node6&#45;&gt;Node5</title>
<g id="a_edge5_Node000005_Node000006"><a xlink:title=" ">
<path fill="none" stroke="#63b8ff" d="M852.33,-240.62C872.07,-235.69 891.48,-227.77 907.25,-215.25 922.52,-203.13 910.28,-187.74 925.25,-175.25 929.54,-171.67 934.27,-168.59 939.26,-165.94"/>
<polygon fill="#63b8ff" stroke="#63b8ff" points="851.82,-237.15 842.82,-242.73 853.34,-243.98 851.82,-237.15"/>
</a>
</g>
</g>
<!-- Node7 -->
<g id="Node000007" class="node">
<title>Node7</title>
<g id="a_Node000007"><a xlink:href="interfacecom_1_1fs_1_1starfarer_1_1api_1_1campaign_1_1comm_1_1IntelInfoPlugin.html" target="_top" xlink:title=" ">
<polygon fill="white" stroke="#666666" points="411,-286.5 236.75,-286.5 236.75,-256 411,-256 411,-286.5"/>
<text text-anchor="start" x="244.75" y="-273" font-family="Helvetica,sans-Serif" font-size="10.00">com.fs.starfarer.api.campaign.comm.</text>
<text text-anchor="middle" x="323.88" y="-261.75" font-family="Helvetica,sans-Serif" font-size="10.00">IntelInfoPlugin</text>
</a>
</g>
</g>
<!-- Node7&#45;&gt;Node6 -->
<g id="edge6_Node000006_Node000007" class="edge">
<title>Node7&#45;&gt;Node6</title>
<g id="a_edge6_Node000006_Node000007"><a xlink:title=" ">
<path fill="none" stroke="#63b8ff" d="M422.91,-265.45C493.06,-261.3 586.86,-255.75 655.58,-251.69"/>
<polygon fill="#63b8ff" stroke="#63b8ff" points="422.71,-261.96 412.93,-266.04 423.12,-268.94 422.71,-261.96"/>
</a>
</g>
</g>
<!-- Node8 -->
<g id="Node000008" class="node">
<title>Node8</title>
<g id="a_Node000008"><a xlink:title=" ">
<polygon fill="white" stroke="#666666" points="424.88,-237.5 222.88,-237.5 222.88,-207 424.88,-207 424.88,-237.5"/>
<text text-anchor="start" x="230.88" y="-224" font-family="Helvetica,sans-Serif" font-size="10.00">com.fs.starfarer.api.impl.campaign.rulecmd.</text>
<text text-anchor="middle" x="323.88" y="-212.75" font-family="Helvetica,sans-Serif" font-size="10.00">CallEvent.CallableEvent</text>
</a>
</g>
</g>
<!-- Node8&#45;&gt;Node6 -->
<g id="edge7_Node000006_Node000008" class="edge">
<title>Node8&#45;&gt;Node6</title>
<g id="a_edge7_Node000006_Node000008"><a xlink:title=" ">
<path fill="none" stroke="#63b8ff" d="M436.53,-228.59C504.79,-232.47 591.05,-237.37 655.4,-241.02"/>
<polygon fill="#63b8ff" stroke="#63b8ff" points="436.99,-225.11 426.81,-228.04 436.6,-232.1 436.99,-225.11"/>
</a>
</g>
</g>
<!-- Node9 -->
<g id="Node000009" class="node">
<title>Node9</title>
<g id="a_Node000009"><a xlink:href="interfacecom_1_1fs_1_1starfarer_1_1api_1_1EveryFrameScript.html" target="_top" xlink:title=" ">
<polygon fill="white" stroke="#666666" points="386.25,-188.5 261.5,-188.5 261.5,-158 386.25,-158 386.25,-188.5"/>
<text text-anchor="start" x="269.5" y="-175" font-family="Helvetica,sans-Serif" font-size="10.00">com.fs.starfarer.api.Every</text>
<text text-anchor="middle" x="323.88" y="-163.75" font-family="Helvetica,sans-Serif" font-size="10.00">FrameScript</text>
</a>
</g>
</g>
<!-- Node9&#45;&gt;Node6 -->
<g id="edge8_Node000006_Node000009" class="edge">
<title>Node9&#45;&gt;Node6</title>
<g id="a_edge8_Node000006_Node000009"><a xlink:title=" ">
<path fill="none" stroke="#63b8ff" d="M397.49,-185.79C469.13,-198.17 578.87,-217.12 656.35,-230.5"/>
<polygon fill="#63b8ff" stroke="#63b8ff" points="398.27,-182.38 387.82,-184.12 397.08,-189.27 398.27,-182.38"/>
</a>
</g>
</g>
<!-- Node10 -->
<g id="Node000010" class="node">
<title>Node10</title>
<g id="a_Node000010"><a xlink:title=" ">
<polygon fill="white" stroke="#666666" points="442.5,-139.5 205.25,-139.5 205.25,-109 442.5,-109 442.5,-139.5"/>
<text text-anchor="start" x="213.25" y="-126" font-family="Helvetica,sans-Serif" font-size="10.00">com.fs.starfarer.api.impl.campaign.</text>
<text text-anchor="middle" x="323.88" y="-114.75" font-family="Helvetica,sans-Serif" font-size="10.00">CommRelayEntityPlugin.CommSnifferReadableIntel</text>
</a>
</g>
</g>
<!-- Node10&#45;&gt;Node6 -->
<g id="edge9_Node000006_Node000010" class="edge">
<title>Node10&#45;&gt;Node6</title>
<g id="a_edge9_Node000006_Node000010"><a xlink:title=" ">
<path fill="none" stroke="#63b8ff" d="M410.94,-142.31C421.58,-144.61 432.29,-146.96 442.5,-149.25 525.49,-167.87 557.11,-147.4 628.75,-193.25 639.68,-200.25 636.02,-208.94 646.75,-216.25 655.27,-222.06 664.94,-226.76 674.83,-230.57"/>
<polygon fill="#63b8ff" stroke="#63b8ff" points="411.91,-138.94 401.39,-140.25 410.43,-145.78 411.91,-138.94"/>
</a>
</g>
</g>
<!-- Node11 -->
<g id="Node000011" class="node">
<title>Node11</title>
<g id="a_Node000011"><a xlink:href="interfacecom_1_1fs_1_1starfarer_1_1api_1_1campaign_1_1SectorEntityToken.html" target="_top" xlink:title=" ">
<polygon fill="white" stroke="#666666" points="396.38,-372.5 251.38,-372.5 251.38,-342 396.38,-342 396.38,-372.5"/>
<text text-anchor="start" x="259.38" y="-359" font-family="Helvetica,sans-Serif" font-size="10.00">com.fs.starfarer.api.campaign.</text>
<text text-anchor="middle" x="323.88" y="-347.75" font-family="Helvetica,sans-Serif" font-size="10.00">SectorEntityToken</text>
</a>
</g>
</g>
<!-- Node11&#45;&gt;Node6 -->
<g id="edge10_Node000006_Node000011" class="edge">
<title>Node11&#45;&gt;Node6</title>
<g id="a_edge10_Node000006_Node000011"><a xlink:title=" ">
<path fill="none" stroke="#9a32cd" stroke-dasharray="5,2" d="M407.89,-353.02C470.06,-347.94 556.48,-336.77 628.75,-312.25 664.71,-300.05 702.41,-277.09 725.43,-261.73"/>
<polygon fill="#9a32cd" stroke="#9a32cd" points="407.78,-349.52 398.08,-353.78 408.32,-356.5 407.78,-349.52"/>
</a>
</g>
<text text-anchor="middle" x="544.62" y="-348.79" font-family="Helvetica,sans-Serif" font-size="10.00" fill="grey"> postingLocation</text>
</g>
<!-- Node12 -->
<g id="Node000012" class="node">
<title>Node12</title>
<g id="a_Node000012"><a xlink:href="interfacecom_1_1fs_1_1starfarer_1_1api_1_1campaign_1_1rules_1_1HasMemory.html" target="_top" xlink:title=" ">
<polygon fill="white" stroke="#666666" points="168.25,-372.5 0,-372.5 0,-342 168.25,-342 168.25,-372.5"/>
<text text-anchor="start" x="8" y="-359" font-family="Helvetica,sans-Serif" font-size="10.00">com.fs.starfarer.api.campaign.rules.</text>
<text text-anchor="middle" x="84.12" y="-347.75" font-family="Helvetica,sans-Serif" font-size="10.00">HasMemory</text>
</a>
</g>
</g>
<!-- Node12&#45;&gt;Node11 -->
<g id="edge11_Node000011_Node000012" class="edge">
<title>Node12&#45;&gt;Node11</title>
<g id="a_edge11_Node000011_Node000012"><a xlink:title=" ">
<path fill="none" stroke="#63b8ff" d="M180.1,-357.25C203.75,-357.25 228.71,-357.25 251.04,-357.25"/>
<polygon fill="#63b8ff" stroke="#63b8ff" points="180.13,-353.75 170.13,-357.25 180.13,-360.75 180.13,-353.75"/>
</a>
</g>
</g>
<!-- Node18 -->
<g id="Node000018" class="node">
<title>Node18</title>
<g id="a_Node000018"><a xlink:href="interfacecom_1_1fs_1_1starfarer_1_1api_1_1campaign_1_1FactionAPI.html" target="_top" xlink:title=" ">
<polygon fill="white" stroke="#666666" points="617.12,-103.5 472.12,-103.5 472.12,-73 617.12,-73 617.12,-103.5"/>
<text text-anchor="start" x="480.12" y="-90" font-family="Helvetica,sans-Serif" font-size="10.00">com.fs.starfarer.api.campaign.</text>
<text text-anchor="middle" x="544.62" y="-78.75" font-family="Helvetica,sans-Serif" font-size="10.00">FactionAPI</text>
</a>
</g>
</g>
<!-- Node12&#45;&gt;Node18 -->
<g id="edge18_Node000018_Node000012" class="edge">
<title>Node12&#45;&gt;Node18</title>
<g id="a_edge18_Node000018_Node000012"><a xlink:title=" ">
<path fill="none" stroke="#63b8ff" d="M88.54,-330.43C97.05,-276.07 124.68,-153.56 205.25,-100.25 288.22,-45.35 409.39,-57.8 481.97,-72.54"/>
<polygon fill="#63b8ff" stroke="#63b8ff" points="85.12,-329.64 87.14,-340.04 92.04,-330.65 85.12,-329.64"/>
</a>
</g>
</g>
<!-- Node23 -->
<g id="Node000023" class="node">
<title>Node23</title>
<g id="a_Node000023"><a xlink:href="interfacecom_1_1fs_1_1starfarer_1_1api_1_1campaign_1_1econ_1_1MarketAPI.html" target="_top" xlink:title=" ">
<polygon fill="white" stroke="#666666" points="628.75,-407.5 460.5,-407.5 460.5,-377 628.75,-377 628.75,-407.5"/>
<text text-anchor="start" x="468.5" y="-394" font-family="Helvetica,sans-Serif" font-size="10.00">com.fs.starfarer.api.campaign.econ.</text>
<text text-anchor="middle" x="544.62" y="-382.75" font-family="Helvetica,sans-Serif" font-size="10.00">MarketAPI</text>
</a>
</g>
</g>
<!-- Node12&#45;&gt;Node23 -->
<g id="edge24_Node000023_Node000012" class="edge">
<title>Node12&#45;&gt;Node23</title>
<g id="a_edge24_Node000023_Node000012"><a xlink:title=" ">
<path fill="none" stroke="#63b8ff" d="M164.89,-375.09C178.3,-377.54 192.13,-379.74 205.25,-381.25 291.81,-391.24 391.59,-393.34 460.26,-393.35"/>
<polygon fill="#63b8ff" stroke="#63b8ff" points="165.7,-371.68 155.23,-373.26 164.4,-378.56 165.7,-371.68"/>
</a>
</g>
</g>
<!-- Node13 -->
<g id="Node000013" class="node">
<title>Node13</title>
<g id="a_Node000013"><a xlink:title=" ">
<polygon fill="white" stroke="#666666" points="360.38,-323.88 287.38,-323.88 287.38,-304.62 360.38,-304.62 360.38,-323.88"/>
<text text-anchor="middle" x="323.88" y="-310.38" font-family="Helvetica,sans-Serif" font-size="10.00">Set&lt; String &gt;</text>
</a>
</g>
</g>
<!-- Node13&#45;&gt;Node6 -->
<g id="edge12_Node000006_Node000013" class="edge">
<title>Node13&#45;&gt;Node6</title>
<g id="a_edge12_Node000006_Node000013"><a xlink:title=" ">
<path fill="none" stroke="#9a32cd" stroke-dasharray="5,2" d="M371.91,-308.91C431.78,-301.84 538.31,-288.38 628.75,-272.25 645.48,-269.27 663.42,-265.59 680.17,-261.95"/>
<polygon fill="#9a32cd" stroke="#9a32cd" points="371.6,-305.42 362.08,-310.06 372.41,-312.37 371.6,-305.42"/>
</a>
</g>
<text text-anchor="middle" x="544.62" y="-299.12" font-family="Helvetica,sans-Serif" font-size="10.00" fill="grey"> tagsForSort</text>
</g>
<!-- Node14 -->
<g id="Node000014" class="node">
<title>Node14</title>
<g id="a_Node000014"><a xlink:title=" ">
<polygon fill="white" stroke="#666666" points="843.88,-116.5 653.12,-116.5 653.12,-86 843.88,-86 843.88,-116.5"/>
<text text-anchor="start" x="661.12" y="-103" font-family="Helvetica,sans-Serif" font-size="10.00">com.fs.starfarer.api.impl.campaign.fleets.</text>
<text text-anchor="middle" x="748.5" y="-91.75" font-family="Helvetica,sans-Serif" font-size="10.00">RouteManager.RouteFleetSpawner</text>
</a>
</g>
</g>
<!-- Node14&#45;&gt;Node5 -->
<g id="edge13_Node000005_Node000014" class="edge">
<title>Node14&#45;&gt;Node5</title>
<g id="a_edge13_Node000005_Node000014"><a xlink:title=" ">
<path fill="none" stroke="#63b8ff" d="M849.44,-118.96C878.21,-124.06 909.37,-129.58 937.4,-134.55"/>
<polygon fill="#63b8ff" stroke="#63b8ff" points="850.07,-115.52 839.62,-117.22 848.85,-122.41 850.07,-115.52"/>
</a>
</g>
</g>
<!-- Node15 -->
<g id="Node000015" class="node">
<title>Node15</title>
<g id="a_Node000015"><a xlink:title=" ">
<polygon fill="white" stroke="#666666" points="795.5,-67.88 701.5,-67.88 701.5,-48.62 795.5,-48.62 795.5,-67.88"/>
<text text-anchor="middle" x="748.5" y="-54.38" font-family="Helvetica,sans-Serif" font-size="10.00">List&lt; RaidStage &gt;</text>
</a>
</g>
</g>
<!-- Node15&#45;&gt;Node5 -->
<g id="edge14_Node000005_Node000015" class="edge">
<title>Node15&#45;&gt;Node5</title>
<g id="a_edge14_Node000005_Node000015"><a xlink:title=" ">
<path fill="none" stroke="#9a32cd" stroke-dasharray="5,2" d="M807.18,-65.97C821.48,-68.74 836.61,-72.42 850.25,-77.25 877.38,-86.86 883.98,-91.06 907.25,-108 916.21,-114.52 915.55,-119.9 925.25,-125.25 931.72,-128.82 938.7,-131.88 945.87,-134.51"/>
<polygon fill="#9a32cd" stroke="#9a32cd" points="807.88,-62.54 797.42,-64.2 806.64,-69.43 807.88,-62.54"/>
</a>
</g>
<text text-anchor="middle" x="887.75" y="-109.75" font-family="Helvetica,sans-Serif" font-size="10.00" fill="grey"> stages</text>
</g>
<!-- Node16 -->
<g id="Node000016" class="node">
<title>Node16</title>
<g id="a_Node000016"><a xlink:href="interfacecom_1_1fs_1_1starfarer_1_1api_1_1campaign_1_1StarSystemAPI.html" target="_top" xlink:title=" ">
<polygon fill="white" stroke="#666666" points="821,-30.5 676,-30.5 676,0 821,0 821,-30.5"/>
<text text-anchor="start" x="684" y="-17" font-family="Helvetica,sans-Serif" font-size="10.00">com.fs.starfarer.api.campaign.</text>
<text text-anchor="middle" x="748.5" y="-5.75" font-family="Helvetica,sans-Serif" font-size="10.00">StarSystemAPI</text>
</a>
</g>
</g>
<!-- Node16&#45;&gt;Node5 -->
<g id="edge15_Node000005_Node000016" class="edge">
<title>Node16&#45;&gt;Node5</title>
<g id="a_edge15_Node000005_Node000016"><a xlink:title=" ">
<path fill="none" stroke="#9a32cd" stroke-dasharray="5,2" d="M832.44,-33.26C838.52,-35.11 844.51,-37.11 850.25,-39.25 877.02,-49.25 888.85,-47.14 907.25,-69 924.15,-89.08 906.08,-107.32 925.25,-125.25 929.07,-128.82 933.31,-131.9 937.84,-134.56"/>
<polygon fill="#9a32cd" stroke="#9a32cd" points="833.47,-29.91 822.89,-30.5 831.52,-36.64 833.47,-29.91"/>
</a>
</g>
<text text-anchor="middle" x="887.75" y="-70.75" font-family="Helvetica,sans-Serif" font-size="10.00" fill="grey"> system</text>
</g>
<!-- Node17 -->
<g id="Node000017" class="node">
<title>Node17</title>
<g id="a_Node000017"><a xlink:href="interfacecom_1_1fs_1_1starfarer_1_1api_1_1campaign_1_1LocationAPI.html" target="_top" xlink:title=" ">
<polygon fill="white" stroke="#666666" points="396.38,-30.5 251.38,-30.5 251.38,0 396.38,0 396.38,-30.5"/>
<text text-anchor="start" x="259.38" y="-17" font-family="Helvetica,sans-Serif" font-size="10.00">com.fs.starfarer.api.campaign.</text>
<text text-anchor="middle" x="323.88" y="-5.75" font-family="Helvetica,sans-Serif" font-size="10.00">LocationAPI</text>
</a>
</g>
</g>
<!-- Node17&#45;&gt;Node16 -->
<g id="edge16_Node000016_Node000017" class="edge">
<title>Node17&#45;&gt;Node16</title>
<g id="a_edge16_Node000016_Node000017"><a xlink:title=" ">
<path fill="none" stroke="#63b8ff" d="M407.8,-15.25C485.89,-15.25 601.63,-15.25 675.81,-15.25"/>
<polygon fill="#63b8ff" stroke="#63b8ff" points="408.08,-11.75 398.08,-15.25 408.08,-18.75 408.08,-11.75"/>
</a>
</g>
</g>
<!-- Node18&#45;&gt;Node5 -->
<g id="edge17_Node000005_Node000018" class="edge">
<title>Node18&#45;&gt;Node5</title>
<g id="a_edge17_Node000005_Node000018"><a xlink:title=" ">
<path fill="none" stroke="#9a32cd" stroke-dasharray="5,2" d="M580.61,-110.28C596.24,-121.01 614.35,-134.72 628.75,-149.25 638.39,-158.98 634.56,-168.01 646.75,-174.25 695.85,-199.4 842.67,-181.45 938.57,-165.97"/>
<polygon fill="#9a32cd" stroke="#9a32cd" points="582.76,-107.5 572.5,-104.84 578.86,-113.32 582.76,-107.5"/>
</a>
</g>
<text text-anchor="middle" x="748.5" y="-188.52" font-family="Helvetica,sans-Serif" font-size="10.00" fill="grey"> faction</text>
</g>
<!-- Node19 -->
<g id="Node000019" class="node">
<title>Node19</title>
<g id="a_Node000019"><a xlink:title=" ">
<polygon fill="white" stroke="#666666" points="850.25,-165.5 646.75,-165.5 646.75,-135 850.25,-135 850.25,-165.5"/>
<text text-anchor="start" x="654.75" y="-152" font-family="Helvetica,sans-Serif" font-size="10.00">com.fs.starfarer.api.impl.campaign.intel.raid.</text>
<text text-anchor="middle" x="748.5" y="-140.75" font-family="Helvetica,sans-Serif" font-size="10.00">RaidIntel.RaidDelegate</text>
</a>
</g>
</g>
<!-- Node19&#45;&gt;Node5 -->
<g id="edge19_Node000005_Node000019" class="edge">
<title>Node19&#45;&gt;Node5</title>
<g id="a_edge19_Node000005_Node000019"><a xlink:title=" ">
<path fill="none" stroke="#9a32cd" stroke-dasharray="5,2" d="M861.96,-150.25C882.76,-150.25 904.37,-150.25 924.81,-150.25"/>
<polygon fill="#9a32cd" stroke="#9a32cd" points="862.01,-146.75 852.01,-150.25 862.01,-153.75 862.01,-146.75"/>
</a>
</g>
<text text-anchor="middle" x="887.75" y="-152" font-family="Helvetica,sans-Serif" font-size="10.00" fill="grey"> delegate</text>
</g>
<!-- Node20 -->
<g id="Node000020" class="node">
<title>Node20</title>
<g id="a_Node000020"><a xlink:href="classcom_1_1fs_1_1starfarer_1_1api_1_1util_1_1IntervalUtil.html" target="_top" xlink:title=" ">
<polygon fill="white" stroke="#666666" points="1084.88,-116.5 969.12,-116.5 969.12,-86 1084.88,-86 1084.88,-116.5"/>
<text text-anchor="start" x="977.12" y="-103" font-family="Helvetica,sans-Serif" font-size="10.00">com.fs.starfarer.api.util.</text>
<text text-anchor="middle" x="1027" y="-91.75" font-family="Helvetica,sans-Serif" font-size="10.00">IntervalUtil</text>
</a>
</g>
</g>
<!-- Node20&#45;&gt;Node3 -->
<g id="edge20_Node000003_Node000020" class="edge">
<title>Node20&#45;&gt;Node3</title>
<g id="a_edge20_Node000003_Node000020"><a xlink:title=" ">
<path fill="none" stroke="#9a32cd" stroke-dasharray="5,2" d="M1096.14,-117.14C1107.1,-119.98 1118.28,-123.07 1128.75,-126.25 1185.07,-143.37 1248.7,-167.72 1288.33,-183.5"/>
<polygon fill="#9a32cd" stroke="#9a32cd" points="1097.32,-113.82 1086.76,-114.75 1095.59,-120.61 1097.32,-113.82"/>
</a>
</g>
<text text-anchor="middle" x="1177.5" y="-153.86" font-family="Helvetica,sans-Serif" font-size="10.00" fill="grey"> statusInterval</text>
</g>
<!-- Node21 -->
<g id="Node000021" class="node">
<title>Node21</title>
<g id="a_Node000021"><a xlink:title=" ">
<polygon fill="white" stroke="#666666" points="1128.75,-214.5 925.25,-214.5 925.25,-184 1128.75,-184 1128.75,-214.5"/>
<text text-anchor="start" x="933.25" y="-201" font-family="Helvetica,sans-Serif" font-size="10.00">com.fs.starfarer.api.impl.campaign.intel.raid.</text>
<text text-anchor="middle" x="1027" y="-189.75" font-family="Helvetica,sans-Serif" font-size="10.00">RaidIntel.RaidStageStatus</text>
</a>
</g>
</g>
<!-- Node21&#45;&gt;Node3 -->
<g id="edge21_Node000003_Node000021" class="edge">
<title>Node21&#45;&gt;Node3</title>
<g id="a_edge21_Node000003_Node000021"><a xlink:title=" ">
<path fill="none" stroke="#9a32cd" stroke-dasharray="5,2" d="M1140.68,-199.25C1168.66,-199.25 1198.48,-199.25 1225.88,-199.25"/>
<polygon fill="#9a32cd" stroke="#9a32cd" points="1140.74,-195.75 1130.74,-199.25 1140.74,-202.75 1140.74,-195.75"/>
</a>
</g>
<text text-anchor="middle" x="1177.5" y="-201" font-family="Helvetica,sans-Serif" font-size="10.00" fill="grey"> status</text>
</g>
<!-- Node22 -->
<g id="Node000022" class="node">
<title>Node22</title>
<g id="a_Node000022"><a xlink:href="interfacecom_1_1fs_1_1starfarer_1_1api_1_1impl_1_1campaign_1_1procgen_1_1themes_1_1BaseAssignmentAI_1_1FleetActionDelegate.html" target="_top" xlink:title=" ">
<polygon fill="white" stroke="#666666" points="1703.25,-223.5 1466.75,-223.5 1466.75,-193 1703.25,-193 1703.25,-223.5"/>
<text text-anchor="start" x="1474.75" y="-210" font-family="Helvetica,sans-Serif" font-size="10.00">com.fs.starfarer.api.impl.campaign.procgen.themes.</text>
<text text-anchor="middle" x="1585" y="-198.75" font-family="Helvetica,sans-Serif" font-size="10.00">BaseAssignmentAI.FleetActionDelegate</text>
</a>
</g>
</g>
<!-- Node22&#45;&gt;Node1 -->
<g id="edge22_Node000001_Node000022" class="edge">
<title>Node22&#45;&gt;Node1</title>
<g id="a_edge22_Node000001_Node000022"><a xlink:title=" ">
<path fill="none" stroke="#63b8ff" d="M1714.88,-208.25C1744.99,-208.25 1776.88,-208.25 1806.37,-208.25"/>
<polygon fill="#63b8ff" stroke="#63b8ff" points="1714.94,-204.75 1704.94,-208.25 1714.94,-211.75 1714.94,-204.75"/>
</a>
</g>
</g>
<!-- Node23&#45;&gt;Node1 -->
<g id="edge23_Node000001_Node000023" class="edge">
<title>Node23&#45;&gt;Node1</title>
<g id="a_edge23_Node000001_Node000023"><a xlink:title=" ">
<path fill="none" stroke="#9a32cd" stroke-dasharray="5,2" d="M604.13,-373.29C671.52,-353.17 785.93,-324.25 886.75,-324.25 886.75,-324.25 886.75,-324.25 1586,-324.25 1707.49,-324.25 1840.82,-255.56 1895.83,-223.89"/>
<polygon fill="#9a32cd" stroke="#9a32cd" points="603.33,-369.88 594.78,-376.13 605.36,-376.58 603.33,-369.88"/>
</a>
</g>
<text text-anchor="middle" x="1177.5" y="-326" font-family="Helvetica,sans-Serif" font-size="10.00" fill="grey"> target</text>
</g>
<!-- Node24 -->
<g id="Node000024" class="node">
<title>Node24</title>
<g id="a_Node000024"><a xlink:title=" ">
<polygon fill="white" stroke="#666666" points="1680,-174.5 1490,-174.5 1490,-144 1680,-144 1680,-174.5"/>
<text text-anchor="start" x="1498" y="-161" font-family="Helvetica,sans-Serif" font-size="10.00">List&lt; com.fs.starfarer.api.impl.campaign.</text>
<text text-anchor="middle" x="1585" y="-149.75" font-family="Helvetica,sans-Serif" font-size="10.00">MilitaryResponseScript &gt;</text>
</a>
</g>
</g>
<!-- Node24&#45;&gt;Node1 -->
<g id="edge25_Node000001_Node000024" class="edge">
<title>Node24&#45;&gt;Node1</title>
<g id="a_edge25_Node000001_Node000024"><a xlink:title=" ">
<path fill="none" stroke="#9a32cd" stroke-dasharray="5,2" d="M1691.78,-174.69C1730.68,-180.36 1774.75,-186.8 1813.84,-192.5"/>
<polygon fill="#9a32cd" stroke="#9a32cd" points="1692.32,-171.23 1681.92,-173.25 1691.31,-178.16 1692.32,-171.23"/>
</a>
</g>
<text text-anchor="middle" x="1755" y="-189.89" font-family="Helvetica,sans-Serif" font-size="10.00" fill="grey"> scripts</text>
</g>
<!-- Node25 -->
<g id="Node000025" class="node">
<title>Node25</title>
<g id="a_Node000025"><a xlink:title=" ">
<polygon fill="white" stroke="#666666" points="1622.25,-125.88 1547.75,-125.88 1547.75,-106.62 1622.25,-106.62 1622.25,-125.88"/>
<text text-anchor="middle" x="1585" y="-112.38" font-family="Helvetica,sans-Serif" font-size="10.00">List&lt; String &gt;</text>
</a>
</g>
</g>
<!-- Node25&#45;&gt;Node1 -->
<g id="edge26_Node000001_Node000025" class="edge">
<title>Node25&#45;&gt;Node1</title>
<g id="a_edge26_Node000001_Node000025"><a xlink:title=" ">
<path fill="none" stroke="#9a32cd" stroke-dasharray="5,2" d="M1634.15,-122.26C1655.48,-125.38 1680.78,-129.71 1703.25,-135.25 1766.55,-150.84 1837.82,-176.18 1881.25,-192.52"/>
<polygon fill="#9a32cd" stroke="#9a32cd" points="1634.64,-118.79 1624.25,-120.86 1633.66,-125.73 1634.64,-118.79"/>
</a>
</g>
<text text-anchor="middle" x="1755" y="-161.63" font-family="Helvetica,sans-Serif" font-size="10.00" fill="grey"> coresRemoved</text>
</g>
</g>
</svg>
