<?xml version="1.0" encoding="UTF-8" standalone="no"?>
<!DOCTYPE svg PUBLIC "-//W3C//DTD SVG 1.1//EN"
 "http://www.w3.org/Graphics/SVG/1.1/DTD/svg11.dtd">
<!-- Generated by graphviz version 2.49.3 (20211027.1501)
 -->
<!-- Title: com.fs.starfarer.api.impl.campaign.procgen.themes.RemnantThemeGenerator Pages: 1 -->
<svg width="326pt" height="185pt"
 viewBox="0.00 0.00 326.00 185.00" xmlns="http://www.w3.org/2000/svg" xmlns:xlink="http://www.w3.org/1999/xlink">
<g id="graph0" class="graph" transform="scale(1 1) rotate(0) translate(4 181)">
<title>com.fs.starfarer.api.impl.campaign.procgen.themes.RemnantThemeGenerator</title>
<!-- Node1 -->
<g id="node1" class="node">
<title>Node1</title>
<g id="a_node1"><a xlink:title=" ">
<polygon fill="#bfbfbf" stroke="black" points="81,-0.5 81,-30.5 318,-30.5 318,-0.5 81,-0.5"/>
<text text-anchor="start" x="89" y="-18.5" font-family="Helvetica,sans-Serif" font-size="10.00">com.fs.starfarer.api.impl.campaign.procgen.themes.</text>
<text text-anchor="middle" x="199.5" y="-7.5" font-family="Helvetica,sans-Serif" font-size="10.00">RemnantThemeGenerator</text>
</a>
</g>
</g>
<!-- Node2 -->
<g id="node2" class="node">
<title>Node2</title>
<g id="a_node2"><a xlink:href="classcom_1_1fs_1_1starfarer_1_1api_1_1impl_1_1campaign_1_1procgen_1_1themes_1_1BaseThemeGenerator.html" target="_top" xlink:title=" ">
<polygon fill="none" stroke="black" points="81,-68.5 81,-98.5 318,-98.5 318,-68.5 81,-68.5"/>
<text text-anchor="start" x="89" y="-86.5" font-family="Helvetica,sans-Serif" font-size="10.00">com.fs.starfarer.api.impl.campaign.procgen.themes.</text>
<text text-anchor="middle" x="199.5" y="-75.5" font-family="Helvetica,sans-Serif" font-size="10.00">BaseThemeGenerator</text>
</a>
</g>
</g>
<!-- Node2&#45;&gt;Node1 -->
<g id="edge1" class="edge">
<title>Node2&#45;&gt;Node1</title>
<path fill="none" stroke="midnightblue" d="M199.5,-58.03C199.5,-48.86 199.5,-38.74 199.5,-30.79"/>
<polygon fill="midnightblue" stroke="midnightblue" points="196,-58.18 199.5,-68.18 203,-58.18 196,-58.18"/>
</g>
<!-- Node3 -->
<g id="node3" class="node">
<title>Node3</title>
<g id="a_node3"><a xlink:href="interfacecom_1_1fs_1_1starfarer_1_1api_1_1impl_1_1campaign_1_1procgen_1_1themes_1_1ThemeGenerator.html" target="_top" xlink:title=" ">
<polygon fill="none" stroke="black" points="0,-146.5 0,-176.5 237,-176.5 237,-146.5 0,-146.5"/>
<text text-anchor="start" x="8" y="-164.5" font-family="Helvetica,sans-Serif" font-size="10.00">com.fs.starfarer.api.impl.campaign.procgen.themes.</text>
<text text-anchor="middle" x="118.5" y="-153.5" font-family="Helvetica,sans-Serif" font-size="10.00">ThemeGenerator</text>
</a>
</g>
</g>
<!-- Node3&#45;&gt;Node2 -->
<g id="edge2" class="edge">
<title>Node3&#45;&gt;Node2</title>
<path fill="none" stroke="midnightblue" d="M141.38,-139.03C155.13,-126.13 172.25,-110.07 184.33,-98.73"/>
<polygon fill="midnightblue" stroke="midnightblue" points="138.63,-136.81 133.74,-146.2 143.42,-141.91 138.63,-136.81"/>
</g>
<!-- Node4 -->
<g id="node4" class="node">
<title>Node4</title>
<g id="a_node4"><a xlink:title=" ">
<polygon fill="none" stroke="#bfbfbf" points="255,-152 255,-171 308,-171 308,-152 255,-152"/>
<text text-anchor="middle" x="281.5" y="-159" font-family="Helvetica,sans-Serif" font-size="10.00">Random</text>
</a>
</g>
</g>
<!-- Node4&#45;&gt;Node2 -->
<g id="edge3" class="edge">
<title>Node4&#45;&gt;Node2</title>
<path fill="none" stroke="#9a32cd" stroke-dasharray="5,2" d="M264.67,-144.9C249.97,-131.27 228.81,-111.66 214.63,-98.52"/>
<polygon fill="#9a32cd" stroke="#9a32cd" points="262.38,-147.55 272.09,-151.78 267.14,-142.42 262.38,-147.55"/>
<text text-anchor="middle" x="263" y="-120" font-family="Helvetica,sans-Serif" font-size="10.00"> random</text>
</g>
</g>
</svg>
