<?xml version="1.0" encoding="UTF-8" standalone="no"?>
<!DOCTYPE svg PUBLIC "-//W3C//DTD SVG 1.1//EN"
 "http://www.w3.org/Graphics/SVG/1.1/DTD/svg11.dtd">
<!-- Generated by graphviz version 2.44.0 ()
 -->
<!-- Title: com.fs.starfarer.api.impl.campaign.intel.contacts.ContactIntel Pages: 1 -->
<svg width="1178pt" height="463pt"
 viewBox="0.00 0.00 1178.00 463.00" xmlns="http://www.w3.org/2000/svg" xmlns:xlink="http://www.w3.org/1999/xlink">
<g id="graph0" class="graph" transform="scale(1 1) rotate(0) translate(4 459)">
<title>com.fs.starfarer.api.impl.campaign.intel.contacts.ContactIntel</title>
<!-- Node1 -->
<g id="node1" class="node">
<title>Node1</title>
<g id="a_node1"><a xlink:title=" ">
<polygon fill="#bfbfbf" stroke="black" points="944,-124.5 944,-154.5 1170,-154.5 1170,-124.5 944,-124.5"/>
<text text-anchor="start" x="952" y="-142.5" font-family="Helvetica,sans-Serif" font-size="10.00">com.fs.starfarer.api.impl.campaign.intel.contacts.</text>
<text text-anchor="middle" x="1057" y="-131.5" font-family="Helvetica,sans-Serif" font-size="10.00">ContactIntel</text>
</a>
</g>
</g>
<!-- Node2 -->
<g id="node2" class="node">
<title>Node2</title>
<g id="a_node2"><a xlink:href="classcom_1_1fs_1_1starfarer_1_1api_1_1impl_1_1campaign_1_1intel_1_1BaseIntelPlugin.html" target="_top" xlink:title=" ">
<polygon fill="none" stroke="black" points="669,-302.5 669,-332.5 855,-332.5 855,-302.5 669,-302.5"/>
<text text-anchor="start" x="677" y="-320.5" font-family="Helvetica,sans-Serif" font-size="10.00">com.fs.starfarer.api.impl.campaign.intel.</text>
<text text-anchor="middle" x="762" y="-309.5" font-family="Helvetica,sans-Serif" font-size="10.00">BaseIntelPlugin</text>
</a>
</g>
</g>
<!-- Node2&#45;&gt;Node1 -->
<g id="edge1" class="edge">
<title>Node2&#45;&gt;Node1</title>
<path fill="none" stroke="midnightblue" d="M799.61,-297.45C832.89,-279.02 883.19,-250.68 926,-224.5 964.42,-201.01 1008.04,-171.99 1033.72,-154.66"/>
<polygon fill="midnightblue" stroke="midnightblue" points="797.76,-294.47 790.69,-302.37 801.14,-300.6 797.76,-294.47"/>
</g>
<!-- Node3 -->
<g id="node3" class="node">
<title>Node3</title>
<g id="a_node3"><a xlink:href="interfacecom_1_1fs_1_1starfarer_1_1api_1_1campaign_1_1comm_1_1IntelInfoPlugin.html" target="_top" xlink:title=" ">
<polygon fill="none" stroke="black" points="237.5,-424.5 237.5,-454.5 412.5,-454.5 412.5,-424.5 237.5,-424.5"/>
<text text-anchor="start" x="245.5" y="-442.5" font-family="Helvetica,sans-Serif" font-size="10.00">com.fs.starfarer.api.campaign.comm.</text>
<text text-anchor="middle" x="325" y="-431.5" font-family="Helvetica,sans-Serif" font-size="10.00">IntelInfoPlugin</text>
</a>
</g>
</g>
<!-- Node3&#45;&gt;Node2 -->
<g id="edge2" class="edge">
<title>Node3&#45;&gt;Node2</title>
<path fill="none" stroke="midnightblue" d="M411.85,-422.41C422.68,-420.14 433.61,-417.81 444,-415.5 527.45,-396.98 549.63,-396.71 631,-370.5 664.75,-359.63 702.13,-343.99 728.11,-332.52"/>
<polygon fill="midnightblue" stroke="midnightblue" points="411.02,-419.01 401.94,-424.47 412.44,-425.86 411.02,-419.01"/>
</g>
<!-- Node4 -->
<g id="node4" class="node">
<title>Node4</title>
<g id="a_node4"><a xlink:title=" ">
<polygon fill="none" stroke="#bfbfbf" points="223.5,-375.5 223.5,-405.5 426.5,-405.5 426.5,-375.5 223.5,-375.5"/>
<text text-anchor="start" x="231.5" y="-393.5" font-family="Helvetica,sans-Serif" font-size="10.00">com.fs.starfarer.api.impl.campaign.rulecmd.</text>
<text text-anchor="middle" x="325" y="-382.5" font-family="Helvetica,sans-Serif" font-size="10.00">CallEvent.CallableEvent</text>
</a>
</g>
</g>
<!-- Node4&#45;&gt;Node2 -->
<g id="edge3" class="edge">
<title>Node4&#45;&gt;Node2</title>
<path fill="none" stroke="midnightblue" d="M436.73,-374.65C494.7,-366.04 566.79,-354.86 631,-343.5 649.81,-340.17 670.09,-336.27 688.91,-332.51"/>
<polygon fill="midnightblue" stroke="midnightblue" points="436.19,-371.19 426.81,-376.12 437.22,-378.11 436.19,-371.19"/>
</g>
<!-- Node5 -->
<g id="node5" class="node">
<title>Node5</title>
<g id="a_node5"><a xlink:href="interfacecom_1_1fs_1_1starfarer_1_1api_1_1EveryFrameScript.html" target="_top" xlink:title=" ">
<polygon fill="none" stroke="black" points="262.5,-326.5 262.5,-356.5 387.5,-356.5 387.5,-326.5 262.5,-326.5"/>
<text text-anchor="start" x="270.5" y="-344.5" font-family="Helvetica,sans-Serif" font-size="10.00">com.fs.starfarer.api.Every</text>
<text text-anchor="middle" x="325" y="-333.5" font-family="Helvetica,sans-Serif" font-size="10.00">FrameScript</text>
</a>
</g>
</g>
<!-- Node5&#45;&gt;Node2 -->
<g id="edge4" class="edge">
<title>Node5&#45;&gt;Node2</title>
<path fill="none" stroke="midnightblue" d="M398.05,-337.52C472.26,-333.43 588.18,-327.03 668.99,-322.58"/>
<polygon fill="midnightblue" stroke="midnightblue" points="397.65,-334.04 387.86,-338.09 398.04,-341.03 397.65,-334.04"/>
</g>
<!-- Node6 -->
<g id="node6" class="node">
<title>Node6</title>
<g id="a_node6"><a xlink:title=" ">
<polygon fill="none" stroke="#bfbfbf" points="206,-277.5 206,-307.5 444,-307.5 444,-277.5 206,-277.5"/>
<text text-anchor="start" x="214" y="-295.5" font-family="Helvetica,sans-Serif" font-size="10.00">com.fs.starfarer.api.impl.campaign.</text>
<text text-anchor="middle" x="325" y="-284.5" font-family="Helvetica,sans-Serif" font-size="10.00">CommRelayEntityPlugin.CommSnifferReadableIntel</text>
</a>
</g>
</g>
<!-- Node6&#45;&gt;Node2 -->
<g id="edge5" class="edge">
<title>Node6&#45;&gt;Node2</title>
<path fill="none" stroke="midnightblue" d="M454.06,-299.86C522.96,-303.82 606.35,-308.61 668.82,-312.2"/>
<polygon fill="midnightblue" stroke="midnightblue" points="454.19,-296.36 444,-299.28 453.79,-303.35 454.19,-296.36"/>
</g>
<!-- Node7 -->
<g id="node7" class="node">
<title>Node7</title>
<g id="a_node7"><a xlink:href="interfacecom_1_1fs_1_1starfarer_1_1api_1_1campaign_1_1SectorEntityToken.html" target="_top" xlink:title=" ">
<polygon fill="none" stroke="black" points="252,-228.5 252,-258.5 398,-258.5 398,-228.5 252,-228.5"/>
<text text-anchor="start" x="260" y="-246.5" font-family="Helvetica,sans-Serif" font-size="10.00">com.fs.starfarer.api.campaign.</text>
<text text-anchor="middle" x="325" y="-235.5" font-family="Helvetica,sans-Serif" font-size="10.00">SectorEntityToken</text>
</a>
</g>
</g>
<!-- Node7&#45;&gt;Node2 -->
<g id="edge6" class="edge">
<title>Node7&#45;&gt;Node2</title>
<path fill="none" stroke="#9a32cd" stroke-dasharray="5,2" d="M408.19,-252.46C469.8,-259.74 556.03,-271.15 631,-285.5 655.54,-290.2 682.39,-296.59 705.29,-302.43"/>
<polygon fill="#9a32cd" stroke="#9a32cd" points="408.48,-248.97 398.14,-251.28 407.66,-255.92 408.48,-248.97"/>
<text text-anchor="middle" x="546.5" y="-288.5" font-family="Helvetica,sans-Serif" font-size="10.00"> postingLocation</text>
</g>
<!-- Node8 -->
<g id="node8" class="node">
<title>Node8</title>
<g id="a_node8"><a xlink:href="interfacecom_1_1fs_1_1starfarer_1_1api_1_1campaign_1_1rules_1_1HasMemory.html" target="_top" xlink:title=" ">
<polygon fill="none" stroke="black" points="0,-165.5 0,-195.5 169,-195.5 169,-165.5 0,-165.5"/>
<text text-anchor="start" x="8" y="-183.5" font-family="Helvetica,sans-Serif" font-size="10.00">com.fs.starfarer.api.campaign.rules.</text>
<text text-anchor="middle" x="84.5" y="-172.5" font-family="Helvetica,sans-Serif" font-size="10.00">HasMemory</text>
</a>
</g>
</g>
<!-- Node8&#45;&gt;Node7 -->
<g id="edge7" class="edge">
<title>Node8&#45;&gt;Node7</title>
<path fill="none" stroke="midnightblue" d="M138.18,-198.72C153.8,-203.82 171.01,-209.16 187,-213.5 207.91,-219.17 230.84,-224.53 251.86,-229.1"/>
<polygon fill="midnightblue" stroke="midnightblue" points="139.28,-195.4 128.68,-195.58 137.08,-202.04 139.28,-195.4"/>
</g>
<!-- Node9 -->
<g id="node9" class="node">
<title>Node9</title>
<g id="a_node9"><a xlink:href="interfacecom_1_1fs_1_1starfarer_1_1api_1_1campaign_1_1FactionAPI.html" target="_top" xlink:title=" ">
<polygon fill="none" stroke="black" points="473.5,-189.5 473.5,-219.5 619.5,-219.5 619.5,-189.5 473.5,-189.5"/>
<text text-anchor="start" x="481.5" y="-207.5" font-family="Helvetica,sans-Serif" font-size="10.00">com.fs.starfarer.api.campaign.</text>
<text text-anchor="middle" x="546.5" y="-196.5" font-family="Helvetica,sans-Serif" font-size="10.00">FactionAPI</text>
</a>
</g>
</g>
<!-- Node8&#45;&gt;Node9 -->
<g id="edge9" class="edge">
<title>Node8&#45;&gt;Node9</title>
<path fill="none" stroke="midnightblue" d="M179.22,-185.39C266.3,-189.93 394.16,-196.6 473.49,-200.74"/>
<polygon fill="midnightblue" stroke="midnightblue" points="179.24,-181.89 169.07,-184.86 178.87,-188.88 179.24,-181.89"/>
</g>
<!-- Node11 -->
<g id="node11" class="node">
<title>Node11</title>
<g id="a_node11"><a xlink:href="interfacecom_1_1fs_1_1starfarer_1_1api_1_1campaign_1_1econ_1_1MarketAPI.html" target="_top" xlink:title=" ">
<polygon fill="none" stroke="black" points="462,-147.5 462,-177.5 631,-177.5 631,-147.5 462,-147.5"/>
<text text-anchor="start" x="470" y="-165.5" font-family="Helvetica,sans-Serif" font-size="10.00">com.fs.starfarer.api.campaign.econ.</text>
<text text-anchor="middle" x="546.5" y="-154.5" font-family="Helvetica,sans-Serif" font-size="10.00">MarketAPI</text>
</a>
</g>
</g>
<!-- Node8&#45;&gt;Node11 -->
<g id="edge12" class="edge">
<title>Node8&#45;&gt;Node11</title>
<path fill="none" stroke="midnightblue" d="M179.24,-176.83C262.15,-173.59 382,-168.9 461.75,-165.78"/>
<polygon fill="midnightblue" stroke="midnightblue" points="178.92,-173.34 169.07,-177.23 179.2,-180.34 178.92,-173.34"/>
</g>
<!-- Node12 -->
<g id="node12" class="node">
<title>Node12</title>
<g id="a_node12"><a xlink:href="interfacecom_1_1fs_1_1starfarer_1_1api_1_1characters_1_1PersonAPI.html" target="_top" xlink:title=" ">
<polygon fill="none" stroke="black" points="472,-105.5 472,-135.5 621,-135.5 621,-105.5 472,-105.5"/>
<text text-anchor="start" x="480" y="-123.5" font-family="Helvetica,sans-Serif" font-size="10.00">com.fs.starfarer.api.characters.</text>
<text text-anchor="middle" x="546.5" y="-112.5" font-family="Helvetica,sans-Serif" font-size="10.00">PersonAPI</text>
</a>
</g>
</g>
<!-- Node8&#45;&gt;Node12 -->
<g id="edge14" class="edge">
<title>Node8&#45;&gt;Node12</title>
<path fill="none" stroke="midnightblue" d="M179.26,-166.26C188.3,-164.96 197.32,-163.68 206,-162.5 297.5,-150.01 403.11,-137.2 471.92,-129.06"/>
<polygon fill="midnightblue" stroke="midnightblue" points="178.48,-162.84 169.08,-167.74 179.48,-169.76 178.48,-162.84"/>
</g>
<!-- Node9&#45;&gt;Node1 -->
<g id="edge8" class="edge">
<title>Node9&#45;&gt;Node1</title>
<path fill="none" stroke="#9a32cd" stroke-dasharray="5,2" d="M629.56,-198.38C695.94,-192.97 791.72,-184.14 875,-172.5 910.11,-167.59 948.81,-160.74 981.37,-154.54"/>
<polygon fill="#9a32cd" stroke="#9a32cd" points="629.26,-194.89 619.58,-199.19 629.83,-201.87 629.26,-194.89"/>
<text text-anchor="middle" x="762" y="-199.5" font-family="Helvetica,sans-Serif" font-size="10.00"> marketFaction</text>
</g>
<!-- Node10 -->
<g id="node10" class="node">
<title>Node10</title>
<g id="a_node10"><a xlink:href="classcom_1_1fs_1_1starfarer_1_1api_1_1util_1_1IntervalUtil.html" target="_top" xlink:title=" ">
<polygon fill="none" stroke="black" points="704,-49.5 704,-79.5 820,-79.5 820,-49.5 704,-49.5"/>
<text text-anchor="start" x="712" y="-67.5" font-family="Helvetica,sans-Serif" font-size="10.00">com.fs.starfarer.api.util.</text>
<text text-anchor="middle" x="762" y="-56.5" font-family="Helvetica,sans-Serif" font-size="10.00">IntervalUtil</text>
</a>
</g>
</g>
<!-- Node10&#45;&gt;Node1 -->
<g id="edge10" class="edge">
<title>Node10&#45;&gt;Node1</title>
<path fill="none" stroke="#9a32cd" stroke-dasharray="5,2" d="M830.37,-72.73C859.98,-77.1 895,-83.29 926,-91.5 958.79,-100.19 994.9,-113.86 1020.72,-124.4"/>
<polygon fill="#9a32cd" stroke="#9a32cd" points="830.53,-69.22 820.14,-71.26 829.54,-76.15 830.53,-69.22"/>
<text text-anchor="middle" x="909.5" y="-94.5" font-family="Helvetica,sans-Serif" font-size="10.00"> tracker</text>
</g>
<!-- Node11&#45;&gt;Node1 -->
<g id="edge11" class="edge">
<title>Node11&#45;&gt;Node1</title>
<path fill="none" stroke="#9a32cd" stroke-dasharray="5,2" d="M641.42,-158.31C718.01,-154.89 829,-149.92 926,-145.5 931.87,-145.23 937.89,-144.96 943.96,-144.68"/>
<polygon fill="#9a32cd" stroke="#9a32cd" points="641.15,-154.82 631.31,-158.77 641.46,-161.82 641.15,-154.82"/>
<text text-anchor="middle" x="762" y="-160.5" font-family="Helvetica,sans-Serif" font-size="10.00"> market</text>
</g>
<!-- Node12&#45;&gt;Node1 -->
<g id="edge13" class="edge">
<title>Node12&#45;&gt;Node1</title>
<path fill="none" stroke="#9a32cd" stroke-dasharray="5,2" d="M631.37,-122.62C697.55,-124.4 792.18,-127.18 875,-130.5 897.16,-131.39 920.85,-132.47 943.53,-133.57"/>
<polygon fill="#9a32cd" stroke="#9a32cd" points="631.09,-119.11 621,-122.34 630.91,-126.11 631.09,-119.11"/>
<text text-anchor="middle" x="762" y="-133.5" font-family="Helvetica,sans-Serif" font-size="10.00"> person</text>
</g>
<!-- Node13 -->
<g id="node13" class="node">
<title>Node13</title>
<g id="a_node13"><a xlink:title=" ">
<polygon fill="none" stroke="#bfbfbf" points="649,-0.5 649,-30.5 875,-30.5 875,-0.5 649,-0.5"/>
<text text-anchor="start" x="657" y="-18.5" font-family="Helvetica,sans-Serif" font-size="10.00">com.fs.starfarer.api.impl.campaign.intel.contacts.</text>
<text text-anchor="middle" x="762" y="-7.5" font-family="Helvetica,sans-Serif" font-size="10.00">ContactIntel.ContactState</text>
</a>
</g>
</g>
<!-- Node13&#45;&gt;Node1 -->
<g id="edge15" class="edge">
<title>Node13&#45;&gt;Node1</title>
<path fill="none" stroke="#9a32cd" stroke-dasharray="5,2" d="M856.41,-33.32C862.76,-35.2 869.01,-37.26 875,-39.5 935.69,-62.2 1000.78,-102.6 1033.89,-124.46"/>
<polygon fill="#9a32cd" stroke="#9a32cd" points="856.93,-29.83 846.36,-30.5 855.04,-36.57 856.93,-29.83"/>
<text text-anchor="middle" x="909.5" y="-63.5" font-family="Helvetica,sans-Serif" font-size="10.00"> state</text>
</g>
</g>
</svg>
