<?xml version="1.0" encoding="UTF-8" standalone="no"?>
<!DOCTYPE svg PUBLIC "-//W3C//DTD SVG 1.1//EN"
 "http://www.w3.org/Graphics/SVG/1.1/DTD/svg11.dtd">
<!-- Generated by graphviz version 2.44.0 ()
 -->
<!-- Title: com.fs.starfarer.api.impl.campaign.intel.raid.BaseRaidStage Pages: 1 -->
<svg width="1420pt" height="443pt"
 viewBox="0.00 0.00 1420.00 442.50" xmlns="http://www.w3.org/2000/svg" xmlns:xlink="http://www.w3.org/1999/xlink">
<g id="graph0" class="graph" transform="scale(1 1) rotate(0) translate(4 438.5)">
<title>com.fs.starfarer.api.impl.campaign.intel.raid.BaseRaidStage</title>
<!-- Node1 -->
<g id="node1" class="node">
<title>Node1</title>
<g id="a_node1"><a xlink:title=" ">
<polygon fill="#bfbfbf" stroke="black" points="1208,-87 1208,-117 1412,-117 1412,-87 1208,-87"/>
<text text-anchor="start" x="1216" y="-105" font-family="Helvetica,sans-Serif" font-size="10.00">com.fs.starfarer.api.impl.campaign.intel.raid.</text>
<text text-anchor="middle" x="1310" y="-94" font-family="Helvetica,sans-Serif" font-size="10.00">BaseRaidStage</text>
</a>
</g>
</g>
<!-- Node2 -->
<g id="node2" class="node">
<title>Node2</title>
<g id="a_node2"><a xlink:title=" ">
<polygon fill="none" stroke="#bfbfbf" points="906,-161 906,-191 1110,-191 1110,-161 906,-161"/>
<text text-anchor="start" x="914" y="-179" font-family="Helvetica,sans-Serif" font-size="10.00">com.fs.starfarer.api.impl.campaign.intel.raid.</text>
<text text-anchor="middle" x="1008" y="-168" font-family="Helvetica,sans-Serif" font-size="10.00">RaidIntel.RaidStage</text>
</a>
</g>
</g>
<!-- Node2&#45;&gt;Node1 -->
<g id="edge1" class="edge">
<title>Node2&#45;&gt;Node1</title>
<path fill="none" stroke="midnightblue" d="M1082.78,-158.59C1091.95,-156.39 1101.19,-154.15 1110,-152 1157.06,-140.5 1210.28,-127.1 1249.84,-117.08"/>
<polygon fill="midnightblue" stroke="midnightblue" points="1081.79,-155.22 1072.88,-160.95 1083.42,-162.03 1081.79,-155.22"/>
</g>
<!-- Node3 -->
<g id="node3" class="node">
<title>Node3</title>
<g id="a_node3"><a xlink:href="classcom_1_1fs_1_1starfarer_1_1api_1_1impl_1_1campaign_1_1intel_1_1raid_1_1RaidIntel.html" target="_top" xlink:title=" ">
<polygon fill="none" stroke="black" points="906,-112 906,-142 1110,-142 1110,-112 906,-112"/>
<text text-anchor="start" x="914" y="-130" font-family="Helvetica,sans-Serif" font-size="10.00">com.fs.starfarer.api.impl.campaign.intel.raid.</text>
<text text-anchor="middle" x="1008" y="-119" font-family="Helvetica,sans-Serif" font-size="10.00">RaidIntel</text>
</a>
</g>
</g>
<!-- Node3&#45;&gt;Node1 -->
<g id="edge2" class="edge">
<title>Node3&#45;&gt;Node1</title>
<path fill="none" stroke="#9a32cd" stroke-dasharray="5,2" d="M1120.21,-117.73C1148.9,-115.34 1179.63,-112.78 1207.78,-110.43"/>
<polygon fill="#9a32cd" stroke="#9a32cd" points="1119.82,-114.25 1110.15,-118.57 1120.4,-121.23 1119.82,-114.25"/>
<text text-anchor="middle" x="1159" y="-119" font-family="Helvetica,sans-Serif" font-size="10.00"> intel</text>
</g>
<!-- Node4 -->
<g id="node4" class="node">
<title>Node4</title>
<g id="a_node4"><a xlink:href="classcom_1_1fs_1_1starfarer_1_1api_1_1impl_1_1campaign_1_1intel_1_1BaseIntelPlugin.html" target="_top" xlink:title=" ">
<polygon fill="none" stroke="black" points="635,-282 635,-312 821,-312 821,-282 635,-282"/>
<text text-anchor="start" x="643" y="-300" font-family="Helvetica,sans-Serif" font-size="10.00">com.fs.starfarer.api.impl.campaign.intel.</text>
<text text-anchor="middle" x="728" y="-289" font-family="Helvetica,sans-Serif" font-size="10.00">BaseIntelPlugin</text>
</a>
</g>
</g>
<!-- Node4&#45;&gt;Node3 -->
<g id="edge3" class="edge">
<title>Node4&#45;&gt;Node3</title>
<path fill="none" stroke="midnightblue" d="M794.85,-278.45C827.19,-266.2 864.22,-246.93 888,-218 907.31,-194.51 884.25,-173.24 906,-152 909.88,-148.21 914.23,-144.97 918.9,-142.2"/>
<polygon fill="midnightblue" stroke="midnightblue" points="793.63,-275.17 785.43,-281.88 796.02,-281.75 793.63,-275.17"/>
</g>
<!-- Node5 -->
<g id="node5" class="node">
<title>Node5</title>
<g id="a_node5"><a xlink:href="interfacecom_1_1fs_1_1starfarer_1_1api_1_1campaign_1_1comm_1_1IntelInfoPlugin.html" target="_top" xlink:title=" ">
<polygon fill="none" stroke="black" points="237.5,-404 237.5,-434 412.5,-434 412.5,-404 237.5,-404"/>
<text text-anchor="start" x="245.5" y="-422" font-family="Helvetica,sans-Serif" font-size="10.00">com.fs.starfarer.api.campaign.comm.</text>
<text text-anchor="middle" x="325" y="-411" font-family="Helvetica,sans-Serif" font-size="10.00">IntelInfoPlugin</text>
</a>
</g>
</g>
<!-- Node5&#45;&gt;Node4 -->
<g id="edge4" class="edge">
<title>Node5&#45;&gt;Node4</title>
<path fill="none" stroke="midnightblue" d="M414.28,-401.83C424.33,-399.64 434.4,-397.35 444,-395 517.65,-376.99 536.57,-373.43 608,-348 637.96,-337.33 671.16,-322.88 694.86,-312.08"/>
<polygon fill="midnightblue" stroke="midnightblue" points="413.31,-398.46 404.26,-403.98 414.78,-405.31 413.31,-398.46"/>
</g>
<!-- Node6 -->
<g id="node6" class="node">
<title>Node6</title>
<g id="a_node6"><a xlink:title=" ">
<polygon fill="none" stroke="#bfbfbf" points="223.5,-355 223.5,-385 426.5,-385 426.5,-355 223.5,-355"/>
<text text-anchor="start" x="231.5" y="-373" font-family="Helvetica,sans-Serif" font-size="10.00">com.fs.starfarer.api.impl.campaign.rulecmd.</text>
<text text-anchor="middle" x="325" y="-362" font-family="Helvetica,sans-Serif" font-size="10.00">CallEvent.CallableEvent</text>
</a>
</g>
</g>
<!-- Node6&#45;&gt;Node4 -->
<g id="edge5" class="edge">
<title>Node6&#45;&gt;Node4</title>
<path fill="none" stroke="midnightblue" d="M429.99,-353.28C483.3,-344.46 549.22,-333.17 608,-322 624.07,-318.94 641.32,-315.45 657.56,-312.06"/>
<polygon fill="midnightblue" stroke="midnightblue" points="429.14,-349.87 419.84,-354.96 430.28,-356.78 429.14,-349.87"/>
</g>
<!-- Node7 -->
<g id="node7" class="node">
<title>Node7</title>
<g id="a_node7"><a xlink:href="interfacecom_1_1fs_1_1starfarer_1_1api_1_1EveryFrameScript.html" target="_top" xlink:title=" ">
<polygon fill="none" stroke="black" points="262.5,-306 262.5,-336 387.5,-336 387.5,-306 262.5,-306"/>
<text text-anchor="start" x="270.5" y="-324" font-family="Helvetica,sans-Serif" font-size="10.00">com.fs.starfarer.api.Every</text>
<text text-anchor="middle" x="325" y="-313" font-family="Helvetica,sans-Serif" font-size="10.00">FrameScript</text>
</a>
</g>
</g>
<!-- Node7&#45;&gt;Node4 -->
<g id="edge6" class="edge">
<title>Node7&#45;&gt;Node4</title>
<path fill="none" stroke="midnightblue" d="M398.13,-316.68C464.42,-312.72 563.02,-306.81 634.96,-302.51"/>
<polygon fill="midnightblue" stroke="midnightblue" points="397.55,-313.21 387.78,-317.3 397.97,-320.2 397.55,-313.21"/>
</g>
<!-- Node8 -->
<g id="node8" class="node">
<title>Node8</title>
<g id="a_node8"><a xlink:title=" ">
<polygon fill="none" stroke="#bfbfbf" points="206,-257 206,-287 444,-287 444,-257 206,-257"/>
<text text-anchor="start" x="214" y="-275" font-family="Helvetica,sans-Serif" font-size="10.00">com.fs.starfarer.api.impl.campaign.</text>
<text text-anchor="middle" x="325" y="-264" font-family="Helvetica,sans-Serif" font-size="10.00">CommRelayEntityPlugin.CommSnifferReadableIntel</text>
</a>
</g>
</g>
<!-- Node8&#45;&gt;Node4 -->
<g id="edge7" class="edge">
<title>Node8&#45;&gt;Node4</title>
<path fill="none" stroke="midnightblue" d="M454.24,-279.99C512.97,-283.66 581.25,-287.91 634.81,-291.25"/>
<polygon fill="midnightblue" stroke="midnightblue" points="454.34,-276.49 444.14,-279.37 453.91,-283.48 454.34,-276.49"/>
</g>
<!-- Node9 -->
<g id="node9" class="node">
<title>Node9</title>
<g id="a_node9"><a xlink:href="interfacecom_1_1fs_1_1starfarer_1_1api_1_1campaign_1_1SectorEntityToken.html" target="_top" xlink:title=" ">
<polygon fill="none" stroke="black" points="252,-208 252,-238 398,-238 398,-208 252,-208"/>
<text text-anchor="start" x="260" y="-226" font-family="Helvetica,sans-Serif" font-size="10.00">com.fs.starfarer.api.campaign.</text>
<text text-anchor="middle" x="325" y="-215" font-family="Helvetica,sans-Serif" font-size="10.00">SectorEntityToken</text>
</a>
</g>
</g>
<!-- Node9&#45;&gt;Node4 -->
<g id="edge8" class="edge">
<title>Node9&#45;&gt;Node4</title>
<path fill="none" stroke="#9a32cd" stroke-dasharray="5,2" d="M408.22,-232.71C464.7,-240 541.26,-251.1 608,-265 630.52,-269.69 655.11,-276.08 676.06,-281.92"/>
<polygon fill="#9a32cd" stroke="#9a32cd" points="408.63,-229.24 398.27,-231.44 407.74,-236.18 408.63,-229.24"/>
<text text-anchor="middle" x="535" y="-268" font-family="Helvetica,sans-Serif" font-size="10.00"> postingLocation</text>
</g>
<!-- Node10 -->
<g id="node10" class="node">
<title>Node10</title>
<g id="a_node10"><a xlink:href="interfacecom_1_1fs_1_1starfarer_1_1api_1_1campaign_1_1rules_1_1HasMemory.html" target="_top" xlink:title=" ">
<polygon fill="none" stroke="black" points="0,-176 0,-206 169,-206 169,-176 0,-176"/>
<text text-anchor="start" x="8" y="-194" font-family="Helvetica,sans-Serif" font-size="10.00">com.fs.starfarer.api.campaign.rules.</text>
<text text-anchor="middle" x="84.5" y="-183" font-family="Helvetica,sans-Serif" font-size="10.00">HasMemory</text>
</a>
</g>
</g>
<!-- Node10&#45;&gt;Node9 -->
<g id="edge9" class="edge">
<title>Node10&#45;&gt;Node9</title>
<path fill="none" stroke="midnightblue" d="M179.48,-203.61C203.58,-206.84 229.13,-210.27 251.94,-213.33"/>
<polygon fill="midnightblue" stroke="midnightblue" points="179.63,-200.1 169.25,-202.24 178.7,-207.04 179.63,-200.1"/>
</g>
<!-- Node13 -->
<g id="node13" class="node">
<title>Node13</title>
<g id="a_node13"><a xlink:href="interfacecom_1_1fs_1_1starfarer_1_1api_1_1campaign_1_1FactionAPI.html" target="_top" xlink:title=" ">
<polygon fill="none" stroke="black" points="462,-172 462,-202 608,-202 608,-172 462,-172"/>
<text text-anchor="start" x="470" y="-190" font-family="Helvetica,sans-Serif" font-size="10.00">com.fs.starfarer.api.campaign.</text>
<text text-anchor="middle" x="535" y="-179" font-family="Helvetica,sans-Serif" font-size="10.00">FactionAPI</text>
</a>
</g>
</g>
<!-- Node10&#45;&gt;Node13 -->
<g id="edge13" class="edge">
<title>Node10&#45;&gt;Node13</title>
<path fill="none" stroke="midnightblue" d="M179.14,-190.16C263.32,-189.41 385.18,-188.33 461.96,-187.64"/>
<polygon fill="midnightblue" stroke="midnightblue" points="179.04,-186.67 169.07,-190.25 179.1,-193.67 179.04,-186.67"/>
</g>
<!-- Node11 -->
<g id="node11" class="node">
<title>Node11</title>
<g id="a_node11"><a xlink:title=" ">
<polygon fill="none" stroke="#bfbfbf" points="632.5,-137 632.5,-167 823.5,-167 823.5,-137 632.5,-137"/>
<text text-anchor="start" x="640.5" y="-155" font-family="Helvetica,sans-Serif" font-size="10.00">com.fs.starfarer.api.impl.campaign.fleets.</text>
<text text-anchor="middle" x="728" y="-144" font-family="Helvetica,sans-Serif" font-size="10.00">RouteManager.RouteFleetSpawner</text>
</a>
</g>
</g>
<!-- Node11&#45;&gt;Node3 -->
<g id="edge10" class="edge">
<title>Node11&#45;&gt;Node3</title>
<path fill="none" stroke="midnightblue" d="M833.53,-142.6C857.13,-140.48 882.15,-138.23 905.62,-136.12"/>
<polygon fill="midnightblue" stroke="midnightblue" points="833.15,-139.12 823.51,-143.5 833.78,-146.09 833.15,-139.12"/>
</g>
<!-- Node12 -->
<g id="node12" class="node">
<title>Node12</title>
<g id="a_node12"><a xlink:title=" ">
<polygon fill="none" stroke="#bfbfbf" points="626,-88 626,-118 830,-118 830,-88 626,-88"/>
<text text-anchor="start" x="634" y="-106" font-family="Helvetica,sans-Serif" font-size="10.00">com.fs.starfarer.api.impl.campaign.intel.raid.</text>
<text text-anchor="middle" x="728" y="-95" font-family="Helvetica,sans-Serif" font-size="10.00">RaidIntel.RaidDelegate</text>
</a>
</g>
</g>
<!-- Node12&#45;&gt;Node3 -->
<g id="edge11" class="edge">
<title>Node12&#45;&gt;Node3</title>
<path fill="none" stroke="#9a32cd" stroke-dasharray="5,2" d="M840.36,-112.61C862.02,-114.48 884.62,-116.43 905.92,-118.27"/>
<polygon fill="#9a32cd" stroke="#9a32cd" points="840.41,-109.11 830.15,-111.73 839.81,-116.08 840.41,-109.11"/>
<text text-anchor="middle" x="868" y="-119" font-family="Helvetica,sans-Serif" font-size="10.00"> delegate</text>
</g>
<!-- Node13&#45;&gt;Node3 -->
<g id="edge12" class="edge">
<title>Node13&#45;&gt;Node3</title>
<path fill="none" stroke="#9a32cd" stroke-dasharray="5,2" d="M618.25,-190.4C677.56,-191.35 759.29,-189.57 830,-177 865.01,-170.78 871.83,-161.83 906,-152 917.98,-148.55 930.84,-145.15 943.23,-142.01"/>
<polygon fill="#9a32cd" stroke="#9a32cd" points="618.25,-186.9 608.18,-190.21 618.12,-193.89 618.25,-186.9"/>
<text text-anchor="middle" x="728" y="-193" font-family="Helvetica,sans-Serif" font-size="10.00"> faction</text>
</g>
<!-- Node14 -->
<g id="node14" class="node">
<title>Node14</title>
<g id="a_node14"><a xlink:href="interfacecom_1_1fs_1_1starfarer_1_1api_1_1campaign_1_1StarSystemAPI.html" target="_top" xlink:title=" ">
<polygon fill="none" stroke="black" points="655,-39 655,-69 801,-69 801,-39 655,-39"/>
<text text-anchor="start" x="663" y="-57" font-family="Helvetica,sans-Serif" font-size="10.00">com.fs.starfarer.api.campaign.</text>
<text text-anchor="middle" x="728" y="-46" font-family="Helvetica,sans-Serif" font-size="10.00">StarSystemAPI</text>
</a>
</g>
</g>
<!-- Node14&#45;&gt;Node3 -->
<g id="edge14" class="edge">
<title>Node14&#45;&gt;Node3</title>
<path fill="none" stroke="#9a32cd" stroke-dasharray="5,2" d="M801.76,-71.54C811.28,-73.97 820.89,-76.49 830,-79 864.03,-88.35 871.97,-92.65 906,-102 918.28,-105.38 931.46,-108.79 944.1,-111.96"/>
<polygon fill="#9a32cd" stroke="#9a32cd" points="802.45,-68.1 791.9,-69.04 800.73,-74.89 802.45,-68.1"/>
<text text-anchor="middle" x="868" y="-99" font-family="Helvetica,sans-Serif" font-size="10.00"> system</text>
</g>
<!-- Node15 -->
<g id="node15" class="node">
<title>Node15</title>
<g id="a_node15"><a xlink:href="interfacecom_1_1fs_1_1starfarer_1_1api_1_1campaign_1_1LocationAPI.html" target="_top" xlink:title=" ">
<polygon fill="none" stroke="black" points="252,-39 252,-69 398,-69 398,-39 252,-39"/>
<text text-anchor="start" x="260" y="-57" font-family="Helvetica,sans-Serif" font-size="10.00">com.fs.starfarer.api.campaign.</text>
<text text-anchor="middle" x="325" y="-46" font-family="Helvetica,sans-Serif" font-size="10.00">LocationAPI</text>
</a>
</g>
</g>
<!-- Node15&#45;&gt;Node14 -->
<g id="edge15" class="edge">
<title>Node15&#45;&gt;Node14</title>
<path fill="none" stroke="midnightblue" d="M408.17,-54C480.69,-54 585.37,-54 654.75,-54"/>
<polygon fill="midnightblue" stroke="midnightblue" points="408.15,-50.5 398.15,-54 408.15,-57.5 408.15,-50.5"/>
</g>
<!-- Node16 -->
<g id="node16" class="node">
<title>Node16</title>
<g id="a_node16"><a xlink:title=" ">
<polygon fill="none" stroke="#bfbfbf" points="680.5,-0.5 680.5,-19.5 775.5,-19.5 775.5,-0.5 680.5,-0.5"/>
<text text-anchor="middle" x="728" y="-7.5" font-family="Helvetica,sans-Serif" font-size="10.00">List&lt; RaidStage &gt;</text>
</a>
</g>
</g>
<!-- Node16&#45;&gt;Node3 -->
<g id="edge16" class="edge">
<title>Node16&#45;&gt;Node3</title>
<path fill="none" stroke="#9a32cd" stroke-dasharray="5,2" d="M785.77,-16.28C800.55,-19.09 816.18,-23.15 830,-29 859.07,-41.31 866.86,-46.56 888,-70 898.93,-82.12 893.01,-92.12 906,-102 911.03,-105.83 916.57,-109.08 922.4,-111.83"/>
<polygon fill="#9a32cd" stroke="#9a32cd" points="786.17,-12.8 775.72,-14.53 784.97,-19.69 786.17,-12.8"/>
<text text-anchor="middle" x="868" y="-73" font-family="Helvetica,sans-Serif" font-size="10.00"> stages</text>
</g>
<!-- Node17 -->
<g id="node17" class="node">
<title>Node17</title>
<g id="a_node17"><a xlink:href="classcom_1_1fs_1_1starfarer_1_1api_1_1util_1_1IntervalUtil.html" target="_top" xlink:title=" ">
<polygon fill="none" stroke="black" points="950,-63 950,-93 1066,-93 1066,-63 950,-63"/>
<text text-anchor="start" x="958" y="-81" font-family="Helvetica,sans-Serif" font-size="10.00">com.fs.starfarer.api.util.</text>
<text text-anchor="middle" x="1008" y="-70" font-family="Helvetica,sans-Serif" font-size="10.00">IntervalUtil</text>
</a>
</g>
</g>
<!-- Node17&#45;&gt;Node1 -->
<g id="edge17" class="edge">
<title>Node17&#45;&gt;Node1</title>
<path fill="none" stroke="#9a32cd" stroke-dasharray="5,2" d="M1076.45,-80.14C1110.53,-81.53 1152.51,-83.71 1190,-87 1195.81,-87.51 1201.77,-88.09 1207.78,-88.71"/>
<polygon fill="#9a32cd" stroke="#9a32cd" points="1076.27,-76.63 1066.14,-79.73 1075.99,-83.62 1076.27,-76.63"/>
<text text-anchor="middle" x="1159" y="-90" font-family="Helvetica,sans-Serif" font-size="10.00"> statusInterval</text>
</g>
<!-- Node18 -->
<g id="node18" class="node">
<title>Node18</title>
<g id="a_node18"><a xlink:title=" ">
<polygon fill="none" stroke="#bfbfbf" points="906,-14 906,-44 1110,-44 1110,-14 906,-14"/>
<text text-anchor="start" x="914" y="-32" font-family="Helvetica,sans-Serif" font-size="10.00">com.fs.starfarer.api.impl.campaign.intel.raid.</text>
<text text-anchor="middle" x="1008" y="-21" font-family="Helvetica,sans-Serif" font-size="10.00">RaidIntel.RaidStageStatus</text>
</a>
</g>
</g>
<!-- Node18&#45;&gt;Node1 -->
<g id="edge18" class="edge">
<title>Node18&#45;&gt;Node1</title>
<path fill="none" stroke="#9a32cd" stroke-dasharray="5,2" d="M1094.23,-46.15C1124.57,-52.58 1158.9,-60.22 1190,-68 1212.82,-73.71 1237.89,-80.76 1259.11,-86.95"/>
<polygon fill="#9a32cd" stroke="#9a32cd" points="1094.62,-42.66 1084.11,-44.02 1093.17,-49.51 1094.62,-42.66"/>
<text text-anchor="middle" x="1159" y="-71" font-family="Helvetica,sans-Serif" font-size="10.00"> status</text>
</g>
</g>
</svg>
