<?xml version="1.0" encoding="UTF-8" standalone="no"?>
<!DOCTYPE svg PUBLIC "-//W3C//DTD SVG 1.1//EN"
 "http://www.w3.org/Graphics/SVG/1.1/DTD/svg11.dtd">
<!-- Generated by graphviz version 7.0.5 (20221223.1930)
 -->
<!-- Title: com.fs.starfarer.api.impl.campaign.events.OfficerManagerEvent Pages: 1 -->
<svg width="1420pt" height="466pt"
 viewBox="0.00 0.00 1420.00 466.00" xmlns="http://www.w3.org/2000/svg" xmlns:xlink="http://www.w3.org/1999/xlink">
<g id="graph0" class="graph" transform="scale(1 1) rotate(0) translate(4 462)">
<title>com.fs.starfarer.api.impl.campaign.events.OfficerManagerEvent</title>
<!-- Node1 -->
<g id="node1" class="node">
<title>Node1</title>
<g id="a_node1"><a xlink:title=" ">
<polygon fill="#999999" stroke="#666666" points="1412,-190 1215,-190 1215,-160 1412,-160 1412,-190"/>
<text text-anchor="start" x="1223" y="-178" font-family="Helvetica,sans-Serif" font-size="10.00">com.fs.starfarer.api.impl.campaign.events.</text>
<text text-anchor="middle" x="1313.5" y="-167" font-family="Helvetica,sans-Serif" font-size="10.00">OfficerManagerEvent</text>
</a>
</g>
</g>
<!-- Node2 -->
<g id="node2" class="node">
<title>Node2</title>
<g id="a_node2"><a xlink:href="classcom_1_1fs_1_1starfarer_1_1api_1_1impl_1_1campaign_1_1events_1_1BaseEventPlugin.html" target="_top" xlink:title=" ">
<polygon fill="white" stroke="#bfbfbf" points="1091.5,-308 894.5,-308 894.5,-278 1091.5,-278 1091.5,-308"/>
<text text-anchor="start" x="902.5" y="-296" font-family="Helvetica,sans-Serif" font-size="10.00">com.fs.starfarer.api.impl.campaign.events.</text>
<text text-anchor="middle" x="993" y="-285" font-family="Helvetica,sans-Serif" font-size="10.00">BaseEventPlugin</text>
</a>
</g>
</g>
<!-- Node2&#45;&gt;Node1 -->
<g id="edge1" class="edge">
<title>Node2&#45;&gt;Node1</title>
<path fill="none" stroke="#63b8ff" d="M1085.05,-274.7C1091.51,-272.92 1097.88,-271.02 1104,-269 1170.35,-247.07 1244.02,-210.86 1283.58,-190.38"/>
<polygon fill="#63b8ff" stroke="#63b8ff" points="1084.38,-271.26 1075.6,-277.19 1086.16,-278.03 1084.38,-271.26"/>
</g>
<!-- Node3 -->
<g id="node3" class="node">
<title>Node3</title>
<g id="a_node3"><a xlink:href="interfacecom_1_1fs_1_1starfarer_1_1api_1_1campaign_1_1events_1_1CampaignEventPlugin.html" target="_top" xlink:title=" ">
<polygon fill="white" stroke="#bfbfbf" points="791,-428 614,-428 614,-398 791,-398 791,-428"/>
<text text-anchor="start" x="622" y="-416" font-family="Helvetica,sans-Serif" font-size="10.00">com.fs.starfarer.api.campaign.events.</text>
<text text-anchor="middle" x="702.5" y="-405" font-family="Helvetica,sans-Serif" font-size="10.00">CampaignEventPlugin</text>
</a>
</g>
</g>
<!-- Node3&#45;&gt;Node2 -->
<g id="edge2" class="edge">
<title>Node3&#45;&gt;Node2</title>
<path fill="none" stroke="#63b8ff" d="M775.81,-394.26C780.98,-392.59 786.09,-390.83 791,-389 854.6,-365.31 925.46,-328.98 963.74,-308.48"/>
<polygon fill="#63b8ff" stroke="#63b8ff" points="775.09,-390.82 766.58,-397.13 777.17,-397.5 775.09,-390.82"/>
</g>
<!-- Node4 -->
<g id="node4" class="node">
<title>Node4</title>
<g id="a_node4"><a xlink:href="interfacecom_1_1fs_1_1starfarer_1_1api_1_1impl_1_1campaign_1_1rulecmd_1_1CallEvent_1_1CallableEvent.html" target="_top" xlink:title=" ">
<polygon fill="white" stroke="#bfbfbf" points="409,-458 206,-458 206,-428 409,-428 409,-458"/>
<text text-anchor="start" x="214" y="-446" font-family="Helvetica,sans-Serif" font-size="10.00">com.fs.starfarer.api.impl.campaign.rulecmd.</text>
<text text-anchor="middle" x="307.5" y="-435" font-family="Helvetica,sans-Serif" font-size="10.00">CallEvent.CallableEvent</text>
</a>
</g>
</g>
<!-- Node4&#45;&gt;Node1 -->
<g id="edge15" class="edge">
<title>Node4&#45;&gt;Node1</title>
<path fill="none" stroke="#63b8ff" d="M420.8,-442.57C473.92,-442.28 538.23,-441.79 596,-441 682.68,-439.81 705.93,-453.65 791,-437 937.21,-408.38 970.11,-382.35 1104,-317 1179.37,-280.21 1258.65,-219 1293.82,-190.49"/>
<polygon fill="#63b8ff" stroke="#63b8ff" points="420.79,-439.07 410.8,-442.62 420.82,-446.07 420.79,-439.07"/>
</g>
<!-- Node4&#45;&gt;Node3 -->
<g id="edge3" class="edge">
<title>Node4&#45;&gt;Node3</title>
<path fill="none" stroke="#63b8ff" d="M420.72,-434.43C481.93,-429.76 556.6,-424.06 613.54,-419.71"/>
<polygon fill="#63b8ff" stroke="#63b8ff" points="420.67,-430.93 410.96,-435.18 421.2,-437.91 420.67,-430.93"/>
</g>
<!-- Node5 -->
<g id="node5" class="node">
<title>Node5</title>
<g id="a_node5"><a xlink:href="interfacecom_1_1fs_1_1starfarer_1_1api_1_1campaign_1_1CampaignEventListener.html" target="_top" xlink:title=" ">
<polygon fill="white" stroke="#666666" points="775.5,-380 629.5,-380 629.5,-350 775.5,-350 775.5,-380"/>
<text text-anchor="start" x="637.5" y="-368" font-family="Helvetica,sans-Serif" font-size="10.00">com.fs.starfarer.api.campaign.</text>
<text text-anchor="middle" x="702.5" y="-357" font-family="Helvetica,sans-Serif" font-size="10.00">CampaignEventListener</text>
</a>
</g>
</g>
<!-- Node5&#45;&gt;Node2 -->
<g id="edge4" class="edge">
<title>Node5&#45;&gt;Node2</title>
<path fill="none" stroke="#63b8ff" d="M776.52,-346.78C823.98,-334.93 885.17,-319.66 930.21,-308.42"/>
<polygon fill="#63b8ff" stroke="#63b8ff" points="775.71,-343.37 766.86,-349.19 777.41,-350.16 775.71,-343.37"/>
</g>
<!-- Node6 -->
<g id="node6" class="node">
<title>Node6</title>
<g id="a_node6"><a xlink:href="classcom_1_1fs_1_1starfarer_1_1api_1_1campaign_1_1events_1_1CampaignEventTarget.html" target="_top" xlink:title=" ">
<polygon fill="white" stroke="#bfbfbf" points="791,-332 614,-332 614,-302 791,-302 791,-332"/>
<text text-anchor="start" x="622" y="-320" font-family="Helvetica,sans-Serif" font-size="10.00">com.fs.starfarer.api.campaign.events.</text>
<text text-anchor="middle" x="702.5" y="-309" font-family="Helvetica,sans-Serif" font-size="10.00">CampaignEventTarget</text>
</a>
</g>
</g>
<!-- Node6&#45;&gt;Node2 -->
<g id="edge5" class="edge">
<title>Node6&#45;&gt;Node2</title>
<path fill="none" stroke="#9a32cd" stroke-dasharray="5,2" d="M802.44,-308.77C832.07,-306.3 864.54,-303.6 894.1,-301.14"/>
<polygon fill="#9a32cd" stroke="#9a32cd" points="802.42,-305.26 792.74,-309.58 803,-312.23 802.42,-305.26"/>
<text text-anchor="middle" x="836.5" y="-310" font-family="Helvetica,sans-Serif" font-size="10.00"> eventTarget</text>
</g>
<!-- Node7 -->
<g id="node7" class="node">
<title>Node7</title>
<g id="a_node7"><a xlink:href="interfacecom_1_1fs_1_1starfarer_1_1api_1_1campaign_1_1LocationAPI.html" target="_top" xlink:title=" ">
<polygon fill="white" stroke="#666666" points="380.5,-355 234.5,-355 234.5,-325 380.5,-325 380.5,-355"/>
<text text-anchor="start" x="242.5" y="-343" font-family="Helvetica,sans-Serif" font-size="10.00">com.fs.starfarer.api.campaign.</text>
<text text-anchor="middle" x="307.5" y="-332" font-family="Helvetica,sans-Serif" font-size="10.00">LocationAPI</text>
</a>
</g>
</g>
<!-- Node7&#45;&gt;Node6 -->
<g id="edge6" class="edge">
<title>Node7&#45;&gt;Node6</title>
<path fill="none" stroke="#9a32cd" stroke-dasharray="5,2" d="M392.04,-335.11C457.21,-331.3 547.49,-326.01 613.72,-322.14"/>
<polygon fill="#9a32cd" stroke="#9a32cd" points="391.87,-331.61 382.09,-335.69 392.28,-338.6 391.87,-331.61"/>
<text text-anchor="middle" x="511.5" y="-335" font-family="Helvetica,sans-Serif" font-size="10.00"> location</text>
</g>
<!-- Node8 -->
<g id="node8" class="node">
<title>Node8</title>
<g id="a_node8"><a xlink:href="interfacecom_1_1fs_1_1starfarer_1_1api_1_1campaign_1_1SectorEntityToken.html" target="_top" xlink:title=" ">
<polygon fill="white" stroke="#666666" points="380.5,-288 234.5,-288 234.5,-258 380.5,-258 380.5,-288"/>
<text text-anchor="start" x="242.5" y="-276" font-family="Helvetica,sans-Serif" font-size="10.00">com.fs.starfarer.api.campaign.</text>
<text text-anchor="middle" x="307.5" y="-265" font-family="Helvetica,sans-Serif" font-size="10.00">SectorEntityToken</text>
</a>
</g>
</g>
<!-- Node8&#45;&gt;Node2 -->
<g id="edge11" class="edge">
<title>Node8&#45;&gt;Node2</title>
<path fill="none" stroke="#9a32cd" stroke-dasharray="5,2" d="M392.27,-273.65C488.52,-274.61 651.21,-276.87 791,-282 824.61,-283.23 861.37,-285.09 894.14,-286.94"/>
<polygon fill="#9a32cd" stroke="#9a32cd" points="392.41,-270.15 382.38,-273.55 392.34,-277.15 392.41,-270.15"/>
<text text-anchor="middle" x="702.5" y="-285" font-family="Helvetica,sans-Serif" font-size="10.00"> entity</text>
</g>
<!-- Node8&#45;&gt;Node6 -->
<g id="edge7" class="edge">
<title>Node8&#45;&gt;Node6</title>
<path fill="none" stroke="#9a32cd" stroke-dasharray="5,2" d="M391.63,-282.31C456.84,-289.61 547.35,-299.74 613.72,-307.17"/>
<polygon fill="#9a32cd" stroke="#9a32cd" points="392.41,-278.87 382.09,-281.24 391.63,-285.83 392.41,-278.87"/>
<text text-anchor="middle" x="511.5" y="-306" font-family="Helvetica,sans-Serif" font-size="10.00"> entity</text>
</g>
<!-- Node9 -->
<g id="node9" class="node">
<title>Node9</title>
<g id="a_node9"><a xlink:href="interfacecom_1_1fs_1_1starfarer_1_1api_1_1campaign_1_1rules_1_1HasMemory.html" target="_top" xlink:title=" ">
<polygon fill="white" stroke="#bfbfbf" points="169,-241 0,-241 0,-211 169,-211 169,-241"/>
<text text-anchor="start" x="8" y="-229" font-family="Helvetica,sans-Serif" font-size="10.00">com.fs.starfarer.api.campaign.rules.</text>
<text text-anchor="middle" x="84.5" y="-218" font-family="Helvetica,sans-Serif" font-size="10.00">HasMemory</text>
</a>
</g>
</g>
<!-- Node9&#45;&gt;Node8 -->
<g id="edge8" class="edge">
<title>Node9&#45;&gt;Node8</title>
<path fill="none" stroke="#63b8ff" d="M169.2,-243.8C190.59,-248.35 213.4,-253.2 234.16,-257.62"/>
<polygon fill="#63b8ff" stroke="#63b8ff" points="170.16,-240.43 159.65,-241.77 168.7,-247.27 170.16,-240.43"/>
</g>
<!-- Node10 -->
<g id="node10" class="node">
<title>Node10</title>
<g id="a_node10"><a xlink:href="interfacecom_1_1fs_1_1starfarer_1_1api_1_1campaign_1_1econ_1_1MarketAPI.html" target="_top" xlink:title=" ">
<polygon fill="white" stroke="#bfbfbf" points="596,-241 427,-241 427,-211 596,-211 596,-241"/>
<text text-anchor="start" x="435" y="-229" font-family="Helvetica,sans-Serif" font-size="10.00">com.fs.starfarer.api.campaign.econ.</text>
<text text-anchor="middle" x="511.5" y="-218" font-family="Helvetica,sans-Serif" font-size="10.00">MarketAPI</text>
</a>
</g>
</g>
<!-- Node9&#45;&gt;Node10 -->
<g id="edge10" class="edge">
<title>Node9&#45;&gt;Node10</title>
<path fill="none" stroke="#63b8ff" d="M180.61,-226C254.47,-226 355.89,-226 426.71,-226"/>
<polygon fill="#63b8ff" stroke="#63b8ff" points="180.98,-222.5 170.98,-226 180.98,-229.5 180.98,-222.5"/>
</g>
<!-- Node11 -->
<g id="node11" class="node">
<title>Node11</title>
<g id="a_node11"><a xlink:href="interfacecom_1_1fs_1_1starfarer_1_1api_1_1campaign_1_1FactionAPI.html" target="_top" xlink:title=" ">
<polygon fill="white" stroke="#666666" points="584.5,-197 438.5,-197 438.5,-167 584.5,-167 584.5,-197"/>
<text text-anchor="start" x="446.5" y="-185" font-family="Helvetica,sans-Serif" font-size="10.00">com.fs.starfarer.api.campaign.</text>
<text text-anchor="middle" x="511.5" y="-174" font-family="Helvetica,sans-Serif" font-size="10.00">FactionAPI</text>
</a>
</g>
</g>
<!-- Node9&#45;&gt;Node11 -->
<g id="edge13" class="edge">
<title>Node9&#45;&gt;Node11</title>
<path fill="none" stroke="#63b8ff" d="M180.73,-216.14C258.61,-208.08 367.08,-196.85 438.03,-189.5"/>
<polygon fill="#63b8ff" stroke="#63b8ff" points="180.56,-212.64 170.97,-217.15 181.28,-219.6 180.56,-212.64"/>
</g>
<!-- Node10&#45;&gt;Node2 -->
<g id="edge9" class="edge">
<title>Node10&#45;&gt;Node2</title>
<path fill="none" stroke="#9a32cd" stroke-dasharray="5,2" d="M607.73,-225.98C661.75,-227.17 730.47,-230.7 791,-240 824.14,-245.09 832.88,-246.54 864,-259 872.5,-262.4 873.44,-265.77 882,-269 890.5,-272.21 899.55,-275.05 908.65,-277.54"/>
<polygon fill="#9a32cd" stroke="#9a32cd" points="608.01,-222.49 597.94,-225.79 607.87,-229.49 608.01,-222.49"/>
<text text-anchor="middle" x="702.5" y="-243" font-family="Helvetica,sans-Serif" font-size="10.00"> market</text>
</g>
<!-- Node11&#45;&gt;Node2 -->
<g id="edge12" class="edge">
<title>Node11&#45;&gt;Node2</title>
<path fill="none" stroke="#9a32cd" stroke-dasharray="5,2" d="M596.12,-185.24C651.9,-188.73 726.56,-195.98 791,-211 824.69,-218.85 837.53,-215.73 864,-238 876.19,-248.26 869.12,-259.62 882,-269 886.5,-272.28 891.37,-275.13 896.45,-277.6"/>
<polygon fill="#9a32cd" stroke="#9a32cd" points="596.57,-181.76 586.38,-184.66 596.15,-188.75 596.57,-181.76"/>
<text text-anchor="middle" x="702.5" y="-214" font-family="Helvetica,sans-Serif" font-size="10.00"> faction</text>
</g>
<!-- Node12 -->
<g id="node12" class="node">
<title>Node12</title>
<g id="a_node12"><a xlink:href="interfacecom_1_1fs_1_1starfarer_1_1api_1_1campaign_1_1rules_1_1MemoryAPI.html" target="_top" xlink:title=" ">
<polygon fill="white" stroke="#bfbfbf" points="787,-143 618,-143 618,-113 787,-113 787,-143"/>
<text text-anchor="start" x="626" y="-131" font-family="Helvetica,sans-Serif" font-size="10.00">com.fs.starfarer.api.campaign.rules.</text>
<text text-anchor="middle" x="702.5" y="-120" font-family="Helvetica,sans-Serif" font-size="10.00">MemoryAPI</text>
</a>
</g>
</g>
<!-- Node12&#45;&gt;Node2 -->
<g id="edge14" class="edge">
<title>Node12&#45;&gt;Node2</title>
<path fill="none" stroke="#9a32cd" stroke-dasharray="5,2" d="M798.58,-124.3C822.75,-128.06 846.74,-136.64 864,-154 900.48,-190.68 846.52,-231.35 882,-269 885.62,-272.84 889.7,-276.14 894.1,-278.97"/>
<polygon fill="#9a32cd" stroke="#9a32cd" points="799.35,-120.87 788.99,-123.09 798.47,-127.82 799.35,-120.87"/>
<text text-anchor="middle" x="836.5" y="-157" font-family="Helvetica,sans-Serif" font-size="10.00"> memory</text>
</g>
<!-- Node13 -->
<g id="node13" class="node">
<title>Node13</title>
<g id="a_node13"><a xlink:href="interfacecom_1_1fs_1_1starfarer_1_1api_1_1campaign_1_1listeners_1_1ColonyInteractionListener.html" target="_top" xlink:title=" ">
<polygon fill="white" stroke="#bfbfbf" points="1085.5,-260 900.5,-260 900.5,-230 1085.5,-230 1085.5,-260"/>
<text text-anchor="start" x="908.5" y="-248" font-family="Helvetica,sans-Serif" font-size="10.00">com.fs.starfarer.api.campaign.listeners.</text>
<text text-anchor="middle" x="993" y="-237" font-family="Helvetica,sans-Serif" font-size="10.00">ColonyInteractionListener</text>
</a>
</g>
</g>
<!-- Node13&#45;&gt;Node1 -->
<g id="edge16" class="edge">
<title>Node13&#45;&gt;Node1</title>
<path fill="none" stroke="#63b8ff" d="M1076.03,-227.12C1085.47,-225.06 1094.94,-222.99 1104,-221 1150.16,-210.87 1202.06,-199.42 1242.53,-190.48"/>
<polygon fill="#63b8ff" stroke="#63b8ff" points="1075.51,-223.65 1066.49,-229.21 1077.01,-230.49 1075.51,-223.65"/>
</g>
<!-- Node14 -->
<g id="node14" class="node">
<title>Node14</title>
<g id="a_node14"><a xlink:href="interfacecom_1_1fs_1_1starfarer_1_1api_1_1EveryFrameScript.html" target="_top" xlink:title=" ">
<polygon fill="white" stroke="#bfbfbf" points="1055.5,-212 930.5,-212 930.5,-182 1055.5,-182 1055.5,-212"/>
<text text-anchor="start" x="938.5" y="-200" font-family="Helvetica,sans-Serif" font-size="10.00">com.fs.starfarer.api.Every</text>
<text text-anchor="middle" x="993" y="-189" font-family="Helvetica,sans-Serif" font-size="10.00">FrameScript</text>
</a>
</g>
</g>
<!-- Node14&#45;&gt;Node1 -->
<g id="edge17" class="edge">
<title>Node14&#45;&gt;Node1</title>
<path fill="none" stroke="#63b8ff" d="M1067.2,-191.94C1110.93,-188.92 1167.03,-185.05 1214.54,-181.77"/>
<polygon fill="#63b8ff" stroke="#63b8ff" points="1067.03,-188.45 1057.3,-192.63 1067.52,-195.43 1067.03,-188.45"/>
</g>
<!-- Node15 -->
<g id="node15" class="node">
<title>Node15</title>
<g id="a_node15"><a xlink:title=" ">
<polygon fill="white" stroke="#bfbfbf" points="1016.5,-163.5 969.5,-163.5 969.5,-144.5 1016.5,-144.5 1016.5,-163.5"/>
<text text-anchor="middle" x="993" y="-151.5" font-family="Helvetica,sans-Serif" font-size="10.00">Logger</text>
</a>
</g>
</g>
<!-- Node15&#45;&gt;Node1 -->
<g id="edge18" class="edge">
<title>Node15&#45;&gt;Node1</title>
<path fill="none" stroke="#9a32cd" stroke-dasharray="5,2" d="M1028.15,-156.25C1072.37,-159.17 1151.28,-164.37 1214.77,-168.56"/>
<polygon fill="#9a32cd" stroke="#9a32cd" points="1028.62,-152.78 1018.42,-155.61 1028.16,-159.76 1028.62,-152.78"/>
<text text-anchor="middle" x="1159.5" y="-169" font-family="Helvetica,sans-Serif" font-size="10.00"> log</text>
</g>
<!-- Node16 -->
<g id="node16" class="node">
<title>Node16</title>
<g id="a_node16"><a xlink:href="classcom_1_1fs_1_1starfarer_1_1api_1_1util_1_1IntervalUtil.html" target="_top" xlink:title=" ">
<polygon fill="white" stroke="#bfbfbf" points="1051,-126 935,-126 935,-96 1051,-96 1051,-126"/>
<text text-anchor="start" x="943" y="-114" font-family="Helvetica,sans-Serif" font-size="10.00">com.fs.starfarer.api.util.</text>
<text text-anchor="middle" x="993" y="-103" font-family="Helvetica,sans-Serif" font-size="10.00">IntervalUtil</text>
</a>
</g>
</g>
<!-- Node16&#45;&gt;Node1 -->
<g id="edge19" class="edge">
<title>Node16&#45;&gt;Node1</title>
<path fill="none" stroke="#9a32cd" stroke-dasharray="5,2" d="M1062.83,-122.11C1102.23,-128.74 1152.52,-137.67 1197,-147 1214.87,-150.75 1234.19,-155.25 1251.82,-159.54"/>
<polygon fill="#9a32cd" stroke="#9a32cd" points="1063.43,-118.66 1052.99,-120.46 1062.28,-125.57 1063.43,-118.66"/>
<text text-anchor="middle" x="1159.5" y="-150" font-family="Helvetica,sans-Serif" font-size="10.00"> removeTracker</text>
</g>
<!-- Node17 -->
<g id="node17" class="node">
<title>Node17</title>
<g id="a_node17"><a xlink:title=" ">
<polygon fill="white" stroke="#bfbfbf" points="1104,-78 882,-78 882,-48 1104,-48 1104,-78"/>
<text text-anchor="start" x="890" y="-66" font-family="Helvetica,sans-Serif" font-size="10.00">List&lt; com.fs.starfarer.api.impl.campaign.events.</text>
<text text-anchor="middle" x="993" y="-55" font-family="Helvetica,sans-Serif" font-size="10.00">OfficerManagerEvent.AvailableOfficer &gt;</text>
</a>
</g>
</g>
<!-- Node17&#45;&gt;Node1 -->
<g id="edge20" class="edge">
<title>Node17&#45;&gt;Node1</title>
<path fill="none" stroke="#9a32cd" stroke-dasharray="5,2" d="M1110.43,-80.8C1139.27,-87.06 1169.71,-95.3 1197,-106 1232.23,-119.81 1269.12,-143.77 1291.47,-159.51"/>
<polygon fill="#9a32cd" stroke="#9a32cd" points="1111.45,-77.43 1100.94,-78.8 1110.01,-84.28 1111.45,-77.43"/>
<text text-anchor="middle" x="1159.5" y="-120" font-family="Helvetica,sans-Serif" font-size="10.00"> available</text>
<text text-anchor="middle" x="1159.5" y="-109" font-family="Helvetica,sans-Serif" font-size="10.00">availableAdmins</text>
</g>
<!-- Node18 -->
<g id="node18" class="node">
<title>Node18</title>
<g id="a_node18"><a xlink:href="classcom_1_1fs_1_1starfarer_1_1api_1_1util_1_1TimeoutTracker.html" target="_top" xlink:title=" ">
<polygon fill="white" stroke="#bfbfbf" points="1056.5,-30 929.5,-30 929.5,0 1056.5,0 1056.5,-30"/>
<text text-anchor="start" x="937.5" y="-18" font-family="Helvetica,sans-Serif" font-size="10.00">com.fs.starfarer.api.util.</text>
<text text-anchor="middle" x="993" y="-7" font-family="Helvetica,sans-Serif" font-size="10.00">TimeoutTracker&lt; String &gt;</text>
</a>
</g>
</g>
<!-- Node18&#45;&gt;Node1 -->
<g id="edge21" class="edge">
<title>Node18&#45;&gt;Node1</title>
<path fill="none" stroke="#9a32cd" stroke-dasharray="5,2" d="M1067.9,-24.89C1108.1,-32.6 1157.53,-46.02 1197,-69 1239.81,-93.93 1280.12,-136.99 1299.86,-159.8"/>
<polygon fill="#9a32cd" stroke="#9a32cd" points="1068.78,-21.49 1058.31,-23.13 1067.52,-28.38 1068.78,-21.49"/>
<text text-anchor="middle" x="1159.5" y="-72" font-family="Helvetica,sans-Serif" font-size="10.00"> recentlyChecked</text>
</g>
</g>
</svg>
