<?xml version="1.0" encoding="UTF-8" standalone="no"?>
<!DOCTYPE svg PUBLIC "-//W3C//DTD SVG 1.1//EN"
 "http://www.w3.org/Graphics/SVG/1.1/DTD/svg11.dtd">
<!-- Generated by graphviz version 7.0.5 (20221223.1930)
 -->
<!-- Title: com.fs.starfarer.api.impl.campaign.eventide.DuelTutorialPanel Pages: 1 -->
<svg width="853pt" height="415pt"
 viewBox="0.00 0.00 853.00 415.00" xmlns="http://www.w3.org/2000/svg" xmlns:xlink="http://www.w3.org/1999/xlink">
<g id="graph0" class="graph" transform="scale(1 1) rotate(0) translate(4 411)">
<title>com.fs.starfarer.api.impl.campaign.eventide.DuelTutorialPanel</title>
<!-- Node1 -->
<g id="node1" class="node">
<title>Node1</title>
<g id="a_node1"><a xlink:title=" ">
<polygon fill="#999999" stroke="#666666" points="845,-230 640,-230 640,-200 845,-200 845,-230"/>
<text text-anchor="start" x="648" y="-218" font-family="Helvetica,sans-Serif" font-size="10.00">com.fs.starfarer.api.impl.campaign.eventide.</text>
<text text-anchor="middle" x="742.5" y="-207" font-family="Helvetica,sans-Serif" font-size="10.00">DuelTutorialPanel</text>
</a>
</g>
</g>
<!-- Node2 -->
<g id="node2" class="node">
<title>Node2</title>
<g id="a_node2"><a xlink:href="classcom_1_1fs_1_1starfarer_1_1api_1_1campaign_1_1BaseCustomUIPanelPlugin.html" target="_top" xlink:title=" ">
<polygon fill="white" stroke="#bfbfbf" points="530.5,-407 384.5,-407 384.5,-377 530.5,-377 530.5,-407"/>
<text text-anchor="start" x="392.5" y="-395" font-family="Helvetica,sans-Serif" font-size="10.00">com.fs.starfarer.api.campaign.</text>
<text text-anchor="middle" x="457.5" y="-384" font-family="Helvetica,sans-Serif" font-size="10.00">BaseCustomUIPanelPlugin</text>
</a>
</g>
</g>
<!-- Node2&#45;&gt;Node1 -->
<g id="edge1" class="edge">
<title>Node2&#45;&gt;Node1</title>
<path fill="none" stroke="#63b8ff" d="M541.56,-375.02C547.89,-372.92 554.11,-370.59 560,-368 634.34,-335.35 701.74,-262.35 728.87,-230.43"/>
<polygon fill="#63b8ff" stroke="#63b8ff" points="540.79,-371.59 532.27,-377.88 542.86,-378.28 540.79,-371.59"/>
</g>
<!-- Node3 -->
<g id="node3" class="node">
<title>Node3</title>
<g id="a_node3"><a xlink:href="interfacecom_1_1fs_1_1starfarer_1_1api_1_1campaign_1_1CustomUIPanelPlugin.html" target="_top" xlink:title=" ">
<polygon fill="white" stroke="#bfbfbf" points="294,-407 148,-407 148,-377 294,-377 294,-407"/>
<text text-anchor="start" x="156" y="-395" font-family="Helvetica,sans-Serif" font-size="10.00">com.fs.starfarer.api.campaign.</text>
<text text-anchor="middle" x="221" y="-384" font-family="Helvetica,sans-Serif" font-size="10.00">CustomUIPanelPlugin</text>
</a>
</g>
</g>
<!-- Node3&#45;&gt;Node2 -->
<g id="edge2" class="edge">
<title>Node3&#45;&gt;Node2</title>
<path fill="none" stroke="#63b8ff" d="M305.49,-392C331.17,-392 359.2,-392 384.06,-392"/>
<polygon fill="#63b8ff" stroke="#63b8ff" points="305.78,-388.5 295.78,-392 305.78,-395.5 305.78,-388.5"/>
</g>
<!-- Node4 -->
<g id="node4" class="node">
<title>Node4</title>
<g id="a_node4"><a xlink:href="interfacecom_1_1fs_1_1starfarer_1_1api_1_1campaign_1_1InteractionDialogAPI.html" target="_top" xlink:title=" ">
<polygon fill="white" stroke="#bfbfbf" points="530.5,-359 384.5,-359 384.5,-329 530.5,-329 530.5,-359"/>
<text text-anchor="start" x="392.5" y="-347" font-family="Helvetica,sans-Serif" font-size="10.00">com.fs.starfarer.api.campaign.</text>
<text text-anchor="middle" x="457.5" y="-336" font-family="Helvetica,sans-Serif" font-size="10.00">InteractionDialogAPI</text>
</a>
</g>
</g>
<!-- Node4&#45;&gt;Node1 -->
<g id="edge3" class="edge">
<title>Node4&#45;&gt;Node1</title>
<path fill="none" stroke="#9a32cd" stroke-dasharray="5,2" d="M541.53,-326.5C547.85,-324.52 554.07,-322.36 560,-320 621.23,-295.66 686.61,-253.25 719.66,-230.49"/>
<polygon fill="#9a32cd" stroke="#9a32cd" points="540.89,-323.04 532.29,-329.22 542.88,-329.75 540.89,-323.04"/>
<text text-anchor="middle" x="600" y="-314" font-family="Helvetica,sans-Serif" font-size="10.00"> dialog</text>
</g>
<!-- Node5 -->
<g id="node5" class="node">
<title>Node5</title>
<g id="a_node5"><a xlink:href="interfacecom_1_1fs_1_1starfarer_1_1api_1_1campaign_1_1CustomVisualDialogDelegate_1_1DialogCallbacks.html" target="_top" xlink:title=" ">
<polygon fill="white" stroke="#bfbfbf" points="543.5,-310.5 371.5,-310.5 371.5,-269.5 543.5,-269.5 543.5,-310.5"/>
<text text-anchor="start" x="379.5" y="-298.5" font-family="Helvetica,sans-Serif" font-size="10.00">com.fs.starfarer.api.campaign.</text>
<text text-anchor="start" x="379.5" y="-287.5" font-family="Helvetica,sans-Serif" font-size="10.00">CustomVisualDialogDelegate.Dialog</text>
<text text-anchor="middle" x="457.5" y="-276.5" font-family="Helvetica,sans-Serif" font-size="10.00">Callbacks</text>
</a>
</g>
</g>
<!-- Node5&#45;&gt;Node1 -->
<g id="edge4" class="edge">
<title>Node5&#45;&gt;Node1</title>
<path fill="none" stroke="#9a32cd" stroke-dasharray="5,2" d="M548.74,-266.08C592.86,-254.39 644.65,-240.67 683.44,-230.39"/>
<polygon fill="#9a32cd" stroke="#9a32cd" points="547.94,-262.68 539.17,-268.62 549.73,-269.44 547.94,-262.68"/>
<text text-anchor="middle" x="600" y="-259" font-family="Helvetica,sans-Serif" font-size="10.00"> callbacks</text>
</g>
<!-- Node6 -->
<g id="node6" class="node">
<title>Node6</title>
<g id="a_node6"><a xlink:href="interfacecom_1_1fs_1_1starfarer_1_1api_1_1ui_1_1CustomPanelAPI.html" target="_top" xlink:title=" ">
<polygon fill="white" stroke="#bfbfbf" points="513,-251 402,-251 402,-221 513,-221 513,-251"/>
<text text-anchor="start" x="410" y="-239" font-family="Helvetica,sans-Serif" font-size="10.00">com.fs.starfarer.api.ui.</text>
<text text-anchor="middle" x="457.5" y="-228" font-family="Helvetica,sans-Serif" font-size="10.00">CustomPanelAPI</text>
</a>
</g>
</g>
<!-- Node6&#45;&gt;Node1 -->
<g id="edge5" class="edge">
<title>Node6&#45;&gt;Node1</title>
<path fill="none" stroke="#9a32cd" stroke-dasharray="5,2" d="M524.68,-231.09C558.92,-228.55 601.47,-225.39 639.78,-222.55"/>
<polygon fill="#9a32cd" stroke="#9a32cd" points="524.62,-227.58 514.91,-231.81 525.14,-234.56 524.62,-227.58"/>
<text text-anchor="middle" x="600" y="-229" font-family="Helvetica,sans-Serif" font-size="10.00"> panel</text>
</g>
<!-- Node7 -->
<g id="node7" class="node">
<title>Node7</title>
<g id="a_node7"><a xlink:href="interfacecom_1_1fs_1_1starfarer_1_1api_1_1ui_1_1UIPanelAPI.html" target="_top" xlink:title=" ">
<polygon fill="white" stroke="#bfbfbf" points="276.5,-222 165.5,-222 165.5,-192 276.5,-192 276.5,-222"/>
<text text-anchor="start" x="173.5" y="-210" font-family="Helvetica,sans-Serif" font-size="10.00">com.fs.starfarer.api.ui.</text>
<text text-anchor="middle" x="221" y="-199" font-family="Helvetica,sans-Serif" font-size="10.00">UIPanelAPI</text>
</a>
</g>
</g>
<!-- Node7&#45;&gt;Node6 -->
<g id="edge6" class="edge">
<title>Node7&#45;&gt;Node6</title>
<path fill="none" stroke="#63b8ff" d="M288.33,-215.2C324.2,-219.64 367.97,-225.05 401.86,-229.24"/>
<polygon fill="#63b8ff" stroke="#63b8ff" points="288.84,-211.74 278.48,-213.98 287.98,-218.69 288.84,-211.74"/>
</g>
<!-- Node11 -->
<g id="node11" class="node">
<title>Node11</title>
<g id="a_node11"><a xlink:href="interfacecom_1_1fs_1_1starfarer_1_1api_1_1ui_1_1TooltipMakerAPI.html" target="_top" xlink:title=" ">
<polygon fill="white" stroke="#666666" points="513,-203 402,-203 402,-173 513,-173 513,-203"/>
<text text-anchor="start" x="410" y="-191" font-family="Helvetica,sans-Serif" font-size="10.00">com.fs.starfarer.api.ui.</text>
<text text-anchor="middle" x="457.5" y="-180" font-family="Helvetica,sans-Serif" font-size="10.00">TooltipMakerAPI</text>
</a>
</g>
</g>
<!-- Node7&#45;&gt;Node11 -->
<g id="edge12" class="edge">
<title>Node7&#45;&gt;Node11</title>
<path fill="none" stroke="#63b8ff" d="M288.33,-201.63C324.2,-198.72 367.97,-195.17 401.86,-192.43"/>
<polygon fill="#63b8ff" stroke="#63b8ff" points="288.17,-198.13 278.49,-202.42 288.74,-205.1 288.17,-198.13"/>
</g>
<!-- Node8 -->
<g id="node8" class="node">
<title>Node8</title>
<g id="a_node8"><a xlink:href="interfacecom_1_1fs_1_1starfarer_1_1api_1_1ui_1_1UIComponentAPI.html" target="_top" xlink:title=" ">
<polygon fill="white" stroke="#bfbfbf" points="111,-222 0,-222 0,-192 111,-192 111,-222"/>
<text text-anchor="start" x="8" y="-210" font-family="Helvetica,sans-Serif" font-size="10.00">com.fs.starfarer.api.ui.</text>
<text text-anchor="middle" x="55.5" y="-199" font-family="Helvetica,sans-Serif" font-size="10.00">UIComponentAPI</text>
</a>
</g>
</g>
<!-- Node8&#45;&gt;Node7 -->
<g id="edge7" class="edge">
<title>Node8&#45;&gt;Node7</title>
<path fill="none" stroke="#63b8ff" d="M122.58,-207C136.75,-207 151.57,-207 165.25,-207"/>
<polygon fill="#63b8ff" stroke="#63b8ff" points="122.91,-203.5 112.91,-207 122.91,-210.5 122.91,-203.5"/>
</g>
<!-- Node9 -->
<g id="node9" class="node">
<title>Node9</title>
<g id="a_node9"><a xlink:href="interfacecom_1_1fs_1_1starfarer_1_1api_1_1ui_1_1PositionAPI.html" target="_top" xlink:title=" ">
<polygon fill="white" stroke="#bfbfbf" points="513,-155 402,-155 402,-125 513,-125 513,-155"/>
<text text-anchor="start" x="410" y="-143" font-family="Helvetica,sans-Serif" font-size="10.00">com.fs.starfarer.api.ui.</text>
<text text-anchor="middle" x="457.5" y="-132" font-family="Helvetica,sans-Serif" font-size="10.00">PositionAPI</text>
</a>
</g>
</g>
<!-- Node9&#45;&gt;Node1 -->
<g id="edge8" class="edge">
<title>Node9&#45;&gt;Node1</title>
<path fill="none" stroke="#9a32cd" stroke-dasharray="5,2" d="M524.57,-155.2C536.39,-158.04 548.57,-161.05 560,-164 603.57,-175.27 652.7,-189.14 688.84,-199.58"/>
<polygon fill="#9a32cd" stroke="#9a32cd" points="525.4,-151.8 514.86,-152.89 523.78,-158.61 525.4,-151.8"/>
<text text-anchor="middle" x="600" y="-183" font-family="Helvetica,sans-Serif" font-size="10.00"> p</text>
</g>
<!-- Node10 -->
<g id="node10" class="node">
<title>Node10</title>
<g id="a_node10"><a xlink:href="enumcom_1_1fs_1_1starfarer_1_1api_1_1impl_1_1campaign_1_1eventide_1_1DuelTutorialPanel_1_1TutStage.html" target="_top" xlink:title=" ">
<polygon fill="white" stroke="#bfbfbf" points="560,-78 355,-78 355,-48 560,-48 560,-78"/>
<text text-anchor="start" x="363" y="-66" font-family="Helvetica,sans-Serif" font-size="10.00">com.fs.starfarer.api.impl.campaign.eventide.</text>
<text text-anchor="middle" x="457.5" y="-55" font-family="Helvetica,sans-Serif" font-size="10.00">DuelTutorialPanel.TutStage</text>
</a>
</g>
</g>
<!-- Node10&#45;&gt;Node1 -->
<g id="edge9" class="edge">
<title>Node10&#45;&gt;Node1</title>
<path fill="none" stroke="#9a32cd" stroke-dasharray="5,2" d="M498.31,-83.58C517.07,-93.32 539.73,-105.18 560,-116 614.62,-145.15 678.04,-179.97 713.6,-199.58"/>
<polygon fill="#9a32cd" stroke="#9a32cd" points="500.16,-80.59 489.67,-79.09 496.94,-86.81 500.16,-80.59"/>
<text text-anchor="middle" x="600" y="-151" font-family="Helvetica,sans-Serif" font-size="10.00"> curr</text>
</g>
<!-- Node10&#45;&gt;Node10 -->
<g id="edge10" class="edge">
<title>Node10&#45;&gt;Node10</title>
<path fill="none" stroke="#9a32cd" stroke-dasharray="5,2" d="M435.06,-89.61C438.65,-93.43 446.14,-96 457.5,-96 478.28,-96 486.07,-87.41 480.88,-78.28"/>
<polygon fill="#9a32cd" stroke="#9a32cd" points="438.56,-89.46 434.25,-79.78 431.58,-90.04 438.56,-89.46"/>
<text text-anchor="middle" x="457.5" y="-99" font-family="Helvetica,sans-Serif" font-size="10.00"> vals</text>
</g>
<!-- Node11&#45;&gt;Node1 -->
<g id="edge11" class="edge">
<title>Node11&#45;&gt;Node1</title>
<path fill="none" stroke="#9a32cd" stroke-dasharray="5,2" d="M524.68,-194.31C558.92,-197.58 601.47,-201.64 639.78,-205.3"/>
<polygon fill="#9a32cd" stroke="#9a32cd" points="525.19,-190.85 514.91,-193.38 524.53,-197.82 525.19,-190.85"/>
<text text-anchor="middle" x="600" y="-206" font-family="Helvetica,sans-Serif" font-size="10.00"> info</text>
</g>
<!-- Node12 -->
<g id="node12" class="node">
<title>Node12</title>
<g id="a_node12"><a xlink:href="classcom_1_1fs_1_1starfarer_1_1api_1_1util_1_1FaderUtil.html" target="_top" xlink:title=" ">
<polygon fill="white" stroke="#bfbfbf" points="515.5,-30 399.5,-30 399.5,0 515.5,0 515.5,-30"/>
<text text-anchor="start" x="407.5" y="-18" font-family="Helvetica,sans-Serif" font-size="10.00">com.fs.starfarer.api.util.</text>
<text text-anchor="middle" x="457.5" y="-7" font-family="Helvetica,sans-Serif" font-size="10.00">FaderUtil</text>
</a>
</g>
</g>
<!-- Node12&#45;&gt;Node1 -->
<g id="edge13" class="edge">
<title>Node12&#45;&gt;Node1</title>
<path fill="none" stroke="#9a32cd" stroke-dasharray="5,2" d="M526.77,-25.79C538.26,-29.09 549.77,-33.4 560,-39 637.18,-81.28 704.8,-165.29 730.49,-199.73"/>
<polygon fill="#9a32cd" stroke="#9a32cd" points="527.82,-22.45 517.26,-23.31 526.05,-29.22 527.82,-22.45"/>
<text text-anchor="middle" x="600" y="-81" font-family="Helvetica,sans-Serif" font-size="10.00"> flash</text>
</g>
<!-- Node13 -->
<g id="node13" class="node">
<title>Node13</title>
<g id="a_node13"><a xlink:href="enumcom_1_1fs_1_1starfarer_1_1api_1_1util_1_1FaderUtil_1_1State.html" target="_top" xlink:title=" ">
<polygon fill="white" stroke="#bfbfbf" points="279,-30 163,-30 163,0 279,0 279,-30"/>
<text text-anchor="start" x="171" y="-18" font-family="Helvetica,sans-Serif" font-size="10.00">com.fs.starfarer.api.util.</text>
<text text-anchor="middle" x="221" y="-7" font-family="Helvetica,sans-Serif" font-size="10.00">FaderUtil.State</text>
</a>
</g>
</g>
<!-- Node13&#45;&gt;Node12 -->
<g id="edge14" class="edge">
<title>Node13&#45;&gt;Node12</title>
<path fill="none" stroke="#9a32cd" stroke-dasharray="5,2" d="M290.78,-15C325.29,-15 366.58,-15 399.32,-15"/>
<polygon fill="#9a32cd" stroke="#9a32cd" points="290.88,-11.5 280.88,-15 290.88,-18.5 290.88,-11.5"/>
<text text-anchor="middle" x="324.5" y="-18" font-family="Helvetica,sans-Serif" font-size="10.00"> state</text>
</g>
</g>
</svg>
