<?xml version="1.0" encoding="UTF-8" standalone="no"?>
<!DOCTYPE svg PUBLIC "-//W3C//DTD SVG 1.1//EN"
 "http://www.w3.org/Graphics/SVG/1.1/DTD/svg11.dtd">
<!-- Generated by graphviz version 7.0.5 (20221223.1930)
 -->
<!-- Title: com.fs.starfarer.api.impl.campaign.intel.bases.PirateActivity Pages: 1 -->
<!--zoomable 796 -->
<svg id="main" version="1.1" xmlns="http://www.w3.org/2000/svg" xmlns:xlink="http://www.w3.org/1999/xlink" xml:space="preserve" onload="init(evt)">
<style type="text/css"><![CDATA[
.edge:hover path { stroke: red; }
.edge:hover polygon { stroke: red; fill: red; }
]]></style>
<script type="text/javascript"><![CDATA[
var edges = document.getElementsByTagName('g');
if (edges && edges.length) {
  for (var i=0;i<edges.length;i++) {
    if (edges[i].id.substr(0,4)=='edge') {
      edges[i].setAttribute('class','edge');
    }
  }
}
]]></script>
        <defs>
                <circle id="rim" cx="0" cy="0" r="7"/>
                <circle id="rim2" cx="0" cy="0" r="3.5"/>
                <g id="zoomPlus">
                        <use xlink:href="#rim" fill="#404040">
                                <set attributeName="fill" to="#808080" begin="zoomplus.mouseover" end="zoomplus.mouseout"/>
                        </use>
                        <path d="M-4,0h8M0,-4v8" fill="none" stroke="white" stroke-width="1.5" pointer-events="none"/>
                </g>
                <g id="zoomMin">
                        <use xlink:href="#rim" fill="#404040">
                                <set attributeName="fill" to="#808080" begin="zoomminus.mouseover" end="zoomminus.mouseout"/>
                        </use>
                        <path d="M-4,0h8" fill="none" stroke="white" stroke-width="1.5" pointer-events="none"/>
                </g>
                <g id="dirArrow">
                        <path fill="none" stroke="white" stroke-width="1.5" d="M0,-3.0v7 M-2.5,-0.5L0,-3.0L2.5,-0.5"/>
                </g>
               <g id="resetDef">
                       <use xlink:href="#rim2" fill="#404040">
                               <set attributeName="fill" to="#808080" begin="reset.mouseover" end="reset.mouseout"/>
                       </use>
               </g>
        </defs>

<script type="text/javascript">
var viewWidth = 1474;
var viewHeight = 796;
var sectionId = 'dynsection-1';
</script>
<script xlink:href="svgpan.js"/>
<svg id="graph" class="graph">
<g id="viewport">
<title>com.fs.starfarer.api.impl.campaign.intel.bases.PirateActivity</title>
<!-- Node1 -->
<g id="node1" class="node">
<title>Node1</title>
<g id="a_node1"><a xlink:title=" ">
<polygon fill="#999999" stroke="#666666" points="1466,-519 1251,-519 1251,-489 1466,-489 1466,-519"/>
<text text-anchor="start" x="1259" y="-507" font-family="Helvetica,sans-Serif" font-size="10.00">com.fs.starfarer.api.impl.campaign.intel.bases.</text>
<text text-anchor="middle" x="1358.5" y="-496" font-family="Helvetica,sans-Serif" font-size="10.00">PirateActivity</text>
</a>
</g>
</g>
<!-- Node2 -->
<g id="node2" class="node">
<title>Node2</title>
<g id="a_node2"><a xlink:href="classcom_1_1fs_1_1starfarer_1_1api_1_1impl_1_1campaign_1_1econ_1_1BaseMarketConditionPlugin.html" target="_top" xlink:title=" ">
<polygon fill="white" stroke="#666666" points="1181,-695 992,-695 992,-665 1181,-665 1181,-695"/>
<text text-anchor="start" x="1000" y="-683" font-family="Helvetica,sans-Serif" font-size="10.00">com.fs.starfarer.api.impl.campaign.econ.</text>
<text text-anchor="middle" x="1086.5" y="-672" font-family="Helvetica,sans-Serif" font-size="10.00">BaseMarketConditionPlugin</text>
</a>
</g>
</g>
<!-- Node2&#45;&gt;Node1 -->
<g id="edge1" class="edge">
<title>Node2&#45;&gt;Node1</title>
<path fill="none" stroke="#63b8ff" d="M1120.31,-658.61C1175.49,-622.64 1285.58,-550.88 1333.87,-519.4"/>
<polygon fill="#63b8ff" stroke="#63b8ff" points="1118.72,-655.47 1112.26,-663.86 1122.54,-661.33 1118.72,-655.47"/>
</g>
<!-- Node3 -->
<g id="node3" class="node">
<title>Node3</title>
<g id="a_node3"><a xlink:href="interfacecom_1_1fs_1_1starfarer_1_1api_1_1campaign_1_1econ_1_1MarketConditionPlugin.html" target="_top" xlink:title=" ">
<polygon fill="white" stroke="#666666" points="821,-788 652,-788 652,-758 821,-758 821,-788"/>
<text text-anchor="start" x="660" y="-776" font-family="Helvetica,sans-Serif" font-size="10.00">com.fs.starfarer.api.campaign.econ.</text>
<text text-anchor="middle" x="736.5" y="-765" font-family="Helvetica,sans-Serif" font-size="10.00">MarketConditionPlugin</text>
</a>
</g>
</g>
<!-- Node3&#45;&gt;Node2 -->
<g id="edge2" class="edge">
<title>Node3&#45;&gt;Node2</title>
<path fill="none" stroke="#63b8ff" d="M832.52,-758.2C872.58,-750.96 919.45,-741.16 961,-729 992.21,-719.87 1026.52,-706.07 1051.2,-695.44"/>
<polygon fill="#63b8ff" stroke="#63b8ff" points="832.14,-754.72 822.9,-759.91 833.36,-761.61 832.14,-754.72"/>
</g>
<!-- Node4 -->
<g id="node4" class="node">
<title>Node4</title>
<g id="a_node4"><a xlink:href="interfacecom_1_1fs_1_1starfarer_1_1api_1_1campaign_1_1econ_1_1MarketAPI.html" target="_top" xlink:title=" ">
<polygon fill="white" stroke="#666666" points="821,-632 652,-632 652,-602 821,-602 821,-632"/>
<text text-anchor="start" x="660" y="-620" font-family="Helvetica,sans-Serif" font-size="10.00">com.fs.starfarer.api.campaign.econ.</text>
<text text-anchor="middle" x="736.5" y="-609" font-family="Helvetica,sans-Serif" font-size="10.00">MarketAPI</text>
</a>
</g>
</g>
<!-- Node4&#45;&gt;Node2 -->
<g id="edge3" class="edge">
<title>Node4&#45;&gt;Node2</title>
<path fill="none" stroke="#9a32cd" stroke-dasharray="5,2" d="M832.66,-619.74C872.64,-622.27 919.42,-627.04 961,-636 991.7,-642.62 1025.2,-654.75 1049.71,-664.61"/>
<polygon fill="#9a32cd" stroke="#9a32cd" points="833,-616.25 822.81,-619.16 832.59,-623.24 833,-616.25"/>
<text text-anchor="middle" x="911.5" y="-639" font-family="Helvetica,sans-Serif" font-size="10.00"> market</text>
</g>
<!-- Node7 -->
<g id="node7" class="node">
<title>Node7</title>
<g id="a_node7"><a xlink:href="classcom_1_1fs_1_1starfarer_1_1api_1_1impl_1_1campaign_1_1intel_1_1bases_1_1PirateBaseIntel.html" target="_top" xlink:title=" ">
<polygon fill="white" stroke="#666666" points="1194,-371 979,-371 979,-341 1194,-341 1194,-371"/>
<text text-anchor="start" x="987" y="-359" font-family="Helvetica,sans-Serif" font-size="10.00">com.fs.starfarer.api.impl.campaign.intel.bases.</text>
<text text-anchor="middle" x="1086.5" y="-348" font-family="Helvetica,sans-Serif" font-size="10.00">PirateBaseIntel</text>
</a>
</g>
</g>
<!-- Node4&#45;&gt;Node7 -->
<g id="edge21" class="edge">
<title>Node4&#45;&gt;Node7</title>
<path fill="none" stroke="#9a32cd" stroke-dasharray="5,2" d="M832.59,-609.04C883.65,-603.19 940.26,-593.65 961,-579 1036.15,-525.92 1071.27,-412.38 1081.88,-371.26"/>
<polygon fill="#9a32cd" stroke="#9a32cd" points="832.52,-605.53 822.97,-610.11 833.29,-612.49 832.52,-605.53"/>
<text text-anchor="middle" x="911.5" y="-607" font-family="Helvetica,sans-Serif" font-size="10.00"> market</text>
</g>
<!-- Node5 -->
<g id="node5" class="node">
<title>Node5</title>
<g id="a_node5"><a xlink:href="interfacecom_1_1fs_1_1starfarer_1_1api_1_1campaign_1_1rules_1_1HasMemory.html" target="_top" xlink:title=" ">
<polygon fill="white" stroke="#666666" points="169,-557 0,-557 0,-527 169,-527 169,-557"/>
<text text-anchor="start" x="8" y="-545" font-family="Helvetica,sans-Serif" font-size="10.00">com.fs.starfarer.api.campaign.rules.</text>
<text text-anchor="middle" x="84.5" y="-534" font-family="Helvetica,sans-Serif" font-size="10.00">HasMemory</text>
</a>
</g>
</g>
<!-- Node5&#45;&gt;Node4 -->
<g id="edge4" class="edge">
<title>Node5&#45;&gt;Node4</title>
<path fill="none" stroke="#63b8ff" d="M180.59,-559.22C189.17,-560.58 197.74,-561.86 206,-563 362.99,-584.66 547.27,-601.53 651.83,-610.31"/>
<polygon fill="#63b8ff" stroke="#63b8ff" points="181.25,-555.78 170.82,-557.64 180.13,-562.69 181.25,-555.78"/>
</g>
<!-- Node13 -->
<g id="node13" class="node">
<title>Node13</title>
<g id="a_node13"><a xlink:href="interfacecom_1_1fs_1_1starfarer_1_1api_1_1campaign_1_1SectorEntityToken.html" target="_top" xlink:title=" ">
<polygon fill="white" stroke="#666666" points="398,-169 252,-169 252,-139 398,-139 398,-169"/>
<text text-anchor="start" x="260" y="-157" font-family="Helvetica,sans-Serif" font-size="10.00">com.fs.starfarer.api.campaign.</text>
<text text-anchor="middle" x="325" y="-146" font-family="Helvetica,sans-Serif" font-size="10.00">SectorEntityToken</text>
</a>
</g>
</g>
<!-- Node5&#45;&gt;Node13 -->
<g id="edge13" class="edge">
<title>Node5&#45;&gt;Node13</title>
<path fill="none" stroke="#63b8ff" d="M85.78,-515.43C88.03,-447.9 103.82,-268.68 206,-178 218.66,-166.76 235.13,-160.23 251.72,-156.55"/>
<polygon fill="#63b8ff" stroke="#63b8ff" points="82.29,-515.09 85.54,-525.17 89.29,-515.26 82.29,-515.09"/>
</g>
<!-- Node20 -->
<g id="node20" class="node">
<title>Node20</title>
<g id="a_node20"><a xlink:href="interfacecom_1_1fs_1_1starfarer_1_1api_1_1characters_1_1PersonAPI.html" target="_top" xlink:title=" ">
<polygon fill="white" stroke="#666666" points="611,-572 462,-572 462,-542 611,-542 611,-572"/>
<text text-anchor="start" x="470" y="-560" font-family="Helvetica,sans-Serif" font-size="10.00">com.fs.starfarer.api.characters.</text>
<text text-anchor="middle" x="536.5" y="-549" font-family="Helvetica,sans-Serif" font-size="10.00">PersonAPI</text>
</a>
</g>
</g>
<!-- Node5&#45;&gt;Node20 -->
<g id="edge23" class="edge">
<title>Node5&#45;&gt;Node20</title>
<path fill="none" stroke="#63b8ff" d="M180.68,-545.17C264.56,-547.97 385.03,-551.98 461.77,-554.54"/>
<polygon fill="#63b8ff" stroke="#63b8ff" points="180.97,-541.68 170.86,-544.85 180.74,-548.68 180.97,-541.68"/>
</g>
<!-- Node22 -->
<g id="node22" class="node">
<title>Node22</title>
<g id="a_node22"><a xlink:href="interfacecom_1_1fs_1_1starfarer_1_1api_1_1campaign_1_1FactionAPI.html" target="_top" xlink:title=" ">
<polygon fill="white" stroke="#666666" points="398,-519 252,-519 252,-489 398,-489 398,-519"/>
<text text-anchor="start" x="260" y="-507" font-family="Helvetica,sans-Serif" font-size="10.00">com.fs.starfarer.api.campaign.</text>
<text text-anchor="middle" x="325" y="-496" font-family="Helvetica,sans-Serif" font-size="10.00">FactionAPI</text>
</a>
</g>
</g>
<!-- Node5&#45;&gt;Node22 -->
<g id="edge27" class="edge">
<title>Node5&#45;&gt;Node22</title>
<path fill="none" stroke="#63b8ff" d="M180.39,-526.88C204.09,-523.1 229.13,-519.12 251.55,-515.54"/>
<polygon fill="#63b8ff" stroke="#63b8ff" points="180.07,-523.39 170.75,-528.42 181.17,-530.3 180.07,-523.39"/>
</g>
<!-- Node6 -->
<g id="node6" class="node">
<title>Node6</title>
<g id="a_node6"><a xlink:href="interfacecom_1_1fs_1_1starfarer_1_1api_1_1campaign_1_1econ_1_1MarketConditionAPI.html" target="_top" xlink:title=" ">
<polygon fill="white" stroke="#666666" points="821,-740 652,-740 652,-710 821,-710 821,-740"/>
<text text-anchor="start" x="660" y="-728" font-family="Helvetica,sans-Serif" font-size="10.00">com.fs.starfarer.api.campaign.econ.</text>
<text text-anchor="middle" x="736.5" y="-717" font-family="Helvetica,sans-Serif" font-size="10.00">MarketConditionAPI</text>
</a>
</g>
</g>
<!-- Node6&#45;&gt;Node2 -->
<g id="edge5" class="edge">
<title>Node6&#45;&gt;Node2</title>
<path fill="none" stroke="#9a32cd" stroke-dasharray="5,2" d="M832.58,-717.43C872.35,-713.8 919.01,-708.93 961,-703 976.02,-700.88 991.98,-698.23 1007.3,-695.49"/>
<polygon fill="#9a32cd" stroke="#9a32cd" points="832.43,-713.93 822.79,-718.31 833.06,-720.9 832.43,-713.93"/>
<text text-anchor="middle" x="911.5" y="-717" font-family="Helvetica,sans-Serif" font-size="10.00"> condition</text>
</g>
<!-- Node7&#45;&gt;Node1 -->
<g id="edge6" class="edge">
<title>Node7&#45;&gt;Node1</title>
<path fill="none" stroke="#9a32cd" stroke-dasharray="5,2" d="M1125.67,-376.92C1180.62,-407.04 1280.75,-461.93 1329.43,-488.61"/>
<polygon fill="#9a32cd" stroke="#9a32cd" points="1127.41,-373.88 1116.96,-372.15 1124.04,-380.02 1127.41,-373.88"/>
<text text-anchor="middle" x="1222.5" y="-437" font-family="Helvetica,sans-Serif" font-size="10.00"> intel</text>
</g>
<!-- Node8 -->
<g id="node8" class="node">
<title>Node8</title>
<g id="a_node8"><a xlink:href="classcom_1_1fs_1_1starfarer_1_1api_1_1impl_1_1campaign_1_1intel_1_1BaseIntelPlugin.html" target="_top" xlink:title=" ">
<polygon fill="white" stroke="#666666" points="829.5,-307 643.5,-307 643.5,-277 829.5,-277 829.5,-307"/>
<text text-anchor="start" x="651.5" y="-295" font-family="Helvetica,sans-Serif" font-size="10.00">com.fs.starfarer.api.impl.campaign.intel.</text>
<text text-anchor="middle" x="736.5" y="-284" font-family="Helvetica,sans-Serif" font-size="10.00">BaseIntelPlugin</text>
</a>
</g>
</g>
<!-- Node8&#45;&gt;Node7 -->
<g id="edge7" class="edge">
<title>Node8&#45;&gt;Node7</title>
<path fill="none" stroke="#63b8ff" d="M840.96,-302.25C878.91,-306.85 922.1,-313.05 961,-321 986.3,-326.17 1013.99,-333.76 1036.82,-340.55"/>
<polygon fill="#63b8ff" stroke="#63b8ff" points="841.73,-298.82 831.39,-301.12 840.9,-305.77 841.73,-298.82"/>
</g>
<!-- Node9 -->
<g id="node9" class="node">
<title>Node9</title>
<g id="a_node9"><a xlink:href="interfacecom_1_1fs_1_1starfarer_1_1api_1_1campaign_1_1comm_1_1IntelInfoPlugin.html" target="_top" xlink:title=" ">
<polygon fill="white" stroke="#666666" points="412.5,-217 237.5,-217 237.5,-187 412.5,-187 412.5,-217"/>
<text text-anchor="start" x="245.5" y="-205" font-family="Helvetica,sans-Serif" font-size="10.00">com.fs.starfarer.api.campaign.comm.</text>
<text text-anchor="middle" x="325" y="-194" font-family="Helvetica,sans-Serif" font-size="10.00">IntelInfoPlugin</text>
</a>
</g>
</g>
<!-- Node9&#45;&gt;Node8 -->
<g id="edge8" class="edge">
<title>Node9&#45;&gt;Node8</title>
<path fill="none" stroke="#63b8ff" d="M413.34,-219.76C423.67,-221.86 434.07,-223.98 444,-226 518.22,-241.1 537.18,-243.01 611,-260 632.97,-265.06 656.98,-271.1 678,-276.57"/>
<polygon fill="#63b8ff" stroke="#63b8ff" points="414.15,-216.36 403.65,-217.79 412.76,-223.22 414.15,-216.36"/>
</g>
<!-- Node10 -->
<g id="node10" class="node">
<title>Node10</title>
<g id="a_node10"><a xlink:title=" ">
<polygon fill="white" stroke="#666666" points="426.5,-313 223.5,-313 223.5,-283 426.5,-283 426.5,-313"/>
<text text-anchor="start" x="231.5" y="-301" font-family="Helvetica,sans-Serif" font-size="10.00">com.fs.starfarer.api.impl.campaign.rulecmd.</text>
<text text-anchor="middle" x="325" y="-290" font-family="Helvetica,sans-Serif" font-size="10.00">CallEvent.CallableEvent</text>
</a>
</g>
</g>
<!-- Node10&#45;&gt;Node8 -->
<g id="edge9" class="edge">
<title>Node10&#45;&gt;Node8</title>
<path fill="none" stroke="#63b8ff" d="M438.37,-296.35C502.68,-295.41 582.36,-294.24 643.02,-293.36"/>
<polygon fill="#63b8ff" stroke="#63b8ff" points="438.42,-292.85 428.48,-296.5 438.53,-299.85 438.42,-292.85"/>
</g>
<!-- Node11 -->
<g id="node11" class="node">
<title>Node11</title>
<g id="a_node11"><a xlink:href="interfacecom_1_1fs_1_1starfarer_1_1api_1_1EveryFrameScript.html" target="_top" xlink:title=" ">
<polygon fill="white" stroke="#666666" points="387.5,-361 262.5,-361 262.5,-331 387.5,-331 387.5,-361"/>
<text text-anchor="start" x="270.5" y="-349" font-family="Helvetica,sans-Serif" font-size="10.00">com.fs.starfarer.api.Every</text>
<text text-anchor="middle" x="325" y="-338" font-family="Helvetica,sans-Serif" font-size="10.00">FrameScript</text>
</a>
</g>
</g>
<!-- Node11&#45;&gt;Node7 -->
<g id="edge14" class="edge">
<title>Node11&#45;&gt;Node7</title>
<path fill="none" stroke="#63b8ff" d="M399.22,-346.96C534.01,-348.74 821.92,-352.53 978.58,-354.59"/>
<polygon fill="#63b8ff" stroke="#63b8ff" points="399.39,-343.47 389.34,-346.83 399.3,-350.47 399.39,-343.47"/>
</g>
<!-- Node11&#45;&gt;Node8 -->
<g id="edge10" class="edge">
<title>Node11&#45;&gt;Node8</title>
<path fill="none" stroke="#63b8ff" d="M398.82,-336.4C467.03,-327.4 569.29,-313.92 643.2,-304.17"/>
<polygon fill="#63b8ff" stroke="#63b8ff" points="398.71,-332.88 389.25,-337.66 399.62,-339.82 398.71,-332.88"/>
</g>
<!-- Node12 -->
<g id="node12" class="node">
<title>Node12</title>
<g id="a_node12"><a xlink:title=" ">
<polygon fill="white" stroke="#666666" points="444,-265 206,-265 206,-235 444,-235 444,-265"/>
<text text-anchor="start" x="214" y="-253" font-family="Helvetica,sans-Serif" font-size="10.00">com.fs.starfarer.api.impl.campaign.</text>
<text text-anchor="middle" x="325" y="-242" font-family="Helvetica,sans-Serif" font-size="10.00">CommRelayEntityPlugin.CommSnifferReadableIntel</text>
</a>
</g>
</g>
<!-- Node12&#45;&gt;Node8 -->
<g id="edge11" class="edge">
<title>Node12&#45;&gt;Node8</title>
<path fill="none" stroke="#63b8ff" d="M455.7,-263.3C516.69,-269.56 587.97,-276.87 643.33,-282.55"/>
<polygon fill="#63b8ff" stroke="#63b8ff" points="456.25,-259.84 445.95,-262.3 455.54,-266.8 456.25,-259.84"/>
</g>
<!-- Node13&#45;&gt;Node7 -->
<g id="edge24" class="edge">
<title>Node13&#45;&gt;Node7</title>
<path fill="none" stroke="#9a32cd" stroke-dasharray="5,2" d="M409.7,-150.32C469.68,-151.39 550.26,-160.72 611,-197 622.45,-203.84 617.61,-214.07 629,-221 711.77,-271.36 750.44,-231.83 844,-257 897.65,-271.43 909.57,-279.99 961,-301 992.06,-313.69 1026.97,-329.22 1051.9,-340.54"/>
<polygon fill="#9a32cd" stroke="#9a32cd" points="409.92,-146.82 399.89,-150.23 409.85,-153.82 409.92,-146.82"/>
<text text-anchor="middle" x="736.5" y="-260" font-family="Helvetica,sans-Serif" font-size="10.00"> entity</text>
</g>
<!-- Node13&#45;&gt;Node8 -->
<g id="edge12" class="edge">
<title>Node13&#45;&gt;Node8</title>
<path fill="none" stroke="#9a32cd" stroke-dasharray="5,2" d="M409.23,-165.16C421.25,-168.41 433.19,-172.6 444,-178 453.57,-182.79 452.3,-189.47 462,-194 522.66,-222.31 558.77,-174.13 611,-216 628.45,-229.99 612.41,-247.99 629,-263 635.04,-268.46 642.01,-272.91 649.43,-276.53"/>
<polygon fill="#9a32cd" stroke="#9a32cd" points="410.23,-161.8 399.68,-162.8 408.55,-168.6 410.23,-161.8"/>
<text text-anchor="middle" x="536.5" y="-219" font-family="Helvetica,sans-Serif" font-size="10.00"> postingLocation</text>
</g>
<!-- Node25 -->
<g id="node25" class="node">
<title>Node25</title>
<g id="a_node25"><a xlink:href="interfacecom_1_1fs_1_1starfarer_1_1api_1_1campaign_1_1CampaignFleetAPI.html" target="_top" xlink:title=" ">
<polygon fill="white" stroke="#666666" points="809.5,-30 663.5,-30 663.5,0 809.5,0 809.5,-30"/>
<text text-anchor="start" x="671.5" y="-18" font-family="Helvetica,sans-Serif" font-size="10.00">com.fs.starfarer.api.campaign.</text>
<text text-anchor="middle" x="736.5" y="-7" font-family="Helvetica,sans-Serif" font-size="10.00">CampaignFleetAPI</text>
</a>
</g>
</g>
<!-- Node13&#45;&gt;Node25 -->
<g id="edge31" class="edge">
<title>Node13&#45;&gt;Node25</title>
<path fill="none" stroke="#63b8ff" d="M372.24,-134.1C431.06,-109.34 536.18,-66.92 629,-39 639.98,-35.7 651.72,-32.61 663.24,-29.83"/>
<polygon fill="#63b8ff" stroke="#63b8ff" points="371.05,-130.81 363.2,-137.93 373.78,-137.26 371.05,-130.81"/>
</g>
<!-- Node14 -->
<g id="node14" class="node">
<title>Node14</title>
<g id="a_node14"><a xlink:href="interfacecom_1_1fs_1_1starfarer_1_1api_1_1campaign_1_1listeners_1_1FleetEventListener.html" target="_top" xlink:title=" ">
<polygon fill="white" stroke="#666666" points="829,-212 644,-212 644,-182 829,-182 829,-212"/>
<text text-anchor="start" x="652" y="-200" font-family="Helvetica,sans-Serif" font-size="10.00">com.fs.starfarer.api.campaign.listeners.</text>
<text text-anchor="middle" x="736.5" y="-189" font-family="Helvetica,sans-Serif" font-size="10.00">FleetEventListener</text>
</a>
</g>
</g>
<!-- Node14&#45;&gt;Node7 -->
<g id="edge15" class="edge">
<title>Node14&#45;&gt;Node7</title>
<path fill="none" stroke="#63b8ff" d="M840.47,-200.91C879.86,-205.71 924.13,-215.29 961,-234 1012,-259.89 1055.56,-314.05 1074.86,-340.62"/>
<polygon fill="#63b8ff" stroke="#63b8ff" points="841.07,-197.45 830.74,-199.82 840.29,-204.41 841.07,-197.45"/>
</g>
<!-- Node15 -->
<g id="node15" class="node">
<title>Node15</title>
<g id="a_node15"><a xlink:title=" ">
<polygon fill="white" stroke="#666666" points="827.5,-164 645.5,-164 645.5,-134 827.5,-134 827.5,-164"/>
<text text-anchor="start" x="653.5" y="-152" font-family="Helvetica,sans-Serif" font-size="10.00">com.fs.starfarer.api.campaign.econ.</text>
<text text-anchor="middle" x="736.5" y="-141" font-family="Helvetica,sans-Serif" font-size="10.00">EconomyAPI.EconomyUpdateListener</text>
</a>
</g>
</g>
<!-- Node15&#45;&gt;Node7 -->
<g id="edge16" class="edge">
<title>Node15&#45;&gt;Node7</title>
<path fill="none" stroke="#63b8ff" d="M839.19,-158.04C879.5,-165.22 924.77,-178.06 961,-201 1018.45,-237.38 1061.21,-309.56 1077.86,-340.89"/>
<polygon fill="#63b8ff" stroke="#63b8ff" points="839.9,-154.61 829.46,-156.41 838.75,-161.51 839.9,-154.61"/>
</g>
<!-- Node16 -->
<g id="node16" class="node">
<title>Node16</title>
<g id="a_node16"><a xlink:title=" ">
<polygon fill="white" stroke="#666666" points="838.5,-116 634.5,-116 634.5,-86 838.5,-86 838.5,-116"/>
<text text-anchor="start" x="642.5" y="-104" font-family="Helvetica,sans-Serif" font-size="10.00">com.fs.starfarer.api.impl.campaign.intel.raid.</text>
<text text-anchor="middle" x="736.5" y="-93" font-family="Helvetica,sans-Serif" font-size="10.00">RaidIntel.RaidDelegate</text>
</a>
</g>
</g>
<!-- Node16&#45;&gt;Node7 -->
<g id="edge17" class="edge">
<title>Node16&#45;&gt;Node7</title>
<path fill="none" stroke="#63b8ff" d="M850.03,-112.6C888.13,-120.87 929.07,-134.98 961,-159 1026.63,-208.38 1066.46,-303.32 1080.14,-340.51"/>
<polygon fill="#63b8ff" stroke="#63b8ff" points="850.83,-109.19 840.33,-110.62 849.43,-116.05 850.83,-109.19"/>
</g>
<!-- Node17 -->
<g id="node17" class="node">
<title>Node17</title>
<g id="a_node17"><a xlink:title=" ">
<polygon fill="white" stroke="#666666" points="760,-67.5 713,-67.5 713,-48.5 760,-48.5 760,-67.5"/>
<text text-anchor="middle" x="736.5" y="-55.5" font-family="Helvetica,sans-Serif" font-size="10.00">Logger</text>
</a>
</g>
</g>
<!-- Node17&#45;&gt;Node7 -->
<g id="edge18" class="edge">
<title>Node17&#45;&gt;Node7</title>
<path fill="none" stroke="#9a32cd" stroke-dasharray="5,2" d="M771.64,-55.7C819.13,-54.33 905.51,-58.68 961,-102 1042.49,-165.61 1074.14,-296.35 1082.82,-340.81"/>
<polygon fill="#9a32cd" stroke="#9a32cd" points="771.54,-52.2 761.69,-56.11 771.82,-59.2 771.54,-52.2"/>
<text text-anchor="middle" x="911.5" y="-105" font-family="Helvetica,sans-Serif" font-size="10.00"> log</text>
</g>
<!-- Node18 -->
<g id="node18" class="node">
<title>Node18</title>
<g id="a_node18"><a xlink:href="interfacecom_1_1fs_1_1starfarer_1_1api_1_1campaign_1_1StarSystemAPI.html" target="_top" xlink:title=" ">
<polygon fill="white" stroke="#666666" points="809.5,-684 663.5,-684 663.5,-654 809.5,-654 809.5,-684"/>
<text text-anchor="start" x="671.5" y="-672" font-family="Helvetica,sans-Serif" font-size="10.00">com.fs.starfarer.api.campaign.</text>
<text text-anchor="middle" x="736.5" y="-661" font-family="Helvetica,sans-Serif" font-size="10.00">StarSystemAPI</text>
</a>
</g>
</g>
<!-- Node18&#45;&gt;Node7 -->
<g id="edge19" class="edge">
<title>Node18&#45;&gt;Node7</title>
<path fill="none" stroke="#9a32cd" stroke-dasharray="5,2" d="M821.08,-664.87C879.72,-661.28 949.62,-655.33 961,-647 1055.86,-577.5 1079.12,-420.85 1084.21,-371.32"/>
<polygon fill="#9a32cd" stroke="#9a32cd" points="821.19,-661.35 811.41,-665.44 821.6,-668.34 821.19,-661.35"/>
<text text-anchor="middle" x="911.5" y="-686" font-family="Helvetica,sans-Serif" font-size="10.00"> forceTarget</text>
<text text-anchor="middle" x="911.5" y="-675" font-family="Helvetica,sans-Serif" font-size="10.00">system</text>
<text text-anchor="middle" x="911.5" y="-664" font-family="Helvetica,sans-Serif" font-size="10.00">target</text>
</g>
<!-- Node19 -->
<g id="node19" class="node">
<title>Node19</title>
<g id="a_node19"><a xlink:href="interfacecom_1_1fs_1_1starfarer_1_1api_1_1campaign_1_1LocationAPI.html" target="_top" xlink:title=" ">
<polygon fill="white" stroke="#666666" points="398,-684 252,-684 252,-654 398,-654 398,-684"/>
<text text-anchor="start" x="260" y="-672" font-family="Helvetica,sans-Serif" font-size="10.00">com.fs.starfarer.api.campaign.</text>
<text text-anchor="middle" x="325" y="-661" font-family="Helvetica,sans-Serif" font-size="10.00">LocationAPI</text>
</a>
</g>
</g>
<!-- Node19&#45;&gt;Node18 -->
<g id="edge20" class="edge">
<title>Node19&#45;&gt;Node18</title>
<path fill="none" stroke="#63b8ff" d="M409.48,-669C484.1,-669 592.3,-669 663.27,-669"/>
<polygon fill="#63b8ff" stroke="#63b8ff" points="409.78,-665.5 399.78,-669 409.78,-672.5 409.78,-665.5"/>
</g>
<!-- Node20&#45;&gt;Node7 -->
<g id="edge22" class="edge">
<title>Node20&#45;&gt;Node7</title>
<path fill="none" stroke="#9a32cd" stroke-dasharray="5,2" d="M622.64,-571.97C713.65,-583.3 858.66,-587.47 961,-523 1021.89,-484.64 1063.35,-405.01 1078.79,-371.45"/>
<polygon fill="#9a32cd" stroke="#9a32cd" points="623.14,-568.5 612.77,-570.68 622.23,-575.44 623.14,-568.5"/>
<text text-anchor="middle" x="736.5" y="-581" font-family="Helvetica,sans-Serif" font-size="10.00"> baseCommander</text>
</g>
<!-- Node21 -->
<g id="node21" class="node">
<title>Node21</title>
<g id="a_node21"><a xlink:title=" ">
<polygon fill="white" stroke="#666666" points="844,-441 629,-441 629,-411 844,-411 844,-441"/>
<text text-anchor="start" x="637" y="-429" font-family="Helvetica,sans-Serif" font-size="10.00">com.fs.starfarer.api.impl.campaign.intel.bases.</text>
<text text-anchor="middle" x="736.5" y="-418" font-family="Helvetica,sans-Serif" font-size="10.00">PirateBaseIntel.BaseBountyData</text>
</a>
</g>
</g>
<!-- Node21&#45;&gt;Node7 -->
<g id="edge25" class="edge">
<title>Node21&#45;&gt;Node7</title>
<path fill="none" stroke="#9a32cd" stroke-dasharray="5,2" d="M835.02,-408.45C874.23,-401.19 919.82,-392.5 961,-384 979.77,-380.13 1000.07,-375.67 1018.72,-371.48"/>
<polygon fill="#9a32cd" stroke="#9a32cd" points="834.56,-404.98 825.36,-410.23 835.83,-411.86 834.56,-404.98"/>
<text text-anchor="middle" x="911.5" y="-406" font-family="Helvetica,sans-Serif" font-size="10.00"> bountyData</text>
</g>
<!-- Node22&#45;&gt;Node21 -->
<g id="edge26" class="edge">
<title>Node22&#45;&gt;Node21</title>
<path fill="none" stroke="#9a32cd" stroke-dasharray="5,2" d="M409.48,-488.1C481.08,-474.46 583.6,-454.93 654.48,-441.43"/>
<polygon fill="#9a32cd" stroke="#9a32cd" points="408.92,-484.64 399.75,-489.95 410.23,-491.52 408.92,-484.64"/>
<text text-anchor="middle" x="536.5" y="-479" font-family="Helvetica,sans-Serif" font-size="10.00"> bountyFaction</text>
</g>
<!-- Node23 -->
<g id="node23" class="node">
<title>Node23</title>
<g id="a_node23"><a xlink:title=" ">
<polygon fill="white" stroke="#666666" points="844,-537 629,-537 629,-507 844,-507 844,-537"/>
<text text-anchor="start" x="637" y="-525" font-family="Helvetica,sans-Serif" font-size="10.00">com.fs.starfarer.api.impl.campaign.intel.bases.</text>
<text text-anchor="middle" x="736.5" y="-514" font-family="Helvetica,sans-Serif" font-size="10.00">PirateBaseIntel.PirateBaseTier</text>
</a>
</g>
</g>
<!-- Node23&#45;&gt;Node7 -->
<g id="edge28" class="edge">
<title>Node23&#45;&gt;Node7</title>
<path fill="none" stroke="#9a32cd" stroke-dasharray="5,2" d="M841.06,-503.93C880.22,-494.41 924.2,-480.35 961,-460 1005.61,-435.34 1049.38,-393.56 1071.19,-371.2"/>
<polygon fill="#9a32cd" stroke="#9a32cd" points="840.29,-500.52 831.35,-506.21 841.89,-507.33 840.29,-500.52"/>
<text text-anchor="middle" x="911.5" y="-511" font-family="Helvetica,sans-Serif" font-size="10.00"> matchedStationToTier</text>
<text text-anchor="middle" x="911.5" y="-500" font-family="Helvetica,sans-Serif" font-size="10.00">tier</text>
</g>
<!-- Node24 -->
<g id="node24" class="node">
<title>Node24</title>
<g id="a_node24"><a xlink:href="classcom_1_1fs_1_1starfarer_1_1api_1_1util_1_1IntervalUtil.html" target="_top" xlink:title=" ">
<polygon fill="white" stroke="#666666" points="794.5,-489 678.5,-489 678.5,-459 794.5,-459 794.5,-489"/>
<text text-anchor="start" x="686.5" y="-477" font-family="Helvetica,sans-Serif" font-size="10.00">com.fs.starfarer.api.util.</text>
<text text-anchor="middle" x="736.5" y="-466" font-family="Helvetica,sans-Serif" font-size="10.00">IntervalUtil</text>
</a>
</g>
</g>
<!-- Node24&#45;&gt;Node7 -->
<g id="edge29" class="edge">
<title>Node24&#45;&gt;Node7</title>
<path fill="none" stroke="#9a32cd" stroke-dasharray="5,2" d="M805.84,-459.08C818.55,-456.17 831.7,-453.07 844,-450 896.31,-436.96 910.63,-437.22 961,-418 995.74,-404.74 1033.74,-385 1058.5,-371.37"/>
<polygon fill="#9a32cd" stroke="#9a32cd" points="805.27,-455.62 796.29,-461.25 806.82,-462.45 805.27,-455.62"/>
<text text-anchor="middle" x="911.5" y="-448" font-family="Helvetica,sans-Serif" font-size="10.00"> monthlyInterval</text>
</g>
<!-- Node25&#45;&gt;Node7 -->
<g id="edge30" class="edge">
<title>Node25&#45;&gt;Node7</title>
<path fill="none" stroke="#9a32cd" stroke-dasharray="5,2" d="M821.25,-8.24C866.95,-8.9 922,-17.31 961,-48 1058.46,-124.68 1080.03,-289.8 1084.44,-340.73"/>
<polygon fill="#9a32cd" stroke="#9a32cd" points="821.36,-4.74 811.36,-8.23 821.36,-11.74 821.36,-4.74"/>
<text text-anchor="middle" x="911.5" y="-51" font-family="Helvetica,sans-Serif" font-size="10.00"> addedListenerTo</text>
</g>
<!-- Node26 -->
<g id="node26" class="node">
<title>Node26</title>
<g id="a_node26"><a xlink:href="interfacecom_1_1fs_1_1starfarer_1_1api_1_1campaign_1_1FleetOrStubAPI.html" target="_top" xlink:title=" ">
<polygon fill="white" stroke="#666666" points="398,-30 252,-30 252,0 398,0 398,-30"/>
<text text-anchor="start" x="260" y="-18" font-family="Helvetica,sans-Serif" font-size="10.00">com.fs.starfarer.api.campaign.</text>
<text text-anchor="middle" x="325" y="-7" font-family="Helvetica,sans-Serif" font-size="10.00">FleetOrStubAPI</text>
</a>
</g>
</g>
<!-- Node26&#45;&gt;Node25 -->
<g id="edge32" class="edge">
<title>Node26&#45;&gt;Node25</title>
<path fill="none" stroke="#63b8ff" d="M409.48,-15C484.1,-15 592.3,-15 663.27,-15"/>
<polygon fill="#63b8ff" stroke="#63b8ff" points="409.78,-11.5 399.78,-15 409.78,-18.5 409.78,-11.5"/>
</g>
<!-- Node27 -->
<g id="node27" class="node">
<title>Node27</title>
<g id="a_node27"><a xlink:title=" ">
<polygon fill="white" stroke="#666666" points="829.5,-393 643.5,-393 643.5,-363 829.5,-363 829.5,-393"/>
<text text-anchor="start" x="651.5" y="-381" font-family="Helvetica,sans-Serif" font-size="10.00">com.fs.starfarer.api.impl.campaign.intel.</text>
<text text-anchor="middle" x="736.5" y="-370" font-family="Helvetica,sans-Serif" font-size="10.00">PersonBountyIntel.BountyResult</text>
</a>
</g>
</g>
<!-- Node27&#45;&gt;Node7 -->
<g id="edge33" class="edge">
<title>Node27&#45;&gt;Node7</title>
<path fill="none" stroke="#9a32cd" stroke-dasharray="5,2" d="M841.28,-371.44C884.59,-368.7 934.88,-365.52 978.53,-362.76"/>
<polygon fill="#9a32cd" stroke="#9a32cd" points="841.11,-367.94 831.35,-372.07 841.56,-374.93 841.11,-367.94"/>
<text text-anchor="middle" x="911.5" y="-372" font-family="Helvetica,sans-Serif" font-size="10.00"> result</text>
</g>
<!-- Node28 -->
<g id="node28" class="node">
<title>Node28</title>
<g id="a_node28"><a xlink:title=" ">
<polygon fill="white" stroke="#666666" points="418,-469 232,-469 232,-439 418,-439 418,-469"/>
<text text-anchor="start" x="240" y="-457" font-family="Helvetica,sans-Serif" font-size="10.00">com.fs.starfarer.api.impl.campaign.intel.</text>
<text text-anchor="middle" x="325" y="-446" font-family="Helvetica,sans-Serif" font-size="10.00">PersonBountyIntel.BountyResultType</text>
</a>
</g>
</g>
<!-- Node28&#45;&gt;Node27 -->
<g id="edge34" class="edge">
<title>Node28&#45;&gt;Node27</title>
<path fill="none" stroke="#9a32cd" stroke-dasharray="5,2" d="M429.63,-439.65C483.91,-431.45 551.34,-420.17 611,-407 619.11,-405.21 620.95,-404.02 629,-402 640.49,-399.11 652.71,-396.2 664.63,-393.46"/>
<polygon fill="#9a32cd" stroke="#9a32cd" points="429.12,-436.19 419.75,-441.13 430.16,-443.11 429.12,-436.19"/>
<text text-anchor="middle" x="536.5" y="-437" font-family="Helvetica,sans-Serif" font-size="10.00"> type</text>
</g>
<!-- Node29 -->
<g id="node29" class="node">
<title>Node29</title>
<g id="a_node29"><a xlink:title=" ">
<polygon fill="white" stroke="#666666" points="430,-420.5 220,-420.5 220,-379.5 430,-379.5 430,-420.5"/>
<text text-anchor="start" x="228" y="-408.5" font-family="Helvetica,sans-Serif" font-size="10.00">com.fs.starfarer.api.campaign.</text>
<text text-anchor="start" x="228" y="-397.5" font-family="Helvetica,sans-Serif" font-size="10.00">ReputationActionResponsePlugin.Reputation</text>
<text text-anchor="middle" x="325" y="-386.5" font-family="Helvetica,sans-Serif" font-size="10.00">AdjustmentResult</text>
</a>
</g>
</g>
<!-- Node29&#45;&gt;Node27 -->
<g id="edge35" class="edge">
<title>Node29&#45;&gt;Node27</title>
<path fill="none" stroke="#9a32cd" stroke-dasharray="5,2" d="M441.72,-393.78C505.47,-390.36 583.53,-386.16 643.16,-382.96"/>
<polygon fill="#9a32cd" stroke="#9a32cd" points="441.7,-390.28 431.91,-394.31 442.08,-397.27 441.7,-390.28"/>
<text text-anchor="middle" x="536.5" y="-395" font-family="Helvetica,sans-Serif" font-size="10.00"> rep</text>
</g>
</g>
</svg>
        <g id="navigator" transform="translate(0 0)" fill="#404254">
                <rect fill="#f2f5e9" fill-opacity="0.5" stroke="#606060" stroke-width=".5" x="0" y="0" width="60" height="60"/>
                <use id="zoomplus" xlink:href="#zoomPlus" x="17" y="9" onmousedown="handleZoom(evt,'in')"/>
                <use id="zoomminus" xlink:href="#zoomMin" x="42" y="9" onmousedown="handleZoom(evt,'out')"/>
                <use id="reset" xlink:href="#resetDef" x="30" y="36" onmousedown="handleReset()"/>
                <g id="arrowUp" xlink:href="#dirArrow" transform="translate(30 24)" onmousedown="handlePan(0,-1)">
                  <use xlink:href="#rim" fill="#404040">
                        <set attributeName="fill" to="#808080" begin="arrowUp.mouseover" end="arrowUp.mouseout"/>
                  </use>
                  <path fill="none" stroke="white" stroke-width="1.5" d="M0,-3.0v7 M-2.5,-0.5L0,-3.0L2.5,-0.5"/>
                </g>
                <g id="arrowRight" xlink:href="#dirArrow" transform="rotate(90) translate(36 -43)" onmousedown="handlePan(1,0)">
                  <use xlink:href="#rim" fill="#404040">
                        <set attributeName="fill" to="#808080" begin="arrowRight.mouseover" end="arrowRight.mouseout"/>
                  </use>
                  <path fill="none" stroke="white" stroke-width="1.5" d="M0,-3.0v7 M-2.5,-0.5L0,-3.0L2.5,-0.5"/>
                </g>
                <g id="arrowDown" xlink:href="#dirArrow" transform="rotate(180) translate(-30 -48)" onmousedown="handlePan(0,1)">
                  <use xlink:href="#rim" fill="#404040">
                        <set attributeName="fill" to="#808080" begin="arrowDown.mouseover" end="arrowDown.mouseout"/>
                  </use>
                  <path fill="none" stroke="white" stroke-width="1.5" d="M0,-3.0v7 M-2.5,-0.5L0,-3.0L2.5,-0.5"/>
                </g>
                <g id="arrowLeft" xlink:href="#dirArrow" transform="rotate(270) translate(-36 17)" onmousedown="handlePan(-1,0)">
                  <use xlink:href="#rim" fill="#404040">
                        <set attributeName="fill" to="#808080" begin="arrowLeft.mouseover" end="arrowLeft.mouseout"/>
                  </use>
                  <path fill="none" stroke="white" stroke-width="1.5" d="M0,-3.0v7 M-2.5,-0.5L0,-3.0L2.5,-0.5"/>
                </g>
        </g>
        <svg viewBox="0 0 15 15" width="100%" height="30px" preserveAspectRatio="xMaxYMin meet">
         <g id="arrow_out" transform="scale(0.3 0.3)">
          <a xlink:href="classcom_1_1fs_1_1starfarer_1_1api_1_1impl_1_1campaign_1_1intel_1_1bases_1_1PirateActivity__coll__graph_org.svg" target="_base">
           <rect id="button" ry="5" rx="5" y="6" x="6" height="38" width="38"
                fill="#f2f5e9" fill-opacity="0.5" stroke="#606060" stroke-width="1.0"/>
           <path id="arrow"
             d="M 11.500037,31.436501 C 11.940474,20.09759 22.043105,11.32322 32.158766,21.979434 L 37.068811,17.246167 C 37.068811,17.246167 37.088388,32 37.088388,32 L 22.160133,31.978069 C 22.160133,31.978069 26.997745,27.140456 26.997745,27.140456 C 18.528582,18.264221 13.291696,25.230495 11.500037,31.436501 z"
             style="fill:#404040;"/>
          </a>
         </g>
        </svg>
</svg>
