<?xml version="1.0" encoding="UTF-8" standalone="no"?>
<!DOCTYPE svg PUBLIC "-//W3C//DTD SVG 1.1//EN"
 "http://www.w3.org/Graphics/SVG/1.1/DTD/svg11.dtd">
<!-- Generated by graphviz version 7.0.5 (20221223.1930)
 -->
<!-- Title: com.fs.starfarer.api.impl.campaign.rulecmd.salvage.RedPlanet Pages: 1 -->
<svg width="1146pt" height="591pt"
 viewBox="0.00 0.00 1146.00 591.00" xmlns="http://www.w3.org/2000/svg" xmlns:xlink="http://www.w3.org/1999/xlink">
<g id="graph0" class="graph" transform="scale(1 1) rotate(0) translate(4 587)">
<title>com.fs.starfarer.api.impl.campaign.rulecmd.salvage.RedPlanet</title>
<!-- Node1 -->
<g id="node1" class="node">
<title>Node1</title>
<g id="a_node1"><a xlink:title=" ">
<polygon fill="#999999" stroke="#666666" points="1138,-293 899,-293 899,-263 1138,-263 1138,-293"/>
<text text-anchor="start" x="907" y="-281" font-family="Helvetica,sans-Serif" font-size="10.00">com.fs.starfarer.api.impl.campaign.rulecmd.salvage.</text>
<text text-anchor="middle" x="1018.5" y="-270" font-family="Helvetica,sans-Serif" font-size="10.00">RedPlanet</text>
</a>
</g>
</g>
<!-- Node2 -->
<g id="node2" class="node">
<title>Node2</title>
<g id="a_node2"><a xlink:href="classcom_1_1fs_1_1starfarer_1_1api_1_1impl_1_1campaign_1_1rulecmd_1_1BaseCommandPlugin.html" target="_top" xlink:title=" ">
<polygon fill="white" stroke="#bfbfbf" points="795,-580 592,-580 592,-550 795,-550 795,-580"/>
<text text-anchor="start" x="600" y="-568" font-family="Helvetica,sans-Serif" font-size="10.00">com.fs.starfarer.api.impl.campaign.rulecmd.</text>
<text text-anchor="middle" x="693.5" y="-557" font-family="Helvetica,sans-Serif" font-size="10.00">BaseCommandPlugin</text>
</a>
</g>
</g>
<!-- Node2&#45;&gt;Node1 -->
<g id="edge1" class="edge">
<title>Node2&#45;&gt;Node1</title>
<path fill="none" stroke="#63b8ff" d="M806.35,-553.57C832.72,-546.84 859.41,-536.34 881,-520 961.38,-459.16 1001.5,-336.36 1013.51,-293.32"/>
<polygon fill="#63b8ff" stroke="#63b8ff" points="805.89,-550.08 796.96,-555.79 807.5,-556.89 805.89,-550.08"/>
</g>
<!-- Node3 -->
<g id="node3" class="node">
<title>Node3</title>
<g id="a_node3"><a xlink:href="interfacecom_1_1fs_1_1starfarer_1_1api_1_1campaign_1_1rules_1_1CommandPlugin.html" target="_top" xlink:title=" ">
<polygon fill="white" stroke="#bfbfbf" points="375,-583 206,-583 206,-553 375,-553 375,-583"/>
<text text-anchor="start" x="214" y="-571" font-family="Helvetica,sans-Serif" font-size="10.00">com.fs.starfarer.api.campaign.rules.</text>
<text text-anchor="middle" x="290.5" y="-560" font-family="Helvetica,sans-Serif" font-size="10.00">CommandPlugin</text>
</a>
</g>
</g>
<!-- Node3&#45;&gt;Node2 -->
<g id="edge2" class="edge">
<title>Node3&#45;&gt;Node2</title>
<path fill="none" stroke="#63b8ff" d="M386.39,-567.29C448.17,-566.83 528.69,-566.23 591.63,-565.75"/>
<polygon fill="#63b8ff" stroke="#63b8ff" points="386.56,-563.79 376.59,-567.36 386.61,-570.79 386.56,-563.79"/>
</g>
<!-- Node4 -->
<g id="node4" class="node">
<title>Node4</title>
<g id="a_node4"><a xlink:href="interfacecom_1_1fs_1_1starfarer_1_1api_1_1campaign_1_1CampaignFleetAPI.html" target="_top" xlink:title=" ">
<polygon fill="white" stroke="#666666" points="766.5,-529 620.5,-529 620.5,-499 766.5,-499 766.5,-529"/>
<text text-anchor="start" x="628.5" y="-517" font-family="Helvetica,sans-Serif" font-size="10.00">com.fs.starfarer.api.campaign.</text>
<text text-anchor="middle" x="693.5" y="-506" font-family="Helvetica,sans-Serif" font-size="10.00">CampaignFleetAPI</text>
</a>
</g>
</g>
<!-- Node4&#45;&gt;Node1 -->
<g id="edge3" class="edge">
<title>Node4&#45;&gt;Node1</title>
<path fill="none" stroke="#9a32cd" stroke-dasharray="5,2" d="M778.07,-514.89C812.26,-511.77 850.79,-503.47 881,-484 955.1,-436.23 998.19,-332.41 1012.31,-293.31"/>
<polygon fill="#9a32cd" stroke="#9a32cd" points="777.87,-511.4 768.17,-515.65 778.41,-518.38 777.87,-511.4"/>
<text text-anchor="middle" x="853" y="-508" font-family="Helvetica,sans-Serif" font-size="10.00"> playerFleet</text>
</g>
<!-- Node5 -->
<g id="node5" class="node">
<title>Node5</title>
<g id="a_node5"><a xlink:href="interfacecom_1_1fs_1_1starfarer_1_1api_1_1campaign_1_1SectorEntityToken.html" target="_top" xlink:title=" ">
<polygon fill="white" stroke="#666666" points="363.5,-459 217.5,-459 217.5,-429 363.5,-429 363.5,-459"/>
<text text-anchor="start" x="225.5" y="-447" font-family="Helvetica,sans-Serif" font-size="10.00">com.fs.starfarer.api.campaign.</text>
<text text-anchor="middle" x="290.5" y="-436" font-family="Helvetica,sans-Serif" font-size="10.00">SectorEntityToken</text>
</a>
</g>
</g>
<!-- Node5&#45;&gt;Node1 -->
<g id="edge7" class="edge">
<title>Node5&#45;&gt;Node1</title>
<path fill="none" stroke="#9a32cd" stroke-dasharray="5,2" d="M375.31,-457.19C478.85,-470.47 659.4,-483.74 807,-443 897.64,-417.98 976.6,-329.3 1005.64,-293.33"/>
<polygon fill="#9a32cd" stroke="#9a32cd" points="375.86,-453.73 365.49,-455.9 374.95,-460.67 375.86,-453.73"/>
<text text-anchor="middle" x="693.5" y="-473" font-family="Helvetica,sans-Serif" font-size="10.00"> entity</text>
</g>
<!-- Node5&#45;&gt;Node4 -->
<g id="edge4" class="edge">
<title>Node5&#45;&gt;Node4</title>
<path fill="none" stroke="#63b8ff" d="M337.35,-463.36C354.53,-469.91 374.4,-476.65 393,-481 469.41,-498.86 559.1,-507.12 620.28,-510.9"/>
<polygon fill="#63b8ff" stroke="#63b8ff" points="339.03,-460.26 328.44,-459.88 336.48,-466.78 339.03,-460.26"/>
</g>
<!-- Node8 -->
<g id="node8" class="node">
<title>Node8</title>
<g id="a_node8"><a xlink:href="interfacecom_1_1fs_1_1starfarer_1_1api_1_1campaign_1_1PlanetAPI.html" target="_top" xlink:title=" ">
<polygon fill="white" stroke="#bfbfbf" points="766.5,-434 620.5,-434 620.5,-404 766.5,-404 766.5,-434"/>
<text text-anchor="start" x="628.5" y="-422" font-family="Helvetica,sans-Serif" font-size="10.00">com.fs.starfarer.api.campaign.</text>
<text text-anchor="middle" x="693.5" y="-411" font-family="Helvetica,sans-Serif" font-size="10.00">PlanetAPI</text>
</a>
</g>
</g>
<!-- Node5&#45;&gt;Node8 -->
<g id="edge9" class="edge">
<title>Node5&#45;&gt;Node8</title>
<path fill="none" stroke="#63b8ff" d="M375,-438.79C447.47,-434.28 551.3,-427.8 620.25,-423.5"/>
<polygon fill="#63b8ff" stroke="#63b8ff" points="374.93,-435.29 365.16,-439.41 375.36,-442.28 374.93,-435.29"/>
</g>
<!-- Node6 -->
<g id="node6" class="node">
<title>Node6</title>
<g id="a_node6"><a xlink:href="interfacecom_1_1fs_1_1starfarer_1_1api_1_1campaign_1_1rules_1_1HasMemory.html" target="_top" xlink:title=" ">
<polygon fill="white" stroke="#bfbfbf" points="169,-368 0,-368 0,-338 169,-338 169,-368"/>
<text text-anchor="start" x="8" y="-356" font-family="Helvetica,sans-Serif" font-size="10.00">com.fs.starfarer.api.campaign.rules.</text>
<text text-anchor="middle" x="84.5" y="-345" font-family="Helvetica,sans-Serif" font-size="10.00">HasMemory</text>
</a>
</g>
</g>
<!-- Node6&#45;&gt;Node5 -->
<g id="edge5" class="edge">
<title>Node6&#45;&gt;Node5</title>
<path fill="none" stroke="#63b8ff" d="M130.27,-372.97C167.84,-389.73 220.73,-413.32 255.07,-428.64"/>
<polygon fill="#63b8ff" stroke="#63b8ff" points="132.05,-369.93 121.49,-369.05 129.19,-376.32 132.05,-369.93"/>
</g>
<!-- Node9 -->
<g id="node9" class="node">
<title>Node9</title>
<g id="a_node9"><a xlink:href="interfacecom_1_1fs_1_1starfarer_1_1api_1_1campaign_1_1FactionAPI.html" target="_top" xlink:title=" ">
<polygon fill="white" stroke="#666666" points="550.5,-368 404.5,-368 404.5,-338 550.5,-338 550.5,-368"/>
<text text-anchor="start" x="412.5" y="-356" font-family="Helvetica,sans-Serif" font-size="10.00">com.fs.starfarer.api.campaign.</text>
<text text-anchor="middle" x="477.5" y="-345" font-family="Helvetica,sans-Serif" font-size="10.00">FactionAPI</text>
</a>
</g>
</g>
<!-- Node6&#45;&gt;Node9 -->
<g id="edge11" class="edge">
<title>Node6&#45;&gt;Node9</title>
<path fill="none" stroke="#63b8ff" d="M180.67,-353C249.58,-353 341.31,-353 404.25,-353"/>
<polygon fill="#63b8ff" stroke="#63b8ff" points="180.89,-349.5 170.89,-353 180.89,-356.5 180.89,-349.5"/>
</g>
<!-- Node14 -->
<g id="node14" class="node">
<title>Node14</title>
<g id="a_node14"><a xlink:href="interfacecom_1_1fs_1_1starfarer_1_1api_1_1campaign_1_1econ_1_1MarketAPI.html" target="_top" xlink:title=" ">
<polygon fill="white" stroke="#bfbfbf" points="562,-179 393,-179 393,-149 562,-149 562,-179"/>
<text text-anchor="start" x="401" y="-167" font-family="Helvetica,sans-Serif" font-size="10.00">com.fs.starfarer.api.campaign.econ.</text>
<text text-anchor="middle" x="477.5" y="-156" font-family="Helvetica,sans-Serif" font-size="10.00">MarketAPI</text>
</a>
</g>
</g>
<!-- Node6&#45;&gt;Node14 -->
<g id="edge17" class="edge">
<title>Node6&#45;&gt;Node14</title>
<path fill="none" stroke="#63b8ff" d="M127.55,-332.68C206.29,-294.61 374.36,-213.37 444.61,-179.42"/>
<polygon fill="#63b8ff" stroke="#63b8ff" points="126.34,-329.37 118.86,-336.87 129.39,-335.67 126.34,-329.37"/>
</g>
<!-- Node7 -->
<g id="node7" class="node">
<title>Node7</title>
<g id="a_node7"><a xlink:href="interfacecom_1_1fs_1_1starfarer_1_1api_1_1campaign_1_1FleetOrStubAPI.html" target="_top" xlink:title=" ">
<polygon fill="white" stroke="#bfbfbf" points="363.5,-535 217.5,-535 217.5,-505 363.5,-505 363.5,-535"/>
<text text-anchor="start" x="225.5" y="-523" font-family="Helvetica,sans-Serif" font-size="10.00">com.fs.starfarer.api.campaign.</text>
<text text-anchor="middle" x="290.5" y="-512" font-family="Helvetica,sans-Serif" font-size="10.00">FleetOrStubAPI</text>
</a>
</g>
</g>
<!-- Node7&#45;&gt;Node4 -->
<g id="edge6" class="edge">
<title>Node7&#45;&gt;Node4</title>
<path fill="none" stroke="#63b8ff" d="M375,-518.75C447.47,-517.67 551.3,-516.11 620.25,-515.08"/>
<polygon fill="#63b8ff" stroke="#63b8ff" points="375.11,-515.25 365.17,-518.9 375.22,-522.25 375.11,-515.25"/>
</g>
<!-- Node8&#45;&gt;Node1 -->
<g id="edge8" class="edge">
<title>Node8&#45;&gt;Node1</title>
<path fill="none" stroke="#9a32cd" stroke-dasharray="5,2" d="M767.72,-400.68C780.83,-397.24 794.34,-393.6 807,-390 840.13,-380.59 849.83,-381.66 881,-367 925.29,-346.17 972.06,-312.85 997.73,-293.43"/>
<polygon fill="#9a32cd" stroke="#9a32cd" points="767.1,-397.23 758.3,-403.13 768.86,-404 767.1,-397.23"/>
<text text-anchor="middle" x="853" y="-388" font-family="Helvetica,sans-Serif" font-size="10.00"> planet</text>
</g>
<!-- Node9&#45;&gt;Node1 -->
<g id="edge10" class="edge">
<title>Node9&#45;&gt;Node1</title>
<path fill="none" stroke="#9a32cd" stroke-dasharray="5,2" d="M562.2,-349.41C628.82,-345.76 724.27,-338.77 807,-326 859.23,-317.94 917.79,-304.2 959.85,-293.48"/>
<polygon fill="#9a32cd" stroke="#9a32cd" points="562.25,-345.9 552.45,-349.93 562.62,-352.89 562.25,-345.9"/>
<text text-anchor="middle" x="693.5" y="-373" font-family="Helvetica,sans-Serif" font-size="10.00"> entityFaction</text>
<text text-anchor="middle" x="693.5" y="-362" font-family="Helvetica,sans-Serif" font-size="10.00">faction</text>
<text text-anchor="middle" x="693.5" y="-351" font-family="Helvetica,sans-Serif" font-size="10.00">playerFaction</text>
</g>
<!-- Node10 -->
<g id="node10" class="node">
<title>Node10</title>
<g id="a_node10"><a xlink:href="interfacecom_1_1fs_1_1starfarer_1_1api_1_1campaign_1_1TextPanelAPI.html" target="_top" xlink:title=" ">
<polygon fill="white" stroke="#bfbfbf" points="766.5,-317 620.5,-317 620.5,-287 766.5,-287 766.5,-317"/>
<text text-anchor="start" x="628.5" y="-305" font-family="Helvetica,sans-Serif" font-size="10.00">com.fs.starfarer.api.campaign.</text>
<text text-anchor="middle" x="693.5" y="-294" font-family="Helvetica,sans-Serif" font-size="10.00">TextPanelAPI</text>
</a>
</g>
</g>
<!-- Node10&#45;&gt;Node1 -->
<g id="edge12" class="edge">
<title>Node10&#45;&gt;Node1</title>
<path fill="none" stroke="#9a32cd" stroke-dasharray="5,2" d="M778.15,-295.78C814.87,-293.06 858.65,-289.8 898.66,-286.83"/>
<polygon fill="#9a32cd" stroke="#9a32cd" points="778.21,-292.27 768.5,-296.5 778.73,-299.25 778.21,-292.27"/>
<text text-anchor="middle" x="853" y="-295" font-family="Helvetica,sans-Serif" font-size="10.00"> text</text>
</g>
<!-- Node11 -->
<g id="node11" class="node">
<title>Node11</title>
<g id="a_node11"><a xlink:href="interfacecom_1_1fs_1_1starfarer_1_1api_1_1campaign_1_1OptionPanelAPI.html" target="_top" xlink:title=" ">
<polygon fill="white" stroke="#bfbfbf" points="766.5,-269 620.5,-269 620.5,-239 766.5,-239 766.5,-269"/>
<text text-anchor="start" x="628.5" y="-257" font-family="Helvetica,sans-Serif" font-size="10.00">com.fs.starfarer.api.campaign.</text>
<text text-anchor="middle" x="693.5" y="-246" font-family="Helvetica,sans-Serif" font-size="10.00">OptionPanelAPI</text>
</a>
</g>
</g>
<!-- Node11&#45;&gt;Node1 -->
<g id="edge13" class="edge">
<title>Node11&#45;&gt;Node1</title>
<path fill="none" stroke="#9a32cd" stroke-dasharray="5,2" d="M778.15,-260.22C814.87,-262.94 858.65,-266.2 898.66,-269.17"/>
<polygon fill="#9a32cd" stroke="#9a32cd" points="778.73,-256.75 768.5,-259.5 778.21,-263.73 778.73,-256.75"/>
<text text-anchor="middle" x="853" y="-270" font-family="Helvetica,sans-Serif" font-size="10.00"> options</text>
</g>
<!-- Node12 -->
<g id="node12" class="node">
<title>Node12</title>
<g id="a_node12"><a xlink:href="interfacecom_1_1fs_1_1starfarer_1_1api_1_1campaign_1_1CargoAPI.html" target="_top" xlink:title=" ">
<polygon fill="white" stroke="#666666" points="766.5,-221 620.5,-221 620.5,-191 766.5,-191 766.5,-221"/>
<text text-anchor="start" x="628.5" y="-209" font-family="Helvetica,sans-Serif" font-size="10.00">com.fs.starfarer.api.campaign.</text>
<text text-anchor="middle" x="693.5" y="-198" font-family="Helvetica,sans-Serif" font-size="10.00">CargoAPI</text>
</a>
</g>
</g>
<!-- Node12&#45;&gt;Node1 -->
<g id="edge14" class="edge">
<title>Node12&#45;&gt;Node1</title>
<path fill="none" stroke="#9a32cd" stroke-dasharray="5,2" d="M777.89,-223.65C787.7,-225.77 797.58,-227.92 807,-230 855.13,-240.62 909.36,-253 950.72,-262.52"/>
<polygon fill="#9a32cd" stroke="#9a32cd" points="778.84,-220.28 768.33,-221.6 777.37,-227.12 778.84,-220.28"/>
<text text-anchor="middle" x="853" y="-248" font-family="Helvetica,sans-Serif" font-size="10.00"> playerCargo</text>
</g>
<!-- Node13 -->
<g id="node13" class="node">
<title>Node13</title>
<g id="a_node13"><a xlink:href="interfacecom_1_1fs_1_1starfarer_1_1api_1_1campaign_1_1rules_1_1MemoryAPI.html" target="_top" xlink:title=" ">
<polygon fill="white" stroke="#bfbfbf" points="778,-173 609,-173 609,-143 778,-143 778,-173"/>
<text text-anchor="start" x="617" y="-161" font-family="Helvetica,sans-Serif" font-size="10.00">com.fs.starfarer.api.campaign.rules.</text>
<text text-anchor="middle" x="693.5" y="-150" font-family="Helvetica,sans-Serif" font-size="10.00">MemoryAPI</text>
</a>
</g>
</g>
<!-- Node13&#45;&gt;Node1 -->
<g id="edge15" class="edge">
<title>Node13&#45;&gt;Node1</title>
<path fill="none" stroke="#9a32cd" stroke-dasharray="5,2" d="M788.02,-176.31C794.48,-178.08 800.87,-179.97 807,-182 874.51,-204.3 949.29,-241.65 989.02,-262.59"/>
<polygon fill="#9a32cd" stroke="#9a32cd" points="789.11,-172.97 778.55,-173.83 787.34,-179.75 789.11,-172.97"/>
<text text-anchor="middle" x="853" y="-212" font-family="Helvetica,sans-Serif" font-size="10.00"> memory</text>
</g>
<!-- Node14&#45;&gt;Node1 -->
<g id="edge16" class="edge">
<title>Node14&#45;&gt;Node1</title>
<path fill="none" stroke="#9a32cd" stroke-dasharray="5,2" d="M518.06,-143.9C536.4,-135.67 558.79,-127.12 580,-123 679.04,-103.75 711.15,-91.52 807,-123 892.8,-151.18 972.41,-229.21 1003.6,-262.56"/>
<polygon fill="#9a32cd" stroke="#9a32cd" points="516.75,-140.65 509.15,-148.03 519.69,-147 516.75,-140.65"/>
<text text-anchor="middle" x="693.5" y="-126" font-family="Helvetica,sans-Serif" font-size="10.00"> market</text>
</g>
<!-- Node15 -->
<g id="node15" class="node">
<title>Node15</title>
<g id="a_node15"><a xlink:href="interfacecom_1_1fs_1_1starfarer_1_1api_1_1campaign_1_1InteractionDialogAPI.html" target="_top" xlink:title=" ">
<polygon fill="white" stroke="#bfbfbf" points="766.5,-78 620.5,-78 620.5,-48 766.5,-48 766.5,-78"/>
<text text-anchor="start" x="628.5" y="-66" font-family="Helvetica,sans-Serif" font-size="10.00">com.fs.starfarer.api.campaign.</text>
<text text-anchor="middle" x="693.5" y="-55" font-family="Helvetica,sans-Serif" font-size="10.00">InteractionDialogAPI</text>
</a>
</g>
</g>
<!-- Node15&#45;&gt;Node1 -->
<g id="edge18" class="edge">
<title>Node15&#45;&gt;Node1</title>
<path fill="none" stroke="#9a32cd" stroke-dasharray="5,2" d="M778.01,-60.68C812.02,-63.16 850.43,-70.59 881,-89 951.39,-131.38 995.98,-225.39 1011.42,-262.5"/>
<polygon fill="#9a32cd" stroke="#9a32cd" points="778.36,-57.2 768.18,-60.11 777.96,-64.18 778.36,-57.2"/>
<text text-anchor="middle" x="853" y="-92" font-family="Helvetica,sans-Serif" font-size="10.00"> dialog</text>
</g>
<!-- Node16 -->
<g id="node16" class="node">
<title>Node16</title>
<g id="a_node16"><a xlink:title=" ">
<polygon fill="white" stroke="#bfbfbf" points="807,-30 580,-30 580,0 807,0 807,-30"/>
<text text-anchor="start" x="588" y="-18" font-family="Helvetica,sans-Serif" font-size="10.00">Map&lt; String, com.fs.starfarer.api.campaign.rules.</text>
<text text-anchor="middle" x="693.5" y="-7" font-family="Helvetica,sans-Serif" font-size="10.00">MemoryAPI &gt;</text>
</a>
</g>
</g>
<!-- Node16&#45;&gt;Node1 -->
<g id="edge19" class="edge">
<title>Node16&#45;&gt;Node1</title>
<path fill="none" stroke="#9a32cd" stroke-dasharray="5,2" d="M818.06,-26.02C840.37,-32 862.42,-40.88 881,-54 958.19,-108.51 999.93,-221.82 1012.97,-262.8"/>
<polygon fill="#9a32cd" stroke="#9a32cd" points="819.11,-22.67 808.56,-23.67 817.43,-29.47 819.11,-22.67"/>
<text text-anchor="middle" x="853" y="-57" font-family="Helvetica,sans-Serif" font-size="10.00"> memoryMap</text>
</g>
</g>
</svg>
