<?xml version="1.0" encoding="UTF-8" standalone="no"?>
<!DOCTYPE svg PUBLIC "-//W3C//DTD SVG 1.1//EN"
 "http://www.w3.org/Graphics/SVG/1.1/DTD/svg11.dtd">
<!-- Generated by graphviz version 12.2.0 (20241103.1931)
 -->
<!-- Title: com.fs.starfarer.api.impl.campaign.StandardRespawnDialogPluginImpl Pages: 1 -->
<svg width="794pt" height="296pt"
 viewBox="0.00 0.00 794.00 295.50" xmlns="http://www.w3.org/2000/svg" xmlns:xlink="http://www.w3.org/1999/xlink">
<g id="graph0" class="graph" transform="scale(1 1) rotate(0) translate(4 291.5)">
<title>com.fs.starfarer.api.impl.campaign.StandardRespawnDialogPluginImpl</title>
<!-- Node1 -->
<g id="Node000001" class="node">
<title>Node1</title>
<g id="a_Node000001"><a xlink:title=" ">
<polygon fill="#999999" stroke="#666666" points="786,-164.5 617.75,-164.5 617.75,-134 786,-134 786,-164.5"/>
<text text-anchor="start" x="625.75" y="-151" font-family="Helvetica,sans-Serif" font-size="10.00">com.fs.starfarer.api.impl.campaign.</text>
<text text-anchor="middle" x="701.88" y="-139.75" font-family="Helvetica,sans-Serif" font-size="10.00">StandardRespawnDialogPluginImpl</text>
</a>
</g>
</g>
<!-- Node2 -->
<g id="Node000002" class="node">
<title>Node2</title>
<g id="a_Node000002"><a xlink:href="interfacecom_1_1fs_1_1starfarer_1_1api_1_1campaign_1_1InteractionDialogPlugin.html" target="_top" xlink:title=" ">
<polygon fill="white" stroke="#666666" points="532.25,-287.5 387.25,-287.5 387.25,-257 532.25,-257 532.25,-287.5"/>
<text text-anchor="start" x="395.25" y="-274" font-family="Helvetica,sans-Serif" font-size="10.00">com.fs.starfarer.api.campaign.</text>
<text text-anchor="middle" x="459.75" y="-262.75" font-family="Helvetica,sans-Serif" font-size="10.00">InteractionDialogPlugin</text>
</a>
</g>
</g>
<!-- Node2&#45;&gt;Node1 -->
<g id="edge1_Node000001_Node000002" class="edge">
<title>Node2&#45;&gt;Node1</title>
<g id="a_edge1_Node000001_Node000002"><a xlink:title=" ">
<path fill="none" stroke="#63b8ff" d="M519.83,-252.46C524.07,-250.78 528.24,-249.03 532.25,-247.25 586.69,-223.01 645.98,-185.78 677.71,-164.88"/>
<polygon fill="#63b8ff" stroke="#63b8ff" points="518.75,-249.13 510.66,-255.97 521.25,-255.66 518.75,-249.13"/>
</a>
</g>
</g>
<!-- Node3 -->
<g id="Node000003" class="node">
<title>Node3</title>
<g id="a_Node000003"><a xlink:href="interfacecom_1_1fs_1_1starfarer_1_1api_1_1campaign_1_1InteractionDialogAPI.html" target="_top" xlink:title=" ">
<polygon fill="white" stroke="#666666" points="532.25,-238.5 387.25,-238.5 387.25,-208 532.25,-208 532.25,-238.5"/>
<text text-anchor="start" x="395.25" y="-225" font-family="Helvetica,sans-Serif" font-size="10.00">com.fs.starfarer.api.campaign.</text>
<text text-anchor="middle" x="459.75" y="-213.75" font-family="Helvetica,sans-Serif" font-size="10.00">InteractionDialogAPI</text>
</a>
</g>
</g>
<!-- Node3&#45;&gt;Node1 -->
<g id="edge2_Node000001_Node000003" class="edge">
<title>Node3&#45;&gt;Node1</title>
<g id="a_edge2_Node000001_Node000003"><a xlink:title=" ">
<path fill="none" stroke="#9a32cd" stroke-dasharray="5,2" d="M522.52,-204.22C562.08,-192.02 612.79,-176.39 650.02,-164.92"/>
<polygon fill="#9a32cd" stroke="#9a32cd" points="521.65,-200.82 513.12,-207.11 523.71,-207.51 521.65,-200.82"/>
</a>
</g>
<text text-anchor="middle" x="575" y="-196.8" font-family="Helvetica,sans-Serif" font-size="10.00" fill="grey"> dialog</text>
</g>
<!-- Node4 -->
<g id="Node000004" class="node">
<title>Node4</title>
<g id="a_Node000004"><a xlink:href="interfacecom_1_1fs_1_1starfarer_1_1api_1_1campaign_1_1TextPanelAPI.html" target="_top" xlink:title=" ">
<polygon fill="white" stroke="#666666" points="532.25,-189.5 387.25,-189.5 387.25,-159 532.25,-159 532.25,-189.5"/>
<text text-anchor="start" x="395.25" y="-176" font-family="Helvetica,sans-Serif" font-size="10.00">com.fs.starfarer.api.campaign.</text>
<text text-anchor="middle" x="459.75" y="-164.75" font-family="Helvetica,sans-Serif" font-size="10.00">TextPanelAPI</text>
</a>
</g>
</g>
<!-- Node4&#45;&gt;Node1 -->
<g id="edge3_Node000001_Node000004" class="edge">
<title>Node4&#45;&gt;Node1</title>
<g id="a_edge3_Node000001_Node000004"><a xlink:title=" ">
<path fill="none" stroke="#9a32cd" stroke-dasharray="5,2" d="M543.61,-165.62C567.43,-163.14 593.41,-160.44 617.28,-157.95"/>
<polygon fill="#9a32cd" stroke="#9a32cd" points="543.56,-162.11 533.98,-166.63 544.28,-169.07 543.56,-162.11"/>
</a>
</g>
<text text-anchor="middle" x="575" y="-166.47" font-family="Helvetica,sans-Serif" font-size="10.00" fill="grey"> textPanel</text>
</g>
<!-- Node5 -->
<g id="Node000005" class="node">
<title>Node5</title>
<g id="a_Node000005"><a xlink:href="interfacecom_1_1fs_1_1starfarer_1_1api_1_1campaign_1_1OptionPanelAPI.html" target="_top" xlink:title=" ">
<polygon fill="white" stroke="#666666" points="532.25,-140.5 387.25,-140.5 387.25,-110 532.25,-110 532.25,-140.5"/>
<text text-anchor="start" x="395.25" y="-127" font-family="Helvetica,sans-Serif" font-size="10.00">com.fs.starfarer.api.campaign.</text>
<text text-anchor="middle" x="459.75" y="-115.75" font-family="Helvetica,sans-Serif" font-size="10.00">OptionPanelAPI</text>
</a>
</g>
</g>
<!-- Node5&#45;&gt;Node1 -->
<g id="edge4_Node000001_Node000005" class="edge">
<title>Node5&#45;&gt;Node1</title>
<g id="a_edge4_Node000001_Node000005"><a xlink:title=" ">
<path fill="none" stroke="#9a32cd" stroke-dasharray="5,2" d="M543.61,-133.53C567.43,-135.91 593.41,-138.51 617.28,-140.89"/>
<polygon fill="#9a32cd" stroke="#9a32cd" points="544.27,-130.08 533.98,-132.57 543.58,-137.05 544.27,-130.08"/>
</a>
</g>
<text text-anchor="middle" x="575" y="-140.44" font-family="Helvetica,sans-Serif" font-size="10.00" fill="grey"> options</text>
</g>
<!-- Node6 -->
<g id="Node000006" class="node">
<title>Node6</title>
<g id="a_Node000006"><a xlink:href="interfacecom_1_1fs_1_1starfarer_1_1api_1_1campaign_1_1VisualPanelAPI.html" target="_top" xlink:title=" ">
<polygon fill="white" stroke="#666666" points="532.25,-91.5 387.25,-91.5 387.25,-61 532.25,-61 532.25,-91.5"/>
<text text-anchor="start" x="395.25" y="-78" font-family="Helvetica,sans-Serif" font-size="10.00">com.fs.starfarer.api.campaign.</text>
<text text-anchor="middle" x="459.75" y="-66.75" font-family="Helvetica,sans-Serif" font-size="10.00">VisualPanelAPI</text>
</a>
</g>
</g>
<!-- Node6&#45;&gt;Node1 -->
<g id="edge5_Node000001_Node000006" class="edge">
<title>Node6&#45;&gt;Node1</title>
<g id="a_edge5_Node000001_Node000006"><a xlink:title=" ">
<path fill="none" stroke="#9a32cd" stroke-dasharray="5,2" d="M523.04,-95.19C562.32,-107.13 612.43,-122.36 649.45,-133.62"/>
<polygon fill="#9a32cd" stroke="#9a32cd" points="524.3,-91.91 513.71,-92.35 522.26,-98.61 524.3,-91.91"/>
</a>
</g>
<text text-anchor="middle" x="575" y="-118.87" font-family="Helvetica,sans-Serif" font-size="10.00" fill="grey"> visual</text>
</g>
<!-- Node7 -->
<g id="Node000007" class="node">
<title>Node7</title>
<g id="a_Node000007"><a xlink:href="interfacecom_1_1fs_1_1starfarer_1_1api_1_1campaign_1_1CampaignFleetAPI.html" target="_top" xlink:title=" ">
<polygon fill="white" stroke="#666666" points="532.25,-42.5 387.25,-42.5 387.25,-12 532.25,-12 532.25,-42.5"/>
<text text-anchor="start" x="395.25" y="-29" font-family="Helvetica,sans-Serif" font-size="10.00">com.fs.starfarer.api.campaign.</text>
<text text-anchor="middle" x="459.75" y="-17.75" font-family="Helvetica,sans-Serif" font-size="10.00">CampaignFleetAPI</text>
</a>
</g>
</g>
<!-- Node7&#45;&gt;Node1 -->
<g id="edge6_Node000001_Node000007" class="edge">
<title>Node7&#45;&gt;Node1</title>
<g id="a_edge6_Node000001_Node000007"><a xlink:title=" ">
<path fill="none" stroke="#9a32cd" stroke-dasharray="5,2" d="M519.62,-46.97C523.92,-48.67 528.17,-50.44 532.25,-52.25 586.43,-76.28 645.57,-112.95 677.41,-133.64"/>
<polygon fill="#9a32cd" stroke="#9a32cd" points="520.86,-43.7 510.27,-43.41 518.37,-50.24 520.86,-43.7"/>
</a>
</g>
<text text-anchor="middle" x="575" y="-87.82" font-family="Helvetica,sans-Serif" font-size="10.00" fill="grey"> playerFleet</text>
</g>
<!-- Node8 -->
<g id="Node000008" class="node">
<title>Node8</title>
<g id="a_Node000008"><a xlink:href="interfacecom_1_1fs_1_1starfarer_1_1api_1_1campaign_1_1SectorEntityToken.html" target="_top" xlink:title=" ">
<polygon fill="white" stroke="#666666" points="350.25,-79.5 205.25,-79.5 205.25,-49 350.25,-49 350.25,-79.5"/>
<text text-anchor="start" x="213.25" y="-66" font-family="Helvetica,sans-Serif" font-size="10.00">com.fs.starfarer.api.campaign.</text>
<text text-anchor="middle" x="277.75" y="-54.75" font-family="Helvetica,sans-Serif" font-size="10.00">SectorEntityToken</text>
</a>
</g>
</g>
<!-- Node8&#45;&gt;Node7 -->
<g id="edge7_Node000007_Node000008" class="edge">
<title>Node8&#45;&gt;Node7</title>
<g id="a_edge7_Node000007_Node000008"><a xlink:title=" ">
<path fill="none" stroke="#63b8ff" d="M361.69,-47.2C370.12,-45.47 378.64,-43.72 386.95,-42.01"/>
<polygon fill="#63b8ff" stroke="#63b8ff" points="361.24,-43.72 352.15,-49.16 362.65,-50.58 361.24,-43.72"/>
</a>
</g>
</g>
<!-- Node9 -->
<g id="Node000009" class="node">
<title>Node9</title>
<g id="a_Node000009"><a xlink:href="interfacecom_1_1fs_1_1starfarer_1_1api_1_1campaign_1_1rules_1_1HasMemory.html" target="_top" xlink:title=" ">
<polygon fill="white" stroke="#666666" points="168.25,-79.5 0,-79.5 0,-49 168.25,-49 168.25,-79.5"/>
<text text-anchor="start" x="8" y="-66" font-family="Helvetica,sans-Serif" font-size="10.00">com.fs.starfarer.api.campaign.rules.</text>
<text text-anchor="middle" x="84.12" y="-54.75" font-family="Helvetica,sans-Serif" font-size="10.00">HasMemory</text>
</a>
</g>
</g>
<!-- Node9&#45;&gt;Node8 -->
<g id="edge8_Node000008_Node000009" class="edge">
<title>Node9&#45;&gt;Node8</title>
<g id="a_edge8_Node000008_Node000009"><a xlink:title=" ">
<path fill="none" stroke="#63b8ff" d="M180.02,-64.25C188.4,-64.25 196.79,-64.25 204.94,-64.25"/>
<polygon fill="#63b8ff" stroke="#63b8ff" points="180.13,-60.75 170.13,-64.25 180.13,-67.75 180.13,-60.75"/>
</a>
</g>
</g>
<!-- Node10 -->
<g id="Node000010" class="node">
<title>Node10</title>
<g id="a_Node000010"><a xlink:href="interfacecom_1_1fs_1_1starfarer_1_1api_1_1campaign_1_1FleetOrStubAPI.html" target="_top" xlink:title=" ">
<polygon fill="white" stroke="#666666" points="350.25,-30.5 205.25,-30.5 205.25,0 350.25,0 350.25,-30.5"/>
<text text-anchor="start" x="213.25" y="-17" font-family="Helvetica,sans-Serif" font-size="10.00">com.fs.starfarer.api.campaign.</text>
<text text-anchor="middle" x="277.75" y="-5.75" font-family="Helvetica,sans-Serif" font-size="10.00">FleetOrStubAPI</text>
</a>
</g>
</g>
<!-- Node10&#45;&gt;Node7 -->
<g id="edge9_Node000007_Node000010" class="edge">
<title>Node10&#45;&gt;Node7</title>
<g id="a_edge9_Node000007_Node000010"><a xlink:title=" ">
<path fill="none" stroke="#63b8ff" d="M361.97,-20.8C370.31,-21.35 378.74,-21.92 386.95,-22.46"/>
<polygon fill="#63b8ff" stroke="#63b8ff" points="362.39,-17.32 352.18,-20.15 361.92,-24.3 362.39,-17.32"/>
</a>
</g>
</g>
</g>
</svg>
