<?xml version="1.0" encoding="UTF-8" standalone="no"?>
<!DOCTYPE svg PUBLIC "-//W3C//DTD SVG 1.1//EN"
 "http://www.w3.org/Graphics/SVG/1.1/DTD/svg11.dtd">
<!-- Generated by graphviz version 2.44.0 ()
 -->
<!-- Title: com.fs.starfarer.api.impl.campaign.graid.BlueprintGroundRaidObjectivePluginImpl Pages: 1 -->
<svg width="1013pt" height="176pt"
 viewBox="0.00 0.00 1013.00 176.00" xmlns="http://www.w3.org/2000/svg" xmlns:xlink="http://www.w3.org/1999/xlink">
<g id="graph0" class="graph" transform="scale(1 1) rotate(0) translate(4 172)">
<title>com.fs.starfarer.api.impl.campaign.graid.BlueprintGroundRaidObjectivePluginImpl</title>
<!-- Node1 -->
<g id="node1" class="node">
<title>Node1</title>
<g id="a_node1"><a xlink:title=" ">
<polygon fill="#bfbfbf" stroke="black" points="812,-37.5 812,-67.5 1005,-67.5 1005,-37.5 812,-37.5"/>
<text text-anchor="start" x="820" y="-55.5" font-family="Helvetica,sans-Serif" font-size="10.00">com.fs.starfarer.api.impl.campaign.graid.</text>
<text text-anchor="middle" x="908.5" y="-44.5" font-family="Helvetica,sans-Serif" font-size="10.00">BlueprintGroundRaidObjectivePluginImpl</text>
</a>
</g>
</g>
<!-- Node2 -->
<g id="node2" class="node">
<title>Node2</title>
<g id="a_node2"><a xlink:href="classcom_1_1fs_1_1starfarer_1_1api_1_1impl_1_1campaign_1_1graid_1_1BaseGroundRaidObjectivePluginImpl.html" target="_top" xlink:title=" ">
<polygon fill="none" stroke="black" points="558,-73.5 558,-103.5 747,-103.5 747,-73.5 558,-73.5"/>
<text text-anchor="start" x="566" y="-91.5" font-family="Helvetica,sans-Serif" font-size="10.00">com.fs.starfarer.api.impl.campaign.graid.</text>
<text text-anchor="middle" x="652.5" y="-80.5" font-family="Helvetica,sans-Serif" font-size="10.00">BaseGroundRaidObjectivePluginImpl</text>
</a>
</g>
</g>
<!-- Node2&#45;&gt;Node1 -->
<g id="edge1" class="edge">
<title>Node2&#45;&gt;Node1</title>
<path fill="none" stroke="midnightblue" d="M757.31,-73.79C775.37,-71.23 794.08,-68.58 811.9,-66.05"/>
<polygon fill="midnightblue" stroke="midnightblue" points="756.77,-70.33 747.36,-75.2 757.75,-77.26 756.77,-70.33"/>
</g>
<!-- Node3 -->
<g id="node3" class="node">
<title>Node3</title>
<g id="a_node3"><a xlink:href="interfacecom_1_1fs_1_1starfarer_1_1api_1_1impl_1_1campaign_1_1graid_1_1GroundRaidObjectivePlugin.html" target="_top" xlink:title=" ">
<polygon fill="none" stroke="black" points="206,-137.5 206,-167.5 395,-167.5 395,-137.5 206,-137.5"/>
<text text-anchor="start" x="214" y="-155.5" font-family="Helvetica,sans-Serif" font-size="10.00">com.fs.starfarer.api.impl.campaign.graid.</text>
<text text-anchor="middle" x="300.5" y="-144.5" font-family="Helvetica,sans-Serif" font-size="10.00">GroundRaidObjectivePlugin</text>
</a>
</g>
</g>
<!-- Node3&#45;&gt;Node2 -->
<g id="edge2" class="edge">
<title>Node3&#45;&gt;Node2</title>
<path fill="none" stroke="midnightblue" d="M405,-139.09C447.05,-133.07 496,-125.32 540,-116.5 558.39,-112.81 578.31,-108.06 596.16,-103.52"/>
<polygon fill="midnightblue" stroke="midnightblue" points="404.43,-135.64 395.02,-140.51 405.42,-142.57 404.43,-135.64"/>
</g>
<!-- Node4 -->
<g id="node4" class="node">
<title>Node4</title>
<g id="a_node4"><a xlink:title=" ">
<polygon fill="none" stroke="#bfbfbf" points="281,-99 281,-118 320,-118 320,-99 281,-99"/>
<text text-anchor="middle" x="300.5" y="-106" font-family="Helvetica,sans-Serif" font-size="10.00">Color</text>
</a>
</g>
</g>
<!-- Node4&#45;&gt;Node2 -->
<g id="edge3" class="edge">
<title>Node4&#45;&gt;Node2</title>
<path fill="none" stroke="#9a32cd" stroke-dasharray="5,2" d="M330.56,-106.84C379.84,-104.02 481.83,-98.2 557.68,-93.86"/>
<polygon fill="#9a32cd" stroke="#9a32cd" points="330.1,-103.36 320.32,-107.42 330.5,-110.35 330.1,-103.36"/>
<text text-anchor="middle" x="476.5" y="-104.5" font-family="Helvetica,sans-Serif" font-size="10.00"> assignedForcesColumnColor</text>
</g>
<!-- Node5 -->
<g id="node5" class="node">
<title>Node5</title>
<g id="a_node5"><a xlink:href="interfacecom_1_1fs_1_1starfarer_1_1api_1_1campaign_1_1econ_1_1MarketAPI.html" target="_top" xlink:title=" ">
<polygon fill="none" stroke="black" points="216,-49.5 216,-79.5 385,-79.5 385,-49.5 216,-49.5"/>
<text text-anchor="start" x="224" y="-67.5" font-family="Helvetica,sans-Serif" font-size="10.00">com.fs.starfarer.api.campaign.econ.</text>
<text text-anchor="middle" x="300.5" y="-56.5" font-family="Helvetica,sans-Serif" font-size="10.00">MarketAPI</text>
</a>
</g>
</g>
<!-- Node5&#45;&gt;Node2 -->
<g id="edge4" class="edge">
<title>Node5&#45;&gt;Node2</title>
<path fill="none" stroke="#9a32cd" stroke-dasharray="5,2" d="M395.23,-70.01C439.2,-72.69 492.3,-76.08 540,-79.5 545.81,-79.92 551.79,-80.36 557.82,-80.82"/>
<polygon fill="#9a32cd" stroke="#9a32cd" points="395.33,-66.51 385.13,-69.4 394.9,-73.5 395.33,-66.51"/>
<text text-anchor="middle" x="476.5" y="-82.5" font-family="Helvetica,sans-Serif" font-size="10.00"> market</text>
</g>
<!-- Node6 -->
<g id="node6" class="node">
<title>Node6</title>
<g id="a_node6"><a xlink:href="interfacecom_1_1fs_1_1starfarer_1_1api_1_1campaign_1_1rules_1_1HasMemory.html" target="_top" xlink:title=" ">
<polygon fill="none" stroke="black" points="0,-49.5 0,-79.5 169,-79.5 169,-49.5 0,-49.5"/>
<text text-anchor="start" x="8" y="-67.5" font-family="Helvetica,sans-Serif" font-size="10.00">com.fs.starfarer.api.campaign.rules.</text>
<text text-anchor="middle" x="84.5" y="-56.5" font-family="Helvetica,sans-Serif" font-size="10.00">HasMemory</text>
</a>
</g>
</g>
<!-- Node6&#45;&gt;Node5 -->
<g id="edge5" class="edge">
<title>Node6&#45;&gt;Node5</title>
<path fill="none" stroke="midnightblue" d="M179.32,-64.5C191.5,-64.5 203.9,-64.5 215.9,-64.5"/>
<polygon fill="midnightblue" stroke="midnightblue" points="179.16,-61 169.16,-64.5 179.16,-68 179.16,-61"/>
</g>
<!-- Node7 -->
<g id="node7" class="node">
<title>Node7</title>
<g id="a_node7"><a xlink:href="interfacecom_1_1fs_1_1starfarer_1_1api_1_1campaign_1_1econ_1_1Industry.html" target="_top" xlink:title=" ">
<polygon fill="none" stroke="black" points="216,-0.5 216,-30.5 385,-30.5 385,-0.5 216,-0.5"/>
<text text-anchor="start" x="224" y="-18.5" font-family="Helvetica,sans-Serif" font-size="10.00">com.fs.starfarer.api.campaign.econ.</text>
<text text-anchor="middle" x="300.5" y="-7.5" font-family="Helvetica,sans-Serif" font-size="10.00">Industry</text>
</a>
</g>
</g>
<!-- Node7&#45;&gt;Node2 -->
<g id="edge6" class="edge">
<title>Node7&#45;&gt;Node2</title>
<path fill="none" stroke="#9a32cd" stroke-dasharray="5,2" d="M395.12,-25.65C439.61,-31.87 493.18,-41.42 540,-55.5 548.38,-58.02 549.75,-60.58 558,-63.5 568.14,-67.08 579.05,-70.44 589.72,-73.45"/>
<polygon fill="#9a32cd" stroke="#9a32cd" points="395.57,-22.17 385.18,-24.29 394.62,-29.11 395.57,-22.17"/>
<text text-anchor="middle" x="476.5" y="-58.5" font-family="Helvetica,sans-Serif" font-size="10.00"> source</text>
</g>
<!-- Node8 -->
<g id="node8" class="node">
<title>Node8</title>
<g id="a_node8"><a xlink:href="interfacecom_1_1fs_1_1starfarer_1_1api_1_1campaign_1_1CargoAPI.html" target="_top" xlink:title=" ">
<polygon fill="none" stroke="black" points="579.5,-24.5 579.5,-54.5 725.5,-54.5 725.5,-24.5 579.5,-24.5"/>
<text text-anchor="start" x="587.5" y="-42.5" font-family="Helvetica,sans-Serif" font-size="10.00">com.fs.starfarer.api.campaign.</text>
<text text-anchor="middle" x="652.5" y="-31.5" font-family="Helvetica,sans-Serif" font-size="10.00">CargoAPI</text>
</a>
</g>
</g>
<!-- Node8&#45;&gt;Node1 -->
<g id="edge7" class="edge">
<title>Node8&#45;&gt;Node1</title>
<path fill="none" stroke="#9a32cd" stroke-dasharray="5,2" d="M735.85,-43.71C760.13,-44.96 786.91,-46.33 811.95,-47.61"/>
<polygon fill="#9a32cd" stroke="#9a32cd" points="735.77,-40.21 725.61,-43.19 735.41,-47.2 735.77,-40.21"/>
<text text-anchor="middle" x="779.5" y="-49.5" font-family="Helvetica,sans-Serif" font-size="10.00"> looted</text>
</g>
</g>
</svg>
