<?xml version="1.0" encoding="UTF-8" standalone="no"?>
<!DOCTYPE svg PUBLIC "-//W3C//DTD SVG 1.1//EN"
 "http://www.w3.org/Graphics/SVG/1.1/DTD/svg11.dtd">
<!-- Generated by graphviz version 2.44.0 ()
 -->
<!-- Title: com.fs.starfarer.api.impl.campaign.intel.bar.events.historian.HistorianBarEvent Pages: 1 -->
<svg width="1192pt" height="476pt"
 viewBox="0.00 0.00 1192.00 475.50" xmlns="http://www.w3.org/2000/svg" xmlns:xlink="http://www.w3.org/1999/xlink">
<g id="graph0" class="graph" transform="scale(1 1) rotate(0) translate(4 471.5)">
<title>com.fs.starfarer.api.impl.campaign.intel.bar.events.historian.HistorianBarEvent</title>
<!-- Node1 -->
<g id="node1" class="node">
<title>Node1</title>
<g id="a_node1"><a xlink:title=" ">
<polygon fill="#bfbfbf" stroke="black" points="912,-112 912,-142 1184,-142 1184,-112 912,-112"/>
<text text-anchor="start" x="920" y="-130" font-family="Helvetica,sans-Serif" font-size="10.00">com.fs.starfarer.api.impl.campaign.intel.bar.events.historian.</text>
<text text-anchor="middle" x="1048" y="-119" font-family="Helvetica,sans-Serif" font-size="10.00">HistorianBarEvent</text>
</a>
</g>
</g>
<!-- Node2 -->
<g id="node2" class="node">
<title>Node2</title>
<g id="a_node2"><a xlink:href="classcom_1_1fs_1_1starfarer_1_1api_1_1impl_1_1campaign_1_1intel_1_1bar_1_1events_1_1BaseBarEvent.html" target="_top" xlink:title=" ">
<polygon fill="none" stroke="black" points="557,-290 557,-320 790,-320 790,-290 557,-290"/>
<text text-anchor="start" x="565" y="-308" font-family="Helvetica,sans-Serif" font-size="10.00">com.fs.starfarer.api.impl.campaign.intel.bar.events.</text>
<text text-anchor="middle" x="673.5" y="-297" font-family="Helvetica,sans-Serif" font-size="10.00">BaseBarEvent</text>
</a>
</g>
</g>
<!-- Node2&#45;&gt;Node1 -->
<g id="edge1" class="edge">
<title>Node2&#45;&gt;Node1</title>
<path fill="none" stroke="midnightblue" d="M727.86,-286.56C772.95,-270.33 838.82,-245.13 894,-218 941.98,-194.41 994.98,-161.14 1024.31,-142.05"/>
<polygon fill="midnightblue" stroke="midnightblue" points="726.52,-283.32 718.28,-289.98 728.87,-289.91 726.52,-283.32"/>
</g>
<!-- Node3 -->
<g id="node3" class="node">
<title>Node3</title>
<g id="a_node3"><a xlink:href="interfacecom_1_1fs_1_1starfarer_1_1api_1_1impl_1_1campaign_1_1intel_1_1bar_1_1PortsideBarEvent.html" target="_top" xlink:title=" ">
<polygon fill="none" stroke="black" points="218.5,-388 218.5,-418 420.5,-418 420.5,-388 218.5,-388"/>
<text text-anchor="start" x="226.5" y="-406" font-family="Helvetica,sans-Serif" font-size="10.00">com.fs.starfarer.api.impl.campaign.intel.bar.</text>
<text text-anchor="middle" x="319.5" y="-395" font-family="Helvetica,sans-Serif" font-size="10.00">PortsideBarEvent</text>
</a>
</g>
</g>
<!-- Node3&#45;&gt;Node2 -->
<g id="edge2" class="edge">
<title>Node3&#45;&gt;Node2</title>
<path fill="none" stroke="midnightblue" d="M405.23,-385.78C414.63,-383.61 424.04,-381.34 433,-379 501.64,-361.11 579.97,-336 627.82,-320.12"/>
<polygon fill="midnightblue" stroke="midnightblue" points="404.44,-382.37 395.46,-387.99 405.98,-389.19 404.44,-382.37"/>
</g>
<!-- Node4 -->
<g id="node4" class="node">
<title>Node4</title>
<g id="a_node4"><a xlink:title=" ">
<polygon fill="none" stroke="#bfbfbf" points="206,-339 206,-369 433,-369 433,-339 206,-339"/>
<text text-anchor="start" x="214" y="-357" font-family="Helvetica,sans-Serif" font-size="10.00">Map&lt; String, com.fs.starfarer.api.campaign.rules.</text>
<text text-anchor="middle" x="319.5" y="-346" font-family="Helvetica,sans-Serif" font-size="10.00">MemoryAPI &gt;</text>
</a>
</g>
</g>
<!-- Node4&#45;&gt;Node2 -->
<g id="edge3" class="edge">
<title>Node4&#45;&gt;Node2</title>
<path fill="none" stroke="#9a32cd" stroke-dasharray="5,2" d="M438.49,-337.57C479.29,-331.9 524.77,-325.57 564.7,-320.01"/>
<polygon fill="#9a32cd" stroke="#9a32cd" points="437.93,-334.12 428.5,-338.97 438.89,-341.05 437.93,-334.12"/>
<text text-anchor="middle" x="479" y="-338" font-family="Helvetica,sans-Serif" font-size="10.00"> memoryMap</text>
</g>
<!-- Node5 -->
<g id="node5" class="node">
<title>Node5</title>
<g id="a_node5"><a xlink:href="interfacecom_1_1fs_1_1starfarer_1_1api_1_1campaign_1_1OptionPanelAPI.html" target="_top" xlink:title=" ">
<polygon fill="none" stroke="black" points="246.5,-290 246.5,-320 392.5,-320 392.5,-290 246.5,-290"/>
<text text-anchor="start" x="254.5" y="-308" font-family="Helvetica,sans-Serif" font-size="10.00">com.fs.starfarer.api.campaign.</text>
<text text-anchor="middle" x="319.5" y="-297" font-family="Helvetica,sans-Serif" font-size="10.00">OptionPanelAPI</text>
</a>
</g>
</g>
<!-- Node5&#45;&gt;Node2 -->
<g id="edge4" class="edge">
<title>Node5&#45;&gt;Node2</title>
<path fill="none" stroke="#9a32cd" stroke-dasharray="5,2" d="M402.77,-305C448.64,-305 506.5,-305 556.86,-305"/>
<polygon fill="#9a32cd" stroke="#9a32cd" points="402.58,-301.5 392.58,-305 402.58,-308.5 402.58,-301.5"/>
<text text-anchor="middle" x="479" y="-308" font-family="Helvetica,sans-Serif" font-size="10.00"> options</text>
</g>
<!-- Node6 -->
<g id="node6" class="node">
<title>Node6</title>
<g id="a_node6"><a xlink:href="interfacecom_1_1fs_1_1starfarer_1_1api_1_1campaign_1_1TextPanelAPI.html" target="_top" xlink:title=" ">
<polygon fill="none" stroke="black" points="246.5,-241 246.5,-271 392.5,-271 392.5,-241 246.5,-241"/>
<text text-anchor="start" x="254.5" y="-259" font-family="Helvetica,sans-Serif" font-size="10.00">com.fs.starfarer.api.campaign.</text>
<text text-anchor="middle" x="319.5" y="-248" font-family="Helvetica,sans-Serif" font-size="10.00">TextPanelAPI</text>
</a>
</g>
</g>
<!-- Node6&#45;&gt;Node2 -->
<g id="edge5" class="edge">
<title>Node6&#45;&gt;Node2</title>
<path fill="none" stroke="#9a32cd" stroke-dasharray="5,2" d="M402.66,-267.44C450.85,-274.15 512.32,-282.7 564.41,-289.95"/>
<polygon fill="#9a32cd" stroke="#9a32cd" points="402.97,-263.95 392.58,-266.03 402,-270.88 402.97,-263.95"/>
<text text-anchor="middle" x="479" y="-283" font-family="Helvetica,sans-Serif" font-size="10.00"> text</text>
</g>
<!-- Node7 -->
<g id="node7" class="node">
<title>Node7</title>
<g id="a_node7"><a xlink:href="interfacecom_1_1fs_1_1starfarer_1_1api_1_1campaign_1_1econ_1_1MarketAPI.html" target="_top" xlink:title=" ">
<polygon fill="none" stroke="black" points="235,-191 235,-221 404,-221 404,-191 235,-191"/>
<text text-anchor="start" x="243" y="-209" font-family="Helvetica,sans-Serif" font-size="10.00">com.fs.starfarer.api.campaign.econ.</text>
<text text-anchor="middle" x="319.5" y="-198" font-family="Helvetica,sans-Serif" font-size="10.00">MarketAPI</text>
</a>
</g>
</g>
<!-- Node7&#45;&gt;Node1 -->
<g id="edge12" class="edge">
<title>Node7&#45;&gt;Node1</title>
<path fill="none" stroke="#9a32cd" stroke-dasharray="5,2" d="M414.5,-205.07C515.6,-203.02 680.87,-196.63 822,-177 880.26,-168.9 945.8,-153.61 991.05,-142.07"/>
<polygon fill="#9a32cd" stroke="#9a32cd" points="414.24,-201.57 404.31,-205.26 414.38,-208.57 414.24,-201.57"/>
<text text-anchor="middle" x="673.5" y="-204" font-family="Helvetica,sans-Serif" font-size="10.00"> market</text>
</g>
<!-- Node7&#45;&gt;Node2 -->
<g id="edge6" class="edge">
<title>Node7&#45;&gt;Node2</title>
<path fill="none" stroke="#9a32cd" stroke-dasharray="5,2" d="M399.07,-223.43C410.48,-226.17 422.07,-229.07 433,-232 500.82,-250.15 578.38,-274.45 626.41,-289.92"/>
<polygon fill="#9a32cd" stroke="#9a32cd" points="399.64,-219.97 389.1,-221.06 398.02,-226.78 399.64,-219.97"/>
<text text-anchor="middle" x="479" y="-255" font-family="Helvetica,sans-Serif" font-size="10.00"> shownAt</text>
</g>
<!-- Node8 -->
<g id="node8" class="node">
<title>Node8</title>
<g id="a_node8"><a xlink:href="interfacecom_1_1fs_1_1starfarer_1_1api_1_1campaign_1_1rules_1_1HasMemory.html" target="_top" xlink:title=" ">
<polygon fill="none" stroke="black" points="0,-191 0,-221 169,-221 169,-191 0,-191"/>
<text text-anchor="start" x="8" y="-209" font-family="Helvetica,sans-Serif" font-size="10.00">com.fs.starfarer.api.campaign.rules.</text>
<text text-anchor="middle" x="84.5" y="-198" font-family="Helvetica,sans-Serif" font-size="10.00">HasMemory</text>
</a>
</g>
</g>
<!-- Node8&#45;&gt;Node7 -->
<g id="edge7" class="edge">
<title>Node8&#45;&gt;Node7</title>
<path fill="none" stroke="midnightblue" d="M179.36,-206C197.66,-206 216.73,-206 234.67,-206"/>
<polygon fill="midnightblue" stroke="midnightblue" points="179.29,-202.5 169.29,-206 179.29,-209.5 179.29,-202.5"/>
</g>
<!-- Node9 -->
<g id="node9" class="node">
<title>Node9</title>
<g id="a_node9"><a xlink:href="interfacecom_1_1fs_1_1starfarer_1_1api_1_1campaign_1_1InteractionDialogAPI.html" target="_top" xlink:title=" ">
<polygon fill="none" stroke="black" points="246.5,-437 246.5,-467 392.5,-467 392.5,-437 246.5,-437"/>
<text text-anchor="start" x="254.5" y="-455" font-family="Helvetica,sans-Serif" font-size="10.00">com.fs.starfarer.api.campaign.</text>
<text text-anchor="middle" x="319.5" y="-444" font-family="Helvetica,sans-Serif" font-size="10.00">InteractionDialogAPI</text>
</a>
</g>
</g>
<!-- Node9&#45;&gt;Node2 -->
<g id="edge8" class="edge">
<title>Node9&#45;&gt;Node2</title>
<path fill="none" stroke="#9a32cd" stroke-dasharray="5,2" d="M402.61,-437.14C412.96,-434.49 423.31,-431.45 433,-428 515.78,-398.5 606.14,-345.99 648.3,-320.18"/>
<polygon fill="#9a32cd" stroke="#9a32cd" points="401.59,-433.78 392.71,-439.56 403.25,-440.58 401.59,-433.78"/>
<text text-anchor="middle" x="479" y="-423" font-family="Helvetica,sans-Serif" font-size="10.00"> dialog</text>
</g>
<!-- Node10 -->
<g id="node10" class="node">
<title>Node10</title>
<g id="a_node10"><a xlink:title=" ">
<polygon fill="none" stroke="#bfbfbf" points="525,-137 525,-167 822,-167 822,-137 525,-137"/>
<text text-anchor="start" x="533" y="-155" font-family="Helvetica,sans-Serif" font-size="10.00">List&lt; com.fs.starfarer.api.impl.campaign.intel.bar.events.historian.</text>
<text text-anchor="middle" x="673.5" y="-144" font-family="Helvetica,sans-Serif" font-size="10.00">HistorianData.HistorianOffer &gt;</text>
</a>
</g>
</g>
<!-- Node10&#45;&gt;Node1 -->
<g id="edge9" class="edge">
<title>Node10&#45;&gt;Node1</title>
<path fill="none" stroke="#9a32cd" stroke-dasharray="5,2" d="M832.35,-141.41C858.79,-139.63 886.02,-137.8 911.82,-136.07"/>
<polygon fill="#9a32cd" stroke="#9a32cd" points="832,-137.92 822.26,-142.08 832.47,-144.91 832,-137.92"/>
<text text-anchor="middle" x="867" y="-143" font-family="Helvetica,sans-Serif" font-size="10.00"> offers</text>
</g>
<!-- Node11 -->
<g id="node11" class="node">
<title>Node11</title>
<g id="a_node11"><a xlink:href="interfacecom_1_1fs_1_1starfarer_1_1api_1_1impl_1_1campaign_1_1intel_1_1bar_1_1events_1_1historiabc24949840d03ccd3f1da79a95c3699e.html" target="_top" xlink:title=" ">
<polygon fill="none" stroke="black" points="537.5,-88 537.5,-118 809.5,-118 809.5,-88 537.5,-88"/>
<text text-anchor="start" x="545.5" y="-106" font-family="Helvetica,sans-Serif" font-size="10.00">com.fs.starfarer.api.impl.campaign.intel.bar.events.historian.</text>
<text text-anchor="middle" x="673.5" y="-95" font-family="Helvetica,sans-Serif" font-size="10.00">HistorianBackstory.HistorianBackstoryInfo</text>
</a>
</g>
</g>
<!-- Node11&#45;&gt;Node1 -->
<g id="edge10" class="edge">
<title>Node11&#45;&gt;Node1</title>
<path fill="none" stroke="#9a32cd" stroke-dasharray="5,2" d="M819.73,-112.36C850.05,-114.31 881.89,-116.36 911.83,-118.29"/>
<polygon fill="#9a32cd" stroke="#9a32cd" points="819.71,-108.85 809.51,-111.7 819.26,-115.83 819.71,-108.85"/>
<text text-anchor="middle" x="867" y="-119" font-family="Helvetica,sans-Serif" font-size="10.00"> backstory</text>
</g>
<!-- Node12 -->
<g id="node12" class="node">
<title>Node12</title>
<g id="a_node12"><a xlink:href="interfacecom_1_1fs_1_1starfarer_1_1api_1_1impl_1_1campaign_1_1intel_1_1bar_1_1events_1_1historia737e60c4808d3e5d9412abd0120ed627.html" target="_top" xlink:title=" ">
<polygon fill="none" stroke="black" points="537.5,-39 537.5,-69 809.5,-69 809.5,-39 537.5,-39"/>
<text text-anchor="start" x="545.5" y="-57" font-family="Helvetica,sans-Serif" font-size="10.00">com.fs.starfarer.api.impl.campaign.intel.bar.events.historian.</text>
<text text-anchor="middle" x="673.5" y="-46" font-family="Helvetica,sans-Serif" font-size="10.00">HistorianData.HistorianOffer</text>
</a>
</g>
</g>
<!-- Node12&#45;&gt;Node1 -->
<g id="edge11" class="edge">
<title>Node12&#45;&gt;Node1</title>
<path fill="none" stroke="#9a32cd" stroke-dasharray="5,2" d="M776.62,-70.73C791.85,-73.39 807.35,-76.2 822,-79 875.35,-89.21 935.52,-102.12 980.2,-111.98"/>
<polygon fill="#9a32cd" stroke="#9a32cd" points="777.12,-67.27 766.67,-69 775.92,-74.16 777.12,-67.27"/>
<text text-anchor="middle" x="867" y="-95" font-family="Helvetica,sans-Serif" font-size="10.00"> currentOffer</text>
</g>
<!-- Node13 -->
<g id="node13" class="node">
<title>Node13</title>
<g id="a_node13"><a xlink:title=" ">
<polygon fill="none" stroke="#bfbfbf" points="647,-0.5 647,-19.5 700,-19.5 700,-0.5 647,-0.5"/>
<text text-anchor="middle" x="673.5" y="-7.5" font-family="Helvetica,sans-Serif" font-size="10.00">Random</text>
</a>
</g>
</g>
<!-- Node13&#45;&gt;Node1 -->
<g id="edge13" class="edge">
<title>Node13&#45;&gt;Node1</title>
<path fill="none" stroke="#9a32cd" stroke-dasharray="5,2" d="M710.31,-12.12C740.53,-14.55 784.69,-19.64 822,-30 895.78,-50.49 977.04,-90.12 1018.79,-111.85"/>
<polygon fill="#9a32cd" stroke="#9a32cd" points="710.48,-8.62 700.24,-11.37 709.95,-15.6 710.48,-8.62"/>
<text text-anchor="middle" x="867" y="-56" font-family="Helvetica,sans-Serif" font-size="10.00"> random</text>
</g>
</g>
</svg>
