<?xml version="1.0" encoding="UTF-8" standalone="no"?>
<!DOCTYPE svg PUBLIC "-//W3C//DTD SVG 1.1//EN"
 "http://www.w3.org/Graphics/SVG/1.1/DTD/svg11.dtd">
<!-- Generated by graphviz version 7.0.5 (20221223.1930)
 -->
<!-- Title: com.fs.starfarer.api.impl.campaign.terrain.BaseRingTerrain Pages: 1 -->
<!--zoomable 422 -->
<svg id="main" version="1.1" xmlns="http://www.w3.org/2000/svg" xmlns:xlink="http://www.w3.org/1999/xlink" xml:space="preserve" onload="init(evt)">
<style type="text/css"><![CDATA[
.edge:hover path { stroke: red; }
.edge:hover polygon { stroke: red; fill: red; }
]]></style>
<script type="text/javascript"><![CDATA[
var edges = document.getElementsByTagName('g');
if (edges && edges.length) {
  for (var i=0;i<edges.length;i++) {
    if (edges[i].id.substr(0,4)=='edge') {
      edges[i].setAttribute('class','edge');
    }
  }
}
]]></script>
        <defs>
                <circle id="rim" cx="0" cy="0" r="7"/>
                <circle id="rim2" cx="0" cy="0" r="3.5"/>
                <g id="zoomPlus">
                        <use xlink:href="#rim" fill="#404040">
                                <set attributeName="fill" to="#808080" begin="zoomplus.mouseover" end="zoomplus.mouseout"/>
                        </use>
                        <path d="M-4,0h8M0,-4v8" fill="none" stroke="white" stroke-width="1.5" pointer-events="none"/>
                </g>
                <g id="zoomMin">
                        <use xlink:href="#rim" fill="#404040">
                                <set attributeName="fill" to="#808080" begin="zoomminus.mouseover" end="zoomminus.mouseout"/>
                        </use>
                        <path d="M-4,0h8" fill="none" stroke="white" stroke-width="1.5" pointer-events="none"/>
                </g>
                <g id="dirArrow">
                        <path fill="none" stroke="white" stroke-width="1.5" d="M0,-3.0v7 M-2.5,-0.5L0,-3.0L2.5,-0.5"/>
                </g>
               <g id="resetDef">
                       <use xlink:href="#rim2" fill="#404040">
                               <set attributeName="fill" to="#808080" begin="reset.mouseover" end="reset.mouseout"/>
                       </use>
               </g>
        </defs>

<script type="text/javascript">
var viewWidth = 1078;
var viewHeight = 422;
var sectionId = 'dynsection-0';
</script>
<script xlink:href="svgpan.js"/>
<svg id="graph" class="graph">
<g id="viewport">
<title>com.fs.starfarer.api.impl.campaign.terrain.BaseRingTerrain</title>
<!-- Node1 -->
<g id="node1" class="node">
<title>Node1</title>
<g id="a_node1"><a xlink:title=" ">
<polygon fill="#999999" stroke="#666666" points="608,-246 413,-246 413,-216 608,-216 608,-246"/>
<text text-anchor="start" x="421" y="-234" font-family="Helvetica,sans-Serif" font-size="10.00">com.fs.starfarer.api.impl.campaign.terrain.</text>
<text text-anchor="middle" x="510.5" y="-223" font-family="Helvetica,sans-Serif" font-size="10.00">BaseRingTerrain</text>
</a>
</g>
</g>
<!-- Node4 -->
<g id="node4" class="node">
<title>Node4</title>
<g id="a_node4"><a xlink:href="classcom_1_1fs_1_1starfarer_1_1api_1_1impl_1_1campaign_1_1terrain_1_1AsteroidBeltTerrainPlugin.html" target="_top" xlink:title=" ">
<polygon fill="white" stroke="#666666" points="839,-414 644,-414 644,-384 839,-384 839,-414"/>
<text text-anchor="start" x="652" y="-402" font-family="Helvetica,sans-Serif" font-size="10.00">com.fs.starfarer.api.impl.campaign.terrain.</text>
<text text-anchor="middle" x="741.5" y="-391" font-family="Helvetica,sans-Serif" font-size="10.00">AsteroidBeltTerrainPlugin</text>
</a>
</g>
</g>
<!-- Node1&#45;&gt;Node4 -->
<g id="edge3" class="edge">
<title>Node1&#45;&gt;Node4</title>
<path fill="none" stroke="#63b8ff" d="M527.24,-255.57C549.32,-287.99 592.63,-344.53 644,-375 649.49,-378.26 655.42,-381.08 661.53,-383.51"/>
<polygon fill="#63b8ff" stroke="#63b8ff" points="530.38,-253.97 521.92,-247.59 524.55,-257.85 530.38,-253.97"/>
</g>
<!-- Node6 -->
<g id="node6" class="node">
<title>Node6</title>
<g id="a_node6"><a xlink:href="classcom_1_1fs_1_1starfarer_1_1api_1_1impl_1_1campaign_1_1terrain_1_1DebrisFieldTerrainPlugin.html" target="_top" xlink:title=" ">
<polygon fill="white" stroke="#666666" points="839,-366 644,-366 644,-336 839,-336 839,-366"/>
<text text-anchor="start" x="652" y="-354" font-family="Helvetica,sans-Serif" font-size="10.00">com.fs.starfarer.api.impl.campaign.terrain.</text>
<text text-anchor="middle" x="741.5" y="-343" font-family="Helvetica,sans-Serif" font-size="10.00">DebrisFieldTerrainPlugin</text>
</a>
</g>
</g>
<!-- Node1&#45;&gt;Node6 -->
<g id="edge5" class="edge">
<title>Node1&#45;&gt;Node6</title>
<path fill="none" stroke="#63b8ff" d="M536.74,-253.89C562.1,-275.72 603.17,-308.01 644,-327 650.97,-330.24 658.43,-333.08 666,-335.56"/>
<polygon fill="#63b8ff" stroke="#63b8ff" points="539.11,-251.31 529.28,-247.36 534.5,-256.58 539.11,-251.31"/>
</g>
<!-- Node7 -->
<g id="node7" class="node">
<title>Node7</title>
<g id="a_node7"><a xlink:href="classcom_1_1fs_1_1starfarer_1_1api_1_1impl_1_1campaign_1_1terrain_1_1MagneticFieldTerrainPlugin.html" target="_top" xlink:title=" ">
<polygon fill="white" stroke="#666666" points="839,-318 644,-318 644,-288 839,-288 839,-318"/>
<text text-anchor="start" x="652" y="-306" font-family="Helvetica,sans-Serif" font-size="10.00">com.fs.starfarer.api.impl.campaign.terrain.</text>
<text text-anchor="middle" x="741.5" y="-295" font-family="Helvetica,sans-Serif" font-size="10.00">MagneticFieldTerrainPlugin</text>
</a>
</g>
</g>
<!-- Node1&#45;&gt;Node7 -->
<g id="edge6" class="edge">
<title>Node1&#45;&gt;Node7</title>
<path fill="none" stroke="#63b8ff" d="M561.4,-250.47C586.06,-259.73 616.37,-270.59 644,-279 653.74,-281.97 664.12,-284.84 674.32,-287.51"/>
<polygon fill="#63b8ff" stroke="#63b8ff" points="562.86,-247.28 552.27,-247.01 560.38,-253.82 562.86,-247.28"/>
</g>
<!-- Node8 -->
<g id="node8" class="node">
<title>Node8</title>
<g id="a_node8"><a xlink:href="classcom_1_1fs_1_1starfarer_1_1api_1_1impl_1_1campaign_1_1terrain_1_1PulsarBeamTerrainPlugin.html" target="_top" xlink:title=" ">
<polygon fill="white" stroke="#666666" points="839,-270 644,-270 644,-240 839,-240 839,-270"/>
<text text-anchor="start" x="652" y="-258" font-family="Helvetica,sans-Serif" font-size="10.00">com.fs.starfarer.api.impl.campaign.terrain.</text>
<text text-anchor="middle" x="741.5" y="-247" font-family="Helvetica,sans-Serif" font-size="10.00">PulsarBeamTerrainPlugin</text>
</a>
</g>
</g>
<!-- Node1&#45;&gt;Node8 -->
<g id="edge7" class="edge">
<title>Node1&#45;&gt;Node8</title>
<path fill="none" stroke="#63b8ff" d="M619.61,-242.33C627.65,-243.17 635.73,-244.02 643.69,-244.85"/>
<polygon fill="#63b8ff" stroke="#63b8ff" points="620.1,-238.86 609.79,-241.3 619.37,-245.82 620.1,-238.86"/>
</g>
<!-- Node9 -->
<g id="node9" class="node">
<title>Node9</title>
<g id="a_node9"><a xlink:href="classcom_1_1fs_1_1starfarer_1_1api_1_1impl_1_1campaign_1_1terrain_1_1RadioChatterTerrainPlugin.html" target="_top" xlink:title=" ">
<polygon fill="white" stroke="#666666" points="839,-222 644,-222 644,-192 839,-192 839,-222"/>
<text text-anchor="start" x="652" y="-210" font-family="Helvetica,sans-Serif" font-size="10.00">com.fs.starfarer.api.impl.campaign.terrain.</text>
<text text-anchor="middle" x="741.5" y="-199" font-family="Helvetica,sans-Serif" font-size="10.00">RadioChatterTerrainPlugin</text>
</a>
</g>
</g>
<!-- Node1&#45;&gt;Node9 -->
<g id="edge8" class="edge">
<title>Node1&#45;&gt;Node9</title>
<path fill="none" stroke="#63b8ff" d="M619.61,-219.67C627.65,-218.83 635.73,-217.98 643.69,-217.15"/>
<polygon fill="#63b8ff" stroke="#63b8ff" points="619.37,-216.18 609.79,-220.7 620.1,-223.14 619.37,-216.18"/>
</g>
<!-- Node10 -->
<g id="node10" class="node">
<title>Node10</title>
<g id="a_node10"><a xlink:href="classcom_1_1fs_1_1starfarer_1_1api_1_1impl_1_1campaign_1_1terrain_1_1RingSystemTerrainPlugin.html" target="_top" xlink:title=" ">
<polygon fill="white" stroke="#666666" points="839,-174 644,-174 644,-144 839,-144 839,-174"/>
<text text-anchor="start" x="652" y="-162" font-family="Helvetica,sans-Serif" font-size="10.00">com.fs.starfarer.api.impl.campaign.terrain.</text>
<text text-anchor="middle" x="741.5" y="-151" font-family="Helvetica,sans-Serif" font-size="10.00">RingSystemTerrainPlugin</text>
</a>
</g>
</g>
<!-- Node1&#45;&gt;Node10 -->
<g id="edge9" class="edge">
<title>Node1&#45;&gt;Node10</title>
<path fill="none" stroke="#63b8ff" d="M561.4,-211.53C586.06,-202.27 616.37,-191.41 644,-183 653.74,-180.03 664.12,-177.16 674.32,-174.49"/>
<polygon fill="#63b8ff" stroke="#63b8ff" points="560.38,-208.18 552.27,-214.99 562.86,-214.72 560.38,-208.18"/>
</g>
<!-- Node11 -->
<g id="node11" class="node">
<title>Node11</title>
<g id="a_node11"><a xlink:href="classcom_1_1fs_1_1starfarer_1_1api_1_1impl_1_1campaign_1_1terrain_1_1SpatialAnomalyTerrainPlugin.html" target="_top" xlink:title=" ">
<polygon fill="white" stroke="#666666" points="839,-126 644,-126 644,-96 839,-96 839,-126"/>
<text text-anchor="start" x="652" y="-114" font-family="Helvetica,sans-Serif" font-size="10.00">com.fs.starfarer.api.impl.campaign.terrain.</text>
<text text-anchor="middle" x="741.5" y="-103" font-family="Helvetica,sans-Serif" font-size="10.00">SpatialAnomalyTerrainPlugin</text>
</a>
</g>
</g>
<!-- Node1&#45;&gt;Node11 -->
<g id="edge10" class="edge">
<title>Node1&#45;&gt;Node11</title>
<path fill="none" stroke="#63b8ff" d="M536.74,-208.11C562.1,-186.28 603.17,-153.99 644,-135 650.97,-131.76 658.43,-128.92 666,-126.44"/>
<polygon fill="#63b8ff" stroke="#63b8ff" points="534.5,-205.42 529.28,-214.64 539.11,-210.69 534.5,-205.42"/>
</g>
<!-- Node12 -->
<g id="node12" class="node">
<title>Node12</title>
<g id="a_node12"><a xlink:href="classcom_1_1fs_1_1starfarer_1_1api_1_1impl_1_1campaign_1_1terrain_1_1StarCoronaTerrainPlugin.html" target="_top" xlink:title=" ">
<polygon fill="white" stroke="#666666" points="839,-78 644,-78 644,-48 839,-48 839,-78"/>
<text text-anchor="start" x="652" y="-66" font-family="Helvetica,sans-Serif" font-size="10.00">com.fs.starfarer.api.impl.campaign.terrain.</text>
<text text-anchor="middle" x="741.5" y="-55" font-family="Helvetica,sans-Serif" font-size="10.00">StarCoronaTerrainPlugin</text>
</a>
</g>
</g>
<!-- Node1&#45;&gt;Node12 -->
<g id="edge11" class="edge">
<title>Node1&#45;&gt;Node12</title>
<path fill="none" stroke="#63b8ff" d="M527.24,-206.43C549.32,-174.01 592.63,-117.47 644,-87 649.49,-83.74 655.42,-80.92 661.53,-78.49"/>
<polygon fill="#63b8ff" stroke="#63b8ff" points="524.55,-204.15 521.92,-214.41 530.38,-208.03 524.55,-204.15"/>
</g>
<!-- Node2 -->
<g id="node2" class="node">
<title>Node2</title>
<g id="a_node2"><a xlink:href="classcom_1_1fs_1_1starfarer_1_1api_1_1impl_1_1campaign_1_1terrain_1_1BaseTerrain.html" target="_top" xlink:title=" ">
<polygon fill="white" stroke="#666666" points="377,-246 182,-246 182,-216 377,-216 377,-246"/>
<text text-anchor="start" x="190" y="-234" font-family="Helvetica,sans-Serif" font-size="10.00">com.fs.starfarer.api.impl.campaign.terrain.</text>
<text text-anchor="middle" x="279.5" y="-223" font-family="Helvetica,sans-Serif" font-size="10.00">BaseTerrain</text>
</a>
</g>
</g>
<!-- Node2&#45;&gt;Node1 -->
<g id="edge1" class="edge">
<title>Node2&#45;&gt;Node1</title>
<path fill="none" stroke="#63b8ff" d="M388.61,-231C396.65,-231 404.73,-231 412.69,-231"/>
<polygon fill="#63b8ff" stroke="#63b8ff" points="388.8,-227.5 378.8,-231 388.8,-234.5 388.8,-227.5"/>
</g>
<!-- Node3 -->
<g id="node3" class="node">
<title>Node3</title>
<g id="a_node3"><a xlink:href="interfacecom_1_1fs_1_1starfarer_1_1api_1_1campaign_1_1CampaignTerrainPlugin.html" target="_top" xlink:title=" ">
<polygon fill="white" stroke="#666666" points="146,-246 0,-246 0,-216 146,-216 146,-246"/>
<text text-anchor="start" x="8" y="-234" font-family="Helvetica,sans-Serif" font-size="10.00">com.fs.starfarer.api.campaign.</text>
<text text-anchor="middle" x="73" y="-223" font-family="Helvetica,sans-Serif" font-size="10.00">CampaignTerrainPlugin</text>
</a>
</g>
</g>
<!-- Node3&#45;&gt;Node2 -->
<g id="edge2" class="edge">
<title>Node3&#45;&gt;Node2</title>
<path fill="none" stroke="#63b8ff" d="M157.85,-231C165.77,-231 173.84,-231 181.86,-231"/>
<polygon fill="#63b8ff" stroke="#63b8ff" points="157.9,-227.5 147.9,-231 157.9,-234.5 157.9,-227.5"/>
</g>
<!-- Node5 -->
<g id="node5" class="node">
<title>Node5</title>
<g id="a_node5"><a xlink:href="classcom_1_1fs_1_1starfarer_1_1api_1_1impl_1_1campaign_1_1terrain_1_1AsteroidFieldTerrainPlugin.html" target="_top" xlink:title=" ">
<polygon fill="white" stroke="#666666" points="1070,-414 875,-414 875,-384 1070,-384 1070,-414"/>
<text text-anchor="start" x="883" y="-402" font-family="Helvetica,sans-Serif" font-size="10.00">com.fs.starfarer.api.impl.campaign.terrain.</text>
<text text-anchor="middle" x="972.5" y="-391" font-family="Helvetica,sans-Serif" font-size="10.00">AsteroidFieldTerrainPlugin</text>
</a>
</g>
</g>
<!-- Node4&#45;&gt;Node5 -->
<g id="edge4" class="edge">
<title>Node4&#45;&gt;Node5</title>
<path fill="none" stroke="#63b8ff" d="M850.61,-399C858.65,-399 866.73,-399 874.69,-399"/>
<polygon fill="#63b8ff" stroke="#63b8ff" points="850.8,-395.5 840.8,-399 850.8,-402.5 850.8,-395.5"/>
</g>
<!-- Node13 -->
<g id="node13" class="node">
<title>Node13</title>
<g id="a_node13"><a xlink:href="classcom_1_1fs_1_1starfarer_1_1api_1_1impl_1_1campaign_1_1terrain_1_1EventHorizonPlugin.html" target="_top" xlink:title=" ">
<polygon fill="white" stroke="#666666" points="1070,-126 875,-126 875,-96 1070,-96 1070,-126"/>
<text text-anchor="start" x="883" y="-114" font-family="Helvetica,sans-Serif" font-size="10.00">com.fs.starfarer.api.impl.campaign.terrain.</text>
<text text-anchor="middle" x="972.5" y="-103" font-family="Helvetica,sans-Serif" font-size="10.00">EventHorizonPlugin</text>
</a>
</g>
</g>
<!-- Node12&#45;&gt;Node13 -->
<g id="edge12" class="edge">
<title>Node12&#45;&gt;Node13</title>
<path fill="none" stroke="#63b8ff" d="M827.43,-80.8C850.58,-85.65 875.46,-90.87 897.92,-95.58"/>
<polygon fill="#63b8ff" stroke="#63b8ff" points="828.2,-77.39 817.7,-78.76 826.77,-84.24 828.2,-77.39"/>
</g>
<!-- Node14 -->
<g id="node14" class="node">
<title>Node14</title>
<g id="a_node14"><a xlink:href="classcom_1_1fs_1_1starfarer_1_1api_1_1impl_1_1campaign_1_1terrain_1_1StarCoronaAkaMainyuTerrainPlugin.html" target="_top" xlink:title=" ">
<polygon fill="white" stroke="#666666" points="1070,-78 875,-78 875,-48 1070,-48 1070,-78"/>
<text text-anchor="start" x="883" y="-66" font-family="Helvetica,sans-Serif" font-size="10.00">com.fs.starfarer.api.impl.campaign.terrain.</text>
<text text-anchor="middle" x="972.5" y="-55" font-family="Helvetica,sans-Serif" font-size="10.00">StarCoronaAkaMainyuTerrainPlugin</text>
</a>
</g>
</g>
<!-- Node12&#45;&gt;Node14 -->
<g id="edge13" class="edge">
<title>Node12&#45;&gt;Node14</title>
<path fill="none" stroke="#63b8ff" d="M850.61,-63C858.65,-63 866.73,-63 874.69,-63"/>
<polygon fill="#63b8ff" stroke="#63b8ff" points="850.8,-59.5 840.8,-63 850.8,-66.5 850.8,-59.5"/>
</g>
<!-- Node15 -->
<g id="node15" class="node">
<title>Node15</title>
<g id="a_node15"><a xlink:href="classcom_1_1fs_1_1starfarer_1_1api_1_1impl_1_1campaign_1_1terrain_1_1StarCoronaJetTerrainPlugin.html" target="_top" xlink:title=" ">
<polygon fill="white" stroke="#666666" points="1070,-30 875,-30 875,0 1070,0 1070,-30"/>
<text text-anchor="start" x="883" y="-18" font-family="Helvetica,sans-Serif" font-size="10.00">com.fs.starfarer.api.impl.campaign.terrain.</text>
<text text-anchor="middle" x="972.5" y="-7" font-family="Helvetica,sans-Serif" font-size="10.00">StarCoronaJetTerrainPlugin</text>
</a>
</g>
</g>
<!-- Node12&#45;&gt;Node15 -->
<g id="edge14" class="edge">
<title>Node12&#45;&gt;Node15</title>
<path fill="none" stroke="#63b8ff" d="M827.43,-45.2C850.58,-40.35 875.46,-35.13 897.92,-30.42"/>
<polygon fill="#63b8ff" stroke="#63b8ff" points="826.77,-41.76 817.7,-47.24 828.2,-48.61 826.77,-41.76"/>
</g>
</g>
</svg>
        <g id="navigator" transform="translate(0 0)" fill="#404254">
                <rect fill="#f2f5e9" fill-opacity="0.5" stroke="#606060" stroke-width=".5" x="0" y="0" width="60" height="60"/>
                <use id="zoomplus" xlink:href="#zoomPlus" x="17" y="9" onmousedown="handleZoom(evt,'in')"/>
                <use id="zoomminus" xlink:href="#zoomMin" x="42" y="9" onmousedown="handleZoom(evt,'out')"/>
                <use id="reset" xlink:href="#resetDef" x="30" y="36" onmousedown="handleReset()"/>
                <g id="arrowUp" xlink:href="#dirArrow" transform="translate(30 24)" onmousedown="handlePan(0,-1)">
                  <use xlink:href="#rim" fill="#404040">
                        <set attributeName="fill" to="#808080" begin="arrowUp.mouseover" end="arrowUp.mouseout"/>
                  </use>
                  <path fill="none" stroke="white" stroke-width="1.5" d="M0,-3.0v7 M-2.5,-0.5L0,-3.0L2.5,-0.5"/>
                </g>
                <g id="arrowRight" xlink:href="#dirArrow" transform="rotate(90) translate(36 -43)" onmousedown="handlePan(1,0)">
                  <use xlink:href="#rim" fill="#404040">
                        <set attributeName="fill" to="#808080" begin="arrowRight.mouseover" end="arrowRight.mouseout"/>
                  </use>
                  <path fill="none" stroke="white" stroke-width="1.5" d="M0,-3.0v7 M-2.5,-0.5L0,-3.0L2.5,-0.5"/>
                </g>
                <g id="arrowDown" xlink:href="#dirArrow" transform="rotate(180) translate(-30 -48)" onmousedown="handlePan(0,1)">
                  <use xlink:href="#rim" fill="#404040">
                        <set attributeName="fill" to="#808080" begin="arrowDown.mouseover" end="arrowDown.mouseout"/>
                  </use>
                  <path fill="none" stroke="white" stroke-width="1.5" d="M0,-3.0v7 M-2.5,-0.5L0,-3.0L2.5,-0.5"/>
                </g>
                <g id="arrowLeft" xlink:href="#dirArrow" transform="rotate(270) translate(-36 17)" onmousedown="handlePan(-1,0)">
                  <use xlink:href="#rim" fill="#404040">
                        <set attributeName="fill" to="#808080" begin="arrowLeft.mouseover" end="arrowLeft.mouseout"/>
                  </use>
                  <path fill="none" stroke="white" stroke-width="1.5" d="M0,-3.0v7 M-2.5,-0.5L0,-3.0L2.5,-0.5"/>
                </g>
        </g>
        <svg viewBox="0 0 15 15" width="100%" height="30px" preserveAspectRatio="xMaxYMin meet">
         <g id="arrow_out" transform="scale(0.3 0.3)">
          <a xlink:href="classcom_1_1fs_1_1starfarer_1_1api_1_1impl_1_1campaign_1_1terrain_1_1BaseRingTerrain__inherit__graph_org.svg" target="_base">
           <rect id="button" ry="5" rx="5" y="6" x="6" height="38" width="38"
                fill="#f2f5e9" fill-opacity="0.5" stroke="#606060" stroke-width="1.0"/>
           <path id="arrow"
             d="M 11.500037,31.436501 C 11.940474,20.09759 22.043105,11.32322 32.158766,21.979434 L 37.068811,17.246167 C 37.068811,17.246167 37.088388,32 37.088388,32 L 22.160133,31.978069 C 22.160133,31.978069 26.997745,27.140456 26.997745,27.140456 C 18.528582,18.264221 13.291696,25.230495 11.500037,31.436501 z"
             style="fill:#404040;"/>
          </a>
         </g>
        </svg>
</svg>
