<?xml version="1.0" encoding="UTF-8" standalone="no"?>
<!DOCTYPE svg PUBLIC "-//W3C//DTD SVG 1.1//EN"
 "http://www.w3.org/Graphics/SVG/1.1/DTD/svg11.dtd">
<!-- Generated by graphviz version 7.0.5 (20221223.1930)
 -->
<!-- Title: com.fs.starfarer.api.impl.campaign.rulecmd.CustomsInspectionGenerateResult.CargoInspectionResult Pages: 1 -->
<svg width="609pt" height="98pt"
 viewBox="0.00 0.00 609.00 97.50" xmlns="http://www.w3.org/2000/svg" xmlns:xlink="http://www.w3.org/1999/xlink">
<g id="graph0" class="graph" transform="scale(1 1) rotate(0) translate(4 93.5)">
<title>com.fs.starfarer.api.impl.campaign.rulecmd.CustomsInspectionGenerateResult.CargoInspectionResult</title>
<!-- Node1 -->
<g id="node1" class="node">
<title>Node1</title>
<g id="a_node1"><a xlink:title=" ">
<polygon fill="#999999" stroke="#666666" points="601,-57 332,-57 332,-27 601,-27 601,-57"/>
<text text-anchor="start" x="340" y="-45" font-family="Helvetica,sans-Serif" font-size="10.00">com.fs.starfarer.api.impl.campaign.rulecmd.</text>
<text text-anchor="middle" x="466.5" y="-34" font-family="Helvetica,sans-Serif" font-size="10.00">CustomsInspectionGenerateResult.CargoInspectionResult</text>
</a>
</g>
</g>
<!-- Node2 -->
<g id="node2" class="node">
<title>Node2</title>
<g id="a_node2"><a xlink:href="enumcom_1_1fs_1_1starfarer_1_1api_1_1impl_1_1campaign_1_1rulecmd_1_1CustomsInspectionGenerateRes0f35c6ca8fc33e7fed7054abe6904ba4.html" target="_top" xlink:title=" ">
<polygon fill="white" stroke="#bfbfbf" points="241,-89.5 0,-89.5 0,-48.5 241,-48.5 241,-89.5"/>
<text text-anchor="start" x="8" y="-77.5" font-family="Helvetica,sans-Serif" font-size="10.00">com.fs.starfarer.api.impl.campaign.rulecmd.</text>
<text text-anchor="start" x="8" y="-66.5" font-family="Helvetica,sans-Serif" font-size="10.00">CustomsInspectionGenerateResult.CargoInspection</text>
<text text-anchor="middle" x="120.5" y="-55.5" font-family="Helvetica,sans-Serif" font-size="10.00">ResultType</text>
</a>
</g>
</g>
<!-- Node2&#45;&gt;Node1 -->
<g id="edge1" class="edge">
<title>Node2&#45;&gt;Node1</title>
<path fill="none" stroke="#9a32cd" stroke-dasharray="5,2" d="M252.72,-58.7C278.58,-56.67 305.75,-54.54 331.7,-52.5"/>
<polygon fill="#9a32cd" stroke="#9a32cd" points="252.54,-55.2 242.84,-59.48 253.08,-62.18 252.54,-55.2"/>
<text text-anchor="middle" x="286.5" y="-61" font-family="Helvetica,sans-Serif" font-size="10.00"> type</text>
</g>
<!-- Node3 -->
<g id="node3" class="node">
<title>Node3</title>
<g id="a_node3"><a xlink:href="interfacecom_1_1fs_1_1starfarer_1_1api_1_1campaign_1_1CargoAPI.html" target="_top" xlink:title=" ">
<polygon fill="white" stroke="#666666" points="193.5,-30 47.5,-30 47.5,0 193.5,0 193.5,-30"/>
<text text-anchor="start" x="55.5" y="-18" font-family="Helvetica,sans-Serif" font-size="10.00">com.fs.starfarer.api.campaign.</text>
<text text-anchor="middle" x="120.5" y="-7" font-family="Helvetica,sans-Serif" font-size="10.00">CargoAPI</text>
</a>
</g>
</g>
<!-- Node3&#45;&gt;Node1 -->
<g id="edge2" class="edge">
<title>Node3&#45;&gt;Node1</title>
<path fill="none" stroke="#9a32cd" stroke-dasharray="5,2" d="M204.98,-20.83C238.83,-23.26 278.29,-26.17 314,-29 319.79,-29.46 325.7,-29.93 331.68,-30.42"/>
<polygon fill="#9a32cd" stroke="#9a32cd" points="205.47,-17.36 195.24,-20.14 204.97,-24.34 205.47,-17.36"/>
<text text-anchor="middle" x="286.5" y="-43" font-family="Helvetica,sans-Serif" font-size="10.00"> illegalFound</text>
<text text-anchor="middle" x="286.5" y="-32" font-family="Helvetica,sans-Serif" font-size="10.00">legalFound</text>
</g>
</g>
</svg>
