<?xml version="1.0" encoding="UTF-8" standalone="no"?>
<!DOCTYPE svg PUBLIC "-//W3C//DTD SVG 1.1//EN"
 "http://www.w3.org/Graphics/SVG/1.1/DTD/svg11.dtd">
<!-- Generated by graphviz version 7.0.5 (20221223.1930)
 -->
<!-- Title: com.fs.starfarer.api.impl.campaign.rulecmd.RepairAvailable Pages: 1 -->
<svg width="331pt" height="182pt"
 viewBox="0.00 0.00 330.50 182.00" xmlns="http://www.w3.org/2000/svg" xmlns:xlink="http://www.w3.org/1999/xlink">
<g id="graph0" class="graph" transform="scale(1 1) rotate(0) translate(4 178)">
<title>com.fs.starfarer.api.impl.campaign.rulecmd.RepairAvailable</title>
<!-- Node1 -->
<g id="node1" class="node">
<title>Node1</title>
<g id="a_node1"><a xlink:title=" ">
<polygon fill="#999999" stroke="#666666" points="307,-30 104,-30 104,0 307,0 307,-30"/>
<text text-anchor="start" x="112" y="-18" font-family="Helvetica,sans-Serif" font-size="10.00">com.fs.starfarer.api.impl.campaign.rulecmd.</text>
<text text-anchor="middle" x="205.5" y="-7" font-family="Helvetica,sans-Serif" font-size="10.00">RepairAvailable</text>
</a>
</g>
</g>
<!-- Node2 -->
<g id="node2" class="node">
<title>Node2</title>
<g id="a_node2"><a xlink:href="classcom_1_1fs_1_1starfarer_1_1api_1_1impl_1_1campaign_1_1rulecmd_1_1BaseCommandPlugin.html" target="_top" xlink:title=" ">
<polygon fill="white" stroke="#bfbfbf" points="203,-107 0,-107 0,-77 203,-77 203,-107"/>
<text text-anchor="start" x="8" y="-95" font-family="Helvetica,sans-Serif" font-size="10.00">com.fs.starfarer.api.impl.campaign.rulecmd.</text>
<text text-anchor="middle" x="101.5" y="-84" font-family="Helvetica,sans-Serif" font-size="10.00">BaseCommandPlugin</text>
</a>
</g>
</g>
<!-- Node2&#45;&gt;Node1 -->
<g id="edge1" class="edge">
<title>Node2&#45;&gt;Node1</title>
<path fill="none" stroke="#63b8ff" d="M130.76,-69.9C148.24,-57.3 169.99,-41.61 185.51,-30.42"/>
<polygon fill="#63b8ff" stroke="#63b8ff" points="128.84,-66.97 122.78,-75.65 132.94,-72.64 128.84,-66.97"/>
</g>
<!-- Node3 -->
<g id="node3" class="node">
<title>Node3</title>
<g id="a_node3"><a xlink:href="interfacecom_1_1fs_1_1starfarer_1_1api_1_1campaign_1_1rules_1_1CommandPlugin.html" target="_top" xlink:title=" ">
<polygon fill="white" stroke="#bfbfbf" points="186,-174 17,-174 17,-144 186,-144 186,-174"/>
<text text-anchor="start" x="25" y="-162" font-family="Helvetica,sans-Serif" font-size="10.00">com.fs.starfarer.api.campaign.rules.</text>
<text text-anchor="middle" x="101.5" y="-151" font-family="Helvetica,sans-Serif" font-size="10.00">CommandPlugin</text>
</a>
</g>
</g>
<!-- Node3&#45;&gt;Node2 -->
<g id="edge2" class="edge">
<title>Node3&#45;&gt;Node2</title>
<path fill="none" stroke="#63b8ff" d="M101.5,-132.28C101.5,-123.81 101.5,-114.7 101.5,-107.39"/>
<polygon fill="#63b8ff" stroke="#63b8ff" points="98,-132.06 101.5,-142.06 105,-132.06 98,-132.06"/>
</g>
<!-- Node4 -->
<g id="node4" class="node">
<title>Node4</title>
<g id="a_node4"><a xlink:title=" ">
<polygon fill="white" stroke="#bfbfbf" points="260,-101.5 221,-101.5 221,-82.5 260,-82.5 260,-101.5"/>
<text text-anchor="middle" x="240.5" y="-89.5" font-family="Helvetica,sans-Serif" font-size="10.00">Color</text>
</a>
</g>
</g>
<!-- Node4&#45;&gt;Node1 -->
<g id="edge3" class="edge">
<title>Node4&#45;&gt;Node1</title>
<path fill="none" stroke="#9a32cd" stroke-dasharray="5,2" d="M231.6,-71.94C225.55,-58.97 217.67,-42.08 212.16,-30.27"/>
<polygon fill="#9a32cd" stroke="#9a32cd" points="228.31,-73.15 235.71,-80.73 234.65,-70.19 228.31,-73.15"/>
<text text-anchor="middle" x="273.5" y="-51" font-family="Helvetica,sans-Serif" font-size="10.00"> HIGHLIGHT_COLOR</text>
</g>
</g>
</svg>
