<?xml version="1.0" encoding="UTF-8" standalone="no"?>
<!DOCTYPE svg PUBLIC "-//W3C//DTD SVG 1.1//EN"
 "http://www.w3.org/Graphics/SVG/1.1/DTD/svg11.dtd">
<!-- Generated by graphviz version 12.2.0 (20241103.1931)
 -->
<!-- Title: com.fs.starfarer.api.impl.campaign.econ.impl.MilitaryBase Pages: 1 -->
<!--zoomable 360 -->

<svg id="main" version="1.1" xmlns="http://www.w3.org/2000/svg" xmlns:xlink="http://www.w3.org/1999/xlink" xml:space="preserve" onload="init(evt)">

<style type="text/css"><![CDATA[
.node, .edge {opacity: 0.7;}
.node.selected, .edge.selected {opacity: 1;}
.edge:hover path { stroke: red; }
.edge:hover polygon { stroke: red; fill: red; }
]]></style>

<defs>
  <circle id="rim" cx="0" cy="0" r="7"/>
  <circle id="rim2" cx="0" cy="0" r="3.5"/>
  <g id="zoomPlus">
    <use xlink:href="#rim" fill="#404040"><set attributeName="fill" to="#808080" begin="zoomplus.mouseover" end="zoomplus.mouseout"/></use>
    <path d="M-4,0h8M0,-4v8" fill="none" stroke="white" stroke-width="1.5" pointer-events="none"/>
  </g>
  <g id="zoomMin">
    <use xlink:href="#rim" fill="#404040"><set attributeName="fill" to="#808080" begin="zoomminus.mouseover" end="zoomminus.mouseout"/></use>
    <path d="M-4,0h8" fill="none" stroke="white" stroke-width="1.5" pointer-events="none"/>
  </g>
  <g id="arrowUp" transform="translate(30 24)">
    <use xlink:href="#rim"/>
    <path pointer-events="none" fill="none" stroke="white" stroke-width="1.5" d="M0,-3.0v7 M-2.5,-0.5L0,-3.0L2.5,-0.5"/>
  </g>
  <g id="arrowRight" transform="rotate(90) translate(36 -43)">
    <use xlink:href="#rim"/>
    <path pointer-events="none" fill="none" stroke="white" stroke-width="1.5" d="M0,-3.0v7 M-2.5,-0.5L0,-3.0L2.5,-0.5"/>
  </g>
  <g id="arrowDown" transform="rotate(180) translate(-30 -48)">
    <use xlink:href="#rim"/>
    <path pointer-events="none" fill="none" stroke="white" stroke-width="1.5" d="M0,-3.0v7 M-2.5,-0.5L0,-3.0L2.5,-0.5"/>
  </g>
  <g id="arrowLeft" transform="rotate(270) translate(-36 17)">
    <use xlink:href="#rim"/>
    <path pointer-events="none" fill="none" stroke="white" stroke-width="1.5" d="M0,-3.0v7 M-2.5,-0.5L0,-3.0L2.5,-0.5"/>
  </g>
  <g id="resetDef">
    <use xlink:href="#rim2" fill="#404040"><set attributeName="fill" to="#808080" begin="reset.mouseover" end="reset.mouseout"/></use>
  </g>
</defs>
<script type="application/ecmascript">
var viewWidth = 1086;
var viewHeight = 360;
var sectionId = 'dynsection-1';
</script>
<script type="application/ecmascript" xlink:href="svg.min.js"/>
<svg id="graph" class="graph">
<g id="viewport">
<title>com.fs.starfarer.api.impl.campaign.econ.impl.MilitaryBase</title>
<!-- Node1 -->
<g id="Node000001" class="node">
<title>Node1</title>
<g id="a_Node000001"><a xlink:title=" ">
<polygon fill="#999999" stroke="#666666" points="1077.5,-103.5 868.75,-103.5 868.75,-73 1077.5,-73 1077.5,-103.5"/>
<text text-anchor="start" x="876.75" y="-90" font-family="Helvetica,sans-Serif" font-size="10.00">com.fs.starfarer.api.impl.campaign.econ.impl.</text>
<text text-anchor="middle" x="973.12" y="-78.75" font-family="Helvetica,sans-Serif" font-size="10.00">MilitaryBase</text>
</a>
</g>
</g>
<!-- Node2 -->
<g id="Node000002" class="node">
<title>Node2</title>
<g id="a_Node000002"><a xlink:href="classcom_1_1fs_1_1starfarer_1_1api_1_1impl_1_1campaign_1_1econ_1_1impl_1_1BaseIndustry.html" target="_top" xlink:title=" ">
<polygon fill="white" stroke="#666666" points="800.5,-177.5 591.75,-177.5 591.75,-147 800.5,-147 800.5,-177.5"/>
<text text-anchor="start" x="599.75" y="-164" font-family="Helvetica,sans-Serif" font-size="10.00">com.fs.starfarer.api.impl.campaign.econ.impl.</text>
<text text-anchor="middle" x="696.12" y="-152.75" font-family="Helvetica,sans-Serif" font-size="10.00">BaseIndustry</text>
</a>
</g>
</g>
<!-- Node2&#45;&gt;Node1 -->
<g id="edge1_Node000001_Node000002" class="edge">
<title>Node2&#45;&gt;Node1</title>
<g id="a_edge1_Node000001_Node000002"><a xlink:title=" ">
<path fill="none" stroke="#63b8ff" d="M774.88,-143.81C783.54,-141.65 792.21,-139.43 800.5,-137.25 840.5,-126.71 885.46,-113.84 919.32,-103.93"/>
<polygon fill="#63b8ff" stroke="#63b8ff" points="774.29,-140.35 765.43,-146.15 775.97,-147.14 774.29,-140.35"/>
</a>
</g>
</g>
<!-- Node3 -->
<g id="Node000003" class="node">
<title>Node3</title>
<g id="a_Node000003"><a xlink:href="interfacecom_1_1fs_1_1starfarer_1_1api_1_1campaign_1_1econ_1_1Industry.html" target="_top" xlink:title=" ">
<polygon fill="white" stroke="#666666" points="402.38,-351.5 234.12,-351.5 234.12,-321 402.38,-321 402.38,-351.5"/>
<text text-anchor="start" x="242.12" y="-338" font-family="Helvetica,sans-Serif" font-size="10.00">com.fs.starfarer.api.campaign.econ.</text>
<text text-anchor="middle" x="318.25" y="-326.75" font-family="Helvetica,sans-Serif" font-size="10.00">Industry</text>
</a>
</g>
</g>
<!-- Node3&#45;&gt;Node2 -->
<g id="edge2_Node000002_Node000003" class="edge">
<title>Node3&#45;&gt;Node2</title>
<g id="a_edge2_Node000002_Node000003"><a xlink:title=" ">
<path fill="none" stroke="#63b8ff" d="M414.15,-340.38C464.29,-338.72 525.29,-330.37 573.75,-304.25 629.14,-274.4 670.28,-208.24 686.96,-177.95"/>
<polygon fill="#63b8ff" stroke="#63b8ff" points="414.07,-336.88 404.16,-340.62 414.24,-343.88 414.07,-336.88"/>
</a>
</g>
</g>
<!-- Node4 -->
<g id="Node000004" class="node">
<title>Node4</title>
<g id="a_Node000004"><a xlink:title=" ">
<polygon fill="white" stroke="#666666" points="347.62,-302.88 288.88,-302.88 288.88,-283.62 347.62,-283.62 347.62,-302.88"/>
<text text-anchor="middle" x="318.25" y="-289.38" font-family="Helvetica,sans-Serif" font-size="10.00">Cloneable</text>
</a>
</g>
</g>
<!-- Node4&#45;&gt;Node2 -->
<g id="edge3_Node000002_Node000004" class="edge">
<title>Node4&#45;&gt;Node2</title>
<g id="a_edge3_Node000002_Node000004"><a xlink:title=" ">
<path fill="none" stroke="#63b8ff" d="M359.17,-299.09C411,-304.88 503.16,-309 573.75,-278.25 623.99,-256.37 665.9,-204.06 684.62,-177.82"/>
<polygon fill="#63b8ff" stroke="#63b8ff" points="359.67,-295.63 349.32,-297.9 358.83,-302.58 359.67,-295.63"/>
</a>
</g>
</g>
<!-- Node5 -->
<g id="Node000005" class="node">
<title>Node5</title>
<g id="a_Node000005"><a xlink:title=" ">
<polygon fill="white" stroke="#666666" points="431.25,-265.5 205.25,-265.5 205.25,-235 431.25,-235 431.25,-265.5"/>
<text text-anchor="start" x="213.25" y="-252" font-family="Helvetica,sans-Serif" font-size="10.00">Map&lt; String, com.fs.starfarer.api.campaign.econ.</text>
<text text-anchor="middle" x="318.25" y="-240.75" font-family="Helvetica,sans-Serif" font-size="10.00">MutableCommodityQuantity &gt;</text>
</a>
</g>
</g>
<!-- Node5&#45;&gt;Node2 -->
<g id="edge4_Node000002_Node000005" class="edge">
<title>Node5&#45;&gt;Node2</title>
<g id="a_edge4_Node000002_Node000005"><a xlink:title=" ">
<path fill="none" stroke="#9a32cd" stroke-dasharray="5,2" d="M442.93,-251.93C485.17,-249.66 532.21,-243.91 573.75,-231.25 612.01,-219.59 651.37,-194.3 674.52,-177.79"/>
<polygon fill="#9a32cd" stroke="#9a32cd" points="442.78,-248.44 432.96,-252.4 443.11,-255.43 442.78,-248.44"/>
</a>
</g>
<text text-anchor="middle" x="511.5" y="-264.49" font-family="Helvetica,sans-Serif" font-size="10.00" fill="grey"> demand</text>
<text text-anchor="middle" x="511.5" y="-253.24" font-family="Helvetica,sans-Serif" font-size="10.00" fill="grey">supply</text>
</g>
<!-- Node6 -->
<g id="Node000006" class="node">
<title>Node6</title>
<g id="a_Node000006"><a xlink:href="classcom_1_1fs_1_1starfarer_1_1api_1_1combat_1_1MutableStat.html" target="_top" xlink:title=" ">
<polygon fill="white" stroke="#666666" points="385.88,-192.5 250.62,-192.5 250.62,-162 385.88,-162 385.88,-192.5"/>
<text text-anchor="start" x="258.62" y="-179" font-family="Helvetica,sans-Serif" font-size="10.00">com.fs.starfarer.api.combat.</text>
<text text-anchor="middle" x="318.25" y="-167.75" font-family="Helvetica,sans-Serif" font-size="10.00">MutableStat</text>
</a>
</g>
</g>
<!-- Node6&#45;&gt;Node2 -->
<g id="edge5_Node000002_Node000006" class="edge">
<title>Node6&#45;&gt;Node2</title>
<g id="a_edge5_Node000002_Node000006"><a xlink:title=" ">
<path fill="none" stroke="#9a32cd" stroke-dasharray="5,2" d="M397.36,-167.89C414.43,-166.2 432.43,-164.67 449.25,-163.75 495.82,-161.2 547.42,-160.55 591.27,-160.65"/>
<polygon fill="#9a32cd" stroke="#9a32cd" points="397.38,-164.37 387.79,-168.87 398.1,-171.33 397.38,-164.37"/>
</a>
</g>
<text text-anchor="middle" x="511.5" y="-221.75" font-family="Helvetica,sans-Serif" font-size="10.00" fill="grey"> demandReduction</text>
<text text-anchor="middle" x="511.5" y="-210.5" font-family="Helvetica,sans-Serif" font-size="10.00" fill="grey">demandReductionFromOther</text>
<text text-anchor="middle" x="511.5" y="-199.25" font-family="Helvetica,sans-Serif" font-size="10.00" fill="grey">income</text>
<text text-anchor="middle" x="511.5" y="-188" font-family="Helvetica,sans-Serif" font-size="10.00" fill="grey">supplyBonus</text>
<text text-anchor="middle" x="511.5" y="-176.75" font-family="Helvetica,sans-Serif" font-size="10.00" fill="grey">supplyBonusFromOther</text>
<text text-anchor="middle" x="511.5" y="-165.5" font-family="Helvetica,sans-Serif" font-size="10.00" fill="grey">upkeep</text>
</g>
<!-- Node7 -->
<g id="Node000007" class="node">
<title>Node7</title>
<g id="a_Node000007"><a xlink:href="interfacecom_1_1fs_1_1starfarer_1_1api_1_1campaign_1_1econ_1_1MarketAPI.html" target="_top" xlink:title=" ">
<polygon fill="white" stroke="#666666" points="402.38,-143.5 234.12,-143.5 234.12,-113 402.38,-113 402.38,-143.5"/>
<text text-anchor="start" x="242.12" y="-130" font-family="Helvetica,sans-Serif" font-size="10.00">com.fs.starfarer.api.campaign.econ.</text>
<text text-anchor="middle" x="318.25" y="-118.75" font-family="Helvetica,sans-Serif" font-size="10.00">MarketAPI</text>
</a>
</g>
</g>
<!-- Node7&#45;&gt;Node2 -->
<g id="edge6_Node000002_Node000007" class="edge">
<title>Node7&#45;&gt;Node2</title>
<g id="a_edge6_Node000002_Node000007"><a xlink:title=" ">
<path fill="none" stroke="#9a32cd" stroke-dasharray="5,2" d="M414.08,-132.79C462.01,-135.51 521.05,-139.53 573.75,-145 579.57,-145.6 585.54,-146.28 591.57,-147"/>
<polygon fill="#9a32cd" stroke="#9a32cd" points="414.46,-129.3 404.28,-132.24 414.07,-136.29 414.46,-129.3"/>
</a>
</g>
<text text-anchor="middle" x="511.5" y="-146.75" font-family="Helvetica,sans-Serif" font-size="10.00" fill="grey"> market</text>
</g>
<!-- Node8 -->
<g id="Node000008" class="node">
<title>Node8</title>
<g id="a_Node000008"><a xlink:href="interfacecom_1_1fs_1_1starfarer_1_1api_1_1campaign_1_1rules_1_1HasMemory.html" target="_top" xlink:title=" ">
<polygon fill="white" stroke="#666666" points="168.25,-143.5 0,-143.5 0,-113 168.25,-113 168.25,-143.5"/>
<text text-anchor="start" x="8" y="-130" font-family="Helvetica,sans-Serif" font-size="10.00">com.fs.starfarer.api.campaign.rules.</text>
<text text-anchor="middle" x="84.12" y="-118.75" font-family="Helvetica,sans-Serif" font-size="10.00">HasMemory</text>
</a>
</g>
</g>
<!-- Node8&#45;&gt;Node7 -->
<g id="edge7_Node000007_Node000008" class="edge">
<title>Node8&#45;&gt;Node7</title>
<g id="a_edge7_Node000007_Node000008"><a xlink:title=" ">
<path fill="none" stroke="#63b8ff" d="M179.9,-128.25C197.74,-128.25 216.27,-128.25 233.74,-128.25"/>
<polygon fill="#63b8ff" stroke="#63b8ff" points="180.11,-124.75 170.11,-128.25 180.11,-131.75 180.11,-124.75"/>
</a>
</g>
</g>
<!-- Node9 -->
<g id="Node000009" class="node">
<title>Node9</title>
<g id="a_Node000009"><a xlink:href="interfacecom_1_1fs_1_1starfarer_1_1api_1_1loading_1_1IndustrySpecAPI.html" target="_top" xlink:title=" ">
<polygon fill="white" stroke="#666666" points="385.12,-94.5 251.38,-94.5 251.38,-64 385.12,-64 385.12,-94.5"/>
<text text-anchor="start" x="259.38" y="-81" font-family="Helvetica,sans-Serif" font-size="10.00">com.fs.starfarer.api.loading.</text>
<text text-anchor="middle" x="318.25" y="-69.75" font-family="Helvetica,sans-Serif" font-size="10.00">IndustrySpecAPI</text>
</a>
</g>
</g>
<!-- Node9&#45;&gt;Node2 -->
<g id="edge8_Node000002_Node000009" class="edge">
<title>Node9&#45;&gt;Node2</title>
<g id="a_edge8_Node000002_Node000009"><a xlink:title=" ">
<path fill="none" stroke="#9a32cd" stroke-dasharray="5,2" d="M396.78,-79.74C449.18,-82.86 518.6,-92.58 573.75,-120 583.67,-124.93 582.03,-131.93 591.75,-137.25 598.31,-140.84 605.38,-143.92 612.64,-146.56"/>
<polygon fill="#9a32cd" stroke="#9a32cd" points="397.21,-76.26 387.04,-79.24 396.84,-83.25 397.21,-76.26"/>
</a>
</g>
<text text-anchor="middle" x="511.5" y="-121.75" font-family="Helvetica,sans-Serif" font-size="10.00" fill="grey"> spec</text>
</g>
<!-- Node10 -->
<g id="Node000010" class="node">
<title>Node10</title>
<g id="a_Node000010"><a xlink:href="interfacecom_1_1fs_1_1starfarer_1_1api_1_1loading_1_1WithSourceMod.html" target="_top" xlink:title=" ">
<polygon fill="white" stroke="#666666" points="151,-94.5 17.25,-94.5 17.25,-64 151,-64 151,-94.5"/>
<text text-anchor="start" x="25.25" y="-81" font-family="Helvetica,sans-Serif" font-size="10.00">com.fs.starfarer.api.loading.</text>
<text text-anchor="middle" x="84.12" y="-69.75" font-family="Helvetica,sans-Serif" font-size="10.00">WithSourceMod</text>
</a>
</g>
</g>
<!-- Node10&#45;&gt;Node9 -->
<g id="edge9_Node000009_Node000010" class="edge">
<title>Node10&#45;&gt;Node9</title>
<g id="a_edge9_Node000009_Node000010"><a xlink:title=" ">
<path fill="none" stroke="#63b8ff" d="M162.53,-79.25C191.18,-79.25 223.38,-79.25 250.96,-79.25"/>
<polygon fill="#63b8ff" stroke="#63b8ff" points="162.85,-75.75 152.85,-79.25 162.85,-82.75 162.85,-75.75"/>
</a>
</g>
</g>
<!-- Node11 -->
<g id="Node000011" class="node">
<title>Node11</title>
<g id="a_Node000011"><a xlink:href="classcom_1_1fs_1_1starfarer_1_1api_1_1campaign_1_1SpecialItemData.html" target="_top" xlink:title=" ">
<polygon fill="white" stroke="#666666" points="390.75,-45.5 245.75,-45.5 245.75,-15 390.75,-15 390.75,-45.5"/>
<text text-anchor="start" x="253.75" y="-32" font-family="Helvetica,sans-Serif" font-size="10.00">com.fs.starfarer.api.campaign.</text>
<text text-anchor="middle" x="318.25" y="-20.75" font-family="Helvetica,sans-Serif" font-size="10.00">SpecialItemData</text>
</a>
</g>
</g>
<!-- Node11&#45;&gt;Node2 -->
<g id="edge10_Node000002_Node000011" class="edge">
<title>Node11&#45;&gt;Node2</title>
<g id="a_edge10_Node000002_Node000011"><a xlink:title=" ">
<path fill="none" stroke="#9a32cd" stroke-dasharray="5,2" d="M402.72,-21.5C457.78,-20.46 527.95,-28.84 573.75,-70 596.76,-90.68 569.61,-115.64 591.75,-137.25 595.45,-140.86 599.58,-143.98 603.99,-146.68"/>
<polygon fill="#9a32cd" stroke="#9a32cd" points="402.61,-18 392.72,-21.81 402.82,-25 402.61,-18"/>
</a>
</g>
<text text-anchor="middle" x="511.5" y="-71.75" font-family="Helvetica,sans-Serif" font-size="10.00" fill="grey"> special</text>
</g>
<!-- Node12 -->
<g id="Node000012" class="node">
<title>Node12</title>
<g id="a_Node000012"><a xlink:title=" ">
<polygon fill="white" stroke="#666666" points="791.5,-128.5 600.75,-128.5 600.75,-98 791.5,-98 791.5,-128.5"/>
<text text-anchor="start" x="608.75" y="-115" font-family="Helvetica,sans-Serif" font-size="10.00">com.fs.starfarer.api.impl.campaign.fleets.</text>
<text text-anchor="middle" x="696.12" y="-103.75" font-family="Helvetica,sans-Serif" font-size="10.00">RouteManager.RouteFleetSpawner</text>
</a>
</g>
</g>
<!-- Node12&#45;&gt;Node1 -->
<g id="edge11_Node000001_Node000012" class="edge">
<title>Node12&#45;&gt;Node1</title>
<g id="a_edge11_Node000001_Node000012"><a xlink:title=" ">
<path fill="none" stroke="#63b8ff" d="M803.18,-103.61C824.58,-101.66 847.05,-99.62 868.37,-97.68"/>
<polygon fill="#63b8ff" stroke="#63b8ff" points="802.91,-100.12 793.27,-104.51 803.55,-107.09 802.91,-100.12"/>
</a>
</g>
</g>
<!-- Node13 -->
<g id="Node000013" class="node">
<title>Node13</title>
<g id="a_Node000013"><a xlink:href="interfacecom_1_1fs_1_1starfarer_1_1api_1_1campaign_1_1listeners_1_1FleetEventListener.html" target="_top" xlink:title=" ">
<polygon fill="white" stroke="#666666" points="788.12,-79.5 604.12,-79.5 604.12,-49 788.12,-49 788.12,-79.5"/>
<text text-anchor="start" x="612.12" y="-66" font-family="Helvetica,sans-Serif" font-size="10.00">com.fs.starfarer.api.campaign.listeners.</text>
<text text-anchor="middle" x="696.12" y="-54.75" font-family="Helvetica,sans-Serif" font-size="10.00">FleetEventListener</text>
</a>
</g>
</g>
<!-- Node13&#45;&gt;Node1 -->
<g id="edge12_Node000001_Node000013" class="edge">
<title>Node13&#45;&gt;Node1</title>
<g id="a_edge12_Node000001_Node000013"><a xlink:title=" ">
<path fill="none" stroke="#63b8ff" d="M799.57,-73.19C822.03,-75.15 845.83,-77.23 868.35,-79.19"/>
<polygon fill="#63b8ff" stroke="#63b8ff" points="800.09,-69.72 789.82,-72.34 799.48,-76.7 800.09,-69.72"/>
</a>
</g>
</g>
<!-- Node14 -->
<g id="Node000014" class="node">
<title>Node14</title>
<g id="a_Node000014"><a xlink:href="classcom_1_1fs_1_1starfarer_1_1api_1_1util_1_1IntervalUtil.html" target="_top" xlink:title=" ">
<polygon fill="white" stroke="#666666" points="754,-30.5 638.25,-30.5 638.25,0 754,0 754,-30.5"/>
<text text-anchor="start" x="646.25" y="-17" font-family="Helvetica,sans-Serif" font-size="10.00">com.fs.starfarer.api.util.</text>
<text text-anchor="middle" x="696.12" y="-5.75" font-family="Helvetica,sans-Serif" font-size="10.00">IntervalUtil</text>
</a>
</g>
</g>
<!-- Node14&#45;&gt;Node1 -->
<g id="edge13_Node000001_Node000014" class="edge">
<title>Node14&#45;&gt;Node1</title>
<g id="a_edge13_Node000001_Node000014"><a xlink:title=" ">
<path fill="none" stroke="#9a32cd" stroke-dasharray="5,2" d="M765.45,-31.41C777.16,-34.29 789.19,-37.3 800.5,-40.25 839.87,-50.51 884.08,-62.9 917.77,-72.52"/>
<polygon fill="#9a32cd" stroke="#9a32cd" points="766.37,-28.03 755.83,-29.07 764.72,-34.84 766.37,-28.03"/>
</a>
</g>
<text text-anchor="middle" x="834.62" y="-54.66" font-family="Helvetica,sans-Serif" font-size="10.00" fill="grey"> tracker</text>
</g>
</g>
</svg>

<g id="navigator" transform="translate(0 0)" fill="#404254">
  <rect fill="#f2f5e9" fill-opacity="0.5" stroke="#606060" stroke-width=".5" x="0" y="0" width="60" height="60"/>
  <use id="zoomplus" xlink:href="#zoomPlus" x="17" y="9" onmousedown="handleZoom(evt,'in')"/>
  <use id="zoomminus" xlink:href="#zoomMin" x="42" y="9" onmousedown="handleZoom(evt,'out')"/>
  <use id="reset" xlink:href="#resetDef" x="30" y="36" onmousedown="handleReset()"/>
   <use id="arrowup" xlink:href="#arrowUp" x="0" y="0" onmousedown="handlePan(0,-1)"/>
  <use id="arrowright" xlink:href="#arrowRight" x="0" y="0" onmousedown="handlePan(1,0)"/>
  <use id="arrowdown" xlink:href="#arrowDown" x="0" y="0" onmousedown="handlePan(0,1)"/>
  <use id="arrowleft" xlink:href="#arrowLeft" x="0" y="0" onmousedown="handlePan(-1,0)"/>
</g>
<svg viewBox="0 0 15 15" width="100%" height="30px" preserveAspectRatio="xMaxYMin meet">
 <g id="arrow_out" transform="scale(0.3 0.3)">
  <a xlink:href="classcom_1_1fs_1_1starfarer_1_1api_1_1impl_1_1campaign_1_1econ_1_1impl_1_1MilitaryBase__coll__graph_org.svg" target="_base">
   <rect id="button" ry="5" rx="5" y="6" x="6" height="38" width="38"
        fill="#f2f5e9" fill-opacity="0.5" stroke="#606060" stroke-width="1.0"/>
   <path id="arrow"
     d="M 11.500037,31.436501 C 11.940474,20.09759 22.043105,11.32322 32.158766,21.979434 L 37.068811,17.246167 C 37.068811,17.246167 37.088388,32 37.088388,32 L 22.160133,31.978069 C 22.160133,31.978069 26.997745,27.140456 26.997745,27.140456 C 18.528582,18.264221 13.291696,25.230495 11.500037,31.436501 z"
     style="fill:#404040;"/>
  </a>
 </g>
</svg>

<style type='text/css'>
<![CDATA[
[data-mouse-over-selected='false'] { opacity: 0.7; }
[data-mouse-over-selected='true']  { opacity: 1.0; }
]]>
</style>
<script type="application/ecmascript"><![CDATA[
document.addEventListener('DOMContentLoaded', (event) => {
  highlightEdges();
  highlightAdjacentNodes();
});
]]></script>
</svg>
