<?xml version="1.0" encoding="UTF-8" standalone="no"?>
<!DOCTYPE svg PUBLIC "-//W3C//DTD SVG 1.1//EN"
 "http://www.w3.org/Graphics/SVG/1.1/DTD/svg11.dtd">
<!-- Generated by graphviz version 2.44.0 ()
 -->
<!-- Title: com.fs.starfarer.api.impl.combat.RealityDisruptorChargeGlow Pages: 1 -->
<svg width="1198pt" height="435pt"
 viewBox="0.00 0.00 1198.00 435.00" xmlns="http://www.w3.org/2000/svg" xmlns:xlink="http://www.w3.org/1999/xlink">
<g id="graph0" class="graph" transform="scale(1 1) rotate(0) translate(4 431)">
<title>com.fs.starfarer.api.impl.combat.RealityDisruptorChargeGlow</title>
<!-- Node1 -->
<g id="node1" class="node">
<title>Node1</title>
<g id="a_node1"><a xlink:title=" ">
<polygon fill="#bfbfbf" stroke="black" points="1034,-93.5 1034,-123.5 1190,-123.5 1190,-93.5 1034,-93.5"/>
<text text-anchor="start" x="1042" y="-111.5" font-family="Helvetica,sans-Serif" font-size="10.00">com.fs.starfarer.api.impl.combat.</text>
<text text-anchor="middle" x="1112" y="-100.5" font-family="Helvetica,sans-Serif" font-size="10.00">RealityDisruptorChargeGlow</text>
</a>
</g>
</g>
<!-- Node2 -->
<g id="node2" class="node">
<title>Node2</title>
<g id="a_node2"><a xlink:href="classcom_1_1fs_1_1starfarer_1_1api_1_1impl_1_1combat_1_1CombatEntityPluginWithParticles.html" target="_top" xlink:title=" ">
<polygon fill="none" stroke="black" points="790,-228.5 790,-258.5 949,-258.5 949,-228.5 790,-228.5"/>
<text text-anchor="start" x="798" y="-246.5" font-family="Helvetica,sans-Serif" font-size="10.00">com.fs.starfarer.api.impl.combat.</text>
<text text-anchor="middle" x="869.5" y="-235.5" font-family="Helvetica,sans-Serif" font-size="10.00">CombatEntityPluginWithParticles</text>
</a>
</g>
</g>
<!-- Node2&#45;&gt;Node1 -->
<g id="edge1" class="edge">
<title>Node2&#45;&gt;Node1</title>
<path fill="none" stroke="midnightblue" d="M906.53,-223.27C955.12,-196 1040.53,-148.06 1083.98,-123.67"/>
<polygon fill="midnightblue" stroke="midnightblue" points="904.63,-220.33 897.62,-228.28 908.05,-226.43 904.63,-220.33"/>
</g>
<!-- Node3 -->
<g id="node3" class="node">
<title>Node3</title>
<g id="a_node3"><a xlink:href="classcom_1_1fs_1_1starfarer_1_1api_1_1combat_1_1BaseCombatLayeredRenderingPlugin.html" target="_top" xlink:title=" ">
<polygon fill="none" stroke="black" points="417.5,-304.5 417.5,-334.5 595.5,-334.5 595.5,-304.5 417.5,-304.5"/>
<text text-anchor="start" x="425.5" y="-322.5" font-family="Helvetica,sans-Serif" font-size="10.00">com.fs.starfarer.api.combat.</text>
<text text-anchor="middle" x="506.5" y="-311.5" font-family="Helvetica,sans-Serif" font-size="10.00">BaseCombatLayeredRenderingPlugin</text>
</a>
</g>
</g>
<!-- Node3&#45;&gt;Node2 -->
<g id="edge2" class="edge">
<title>Node3&#45;&gt;Node2</title>
<path fill="none" stroke="midnightblue" d="M605.77,-308.21C655.95,-301.36 717.71,-291.25 772,-277.5 791.8,-272.48 813.29,-265.11 830.95,-258.52"/>
<polygon fill="midnightblue" stroke="midnightblue" points="605.02,-304.78 595.57,-309.58 605.95,-311.72 605.02,-304.78"/>
</g>
<!-- Node4 -->
<g id="node4" class="node">
<title>Node4</title>
<g id="a_node4"><a xlink:href="interfacecom_1_1fs_1_1starfarer_1_1api_1_1combat_1_1CombatLayeredRenderingPlugin.html" target="_top" xlink:title=" ">
<polygon fill="none" stroke="black" points="177,-330.5 177,-360.5 332,-360.5 332,-330.5 177,-330.5"/>
<text text-anchor="start" x="185" y="-348.5" font-family="Helvetica,sans-Serif" font-size="10.00">com.fs.starfarer.api.combat.</text>
<text text-anchor="middle" x="254.5" y="-337.5" font-family="Helvetica,sans-Serif" font-size="10.00">CombatLayeredRenderingPlugin</text>
</a>
</g>
</g>
<!-- Node4&#45;&gt;Node3 -->
<g id="edge3" class="edge">
<title>Node4&#45;&gt;Node3</title>
<path fill="none" stroke="midnightblue" d="M342.42,-336.46C366.59,-333.95 392.86,-331.21 417.12,-328.69"/>
<polygon fill="midnightblue" stroke="midnightblue" points="341.79,-333.01 332.21,-337.52 342.52,-339.97 341.79,-333.01"/>
</g>
<!-- Node5 -->
<g id="node5" class="node">
<title>Node5</title>
<g id="a_node5"><a xlink:href="enumcom_1_1fs_1_1starfarer_1_1api_1_1combat_1_1CombatEngineLayers.html" target="_top" xlink:title=" ">
<polygon fill="none" stroke="black" points="186.5,-281.5 186.5,-311.5 322.5,-311.5 322.5,-281.5 186.5,-281.5"/>
<text text-anchor="start" x="194.5" y="-299.5" font-family="Helvetica,sans-Serif" font-size="10.00">com.fs.starfarer.api.combat.</text>
<text text-anchor="middle" x="254.5" y="-288.5" font-family="Helvetica,sans-Serif" font-size="10.00">CombatEngineLayers</text>
</a>
</g>
</g>
<!-- Node5&#45;&gt;Node2 -->
<g id="edge13" class="edge">
<title>Node5&#45;&gt;Node2</title>
<path fill="none" stroke="#9a32cd" stroke-dasharray="5,2" d="M332.8,-282.34C352.99,-279.03 374.76,-275.8 395,-273.5 399.84,-272.95 656.63,-256.8 789.96,-248.43"/>
<polygon fill="#9a32cd" stroke="#9a32cd" points="332,-278.92 322.72,-284.02 333.16,-285.83 332,-278.92"/>
<text text-anchor="middle" x="506.5" y="-287.5" font-family="Helvetica,sans-Serif" font-size="10.00"> darkLayer</text>
<text text-anchor="middle" x="506.5" y="-276.5" font-family="Helvetica,sans-Serif" font-size="10.00">normalLayer</text>
</g>
<!-- Node5&#45;&gt;Node3 -->
<g id="edge4" class="edge">
<title>Node5&#45;&gt;Node3</title>
<path fill="none" stroke="#9a32cd" stroke-dasharray="5,2" d="M332.9,-303.62C359.64,-306.08 389.81,-308.86 417.36,-311.39"/>
<polygon fill="#9a32cd" stroke="#9a32cd" points="333.1,-300.12 322.82,-302.69 332.46,-307.1 333.1,-300.12"/>
<text text-anchor="middle" x="363.5" y="-309.5" font-family="Helvetica,sans-Serif" font-size="10.00"> layer</text>
</g>
<!-- Node6 -->
<g id="node6" class="node">
<title>Node6</title>
<g id="a_node6"><a xlink:href="interfacecom_1_1fs_1_1starfarer_1_1api_1_1combat_1_1CombatEntityAPI.html" target="_top" xlink:title=" ">
<polygon fill="none" stroke="black" points="186.5,-386.5 186.5,-416.5 322.5,-416.5 322.5,-386.5 186.5,-386.5"/>
<text text-anchor="start" x="194.5" y="-404.5" font-family="Helvetica,sans-Serif" font-size="10.00">com.fs.starfarer.api.combat.</text>
<text text-anchor="middle" x="254.5" y="-393.5" font-family="Helvetica,sans-Serif" font-size="10.00">CombatEntityAPI</text>
</a>
</g>
</g>
<!-- Node6&#45;&gt;Node3 -->
<g id="edge5" class="edge">
<title>Node6&#45;&gt;Node3</title>
<path fill="none" stroke="#9a32cd" stroke-dasharray="5,2" d="M302.14,-382.65C312.01,-378.65 322.35,-374.45 332,-370.5 360.04,-359.03 366.13,-353.65 395,-344.5 406.53,-340.85 418.9,-337.5 431.04,-334.54"/>
<polygon fill="#9a32cd" stroke="#9a32cd" points="300.83,-379.41 292.87,-386.41 303.46,-385.9 300.83,-379.41"/>
<text text-anchor="middle" x="363.5" y="-365.5" font-family="Helvetica,sans-Serif" font-size="10.00"> entity</text>
</g>
<!-- Node15 -->
<g id="node15" class="node">
<title>Node15</title>
<g id="a_node15"><a xlink:href="interfacecom_1_1fs_1_1starfarer_1_1api_1_1combat_1_1DamagingProjectileAPI.html" target="_top" xlink:title=" ">
<polygon fill="none" stroke="black" points="636,-396.5 636,-426.5 772,-426.5 772,-396.5 636,-396.5"/>
<text text-anchor="start" x="644" y="-414.5" font-family="Helvetica,sans-Serif" font-size="10.00">com.fs.starfarer.api.combat.</text>
<text text-anchor="middle" x="704" y="-403.5" font-family="Helvetica,sans-Serif" font-size="10.00">DamagingProjectileAPI</text>
</a>
</g>
</g>
<!-- Node6&#45;&gt;Node15 -->
<g id="edge16" class="edge">
<title>Node6&#45;&gt;Node15</title>
<path fill="none" stroke="midnightblue" d="M333.14,-403.24C418.61,-405.14 554.61,-408.18 635.7,-410"/>
<polygon fill="midnightblue" stroke="midnightblue" points="333.06,-399.73 322.98,-403.01 332.9,-406.73 333.06,-399.73"/>
</g>
<!-- Node7 -->
<g id="node7" class="node">
<title>Node7</title>
<g id="a_node7"><a xlink:href="classcom_1_1fs_1_1starfarer_1_1api_1_1impl_1_1combat_1_1CombatEntityPluginWithParticles_1_1ParticleData.html" target="_top" xlink:title=" ">
<polygon fill="none" stroke="black" points="399,-195.5 399,-225.5 614,-225.5 614,-195.5 399,-195.5"/>
<text text-anchor="start" x="407" y="-213.5" font-family="Helvetica,sans-Serif" font-size="10.00">com.fs.starfarer.api.impl.combat.</text>
<text text-anchor="middle" x="506.5" y="-202.5" font-family="Helvetica,sans-Serif" font-size="10.00">CombatEntityPluginWithParticles.ParticleData</text>
</a>
</g>
</g>
<!-- Node7&#45;&gt;Node2 -->
<g id="edge6" class="edge">
<title>Node7&#45;&gt;Node2</title>
<path fill="none" stroke="#9a32cd" stroke-dasharray="5,2" d="M624.35,-221.18C678.47,-226.13 741.35,-231.88 789.75,-236.3"/>
<polygon fill="#9a32cd" stroke="#9a32cd" points="624.62,-217.69 614.35,-220.27 623.99,-224.66 624.62,-217.69"/>
<text text-anchor="middle" x="704" y="-237.5" font-family="Helvetica,sans-Serif" font-size="10.00"> prev</text>
</g>
<!-- Node8 -->
<g id="node8" class="node">
<title>Node8</title>
<g id="a_node8"><a xlink:title=" ">
<polygon fill="none" stroke="#bfbfbf" points="235,-102 235,-121 274,-121 274,-102 235,-102"/>
<text text-anchor="middle" x="254.5" y="-109" font-family="Helvetica,sans-Serif" font-size="10.00">Color</text>
</a>
</g>
</g>
<!-- Node8&#45;&gt;Node1 -->
<g id="edge17" class="edge">
<title>Node8&#45;&gt;Node1</title>
<path fill="none" stroke="#9a32cd" stroke-dasharray="5,2" d="M284.22,-111.4C402.19,-110.99 851.75,-109.41 1033.78,-108.77"/>
<polygon fill="#9a32cd" stroke="#9a32cd" points="284.15,-107.9 274.16,-111.43 284.18,-114.9 284.15,-107.9"/>
<text text-anchor="middle" x="704" y="-123.5" font-family="Helvetica,sans-Serif" font-size="10.00"> RIFT_COLOR</text>
<text text-anchor="middle" x="704" y="-112.5" font-family="Helvetica,sans-Serif" font-size="10.00">UNDERCOLOR</text>
</g>
<!-- Node8&#45;&gt;Node7 -->
<g id="edge7" class="edge">
<title>Node8&#45;&gt;Node7</title>
<path fill="none" stroke="#9a32cd" stroke-dasharray="5,2" d="M284.22,-118.65C298.85,-122.76 316.73,-128.49 332,-135.5 353.41,-145.33 359.47,-147.76 377,-163.5 386.66,-172.17 384,-179.6 395,-186.5 400.49,-189.94 406.4,-192.9 412.53,-195.43"/>
<polygon fill="#9a32cd" stroke="#9a32cd" points="284.79,-115.18 274.23,-115.96 282.97,-121.94 284.79,-115.18"/>
<text text-anchor="middle" x="363.5" y="-166.5" font-family="Helvetica,sans-Serif" font-size="10.00"> color</text>
</g>
<!-- Node9 -->
<g id="node9" class="node">
<title>Node9</title>
<g id="a_node9"><a xlink:href="classcom_1_1fs_1_1starfarer_1_1api_1_1util_1_1FaderUtil.html" target="_top" xlink:title=" ">
<polygon fill="none" stroke="black" points="196.5,-144.5 196.5,-174.5 312.5,-174.5 312.5,-144.5 196.5,-144.5"/>
<text text-anchor="start" x="204.5" y="-162.5" font-family="Helvetica,sans-Serif" font-size="10.00">com.fs.starfarer.api.util.</text>
<text text-anchor="middle" x="254.5" y="-151.5" font-family="Helvetica,sans-Serif" font-size="10.00">FaderUtil</text>
</a>
</g>
</g>
<!-- Node9&#45;&gt;Node7 -->
<g id="edge8" class="edge">
<title>Node9&#45;&gt;Node7</title>
<path fill="none" stroke="#9a32cd" stroke-dasharray="5,2" d="M322.73,-173.22C356.35,-180.07 397.12,-188.39 431.61,-195.43"/>
<polygon fill="#9a32cd" stroke="#9a32cd" points="323.04,-169.71 312.54,-171.14 321.64,-176.56 323.04,-169.71"/>
<text text-anchor="middle" x="363.5" y="-185.5" font-family="Helvetica,sans-Serif" font-size="10.00"> fader</text>
</g>
<!-- Node10 -->
<g id="node10" class="node">
<title>Node10</title>
<g id="a_node10"><a xlink:href="enumcom_1_1fs_1_1starfarer_1_1api_1_1util_1_1FaderUtil_1_1State.html" target="_top" xlink:title=" ">
<polygon fill="none" stroke="black" points="0,-144.5 0,-174.5 116,-174.5 116,-144.5 0,-144.5"/>
<text text-anchor="start" x="8" y="-162.5" font-family="Helvetica,sans-Serif" font-size="10.00">com.fs.starfarer.api.util.</text>
<text text-anchor="middle" x="58" y="-151.5" font-family="Helvetica,sans-Serif" font-size="10.00">FaderUtil.State</text>
</a>
</g>
</g>
<!-- Node10&#45;&gt;Node9 -->
<g id="edge9" class="edge">
<title>Node10&#45;&gt;Node9</title>
<path fill="none" stroke="#9a32cd" stroke-dasharray="5,2" d="M126.35,-159.5C149.2,-159.5 174.49,-159.5 196.46,-159.5"/>
<polygon fill="#9a32cd" stroke="#9a32cd" points="126.04,-156 116.04,-159.5 126.04,-163 126.04,-156"/>
<text text-anchor="middle" x="146.5" y="-162.5" font-family="Helvetica,sans-Serif" font-size="10.00"> state</text>
</g>
<!-- Node11 -->
<g id="node11" class="node">
<title>Node11</title>
<g id="a_node11"><a xlink:title=" ">
<polygon fill="none" stroke="#bfbfbf" points="228,-243 228,-262 281,-262 281,-243 228,-243"/>
<text text-anchor="middle" x="254.5" y="-250" font-family="Helvetica,sans-Serif" font-size="10.00">Vector2f</text>
</a>
</g>
</g>
<!-- Node11&#45;&gt;Node7 -->
<g id="edge10" class="edge">
<title>Node11&#45;&gt;Node7</title>
<path fill="none" stroke="#9a32cd" stroke-dasharray="5,2" d="M291.23,-246.5C323.66,-241.05 372.87,-232.78 415.95,-225.54"/>
<polygon fill="#9a32cd" stroke="#9a32cd" points="290.59,-243.05 281.31,-248.16 291.75,-249.96 290.59,-243.05"/>
<text text-anchor="middle" x="363.5" y="-249.5" font-family="Helvetica,sans-Serif" font-size="10.00"> offset</text>
<text text-anchor="middle" x="363.5" y="-238.5" font-family="Helvetica,sans-Serif" font-size="10.00">vel</text>
</g>
<!-- Node12 -->
<g id="node12" class="node">
<title>Node12</title>
<g id="a_node12"><a xlink:href="interfacecom_1_1fs_1_1starfarer_1_1api_1_1graphics_1_1SpriteAPI.html" target="_top" xlink:title=" ">
<polygon fill="none" stroke="black" points="184.5,-193.5 184.5,-223.5 324.5,-223.5 324.5,-193.5 184.5,-193.5"/>
<text text-anchor="start" x="192.5" y="-211.5" font-family="Helvetica,sans-Serif" font-size="10.00">com.fs.starfarer.api.graphics.</text>
<text text-anchor="middle" x="254.5" y="-200.5" font-family="Helvetica,sans-Serif" font-size="10.00">SpriteAPI</text>
</a>
</g>
</g>
<!-- Node12&#45;&gt;Node7 -->
<g id="edge11" class="edge">
<title>Node12&#45;&gt;Node7</title>
<path fill="none" stroke="#9a32cd" stroke-dasharray="5,2" d="M334.89,-209.14C355.12,-209.3 377.19,-209.47 398.55,-209.64"/>
<polygon fill="#9a32cd" stroke="#9a32cd" points="334.83,-205.63 324.81,-209.05 334.78,-212.63 334.83,-205.63"/>
<text text-anchor="middle" x="363.5" y="-211.5" font-family="Helvetica,sans-Serif" font-size="10.00"> sprite</text>
</g>
<!-- Node13 -->
<g id="node13" class="node">
<title>Node13</title>
<g id="a_node13"><a xlink:title=" ">
<polygon fill="none" stroke="#bfbfbf" points="414.5,-146.5 414.5,-176.5 598.5,-176.5 598.5,-146.5 414.5,-146.5"/>
<text text-anchor="start" x="422.5" y="-164.5" font-family="Helvetica,sans-Serif" font-size="10.00">EnumSet&lt; com.fs.starfarer.api.combat.</text>
<text text-anchor="middle" x="506.5" y="-153.5" font-family="Helvetica,sans-Serif" font-size="10.00">CombatEngineLayers &gt;</text>
</a>
</g>
</g>
<!-- Node13&#45;&gt;Node2 -->
<g id="edge12" class="edge">
<title>Node13&#45;&gt;Node2</title>
<path fill="none" stroke="#9a32cd" stroke-dasharray="5,2" d="M608.8,-174.63C658.46,-182.2 718.86,-193.1 772,-207.5 792.54,-213.07 814.83,-221.24 832.82,-228.39"/>
<polygon fill="#9a32cd" stroke="#9a32cd" points="609.1,-171.13 598.69,-173.11 608.06,-178.06 609.1,-171.13"/>
<text text-anchor="middle" x="704" y="-210.5" font-family="Helvetica,sans-Serif" font-size="10.00"> layers</text>
</g>
<!-- Node14 -->
<g id="node14" class="node">
<title>Node14</title>
<g id="a_node14"><a xlink:title=" ">
<polygon fill="none" stroke="#bfbfbf" points="395,-353.5 395,-383.5 618,-383.5 618,-353.5 395,-353.5"/>
<text text-anchor="start" x="403" y="-371.5" font-family="Helvetica,sans-Serif" font-size="10.00">List&lt; com.fs.starfarer.api.impl.combat.</text>
<text text-anchor="middle" x="506.5" y="-360.5" font-family="Helvetica,sans-Serif" font-size="10.00">CombatEntityPluginWithParticles.ParticleData &gt;</text>
</a>
</g>
</g>
<!-- Node14&#45;&gt;Node2 -->
<g id="edge14" class="edge">
<title>Node14&#45;&gt;Node2</title>
<path fill="none" stroke="#9a32cd" stroke-dasharray="5,2" d="M610.71,-351.48C660.7,-341.16 720.83,-325.63 772,-303.5 799.88,-291.44 829.14,-272.18 848.03,-258.74"/>
<polygon fill="#9a32cd" stroke="#9a32cd" points="609.96,-348.06 600.85,-353.48 611.35,-354.92 609.96,-348.06"/>
<text text-anchor="middle" x="704" y="-359.5" font-family="Helvetica,sans-Serif" font-size="10.00"> darkParticles</text>
<text text-anchor="middle" x="704" y="-348.5" font-family="Helvetica,sans-Serif" font-size="10.00">particles</text>
</g>
<!-- Node15&#45;&gt;Node1 -->
<g id="edge15" class="edge">
<title>Node15&#45;&gt;Node1</title>
<path fill="none" stroke="#9a32cd" stroke-dasharray="5,2" d="M745.41,-391.78C795.45,-366.5 882.22,-319.76 949,-268.5 1009.83,-221.81 1071.5,-154 1097.8,-123.89"/>
<polygon fill="#9a32cd" stroke="#9a32cd" points="743.58,-388.79 736.21,-396.4 746.72,-395.04 743.58,-388.79"/>
<text text-anchor="middle" x="869.5" y="-368.5" font-family="Helvetica,sans-Serif" font-size="10.00"> proj</text>
</g>
<!-- Node16 -->
<g id="node16" class="node">
<title>Node16</title>
<g id="a_node16"><a xlink:href="classcom_1_1fs_1_1starfarer_1_1api_1_1util_1_1IntervalUtil.html" target="_top" xlink:title=" ">
<polygon fill="none" stroke="black" points="811.5,-49.5 811.5,-79.5 927.5,-79.5 927.5,-49.5 811.5,-49.5"/>
<text text-anchor="start" x="819.5" y="-67.5" font-family="Helvetica,sans-Serif" font-size="10.00">com.fs.starfarer.api.util.</text>
<text text-anchor="middle" x="869.5" y="-56.5" font-family="Helvetica,sans-Serif" font-size="10.00">IntervalUtil</text>
</a>
</g>
</g>
<!-- Node16&#45;&gt;Node1 -->
<g id="edge18" class="edge">
<title>Node16&#45;&gt;Node1</title>
<path fill="none" stroke="#9a32cd" stroke-dasharray="5,2" d="M937.74,-63.9C962.55,-64.8 990.77,-67.16 1016,-72.5 1037.57,-77.07 1060.72,-85.76 1078.77,-93.45"/>
<polygon fill="#9a32cd" stroke="#9a32cd" points="937.79,-60.4 927.69,-63.61 937.58,-67.4 937.79,-60.4"/>
<text text-anchor="middle" x="991.5" y="-86.5" font-family="Helvetica,sans-Serif" font-size="10.00"> arcInterval</text>
<text text-anchor="middle" x="991.5" y="-75.5" font-family="Helvetica,sans-Serif" font-size="10.00">interval</text>
</g>
<!-- Node17 -->
<g id="node17" class="node">
<title>Node17</title>
<g id="a_node17"><a xlink:href="interfacecom_1_1fs_1_1starfarer_1_1api_1_1combat_1_1WeaponAPI.html" target="_top" xlink:title=" ">
<polygon fill="none" stroke="black" points="801.5,-0.5 801.5,-30.5 937.5,-30.5 937.5,-0.5 801.5,-0.5"/>
<text text-anchor="start" x="809.5" y="-18.5" font-family="Helvetica,sans-Serif" font-size="10.00">com.fs.starfarer.api.combat.</text>
<text text-anchor="middle" x="869.5" y="-7.5" font-family="Helvetica,sans-Serif" font-size="10.00">WeaponAPI</text>
</a>
</g>
</g>
<!-- Node17&#45;&gt;Node1 -->
<g id="edge19" class="edge">
<title>Node17&#45;&gt;Node1</title>
<path fill="none" stroke="#9a32cd" stroke-dasharray="5,2" d="M947.65,-29.34C970.14,-34.63 994.46,-41.59 1016,-50.5 1043.32,-61.8 1071.92,-80.31 1090.51,-93.37"/>
<polygon fill="#9a32cd" stroke="#9a32cd" points="948.32,-25.91 937.79,-27.1 946.77,-32.73 948.32,-25.91"/>
<text text-anchor="middle" x="991.5" y="-53.5" font-family="Helvetica,sans-Serif" font-size="10.00"> weapon</text>
</g>
</g>
</svg>
