<?xml version="1.0" encoding="UTF-8" standalone="no"?>
<!DOCTYPE svg PUBLIC "-//W3C//DTD SVG 1.1//EN"
 "http://www.w3.org/Graphics/SVG/1.1/DTD/svg11.dtd">
<!-- Generated by graphviz version 2.44.0 ()
 -->
<!-- Title: com.fs.starfarer.api.impl.combat.BaseBattleObjectiveEffect Pages: 1 -->
<svg width="612pt" height="225pt"
 viewBox="0.00 0.00 612.00 225.00" xmlns="http://www.w3.org/2000/svg" xmlns:xlink="http://www.w3.org/1999/xlink">
<g id="graph0" class="graph" transform="scale(1 1) rotate(0) translate(4 221)">
<title>com.fs.starfarer.api.impl.combat.BaseBattleObjectiveEffect</title>
<!-- Node1 -->
<g id="node1" class="node">
<title>Node1</title>
<g id="a_node1"><a xlink:title=" ">
<polygon fill="#bfbfbf" stroke="black" points="448,-89.5 448,-119.5 604,-119.5 604,-89.5 448,-89.5"/>
<text text-anchor="start" x="456" y="-107.5" font-family="Helvetica,sans-Serif" font-size="10.00">com.fs.starfarer.api.impl.combat.</text>
<text text-anchor="middle" x="526" y="-96.5" font-family="Helvetica,sans-Serif" font-size="10.00">BaseBattleObjectiveEffect</text>
</a>
</g>
</g>
<!-- Node2 -->
<g id="node2" class="node">
<title>Node2</title>
<g id="a_node2"><a xlink:href="interfacecom_1_1fs_1_1starfarer_1_1api_1_1combat_1_1BattleObjectiveEffect.html" target="_top" xlink:title=" ">
<polygon fill="none" stroke="black" points="186.5,-186.5 186.5,-216.5 322.5,-216.5 322.5,-186.5 186.5,-186.5"/>
<text text-anchor="start" x="194.5" y="-204.5" font-family="Helvetica,sans-Serif" font-size="10.00">com.fs.starfarer.api.combat.</text>
<text text-anchor="middle" x="254.5" y="-193.5" font-family="Helvetica,sans-Serif" font-size="10.00">BattleObjectiveEffect</text>
</a>
</g>
</g>
<!-- Node2&#45;&gt;Node1 -->
<g id="edge1" class="edge">
<title>Node2&#45;&gt;Node1</title>
<path fill="none" stroke="midnightblue" d="M323.88,-183.74C356.42,-174.62 395.63,-162.67 430,-149.5 452.66,-140.81 477.42,-129.01 495.98,-119.67"/>
<polygon fill="midnightblue" stroke="midnightblue" points="322.71,-180.43 314.01,-186.47 324.58,-187.17 322.71,-180.43"/>
</g>
<!-- Node3 -->
<g id="node3" class="node">
<title>Node3</title>
<g id="a_node3"><a xlink:href="interfacecom_1_1fs_1_1starfarer_1_1api_1_1combat_1_1BattleObjectiveAPI.html" target="_top" xlink:title=" ">
<polygon fill="none" stroke="black" points="186.5,-137.5 186.5,-167.5 322.5,-167.5 322.5,-137.5 186.5,-137.5"/>
<text text-anchor="start" x="194.5" y="-155.5" font-family="Helvetica,sans-Serif" font-size="10.00">com.fs.starfarer.api.combat.</text>
<text text-anchor="middle" x="254.5" y="-144.5" font-family="Helvetica,sans-Serif" font-size="10.00">BattleObjectiveAPI</text>
</a>
</g>
</g>
<!-- Node3&#45;&gt;Node1 -->
<g id="edge2" class="edge">
<title>Node3&#45;&gt;Node1</title>
<path fill="none" stroke="#9a32cd" stroke-dasharray="5,2" d="M332.78,-138.74C368.8,-132.32 411.55,-124.71 447.58,-118.29"/>
<polygon fill="#9a32cd" stroke="#9a32cd" points="332.04,-135.31 322.81,-140.51 333.27,-142.2 332.04,-135.31"/>
<text text-anchor="middle" x="392" y="-137.5" font-family="Helvetica,sans-Serif" font-size="10.00"> objective</text>
</g>
<!-- Node4 -->
<g id="node4" class="node">
<title>Node4</title>
<g id="a_node4"><a xlink:href="interfacecom_1_1fs_1_1starfarer_1_1api_1_1combat_1_1CombatEntityAPI.html" target="_top" xlink:title=" ">
<polygon fill="none" stroke="black" points="0,-161.5 0,-191.5 136,-191.5 136,-161.5 0,-161.5"/>
<text text-anchor="start" x="8" y="-179.5" font-family="Helvetica,sans-Serif" font-size="10.00">com.fs.starfarer.api.combat.</text>
<text text-anchor="middle" x="68" y="-168.5" font-family="Helvetica,sans-Serif" font-size="10.00">CombatEntityAPI</text>
</a>
</g>
</g>
<!-- Node4&#45;&gt;Node3 -->
<g id="edge3" class="edge">
<title>Node4&#45;&gt;Node3</title>
<path fill="none" stroke="midnightblue" d="M146.24,-166.45C159.59,-164.72 173.37,-162.92 186.42,-161.23"/>
<polygon fill="midnightblue" stroke="midnightblue" points="145.6,-163.01 136.13,-167.77 146.5,-169.95 145.6,-163.01"/>
</g>
<!-- Node5 -->
<g id="node5" class="node">
<title>Node5</title>
<g id="a_node5"><a xlink:href="interfacecom_1_1fs_1_1starfarer_1_1api_1_1combat_1_1AssignmentTargetAPI.html" target="_top" xlink:title=" ">
<polygon fill="none" stroke="black" points="0,-112.5 0,-142.5 136,-142.5 136,-112.5 0,-112.5"/>
<text text-anchor="start" x="8" y="-130.5" font-family="Helvetica,sans-Serif" font-size="10.00">com.fs.starfarer.api.combat.</text>
<text text-anchor="middle" x="68" y="-119.5" font-family="Helvetica,sans-Serif" font-size="10.00">AssignmentTargetAPI</text>
</a>
</g>
</g>
<!-- Node5&#45;&gt;Node3 -->
<g id="edge4" class="edge">
<title>Node5&#45;&gt;Node3</title>
<path fill="none" stroke="midnightblue" d="M146.24,-137.97C159.59,-139.77 173.37,-141.64 186.42,-143.41"/>
<polygon fill="midnightblue" stroke="midnightblue" points="146.51,-134.47 136.13,-136.6 145.57,-141.41 146.51,-134.47"/>
</g>
<!-- Node6 -->
<g id="node6" class="node">
<title>Node6</title>
<g id="a_node6"><a xlink:title=" ">
<polygon fill="none" stroke="#bfbfbf" points="173,-88.5 173,-118.5 336,-118.5 336,-88.5 173,-88.5"/>
<text text-anchor="start" x="181" y="-106.5" font-family="Helvetica,sans-Serif" font-size="10.00">Map&lt; com.fs.starfarer.api.combat.</text>
<text text-anchor="middle" x="254.5" y="-95.5" font-family="Helvetica,sans-Serif" font-size="10.00">BattleObjectiveAPI, Integer &gt;</text>
</a>
</g>
</g>
<!-- Node6&#45;&gt;Node1 -->
<g id="edge5" class="edge">
<title>Node6&#45;&gt;Node1</title>
<path fill="none" stroke="#9a32cd" stroke-dasharray="5,2" d="M346.45,-103.84C379.39,-103.96 416.26,-104.1 447.9,-104.21"/>
<polygon fill="#9a32cd" stroke="#9a32cd" points="346.37,-100.34 336.36,-103.8 346.35,-107.34 346.37,-100.34"/>
<text text-anchor="middle" x="392" y="-107.5" font-family="Helvetica,sans-Serif" font-size="10.00"> prevOwners</text>
</g>
<!-- Node7 -->
<g id="node7" class="node">
<title>Node7</title>
<g id="a_node7"><a xlink:title=" ">
<polygon fill="none" stroke="#bfbfbf" points="196,-50 196,-69 313,-69 313,-50 196,-50"/>
<text text-anchor="middle" x="254.5" y="-57" font-family="Helvetica,sans-Serif" font-size="10.00">List&lt; ShipStatusItem &gt;</text>
</a>
</g>
</g>
<!-- Node7&#45;&gt;Node1 -->
<g id="edge6" class="edge">
<title>Node7&#45;&gt;Node1</title>
<path fill="none" stroke="#9a32cd" stroke-dasharray="5,2" d="M323.49,-64.38C355.92,-67.35 395.15,-71.88 430,-78.5 444.95,-81.34 460.99,-85.35 475.55,-89.37"/>
<polygon fill="#9a32cd" stroke="#9a32cd" points="323.48,-60.87 313.21,-63.47 322.87,-67.84 323.48,-60.87"/>
<text text-anchor="middle" x="392" y="-92.5" font-family="Helvetica,sans-Serif" font-size="10.00"> itemsNAFighters</text>
<text text-anchor="middle" x="392" y="-81.5" font-family="Helvetica,sans-Serif" font-size="10.00">itemsNAFrigates</text>
</g>
<!-- Node8 -->
<g id="node8" class="node">
<title>Node8</title>
<g id="a_node8"><a xlink:href="interfacecom_1_1fs_1_1starfarer_1_1api_1_1combat_1_1CombatEngineAPI.html" target="_top" xlink:title=" ">
<polygon fill="none" stroke="black" points="186.5,-0.5 186.5,-30.5 322.5,-30.5 322.5,-0.5 186.5,-0.5"/>
<text text-anchor="start" x="194.5" y="-18.5" font-family="Helvetica,sans-Serif" font-size="10.00">com.fs.starfarer.api.combat.</text>
<text text-anchor="middle" x="254.5" y="-7.5" font-family="Helvetica,sans-Serif" font-size="10.00">CombatEngineAPI</text>
</a>
</g>
</g>
<!-- Node8&#45;&gt;Node1 -->
<g id="edge7" class="edge">
<title>Node8&#45;&gt;Node1</title>
<path fill="none" stroke="#9a32cd" stroke-dasharray="5,2" d="M332.46,-27.47C363.33,-33.5 398.9,-42.02 430,-53.5 455.46,-62.9 482.56,-78.01 501.27,-89.35"/>
<polygon fill="#9a32cd" stroke="#9a32cd" points="333.09,-24.03 322.61,-25.6 331.79,-30.91 333.09,-24.03"/>
<text text-anchor="middle" x="392" y="-56.5" font-family="Helvetica,sans-Serif" font-size="10.00"> engine</text>
</g>
</g>
</svg>
