<?xml version="1.0" encoding="UTF-8" standalone="no"?>
<!DOCTYPE svg PUBLIC "-//W3C//DTD SVG 1.1//EN"
 "http://www.w3.org/Graphics/SVG/1.1/DTD/svg11.dtd">
<!-- Generated by graphviz version 9.0.0 (20230911.1827)
 -->
<!-- Title: com.fs.starfarer.api.impl.campaign.shared.SharedData Pages: 1 -->
<svg width="532pt" height="88pt"
 viewBox="0.00 0.00 532.00 87.50" xmlns="http://www.w3.org/2000/svg" xmlns:xlink="http://www.w3.org/1999/xlink">
<g id="graph0" class="graph" transform="scale(1 1) rotate(0) translate(4 83.5)">
<title>com.fs.starfarer.api.impl.campaign.shared.SharedData</title>
<!-- Node1 -->
<g id="Node000001" class="node">
<title>Node1</title>
<g id="a_Node000001"><a xlink:title=" ">
<polygon fill="#999999" stroke="#666666" points="524,-54.5 327.25,-54.5 327.25,-24 524,-24 524,-54.5"/>
<text text-anchor="start" x="335.25" y="-41" font-family="Helvetica,sans-Serif" font-size="10.00">com.fs.starfarer.api.impl.campaign.shared.</text>
<text text-anchor="middle" x="425.62" y="-29.75" font-family="Helvetica,sans-Serif" font-size="10.00">SharedData</text>
</a>
</g>
</g>
<!-- Node2 -->
<g id="Node000002" class="node">
<title>Node2</title>
<g id="a_Node000002"><a xlink:href="classcom_1_1fs_1_1starfarer_1_1api_1_1impl_1_1campaign_1_1shared_1_1PlayerActivityTracker.html" target="_top" xlink:title=" ">
<polygon fill="white" stroke="#666666" points="196.75,-79.5 0,-79.5 0,-49 196.75,-49 196.75,-79.5"/>
<text text-anchor="start" x="8" y="-66" font-family="Helvetica,sans-Serif" font-size="10.00">com.fs.starfarer.api.impl.campaign.shared.</text>
<text text-anchor="middle" x="98.38" y="-54.75" font-family="Helvetica,sans-Serif" font-size="10.00">PlayerActivityTracker</text>
</a>
</g>
</g>
<!-- Node2&#45;&gt;Node1 -->
<g id="edge1_Node000001_Node000002" class="edge">
<title>Node2&#45;&gt;Node1</title>
<g id="a_edge1_Node000001_Node000002"><a xlink:title=" ">
<path fill="none" stroke="#9a32cd" stroke-dasharray="5,2" d="M208.18,-55.89C246.55,-52.94 289.42,-49.64 326.83,-46.77"/>
<polygon fill="#9a32cd" stroke="#9a32cd" points="208.17,-52.38 198.47,-56.63 208.71,-59.36 208.17,-52.38"/>
</a>
</g>
<text text-anchor="middle" x="262" y="-56" font-family="Helvetica,sans-Serif" font-size="10.00" fill="grey"> playerActivityTracker</text>
</g>
<!-- Node3 -->
<g id="Node000003" class="node">
<title>Node3</title>
<g id="a_Node000003"><a xlink:title=" ">
<polygon fill="white" stroke="#666666" points="196.75,-30.5 0,-30.5 0,0 196.75,0 196.75,-30.5"/>
<text text-anchor="start" x="8" y="-17" font-family="Helvetica,sans-Serif" font-size="10.00">com.fs.starfarer.api.impl.campaign.shared.</text>
<text text-anchor="middle" x="98.38" y="-5.75" font-family="Helvetica,sans-Serif" font-size="10.00">SharedData.UniqueEncounterData</text>
</a>
</g>
</g>
<!-- Node3&#45;&gt;Node1 -->
<g id="edge2_Node000001_Node000003" class="edge">
<title>Node3&#45;&gt;Node1</title>
<g id="a_edge2_Node000001_Node000003"><a xlink:title=" ">
<path fill="none" stroke="#9a32cd" stroke-dasharray="5,2" d="M208.18,-23.28C246.55,-26.11 289.42,-29.27 326.83,-32.03"/>
<polygon fill="#9a32cd" stroke="#9a32cd" points="208.7,-19.81 198.47,-22.56 208.19,-26.79 208.7,-19.81"/>
</a>
</g>
<text text-anchor="middle" x="262" y="-32" font-family="Helvetica,sans-Serif" font-size="10.00" fill="grey"> uniqueEncounterData</text>
</g>
</g>
</svg>
