<?xml version="1.0" encoding="UTF-8" standalone="no"?>
<!DOCTYPE svg PUBLIC "-//W3C//DTD SVG 1.1//EN"
 "http://www.w3.org/Graphics/SVG/1.1/DTD/svg11.dtd">
<!-- Generated by graphviz version 2.49.3 (20211027.1501)
 -->
<!-- Title: com.fs.starfarer.api.impl.campaign.econ.impl.MilitaryBase Pages: 1 -->
<svg width="1031pt" height="328pt"
 viewBox="0.00 0.00 1031.00 328.00" xmlns="http://www.w3.org/2000/svg" xmlns:xlink="http://www.w3.org/1999/xlink">
<g id="graph0" class="graph" transform="scale(1 1) rotate(0) translate(4 324)">
<title>com.fs.starfarer.api.impl.campaign.econ.impl.MilitaryBase</title>
<!-- Node1 -->
<g id="node1" class="node">
<title>Node1</title>
<g id="a_node1"><a xlink:title=" ">
<polygon fill="#bfbfbf" stroke="black" points="814,-73.5 814,-103.5 1023,-103.5 1023,-73.5 814,-73.5"/>
<text text-anchor="start" x="822" y="-91.5" font-family="Helvetica,sans-Serif" font-size="10.00">com.fs.starfarer.api.impl.campaign.econ.impl.</text>
<text text-anchor="middle" x="918.5" y="-80.5" font-family="Helvetica,sans-Serif" font-size="10.00">MilitaryBase</text>
</a>
</g>
</g>
<!-- Node2 -->
<g id="node2" class="node">
<title>Node2</title>
<g id="a_node2"><a xlink:href="classcom_1_1fs_1_1starfarer_1_1api_1_1impl_1_1campaign_1_1econ_1_1impl_1_1BaseIndustry.html" target="_top" xlink:title=" ">
<polygon fill="none" stroke="black" points="536,-147.5 536,-177.5 745,-177.5 745,-147.5 536,-147.5"/>
<text text-anchor="start" x="544" y="-165.5" font-family="Helvetica,sans-Serif" font-size="10.00">com.fs.starfarer.api.impl.campaign.econ.impl.</text>
<text text-anchor="middle" x="640.5" y="-154.5" font-family="Helvetica,sans-Serif" font-size="10.00">BaseIndustry</text>
</a>
</g>
</g>
<!-- Node2&#45;&gt;Node1 -->
<g id="edge1" class="edge">
<title>Node2&#45;&gt;Node1</title>
<path fill="none" stroke="midnightblue" d="M718.71,-145.08C727.59,-142.93 736.51,-140.71 745,-138.5 786.79,-127.61 833.85,-113.87 868.25,-103.55"/>
<polygon fill="midnightblue" stroke="midnightblue" points="717.63,-141.74 708.72,-147.47 719.26,-148.55 717.63,-141.74"/>
</g>
<!-- Node3 -->
<g id="node3" class="node">
<title>Node3</title>
<g id="a_node3"><a xlink:href="interfacecom_1_1fs_1_1starfarer_1_1api_1_1campaign_1_1econ_1_1Industry.html" target="_top" xlink:title=" ">
<polygon fill="none" stroke="black" points="206,-289.5 206,-319.5 375,-319.5 375,-289.5 206,-289.5"/>
<text text-anchor="start" x="214" y="-307.5" font-family="Helvetica,sans-Serif" font-size="10.00">com.fs.starfarer.api.campaign.econ.</text>
<text text-anchor="middle" x="290.5" y="-296.5" font-family="Helvetica,sans-Serif" font-size="10.00">Industry</text>
</a>
</g>
</g>
<!-- Node3&#45;&gt;Node2 -->
<g id="edge2" class="edge">
<title>Node3&#45;&gt;Node2</title>
<path fill="none" stroke="midnightblue" d="M385.22,-301.9C427.42,-297.78 476.88,-288.74 518,-269.5 565.1,-247.46 607.58,-201.4 627.51,-177.54"/>
<polygon fill="midnightblue" stroke="midnightblue" points="384.87,-298.41 375.22,-302.79 385.49,-305.39 384.87,-298.41"/>
</g>
<!-- Node4 -->
<g id="node4" class="node">
<title>Node4</title>
<g id="a_node4"><a xlink:title=" ">
<polygon fill="none" stroke="#bfbfbf" points="261,-251 261,-270 320,-270 320,-251 261,-251"/>
<text text-anchor="middle" x="290.5" y="-258" font-family="Helvetica,sans-Serif" font-size="10.00">Cloneable</text>
</a>
</g>
</g>
<!-- Node4&#45;&gt;Node2 -->
<g id="edge3" class="edge">
<title>Node4&#45;&gt;Node2</title>
<path fill="none" stroke="midnightblue" d="M330.52,-264.3C376.67,-267.41 455.14,-268.26 518,-246.5 560.65,-231.73 602.08,-197.57 623.82,-177.66"/>
<polygon fill="midnightblue" stroke="midnightblue" points="330.58,-260.8 320.35,-263.55 330.06,-267.78 330.58,-260.8"/>
</g>
<!-- Node5 -->
<g id="node5" class="node">
<title>Node5</title>
<g id="a_node5"><a xlink:href="classcom_1_1fs_1_1starfarer_1_1api_1_1combat_1_1MutableStat.html" target="_top" xlink:title=" ">
<polygon fill="none" stroke="black" points="222.5,-179.5 222.5,-209.5 358.5,-209.5 358.5,-179.5 222.5,-179.5"/>
<text text-anchor="start" x="230.5" y="-197.5" font-family="Helvetica,sans-Serif" font-size="10.00">com.fs.starfarer.api.combat.</text>
<text text-anchor="middle" x="290.5" y="-186.5" font-family="Helvetica,sans-Serif" font-size="10.00">MutableStat</text>
</a>
</g>
</g>
<!-- Node5&#45;&gt;Node2 -->
<g id="edge4" class="edge">
<title>Node5&#45;&gt;Node2</title>
<path fill="none" stroke="#9a32cd" stroke-dasharray="5,2" d="M368.59,-183.34C376.82,-182.31 385.08,-181.33 393,-180.5 439.83,-175.57 491.82,-171.55 535.92,-168.58"/>
<polygon fill="#9a32cd" stroke="#9a32cd" points="368.05,-179.88 358.58,-184.63 368.95,-186.82 368.05,-179.88"/>
<text text-anchor="middle" x="455.5" y="-238.5" font-family="Helvetica,sans-Serif" font-size="10.00"> demandReduction</text>
<text text-anchor="middle" x="455.5" y="-227.5" font-family="Helvetica,sans-Serif" font-size="10.00">demandReductionFromOther</text>
<text text-anchor="middle" x="455.5" y="-216.5" font-family="Helvetica,sans-Serif" font-size="10.00">income</text>
<text text-anchor="middle" x="455.5" y="-205.5" font-family="Helvetica,sans-Serif" font-size="10.00">supplyBonus</text>
<text text-anchor="middle" x="455.5" y="-194.5" font-family="Helvetica,sans-Serif" font-size="10.00">supplyBonusFromOther</text>
<text text-anchor="middle" x="455.5" y="-183.5" font-family="Helvetica,sans-Serif" font-size="10.00">upkeep</text>
</g>
<!-- Node6 -->
<g id="node6" class="node">
<title>Node6</title>
<g id="a_node6"><a xlink:href="interfacecom_1_1fs_1_1starfarer_1_1api_1_1campaign_1_1econ_1_1MarketAPI.html" target="_top" xlink:title=" ">
<polygon fill="none" stroke="black" points="206,-130.5 206,-160.5 375,-160.5 375,-130.5 206,-130.5"/>
<text text-anchor="start" x="214" y="-148.5" font-family="Helvetica,sans-Serif" font-size="10.00">com.fs.starfarer.api.campaign.econ.</text>
<text text-anchor="middle" x="290.5" y="-137.5" font-family="Helvetica,sans-Serif" font-size="10.00">MarketAPI</text>
</a>
</g>
</g>
<!-- Node6&#45;&gt;Node2 -->
<g id="edge5" class="edge">
<title>Node6&#45;&gt;Node2</title>
<path fill="none" stroke="#9a32cd" stroke-dasharray="5,2" d="M385.42,-143.26C426.21,-142.97 474.51,-143.55 518,-146.5 523.84,-146.9 529.82,-147.39 535.86,-147.96"/>
<polygon fill="#9a32cd" stroke="#9a32cd" points="385.19,-139.76 375.22,-143.35 385.26,-146.76 385.19,-139.76"/>
<text text-anchor="middle" x="455.5" y="-149.5" font-family="Helvetica,sans-Serif" font-size="10.00"> market</text>
</g>
<!-- Node7 -->
<g id="node7" class="node">
<title>Node7</title>
<g id="a_node7"><a xlink:href="interfacecom_1_1fs_1_1starfarer_1_1api_1_1campaign_1_1rules_1_1HasMemory.html" target="_top" xlink:title=" ">
<polygon fill="none" stroke="black" points="0,-130.5 0,-160.5 169,-160.5 169,-130.5 0,-130.5"/>
<text text-anchor="start" x="8" y="-148.5" font-family="Helvetica,sans-Serif" font-size="10.00">com.fs.starfarer.api.campaign.rules.</text>
<text text-anchor="middle" x="84.5" y="-137.5" font-family="Helvetica,sans-Serif" font-size="10.00">HasMemory</text>
</a>
</g>
</g>
<!-- Node7&#45;&gt;Node6 -->
<g id="edge6" class="edge">
<title>Node7&#45;&gt;Node6</title>
<path fill="none" stroke="midnightblue" d="M179.34,-145.5C188.15,-145.5 197.03,-145.5 205.74,-145.5"/>
<polygon fill="midnightblue" stroke="midnightblue" points="179.06,-142 169.06,-145.5 179.06,-149 179.06,-142"/>
</g>
<!-- Node8 -->
<g id="node8" class="node">
<title>Node8</title>
<g id="a_node8"><a xlink:href="interfacecom_1_1fs_1_1starfarer_1_1api_1_1loading_1_1IndustrySpecAPI.html" target="_top" xlink:title=" ">
<polygon fill="none" stroke="black" points="223.5,-81.5 223.5,-111.5 357.5,-111.5 357.5,-81.5 223.5,-81.5"/>
<text text-anchor="start" x="231.5" y="-99.5" font-family="Helvetica,sans-Serif" font-size="10.00">com.fs.starfarer.api.loading.</text>
<text text-anchor="middle" x="290.5" y="-88.5" font-family="Helvetica,sans-Serif" font-size="10.00">IndustrySpecAPI</text>
</a>
</g>
</g>
<!-- Node8&#45;&gt;Node2 -->
<g id="edge7" class="edge">
<title>Node8&#45;&gt;Node2</title>
<path fill="none" stroke="#9a32cd" stroke-dasharray="5,2" d="M367.86,-99.13C412.67,-102.58 469.79,-110.32 518,-127.5 526.83,-130.65 527.32,-134.95 536,-138.5 544.28,-141.89 553.14,-144.85 562.06,-147.43"/>
<polygon fill="#9a32cd" stroke="#9a32cd" points="367.85,-95.62 357.62,-98.4 367.35,-102.61 367.85,-95.62"/>
<text text-anchor="middle" x="455.5" y="-130.5" font-family="Helvetica,sans-Serif" font-size="10.00"> spec</text>
</g>
<!-- Node9 -->
<g id="node9" class="node">
<title>Node9</title>
<g id="a_node9"><a xlink:href="classcom_1_1fs_1_1starfarer_1_1api_1_1campaign_1_1SpecialItemData.html" target="_top" xlink:title=" ">
<polygon fill="none" stroke="black" points="217.5,-32.5 217.5,-62.5 363.5,-62.5 363.5,-32.5 217.5,-32.5"/>
<text text-anchor="start" x="225.5" y="-50.5" font-family="Helvetica,sans-Serif" font-size="10.00">com.fs.starfarer.api.campaign.</text>
<text text-anchor="middle" x="290.5" y="-39.5" font-family="Helvetica,sans-Serif" font-size="10.00">SpecialItemData</text>
</a>
</g>
</g>
<!-- Node9&#45;&gt;Node2 -->
<g id="edge8" class="edge">
<title>Node9&#45;&gt;Node2</title>
<path fill="none" stroke="#9a32cd" stroke-dasharray="5,2" d="M373.91,-42.16C421.12,-43.46 478.61,-53.05 518,-86.5 536.64,-102.33 517.82,-122.14 536,-138.5 539.7,-141.83 543.77,-144.73 548.1,-147.24"/>
<polygon fill="#9a32cd" stroke="#9a32cd" points="373.75,-38.65 363.7,-42 373.64,-45.65 373.75,-38.65"/>
<text text-anchor="middle" x="455.5" y="-89.5" font-family="Helvetica,sans-Serif" font-size="10.00"> special</text>
</g>
<!-- Node10 -->
<g id="node10" class="node">
<title>Node10</title>
<g id="a_node10"><a xlink:title=" ">
<polygon fill="none" stroke="#bfbfbf" points="545,-98.5 545,-128.5 736,-128.5 736,-98.5 545,-98.5"/>
<text text-anchor="start" x="553" y="-116.5" font-family="Helvetica,sans-Serif" font-size="10.00">com.fs.starfarer.api.impl.campaign.fleets.</text>
<text text-anchor="middle" x="640.5" y="-105.5" font-family="Helvetica,sans-Serif" font-size="10.00">RouteManager.RouteFleetSpawner</text>
</a>
</g>
</g>
<!-- Node10&#45;&gt;Node1 -->
<g id="edge9" class="edge">
<title>Node10&#45;&gt;Node1</title>
<path fill="none" stroke="midnightblue" d="M746.15,-104.02C768.23,-102.02 791.52,-99.91 813.57,-97.91"/>
<polygon fill="midnightblue" stroke="midnightblue" points="745.74,-100.54 736.1,-104.93 746.37,-107.51 745.74,-100.54"/>
</g>
<!-- Node11 -->
<g id="node11" class="node">
<title>Node11</title>
<g id="a_node11"><a xlink:href="interfacecom_1_1fs_1_1starfarer_1_1api_1_1campaign_1_1listeners_1_1FleetEventListener.html" target="_top" xlink:title=" ">
<polygon fill="none" stroke="black" points="548,-49.5 548,-79.5 733,-79.5 733,-49.5 548,-49.5"/>
<text text-anchor="start" x="556" y="-67.5" font-family="Helvetica,sans-Serif" font-size="10.00">com.fs.starfarer.api.campaign.listeners.</text>
<text text-anchor="middle" x="640.5" y="-56.5" font-family="Helvetica,sans-Serif" font-size="10.00">FleetEventListener</text>
</a>
</g>
</g>
<!-- Node11&#45;&gt;Node1 -->
<g id="edge10" class="edge">
<title>Node11&#45;&gt;Node1</title>
<path fill="none" stroke="midnightblue" d="M743.15,-73.34C766.19,-75.34 790.7,-77.47 813.83,-79.48"/>
<polygon fill="midnightblue" stroke="midnightblue" points="743.29,-69.84 733.02,-72.46 742.68,-76.81 743.29,-69.84"/>
</g>
<!-- Node12 -->
<g id="node12" class="node">
<title>Node12</title>
<g id="a_node12"><a xlink:href="classcom_1_1fs_1_1starfarer_1_1api_1_1util_1_1IntervalUtil.html" target="_top" xlink:title=" ">
<polygon fill="none" stroke="black" points="582.5,-0.5 582.5,-30.5 698.5,-30.5 698.5,-0.5 582.5,-0.5"/>
<text text-anchor="start" x="590.5" y="-18.5" font-family="Helvetica,sans-Serif" font-size="10.00">com.fs.starfarer.api.util.</text>
<text text-anchor="middle" x="640.5" y="-7.5" font-family="Helvetica,sans-Serif" font-size="10.00">IntervalUtil</text>
</a>
</g>
</g>
<!-- Node12&#45;&gt;Node1 -->
<g id="edge11" class="edge">
<title>Node12&#45;&gt;Node1</title>
<path fill="none" stroke="#9a32cd" stroke-dasharray="5,2" d="M708.64,-30.56C720.76,-33.43 733.28,-36.48 745,-39.5 786.3,-50.15 832.8,-63.43 867.1,-73.48"/>
<polygon fill="#9a32cd" stroke="#9a32cd" points="709.1,-27.08 698.56,-28.21 707.5,-33.89 709.1,-27.08"/>
<text text-anchor="middle" x="779.5" y="-55.5" font-family="Helvetica,sans-Serif" font-size="10.00"> tracker</text>
</g>
</g>
</svg>
