<?xml version="1.0" encoding="UTF-8" standalone="no"?>
<!DOCTYPE svg PUBLIC "-//W3C//DTD SVG 1.1//EN"
 "http://www.w3.org/Graphics/SVG/1.1/DTD/svg11.dtd">
<!-- Generated by graphviz version 12.2.0 (20241103.1931)
 -->
<!-- Title: com.fs.starfarer.api.impl.campaign.intel.bar.events.ScientistAICoreIntel Pages: 1 -->
<!--zoomable 563 -->

<svg id="main" version="1.1" xmlns="http://www.w3.org/2000/svg" xmlns:xlink="http://www.w3.org/1999/xlink" xml:space="preserve" onload="init(evt)">

<style type="text/css"><![CDATA[
.node, .edge {opacity: 0.7;}
.node.selected, .edge.selected {opacity: 1;}
.edge:hover path { stroke: red; }
.edge:hover polygon { stroke: red; fill: red; }
]]></style>

<defs>
  <circle id="rim" cx="0" cy="0" r="7"/>
  <circle id="rim2" cx="0" cy="0" r="3.5"/>
  <g id="zoomPlus">
    <use xlink:href="#rim" fill="#404040"><set attributeName="fill" to="#808080" begin="zoomplus.mouseover" end="zoomplus.mouseout"/></use>
    <path d="M-4,0h8M0,-4v8" fill="none" stroke="white" stroke-width="1.5" pointer-events="none"/>
  </g>
  <g id="zoomMin">
    <use xlink:href="#rim" fill="#404040"><set attributeName="fill" to="#808080" begin="zoomminus.mouseover" end="zoomminus.mouseout"/></use>
    <path d="M-4,0h8" fill="none" stroke="white" stroke-width="1.5" pointer-events="none"/>
  </g>
  <g id="arrowUp" transform="translate(30 24)">
    <use xlink:href="#rim"/>
    <path pointer-events="none" fill="none" stroke="white" stroke-width="1.5" d="M0,-3.0v7 M-2.5,-0.5L0,-3.0L2.5,-0.5"/>
  </g>
  <g id="arrowRight" transform="rotate(90) translate(36 -43)">
    <use xlink:href="#rim"/>
    <path pointer-events="none" fill="none" stroke="white" stroke-width="1.5" d="M0,-3.0v7 M-2.5,-0.5L0,-3.0L2.5,-0.5"/>
  </g>
  <g id="arrowDown" transform="rotate(180) translate(-30 -48)">
    <use xlink:href="#rim"/>
    <path pointer-events="none" fill="none" stroke="white" stroke-width="1.5" d="M0,-3.0v7 M-2.5,-0.5L0,-3.0L2.5,-0.5"/>
  </g>
  <g id="arrowLeft" transform="rotate(270) translate(-36 17)">
    <use xlink:href="#rim"/>
    <path pointer-events="none" fill="none" stroke="white" stroke-width="1.5" d="M0,-3.0v7 M-2.5,-0.5L0,-3.0L2.5,-0.5"/>
  </g>
  <g id="resetDef">
    <use xlink:href="#rim2" fill="#404040"><set attributeName="fill" to="#808080" begin="reset.mouseover" end="reset.mouseout"/></use>
  </g>
</defs>
<script type="application/ecmascript">
var viewWidth = 1835;
var viewHeight = 563;
var sectionId = 'dynsection-1';
</script>
<script type="application/ecmascript" xlink:href="svg.min.js"/>
<svg id="graph" class="graph">
<g id="viewport">
<title>com.fs.starfarer.api.impl.campaign.intel.bar.events.ScientistAICoreIntel</title>
<!-- Node1 -->
<g id="Node000001" class="node">
<title>Node1</title>
<g id="a_Node000001"><a xlink:title=" ">
<polygon fill="#999999" stroke="#666666" points="1826.75,-334.5 1594,-334.5 1594,-304 1826.75,-304 1826.75,-334.5"/>
<text text-anchor="start" x="1602" y="-321" font-family="Helvetica,sans-Serif" font-size="10.00">com.fs.starfarer.api.impl.campaign.intel.bar.events.</text>
<text text-anchor="middle" x="1710.38" y="-309.75" font-family="Helvetica,sans-Serif" font-size="10.00">ScientistAICoreIntel</text>
</a>
</g>
</g>
<!-- Node2 -->
<g id="Node000002" class="node">
<title>Node2</title>
<g id="a_Node000002"><a xlink:href="classcom_1_1fs_1_1starfarer_1_1api_1_1impl_1_1campaign_1_1intel_1_1BaseIntelPlugin.html" target="_top" xlink:title=" ">
<polygon fill="white" stroke="#666666" points="1472.88,-419.5 1287.38,-419.5 1287.38,-389 1472.88,-389 1472.88,-419.5"/>
<text text-anchor="start" x="1295.38" y="-406" font-family="Helvetica,sans-Serif" font-size="10.00">com.fs.starfarer.api.impl.campaign.intel.</text>
<text text-anchor="middle" x="1380.12" y="-394.75" font-family="Helvetica,sans-Serif" font-size="10.00">BaseIntelPlugin</text>
</a>
</g>
</g>
<!-- Node2&#45;&gt;Node1 -->
<g id="edge1_Node000001_Node000002" class="edge">
<title>Node2&#45;&gt;Node1</title>
<g id="a_edge1_Node000001_Node000002"><a xlink:title=" ">
<path fill="none" stroke="#63b8ff" d="M1452.73,-385.71C1511.29,-370.54 1593.18,-349.34 1648.58,-334.99"/>
<polygon fill="#63b8ff" stroke="#63b8ff" points="1451.98,-382.29 1443.18,-388.18 1453.74,-389.06 1451.98,-382.29"/>
</a>
</g>
</g>
<!-- Node3 -->
<g id="Node000003" class="node">
<title>Node3</title>
<g id="a_Node000003"><a xlink:href="interfacecom_1_1fs_1_1starfarer_1_1api_1_1campaign_1_1comm_1_1IntelInfoPlugin.html" target="_top" xlink:title=" ">
<polygon fill="white" stroke="#666666" points="1125,-517.5 950.75,-517.5 950.75,-487 1125,-487 1125,-517.5"/>
<text text-anchor="start" x="958.75" y="-504" font-family="Helvetica,sans-Serif" font-size="10.00">com.fs.starfarer.api.campaign.comm.</text>
<text text-anchor="middle" x="1037.88" y="-492.75" font-family="Helvetica,sans-Serif" font-size="10.00">IntelInfoPlugin</text>
</a>
</g>
</g>
<!-- Node3&#45;&gt;Node2 -->
<g id="edge2_Node000002_Node000003" class="edge">
<title>Node3&#45;&gt;Node2</title>
<g id="a_edge2_Node000002_Node000003"><a xlink:title=" ">
<path fill="none" stroke="#63b8ff" d="M1129.65,-483.98C1138.75,-481.84 1147.83,-479.59 1156.5,-477.25 1219.73,-460.22 1291.48,-435.73 1336.03,-419.91"/>
<polygon fill="#63b8ff" stroke="#63b8ff" points="1129,-480.54 1120.03,-486.19 1130.56,-487.36 1129,-480.54"/>
</a>
</g>
</g>
<!-- Node4 -->
<g id="Node000004" class="node">
<title>Node4</title>
<g id="a_Node000004"><a xlink:title=" ">
<polygon fill="white" stroke="#666666" points="1138.88,-468.5 936.88,-468.5 936.88,-438 1138.88,-438 1138.88,-468.5"/>
<text text-anchor="start" x="944.88" y="-455" font-family="Helvetica,sans-Serif" font-size="10.00">com.fs.starfarer.api.impl.campaign.rulecmd.</text>
<text text-anchor="middle" x="1037.88" y="-443.75" font-family="Helvetica,sans-Serif" font-size="10.00">CallEvent.CallableEvent</text>
</a>
</g>
</g>
<!-- Node4&#45;&gt;Node2 -->
<g id="edge3_Node000002_Node000004" class="edge">
<title>Node4&#45;&gt;Node2</title>
<g id="a_edge3_Node000002_Node000004"><a xlink:title=" ">
<path fill="none" stroke="#63b8ff" d="M1150.25,-437.21C1194.57,-430.83 1244.95,-423.57 1287.15,-417.5"/>
<polygon fill="#63b8ff" stroke="#63b8ff" points="1150.02,-433.71 1140.62,-438.6 1151.02,-440.64 1150.02,-433.71"/>
</a>
</g>
</g>
<!-- Node5 -->
<g id="Node000005" class="node">
<title>Node5</title>
<g id="a_Node000005"><a xlink:href="interfacecom_1_1fs_1_1starfarer_1_1api_1_1EveryFrameScript.html" target="_top" xlink:title=" ">
<polygon fill="white" stroke="#666666" points="1100.25,-419.5 975.5,-419.5 975.5,-389 1100.25,-389 1100.25,-419.5"/>
<text text-anchor="start" x="983.5" y="-406" font-family="Helvetica,sans-Serif" font-size="10.00">com.fs.starfarer.api.Every</text>
<text text-anchor="middle" x="1037.88" y="-394.75" font-family="Helvetica,sans-Serif" font-size="10.00">FrameScript</text>
</a>
</g>
</g>
<!-- Node5&#45;&gt;Node2 -->
<g id="edge4_Node000002_Node000005" class="edge">
<title>Node5&#45;&gt;Node2</title>
<g id="a_edge4_Node000002_Node000005"><a xlink:title=" ">
<path fill="none" stroke="#63b8ff" d="M1111.81,-404.25C1163.1,-404.25 1232.13,-404.25 1287.19,-404.25"/>
<polygon fill="#63b8ff" stroke="#63b8ff" points="1112.01,-400.75 1102.01,-404.25 1112.01,-407.75 1112.01,-400.75"/>
</a>
</g>
</g>
<!-- Node6 -->
<g id="Node000006" class="node">
<title>Node6</title>
<g id="a_Node000006"><a xlink:title=" ">
<polygon fill="white" stroke="#666666" points="1156.5,-321.5 919.25,-321.5 919.25,-291 1156.5,-291 1156.5,-321.5"/>
<text text-anchor="start" x="927.25" y="-308" font-family="Helvetica,sans-Serif" font-size="10.00">com.fs.starfarer.api.impl.campaign.</text>
<text text-anchor="middle" x="1037.88" y="-296.75" font-family="Helvetica,sans-Serif" font-size="10.00">CommRelayEntityPlugin.CommSnifferReadableIntel</text>
</a>
</g>
</g>
<!-- Node6&#45;&gt;Node2 -->
<g id="edge5_Node000002_Node000006" class="edge">
<title>Node6&#45;&gt;Node2</title>
<g id="a_edge5_Node000002_Node000006"><a xlink:title=" ">
<path fill="none" stroke="#63b8ff" d="M1129.65,-324.52C1138.75,-326.66 1147.83,-328.91 1156.5,-331.25 1219.73,-348.28 1291.48,-372.77 1336.03,-388.59"/>
<polygon fill="#63b8ff" stroke="#63b8ff" points="1130.56,-321.14 1120.03,-322.31 1129,-327.96 1130.56,-321.14"/>
</a>
</g>
</g>
<!-- Node7 -->
<g id="Node000007" class="node">
<title>Node7</title>
<g id="a_Node000007"><a xlink:href="interfacecom_1_1fs_1_1starfarer_1_1api_1_1campaign_1_1SectorEntityToken.html" target="_top" xlink:title=" ">
<polygon fill="white" stroke="#666666" points="1110.38,-370.5 965.38,-370.5 965.38,-340 1110.38,-340 1110.38,-370.5"/>
<text text-anchor="start" x="973.38" y="-357" font-family="Helvetica,sans-Serif" font-size="10.00">com.fs.starfarer.api.campaign.</text>
<text text-anchor="middle" x="1037.88" y="-345.75" font-family="Helvetica,sans-Serif" font-size="10.00">SectorEntityToken</text>
</a>
</g>
</g>
<!-- Node7&#45;&gt;Node1 -->
<g id="edge9_Node000001_Node000007" class="edge">
<title>Node7&#45;&gt;Node1</title>
<g id="a_edge9_Node000001_Node000007"><a xlink:title=" ">
<path fill="none" stroke="#9a32cd" stroke-dasharray="5,2" d="M1121.79,-350.8C1240.45,-344.43 1459.18,-332.68 1593.7,-325.46"/>
<polygon fill="#9a32cd" stroke="#9a32cd" points="1121.94,-347.29 1112.14,-351.32 1122.31,-354.27 1121.94,-347.29"/>
</a>
</g>
<text text-anchor="middle" x="1380.12" y="-344.9" font-family="Helvetica,sans-Serif" font-size="10.00" fill="grey"> cache</text>
</g>
<!-- Node7&#45;&gt;Node2 -->
<g id="edge6_Node000002_Node000007" class="edge">
<title>Node7&#45;&gt;Node2</title>
<g id="a_edge6_Node000002_Node000007"><a xlink:title=" ">
<path fill="none" stroke="#9a32cd" stroke-dasharray="5,2" d="M1121.71,-367.18C1171.71,-374.38 1235.51,-383.57 1287.08,-390.99"/>
<polygon fill="#9a32cd" stroke="#9a32cd" points="1122.51,-363.76 1112.12,-365.8 1121.51,-370.69 1122.51,-363.76"/>
</a>
</g>
<text text-anchor="middle" x="1210.12" y="-385.89" font-family="Helvetica,sans-Serif" font-size="10.00" fill="grey"> postingLocation</text>
</g>
<!-- Node8 -->
<g id="Node000008" class="node">
<title>Node8</title>
<g id="a_Node000008"><a xlink:href="interfacecom_1_1fs_1_1starfarer_1_1api_1_1campaign_1_1rules_1_1HasMemory.html" target="_top" xlink:title=" ">
<polygon fill="white" stroke="#666666" points="168.25,-320.5 0,-320.5 0,-290 168.25,-290 168.25,-320.5"/>
<text text-anchor="start" x="8" y="-307" font-family="Helvetica,sans-Serif" font-size="10.00">com.fs.starfarer.api.campaign.rules.</text>
<text text-anchor="middle" x="84.12" y="-295.75" font-family="Helvetica,sans-Serif" font-size="10.00">HasMemory</text>
</a>
</g>
</g>
<!-- Node8&#45;&gt;Node7 -->
<g id="edge7_Node000007_Node000008" class="edge">
<title>Node8&#45;&gt;Node7</title>
<g id="a_edge7_Node000007_Node000008"><a xlink:title=" ">
<path fill="none" stroke="#63b8ff" d="M180,-318.66C182.1,-318.87 184.19,-319.06 186.25,-319.25 474.05,-345.2 818.36,-352.51 965.03,-354.52"/>
<polygon fill="#63b8ff" stroke="#63b8ff" points="180.48,-315.19 170.16,-317.61 179.73,-322.15 180.48,-315.19"/>
</a>
</g>
</g>
<!-- Node20 -->
<g id="Node000020" class="node">
<title>Node20</title>
<g id="a_Node000020"><a xlink:href="interfacecom_1_1fs_1_1starfarer_1_1api_1_1campaign_1_1econ_1_1MarketAPI.html" target="_top" xlink:title=" ">
<polygon fill="white" stroke="#666666" points="402.38,-275.5 234.12,-275.5 234.12,-245 402.38,-245 402.38,-275.5"/>
<text text-anchor="start" x="242.12" y="-262" font-family="Helvetica,sans-Serif" font-size="10.00">com.fs.starfarer.api.campaign.econ.</text>
<text text-anchor="middle" x="318.25" y="-250.75" font-family="Helvetica,sans-Serif" font-size="10.00">MarketAPI</text>
</a>
</g>
</g>
<!-- Node8&#45;&gt;Node20 -->
<g id="edge21_Node000020_Node000008" class="edge">
<title>Node8&#45;&gt;Node20</title>
<g id="a_edge21_Node000020_Node000008"><a xlink:title=" ">
<path fill="none" stroke="#63b8ff" d="M177.58,-287.33C196.94,-283.57 217.2,-279.64 236.11,-275.98"/>
<polygon fill="#63b8ff" stroke="#63b8ff" points="176.95,-283.88 167.8,-289.22 178.28,-290.76 176.95,-283.88"/>
</a>
</g>
</g>
<!-- Node21 -->
<g id="Node000021" class="node">
<title>Node21</title>
<g id="a_Node000021"><a xlink:href="interfacecom_1_1fs_1_1starfarer_1_1api_1_1characters_1_1PersonAPI.html" target="_top" xlink:title=" ">
<polygon fill="white" stroke="#666666" points="598,-320.5 449.25,-320.5 449.25,-290 598,-290 598,-320.5"/>
<text text-anchor="start" x="457.25" y="-307" font-family="Helvetica,sans-Serif" font-size="10.00">com.fs.starfarer.api.characters.</text>
<text text-anchor="middle" x="523.62" y="-295.75" font-family="Helvetica,sans-Serif" font-size="10.00">PersonAPI</text>
</a>
</g>
</g>
<!-- Node8&#45;&gt;Node21 -->
<g id="edge23_Node000021_Node000008" class="edge">
<title>Node8&#45;&gt;Node21</title>
<g id="a_edge23_Node000021_Node000008"><a xlink:title=" ">
<path fill="none" stroke="#63b8ff" d="M179.85,-305.25C260.52,-305.25 374.79,-305.25 448.81,-305.25"/>
<polygon fill="#63b8ff" stroke="#63b8ff" points="180.22,-301.75 170.22,-305.25 180.22,-308.75 180.22,-301.75"/>
</a>
</g>
</g>
<!-- Node9 -->
<g id="Node000009" class="node">
<title>Node9</title>
<g id="a_Node000009"><a xlink:title=" ">
<polygon fill="white" stroke="#666666" points="1074.38,-554.88 1001.38,-554.88 1001.38,-535.62 1074.38,-535.62 1074.38,-554.88"/>
<text text-anchor="middle" x="1037.88" y="-541.38" font-family="Helvetica,sans-Serif" font-size="10.00">Set&lt; String &gt;</text>
</a>
</g>
</g>
<!-- Node9&#45;&gt;Node2 -->
<g id="edge8_Node000002_Node000009" class="edge">
<title>Node9&#45;&gt;Node2</title>
<g id="a_edge8_Node000002_Node000009"><a xlink:title=" ">
<path fill="none" stroke="#9a32cd" stroke-dasharray="5,2" d="M1085.98,-541.36C1107.85,-538.62 1133.95,-533.99 1156.5,-526.25 1234.87,-499.34 1318.2,-446.16 1356.93,-419.81"/>
<polygon fill="#9a32cd" stroke="#9a32cd" points="1085.68,-537.87 1076.15,-542.49 1086.48,-544.82 1085.68,-537.87"/>
</a>
</g>
<text text-anchor="middle" x="1210.12" y="-520.91" font-family="Helvetica,sans-Serif" font-size="10.00" fill="grey"> tagsForSort</text>
</g>
<!-- Node10 -->
<g id="Node000010" class="node">
<title>Node10</title>
<g id="a_Node000010"><a xlink:href="interfacecom_1_1fs_1_1starfarer_1_1api_1_1campaign_1_1StarSystemAPI.html" target="_top" xlink:title=" ">
<polygon fill="white" stroke="#666666" points="1452.62,-295.5 1307.62,-295.5 1307.62,-265 1452.62,-265 1452.62,-295.5"/>
<text text-anchor="start" x="1315.62" y="-282" font-family="Helvetica,sans-Serif" font-size="10.00">com.fs.starfarer.api.campaign.</text>
<text text-anchor="middle" x="1380.12" y="-270.75" font-family="Helvetica,sans-Serif" font-size="10.00">StarSystemAPI</text>
</a>
</g>
</g>
<!-- Node10&#45;&gt;Node1 -->
<g id="edge10_Node000001_Node000010" class="edge">
<title>Node10&#45;&gt;Node1</title>
<g id="a_edge10_Node000001_Node000010"><a xlink:title=" ">
<path fill="none" stroke="#9a32cd" stroke-dasharray="5,2" d="M1464.13,-290.11C1503.41,-294.78 1550.97,-300.43 1593.71,-305.51"/>
<polygon fill="#9a32cd" stroke="#9a32cd" points="1464.6,-286.64 1454.26,-288.94 1463.78,-293.59 1464.6,-286.64"/>
</a>
</g>
<text text-anchor="middle" x="1545.25" y="-304.99" font-family="Helvetica,sans-Serif" font-size="10.00" fill="grey"> cacheSystem</text>
</g>
<!-- Node11 -->
<g id="Node000011" class="node">
<title>Node11</title>
<g id="a_Node000011"><a xlink:href="interfacecom_1_1fs_1_1starfarer_1_1api_1_1campaign_1_1LocationAPI.html" target="_top" xlink:title=" ">
<polygon fill="white" stroke="#666666" points="1110.38,-272.5 965.38,-272.5 965.38,-242 1110.38,-242 1110.38,-272.5"/>
<text text-anchor="start" x="973.38" y="-259" font-family="Helvetica,sans-Serif" font-size="10.00">com.fs.starfarer.api.campaign.</text>
<text text-anchor="middle" x="1037.88" y="-247.75" font-family="Helvetica,sans-Serif" font-size="10.00">LocationAPI</text>
</a>
</g>
</g>
<!-- Node11&#45;&gt;Node10 -->
<g id="edge11_Node000010_Node000011" class="edge">
<title>Node11&#45;&gt;Node10</title>
<g id="a_edge11_Node000010_Node000011"><a xlink:title=" ">
<path fill="none" stroke="#63b8ff" d="M1122.07,-262.87C1178.76,-266.71 1253.06,-271.73 1307.19,-275.39"/>
<polygon fill="#63b8ff" stroke="#63b8ff" points="1122.34,-259.38 1112.13,-262.2 1121.87,-266.37 1122.34,-259.38"/>
</a>
</g>
</g>
<!-- Node12 -->
<g id="Node000012" class="node">
<title>Node12</title>
<g id="a_Node000012"><a xlink:href="classcom_1_1fs_1_1starfarer_1_1api_1_1impl_1_1campaign_1_1intel_1_1bar_1_1events_1_1ScientistAICoreBarEvent.html" target="_top" xlink:title=" ">
<polygon fill="white" stroke="#666666" points="1496.5,-239.5 1263.75,-239.5 1263.75,-209 1496.5,-209 1496.5,-239.5"/>
<text text-anchor="start" x="1271.75" y="-226" font-family="Helvetica,sans-Serif" font-size="10.00">com.fs.starfarer.api.impl.campaign.intel.bar.events.</text>
<text text-anchor="middle" x="1380.12" y="-214.75" font-family="Helvetica,sans-Serif" font-size="10.00">ScientistAICoreBarEvent</text>
</a>
</g>
</g>
<!-- Node12&#45;&gt;Node1 -->
<g id="edge12_Node000001_Node000012" class="edge">
<title>Node12&#45;&gt;Node1</title>
<g id="a_edge12_Node000001_Node000012"><a xlink:title=" ">
<path fill="none" stroke="#9a32cd" stroke-dasharray="5,2" d="M1449.48,-243C1464.96,-247.3 1481.31,-251.89 1496.5,-256.25 1551.52,-272.02 1614.34,-290.69 1657.39,-303.6"/>
<polygon fill="#9a32cd" stroke="#9a32cd" points="1450.43,-239.63 1439.86,-240.33 1448.56,-246.38 1450.43,-239.63"/>
</a>
</g>
<text text-anchor="middle" x="1545.25" y="-280.17" font-family="Helvetica,sans-Serif" font-size="10.00" fill="grey"> event</text>
</g>
<!-- Node13 -->
<g id="Node000013" class="node">
<title>Node13</title>
<g id="a_Node000013"><a xlink:href="classcom_1_1fs_1_1starfarer_1_1api_1_1impl_1_1campaign_1_1intel_1_1bar_1_1events_1_1BaseGetCommodityBarEvent.html" target="_top" xlink:title=" ">
<polygon fill="white" stroke="#666666" points="1154.25,-223.5 921.5,-223.5 921.5,-193 1154.25,-193 1154.25,-223.5"/>
<text text-anchor="start" x="929.5" y="-210" font-family="Helvetica,sans-Serif" font-size="10.00">com.fs.starfarer.api.impl.campaign.intel.bar.events.</text>
<text text-anchor="middle" x="1037.88" y="-198.75" font-family="Helvetica,sans-Serif" font-size="10.00">BaseGetCommodityBarEvent</text>
</a>
</g>
</g>
<!-- Node13&#45;&gt;Node12 -->
<g id="edge13_Node000012_Node000013" class="edge">
<title>Node13&#45;&gt;Node12</title>
<g id="a_edge13_Node000012_Node000013"><a xlink:title=" ">
<path fill="none" stroke="#63b8ff" d="M1165.78,-214.22C1197.81,-215.72 1232.04,-217.33 1263.49,-218.81"/>
<polygon fill="#63b8ff" stroke="#63b8ff" points="1166.21,-210.73 1156.05,-213.76 1165.88,-217.73 1166.21,-210.73"/>
</a>
</g>
</g>
<!-- Node14 -->
<g id="Node000014" class="node">
<title>Node14</title>
<g id="a_Node000014"><a xlink:href="classcom_1_1fs_1_1starfarer_1_1api_1_1impl_1_1campaign_1_1intel_1_1bar_1_1events_1_1BaseBarEvent.html" target="_top" xlink:title=" ">
<polygon fill="white" stroke="#666666" points="848.75,-177.5 616,-177.5 616,-147 848.75,-147 848.75,-177.5"/>
<text text-anchor="start" x="624" y="-164" font-family="Helvetica,sans-Serif" font-size="10.00">com.fs.starfarer.api.impl.campaign.intel.bar.events.</text>
<text text-anchor="middle" x="732.38" y="-152.75" font-family="Helvetica,sans-Serif" font-size="10.00">BaseBarEvent</text>
</a>
</g>
</g>
<!-- Node14&#45;&gt;Node13 -->
<g id="edge14_Node000013_Node000014" class="edge">
<title>Node14&#45;&gt;Node13</title>
<g id="a_edge14_Node000013_Node000014"><a xlink:title=" ">
<path fill="none" stroke="#63b8ff" d="M848.35,-179.68C876.16,-183.89 905.71,-188.37 932.97,-192.5"/>
<polygon fill="#63b8ff" stroke="#63b8ff" points="848.88,-176.22 838.47,-178.18 847.83,-183.14 848.88,-176.22"/>
</a>
</g>
</g>
<!-- Node15 -->
<g id="Node000015" class="node">
<title>Node15</title>
<g id="a_Node000015"><a xlink:href="interfacecom_1_1fs_1_1starfarer_1_1api_1_1impl_1_1campaign_1_1intel_1_1bar_1_1PortsideBarEvent.html" target="_top" xlink:title=" ">
<polygon fill="white" stroke="#666666" points="418.88,-30.5 217.62,-30.5 217.62,0 418.88,0 418.88,-30.5"/>
<text text-anchor="start" x="225.62" y="-17" font-family="Helvetica,sans-Serif" font-size="10.00">com.fs.starfarer.api.impl.campaign.intel.bar.</text>
<text text-anchor="middle" x="318.25" y="-5.75" font-family="Helvetica,sans-Serif" font-size="10.00">PortsideBarEvent</text>
</a>
</g>
</g>
<!-- Node15&#45;&gt;Node14 -->
<g id="edge15_Node000014_Node000015" class="edge">
<title>Node15&#45;&gt;Node14</title>
<g id="a_edge15_Node000014_Node000015"><a xlink:title=" ">
<path fill="none" stroke="#63b8ff" d="M401.05,-33.41C411.22,-35.7 421.48,-38.02 431.25,-40.25 505.45,-57.21 527.7,-50.09 598,-79.25 641.08,-97.12 686.12,-128.15 711.27,-146.79"/>
<polygon fill="#63b8ff" stroke="#63b8ff" points="402.07,-30.05 391.55,-31.28 400.54,-36.88 402.07,-30.05"/>
</a>
</g>
</g>
<!-- Node16 -->
<g id="Node000016" class="node">
<title>Node16</title>
<g id="a_Node000016"><a xlink:href="interfacecom_1_1fs_1_1starfarer_1_1api_1_1campaign_1_1InteractionDialogAPI.html" target="_top" xlink:title=" ">
<polygon fill="white" stroke="#666666" points="390.75,-226.5 245.75,-226.5 245.75,-196 390.75,-196 390.75,-226.5"/>
<text text-anchor="start" x="253.75" y="-213" font-family="Helvetica,sans-Serif" font-size="10.00">com.fs.starfarer.api.campaign.</text>
<text text-anchor="middle" x="318.25" y="-201.75" font-family="Helvetica,sans-Serif" font-size="10.00">InteractionDialogAPI</text>
</a>
</g>
</g>
<!-- Node16&#45;&gt;Node14 -->
<g id="edge16_Node000014_Node000016" class="edge">
<title>Node16&#45;&gt;Node14</title>
<g id="a_edge16_Node000014_Node000016"><a xlink:title=" ">
<path fill="none" stroke="#9a32cd" stroke-dasharray="5,2" d="M402.21,-201.39C463.51,-194.1 547.76,-184.08 615.68,-176.01"/>
<polygon fill="#9a32cd" stroke="#9a32cd" points="402.06,-197.88 392.54,-202.54 402.88,-204.83 402.06,-197.88"/>
</a>
</g>
<text text-anchor="middle" x="523.62" y="-197.15" font-family="Helvetica,sans-Serif" font-size="10.00" fill="grey"> dialog</text>
</g>
<!-- Node17 -->
<g id="Node000017" class="node">
<title>Node17</title>
<g id="a_Node000017"><a xlink:href="interfacecom_1_1fs_1_1starfarer_1_1api_1_1campaign_1_1TextPanelAPI.html" target="_top" xlink:title=" ">
<polygon fill="white" stroke="#666666" points="390.75,-177.5 245.75,-177.5 245.75,-147 390.75,-147 390.75,-177.5"/>
<text text-anchor="start" x="253.75" y="-164" font-family="Helvetica,sans-Serif" font-size="10.00">com.fs.starfarer.api.campaign.</text>
<text text-anchor="middle" x="318.25" y="-152.75" font-family="Helvetica,sans-Serif" font-size="10.00">TextPanelAPI</text>
</a>
</g>
</g>
<!-- Node17&#45;&gt;Node14 -->
<g id="edge17_Node000014_Node000017" class="edge">
<title>Node17&#45;&gt;Node14</title>
<g id="a_edge17_Node000014_Node000017"><a xlink:title=" ">
<path fill="none" stroke="#9a32cd" stroke-dasharray="5,2" d="M402.21,-162.25C463.51,-162.25 547.76,-162.25 615.68,-162.25"/>
<polygon fill="#9a32cd" stroke="#9a32cd" points="402.55,-158.75 392.55,-162.25 402.55,-165.75 402.55,-158.75"/>
</a>
</g>
<text text-anchor="middle" x="523.62" y="-164" font-family="Helvetica,sans-Serif" font-size="10.00" fill="grey"> text</text>
</g>
<!-- Node18 -->
<g id="Node000018" class="node">
<title>Node18</title>
<g id="a_Node000018"><a xlink:href="interfacecom_1_1fs_1_1starfarer_1_1api_1_1campaign_1_1OptionPanelAPI.html" target="_top" xlink:title=" ">
<polygon fill="white" stroke="#666666" points="390.75,-128.5 245.75,-128.5 245.75,-98 390.75,-98 390.75,-128.5"/>
<text text-anchor="start" x="253.75" y="-115" font-family="Helvetica,sans-Serif" font-size="10.00">com.fs.starfarer.api.campaign.</text>
<text text-anchor="middle" x="318.25" y="-103.75" font-family="Helvetica,sans-Serif" font-size="10.00">OptionPanelAPI</text>
</a>
</g>
</g>
<!-- Node18&#45;&gt;Node14 -->
<g id="edge18_Node000014_Node000018" class="edge">
<title>Node18&#45;&gt;Node14</title>
<g id="a_edge18_Node000014_Node000018"><a xlink:title=" ">
<path fill="none" stroke="#9a32cd" stroke-dasharray="5,2" d="M402.21,-123.11C463.51,-130.4 547.76,-140.42 615.68,-148.49"/>
<polygon fill="#9a32cd" stroke="#9a32cd" points="402.88,-119.67 392.54,-121.96 402.06,-126.62 402.88,-119.67"/>
</a>
</g>
<text text-anchor="middle" x="523.62" y="-146.75" font-family="Helvetica,sans-Serif" font-size="10.00" fill="grey"> options</text>
</g>
<!-- Node19 -->
<g id="Node000019" class="node">
<title>Node19</title>
<g id="a_Node000019"><a xlink:title=" ">
<polygon fill="white" stroke="#666666" points="431.25,-79.5 205.25,-79.5 205.25,-49 431.25,-49 431.25,-79.5"/>
<text text-anchor="start" x="213.25" y="-66" font-family="Helvetica,sans-Serif" font-size="10.00">Map&lt; String, com.fs.starfarer.api.campaign.rules.</text>
<text text-anchor="middle" x="318.25" y="-54.75" font-family="Helvetica,sans-Serif" font-size="10.00">MemoryAPI &gt;</text>
</a>
</g>
</g>
<!-- Node19&#45;&gt;Node14 -->
<g id="edge19_Node000014_Node000019" class="edge">
<title>Node19&#45;&gt;Node14</title>
<g id="a_edge19_Node000014_Node000019"><a xlink:title=" ">
<path fill="none" stroke="#9a32cd" stroke-dasharray="5,2" d="M442.69,-81.64C491.48,-89.71 547.78,-100.54 598,-114 630.82,-122.8 667.02,-136.13 693.41,-146.55"/>
<polygon fill="#9a32cd" stroke="#9a32cd" points="443.36,-78.2 432.93,-80.04 442.24,-85.11 443.36,-78.2"/>
</a>
</g>
<text text-anchor="middle" x="523.62" y="-115.75" font-family="Helvetica,sans-Serif" font-size="10.00" fill="grey"> memoryMap</text>
</g>
<!-- Node20&#45;&gt;Node13 -->
<g id="edge25_Node000013_Node000020" class="edge">
<title>Node20&#45;&gt;Node13</title>
<g id="a_edge25_Node000013_Node000020"><a xlink:title=" ">
<path fill="none" stroke="#9a32cd" stroke-dasharray="5,2" d="M413.97,-255.95C529.26,-250.33 729.79,-239.26 901.25,-223.25 907.74,-222.64 914.39,-222 921.11,-221.32"/>
<polygon fill="#9a32cd" stroke="#9a32cd" points="414.07,-252.45 404.25,-256.43 414.41,-259.44 414.07,-252.45"/>
</a>
</g>
<text text-anchor="middle" x="732.38" y="-246.38" font-family="Helvetica,sans-Serif" font-size="10.00" fill="grey"> market</text>
</g>
<!-- Node20&#45;&gt;Node14 -->
<g id="edge20_Node000014_Node000020" class="edge">
<title>Node20&#45;&gt;Node14</title>
<g id="a_edge20_Node000014_Node000020"><a xlink:title=" ">
<path fill="none" stroke="#9a32cd" stroke-dasharray="5,2" d="M401.47,-242.3C417.29,-239.05 433.76,-235.81 449.25,-233 515.06,-221.08 539.53,-242.72 598,-210.25 608.75,-204.28 605.49,-195.63 616,-189.25 623.38,-184.76 631.45,-181.02 639.78,-177.9"/>
<polygon fill="#9a32cd" stroke="#9a32cd" points="401.2,-238.79 392.12,-244.24 402.62,-245.64 401.2,-238.79"/>
</a>
</g>
<text text-anchor="middle" x="523.62" y="-234.75" font-family="Helvetica,sans-Serif" font-size="10.00" fill="grey"> shownAt</text>
</g>
<!-- Node21&#45;&gt;Node13 -->
<g id="edge22_Node000013_Node000021" class="edge">
<title>Node21&#45;&gt;Node13</title>
<g id="a_edge22_Node000013_Node000021"><a xlink:title=" ">
<path fill="none" stroke="#9a32cd" stroke-dasharray="5,2" d="M609.62,-307.46C706.06,-308.32 855.85,-304.18 901.25,-272.25 916.87,-261.27 904.33,-245.16 919.25,-233.25 923.74,-229.67 928.62,-226.57 933.75,-223.88"/>
<polygon fill="#9a32cd" stroke="#9a32cd" points="609.69,-303.96 599.65,-307.35 609.61,-310.96 609.69,-303.96"/>
</a>
</g>
<text text-anchor="middle" x="732.38" y="-309.31" font-family="Helvetica,sans-Serif" font-size="10.00" fill="grey"> person</text>
</g>
<!-- Node22 -->
<g id="Node000022" class="node">
<title>Node22</title>
<g id="a_Node000022"><a xlink:title=" ">
<polygon fill="white" stroke="#666666" points="758.38,-217.88 706.38,-217.88 706.38,-198.62 758.38,-198.62 758.38,-217.88"/>
<text text-anchor="middle" x="732.38" y="-204.38" font-family="Helvetica,sans-Serif" font-size="10.00">Random</text>
</a>
</g>
</g>
<!-- Node22&#45;&gt;Node13 -->
<g id="edge24_Node000013_Node000022" class="edge">
<title>Node22&#45;&gt;Node13</title>
<g id="a_edge24_Node000013_Node000022"><a xlink:title=" ">
<path fill="none" stroke="#9a32cd" stroke-dasharray="5,2" d="M770.05,-208.25C807.5,-208.25 867.57,-208.25 921.25,-208.25"/>
<polygon fill="#9a32cd" stroke="#9a32cd" points="770.24,-204.75 760.24,-208.25 770.24,-211.75 770.24,-204.75"/>
</a>
</g>
<text text-anchor="middle" x="884" y="-210" font-family="Helvetica,sans-Serif" font-size="10.00" fill="grey"> random</text>
</g>
</g>
</svg>

<g id="navigator" transform="translate(0 0)" fill="#404254">
  <rect fill="#f2f5e9" fill-opacity="0.5" stroke="#606060" stroke-width=".5" x="0" y="0" width="60" height="60"/>
  <use id="zoomplus" xlink:href="#zoomPlus" x="17" y="9" onmousedown="handleZoom(evt,'in')"/>
  <use id="zoomminus" xlink:href="#zoomMin" x="42" y="9" onmousedown="handleZoom(evt,'out')"/>
  <use id="reset" xlink:href="#resetDef" x="30" y="36" onmousedown="handleReset()"/>
   <use id="arrowup" xlink:href="#arrowUp" x="0" y="0" onmousedown="handlePan(0,-1)"/>
  <use id="arrowright" xlink:href="#arrowRight" x="0" y="0" onmousedown="handlePan(1,0)"/>
  <use id="arrowdown" xlink:href="#arrowDown" x="0" y="0" onmousedown="handlePan(0,1)"/>
  <use id="arrowleft" xlink:href="#arrowLeft" x="0" y="0" onmousedown="handlePan(-1,0)"/>
</g>
<svg viewBox="0 0 15 15" width="100%" height="30px" preserveAspectRatio="xMaxYMin meet">
 <g id="arrow_out" transform="scale(0.3 0.3)">
  <a xlink:href="classcom_1_1fs_1_1starfarer_1_1api_1_1impl_1_1campaign_1_1intel_1_1bar_1_1events_1_1ScientistAICoreIntel__coll__graph_org.svg" target="_base">
   <rect id="button" ry="5" rx="5" y="6" x="6" height="38" width="38"
        fill="#f2f5e9" fill-opacity="0.5" stroke="#606060" stroke-width="1.0"/>
   <path id="arrow"
     d="M 11.500037,31.436501 C 11.940474,20.09759 22.043105,11.32322 32.158766,21.979434 L 37.068811,17.246167 C 37.068811,17.246167 37.088388,32 37.088388,32 L 22.160133,31.978069 C 22.160133,31.978069 26.997745,27.140456 26.997745,27.140456 C 18.528582,18.264221 13.291696,25.230495 11.500037,31.436501 z"
     style="fill:#404040;"/>
  </a>
 </g>
</svg>

<style type='text/css'>
<![CDATA[
[data-mouse-over-selected='false'] { opacity: 0.7; }
[data-mouse-over-selected='true']  { opacity: 1.0; }
]]>
</style>
<script type="application/ecmascript"><![CDATA[
document.addEventListener('DOMContentLoaded', (event) => {
  highlightEdges();
  highlightAdjacentNodes();
});
]]></script>
</svg>
