<?xml version="1.0" encoding="UTF-8" standalone="no"?>
<!DOCTYPE svg PUBLIC "-//W3C//DTD SVG 1.1//EN"
 "http://www.w3.org/Graphics/SVG/1.1/DTD/svg11.dtd">
<!-- Generated by graphviz version 7.0.5 (20221223.1930)
 -->
<!-- Title: com.fs.starfarer.api.campaign.comm.IntelInfoPlugin.ArrowData Pages: 1 -->
<svg width="235pt" height="193pt"
 viewBox="0.00 0.00 235.00 193.00" xmlns="http://www.w3.org/2000/svg" xmlns:xlink="http://www.w3.org/1999/xlink">
<g id="graph0" class="graph" transform="scale(1 1) rotate(0) translate(4 189)">
<title>com.fs.starfarer.api.campaign.comm.IntelInfoPlugin.ArrowData</title>
<!-- Node1 -->
<g id="node1" class="node">
<title>Node1</title>
<g id="a_node1"><a xlink:title=" ">
<polygon fill="#999999" stroke="#666666" points="227,-30 52,-30 52,0 227,0 227,-30"/>
<text text-anchor="start" x="60" y="-18" font-family="Helvetica,sans-Serif" font-size="10.00">com.fs.starfarer.api.campaign.comm.</text>
<text text-anchor="middle" x="139.5" y="-7" font-family="Helvetica,sans-Serif" font-size="10.00">IntelInfoPlugin.ArrowData</text>
</a>
</g>
</g>
<!-- Node2 -->
<g id="node2" class="node">
<title>Node2</title>
<g id="a_node2"><a xlink:href="interfacecom_1_1fs_1_1starfarer_1_1api_1_1campaign_1_1SectorEntityToken.html" target="_top" xlink:title=" ">
<polygon fill="white" stroke="#666666" points="157.5,-118 11.5,-118 11.5,-88 157.5,-88 157.5,-118"/>
<text text-anchor="start" x="19.5" y="-106" font-family="Helvetica,sans-Serif" font-size="10.00">com.fs.starfarer.api.campaign.</text>
<text text-anchor="middle" x="84.5" y="-95" font-family="Helvetica,sans-Serif" font-size="10.00">SectorEntityToken</text>
</a>
</g>
</g>
<!-- Node2&#45;&gt;Node1 -->
<g id="edge1" class="edge">
<title>Node2&#45;&gt;Node1</title>
<path fill="none" stroke="#9a32cd" stroke-dasharray="5,2" d="M99.61,-78.38C109.48,-62.94 122.04,-43.3 130.4,-30.22"/>
<polygon fill="#9a32cd" stroke="#9a32cd" points="96.84,-76.21 94.4,-86.52 102.73,-79.98 96.84,-76.21"/>
<text text-anchor="middle" x="130.5" y="-62" font-family="Helvetica,sans-Serif" font-size="10.00"> from</text>
<text text-anchor="middle" x="130.5" y="-51" font-family="Helvetica,sans-Serif" font-size="10.00">to</text>
</g>
<!-- Node3 -->
<g id="node3" class="node">
<title>Node3</title>
<g id="a_node3"><a xlink:href="interfacecom_1_1fs_1_1starfarer_1_1api_1_1campaign_1_1rules_1_1HasMemory.html" target="_top" xlink:title=" ">
<polygon fill="white" stroke="#bfbfbf" points="169,-185 0,-185 0,-155 169,-155 169,-185"/>
<text text-anchor="start" x="8" y="-173" font-family="Helvetica,sans-Serif" font-size="10.00">com.fs.starfarer.api.campaign.rules.</text>
<text text-anchor="middle" x="84.5" y="-162" font-family="Helvetica,sans-Serif" font-size="10.00">HasMemory</text>
</a>
</g>
</g>
<!-- Node3&#45;&gt;Node2 -->
<g id="edge2" class="edge">
<title>Node3&#45;&gt;Node2</title>
<path fill="none" stroke="#63b8ff" d="M84.5,-143.28C84.5,-134.81 84.5,-125.7 84.5,-118.39"/>
<polygon fill="#63b8ff" stroke="#63b8ff" points="81,-143.06 84.5,-153.06 88,-143.06 81,-143.06"/>
</g>
<!-- Node4 -->
<g id="node4" class="node">
<title>Node4</title>
<g id="a_node4"><a xlink:title=" ">
<polygon fill="white" stroke="#bfbfbf" points="215,-112.5 176,-112.5 176,-93.5 215,-93.5 215,-112.5"/>
<text text-anchor="middle" x="195.5" y="-100.5" font-family="Helvetica,sans-Serif" font-size="10.00">Color</text>
</a>
</g>
</g>
<!-- Node4&#45;&gt;Node1 -->
<g id="edge3" class="edge">
<title>Node4&#45;&gt;Node1</title>
<path fill="none" stroke="#9a32cd" stroke-dasharray="5,2" d="M183.65,-83.81C173.28,-67.88 158.42,-45.06 148.86,-30.38"/>
<polygon fill="#9a32cd" stroke="#9a32cd" points="180.5,-85.38 188.89,-91.85 186.37,-81.56 180.5,-85.38"/>
<text text-anchor="middle" x="185.5" y="-56.5" font-family="Helvetica,sans-Serif" font-size="10.00"> color</text>
</g>
</g>
</svg>
