<?xml version="1.0" encoding="UTF-8" standalone="no"?>
<!DOCTYPE svg PUBLIC "-//W3C//DTD SVG 1.1//EN"
 "http://www.w3.org/Graphics/SVG/1.1/DTD/svg11.dtd">
<!-- Generated by graphviz version 12.2.0 (20241103.1931)
 -->
<!-- Title: com.fs.starfarer.api.impl.combat.dweller.PseudoparticleJetEffect Pages: 1 -->
<svg width="792pt" height="186pt"
 viewBox="0.00 0.00 792.00 185.50" xmlns="http://www.w3.org/2000/svg" xmlns:xlink="http://www.w3.org/1999/xlink">
<g id="graph0" class="graph" transform="scale(1 1) rotate(0) translate(4 181.5)">
<title>com.fs.starfarer.api.impl.combat.dweller.PseudoparticleJetEffect</title>
<!-- Node1 -->
<g id="Node000001" class="node">
<title>Node1</title>
<g id="a_Node000001"><a xlink:title=" ">
<polygon fill="#999999" stroke="#666666" points="784,-103.5 595.5,-103.5 595.5,-73 784,-73 784,-103.5"/>
<text text-anchor="start" x="603.5" y="-90" font-family="Helvetica,sans-Serif" font-size="10.00">com.fs.starfarer.api.impl.combat.dweller.</text>
<text text-anchor="middle" x="689.75" y="-78.75" font-family="Helvetica,sans-Serif" font-size="10.00">PseudoparticleJetEffect</text>
</a>
</g>
</g>
<!-- Node2 -->
<g id="Node000002" class="node">
<title>Node2</title>
<g id="a_Node000002"><a xlink:href="classcom_1_1fs_1_1starfarer_1_1api_1_1impl_1_1combat_1_1CryofluxTransducerEffect.html" target="_top" xlink:title=" ">
<polygon fill="white" stroke="#666666" points="559.5,-103.5 404,-103.5 404,-73 559.5,-73 559.5,-103.5"/>
<text text-anchor="start" x="412" y="-90" font-family="Helvetica,sans-Serif" font-size="10.00">com.fs.starfarer.api.impl.combat.</text>
<text text-anchor="middle" x="481.75" y="-78.75" font-family="Helvetica,sans-Serif" font-size="10.00">CryofluxTransducerEffect</text>
</a>
</g>
</g>
<!-- Node2&#45;&gt;Node1 -->
<g id="edge1_Node000001_Node000002" class="edge">
<title>Node2&#45;&gt;Node1</title>
<g id="a_edge1_Node000001_Node000002"><a xlink:title=" ">
<path fill="none" stroke="#63b8ff" d="M571.24,-88.25C579.15,-88.25 587.19,-88.25 595.14,-88.25"/>
<polygon fill="#63b8ff" stroke="#63b8ff" points="571.26,-84.75 561.26,-88.25 571.26,-91.75 571.26,-84.75"/>
</a>
</g>
</g>
<!-- Node3 -->
<g id="Node000003" class="node">
<title>Node3</title>
<g id="a_Node000003"><a xlink:href="classcom_1_1fs_1_1starfarer_1_1api_1_1combat_1_1BaseCombatLayeredRenderingPlugin.html" target="_top" xlink:title=" ">
<polygon fill="white" stroke="#666666" points="368,-177.5 190.75,-177.5 190.75,-147 368,-147 368,-177.5"/>
<text text-anchor="start" x="198.75" y="-164" font-family="Helvetica,sans-Serif" font-size="10.00">com.fs.starfarer.api.combat.</text>
<text text-anchor="middle" x="279.38" y="-152.75" font-family="Helvetica,sans-Serif" font-size="10.00">BaseCombatLayeredRenderingPlugin</text>
</a>
</g>
</g>
<!-- Node3&#45;&gt;Node2 -->
<g id="edge2_Node000002_Node000003" class="edge">
<title>Node3&#45;&gt;Node2</title>
<g id="a_edge2_Node000002_Node000003"><a xlink:title=" ">
<path fill="none" stroke="#63b8ff" d="M350.12,-143.26C356.2,-141.33 362.23,-139.32 368,-137.25 395.53,-127.39 425.88,-114.05 448.16,-103.78"/>
<polygon fill="#63b8ff" stroke="#63b8ff" points="349.13,-139.9 340.61,-146.19 351.2,-146.59 349.13,-139.9"/>
</a>
</g>
</g>
<!-- Node4 -->
<g id="Node000004" class="node">
<title>Node4</title>
<g id="a_Node000004"><a xlink:href="interfacecom_1_1fs_1_1starfarer_1_1api_1_1combat_1_1CombatLayeredRenderingPlugin.html" target="_top" xlink:title=" ">
<polygon fill="white" stroke="#666666" points="154.75,-177.5 0,-177.5 0,-147 154.75,-147 154.75,-177.5"/>
<text text-anchor="start" x="8" y="-164" font-family="Helvetica,sans-Serif" font-size="10.00">com.fs.starfarer.api.combat.</text>
<text text-anchor="middle" x="77.38" y="-152.75" font-family="Helvetica,sans-Serif" font-size="10.00">CombatLayeredRenderingPlugin</text>
</a>
</g>
</g>
<!-- Node4&#45;&gt;Node3 -->
<g id="edge3_Node000003_Node000004" class="edge">
<title>Node4&#45;&gt;Node3</title>
<g id="a_edge3_Node000003_Node000004"><a xlink:title=" ">
<path fill="none" stroke="#63b8ff" d="M166.63,-162.25C174.55,-162.25 182.57,-162.25 190.48,-162.25"/>
<polygon fill="#63b8ff" stroke="#63b8ff" points="166.64,-158.75 156.64,-162.25 166.64,-165.75 166.64,-158.75"/>
</a>
</g>
</g>
<!-- Node5 -->
<g id="Node000005" class="node">
<title>Node5</title>
<g id="a_Node000005"><a xlink:href="interfacecom_1_1fs_1_1starfarer_1_1api_1_1combat_1_1OnFireEffectPlugin.html" target="_top" xlink:title=" ">
<polygon fill="white" stroke="#666666" points="347,-128.5 211.75,-128.5 211.75,-98 347,-98 347,-128.5"/>
<text text-anchor="start" x="219.75" y="-115" font-family="Helvetica,sans-Serif" font-size="10.00">com.fs.starfarer.api.combat.</text>
<text text-anchor="middle" x="279.38" y="-103.75" font-family="Helvetica,sans-Serif" font-size="10.00">OnFireEffectPlugin</text>
</a>
</g>
</g>
<!-- Node5&#45;&gt;Node2 -->
<g id="edge4_Node000002_Node000005" class="edge">
<title>Node5&#45;&gt;Node2</title>
<g id="a_edge4_Node000002_Node000005"><a xlink:title=" ">
<path fill="none" stroke="#63b8ff" d="M358.58,-103.49C373.43,-101.64 388.96,-99.7 403.77,-97.85"/>
<polygon fill="#63b8ff" stroke="#63b8ff" points="358.37,-99.99 348.88,-104.7 359.23,-106.94 358.37,-99.99"/>
</a>
</g>
</g>
<!-- Node6 -->
<g id="Node000006" class="node">
<title>Node6</title>
<g id="a_Node000006"><a xlink:href="interfacecom_1_1fs_1_1starfarer_1_1api_1_1combat_1_1OnHitEffectPlugin.html" target="_top" xlink:title=" ">
<polygon fill="white" stroke="#666666" points="347,-79.5 211.75,-79.5 211.75,-49 347,-49 347,-79.5"/>
<text text-anchor="start" x="219.75" y="-66" font-family="Helvetica,sans-Serif" font-size="10.00">com.fs.starfarer.api.combat.</text>
<text text-anchor="middle" x="279.38" y="-54.75" font-family="Helvetica,sans-Serif" font-size="10.00">OnHitEffectPlugin</text>
</a>
</g>
</g>
<!-- Node6&#45;&gt;Node2 -->
<g id="edge5_Node000002_Node000006" class="edge">
<title>Node6&#45;&gt;Node2</title>
<g id="a_edge5_Node000002_Node000006"><a xlink:title=" ">
<path fill="none" stroke="#63b8ff" d="M358.58,-73.62C373.43,-75.4 388.96,-77.26 403.77,-79.03"/>
<polygon fill="#63b8ff" stroke="#63b8ff" points="359.22,-70.17 348.88,-72.46 358.39,-77.12 359.22,-70.17"/>
</a>
</g>
</g>
<!-- Node7 -->
<g id="Node000007" class="node">
<title>Node7</title>
<g id="a_Node000007"><a xlink:href="interfacecom_1_1fs_1_1starfarer_1_1api_1_1combat_1_1EveryFrameWeaponEffectPlugin.html" target="_top" xlink:title=" ">
<polygon fill="white" stroke="#666666" points="356.75,-30.5 202,-30.5 202,0 356.75,0 356.75,-30.5"/>
<text text-anchor="start" x="210" y="-17" font-family="Helvetica,sans-Serif" font-size="10.00">com.fs.starfarer.api.combat.</text>
<text text-anchor="middle" x="279.38" y="-5.75" font-family="Helvetica,sans-Serif" font-size="10.00">EveryFrameWeaponEffectPlugin</text>
</a>
</g>
</g>
<!-- Node7&#45;&gt;Node2 -->
<g id="edge6_Node000002_Node000007" class="edge">
<title>Node7&#45;&gt;Node2</title>
<g id="a_edge6_Node000002_Node000007"><a xlink:title=" ">
<path fill="none" stroke="#63b8ff" d="M350.1,-34.29C356.18,-36.21 362.22,-38.2 368,-40.25 395.07,-49.83 424.95,-62.66 447.14,-72.64"/>
<polygon fill="#63b8ff" stroke="#63b8ff" points="351.17,-30.95 340.59,-31.37 349.12,-37.65 351.17,-30.95"/>
</a>
</g>
</g>
</g>
</svg>
