<?xml version="1.0" encoding="UTF-8" standalone="no"?>
<!DOCTYPE svg PUBLIC "-//W3C//DTD SVG 1.1//EN"
 "http://www.w3.org/Graphics/SVG/1.1/DTD/svg11.dtd">
<!-- Generated by graphviz version 9.0.0 (20230911.1827)
 -->
<!-- Title: com.fs.starfarer.api.impl.campaign.BaseCampaignObjectivePlugin Pages: 1 -->
<svg width="756pt" height="137pt"
 viewBox="0.00 0.00 756.00 136.50" xmlns="http://www.w3.org/2000/svg" xmlns:xlink="http://www.w3.org/1999/xlink">
<g id="graph0" class="graph" transform="scale(1 1) rotate(0) translate(4 132.5)">
<title>com.fs.starfarer.api.impl.campaign.BaseCampaignObjectivePlugin</title>
<!-- Node1 -->
<g id="Node000001" class="node">
<title>Node1</title>
<g id="a_Node000001"><a xlink:title=" ">
<polygon fill="#999999" stroke="#666666" points="546.75,-79.5 381.5,-79.5 381.5,-49 546.75,-49 546.75,-79.5"/>
<text text-anchor="start" x="389.5" y="-66" font-family="Helvetica,sans-Serif" font-size="10.00">com.fs.starfarer.api.impl.campaign.</text>
<text text-anchor="middle" x="464.12" y="-54.75" font-family="Helvetica,sans-Serif" font-size="10.00">BaseCampaignObjectivePlugin</text>
</a>
</g>
</g>
<!-- Node5 -->
<g id="Node000005" class="node">
<title>Node5</title>
<g id="a_Node000005"><a xlink:href="classcom_1_1fs_1_1starfarer_1_1api_1_1impl_1_1campaign_1_1CommRelayEntityPlugin.html" target="_top" xlink:title=" ">
<polygon fill="white" stroke="#666666" points="748,-128.5 582.75,-128.5 582.75,-98 748,-98 748,-128.5"/>
<text text-anchor="start" x="590.75" y="-115" font-family="Helvetica,sans-Serif" font-size="10.00">com.fs.starfarer.api.impl.campaign.</text>
<text text-anchor="middle" x="665.38" y="-103.75" font-family="Helvetica,sans-Serif" font-size="10.00">CommRelayEntityPlugin</text>
</a>
</g>
</g>
<!-- Node1&#45;&gt;Node5 -->
<g id="edge4_Node000001_Node000005" class="edge">
<title>Node1&#45;&gt;Node5</title>
<g id="a_edge4_Node000001_Node000005"><a xlink:title=" ">
<path fill="none" stroke="#63b8ff" d="M539.91,-82.64C559.86,-87.55 581.23,-92.8 600.53,-97.55"/>
<polygon fill="#63b8ff" stroke="#63b8ff" points="541.01,-79.31 530.46,-80.32 539.34,-86.1 541.01,-79.31"/>
</a>
</g>
</g>
<!-- Node6 -->
<g id="Node000006" class="node">
<title>Node6</title>
<g id="a_Node000006"><a xlink:href="classcom_1_1fs_1_1starfarer_1_1api_1_1impl_1_1campaign_1_1NavBuoyEntityPlugin.html" target="_top" xlink:title=" ">
<polygon fill="white" stroke="#666666" points="748,-79.5 582.75,-79.5 582.75,-49 748,-49 748,-79.5"/>
<text text-anchor="start" x="590.75" y="-66" font-family="Helvetica,sans-Serif" font-size="10.00">com.fs.starfarer.api.impl.campaign.</text>
<text text-anchor="middle" x="665.38" y="-54.75" font-family="Helvetica,sans-Serif" font-size="10.00">NavBuoyEntityPlugin</text>
</a>
</g>
</g>
<!-- Node1&#45;&gt;Node6 -->
<g id="edge5_Node000001_Node000006" class="edge">
<title>Node1&#45;&gt;Node6</title>
<g id="a_edge5_Node000001_Node000006"><a xlink:title=" ">
<path fill="none" stroke="#63b8ff" d="M558.35,-64.25C566.41,-64.25 574.51,-64.25 582.47,-64.25"/>
<polygon fill="#63b8ff" stroke="#63b8ff" points="558.54,-60.75 548.54,-64.25 558.54,-67.75 558.54,-60.75"/>
</a>
</g>
</g>
<!-- Node7 -->
<g id="Node000007" class="node">
<title>Node7</title>
<g id="a_Node000007"><a xlink:href="classcom_1_1fs_1_1starfarer_1_1api_1_1impl_1_1campaign_1_1SensorArrayEntityPlugin.html" target="_top" xlink:title=" ">
<polygon fill="white" stroke="#666666" points="748,-30.5 582.75,-30.5 582.75,0 748,0 748,-30.5"/>
<text text-anchor="start" x="590.75" y="-17" font-family="Helvetica,sans-Serif" font-size="10.00">com.fs.starfarer.api.impl.campaign.</text>
<text text-anchor="middle" x="665.38" y="-5.75" font-family="Helvetica,sans-Serif" font-size="10.00">SensorArrayEntityPlugin</text>
</a>
</g>
</g>
<!-- Node1&#45;&gt;Node7 -->
<g id="edge6_Node000001_Node000007" class="edge">
<title>Node1&#45;&gt;Node7</title>
<g id="a_edge6_Node000001_Node000007"><a xlink:title=" ">
<path fill="none" stroke="#63b8ff" d="M539.91,-45.86C559.86,-40.95 581.23,-35.7 600.53,-30.95"/>
<polygon fill="#63b8ff" stroke="#63b8ff" points="539.34,-42.4 530.46,-48.18 541.01,-49.19 539.34,-42.4"/>
</a>
</g>
</g>
<!-- Node2 -->
<g id="Node000002" class="node">
<title>Node2</title>
<g id="a_Node000002"><a xlink:href="classcom_1_1fs_1_1starfarer_1_1api_1_1impl_1_1campaign_1_1BaseCustomEntityPlugin.html" target="_top" xlink:title=" ">
<polygon fill="white" stroke="#666666" points="345.5,-104.5 180.25,-104.5 180.25,-74 345.5,-74 345.5,-104.5"/>
<text text-anchor="start" x="188.25" y="-91" font-family="Helvetica,sans-Serif" font-size="10.00">com.fs.starfarer.api.impl.campaign.</text>
<text text-anchor="middle" x="262.88" y="-79.75" font-family="Helvetica,sans-Serif" font-size="10.00">BaseCustomEntityPlugin</text>
</a>
</g>
</g>
<!-- Node2&#45;&gt;Node1 -->
<g id="edge1_Node000001_Node000002" class="edge">
<title>Node2&#45;&gt;Node1</title>
<g id="a_edge1_Node000001_Node000002"><a xlink:title=" ">
<path fill="none" stroke="#63b8ff" d="M357.1,-77.55C365.16,-76.54 373.26,-75.52 381.22,-74.53"/>
<polygon fill="#63b8ff" stroke="#63b8ff" points="356.77,-74.07 347.28,-78.78 357.64,-81.01 356.77,-74.07"/>
</a>
</g>
</g>
<!-- Node3 -->
<g id="Node000003" class="node">
<title>Node3</title>
<g id="a_Node000003"><a xlink:title=" ">
<polygon fill="white" stroke="#666666" points="144.25,-98.88 0,-98.88 0,-79.62 144.25,-79.62 144.25,-98.88"/>
<text text-anchor="middle" x="72.12" y="-85.38" font-family="Helvetica,sans-Serif" font-size="10.00">CustomCampaignEntityPlugin</text>
</a>
</g>
</g>
<!-- Node3&#45;&gt;Node2 -->
<g id="edge2_Node000002_Node000003" class="edge">
<title>Node3&#45;&gt;Node2</title>
<g id="a_edge2_Node000002_Node000003"><a xlink:title=" ">
<path fill="none" stroke="#63b8ff" d="M155.75,-89.25C163.78,-89.25 171.94,-89.25 179.97,-89.25"/>
<polygon fill="#63b8ff" stroke="#63b8ff" points="156,-85.75 146,-89.25 156,-92.75 156,-85.75"/>
</a>
</g>
</g>
<!-- Node4 -->
<g id="Node000004" class="node">
<title>Node4</title>
<g id="a_Node000004"><a xlink:href="interfacecom_1_1fs_1_1starfarer_1_1api_1_1impl_1_1campaign_1_1CampaignObjective.html" target="_top" xlink:title=" ">
<polygon fill="white" stroke="#666666" points="345.5,-55.5 180.25,-55.5 180.25,-25 345.5,-25 345.5,-55.5"/>
<text text-anchor="start" x="188.25" y="-42" font-family="Helvetica,sans-Serif" font-size="10.00">com.fs.starfarer.api.impl.campaign.</text>
<text text-anchor="middle" x="262.88" y="-30.75" font-family="Helvetica,sans-Serif" font-size="10.00">CampaignObjective</text>
</a>
</g>
</g>
<!-- Node4&#45;&gt;Node1 -->
<g id="edge3_Node000001_Node000004" class="edge">
<title>Node4&#45;&gt;Node1</title>
<g id="a_edge3_Node000001_Node000004"><a xlink:title=" ">
<path fill="none" stroke="#63b8ff" d="M357.1,-51.48C365.16,-52.45 373.26,-53.43 381.22,-54.38"/>
<polygon fill="#63b8ff" stroke="#63b8ff" points="357.63,-48.02 347.28,-50.3 356.79,-54.97 357.63,-48.02"/>
</a>
</g>
</g>
</g>
</svg>
