<?xml version="1.0" encoding="UTF-8" standalone="no"?>
<!DOCTYPE svg PUBLIC "-//W3C//DTD SVG 1.1//EN"
 "http://www.w3.org/Graphics/SVG/1.1/DTD/svg11.dtd">
<!-- Generated by graphviz version 2.44.0 ()
 -->
<!-- Title: com.fs.starfarer.api.impl.campaign.intel.bar.events.TriTachLoanIntel Pages: 1 -->
<svg width="1757pt" height="581pt"
 viewBox="0.00 0.00 1757.00 580.61" xmlns="http://www.w3.org/2000/svg" xmlns:xlink="http://www.w3.org/1999/xlink">
<g id="graph0" class="graph" transform="scale(1 1) rotate(0) translate(4 576.61)">
<title>com.fs.starfarer.api.impl.campaign.intel.bar.events.TriTachLoanIntel</title>
<!-- Node1 -->
<g id="node1" class="node">
<title>Node1</title>
<g id="a_node1"><a xlink:title=" ">
<polygon fill="#bfbfbf" stroke="black" points="1516,-319.11 1516,-349.11 1749,-349.11 1749,-319.11 1516,-319.11"/>
<text text-anchor="start" x="1524" y="-337.11" font-family="Helvetica,sans-Serif" font-size="10.00">com.fs.starfarer.api.impl.campaign.intel.bar.events.</text>
<text text-anchor="middle" x="1632.5" y="-326.11" font-family="Helvetica,sans-Serif" font-size="10.00">TriTachLoanIntel</text>
</a>
</g>
</g>
<!-- Node2 -->
<g id="node2" class="node">
<title>Node2</title>
<g id="a_node2"><a xlink:href="classcom_1_1fs_1_1starfarer_1_1api_1_1impl_1_1campaign_1_1intel_1_1BaseIntelPlugin.html" target="_top" xlink:title=" ">
<polygon fill="none" stroke="black" points="652.5,-430.11 652.5,-460.11 838.5,-460.11 838.5,-430.11 652.5,-430.11"/>
<text text-anchor="start" x="660.5" y="-448.11" font-family="Helvetica,sans-Serif" font-size="10.00">com.fs.starfarer.api.impl.campaign.intel.</text>
<text text-anchor="middle" x="745.5" y="-437.11" font-family="Helvetica,sans-Serif" font-size="10.00">BaseIntelPlugin</text>
</a>
</g>
</g>
<!-- Node2&#45;&gt;Node1 -->
<g id="edge1" class="edge">
<title>Node2&#45;&gt;Node1</title>
<path fill="none" stroke="midnightblue" d="M848.74,-436.56C993.69,-423.79 1267.01,-397.31 1498,-361.11 1519.26,-357.78 1542.27,-353.4 1563.11,-349.15"/>
<polygon fill="midnightblue" stroke="midnightblue" points="848.18,-433.1 838.53,-437.46 848.8,-440.07 848.18,-433.1"/>
</g>
<!-- Node3 -->
<g id="node3" class="node">
<title>Node3</title>
<g id="a_node3"><a xlink:href="interfacecom_1_1fs_1_1starfarer_1_1api_1_1campaign_1_1comm_1_1IntelInfoPlugin.html" target="_top" xlink:title=" ">
<polygon fill="none" stroke="black" points="237.5,-346.11 237.5,-376.11 412.5,-376.11 412.5,-346.11 237.5,-346.11"/>
<text text-anchor="start" x="245.5" y="-364.11" font-family="Helvetica,sans-Serif" font-size="10.00">com.fs.starfarer.api.campaign.comm.</text>
<text text-anchor="middle" x="325" y="-353.11" font-family="Helvetica,sans-Serif" font-size="10.00">IntelInfoPlugin</text>
</a>
</g>
</g>
<!-- Node3&#45;&gt;Node2 -->
<g id="edge2" class="edge">
<title>Node3&#45;&gt;Node2</title>
<path fill="none" stroke="midnightblue" d="M411.3,-378.12C467.93,-389.42 543.92,-404.62 611,-418.11 630.24,-421.98 651.04,-426.18 670.36,-430.08"/>
<polygon fill="midnightblue" stroke="midnightblue" points="411.81,-374.65 401.32,-376.13 410.44,-381.52 411.81,-374.65"/>
</g>
<!-- Node4 -->
<g id="node4" class="node">
<title>Node4</title>
<g id="a_node4"><a xlink:title=" ">
<polygon fill="none" stroke="#bfbfbf" points="223.5,-542.11 223.5,-572.11 426.5,-572.11 426.5,-542.11 223.5,-542.11"/>
<text text-anchor="start" x="231.5" y="-560.11" font-family="Helvetica,sans-Serif" font-size="10.00">com.fs.starfarer.api.impl.campaign.rulecmd.</text>
<text text-anchor="middle" x="325" y="-549.11" font-family="Helvetica,sans-Serif" font-size="10.00">CallEvent.CallableEvent</text>
</a>
</g>
</g>
<!-- Node4&#45;&gt;Node2 -->
<g id="edge3" class="edge">
<title>Node4&#45;&gt;Node2</title>
<path fill="none" stroke="midnightblue" d="M413.2,-539.96C423.6,-537.74 434.05,-535.43 444,-533.11 518.75,-515.68 537.41,-510.91 611,-489.11 641.3,-480.13 675.11,-468.98 701.12,-460.15"/>
<polygon fill="midnightblue" stroke="midnightblue" points="412.32,-536.56 403.26,-542.05 413.77,-543.41 412.32,-536.56"/>
</g>
<!-- Node5 -->
<g id="node5" class="node">
<title>Node5</title>
<g id="a_node5"><a xlink:href="interfacecom_1_1fs_1_1starfarer_1_1api_1_1EveryFrameScript.html" target="_top" xlink:title=" ">
<polygon fill="none" stroke="black" points="262.5,-493.11 262.5,-523.11 387.5,-523.11 387.5,-493.11 262.5,-493.11"/>
<text text-anchor="start" x="270.5" y="-511.11" font-family="Helvetica,sans-Serif" font-size="10.00">com.fs.starfarer.api.Every</text>
<text text-anchor="middle" x="325" y="-500.11" font-family="Helvetica,sans-Serif" font-size="10.00">FrameScript</text>
</a>
</g>
</g>
<!-- Node5&#45;&gt;Node2 -->
<g id="edge4" class="edge">
<title>Node5&#45;&gt;Node2</title>
<path fill="none" stroke="midnightblue" d="M397.85,-497.29C468.2,-486.7 575.68,-470.52 652.29,-458.99"/>
<polygon fill="midnightblue" stroke="midnightblue" points="397.12,-493.86 387.75,-498.81 398.16,-500.79 397.12,-493.86"/>
</g>
<!-- Node6 -->
<g id="node6" class="node">
<title>Node6</title>
<g id="a_node6"><a xlink:title=" ">
<polygon fill="none" stroke="#bfbfbf" points="206,-444.11 206,-474.11 444,-474.11 444,-444.11 206,-444.11"/>
<text text-anchor="start" x="214" y="-462.11" font-family="Helvetica,sans-Serif" font-size="10.00">com.fs.starfarer.api.impl.campaign.</text>
<text text-anchor="middle" x="325" y="-451.11" font-family="Helvetica,sans-Serif" font-size="10.00">CommRelayEntityPlugin.CommSnifferReadableIntel</text>
</a>
</g>
</g>
<!-- Node6&#45;&gt;Node2 -->
<g id="edge5" class="edge">
<title>Node6&#45;&gt;Node2</title>
<path fill="none" stroke="midnightblue" d="M454.41,-454.81C518.41,-452.67 594.32,-450.13 652.44,-448.19"/>
<polygon fill="midnightblue" stroke="midnightblue" points="454.12,-451.32 444.25,-455.15 454.36,-458.32 454.12,-451.32"/>
</g>
<!-- Node7 -->
<g id="node7" class="node">
<title>Node7</title>
<g id="a_node7"><a xlink:href="interfacecom_1_1fs_1_1starfarer_1_1api_1_1campaign_1_1SectorEntityToken.html" target="_top" xlink:title=" ">
<polygon fill="none" stroke="black" points="252,-395.11 252,-425.11 398,-425.11 398,-395.11 252,-395.11"/>
<text text-anchor="start" x="260" y="-413.11" font-family="Helvetica,sans-Serif" font-size="10.00">com.fs.starfarer.api.campaign.</text>
<text text-anchor="middle" x="325" y="-402.11" font-family="Helvetica,sans-Serif" font-size="10.00">SectorEntityToken</text>
</a>
</g>
</g>
<!-- Node7&#45;&gt;Node2 -->
<g id="edge6" class="edge">
<title>Node7&#45;&gt;Node2</title>
<path fill="none" stroke="#9a32cd" stroke-dasharray="5,2" d="M408.56,-417.01C478.82,-422.89 579.65,-431.32 652.49,-437.41"/>
<polygon fill="#9a32cd" stroke="#9a32cd" points="408.68,-413.51 398.42,-416.17 408.09,-420.49 408.68,-413.51"/>
<text text-anchor="middle" x="536.5" y="-436.11" font-family="Helvetica,sans-Serif" font-size="10.00"> postingLocation</text>
</g>
<!-- Node8 -->
<g id="node8" class="node">
<title>Node8</title>
<g id="a_node8"><a xlink:href="interfacecom_1_1fs_1_1starfarer_1_1api_1_1campaign_1_1rules_1_1HasMemory.html" target="_top" xlink:title=" ">
<polygon fill="none" stroke="black" points="0,-297.11 0,-327.11 169,-327.11 169,-297.11 0,-297.11"/>
<text text-anchor="start" x="8" y="-315.11" font-family="Helvetica,sans-Serif" font-size="10.00">com.fs.starfarer.api.campaign.rules.</text>
<text text-anchor="middle" x="84.5" y="-304.11" font-family="Helvetica,sans-Serif" font-size="10.00">HasMemory</text>
</a>
</g>
</g>
<!-- Node8&#45;&gt;Node7 -->
<g id="edge7" class="edge">
<title>Node8&#45;&gt;Node7</title>
<path fill="none" stroke="midnightblue" d="M113.35,-333.14C136.86,-349.9 172.03,-372.71 206,-386.11 220.39,-391.79 236.32,-396.19 251.7,-399.57"/>
<polygon fill="midnightblue" stroke="midnightblue" points="115.39,-330.3 105.24,-327.27 111.28,-335.97 115.39,-330.3"/>
</g>
<!-- Node10 -->
<g id="node10" class="node">
<title>Node10</title>
<g id="a_node10"><a xlink:href="interfacecom_1_1fs_1_1starfarer_1_1api_1_1campaign_1_1econ_1_1MarketAPI.html" target="_top" xlink:title=" ">
<polygon fill="none" stroke="black" points="240.5,-297.11 240.5,-327.11 409.5,-327.11 409.5,-297.11 240.5,-297.11"/>
<text text-anchor="start" x="248.5" y="-315.11" font-family="Helvetica,sans-Serif" font-size="10.00">com.fs.starfarer.api.campaign.econ.</text>
<text text-anchor="middle" x="325" y="-304.11" font-family="Helvetica,sans-Serif" font-size="10.00">MarketAPI</text>
</a>
</g>
</g>
<!-- Node8&#45;&gt;Node10 -->
<g id="edge10" class="edge">
<title>Node8&#45;&gt;Node10</title>
<path fill="none" stroke="midnightblue" d="M179.37,-312.11C199.53,-312.11 220.71,-312.11 240.45,-312.11"/>
<polygon fill="midnightblue" stroke="midnightblue" points="179.25,-308.61 169.25,-312.11 179.25,-315.61 179.25,-308.61"/>
</g>
<!-- Node20 -->
<g id="node20" class="node">
<title>Node20</title>
<g id="a_node20"><a xlink:href="interfacecom_1_1fs_1_1starfarer_1_1api_1_1characters_1_1PersonAPI.html" target="_top" xlink:title=" ">
<polygon fill="none" stroke="black" points="462,-11.11 462,-41.11 611,-41.11 611,-11.11 462,-11.11"/>
<text text-anchor="start" x="470" y="-29.11" font-family="Helvetica,sans-Serif" font-size="10.00">com.fs.starfarer.api.characters.</text>
<text text-anchor="middle" x="536.5" y="-18.11" font-family="Helvetica,sans-Serif" font-size="10.00">PersonAPI</text>
</a>
</g>
</g>
<!-- Node8&#45;&gt;Node20 -->
<g id="edge23" class="edge">
<title>Node8&#45;&gt;Node20</title>
<path fill="none" stroke="midnightblue" d="M88.14,-287.06C95.46,-231.84 121.39,-99.97 206,-42.11 285.07,11.96 401.46,2.21 472.66,-11.05"/>
<polygon fill="midnightblue" stroke="midnightblue" points="84.66,-286.69 86.92,-297.04 91.61,-287.54 84.66,-286.69"/>
</g>
<!-- Node9 -->
<g id="node9" class="node">
<title>Node9</title>
<g id="a_node9"><a xlink:title=" ">
<polygon fill="none" stroke="#bfbfbf" points="1214.5,-228.61 1214.5,-269.61 1424.5,-269.61 1424.5,-228.61 1214.5,-228.61"/>
<text text-anchor="start" x="1222.5" y="-257.61" font-family="Helvetica,sans-Serif" font-size="10.00">com.fs.starfarer.api.campaign.</text>
<text text-anchor="start" x="1222.5" y="-246.61" font-family="Helvetica,sans-Serif" font-size="10.00">ReputationActionResponsePlugin.Reputation</text>
<text text-anchor="middle" x="1319.5" y="-235.61" font-family="Helvetica,sans-Serif" font-size="10.00">AdjustmentResult</text>
</a>
</g>
</g>
<!-- Node9&#45;&gt;Node1 -->
<g id="edge8" class="edge">
<title>Node9&#45;&gt;Node1</title>
<path fill="none" stroke="#9a32cd" stroke-dasharray="5,2" d="M1413.29,-272.12C1420.98,-274.12 1428.63,-276.13 1436,-278.11 1485.27,-291.35 1541.21,-307.48 1580.59,-319.03"/>
<polygon fill="#9a32cd" stroke="#9a32cd" points="1414.11,-268.72 1403.55,-269.61 1412.36,-275.5 1414.11,-268.72"/>
<text text-anchor="middle" x="1476" y="-298.11" font-family="Helvetica,sans-Serif" font-size="10.00"> repResult</text>
</g>
<!-- Node10&#45;&gt;Node1 -->
<g id="edge9" class="edge">
<title>Node10&#45;&gt;Node1</title>
<path fill="none" stroke="#9a32cd" stroke-dasharray="5,2" d="M419.71,-324.45C504.4,-334.52 632.58,-347.11 744.5,-347.11 744.5,-347.11 744.5,-347.11 1320.5,-347.11 1385.21,-347.11 1457.43,-344.26 1515.98,-341.24"/>
<polygon fill="#9a32cd" stroke="#9a32cd" points="419.94,-320.95 409.6,-323.23 419.11,-327.9 419.94,-320.95"/>
<text text-anchor="middle" x="1049.5" y="-350.11" font-family="Helvetica,sans-Serif" font-size="10.00"> market</text>
</g>
<!-- Node12 -->
<g id="node12" class="node">
<title>Node12</title>
<g id="a_node12"><a xlink:href="classcom_1_1fs_1_1starfarer_1_1api_1_1impl_1_1campaign_1_1intel_1_1bar_1_1events_1_1BaseGetCommodityBarEvent.html" target="_top" xlink:title=" ">
<polygon fill="none" stroke="black" points="933,-199.11 933,-229.11 1166,-229.11 1166,-199.11 933,-199.11"/>
<text text-anchor="start" x="941" y="-217.11" font-family="Helvetica,sans-Serif" font-size="10.00">com.fs.starfarer.api.impl.campaign.intel.bar.events.</text>
<text text-anchor="middle" x="1049.5" y="-206.11" font-family="Helvetica,sans-Serif" font-size="10.00">BaseGetCommodityBarEvent</text>
</a>
</g>
</g>
<!-- Node10&#45;&gt;Node12 -->
<g id="edge20" class="edge">
<title>Node10&#45;&gt;Node12</title>
<path fill="none" stroke="#9a32cd" stroke-dasharray="5,2" d="M420,-308.96C475.68,-306.4 547.53,-301.89 611,-294.11 742.63,-277.97 894.56,-247.48 980.3,-229.16"/>
<polygon fill="#9a32cd" stroke="#9a32cd" points="419.63,-305.47 409.79,-309.41 419.94,-312.46 419.63,-305.47"/>
<text text-anchor="middle" x="745.5" y="-295.11" font-family="Helvetica,sans-Serif" font-size="10.00"> market</text>
</g>
<!-- Node13 -->
<g id="node13" class="node">
<title>Node13</title>
<g id="a_node13"><a xlink:href="classcom_1_1fs_1_1starfarer_1_1api_1_1impl_1_1campaign_1_1intel_1_1bar_1_1events_1_1BaseBarEvent.html" target="_top" xlink:title=" ">
<polygon fill="none" stroke="black" points="629,-199.11 629,-229.11 862,-229.11 862,-199.11 629,-199.11"/>
<text text-anchor="start" x="637" y="-217.11" font-family="Helvetica,sans-Serif" font-size="10.00">com.fs.starfarer.api.impl.campaign.intel.bar.events.</text>
<text text-anchor="middle" x="745.5" y="-206.11" font-family="Helvetica,sans-Serif" font-size="10.00">BaseBarEvent</text>
</a>
</g>
</g>
<!-- Node10&#45;&gt;Node13 -->
<g id="edge18" class="edge">
<title>Node10&#45;&gt;Node13</title>
<path fill="none" stroke="#9a32cd" stroke-dasharray="5,2" d="M407.28,-295C419.58,-292.38 432.13,-289.68 444,-287.11 452.01,-285.37 453.95,-284.62 462,-283.11 527.85,-270.72 545.95,-276.2 611,-260.11 643.96,-251.96 680.33,-239.16 706.78,-229.13"/>
<polygon fill="#9a32cd" stroke="#9a32cd" points="406.52,-291.58 397.47,-297.09 407.98,-298.43 406.52,-291.58"/>
<text text-anchor="middle" x="536.5" y="-286.11" font-family="Helvetica,sans-Serif" font-size="10.00"> shownAt</text>
</g>
<!-- Node11 -->
<g id="node11" class="node">
<title>Node11</title>
<g id="a_node11"><a xlink:href="classcom_1_1fs_1_1starfarer_1_1api_1_1impl_1_1campaign_1_1intel_1_1bar_1_1events_1_1TriTachLoanBarEvent.html" target="_top" xlink:title=" ">
<polygon fill="none" stroke="black" points="1203,-288.11 1203,-318.11 1436,-318.11 1436,-288.11 1203,-288.11"/>
<text text-anchor="start" x="1211" y="-306.11" font-family="Helvetica,sans-Serif" font-size="10.00">com.fs.starfarer.api.impl.campaign.intel.bar.events.</text>
<text text-anchor="middle" x="1319.5" y="-295.11" font-family="Helvetica,sans-Serif" font-size="10.00">TriTachLoanBarEvent</text>
</a>
</g>
</g>
<!-- Node11&#45;&gt;Node1 -->
<g id="edge11" class="edge">
<title>Node11&#45;&gt;Node1</title>
<path fill="none" stroke="#9a32cd" stroke-dasharray="5,2" d="M1446.43,-315.66C1469.38,-317.95 1493.22,-320.33 1515.86,-322.58"/>
<polygon fill="#9a32cd" stroke="#9a32cd" points="1446.6,-312.16 1436.3,-314.65 1445.91,-319.13 1446.6,-312.16"/>
<text text-anchor="middle" x="1476" y="-323.11" font-family="Helvetica,sans-Serif" font-size="10.00"> event</text>
</g>
<!-- Node12&#45;&gt;Node11 -->
<g id="edge12" class="edge">
<title>Node12&#45;&gt;Node11</title>
<path fill="none" stroke="midnightblue" d="M1090.15,-233.58C1120.46,-247.83 1163.6,-266.75 1203,-279.11 1213.55,-282.42 1224.79,-285.4 1235.96,-288.04"/>
<polygon fill="midnightblue" stroke="midnightblue" points="1091.32,-230.26 1080.78,-229.14 1088.32,-236.59 1091.32,-230.26"/>
</g>
<!-- Node13&#45;&gt;Node12 -->
<g id="edge13" class="edge">
<title>Node13&#45;&gt;Node12</title>
<path fill="none" stroke="midnightblue" d="M872.49,-214.11C892.51,-214.11 913.14,-214.11 932.91,-214.11"/>
<polygon fill="midnightblue" stroke="midnightblue" points="872.4,-210.61 862.4,-214.11 872.4,-217.61 872.4,-210.61"/>
</g>
<!-- Node14 -->
<g id="node14" class="node">
<title>Node14</title>
<g id="a_node14"><a xlink:href="interfacecom_1_1fs_1_1starfarer_1_1api_1_1impl_1_1campaign_1_1intel_1_1bar_1_1PortsideBarEvent.html" target="_top" xlink:title=" ">
<polygon fill="none" stroke="black" points="224,-150.11 224,-180.11 426,-180.11 426,-150.11 224,-150.11"/>
<text text-anchor="start" x="232" y="-168.11" font-family="Helvetica,sans-Serif" font-size="10.00">com.fs.starfarer.api.impl.campaign.intel.bar.</text>
<text text-anchor="middle" x="325" y="-157.11" font-family="Helvetica,sans-Serif" font-size="10.00">PortsideBarEvent</text>
</a>
</g>
</g>
<!-- Node14&#45;&gt;Node13 -->
<g id="edge14" class="edge">
<title>Node14&#45;&gt;Node13</title>
<path fill="none" stroke="midnightblue" d="M436.39,-178.03C495.67,-184.97 568.7,-193.53 628.78,-200.56"/>
<polygon fill="midnightblue" stroke="midnightblue" points="436.58,-174.53 426.24,-176.85 435.77,-181.48 436.58,-174.53"/>
</g>
<!-- Node15 -->
<g id="node15" class="node">
<title>Node15</title>
<g id="a_node15"><a xlink:title=" ">
<polygon fill="none" stroke="#bfbfbf" points="211.5,-101.11 211.5,-131.11 438.5,-131.11 438.5,-101.11 211.5,-101.11"/>
<text text-anchor="start" x="219.5" y="-119.11" font-family="Helvetica,sans-Serif" font-size="10.00">Map&lt; String, com.fs.starfarer.api.campaign.rules.</text>
<text text-anchor="middle" x="325" y="-108.11" font-family="Helvetica,sans-Serif" font-size="10.00">MemoryAPI &gt;</text>
</a>
</g>
</g>
<!-- Node15&#45;&gt;Node13 -->
<g id="edge15" class="edge">
<title>Node15&#45;&gt;Node13</title>
<path fill="none" stroke="#9a32cd" stroke-dasharray="5,2" d="M448.67,-120.32C501.46,-126.59 562.14,-140.05 611,-168.11 621.66,-174.23 618.44,-182.81 629,-189.11 635.52,-193 642.57,-196.28 649.86,-199.06"/>
<polygon fill="#9a32cd" stroke="#9a32cd" points="448.89,-116.83 438.57,-119.2 448.12,-123.78 448.89,-116.83"/>
<text text-anchor="middle" x="536.5" y="-171.11" font-family="Helvetica,sans-Serif" font-size="10.00"> memoryMap</text>
</g>
<!-- Node16 -->
<g id="node16" class="node">
<title>Node16</title>
<g id="a_node16"><a xlink:href="interfacecom_1_1fs_1_1starfarer_1_1api_1_1campaign_1_1OptionPanelAPI.html" target="_top" xlink:title=" ">
<polygon fill="none" stroke="black" points="252,-52.11 252,-82.11 398,-82.11 398,-52.11 252,-52.11"/>
<text text-anchor="start" x="260" y="-70.11" font-family="Helvetica,sans-Serif" font-size="10.00">com.fs.starfarer.api.campaign.</text>
<text text-anchor="middle" x="325" y="-59.11" font-family="Helvetica,sans-Serif" font-size="10.00">OptionPanelAPI</text>
</a>
</g>
</g>
<!-- Node16&#45;&gt;Node13 -->
<g id="edge16" class="edge">
<title>Node16&#45;&gt;Node13</title>
<path fill="none" stroke="#9a32cd" stroke-dasharray="5,2" d="M408.15,-55.52C471.54,-51.45 557.24,-57.32 611,-107.11 638.38,-132.46 602.58,-162.76 629,-189.11 632.78,-192.88 636.98,-196.13 641.48,-198.95"/>
<polygon fill="#9a32cd" stroke="#9a32cd" points="407.89,-52.03 398.17,-56.25 408.4,-59.01 407.89,-52.03"/>
<text text-anchor="middle" x="536.5" y="-110.11" font-family="Helvetica,sans-Serif" font-size="10.00"> options</text>
</g>
<!-- Node17 -->
<g id="node17" class="node">
<title>Node17</title>
<g id="a_node17"><a xlink:href="interfacecom_1_1fs_1_1starfarer_1_1api_1_1campaign_1_1TextPanelAPI.html" target="_top" xlink:title=" ">
<polygon fill="none" stroke="black" points="252,-248.11 252,-278.11 398,-278.11 398,-248.11 252,-248.11"/>
<text text-anchor="start" x="260" y="-266.11" font-family="Helvetica,sans-Serif" font-size="10.00">com.fs.starfarer.api.campaign.</text>
<text text-anchor="middle" x="325" y="-255.11" font-family="Helvetica,sans-Serif" font-size="10.00">TextPanelAPI</text>
</a>
</g>
</g>
<!-- Node17&#45;&gt;Node13 -->
<g id="edge17" class="edge">
<title>Node17&#45;&gt;Node13</title>
<path fill="none" stroke="#9a32cd" stroke-dasharray="5,2" d="M408.69,-253.43C471.6,-246.06 558.95,-235.83 628.79,-227.66"/>
<polygon fill="#9a32cd" stroke="#9a32cd" points="407.94,-249.99 398.42,-254.63 408.76,-256.94 407.94,-249.99"/>
<text text-anchor="middle" x="536.5" y="-249.11" font-family="Helvetica,sans-Serif" font-size="10.00"> text</text>
</g>
<!-- Node18 -->
<g id="node18" class="node">
<title>Node18</title>
<g id="a_node18"><a xlink:href="interfacecom_1_1fs_1_1starfarer_1_1api_1_1campaign_1_1InteractionDialogAPI.html" target="_top" xlink:title=" ">
<polygon fill="none" stroke="black" points="252,-199.11 252,-229.11 398,-229.11 398,-199.11 252,-199.11"/>
<text text-anchor="start" x="260" y="-217.11" font-family="Helvetica,sans-Serif" font-size="10.00">com.fs.starfarer.api.campaign.</text>
<text text-anchor="middle" x="325" y="-206.11" font-family="Helvetica,sans-Serif" font-size="10.00">InteractionDialogAPI</text>
</a>
</g>
</g>
<!-- Node18&#45;&gt;Node13 -->
<g id="edge19" class="edge">
<title>Node18&#45;&gt;Node13</title>
<path fill="none" stroke="#9a32cd" stroke-dasharray="5,2" d="M408.69,-214.11C471.6,-214.11 558.95,-214.11 628.79,-214.11"/>
<polygon fill="#9a32cd" stroke="#9a32cd" points="408.42,-210.61 398.42,-214.11 408.42,-217.61 408.42,-210.61"/>
<text text-anchor="middle" x="536.5" y="-217.11" font-family="Helvetica,sans-Serif" font-size="10.00"> dialog</text>
</g>
<!-- Node19 -->
<g id="node19" class="node">
<title>Node19</title>
<g id="a_node19"><a xlink:title=" ">
<polygon fill="none" stroke="#bfbfbf" points="719,-160.61 719,-179.61 772,-179.61 772,-160.61 719,-160.61"/>
<text text-anchor="middle" x="745.5" y="-167.61" font-family="Helvetica,sans-Serif" font-size="10.00">Random</text>
</a>
</g>
</g>
<!-- Node19&#45;&gt;Node12 -->
<g id="edge21" class="edge">
<title>Node19&#45;&gt;Node12</title>
<path fill="none" stroke="#9a32cd" stroke-dasharray="5,2" d="M782.31,-175.33C822.31,-181.15 888.88,-190.85 945.43,-199.09"/>
<polygon fill="#9a32cd" stroke="#9a32cd" points="782.65,-171.84 772.25,-173.86 781.64,-178.77 782.65,-171.84"/>
<text text-anchor="middle" x="897.5" y="-197.11" font-family="Helvetica,sans-Serif" font-size="10.00"> random</text>
</g>
<!-- Node20&#45;&gt;Node12 -->
<g id="edge22" class="edge">
<title>Node20&#45;&gt;Node12</title>
<path fill="none" stroke="#9a32cd" stroke-dasharray="5,2" d="M591.7,-44.45C598.21,-46.68 604.76,-48.94 611,-51.11 722.81,-89.94 751.19,-98.5 862,-140.11 914.34,-159.76 974.36,-183.86 1011.85,-199.1"/>
<polygon fill="#9a32cd" stroke="#9a32cd" points="592.82,-41.14 582.23,-41.22 590.56,-47.77 592.82,-41.14"/>
<text text-anchor="middle" x="745.5" y="-143.11" font-family="Helvetica,sans-Serif" font-size="10.00"> person</text>
</g>
</g>
</svg>
