<?xml version="1.0" encoding="UTF-8" standalone="no"?>
<!DOCTYPE svg PUBLIC "-//W3C//DTD SVG 1.1//EN"
 "http://www.w3.org/Graphics/SVG/1.1/DTD/svg11.dtd">
<!-- Generated by graphviz version 12.2.0 (20241103.1931)
 -->
<!-- Title: com.fs.starfarer.api.impl.campaign.missions.cb.BaseCustomBountyCreator Pages: 1 -->
<svg width="1005pt" height="39pt"
 viewBox="0.00 0.00 1005.00 38.50" xmlns="http://www.w3.org/2000/svg" xmlns:xlink="http://www.w3.org/1999/xlink">
<g id="graph0" class="graph" transform="scale(1 1) rotate(0) translate(4 34.5)">
<title>com.fs.starfarer.api.impl.campaign.missions.cb.BaseCustomBountyCreator</title>
<!-- Node1 -->
<g id="Node000001" class="node">
<title>Node1</title>
<g id="a_Node000001"><a xlink:title=" ">
<polygon fill="#999999" stroke="#666666" points="997,-30.5 777.75,-30.5 777.75,0 997,0 997,-30.5"/>
<text text-anchor="start" x="785.75" y="-17" font-family="Helvetica,sans-Serif" font-size="10.00">com.fs.starfarer.api.impl.campaign.missions.cb.</text>
<text text-anchor="middle" x="887.38" y="-5.75" font-family="Helvetica,sans-Serif" font-size="10.00">BaseCustomBountyCreator</text>
</a>
</g>
</g>
<!-- Node2 -->
<g id="Node000002" class="node">
<title>Node2</title>
<g id="a_Node000002"><a xlink:href="interfacecom_1_1fs_1_1starfarer_1_1api_1_1impl_1_1campaign_1_1missions_1_1cb_1_1CustomBountyCreator.html" target="_top" xlink:title=" ">
<polygon fill="white" stroke="#666666" points="741.75,-30.5 522.5,-30.5 522.5,0 741.75,0 741.75,-30.5"/>
<text text-anchor="start" x="530.5" y="-17" font-family="Helvetica,sans-Serif" font-size="10.00">com.fs.starfarer.api.impl.campaign.missions.cb.</text>
<text text-anchor="middle" x="632.12" y="-5.75" font-family="Helvetica,sans-Serif" font-size="10.00">CustomBountyCreator</text>
</a>
</g>
</g>
<!-- Node2&#45;&gt;Node1 -->
<g id="edge1_Node000001_Node000002" class="edge">
<title>Node2&#45;&gt;Node1</title>
<g id="a_edge1_Node000001_Node000002"><a xlink:title=" ">
<path fill="none" stroke="#63b8ff" d="M753.38,-15.25C761.46,-15.25 769.58,-15.25 777.6,-15.25"/>
<polygon fill="#63b8ff" stroke="#63b8ff" points="753.51,-11.75 743.51,-15.25 753.51,-18.75 753.51,-11.75"/>
</a>
</g>
</g>
<!-- Node3 -->
<g id="Node000003" class="node">
<title>Node3</title>
<g id="a_Node000003"><a xlink:title=" ">
<polygon fill="white" stroke="#666666" points="486.5,-30.5 260.5,-30.5 260.5,0 486.5,0 486.5,-30.5"/>
<text text-anchor="start" x="268.5" y="-17" font-family="Helvetica,sans-Serif" font-size="10.00">com.fs.starfarer.api.impl.campaign.missions.hub.</text>
<text text-anchor="middle" x="373.5" y="-5.75" font-family="Helvetica,sans-Serif" font-size="10.00">HubMissionWithSearch.StarSystemRequirement</text>
</a>
</g>
</g>
<!-- Node3&#45;&gt;Node2 -->
<g id="edge2_Node000002_Node000003" class="edge">
<title>Node3&#45;&gt;Node2</title>
<g id="a_edge2_Node000002_Node000003"><a xlink:title=" ">
<path fill="none" stroke="#63b8ff" d="M498,-15.25C506.03,-15.25 514.08,-15.25 522.03,-15.25"/>
<polygon fill="#63b8ff" stroke="#63b8ff" points="498.2,-11.75 488.2,-15.25 498.2,-18.75 498.2,-11.75"/>
</a>
</g>
</g>
<!-- Node4 -->
<g id="Node000004" class="node">
<title>Node4</title>
<g id="a_Node000004"><a xlink:title=" ">
<polygon fill="white" stroke="#666666" points="224.5,-30.5 0,-30.5 0,0 224.5,0 224.5,-30.5"/>
<text text-anchor="start" x="8" y="-17" font-family="Helvetica,sans-Serif" font-size="10.00">com.fs.starfarer.api.impl.campaign.missions.hub.</text>
<text text-anchor="middle" x="112.25" y="-5.75" font-family="Helvetica,sans-Serif" font-size="10.00">HubMissionWithSearch.GenericRequirement</text>
</a>
</g>
</g>
<!-- Node4&#45;&gt;Node3 -->
<g id="edge3_Node000003_Node000004" class="edge">
<title>Node4&#45;&gt;Node3</title>
<g id="a_edge3_Node000003_Node000004"><a xlink:title=" ">
<path fill="none" stroke="#63b8ff" d="M236.09,-15.25C244.17,-15.25 252.29,-15.25 260.32,-15.25"/>
<polygon fill="#63b8ff" stroke="#63b8ff" points="236.21,-11.75 226.21,-15.25 236.21,-18.75 236.21,-11.75"/>
</a>
</g>
</g>
</g>
</svg>
