<?xml version="1.0" encoding="UTF-8" standalone="no"?>
<!DOCTYPE svg PUBLIC "-//W3C//DTD SVG 1.1//EN"
 "http://www.w3.org/Graphics/SVG/1.1/DTD/svg11.dtd">
<!-- Generated by graphviz version 7.0.5 (20221223.1930)
 -->
<!-- Title: com.fs.starfarer.api.impl.campaign.CoreScript Pages: 1 -->
<svg width="1779pt" height="608pt"
 viewBox="0.00 0.00 1779.00 608.00" xmlns="http://www.w3.org/2000/svg" xmlns:xlink="http://www.w3.org/1999/xlink">
<g id="graph0" class="graph" transform="scale(1 1) rotate(0) translate(4 604)">
<title>com.fs.starfarer.api.impl.campaign.CoreScript</title>
<!-- Node1 -->
<g id="node1" class="node">
<title>Node1</title>
<g id="a_node1"><a xlink:title=" ">
<polygon fill="#999999" stroke="#666666" points="1771,-485 1605,-485 1605,-455 1771,-455 1771,-485"/>
<text text-anchor="start" x="1613" y="-473" font-family="Helvetica,sans-Serif" font-size="10.00">com.fs.starfarer.api.impl.campaign.</text>
<text text-anchor="middle" x="1688" y="-462" font-family="Helvetica,sans-Serif" font-size="10.00">CoreScript</text>
</a>
</g>
</g>
<!-- Node2 -->
<g id="node2" class="node">
<title>Node2</title>
<g id="a_node2"><a xlink:href="classcom_1_1fs_1_1starfarer_1_1api_1_1campaign_1_1BaseCampaignEventListener.html" target="_top" xlink:title=" ">
<polygon fill="white" stroke="#bfbfbf" points="1485.5,-600 1339.5,-600 1339.5,-570 1485.5,-570 1485.5,-600"/>
<text text-anchor="start" x="1347.5" y="-588" font-family="Helvetica,sans-Serif" font-size="10.00">com.fs.starfarer.api.campaign.</text>
<text text-anchor="middle" x="1412.5" y="-577" font-family="Helvetica,sans-Serif" font-size="10.00">BaseCampaignEventListener</text>
</a>
</g>
</g>
<!-- Node2&#45;&gt;Node1 -->
<g id="edge1" class="edge">
<title>Node2&#45;&gt;Node1</title>
<path fill="none" stroke="#63b8ff" d="M1493.43,-566.49C1499.41,-564.75 1505.32,-562.92 1511,-561 1568.36,-541.64 1630.04,-505.89 1662.98,-485.43"/>
<polygon fill="#63b8ff" stroke="#63b8ff" points="1492.77,-563.04 1484.09,-569.11 1494.66,-569.78 1492.77,-563.04"/>
</g>
<!-- Node3 -->
<g id="node3" class="node">
<title>Node3</title>
<g id="a_node3"><a xlink:href="interfacecom_1_1fs_1_1starfarer_1_1api_1_1campaign_1_1CampaignEventListener.html" target="_top" xlink:title=" ">
<polygon fill="white" stroke="#666666" points="1125.5,-600 979.5,-600 979.5,-570 1125.5,-570 1125.5,-600"/>
<text text-anchor="start" x="987.5" y="-588" font-family="Helvetica,sans-Serif" font-size="10.00">com.fs.starfarer.api.campaign.</text>
<text text-anchor="middle" x="1052.5" y="-577" font-family="Helvetica,sans-Serif" font-size="10.00">CampaignEventListener</text>
</a>
</g>
</g>
<!-- Node3&#45;&gt;Node2 -->
<g id="edge2" class="edge">
<title>Node3&#45;&gt;Node2</title>
<path fill="none" stroke="#63b8ff" d="M1137.13,-585C1198.4,-585 1280.72,-585 1339.16,-585"/>
<polygon fill="#63b8ff" stroke="#63b8ff" points="1137.46,-581.5 1127.46,-585 1137.46,-588.5 1137.46,-581.5"/>
</g>
<!-- Node4 -->
<g id="node4" class="node">
<title>Node4</title>
<g id="a_node4"><a xlink:href="interfacecom_1_1fs_1_1starfarer_1_1api_1_1EveryFrameScript.html" target="_top" xlink:title=" ">
<polygon fill="white" stroke="#bfbfbf" points="1475,-552 1350,-552 1350,-522 1475,-522 1475,-552"/>
<text text-anchor="start" x="1358" y="-540" font-family="Helvetica,sans-Serif" font-size="10.00">com.fs.starfarer.api.Every</text>
<text text-anchor="middle" x="1412.5" y="-529" font-family="Helvetica,sans-Serif" font-size="10.00">FrameScript</text>
</a>
</g>
</g>
<!-- Node4&#45;&gt;Node1 -->
<g id="edge3" class="edge">
<title>Node4&#45;&gt;Node1</title>
<path fill="none" stroke="#63b8ff" d="M1486.42,-528.08C1517.69,-523.42 1554.44,-516.81 1587,-508 1608.87,-502.08 1632.61,-493.17 1651.46,-485.47"/>
<polygon fill="#63b8ff" stroke="#63b8ff" points="1486.05,-524.6 1476.66,-529.5 1487.06,-531.53 1486.05,-524.6"/>
</g>
<!-- Node5 -->
<g id="node5" class="node">
<title>Node5</title>
<g id="a_node5"><a xlink:title=" ">
<polygon fill="white" stroke="#bfbfbf" points="357,-495.5 310,-495.5 310,-476.5 357,-476.5 357,-495.5"/>
<text text-anchor="middle" x="333.5" y="-483.5" font-family="Helvetica,sans-Serif" font-size="10.00">Logger</text>
</a>
</g>
</g>
<!-- Node5&#45;&gt;Node1 -->
<g id="edge4" class="edge">
<title>Node5&#45;&gt;Node1</title>
<path fill="none" stroke="#9a32cd" stroke-dasharray="5,2" d="M368.63,-487.28C431.97,-489.54 571.98,-494 690,-494 690,-494 690,-494 1413.5,-494 1477.85,-494 1550.39,-487.33 1604.58,-481.02"/>
<polygon fill="#9a32cd" stroke="#9a32cd" points="369,-483.79 358.88,-486.93 368.75,-490.79 369,-483.79"/>
<text text-anchor="middle" x="1052.5" y="-497" font-family="Helvetica,sans-Serif" font-size="10.00"> log</text>
</g>
<!-- Node12 -->
<g id="node12" class="node">
<title>Node12</title>
<g id="a_node12"><a xlink:href="classcom_1_1fs_1_1starfarer_1_1api_1_1impl_1_1campaign_1_1shared_1_1PlayerTradeProfitabilityData.html" target="_top" xlink:title=" ">
<polygon fill="white" stroke="#bfbfbf" points="789.5,-225 592.5,-225 592.5,-195 789.5,-195 789.5,-225"/>
<text text-anchor="start" x="600.5" y="-213" font-family="Helvetica,sans-Serif" font-size="10.00">com.fs.starfarer.api.impl.campaign.shared.</text>
<text text-anchor="middle" x="691" y="-202" font-family="Helvetica,sans-Serif" font-size="10.00">PlayerTradeProfitabilityData</text>
</a>
</g>
</g>
<!-- Node5&#45;&gt;Node12 -->
<g id="edge12" class="edge">
<title>Node5&#45;&gt;Node12</title>
<path fill="none" stroke="#9a32cd" stroke-dasharray="5,2" d="M368.59,-480.65C417.62,-470.85 505.88,-444.81 540,-381 571.03,-322.95 512.83,-281.87 558,-234 567.35,-224.09 579.32,-217.46 592.23,-213.12"/>
<polygon fill="#9a32cd" stroke="#9a32cd" points="368,-477.2 358.81,-482.47 369.28,-484.08 368,-477.2"/>
<text text-anchor="middle" x="509.5" y="-443" font-family="Helvetica,sans-Serif" font-size="10.00"> log</text>
</g>
<!-- Node6 -->
<g id="node6" class="node">
<title>Node6</title>
<g id="a_node6"><a xlink:href="classcom_1_1fs_1_1starfarer_1_1api_1_1impl_1_1campaign_1_1shared_1_1SharedData.html" target="_top" xlink:title=" ">
<polygon fill="white" stroke="#bfbfbf" points="1511,-349 1314,-349 1314,-319 1511,-319 1511,-349"/>
<text text-anchor="start" x="1322" y="-337" font-family="Helvetica,sans-Serif" font-size="10.00">com.fs.starfarer.api.impl.campaign.shared.</text>
<text text-anchor="middle" x="1412.5" y="-326" font-family="Helvetica,sans-Serif" font-size="10.00">SharedData</text>
</a>
</g>
</g>
<!-- Node6&#45;&gt;Node1 -->
<g id="edge5" class="edge">
<title>Node6&#45;&gt;Node1</title>
<path fill="none" stroke="#9a32cd" stroke-dasharray="5,2" d="M1454.73,-354.5C1509.9,-381.93 1606.48,-429.96 1655.92,-454.55"/>
<polygon fill="#9a32cd" stroke="#9a32cd" points="1456.48,-351.46 1445.96,-350.14 1453.36,-357.73 1456.48,-351.46"/>
<text text-anchor="middle" x="1558" y="-421" font-family="Helvetica,sans-Serif" font-size="10.00"> shared</text>
</g>
<!-- Node7 -->
<g id="node7" class="node">
<title>Node7</title>
<g id="a_node7"><a xlink:href="classcom_1_1fs_1_1starfarer_1_1api_1_1util_1_1TimeoutTracker.html" target="_top" xlink:title=" ">
<polygon fill="white" stroke="#bfbfbf" points="1116,-276 989,-276 989,-246 1116,-246 1116,-276"/>
<text text-anchor="start" x="997" y="-264" font-family="Helvetica,sans-Serif" font-size="10.00">com.fs.starfarer.api.util.</text>
<text text-anchor="middle" x="1052.5" y="-253" font-family="Helvetica,sans-Serif" font-size="10.00">TimeoutTracker&lt; String &gt;</text>
</a>
</g>
</g>
<!-- Node7&#45;&gt;Node6 -->
<g id="edge6" class="edge">
<title>Node7&#45;&gt;Node6</title>
<path fill="none" stroke="#9a32cd" stroke-dasharray="5,2" d="M1127.8,-257.88C1177.71,-258.67 1243.66,-265.44 1296,-291 1306.17,-295.96 1304.17,-303.4 1314,-309 1320.45,-312.68 1327.45,-315.82 1334.63,-318.51"/>
<polygon fill="#9a32cd" stroke="#9a32cd" points="1127.98,-254.39 1117.95,-257.81 1127.93,-261.39 1127.98,-254.39"/>
<text text-anchor="middle" x="1232.5" y="-305" font-family="Helvetica,sans-Serif" font-size="10.00"> marketsThatSentRelief</text>
<text text-anchor="middle" x="1232.5" y="-294" font-family="Helvetica,sans-Serif" font-size="10.00">marketsThatSentTradeFleet</text>
</g>
<!-- Node8 -->
<g id="node8" class="node">
<title>Node8</title>
<g id="a_node8"><a xlink:title=" ">
<polygon fill="white" stroke="#bfbfbf" points="1139.5,-228 965.5,-228 965.5,-198 1139.5,-198 1139.5,-228"/>
<text text-anchor="start" x="973.5" y="-216" font-family="Helvetica,sans-Serif" font-size="10.00">Map&lt; String, com.fs.starfarer.api.util.</text>
<text text-anchor="middle" x="1052.5" y="-205" font-family="Helvetica,sans-Serif" font-size="10.00">TimeoutTracker&lt; String &gt; &gt;</text>
</a>
</g>
</g>
<!-- Node8&#45;&gt;Node6 -->
<g id="edge7" class="edge">
<title>Node8&#45;&gt;Node6</title>
<path fill="none" stroke="#9a32cd" stroke-dasharray="5,2" d="M1151.07,-202.76C1199.91,-202.97 1256.82,-212.06 1296,-246 1318.01,-265.07 1293.13,-288.69 1314,-309 1317.88,-312.78 1322.25,-316.01 1326.94,-318.77"/>
<polygon fill="#9a32cd" stroke="#9a32cd" points="1151.29,-199.26 1141.33,-202.85 1151.36,-206.26 1151.29,-199.26"/>
<text text-anchor="middle" x="1232.5" y="-249" font-family="Helvetica,sans-Serif" font-size="10.00"> starSystemCustomsTimeout</text>
</g>
<!-- Node9 -->
<g id="node9" class="node">
<title>Node9</title>
<g id="a_node9"><a xlink:href="classcom_1_1fs_1_1starfarer_1_1api_1_1impl_1_1campaign_1_1shared_1_1PlayerActivityTracker.html" target="_top" xlink:title=" ">
<polygon fill="white" stroke="#bfbfbf" points="1151,-324 954,-324 954,-294 1151,-294 1151,-324"/>
<text text-anchor="start" x="962" y="-312" font-family="Helvetica,sans-Serif" font-size="10.00">com.fs.starfarer.api.impl.campaign.shared.</text>
<text text-anchor="middle" x="1052.5" y="-301" font-family="Helvetica,sans-Serif" font-size="10.00">PlayerActivityTracker</text>
</a>
</g>
</g>
<!-- Node9&#45;&gt;Node6 -->
<g id="edge8" class="edge">
<title>Node9&#45;&gt;Node6</title>
<path fill="none" stroke="#9a32cd" stroke-dasharray="5,2" d="M1162.76,-315.93C1204.46,-318.65 1252.44,-321.87 1296,-325 1301.72,-325.41 1307.59,-325.84 1313.52,-326.28"/>
<polygon fill="#9a32cd" stroke="#9a32cd" points="1163.17,-312.45 1152.96,-315.3 1162.71,-319.44 1163.17,-312.45"/>
<text text-anchor="middle" x="1232.5" y="-328" font-family="Helvetica,sans-Serif" font-size="10.00"> playerActivityTracker</text>
</g>
<!-- Node10 -->
<g id="node10" class="node">
<title>Node10</title>
<g id="a_node10"><a xlink:title=" ">
<polygon fill="white" stroke="#bfbfbf" points="789,-333 593,-333 593,-303 789,-303 789,-333"/>
<text text-anchor="start" x="601" y="-321" font-family="Helvetica,sans-Serif" font-size="10.00">Map&lt; com.fs.starfarer.api.campaign.econ.</text>
<text text-anchor="middle" x="691" y="-310" font-family="Helvetica,sans-Serif" font-size="10.00">MarketAPI, Long &gt;</text>
</a>
</g>
</g>
<!-- Node10&#45;&gt;Node9 -->
<g id="edge9" class="edge">
<title>Node10&#45;&gt;Node9</title>
<path fill="none" stroke="#9a32cd" stroke-dasharray="5,2" d="M800.5,-315.28C849.17,-314.07 906.15,-312.64 953.51,-311.45"/>
<polygon fill="#9a32cd" stroke="#9a32cd" points="800.71,-311.78 790.8,-315.53 800.88,-318.78 800.71,-311.78"/>
<text text-anchor="middle" x="889" y="-318" font-family="Helvetica,sans-Serif" font-size="10.00"> lastVisit</text>
</g>
<!-- Node11 -->
<g id="node11" class="node">
<title>Node11</title>
<g id="a_node11"><a xlink:title=" ">
<polygon fill="white" stroke="#bfbfbf" points="824,-284.5 558,-284.5 558,-243.5 824,-243.5 824,-284.5"/>
<text text-anchor="start" x="566" y="-272.5" font-family="Helvetica,sans-Serif" font-size="10.00">Map&lt; com.fs.starfarer.api.campaign.econ.</text>
<text text-anchor="start" x="566" y="-261.5" font-family="Helvetica,sans-Serif" font-size="10.00">SubmarketAPI, com.fs.starfarer.api.impl.campaign.shared.</text>
<text text-anchor="middle" x="691" y="-250.5" font-family="Helvetica,sans-Serif" font-size="10.00">PlayerTradeDataForSubmarket &gt;</text>
</a>
</g>
</g>
<!-- Node11&#45;&gt;Node9 -->
<g id="edge10" class="edge">
<title>Node11&#45;&gt;Node9</title>
<path fill="none" stroke="#9a32cd" stroke-dasharray="5,2" d="M835.71,-281.99C875.34,-286.95 917.4,-292.21 953.76,-296.77"/>
<polygon fill="#9a32cd" stroke="#9a32cd" points="836.19,-278.52 825.83,-280.75 835.32,-285.47 836.19,-278.52"/>
<text text-anchor="middle" x="889" y="-298" font-family="Helvetica,sans-Serif" font-size="10.00"> submarketTradeData</text>
</g>
<!-- Node12&#45;&gt;Node9 -->
<g id="edge11" class="edge">
<title>Node12&#45;&gt;Node9</title>
<path fill="none" stroke="#9a32cd" stroke-dasharray="5,2" d="M796.35,-227.74C805.73,-229.71 815.06,-231.8 824,-234 874.64,-246.47 890.61,-243.32 936,-269 945.32,-274.27 944.53,-280.02 954,-285 960.17,-288.24 966.8,-291.06 973.58,-293.5"/>
<polygon fill="#9a32cd" stroke="#9a32cd" points="797.31,-224.36 786.82,-225.79 795.91,-231.22 797.31,-224.36"/>
<text text-anchor="middle" x="889" y="-272" font-family="Helvetica,sans-Serif" font-size="10.00"> profitabilityData</text>
</g>
<!-- Node13 -->
<g id="node13" class="node">
<title>Node13</title>
<g id="a_node13"><a xlink:title=" ">
<polygon fill="white" stroke="#bfbfbf" points="461,-225 206,-225 206,-195 461,-195 461,-225"/>
<text text-anchor="start" x="214" y="-213" font-family="Helvetica,sans-Serif" font-size="10.00">Map&lt; String, com.fs.starfarer.api.impl.campaign.shared.</text>
<text text-anchor="middle" x="333.5" y="-202" font-family="Helvetica,sans-Serif" font-size="10.00">PlayerTradeProfitabilityData.CommodityData &gt;</text>
</a>
</g>
</g>
<!-- Node13&#45;&gt;Node12 -->
<g id="edge13" class="edge">
<title>Node13&#45;&gt;Node12</title>
<path fill="none" stroke="#9a32cd" stroke-dasharray="5,2" d="M472.79,-210C512.69,-210 555.39,-210 592.28,-210"/>
<polygon fill="#9a32cd" stroke="#9a32cd" points="472.85,-206.5 462.85,-210 472.85,-213.5 472.85,-206.5"/>
<text text-anchor="middle" x="509.5" y="-213" font-family="Helvetica,sans-Serif" font-size="10.00"> dataBought</text>
</g>
<!-- Node14 -->
<g id="node14" class="node">
<title>Node14</title>
<g id="a_node14"><a xlink:href="classcom_1_1fs_1_1starfarer_1_1api_1_1util_1_1IntervalUtil.html" target="_top" xlink:title=" ">
<polygon fill="white" stroke="#bfbfbf" points="391.5,-440 275.5,-440 275.5,-410 391.5,-410 391.5,-440"/>
<text text-anchor="start" x="283.5" y="-428" font-family="Helvetica,sans-Serif" font-size="10.00">com.fs.starfarer.api.util.</text>
<text text-anchor="middle" x="333.5" y="-417" font-family="Helvetica,sans-Serif" font-size="10.00">IntervalUtil</text>
</a>
</g>
</g>
<!-- Node14&#45;&gt;Node1 -->
<g id="edge31" class="edge">
<title>Node14&#45;&gt;Node1</title>
<path fill="none" stroke="#9a32cd" stroke-dasharray="5,2" d="M403.17,-429.49C507.76,-435.92 713.27,-447 888,-447 888,-447 888,-447 1413.5,-447 1477.83,-447 1550.37,-453.4 1604.57,-459.44"/>
<polygon fill="#9a32cd" stroke="#9a32cd" points="403.55,-426 393.35,-428.88 403.12,-432.99 403.55,-426"/>
<text text-anchor="middle" x="1052.5" y="-450" font-family="Helvetica,sans-Serif" font-size="10.00"> timer</text>
</g>
<!-- Node14&#45;&gt;Node12 -->
<g id="edge14" class="edge">
<title>Node14&#45;&gt;Node12</title>
<path fill="none" stroke="#9a32cd" stroke-dasharray="5,2" d="M402.69,-417.37C423.24,-412.29 444.66,-403.88 461,-390 475.55,-377.64 469.63,-367.63 479,-351 509.8,-296.34 505.46,-268.3 558,-234 568.34,-227.25 580.05,-222.27 592.13,-218.61"/>
<polygon fill="#9a32cd" stroke="#9a32cd" points="402.21,-413.89 393.2,-419.47 403.72,-420.72 402.21,-413.89"/>
<text text-anchor="middle" x="509.5" y="-354" font-family="Helvetica,sans-Serif" font-size="10.00"> tracker</text>
</g>
<!-- Node15 -->
<g id="node15" class="node">
<title>Node15</title>
<g id="a_node15"><a xlink:href="classcom_1_1fs_1_1starfarer_1_1api_1_1impl_1_1campaign_1_1shared_1_1ReputationChangeTracker.html" target="_top" xlink:title=" ">
<polygon fill="white" stroke="#bfbfbf" points="789.5,-381 592.5,-381 592.5,-351 789.5,-351 789.5,-381"/>
<text text-anchor="start" x="600.5" y="-369" font-family="Helvetica,sans-Serif" font-size="10.00">com.fs.starfarer.api.impl.campaign.shared.</text>
<text text-anchor="middle" x="691" y="-358" font-family="Helvetica,sans-Serif" font-size="10.00">ReputationChangeTracker</text>
</a>
</g>
</g>
<!-- Node15&#45;&gt;Node9 -->
<g id="edge15" class="edge">
<title>Node15&#45;&gt;Node9</title>
<path fill="none" stroke="#9a32cd" stroke-dasharray="5,2" d="M800.93,-350.72C843.16,-344.59 891.88,-337.26 936,-330 946.46,-328.28 957.43,-326.39 968.28,-324.47"/>
<polygon fill="#9a32cd" stroke="#9a32cd" points="800.66,-347.22 791.27,-352.12 801.67,-354.15 800.66,-347.22"/>
<text text-anchor="middle" x="889" y="-348" font-family="Helvetica,sans-Serif" font-size="10.00"> repChangeTracker</text>
</g>
<!-- Node16 -->
<g id="node16" class="node">
<title>Node16</title>
<g id="a_node16"><a xlink:title=" ">
<polygon fill="white" stroke="#bfbfbf" points="461,-381 206,-381 206,-351 461,-351 461,-381"/>
<text text-anchor="start" x="214" y="-369" font-family="Helvetica,sans-Serif" font-size="10.00">Map&lt; String, com.fs.starfarer.api.impl.campaign.shared.</text>
<text text-anchor="middle" x="333.5" y="-358" font-family="Helvetica,sans-Serif" font-size="10.00">ReputationChangeTracker.ReputationChangeData &gt;</text>
</a>
</g>
</g>
<!-- Node16&#45;&gt;Node15 -->
<g id="edge16" class="edge">
<title>Node16&#45;&gt;Node15</title>
<path fill="none" stroke="#9a32cd" stroke-dasharray="5,2" d="M472.79,-366C512.69,-366 555.39,-366 592.28,-366"/>
<polygon fill="#9a32cd" stroke="#9a32cd" points="472.85,-362.5 462.85,-366 472.85,-369.5 472.85,-362.5"/>
<text text-anchor="middle" x="509.5" y="-369" font-family="Helvetica,sans-Serif" font-size="10.00"> repData</text>
</g>
<!-- Node17 -->
<g id="node17" class="node">
<title>Node17</title>
<g id="a_node17"><a xlink:href="classcom_1_1fs_1_1starfarer_1_1api_1_1impl_1_1campaign_1_1shared_1_1PlayerActivityTracker_1_1FleetStatsSnapshot.html" target="_top" xlink:title=" ">
<polygon fill="white" stroke="#bfbfbf" points="789.5,-177 592.5,-177 592.5,-147 789.5,-147 789.5,-177"/>
<text text-anchor="start" x="600.5" y="-165" font-family="Helvetica,sans-Serif" font-size="10.00">com.fs.starfarer.api.impl.campaign.shared.</text>
<text text-anchor="middle" x="691" y="-154" font-family="Helvetica,sans-Serif" font-size="10.00">PlayerActivityTracker.FleetStatsSnapshot</text>
</a>
</g>
</g>
<!-- Node17&#45;&gt;Node9 -->
<g id="edge17" class="edge">
<title>Node17&#45;&gt;Node9</title>
<path fill="none" stroke="#9a32cd" stroke-dasharray="5,2" d="M797.47,-179.74C806.48,-181.69 815.42,-183.78 824,-186 874.89,-199.18 899.58,-186.09 936,-224 955.58,-244.38 933.56,-265.47 954,-285 957.4,-288.25 961.17,-291.08 965.19,-293.55"/>
<polygon fill="#9a32cd" stroke="#9a32cd" points="798.46,-176.37 787.95,-177.74 797.02,-183.22 798.46,-176.37"/>
<text text-anchor="middle" x="889" y="-227" font-family="Helvetica,sans-Serif" font-size="10.00"> playerFleetStats</text>
</g>
<!-- Node18 -->
<g id="node18" class="node">
<title>Node18</title>
<g id="a_node18"><a xlink:title=" ">
<polygon fill="white" stroke="#bfbfbf" points="363,-174.5 304,-174.5 304,-155.5 363,-155.5 363,-174.5"/>
<text text-anchor="middle" x="333.5" y="-162.5" font-family="Helvetica,sans-Serif" font-size="10.00">Cloneable</text>
</a>
</g>
</g>
<!-- Node18&#45;&gt;Node17 -->
<g id="edge18" class="edge">
<title>Node18&#45;&gt;Node17</title>
<path fill="none" stroke="#63b8ff" d="M374.78,-164.66C427.24,-164.22 520.72,-163.43 592.3,-162.82"/>
<polygon fill="#63b8ff" stroke="#63b8ff" points="374.77,-161.16 364.8,-164.74 374.83,-168.16 374.77,-161.16"/>
</g>
<!-- Node19 -->
<g id="node19" class="node">
<title>Node19</title>
<g id="a_node19"><a xlink:title=" ">
<polygon fill="white" stroke="#bfbfbf" points="1089.5,-361.5 1015.5,-361.5 1015.5,-342.5 1089.5,-342.5 1089.5,-361.5"/>
<text text-anchor="middle" x="1052.5" y="-349.5" font-family="Helvetica,sans-Serif" font-size="10.00">Set&lt; String &gt;</text>
</a>
</g>
</g>
<!-- Node19&#45;&gt;Node6 -->
<g id="edge19" class="edge">
<title>Node19&#45;&gt;Node6</title>
<path fill="none" stroke="#9a32cd" stroke-dasharray="5,2" d="M1101.1,-349.61C1155.15,-346.89 1244.78,-342.38 1313.87,-338.91"/>
<polygon fill="#9a32cd" stroke="#9a32cd" points="1101.12,-346.1 1091.31,-350.1 1101.47,-353.09 1101.12,-346.1"/>
<text text-anchor="start" x="1173.5" y="-361" font-family="Helvetica,sans-Serif" font-size="10.00"> marketsWithoutTradeFleet</text>
<text text-anchor="middle" x="1232.5" y="-350" font-family="Helvetica,sans-Serif" font-size="10.00">Spawn</text>
</g>
<!-- Node20 -->
<g id="node20" class="node">
<title>Node20</title>
<g id="a_node20"><a xlink:href="classcom_1_1fs_1_1starfarer_1_1api_1_1impl_1_1campaign_1_1shared_1_1PersonBountyEventData.html" target="_top" xlink:title=" ">
<polygon fill="white" stroke="#bfbfbf" points="1151,-411 954,-411 954,-381 1151,-381 1151,-411"/>
<text text-anchor="start" x="962" y="-399" font-family="Helvetica,sans-Serif" font-size="10.00">com.fs.starfarer.api.impl.campaign.shared.</text>
<text text-anchor="middle" x="1052.5" y="-388" font-family="Helvetica,sans-Serif" font-size="10.00">PersonBountyEventData</text>
</a>
</g>
</g>
<!-- Node20&#45;&gt;Node6 -->
<g id="edge20" class="edge">
<title>Node20&#45;&gt;Node6</title>
<path fill="none" stroke="#9a32cd" stroke-dasharray="5,2" d="M1162.72,-391.02C1204.72,-387.71 1252.9,-382.19 1296,-373 1322.29,-367.39 1350.92,-357.75 1373.1,-349.46"/>
<polygon fill="#9a32cd" stroke="#9a32cd" points="1162.55,-387.53 1152.84,-391.77 1163.08,-394.51 1162.55,-387.53"/>
<text text-anchor="middle" x="1232.5" y="-393" font-family="Helvetica,sans-Serif" font-size="10.00"> personBountyEventData</text>
</g>
<!-- Node21 -->
<g id="node21" class="node">
<title>Node21</title>
<g id="a_node21"><a xlink:title=" ">
<polygon fill="white" stroke="#bfbfbf" points="728.5,-418.5 653.5,-418.5 653.5,-399.5 728.5,-399.5 728.5,-418.5"/>
<text text-anchor="middle" x="691" y="-406.5" font-family="Helvetica,sans-Serif" font-size="10.00">List&lt; String &gt;</text>
</a>
</g>
</g>
<!-- Node21&#45;&gt;Node20 -->
<g id="edge21" class="edge">
<title>Node21&#45;&gt;Node20</title>
<path fill="none" stroke="#9a32cd" stroke-dasharray="5,2" d="M740.15,-407.26C794.52,-405.29 884.41,-402.04 953.66,-399.54"/>
<polygon fill="#9a32cd" stroke="#9a32cd" points="740.16,-403.76 730.3,-407.62 740.42,-410.75 740.16,-403.76"/>
<text text-anchor="middle" x="889" y="-406" font-family="Helvetica,sans-Serif" font-size="10.00"> participatingFactions</text>
</g>
<!-- Node22 -->
<g id="node22" class="node">
<title>Node22</title>
<g id="a_node22"><a xlink:href="classcom_1_1fs_1_1starfarer_1_1api_1_1campaign_1_1econ_1_1MonthlyReport.html" target="_top" xlink:title=" ">
<polygon fill="white" stroke="#bfbfbf" points="1137,-97 968,-97 968,-67 1137,-67 1137,-97"/>
<text text-anchor="start" x="976" y="-85" font-family="Helvetica,sans-Serif" font-size="10.00">com.fs.starfarer.api.campaign.econ.</text>
<text text-anchor="middle" x="1052.5" y="-74" font-family="Helvetica,sans-Serif" font-size="10.00">MonthlyReport</text>
</a>
</g>
</g>
<!-- Node22&#45;&gt;Node6 -->
<g id="edge22" class="edge">
<title>Node22&#45;&gt;Node6</title>
<path fill="none" stroke="#9a32cd" stroke-dasharray="5,2" d="M1148.65,-95.98C1200.17,-108.62 1260.39,-132.61 1296,-178 1332.27,-224.24 1274.89,-265.14 1314,-309 1317.26,-312.65 1320.97,-315.8 1324.99,-318.52"/>
<polygon fill="#9a32cd" stroke="#9a32cd" points="1149.47,-92.57 1138.93,-93.72 1147.88,-99.39 1149.47,-92.57"/>
<text text-anchor="middle" x="1232.5" y="-192" font-family="Helvetica,sans-Serif" font-size="10.00"> currentReport</text>
<text text-anchor="middle" x="1232.5" y="-181" font-family="Helvetica,sans-Serif" font-size="10.00">previousReport</text>
</g>
<!-- Node23 -->
<g id="node23" class="node">
<title>Node23</title>
<g id="a_node23"><a xlink:href="classcom_1_1fs_1_1starfarer_1_1api_1_1campaign_1_1econ_1_1MonthlyReport_1_1FDNode.html" target="_top" xlink:title=" ">
<polygon fill="white" stroke="#666666" points="775.5,-97 606.5,-97 606.5,-67 775.5,-67 775.5,-97"/>
<text text-anchor="start" x="614.5" y="-85" font-family="Helvetica,sans-Serif" font-size="10.00">com.fs.starfarer.api.campaign.econ.</text>
<text text-anchor="middle" x="691" y="-74" font-family="Helvetica,sans-Serif" font-size="10.00">MonthlyReport.FDNode</text>
</a>
</g>
</g>
<!-- Node23&#45;&gt;Node22 -->
<g id="edge23" class="edge">
<title>Node23&#45;&gt;Node22</title>
<path fill="none" stroke="#9a32cd" stroke-dasharray="5,2" d="M787.21,-82C843.27,-82 913.55,-82 967.53,-82"/>
<polygon fill="#9a32cd" stroke="#9a32cd" points="787.35,-78.5 777.35,-82 787.35,-85.5 787.35,-78.5"/>
<text text-anchor="middle" x="889" y="-85" font-family="Helvetica,sans-Serif" font-size="10.00"> root</text>
</g>
<!-- Node23&#45;&gt;Node23 -->
<g id="edge25" class="edge">
<title>Node23&#45;&gt;Node23</title>
<path fill="none" stroke="#9a32cd" stroke-dasharray="5,2" d="M660.38,-108.61C665.28,-112.43 675.49,-115 691,-115 719.36,-115 729.99,-106.41 722.9,-97.28"/>
<polygon fill="#9a32cd" stroke="#9a32cd" points="663.87,-108.32 659.27,-98.78 656.91,-109.11 663.87,-108.32"/>
<text text-anchor="middle" x="691" y="-118" font-family="Helvetica,sans-Serif" font-size="10.00"> parent</text>
</g>
<!-- Node24 -->
<g id="node24" class="node">
<title>Node24</title>
<g id="a_node24"><a xlink:title=" ">
<polygon fill="white" stroke="#bfbfbf" points="419,-137.5 248,-137.5 248,-96.5 419,-96.5 419,-137.5"/>
<text text-anchor="start" x="256" y="-125.5" font-family="Helvetica,sans-Serif" font-size="10.00">LinkedHashMap&lt; String,</text>
<text text-anchor="start" x="256" y="-114.5" font-family="Helvetica,sans-Serif" font-size="10.00"> com.fs.starfarer.api.campaign.econ.</text>
<text text-anchor="middle" x="333.5" y="-103.5" font-family="Helvetica,sans-Serif" font-size="10.00">MonthlyReport.FDNode &gt;</text>
</a>
</g>
</g>
<!-- Node24&#45;&gt;Node23 -->
<g id="edge24" class="edge">
<title>Node24&#45;&gt;Node23</title>
<path fill="none" stroke="#9a32cd" stroke-dasharray="5,2" d="M430.35,-107.56C485.26,-102.16 553.51,-95.44 606.26,-90.24"/>
<polygon fill="#9a32cd" stroke="#9a32cd" points="430.31,-104.05 420.71,-108.51 431,-111.02 430.31,-104.05"/>
<text text-anchor="middle" x="509.5" y="-106" font-family="Helvetica,sans-Serif" font-size="10.00"> children</text>
</g>
<!-- Node25 -->
<g id="node25" class="node">
<title>Node25</title>
<g id="a_node25"><a xlink:href="interfacecom_1_1fs_1_1starfarer_1_1api_1_1campaign_1_1SectorEntityToken.html" target="_top" xlink:title=" ">
<polygon fill="white" stroke="#666666" points="406.5,-78 260.5,-78 260.5,-48 406.5,-48 406.5,-78"/>
<text text-anchor="start" x="268.5" y="-66" font-family="Helvetica,sans-Serif" font-size="10.00">com.fs.starfarer.api.campaign.</text>
<text text-anchor="middle" x="333.5" y="-55" font-family="Helvetica,sans-Serif" font-size="10.00">SectorEntityToken</text>
</a>
</g>
</g>
<!-- Node25&#45;&gt;Node23 -->
<g id="edge26" class="edge">
<title>Node25&#45;&gt;Node23</title>
<path fill="none" stroke="#9a32cd" stroke-dasharray="5,2" d="M418.32,-67.48C474.98,-70.51 549.52,-74.49 606.19,-77.52"/>
<polygon fill="#9a32cd" stroke="#9a32cd" points="418.55,-63.99 408.38,-66.95 418.18,-70.98 418.55,-63.99"/>
<text text-anchor="middle" x="509.5" y="-77" font-family="Helvetica,sans-Serif" font-size="10.00"> mapEntity</text>
</g>
<!-- Node26 -->
<g id="node26" class="node">
<title>Node26</title>
<g id="a_node26"><a xlink:href="interfacecom_1_1fs_1_1starfarer_1_1api_1_1campaign_1_1rules_1_1HasMemory.html" target="_top" xlink:title=" ">
<polygon fill="white" stroke="#bfbfbf" points="169,-78 0,-78 0,-48 169,-48 169,-78"/>
<text text-anchor="start" x="8" y="-66" font-family="Helvetica,sans-Serif" font-size="10.00">com.fs.starfarer.api.campaign.rules.</text>
<text text-anchor="middle" x="84.5" y="-55" font-family="Helvetica,sans-Serif" font-size="10.00">HasMemory</text>
</a>
</g>
</g>
<!-- Node26&#45;&gt;Node25 -->
<g id="edge27" class="edge">
<title>Node26&#45;&gt;Node25</title>
<path fill="none" stroke="#63b8ff" d="M180.68,-63C207.13,-63 235.41,-63 260.31,-63"/>
<polygon fill="#63b8ff" stroke="#63b8ff" points="180.98,-59.5 170.98,-63 180.98,-66.5 180.98,-59.5"/>
</g>
<!-- Node27 -->
<g id="node27" class="node">
<title>Node27</title>
<g id="a_node27"><a xlink:href="interfacecom_1_1fs_1_1starfarer_1_1api_1_1ui_1_1TooltipMakerAPI_1_1TooltipCreator.html" target="_top" xlink:title=" ">
<polygon fill="white" stroke="#bfbfbf" points="409.5,-30 257.5,-30 257.5,0 409.5,0 409.5,-30"/>
<text text-anchor="start" x="265.5" y="-18" font-family="Helvetica,sans-Serif" font-size="10.00">com.fs.starfarer.api.ui.</text>
<text text-anchor="middle" x="333.5" y="-7" font-family="Helvetica,sans-Serif" font-size="10.00">TooltipMakerAPI.TooltipCreator</text>
</a>
</g>
</g>
<!-- Node27&#45;&gt;Node23 -->
<g id="edge28" class="edge">
<title>Node27&#45;&gt;Node23</title>
<path fill="none" stroke="#9a32cd" stroke-dasharray="5,2" d="M421.03,-31.31C477.93,-42.03 551.92,-55.98 607.9,-66.53"/>
<polygon fill="#9a32cd" stroke="#9a32cd" points="421.86,-27.9 411.38,-29.49 420.56,-34.78 421.86,-27.9"/>
<text text-anchor="middle" x="509.5" y="-56" font-family="Helvetica,sans-Serif" font-size="10.00"> tooltipCreator</text>
</g>
<!-- Node28 -->
<g id="node28" class="node">
<title>Node28</title>
<g id="a_node28"><a xlink:href="classcom_1_1fs_1_1starfarer_1_1api_1_1impl_1_1campaign_1_1MonthlyReportNodeTooltipCreator.html" target="_top" xlink:title=" ">
<polygon fill="white" stroke="#bfbfbf" points="774,-38 608,-38 608,-8 774,-8 774,-38"/>
<text text-anchor="start" x="616" y="-26" font-family="Helvetica,sans-Serif" font-size="10.00">com.fs.starfarer.api.impl.campaign.</text>
<text text-anchor="middle" x="691" y="-15" font-family="Helvetica,sans-Serif" font-size="10.00">MonthlyReportNodeTooltipCreator</text>
</a>
</g>
</g>
<!-- Node27&#45;&gt;Node28 -->
<g id="edge30" class="edge">
<title>Node27&#45;&gt;Node28</title>
<path fill="none" stroke="#63b8ff" d="M421.37,-16.95C478.11,-18.23 551.76,-19.89 607.58,-21.15"/>
<polygon fill="#63b8ff" stroke="#63b8ff" points="421.48,-13.46 411.41,-16.73 421.32,-20.45 421.48,-13.46"/>
</g>
<!-- Node28&#45;&gt;Node22 -->
<g id="edge29" class="edge">
<title>Node28&#45;&gt;Node22</title>
<path fill="none" stroke="#9a32cd" stroke-dasharray="5,2" d="M785.54,-38.35C841.87,-47.6 913.01,-59.27 967.54,-68.22"/>
<polygon fill="#9a32cd" stroke="#9a32cd" points="786.4,-34.95 775.97,-36.78 785.27,-41.85 786.4,-34.95"/>
<text text-anchor="middle" x="889" y="-66" font-family="Helvetica,sans-Serif" font-size="10.00"> monthlyReportTooltip</text>
</g>
<!-- Node29 -->
<g id="node29" class="node">
<title>Node29</title>
<g id="a_node29"><a xlink:title=" ">
<polygon fill="white" stroke="#bfbfbf" points="1439,-300.5 1386,-300.5 1386,-281.5 1439,-281.5 1439,-300.5"/>
<text text-anchor="middle" x="1412.5" y="-288.5" font-family="Helvetica,sans-Serif" font-size="10.00">Random</text>
</a>
</g>
</g>
<!-- Node29&#45;&gt;Node1 -->
<g id="edge32" class="edge">
<title>Node29&#45;&gt;Node1</title>
<path fill="none" stroke="#9a32cd" stroke-dasharray="5,2" d="M1450.31,-293.49C1469.23,-295.9 1492.2,-300.66 1511,-310 1584.22,-346.39 1649.46,-422.2 1675.27,-454.69"/>
<polygon fill="#9a32cd" stroke="#9a32cd" points="1450.95,-290.04 1440.63,-292.43 1450.19,-297 1450.95,-290.04"/>
<text text-anchor="middle" x="1558" y="-364" font-family="Helvetica,sans-Serif" font-size="10.00"> prodRandom</text>
</g>
</g>
</svg>
