<?xml version="1.0" encoding="UTF-8" standalone="no"?>
<!DOCTYPE svg PUBLIC "-//W3C//DTD SVG 1.1//EN"
 "http://www.w3.org/Graphics/SVG/1.1/DTD/svg11.dtd">
<!-- Generated by graphviz version 2.44.0 ()
 -->
<!-- Title: com.fs.starfarer.api.impl.campaign.procgen.ConstellationGen.StarNode Pages: 1 -->
<svg width="271pt" height="185pt"
 viewBox="0.00 0.00 270.50 185.00" xmlns="http://www.w3.org/2000/svg" xmlns:xlink="http://www.w3.org/1999/xlink">
<g id="graph0" class="graph" transform="scale(1 1) rotate(0) translate(4 181)">
<title>com.fs.starfarer.api.impl.campaign.procgen.ConstellationGen.StarNode</title>
<!-- Node1 -->
<g id="node1" class="node">
<title>Node1</title>
<g id="a_node1"><a xlink:title=" ">
<polygon fill="#bfbfbf" stroke="black" points="0,-0.5 0,-30.5 203,-30.5 203,-0.5 0,-0.5"/>
<text text-anchor="start" x="8" y="-18.5" font-family="Helvetica,sans-Serif" font-size="10.00">com.fs.starfarer.api.impl.campaign.procgen.</text>
<text text-anchor="middle" x="101.5" y="-7.5" font-family="Helvetica,sans-Serif" font-size="10.00">ConstellationGen.StarNode</text>
</a>
</g>
</g>
<!-- Node2 -->
<g id="node2" class="node">
<title>Node2</title>
<g id="a_node2"><a xlink:title=" ">
<polygon fill="none" stroke="#bfbfbf" points="45,-84 45,-103 98,-103 98,-84 45,-84"/>
<text text-anchor="middle" x="71.5" y="-91" font-family="Helvetica,sans-Serif" font-size="10.00">Vector2f</text>
</a>
</g>
</g>
<!-- Node2&#45;&gt;Node1 -->
<g id="edge1" class="edge">
<title>Node2&#45;&gt;Node1</title>
<path fill="none" stroke="#9a32cd" stroke-dasharray="5,2" d="M78.73,-74.18C84.03,-60.76 91.11,-42.81 95.97,-30.52"/>
<polygon fill="#9a32cd" stroke="#9a32cd" points="75.36,-73.2 74.94,-83.78 81.87,-75.77 75.36,-73.2"/>
<text text-anchor="middle" x="107" y="-52" font-family="Helvetica,sans-Serif" font-size="10.00"> location</text>
</g>
<!-- Node3 -->
<g id="node3" class="node">
<title>Node3</title>
<g id="a_node3"><a xlink:href="interfacecom_1_1fs_1_1starfarer_1_1api_1_1campaign_1_1StarSystemAPI.html" target="_top" xlink:title=" ">
<polygon fill="none" stroke="black" points="116.5,-78.5 116.5,-108.5 262.5,-108.5 262.5,-78.5 116.5,-78.5"/>
<text text-anchor="start" x="124.5" y="-96.5" font-family="Helvetica,sans-Serif" font-size="10.00">com.fs.starfarer.api.campaign.</text>
<text text-anchor="middle" x="189.5" y="-85.5" font-family="Helvetica,sans-Serif" font-size="10.00">StarSystemAPI</text>
</a>
</g>
</g>
<!-- Node3&#45;&gt;Node1 -->
<g id="edge2" class="edge">
<title>Node3&#45;&gt;Node1</title>
<path fill="none" stroke="#9a32cd" stroke-dasharray="5,2" d="M165.06,-71.39C150.05,-58.43 131.23,-42.18 117.98,-30.73"/>
<polygon fill="#9a32cd" stroke="#9a32cd" points="163.09,-74.32 172.95,-78.2 167.67,-69.02 163.09,-74.32"/>
<text text-anchor="middle" x="167.5" y="-52" font-family="Helvetica,sans-Serif" font-size="10.00"> system</text>
</g>
<!-- Node4 -->
<g id="node4" class="node">
<title>Node4</title>
<g id="a_node4"><a xlink:href="interfacecom_1_1fs_1_1starfarer_1_1api_1_1campaign_1_1LocationAPI.html" target="_top" xlink:title=" ">
<polygon fill="none" stroke="black" points="116.5,-146.5 116.5,-176.5 262.5,-176.5 262.5,-146.5 116.5,-146.5"/>
<text text-anchor="start" x="124.5" y="-164.5" font-family="Helvetica,sans-Serif" font-size="10.00">com.fs.starfarer.api.campaign.</text>
<text text-anchor="middle" x="189.5" y="-153.5" font-family="Helvetica,sans-Serif" font-size="10.00">LocationAPI</text>
</a>
</g>
</g>
<!-- Node4&#45;&gt;Node3 -->
<g id="edge3" class="edge">
<title>Node4&#45;&gt;Node3</title>
<path fill="none" stroke="midnightblue" d="M189.5,-136.03C189.5,-126.86 189.5,-116.74 189.5,-108.79"/>
<polygon fill="midnightblue" stroke="midnightblue" points="186,-136.18 189.5,-146.18 193,-136.18 186,-136.18"/>
</g>
</g>
</svg>
