<?xml version="1.0" encoding="UTF-8" standalone="no"?>
<!DOCTYPE svg PUBLIC "-//W3C//DTD SVG 1.1//EN"
 "http://www.w3.org/Graphics/SVG/1.1/DTD/svg11.dtd">
<!-- Generated by graphviz version 7.0.5 (20221223.1930)
 -->
<!-- Title: com.fs.starfarer.api.impl.campaign.terrain.PulsarBeamTerrainPlugin Pages: 1 -->
<svg width="1197pt" height="322pt"
 viewBox="0.00 0.00 1197.00 322.00" xmlns="http://www.w3.org/2000/svg" xmlns:xlink="http://www.w3.org/1999/xlink">
<g id="graph0" class="graph" transform="scale(1 1) rotate(0) translate(4 318)">
<title>com.fs.starfarer.api.impl.campaign.terrain.PulsarBeamTerrainPlugin</title>
<!-- Node1 -->
<g id="node1" class="node">
<title>Node1</title>
<g id="a_node1"><a xlink:title=" ">
<polygon fill="#999999" stroke="#666666" points="1189,-164 994,-164 994,-134 1189,-134 1189,-164"/>
<text text-anchor="start" x="1002" y="-152" font-family="Helvetica,sans-Serif" font-size="10.00">com.fs.starfarer.api.impl.campaign.terrain.</text>
<text text-anchor="middle" x="1091.5" y="-141" font-family="Helvetica,sans-Serif" font-size="10.00">PulsarBeamTerrainPlugin</text>
</a>
</g>
</g>
<!-- Node2 -->
<g id="node2" class="node">
<title>Node2</title>
<g id="a_node2"><a xlink:href="classcom_1_1fs_1_1starfarer_1_1api_1_1impl_1_1campaign_1_1terrain_1_1BaseRingTerrain.html" target="_top" xlink:title=" ">
<polygon fill="white" stroke="#666666" points="905,-260 710,-260 710,-230 905,-230 905,-260"/>
<text text-anchor="start" x="718" y="-248" font-family="Helvetica,sans-Serif" font-size="10.00">com.fs.starfarer.api.impl.campaign.terrain.</text>
<text text-anchor="middle" x="807.5" y="-237" font-family="Helvetica,sans-Serif" font-size="10.00">BaseRingTerrain</text>
</a>
</g>
</g>
<!-- Node2&#45;&gt;Node1 -->
<g id="edge1" class="edge">
<title>Node2&#45;&gt;Node1</title>
<path fill="none" stroke="#63b8ff" d="M886.09,-226.62C892.51,-224.82 898.89,-222.94 905,-221 958.02,-204.19 1017.72,-180.05 1054.73,-164.44"/>
<polygon fill="#63b8ff" stroke="#63b8ff" points="885.45,-223.17 876.72,-229.17 887.28,-229.92 885.45,-223.17"/>
</g>
<!-- Node3 -->
<g id="node3" class="node">
<title>Node3</title>
<g id="a_node3"><a xlink:href="classcom_1_1fs_1_1starfarer_1_1api_1_1impl_1_1campaign_1_1terrain_1_1BaseTerrain.html" target="_top" xlink:title=" ">
<polygon fill="white" stroke="#666666" points="639,-209 444,-209 444,-179 639,-179 639,-209"/>
<text text-anchor="start" x="452" y="-197" font-family="Helvetica,sans-Serif" font-size="10.00">com.fs.starfarer.api.impl.campaign.terrain.</text>
<text text-anchor="middle" x="541.5" y="-186" font-family="Helvetica,sans-Serif" font-size="10.00">BaseTerrain</text>
</a>
</g>
</g>
<!-- Node3&#45;&gt;Node2 -->
<g id="edge2" class="edge">
<title>Node3&#45;&gt;Node2</title>
<path fill="none" stroke="#63b8ff" d="M633.4,-211.56C663.63,-217.4 697.04,-223.86 726.39,-229.52"/>
<polygon fill="#63b8ff" stroke="#63b8ff" points="634.39,-208.19 623.91,-209.73 633.07,-215.06 634.39,-208.19"/>
</g>
<!-- Node4 -->
<g id="node4" class="node">
<title>Node4</title>
<g id="a_node4"><a xlink:href="interfacecom_1_1fs_1_1starfarer_1_1api_1_1campaign_1_1CampaignTerrainPlugin.html" target="_top" xlink:title=" ">
<polygon fill="white" stroke="#666666" points="352,-209 206,-209 206,-179 352,-179 352,-209"/>
<text text-anchor="start" x="214" y="-197" font-family="Helvetica,sans-Serif" font-size="10.00">com.fs.starfarer.api.campaign.</text>
<text text-anchor="middle" x="279" y="-186" font-family="Helvetica,sans-Serif" font-size="10.00">CampaignTerrainPlugin</text>
</a>
</g>
</g>
<!-- Node4&#45;&gt;Node3 -->
<g id="edge3" class="edge">
<title>Node4&#45;&gt;Node3</title>
<path fill="none" stroke="#63b8ff" d="M363.72,-194C389.22,-194 417.46,-194 443.74,-194"/>
<polygon fill="#63b8ff" stroke="#63b8ff" points="363.73,-190.5 353.73,-194 363.73,-197.5 363.73,-190.5"/>
</g>
<!-- Node5 -->
<g id="node5" class="node">
<title>Node5</title>
<g id="a_node5"><a xlink:href="interfacecom_1_1fs_1_1starfarer_1_1api_1_1campaign_1_1SectorEntityToken.html" target="_top" xlink:title=" ">
<polygon fill="white" stroke="#666666" points="352,-266 206,-266 206,-236 352,-236 352,-266"/>
<text text-anchor="start" x="214" y="-254" font-family="Helvetica,sans-Serif" font-size="10.00">com.fs.starfarer.api.campaign.</text>
<text text-anchor="middle" x="279" y="-243" font-family="Helvetica,sans-Serif" font-size="10.00">SectorEntityToken</text>
</a>
</g>
</g>
<!-- Node5&#45;&gt;Node3 -->
<g id="edge4" class="edge">
<title>Node5&#45;&gt;Node3</title>
<path fill="none" stroke="#9a32cd" stroke-dasharray="5,2" d="M361.58,-233.15C396.33,-225.55 436.49,-216.76 469.95,-209.44"/>
<polygon fill="#9a32cd" stroke="#9a32cd" points="360.99,-229.69 351.97,-235.25 362.49,-236.53 360.99,-229.69"/>
<text text-anchor="middle" x="398" y="-233" font-family="Helvetica,sans-Serif" font-size="10.00"> entity</text>
</g>
<!-- Node7 -->
<g id="node7" class="node">
<title>Node7</title>
<g id="a_node7"><a xlink:title=" ">
<polygon fill="white" stroke="#666666" points="639,-305 444,-305 444,-275 639,-275 639,-305"/>
<text text-anchor="start" x="452" y="-293" font-family="Helvetica,sans-Serif" font-size="10.00">com.fs.starfarer.api.impl.campaign.terrain.</text>
<text text-anchor="middle" x="541.5" y="-282" font-family="Helvetica,sans-Serif" font-size="10.00">BaseRingTerrain.RingParams</text>
</a>
</g>
</g>
<!-- Node5&#45;&gt;Node7 -->
<g id="edge7" class="edge">
<title>Node5&#45;&gt;Node7</title>
<path fill="none" stroke="#9a32cd" stroke-dasharray="5,2" d="M363.38,-263.48C388.97,-267.31 417.34,-271.56 443.74,-275.51"/>
<polygon fill="#9a32cd" stroke="#9a32cd" points="364.12,-260.06 353.71,-262.04 363.09,-266.98 364.12,-260.06"/>
<text text-anchor="middle" x="398" y="-275" font-family="Helvetica,sans-Serif" font-size="10.00"> relatedEntity</text>
</g>
<!-- Node6 -->
<g id="node6" class="node">
<title>Node6</title>
<g id="a_node6"><a xlink:href="interfacecom_1_1fs_1_1starfarer_1_1api_1_1campaign_1_1rules_1_1HasMemory.html" target="_top" xlink:title=" ">
<polygon fill="white" stroke="#666666" points="169,-266 0,-266 0,-236 169,-236 169,-266"/>
<text text-anchor="start" x="8" y="-254" font-family="Helvetica,sans-Serif" font-size="10.00">com.fs.starfarer.api.campaign.rules.</text>
<text text-anchor="middle" x="84.5" y="-243" font-family="Helvetica,sans-Serif" font-size="10.00">HasMemory</text>
</a>
</g>
</g>
<!-- Node6&#45;&gt;Node5 -->
<g id="edge5" class="edge">
<title>Node6&#45;&gt;Node5</title>
<path fill="none" stroke="#63b8ff" d="M180.73,-251C189.08,-251 197.44,-251 205.56,-251"/>
<polygon fill="#63b8ff" stroke="#63b8ff" points="180.89,-247.5 170.89,-251 180.89,-254.5 180.89,-247.5"/>
</g>
<!-- Node7&#45;&gt;Node2 -->
<g id="edge6" class="edge">
<title>Node7&#45;&gt;Node2</title>
<path fill="none" stroke="#9a32cd" stroke-dasharray="5,2" d="M644.43,-272.63C667.99,-268.61 692.89,-264.36 715.93,-260.44"/>
<polygon fill="#9a32cd" stroke="#9a32cd" points="644.12,-269.13 634.85,-274.26 645.29,-276.03 644.12,-269.13"/>
<text text-anchor="middle" x="674.5" y="-273" font-family="Helvetica,sans-Serif" font-size="10.00"> params</text>
</g>
<!-- Node13 -->
<g id="node13" class="node">
<title>Node13</title>
<g id="a_node13"><a xlink:title=" ">
<polygon fill="white" stroke="#666666" points="905,-314 710,-314 710,-284 905,-284 905,-314"/>
<text text-anchor="start" x="718" y="-302" font-family="Helvetica,sans-Serif" font-size="10.00">com.fs.starfarer.api.impl.campaign.terrain.</text>
<text text-anchor="middle" x="807.5" y="-291" font-family="Helvetica,sans-Serif" font-size="10.00">StarCoronaTerrainPlugin.CoronaParams</text>
</a>
</g>
</g>
<!-- Node7&#45;&gt;Node13 -->
<g id="edge14" class="edge">
<title>Node7&#45;&gt;Node13</title>
<path fill="none" stroke="#63b8ff" d="M650.71,-293.69C670.26,-294.36 690.52,-295.05 709.71,-295.7"/>
<polygon fill="#63b8ff" stroke="#63b8ff" points="650.93,-290.19 640.82,-293.35 650.69,-297.19 650.93,-290.19"/>
</g>
<!-- Node8 -->
<g id="node8" class="node">
<title>Node8</title>
<g id="a_node8"><a xlink:title=" ">
<polygon fill="white" stroke="#666666" points="638.5,-257 444.5,-257 444.5,-227 638.5,-227 638.5,-257"/>
<text text-anchor="start" x="452.5" y="-245" font-family="Helvetica,sans-Serif" font-size="10.00">EnumSet&lt; com.fs.starfarer.api.campaign.</text>
<text text-anchor="middle" x="541.5" y="-234" font-family="Helvetica,sans-Serif" font-size="10.00">CampaignEngineLayers &gt;</text>
</a>
</g>
</g>
<!-- Node8&#45;&gt;Node2 -->
<g id="edge8" class="edge">
<title>Node8&#45;&gt;Node2</title>
<path fill="none" stroke="#9a32cd" stroke-dasharray="5,2" d="M649.91,-242.58C664.06,-242.7 678.38,-242.84 692,-243 697.77,-243.07 703.69,-243.15 709.67,-243.24"/>
<polygon fill="#9a32cd" stroke="#9a32cd" points="650.15,-239.08 640.12,-242.5 650.09,-246.08 650.15,-239.08"/>
<text text-anchor="middle" x="674.5" y="-246" font-family="Helvetica,sans-Serif" font-size="10.00"> layers</text>
</g>
<!-- Node9 -->
<g id="node9" class="node">
<title>Node9</title>
<g id="a_node9"><a xlink:title=" ">
<polygon fill="white" stroke="#666666" points="905,-212 710,-212 710,-182 905,-182 905,-212"/>
<text text-anchor="start" x="718" y="-200" font-family="Helvetica,sans-Serif" font-size="10.00">com.fs.starfarer.api.impl.campaign.terrain.</text>
<text text-anchor="middle" x="807.5" y="-189" font-family="Helvetica,sans-Serif" font-size="10.00">PulsarRenderer.PulsarRendererDelegate</text>
</a>
</g>
</g>
<!-- Node9&#45;&gt;Node1 -->
<g id="edge9" class="edge">
<title>Node9&#45;&gt;Node1</title>
<path fill="none" stroke="#63b8ff" d="M910.37,-179.66C939.64,-174.68 971.35,-169.28 999.89,-164.42"/>
<polygon fill="#63b8ff" stroke="#63b8ff" points="910.04,-176.17 900.77,-181.29 911.22,-183.07 910.04,-176.17"/>
</g>
<!-- Node10 -->
<g id="node10" class="node">
<title>Node10</title>
<g id="a_node10"><a xlink:href="interfacecom_1_1fs_1_1starfarer_1_1api_1_1graphics_1_1SpriteAPI.html" target="_top" xlink:title=" ">
<polygon fill="white" stroke="#666666" points="877.5,-164 737.5,-164 737.5,-134 877.5,-134 877.5,-164"/>
<text text-anchor="start" x="745.5" y="-152" font-family="Helvetica,sans-Serif" font-size="10.00">com.fs.starfarer.api.graphics.</text>
<text text-anchor="middle" x="807.5" y="-141" font-family="Helvetica,sans-Serif" font-size="10.00">SpriteAPI</text>
</a>
</g>
</g>
<!-- Node10&#45;&gt;Node1 -->
<g id="edge10" class="edge">
<title>Node10&#45;&gt;Node1</title>
<path fill="none" stroke="#9a32cd" stroke-dasharray="5,2" d="M889.14,-149C921.74,-149 959.64,-149 993.71,-149"/>
<polygon fill="#9a32cd" stroke="#9a32cd" points="889.36,-145.5 879.36,-149 889.36,-152.5 889.36,-145.5"/>
<text text-anchor="middle" x="949.5" y="-152" font-family="Helvetica,sans-Serif" font-size="10.00"> flareTexture</text>
</g>
<!-- Node11 -->
<g id="node11" class="node">
<title>Node11</title>
<g id="a_node11"><a xlink:title=" ">
<polygon fill="white" stroke="#666666" points="827,-115.5 788,-115.5 788,-96.5 827,-96.5 827,-115.5"/>
<text text-anchor="middle" x="807.5" y="-103.5" font-family="Helvetica,sans-Serif" font-size="10.00">Color</text>
</a>
</g>
</g>
<!-- Node11&#45;&gt;Node1 -->
<g id="edge11" class="edge">
<title>Node11&#45;&gt;Node1</title>
<path fill="none" stroke="#9a32cd" stroke-dasharray="5,2" d="M838.36,-110.55C875.11,-116.16 939.33,-125.95 993.76,-134.25"/>
<polygon fill="#9a32cd" stroke="#9a32cd" points="839.35,-107.16 828.94,-109.12 838.3,-114.08 839.35,-107.16"/>
<text text-anchor="middle" x="949.5" y="-134" font-family="Helvetica,sans-Serif" font-size="10.00"> color</text>
</g>
<!-- Node12 -->
<g id="node12" class="node">
<title>Node12</title>
<g id="a_node12"><a xlink:href="classcom_1_1fs_1_1starfarer_1_1api_1_1impl_1_1campaign_1_1terrain_1_1PulsarRenderer.html" target="_top" xlink:title=" ">
<polygon fill="white" stroke="#666666" points="905,-78 710,-78 710,-48 905,-48 905,-78"/>
<text text-anchor="start" x="718" y="-66" font-family="Helvetica,sans-Serif" font-size="10.00">com.fs.starfarer.api.impl.campaign.terrain.</text>
<text text-anchor="middle" x="807.5" y="-55" font-family="Helvetica,sans-Serif" font-size="10.00">PulsarRenderer</text>
</a>
</g>
</g>
<!-- Node12&#45;&gt;Node1 -->
<g id="edge12" class="edge">
<title>Node12&#45;&gt;Node1</title>
<path fill="none" stroke="#9a32cd" stroke-dasharray="5,2" d="M914.8,-80.8C935.32,-85.3 956.5,-90.68 976,-97 1006.12,-106.76 1038.85,-122.14 1061.57,-133.65"/>
<polygon fill="#9a32cd" stroke="#9a32cd" points="915.8,-77.44 905.29,-78.78 914.34,-84.29 915.8,-77.44"/>
<text text-anchor="middle" x="949.5" y="-111" font-family="Helvetica,sans-Serif" font-size="10.00"> flare1</text>
<text text-anchor="middle" x="949.5" y="-100" font-family="Helvetica,sans-Serif" font-size="10.00">flare2</text>
</g>
<!-- Node13&#45;&gt;Node1 -->
<g id="edge13" class="edge">
<title>Node13&#45;&gt;Node1</title>
<path fill="none" stroke="#9a32cd" stroke-dasharray="5,2" d="M877.95,-279.93C887.2,-276.66 896.43,-273.01 905,-269 969.44,-238.84 1037.89,-189.38 1070.7,-164.43"/>
<polygon fill="#9a32cd" stroke="#9a32cd" points="876.92,-276.58 868.57,-283.1 879.16,-283.21 876.92,-276.58"/>
<text text-anchor="middle" x="949.5" y="-261" font-family="Helvetica,sans-Serif" font-size="10.00"> params</text>
</g>
<!-- Node14 -->
<g id="node14" class="node">
<title>Node14</title>
<g id="a_node14"><a xlink:href="classcom_1_1fs_1_1starfarer_1_1api_1_1impl_1_1campaign_1_1terrain_1_1RangeBlockerUtil.html" target="_top" xlink:title=" ">
<polygon fill="white" stroke="#666666" points="905,-30 710,-30 710,0 905,0 905,-30"/>
<text text-anchor="start" x="718" y="-18" font-family="Helvetica,sans-Serif" font-size="10.00">com.fs.starfarer.api.impl.campaign.terrain.</text>
<text text-anchor="middle" x="807.5" y="-7" font-family="Helvetica,sans-Serif" font-size="10.00">RangeBlockerUtil</text>
</a>
</g>
</g>
<!-- Node14&#45;&gt;Node1 -->
<g id="edge15" class="edge">
<title>Node14&#45;&gt;Node1</title>
<path fill="none" stroke="#9a32cd" stroke-dasharray="5,2" d="M887.08,-33.54C893.17,-35.28 899.21,-37.11 905,-39 937.4,-49.59 946.11,-51.61 976,-68 1011.65,-87.56 1049.52,-116.07 1071.53,-133.53"/>
<polygon fill="#9a32cd" stroke="#9a32cd" points="888.11,-30.19 877.54,-30.89 886.24,-36.94 888.11,-30.19"/>
<text text-anchor="middle" x="949.5" y="-71" font-family="Helvetica,sans-Serif" font-size="10.00"> blocker</text>
</g>
</g>
</svg>
