<?xml version="1.0" encoding="UTF-8" standalone="no"?>
<!DOCTYPE svg PUBLIC "-//W3C//DTD SVG 1.1//EN"
 "http://www.w3.org/Graphics/SVG/1.1/DTD/svg11.dtd">
<!-- Generated by graphviz version 2.44.0 ()
 -->
<!-- Title: com.fs.starfarer.api.impl.campaign.FleetEncounterContext Pages: 1 -->
<svg width="874pt" height="529pt"
 viewBox="0.00 0.00 874.00 529.00" xmlns="http://www.w3.org/2000/svg" xmlns:xlink="http://www.w3.org/1999/xlink">
<g id="graph0" class="graph" transform="scale(1 1) rotate(0) translate(4 525)">
<title>com.fs.starfarer.api.impl.campaign.FleetEncounterContext</title>
<!-- Node1 -->
<g id="node1" class="node">
<title>Node1</title>
<g id="a_node1"><a xlink:title=" ">
<polygon fill="#bfbfbf" stroke="black" points="700,-245.5 700,-275.5 866,-275.5 866,-245.5 700,-245.5"/>
<text text-anchor="start" x="708" y="-263.5" font-family="Helvetica,sans-Serif" font-size="10.00">com.fs.starfarer.api.impl.campaign.</text>
<text text-anchor="middle" x="783" y="-252.5" font-family="Helvetica,sans-Serif" font-size="10.00">FleetEncounterContext</text>
</a>
</g>
</g>
<!-- Node2 -->
<g id="node2" class="node">
<title>Node2</title>
<g id="a_node2"><a xlink:href="interfacecom_1_1fs_1_1starfarer_1_1api_1_1campaign_1_1FleetEncounterContextPlugin.html" target="_top" xlink:title=" ">
<polygon fill="none" stroke="black" points="336,-490.5 336,-520.5 482,-520.5 482,-490.5 336,-490.5"/>
<text text-anchor="start" x="344" y="-508.5" font-family="Helvetica,sans-Serif" font-size="10.00">com.fs.starfarer.api.campaign.</text>
<text text-anchor="middle" x="409" y="-497.5" font-family="Helvetica,sans-Serif" font-size="10.00">FleetEncounterContextPlugin</text>
</a>
</g>
</g>
<!-- Node2&#45;&gt;Node1 -->
<g id="edge1" class="edge">
<title>Node2&#45;&gt;Node1</title>
<path fill="none" stroke="midnightblue" d="M492.41,-514.51C550.62,-516.52 627.63,-509.91 682,-470.5 749.52,-421.56 773.18,-314.93 779.8,-275.53"/>
<polygon fill="midnightblue" stroke="midnightblue" points="492.28,-511 482.13,-514.06 491.97,-517.99 492.28,-511"/>
</g>
<!-- Node3 -->
<g id="node3" class="node">
<title>Node3</title>
<g id="a_node3"><a xlink:href="interfacecom_1_1fs_1_1starfarer_1_1api_1_1campaign_1_1CargoAPI.html" target="_top" xlink:title=" ">
<polygon fill="none" stroke="black" points="336,-441.5 336,-471.5 482,-471.5 482,-441.5 336,-441.5"/>
<text text-anchor="start" x="344" y="-459.5" font-family="Helvetica,sans-Serif" font-size="10.00">com.fs.starfarer.api.campaign.</text>
<text text-anchor="middle" x="409" y="-448.5" font-family="Helvetica,sans-Serif" font-size="10.00">CargoAPI</text>
</a>
</g>
</g>
<!-- Node3&#45;&gt;Node1 -->
<g id="edge2" class="edge">
<title>Node3&#45;&gt;Node1</title>
<path fill="none" stroke="#9a32cd" stroke-dasharray="5,2" d="M492.21,-460.42C549.63,-459.33 625.77,-449.89 682,-413.5 734.48,-379.54 765.41,-307.24 776.88,-275.72"/>
<polygon fill="#9a32cd" stroke="#9a32cd" points="492.04,-456.92 482.08,-460.53 492.11,-463.92 492.04,-456.92"/>
<text text-anchor="middle" x="617" y="-458.5" font-family="Helvetica,sans-Serif" font-size="10.00"> loot</text>
</g>
<!-- Node4 -->
<g id="node4" class="node">
<title>Node4</title>
<g id="a_node4"><a xlink:title=" ">
<polygon fill="none" stroke="#bfbfbf" points="284,-392.5 284,-422.5 534,-422.5 534,-392.5 284,-392.5"/>
<text text-anchor="start" x="292" y="-410.5" font-family="Helvetica,sans-Serif" font-size="10.00">List&lt; com.fs.starfarer.api.campaign.</text>
<text text-anchor="middle" x="409" y="-399.5" font-family="Helvetica,sans-Serif" font-size="10.00">FleetEncounterContextPlugin.DataForEncounterSide &gt;</text>
</a>
</g>
</g>
<!-- Node4&#45;&gt;Node1 -->
<g id="edge3" class="edge">
<title>Node4&#45;&gt;Node1</title>
<path fill="none" stroke="#9a32cd" stroke-dasharray="5,2" d="M544.24,-400.74C589.91,-394.25 639.98,-382.28 682,-360.5 721.67,-339.93 755.48,-298.07 771.71,-275.58"/>
<polygon fill="#9a32cd" stroke="#9a32cd" points="543.71,-397.28 534.27,-402.08 544.65,-404.22 543.71,-397.28"/>
<text text-anchor="middle" x="617" y="-401.5" font-family="Helvetica,sans-Serif" font-size="10.00"> sideData</text>
</g>
<!-- Node5 -->
<g id="node5" class="node">
<title>Node5</title>
<g id="a_node5"><a xlink:title=" ">
<polygon fill="none" stroke="#bfbfbf" points="334.5,-343.5 334.5,-373.5 483.5,-373.5 483.5,-343.5 334.5,-343.5"/>
<text text-anchor="start" x="342.5" y="-361.5" font-family="Helvetica,sans-Serif" font-size="10.00">Map&lt; com.fs.starfarer.api.fleet.</text>
<text text-anchor="middle" x="409" y="-350.5" font-family="Helvetica,sans-Serif" font-size="10.00">FleetMemberAPI, Float &gt;</text>
</a>
</g>
</g>
<!-- Node5&#45;&gt;Node1 -->
<g id="edge4" class="edge">
<title>Node5&#45;&gt;Node1</title>
<path fill="none" stroke="#9a32cd" stroke-dasharray="5,2" d="M493.63,-353.87C548.43,-348.92 620.94,-338.68 682,-317.5 711.08,-307.42 741.36,-288.84 760.87,-275.63"/>
<polygon fill="#9a32cd" stroke="#9a32cd" points="493.28,-350.39 483.62,-354.74 493.88,-357.37 493.28,-350.39"/>
<text text-anchor="middle" x="617" y="-348.5" font-family="Helvetica,sans-Serif" font-size="10.00"> preEngagementCRForWinner</text>
</g>
<!-- Node6 -->
<g id="node6" class="node">
<title>Node6</title>
<g id="a_node6"><a xlink:title=" ">
<polygon fill="none" stroke="#bfbfbf" points="322.5,-294.5 322.5,-324.5 495.5,-324.5 495.5,-294.5 322.5,-294.5"/>
<text text-anchor="start" x="330.5" y="-312.5" font-family="Helvetica,sans-Serif" font-size="10.00">Map&lt; com.fs.starfarer.api.campaign.</text>
<text text-anchor="middle" x="409" y="-301.5" font-family="Helvetica,sans-Serif" font-size="10.00">FactionAPI, Float &gt;</text>
</a>
</g>
</g>
<!-- Node6&#45;&gt;Node1 -->
<g id="edge5" class="edge">
<title>Node6&#45;&gt;Node1</title>
<path fill="none" stroke="#9a32cd" stroke-dasharray="5,2" d="M505.76,-298.11C557.91,-291.76 623.55,-283.54 682,-275.5 687.83,-274.7 693.84,-273.85 699.89,-272.98"/>
<polygon fill="#9a32cd" stroke="#9a32cd" points="505.02,-294.68 495.52,-299.36 505.87,-301.62 505.02,-294.68"/>
<text text-anchor="start" x="552" y="-305.5" font-family="Helvetica,sans-Serif" font-size="10.00"> playerFPHullDamageToAllies</text>
<text text-anchor="middle" x="617" y="-294.5" font-family="Helvetica,sans-Serif" font-size="10.00">ByFaction</text>
</g>
<!-- Node7 -->
<g id="node7" class="node">
<title>Node7</title>
<g id="a_node7"><a xlink:href="classcom_1_1fs_1_1starfarer_1_1api_1_1campaign_1_1CombatDamageData.html" target="_top" xlink:title=" ">
<polygon fill="none" stroke="black" points="336,-245.5 336,-275.5 482,-275.5 482,-245.5 336,-245.5"/>
<text text-anchor="start" x="344" y="-263.5" font-family="Helvetica,sans-Serif" font-size="10.00">com.fs.starfarer.api.campaign.</text>
<text text-anchor="middle" x="409" y="-252.5" font-family="Helvetica,sans-Serif" font-size="10.00">CombatDamageData</text>
</a>
</g>
</g>
<!-- Node7&#45;&gt;Node1 -->
<g id="edge6" class="edge">
<title>Node7&#45;&gt;Node1</title>
<path fill="none" stroke="#9a32cd" stroke-dasharray="5,2" d="M492.27,-260.5C554.05,-260.5 638.28,-260.5 700,-260.5"/>
<polygon fill="#9a32cd" stroke="#9a32cd" points="492.17,-257 482.17,-260.5 492.17,-264 492.17,-257"/>
<text text-anchor="middle" x="617" y="-263.5" font-family="Helvetica,sans-Serif" font-size="10.00"> runningDamageTotal</text>
</g>
<!-- Node8 -->
<g id="node8" class="node">
<title>Node8</title>
<g id="a_node8"><a xlink:title=" ">
<polygon fill="none" stroke="#bfbfbf" points="0,-240 0,-281 224,-281 224,-240 0,-240"/>
<text text-anchor="start" x="8" y="-269" font-family="Helvetica,sans-Serif" font-size="10.00">Map&lt; com.fs.starfarer.api.fleet.</text>
<text text-anchor="start" x="8" y="-258" font-family="Helvetica,sans-Serif" font-size="10.00">FleetMemberAPI, com.fs.starfarer.api.campaign.</text>
<text text-anchor="middle" x="112" y="-247" font-family="Helvetica,sans-Serif" font-size="10.00">CombatDamageData.DealtByFleetMember &gt;</text>
</a>
</g>
</g>
<!-- Node8&#45;&gt;Node7 -->
<g id="edge7" class="edge">
<title>Node8&#45;&gt;Node7</title>
<path fill="none" stroke="#9a32cd" stroke-dasharray="5,2" d="M234.26,-260.5C268.77,-260.5 305.26,-260.5 335.84,-260.5"/>
<polygon fill="#9a32cd" stroke="#9a32cd" points="234.11,-257 224.11,-260.5 234.11,-264 234.11,-257"/>
<text text-anchor="middle" x="254" y="-263.5" font-family="Helvetica,sans-Serif" font-size="10.00"> dealt</text>
</g>
<!-- Node9 -->
<g id="node9" class="node">
<title>Node9</title>
<g id="a_node9"><a xlink:href="enumcom_1_1fs_1_1starfarer_1_1api_1_1campaign_1_1FleetEncounterContextPlugin_1_1EngagementOutcome.html" target="_top" xlink:title=" ">
<polygon fill="none" stroke="black" points="310,-186 310,-227 508,-227 508,-186 310,-186"/>
<text text-anchor="start" x="318" y="-215" font-family="Helvetica,sans-Serif" font-size="10.00">com.fs.starfarer.api.campaign.</text>
<text text-anchor="start" x="318" y="-204" font-family="Helvetica,sans-Serif" font-size="10.00">FleetEncounterContextPlugin.Engagement</text>
<text text-anchor="middle" x="409" y="-193" font-family="Helvetica,sans-Serif" font-size="10.00">Outcome</text>
</a>
</g>
</g>
<!-- Node9&#45;&gt;Node1 -->
<g id="edge8" class="edge">
<title>Node9&#45;&gt;Node1</title>
<path fill="none" stroke="#9a32cd" stroke-dasharray="5,2" d="M518.38,-221.88C568.22,-228.99 628.13,-237.6 682,-245.5 687.82,-246.35 693.83,-247.24 699.88,-248.14"/>
<polygon fill="#9a32cd" stroke="#9a32cd" points="518.62,-218.37 508.22,-220.43 517.63,-225.3 518.62,-218.37"/>
<text text-anchor="middle" x="617" y="-248.5" font-family="Helvetica,sans-Serif" font-size="10.00"> lastOutcome</text>
</g>
<!-- Node10 -->
<g id="node10" class="node">
<title>Node10</title>
<g id="a_node10"><a xlink:href="interfacecom_1_1fs_1_1starfarer_1_1api_1_1campaign_1_1TextPanelAPI.html" target="_top" xlink:title=" ">
<polygon fill="none" stroke="black" points="336,-137.5 336,-167.5 482,-167.5 482,-137.5 336,-137.5"/>
<text text-anchor="start" x="344" y="-155.5" font-family="Helvetica,sans-Serif" font-size="10.00">com.fs.starfarer.api.campaign.</text>
<text text-anchor="middle" x="409" y="-144.5" font-family="Helvetica,sans-Serif" font-size="10.00">TextPanelAPI</text>
</a>
</g>
</g>
<!-- Node10&#45;&gt;Node1 -->
<g id="edge9" class="edge">
<title>Node10&#45;&gt;Node1</title>
<path fill="none" stroke="#9a32cd" stroke-dasharray="5,2" d="M492.16,-164.58C546.95,-174.02 620.01,-189.3 682,-211.5 707.66,-220.69 735.39,-234.62 755.13,-245.28"/>
<polygon fill="#9a32cd" stroke="#9a32cd" points="492.59,-161.1 482.15,-162.88 491.43,-168 492.59,-161.1"/>
<text text-anchor="middle" x="617" y="-214.5" font-family="Helvetica,sans-Serif" font-size="10.00"> textPanelForXPGain</text>
</g>
<!-- Node11 -->
<g id="node11" class="node">
<title>Node11</title>
<g id="a_node11"><a xlink:title=" ">
<polygon fill="none" stroke="#bfbfbf" points="382.5,-99 382.5,-118 435.5,-118 435.5,-99 382.5,-99"/>
<text text-anchor="middle" x="409" y="-106" font-family="Helvetica,sans-Serif" font-size="10.00">Random</text>
</a>
</g>
</g>
<!-- Node11&#45;&gt;Node1 -->
<g id="edge10" class="edge">
<title>Node11&#45;&gt;Node1</title>
<path fill="none" stroke="#9a32cd" stroke-dasharray="5,2" d="M445.89,-108.71C500.24,-110.46 605.21,-119.56 682,-161.5 720.81,-182.69 754.73,-223.41 771.27,-245.44"/>
<polygon fill="#9a32cd" stroke="#9a32cd" points="445.81,-105.21 435.72,-108.45 445.63,-112.2 445.81,-105.21"/>
<text text-anchor="middle" x="617" y="-164.5" font-family="Helvetica,sans-Serif" font-size="10.00"> salvageRandom</text>
</g>
<!-- Node12 -->
<g id="node12" class="node">
<title>Node12</title>
<g id="a_node12"><a xlink:title=" ">
<polygon fill="none" stroke="#bfbfbf" points="336,-49.5 336,-79.5 482,-79.5 482,-49.5 336,-49.5"/>
<text text-anchor="start" x="344" y="-67.5" font-family="Helvetica,sans-Serif" font-size="10.00">List&lt; com.fs.starfarer.api.fleet.</text>
<text text-anchor="middle" x="409" y="-56.5" font-family="Helvetica,sans-Serif" font-size="10.00">FleetMemberAPI &gt;</text>
</a>
</g>
</g>
<!-- Node12&#45;&gt;Node1 -->
<g id="edge11" class="edge">
<title>Node12&#45;&gt;Node1</title>
<path fill="none" stroke="#9a32cd" stroke-dasharray="5,2" d="M492.32,-54.92C549.79,-52.37 625.94,-57.67 682,-93.5 738.95,-129.9 767.95,-211.35 777.91,-245.25"/>
<polygon fill="#9a32cd" stroke="#9a32cd" points="491.97,-51.43 482.17,-55.45 492.35,-58.42 491.97,-51.43"/>
<text text-anchor="middle" x="617" y="-107.5" font-family="Helvetica,sans-Serif" font-size="10.00"> recoverableShips</text>
<text text-anchor="middle" x="617" y="-96.5" font-family="Helvetica,sans-Serif" font-size="10.00">storyRecoverableShips</text>
</g>
<!-- Node13 -->
<g id="node13" class="node">
<title>Node13</title>
<g id="a_node13"><a xlink:href="interfacecom_1_1fs_1_1starfarer_1_1api_1_1campaign_1_1BattleAPI.html" target="_top" xlink:title=" ">
<polygon fill="none" stroke="black" points="336,-0.5 336,-30.5 482,-30.5 482,-0.5 336,-0.5"/>
<text text-anchor="start" x="344" y="-18.5" font-family="Helvetica,sans-Serif" font-size="10.00">com.fs.starfarer.api.campaign.</text>
<text text-anchor="middle" x="409" y="-7.5" font-family="Helvetica,sans-Serif" font-size="10.00">BattleAPI</text>
</a>
</g>
</g>
<!-- Node13&#45;&gt;Node1 -->
<g id="edge12" class="edge">
<title>Node13&#45;&gt;Node1</title>
<path fill="none" stroke="#9a32cd" stroke-dasharray="5,2" d="M492.32,-2.65C550.49,1.89 627.49,-1.75 682,-40.5 752.96,-90.93 774.59,-204.15 780.23,-245.23"/>
<polygon fill="#9a32cd" stroke="#9a32cd" points="491.71,0.81 482.05,-3.56 492.32,-6.17 491.71,0.81"/>
<text text-anchor="middle" x="617" y="-43.5" font-family="Helvetica,sans-Serif" font-size="10.00"> battle</text>
</g>
</g>
</svg>
