<?xml version="1.0" encoding="UTF-8" standalone="no"?>
<!DOCTYPE svg PUBLIC "-//W3C//DTD SVG 1.1//EN"
 "http://www.w3.org/Graphics/SVG/1.1/DTD/svg11.dtd">
<!-- Generated by graphviz version 9.0.0 (20230911.1827)
 -->
<!-- Title: com.fs.starfarer.api.impl.campaign.terrain.StarCoronaTerrainPlugin Pages: 1 -->
<!--zoomable 319 -->

<svg id="main" version="1.1" xmlns="http://www.w3.org/2000/svg" xmlns:xlink="http://www.w3.org/1999/xlink" xml:space="preserve" onload="init(evt)">
<style type="text/css"><![CDATA[
.node, .edge {opacity: 0.7;}
.node.selected, .edge.selected {opacity: 1;}
.edge:hover path { stroke: red; }
.edge:hover polygon { stroke: red; fill: red; }
]]></style>

<defs>
  <circle id="rim" cx="0" cy="0" r="7"/>
  <circle id="rim2" cx="0" cy="0" r="3.5"/>
  <g id="zoomPlus">
    <use xlink:href="#rim" fill="#404040"><set attributeName="fill" to="#808080" begin="zoomplus.mouseover" end="zoomplus.mouseout"/></use>
    <path d="M-4,0h8M0,-4v8" fill="none" stroke="white" stroke-width="1.5" pointer-events="none"/>
  </g>
  <g id="zoomMin">
    <use xlink:href="#rim" fill="#404040"><set attributeName="fill" to="#808080" begin="zoomminus.mouseover" end="zoomminus.mouseout"/></use>
    <path d="M-4,0h8" fill="none" stroke="white" stroke-width="1.5" pointer-events="none"/>
  </g>
  <g id="arrowUp" transform="translate(30 24)">
    <use xlink:href="#rim"/>
    <path pointer-events="none" fill="none" stroke="white" stroke-width="1.5" d="M0,-3.0v7 M-2.5,-0.5L0,-3.0L2.5,-0.5"/>
  </g>
  <g id="arrowRight" transform="rotate(90) translate(36 -43)">
    <use xlink:href="#rim"/>
    <path pointer-events="none" fill="none" stroke="white" stroke-width="1.5" d="M0,-3.0v7 M-2.5,-0.5L0,-3.0L2.5,-0.5"/>
  </g>
  <g id="arrowDown" transform="rotate(180) translate(-30 -48)">
    <use xlink:href="#rim"/>
    <path pointer-events="none" fill="none" stroke="white" stroke-width="1.5" d="M0,-3.0v7 M-2.5,-0.5L0,-3.0L2.5,-0.5"/>
  </g>
  <g id="arrowLeft" transform="rotate(270) translate(-36 17)">
    <use xlink:href="#rim"/>
    <path pointer-events="none" fill="none" stroke="white" stroke-width="1.5" d="M0,-3.0v7 M-2.5,-0.5L0,-3.0L2.5,-0.5"/>
  </g>
  <g id="resetDef">
    <use xlink:href="#rim2" fill="#404040"><set attributeName="fill" to="#808080" begin="reset.mouseover" end="reset.mouseout"/></use>
  </g>
</defs>
<script type="application/ecmascript">
var viewWidth = 909;
var viewHeight = 319;
var sectionId = 'dynsection-1';
</script>
<script type="application/ecmascript" xlink:href="svg.min.js"/>
<svg id="graph" class="graph">
<g id="viewport">
<title>com.fs.starfarer.api.impl.campaign.terrain.StarCoronaTerrainPlugin</title>
<!-- Node1 -->
<g id="Node000001" class="node">
<title>Node1</title>
<g id="a_Node000001"><a xlink:title=" ">
<polygon fill="#999999" stroke="#666666" points="901.25,-171.5 706.75,-171.5 706.75,-141 901.25,-141 901.25,-171.5"/>
<text text-anchor="start" x="714.75" y="-158" font-family="Helvetica,sans-Serif" font-size="10.00">com.fs.starfarer.api.impl.campaign.terrain.</text>
<text text-anchor="middle" x="804" y="-146.75" font-family="Helvetica,sans-Serif" font-size="10.00">StarCoronaTerrainPlugin</text>
</a>
</g>
</g>
<!-- Node2 -->
<g id="Node000002" class="node">
<title>Node2</title>
<g id="a_Node000002"><a xlink:href="classcom_1_1fs_1_1starfarer_1_1api_1_1impl_1_1campaign_1_1terrain_1_1BaseRingTerrain.html" target="_top" xlink:title=" ">
<polygon fill="white" stroke="#666666" points="613,-300.5 418.5,-300.5 418.5,-270 613,-270 613,-300.5"/>
<text text-anchor="start" x="426.5" y="-287" font-family="Helvetica,sans-Serif" font-size="10.00">com.fs.starfarer.api.impl.campaign.terrain.</text>
<text text-anchor="middle" x="515.75" y="-275.75" font-family="Helvetica,sans-Serif" font-size="10.00">BaseRingTerrain</text>
</a>
</g>
</g>
<!-- Node2&#45;&gt;Node1 -->
<g id="edge1_Node000001_Node000002" class="edge">
<title>Node2&#45;&gt;Node1</title>
<g id="a_edge1_Node000001_Node000002"><a xlink:title=" ">
<path fill="none" stroke="#63b8ff" d="M595.63,-266.29C601.56,-264.4 607.41,-262.39 613,-260.25 676.23,-236.1 744.48,-194.5 779.43,-171.92"/>
<polygon fill="#63b8ff" stroke="#63b8ff" points="594.91,-262.85 586.37,-269.12 596.95,-269.55 594.91,-262.85"/>
</a>
</g>
</g>
<!-- Node3 -->
<g id="Node000003" class="node">
<title>Node3</title>
<g id="a_Node000003"><a xlink:href="classcom_1_1fs_1_1starfarer_1_1api_1_1impl_1_1campaign_1_1terrain_1_1BaseTerrain.html" target="_top" xlink:title=" ">
<polygon fill="white" stroke="#666666" points="348,-310.5 153.5,-310.5 153.5,-280 348,-280 348,-310.5"/>
<text text-anchor="start" x="161.5" y="-297" font-family="Helvetica,sans-Serif" font-size="10.00">com.fs.starfarer.api.impl.campaign.terrain.</text>
<text text-anchor="middle" x="250.75" y="-285.75" font-family="Helvetica,sans-Serif" font-size="10.00">BaseTerrain</text>
</a>
</g>
</g>
<!-- Node3&#45;&gt;Node2 -->
<g id="edge2_Node000002_Node000003" class="edge">
<title>Node3&#45;&gt;Node2</title>
<g id="a_edge2_Node000002_Node000003"><a xlink:title=" ">
<path fill="none" stroke="#63b8ff" d="M359.55,-291.15C379.02,-290.41 399.21,-289.64 418.32,-288.92"/>
<polygon fill="#63b8ff" stroke="#63b8ff" points="359.56,-287.65 349.7,-291.53 359.83,-294.64 359.56,-287.65"/>
</a>
</g>
</g>
<!-- Node4 -->
<g id="Node000004" class="node">
<title>Node4</title>
<g id="a_Node000004"><a xlink:title=" ">
<polygon fill="white" stroke="#666666" points="116.5,-304.88 0,-304.88 0,-285.62 116.5,-285.62 116.5,-304.88"/>
<text text-anchor="middle" x="58.25" y="-291.38" font-family="Helvetica,sans-Serif" font-size="10.00">CampaignTerrainPlugin</text>
</a>
</g>
</g>
<!-- Node4&#45;&gt;Node3 -->
<g id="edge3_Node000003_Node000004" class="edge">
<title>Node4&#45;&gt;Node3</title>
<g id="a_edge3_Node000003_Node000004"><a xlink:title=" ">
<path fill="none" stroke="#63b8ff" d="M128.21,-295.25C136.35,-295.25 144.76,-295.25 153.19,-295.25"/>
<polygon fill="#63b8ff" stroke="#63b8ff" points="128.44,-291.75 118.44,-295.25 128.44,-298.75 128.44,-291.75"/>
</a>
</g>
</g>
<!-- Node5 -->
<g id="Node000005" class="node">
<title>Node5</title>
<g id="a_Node000005"><a xlink:title=" ">
<polygon fill="white" stroke="#666666" points="348,-256.5 153.5,-256.5 153.5,-226 348,-226 348,-256.5"/>
<text text-anchor="start" x="161.5" y="-243" font-family="Helvetica,sans-Serif" font-size="10.00">com.fs.starfarer.api.impl.campaign.terrain.</text>
<text text-anchor="middle" x="250.75" y="-231.75" font-family="Helvetica,sans-Serif" font-size="10.00">BaseRingTerrain.RingParams</text>
</a>
</g>
</g>
<!-- Node5&#45;&gt;Node2 -->
<g id="edge4_Node000002_Node000005" class="edge">
<title>Node5&#45;&gt;Node2</title>
<g id="a_edge4_Node000002_Node000005"><a xlink:title=" ">
<path fill="none" stroke="#9a32cd" stroke-dasharray="5,2" d="M356.9,-258.84C378.07,-262.38 400.2,-266.08 420.95,-269.56"/>
<polygon fill="#9a32cd" stroke="#9a32cd" points="357.52,-255.4 347.08,-257.2 356.36,-262.3 357.52,-255.4"/>
</a>
</g>
<text text-anchor="middle" x="383.25" y="-267" font-family="Helvetica,sans-Serif" font-size="10.00" fill="grey"> params</text>
</g>
<!-- Node10 -->
<g id="Node000010" class="node">
<title>Node10</title>
<g id="a_Node000010"><a xlink:title=" ">
<polygon fill="white" stroke="#666666" points="613,-251.5 418.5,-251.5 418.5,-221 613,-221 613,-251.5"/>
<text text-anchor="start" x="426.5" y="-238" font-family="Helvetica,sans-Serif" font-size="10.00">com.fs.starfarer.api.impl.campaign.terrain.</text>
<text text-anchor="middle" x="515.75" y="-226.75" font-family="Helvetica,sans-Serif" font-size="10.00">StarCoronaTerrainPlugin.CoronaParams</text>
</a>
</g>
</g>
<!-- Node5&#45;&gt;Node10 -->
<g id="edge10_Node000010_Node000005" class="edge">
<title>Node5&#45;&gt;Node10</title>
<g id="a_edge10_Node000010_Node000005"><a xlink:title=" ">
<path fill="none" stroke="#63b8ff" d="M359.55,-239.2C379.02,-238.83 399.21,-238.45 418.32,-238.08"/>
<polygon fill="#63b8ff" stroke="#63b8ff" points="359.63,-235.7 349.7,-239.39 359.77,-242.7 359.63,-235.7"/>
</a>
</g>
</g>
<!-- Node6 -->
<g id="Node000006" class="node">
<title>Node6</title>
<g id="a_Node000006"><a xlink:title=" ">
<polygon fill="white" stroke="#666666" points="576.62,-202.88 454.88,-202.88 454.88,-183.62 576.62,-183.62 576.62,-202.88"/>
<text text-anchor="middle" x="515.75" y="-189.38" font-family="Helvetica,sans-Serif" font-size="10.00">AuroraRendererDelegate</text>
</a>
</g>
</g>
<!-- Node6&#45;&gt;Node1 -->
<g id="edge5_Node000001_Node000006" class="edge">
<title>Node6&#45;&gt;Node1</title>
<g id="a_edge5_Node000001_Node000006"><a xlink:title=" ">
<path fill="none" stroke="#63b8ff" d="M588.4,-183.99C624.1,-179.37 667.78,-173.73 706.4,-168.74"/>
<polygon fill="#63b8ff" stroke="#63b8ff" points="588.08,-180.5 578.61,-185.25 588.97,-187.44 588.08,-180.5"/>
</a>
</g>
</g>
<!-- Node7 -->
<g id="Node000007" class="node">
<title>Node7</title>
<g id="a_Node000007"><a xlink:title=" ">
<polygon fill="white" stroke="#666666" points="572.5,-165.88 459,-165.88 459,-146.62 572.5,-146.62 572.5,-165.88"/>
<text text-anchor="middle" x="515.75" y="-152.38" font-family="Helvetica,sans-Serif" font-size="10.00">FlareManagerDelegate</text>
</a>
</g>
</g>
<!-- Node7&#45;&gt;Node1 -->
<g id="edge6_Node000001_Node000007" class="edge">
<title>Node7&#45;&gt;Node1</title>
<g id="a_edge6_Node000001_Node000007"><a xlink:title=" ">
<path fill="none" stroke="#63b8ff" d="M584.43,-156.25C620.81,-156.25 666.28,-156.25 706.32,-156.25"/>
<polygon fill="#63b8ff" stroke="#63b8ff" points="584.48,-152.75 574.48,-156.25 584.48,-159.75 584.48,-152.75"/>
</a>
</g>
</g>
<!-- Node8 -->
<g id="Node000008" class="node">
<title>Node8</title>
<g id="a_Node000008"><a xlink:href="classcom_1_1fs_1_1starfarer_1_1api_1_1impl_1_1campaign_1_1terrain_1_1AuroraRenderer.html" target="_top" xlink:title=" ">
<polygon fill="white" stroke="#666666" points="613,-128.5 418.5,-128.5 418.5,-98 613,-98 613,-128.5"/>
<text text-anchor="start" x="426.5" y="-115" font-family="Helvetica,sans-Serif" font-size="10.00">com.fs.starfarer.api.impl.campaign.terrain.</text>
<text text-anchor="middle" x="515.75" y="-103.75" font-family="Helvetica,sans-Serif" font-size="10.00">AuroraRenderer</text>
</a>
</g>
</g>
<!-- Node8&#45;&gt;Node1 -->
<g id="edge7_Node000001_Node000008" class="edge">
<title>Node8&#45;&gt;Node1</title>
<g id="a_edge7_Node000001_Node000008"><a xlink:title=" ">
<path fill="none" stroke="#9a32cd" stroke-dasharray="5,2" d="M624.29,-129.41C651.26,-133.46 680.03,-137.78 706.42,-141.74"/>
<polygon fill="#9a32cd" stroke="#9a32cd" points="625.17,-126 614.76,-127.97 624.13,-132.92 625.17,-126"/>
</a>
</g>
<text text-anchor="middle" x="659.88" y="-140" font-family="Helvetica,sans-Serif" font-size="10.00" fill="grey"> renderer</text>
</g>
<!-- Node9 -->
<g id="Node000009" class="node">
<title>Node9</title>
<g id="a_Node000009"><a xlink:href="classcom_1_1fs_1_1starfarer_1_1api_1_1impl_1_1campaign_1_1terrain_1_1FlareManager.html" target="_top" xlink:title=" ">
<polygon fill="white" stroke="#666666" points="613,-79.5 418.5,-79.5 418.5,-49 613,-49 613,-79.5"/>
<text text-anchor="start" x="426.5" y="-66" font-family="Helvetica,sans-Serif" font-size="10.00">com.fs.starfarer.api.impl.campaign.terrain.</text>
<text text-anchor="middle" x="515.75" y="-54.75" font-family="Helvetica,sans-Serif" font-size="10.00">FlareManager</text>
</a>
</g>
</g>
<!-- Node9&#45;&gt;Node1 -->
<g id="edge8_Node000001_Node000009" class="edge">
<title>Node9&#45;&gt;Node1</title>
<g id="a_edge8_Node000001_Node000009"><a xlink:title=" ">
<path fill="none" stroke="#9a32cd" stroke-dasharray="5,2" d="M591,-82.95C598.45,-85 605.89,-87.12 613,-89.25 665.1,-104.85 724.01,-126.22 762.23,-140.59"/>
<polygon fill="#9a32cd" stroke="#9a32cd" points="592.13,-79.63 581.56,-80.39 590.3,-86.39 592.13,-79.63"/>
</a>
</g>
<text text-anchor="middle" x="659.88" y="-115" font-family="Helvetica,sans-Serif" font-size="10.00" fill="grey"> flareManager</text>
</g>
<!-- Node10&#45;&gt;Node1 -->
<g id="edge9_Node000001_Node000010" class="edge">
<title>Node10&#45;&gt;Node1</title>
<g id="a_edge9_Node000001_Node000010"><a xlink:title=" ">
<path fill="none" stroke="#9a32cd" stroke-dasharray="5,2" d="M592.3,-217.73C599.31,-215.92 606.29,-214.07 613,-212.25 660.29,-199.39 713.8,-183.5 751.96,-171.93"/>
<polygon fill="#9a32cd" stroke="#9a32cd" points="591.59,-214.3 582.77,-220.18 593.33,-221.08 591.59,-214.3"/>
</a>
</g>
<text text-anchor="middle" x="659.88" y="-208" font-family="Helvetica,sans-Serif" font-size="10.00" fill="grey"> params</text>
</g>
<!-- Node11 -->
<g id="Node000011" class="node">
<title>Node11</title>
<g id="a_Node000011"><a xlink:href="classcom_1_1fs_1_1starfarer_1_1api_1_1impl_1_1campaign_1_1terrain_1_1RangeBlockerUtil.html" target="_top" xlink:title=" ">
<polygon fill="white" stroke="#666666" points="613,-30.5 418.5,-30.5 418.5,0 613,0 613,-30.5"/>
<text text-anchor="start" x="426.5" y="-17" font-family="Helvetica,sans-Serif" font-size="10.00">com.fs.starfarer.api.impl.campaign.terrain.</text>
<text text-anchor="middle" x="515.75" y="-5.75" font-family="Helvetica,sans-Serif" font-size="10.00">RangeBlockerUtil</text>
</a>
</g>
</g>
<!-- Node11&#45;&gt;Node1 -->
<g id="edge11_Node000001_Node000011" class="edge">
<title>Node11&#45;&gt;Node1</title>
<g id="a_edge11_Node000001_Node000011"><a xlink:title=" ">
<path fill="none" stroke="#9a32cd" stroke-dasharray="5,2" d="M595.81,-34.21C601.68,-36.1 607.46,-38.11 613,-40.25 679.87,-66.09 749.59,-115.39 782.92,-140.58"/>
<polygon fill="#9a32cd" stroke="#9a32cd" points="597.23,-30.98 586.65,-31.4 595.18,-37.68 597.23,-30.98"/>
</a>
</g>
<text text-anchor="middle" x="659.88" y="-76" font-family="Helvetica,sans-Serif" font-size="10.00" fill="grey"> blocker</text>
</g>
</g>
</svg>

<g id="navigator" transform="translate(0 0)" fill="#404254">
  <rect fill="#f2f5e9" fill-opacity="0.5" stroke="#606060" stroke-width=".5" x="0" y="0" width="60" height="60"/>
  <use id="zoomplus" xlink:href="#zoomPlus" x="17" y="9" onmousedown="handleZoom(evt,'in')"/>
  <use id="zoomminus" xlink:href="#zoomMin" x="42" y="9" onmousedown="handleZoom(evt,'out')"/>
  <use id="reset" xlink:href="#resetDef" x="30" y="36" onmousedown="handleReset()"/>
   <use id="arrowup" xlink:href="#arrowUp" x="0" y="0" onmousedown="handlePan(0,-1)"/>
  <use id="arrowright" xlink:href="#arrowRight" x="0" y="0" onmousedown="handlePan(1,0)"/>
  <use id="arrowdown" xlink:href="#arrowDown" x="0" y="0" onmousedown="handlePan(0,1)"/>
  <use id="arrowleft" xlink:href="#arrowLeft" x="0" y="0" onmousedown="handlePan(-1,0)"/>
</g>
<svg viewBox="0 0 15 15" width="100%" height="30px" preserveAspectRatio="xMaxYMin meet">
 <g id="arrow_out" transform="scale(0.3 0.3)">
  <a xlink:href="classcom_1_1fs_1_1starfarer_1_1api_1_1impl_1_1campaign_1_1terrain_1_1StarCoronaTerrainPlugin__coll__graph_org.svg" target="_base">
   <rect id="button" ry="5" rx="5" y="6" x="6" height="38" width="38"
        fill="#f2f5e9" fill-opacity="0.5" stroke="#606060" stroke-width="1.0"/>
   <path id="arrow"
     d="M 11.500037,31.436501 C 11.940474,20.09759 22.043105,11.32322 32.158766,21.979434 L 37.068811,17.246167 C 37.068811,17.246167 37.088388,32 37.088388,32 L 22.160133,31.978069 C 22.160133,31.978069 26.997745,27.140456 26.997745,27.140456 C 18.528582,18.264221 13.291696,25.230495 11.500037,31.436501 z"
     style="fill:#404040;"/>
  </a>
 </g>
</svg>

<style type='text/css'>
<![CDATA[
[data-mouse-over-selected='false'] { opacity: 0.7; }
[data-mouse-over-selected='true']  { opacity: 1.0; }
]]>
</style>
<script type="application/ecmascript"><![CDATA[
document.addEventListener('DOMContentLoaded', (event) => {
  highlightEdges();
  highlightAdjacentNodes();
});
]]></script>
</svg>
