<?xml version="1.0" encoding="UTF-8" standalone="no"?>
<!DOCTYPE svg PUBLIC "-//W3C//DTD SVG 1.1//EN"
 "http://www.w3.org/Graphics/SVG/1.1/DTD/svg11.dtd">
<!-- Generated by graphviz version 9.0.0 (20230911.1827)
 -->
<!-- Title: com.fs.starfarer.api.impl.campaign.intel.bar.events.ScientistAICoreIntel Pages: 1 -->
<!--zoomable 199 -->

<svg id="main" version="1.1" xmlns="http://www.w3.org/2000/svg" xmlns:xlink="http://www.w3.org/1999/xlink" xml:space="preserve" onload="init(evt)">
<style type="text/css"><![CDATA[
.node, .edge {opacity: 0.7;}
.node.selected, .edge.selected {opacity: 1;}
.edge:hover path { stroke: red; }
.edge:hover polygon { stroke: red; fill: red; }
]]></style>

<defs>
  <circle id="rim" cx="0" cy="0" r="7"/>
  <circle id="rim2" cx="0" cy="0" r="3.5"/>
  <g id="zoomPlus">
    <use xlink:href="#rim" fill="#404040"><set attributeName="fill" to="#808080" begin="zoomplus.mouseover" end="zoomplus.mouseout"/></use>
    <path d="M-4,0h8M0,-4v8" fill="none" stroke="white" stroke-width="1.5" pointer-events="none"/>
  </g>
  <g id="zoomMin">
    <use xlink:href="#rim" fill="#404040"><set attributeName="fill" to="#808080" begin="zoomminus.mouseover" end="zoomminus.mouseout"/></use>
    <path d="M-4,0h8" fill="none" stroke="white" stroke-width="1.5" pointer-events="none"/>
  </g>
  <g id="arrowUp" transform="translate(30 24)">
    <use xlink:href="#rim"/>
    <path pointer-events="none" fill="none" stroke="white" stroke-width="1.5" d="M0,-3.0v7 M-2.5,-0.5L0,-3.0L2.5,-0.5"/>
  </g>
  <g id="arrowRight" transform="rotate(90) translate(36 -43)">
    <use xlink:href="#rim"/>
    <path pointer-events="none" fill="none" stroke="white" stroke-width="1.5" d="M0,-3.0v7 M-2.5,-0.5L0,-3.0L2.5,-0.5"/>
  </g>
  <g id="arrowDown" transform="rotate(180) translate(-30 -48)">
    <use xlink:href="#rim"/>
    <path pointer-events="none" fill="none" stroke="white" stroke-width="1.5" d="M0,-3.0v7 M-2.5,-0.5L0,-3.0L2.5,-0.5"/>
  </g>
  <g id="arrowLeft" transform="rotate(270) translate(-36 17)">
    <use xlink:href="#rim"/>
    <path pointer-events="none" fill="none" stroke="white" stroke-width="1.5" d="M0,-3.0v7 M-2.5,-0.5L0,-3.0L2.5,-0.5"/>
  </g>
  <g id="resetDef">
    <use xlink:href="#rim2" fill="#404040"><set attributeName="fill" to="#808080" begin="reset.mouseover" end="reset.mouseout"/></use>
  </g>
</defs>
<script type="application/ecmascript">
var viewWidth = 1314;
var viewHeight = 199;
var sectionId = 'dynsection-1';
</script>
<script type="application/ecmascript" xlink:href="svg.min.js"/>
<svg id="graph" class="graph">
<g id="viewport">
<title>com.fs.starfarer.api.impl.campaign.intel.bar.events.ScientistAICoreIntel</title>
<!-- Node1 -->
<g id="Node000001" class="node">
<title>Node1</title>
<g id="a_Node000001"><a xlink:title=" ">
<polygon fill="#999999" stroke="#666666" points="1305.5,-82.5 1072.75,-82.5 1072.75,-52 1305.5,-52 1305.5,-82.5"/>
<text text-anchor="start" x="1080.75" y="-69" font-family="Helvetica,sans-Serif" font-size="10.00">com.fs.starfarer.api.impl.campaign.intel.bar.events.</text>
<text text-anchor="middle" x="1189.12" y="-57.75" font-family="Helvetica,sans-Serif" font-size="10.00">ScientistAICoreIntel</text>
</a>
</g>
</g>
<!-- Node2 -->
<g id="Node000002" class="node">
<title>Node2</title>
<g id="a_Node000002"><a xlink:href="classcom_1_1fs_1_1starfarer_1_1api_1_1impl_1_1campaign_1_1intel_1_1BaseIntelPlugin.html" target="_top" xlink:title=" ">
<polygon fill="white" stroke="#666666" points="986.88,-116.5 801.38,-116.5 801.38,-86 986.88,-86 986.88,-116.5"/>
<text text-anchor="start" x="809.38" y="-103" font-family="Helvetica,sans-Serif" font-size="10.00">com.fs.starfarer.api.impl.campaign.intel.</text>
<text text-anchor="middle" x="894.12" y="-91.75" font-family="Helvetica,sans-Serif" font-size="10.00">BaseIntelPlugin</text>
</a>
</g>
</g>
<!-- Node2&#45;&gt;Node1 -->
<g id="edge1_Node000001_Node000002" class="edge">
<title>Node2&#45;&gt;Node1</title>
<g id="a_edge1_Node000001_Node000002"><a xlink:title=" ">
<path fill="none" stroke="#63b8ff" d="M998.26,-89.28C1022.2,-86.5 1047.83,-83.53 1072.27,-80.69"/>
<polygon fill="#63b8ff" stroke="#63b8ff" points="998.06,-85.78 988.53,-90.41 998.87,-92.73 998.06,-85.78"/>
</a>
</g>
</g>
<!-- Node3 -->
<g id="Node000003" class="node">
<title>Node3</title>
<g id="a_Node000003"><a xlink:title=" ">
<polygon fill="white" stroke="#666666" points="663.5,-190.88 585.25,-190.88 585.25,-171.62 663.5,-171.62 663.5,-190.88"/>
<text text-anchor="middle" x="624.38" y="-177.38" font-family="Helvetica,sans-Serif" font-size="10.00">IntelInfoPlugin</text>
</a>
</g>
</g>
<!-- Node3&#45;&gt;Node2 -->
<g id="edge2_Node000002_Node000003" class="edge">
<title>Node3&#45;&gt;Node2</title>
<g id="a_edge2_Node000002_Node000003"><a xlink:title=" ">
<path fill="none" stroke="#63b8ff" d="M675.13,-176.05C695.67,-173.25 719.59,-169.12 740.75,-163.25 783.54,-151.38 830.57,-131.05 860.9,-116.92"/>
<polygon fill="#63b8ff" stroke="#63b8ff" points="674.75,-172.57 665.28,-177.32 675.65,-179.51 674.75,-172.57"/>
</a>
</g>
</g>
<!-- Node4 -->
<g id="Node000004" class="node">
<title>Node4</title>
<g id="a_Node000004"><a xlink:title=" ">
<polygon fill="white" stroke="#666666" points="662,-153.88 586.75,-153.88 586.75,-134.62 662,-134.62 662,-153.88"/>
<text text-anchor="middle" x="624.38" y="-140.38" font-family="Helvetica,sans-Serif" font-size="10.00">CallableEvent</text>
</a>
</g>
</g>
<!-- Node4&#45;&gt;Node2 -->
<g id="edge3_Node000002_Node000004" class="edge">
<title>Node4&#45;&gt;Node2</title>
<g id="a_edge3_Node000002_Node000004"><a xlink:title=" ">
<path fill="none" stroke="#63b8ff" d="M673.31,-136.55C708.72,-130.86 758.03,-122.95 800.98,-116.05"/>
<polygon fill="#63b8ff" stroke="#63b8ff" points="673.14,-133.03 663.82,-138.08 674.25,-139.95 673.14,-133.03"/>
</a>
</g>
</g>
<!-- Node5 -->
<g id="Node000005" class="node">
<title>Node5</title>
<g id="a_Node000005"><a xlink:href="interfacecom_1_1fs_1_1starfarer_1_1api_1_1EveryFrameScript.html" target="_top" xlink:title=" ">
<polygon fill="white" stroke="#666666" points="686.75,-116.5 562,-116.5 562,-86 686.75,-86 686.75,-116.5"/>
<text text-anchor="start" x="570" y="-103" font-family="Helvetica,sans-Serif" font-size="10.00">com.fs.starfarer.api.Every</text>
<text text-anchor="middle" x="624.38" y="-91.75" font-family="Helvetica,sans-Serif" font-size="10.00">FrameScript</text>
</a>
</g>
</g>
<!-- Node5&#45;&gt;Node2 -->
<g id="edge4_Node000002_Node000005" class="edge">
<title>Node5&#45;&gt;Node2</title>
<g id="a_edge4_Node000002_Node000005"><a xlink:title=" ">
<path fill="none" stroke="#63b8ff" d="M698.51,-101.25C730.11,-101.25 767.45,-101.25 800.93,-101.25"/>
<polygon fill="#63b8ff" stroke="#63b8ff" points="698.65,-97.75 688.65,-101.25 698.65,-104.75 698.65,-97.75"/>
</a>
</g>
</g>
<!-- Node6 -->
<g id="Node000006" class="node">
<title>Node6</title>
<g id="a_Node000006"><a xlink:title=" ">
<polygon fill="white" stroke="#666666" points="690.12,-67.88 558.62,-67.88 558.62,-48.62 690.12,-48.62 690.12,-67.88"/>
<text text-anchor="middle" x="624.38" y="-54.38" font-family="Helvetica,sans-Serif" font-size="10.00">CommSnifferReadableIntel</text>
</a>
</g>
</g>
<!-- Node6&#45;&gt;Node2 -->
<g id="edge5_Node000002_Node000006" class="edge">
<title>Node6&#45;&gt;Node2</title>
<g id="a_edge5_Node000002_Node000006"><a xlink:title=" ">
<path fill="none" stroke="#63b8ff" d="M699.47,-70.15C730.91,-75.2 767.89,-81.14 801.06,-86.46"/>
<polygon fill="#63b8ff" stroke="#63b8ff" points="700.07,-66.7 689.64,-68.57 698.96,-73.61 700.07,-66.7"/>
</a>
</g>
</g>
<!-- Node7 -->
<g id="Node000007" class="node">
<title>Node7</title>
<g id="a_Node000007"><a xlink:href="classcom_1_1fs_1_1starfarer_1_1api_1_1impl_1_1campaign_1_1intel_1_1bar_1_1events_1_1ScientistAICoreBarEvent.html" target="_top" xlink:title=" ">
<polygon fill="white" stroke="#666666" points="1010.5,-58.5 777.75,-58.5 777.75,-28 1010.5,-28 1010.5,-58.5"/>
<text text-anchor="start" x="785.75" y="-45" font-family="Helvetica,sans-Serif" font-size="10.00">com.fs.starfarer.api.impl.campaign.intel.bar.events.</text>
<text text-anchor="middle" x="894.12" y="-33.75" font-family="Helvetica,sans-Serif" font-size="10.00">ScientistAICoreBarEvent</text>
</a>
</g>
</g>
<!-- Node7&#45;&gt;Node1 -->
<g id="edge6_Node000001_Node000007" class="edge">
<title>Node7&#45;&gt;Node1</title>
<g id="a_edge6_Node000001_Node000007"><a xlink:title=" ">
<path fill="none" stroke="#9a32cd" stroke-dasharray="5,2" d="M1021.95,-53.64C1038.81,-55.02 1056.03,-56.43 1072.69,-57.79"/>
<polygon fill="#9a32cd" stroke="#9a32cd" points="1022.69,-50.19 1012.43,-52.86 1022.12,-57.16 1022.69,-50.19"/>
</a>
</g>
<text text-anchor="middle" x="1041.62" y="-57" font-family="Helvetica,sans-Serif" font-size="10.00" fill="grey"> event</text>
</g>
<!-- Node8 -->
<g id="Node000008" class="node">
<title>Node8</title>
<g id="a_Node000008"><a xlink:href="classcom_1_1fs_1_1starfarer_1_1api_1_1impl_1_1campaign_1_1intel_1_1bar_1_1events_1_1BaseGetCommodityBarEvent.html" target="_top" xlink:title=" ">
<polygon fill="white" stroke="#666666" points="740.75,-30.5 508,-30.5 508,0 740.75,0 740.75,-30.5"/>
<text text-anchor="start" x="516" y="-17" font-family="Helvetica,sans-Serif" font-size="10.00">com.fs.starfarer.api.impl.campaign.intel.bar.events.</text>
<text text-anchor="middle" x="624.38" y="-5.75" font-family="Helvetica,sans-Serif" font-size="10.00">BaseGetCommodityBarEvent</text>
</a>
</g>
</g>
<!-- Node8&#45;&gt;Node7 -->
<g id="edge7_Node000007_Node000008" class="edge">
<title>Node8&#45;&gt;Node7</title>
<g id="a_edge7_Node000007_Node000008"><a xlink:title=" ">
<path fill="none" stroke="#63b8ff" d="M752.04,-28.5C760.56,-29.39 769.13,-30.28 777.59,-31.17"/>
<polygon fill="#63b8ff" stroke="#63b8ff" points="752.68,-25.04 742.37,-27.49 751.95,-32.01 752.68,-25.04"/>
</a>
</g>
</g>
<!-- Node9 -->
<g id="Node000009" class="node">
<title>Node9</title>
<g id="a_Node000009"><a xlink:href="classcom_1_1fs_1_1starfarer_1_1api_1_1impl_1_1campaign_1_1intel_1_1bar_1_1events_1_1BaseBarEvent.html" target="_top" xlink:title=" ">
<polygon fill="white" stroke="#666666" points="471,-30.5 238.25,-30.5 238.25,0 471,0 471,-30.5"/>
<text text-anchor="start" x="246.25" y="-17" font-family="Helvetica,sans-Serif" font-size="10.00">com.fs.starfarer.api.impl.campaign.intel.bar.events.</text>
<text text-anchor="middle" x="354.62" y="-5.75" font-family="Helvetica,sans-Serif" font-size="10.00">BaseBarEvent</text>
</a>
</g>
</g>
<!-- Node9&#45;&gt;Node8 -->
<g id="edge8_Node000008_Node000009" class="edge">
<title>Node9&#45;&gt;Node8</title>
<g id="a_edge8_Node000008_Node000009"><a xlink:title=" ">
<path fill="none" stroke="#63b8ff" d="M482.58,-15.25C491.01,-15.25 499.47,-15.25 507.84,-15.25"/>
<polygon fill="#63b8ff" stroke="#63b8ff" points="482.63,-11.75 472.63,-15.25 482.63,-18.75 482.63,-11.75"/>
</a>
</g>
</g>
<!-- Node10 -->
<g id="Node000010" class="node">
<title>Node10</title>
<g id="a_Node000010"><a xlink:href="interfacecom_1_1fs_1_1starfarer_1_1api_1_1impl_1_1campaign_1_1intel_1_1bar_1_1PortsideBarEvent.html" target="_top" xlink:title=" ">
<polygon fill="white" stroke="#666666" points="201.25,-30.5 0,-30.5 0,0 201.25,0 201.25,-30.5"/>
<text text-anchor="start" x="8" y="-17" font-family="Helvetica,sans-Serif" font-size="10.00">com.fs.starfarer.api.impl.campaign.intel.bar.</text>
<text text-anchor="middle" x="100.62" y="-5.75" font-family="Helvetica,sans-Serif" font-size="10.00">PortsideBarEvent</text>
</a>
</g>
</g>
<!-- Node10&#45;&gt;Node9 -->
<g id="edge9_Node000009_Node000010" class="edge">
<title>Node10&#45;&gt;Node9</title>
<g id="a_edge9_Node000009_Node000010"><a xlink:title=" ">
<path fill="none" stroke="#63b8ff" d="M212.87,-15.25C221.2,-15.25 229.62,-15.25 237.97,-15.25"/>
<polygon fill="#63b8ff" stroke="#63b8ff" points="213.1,-11.75 203.1,-15.25 213.1,-18.75 213.1,-11.75"/>
</a>
</g>
</g>
</g>
</svg>

<g id="navigator" transform="translate(0 0)" fill="#404254">
  <rect fill="#f2f5e9" fill-opacity="0.5" stroke="#606060" stroke-width=".5" x="0" y="0" width="60" height="60"/>
  <use id="zoomplus" xlink:href="#zoomPlus" x="17" y="9" onmousedown="handleZoom(evt,'in')"/>
  <use id="zoomminus" xlink:href="#zoomMin" x="42" y="9" onmousedown="handleZoom(evt,'out')"/>
  <use id="reset" xlink:href="#resetDef" x="30" y="36" onmousedown="handleReset()"/>
   <use id="arrowup" xlink:href="#arrowUp" x="0" y="0" onmousedown="handlePan(0,-1)"/>
  <use id="arrowright" xlink:href="#arrowRight" x="0" y="0" onmousedown="handlePan(1,0)"/>
  <use id="arrowdown" xlink:href="#arrowDown" x="0" y="0" onmousedown="handlePan(0,1)"/>
  <use id="arrowleft" xlink:href="#arrowLeft" x="0" y="0" onmousedown="handlePan(-1,0)"/>
</g>
<svg viewBox="0 0 15 15" width="100%" height="30px" preserveAspectRatio="xMaxYMin meet">
 <g id="arrow_out" transform="scale(0.3 0.3)">
  <a xlink:href="classcom_1_1fs_1_1starfarer_1_1api_1_1impl_1_1campaign_1_1intel_1_1bar_1_1events_1_1ScientistAICoreIntel__coll__graph_org.svg" target="_base">
   <rect id="button" ry="5" rx="5" y="6" x="6" height="38" width="38"
        fill="#f2f5e9" fill-opacity="0.5" stroke="#606060" stroke-width="1.0"/>
   <path id="arrow"
     d="M 11.500037,31.436501 C 11.940474,20.09759 22.043105,11.32322 32.158766,21.979434 L 37.068811,17.246167 C 37.068811,17.246167 37.088388,32 37.088388,32 L 22.160133,31.978069 C 22.160133,31.978069 26.997745,27.140456 26.997745,27.140456 C 18.528582,18.264221 13.291696,25.230495 11.500037,31.436501 z"
     style="fill:#404040;"/>
  </a>
 </g>
</svg>

<style type='text/css'>
<![CDATA[
[data-mouse-over-selected='false'] { opacity: 0.7; }
[data-mouse-over-selected='true']  { opacity: 1.0; }
]]>
</style>
<script type="application/ecmascript"><![CDATA[
document.addEventListener('DOMContentLoaded', (event) => {
  highlightEdges();
  highlightAdjacentNodes();
});
]]></script>
</svg>
