<?xml version="1.0" encoding="UTF-8" standalone="no"?>
<!DOCTYPE svg PUBLIC "-//W3C//DTD SVG 1.1//EN"
 "http://www.w3.org/Graphics/SVG/1.1/DTD/svg11.dtd">
<!-- Generated by graphviz version 9.0.0 (20230911.1827)
 -->
<!-- Title: com.fs.starfarer.api.impl.campaign.intel.group.TTMercenaryAttack Pages: 1 -->
<!--zoomable 150 -->

<svg id="main" version="1.1" xmlns="http://www.w3.org/2000/svg" xmlns:xlink="http://www.w3.org/1999/xlink" xml:space="preserve" onload="init(evt)">
<style type="text/css"><![CDATA[
.node, .edge {opacity: 0.7;}
.node.selected, .edge.selected {opacity: 1;}
.edge:hover path { stroke: red; }
.edge:hover polygon { stroke: red; fill: red; }
]]></style>

<defs>
  <circle id="rim" cx="0" cy="0" r="7"/>
  <circle id="rim2" cx="0" cy="0" r="3.5"/>
  <g id="zoomPlus">
    <use xlink:href="#rim" fill="#404040"><set attributeName="fill" to="#808080" begin="zoomplus.mouseover" end="zoomplus.mouseout"/></use>
    <path d="M-4,0h8M0,-4v8" fill="none" stroke="white" stroke-width="1.5" pointer-events="none"/>
  </g>
  <g id="zoomMin">
    <use xlink:href="#rim" fill="#404040"><set attributeName="fill" to="#808080" begin="zoomminus.mouseover" end="zoomminus.mouseout"/></use>
    <path d="M-4,0h8" fill="none" stroke="white" stroke-width="1.5" pointer-events="none"/>
  </g>
  <g id="arrowUp" transform="translate(30 24)">
    <use xlink:href="#rim"/>
    <path pointer-events="none" fill="none" stroke="white" stroke-width="1.5" d="M0,-3.0v7 M-2.5,-0.5L0,-3.0L2.5,-0.5"/>
  </g>
  <g id="arrowRight" transform="rotate(90) translate(36 -43)">
    <use xlink:href="#rim"/>
    <path pointer-events="none" fill="none" stroke="white" stroke-width="1.5" d="M0,-3.0v7 M-2.5,-0.5L0,-3.0L2.5,-0.5"/>
  </g>
  <g id="arrowDown" transform="rotate(180) translate(-30 -48)">
    <use xlink:href="#rim"/>
    <path pointer-events="none" fill="none" stroke="white" stroke-width="1.5" d="M0,-3.0v7 M-2.5,-0.5L0,-3.0L2.5,-0.5"/>
  </g>
  <g id="arrowLeft" transform="rotate(270) translate(-36 17)">
    <use xlink:href="#rim"/>
    <path pointer-events="none" fill="none" stroke="white" stroke-width="1.5" d="M0,-3.0v7 M-2.5,-0.5L0,-3.0L2.5,-0.5"/>
  </g>
  <g id="resetDef">
    <use xlink:href="#rim2" fill="#404040"><set attributeName="fill" to="#808080" begin="reset.mouseover" end="reset.mouseout"/></use>
  </g>
</defs>
<script type="application/ecmascript">
var viewWidth = 1104;
var viewHeight = 150;
var sectionId = 'dynsection-0';
</script>
<script type="application/ecmascript" xlink:href="svg.min.js"/>
<svg id="graph" class="graph">
<g id="viewport">
<title>com.fs.starfarer.api.impl.campaign.intel.group.TTMercenaryAttack</title>
<!-- Node1 -->
<g id="Node000001" class="node">
<title>Node1</title>
<g id="a_Node000001"><a xlink:title=" ">
<polygon fill="#999999" stroke="#666666" points="1096.25,-66.88 884.5,-66.88 884.5,-36.38 1096.25,-36.38 1096.25,-66.88"/>
<text text-anchor="start" x="892.5" y="-53.38" font-family="Helvetica,sans-Serif" font-size="10.00">com.fs.starfarer.api.impl.campaign.intel.group.</text>
<text text-anchor="middle" x="990.38" y="-42.12" font-family="Helvetica,sans-Serif" font-size="10.00">TTMercenaryAttack</text>
</a>
</g>
</g>
<!-- Node2 -->
<g id="Node000002" class="node">
<title>Node2</title>
<g id="a_Node000002"><a xlink:href="classcom_1_1fs_1_1starfarer_1_1api_1_1impl_1_1campaign_1_1intel_1_1group_1_1GenericRaidFGI.html" target="_top" xlink:title=" ">
<polygon fill="white" stroke="#666666" points="848.5,-66.88 636.75,-66.88 636.75,-36.38 848.5,-36.38 848.5,-66.88"/>
<text text-anchor="start" x="644.75" y="-53.38" font-family="Helvetica,sans-Serif" font-size="10.00">com.fs.starfarer.api.impl.campaign.intel.group.</text>
<text text-anchor="middle" x="742.62" y="-42.12" font-family="Helvetica,sans-Serif" font-size="10.00">GenericRaidFGI</text>
</a>
</g>
</g>
<!-- Node2&#45;&gt;Node1 -->
<g id="edge1_Node000001_Node000002" class="edge">
<title>Node2&#45;&gt;Node1</title>
<g id="a_edge1_Node000001_Node000002"><a xlink:title=" ">
<path fill="none" stroke="#63b8ff" d="M860.23,-51.62C868.27,-51.62 876.34,-51.62 884.3,-51.62"/>
<polygon fill="#63b8ff" stroke="#63b8ff" points="860.43,-48.13 850.43,-51.63 860.43,-55.13 860.43,-48.13"/>
</a>
</g>
</g>
<!-- Node3 -->
<g id="Node000003" class="node">
<title>Node3</title>
<g id="a_Node000003"><a xlink:href="classcom_1_1fs_1_1starfarer_1_1api_1_1impl_1_1campaign_1_1intel_1_1group_1_1FleetGroupIntel.html" target="_top" xlink:title=" ">
<polygon fill="white" stroke="#666666" points="600.75,-66.88 389,-66.88 389,-36.38 600.75,-36.38 600.75,-66.88"/>
<text text-anchor="start" x="397" y="-53.38" font-family="Helvetica,sans-Serif" font-size="10.00">com.fs.starfarer.api.impl.campaign.intel.group.</text>
<text text-anchor="middle" x="494.88" y="-42.12" font-family="Helvetica,sans-Serif" font-size="10.00">FleetGroupIntel</text>
</a>
</g>
</g>
<!-- Node3&#45;&gt;Node2 -->
<g id="edge2_Node000002_Node000003" class="edge">
<title>Node3&#45;&gt;Node2</title>
<g id="a_edge2_Node000002_Node000003"><a xlink:title=" ">
<path fill="none" stroke="#63b8ff" d="M612.48,-51.62C620.52,-51.62 628.59,-51.62 636.55,-51.62"/>
<polygon fill="#63b8ff" stroke="#63b8ff" points="612.68,-48.13 602.68,-51.63 612.68,-55.13 612.68,-48.13"/>
</a>
</g>
</g>
<!-- Node4 -->
<g id="Node000004" class="node">
<title>Node4</title>
<g id="a_Node000004"><a xlink:href="classcom_1_1fs_1_1starfarer_1_1api_1_1impl_1_1campaign_1_1intel_1_1BaseIntelPlugin.html" target="_top" xlink:title=" ">
<polygon fill="white" stroke="#666666" points="353,-88.88 167.5,-88.88 167.5,-58.38 353,-58.38 353,-88.88"/>
<text text-anchor="start" x="175.5" y="-75.38" font-family="Helvetica,sans-Serif" font-size="10.00">com.fs.starfarer.api.impl.campaign.intel.</text>
<text text-anchor="middle" x="260.25" y="-64.12" font-family="Helvetica,sans-Serif" font-size="10.00">BaseIntelPlugin</text>
</a>
</g>
</g>
<!-- Node4&#45;&gt;Node3 -->
<g id="edge3_Node000003_Node000004" class="edge">
<title>Node4&#45;&gt;Node3</title>
<g id="a_edge3_Node000003_Node000004"><a xlink:title=" ">
<path fill="none" stroke="#63b8ff" d="M364.51,-63.86C372.56,-63.1 380.7,-62.33 388.77,-61.57"/>
<polygon fill="#63b8ff" stroke="#63b8ff" points="364.32,-60.36 354.7,-64.79 364.98,-67.33 364.32,-60.36"/>
</a>
</g>
</g>
<!-- Node5 -->
<g id="Node000005" class="node">
<title>Node5</title>
<g id="a_Node000005"><a xlink:title=" ">
<polygon fill="white" stroke="#666666" points="104.88,-142.25 26.62,-142.25 26.62,-123 104.88,-123 104.88,-142.25"/>
<text text-anchor="middle" x="65.75" y="-128.75" font-family="Helvetica,sans-Serif" font-size="10.00">IntelInfoPlugin</text>
</a>
</g>
</g>
<!-- Node5&#45;&gt;Node4 -->
<g id="edge4_Node000004_Node000005" class="edge">
<title>Node5&#45;&gt;Node4</title>
<g id="a_edge4_Node000004_Node000005"><a xlink:title=" ">
<path fill="none" stroke="#63b8ff" d="M114.85,-119.48C120.47,-117.88 126.12,-116.24 131.5,-114.62 158.17,-106.64 187.77,-97.18 211.77,-89.36"/>
<polygon fill="#63b8ff" stroke="#63b8ff" points="114.27,-116.01 105.6,-122.09 116.17,-122.74 114.27,-116.01"/>
</a>
</g>
</g>
<!-- Node6 -->
<g id="Node000006" class="node">
<title>Node6</title>
<g id="a_Node000006"><a xlink:title=" ">
<polygon fill="white" stroke="#666666" points="103.38,-105.25 28.12,-105.25 28.12,-86 103.38,-86 103.38,-105.25"/>
<text text-anchor="middle" x="65.75" y="-91.75" font-family="Helvetica,sans-Serif" font-size="10.00">CallableEvent</text>
</a>
</g>
</g>
<!-- Node6&#45;&gt;Node4 -->
<g id="edge5_Node000004_Node000006" class="edge">
<title>Node6&#45;&gt;Node4</title>
<g id="a_edge5_Node000004_Node000006"><a xlink:title=" ">
<path fill="none" stroke="#63b8ff" d="M114.98,-90.11C130.86,-88.3 149.09,-86.21 167.12,-84.15"/>
<polygon fill="#63b8ff" stroke="#63b8ff" points="114.91,-86.6 105.37,-91.21 115.7,-93.55 114.91,-86.6"/>
</a>
</g>
</g>
<!-- Node7 -->
<g id="Node000007" class="node">
<title>Node7</title>
<g id="a_Node000007"><a xlink:href="interfacecom_1_1fs_1_1starfarer_1_1api_1_1EveryFrameScript.html" target="_top" xlink:title=" ">
<polygon fill="white" stroke="#666666" points="128.12,-67.88 3.38,-67.88 3.38,-37.38 128.12,-37.38 128.12,-67.88"/>
<text text-anchor="start" x="11.38" y="-54.38" font-family="Helvetica,sans-Serif" font-size="10.00">com.fs.starfarer.api.Every</text>
<text text-anchor="middle" x="65.75" y="-43.12" font-family="Helvetica,sans-Serif" font-size="10.00">FrameScript</text>
</a>
</g>
</g>
<!-- Node7&#45;&gt;Node4 -->
<g id="edge6_Node000004_Node000007" class="edge">
<title>Node7&#45;&gt;Node4</title>
<g id="a_edge6_Node000004_Node000007"><a xlink:title=" ">
<path fill="none" stroke="#63b8ff" d="M139.63,-60.58C148.59,-61.55 157.84,-62.56 167.04,-63.57"/>
<polygon fill="#63b8ff" stroke="#63b8ff" points="140.28,-57.13 129.96,-59.52 139.52,-64.08 140.28,-57.13"/>
</a>
</g>
</g>
<!-- Node8 -->
<g id="Node000008" class="node">
<title>Node8</title>
<g id="a_Node000008"><a xlink:title=" ">
<polygon fill="white" stroke="#666666" points="131.5,-19.25 0,-19.25 0,0 131.5,0 131.5,-19.25"/>
<text text-anchor="middle" x="65.75" y="-5.75" font-family="Helvetica,sans-Serif" font-size="10.00">CommSnifferReadableIntel</text>
</a>
</g>
</g>
<!-- Node8&#45;&gt;Node4 -->
<g id="edge7_Node000004_Node000008" class="edge">
<title>Node8&#45;&gt;Node4</title>
<g id="a_edge7_Node000004_Node000008"><a xlink:title=" ">
<path fill="none" stroke="#63b8ff" d="M117.3,-23.15C122.16,-24.84 126.96,-26.67 131.5,-28.62 148.51,-35.95 150.38,-42.55 167.5,-49.62 174.96,-52.71 182.92,-55.49 190.92,-57.97"/>
<polygon fill="#63b8ff" stroke="#63b8ff" points="118.7,-19.93 108.11,-20.15 116.53,-26.58 118.7,-19.93"/>
</a>
</g>
</g>
<!-- Node9 -->
<g id="Node000009" class="node">
<title>Node9</title>
<g id="a_Node000009"><a xlink:title=" ">
<polygon fill="white" stroke="#666666" points="311,-40.25 209.5,-40.25 209.5,-21 311,-21 311,-40.25"/>
<text text-anchor="middle" x="260.25" y="-26.75" font-family="Helvetica,sans-Serif" font-size="10.00">RouteFleetSpawner</text>
</a>
</g>
</g>
<!-- Node9&#45;&gt;Node3 -->
<g id="edge8_Node000003_Node000009" class="edge">
<title>Node9&#45;&gt;Node3</title>
<g id="a_edge8_Node000003_Node000009"><a xlink:title=" ">
<path fill="none" stroke="#63b8ff" d="M322.71,-36.17C343.01,-38.01 366.2,-40.1 388.81,-42.14"/>
<polygon fill="#63b8ff" stroke="#63b8ff" points="323.22,-32.71 312.95,-35.29 322.59,-39.68 323.22,-32.71"/>
</a>
</g>
</g>
</g>
</svg>

<g id="navigator" transform="translate(0 0)" fill="#404254">
  <rect fill="#f2f5e9" fill-opacity="0.5" stroke="#606060" stroke-width=".5" x="0" y="0" width="60" height="60"/>
  <use id="zoomplus" xlink:href="#zoomPlus" x="17" y="9" onmousedown="handleZoom(evt,'in')"/>
  <use id="zoomminus" xlink:href="#zoomMin" x="42" y="9" onmousedown="handleZoom(evt,'out')"/>
  <use id="reset" xlink:href="#resetDef" x="30" y="36" onmousedown="handleReset()"/>
   <use id="arrowup" xlink:href="#arrowUp" x="0" y="0" onmousedown="handlePan(0,-1)"/>
  <use id="arrowright" xlink:href="#arrowRight" x="0" y="0" onmousedown="handlePan(1,0)"/>
  <use id="arrowdown" xlink:href="#arrowDown" x="0" y="0" onmousedown="handlePan(0,1)"/>
  <use id="arrowleft" xlink:href="#arrowLeft" x="0" y="0" onmousedown="handlePan(-1,0)"/>
</g>
<svg viewBox="0 0 15 15" width="100%" height="30px" preserveAspectRatio="xMaxYMin meet">
 <g id="arrow_out" transform="scale(0.3 0.3)">
  <a xlink:href="classcom_1_1fs_1_1starfarer_1_1api_1_1impl_1_1campaign_1_1intel_1_1group_1_1TTMercenaryAttack__inherit__graph_org.svg" target="_base">
   <rect id="button" ry="5" rx="5" y="6" x="6" height="38" width="38"
        fill="#f2f5e9" fill-opacity="0.5" stroke="#606060" stroke-width="1.0"/>
   <path id="arrow"
     d="M 11.500037,31.436501 C 11.940474,20.09759 22.043105,11.32322 32.158766,21.979434 L 37.068811,17.246167 C 37.068811,17.246167 37.088388,32 37.088388,32 L 22.160133,31.978069 C 22.160133,31.978069 26.997745,27.140456 26.997745,27.140456 C 18.528582,18.264221 13.291696,25.230495 11.500037,31.436501 z"
     style="fill:#404040;"/>
  </a>
 </g>
</svg>

<style type='text/css'>
<![CDATA[
[data-mouse-over-selected='false'] { opacity: 0.7; }
[data-mouse-over-selected='true']  { opacity: 1.0; }
]]>
</style>
<script type="application/ecmascript"><![CDATA[
document.addEventListener('DOMContentLoaded', (event) => {
  highlightEdges();
  highlightAdjacentNodes();
});
]]></script>
</svg>
