<?xml version="1.0" encoding="UTF-8" standalone="no"?>
<!DOCTYPE svg PUBLIC "-//W3C//DTD SVG 1.1//EN"
 "http://www.w3.org/Graphics/SVG/1.1/DTD/svg11.dtd">
<!-- Generated by graphviz version 2.44.0 ()
 -->
<!-- Title: com.fs.starfarer.api.impl.campaign.missions.academy.GABaseMission Pages: 1 -->
<svg width="2193pt" height="1417pt"
 viewBox="0.00 0.00 2193.00 1417.00" xmlns="http://www.w3.org/2000/svg" xmlns:xlink="http://www.w3.org/1999/xlink">
<g id="graph0" class="graph" transform="scale(1 1) rotate(0) translate(4 1413)">
<title>com.fs.starfarer.api.impl.campaign.missions.academy.GABaseMission</title>
<!-- Node1 -->
<g id="node1" class="node">
<title>Node1</title>
<g id="a_node1"><a xlink:title=" ">
<polygon fill="#bfbfbf" stroke="black" points="1937,-265 1937,-295 2185,-295 2185,-265 1937,-265"/>
<text text-anchor="start" x="1945" y="-283" font-family="Helvetica,sans-Serif" font-size="10.00">com.fs.starfarer.api.impl.campaign.missions.academy.</text>
<text text-anchor="middle" x="2061" y="-272" font-family="Helvetica,sans-Serif" font-size="10.00">GABaseMission</text>
</a>
</g>
</g>
<!-- Node2 -->
<g id="node2" class="node">
<title>Node2</title>
<g id="a_node2"><a xlink:href="classcom_1_1fs_1_1starfarer_1_1api_1_1impl_1_1campaign_1_1missions_1_1hub_1_1HubMissionWithSearch.html" target="_top" xlink:title=" ">
<polygon fill="none" stroke="black" points="1675,-265 1675,-295 1900,-295 1900,-265 1675,-265"/>
<text text-anchor="start" x="1683" y="-283" font-family="Helvetica,sans-Serif" font-size="10.00">com.fs.starfarer.api.impl.campaign.missions.hub.</text>
<text text-anchor="middle" x="1787.5" y="-272" font-family="Helvetica,sans-Serif" font-size="10.00">HubMissionWithSearch</text>
</a>
</g>
</g>
<!-- Node2&#45;&gt;Node1 -->
<g id="edge1" class="edge">
<title>Node2&#45;&gt;Node1</title>
<path fill="none" stroke="midnightblue" d="M1910.11,-280C1919.02,-280 1928,-280 1936.92,-280"/>
<polygon fill="midnightblue" stroke="midnightblue" points="1910.1,-276.5 1900.1,-280 1910.1,-283.5 1910.1,-276.5"/>
</g>
<!-- Node3 -->
<g id="node3" class="node">
<title>Node3</title>
<g id="a_node3"><a xlink:href="classcom_1_1fs_1_1starfarer_1_1api_1_1impl_1_1campaign_1_1missions_1_1hub_1_1HubMissionWithTriggers.html" target="_top" xlink:title=" ">
<polygon fill="none" stroke="black" points="1382,-356 1382,-386 1607,-386 1607,-356 1382,-356"/>
<text text-anchor="start" x="1390" y="-374" font-family="Helvetica,sans-Serif" font-size="10.00">com.fs.starfarer.api.impl.campaign.missions.hub.</text>
<text text-anchor="middle" x="1494.5" y="-363" font-family="Helvetica,sans-Serif" font-size="10.00">HubMissionWithTriggers</text>
</a>
</g>
</g>
<!-- Node3&#45;&gt;Node2 -->
<g id="edge2" class="edge">
<title>Node3&#45;&gt;Node2</title>
<path fill="none" stroke="midnightblue" d="M1553.36,-352.91C1607.55,-335.96 1687.59,-310.93 1738.38,-295.05"/>
<polygon fill="midnightblue" stroke="midnightblue" points="1552.05,-349.65 1543.55,-355.97 1554.14,-356.33 1552.05,-349.65"/>
</g>
<!-- Node4 -->
<g id="node4" class="node">
<title>Node4</title>
<g id="a_node4"><a xlink:href="classcom_1_1fs_1_1starfarer_1_1api_1_1impl_1_1campaign_1_1missions_1_1hub_1_1BaseHubMission.html" target="_top" xlink:title=" ">
<polygon fill="none" stroke="black" points="1040,-836 1040,-866 1265,-866 1265,-836 1040,-836"/>
<text text-anchor="start" x="1048" y="-854" font-family="Helvetica,sans-Serif" font-size="10.00">com.fs.starfarer.api.impl.campaign.missions.hub.</text>
<text text-anchor="middle" x="1152.5" y="-843" font-family="Helvetica,sans-Serif" font-size="10.00">BaseHubMission</text>
</a>
</g>
</g>
<!-- Node4&#45;&gt;Node3 -->
<g id="edge3" class="edge">
<title>Node4&#45;&gt;Node3</title>
<path fill="none" stroke="midnightblue" d="M1170.02,-827.67C1229.76,-743.33 1433.59,-455.58 1482.76,-386.16"/>
<polygon fill="midnightblue" stroke="midnightblue" points="1167.16,-825.66 1164.24,-835.84 1172.87,-829.7 1167.16,-825.66"/>
</g>
<!-- Node5 -->
<g id="node5" class="node">
<title>Node5</title>
<g id="a_node5"><a xlink:href="classcom_1_1fs_1_1starfarer_1_1api_1_1impl_1_1campaign_1_1intel_1_1BaseIntelPlugin.html" target="_top" xlink:title=" ">
<polygon fill="none" stroke="black" points="661,-1022 661,-1052 847,-1052 847,-1022 661,-1022"/>
<text text-anchor="start" x="669" y="-1040" font-family="Helvetica,sans-Serif" font-size="10.00">com.fs.starfarer.api.impl.campaign.intel.</text>
<text text-anchor="middle" x="754" y="-1029" font-family="Helvetica,sans-Serif" font-size="10.00">BaseIntelPlugin</text>
</a>
</g>
</g>
<!-- Node5&#45;&gt;Node4 -->
<g id="edge4" class="edge">
<title>Node5&#45;&gt;Node4</title>
<path fill="none" stroke="midnightblue" d="M857.47,-1042.63C909.53,-1041.28 972.15,-1032.92 1022,-1006 1083.09,-973.01 1127.15,-898.33 1143.98,-866.18"/>
<polygon fill="midnightblue" stroke="midnightblue" points="857.14,-1039.13 847.2,-1042.81 857.26,-1046.13 857.14,-1039.13"/>
</g>
<!-- Node6 -->
<g id="node6" class="node">
<title>Node6</title>
<g id="a_node6"><a xlink:href="interfacecom_1_1fs_1_1starfarer_1_1api_1_1campaign_1_1comm_1_1IntelInfoPlugin.html" target="_top" xlink:title=" ">
<polygon fill="none" stroke="black" points="237.5,-1071 237.5,-1101 412.5,-1101 412.5,-1071 237.5,-1071"/>
<text text-anchor="start" x="245.5" y="-1089" font-family="Helvetica,sans-Serif" font-size="10.00">com.fs.starfarer.api.campaign.comm.</text>
<text text-anchor="middle" x="325" y="-1078" font-family="Helvetica,sans-Serif" font-size="10.00">IntelInfoPlugin</text>
</a>
</g>
</g>
<!-- Node6&#45;&gt;Node5 -->
<g id="edge5" class="edge">
<title>Node6&#45;&gt;Node5</title>
<path fill="none" stroke="midnightblue" d="M423.01,-1074.87C494.37,-1066.68 590.75,-1055.62 660.92,-1047.57"/>
<polygon fill="midnightblue" stroke="midnightblue" points="422.2,-1071.44 412.67,-1076.05 423,-1078.39 422.2,-1071.44"/>
</g>
<!-- Node7 -->
<g id="node7" class="node">
<title>Node7</title>
<g id="a_node7"><a xlink:title=" ">
<polygon fill="none" stroke="#bfbfbf" points="223.5,-1022 223.5,-1052 426.5,-1052 426.5,-1022 223.5,-1022"/>
<text text-anchor="start" x="231.5" y="-1040" font-family="Helvetica,sans-Serif" font-size="10.00">com.fs.starfarer.api.impl.campaign.rulecmd.</text>
<text text-anchor="middle" x="325" y="-1029" font-family="Helvetica,sans-Serif" font-size="10.00">CallEvent.CallableEvent</text>
</a>
</g>
</g>
<!-- Node7&#45;&gt;Node5 -->
<g id="edge6" class="edge">
<title>Node7&#45;&gt;Node5</title>
<path fill="none" stroke="midnightblue" d="M436.77,-1037C506.31,-1037 594.95,-1037 660.68,-1037"/>
<polygon fill="midnightblue" stroke="midnightblue" points="436.65,-1033.5 426.65,-1037 436.65,-1040.5 436.65,-1033.5"/>
</g>
<!-- Node8 -->
<g id="node8" class="node">
<title>Node8</title>
<g id="a_node8"><a xlink:href="interfacecom_1_1fs_1_1starfarer_1_1api_1_1EveryFrameScript.html" target="_top" xlink:title=" ">
<polygon fill="none" stroke="black" points="262.5,-973 262.5,-1003 387.5,-1003 387.5,-973 262.5,-973"/>
<text text-anchor="start" x="270.5" y="-991" font-family="Helvetica,sans-Serif" font-size="10.00">com.fs.starfarer.api.Every</text>
<text text-anchor="middle" x="325" y="-980" font-family="Helvetica,sans-Serif" font-size="10.00">FrameScript</text>
</a>
</g>
</g>
<!-- Node8&#45;&gt;Node5 -->
<g id="edge7" class="edge">
<title>Node8&#45;&gt;Node5</title>
<path fill="none" stroke="midnightblue" d="M398,-996.26C470.29,-1004.56 581.94,-1017.37 660.69,-1026.41"/>
<polygon fill="midnightblue" stroke="midnightblue" points="397.97,-992.74 387.63,-995.07 397.17,-999.69 397.97,-992.74"/>
</g>
<!-- Node9 -->
<g id="node9" class="node">
<title>Node9</title>
<g id="a_node9"><a xlink:title=" ">
<polygon fill="none" stroke="#bfbfbf" points="206,-1169 206,-1199 444,-1199 444,-1169 206,-1169"/>
<text text-anchor="start" x="214" y="-1187" font-family="Helvetica,sans-Serif" font-size="10.00">com.fs.starfarer.api.impl.campaign.</text>
<text text-anchor="middle" x="325" y="-1176" font-family="Helvetica,sans-Serif" font-size="10.00">CommRelayEntityPlugin.CommSnifferReadableIntel</text>
</a>
</g>
</g>
<!-- Node9&#45;&gt;Node5 -->
<g id="edge8" class="edge">
<title>Node9&#45;&gt;Node5</title>
<path fill="none" stroke="midnightblue" d="M411.33,-1166.89C422.33,-1164.61 433.44,-1162.28 444,-1160 518.41,-1143.97 555.38,-1173.97 611,-1122 631.34,-1102.99 608.42,-1080.76 629,-1062 638.09,-1053.72 649.13,-1047.86 660.85,-1043.76"/>
<polygon fill="midnightblue" stroke="midnightblue" points="410.37,-1163.51 401.28,-1168.96 411.78,-1170.37 410.37,-1163.51"/>
</g>
<!-- Node10 -->
<g id="node10" class="node">
<title>Node10</title>
<g id="a_node10"><a xlink:href="interfacecom_1_1fs_1_1starfarer_1_1api_1_1campaign_1_1SectorEntityToken.html" target="_top" xlink:title=" ">
<polygon fill="none" stroke="black" points="252,-1120 252,-1150 398,-1150 398,-1120 252,-1120"/>
<text text-anchor="start" x="260" y="-1138" font-family="Helvetica,sans-Serif" font-size="10.00">com.fs.starfarer.api.campaign.</text>
<text text-anchor="middle" x="325" y="-1127" font-family="Helvetica,sans-Serif" font-size="10.00">SectorEntityToken</text>
</a>
</g>
</g>
<!-- Node10&#45;&gt;Node5 -->
<g id="edge9" class="edge">
<title>Node10&#45;&gt;Node5</title>
<path fill="none" stroke="#9a32cd" stroke-dasharray="5,2" d="M408.13,-1118.36C420.16,-1115.9 432.4,-1113.39 444,-1111 518.27,-1095.66 542.19,-1107.88 611,-1076 620.2,-1071.74 619.79,-1066.22 629,-1062 638.98,-1057.42 649.79,-1053.68 660.73,-1050.62"/>
<polygon fill="#9a32cd" stroke="#9a32cd" points="407.19,-1114.98 398.09,-1120.41 408.59,-1121.84 407.19,-1114.98"/>
<text text-anchor="middle" x="536.5" y="-1110" font-family="Helvetica,sans-Serif" font-size="10.00"> postingLocation</text>
</g>
<!-- Node11 -->
<g id="node11" class="node">
<title>Node11</title>
<g id="a_node11"><a xlink:href="interfacecom_1_1fs_1_1starfarer_1_1api_1_1campaign_1_1rules_1_1HasMemory.html" target="_top" xlink:title=" ">
<polygon fill="none" stroke="black" points="0,-1155 0,-1185 169,-1185 169,-1155 0,-1155"/>
<text text-anchor="start" x="8" y="-1173" font-family="Helvetica,sans-Serif" font-size="10.00">com.fs.starfarer.api.campaign.rules.</text>
<text text-anchor="middle" x="84.5" y="-1162" font-family="Helvetica,sans-Serif" font-size="10.00">HasMemory</text>
</a>
</g>
</g>
<!-- Node11&#45;&gt;Node10 -->
<g id="edge10" class="edge">
<title>Node11&#45;&gt;Node10</title>
<path fill="none" stroke="midnightblue" d="M179.16,-1156.26C203.36,-1152.7 229.03,-1148.94 251.94,-1145.58"/>
<polygon fill="midnightblue" stroke="midnightblue" points="178.64,-1152.79 169.25,-1157.71 179.65,-1159.72 178.64,-1152.79"/>
</g>
<!-- Node35 -->
<g id="node35" class="node">
<title>Node35</title>
<g id="a_node35"><a xlink:href="interfacecom_1_1fs_1_1starfarer_1_1api_1_1characters_1_1PersonAPI.html" target="_top" xlink:title=" ">
<polygon fill="none" stroke="black" points="462,-1237 462,-1267 611,-1267 611,-1237 462,-1237"/>
<text text-anchor="start" x="470" y="-1255" font-family="Helvetica,sans-Serif" font-size="10.00">com.fs.starfarer.api.characters.</text>
<text text-anchor="middle" x="536.5" y="-1244" font-family="Helvetica,sans-Serif" font-size="10.00">PersonAPI</text>
</a>
</g>
</g>
<!-- Node11&#45;&gt;Node35 -->
<g id="edge35" class="edge">
<title>Node11&#45;&gt;Node35</title>
<path fill="none" stroke="midnightblue" d="M135.27,-1188.38C156.77,-1195.72 182.37,-1203.68 206,-1209 292.81,-1228.54 394.64,-1240.14 461.86,-1246.28"/>
<polygon fill="midnightblue" stroke="midnightblue" points="136.3,-1185.03 125.7,-1185.06 134,-1191.64 136.3,-1185.03"/>
</g>
<!-- Node12 -->
<g id="node12" class="node">
<title>Node12</title>
<g id="a_node12"><a xlink:href="interfacecom_1_1fs_1_1starfarer_1_1api_1_1impl_1_1campaign_1_1missions_1_1hub_1_1HubMission.html" target="_top" xlink:title=" ">
<polygon fill="none" stroke="black" points="641.5,-1208 641.5,-1238 866.5,-1238 866.5,-1208 641.5,-1208"/>
<text text-anchor="start" x="649.5" y="-1226" font-family="Helvetica,sans-Serif" font-size="10.00">com.fs.starfarer.api.impl.campaign.missions.hub.</text>
<text text-anchor="middle" x="754" y="-1215" font-family="Helvetica,sans-Serif" font-size="10.00">HubMission</text>
</a>
</g>
</g>
<!-- Node12&#45;&gt;Node4 -->
<g id="edge11" class="edge">
<title>Node12&#45;&gt;Node4</title>
<path fill="none" stroke="midnightblue" d="M846.57,-1238.97C902.58,-1243.53 972.7,-1239.32 1022,-1202 1134.9,-1116.54 1149.43,-922.1 1151.25,-866.26"/>
<polygon fill="midnightblue" stroke="midnightblue" points="846.56,-1235.45 836.28,-1238.02 845.92,-1242.42 846.56,-1235.45"/>
</g>
<!-- Node13 -->
<g id="node13" class="node">
<title>Node13</title>
<g id="a_node13"><a xlink:title=" ">
<polygon fill="none" stroke="#bfbfbf" points="683,-1169.5 683,-1188.5 825,-1188.5 825,-1169.5 683,-1169.5"/>
<text text-anchor="middle" x="754" y="-1176.5" font-family="Helvetica,sans-Serif" font-size="10.00">List&lt; PotentialContactData &gt;</text>
</a>
</g>
</g>
<!-- Node13&#45;&gt;Node4 -->
<g id="edge12" class="edge">
<title>Node13&#45;&gt;Node4</title>
<path fill="none" stroke="#9a32cd" stroke-dasharray="5,2" d="M835.44,-1179.31C903.07,-1178.02 993.2,-1172.17 1022,-1151 1120.27,-1078.76 1144.82,-916.26 1150.16,-866.06"/>
<polygon fill="#9a32cd" stroke="#9a32cd" points="835.15,-1175.82 825.21,-1179.48 835.26,-1182.82 835.15,-1175.82"/>
<text text-anchor="start" x="897" y="-1190" font-family="Helvetica,sans-Serif" font-size="10.00"> potentialContactsOnMission</text>
<text text-anchor="middle" x="959.5" y="-1179" font-family="Helvetica,sans-Serif" font-size="10.00">Success</text>
</g>
<!-- Node14 -->
<g id="node14" class="node">
<title>Node14</title>
<g id="a_node14"><a xlink:href="interfacecom_1_1fs_1_1starfarer_1_1api_1_1impl_1_1campaign_1_1missions_1_1hub_1_1HubMissionCreator.html" target="_top" xlink:title=" ">
<polygon fill="none" stroke="black" points="641.5,-1120 641.5,-1150 866.5,-1150 866.5,-1120 641.5,-1120"/>
<text text-anchor="start" x="649.5" y="-1138" font-family="Helvetica,sans-Serif" font-size="10.00">com.fs.starfarer.api.impl.campaign.missions.hub.</text>
<text text-anchor="middle" x="754" y="-1127" font-family="Helvetica,sans-Serif" font-size="10.00">HubMissionCreator</text>
</a>
</g>
</g>
<!-- Node14&#45;&gt;Node4 -->
<g id="edge13" class="edge">
<title>Node14&#45;&gt;Node4</title>
<path fill="none" stroke="#9a32cd" stroke-dasharray="5,2" d="M876.77,-1139.21C925.71,-1135.39 980.3,-1123.56 1022,-1094 1103.89,-1035.94 1138.57,-909.62 1148.39,-866.09"/>
<polygon fill="#9a32cd" stroke="#9a32cd" points="876.48,-1135.73 866.74,-1139.9 876.95,-1142.71 876.48,-1135.73"/>
<text text-anchor="middle" x="959.5" y="-1139" font-family="Helvetica,sans-Serif" font-size="10.00"> creator</text>
</g>
<!-- Node15 -->
<g id="node15" class="node">
<title>Node15</title>
<g id="a_node15"><a xlink:href="interfacecom_1_1fs_1_1starfarer_1_1api_1_1impl_1_1campaign_1_1missions_1_1hub_1_1MissionHub.html" target="_top" xlink:title=" ">
<polygon fill="none" stroke="black" points="641.5,-1071 641.5,-1101 866.5,-1101 866.5,-1071 641.5,-1071"/>
<text text-anchor="start" x="649.5" y="-1089" font-family="Helvetica,sans-Serif" font-size="10.00">com.fs.starfarer.api.impl.campaign.missions.hub.</text>
<text text-anchor="middle" x="754" y="-1078" font-family="Helvetica,sans-Serif" font-size="10.00">MissionHub</text>
</a>
</g>
</g>
<!-- Node15&#45;&gt;Node4 -->
<g id="edge14" class="edge">
<title>Node15&#45;&gt;Node4</title>
<path fill="none" stroke="#9a32cd" stroke-dasharray="5,2" d="M876.84,-1082.83C925.15,-1076.77 979.26,-1063.55 1022,-1036 1088.73,-992.99 1130.92,-902.27 1145.64,-866.23"/>
<polygon fill="#9a32cd" stroke="#9a32cd" points="876.15,-1079.39 866.62,-1084.02 876.96,-1086.34 876.15,-1079.39"/>
<text text-anchor="middle" x="959.5" y="-1082" font-family="Helvetica,sans-Serif" font-size="10.00"> hub</text>
</g>
<!-- Node16 -->
<g id="node16" class="node">
<title>Node16</title>
<g id="a_node16"><a xlink:title=" ">
<polygon fill="none" stroke="#bfbfbf" points="641.5,-924 641.5,-954 866.5,-954 866.5,-924 641.5,-924"/>
<text text-anchor="start" x="649.5" y="-942" font-family="Helvetica,sans-Serif" font-size="10.00">com.fs.starfarer.api.impl.campaign.missions.hub.</text>
<text text-anchor="middle" x="754" y="-931" font-family="Helvetica,sans-Serif" font-size="10.00">BaseHubMission.TimeLimitData</text>
</a>
</g>
</g>
<!-- Node16&#45;&gt;Node4 -->
<g id="edge15" class="edge">
<title>Node16&#45;&gt;Node4</title>
<path fill="none" stroke="#9a32cd" stroke-dasharray="5,2" d="M876.8,-937.5C922.97,-934.49 975.57,-928.07 1022,-915 1061.11,-903.99 1102.58,-881.29 1127.76,-866.1"/>
<polygon fill="#9a32cd" stroke="#9a32cd" points="876.52,-934.01 866.75,-938.11 876.94,-941 876.52,-934.01"/>
<text text-anchor="middle" x="959.5" y="-938" font-family="Helvetica,sans-Serif" font-size="10.00"> timeLimit</text>
</g>
<!-- Node17 -->
<g id="node17" class="node">
<title>Node17</title>
<g id="a_node17"><a xlink:title=" ">
<polygon fill="none" stroke="#bfbfbf" points="260.5,-873.5 260.5,-892.5 389.5,-892.5 389.5,-873.5 260.5,-873.5"/>
<text text-anchor="middle" x="325" y="-880.5" font-family="Helvetica,sans-Serif" font-size="10.00">LinkedHashSet&lt; Object &gt;</text>
</a>
</g>
</g>
<!-- Node17&#45;&gt;Node16 -->
<g id="edge16" class="edge">
<title>Node17&#45;&gt;Node16</title>
<path fill="none" stroke="#9a32cd" stroke-dasharray="5,2" d="M399.91,-892.69C466.43,-901.42 565.13,-914.36 641.28,-924.35"/>
<polygon fill="#9a32cd" stroke="#9a32cd" points="400.3,-889.21 389.93,-891.38 399.39,-896.15 400.3,-889.21"/>
<text text-anchor="middle" x="536.5" y="-922" font-family="Helvetica,sans-Serif" font-size="10.00"> endLimitStages</text>
</g>
<!-- Node37 -->
<g id="node37" class="node">
<title>Node37</title>
<g id="a_node37"><a xlink:href="classcom_1_1fs_1_1starfarer_1_1api_1_1impl_1_1campaign_1_1missions_1_1hub_1_1MissionTrigger.html" target="_top" xlink:title=" ">
<polygon fill="none" stroke="black" points="641.5,-350 641.5,-380 866.5,-380 866.5,-350 641.5,-350"/>
<text text-anchor="start" x="649.5" y="-368" font-family="Helvetica,sans-Serif" font-size="10.00">com.fs.starfarer.api.impl.campaign.missions.hub.</text>
<text text-anchor="middle" x="754" y="-357" font-family="Helvetica,sans-Serif" font-size="10.00">MissionTrigger</text>
</a>
</g>
</g>
<!-- Node17&#45;&gt;Node37 -->
<g id="edge39" class="edge">
<title>Node17&#45;&gt;Node37</title>
<path fill="none" stroke="#9a32cd" stroke-dasharray="5,2" d="M331.77,-863.23C354.89,-787.8 448.38,-516.06 629,-390 634.49,-386.17 640.44,-382.89 646.65,-380.1"/>
<polygon fill="#9a32cd" stroke="#9a32cd" points="328.29,-862.66 328.77,-873.24 334.99,-864.67 328.29,-862.66"/>
<text text-anchor="middle" x="536.5" y="-577" font-family="Helvetica,sans-Serif" font-size="10.00"> stages</text>
</g>
<!-- Node18 -->
<g id="node18" class="node">
<title>Node18</title>
<g id="a_node18"><a xlink:href="interfacecom_1_1fs_1_1starfarer_1_1api_1_1campaign_1_1StarSystemAPI.html" target="_top" xlink:title=" ">
<polygon fill="none" stroke="black" points="252,-924 252,-954 398,-954 398,-924 252,-924"/>
<text text-anchor="start" x="260" y="-942" font-family="Helvetica,sans-Serif" font-size="10.00">com.fs.starfarer.api.campaign.</text>
<text text-anchor="middle" x="325" y="-931" font-family="Helvetica,sans-Serif" font-size="10.00">StarSystemAPI</text>
</a>
</g>
</g>
<!-- Node18&#45;&gt;Node16 -->
<g id="edge17" class="edge">
<title>Node18&#45;&gt;Node16</title>
<path fill="none" stroke="#9a32cd" stroke-dasharray="5,2" d="M408.81,-939C474.99,-939 568.39,-939 641.2,-939"/>
<polygon fill="#9a32cd" stroke="#9a32cd" points="408.43,-935.5 398.43,-939 408.43,-942.5 408.43,-935.5"/>
<text text-anchor="middle" x="536.5" y="-942" font-family="Helvetica,sans-Serif" font-size="10.00"> noLimitWhileInSystem</text>
</g>
<!-- Node19 -->
<g id="node19" class="node">
<title>Node19</title>
<g id="a_node19"><a xlink:href="interfacecom_1_1fs_1_1starfarer_1_1api_1_1campaign_1_1LocationAPI.html" target="_top" xlink:title=" ">
<polygon fill="none" stroke="black" points="11.5,-924 11.5,-954 157.5,-954 157.5,-924 11.5,-924"/>
<text text-anchor="start" x="19.5" y="-942" font-family="Helvetica,sans-Serif" font-size="10.00">com.fs.starfarer.api.campaign.</text>
<text text-anchor="middle" x="84.5" y="-931" font-family="Helvetica,sans-Serif" font-size="10.00">LocationAPI</text>
</a>
</g>
</g>
<!-- Node19&#45;&gt;Node18 -->
<g id="edge18" class="edge">
<title>Node19&#45;&gt;Node18</title>
<path fill="none" stroke="midnightblue" d="M167.98,-939C195.19,-939 225.23,-939 251.63,-939"/>
<polygon fill="midnightblue" stroke="midnightblue" points="167.71,-935.5 157.71,-939 167.71,-942.5 167.71,-935.5"/>
</g>
<!-- Node20 -->
<g id="node20" class="node">
<title>Node20</title>
<g id="a_node20"><a xlink:href="interfacecom_1_1fs_1_1starfarer_1_1api_1_1campaign_1_1CargoAPI.html" target="_top" xlink:title=" ">
<polygon fill="none" stroke="black" points="681,-973 681,-1003 827,-1003 827,-973 681,-973"/>
<text text-anchor="start" x="689" y="-991" font-family="Helvetica,sans-Serif" font-size="10.00">com.fs.starfarer.api.campaign.</text>
<text text-anchor="middle" x="754" y="-980" font-family="Helvetica,sans-Serif" font-size="10.00">CargoAPI</text>
</a>
</g>
</g>
<!-- Node20&#45;&gt;Node4 -->
<g id="edge19" class="edge">
<title>Node20&#45;&gt;Node4</title>
<path fill="none" stroke="#9a32cd" stroke-dasharray="5,2" d="M837.31,-987.01C891.61,-983.81 963.28,-974.62 1022,-950 1069.5,-930.08 1114.91,-888.45 1137.2,-866.04"/>
<polygon fill="#9a32cd" stroke="#9a32cd" points="836.83,-983.53 827.03,-987.56 837.21,-990.52 836.83,-983.53"/>
<text text-anchor="middle" x="959.5" y="-994" font-family="Helvetica,sans-Serif" font-size="10.00"> cargoOnAccept</text>
<text text-anchor="middle" x="959.5" y="-983" font-family="Helvetica,sans-Serif" font-size="10.00">cargoOnSuccess</text>
</g>
<!-- Node21 -->
<g id="node21" class="node">
<title>Node21</title>
<g id="a_node21"><a xlink:title=" ">
<polygon fill="none" stroke="#bfbfbf" points="641.5,-1366 641.5,-1396 866.5,-1396 866.5,-1366 641.5,-1366"/>
<text text-anchor="start" x="649.5" y="-1384" font-family="Helvetica,sans-Serif" font-size="10.00">com.fs.starfarer.api.impl.campaign.missions.hub.</text>
<text text-anchor="middle" x="754" y="-1373" font-family="Helvetica,sans-Serif" font-size="10.00">BaseHubMission.HubMissionResult</text>
</a>
</g>
</g>
<!-- Node21&#45;&gt;Node4 -->
<g id="edge20" class="edge">
<title>Node21&#45;&gt;Node4</title>
<path fill="none" stroke="#9a32cd" stroke-dasharray="5,2" d="M842.93,-1397.04C900.36,-1402.29 973.43,-1398.32 1022,-1357 1100.48,-1290.24 1141.67,-943.27 1149.94,-866.19"/>
<polygon fill="#9a32cd" stroke="#9a32cd" points="843.07,-1393.54 832.77,-1396.01 842.36,-1400.5 843.07,-1393.54"/>
<text text-anchor="middle" x="959.5" y="-1401" font-family="Helvetica,sans-Serif" font-size="10.00"> result</text>
</g>
<!-- Node22 -->
<g id="node22" class="node">
<title>Node22</title>
<g id="a_node22"><a xlink:title=" ">
<polygon fill="none" stroke="#bfbfbf" points="220,-1360.5 220,-1401.5 430,-1401.5 430,-1360.5 220,-1360.5"/>
<text text-anchor="start" x="228" y="-1389.5" font-family="Helvetica,sans-Serif" font-size="10.00">com.fs.starfarer.api.campaign.</text>
<text text-anchor="start" x="228" y="-1378.5" font-family="Helvetica,sans-Serif" font-size="10.00">ReputationActionResponsePlugin.Reputation</text>
<text text-anchor="middle" x="325" y="-1367.5" font-family="Helvetica,sans-Serif" font-size="10.00">AdjustmentResult</text>
</a>
</g>
</g>
<!-- Node22&#45;&gt;Node21 -->
<g id="edge21" class="edge">
<title>Node22&#45;&gt;Node21</title>
<path fill="none" stroke="#9a32cd" stroke-dasharray="5,2" d="M440.44,-1381C502.71,-1381 579.43,-1381 641.27,-1381"/>
<polygon fill="#9a32cd" stroke="#9a32cd" points="440.18,-1377.5 430.18,-1381 440.18,-1384.5 440.18,-1377.5"/>
<text text-anchor="middle" x="536.5" y="-1395" font-family="Helvetica,sans-Serif" font-size="10.00"> repFaction</text>
<text text-anchor="middle" x="536.5" y="-1384" font-family="Helvetica,sans-Serif" font-size="10.00">repPerson</text>
</g>
<!-- Node23 -->
<g id="node23" class="node">
<title>Node23</title>
<g id="a_node23"><a xlink:title=" ">
<polygon fill="none" stroke="#bfbfbf" points="715,-885.5 715,-904.5 793,-904.5 793,-885.5 715,-885.5"/>
<text text-anchor="middle" x="754" y="-892.5" font-family="Helvetica,sans-Serif" font-size="10.00">List&lt; Object &gt;</text>
</a>
</g>
</g>
<!-- Node23&#45;&gt;Node4 -->
<g id="edge22" class="edge">
<title>Node23&#45;&gt;Node4</title>
<path fill="none" stroke="#9a32cd" stroke-dasharray="5,2" d="M803.07,-889.67C861.46,-883.19 961.83,-872.05 1039.89,-863.39"/>
<polygon fill="#9a32cd" stroke="#9a32cd" points="802.57,-886.2 793.02,-890.78 803.34,-893.16 802.57,-886.2"/>
<text text-anchor="middle" x="959.5" y="-903" font-family="Helvetica,sans-Serif" font-size="10.00"> failStages</text>
<text text-anchor="middle" x="959.5" y="-892" font-family="Helvetica,sans-Serif" font-size="10.00">noPenaltyFailStages</text>
<text text-anchor="middle" x="959.5" y="-881" font-family="Helvetica,sans-Serif" font-size="10.00">successStages</text>
</g>
<!-- Node24 -->
<g id="node24" class="node">
<title>Node24</title>
<g id="a_node24"><a xlink:title=" ">
<polygon fill="none" stroke="#bfbfbf" points="690,-836 690,-866 818,-866 818,-836 690,-836"/>
<text text-anchor="start" x="698" y="-854" font-family="Helvetica,sans-Serif" font-size="10.00">LinkedHashMap&lt; Object,</text>
<text text-anchor="middle" x="754" y="-843" font-family="Helvetica,sans-Serif" font-size="10.00"> StageData &gt;</text>
</a>
</g>
</g>
<!-- Node24&#45;&gt;Node4 -->
<g id="edge23" class="edge">
<title>Node24&#45;&gt;Node4</title>
<path fill="none" stroke="#9a32cd" stroke-dasharray="5,2" d="M828.29,-851C887.56,-851 971.98,-851 1039.68,-851"/>
<polygon fill="#9a32cd" stroke="#9a32cd" points="828.27,-847.5 818.27,-851 828.26,-854.5 828.27,-847.5"/>
<text text-anchor="middle" x="959.5" y="-854" font-family="Helvetica,sans-Serif" font-size="10.00"> stages</text>
</g>
<!-- Node25 -->
<g id="node25" class="node">
<title>Node25</title>
<g id="a_node25"><a xlink:href="enumcom_1_1fs_1_1starfarer_1_1api_1_1campaign_1_1PersonImportance.html" target="_top" xlink:title=" ">
<polygon fill="none" stroke="black" points="681,-787 681,-817 827,-817 827,-787 681,-787"/>
<text text-anchor="start" x="689" y="-805" font-family="Helvetica,sans-Serif" font-size="10.00">com.fs.starfarer.api.campaign.</text>
<text text-anchor="middle" x="754" y="-794" font-family="Helvetica,sans-Serif" font-size="10.00">PersonImportance</text>
</a>
</g>
</g>
<!-- Node25&#45;&gt;Node4 -->
<g id="edge24" class="edge">
<title>Node25&#45;&gt;Node4</title>
<path fill="none" stroke="#9a32cd" stroke-dasharray="5,2" d="M837.22,-812.16C895.81,-819.4 975.28,-829.22 1039.64,-837.18"/>
<polygon fill="#9a32cd" stroke="#9a32cd" points="837.62,-808.68 827.26,-810.93 836.76,-815.63 837.62,-808.68"/>
<text text-anchor="middle" x="959.5" y="-836" font-family="Helvetica,sans-Serif" font-size="10.00"> giverImportance</text>
</g>
<!-- Node26 -->
<g id="node26" class="node">
<title>Node26</title>
<g id="a_node26"><a xlink:title=" ">
<polygon fill="none" stroke="#bfbfbf" points="679.5,-738 679.5,-768 828.5,-768 828.5,-738 679.5,-738"/>
<text text-anchor="start" x="687.5" y="-756" font-family="Helvetica,sans-Serif" font-size="10.00">com.fs.starfarer.api.characters.</text>
<text text-anchor="middle" x="754" y="-745" font-family="Helvetica,sans-Serif" font-size="10.00">FullName.Gender</text>
</a>
</g>
</g>
<!-- Node26&#45;&gt;Node4 -->
<g id="edge25" class="edge">
<title>Node26&#45;&gt;Node4</title>
<path fill="none" stroke="#9a32cd" stroke-dasharray="5,2" d="M838.8,-766.02C891.78,-775.06 961.44,-788.45 1022,-805 1053.41,-813.59 1088.15,-826.1 1113.73,-835.9"/>
<polygon fill="#9a32cd" stroke="#9a32cd" points="839.22,-762.54 828.77,-764.33 838.05,-769.44 839.22,-762.54"/>
<text text-anchor="middle" x="959.5" y="-808" font-family="Helvetica,sans-Serif" font-size="10.00"> giverGender</text>
</g>
<!-- Node27 -->
<g id="node27" class="node">
<title>Node27</title>
<g id="a_node27"><a xlink:href="interfacecom_1_1fs_1_1starfarer_1_1api_1_1campaign_1_1rules_1_1MemoryAPI.html" target="_top" xlink:title=" ">
<polygon fill="none" stroke="black" points="669.5,-689 669.5,-719 838.5,-719 838.5,-689 669.5,-689"/>
<text text-anchor="start" x="677.5" y="-707" font-family="Helvetica,sans-Serif" font-size="10.00">com.fs.starfarer.api.campaign.rules.</text>
<text text-anchor="middle" x="754" y="-696" font-family="Helvetica,sans-Serif" font-size="10.00">MemoryAPI</text>
</a>
</g>
</g>
<!-- Node27&#45;&gt;Node4 -->
<g id="edge26" class="edge">
<title>Node27&#45;&gt;Node4</title>
<path fill="none" stroke="#9a32cd" stroke-dasharray="5,2" d="M848.59,-714.48C901.17,-722.67 967.06,-736.88 1022,-761 1066.12,-780.37 1110.78,-815.65 1134.39,-835.8"/>
<polygon fill="#9a32cd" stroke="#9a32cd" points="849,-711 838.59,-712.97 847.96,-717.92 849,-711"/>
<text text-anchor="middle" x="959.5" y="-764" font-family="Helvetica,sans-Serif" font-size="10.00"> interactionMemory</text>
</g>
<!-- Node28 -->
<g id="node28" class="node">
<title>Node28</title>
<g id="a_node28"><a xlink:href="classcom_1_1fs_1_1starfarer_1_1api_1_1util_1_1IntervalUtil.html" target="_top" xlink:title=" ">
<polygon fill="none" stroke="black" points="696,-640 696,-670 812,-670 812,-640 696,-640"/>
<text text-anchor="start" x="704" y="-658" font-family="Helvetica,sans-Serif" font-size="10.00">com.fs.starfarer.api.util.</text>
<text text-anchor="middle" x="754" y="-647" font-family="Helvetica,sans-Serif" font-size="10.00">IntervalUtil</text>
</a>
</g>
</g>
<!-- Node28&#45;&gt;Node4 -->
<g id="edge27" class="edge">
<title>Node28&#45;&gt;Node4</title>
<path fill="none" stroke="#9a32cd" stroke-dasharray="5,2" d="M822.51,-657.1C879.06,-661.46 960.22,-673.98 1022,-709 1078.31,-740.92 1123.64,-806.01 1142.3,-835.66"/>
<polygon fill="#9a32cd" stroke="#9a32cd" points="822.46,-653.59 812.24,-656.38 821.97,-660.57 822.46,-653.59"/>
<text text-anchor="middle" x="959.5" y="-712" font-family="Helvetica,sans-Serif" font-size="10.00"> tracker</text>
</g>
<!-- Node29 -->
<g id="node29" class="node">
<title>Node29</title>
<g id="a_node29"><a xlink:title=" ">
<polygon fill="none" stroke="#bfbfbf" points="709.5,-601.5 709.5,-620.5 798.5,-620.5 798.5,-601.5 709.5,-601.5"/>
<text text-anchor="middle" x="754" y="-608.5" font-family="Helvetica,sans-Serif" font-size="10.00">List&lt; FlagData &gt;</text>
</a>
</g>
</g>
<!-- Node29&#45;&gt;Node4 -->
<g id="edge28" class="edge">
<title>Node29&#45;&gt;Node4</title>
<path fill="none" stroke="#9a32cd" stroke-dasharray="5,2" d="M808.83,-606.91C866.19,-605.21 957.45,-610.34 1022,-652 1093,-697.82 1133.33,-797.87 1146.58,-835.91"/>
<polygon fill="#9a32cd" stroke="#9a32cd" points="808.39,-603.43 798.53,-607.3 808.66,-610.42 808.39,-603.43"/>
<text text-anchor="middle" x="959.5" y="-655" font-family="Helvetica,sans-Serif" font-size="10.00"> flags</text>
</g>
<!-- Node30 -->
<g id="node30" class="node">
<title>Node30</title>
<g id="a_node30"><a xlink:title=" ">
<polygon fill="none" stroke="#bfbfbf" points="692,-563.5 692,-582.5 816,-582.5 816,-563.5 692,-563.5"/>
<text text-anchor="middle" x="754" y="-570.5" font-family="Helvetica,sans-Serif" font-size="10.00">List&lt; StageConnection &gt;</text>
</a>
</g>
</g>
<!-- Node30&#45;&gt;Node4 -->
<g id="edge29" class="edge">
<title>Node30&#45;&gt;Node4</title>
<path fill="none" stroke="#9a32cd" stroke-dasharray="5,2" d="M817.45,-562.25C875.44,-555.75 961.69,-555.32 1022,-596 1109.06,-654.72 1140.66,-790.47 1149.01,-835.89"/>
<polygon fill="#9a32cd" stroke="#9a32cd" points="816.82,-558.8 807.32,-563.48 817.67,-565.75 816.82,-558.8"/>
<text text-anchor="middle" x="959.5" y="-599" font-family="Helvetica,sans-Serif" font-size="10.00"> connections</text>
</g>
<!-- Node31 -->
<g id="node31" class="node">
<title>Node31</title>
<g id="a_node31"><a xlink:title=" ">
<polygon fill="none" stroke="#bfbfbf" points="717,-525.5 717,-544.5 791,-544.5 791,-525.5 717,-525.5"/>
<text text-anchor="middle" x="754" y="-532.5" font-family="Helvetica,sans-Serif" font-size="10.00">Set&lt; String &gt;</text>
</a>
</g>
</g>
<!-- Node31&#45;&gt;Node4 -->
<g id="edge30" class="edge">
<title>Node31&#45;&gt;Node4</title>
<path fill="none" stroke="#9a32cd" stroke-dasharray="5,2" d="M801.35,-530.74C868.18,-525.56 987.41,-520.2 1022,-544 1124.7,-614.66 1146.26,-783.9 1150.51,-835.69"/>
<polygon fill="#9a32cd" stroke="#9a32cd" points="800.78,-527.28 791.09,-531.57 801.34,-534.26 800.78,-527.28"/>
<text text-anchor="middle" x="959.5" y="-547" font-family="Helvetica,sans-Serif" font-size="10.00"> addedTags</text>
</g>
<!-- Node32 -->
<g id="node32" class="node">
<title>Node32</title>
<g id="a_node32"><a xlink:title=" ">
<polygon fill="none" stroke="#bfbfbf" points="629,-476 629,-506 879,-506 879,-476 629,-476"/>
<text text-anchor="start" x="637" y="-494" font-family="Helvetica,sans-Serif" font-size="10.00">List&lt; com.fs.starfarer.api.impl.campaign.missions.hub.</text>
<text text-anchor="middle" x="754" y="-483" font-family="Helvetica,sans-Serif" font-size="10.00">MissionTrigger &gt;</text>
</a>
</g>
</g>
<!-- Node32&#45;&gt;Node4 -->
<g id="edge31" class="edge">
<title>Node32&#45;&gt;Node4</title>
<path fill="none" stroke="#9a32cd" stroke-dasharray="5,2" d="M844.27,-475C900.55,-469.99 971.82,-473.58 1022,-511 1132.13,-593.13 1148.6,-781.13 1151.07,-835.82"/>
<polygon fill="#9a32cd" stroke="#9a32cd" points="843.9,-471.52 834.3,-475.99 844.59,-478.48 843.9,-471.52"/>
<text text-anchor="middle" x="959.5" y="-514" font-family="Helvetica,sans-Serif" font-size="10.00"> triggers</text>
</g>
<!-- Node33 -->
<g id="node33" class="node">
<title>Node33</title>
<g id="a_node33"><a xlink:title=" ">
<polygon fill="none" stroke="#bfbfbf" points="708.5,-437.5 708.5,-456.5 799.5,-456.5 799.5,-437.5 708.5,-437.5"/>
<text text-anchor="middle" x="754" y="-444.5" font-family="Helvetica,sans-Serif" font-size="10.00">List&lt; Abortable &gt;</text>
</a>
</g>
</g>
<!-- Node33&#45;&gt;Node4 -->
<g id="edge32" class="edge">
<title>Node33&#45;&gt;Node4</title>
<path fill="none" stroke="#9a32cd" stroke-dasharray="5,2" d="M809.92,-442.16C878.24,-437.33 989.82,-433.7 1022,-458 1148.41,-553.46 1153.13,-776.04 1152.01,-835.93"/>
<polygon fill="#9a32cd" stroke="#9a32cd" points="809.48,-438.68 799.76,-442.91 809.99,-445.67 809.48,-438.68"/>
<text text-anchor="middle" x="959.5" y="-461" font-family="Helvetica,sans-Serif" font-size="10.00"> changes</text>
</g>
<!-- Node34 -->
<g id="node34" class="node">
<title>Node34</title>
<g id="a_node34"><a xlink:title=" ">
<polygon fill="none" stroke="#bfbfbf" points="727.5,-399.5 727.5,-418.5 780.5,-418.5 780.5,-399.5 727.5,-399.5"/>
<text text-anchor="middle" x="754" y="-406.5" font-family="Helvetica,sans-Serif" font-size="10.00">Random</text>
</a>
</g>
</g>
<!-- Node34&#45;&gt;Node4 -->
<g id="edge33" class="edge">
<title>Node34&#45;&gt;Node4</title>
<path fill="none" stroke="#9a32cd" stroke-dasharray="5,2" d="M790.8,-405.99C855.18,-401.34 987.04,-395.61 1022,-423 1090.59,-476.75 1138.47,-765.38 1149.22,-835.6"/>
<polygon fill="#9a32cd" stroke="#9a32cd" points="790.41,-402.51 780.7,-406.75 790.94,-409.49 790.41,-402.51"/>
<text text-anchor="middle" x="959.5" y="-426" font-family="Helvetica,sans-Serif" font-size="10.00"> genRandom</text>
</g>
<!-- Node35&#45;&gt;Node4 -->
<g id="edge34" class="edge">
<title>Node35&#45;&gt;Node4</title>
<path fill="none" stroke="#9a32cd" stroke-dasharray="5,2" d="M621.23,-1260.36C743.3,-1270.68 962.13,-1281.54 1022,-1234 1142.65,-1138.18 1151.61,-925.11 1151.71,-866.29"/>
<polygon fill="#9a32cd" stroke="#9a32cd" points="621.43,-1256.86 611.17,-1259.49 620.83,-1263.84 621.43,-1256.86"/>
<text text-anchor="middle" x="754" y="-1272" font-family="Helvetica,sans-Serif" font-size="10.00"> personOverride</text>
</g>
<!-- Node36 -->
<g id="node36" class="node">
<title>Node36</title>
<g id="a_node36"><a xlink:href="enumcom_1_1fs_1_1starfarer_1_1api_1_1campaign_1_1RepLevel.html" target="_top" xlink:title=" ">
<polygon fill="none" stroke="black" points="681,-1305 681,-1335 827,-1335 827,-1305 681,-1305"/>
<text text-anchor="start" x="689" y="-1323" font-family="Helvetica,sans-Serif" font-size="10.00">com.fs.starfarer.api.campaign.</text>
<text text-anchor="middle" x="754" y="-1312" font-family="Helvetica,sans-Serif" font-size="10.00">RepLevel</text>
</a>
</g>
</g>
<!-- Node36&#45;&gt;Node4 -->
<g id="edge36" class="edge">
<title>Node36&#45;&gt;Node4</title>
<path fill="none" stroke="#9a32cd" stroke-dasharray="5,2" d="M837.46,-1314.98C910.6,-1309.79 1007.97,-1300.8 1022,-1289 1090.26,-1231.57 1138.57,-936.75 1149.27,-866.19"/>
<polygon fill="#9a32cd" stroke="#9a32cd" points="837.05,-1311.5 827.32,-1315.69 837.54,-1318.48 837.05,-1311.5"/>
<text text-anchor="middle" x="959.5" y="-1345" font-family="Helvetica,sans-Serif" font-size="10.00"> penaltyLimitFaction</text>
<text text-anchor="middle" x="959.5" y="-1334" font-family="Helvetica,sans-Serif" font-size="10.00">penaltyLimitPerson</text>
<text text-anchor="middle" x="959.5" y="-1323" font-family="Helvetica,sans-Serif" font-size="10.00">rewardLimitFaction</text>
<text text-anchor="middle" x="959.5" y="-1312" font-family="Helvetica,sans-Serif" font-size="10.00">rewardLimitPerson</text>
</g>
<!-- Node37&#45;&gt;Node3 -->
<g id="edge37" class="edge">
<title>Node37&#45;&gt;Node3</title>
<path fill="none" stroke="#9a32cd" stroke-dasharray="5,2" d="M877.14,-365.99C1017.57,-367.13 1246.16,-368.99 1381.97,-370.09"/>
<polygon fill="#9a32cd" stroke="#9a32cd" points="876.79,-362.49 866.76,-365.91 876.73,-369.49 876.79,-362.49"/>
<text text-anchor="middle" x="1152.5" y="-372" font-family="Helvetica,sans-Serif" font-size="10.00"> currTrigger</text>
</g>
<!-- Node38 -->
<g id="node38" class="node">
<title>Node38</title>
<g id="a_node38"><a xlink:title=" ">
<polygon fill="none" stroke="#bfbfbf" points="271.5,-377.5 271.5,-396.5 378.5,-396.5 378.5,-377.5 271.5,-377.5"/>
<text text-anchor="middle" x="325" y="-384.5" font-family="Helvetica,sans-Serif" font-size="10.00">List&lt; TriggerAction &gt;</text>
</a>
</g>
</g>
<!-- Node38&#45;&gt;Node37 -->
<g id="edge38" class="edge">
<title>Node38&#45;&gt;Node37</title>
<path fill="none" stroke="#9a32cd" stroke-dasharray="5,2" d="M389.07,-383.75C455.3,-380.34 560.8,-374.9 641.19,-370.76"/>
<polygon fill="#9a32cd" stroke="#9a32cd" points="388.59,-380.27 378.79,-384.28 388.95,-387.26 388.59,-380.27"/>
<text text-anchor="middle" x="536.5" y="-382" font-family="Helvetica,sans-Serif" font-size="10.00"> actions</text>
</g>
<!-- Node39 -->
<g id="node39" class="node">
<title>Node39</title>
<g id="a_node39"><a xlink:title=" ">
<polygon fill="none" stroke="#bfbfbf" points="212.5,-328 212.5,-358 437.5,-358 437.5,-328 212.5,-328"/>
<text text-anchor="start" x="220.5" y="-346" font-family="Helvetica,sans-Serif" font-size="10.00">com.fs.starfarer.api.impl.campaign.missions.hub.</text>
<text text-anchor="middle" x="325" y="-335" font-family="Helvetica,sans-Serif" font-size="10.00">BaseHubMission.ConditionChecker</text>
</a>
</g>
</g>
<!-- Node39&#45;&gt;Node37 -->
<g id="edge40" class="edge">
<title>Node39&#45;&gt;Node37</title>
<path fill="none" stroke="#9a32cd" stroke-dasharray="5,2" d="M447.98,-348.8C498.44,-351.25 557.54,-354.18 611,-357 620.86,-357.52 631.11,-358.07 641.38,-358.64"/>
<polygon fill="#9a32cd" stroke="#9a32cd" points="447.83,-345.29 437.68,-348.3 447.49,-352.28 447.83,-345.29"/>
<text text-anchor="middle" x="536.5" y="-360" font-family="Helvetica,sans-Serif" font-size="10.00"> condition</text>
</g>
<!-- Node40 -->
<g id="node40" class="node">
<title>Node40</title>
<g id="a_node40"><a xlink:title=" ">
<polygon fill="none" stroke="#bfbfbf" points="1382,-175 1382,-205 1607,-205 1607,-175 1382,-175"/>
<text text-anchor="start" x="1390" y="-193" font-family="Helvetica,sans-Serif" font-size="10.00">com.fs.starfarer.api.impl.campaign.missions.hub.</text>
<text text-anchor="middle" x="1494.5" y="-182" font-family="Helvetica,sans-Serif" font-size="10.00">HubMissionWithSearch.SearchData</text>
</a>
</g>
</g>
<!-- Node40&#45;&gt;Node2 -->
<g id="edge41" class="edge">
<title>Node40&#45;&gt;Node2</title>
<path fill="none" stroke="#9a32cd" stroke-dasharray="5,2" d="M1553.97,-208.08C1607.88,-224.76 1687.01,-249.23 1737.63,-264.89"/>
<polygon fill="#9a32cd" stroke="#9a32cd" points="1554.79,-204.68 1544.21,-205.06 1552.73,-211.36 1554.79,-204.68"/>
<text text-anchor="middle" x="1641" y="-240" font-family="Helvetica,sans-Serif" font-size="10.00"> search</text>
</g>
<!-- Node41 -->
<g id="node41" class="node">
<title>Node41</title>
<g id="a_node41"><a xlink:title=" ">
<polygon fill="none" stroke="#bfbfbf" points="1085.5,-135.5 1085.5,-154.5 1219.5,-154.5 1219.5,-135.5 1085.5,-135.5"/>
<text text-anchor="middle" x="1152.5" y="-142.5" font-family="Helvetica,sans-Serif" font-size="10.00">List&lt; MarketRequirement &gt;</text>
</a>
</g>
</g>
<!-- Node41&#45;&gt;Node40 -->
<g id="edge42" class="edge">
<title>Node41&#45;&gt;Node40</title>
<path fill="none" stroke="#9a32cd" stroke-dasharray="5,2" d="M1229.58,-149.87C1269.69,-152.94 1319.64,-157.56 1364,-164 1384.2,-166.93 1406,-170.97 1425.86,-174.98"/>
<polygon fill="#9a32cd" stroke="#9a32cd" points="1229.84,-146.38 1219.61,-149.13 1229.32,-153.36 1229.84,-146.38"/>
<text text-anchor="middle" x="1323.5" y="-178" font-family="Helvetica,sans-Serif" font-size="10.00"> marketPrefs</text>
<text text-anchor="middle" x="1323.5" y="-167" font-family="Helvetica,sans-Serif" font-size="10.00">marketReqs</text>
</g>
<!-- Node42 -->
<g id="node42" class="node">
<title>Node42</title>
<g id="a_node42"><a xlink:title=" ">
<polygon fill="none" stroke="#bfbfbf" points="1055.5,-85 1055.5,-115 1249.5,-115 1249.5,-85 1055.5,-85"/>
<text text-anchor="start" x="1063.5" y="-103" font-family="Helvetica,sans-Serif" font-size="10.00">List&lt; com.fs.starfarer.api.campaign.econ.</text>
<text text-anchor="middle" x="1152.5" y="-92" font-family="Helvetica,sans-Serif" font-size="10.00">MarketAPI &gt;</text>
</a>
</g>
</g>
<!-- Node42&#45;&gt;Node40 -->
<g id="edge43" class="edge">
<title>Node42&#45;&gt;Node40</title>
<path fill="none" stroke="#9a32cd" stroke-dasharray="5,2" d="M1260.02,-107.59C1293.74,-111.74 1330.86,-118.13 1364,-128 1401.99,-139.31 1442.74,-160.49 1468.17,-174.91"/>
<polygon fill="#9a32cd" stroke="#9a32cd" points="1260.01,-104.07 1249.67,-106.38 1259.19,-111.02 1260.01,-104.07"/>
<text text-anchor="middle" x="1323.5" y="-142" font-family="Helvetica,sans-Serif" font-size="10.00"> matchingMarkets</text>
<text text-anchor="middle" x="1323.5" y="-131" font-family="Helvetica,sans-Serif" font-size="10.00">preferredMarkets</text>
</g>
<!-- Node43 -->
<g id="node43" class="node">
<title>Node43</title>
<g id="a_node43"><a xlink:title=" ">
<polygon fill="none" stroke="#bfbfbf" points="1083.5,-45.5 1083.5,-64.5 1221.5,-64.5 1221.5,-45.5 1083.5,-45.5"/>
<text text-anchor="middle" x="1152.5" y="-52.5" font-family="Helvetica,sans-Serif" font-size="10.00">List&lt; GenericRequirement &gt;</text>
</a>
</g>
</g>
<!-- Node43&#45;&gt;Node40 -->
<g id="edge44" class="edge">
<title>Node43&#45;&gt;Node40</title>
<path fill="none" stroke="#9a32cd" stroke-dasharray="5,2" d="M1232.09,-55.71C1272.89,-58.55 1322.7,-65.98 1364,-84 1413,-105.38 1458.46,-150.79 1480.16,-174.64"/>
<polygon fill="#9a32cd" stroke="#9a32cd" points="1232.12,-52.21 1221.92,-55.09 1231.69,-59.2 1232.12,-52.21"/>
<text text-anchor="middle" x="1323.5" y="-98" font-family="Helvetica,sans-Serif" font-size="10.00"> systemPrefs</text>
<text text-anchor="middle" x="1323.5" y="-87" font-family="Helvetica,sans-Serif" font-size="10.00">systemReqs</text>
</g>
<!-- Node44 -->
<g id="node44" class="node">
<title>Node44</title>
<g id="a_node44"><a xlink:title=" ">
<polygon fill="none" stroke="#bfbfbf" points="1076,-0.5 1076,-19.5 1229,-19.5 1229,-0.5 1076,-0.5"/>
<text text-anchor="middle" x="1152.5" y="-7.5" font-family="Helvetica,sans-Serif" font-size="10.00">List&lt; CommodityRequirement &gt;</text>
</a>
</g>
</g>
<!-- Node44&#45;&gt;Node40 -->
<g id="edge45" class="edge">
<title>Node44&#45;&gt;Node40</title>
<path fill="none" stroke="#9a32cd" stroke-dasharray="5,2" d="M1239.19,-6.51C1279.22,-8.3 1326.26,-15.52 1364,-36 1424.79,-68.99 1469.01,-143.07 1485.93,-174.95"/>
<polygon fill="#9a32cd" stroke="#9a32cd" points="1239.28,-3.01 1229.17,-6.17 1239.05,-10.01 1239.28,-3.01"/>
<text text-anchor="middle" x="1323.5" y="-50" font-family="Helvetica,sans-Serif" font-size="10.00"> commodityPrefs</text>
<text text-anchor="middle" x="1323.5" y="-39" font-family="Helvetica,sans-Serif" font-size="10.00">commodityReqs</text>
</g>
<!-- Node45 -->
<g id="node45" class="node">
<title>Node45</title>
<g id="a_node45"><a xlink:title=" ">
<polygon fill="none" stroke="#bfbfbf" points="1088.5,-315.5 1088.5,-334.5 1216.5,-334.5 1216.5,-315.5 1088.5,-315.5"/>
<text text-anchor="middle" x="1152.5" y="-322.5" font-family="Helvetica,sans-Serif" font-size="10.00">List&lt; EntityRequirement &gt;</text>
</a>
</g>
</g>
<!-- Node45&#45;&gt;Node40 -->
<g id="edge46" class="edge">
<title>Node45&#45;&gt;Node40</title>
<path fill="none" stroke="#9a32cd" stroke-dasharray="5,2" d="M1226.68,-322.16C1268.36,-318.37 1320.74,-309.87 1364,-291 1411.57,-270.26 1456.95,-227.96 1479.22,-205.24"/>
<polygon fill="#9a32cd" stroke="#9a32cd" points="1226.27,-318.68 1216.59,-323.01 1226.85,-325.66 1226.27,-318.68"/>
<text text-anchor="middle" x="1323.5" y="-328" font-family="Helvetica,sans-Serif" font-size="10.00"> entityPrefs</text>
<text text-anchor="middle" x="1323.5" y="-317" font-family="Helvetica,sans-Serif" font-size="10.00">entityReqs</text>
</g>
<!-- Node46 -->
<g id="node46" class="node">
<title>Node46</title>
<g id="a_node46"><a xlink:title=" ">
<polygon fill="none" stroke="#bfbfbf" points="1067.5,-265 1067.5,-295 1237.5,-295 1237.5,-265 1067.5,-265"/>
<text text-anchor="start" x="1075.5" y="-283" font-family="Helvetica,sans-Serif" font-size="10.00">List&lt; com.fs.starfarer.api.campaign.</text>
<text text-anchor="middle" x="1152.5" y="-272" font-family="Helvetica,sans-Serif" font-size="10.00">StarSystemAPI &gt;</text>
</a>
</g>
</g>
<!-- Node46&#45;&gt;Node40 -->
<g id="edge47" class="edge">
<title>Node46&#45;&gt;Node40</title>
<path fill="none" stroke="#9a32cd" stroke-dasharray="5,2" d="M1247.82,-271.18C1284.57,-266.32 1326.72,-258.96 1364,-248 1400.4,-237.3 1439.87,-218.48 1465.54,-205.19"/>
<polygon fill="#9a32cd" stroke="#9a32cd" points="1247.09,-267.74 1237.61,-272.48 1247.98,-274.69 1247.09,-267.74"/>
<text text-anchor="middle" x="1323.5" y="-279" font-family="Helvetica,sans-Serif" font-size="10.00"> matchingSystems</text>
<text text-anchor="middle" x="1323.5" y="-268" font-family="Helvetica,sans-Serif" font-size="10.00">preferredSystems</text>
</g>
<!-- Node47 -->
<g id="node47" class="node">
<title>Node47</title>
<g id="a_node47"><a xlink:title=" ">
<polygon fill="none" stroke="#bfbfbf" points="1086.5,-225.5 1086.5,-244.5 1218.5,-244.5 1218.5,-225.5 1086.5,-225.5"/>
<text text-anchor="middle" x="1152.5" y="-232.5" font-family="Helvetica,sans-Serif" font-size="10.00">List&lt; PlanetRequirement &gt;</text>
</a>
</g>
</g>
<!-- Node47&#45;&gt;Node40 -->
<g id="edge48" class="edge">
<title>Node47&#45;&gt;Node40</title>
<path fill="none" stroke="#9a32cd" stroke-dasharray="5,2" d="M1228.61,-228.47C1268.85,-224.64 1319.22,-219.31 1364,-213 1380.28,-210.71 1397.65,-207.88 1414.2,-205.01"/>
<polygon fill="#9a32cd" stroke="#9a32cd" points="1228.23,-224.99 1218.6,-229.41 1228.89,-231.96 1228.23,-224.99"/>
<text text-anchor="middle" x="1323.5" y="-236" font-family="Helvetica,sans-Serif" font-size="10.00"> planetPrefs</text>
<text text-anchor="middle" x="1323.5" y="-225" font-family="Helvetica,sans-Serif" font-size="10.00">planetReqs</text>
</g>
<!-- Node48 -->
<g id="node48" class="node">
<title>Node48</title>
<g id="a_node48"><a xlink:title=" ">
<polygon fill="none" stroke="#bfbfbf" points="1085.5,-180.5 1085.5,-199.5 1219.5,-199.5 1219.5,-180.5 1085.5,-180.5"/>
<text text-anchor="middle" x="1152.5" y="-187.5" font-family="Helvetica,sans-Serif" font-size="10.00">List&lt; TerrainRequirement &gt;</text>
</a>
</g>
</g>
<!-- Node48&#45;&gt;Node40 -->
<g id="edge49" class="edge">
<title>Node48&#45;&gt;Node40</title>
<path fill="none" stroke="#9a32cd" stroke-dasharray="5,2" d="M1230.08,-190C1274.82,-190 1332.09,-190 1381.79,-190"/>
<polygon fill="#9a32cd" stroke="#9a32cd" points="1229.86,-186.5 1219.86,-190 1229.86,-193.5 1229.86,-186.5"/>
<text text-anchor="middle" x="1323.5" y="-204" font-family="Helvetica,sans-Serif" font-size="10.00"> terrainPrefs</text>
<text text-anchor="middle" x="1323.5" y="-193" font-family="Helvetica,sans-Serif" font-size="10.00">terrainReqs</text>
</g>
</g>
</svg>
