<?xml version="1.0" encoding="UTF-8" standalone="no"?>
<!DOCTYPE svg PUBLIC "-//W3C//DTD SVG 1.1//EN"
 "http://www.w3.org/Graphics/SVG/1.1/DTD/svg11.dtd">
<!-- Generated by graphviz version 7.0.5 (20221223.1930)
 -->
<!-- Title: com.fs.starfarer.api.impl.campaign.rulecmd.HA_CMD.StationKingScript Pages: 1 -->
<svg width="432pt" height="278pt"
 viewBox="0.00 0.00 432.00 278.00" xmlns="http://www.w3.org/2000/svg" xmlns:xlink="http://www.w3.org/1999/xlink">
<g id="graph0" class="graph" transform="scale(1 1) rotate(0) translate(4 274)">
<title>com.fs.starfarer.api.impl.campaign.rulecmd.HA_CMD.StationKingScript</title>
<!-- Node1 -->
<g id="node1" class="node">
<title>Node1</title>
<g id="a_node1"><a xlink:title=" ">
<polygon fill="#999999" stroke="#666666" points="424,-150 221,-150 221,-120 424,-120 424,-150"/>
<text text-anchor="start" x="229" y="-138" font-family="Helvetica,sans-Serif" font-size="10.00">com.fs.starfarer.api.impl.campaign.rulecmd.</text>
<text text-anchor="middle" x="322.5" y="-127" font-family="Helvetica,sans-Serif" font-size="10.00">HA_CMD.StationKingScript</text>
</a>
</g>
</g>
<!-- Node2 -->
<g id="node2" class="node">
<title>Node2</title>
<g id="a_node2"><a xlink:href="interfacecom_1_1fs_1_1starfarer_1_1api_1_1EveryFrameScript.html" target="_top" xlink:title=" ">
<polygon fill="white" stroke="#bfbfbf" points="155,-270 30,-270 30,-240 155,-240 155,-270"/>
<text text-anchor="start" x="38" y="-258" font-family="Helvetica,sans-Serif" font-size="10.00">com.fs.starfarer.api.Every</text>
<text text-anchor="middle" x="92.5" y="-247" font-family="Helvetica,sans-Serif" font-size="10.00">FrameScript</text>
</a>
</g>
</g>
<!-- Node2&#45;&gt;Node1 -->
<g id="edge1" class="edge">
<title>Node2&#45;&gt;Node1</title>
<path fill="none" stroke="#63b8ff" d="M165.62,-238.71C172.29,-236.42 178.84,-233.86 185,-231 231.77,-209.28 279.49,-171.35 304.23,-150.26"/>
<polygon fill="#63b8ff" stroke="#63b8ff" points="165,-235.23 156.54,-241.61 167.13,-241.9 165,-235.23"/>
</g>
<!-- Node3 -->
<g id="node3" class="node">
<title>Node3</title>
<g id="a_node3"><a xlink:href="interfacecom_1_1fs_1_1starfarer_1_1api_1_1ui_1_1TooltipMakerAPI_1_1TooltipCreator.html" target="_top" xlink:title=" ">
<polygon fill="white" stroke="#bfbfbf" points="168.5,-222 16.5,-222 16.5,-192 168.5,-192 168.5,-222"/>
<text text-anchor="start" x="24.5" y="-210" font-family="Helvetica,sans-Serif" font-size="10.00">com.fs.starfarer.api.ui.</text>
<text text-anchor="middle" x="92.5" y="-199" font-family="Helvetica,sans-Serif" font-size="10.00">TooltipMakerAPI.TooltipCreator</text>
</a>
</g>
</g>
<!-- Node3&#45;&gt;Node1 -->
<g id="edge2" class="edge">
<title>Node3&#45;&gt;Node1</title>
<path fill="none" stroke="#63b8ff" d="M166.04,-188.56C172.47,-186.75 178.86,-184.88 185,-183 217.3,-173.1 253.34,-160.35 280.27,-150.48"/>
<polygon fill="#63b8ff" stroke="#63b8ff" points="165.38,-185.11 156.68,-191.14 167.25,-191.85 165.38,-185.11"/>
</g>
<!-- Node4 -->
<g id="node4" class="node">
<title>Node4</title>
<g id="a_node4"><a xlink:href="interfacecom_1_1fs_1_1starfarer_1_1api_1_1campaign_1_1listeners_1_1EconomyTickListener.html" target="_top" xlink:title=" ">
<polygon fill="white" stroke="#666666" points="185,-174 0,-174 0,-144 185,-144 185,-174"/>
<text text-anchor="start" x="8" y="-162" font-family="Helvetica,sans-Serif" font-size="10.00">com.fs.starfarer.api.campaign.listeners.</text>
<text text-anchor="middle" x="92.5" y="-151" font-family="Helvetica,sans-Serif" font-size="10.00">EconomyTickListener</text>
</a>
</g>
</g>
<!-- Node4&#45;&gt;Node1 -->
<g id="edge3" class="edge">
<title>Node4&#45;&gt;Node1</title>
<path fill="none" stroke="#63b8ff" d="M196.51,-148.16C204.52,-147.31 212.6,-146.46 220.6,-145.62"/>
<polygon fill="#63b8ff" stroke="#63b8ff" points="196.33,-144.66 186.76,-149.18 197.07,-151.62 196.33,-144.66"/>
</g>
<!-- Node5 -->
<g id="node5" class="node">
<title>Node5</title>
<g id="a_node5"><a xlink:href="interfacecom_1_1fs_1_1starfarer_1_1api_1_1campaign_1_1listeners_1_1FleetEventListener.html" target="_top" xlink:title=" ">
<polygon fill="white" stroke="#bfbfbf" points="185,-126 0,-126 0,-96 185,-96 185,-126"/>
<text text-anchor="start" x="8" y="-114" font-family="Helvetica,sans-Serif" font-size="10.00">com.fs.starfarer.api.campaign.listeners.</text>
<text text-anchor="middle" x="92.5" y="-103" font-family="Helvetica,sans-Serif" font-size="10.00">FleetEventListener</text>
</a>
</g>
</g>
<!-- Node5&#45;&gt;Node1 -->
<g id="edge4" class="edge">
<title>Node5&#45;&gt;Node1</title>
<path fill="none" stroke="#63b8ff" d="M196.51,-121.84C204.52,-122.69 212.6,-123.54 220.6,-124.38"/>
<polygon fill="#63b8ff" stroke="#63b8ff" points="197.07,-118.38 186.76,-120.82 196.33,-125.34 197.07,-118.38"/>
</g>
<!-- Node6 -->
<g id="node6" class="node">
<title>Node6</title>
<g id="a_node6"><a xlink:href="interfacecom_1_1fs_1_1starfarer_1_1api_1_1campaign_1_1listeners_1_1CurrentLocationChangedListener.html" target="_top" xlink:title=" ">
<polygon fill="white" stroke="#bfbfbf" points="185,-78 0,-78 0,-48 185,-48 185,-78"/>
<text text-anchor="start" x="8" y="-66" font-family="Helvetica,sans-Serif" font-size="10.00">com.fs.starfarer.api.campaign.listeners.</text>
<text text-anchor="middle" x="92.5" y="-55" font-family="Helvetica,sans-Serif" font-size="10.00">CurrentLocationChangedListener</text>
</a>
</g>
</g>
<!-- Node6&#45;&gt;Node1 -->
<g id="edge5" class="edge">
<title>Node6&#45;&gt;Node1</title>
<path fill="none" stroke="#63b8ff" d="M166.04,-81.44C172.47,-83.25 178.86,-85.12 185,-87 217.3,-96.9 253.34,-109.65 280.27,-119.52"/>
<polygon fill="#63b8ff" stroke="#63b8ff" points="167.25,-78.15 156.68,-78.86 165.38,-84.89 167.25,-78.15"/>
</g>
<!-- Node7 -->
<g id="node7" class="node">
<title>Node7</title>
<g id="a_node7"><a xlink:href="interfacecom_1_1fs_1_1starfarer_1_1api_1_1campaign_1_1listeners_1_1ColonyPlayerHostileActListener.html" target="_top" xlink:title=" ">
<polygon fill="white" stroke="#bfbfbf" points="185,-30 0,-30 0,0 185,0 185,-30"/>
<text text-anchor="start" x="8" y="-18" font-family="Helvetica,sans-Serif" font-size="10.00">com.fs.starfarer.api.campaign.listeners.</text>
<text text-anchor="middle" x="92.5" y="-7" font-family="Helvetica,sans-Serif" font-size="10.00">ColonyPlayerHostileActListener</text>
</a>
</g>
</g>
<!-- Node7&#45;&gt;Node1 -->
<g id="edge6" class="edge">
<title>Node7&#45;&gt;Node1</title>
<path fill="none" stroke="#63b8ff" d="M173.47,-34.14C177.42,-35.65 181.28,-37.27 185,-39 231.77,-60.72 279.49,-98.65 304.23,-119.74"/>
<polygon fill="#63b8ff" stroke="#63b8ff" points="174.9,-30.93 164.31,-30.88 172.55,-37.53 174.9,-30.93"/>
</g>
</g>
</svg>
