<?xml version="1.0" encoding="UTF-8" standalone="no"?>
<!DOCTYPE svg PUBLIC "-//W3C//DTD SVG 1.1//EN"
 "http://www.w3.org/Graphics/SVG/1.1/DTD/svg11.dtd">
<!-- Generated by graphviz version 9.0.0 (20230911.1827)
 -->
<!-- Title: com.fs.starfarer.api.impl.campaign.econ.impl.PopulationAndInfrastructure Pages: 1 -->
<svg width="556pt" height="88pt"
 viewBox="0.00 0.00 556.25 88.25" xmlns="http://www.w3.org/2000/svg" xmlns:xlink="http://www.w3.org/1999/xlink">
<g id="graph0" class="graph" transform="scale(1 1) rotate(0) translate(4 84.25)">
<title>com.fs.starfarer.api.impl.campaign.econ.impl.PopulationAndInfrastructure</title>
<!-- Node1 -->
<g id="Node000001" class="node">
<title>Node1</title>
<g id="a_Node000001"><a xlink:title=" ">
<polygon fill="#999999" stroke="#666666" points="548.25,-45.88 339.5,-45.88 339.5,-15.37 548.25,-15.37 548.25,-45.88"/>
<text text-anchor="start" x="347.5" y="-32.38" font-family="Helvetica,sans-Serif" font-size="10.00">com.fs.starfarer.api.impl.campaign.econ.impl.</text>
<text text-anchor="middle" x="443.88" y="-21.12" font-family="Helvetica,sans-Serif" font-size="10.00">PopulationAndInfrastructure</text>
</a>
</g>
</g>
<!-- Node2 -->
<g id="Node000002" class="node">
<title>Node2</title>
<g id="a_Node000002"><a xlink:href="classcom_1_1fs_1_1starfarer_1_1api_1_1impl_1_1campaign_1_1econ_1_1impl_1_1BaseIndustry.html" target="_top" xlink:title=" ">
<polygon fill="white" stroke="#666666" points="303.5,-67.88 94.75,-67.88 94.75,-37.38 303.5,-37.38 303.5,-67.88"/>
<text text-anchor="start" x="102.75" y="-54.38" font-family="Helvetica,sans-Serif" font-size="10.00">com.fs.starfarer.api.impl.campaign.econ.impl.</text>
<text text-anchor="middle" x="199.12" y="-43.12" font-family="Helvetica,sans-Serif" font-size="10.00">BaseIndustry</text>
</a>
</g>
</g>
<!-- Node2&#45;&gt;Node1 -->
<g id="edge1_Node000001_Node000002" class="edge">
<title>Node2&#45;&gt;Node1</title>
<g id="a_edge1_Node000001_Node000002"><a xlink:title=" ">
<path fill="none" stroke="#63b8ff" d="M315.1,-42.21C323.14,-41.48 331.21,-40.74 339.18,-40.02"/>
<polygon fill="#63b8ff" stroke="#63b8ff" points="314.93,-38.71 305.28,-43.09 315.56,-45.68 314.93,-38.71"/>
</a>
</g>
</g>
<!-- Node3 -->
<g id="Node000003" class="node">
<title>Node3</title>
<g id="a_Node000003"><a xlink:title=" ">
<polygon fill="white" stroke="#666666" points="54.62,-80.25 4.12,-80.25 4.12,-61 54.62,-61 54.62,-80.25"/>
<text text-anchor="middle" x="29.38" y="-66.75" font-family="Helvetica,sans-Serif" font-size="10.00">Industry</text>
</a>
</g>
</g>
<!-- Node3&#45;&gt;Node2 -->
<g id="edge2_Node000002_Node000003" class="edge">
<title>Node3&#45;&gt;Node2</title>
<g id="a_edge2_Node000002_Node000003"><a xlink:title=" ">
<path fill="none" stroke="#63b8ff" d="M65.94,-66.81C74.65,-65.87 84.42,-64.83 94.6,-63.73"/>
<polygon fill="#63b8ff" stroke="#63b8ff" points="65.84,-63.3 56.27,-67.85 66.59,-70.26 65.84,-63.3"/>
</a>
</g>
</g>
<!-- Node4 -->
<g id="Node000004" class="node">
<title>Node4</title>
<g id="a_Node000004"><a xlink:title=" ">
<polygon fill="white" stroke="#666666" points="58.75,-43.25 0,-43.25 0,-24 58.75,-24 58.75,-43.25"/>
<text text-anchor="middle" x="29.38" y="-29.75" font-family="Helvetica,sans-Serif" font-size="10.00">Cloneable</text>
</a>
</g>
</g>
<!-- Node4&#45;&gt;Node2 -->
<g id="edge3_Node000002_Node000004" class="edge">
<title>Node4&#45;&gt;Node2</title>
<g id="a_edge3_Node000002_Node000004"><a xlink:title=" ">
<path fill="none" stroke="#63b8ff" d="M70.65,-38.19C78.05,-39.03 86.09,-39.94 94.4,-40.88"/>
<polygon fill="#63b8ff" stroke="#63b8ff" points="71.05,-34.71 60.72,-37.06 70.26,-41.66 71.05,-34.71"/>
</a>
</g>
</g>
<!-- Node5 -->
<g id="Node000005" class="node">
<title>Node5</title>
<g id="a_Node000005"><a xlink:title=" ">
<polygon fill="white" stroke="#666666" points="264.5,-19.25 133.75,-19.25 133.75,0 264.5,0 264.5,-19.25"/>
<text text-anchor="middle" x="199.12" y="-5.75" font-family="Helvetica,sans-Serif" font-size="10.00">MarketImmigrationModifier</text>
</a>
</g>
</g>
<!-- Node5&#45;&gt;Node1 -->
<g id="edge4_Node000001_Node000005" class="edge">
<title>Node5&#45;&gt;Node1</title>
<g id="a_edge4_Node000001_Node000005"><a xlink:title=" ">
<path fill="none" stroke="#63b8ff" d="M276.11,-16.2C296.17,-17.93 318.16,-19.84 339.41,-21.67"/>
<polygon fill="#63b8ff" stroke="#63b8ff" points="276.63,-12.73 266.37,-15.36 276.03,-19.7 276.63,-12.73"/>
</a>
</g>
</g>
</g>
</svg>
