<?xml version="1.0" encoding="UTF-8" standalone="no"?>
<!DOCTYPE svg PUBLIC "-//W3C//DTD SVG 1.1//EN"
 "http://www.w3.org/Graphics/SVG/1.1/DTD/svg11.dtd">
<!-- Generated by graphviz version 12.2.0 (20241103.1931)
 -->
<!-- Title: com.fs.starfarer.api.impl.campaign.procgen.themes.BaseThemeGenerator Pages: 1 -->
<svg width="326pt" height="116pt"
 viewBox="0.00 0.00 325.50 116.25" xmlns="http://www.w3.org/2000/svg" xmlns:xlink="http://www.w3.org/1999/xlink">
<g id="graph0" class="graph" transform="scale(1 1) rotate(0) translate(4 112.25)">
<title>com.fs.starfarer.api.impl.campaign.procgen.themes.BaseThemeGenerator</title>
<!-- Node1 -->
<g id="Node000001" class="node">
<title>Node1</title>
<g id="a_Node000001"><a xlink:title=" ">
<polygon fill="#999999" stroke="#666666" points="317.5,-30.5 81,-30.5 81,0 317.5,0 317.5,-30.5"/>
<text text-anchor="start" x="89" y="-17" font-family="Helvetica,sans-Serif" font-size="10.00">com.fs.starfarer.api.impl.campaign.procgen.themes.</text>
<text text-anchor="middle" x="199.25" y="-5.75" font-family="Helvetica,sans-Serif" font-size="10.00">BaseThemeGenerator</text>
</a>
</g>
</g>
<!-- Node2 -->
<g id="Node000002" class="node">
<title>Node2</title>
<g id="a_Node000002"><a xlink:href="interfacecom_1_1fs_1_1starfarer_1_1api_1_1impl_1_1campaign_1_1procgen_1_1themes_1_1ThemeGenerator.html" target="_top" xlink:title=" ">
<polygon fill="white" stroke="#666666" points="236.5,-108.25 0,-108.25 0,-77.75 236.5,-77.75 236.5,-108.25"/>
<text text-anchor="start" x="8" y="-94.75" font-family="Helvetica,sans-Serif" font-size="10.00">com.fs.starfarer.api.impl.campaign.procgen.themes.</text>
<text text-anchor="middle" x="118.25" y="-83.5" font-family="Helvetica,sans-Serif" font-size="10.00">ThemeGenerator</text>
</a>
</g>
</g>
<!-- Node2&#45;&gt;Node1 -->
<g id="edge1_Node000001_Node000002" class="edge">
<title>Node2&#45;&gt;Node1</title>
<g id="a_edge1_Node000001_Node000002"><a xlink:title=" ">
<path fill="none" stroke="#63b8ff" d="M142.18,-69.62C155.59,-57.08 171.93,-41.8 183.68,-30.81"/>
<polygon fill="#63b8ff" stroke="#63b8ff" points="139.89,-66.97 134.97,-76.36 144.67,-72.09 139.89,-66.97"/>
</a>
</g>
</g>
<!-- Node3 -->
<g id="Node000003" class="node">
<title>Node3</title>
<g id="a_Node000003"><a xlink:title=" ">
<polygon fill="white" stroke="#666666" points="306.25,-102.62 254.25,-102.62 254.25,-83.38 306.25,-83.38 306.25,-102.62"/>
<text text-anchor="middle" x="280.25" y="-89.12" font-family="Helvetica,sans-Serif" font-size="10.00">Random</text>
</a>
</g>
</g>
<!-- Node3&#45;&gt;Node1 -->
<g id="edge2_Node000001_Node000003" class="edge">
<title>Node3&#45;&gt;Node1</title>
<g id="a_edge2_Node000001_Node000003"><a xlink:title=" ">
<path fill="none" stroke="#9a32cd" stroke-dasharray="5,2" d="M262.62,-75.51C248.42,-62.23 228.63,-43.72 214.96,-30.94"/>
<polygon fill="#9a32cd" stroke="#9a32cd" points="259.84,-77.71 269.53,-81.98 264.62,-72.59 259.84,-77.71"/>
</a>
</g>
<text text-anchor="middle" x="261.85" y="-50.25" font-family="Helvetica,sans-Serif" font-size="10.00" fill="grey"> random</text>
</g>
</g>
</svg>
