<?xml version="1.0" encoding="UTF-8" standalone="no"?>
<!DOCTYPE svg PUBLIC "-//W3C//DTD SVG 1.1//EN"
 "http://www.w3.org/Graphics/SVG/1.1/DTD/svg11.dtd">
<!-- Generated by graphviz version 7.0.5 (20221223.1930)
 -->
<!-- Title: com.fs.starfarer.api.impl.combat.GravityPullEffect Pages: 1 -->
<svg width="730pt" height="86pt"
 viewBox="0.00 0.00 730.00 86.00" xmlns="http://www.w3.org/2000/svg" xmlns:xlink="http://www.w3.org/1999/xlink">
<g id="graph0" class="graph" transform="scale(1 1) rotate(0) translate(4 82)">
<title>com.fs.starfarer.api.impl.combat.GravityPullEffect</title>
<!-- Node1 -->
<g id="node1" class="node">
<title>Node1</title>
<g id="a_node1"><a xlink:title=" ">
<polygon fill="#999999" stroke="#666666" points="722,-43 566,-43 566,-13 722,-13 722,-43"/>
<text text-anchor="start" x="574" y="-31" font-family="Helvetica,sans-Serif" font-size="10.00">com.fs.starfarer.api.impl.combat.</text>
<text text-anchor="middle" x="644" y="-20" font-family="Helvetica,sans-Serif" font-size="10.00">GravityPullEffect</text>
</a>
</g>
</g>
<!-- Node2 -->
<g id="node2" class="node">
<title>Node2</title>
<g id="a_node2"><a xlink:href="classcom_1_1fs_1_1starfarer_1_1api_1_1combat_1_1BaseEveryFrameCombatPlugin.html" target="_top" xlink:title=" ">
<polygon fill="white" stroke="#bfbfbf" points="498,-78 346,-78 346,-48 498,-48 498,-78"/>
<text text-anchor="start" x="354" y="-66" font-family="Helvetica,sans-Serif" font-size="10.00">com.fs.starfarer.api.combat.</text>
<text text-anchor="middle" x="422" y="-55" font-family="Helvetica,sans-Serif" font-size="10.00">BaseEveryFrameCombatPlugin</text>
</a>
</g>
</g>
<!-- Node2&#45;&gt;Node1 -->
<g id="edge1" class="edge">
<title>Node2&#45;&gt;Node1</title>
<path fill="none" stroke="#63b8ff" d="M509.52,-49.23C528.11,-46.28 547.63,-43.17 565.82,-40.28"/>
<polygon fill="#63b8ff" stroke="#63b8ff" points="509.22,-45.74 499.9,-50.77 510.32,-52.65 509.22,-45.74"/>
</g>
<!-- Node3 -->
<g id="node3" class="node">
<title>Node3</title>
<g id="a_node3"><a xlink:href="interfacecom_1_1fs_1_1starfarer_1_1api_1_1combat_1_1EveryFrameCombatPlugin.html" target="_top" xlink:title=" ">
<polygon fill="white" stroke="#bfbfbf" points="309,-78 173,-78 173,-48 309,-48 309,-78"/>
<text text-anchor="start" x="181" y="-66" font-family="Helvetica,sans-Serif" font-size="10.00">com.fs.starfarer.api.combat.</text>
<text text-anchor="middle" x="241" y="-55" font-family="Helvetica,sans-Serif" font-size="10.00">EveryFrameCombatPlugin</text>
</a>
</g>
</g>
<!-- Node3&#45;&gt;Node2 -->
<g id="edge2" class="edge">
<title>Node3&#45;&gt;Node2</title>
<path fill="none" stroke="#63b8ff" d="M320.89,-63C329.08,-63 337.39,-63 345.54,-63"/>
<polygon fill="#63b8ff" stroke="#63b8ff" points="320.93,-59.5 310.93,-63 320.93,-66.5 320.93,-59.5"/>
</g>
<!-- Node4 -->
<g id="node4" class="node">
<title>Node4</title>
<g id="a_node4"><a xlink:href="interfacecom_1_1fs_1_1starfarer_1_1api_1_1combat_1_1CombatEnginePlugin.html" target="_top" xlink:title=" ">
<polygon fill="white" stroke="#666666" points="136,-78 0,-78 0,-48 136,-48 136,-78"/>
<text text-anchor="start" x="8" y="-66" font-family="Helvetica,sans-Serif" font-size="10.00">com.fs.starfarer.api.combat.</text>
<text text-anchor="middle" x="68" y="-55" font-family="Helvetica,sans-Serif" font-size="10.00">CombatEnginePlugin</text>
</a>
</g>
</g>
<!-- Node4&#45;&gt;Node3 -->
<g id="edge3" class="edge">
<title>Node4&#45;&gt;Node3</title>
<path fill="none" stroke="#63b8ff" d="M147.44,-63C155.82,-63 164.3,-63 172.54,-63"/>
<polygon fill="#63b8ff" stroke="#63b8ff" points="147.61,-59.5 137.61,-63 147.61,-66.5 147.61,-59.5"/>
</g>
<!-- Node5 -->
<g id="node5" class="node">
<title>Node5</title>
<g id="a_node5"><a xlink:href="interfacecom_1_1fs_1_1starfarer_1_1api_1_1combat_1_1CombatEntityAPI.html" target="_top" xlink:title=" ">
<polygon fill="white" stroke="#bfbfbf" points="490,-30 354,-30 354,0 490,0 490,-30"/>
<text text-anchor="start" x="362" y="-18" font-family="Helvetica,sans-Serif" font-size="10.00">com.fs.starfarer.api.combat.</text>
<text text-anchor="middle" x="422" y="-7" font-family="Helvetica,sans-Serif" font-size="10.00">CombatEntityAPI</text>
</a>
</g>
</g>
<!-- Node5&#45;&gt;Node1 -->
<g id="edge4" class="edge">
<title>Node5&#45;&gt;Node1</title>
<path fill="none" stroke="#9a32cd" stroke-dasharray="5,2" d="M501.61,-19.65C522.49,-20.88 545.01,-22.21 565.81,-23.44"/>
<polygon fill="#9a32cd" stroke="#9a32cd" points="501.9,-16.16 491.71,-19.06 501.49,-23.14 501.9,-16.16"/>
<text text-anchor="middle" x="532" y="-26" font-family="Helvetica,sans-Serif" font-size="10.00"> source</text>
</g>
</g>
</svg>
