<?xml version="1.0" encoding="UTF-8" standalone="no"?>
<!DOCTYPE svg PUBLIC "-//W3C//DTD SVG 1.1//EN"
 "http://www.w3.org/Graphics/SVG/1.1/DTD/svg11.dtd">
<!-- Generated by graphviz version 2.44.0 ()
 -->
<!-- Title: com.fs.starfarer.api.impl.campaign.events.PriceUpdate Pages: 1 -->
<svg width="459pt" height="99pt"
 viewBox="0.00 0.00 459.00 98.50" xmlns="http://www.w3.org/2000/svg" xmlns:xlink="http://www.w3.org/1999/xlink">
<g id="graph0" class="graph" transform="scale(1 1) rotate(0) translate(4 94.5)">
<title>com.fs.starfarer.api.impl.campaign.events.PriceUpdate</title>
<!-- Node1 -->
<g id="node1" class="node">
<title>Node1</title>
<g id="a_node1"><a xlink:title=" ">
<polygon fill="#bfbfbf" stroke="black" points="254,-33 254,-63 451,-63 451,-33 254,-33"/>
<text text-anchor="start" x="262" y="-51" font-family="Helvetica,sans-Serif" font-size="10.00">com.fs.starfarer.api.impl.campaign.events.</text>
<text text-anchor="middle" x="352.5" y="-40" font-family="Helvetica,sans-Serif" font-size="10.00">PriceUpdate</text>
</a>
</g>
</g>
<!-- Node2 -->
<g id="node2" class="node">
<title>Node2</title>
<g id="a_node2"><a xlink:href="interfacecom_1_1fs_1_1starfarer_1_1api_1_1campaign_1_1events_1_1CampaignEventPlugin_1_1PriceUpdatePlugin.html" target="_top" xlink:title=" ">
<polygon fill="none" stroke="black" points="1,-60 1,-90 196,-90 196,-60 1,-60"/>
<text text-anchor="start" x="9" y="-78" font-family="Helvetica,sans-Serif" font-size="10.00">com.fs.starfarer.api.campaign.events.</text>
<text text-anchor="middle" x="98.5" y="-67" font-family="Helvetica,sans-Serif" font-size="10.00">CampaignEventPlugin.PriceUpdatePlugin</text>
</a>
</g>
</g>
<!-- Node2&#45;&gt;Node1 -->
<g id="edge1" class="edge">
<title>Node2&#45;&gt;Node1</title>
<path fill="none" stroke="midnightblue" d="M206.46,-63.54C222.17,-61.86 238.29,-60.13 253.8,-58.47"/>
<polygon fill="midnightblue" stroke="midnightblue" points="205.78,-60.09 196.21,-64.64 206.53,-67.05 205.78,-60.09"/>
</g>
<!-- Node3 -->
<g id="node3" class="node">
<title>Node3</title>
<g id="a_node3"><a xlink:href="enumcom_1_1fs_1_1starfarer_1_1api_1_1campaign_1_1events_1_1CampaignEventPlugin_1_1PriceUpdatePlugin_1_1PriceType.html" target="_top" xlink:title=" ">
<polygon fill="none" stroke="black" points="0,-0.5 0,-41.5 197,-41.5 197,-0.5 0,-0.5"/>
<text text-anchor="start" x="8" y="-29.5" font-family="Helvetica,sans-Serif" font-size="10.00">com.fs.starfarer.api.campaign.events.</text>
<text text-anchor="start" x="8" y="-18.5" font-family="Helvetica,sans-Serif" font-size="10.00">CampaignEventPlugin.PriceUpdatePlugin.</text>
<text text-anchor="middle" x="98.5" y="-7.5" font-family="Helvetica,sans-Serif" font-size="10.00">PriceType</text>
</a>
</g>
</g>
<!-- Node3&#45;&gt;Node1 -->
<g id="edge2" class="edge">
<title>Node3&#45;&gt;Node1</title>
<path fill="none" stroke="#9a32cd" stroke-dasharray="5,2" d="M207.36,-32.56C222.77,-34.21 238.56,-35.9 253.76,-37.53"/>
<polygon fill="#9a32cd" stroke="#9a32cd" points="207.61,-29.06 197.29,-31.48 206.86,-36.02 207.61,-29.06"/>
<text text-anchor="middle" x="225.5" y="-38" font-family="Helvetica,sans-Serif" font-size="10.00"> type</text>
</g>
</g>
</svg>
