<?xml version="1.0" encoding="UTF-8" standalone="no"?>
<!DOCTYPE svg PUBLIC "-//W3C//DTD SVG 1.1//EN"
 "http://www.w3.org/Graphics/SVG/1.1/DTD/svg11.dtd">
<!-- Generated by graphviz version 7.0.5 (20221223.1930)
 -->
<!-- Title: com.fs.starfarer.api.campaign.econ.MutableCommodityQuantity Pages: 1 -->
<svg width="177pt" height="225pt"
 viewBox="0.00 0.00 177.00 225.00" xmlns="http://www.w3.org/2000/svg" xmlns:xlink="http://www.w3.org/1999/xlink">
<g id="graph0" class="graph" transform="scale(1 1) rotate(0) translate(4 221)">
<title>com.fs.starfarer.api.campaign.econ.MutableCommodityQuantity</title>
<!-- Node1 -->
<g id="node1" class="node">
<title>Node1</title>
<g id="a_node1"><a xlink:title=" ">
<polygon fill="#999999" stroke="#666666" points="169,-30 0,-30 0,0 169,0 169,-30"/>
<text text-anchor="start" x="8" y="-18" font-family="Helvetica,sans-Serif" font-size="10.00">com.fs.starfarer.api.campaign.econ.</text>
<text text-anchor="middle" x="84.5" y="-7" font-family="Helvetica,sans-Serif" font-size="10.00">MutableCommodityQuantity</text>
</a>
</g>
</g>
<!-- Node2 -->
<g id="node2" class="node">
<title>Node2</title>
<g id="a_node2"><a xlink:href="classcom_1_1fs_1_1starfarer_1_1api_1_1combat_1_1MutableStat.html" target="_top" xlink:title=" ">
<polygon fill="white" stroke="#666666" points="152.5,-107 16.5,-107 16.5,-77 152.5,-77 152.5,-107"/>
<text text-anchor="start" x="24.5" y="-95" font-family="Helvetica,sans-Serif" font-size="10.00">com.fs.starfarer.api.combat.</text>
<text text-anchor="middle" x="84.5" y="-84" font-family="Helvetica,sans-Serif" font-size="10.00">MutableStat</text>
</a>
</g>
</g>
<!-- Node2&#45;&gt;Node1 -->
<g id="edge1" class="edge">
<title>Node2&#45;&gt;Node1</title>
<path fill="none" stroke="#9a32cd" stroke-dasharray="5,2" d="M84.5,-65.23C84.5,-53.58 84.5,-40.26 84.5,-30.42"/>
<polygon fill="#9a32cd" stroke="#9a32cd" points="81,-65.03 84.5,-75.03 88,-65.03 81,-65.03"/>
<text text-anchor="middle" x="103" y="-51" font-family="Helvetica,sans-Serif" font-size="10.00"> quantity</text>
</g>
<!-- Node3 -->
<g id="node3" class="node">
<title>Node3</title>
<g id="a_node3"><a xlink:title=" ">
<polygon fill="white" stroke="#bfbfbf" points="153.5,-217 15.5,-217 15.5,-176 153.5,-176 153.5,-217"/>
<text text-anchor="start" x="23.5" y="-205" font-family="Helvetica,sans-Serif" font-size="10.00">LinkedHashMap&lt; String,</text>
<text text-anchor="start" x="23.5" y="-194" font-family="Helvetica,sans-Serif" font-size="10.00"> com.fs.starfarer.api.combat.</text>
<text text-anchor="middle" x="84.5" y="-183" font-family="Helvetica,sans-Serif" font-size="10.00">MutableStat.StatMod &gt;</text>
</a>
</g>
</g>
<!-- Node3&#45;&gt;Node2 -->
<g id="edge2" class="edge">
<title>Node3&#45;&gt;Node2</title>
<path fill="none" stroke="#9a32cd" stroke-dasharray="5,2" d="M84.5,-164.34C84.5,-145.4 84.5,-122.12 84.5,-107.41"/>
<polygon fill="#9a32cd" stroke="#9a32cd" points="81,-164.22 84.5,-174.22 88,-164.22 81,-164.22"/>
<text text-anchor="middle" x="113" y="-150" font-family="Helvetica,sans-Serif" font-size="10.00"> flatMods</text>
<text text-anchor="middle" x="113" y="-139" font-family="Helvetica,sans-Serif" font-size="10.00">multMods</text>
<text text-anchor="middle" x="113" y="-128" font-family="Helvetica,sans-Serif" font-size="10.00">percentMods</text>
</g>
</g>
</svg>
