<?xml version="1.0" encoding="UTF-8" standalone="no"?>
<!DOCTYPE svg PUBLIC "-//W3C//DTD SVG 1.1//EN"
 "http://www.w3.org/Graphics/SVG/1.1/DTD/svg11.dtd">
<!-- Generated by graphviz version 7.0.5 (20221223.1930)
 -->
<!-- Title: com.fs.starfarer.api.impl.campaign.procgen.themes.ScavengerFleetAssignmentAI Pages: 1 -->
<!--zoomable 420 -->
<svg id="main" version="1.1" xmlns="http://www.w3.org/2000/svg" xmlns:xlink="http://www.w3.org/1999/xlink" xml:space="preserve" onload="init(evt)">
<style type="text/css"><![CDATA[
.edge:hover path { stroke: red; }
.edge:hover polygon { stroke: red; fill: red; }
]]></style>
<script type="text/javascript"><![CDATA[
var edges = document.getElementsByTagName('g');
if (edges && edges.length) {
  for (var i=0;i<edges.length;i++) {
    if (edges[i].id.substr(0,4)=='edge') {
      edges[i].setAttribute('class','edge');
    }
  }
}
]]></script>
        <defs>
                <circle id="rim" cx="0" cy="0" r="7"/>
                <circle id="rim2" cx="0" cy="0" r="3.5"/>
                <g id="zoomPlus">
                        <use xlink:href="#rim" fill="#404040">
                                <set attributeName="fill" to="#808080" begin="zoomplus.mouseover" end="zoomplus.mouseout"/>
                        </use>
                        <path d="M-4,0h8M0,-4v8" fill="none" stroke="white" stroke-width="1.5" pointer-events="none"/>
                </g>
                <g id="zoomMin">
                        <use xlink:href="#rim" fill="#404040">
                                <set attributeName="fill" to="#808080" begin="zoomminus.mouseover" end="zoomminus.mouseout"/>
                        </use>
                        <path d="M-4,0h8" fill="none" stroke="white" stroke-width="1.5" pointer-events="none"/>
                </g>
                <g id="dirArrow">
                        <path fill="none" stroke="white" stroke-width="1.5" d="M0,-3.0v7 M-2.5,-0.5L0,-3.0L2.5,-0.5"/>
                </g>
               <g id="resetDef">
                       <use xlink:href="#rim2" fill="#404040">
                               <set attributeName="fill" to="#808080" begin="reset.mouseover" end="reset.mouseout"/>
                       </use>
               </g>
        </defs>

<script type="text/javascript">
var viewWidth = 1734;
var viewHeight = 420;
var sectionId = 'dynsection-1';
</script>
<script xlink:href="svgpan.js"/>
<svg id="graph" class="graph">
<g id="viewport">
<title>com.fs.starfarer.api.impl.campaign.procgen.themes.ScavengerFleetAssignmentAI</title>
<!-- Node1 -->
<g id="node1" class="node">
<title>Node1</title>
<g id="a_node1"><a xlink:title=" ">
<polygon fill="#999999" stroke="#666666" points="1726,-48 1489,-48 1489,-18 1726,-18 1726,-48"/>
<text text-anchor="start" x="1497" y="-36" font-family="Helvetica,sans-Serif" font-size="10.00">com.fs.starfarer.api.impl.campaign.procgen.themes.</text>
<text text-anchor="middle" x="1607.5" y="-25" font-family="Helvetica,sans-Serif" font-size="10.00">ScavengerFleetAssignmentAI</text>
</a>
</g>
</g>
<!-- Node2 -->
<g id="node2" class="node">
<title>Node2</title>
<g id="a_node2"><a xlink:href="classcom_1_1fs_1_1starfarer_1_1api_1_1impl_1_1campaign_1_1procgen_1_1themes_1_1RouteFleetAssignmentAI.html" target="_top" xlink:title=" ">
<polygon fill="white" stroke="#666666" points="1452,-122 1215,-122 1215,-92 1452,-92 1452,-122"/>
<text text-anchor="start" x="1223" y="-110" font-family="Helvetica,sans-Serif" font-size="10.00">com.fs.starfarer.api.impl.campaign.procgen.themes.</text>
<text text-anchor="middle" x="1333.5" y="-99" font-family="Helvetica,sans-Serif" font-size="10.00">RouteFleetAssignmentAI</text>
</a>
</g>
</g>
<!-- Node2&#45;&gt;Node1 -->
<g id="edge1" class="edge">
<title>Node2&#45;&gt;Node1</title>
<path fill="none" stroke="#63b8ff" d="M1402.14,-88.6C1447.63,-76.22 1506.9,-60.1 1549.88,-48.4"/>
<polygon fill="#63b8ff" stroke="#63b8ff" points="1401.38,-85.18 1392.65,-91.18 1403.22,-91.93 1401.38,-85.18"/>
</g>
<!-- Node3 -->
<g id="node3" class="node">
<title>Node3</title>
<g id="a_node3"><a xlink:href="classcom_1_1fs_1_1starfarer_1_1api_1_1impl_1_1campaign_1_1procgen_1_1themes_1_1BaseAssignmentAI.html" target="_top" xlink:title=" ">
<polygon fill="white" stroke="#666666" points="1123,-122 886,-122 886,-92 1123,-92 1123,-122"/>
<text text-anchor="start" x="894" y="-110" font-family="Helvetica,sans-Serif" font-size="10.00">com.fs.starfarer.api.impl.campaign.procgen.themes.</text>
<text text-anchor="middle" x="1004.5" y="-99" font-family="Helvetica,sans-Serif" font-size="10.00">BaseAssignmentAI</text>
</a>
</g>
</g>
<!-- Node3&#45;&gt;Node2 -->
<g id="edge2" class="edge">
<title>Node3&#45;&gt;Node2</title>
<path fill="none" stroke="#63b8ff" d="M1134.35,-107C1160.8,-107 1188.53,-107 1214.58,-107"/>
<polygon fill="#63b8ff" stroke="#63b8ff" points="1134.61,-103.5 1124.61,-107 1134.61,-110.5 1134.61,-103.5"/>
</g>
<!-- Node4 -->
<g id="node4" class="node">
<title>Node4</title>
<g id="a_node4"><a xlink:href="interfacecom_1_1fs_1_1starfarer_1_1api_1_1EveryFrameScript.html" target="_top" xlink:title=" ">
<polygon fill="white" stroke="#666666" points="738,-135 613,-135 613,-105 738,-105 738,-135"/>
<text text-anchor="start" x="621" y="-123" font-family="Helvetica,sans-Serif" font-size="10.00">com.fs.starfarer.api.Every</text>
<text text-anchor="middle" x="675.5" y="-112" font-family="Helvetica,sans-Serif" font-size="10.00">FrameScript</text>
</a>
</g>
</g>
<!-- Node4&#45;&gt;Node3 -->
<g id="edge3" class="edge">
<title>Node4&#45;&gt;Node3</title>
<path fill="none" stroke="#63b8ff" d="M749.65,-117.09C789.65,-115.5 840.17,-113.49 885.59,-111.69"/>
<polygon fill="#63b8ff" stroke="#63b8ff" points="749.76,-113.58 739.9,-117.48 750.03,-120.58 749.76,-113.58"/>
</g>
<!-- Node5 -->
<g id="node5" class="node">
<title>Node5</title>
<g id="a_node5"><a xlink:href="interfacecom_1_1fs_1_1starfarer_1_1api_1_1campaign_1_1CampaignFleetAPI.html" target="_top" xlink:title=" ">
<polygon fill="white" stroke="#666666" points="748.5,-231 602.5,-231 602.5,-201 748.5,-201 748.5,-231"/>
<text text-anchor="start" x="610.5" y="-219" font-family="Helvetica,sans-Serif" font-size="10.00">com.fs.starfarer.api.campaign.</text>
<text text-anchor="middle" x="675.5" y="-208" font-family="Helvetica,sans-Serif" font-size="10.00">CampaignFleetAPI</text>
</a>
</g>
</g>
<!-- Node5&#45;&gt;Node3 -->
<g id="edge4" class="edge">
<title>Node5&#45;&gt;Node3</title>
<path fill="none" stroke="#9a32cd" stroke-dasharray="5,2" d="M760.03,-204.15C794.09,-197.99 833.5,-189.16 868,-177 908.7,-162.65 952.51,-138.2 978.96,-122.32"/>
<polygon fill="#9a32cd" stroke="#9a32cd" points="759.44,-200.7 750.19,-205.87 760.65,-207.59 759.44,-200.7"/>
<text text-anchor="middle" x="840" y="-195" font-family="Helvetica,sans-Serif" font-size="10.00"> fleet</text>
</g>
<!-- Node11 -->
<g id="node11" class="node">
<title>Node11</title>
<g id="a_node11"><a xlink:title=" ">
<polygon fill="white" stroke="#666666" points="1100,-282 909,-282 909,-252 1100,-252 1100,-282"/>
<text text-anchor="start" x="917" y="-270" font-family="Helvetica,sans-Serif" font-size="10.00">com.fs.starfarer.api.impl.campaign.fleets.</text>
<text text-anchor="middle" x="1004.5" y="-259" font-family="Helvetica,sans-Serif" font-size="10.00">RouteManager.RouteData</text>
</a>
</g>
</g>
<!-- Node5&#45;&gt;Node11 -->
<g id="edge15" class="edge">
<title>Node5&#45;&gt;Node11</title>
<path fill="none" stroke="#9a32cd" stroke-dasharray="5,2" d="M759.95,-229.01C805.29,-236.09 861.53,-244.86 908.54,-252.19"/>
<polygon fill="#9a32cd" stroke="#9a32cd" points="760.58,-225.57 750.16,-227.49 759.5,-232.49 760.58,-225.57"/>
<text text-anchor="middle" x="840" y="-247" font-family="Helvetica,sans-Serif" font-size="10.00"> activeFleet</text>
</g>
<!-- Node6 -->
<g id="node6" class="node">
<title>Node6</title>
<g id="a_node6"><a xlink:href="interfacecom_1_1fs_1_1starfarer_1_1api_1_1campaign_1_1SectorEntityToken.html" target="_top" xlink:title=" ">
<polygon fill="white" stroke="#666666" points="352,-208 206,-208 206,-178 352,-178 352,-208"/>
<text text-anchor="start" x="214" y="-196" font-family="Helvetica,sans-Serif" font-size="10.00">com.fs.starfarer.api.campaign.</text>
<text text-anchor="middle" x="279" y="-185" font-family="Helvetica,sans-Serif" font-size="10.00">SectorEntityToken</text>
</a>
</g>
</g>
<!-- Node6&#45;&gt;Node5 -->
<g id="edge5" class="edge">
<title>Node6&#45;&gt;Node5</title>
<path fill="none" stroke="#63b8ff" d="M363.69,-198.61C365.82,-198.74 367.92,-198.87 370,-199 449.4,-203.86 540.49,-208.87 602.2,-212.18"/>
<polygon fill="#63b8ff" stroke="#63b8ff" points="363.92,-195.12 353.72,-197.98 363.48,-202.1 363.92,-195.12"/>
</g>
<!-- Node15 -->
<g id="node15" class="node">
<title>Node15</title>
<g id="a_node15"><a xlink:title=" ">
<polygon fill="white" stroke="#666666" points="771,-183 580,-183 580,-153 771,-153 771,-183"/>
<text text-anchor="start" x="588" y="-171" font-family="Helvetica,sans-Serif" font-size="10.00">com.fs.starfarer.api.impl.campaign.fleets.</text>
<text text-anchor="middle" x="675.5" y="-160" font-family="Helvetica,sans-Serif" font-size="10.00">RouteManager.RouteSegment</text>
</a>
</g>
</g>
<!-- Node6&#45;&gt;Node15 -->
<g id="edge17" class="edge">
<title>Node6&#45;&gt;Node15</title>
<path fill="none" stroke="#9a32cd" stroke-dasharray="5,2" d="M352.81,-175.52C358.6,-174.52 364.38,-173.66 370,-173 439.83,-164.75 519.29,-163.73 579.53,-164.64"/>
<polygon fill="#9a32cd" stroke="#9a32cd" points="352.38,-172.04 343.18,-177.29 353.65,-178.92 352.38,-172.04"/>
<text text-anchor="middle" x="454.5" y="-187" font-family="Helvetica,sans-Serif" font-size="10.00"> from</text>
<text text-anchor="middle" x="454.5" y="-176" font-family="Helvetica,sans-Serif" font-size="10.00">to</text>
</g>
<!-- Node7 -->
<g id="node7" class="node">
<title>Node7</title>
<g id="a_node7"><a xlink:href="interfacecom_1_1fs_1_1starfarer_1_1api_1_1campaign_1_1rules_1_1HasMemory.html" target="_top" xlink:title=" ">
<polygon fill="white" stroke="#666666" points="169,-262 0,-262 0,-232 169,-232 169,-262"/>
<text text-anchor="start" x="8" y="-250" font-family="Helvetica,sans-Serif" font-size="10.00">com.fs.starfarer.api.campaign.rules.</text>
<text text-anchor="middle" x="84.5" y="-239" font-family="Helvetica,sans-Serif" font-size="10.00">HasMemory</text>
</a>
</g>
</g>
<!-- Node7&#45;&gt;Node6 -->
<g id="edge6" class="edge">
<title>Node7&#45;&gt;Node6</title>
<path fill="none" stroke="#63b8ff" d="M151.48,-228.49C174.72,-221.97 200.58,-214.72 222.83,-208.48"/>
<polygon fill="#63b8ff" stroke="#63b8ff" points="150.8,-225.05 142.12,-231.12 152.69,-231.79 150.8,-225.05"/>
</g>
<!-- Node13 -->
<g id="node13" class="node">
<title>Node13</title>
<g id="a_node13"><a xlink:href="interfacecom_1_1fs_1_1starfarer_1_1api_1_1campaign_1_1econ_1_1MarketAPI.html" target="_top" xlink:title=" ">
<polygon fill="white" stroke="#666666" points="539,-326 370,-326 370,-296 539,-296 539,-326"/>
<text text-anchor="start" x="378" y="-314" font-family="Helvetica,sans-Serif" font-size="10.00">com.fs.starfarer.api.campaign.econ.</text>
<text text-anchor="middle" x="454.5" y="-303" font-family="Helvetica,sans-Serif" font-size="10.00">MarketAPI</text>
</a>
</g>
</g>
<!-- Node7&#45;&gt;Node13 -->
<g id="edge13" class="edge">
<title>Node7&#45;&gt;Node13</title>
<path fill="none" stroke="#63b8ff" d="M180.57,-263.53C239.04,-273.7 313.29,-286.62 369.58,-296.4"/>
<polygon fill="#63b8ff" stroke="#63b8ff" points="181.41,-260.13 170.96,-261.86 180.21,-267.02 181.41,-260.13"/>
</g>
<!-- Node8 -->
<g id="node8" class="node">
<title>Node8</title>
<g id="a_node8"><a xlink:href="interfacecom_1_1fs_1_1starfarer_1_1api_1_1campaign_1_1FleetOrStubAPI.html" target="_top" xlink:title=" ">
<polygon fill="white" stroke="#666666" points="352,-256 206,-256 206,-226 352,-226 352,-256"/>
<text text-anchor="start" x="214" y="-244" font-family="Helvetica,sans-Serif" font-size="10.00">com.fs.starfarer.api.campaign.</text>
<text text-anchor="middle" x="279" y="-233" font-family="Helvetica,sans-Serif" font-size="10.00">FleetOrStubAPI</text>
</a>
</g>
</g>
<!-- Node8&#45;&gt;Node5 -->
<g id="edge7" class="edge">
<title>Node8&#45;&gt;Node5</title>
<path fill="none" stroke="#63b8ff" d="M363.46,-235.71C434.28,-231.22 534.85,-224.85 602.27,-220.58"/>
<polygon fill="#63b8ff" stroke="#63b8ff" points="363.63,-232.19 353.87,-236.32 364.07,-239.18 363.63,-232.19"/>
</g>
<!-- Node9 -->
<g id="node9" class="node">
<title>Node9</title>
<g id="a_node9"><a xlink:href="interfacecom_1_1fs_1_1starfarer_1_1api_1_1impl_1_1campaign_1_1procgen_1_1themes_1_1BaseAssignmentAI_1_1FleetActionDelegate.html" target="_top" xlink:title=" ">
<polygon fill="white" stroke="#666666" points="794,-87 557,-87 557,-57 794,-57 794,-87"/>
<text text-anchor="start" x="565" y="-75" font-family="Helvetica,sans-Serif" font-size="10.00">com.fs.starfarer.api.impl.campaign.procgen.themes.</text>
<text text-anchor="middle" x="675.5" y="-64" font-family="Helvetica,sans-Serif" font-size="10.00">BaseAssignmentAI.FleetActionDelegate</text>
</a>
</g>
</g>
<!-- Node9&#45;&gt;Node3 -->
<g id="edge8" class="edge">
<title>Node9&#45;&gt;Node3</title>
<path fill="none" stroke="#9a32cd" stroke-dasharray="5,2" d="M805.35,-85.79C831.8,-88.62 859.53,-91.59 885.58,-94.38"/>
<polygon fill="#9a32cd" stroke="#9a32cd" points="805.91,-82.33 795.6,-84.75 805.17,-89.29 805.91,-82.33"/>
<text text-anchor="middle" x="840" y="-94" font-family="Helvetica,sans-Serif" font-size="10.00"> delegate</text>
</g>
<!-- Node10 -->
<g id="node10" class="node">
<title>Node10</title>
<g id="a_node10"><a xlink:href="classcom_1_1fs_1_1starfarer_1_1api_1_1util_1_1IntervalUtil.html" target="_top" xlink:title=" ">
<polygon fill="white" stroke="#666666" points="733.5,-30 617.5,-30 617.5,0 733.5,0 733.5,-30"/>
<text text-anchor="start" x="625.5" y="-18" font-family="Helvetica,sans-Serif" font-size="10.00">com.fs.starfarer.api.util.</text>
<text text-anchor="middle" x="675.5" y="-7" font-family="Helvetica,sans-Serif" font-size="10.00">IntervalUtil</text>
</a>
</g>
</g>
<!-- Node10&#45;&gt;Node1 -->
<g id="edge19" class="edge">
<title>Node10&#45;&gt;Node1</title>
<path fill="none" stroke="#9a32cd" stroke-dasharray="5,2" d="M745.38,-16.33C903.17,-19.39 1292.29,-26.92 1488.85,-30.72"/>
<polygon fill="#9a32cd" stroke="#9a32cd" points="745.55,-12.84 735.49,-16.14 745.42,-19.83 745.55,-12.84"/>
<text text-anchor="middle" x="1169" y="-29" font-family="Helvetica,sans-Serif" font-size="10.00"> piracyCheck</text>
</g>
<!-- Node10&#45;&gt;Node3 -->
<g id="edge9" class="edge">
<title>Node10&#45;&gt;Node3</title>
<path fill="none" stroke="#9a32cd" stroke-dasharray="5,2" d="M744.97,-23.82C781.87,-29.49 827.93,-38.07 868,-50 904.81,-60.96 945.17,-78.74 972.19,-91.52"/>
<polygon fill="#9a32cd" stroke="#9a32cd" points="745.73,-20.39 735.32,-22.37 744.69,-27.32 745.73,-20.39"/>
<text text-anchor="middle" x="840" y="-75" font-family="Helvetica,sans-Serif" font-size="10.00"> buildTracker</text>
<text text-anchor="middle" x="840" y="-64" font-family="Helvetica,sans-Serif" font-size="10.00">capTracker</text>
<text text-anchor="middle" x="840" y="-53" font-family="Helvetica,sans-Serif" font-size="10.00">raidTracker</text>
</g>
<!-- Node11&#45;&gt;Node2 -->
<g id="edge10" class="edge">
<title>Node11&#45;&gt;Node2</title>
<path fill="none" stroke="#9a32cd" stroke-dasharray="5,2" d="M1047.24,-246.58C1113.55,-214.13 1241.48,-151.53 1300.83,-122.5"/>
<polygon fill="#9a32cd" stroke="#9a32cd" points="1045.95,-243.31 1038.51,-250.85 1049.03,-249.6 1045.95,-243.31"/>
<text text-anchor="middle" x="1169" y="-199" font-family="Helvetica,sans-Serif" font-size="10.00"> route</text>
</g>
<!-- Node12 -->
<g id="node12" class="node">
<title>Node12</title>
<g id="a_node12"><a xlink:title=" ">
<polygon fill="white" stroke="#666666" points="771,-412 580,-412 580,-382 771,-382 771,-412"/>
<text text-anchor="start" x="588" y="-400" font-family="Helvetica,sans-Serif" font-size="10.00">com.fs.starfarer.api.impl.campaign.fleets.</text>
<text text-anchor="middle" x="675.5" y="-389" font-family="Helvetica,sans-Serif" font-size="10.00">RouteManager.OptionalFleetData</text>
</a>
</g>
</g>
<!-- Node12&#45;&gt;Node11 -->
<g id="edge11" class="edge">
<title>Node12&#45;&gt;Node11</title>
<path fill="none" stroke="#9a32cd" stroke-dasharray="5,2" d="M765.57,-379.17C775.18,-377.14 784.8,-375.06 794,-373 827.03,-365.61 836.92,-368.41 868,-355 912.81,-335.67 959.31,-301.96 984.49,-282.35"/>
<polygon fill="#9a32cd" stroke="#9a32cd" points="764.88,-375.74 755.81,-381.22 766.31,-382.59 764.88,-375.74"/>
<text text-anchor="middle" x="840" y="-372" font-family="Helvetica,sans-Serif" font-size="10.00"> extra</text>
</g>
<!-- Node13&#45;&gt;Node11 -->
<g id="edge12" class="edge">
<title>Node13&#45;&gt;Node11</title>
<path fill="none" stroke="#9a32cd" stroke-dasharray="5,2" d="M550.46,-305.36C618.35,-301.14 711.85,-294.91 794,-288 831.52,-284.85 872.76,-280.83 908.66,-277.16"/>
<polygon fill="#9a32cd" stroke="#9a32cd" points="550.64,-301.85 540.88,-305.96 551.08,-308.83 550.64,-301.85"/>
<text text-anchor="middle" x="675.5" y="-307" font-family="Helvetica,sans-Serif" font-size="10.00"> market</text>
</g>
<!-- Node14 -->
<g id="node14" class="node">
<title>Node14</title>
<g id="a_node14"><a xlink:title=" ">
<polygon fill="white" stroke="#666666" points="732.5,-363.5 618.5,-363.5 618.5,-344.5 732.5,-344.5 732.5,-363.5"/>
<text text-anchor="middle" x="675.5" y="-351.5" font-family="Helvetica,sans-Serif" font-size="10.00">List&lt; RouteSegment &gt;</text>
</a>
</g>
</g>
<!-- Node14&#45;&gt;Node11 -->
<g id="edge14" class="edge">
<title>Node14&#45;&gt;Node11</title>
<path fill="none" stroke="#9a32cd" stroke-dasharray="5,2" d="M743.91,-350.15C781.07,-346.8 827.7,-340.57 868,-329 907.16,-317.76 949.43,-296.88 976.15,-282.48"/>
<polygon fill="#9a32cd" stroke="#9a32cd" points="743.88,-346.64 734.21,-350.97 744.47,-353.61 743.88,-346.64"/>
<text text-anchor="middle" x="840" y="-343" font-family="Helvetica,sans-Serif" font-size="10.00"> segments</text>
</g>
<!-- Node15&#45;&gt;Node11 -->
<g id="edge16" class="edge">
<title>Node15&#45;&gt;Node11</title>
<path fill="none" stroke="#9a32cd" stroke-dasharray="5,2" d="M782.59,-154.61C810.92,-154.32 841.12,-157.08 868,-166 919.24,-183 966.82,-227.74 989.53,-251.56"/>
<polygon fill="#9a32cd" stroke="#9a32cd" points="782.84,-151.1 772.93,-154.84 783.01,-158.1 782.84,-151.1"/>
<text text-anchor="middle" x="840" y="-169" font-family="Helvetica,sans-Serif" font-size="10.00"> current</text>
</g>
<!-- Node16 -->
<g id="node16" class="node">
<title>Node16</title>
<g id="a_node16"><a xlink:title=" ">
<polygon fill="white" stroke="#666666" points="771,-279 580,-279 580,-249 771,-249 771,-279"/>
<text text-anchor="start" x="588" y="-267" font-family="Helvetica,sans-Serif" font-size="10.00">com.fs.starfarer.api.impl.campaign.fleets.</text>
<text text-anchor="middle" x="675.5" y="-256" font-family="Helvetica,sans-Serif" font-size="10.00">RouteManager.RouteFleetSpawner</text>
</a>
</g>
</g>
<!-- Node16&#45;&gt;Node11 -->
<g id="edge18" class="edge">
<title>Node16&#45;&gt;Node11</title>
<path fill="none" stroke="#9a32cd" stroke-dasharray="5,2" d="M782.38,-264.97C822.99,-265.34 869.04,-265.77 908.56,-266.13"/>
<polygon fill="#9a32cd" stroke="#9a32cd" points="782.63,-261.47 772.6,-264.88 782.56,-268.47 782.63,-261.47"/>
<text text-anchor="middle" x="840" y="-268" font-family="Helvetica,sans-Serif" font-size="10.00"> spawner</text>
</g>
</g>
</svg>
        <g id="navigator" transform="translate(0 0)" fill="#404254">
                <rect fill="#f2f5e9" fill-opacity="0.5" stroke="#606060" stroke-width=".5" x="0" y="0" width="60" height="60"/>
                <use id="zoomplus" xlink:href="#zoomPlus" x="17" y="9" onmousedown="handleZoom(evt,'in')"/>
                <use id="zoomminus" xlink:href="#zoomMin" x="42" y="9" onmousedown="handleZoom(evt,'out')"/>
                <use id="reset" xlink:href="#resetDef" x="30" y="36" onmousedown="handleReset()"/>
                <g id="arrowUp" xlink:href="#dirArrow" transform="translate(30 24)" onmousedown="handlePan(0,-1)">
                  <use xlink:href="#rim" fill="#404040">
                        <set attributeName="fill" to="#808080" begin="arrowUp.mouseover" end="arrowUp.mouseout"/>
                  </use>
                  <path fill="none" stroke="white" stroke-width="1.5" d="M0,-3.0v7 M-2.5,-0.5L0,-3.0L2.5,-0.5"/>
                </g>
                <g id="arrowRight" xlink:href="#dirArrow" transform="rotate(90) translate(36 -43)" onmousedown="handlePan(1,0)">
                  <use xlink:href="#rim" fill="#404040">
                        <set attributeName="fill" to="#808080" begin="arrowRight.mouseover" end="arrowRight.mouseout"/>
                  </use>
                  <path fill="none" stroke="white" stroke-width="1.5" d="M0,-3.0v7 M-2.5,-0.5L0,-3.0L2.5,-0.5"/>
                </g>
                <g id="arrowDown" xlink:href="#dirArrow" transform="rotate(180) translate(-30 -48)" onmousedown="handlePan(0,1)">
                  <use xlink:href="#rim" fill="#404040">
                        <set attributeName="fill" to="#808080" begin="arrowDown.mouseover" end="arrowDown.mouseout"/>
                  </use>
                  <path fill="none" stroke="white" stroke-width="1.5" d="M0,-3.0v7 M-2.5,-0.5L0,-3.0L2.5,-0.5"/>
                </g>
                <g id="arrowLeft" xlink:href="#dirArrow" transform="rotate(270) translate(-36 17)" onmousedown="handlePan(-1,0)">
                  <use xlink:href="#rim" fill="#404040">
                        <set attributeName="fill" to="#808080" begin="arrowLeft.mouseover" end="arrowLeft.mouseout"/>
                  </use>
                  <path fill="none" stroke="white" stroke-width="1.5" d="M0,-3.0v7 M-2.5,-0.5L0,-3.0L2.5,-0.5"/>
                </g>
        </g>
        <svg viewBox="0 0 15 15" width="100%" height="30px" preserveAspectRatio="xMaxYMin meet">
         <g id="arrow_out" transform="scale(0.3 0.3)">
          <a xlink:href="classcom_1_1fs_1_1starfarer_1_1api_1_1impl_1_1campaign_1_1procgen_1_1themes_1_1ScavengerFleetAssignmentAI__coll__graph_org.svg" target="_base">
           <rect id="button" ry="5" rx="5" y="6" x="6" height="38" width="38"
                fill="#f2f5e9" fill-opacity="0.5" stroke="#606060" stroke-width="1.0"/>
           <path id="arrow"
             d="M 11.500037,31.436501 C 11.940474,20.09759 22.043105,11.32322 32.158766,21.979434 L 37.068811,17.246167 C 37.068811,17.246167 37.088388,32 37.088388,32 L 22.160133,31.978069 C 22.160133,31.978069 26.997745,27.140456 26.997745,27.140456 C 18.528582,18.264221 13.291696,25.230495 11.500037,31.436501 z"
             style="fill:#404040;"/>
          </a>
         </g>
        </svg>
</svg>
