<?xml version="1.0" encoding="UTF-8" standalone="no"?>
<!DOCTYPE svg PUBLIC "-//W3C//DTD SVG 1.1//EN"
 "http://www.w3.org/Graphics/SVG/1.1/DTD/svg11.dtd">
<!-- Generated by graphviz version 12.2.0 (20241103.1931)
 -->
<!-- Title: com.fs.starfarer.api.impl.campaign.missions.cb.BaseCustomBountyCreator Pages: 1 -->
<!--zoomable 529 -->

<svg id="main" version="1.1" xmlns="http://www.w3.org/2000/svg" xmlns:xlink="http://www.w3.org/1999/xlink" xml:space="preserve" onload="init(evt)">

<style type="text/css"><![CDATA[
.node, .edge {opacity: 0.7;}
.node.selected, .edge.selected {opacity: 1;}
.edge:hover path { stroke: red; }
.edge:hover polygon { stroke: red; fill: red; }
]]></style>

<defs>
  <circle id="rim" cx="0" cy="0" r="7"/>
  <circle id="rim2" cx="0" cy="0" r="3.5"/>
  <g id="zoomPlus">
    <use xlink:href="#rim" fill="#404040"><set attributeName="fill" to="#808080" begin="zoomplus.mouseover" end="zoomplus.mouseout"/></use>
    <path d="M-4,0h8M0,-4v8" fill="none" stroke="white" stroke-width="1.5" pointer-events="none"/>
  </g>
  <g id="zoomMin">
    <use xlink:href="#rim" fill="#404040"><set attributeName="fill" to="#808080" begin="zoomminus.mouseover" end="zoomminus.mouseout"/></use>
    <path d="M-4,0h8" fill="none" stroke="white" stroke-width="1.5" pointer-events="none"/>
  </g>
  <g id="arrowUp" transform="translate(30 24)">
    <use xlink:href="#rim"/>
    <path pointer-events="none" fill="none" stroke="white" stroke-width="1.5" d="M0,-3.0v7 M-2.5,-0.5L0,-3.0L2.5,-0.5"/>
  </g>
  <g id="arrowRight" transform="rotate(90) translate(36 -43)">
    <use xlink:href="#rim"/>
    <path pointer-events="none" fill="none" stroke="white" stroke-width="1.5" d="M0,-3.0v7 M-2.5,-0.5L0,-3.0L2.5,-0.5"/>
  </g>
  <g id="arrowDown" transform="rotate(180) translate(-30 -48)">
    <use xlink:href="#rim"/>
    <path pointer-events="none" fill="none" stroke="white" stroke-width="1.5" d="M0,-3.0v7 M-2.5,-0.5L0,-3.0L2.5,-0.5"/>
  </g>
  <g id="arrowLeft" transform="rotate(270) translate(-36 17)">
    <use xlink:href="#rim"/>
    <path pointer-events="none" fill="none" stroke="white" stroke-width="1.5" d="M0,-3.0v7 M-2.5,-0.5L0,-3.0L2.5,-0.5"/>
  </g>
  <g id="resetDef">
    <use xlink:href="#rim2" fill="#404040"><set attributeName="fill" to="#808080" begin="reset.mouseover" end="reset.mouseout"/></use>
  </g>
</defs>
<script type="application/ecmascript">
var viewWidth = 1516;
var viewHeight = 529;
var sectionId = 'dynsection-0';
</script>
<script type="application/ecmascript" xlink:href="svg.min.js"/>
<svg id="graph" class="graph">
<g id="viewport">
<title>com.fs.starfarer.api.impl.campaign.missions.cb.BaseCustomBountyCreator</title>
<!-- Node1 -->
<g id="Node000001" class="node">
<title>Node1</title>
<g id="a_Node000001"><a xlink:title=" ">
<polygon fill="#999999" stroke="#666666" points="997,-275.5 777.75,-275.5 777.75,-245 997,-245 997,-275.5"/>
<text text-anchor="start" x="785.75" y="-262" font-family="Helvetica,sans-Serif" font-size="10.00">com.fs.starfarer.api.impl.campaign.missions.cb.</text>
<text text-anchor="middle" x="887.38" y="-250.75" font-family="Helvetica,sans-Serif" font-size="10.00">BaseCustomBountyCreator</text>
</a>
</g>
</g>
<!-- Node5 -->
<g id="Node000005" class="node">
<title>Node5</title>
<g id="a_Node000005"><a xlink:href="classcom_1_1fs_1_1starfarer_1_1api_1_1impl_1_1campaign_1_1missions_1_1cb_1_1CBDerelict.html" target="_top" xlink:title=" ">
<polygon fill="white" stroke="#666666" points="1252.25,-520.5 1033,-520.5 1033,-490 1252.25,-490 1252.25,-520.5"/>
<text text-anchor="start" x="1041" y="-507" font-family="Helvetica,sans-Serif" font-size="10.00">com.fs.starfarer.api.impl.campaign.missions.cb.</text>
<text text-anchor="middle" x="1142.62" y="-495.75" font-family="Helvetica,sans-Serif" font-size="10.00">CBDerelict</text>
</a>
</g>
</g>
<!-- Node1&#45;&gt;Node5 -->
<g id="edge4_Node000001_Node000005" class="edge">
<title>Node1&#45;&gt;Node5</title>
<g id="a_edge4_Node000001_Node000005"><a xlink:title=" ">
<path fill="none" stroke="#63b8ff" d="M897.95,-286.46C916.43,-333.18 961.59,-430.58 1033,-480.25 1038.16,-483.84 1043.77,-486.92 1049.61,-489.57"/>
<polygon fill="#63b8ff" stroke="#63b8ff" points="901.32,-285.49 894.47,-277.41 894.79,-288 901.32,-285.49"/>
</a>
</g>
</g>
<!-- Node6 -->
<g id="Node000006" class="node">
<title>Node6</title>
<g id="a_Node000006"><a xlink:href="classcom_1_1fs_1_1starfarer_1_1api_1_1impl_1_1campaign_1_1missions_1_1cb_1_1CBDeserter.html" target="_top" xlink:title=" ">
<polygon fill="white" stroke="#666666" points="1252.25,-471.5 1033,-471.5 1033,-441 1252.25,-441 1252.25,-471.5"/>
<text text-anchor="start" x="1041" y="-458" font-family="Helvetica,sans-Serif" font-size="10.00">com.fs.starfarer.api.impl.campaign.missions.cb.</text>
<text text-anchor="middle" x="1142.62" y="-446.75" font-family="Helvetica,sans-Serif" font-size="10.00">CBDeserter</text>
</a>
</g>
</g>
<!-- Node1&#45;&gt;Node6 -->
<g id="edge5_Node000001_Node000006" class="edge">
<title>Node1&#45;&gt;Node6</title>
<g id="a_edge5_Node000001_Node000006"><a xlink:title=" ">
<path fill="none" stroke="#63b8ff" d="M902.53,-285.68C925.02,-323.6 972.61,-394.43 1033,-431.25 1038.87,-434.83 1045.19,-437.89 1051.74,-440.52"/>
<polygon fill="#63b8ff" stroke="#63b8ff" points="905.67,-284.12 897.63,-277.23 899.62,-287.63 905.67,-284.12"/>
</a>
</g>
</g>
<!-- Node7 -->
<g id="Node000007" class="node">
<title>Node7</title>
<g id="a_Node000007"><a xlink:href="classcom_1_1fs_1_1starfarer_1_1api_1_1impl_1_1campaign_1_1missions_1_1cb_1_1CBEnemyStation.html" target="_top" xlink:title=" ">
<polygon fill="white" stroke="#666666" points="1252.25,-422.5 1033,-422.5 1033,-392 1252.25,-392 1252.25,-422.5"/>
<text text-anchor="start" x="1041" y="-409" font-family="Helvetica,sans-Serif" font-size="10.00">com.fs.starfarer.api.impl.campaign.missions.cb.</text>
<text text-anchor="middle" x="1142.62" y="-397.75" font-family="Helvetica,sans-Serif" font-size="10.00">CBEnemyStation</text>
</a>
</g>
</g>
<!-- Node1&#45;&gt;Node7 -->
<g id="edge6_Node000001_Node000007" class="edge">
<title>Node1&#45;&gt;Node7</title>
<g id="a_edge6_Node000001_Node000007"><a xlink:title=" ">
<path fill="none" stroke="#63b8ff" d="M909.63,-284.03C935.86,-311.87 983.15,-357.34 1033,-382.25 1040.18,-385.84 1047.89,-388.92 1055.77,-391.57"/>
<polygon fill="#63b8ff" stroke="#63b8ff" points="912.27,-281.73 902.9,-276.77 907.13,-286.48 912.27,-281.73"/>
</a>
</g>
</g>
<!-- Node8 -->
<g id="Node000008" class="node">
<title>Node8</title>
<g id="a_Node000008"><a xlink:href="classcom_1_1fs_1_1starfarer_1_1api_1_1impl_1_1campaign_1_1missions_1_1cb_1_1CBMerc.html" target="_top" xlink:title=" ">
<polygon fill="white" stroke="#666666" points="1252.25,-373.5 1033,-373.5 1033,-343 1252.25,-343 1252.25,-373.5"/>
<text text-anchor="start" x="1041" y="-360" font-family="Helvetica,sans-Serif" font-size="10.00">com.fs.starfarer.api.impl.campaign.missions.cb.</text>
<text text-anchor="middle" x="1142.62" y="-348.75" font-family="Helvetica,sans-Serif" font-size="10.00">CBMerc</text>
</a>
</g>
</g>
<!-- Node1&#45;&gt;Node8 -->
<g id="edge7_Node000001_Node000008" class="edge">
<title>Node1&#45;&gt;Node8</title>
<g id="a_edge7_Node000001_Node000008"><a xlink:title=" ">
<path fill="none" stroke="#63b8ff" d="M924.63,-281.65C953.24,-297.76 994.6,-319.37 1033,-333.25 1042.55,-336.7 1052.76,-339.79 1062.94,-342.52"/>
<polygon fill="#63b8ff" stroke="#63b8ff" points="926.43,-278.64 916.01,-276.73 922.97,-284.72 926.43,-278.64"/>
</a>
</g>
</g>
<!-- Node10 -->
<g id="Node000010" class="node">
<title>Node10</title>
<g id="a_Node000010"><a xlink:href="classcom_1_1fs_1_1starfarer_1_1api_1_1impl_1_1campaign_1_1missions_1_1cb_1_1CBPather.html" target="_top" xlink:title=" ">
<polygon fill="white" stroke="#666666" points="1252.25,-324.5 1033,-324.5 1033,-294 1252.25,-294 1252.25,-324.5"/>
<text text-anchor="start" x="1041" y="-311" font-family="Helvetica,sans-Serif" font-size="10.00">com.fs.starfarer.api.impl.campaign.missions.cb.</text>
<text text-anchor="middle" x="1142.62" y="-299.75" font-family="Helvetica,sans-Serif" font-size="10.00">CBPather</text>
</a>
</g>
</g>
<!-- Node1&#45;&gt;Node10 -->
<g id="edge9_Node000001_Node000010" class="edge">
<title>Node1&#45;&gt;Node10</title>
<g id="a_edge9_Node000001_Node000010"><a xlink:title=" ">
<path fill="none" stroke="#63b8ff" d="M980.61,-278.1C1006.76,-283.16 1035.03,-288.63 1060.48,-293.55"/>
<polygon fill="#63b8ff" stroke="#63b8ff" points="981.52,-274.71 971.04,-276.24 980.19,-281.58 981.52,-274.71"/>
</a>
</g>
</g>
<!-- Node11 -->
<g id="Node000011" class="node">
<title>Node11</title>
<g id="a_Node000011"><a xlink:href="classcom_1_1fs_1_1starfarer_1_1api_1_1impl_1_1campaign_1_1missions_1_1cb_1_1CBPatrol.html" target="_top" xlink:title=" ">
<polygon fill="white" stroke="#666666" points="1252.25,-275.5 1033,-275.5 1033,-245 1252.25,-245 1252.25,-275.5"/>
<text text-anchor="start" x="1041" y="-262" font-family="Helvetica,sans-Serif" font-size="10.00">com.fs.starfarer.api.impl.campaign.missions.cb.</text>
<text text-anchor="middle" x="1142.62" y="-250.75" font-family="Helvetica,sans-Serif" font-size="10.00">CBPatrol</text>
</a>
</g>
</g>
<!-- Node1&#45;&gt;Node11 -->
<g id="edge10_Node000001_Node000011" class="edge">
<title>Node1&#45;&gt;Node11</title>
<g id="a_edge10_Node000001_Node000011"><a xlink:title=" ">
<path fill="none" stroke="#63b8ff" d="M1008.63,-260.25C1016.71,-260.25 1024.83,-260.25 1032.85,-260.25"/>
<polygon fill="#63b8ff" stroke="#63b8ff" points="1008.76,-256.75 998.76,-260.25 1008.76,-263.75 1008.76,-256.75"/>
</a>
</g>
</g>
<!-- Node12 -->
<g id="Node000012" class="node">
<title>Node12</title>
<g id="a_Node000012"><a xlink:href="classcom_1_1fs_1_1starfarer_1_1api_1_1impl_1_1campaign_1_1missions_1_1cb_1_1CBPirate.html" target="_top" xlink:title=" ">
<polygon fill="white" stroke="#666666" points="1252.25,-226.5 1033,-226.5 1033,-196 1252.25,-196 1252.25,-226.5"/>
<text text-anchor="start" x="1041" y="-213" font-family="Helvetica,sans-Serif" font-size="10.00">com.fs.starfarer.api.impl.campaign.missions.cb.</text>
<text text-anchor="middle" x="1142.62" y="-201.75" font-family="Helvetica,sans-Serif" font-size="10.00">CBPirate</text>
</a>
</g>
</g>
<!-- Node1&#45;&gt;Node12 -->
<g id="edge11_Node000001_Node000012" class="edge">
<title>Node1&#45;&gt;Node12</title>
<g id="a_edge11_Node000001_Node000012"><a xlink:title=" ">
<path fill="none" stroke="#63b8ff" d="M980.61,-242.4C1006.76,-237.34 1035.03,-231.87 1060.48,-226.95"/>
<polygon fill="#63b8ff" stroke="#63b8ff" points="980.19,-238.92 971.04,-244.26 981.52,-245.79 980.19,-238.92"/>
</a>
</g>
</g>
<!-- Node13 -->
<g id="Node000013" class="node">
<title>Node13</title>
<g id="a_Node000013"><a xlink:href="classcom_1_1fs_1_1starfarer_1_1api_1_1impl_1_1campaign_1_1missions_1_1cb_1_1CBRemnant.html" target="_top" xlink:title=" ">
<polygon fill="white" stroke="#666666" points="1252.25,-177.5 1033,-177.5 1033,-147 1252.25,-147 1252.25,-177.5"/>
<text text-anchor="start" x="1041" y="-164" font-family="Helvetica,sans-Serif" font-size="10.00">com.fs.starfarer.api.impl.campaign.missions.cb.</text>
<text text-anchor="middle" x="1142.62" y="-152.75" font-family="Helvetica,sans-Serif" font-size="10.00">CBRemnant</text>
</a>
</g>
</g>
<!-- Node1&#45;&gt;Node13 -->
<g id="edge12_Node000001_Node000013" class="edge">
<title>Node1&#45;&gt;Node13</title>
<g id="a_edge12_Node000001_Node000013"><a xlink:title=" ">
<path fill="none" stroke="#63b8ff" d="M924.63,-238.85C953.24,-222.74 994.6,-201.13 1033,-187.25 1042.55,-183.8 1052.76,-180.71 1062.94,-177.98"/>
<polygon fill="#63b8ff" stroke="#63b8ff" points="922.97,-235.78 916.01,-243.77 926.43,-241.86 922.97,-235.78"/>
</a>
</g>
</g>
<!-- Node14 -->
<g id="Node000014" class="node">
<title>Node14</title>
<g id="a_Node000014"><a xlink:href="classcom_1_1fs_1_1starfarer_1_1api_1_1impl_1_1campaign_1_1missions_1_1cb_1_1CBRemnantPlus.html" target="_top" xlink:title=" ">
<polygon fill="white" stroke="#666666" points="1252.25,-128.5 1033,-128.5 1033,-98 1252.25,-98 1252.25,-128.5"/>
<text text-anchor="start" x="1041" y="-115" font-family="Helvetica,sans-Serif" font-size="10.00">com.fs.starfarer.api.impl.campaign.missions.cb.</text>
<text text-anchor="middle" x="1142.62" y="-103.75" font-family="Helvetica,sans-Serif" font-size="10.00">CBRemnantPlus</text>
</a>
</g>
</g>
<!-- Node1&#45;&gt;Node14 -->
<g id="edge13_Node000001_Node000014" class="edge">
<title>Node1&#45;&gt;Node14</title>
<g id="a_edge13_Node000001_Node000014"><a xlink:title=" ">
<path fill="none" stroke="#63b8ff" d="M909.63,-236.47C935.86,-208.63 983.15,-163.16 1033,-138.25 1040.18,-134.66 1047.89,-131.58 1055.77,-128.93"/>
<polygon fill="#63b8ff" stroke="#63b8ff" points="907.13,-234.02 902.9,-243.73 912.27,-238.77 907.13,-234.02"/>
</a>
</g>
</g>
<!-- Node15 -->
<g id="Node000015" class="node">
<title>Node15</title>
<g id="a_Node000015"><a xlink:href="classcom_1_1fs_1_1starfarer_1_1api_1_1impl_1_1campaign_1_1missions_1_1cb_1_1CBRemnantStation.html" target="_top" xlink:title=" ">
<polygon fill="white" stroke="#666666" points="1252.25,-79.5 1033,-79.5 1033,-49 1252.25,-49 1252.25,-79.5"/>
<text text-anchor="start" x="1041" y="-66" font-family="Helvetica,sans-Serif" font-size="10.00">com.fs.starfarer.api.impl.campaign.missions.cb.</text>
<text text-anchor="middle" x="1142.62" y="-54.75" font-family="Helvetica,sans-Serif" font-size="10.00">CBRemnantStation</text>
</a>
</g>
</g>
<!-- Node1&#45;&gt;Node15 -->
<g id="edge14_Node000001_Node000015" class="edge">
<title>Node1&#45;&gt;Node15</title>
<g id="a_edge14_Node000001_Node000015"><a xlink:title=" ">
<path fill="none" stroke="#63b8ff" d="M902.53,-234.82C925.02,-196.9 972.61,-126.07 1033,-89.25 1038.87,-85.67 1045.19,-82.61 1051.74,-79.98"/>
<polygon fill="#63b8ff" stroke="#63b8ff" points="899.62,-232.87 897.63,-243.27 905.67,-236.38 899.62,-232.87"/>
</a>
</g>
</g>
<!-- Node16 -->
<g id="Node000016" class="node">
<title>Node16</title>
<g id="a_Node000016"><a xlink:href="classcom_1_1fs_1_1starfarer_1_1api_1_1impl_1_1campaign_1_1missions_1_1cb_1_1CBTrader.html" target="_top" xlink:title=" ">
<polygon fill="white" stroke="#666666" points="1252.25,-30.5 1033,-30.5 1033,0 1252.25,0 1252.25,-30.5"/>
<text text-anchor="start" x="1041" y="-17" font-family="Helvetica,sans-Serif" font-size="10.00">com.fs.starfarer.api.impl.campaign.missions.cb.</text>
<text text-anchor="middle" x="1142.62" y="-5.75" font-family="Helvetica,sans-Serif" font-size="10.00">CBTrader</text>
</a>
</g>
</g>
<!-- Node1&#45;&gt;Node16 -->
<g id="edge15_Node000001_Node000016" class="edge">
<title>Node1&#45;&gt;Node16</title>
<g id="a_edge15_Node000001_Node000016"><a xlink:title=" ">
<path fill="none" stroke="#63b8ff" d="M897.95,-234.04C916.43,-187.32 961.59,-89.92 1033,-40.25 1038.16,-36.66 1043.77,-33.58 1049.61,-30.93"/>
<polygon fill="#63b8ff" stroke="#63b8ff" points="894.79,-232.5 894.47,-243.09 901.32,-235.01 894.79,-232.5"/>
</a>
</g>
</g>
<!-- Node2 -->
<g id="Node000002" class="node">
<title>Node2</title>
<g id="a_Node000002"><a xlink:href="interfacecom_1_1fs_1_1starfarer_1_1api_1_1impl_1_1campaign_1_1missions_1_1cb_1_1CustomBountyCreator.html" target="_top" xlink:title=" ">
<polygon fill="white" stroke="#666666" points="741.75,-275.5 522.5,-275.5 522.5,-245 741.75,-245 741.75,-275.5"/>
<text text-anchor="start" x="530.5" y="-262" font-family="Helvetica,sans-Serif" font-size="10.00">com.fs.starfarer.api.impl.campaign.missions.cb.</text>
<text text-anchor="middle" x="632.12" y="-250.75" font-family="Helvetica,sans-Serif" font-size="10.00">CustomBountyCreator</text>
</a>
</g>
</g>
<!-- Node2&#45;&gt;Node1 -->
<g id="edge1_Node000001_Node000002" class="edge">
<title>Node2&#45;&gt;Node1</title>
<g id="a_edge1_Node000001_Node000002"><a xlink:title=" ">
<path fill="none" stroke="#63b8ff" d="M753.38,-260.25C761.46,-260.25 769.58,-260.25 777.6,-260.25"/>
<polygon fill="#63b8ff" stroke="#63b8ff" points="753.51,-256.75 743.51,-260.25 753.51,-263.75 753.51,-256.75"/>
</a>
</g>
</g>
<!-- Node3 -->
<g id="Node000003" class="node">
<title>Node3</title>
<g id="a_Node000003"><a xlink:title=" ">
<polygon fill="white" stroke="#666666" points="486.5,-275.5 260.5,-275.5 260.5,-245 486.5,-245 486.5,-275.5"/>
<text text-anchor="start" x="268.5" y="-262" font-family="Helvetica,sans-Serif" font-size="10.00">com.fs.starfarer.api.impl.campaign.missions.hub.</text>
<text text-anchor="middle" x="373.5" y="-250.75" font-family="Helvetica,sans-Serif" font-size="10.00">HubMissionWithSearch.StarSystemRequirement</text>
</a>
</g>
</g>
<!-- Node3&#45;&gt;Node2 -->
<g id="edge2_Node000002_Node000003" class="edge">
<title>Node3&#45;&gt;Node2</title>
<g id="a_edge2_Node000002_Node000003"><a xlink:title=" ">
<path fill="none" stroke="#63b8ff" d="M498,-260.25C506.03,-260.25 514.08,-260.25 522.03,-260.25"/>
<polygon fill="#63b8ff" stroke="#63b8ff" points="498.2,-256.75 488.2,-260.25 498.2,-263.75 498.2,-256.75"/>
</a>
</g>
</g>
<!-- Node4 -->
<g id="Node000004" class="node">
<title>Node4</title>
<g id="a_Node000004"><a xlink:title=" ">
<polygon fill="white" stroke="#666666" points="224.5,-275.5 0,-275.5 0,-245 224.5,-245 224.5,-275.5"/>
<text text-anchor="start" x="8" y="-262" font-family="Helvetica,sans-Serif" font-size="10.00">com.fs.starfarer.api.impl.campaign.missions.hub.</text>
<text text-anchor="middle" x="112.25" y="-250.75" font-family="Helvetica,sans-Serif" font-size="10.00">HubMissionWithSearch.GenericRequirement</text>
</a>
</g>
</g>
<!-- Node4&#45;&gt;Node3 -->
<g id="edge3_Node000003_Node000004" class="edge">
<title>Node4&#45;&gt;Node3</title>
<g id="a_edge3_Node000003_Node000004"><a xlink:title=" ">
<path fill="none" stroke="#63b8ff" d="M236.09,-260.25C244.17,-260.25 252.29,-260.25 260.32,-260.25"/>
<polygon fill="#63b8ff" stroke="#63b8ff" points="236.21,-256.75 226.21,-260.25 236.21,-263.75 236.21,-256.75"/>
</a>
</g>
</g>
<!-- Node9 -->
<g id="Node000009" class="node">
<title>Node9</title>
<g id="a_Node000009"><a xlink:href="classcom_1_1fs_1_1starfarer_1_1api_1_1impl_1_1campaign_1_1missions_1_1cb_1_1CBMercUW.html" target="_top" xlink:title=" ">
<polygon fill="white" stroke="#666666" points="1507.5,-373.5 1288.25,-373.5 1288.25,-343 1507.5,-343 1507.5,-373.5"/>
<text text-anchor="start" x="1296.25" y="-360" font-family="Helvetica,sans-Serif" font-size="10.00">com.fs.starfarer.api.impl.campaign.missions.cb.</text>
<text text-anchor="middle" x="1397.88" y="-348.75" font-family="Helvetica,sans-Serif" font-size="10.00">CBMercUW</text>
</a>
</g>
</g>
<!-- Node8&#45;&gt;Node9 -->
<g id="edge8_Node000008_Node000009" class="edge">
<title>Node8&#45;&gt;Node9</title>
<g id="a_edge8_Node000008_Node000009"><a xlink:title=" ">
<path fill="none" stroke="#63b8ff" d="M1263.88,-358.25C1271.96,-358.25 1280.08,-358.25 1288.1,-358.25"/>
<polygon fill="#63b8ff" stroke="#63b8ff" points="1264.01,-354.75 1254.01,-358.25 1264.01,-361.75 1264.01,-354.75"/>
</a>
</g>
</g>
</g>
</svg>

<g id="navigator" transform="translate(0 0)" fill="#404254">
  <rect fill="#f2f5e9" fill-opacity="0.5" stroke="#606060" stroke-width=".5" x="0" y="0" width="60" height="60"/>
  <use id="zoomplus" xlink:href="#zoomPlus" x="17" y="9" onmousedown="handleZoom(evt,'in')"/>
  <use id="zoomminus" xlink:href="#zoomMin" x="42" y="9" onmousedown="handleZoom(evt,'out')"/>
  <use id="reset" xlink:href="#resetDef" x="30" y="36" onmousedown="handleReset()"/>
   <use id="arrowup" xlink:href="#arrowUp" x="0" y="0" onmousedown="handlePan(0,-1)"/>
  <use id="arrowright" xlink:href="#arrowRight" x="0" y="0" onmousedown="handlePan(1,0)"/>
  <use id="arrowdown" xlink:href="#arrowDown" x="0" y="0" onmousedown="handlePan(0,1)"/>
  <use id="arrowleft" xlink:href="#arrowLeft" x="0" y="0" onmousedown="handlePan(-1,0)"/>
</g>
<svg viewBox="0 0 15 15" width="100%" height="30px" preserveAspectRatio="xMaxYMin meet">
 <g id="arrow_out" transform="scale(0.3 0.3)">
  <a xlink:href="classcom_1_1fs_1_1starfarer_1_1api_1_1impl_1_1campaign_1_1missions_1_1cb_1_1BaseCustomBountyCreator__inherit__graph_org.svg" target="_base">
   <rect id="button" ry="5" rx="5" y="6" x="6" height="38" width="38"
        fill="#f2f5e9" fill-opacity="0.5" stroke="#606060" stroke-width="1.0"/>
   <path id="arrow"
     d="M 11.500037,31.436501 C 11.940474,20.09759 22.043105,11.32322 32.158766,21.979434 L 37.068811,17.246167 C 37.068811,17.246167 37.088388,32 37.088388,32 L 22.160133,31.978069 C 22.160133,31.978069 26.997745,27.140456 26.997745,27.140456 C 18.528582,18.264221 13.291696,25.230495 11.500037,31.436501 z"
     style="fill:#404040;"/>
  </a>
 </g>
</svg>

<style type='text/css'>
<![CDATA[
[data-mouse-over-selected='false'] { opacity: 0.7; }
[data-mouse-over-selected='true']  { opacity: 1.0; }
]]>
</style>
<script type="application/ecmascript"><![CDATA[
document.addEventListener('DOMContentLoaded', (event) => {
  highlightEdges();
  highlightAdjacentNodes();
});
]]></script>
</svg>
