<?xml version="1.0" encoding="UTF-8" standalone="no"?>
<!DOCTYPE svg PUBLIC "-//W3C//DTD SVG 1.1//EN"
 "http://www.w3.org/Graphics/SVG/1.1/DTD/svg11.dtd">
<!-- Generated by graphviz version 12.2.0 (20241103.1931)
 -->
<!-- Title: com.fs.starfarer.api.impl.campaign.intel.events.HAShipsDestroyedFactorHint Pages: 1 -->
<svg width="225pt" height="305pt"
 viewBox="0.00 0.00 225.00 304.50" xmlns="http://www.w3.org/2000/svg" xmlns:xlink="http://www.w3.org/1999/xlink">
<g id="graph0" class="graph" transform="scale(1 1) rotate(0) translate(4 300.5)">
<title>com.fs.starfarer.api.impl.campaign.intel.events.HAShipsDestroyedFactorHint</title>
<!-- Node1 -->
<g id="Node000001" class="node">
<title>Node1</title>
<g id="a_Node000001"><a xlink:title=" ">
<polygon fill="#999999" stroke="#666666" points="217,-30.5 0,-30.5 0,0 217,0 217,-30.5"/>
<text text-anchor="start" x="8" y="-17" font-family="Helvetica,sans-Serif" font-size="10.00">com.fs.starfarer.api.impl.campaign.intel.events.</text>
<text text-anchor="middle" x="108.5" y="-5.75" font-family="Helvetica,sans-Serif" font-size="10.00">HAShipsDestroyedFactorHint</text>
</a>
</g>
</g>
<!-- Node2 -->
<g id="Node000002" class="node">
<title>Node2</title>
<g id="a_Node000002"><a xlink:href="classcom_1_1fs_1_1starfarer_1_1api_1_1impl_1_1campaign_1_1intel_1_1events_1_1HAShipsDestroyedFactor.html" target="_top" xlink:title=" ">
<polygon fill="white" stroke="#666666" points="217,-97 0,-97 0,-66.5 217,-66.5 217,-97"/>
<text text-anchor="start" x="8" y="-83.5" font-family="Helvetica,sans-Serif" font-size="10.00">com.fs.starfarer.api.impl.campaign.intel.events.</text>
<text text-anchor="middle" x="108.5" y="-72.25" font-family="Helvetica,sans-Serif" font-size="10.00">HAShipsDestroyedFactor</text>
</a>
</g>
</g>
<!-- Node2&#45;&gt;Node1 -->
<g id="edge1_Node000001_Node000002" class="edge">
<title>Node2&#45;&gt;Node1</title>
<g id="a_edge1_Node000001_Node000002"><a xlink:title=" ">
<path fill="none" stroke="#63b8ff" d="M108.5,-54.81C108.5,-46.64 108.5,-37.91 108.5,-30.83"/>
<polygon fill="#63b8ff" stroke="#63b8ff" points="105,-54.6 108.5,-64.6 112,-54.6 105,-54.6"/>
</a>
</g>
</g>
<!-- Node3 -->
<g id="Node000003" class="node">
<title>Node3</title>
<g id="a_Node000003"><a xlink:href="classcom_1_1fs_1_1starfarer_1_1api_1_1impl_1_1campaign_1_1intel_1_1events_1_1BaseOneTimeFactor.html" target="_top" xlink:title=" ">
<polygon fill="white" stroke="#666666" points="217,-163.5 0,-163.5 0,-133 217,-133 217,-163.5"/>
<text text-anchor="start" x="8" y="-150" font-family="Helvetica,sans-Serif" font-size="10.00">com.fs.starfarer.api.impl.campaign.intel.events.</text>
<text text-anchor="middle" x="108.5" y="-138.75" font-family="Helvetica,sans-Serif" font-size="10.00">BaseOneTimeFactor</text>
</a>
</g>
</g>
<!-- Node3&#45;&gt;Node2 -->
<g id="edge2_Node000002_Node000003" class="edge">
<title>Node3&#45;&gt;Node2</title>
<g id="a_edge2_Node000002_Node000003"><a xlink:title=" ">
<path fill="none" stroke="#63b8ff" d="M108.5,-121.31C108.5,-113.14 108.5,-104.41 108.5,-97.33"/>
<polygon fill="#63b8ff" stroke="#63b8ff" points="105,-121.1 108.5,-131.1 112,-121.1 105,-121.1"/>
</a>
</g>
</g>
<!-- Node4 -->
<g id="Node000004" class="node">
<title>Node4</title>
<g id="a_Node000004"><a xlink:href="classcom_1_1fs_1_1starfarer_1_1api_1_1impl_1_1campaign_1_1intel_1_1events_1_1BaseEventFactor.html" target="_top" xlink:title=" ">
<polygon fill="white" stroke="#666666" points="217,-230 0,-230 0,-199.5 217,-199.5 217,-230"/>
<text text-anchor="start" x="8" y="-216.5" font-family="Helvetica,sans-Serif" font-size="10.00">com.fs.starfarer.api.impl.campaign.intel.events.</text>
<text text-anchor="middle" x="108.5" y="-205.25" font-family="Helvetica,sans-Serif" font-size="10.00">BaseEventFactor</text>
</a>
</g>
</g>
<!-- Node4&#45;&gt;Node3 -->
<g id="edge3_Node000003_Node000004" class="edge">
<title>Node4&#45;&gt;Node3</title>
<g id="a_edge3_Node000003_Node000004"><a xlink:title=" ">
<path fill="none" stroke="#63b8ff" d="M108.5,-187.81C108.5,-179.64 108.5,-170.91 108.5,-163.83"/>
<polygon fill="#63b8ff" stroke="#63b8ff" points="105,-187.6 108.5,-197.6 112,-187.6 105,-187.6"/>
</a>
</g>
</g>
<!-- Node5 -->
<g id="Node000005" class="node">
<title>Node5</title>
<g id="a_Node000005"><a xlink:href="interfacecom_1_1fs_1_1starfarer_1_1api_1_1impl_1_1campaign_1_1intel_1_1events_1_1EventFactor.html" target="_top" xlink:title=" ">
<polygon fill="white" stroke="#666666" points="217,-296.5 0,-296.5 0,-266 217,-266 217,-296.5"/>
<text text-anchor="start" x="8" y="-283" font-family="Helvetica,sans-Serif" font-size="10.00">com.fs.starfarer.api.impl.campaign.intel.events.</text>
<text text-anchor="middle" x="108.5" y="-271.75" font-family="Helvetica,sans-Serif" font-size="10.00">EventFactor</text>
</a>
</g>
</g>
<!-- Node5&#45;&gt;Node4 -->
<g id="edge4_Node000004_Node000005" class="edge">
<title>Node5&#45;&gt;Node4</title>
<g id="a_edge4_Node000004_Node000005"><a xlink:title=" ">
<path fill="none" stroke="#63b8ff" d="M108.5,-254.31C108.5,-246.14 108.5,-237.41 108.5,-230.33"/>
<polygon fill="#63b8ff" stroke="#63b8ff" points="105,-254.1 108.5,-264.1 112,-254.1 105,-254.1"/>
</a>
</g>
</g>
</g>
</svg>
