<?xml version="1.0" encoding="UTF-8" standalone="no"?>
<!DOCTYPE svg PUBLIC "-//W3C//DTD SVG 1.1//EN"
 "http://www.w3.org/Graphics/SVG/1.1/DTD/svg11.dtd">
<!-- Generated by graphviz version 7.0.5 (20221223.1930)
 -->
<!-- Title: com.fs.starfarer.api.impl.campaign.procgen.themes.SalvageSpecialAssigner.TransmitterTrapSpecialCreator Pages: 1 -->
<svg width="598pt" height="124pt"
 viewBox="0.00 0.00 598.00 124.00" xmlns="http://www.w3.org/2000/svg" xmlns:xlink="http://www.w3.org/1999/xlink">
<g id="graph0" class="graph" transform="scale(1 1) rotate(0) translate(4 120)">
<title>com.fs.starfarer.api.impl.campaign.procgen.themes.SalvageSpecialAssigner.TransmitterTrapSpecialCreator</title>
<!-- Node1 -->
<g id="node1" class="node">
<title>Node1</title>
<g id="a_node1"><a xlink:title=" ">
<polygon fill="#999999" stroke="#666666" points="590,-73 333,-73 333,-43 590,-43 590,-73"/>
<text text-anchor="start" x="341" y="-61" font-family="Helvetica,sans-Serif" font-size="10.00">com.fs.starfarer.api.impl.campaign.procgen.themes.</text>
<text text-anchor="middle" x="461.5" y="-50" font-family="Helvetica,sans-Serif" font-size="10.00">SalvageSpecialAssigner.TransmitterTrapSpecialCreator</text>
</a>
</g>
</g>
<!-- Node2 -->
<g id="node2" class="node">
<title>Node2</title>
<g id="a_node2"><a xlink:href="interfacecom_1_1fs_1_1starfarer_1_1api_1_1impl_1_1campaign_1_1procgen_1_1themes_1_1SalvageSpecialAssigner_1_1SpecialCreator.html" target="_top" xlink:title=" ">
<polygon fill="white" stroke="#bfbfbf" points="237,-116 0,-116 0,-86 237,-86 237,-116"/>
<text text-anchor="start" x="8" y="-104" font-family="Helvetica,sans-Serif" font-size="10.00">com.fs.starfarer.api.impl.campaign.procgen.themes.</text>
<text text-anchor="middle" x="118.5" y="-93" font-family="Helvetica,sans-Serif" font-size="10.00">SalvageSpecialAssigner.SpecialCreator</text>
</a>
</g>
</g>
<!-- Node2&#45;&gt;Node1 -->
<g id="edge1" class="edge">
<title>Node2&#45;&gt;Node1</title>
<path fill="none" stroke="#63b8ff" d="M248.45,-84.74C277.72,-81.05 308.73,-77.14 337.74,-73.48"/>
<polygon fill="#63b8ff" stroke="#63b8ff" points="248.32,-81.23 238.83,-85.95 249.19,-88.17 248.32,-81.23"/>
</g>
<!-- Node3 -->
<g id="node3" class="node">
<title>Node3</title>
<g id="a_node3"><a xlink:title=" ">
<polygon fill="white" stroke="#bfbfbf" points="145,-67.5 92,-67.5 92,-48.5 145,-48.5 145,-67.5"/>
<text text-anchor="middle" x="118.5" y="-55.5" font-family="Helvetica,sans-Serif" font-size="10.00">Random</text>
</a>
</g>
</g>
<!-- Node3&#45;&gt;Node1 -->
<g id="edge2" class="edge">
<title>Node3&#45;&gt;Node1</title>
<path fill="none" stroke="#9a32cd" stroke-dasharray="5,2" d="M156.77,-58C198.97,-58 270.02,-58 332.8,-58"/>
<polygon fill="#9a32cd" stroke="#9a32cd" points="156.92,-54.5 146.92,-58 156.92,-61.5 156.92,-54.5"/>
<text text-anchor="middle" x="285" y="-61" font-family="Helvetica,sans-Serif" font-size="10.00"> random</text>
</g>
<!-- Node4 -->
<g id="node4" class="node">
<title>Node4</title>
<g id="a_node4"><a xlink:href="classcom_1_1fs_1_1starfarer_1_1api_1_1util_1_1WeightedRandomPicker.html" target="_top" xlink:title=" ">
<polygon fill="white" stroke="#bfbfbf" points="200,-30 37,-30 37,0 200,0 200,-30"/>
<text text-anchor="start" x="45" y="-18" font-family="Helvetica,sans-Serif" font-size="10.00">com.fs.starfarer.api.util.</text>
<text text-anchor="middle" x="118.5" y="-7" font-family="Helvetica,sans-Serif" font-size="10.00">WeightedRandomPicker&lt; String &gt;</text>
</a>
</g>
</g>
<!-- Node4&#45;&gt;Node1 -->
<g id="edge3" class="edge">
<title>Node4&#45;&gt;Node1</title>
<path fill="none" stroke="#9a32cd" stroke-dasharray="5,2" d="M211.6,-26.61C250.46,-31.51 296.25,-37.29 337.9,-42.54"/>
<polygon fill="#9a32cd" stroke="#9a32cd" points="212.17,-23.16 201.81,-25.38 211.3,-30.1 212.17,-23.16"/>
<text text-anchor="middle" x="285" y="-43" font-family="Helvetica,sans-Serif" font-size="10.00"> factionPicker</text>
</g>
</g>
</svg>
