<?xml version="1.0" encoding="UTF-8" standalone="no"?>
<!DOCTYPE svg PUBLIC "-//W3C//DTD SVG 1.1//EN"
 "http://www.w3.org/Graphics/SVG/1.1/DTD/svg11.dtd">
<!-- Generated by graphviz version 2.44.0 ()
 -->
<!-- Title: com.fs.starfarer.api.impl.campaign.terrain.DebrisPiece Pages: 1 -->
<svg width="1520pt" height="284pt"
 viewBox="0.00 0.00 1520.00 283.50" xmlns="http://www.w3.org/2000/svg" xmlns:xlink="http://www.w3.org/1999/xlink">
<g id="graph0" class="graph" transform="scale(1 1) rotate(0) translate(4 279.5)">
<title>com.fs.starfarer.api.impl.campaign.terrain.DebrisPiece</title>
<!-- Node1 -->
<g id="node1" class="node">
<title>Node1</title>
<g id="a_node1"><a xlink:title=" ">
<polygon fill="#bfbfbf" stroke="black" points="1317,-151.5 1317,-181.5 1512,-181.5 1512,-151.5 1317,-151.5"/>
<text text-anchor="start" x="1325" y="-169.5" font-family="Helvetica,sans-Serif" font-size="10.00">com.fs.starfarer.api.impl.campaign.terrain.</text>
<text text-anchor="middle" x="1414.5" y="-158.5" font-family="Helvetica,sans-Serif" font-size="10.00">DebrisPiece</text>
</a>
</g>
</g>
<!-- Node2 -->
<g id="node2" class="node">
<title>Node2</title>
<g id="a_node2"><a xlink:href="classcom_1_1fs_1_1starfarer_1_1api_1_1util_1_1FaderUtil.html" target="_top" xlink:title=" ">
<polygon fill="none" stroke="black" points="782,-230.5 782,-260.5 898,-260.5 898,-230.5 782,-230.5"/>
<text text-anchor="start" x="790" y="-248.5" font-family="Helvetica,sans-Serif" font-size="10.00">com.fs.starfarer.api.util.</text>
<text text-anchor="middle" x="840" y="-237.5" font-family="Helvetica,sans-Serif" font-size="10.00">FaderUtil</text>
</a>
</g>
</g>
<!-- Node2&#45;&gt;Node1 -->
<g id="edge1" class="edge">
<title>Node2&#45;&gt;Node1</title>
<path fill="none" stroke="#9a32cd" stroke-dasharray="5,2" d="M908.38,-241.07C939.35,-238.94 976.55,-236.26 1010,-233.5 1104.76,-225.69 1129.25,-229.38 1223,-213.5 1270.36,-205.48 1323.34,-192.04 1361.38,-181.58"/>
<polygon fill="#9a32cd" stroke="#9a32cd" points="907.87,-237.59 898.13,-241.77 908.35,-244.58 907.87,-237.59"/>
<text text-anchor="middle" x="1125.5" y="-267.5" font-family="Helvetica,sans-Serif" font-size="10.00"> fader</text>
<text text-anchor="middle" x="1125.5" y="-256.5" font-family="Helvetica,sans-Serif" font-size="10.00">glowBounce</text>
<text text-anchor="middle" x="1125.5" y="-245.5" font-family="Helvetica,sans-Serif" font-size="10.00">glowFader</text>
<text text-anchor="middle" x="1125.5" y="-234.5" font-family="Helvetica,sans-Serif" font-size="10.00">indFader</text>
</g>
<!-- Node3 -->
<g id="node3" class="node">
<title>Node3</title>
<g id="a_node3"><a xlink:href="classcom_1_1fs_1_1starfarer_1_1api_1_1impl_1_1campaign_1_1terrain_1_1DebrisFieldTerrainPlugin.html" target="_top" xlink:title=" ">
<polygon fill="none" stroke="black" points="1028,-173.5 1028,-203.5 1223,-203.5 1223,-173.5 1028,-173.5"/>
<text text-anchor="start" x="1036" y="-191.5" font-family="Helvetica,sans-Serif" font-size="10.00">com.fs.starfarer.api.impl.campaign.terrain.</text>
<text text-anchor="middle" x="1125.5" y="-180.5" font-family="Helvetica,sans-Serif" font-size="10.00">DebrisFieldTerrainPlugin</text>
</a>
</g>
</g>
<!-- Node2&#45;&gt;Node3 -->
<g id="edge11" class="edge">
<title>Node2&#45;&gt;Node3</title>
<path fill="none" stroke="#9a32cd" stroke-dasharray="5,2" d="M908.02,-232.03C950.61,-223.46 1005.81,-212.36 1049.8,-203.52"/>
<polygon fill="#9a32cd" stroke="#9a32cd" points="907.14,-228.63 898.03,-234.03 908.52,-235.49 907.14,-228.63"/>
<text text-anchor="middle" x="989" y="-221.5" font-family="Helvetica,sans-Serif" font-size="10.00"> expander</text>
</g>
<!-- Node3&#45;&gt;Node1 -->
<g id="edge2" class="edge">
<title>Node3&#45;&gt;Node1</title>
<path fill="none" stroke="#9a32cd" stroke-dasharray="5,2" d="M1233.25,-180.32C1260.59,-178.22 1289.85,-175.98 1316.67,-173.92"/>
<polygon fill="#9a32cd" stroke="#9a32cd" points="1232.97,-176.83 1223.26,-181.08 1233.5,-183.81 1232.97,-176.83"/>
<text text-anchor="middle" x="1270" y="-181.5" font-family="Helvetica,sans-Serif" font-size="10.00"> field</text>
</g>
<!-- Node4 -->
<g id="node4" class="node">
<title>Node4</title>
<g id="a_node4"><a xlink:href="classcom_1_1fs_1_1starfarer_1_1api_1_1impl_1_1campaign_1_1terrain_1_1BaseRingTerrain.html" target="_top" xlink:title=" ">
<polygon fill="none" stroke="black" points="742.5,-71.5 742.5,-101.5 937.5,-101.5 937.5,-71.5 742.5,-71.5"/>
<text text-anchor="start" x="750.5" y="-89.5" font-family="Helvetica,sans-Serif" font-size="10.00">com.fs.starfarer.api.impl.campaign.terrain.</text>
<text text-anchor="middle" x="840" y="-78.5" font-family="Helvetica,sans-Serif" font-size="10.00">BaseRingTerrain</text>
</a>
</g>
</g>
<!-- Node4&#45;&gt;Node3 -->
<g id="edge3" class="edge">
<title>Node4&#45;&gt;Node3</title>
<path fill="none" stroke="midnightblue" d="M911.45,-104.51C924.46,-108.58 937.79,-113.27 950,-118.5 986.79,-134.25 990.96,-148.34 1028,-163.5 1037.13,-167.24 1046.98,-170.55 1056.77,-173.44"/>
<polygon fill="midnightblue" stroke="midnightblue" points="912.17,-101.07 901.58,-101.51 910.14,-107.77 912.17,-101.07"/>
</g>
<!-- Node5 -->
<g id="node5" class="node">
<title>Node5</title>
<g id="a_node5"><a xlink:href="classcom_1_1fs_1_1starfarer_1_1api_1_1impl_1_1campaign_1_1terrain_1_1BaseTerrain.html" target="_top" xlink:title=" ">
<polygon fill="none" stroke="black" points="448.5,-0.5 448.5,-30.5 643.5,-30.5 643.5,-0.5 448.5,-0.5"/>
<text text-anchor="start" x="456.5" y="-18.5" font-family="Helvetica,sans-Serif" font-size="10.00">com.fs.starfarer.api.impl.campaign.terrain.</text>
<text text-anchor="middle" x="546" y="-7.5" font-family="Helvetica,sans-Serif" font-size="10.00">BaseTerrain</text>
</a>
</g>
</g>
<!-- Node5&#45;&gt;Node4 -->
<g id="edge4" class="edge">
<title>Node5&#45;&gt;Node4</title>
<path fill="none" stroke="midnightblue" d="M620.56,-32.91C629.8,-35.12 639.12,-37.35 648,-39.5 691.65,-50.06 740.85,-62.17 778.39,-71.45"/>
<polygon fill="midnightblue" stroke="midnightblue" points="621.13,-29.45 610.59,-30.53 619.51,-36.25 621.13,-29.45"/>
</g>
<!-- Node6 -->
<g id="node6" class="node">
<title>Node6</title>
<g id="a_node6"><a xlink:href="interfacecom_1_1fs_1_1starfarer_1_1api_1_1campaign_1_1CampaignTerrainPlugin.html" target="_top" xlink:title=" ">
<polygon fill="none" stroke="black" points="206,-0.5 206,-30.5 352,-30.5 352,-0.5 206,-0.5"/>
<text text-anchor="start" x="214" y="-18.5" font-family="Helvetica,sans-Serif" font-size="10.00">com.fs.starfarer.api.campaign.</text>
<text text-anchor="middle" x="279" y="-7.5" font-family="Helvetica,sans-Serif" font-size="10.00">CampaignTerrainPlugin</text>
</a>
</g>
</g>
<!-- Node6&#45;&gt;Node5 -->
<g id="edge5" class="edge">
<title>Node6&#45;&gt;Node5</title>
<path fill="none" stroke="midnightblue" d="M362.3,-15.5C389.47,-15.5 419.93,-15.5 448.09,-15.5"/>
<polygon fill="midnightblue" stroke="midnightblue" points="362.06,-12 352.06,-15.5 362.06,-19 362.06,-12"/>
</g>
<!-- Node7 -->
<g id="node7" class="node">
<title>Node7</title>
<g id="a_node7"><a xlink:href="interfacecom_1_1fs_1_1starfarer_1_1api_1_1campaign_1_1SectorEntityToken.html" target="_top" xlink:title=" ">
<polygon fill="none" stroke="black" points="206,-58.5 206,-88.5 352,-88.5 352,-58.5 206,-58.5"/>
<text text-anchor="start" x="214" y="-76.5" font-family="Helvetica,sans-Serif" font-size="10.00">com.fs.starfarer.api.campaign.</text>
<text text-anchor="middle" x="279" y="-65.5" font-family="Helvetica,sans-Serif" font-size="10.00">SectorEntityToken</text>
</a>
</g>
</g>
<!-- Node7&#45;&gt;Node5 -->
<g id="edge6" class="edge">
<title>Node7&#45;&gt;Node5</title>
<path fill="none" stroke="#9a32cd" stroke-dasharray="5,2" d="M358.44,-56.33C395.84,-48.15 440.17,-38.44 476.24,-30.55"/>
<polygon fill="#9a32cd" stroke="#9a32cd" points="357.61,-52.93 348.59,-58.49 359.11,-59.77 357.61,-52.93"/>
<text text-anchor="middle" x="398" y="-56.5" font-family="Helvetica,sans-Serif" font-size="10.00"> entity</text>
</g>
<!-- Node10 -->
<g id="node10" class="node">
<title>Node10</title>
<g id="a_node10"><a xlink:title=" ">
<polygon fill="none" stroke="#bfbfbf" points="448.5,-98.5 448.5,-128.5 643.5,-128.5 643.5,-98.5 448.5,-98.5"/>
<text text-anchor="start" x="456.5" y="-116.5" font-family="Helvetica,sans-Serif" font-size="10.00">com.fs.starfarer.api.impl.campaign.terrain.</text>
<text text-anchor="middle" x="546" y="-105.5" font-family="Helvetica,sans-Serif" font-size="10.00">BaseRingTerrain.RingParams</text>
</a>
</g>
</g>
<!-- Node7&#45;&gt;Node10 -->
<g id="edge10" class="edge">
<title>Node7&#45;&gt;Node10</title>
<path fill="none" stroke="#9a32cd" stroke-dasharray="5,2" d="M362.3,-85.92C389.47,-90.02 419.93,-94.62 448.09,-98.87"/>
<polygon fill="#9a32cd" stroke="#9a32cd" points="362.47,-82.41 352.06,-84.38 361.43,-89.33 362.47,-82.41"/>
<text text-anchor="middle" x="398" y="-98.5" font-family="Helvetica,sans-Serif" font-size="10.00"> relatedEntity</text>
</g>
<!-- Node8 -->
<g id="node8" class="node">
<title>Node8</title>
<g id="a_node8"><a xlink:href="interfacecom_1_1fs_1_1starfarer_1_1api_1_1campaign_1_1rules_1_1HasMemory.html" target="_top" xlink:title=" ">
<polygon fill="none" stroke="black" points="0,-58.5 0,-88.5 169,-88.5 169,-58.5 0,-58.5"/>
<text text-anchor="start" x="8" y="-76.5" font-family="Helvetica,sans-Serif" font-size="10.00">com.fs.starfarer.api.campaign.rules.</text>
<text text-anchor="middle" x="84.5" y="-65.5" font-family="Helvetica,sans-Serif" font-size="10.00">HasMemory</text>
</a>
</g>
</g>
<!-- Node8&#45;&gt;Node7 -->
<g id="edge7" class="edge">
<title>Node8&#45;&gt;Node7</title>
<path fill="none" stroke="midnightblue" d="M179.21,-73.5C188.2,-73.5 197.21,-73.5 205.95,-73.5"/>
<polygon fill="midnightblue" stroke="midnightblue" points="179.09,-70 169.09,-73.5 179.09,-77 179.09,-70"/>
</g>
<!-- Node9 -->
<g id="node9" class="node">
<title>Node9</title>
<g id="a_node9"><a xlink:title=" ">
<polygon fill="none" stroke="#bfbfbf" points="449,-49.5 449,-79.5 643,-79.5 643,-49.5 449,-49.5"/>
<text text-anchor="start" x="457" y="-67.5" font-family="Helvetica,sans-Serif" font-size="10.00">EnumSet&lt; com.fs.starfarer.api.campaign.</text>
<text text-anchor="middle" x="546" y="-56.5" font-family="Helvetica,sans-Serif" font-size="10.00">CampaignEngineLayers &gt;</text>
</a>
</g>
</g>
<!-- Node9&#45;&gt;Node4 -->
<g id="edge8" class="edge">
<title>Node9&#45;&gt;Node4</title>
<path fill="none" stroke="#9a32cd" stroke-dasharray="5,2" d="M653.24,-64.39C672.8,-64.95 693.04,-65.92 712,-67.5 723.77,-68.48 736.12,-69.87 748.29,-71.46"/>
<polygon fill="#9a32cd" stroke="#9a32cd" points="653.17,-60.89 643.08,-64.14 652.99,-67.89 653.17,-60.89"/>
<text text-anchor="middle" x="689" y="-70.5" font-family="Helvetica,sans-Serif" font-size="10.00"> layers</text>
</g>
<!-- Node10&#45;&gt;Node4 -->
<g id="edge9" class="edge">
<title>Node10&#45;&gt;Node4</title>
<path fill="none" stroke="#9a32cd" stroke-dasharray="5,2" d="M653.97,-103.61C682.92,-100.93 714.09,-98.05 742.44,-95.43"/>
<polygon fill="#9a32cd" stroke="#9a32cd" points="653.46,-100.14 643.83,-104.55 654.11,-107.11 653.46,-100.14"/>
<text text-anchor="middle" x="689" y="-105.5" font-family="Helvetica,sans-Serif" font-size="10.00"> params</text>
</g>
<!-- Node12 -->
<g id="node12" class="node">
<title>Node12</title>
<g id="a_node12"><a xlink:title=" ">
<polygon fill="none" stroke="#bfbfbf" points="736.5,-127.5 736.5,-157.5 943.5,-157.5 943.5,-127.5 736.5,-127.5"/>
<text text-anchor="start" x="744.5" y="-145.5" font-family="Helvetica,sans-Serif" font-size="10.00">com.fs.starfarer.api.impl.campaign.terrain.</text>
<text text-anchor="middle" x="840" y="-134.5" font-family="Helvetica,sans-Serif" font-size="10.00">DebrisFieldTerrainPlugin.DebrisFieldParams</text>
</a>
</g>
</g>
<!-- Node10&#45;&gt;Node12 -->
<g id="edge14" class="edge">
<title>Node10&#45;&gt;Node12</title>
<path fill="none" stroke="midnightblue" d="M654.04,-124.13C680.94,-126.8 709.74,-129.66 736.42,-132.31"/>
<polygon fill="midnightblue" stroke="midnightblue" points="654.12,-120.62 643.83,-123.12 653.43,-127.59 654.12,-120.62"/>
</g>
<!-- Node11 -->
<g id="node11" class="node">
<title>Node11</title>
<g id="a_node11"><a xlink:title=" ">
<polygon fill="none" stroke="#bfbfbf" points="730,-176.5 730,-206.5 950,-206.5 950,-176.5 730,-176.5"/>
<text text-anchor="start" x="738" y="-194.5" font-family="Helvetica,sans-Serif" font-size="10.00">List&lt; com.fs.starfarer.api.impl.campaign.terrain.</text>
<text text-anchor="middle" x="840" y="-183.5" font-family="Helvetica,sans-Serif" font-size="10.00">DebrisPiece &gt;</text>
</a>
</g>
</g>
<!-- Node11&#45;&gt;Node3 -->
<g id="edge12" class="edge">
<title>Node11&#45;&gt;Node3</title>
<path fill="none" stroke="#9a32cd" stroke-dasharray="5,2" d="M960.25,-189.59C962.86,-189.56 965.44,-189.53 968,-189.5 987.29,-189.29 1007.92,-189.11 1027.66,-188.98"/>
<polygon fill="#9a32cd" stroke="#9a32cd" points="960.07,-186.09 950.11,-189.72 960.15,-193.09 960.07,-186.09"/>
<text text-anchor="middle" x="989" y="-192.5" font-family="Helvetica,sans-Serif" font-size="10.00"> pieces</text>
</g>
<!-- Node12&#45;&gt;Node3 -->
<g id="edge13" class="edge">
<title>Node12&#45;&gt;Node3</title>
<path fill="none" stroke="#9a32cd" stroke-dasharray="5,2" d="M943.91,-159.2C972.69,-163.87 1003.8,-168.92 1031.95,-173.48"/>
<polygon fill="#9a32cd" stroke="#9a32cd" points="944.26,-155.71 933.83,-157.56 943.14,-162.62 944.26,-155.71"/>
<text text-anchor="middle" x="989" y="-172.5" font-family="Helvetica,sans-Serif" font-size="10.00"> params</text>
</g>
<!-- Node13 -->
<g id="node13" class="node">
<title>Node13</title>
<g id="a_node13"><a xlink:title=" ">
<polygon fill="none" stroke="#bfbfbf" points="526.5,-197 526.5,-216 565.5,-216 565.5,-197 526.5,-197"/>
<text text-anchor="middle" x="546" y="-204" font-family="Helvetica,sans-Serif" font-size="10.00">Color</text>
</a>
</g>
</g>
<!-- Node13&#45;&gt;Node12 -->
<g id="edge15" class="edge">
<title>Node13&#45;&gt;Node12</title>
<path fill="none" stroke="#9a32cd" stroke-dasharray="5,2" d="M575.53,-201.55C595.8,-197.93 623.64,-192.76 648,-187.5 684.67,-179.59 693.5,-176.14 730,-167.5 743.79,-164.24 758.58,-160.8 772.68,-157.56"/>
<polygon fill="#9a32cd" stroke="#9a32cd" points="574.91,-198.11 565.67,-203.29 576.13,-205 574.91,-198.11"/>
<text text-anchor="middle" x="689" y="-185.5" font-family="Helvetica,sans-Serif" font-size="10.00"> glowColor</text>
</g>
<!-- Node14 -->
<g id="node14" class="node">
<title>Node14</title>
<g id="a_node14"><a xlink:title=" ">
<polygon fill="none" stroke="#bfbfbf" points="444,-147.5 444,-177.5 648,-177.5 648,-147.5 444,-147.5"/>
<text text-anchor="start" x="452" y="-165.5" font-family="Helvetica,sans-Serif" font-size="10.00">com.fs.starfarer.api.impl.campaign.terrain.</text>
<text text-anchor="middle" x="546" y="-154.5" font-family="Helvetica,sans-Serif" font-size="10.00">DebrisFieldTerrainPlugin.DebrisFieldSource</text>
</a>
</g>
</g>
<!-- Node14&#45;&gt;Node12 -->
<g id="edge16" class="edge">
<title>Node14&#45;&gt;Node12</title>
<path fill="none" stroke="#9a32cd" stroke-dasharray="5,2" d="M658.42,-154.87C684.04,-153.11 711.16,-151.26 736.39,-149.53"/>
<polygon fill="#9a32cd" stroke="#9a32cd" points="658.05,-151.39 648.31,-155.56 658.52,-158.37 658.05,-151.39"/>
<text text-anchor="middle" x="689" y="-156.5" font-family="Helvetica,sans-Serif" font-size="10.00"> source</text>
</g>
<!-- Node15 -->
<g id="node15" class="node">
<title>Node15</title>
<g id="a_node15"><a xlink:title=" ">
<polygon fill="none" stroke="#bfbfbf" points="1099,-135 1099,-154 1152,-154 1152,-135 1099,-135"/>
<text text-anchor="middle" x="1125.5" y="-142" font-family="Helvetica,sans-Serif" font-size="10.00">Vector2f</text>
</a>
</g>
</g>
<!-- Node15&#45;&gt;Node1 -->
<g id="edge17" class="edge">
<title>Node15&#45;&gt;Node1</title>
<path fill="none" stroke="#9a32cd" stroke-dasharray="5,2" d="M1162.46,-144.3C1197.41,-144.41 1251.94,-145.34 1299,-149.5 1305.31,-150.06 1311.79,-150.74 1318.32,-151.5"/>
<polygon fill="#9a32cd" stroke="#9a32cd" points="1162.28,-140.8 1152.27,-144.3 1162.27,-147.8 1162.28,-140.8"/>
<text text-anchor="middle" x="1270" y="-163.5" font-family="Helvetica,sans-Serif" font-size="10.00"> loc</text>
<text text-anchor="middle" x="1270" y="-152.5" font-family="Helvetica,sans-Serif" font-size="10.00">vel</text>
</g>
<!-- Node16 -->
<g id="node16" class="node">
<title>Node16</title>
<g id="a_node16"><a xlink:href="interfacecom_1_1fs_1_1starfarer_1_1api_1_1graphics_1_1SpriteAPI.html" target="_top" xlink:title=" ">
<polygon fill="none" stroke="black" points="1055.5,-73.5 1055.5,-103.5 1195.5,-103.5 1195.5,-73.5 1055.5,-73.5"/>
<text text-anchor="start" x="1063.5" y="-91.5" font-family="Helvetica,sans-Serif" font-size="10.00">com.fs.starfarer.api.graphics.</text>
<text text-anchor="middle" x="1125.5" y="-80.5" font-family="Helvetica,sans-Serif" font-size="10.00">SpriteAPI</text>
</a>
</g>
</g>
<!-- Node16&#45;&gt;Node1 -->
<g id="edge18" class="edge">
<title>Node16&#45;&gt;Node1</title>
<path fill="none" stroke="#9a32cd" stroke-dasharray="5,2" d="M1205.94,-91.82C1235.61,-94.58 1269.3,-99.57 1299,-108.5 1332.29,-118.51 1367.53,-137.86 1389.97,-151.45"/>
<polygon fill="#9a32cd" stroke="#9a32cd" points="1205.89,-88.3 1195.63,-90.93 1205.29,-95.28 1205.89,-88.3"/>
<text text-anchor="middle" x="1270" y="-133.5" font-family="Helvetica,sans-Serif" font-size="10.00"> glow</text>
<text text-anchor="middle" x="1270" y="-122.5" font-family="Helvetica,sans-Serif" font-size="10.00">shadowMask</text>
<text text-anchor="middle" x="1270" y="-111.5" font-family="Helvetica,sans-Serif" font-size="10.00">sprite</text>
</g>
</g>
</svg>
