<?xml version="1.0" encoding="UTF-8" standalone="no"?>
<!DOCTYPE svg PUBLIC "-//W3C//DTD SVG 1.1//EN"
 "http://www.w3.org/Graphics/SVG/1.1/DTD/svg11.dtd">
<!-- Generated by graphviz version 9.0.0 (20230911.1827)
 -->
<!-- Title: com.fs.starfarer.api.impl.campaign.terrain.AsteroidFieldTerrainPlugin Pages: 1 -->
<svg width="1327pt" height="171pt"
 viewBox="0.00 0.00 1327.00 170.50" xmlns="http://www.w3.org/2000/svg" xmlns:xlink="http://www.w3.org/1999/xlink">
<g id="graph0" class="graph" transform="scale(1 1) rotate(0) translate(4 166.5)">
<title>com.fs.starfarer.api.impl.campaign.terrain.AsteroidFieldTerrainPlugin</title>
<!-- Node1 -->
<g id="Node000001" class="node">
<title>Node1</title>
<g id="a_Node000001"><a xlink:title=" ">
<polygon fill="#999999" stroke="#666666" points="1319,-71.5 1124.5,-71.5 1124.5,-41 1319,-41 1319,-71.5"/>
<text text-anchor="start" x="1132.5" y="-58" font-family="Helvetica,sans-Serif" font-size="10.00">com.fs.starfarer.api.impl.campaign.terrain.</text>
<text text-anchor="middle" x="1221.75" y="-46.75" font-family="Helvetica,sans-Serif" font-size="10.00">AsteroidFieldTerrainPlugin</text>
</a>
</g>
</g>
<!-- Node2 -->
<g id="Node000002" class="node">
<title>Node2</title>
<g id="a_Node000002"><a xlink:href="classcom_1_1fs_1_1starfarer_1_1api_1_1impl_1_1campaign_1_1terrain_1_1AsteroidBeltTerrainPlugin.html" target="_top" xlink:title=" ">
<polygon fill="white" stroke="#666666" points="1087.5,-107.5 893,-107.5 893,-77 1087.5,-77 1087.5,-107.5"/>
<text text-anchor="start" x="901" y="-94" font-family="Helvetica,sans-Serif" font-size="10.00">com.fs.starfarer.api.impl.campaign.terrain.</text>
<text text-anchor="middle" x="990.25" y="-82.75" font-family="Helvetica,sans-Serif" font-size="10.00">AsteroidBeltTerrainPlugin</text>
</a>
</g>
</g>
<!-- Node2&#45;&gt;Node1 -->
<g id="edge1_Node000001_Node000002" class="edge">
<title>Node2&#45;&gt;Node1</title>
<g id="a_edge1_Node000001_Node000002"><a xlink:title=" ">
<path fill="none" stroke="#63b8ff" d="M1099.23,-75.31C1107.56,-74 1115.95,-72.69 1124.2,-71.4"/>
<polygon fill="#63b8ff" stroke="#63b8ff" points="1098.75,-71.85 1089.41,-76.85 1099.83,-78.76 1098.75,-71.85"/>
</a>
</g>
</g>
<!-- Node3 -->
<g id="Node000003" class="node">
<title>Node3</title>
<g id="a_Node000003"><a xlink:href="classcom_1_1fs_1_1starfarer_1_1api_1_1impl_1_1campaign_1_1terrain_1_1BaseRingTerrain.html" target="_top" xlink:title=" ">
<polygon fill="white" stroke="#666666" points="623.5,-162.5 429,-162.5 429,-132 623.5,-132 623.5,-162.5"/>
<text text-anchor="start" x="437" y="-149" font-family="Helvetica,sans-Serif" font-size="10.00">com.fs.starfarer.api.impl.campaign.terrain.</text>
<text text-anchor="middle" x="526.25" y="-137.75" font-family="Helvetica,sans-Serif" font-size="10.00">BaseRingTerrain</text>
</a>
</g>
</g>
<!-- Node3&#45;&gt;Node2 -->
<g id="edge2_Node000002_Node000003" class="edge">
<title>Node3&#45;&gt;Node2</title>
<g id="a_edge2_Node000002_Node000003"><a xlink:title=" ">
<path fill="none" stroke="#63b8ff" d="M634.92,-135.95C703.66,-128.54 794.64,-118.38 875,-108.25 880.76,-107.52 886.69,-106.76 892.66,-105.97"/>
<polygon fill="#63b8ff" stroke="#63b8ff" points="634.72,-132.45 625.15,-137 635.47,-139.41 634.72,-132.45"/>
</a>
</g>
</g>
<!-- Node4 -->
<g id="Node000004" class="node">
<title>Node4</title>
<g id="a_Node000004"><a xlink:href="classcom_1_1fs_1_1starfarer_1_1api_1_1impl_1_1campaign_1_1terrain_1_1BaseTerrain.html" target="_top" xlink:title=" ">
<polygon fill="white" stroke="#666666" points="348,-162.5 153.5,-162.5 153.5,-132 348,-132 348,-162.5"/>
<text text-anchor="start" x="161.5" y="-149" font-family="Helvetica,sans-Serif" font-size="10.00">com.fs.starfarer.api.impl.campaign.terrain.</text>
<text text-anchor="middle" x="250.75" y="-137.75" font-family="Helvetica,sans-Serif" font-size="10.00">BaseTerrain</text>
</a>
</g>
</g>
<!-- Node4&#45;&gt;Node3 -->
<g id="edge3_Node000003_Node000004" class="edge">
<title>Node4&#45;&gt;Node3</title>
<g id="a_edge3_Node000003_Node000004"><a xlink:title=" ">
<path fill="none" stroke="#63b8ff" d="M359.63,-147.25C382.46,-147.25 406.4,-147.25 428.77,-147.25"/>
<polygon fill="#63b8ff" stroke="#63b8ff" points="359.69,-143.75 349.69,-147.25 359.69,-150.75 359.69,-143.75"/>
</a>
</g>
</g>
<!-- Node5 -->
<g id="Node000005" class="node">
<title>Node5</title>
<g id="a_Node000005"><a xlink:title=" ">
<polygon fill="white" stroke="#666666" points="116.5,-156.88 0,-156.88 0,-137.62 116.5,-137.62 116.5,-156.88"/>
<text text-anchor="middle" x="58.25" y="-143.38" font-family="Helvetica,sans-Serif" font-size="10.00">CampaignTerrainPlugin</text>
</a>
</g>
</g>
<!-- Node5&#45;&gt;Node4 -->
<g id="edge4_Node000004_Node000005" class="edge">
<title>Node5&#45;&gt;Node4</title>
<g id="a_edge4_Node000004_Node000005"><a xlink:title=" ">
<path fill="none" stroke="#63b8ff" d="M128.21,-147.25C136.35,-147.25 144.76,-147.25 153.19,-147.25"/>
<polygon fill="#63b8ff" stroke="#63b8ff" points="128.44,-143.75 118.44,-147.25 128.44,-150.75 128.44,-143.75"/>
</a>
</g>
</g>
<!-- Node6 -->
<g id="Node000006" class="node">
<title>Node6</title>
<g id="a_Node000006"><a xlink:title=" ">
<polygon fill="white" stroke="#666666" points="348,-64.5 153.5,-64.5 153.5,-34 348,-34 348,-64.5"/>
<text text-anchor="start" x="161.5" y="-51" font-family="Helvetica,sans-Serif" font-size="10.00">com.fs.starfarer.api.impl.campaign.terrain.</text>
<text text-anchor="middle" x="250.75" y="-39.75" font-family="Helvetica,sans-Serif" font-size="10.00">BaseRingTerrain.RingParams</text>
</a>
</g>
</g>
<!-- Node6&#45;&gt;Node3 -->
<g id="edge5_Node000003_Node000006" class="edge">
<title>Node6&#45;&gt;Node3</title>
<g id="a_edge5_Node000003_Node000006"><a xlink:title=" ">
<path fill="none" stroke="#9a32cd" stroke-dasharray="5,2" d="M292.98,-69.82C326.23,-85.8 374.53,-107.61 418.5,-122.25 428.7,-125.65 439.6,-128.76 450.39,-131.55"/>
<polygon fill="#9a32cd" stroke="#9a32cd" points="294.62,-66.73 284.1,-65.52 291.57,-73.03 294.62,-66.73"/>
</a>
</g>
<text text-anchor="middle" x="383.25" y="-117" font-family="Helvetica,sans-Serif" font-size="10.00" fill="grey"> params</text>
</g>
<!-- Node8 -->
<g id="Node000008" class="node">
<title>Node8</title>
<g id="a_Node000008"><a xlink:title=" ">
<polygon fill="white" stroke="#666666" points="634,-64.5 418.5,-64.5 418.5,-34 634,-34 634,-64.5"/>
<text text-anchor="start" x="426.5" y="-51" font-family="Helvetica,sans-Serif" font-size="10.00">com.fs.starfarer.api.impl.campaign.terrain.</text>
<text text-anchor="middle" x="526.25" y="-39.75" font-family="Helvetica,sans-Serif" font-size="10.00">AsteroidBeltTerrainPlugin.AsteroidBeltParams</text>
</a>
</g>
</g>
<!-- Node6&#45;&gt;Node8 -->
<g id="edge8_Node000008_Node000006" class="edge">
<title>Node6&#45;&gt;Node8</title>
<g id="a_edge8_Node000008_Node000006"><a xlink:title=" ">
<path fill="none" stroke="#63b8ff" d="M359.42,-49.25C378.7,-49.25 398.79,-49.25 418.05,-49.25"/>
<polygon fill="#63b8ff" stroke="#63b8ff" points="359.69,-45.75 349.69,-49.25 359.69,-52.75 359.69,-45.75"/>
</a>
</g>
</g>
<!-- Node9 -->
<g id="Node000009" class="node">
<title>Node9</title>
<g id="a_Node000009"><a xlink:title=" ">
<polygon fill="white" stroke="#666666" points="875,-30.5 652,-30.5 652,0 875,0 875,-30.5"/>
<text text-anchor="start" x="660" y="-17" font-family="Helvetica,sans-Serif" font-size="10.00">com.fs.starfarer.api.impl.campaign.terrain.</text>
<text text-anchor="middle" x="763.5" y="-5.75" font-family="Helvetica,sans-Serif" font-size="10.00">AsteroidFieldTerrainPlugin.AsteroidFieldParams</text>
</a>
</g>
</g>
<!-- Node6&#45;&gt;Node9 -->
<g id="edge10_Node000009_Node000006" class="edge">
<title>Node6&#45;&gt;Node9</title>
<g id="a_edge10_Node000009_Node000006"><a xlink:title=" ">
<path fill="none" stroke="#63b8ff" d="M358.87,-32C378.65,-29.33 399.17,-26.92 418.5,-25.25 496.18,-18.55 584.06,-16.08 651.55,-15.27"/>
<polygon fill="#63b8ff" stroke="#63b8ff" points="358.58,-28.5 349.15,-33.34 359.53,-35.44 358.58,-28.5"/>
</a>
</g>
</g>
<!-- Node7 -->
<g id="Node000007" class="node">
<title>Node7</title>
<g id="a_Node000007"><a xlink:href="interfacecom_1_1fs_1_1starfarer_1_1api_1_1impl_1_1campaign_1_1terrain_1_1AsteroidSource.html" target="_top" xlink:title=" ">
<polygon fill="white" stroke="#666666" points="623.5,-113.5 429,-113.5 429,-83 623.5,-83 623.5,-113.5"/>
<text text-anchor="start" x="437" y="-100" font-family="Helvetica,sans-Serif" font-size="10.00">com.fs.starfarer.api.impl.campaign.terrain.</text>
<text text-anchor="middle" x="526.25" y="-88.75" font-family="Helvetica,sans-Serif" font-size="10.00">AsteroidSource</text>
</a>
</g>
</g>
<!-- Node7&#45;&gt;Node2 -->
<g id="edge6_Node000002_Node000007" class="edge">
<title>Node7&#45;&gt;Node2</title>
<g id="a_edge6_Node000002_Node000007"><a xlink:title=" ">
<path fill="none" stroke="#63b8ff" d="M635.13,-96.85C713.12,-95.84 817.58,-94.48 892.81,-93.5"/>
<polygon fill="#63b8ff" stroke="#63b8ff" points="635.29,-93.35 625.33,-96.98 635.38,-100.35 635.29,-93.35"/>
</a>
</g>
</g>
<!-- Node8&#45;&gt;Node2 -->
<g id="edge7_Node000002_Node000008" class="edge">
<title>Node8&#45;&gt;Node2</title>
<g id="a_edge7_Node000002_Node000008"><a xlink:title=" ">
<path fill="none" stroke="#9a32cd" stroke-dasharray="5,2" d="M645.35,-57.79C712.7,-62.96 798.66,-70.09 875,-78 880.77,-78.6 886.69,-79.24 892.67,-79.92"/>
<polygon fill="#9a32cd" stroke="#9a32cd" points="646.03,-54.33 635.79,-57.06 645.49,-61.31 646.03,-54.33"/>
</a>
</g>
<text text-anchor="middle" x="763.5" y="-80" font-family="Helvetica,sans-Serif" font-size="10.00" fill="grey"> params</text>
</g>
<!-- Node9&#45;&gt;Node1 -->
<g id="edge9_Node000001_Node000009" class="edge">
<title>Node9&#45;&gt;Node1</title>
<g id="a_edge9_Node000001_Node000009"><a xlink:title=" ">
<path fill="none" stroke="#9a32cd" stroke-dasharray="5,2" d="M886.55,-26.22C961.03,-32.91 1054.93,-41.35 1124.21,-47.57"/>
<polygon fill="#9a32cd" stroke="#9a32cd" points="887.02,-22.75 876.74,-25.34 886.39,-29.72 887.02,-22.75"/>
</a>
</g>
<text text-anchor="middle" x="990.25" y="-46" font-family="Helvetica,sans-Serif" font-size="10.00" fill="grey"> params</text>
</g>
</g>
</svg>
