<?xml version="1.0" encoding="UTF-8" standalone="no"?>
<!DOCTYPE svg PUBLIC "-//W3C//DTD SVG 1.1//EN"
 "http://www.w3.org/Graphics/SVG/1.1/DTD/svg11.dtd">
<!-- Generated by graphviz version 2.49.3 (20211027.1501)
 -->
<!-- Title: com.fs.starfarer.api.impl.campaign.missions.DisruptCompetitorMission Pages: 1 -->
<svg width="2449pt" height="808pt"
 viewBox="0.00 0.00 2449.00 808.00" xmlns="http://www.w3.org/2000/svg" xmlns:xlink="http://www.w3.org/1999/xlink">
<g id="graph0" class="graph" transform="scale(1 1) rotate(0) translate(4 804)">
<title>com.fs.starfarer.api.impl.campaign.missions.DisruptCompetitorMission</title>
<!-- Node1 -->
<g id="node1" class="node">
<title>Node1</title>
<g id="a_node1"><a xlink:title=" ">
<polygon fill="#bfbfbf" stroke="black" points="2234,-720.5 2234,-750.5 2441,-750.5 2441,-720.5 2234,-720.5"/>
<text text-anchor="start" x="2242" y="-738.5" font-family="Helvetica,sans-Serif" font-size="10.00">com.fs.starfarer.api.impl.campaign.missions.</text>
<text text-anchor="middle" x="2337.5" y="-727.5" font-family="Helvetica,sans-Serif" font-size="10.00">DisruptCompetitorMission</text>
</a>
</g>
</g>
<!-- Node2 -->
<g id="node2" class="node">
<title>Node2</title>
<g id="a_node2"><a xlink:href="classcom_1_1fs_1_1starfarer_1_1api_1_1impl_1_1campaign_1_1missions_1_1hub_1_1HubMissionWithBarEvent.html" target="_top" xlink:title=" ">
<polygon fill="none" stroke="black" points="1893,-720.5 1893,-750.5 2118,-750.5 2118,-720.5 1893,-720.5"/>
<text text-anchor="start" x="1901" y="-738.5" font-family="Helvetica,sans-Serif" font-size="10.00">com.fs.starfarer.api.impl.campaign.missions.hub.</text>
<text text-anchor="middle" x="2005.5" y="-727.5" font-family="Helvetica,sans-Serif" font-size="10.00">HubMissionWithBarEvent</text>
</a>
</g>
</g>
<!-- Node2&#45;&gt;Node1 -->
<g id="edge1" class="edge">
<title>Node2&#45;&gt;Node1</title>
<path fill="none" stroke="midnightblue" d="M2128.4,-735.5C2163.04,-735.5 2200.4,-735.5 2233.78,-735.5"/>
<polygon fill="midnightblue" stroke="midnightblue" points="2128.22,-732 2118.22,-735.5 2128.22,-739 2128.22,-732"/>
</g>
<!-- Node3 -->
<g id="node3" class="node">
<title>Node3</title>
<g id="a_node3"><a xlink:href="classcom_1_1fs_1_1starfarer_1_1api_1_1impl_1_1campaign_1_1missions_1_1hub_1_1HubMissionWithSearch.html" target="_top" xlink:title=" ">
<polygon fill="none" stroke="black" points="1601,-717.5 1601,-747.5 1826,-747.5 1826,-717.5 1601,-717.5"/>
<text text-anchor="start" x="1609" y="-735.5" font-family="Helvetica,sans-Serif" font-size="10.00">com.fs.starfarer.api.impl.campaign.missions.hub.</text>
<text text-anchor="middle" x="1713.5" y="-724.5" font-family="Helvetica,sans-Serif" font-size="10.00">HubMissionWithSearch</text>
</a>
</g>
</g>
<!-- Node3&#45;&gt;Node2 -->
<g id="edge2" class="edge">
<title>Node3&#45;&gt;Node2</title>
<path fill="none" stroke="midnightblue" d="M1836.26,-733.76C1855.03,-733.95 1874.32,-734.15 1892.85,-734.35"/>
<polygon fill="midnightblue" stroke="midnightblue" points="1836.24,-730.26 1826.21,-733.66 1836.17,-737.26 1836.24,-730.26"/>
</g>
<!-- Node4 -->
<g id="node4" class="node">
<title>Node4</title>
<g id="a_node4"><a xlink:href="classcom_1_1fs_1_1starfarer_1_1api_1_1impl_1_1campaign_1_1missions_1_1hub_1_1HubMissionWithTriggers.html" target="_top" xlink:title=" ">
<polygon fill="none" stroke="black" points="1308,-668.5 1308,-698.5 1533,-698.5 1533,-668.5 1308,-668.5"/>
<text text-anchor="start" x="1316" y="-686.5" font-family="Helvetica,sans-Serif" font-size="10.00">com.fs.starfarer.api.impl.campaign.missions.hub.</text>
<text text-anchor="middle" x="1420.5" y="-675.5" font-family="Helvetica,sans-Serif" font-size="10.00">HubMissionWithTriggers</text>
</a>
</g>
</g>
<!-- Node4&#45;&gt;Node3 -->
<g id="edge3" class="edge">
<title>Node4&#45;&gt;Node3</title>
<path fill="none" stroke="midnightblue" d="M1520.98,-700.25C1554.2,-705.84 1591,-712.04 1623.38,-717.49"/>
<polygon fill="midnightblue" stroke="midnightblue" points="1521.23,-696.74 1510.79,-698.53 1520.07,-703.65 1521.23,-696.74"/>
</g>
<!-- Node5 -->
<g id="node5" class="node">
<title>Node5</title>
<g id="a_node5"><a xlink:href="classcom_1_1fs_1_1starfarer_1_1api_1_1impl_1_1campaign_1_1missions_1_1hub_1_1BaseHubMission.html" target="_top" xlink:title=" ">
<polygon fill="none" stroke="black" points="998,-333.5 998,-363.5 1223,-363.5 1223,-333.5 998,-333.5"/>
<text text-anchor="start" x="1006" y="-351.5" font-family="Helvetica,sans-Serif" font-size="10.00">com.fs.starfarer.api.impl.campaign.missions.hub.</text>
<text text-anchor="middle" x="1110.5" y="-340.5" font-family="Helvetica,sans-Serif" font-size="10.00">BaseHubMission</text>
</a>
</g>
</g>
<!-- Node5&#45;&gt;Node4 -->
<g id="edge4" class="edge">
<title>Node5&#45;&gt;Node4</title>
<path fill="none" stroke="midnightblue" d="M1132.47,-371.3C1191.16,-435.14 1356.05,-614.49 1405.38,-668.15"/>
<polygon fill="midnightblue" stroke="midnightblue" points="1134.88,-368.76 1125.53,-363.76 1129.73,-373.5 1134.88,-368.76"/>
</g>
<!-- Node6 -->
<g id="node6" class="node">
<title>Node6</title>
<g id="a_node6"><a xlink:href="classcom_1_1fs_1_1starfarer_1_1api_1_1impl_1_1campaign_1_1intel_1_1BaseIntelPlugin.html" target="_top" xlink:title=" ">
<polygon fill="none" stroke="black" points="668.5,-626.5 668.5,-656.5 854.5,-656.5 854.5,-626.5 668.5,-626.5"/>
<text text-anchor="start" x="676.5" y="-644.5" font-family="Helvetica,sans-Serif" font-size="10.00">com.fs.starfarer.api.impl.campaign.intel.</text>
<text text-anchor="middle" x="761.5" y="-633.5" font-family="Helvetica,sans-Serif" font-size="10.00">BaseIntelPlugin</text>
</a>
</g>
</g>
<!-- Node6&#45;&gt;Node5 -->
<g id="edge5" class="edge">
<title>Node6&#45;&gt;Node5</title>
<path fill="none" stroke="midnightblue" d="M865.04,-644.81C904.17,-641.39 947.21,-631.46 980,-607.5 1065.85,-544.76 1098.24,-408.91 1106.9,-363.57"/>
<polygon fill="midnightblue" stroke="midnightblue" points="864.37,-641.35 854.65,-645.57 864.88,-648.33 864.37,-641.35"/>
</g>
<!-- Node7 -->
<g id="node7" class="node">
<title>Node7</title>
<g id="a_node7"><a xlink:href="interfacecom_1_1fs_1_1starfarer_1_1api_1_1campaign_1_1comm_1_1IntelInfoPlugin.html" target="_top" xlink:title=" ">
<polygon fill="none" stroke="black" points="237.5,-578.5 237.5,-608.5 412.5,-608.5 412.5,-578.5 237.5,-578.5"/>
<text text-anchor="start" x="245.5" y="-596.5" font-family="Helvetica,sans-Serif" font-size="10.00">com.fs.starfarer.api.campaign.comm.</text>
<text text-anchor="middle" x="325" y="-585.5" font-family="Helvetica,sans-Serif" font-size="10.00">IntelInfoPlugin</text>
</a>
</g>
</g>
<!-- Node7&#45;&gt;Node6 -->
<g id="edge6" class="edge">
<title>Node7&#45;&gt;Node6</title>
<path fill="none" stroke="midnightblue" d="M422.79,-604.19C496.13,-612.29 596.25,-623.35 668.41,-631.33"/>
<polygon fill="midnightblue" stroke="midnightblue" points="422.95,-600.69 412.62,-603.07 422.18,-607.65 422.95,-600.69"/>
</g>
<!-- Node8 -->
<g id="node8" class="node">
<title>Node8</title>
<g id="a_node8"><a xlink:title=" ">
<polygon fill="none" stroke="#bfbfbf" points="223.5,-529.5 223.5,-559.5 426.5,-559.5 426.5,-529.5 223.5,-529.5"/>
<text text-anchor="start" x="231.5" y="-547.5" font-family="Helvetica,sans-Serif" font-size="10.00">com.fs.starfarer.api.impl.campaign.rulecmd.</text>
<text text-anchor="middle" x="325" y="-536.5" font-family="Helvetica,sans-Serif" font-size="10.00">CallEvent.CallableEvent</text>
</a>
</g>
</g>
<!-- Node8&#45;&gt;Node6 -->
<g id="edge7" class="edge">
<title>Node8&#45;&gt;Node6</title>
<path fill="none" stroke="midnightblue" d="M436.82,-557.11C495.89,-566.18 568.96,-581.23 631,-605.5 639.73,-608.92 640.31,-612.98 649,-616.5 658.47,-620.33 668.64,-623.64 678.85,-626.47"/>
<polygon fill="midnightblue" stroke="midnightblue" points="437.13,-553.61 426.72,-555.59 436.09,-560.54 437.13,-553.61"/>
</g>
<!-- Node9 -->
<g id="node9" class="node">
<title>Node9</title>
<g id="a_node9"><a xlink:href="interfacecom_1_1fs_1_1starfarer_1_1api_1_1EveryFrameScript.html" target="_top" xlink:title=" ">
<polygon fill="none" stroke="black" points="262.5,-725.5 262.5,-755.5 387.5,-755.5 387.5,-725.5 262.5,-725.5"/>
<text text-anchor="start" x="270.5" y="-743.5" font-family="Helvetica,sans-Serif" font-size="10.00">com.fs.starfarer.api.Every</text>
<text text-anchor="middle" x="325" y="-732.5" font-family="Helvetica,sans-Serif" font-size="10.00">FrameScript</text>
</a>
</g>
</g>
<!-- Node9&#45;&gt;Node6 -->
<g id="edge8" class="edge">
<title>Node9&#45;&gt;Node6</title>
<path fill="none" stroke="midnightblue" d="M397.79,-737.34C461.86,-732.08 556.76,-718.18 631,-681.5 640.6,-676.76 639.45,-670.34 649,-665.5 655.8,-662.05 663.07,-659.1 670.53,-656.57"/>
<polygon fill="midnightblue" stroke="midnightblue" points="397.48,-733.85 387.78,-738.11 398.02,-740.83 397.48,-733.85"/>
</g>
<!-- Node10 -->
<g id="node10" class="node">
<title>Node10</title>
<g id="a_node10"><a xlink:title=" ">
<polygon fill="none" stroke="#bfbfbf" points="206,-676.5 206,-706.5 444,-706.5 444,-676.5 206,-676.5"/>
<text text-anchor="start" x="214" y="-694.5" font-family="Helvetica,sans-Serif" font-size="10.00">com.fs.starfarer.api.impl.campaign.</text>
<text text-anchor="middle" x="325" y="-683.5" font-family="Helvetica,sans-Serif" font-size="10.00">CommRelayEntityPlugin.CommSnifferReadableIntel</text>
</a>
</g>
</g>
<!-- Node10&#45;&gt;Node6 -->
<g id="edge9" class="edge">
<title>Node10&#45;&gt;Node6</title>
<path fill="none" stroke="midnightblue" d="M454.15,-677.56C508.68,-671.54 572.97,-664.32 631,-657.5 643.04,-656.09 655.7,-654.56 668.2,-653.04"/>
<polygon fill="midnightblue" stroke="midnightblue" points="453.64,-674.09 444.08,-678.67 454.4,-681.05 453.64,-674.09"/>
</g>
<!-- Node11 -->
<g id="node11" class="node">
<title>Node11</title>
<g id="a_node11"><a xlink:href="interfacecom_1_1fs_1_1starfarer_1_1api_1_1campaign_1_1SectorEntityToken.html" target="_top" xlink:title=" ">
<polygon fill="none" stroke="black" points="252,-627.5 252,-657.5 398,-657.5 398,-627.5 252,-627.5"/>
<text text-anchor="start" x="260" y="-645.5" font-family="Helvetica,sans-Serif" font-size="10.00">com.fs.starfarer.api.campaign.</text>
<text text-anchor="middle" x="325" y="-634.5" font-family="Helvetica,sans-Serif" font-size="10.00">SectorEntityToken</text>
</a>
</g>
</g>
<!-- Node11&#45;&gt;Node6 -->
<g id="edge10" class="edge">
<title>Node11&#45;&gt;Node6</title>
<path fill="none" stroke="#9a32cd" stroke-dasharray="5,2" d="M408.46,-642.31C482.62,-642.14 591.43,-641.89 668.41,-641.71"/>
<polygon fill="#9a32cd" stroke="#9a32cd" points="408.23,-638.81 398.24,-642.33 408.24,-645.81 408.23,-638.81"/>
<text text-anchor="middle" x="546.5" y="-645.5" font-family="Helvetica,sans-Serif" font-size="10.00"> postingLocation</text>
</g>
<!-- Node12 -->
<g id="node12" class="node">
<title>Node12</title>
<g id="a_node12"><a xlink:href="interfacecom_1_1fs_1_1starfarer_1_1api_1_1campaign_1_1rules_1_1HasMemory.html" target="_top" xlink:title=" ">
<polygon fill="none" stroke="black" points="0,-627.5 0,-657.5 169,-657.5 169,-627.5 0,-627.5"/>
<text text-anchor="start" x="8" y="-645.5" font-family="Helvetica,sans-Serif" font-size="10.00">com.fs.starfarer.api.campaign.rules.</text>
<text text-anchor="middle" x="84.5" y="-634.5" font-family="Helvetica,sans-Serif" font-size="10.00">HasMemory</text>
</a>
</g>
</g>
<!-- Node12&#45;&gt;Node11 -->
<g id="edge11" class="edge">
<title>Node12&#45;&gt;Node11</title>
<path fill="none" stroke="midnightblue" d="M179.48,-642.5C203.58,-642.5 229.13,-642.5 251.94,-642.5"/>
<polygon fill="midnightblue" stroke="midnightblue" points="179.25,-639 169.25,-642.5 179.25,-646 179.25,-639"/>
</g>
<!-- Node21 -->
<g id="node21" class="node">
<title>Node21</title>
<g id="a_node21"><a xlink:href="interfacecom_1_1fs_1_1starfarer_1_1api_1_1characters_1_1PersonAPI.html" target="_top" xlink:title=" ">
<polygon fill="none" stroke="black" points="472,-491.5 472,-521.5 621,-521.5 621,-491.5 472,-491.5"/>
<text text-anchor="start" x="480" y="-509.5" font-family="Helvetica,sans-Serif" font-size="10.00">com.fs.starfarer.api.characters.</text>
<text text-anchor="middle" x="546.5" y="-498.5" font-family="Helvetica,sans-Serif" font-size="10.00">PersonAPI</text>
</a>
</g>
</g>
<!-- Node12&#45;&gt;Node21 -->
<g id="edge21" class="edge">
<title>Node12&#45;&gt;Node21</title>
<path fill="none" stroke="midnightblue" d="M100.34,-618.75C120.27,-589.31 158.69,-540.46 206,-519.5 291.21,-481.76 400.56,-485.65 471.8,-494.16"/>
<polygon fill="midnightblue" stroke="midnightblue" points="97.35,-616.93 94.76,-627.21 103.19,-620.79 97.35,-616.93"/>
</g>
<!-- Node34 -->
<g id="node34" class="node">
<title>Node34</title>
<g id="a_node34"><a xlink:href="interfacecom_1_1fs_1_1starfarer_1_1api_1_1campaign_1_1econ_1_1MarketAPI.html" target="_top" xlink:title=" ">
<polygon fill="none" stroke="black" points="462,-769.5 462,-799.5 631,-799.5 631,-769.5 462,-769.5"/>
<text text-anchor="start" x="470" y="-787.5" font-family="Helvetica,sans-Serif" font-size="10.00">com.fs.starfarer.api.campaign.econ.</text>
<text text-anchor="middle" x="546.5" y="-776.5" font-family="Helvetica,sans-Serif" font-size="10.00">MarketAPI</text>
</a>
</g>
</g>
<!-- Node12&#45;&gt;Node34 -->
<g id="edge35" class="edge">
<title>Node12&#45;&gt;Node34</title>
<path fill="none" stroke="midnightblue" d="M100.46,-665.91C120.51,-694.96 159.06,-743.24 206,-764.5 287.22,-801.28 390.74,-801.63 462,-795.73"/>
<polygon fill="midnightblue" stroke="midnightblue" points="103.33,-663.91 94.84,-657.56 97.52,-667.82 103.33,-663.91"/>
</g>
<!-- Node13 -->
<g id="node13" class="node">
<title>Node13</title>
<g id="a_node13"><a xlink:href="interfacecom_1_1fs_1_1starfarer_1_1api_1_1impl_1_1campaign_1_1missions_1_1hub_1_1HubMission.html" target="_top" xlink:title=" ">
<polygon fill="none" stroke="black" points="649,-480.5 649,-510.5 874,-510.5 874,-480.5 649,-480.5"/>
<text text-anchor="start" x="657" y="-498.5" font-family="Helvetica,sans-Serif" font-size="10.00">com.fs.starfarer.api.impl.campaign.missions.hub.</text>
<text text-anchor="middle" x="761.5" y="-487.5" font-family="Helvetica,sans-Serif" font-size="10.00">HubMission</text>
</a>
</g>
</g>
<!-- Node13&#45;&gt;Node5 -->
<g id="edge12" class="edge">
<title>Node13&#45;&gt;Node5</title>
<path fill="none" stroke="midnightblue" d="M872.98,-478.31C908.23,-470.43 946.71,-459.22 980,-443.5 1024.88,-422.31 1069.96,-384.66 1093.26,-363.68"/>
<polygon fill="midnightblue" stroke="midnightblue" points="872.17,-474.91 863.14,-480.45 873.65,-481.75 872.17,-474.91"/>
</g>
<!-- Node14 -->
<g id="node14" class="node">
<title>Node14</title>
<g id="a_node14"><a xlink:href="interfacecom_1_1fs_1_1starfarer_1_1api_1_1campaign_1_1CargoAPI.html" target="_top" xlink:title=" ">
<polygon fill="none" stroke="black" points="688.5,-431.5 688.5,-461.5 834.5,-461.5 834.5,-431.5 688.5,-431.5"/>
<text text-anchor="start" x="696.5" y="-449.5" font-family="Helvetica,sans-Serif" font-size="10.00">com.fs.starfarer.api.campaign.</text>
<text text-anchor="middle" x="761.5" y="-438.5" font-family="Helvetica,sans-Serif" font-size="10.00">CargoAPI</text>
</a>
</g>
</g>
<!-- Node14&#45;&gt;Node5 -->
<g id="edge13" class="edge">
<title>Node14&#45;&gt;Node5</title>
<path fill="none" stroke="#9a32cd" stroke-dasharray="5,2" d="M840.73,-429.26C851.91,-426.71 863.26,-424.07 874,-421.5 921.28,-410.18 933.49,-408.65 980,-394.5 1010.59,-385.19 1044.63,-373.03 1070.14,-363.54"/>
<polygon fill="#9a32cd" stroke="#9a32cd" points="839.95,-425.85 830.97,-431.47 841.5,-432.67 839.95,-425.85"/>
<text text-anchor="middle" x="936" y="-431.5" font-family="Helvetica,sans-Serif" font-size="10.00"> cargoOnAccept</text>
<text text-anchor="middle" x="936" y="-420.5" font-family="Helvetica,sans-Serif" font-size="10.00">cargoOnSuccess</text>
</g>
<!-- Node15 -->
<g id="node15" class="node">
<title>Node15</title>
<g id="a_node15"><a xlink:title=" ">
<polygon fill="none" stroke="#bfbfbf" points="649,-382.5 649,-412.5 874,-412.5 874,-382.5 649,-382.5"/>
<text text-anchor="start" x="657" y="-400.5" font-family="Helvetica,sans-Serif" font-size="10.00">com.fs.starfarer.api.impl.campaign.missions.hub.</text>
<text text-anchor="middle" x="761.5" y="-389.5" font-family="Helvetica,sans-Serif" font-size="10.00">BaseHubMission.TimeLimitData</text>
</a>
</g>
</g>
<!-- Node15&#45;&gt;Node5 -->
<g id="edge14" class="edge">
<title>Node15&#45;&gt;Node5</title>
<path fill="none" stroke="#9a32cd" stroke-dasharray="5,2" d="M879.07,-381.04C919.22,-375.37 963.95,-369.05 1003.23,-363.51"/>
<polygon fill="#9a32cd" stroke="#9a32cd" points="878.38,-377.6 868.97,-382.47 879.36,-384.53 878.38,-377.6"/>
<text text-anchor="middle" x="936" y="-382.5" font-family="Helvetica,sans-Serif" font-size="10.00"> timeLimit</text>
</g>
<!-- Node16 -->
<g id="node16" class="node">
<title>Node16</title>
<g id="a_node16"><a xlink:href="interfacecom_1_1fs_1_1starfarer_1_1api_1_1campaign_1_1StarSystemAPI.html" target="_top" xlink:title=" ">
<polygon fill="none" stroke="black" points="252,-386.5 252,-416.5 398,-416.5 398,-386.5 252,-386.5"/>
<text text-anchor="start" x="260" y="-404.5" font-family="Helvetica,sans-Serif" font-size="10.00">com.fs.starfarer.api.campaign.</text>
<text text-anchor="middle" x="325" y="-393.5" font-family="Helvetica,sans-Serif" font-size="10.00">StarSystemAPI</text>
</a>
</g>
</g>
<!-- Node16&#45;&gt;Node15 -->
<g id="edge15" class="edge">
<title>Node16&#45;&gt;Node15</title>
<path fill="none" stroke="#9a32cd" stroke-dasharray="5,2" d="M408.48,-400.74C476.57,-400.11 573.85,-399.22 648.9,-398.53"/>
<polygon fill="#9a32cd" stroke="#9a32cd" points="408.2,-397.24 398.24,-400.83 408.27,-404.24 408.2,-397.24"/>
<text text-anchor="middle" x="546.5" y="-403.5" font-family="Helvetica,sans-Serif" font-size="10.00"> noLimitWhileInSystem</text>
</g>
<!-- Node17 -->
<g id="node17" class="node">
<title>Node17</title>
<g id="a_node17"><a xlink:href="interfacecom_1_1fs_1_1starfarer_1_1api_1_1campaign_1_1LocationAPI.html" target="_top" xlink:title=" ">
<polygon fill="none" stroke="black" points="11.5,-386.5 11.5,-416.5 157.5,-416.5 157.5,-386.5 11.5,-386.5"/>
<text text-anchor="start" x="19.5" y="-404.5" font-family="Helvetica,sans-Serif" font-size="10.00">com.fs.starfarer.api.campaign.</text>
<text text-anchor="middle" x="84.5" y="-393.5" font-family="Helvetica,sans-Serif" font-size="10.00">LocationAPI</text>
</a>
</g>
</g>
<!-- Node17&#45;&gt;Node16 -->
<g id="edge16" class="edge">
<title>Node17&#45;&gt;Node16</title>
<path fill="none" stroke="midnightblue" d="M167.98,-401.5C195.19,-401.5 225.23,-401.5 251.63,-401.5"/>
<polygon fill="midnightblue" stroke="midnightblue" points="167.71,-398 157.71,-401.5 167.71,-405 167.71,-398"/>
</g>
<!-- Node18 -->
<g id="node18" class="node">
<title>Node18</title>
<g id="a_node18"><a xlink:title=" ">
<polygon fill="none" stroke="#bfbfbf" points="649,-333.5 649,-363.5 874,-363.5 874,-333.5 649,-333.5"/>
<text text-anchor="start" x="657" y="-351.5" font-family="Helvetica,sans-Serif" font-size="10.00">com.fs.starfarer.api.impl.campaign.missions.hub.</text>
<text text-anchor="middle" x="761.5" y="-340.5" font-family="Helvetica,sans-Serif" font-size="10.00">BaseHubMission.HubMissionResult</text>
</a>
</g>
</g>
<!-- Node18&#45;&gt;Node5 -->
<g id="edge17" class="edge">
<title>Node18&#45;&gt;Node5</title>
<path fill="none" stroke="#9a32cd" stroke-dasharray="5,2" d="M884.5,-348.5C921.33,-348.5 961.57,-348.5 997.71,-348.5"/>
<polygon fill="#9a32cd" stroke="#9a32cd" points="884.2,-345 874.2,-348.5 884.2,-352 884.2,-345"/>
<text text-anchor="middle" x="936" y="-351.5" font-family="Helvetica,sans-Serif" font-size="10.00"> result</text>
</g>
<!-- Node19 -->
<g id="node19" class="node">
<title>Node19</title>
<g id="a_node19"><a xlink:title=" ">
<polygon fill="none" stroke="#bfbfbf" points="220,-327 220,-368 430,-368 430,-327 220,-327"/>
<text text-anchor="start" x="228" y="-356" font-family="Helvetica,sans-Serif" font-size="10.00">com.fs.starfarer.api.campaign.</text>
<text text-anchor="start" x="228" y="-345" font-family="Helvetica,sans-Serif" font-size="10.00">ReputationActionResponsePlugin.Reputation</text>
<text text-anchor="middle" x="325" y="-334" font-family="Helvetica,sans-Serif" font-size="10.00">AdjustmentResult</text>
</a>
</g>
</g>
<!-- Node19&#45;&gt;Node18 -->
<g id="edge18" class="edge">
<title>Node19&#45;&gt;Node18</title>
<path fill="none" stroke="#9a32cd" stroke-dasharray="5,2" d="M440.28,-347.76C504.73,-347.91 584.91,-348.1 648.91,-348.24"/>
<polygon fill="#9a32cd" stroke="#9a32cd" points="440.08,-344.26 430.07,-347.74 440.07,-351.26 440.08,-344.26"/>
<text text-anchor="middle" x="546.5" y="-362.5" font-family="Helvetica,sans-Serif" font-size="10.00"> repFaction</text>
<text text-anchor="middle" x="546.5" y="-351.5" font-family="Helvetica,sans-Serif" font-size="10.00">repPerson</text>
</g>
<!-- Node20 -->
<g id="node20" class="node">
<title>Node20</title>
<g id="a_node20"><a xlink:href="interfacecom_1_1fs_1_1starfarer_1_1api_1_1impl_1_1campaign_1_1missions_1_1hub_1_1MissionHub.html" target="_top" xlink:title=" ">
<polygon fill="none" stroke="black" points="649,-284.5 649,-314.5 874,-314.5 874,-284.5 649,-284.5"/>
<text text-anchor="start" x="657" y="-302.5" font-family="Helvetica,sans-Serif" font-size="10.00">com.fs.starfarer.api.impl.campaign.missions.hub.</text>
<text text-anchor="middle" x="761.5" y="-291.5" font-family="Helvetica,sans-Serif" font-size="10.00">MissionHub</text>
</a>
</g>
</g>
<!-- Node20&#45;&gt;Node5 -->
<g id="edge19" class="edge">
<title>Node20&#45;&gt;Node5</title>
<path fill="none" stroke="#9a32cd" stroke-dasharray="5,2" d="M879.07,-315.96C919.22,-321.63 963.95,-327.95 1003.23,-333.49"/>
<polygon fill="#9a32cd" stroke="#9a32cd" points="879.36,-312.47 868.97,-314.53 878.38,-319.4 879.36,-312.47"/>
<text text-anchor="middle" x="936" y="-333.5" font-family="Helvetica,sans-Serif" font-size="10.00"> hub</text>
</g>
<!-- Node21&#45;&gt;Node5 -->
<g id="edge20" class="edge">
<title>Node21&#45;&gt;Node5</title>
<path fill="none" stroke="#9a32cd" stroke-dasharray="5,2" d="M631.33,-521.1C697.86,-529.99 792.84,-536.69 874,-519.5 924.42,-508.82 937.19,-501.19 980,-472.5 1028.35,-440.09 1075.16,-388.86 1096.89,-363.61"/>
<polygon fill="#9a32cd" stroke="#9a32cd" points="631.7,-517.62 621.31,-519.71 630.74,-524.55 631.7,-517.62"/>
<text text-anchor="middle" x="761.5" y="-533.5" font-family="Helvetica,sans-Serif" font-size="10.00"> personOverride</text>
</g>
<!-- Node22 -->
<g id="node22" class="node">
<title>Node22</title>
<g id="a_node22"><a xlink:href="interfacecom_1_1fs_1_1starfarer_1_1api_1_1impl_1_1campaign_1_1missions_1_1hub_1_1HubMissionCreator.html" target="_top" xlink:title=" ">
<polygon fill="none" stroke="black" points="649,-235.5 649,-265.5 874,-265.5 874,-235.5 649,-235.5"/>
<text text-anchor="start" x="657" y="-253.5" font-family="Helvetica,sans-Serif" font-size="10.00">com.fs.starfarer.api.impl.campaign.missions.hub.</text>
<text text-anchor="middle" x="761.5" y="-242.5" font-family="Helvetica,sans-Serif" font-size="10.00">HubMissionCreator</text>
</a>
</g>
</g>
<!-- Node22&#45;&gt;Node5 -->
<g id="edge22" class="edge">
<title>Node22&#45;&gt;Node5</title>
<path fill="none" stroke="#9a32cd" stroke-dasharray="5,2" d="M844.97,-267.72C854.77,-269.92 864.62,-272.21 874,-274.5 921.45,-286.09 933.35,-289.03 980,-303.5 1009.78,-312.74 1042.99,-324.3 1068.33,-333.4"/>
<polygon fill="#9a32cd" stroke="#9a32cd" points="845.73,-264.3 835.21,-265.54 844.21,-271.13 845.73,-264.3"/>
<text text-anchor="middle" x="936" y="-306.5" font-family="Helvetica,sans-Serif" font-size="10.00"> creator</text>
</g>
<!-- Node23 -->
<g id="node23" class="node">
<title>Node23</title>
<g id="a_node23"><a xlink:title=" ">
<polygon fill="none" stroke="#bfbfbf" points="735,-197 735,-216 788,-216 788,-197 735,-197"/>
<text text-anchor="middle" x="761.5" y="-204" font-family="Helvetica,sans-Serif" font-size="10.00">Random</text>
</a>
</g>
</g>
<!-- Node23&#45;&gt;Node5 -->
<g id="edge23" class="edge">
<title>Node23&#45;&gt;Node5</title>
<path fill="none" stroke="#9a32cd" stroke-dasharray="5,2" d="M797.97,-210.85C820.06,-213.97 848.94,-218.82 874,-225.5 922.5,-238.44 935.11,-242.04 980,-264.5 1020.74,-284.89 1064.48,-315.24 1089.27,-333.33"/>
<polygon fill="#9a32cd" stroke="#9a32cd" points="798.41,-207.37 788.03,-209.49 797.46,-214.31 798.41,-207.37"/>
<text text-anchor="middle" x="936" y="-267.5" font-family="Helvetica,sans-Serif" font-size="10.00"> genRandom</text>
</g>
<!-- Node24 -->
<g id="node24" class="node">
<title>Node24</title>
<g id="a_node24"><a xlink:href="classcom_1_1fs_1_1starfarer_1_1api_1_1util_1_1IntervalUtil.html" target="_top" xlink:title=" ">
<polygon fill="none" stroke="black" points="703.5,-147.5 703.5,-177.5 819.5,-177.5 819.5,-147.5 703.5,-147.5"/>
<text text-anchor="start" x="711.5" y="-165.5" font-family="Helvetica,sans-Serif" font-size="10.00">com.fs.starfarer.api.util.</text>
<text text-anchor="middle" x="761.5" y="-154.5" font-family="Helvetica,sans-Serif" font-size="10.00">IntervalUtil</text>
</a>
</g>
</g>
<!-- Node24&#45;&gt;Node5 -->
<g id="edge24" class="edge">
<title>Node24&#45;&gt;Node5</title>
<path fill="none" stroke="#9a32cd" stroke-dasharray="5,2" d="M829.87,-168.79C874.85,-175.34 933.98,-188.63 980,-215.5 1033.16,-246.54 1079.08,-305.3 1098.97,-333.13"/>
<polygon fill="#9a32cd" stroke="#9a32cd" points="830.3,-165.31 819.91,-167.41 829.34,-172.25 830.3,-165.31"/>
<text text-anchor="middle" x="936" y="-218.5" font-family="Helvetica,sans-Serif" font-size="10.00"> tracker</text>
</g>
<!-- Node25 -->
<g id="node25" class="node">
<title>Node25</title>
<g id="a_node25"><a xlink:href="enumcom_1_1fs_1_1starfarer_1_1api_1_1campaign_1_1RepLevel.html" target="_top" xlink:title=" ">
<polygon fill="none" stroke="black" points="688.5,-98.5 688.5,-128.5 834.5,-128.5 834.5,-98.5 688.5,-98.5"/>
<text text-anchor="start" x="696.5" y="-116.5" font-family="Helvetica,sans-Serif" font-size="10.00">com.fs.starfarer.api.campaign.</text>
<text text-anchor="middle" x="761.5" y="-105.5" font-family="Helvetica,sans-Serif" font-size="10.00">RepLevel</text>
</a>
</g>
</g>
<!-- Node25&#45;&gt;Node5 -->
<g id="edge25" class="edge">
<title>Node25&#45;&gt;Node5</title>
<path fill="none" stroke="#9a32cd" stroke-dasharray="5,2" d="M844.77,-104.51C888.06,-103.76 940.24,-109.49 980,-134.5 1056.09,-182.36 1093.8,-292.74 1105.45,-333.24"/>
<polygon fill="#9a32cd" stroke="#9a32cd" points="844.44,-101.02 834.54,-104.81 844.64,-108.02 844.44,-101.02"/>
<text text-anchor="middle" x="936" y="-170.5" font-family="Helvetica,sans-Serif" font-size="10.00"> penaltyLimitFaction</text>
<text text-anchor="middle" x="936" y="-159.5" font-family="Helvetica,sans-Serif" font-size="10.00">penaltyLimitPerson</text>
<text text-anchor="middle" x="936" y="-148.5" font-family="Helvetica,sans-Serif" font-size="10.00">rewardLimitFaction</text>
<text text-anchor="middle" x="936" y="-137.5" font-family="Helvetica,sans-Serif" font-size="10.00">rewardLimitPerson</text>
</g>
<!-- Node26 -->
<g id="node26" class="node">
<title>Node26</title>
<g id="a_node26"><a xlink:href="interfacecom_1_1fs_1_1starfarer_1_1api_1_1campaign_1_1rules_1_1MemoryAPI.html" target="_top" xlink:title=" ">
<polygon fill="none" stroke="black" points="677,-49.5 677,-79.5 846,-79.5 846,-49.5 677,-49.5"/>
<text text-anchor="start" x="685" y="-67.5" font-family="Helvetica,sans-Serif" font-size="10.00">com.fs.starfarer.api.campaign.rules.</text>
<text text-anchor="middle" x="761.5" y="-56.5" font-family="Helvetica,sans-Serif" font-size="10.00">MemoryAPI</text>
</a>
</g>
</g>
<!-- Node26&#45;&gt;Node5 -->
<g id="edge26" class="edge">
<title>Node26&#45;&gt;Node5</title>
<path fill="none" stroke="#9a32cd" stroke-dasharray="5,2" d="M856.2,-57.66C897.47,-59.14 944.53,-67.43 980,-92.5 1066.03,-153.3 1098.3,-288.37 1106.92,-333.49"/>
<polygon fill="#9a32cd" stroke="#9a32cd" points="856.2,-54.16 846.12,-57.43 856.04,-61.16 856.2,-54.16"/>
<text text-anchor="middle" x="936" y="-95.5" font-family="Helvetica,sans-Serif" font-size="10.00"> interactionMemory</text>
</g>
<!-- Node27 -->
<g id="node27" class="node">
<title>Node27</title>
<g id="a_node27"><a xlink:href="enumcom_1_1fs_1_1starfarer_1_1api_1_1campaign_1_1PersonImportance.html" target="_top" xlink:title=" ">
<polygon fill="none" stroke="black" points="688.5,-0.5 688.5,-30.5 834.5,-30.5 834.5,-0.5 688.5,-0.5"/>
<text text-anchor="start" x="696.5" y="-18.5" font-family="Helvetica,sans-Serif" font-size="10.00">com.fs.starfarer.api.campaign.</text>
<text text-anchor="middle" x="761.5" y="-7.5" font-family="Helvetica,sans-Serif" font-size="10.00">PersonImportance</text>
</a>
</g>
</g>
<!-- Node27&#45;&gt;Node5 -->
<g id="edge27" class="edge">
<title>Node27&#45;&gt;Node5</title>
<path fill="none" stroke="#9a32cd" stroke-dasharray="5,2" d="M844.84,-8.76C889,-9.38 942.01,-17.4 980,-46.5 1077.37,-121.08 1102.53,-283.4 1108.09,-333.48"/>
<polygon fill="#9a32cd" stroke="#9a32cd" points="844.69,-5.26 834.69,-8.75 844.68,-12.26 844.69,-5.26"/>
<text text-anchor="middle" x="936" y="-49.5" font-family="Helvetica,sans-Serif" font-size="10.00"> giverImportance</text>
</g>
<!-- Node28 -->
<g id="node28" class="node">
<title>Node28</title>
<g id="a_node28"><a xlink:title=" ">
<polygon fill="none" stroke="#bfbfbf" points="687,-577.5 687,-607.5 836,-607.5 836,-577.5 687,-577.5"/>
<text text-anchor="start" x="695" y="-595.5" font-family="Helvetica,sans-Serif" font-size="10.00">com.fs.starfarer.api.characters.</text>
<text text-anchor="middle" x="761.5" y="-584.5" font-family="Helvetica,sans-Serif" font-size="10.00">FullName.Gender</text>
</a>
</g>
</g>
<!-- Node28&#45;&gt;Node5 -->
<g id="edge28" class="edge">
<title>Node28&#45;&gt;Node5</title>
<path fill="none" stroke="#9a32cd" stroke-dasharray="5,2" d="M846.26,-597C889.38,-595.45 940.94,-587.26 980,-561.5 1054.78,-512.18 1093.3,-403.35 1105.3,-363.5"/>
<polygon fill="#9a32cd" stroke="#9a32cd" points="845.97,-593.5 836.06,-597.24 846.14,-600.5 845.97,-593.5"/>
<text text-anchor="middle" x="936" y="-595.5" font-family="Helvetica,sans-Serif" font-size="10.00"> giverGender</text>
</g>
<!-- Node29 -->
<g id="node29" class="node">
<title>Node29</title>
<g id="a_node29"><a xlink:href="classcom_1_1fs_1_1starfarer_1_1api_1_1impl_1_1campaign_1_1missions_1_1hub_1_1MissionTrigger.html" target="_top" xlink:title=" ">
<polygon fill="none" stroke="black" points="998,-671.5 998,-701.5 1223,-701.5 1223,-671.5 998,-671.5"/>
<text text-anchor="start" x="1006" y="-689.5" font-family="Helvetica,sans-Serif" font-size="10.00">com.fs.starfarer.api.impl.campaign.missions.hub.</text>
<text text-anchor="middle" x="1110.5" y="-678.5" font-family="Helvetica,sans-Serif" font-size="10.00">MissionTrigger</text>
</a>
</g>
</g>
<!-- Node29&#45;&gt;Node4 -->
<g id="edge29" class="edge">
<title>Node29&#45;&gt;Node4</title>
<path fill="none" stroke="#9a32cd" stroke-dasharray="5,2" d="M1233.25,-685.31C1257.9,-685.07 1283.71,-684.82 1307.99,-684.59"/>
<polygon fill="#9a32cd" stroke="#9a32cd" points="1233.1,-681.82 1223.13,-685.41 1233.16,-688.82 1233.1,-681.82"/>
<text text-anchor="middle" x="1265.5" y="-688.5" font-family="Helvetica,sans-Serif" font-size="10.00"> currTrigger</text>
</g>
<!-- Node30 -->
<g id="node30" class="node">
<title>Node30</title>
<g id="a_node30"><a xlink:title=" ">
<polygon fill="none" stroke="#bfbfbf" points="649,-675.5 649,-705.5 874,-705.5 874,-675.5 649,-675.5"/>
<text text-anchor="start" x="657" y="-693.5" font-family="Helvetica,sans-Serif" font-size="10.00">com.fs.starfarer.api.impl.campaign.missions.hub.</text>
<text text-anchor="middle" x="761.5" y="-682.5" font-family="Helvetica,sans-Serif" font-size="10.00">BaseHubMission.ConditionChecker</text>
</a>
</g>
</g>
<!-- Node30&#45;&gt;Node29 -->
<g id="edge30" class="edge">
<title>Node30&#45;&gt;Node29</title>
<path fill="none" stroke="#9a32cd" stroke-dasharray="5,2" d="M884.5,-689.09C921.33,-688.67 961.57,-688.21 997.71,-687.79"/>
<polygon fill="#9a32cd" stroke="#9a32cd" points="884.16,-685.6 874.2,-689.21 884.24,-692.6 884.16,-685.6"/>
<text text-anchor="middle" x="936" y="-692.5" font-family="Helvetica,sans-Serif" font-size="10.00"> condition</text>
</g>
<!-- Node31 -->
<g id="node31" class="node">
<title>Node31</title>
<g id="a_node31"><a xlink:title=" ">
<polygon fill="none" stroke="#bfbfbf" points="1308,-717.5 1308,-747.5 1533,-747.5 1533,-717.5 1308,-717.5"/>
<text text-anchor="start" x="1316" y="-735.5" font-family="Helvetica,sans-Serif" font-size="10.00">com.fs.starfarer.api.impl.campaign.missions.hub.</text>
<text text-anchor="middle" x="1420.5" y="-724.5" font-family="Helvetica,sans-Serif" font-size="10.00">HubMissionWithSearch.SearchData</text>
</a>
</g>
</g>
<!-- Node31&#45;&gt;Node3 -->
<g id="edge31" class="edge">
<title>Node31&#45;&gt;Node3</title>
<path fill="none" stroke="#9a32cd" stroke-dasharray="5,2" d="M1543.35,-732.5C1562.34,-732.5 1581.89,-732.5 1600.64,-732.5"/>
<polygon fill="#9a32cd" stroke="#9a32cd" points="1543.18,-729 1533.18,-732.5 1543.18,-736 1543.18,-729"/>
<text text-anchor="middle" x="1567" y="-735.5" font-family="Helvetica,sans-Serif" font-size="10.00"> search</text>
</g>
<!-- Node32 -->
<g id="node32" class="node">
<title>Node32</title>
<g id="a_node32"><a xlink:title=" ">
<polygon fill="none" stroke="#bfbfbf" points="1886,-671.5 1886,-701.5 2125,-701.5 2125,-671.5 1886,-671.5"/>
<text text-anchor="start" x="1894" y="-689.5" font-family="Helvetica,sans-Serif" font-size="10.00">com.fs.starfarer.api.impl.campaign.rulecmd.salvage.</text>
<text text-anchor="middle" x="2005.5" y="-678.5" font-family="Helvetica,sans-Serif" font-size="10.00">MarketCMD.RaidDangerLevel</text>
</a>
</g>
</g>
<!-- Node32&#45;&gt;Node1 -->
<g id="edge32" class="edge">
<title>Node32&#45;&gt;Node1</title>
<path fill="none" stroke="#9a32cd" stroke-dasharray="5,2" d="M2117.85,-703.03C2155.91,-708.68 2198.24,-714.97 2235.44,-720.49"/>
<polygon fill="#9a32cd" stroke="#9a32cd" points="2118.16,-699.54 2107.75,-701.53 2117.13,-706.47 2118.16,-699.54"/>
<text text-anchor="middle" x="2179.5" y="-720.5" font-family="Helvetica,sans-Serif" font-size="10.00"> RAID_DANGER</text>
</g>
<!-- Node33 -->
<g id="node33" class="node">
<title>Node33</title>
<g id="a_node33"><a xlink:title=" ">
<polygon fill="none" stroke="#bfbfbf" points="1694,-677 1694,-696 1733,-696 1733,-677 1694,-677"/>
<text text-anchor="middle" x="1713.5" y="-684" font-family="Helvetica,sans-Serif" font-size="10.00">Color</text>
</a>
</g>
</g>
<!-- Node33&#45;&gt;Node32 -->
<g id="edge33" class="edge">
<title>Node33&#45;&gt;Node32</title>
<path fill="none" stroke="#9a32cd" stroke-dasharray="5,2" d="M1743.44,-686.5C1776.75,-686.5 1833.59,-686.5 1885.75,-686.5"/>
<polygon fill="#9a32cd" stroke="#9a32cd" points="1743.08,-683 1733.08,-686.5 1743.08,-690 1743.08,-683"/>
<text text-anchor="middle" x="1856" y="-689.5" font-family="Helvetica,sans-Serif" font-size="10.00"> color</text>
</g>
<!-- Node34&#45;&gt;Node1 -->
<g id="edge34" class="edge">
<title>Node34&#45;&gt;Node1</title>
<path fill="none" stroke="#9a32cd" stroke-dasharray="5,2" d="M641.37,-784.5C719.85,-784.5 834.72,-784.5 935,-784.5 935,-784.5 935,-784.5 2006.5,-784.5 2100.19,-784.5 2207.22,-764.94 2273.34,-750.53"/>
<polygon fill="#9a32cd" stroke="#9a32cd" points="641.03,-781 631.03,-784.5 641.03,-788 641.03,-781"/>
<text text-anchor="middle" x="1420.5" y="-787.5" font-family="Helvetica,sans-Serif" font-size="10.00"> market</text>
</g>
</g>
</svg>
