<?xml version="1.0" encoding="UTF-8" standalone="no"?>
<!DOCTYPE svg PUBLIC "-//W3C//DTD SVG 1.1//EN"
 "http://www.w3.org/Graphics/SVG/1.1/DTD/svg11.dtd">
<!-- Generated by graphviz version 2.44.0 ()
 -->
<!-- Title: com.fs.starfarer.api.impl.campaign.missions.hub.MissionFleetInterceptPlayerIfNearby Pages: 1 -->
<svg width="1571pt" height="1131pt"
 viewBox="0.00 0.00 1571.00 1130.64" xmlns="http://www.w3.org/2000/svg" xmlns:xlink="http://www.w3.org/1999/xlink">
<g id="graph0" class="graph" transform="scale(1 1) rotate(0) translate(4 1126.64)">
<title>com.fs.starfarer.api.impl.campaign.missions.hub.MissionFleetInterceptPlayerIfNearby</title>
<!-- Node1 -->
<g id="node1" class="node">
<title>Node1</title>
<g id="a_node1"><a xlink:title=" ">
<polygon fill="#bfbfbf" stroke="black" points="1338,-974.14 1338,-1004.14 1563,-1004.14 1563,-974.14 1338,-974.14"/>
<text text-anchor="start" x="1346" y="-992.14" font-family="Helvetica,sans-Serif" font-size="10.00">com.fs.starfarer.api.impl.campaign.missions.hub.</text>
<text text-anchor="middle" x="1450.5" y="-981.14" font-family="Helvetica,sans-Serif" font-size="10.00">MissionFleetInterceptPlayerIfNearby</text>
</a>
</g>
</g>
<!-- Node2 -->
<g id="node2" class="node">
<title>Node2</title>
<g id="a_node2"><a xlink:href="interfacecom_1_1fs_1_1starfarer_1_1api_1_1EveryFrameScript.html" target="_top" xlink:title=" ">
<polygon fill="none" stroke="black" points="262.5,-1033.14 262.5,-1063.14 387.5,-1063.14 387.5,-1033.14 262.5,-1033.14"/>
<text text-anchor="start" x="270.5" y="-1051.14" font-family="Helvetica,sans-Serif" font-size="10.00">com.fs.starfarer.api.Every</text>
<text text-anchor="middle" x="325" y="-1040.14" font-family="Helvetica,sans-Serif" font-size="10.00">FrameScript</text>
</a>
</g>
</g>
<!-- Node2&#45;&gt;Node1 -->
<g id="edge1" class="edge">
<title>Node2&#45;&gt;Node1</title>
<path fill="none" stroke="midnightblue" d="M397.57,-1054.63C555.45,-1067.35 944.95,-1090.07 1265,-1038.14 1312.76,-1030.39 1366.06,-1015.54 1403.04,-1004.22"/>
<polygon fill="midnightblue" stroke="midnightblue" points="397.77,-1051.13 387.51,-1053.8 397.19,-1058.11 397.77,-1051.13"/>
</g>
<!-- Node10 -->
<g id="node10" class="node">
<title>Node10</title>
<g id="a_node10"><a xlink:href="classcom_1_1fs_1_1starfarer_1_1api_1_1impl_1_1campaign_1_1intel_1_1BaseIntelPlugin.html" target="_top" xlink:title=" ">
<polygon fill="none" stroke="black" points="661,-876.14 661,-906.14 847,-906.14 847,-876.14 661,-876.14"/>
<text text-anchor="start" x="669" y="-894.14" font-family="Helvetica,sans-Serif" font-size="10.00">com.fs.starfarer.api.impl.campaign.intel.</text>
<text text-anchor="middle" x="754" y="-883.14" font-family="Helvetica,sans-Serif" font-size="10.00">BaseIntelPlugin</text>
</a>
</g>
</g>
<!-- Node2&#45;&gt;Node10 -->
<g id="edge12" class="edge">
<title>Node2&#45;&gt;Node10</title>
<path fill="none" stroke="midnightblue" d="M397.86,-1053.89C462.17,-1054.9 554.75,-1045.45 611,-991.14 635.97,-967.03 603.95,-939.17 629,-915.14 637.94,-906.56 648.97,-900.6 660.74,-896.52"/>
<polygon fill="midnightblue" stroke="midnightblue" points="397.87,-1050.39 387.79,-1053.65 397.7,-1057.39 397.87,-1050.39"/>
</g>
<!-- Node3 -->
<g id="node3" class="node">
<title>Node3</title>
<g id="a_node3"><a xlink:href="interfacecom_1_1fs_1_1starfarer_1_1api_1_1campaign_1_1CampaignFleetAPI.html" target="_top" xlink:title=" ">
<polygon fill="none" stroke="black" points="681,-1023.14 681,-1053.14 827,-1053.14 827,-1023.14 681,-1023.14"/>
<text text-anchor="start" x="689" y="-1041.14" font-family="Helvetica,sans-Serif" font-size="10.00">com.fs.starfarer.api.campaign.</text>
<text text-anchor="middle" x="754" y="-1030.14" font-family="Helvetica,sans-Serif" font-size="10.00">CampaignFleetAPI</text>
</a>
</g>
</g>
<!-- Node3&#45;&gt;Node1 -->
<g id="edge2" class="edge">
<title>Node3&#45;&gt;Node1</title>
<path fill="none" stroke="#9a32cd" stroke-dasharray="5,2" d="M837.36,-1034.22C947.45,-1028.72 1148.6,-1017.71 1320,-1003.14 1325.86,-1002.64 1331.86,-1002.1 1337.92,-1001.53"/>
<polygon fill="#9a32cd" stroke="#9a32cd" points="837.13,-1030.73 827.32,-1034.72 837.48,-1037.72 837.13,-1030.73"/>
<text text-anchor="middle" x="1152.5" y="-1026.14" font-family="Helvetica,sans-Serif" font-size="10.00"> fleet</text>
</g>
<!-- Node4 -->
<g id="node4" class="node">
<title>Node4</title>
<g id="a_node4"><a xlink:href="interfacecom_1_1fs_1_1starfarer_1_1api_1_1campaign_1_1SectorEntityToken.html" target="_top" xlink:title=" ">
<polygon fill="none" stroke="black" points="252,-974.14 252,-1004.14 398,-1004.14 398,-974.14 252,-974.14"/>
<text text-anchor="start" x="260" y="-992.14" font-family="Helvetica,sans-Serif" font-size="10.00">com.fs.starfarer.api.campaign.</text>
<text text-anchor="middle" x="325" y="-981.14" font-family="Helvetica,sans-Serif" font-size="10.00">SectorEntityToken</text>
</a>
</g>
</g>
<!-- Node4&#45;&gt;Node3 -->
<g id="edge3" class="edge">
<title>Node4&#45;&gt;Node3</title>
<path fill="none" stroke="midnightblue" d="M408.84,-998.65C487.86,-1007.72 605.68,-1021.24 680.92,-1029.87"/>
<polygon fill="midnightblue" stroke="midnightblue" points="408.77,-995.12 398.43,-997.45 407.97,-1002.07 408.77,-995.12"/>
</g>
<!-- Node4&#45;&gt;Node10 -->
<g id="edge14" class="edge">
<title>Node4&#45;&gt;Node10</title>
<path fill="none" stroke="#9a32cd" stroke-dasharray="5,2" d="M408.21,-983.83C467.23,-977.36 547.28,-963.01 611,-931.14 620.57,-926.35 619.4,-919.88 629,-915.14 638.93,-910.24 649.76,-906.33 660.76,-903.23"/>
<polygon fill="#9a32cd" stroke="#9a32cd" points="407.76,-980.36 398.18,-984.88 408.49,-987.32 407.76,-980.36"/>
<text text-anchor="middle" x="536.5" y="-979.14" font-family="Helvetica,sans-Serif" font-size="10.00"> postingLocation</text>
</g>
<!-- Node5 -->
<g id="node5" class="node">
<title>Node5</title>
<g id="a_node5"><a xlink:href="interfacecom_1_1fs_1_1starfarer_1_1api_1_1campaign_1_1rules_1_1HasMemory.html" target="_top" xlink:title=" ">
<polygon fill="none" stroke="black" points="0,-683.14 0,-713.14 169,-713.14 169,-683.14 0,-683.14"/>
<text text-anchor="start" x="8" y="-701.14" font-family="Helvetica,sans-Serif" font-size="10.00">com.fs.starfarer.api.campaign.rules.</text>
<text text-anchor="middle" x="84.5" y="-690.14" font-family="Helvetica,sans-Serif" font-size="10.00">HasMemory</text>
</a>
</g>
</g>
<!-- Node5&#45;&gt;Node4 -->
<g id="edge4" class="edge">
<title>Node5&#45;&gt;Node4</title>
<path fill="none" stroke="midnightblue" d="M120.69,-719.3C137.9,-731.46 157.36,-748.27 169,-768.14 213.8,-844.64 144.01,-900.77 206,-964.14 218.15,-976.57 234.83,-983.56 251.82,-987.35"/>
<polygon fill="midnightblue" stroke="midnightblue" points="122.19,-716.09 111.95,-713.37 118.27,-721.88 122.19,-716.09"/>
</g>
<!-- Node36 -->
<g id="node36" class="node">
<title>Node36</title>
<g id="a_node36"><a xlink:href="interfacecom_1_1fs_1_1starfarer_1_1api_1_1characters_1_1PersonAPI.html" target="_top" xlink:title=" ">
<polygon fill="none" stroke="black" points="462,-528.14 462,-558.14 611,-558.14 611,-528.14 462,-528.14"/>
<text text-anchor="start" x="470" y="-546.14" font-family="Helvetica,sans-Serif" font-size="10.00">com.fs.starfarer.api.characters.</text>
<text text-anchor="middle" x="536.5" y="-535.14" font-family="Helvetica,sans-Serif" font-size="10.00">PersonAPI</text>
</a>
</g>
</g>
<!-- Node5&#45;&gt;Node36 -->
<g id="edge39" class="edge">
<title>Node5&#45;&gt;Node36</title>
<path fill="none" stroke="midnightblue" d="M138.78,-679.79C228.73,-648.81 408.99,-586.72 491.92,-558.15"/>
<polygon fill="midnightblue" stroke="midnightblue" points="137.37,-676.57 129.06,-683.14 139.65,-683.19 137.37,-676.57"/>
</g>
<!-- Node6 -->
<g id="node6" class="node">
<title>Node6</title>
<g id="a_node6"><a xlink:href="interfacecom_1_1fs_1_1starfarer_1_1api_1_1campaign_1_1FleetOrStubAPI.html" target="_top" xlink:title=" ">
<polygon fill="none" stroke="black" points="252,-1092.14 252,-1122.14 398,-1122.14 398,-1092.14 252,-1092.14"/>
<text text-anchor="start" x="260" y="-1110.14" font-family="Helvetica,sans-Serif" font-size="10.00">com.fs.starfarer.api.campaign.</text>
<text text-anchor="middle" x="325" y="-1099.14" font-family="Helvetica,sans-Serif" font-size="10.00">FleetOrStubAPI</text>
</a>
</g>
</g>
<!-- Node6&#45;&gt;Node3 -->
<g id="edge5" class="edge">
<title>Node6&#45;&gt;Node3</title>
<path fill="none" stroke="midnightblue" d="M408.35,-1093.83C487.38,-1081.06 605.53,-1061.97 680.92,-1049.79"/>
<polygon fill="midnightblue" stroke="midnightblue" points="407.75,-1090.39 398.43,-1095.44 408.87,-1097.3 407.75,-1090.39"/>
</g>
<!-- Node7 -->
<g id="node7" class="node">
<title>Node7</title>
<g id="a_node7"><a xlink:href="classcom_1_1fs_1_1starfarer_1_1api_1_1util_1_1IntervalUtil.html" target="_top" xlink:title=" ">
<polygon fill="none" stroke="black" points="696,-974.14 696,-1004.14 812,-1004.14 812,-974.14 696,-974.14"/>
<text text-anchor="start" x="704" y="-992.14" font-family="Helvetica,sans-Serif" font-size="10.00">com.fs.starfarer.api.util.</text>
<text text-anchor="middle" x="754" y="-981.14" font-family="Helvetica,sans-Serif" font-size="10.00">IntervalUtil</text>
</a>
</g>
</g>
<!-- Node7&#45;&gt;Node1 -->
<g id="edge6" class="edge">
<title>Node7&#45;&gt;Node1</title>
<path fill="none" stroke="#9a32cd" stroke-dasharray="5,2" d="M822.23,-989.14C941.67,-989.14 1191.96,-989.14 1337.69,-989.14"/>
<polygon fill="#9a32cd" stroke="#9a32cd" points="822.13,-985.64 812.13,-989.14 822.13,-992.64 822.13,-985.64"/>
<text text-anchor="middle" x="1152.5" y="-992.14" font-family="Helvetica,sans-Serif" font-size="10.00"> interval</text>
</g>
<!-- Node9 -->
<g id="node9" class="node">
<title>Node9</title>
<g id="a_node9"><a xlink:href="classcom_1_1fs_1_1starfarer_1_1api_1_1impl_1_1campaign_1_1missions_1_1hub_1_1BaseHubMission.html" target="_top" xlink:title=" ">
<polygon fill="none" stroke="black" points="1040,-537.14 1040,-567.14 1265,-567.14 1265,-537.14 1040,-537.14"/>
<text text-anchor="start" x="1048" y="-555.14" font-family="Helvetica,sans-Serif" font-size="10.00">com.fs.starfarer.api.impl.campaign.missions.hub.</text>
<text text-anchor="middle" x="1152.5" y="-544.14" font-family="Helvetica,sans-Serif" font-size="10.00">BaseHubMission</text>
</a>
</g>
</g>
<!-- Node7&#45;&gt;Node9 -->
<g id="edge31" class="edge">
<title>Node7&#45;&gt;Node9</title>
<path fill="none" stroke="#9a32cd" stroke-dasharray="5,2" d="M821.88,-977.33C900.65,-963.39 1021.04,-941.97 1022,-941.14 1140.11,-838.87 1150.89,-626 1151.56,-567.37"/>
<polygon fill="#9a32cd" stroke="#9a32cd" points="821.25,-973.89 812.01,-979.08 822.47,-980.78 821.25,-973.89"/>
<text text-anchor="middle" x="959.5" y="-966.14" font-family="Helvetica,sans-Serif" font-size="10.00"> tracker</text>
</g>
<!-- Node8 -->
<g id="node8" class="node">
<title>Node8</title>
<g id="a_node8"><a xlink:title=" ">
<polygon fill="none" stroke="#bfbfbf" points="1114,-498.64 1114,-517.64 1191,-517.64 1191,-498.64 1114,-498.64"/>
<text text-anchor="middle" x="1152.5" y="-505.64" font-family="Helvetica,sans-Serif" font-size="10.00">Set&lt; Object &gt;</text>
</a>
</g>
</g>
<!-- Node8&#45;&gt;Node1 -->
<g id="edge7" class="edge">
<title>Node8&#45;&gt;Node1</title>
<path fill="none" stroke="#9a32cd" stroke-dasharray="5,2" d="M1201.4,-506.14C1222.91,-507.62 1247.35,-512.87 1265,-527.14 1414.78,-648.22 1443.62,-908.93 1448.56,-974.13"/>
<polygon fill="#9a32cd" stroke="#9a32cd" points="1201.27,-502.63 1191.13,-505.7 1200.97,-509.63 1201.27,-502.63"/>
<text text-anchor="middle" x="1301.5" y="-577.14" font-family="Helvetica,sans-Serif" font-size="10.00"> stages</text>
</g>
<!-- Node9&#45;&gt;Node1 -->
<g id="edge8" class="edge">
<title>Node9&#45;&gt;Node1</title>
<path fill="none" stroke="#9a32cd" stroke-dasharray="5,2" d="M1169.31,-575.48C1222.59,-654.15 1394.78,-908.36 1439.05,-973.71"/>
<polygon fill="#9a32cd" stroke="#9a32cd" points="1172.19,-573.5 1163.69,-567.18 1166.4,-577.43 1172.19,-573.5"/>
<text text-anchor="middle" x="1301.5" y="-800.14" font-family="Helvetica,sans-Serif" font-size="10.00"> mission</text>
</g>
<!-- Node10&#45;&gt;Node9 -->
<g id="edge9" class="edge">
<title>Node10&#45;&gt;Node9</title>
<path fill="none" stroke="midnightblue" d="M857.48,-904.02C911.31,-905.35 975.57,-897.74 1022,-863.14 1123.07,-787.84 1145.75,-618.93 1150.39,-567.38"/>
<polygon fill="midnightblue" stroke="midnightblue" points="857.32,-900.51 847.2,-903.66 857.07,-907.51 857.32,-900.51"/>
</g>
<!-- Node11 -->
<g id="node11" class="node">
<title>Node11</title>
<g id="a_node11"><a xlink:href="interfacecom_1_1fs_1_1starfarer_1_1api_1_1campaign_1_1comm_1_1IntelInfoPlugin.html" target="_top" xlink:title=" ">
<polygon fill="none" stroke="black" points="237.5,-827.14 237.5,-857.14 412.5,-857.14 412.5,-827.14 237.5,-827.14"/>
<text text-anchor="start" x="245.5" y="-845.14" font-family="Helvetica,sans-Serif" font-size="10.00">com.fs.starfarer.api.campaign.comm.</text>
<text text-anchor="middle" x="325" y="-834.14" font-family="Helvetica,sans-Serif" font-size="10.00">IntelInfoPlugin</text>
</a>
</g>
</g>
<!-- Node11&#45;&gt;Node10 -->
<g id="edge10" class="edge">
<title>Node11&#45;&gt;Node10</title>
<path fill="none" stroke="midnightblue" d="M423.01,-853.27C494.37,-861.46 590.75,-872.52 660.92,-880.58"/>
<polygon fill="midnightblue" stroke="midnightblue" points="423,-849.75 412.67,-852.09 422.2,-856.7 423,-849.75"/>
</g>
<!-- Node12 -->
<g id="node12" class="node">
<title>Node12</title>
<g id="a_node12"><a xlink:title=" ">
<polygon fill="none" stroke="#bfbfbf" points="223.5,-925.14 223.5,-955.14 426.5,-955.14 426.5,-925.14 223.5,-925.14"/>
<text text-anchor="start" x="231.5" y="-943.14" font-family="Helvetica,sans-Serif" font-size="10.00">com.fs.starfarer.api.impl.campaign.rulecmd.</text>
<text text-anchor="middle" x="325" y="-932.14" font-family="Helvetica,sans-Serif" font-size="10.00">CallEvent.CallableEvent</text>
</a>
</g>
</g>
<!-- Node12&#45;&gt;Node10 -->
<g id="edge11" class="edge">
<title>Node12&#45;&gt;Node10</title>
<path fill="none" stroke="midnightblue" d="M436.77,-927.43C506.31,-919.45 594.95,-909.28 660.68,-901.74"/>
<polygon fill="midnightblue" stroke="midnightblue" points="436.19,-923.97 426.65,-928.59 436.99,-930.93 436.19,-923.97"/>
</g>
<!-- Node13 -->
<g id="node13" class="node">
<title>Node13</title>
<g id="a_node13"><a xlink:title=" ">
<polygon fill="none" stroke="#bfbfbf" points="206,-876.14 206,-906.14 444,-906.14 444,-876.14 206,-876.14"/>
<text text-anchor="start" x="214" y="-894.14" font-family="Helvetica,sans-Serif" font-size="10.00">com.fs.starfarer.api.impl.campaign.</text>
<text text-anchor="middle" x="325" y="-883.14" font-family="Helvetica,sans-Serif" font-size="10.00">CommRelayEntityPlugin.CommSnifferReadableIntel</text>
</a>
</g>
</g>
<!-- Node13&#45;&gt;Node10 -->
<g id="edge13" class="edge">
<title>Node13&#45;&gt;Node10</title>
<path fill="none" stroke="midnightblue" d="M454.22,-891.14C520.7,-891.14 600.37,-891.14 660.72,-891.14"/>
<polygon fill="midnightblue" stroke="midnightblue" points="454.09,-887.64 444.09,-891.14 454.09,-894.64 454.09,-887.64"/>
</g>
<!-- Node14 -->
<g id="node14" class="node">
<title>Node14</title>
<g id="a_node14"><a xlink:href="interfacecom_1_1fs_1_1starfarer_1_1api_1_1impl_1_1campaign_1_1missions_1_1hub_1_1HubMission.html" target="_top" xlink:title=" ">
<polygon fill="none" stroke="black" points="641.5,-603.14 641.5,-633.14 866.5,-633.14 866.5,-603.14 641.5,-603.14"/>
<text text-anchor="start" x="649.5" y="-621.14" font-family="Helvetica,sans-Serif" font-size="10.00">com.fs.starfarer.api.impl.campaign.missions.hub.</text>
<text text-anchor="middle" x="754" y="-610.14" font-family="Helvetica,sans-Serif" font-size="10.00">HubMission</text>
</a>
</g>
</g>
<!-- Node14&#45;&gt;Node9 -->
<g id="edge15" class="edge">
<title>Node14&#45;&gt;Node9</title>
<path fill="none" stroke="midnightblue" d="M876.79,-611.5C922.62,-607.64 974.99,-601.59 1022,-592.14 1052.11,-586.09 1085.17,-575.82 1110.35,-567.19"/>
<polygon fill="midnightblue" stroke="midnightblue" points="876.49,-608.02 866.81,-612.32 877.06,-614.99 876.49,-608.02"/>
</g>
<!-- Node15 -->
<g id="node15" class="node">
<title>Node15</title>
<g id="a_node15"><a xlink:title=" ">
<polygon fill="none" stroke="#bfbfbf" points="683,-564.64 683,-583.64 825,-583.64 825,-564.64 683,-564.64"/>
<text text-anchor="middle" x="754" y="-571.64" font-family="Helvetica,sans-Serif" font-size="10.00">List&lt; PotentialContactData &gt;</text>
</a>
</g>
</g>
<!-- Node15&#45;&gt;Node9 -->
<g id="edge16" class="edge">
<title>Node15&#45;&gt;Node9</title>
<path fill="none" stroke="#9a32cd" stroke-dasharray="5,2" d="M835.77,-569.66C894.55,-566.4 974.86,-561.94 1039.78,-558.34"/>
<polygon fill="#9a32cd" stroke="#9a32cd" points="835.22,-566.19 825.43,-570.23 835.61,-573.17 835.22,-566.19"/>
<text text-anchor="start" x="897" y="-580.14" font-family="Helvetica,sans-Serif" font-size="10.00"> potentialContactsOnMission</text>
<text text-anchor="middle" x="959.5" y="-569.14" font-family="Helvetica,sans-Serif" font-size="10.00">Success</text>
</g>
<!-- Node16 -->
<g id="node16" class="node">
<title>Node16</title>
<g id="a_node16"><a xlink:href="interfacecom_1_1fs_1_1starfarer_1_1api_1_1impl_1_1campaign_1_1missions_1_1hub_1_1HubMissionCreator.html" target="_top" xlink:title=" ">
<polygon fill="none" stroke="black" points="641.5,-515.14 641.5,-545.14 866.5,-545.14 866.5,-515.14 641.5,-515.14"/>
<text text-anchor="start" x="649.5" y="-533.14" font-family="Helvetica,sans-Serif" font-size="10.00">com.fs.starfarer.api.impl.campaign.missions.hub.</text>
<text text-anchor="middle" x="754" y="-522.14" font-family="Helvetica,sans-Serif" font-size="10.00">HubMissionCreator</text>
</a>
</g>
</g>
<!-- Node16&#45;&gt;Node9 -->
<g id="edge17" class="edge">
<title>Node16&#45;&gt;Node9</title>
<path fill="none" stroke="#9a32cd" stroke-dasharray="5,2" d="M876.78,-536.9C928.75,-539.78 989,-543.13 1039.8,-545.94"/>
<polygon fill="#9a32cd" stroke="#9a32cd" points="876.68,-533.39 866.5,-536.33 876.29,-540.38 876.68,-533.39"/>
<text text-anchor="middle" x="959.5" y="-548.14" font-family="Helvetica,sans-Serif" font-size="10.00"> creator</text>
</g>
<!-- Node17 -->
<g id="node17" class="node">
<title>Node17</title>
<g id="a_node17"><a xlink:href="interfacecom_1_1fs_1_1starfarer_1_1api_1_1impl_1_1campaign_1_1missions_1_1hub_1_1MissionHub.html" target="_top" xlink:title=" ">
<polygon fill="none" stroke="black" points="641.5,-466.14 641.5,-496.14 866.5,-496.14 866.5,-466.14 641.5,-466.14"/>
<text text-anchor="start" x="649.5" y="-484.14" font-family="Helvetica,sans-Serif" font-size="10.00">com.fs.starfarer.api.impl.campaign.missions.hub.</text>
<text text-anchor="middle" x="754" y="-473.14" font-family="Helvetica,sans-Serif" font-size="10.00">MissionHub</text>
</a>
</g>
</g>
<!-- Node17&#45;&gt;Node9 -->
<g id="edge18" class="edge">
<title>Node17&#45;&gt;Node9</title>
<path fill="none" stroke="#9a32cd" stroke-dasharray="5,2" d="M866.43,-497.73C914.41,-505.22 971.06,-514.54 1022,-524.14 1042.57,-528.02 1064.88,-532.68 1085.09,-537.07"/>
<polygon fill="#9a32cd" stroke="#9a32cd" points="866.75,-494.24 856.33,-496.16 865.68,-501.16 866.75,-494.24"/>
<text text-anchor="middle" x="959.5" y="-527.14" font-family="Helvetica,sans-Serif" font-size="10.00"> hub</text>
</g>
<!-- Node18 -->
<g id="node18" class="node">
<title>Node18</title>
<g id="a_node18"><a xlink:title=" ">
<polygon fill="none" stroke="#bfbfbf" points="641.5,-750.14 641.5,-780.14 866.5,-780.14 866.5,-750.14 641.5,-750.14"/>
<text text-anchor="start" x="649.5" y="-768.14" font-family="Helvetica,sans-Serif" font-size="10.00">com.fs.starfarer.api.impl.campaign.missions.hub.</text>
<text text-anchor="middle" x="754" y="-757.14" font-family="Helvetica,sans-Serif" font-size="10.00">BaseHubMission.TimeLimitData</text>
</a>
</g>
</g>
<!-- Node18&#45;&gt;Node9 -->
<g id="edge19" class="edge">
<title>Node18&#45;&gt;Node9</title>
<path fill="none" stroke="#9a32cd" stroke-dasharray="5,2" d="M876.9,-772.88C924.97,-770.77 978.88,-761.57 1022,-736.14 1090.3,-695.86 1131.71,-603.76 1145.93,-567.36"/>
<polygon fill="#9a32cd" stroke="#9a32cd" points="876.61,-769.39 866.73,-773.23 876.85,-776.39 876.61,-769.39"/>
<text text-anchor="middle" x="959.5" y="-775.14" font-family="Helvetica,sans-Serif" font-size="10.00"> timeLimit</text>
</g>
<!-- Node19 -->
<g id="node19" class="node">
<title>Node19</title>
<g id="a_node19"><a xlink:title=" ">
<polygon fill="none" stroke="#bfbfbf" points="260.5,-739.64 260.5,-758.64 389.5,-758.64 389.5,-739.64 260.5,-739.64"/>
<text text-anchor="middle" x="325" y="-746.64" font-family="Helvetica,sans-Serif" font-size="10.00">LinkedHashSet&lt; Object &gt;</text>
</a>
</g>
</g>
<!-- Node19&#45;&gt;Node18 -->
<g id="edge20" class="edge">
<title>Node19&#45;&gt;Node18</title>
<path fill="none" stroke="#9a32cd" stroke-dasharray="5,2" d="M399.8,-749.7C457.36,-750.37 539.29,-751.86 611,-755.14 620.88,-755.59 631.13,-756.15 641.41,-756.76"/>
<polygon fill="#9a32cd" stroke="#9a32cd" points="399.74,-746.2 389.7,-749.59 399.66,-753.2 399.74,-746.2"/>
<text text-anchor="middle" x="536.5" y="-758.14" font-family="Helvetica,sans-Serif" font-size="10.00"> endLimitStages</text>
</g>
<!-- Node20 -->
<g id="node20" class="node">
<title>Node20</title>
<g id="a_node20"><a xlink:href="interfacecom_1_1fs_1_1starfarer_1_1api_1_1campaign_1_1StarSystemAPI.html" target="_top" xlink:title=" ">
<polygon fill="none" stroke="black" points="252,-778.14 252,-808.14 398,-808.14 398,-778.14 252,-778.14"/>
<text text-anchor="start" x="260" y="-796.14" font-family="Helvetica,sans-Serif" font-size="10.00">com.fs.starfarer.api.campaign.</text>
<text text-anchor="middle" x="325" y="-785.14" font-family="Helvetica,sans-Serif" font-size="10.00">StarSystemAPI</text>
</a>
</g>
</g>
<!-- Node20&#45;&gt;Node18 -->
<g id="edge21" class="edge">
<title>Node20&#45;&gt;Node18</title>
<path fill="none" stroke="#9a32cd" stroke-dasharray="5,2" d="M408.81,-787.71C474.99,-783.37 568.39,-777.25 641.2,-772.47"/>
<polygon fill="#9a32cd" stroke="#9a32cd" points="408.18,-784.25 398.43,-788.39 408.64,-791.23 408.18,-784.25"/>
<text text-anchor="middle" x="536.5" y="-787.14" font-family="Helvetica,sans-Serif" font-size="10.00"> noLimitWhileInSystem</text>
</g>
<!-- Node21 -->
<g id="node21" class="node">
<title>Node21</title>
<g id="a_node21"><a xlink:href="interfacecom_1_1fs_1_1starfarer_1_1api_1_1campaign_1_1LocationAPI.html" target="_top" xlink:title=" ">
<polygon fill="none" stroke="black" points="11.5,-778.14 11.5,-808.14 157.5,-808.14 157.5,-778.14 11.5,-778.14"/>
<text text-anchor="start" x="19.5" y="-796.14" font-family="Helvetica,sans-Serif" font-size="10.00">com.fs.starfarer.api.campaign.</text>
<text text-anchor="middle" x="84.5" y="-785.14" font-family="Helvetica,sans-Serif" font-size="10.00">LocationAPI</text>
</a>
</g>
</g>
<!-- Node21&#45;&gt;Node20 -->
<g id="edge22" class="edge">
<title>Node21&#45;&gt;Node20</title>
<path fill="none" stroke="midnightblue" d="M167.98,-793.14C195.19,-793.14 225.23,-793.14 251.63,-793.14"/>
<polygon fill="midnightblue" stroke="midnightblue" points="167.71,-789.64 157.71,-793.14 167.71,-796.64 167.71,-789.64"/>
</g>
<!-- Node22 -->
<g id="node22" class="node">
<title>Node22</title>
<g id="a_node22"><a xlink:href="interfacecom_1_1fs_1_1starfarer_1_1api_1_1campaign_1_1CargoAPI.html" target="_top" xlink:title=" ">
<polygon fill="none" stroke="black" points="681,-369.14 681,-399.14 827,-399.14 827,-369.14 681,-369.14"/>
<text text-anchor="start" x="689" y="-387.14" font-family="Helvetica,sans-Serif" font-size="10.00">com.fs.starfarer.api.campaign.</text>
<text text-anchor="middle" x="754" y="-376.14" font-family="Helvetica,sans-Serif" font-size="10.00">CargoAPI</text>
</a>
</g>
</g>
<!-- Node22&#45;&gt;Node9 -->
<g id="edge23" class="edge">
<title>Node22&#45;&gt;Node9</title>
<path fill="none" stroke="#9a32cd" stroke-dasharray="5,2" d="M837.66,-378.11C906.01,-375.05 995.94,-376.11 1022,-400.14 1063.91,-438.79 1001.33,-485.26 1040,-527.14 1043.5,-530.93 1047.44,-534.21 1051.69,-537.04"/>
<polygon fill="#9a32cd" stroke="#9a32cd" points="837.13,-374.63 827.31,-378.61 837.47,-381.63 837.13,-374.63"/>
<text text-anchor="middle" x="959.5" y="-414.14" font-family="Helvetica,sans-Serif" font-size="10.00"> cargoOnAccept</text>
<text text-anchor="middle" x="959.5" y="-403.14" font-family="Helvetica,sans-Serif" font-size="10.00">cargoOnSuccess</text>
</g>
<!-- Node23 -->
<g id="node23" class="node">
<title>Node23</title>
<g id="a_node23"><a xlink:title=" ">
<polygon fill="none" stroke="#bfbfbf" points="641.5,-701.14 641.5,-731.14 866.5,-731.14 866.5,-701.14 641.5,-701.14"/>
<text text-anchor="start" x="649.5" y="-719.14" font-family="Helvetica,sans-Serif" font-size="10.00">com.fs.starfarer.api.impl.campaign.missions.hub.</text>
<text text-anchor="middle" x="754" y="-708.14" font-family="Helvetica,sans-Serif" font-size="10.00">BaseHubMission.HubMissionResult</text>
</a>
</g>
</g>
<!-- Node23&#45;&gt;Node9 -->
<g id="edge24" class="edge">
<title>Node23&#45;&gt;Node9</title>
<path fill="none" stroke="#9a32cd" stroke-dasharray="5,2" d="M876.74,-724.74C924.17,-723.43 977.67,-715.93 1022,-694.14 1080.39,-665.44 1124.96,-598.08 1142.89,-567.6"/>
<polygon fill="#9a32cd" stroke="#9a32cd" points="876.65,-721.24 866.72,-724.93 876.78,-728.24 876.65,-721.24"/>
<text text-anchor="middle" x="959.5" y="-727.14" font-family="Helvetica,sans-Serif" font-size="10.00"> result</text>
</g>
<!-- Node24 -->
<g id="node24" class="node">
<title>Node24</title>
<g id="a_node24"><a xlink:title=" ">
<polygon fill="none" stroke="#bfbfbf" points="220,-679.64 220,-720.64 430,-720.64 430,-679.64 220,-679.64"/>
<text text-anchor="start" x="228" y="-708.64" font-family="Helvetica,sans-Serif" font-size="10.00">com.fs.starfarer.api.campaign.</text>
<text text-anchor="start" x="228" y="-697.64" font-family="Helvetica,sans-Serif" font-size="10.00">ReputationActionResponsePlugin.Reputation</text>
<text text-anchor="middle" x="325" y="-686.64" font-family="Helvetica,sans-Serif" font-size="10.00">AdjustmentResult</text>
</a>
</g>
</g>
<!-- Node24&#45;&gt;Node23 -->
<g id="edge25" class="edge">
<title>Node24&#45;&gt;Node23</title>
<path fill="none" stroke="#9a32cd" stroke-dasharray="5,2" d="M440.44,-704.43C502.71,-706.76 579.43,-709.64 641.27,-711.96"/>
<polygon fill="#9a32cd" stroke="#9a32cd" points="440.31,-700.92 430.18,-704.05 440.04,-707.92 440.31,-700.92"/>
<text text-anchor="middle" x="536.5" y="-725.14" font-family="Helvetica,sans-Serif" font-size="10.00"> repFaction</text>
<text text-anchor="middle" x="536.5" y="-714.14" font-family="Helvetica,sans-Serif" font-size="10.00">repPerson</text>
</g>
<!-- Node25 -->
<g id="node25" class="node">
<title>Node25</title>
<g id="a_node25"><a xlink:title=" ">
<polygon fill="none" stroke="#bfbfbf" points="715,-330.64 715,-349.64 793,-349.64 793,-330.64 715,-330.64"/>
<text text-anchor="middle" x="754" y="-337.64" font-family="Helvetica,sans-Serif" font-size="10.00">List&lt; Object &gt;</text>
</a>
</g>
</g>
<!-- Node25&#45;&gt;Node9 -->
<g id="edge26" class="edge">
<title>Node25&#45;&gt;Node9</title>
<path fill="none" stroke="#9a32cd" stroke-dasharray="5,2" d="M803.18,-332.76C871.34,-323.52 991.08,-312.05 1022,-340.14 1052.9,-368.21 1012.38,-495.84 1040,-527.14 1043.28,-530.86 1046.99,-534.09 1051,-536.89"/>
<polygon fill="#9a32cd" stroke="#9a32cd" points="802.53,-329.32 793.11,-334.16 803.5,-336.25 802.53,-329.32"/>
<text text-anchor="middle" x="959.5" y="-365.14" font-family="Helvetica,sans-Serif" font-size="10.00"> failStages</text>
<text text-anchor="middle" x="959.5" y="-354.14" font-family="Helvetica,sans-Serif" font-size="10.00">noPenaltyFailStages</text>
<text text-anchor="middle" x="959.5" y="-343.14" font-family="Helvetica,sans-Serif" font-size="10.00">successStages</text>
</g>
<!-- Node26 -->
<g id="node26" class="node">
<title>Node26</title>
<g id="a_node26"><a xlink:title=" ">
<polygon fill="none" stroke="#bfbfbf" points="690,-281.14 690,-311.14 818,-311.14 818,-281.14 690,-281.14"/>
<text text-anchor="start" x="698" y="-299.14" font-family="Helvetica,sans-Serif" font-size="10.00">LinkedHashMap&lt; Object,</text>
<text text-anchor="middle" x="754" y="-288.14" font-family="Helvetica,sans-Serif" font-size="10.00"> StageData &gt;</text>
</a>
</g>
</g>
<!-- Node26&#45;&gt;Node9 -->
<g id="edge27" class="edge">
<title>Node26&#45;&gt;Node9</title>
<path fill="none" stroke="#9a32cd" stroke-dasharray="5,2" d="M828.04,-289.08C897.5,-284.14 995.25,-282.36 1022,-308.14 1057.16,-342.02 1007.94,-490.31 1040,-527.14 1043.26,-530.88 1046.94,-534.13 1050.94,-536.95"/>
<polygon fill="#9a32cd" stroke="#9a32cd" points="827.72,-285.6 818.01,-289.83 828.24,-292.58 827.72,-285.6"/>
<text text-anchor="middle" x="959.5" y="-311.14" font-family="Helvetica,sans-Serif" font-size="10.00"> stages</text>
</g>
<!-- Node27 -->
<g id="node27" class="node">
<title>Node27</title>
<g id="a_node27"><a xlink:href="enumcom_1_1fs_1_1starfarer_1_1api_1_1campaign_1_1PersonImportance.html" target="_top" xlink:title=" ">
<polygon fill="none" stroke="black" points="681,-232.14 681,-262.14 827,-262.14 827,-232.14 681,-232.14"/>
<text text-anchor="start" x="689" y="-250.14" font-family="Helvetica,sans-Serif" font-size="10.00">com.fs.starfarer.api.campaign.</text>
<text text-anchor="middle" x="754" y="-239.14" font-family="Helvetica,sans-Serif" font-size="10.00">PersonImportance</text>
</a>
</g>
</g>
<!-- Node27&#45;&gt;Node9 -->
<g id="edge28" class="edge">
<title>Node27&#45;&gt;Node9</title>
<path fill="none" stroke="#9a32cd" stroke-dasharray="5,2" d="M828.53,-230.55C889.17,-221.63 972.92,-221.1 1022,-271.14 1061.93,-311.86 1002.82,-483.9 1040,-527.14 1043.23,-530.9 1046.9,-534.17 1050.88,-537"/>
<polygon fill="#9a32cd" stroke="#9a32cd" points="827.97,-227.1 818.63,-232.11 829.06,-234.01 827.97,-227.1"/>
<text text-anchor="middle" x="959.5" y="-274.14" font-family="Helvetica,sans-Serif" font-size="10.00"> giverImportance</text>
</g>
<!-- Node28 -->
<g id="node28" class="node">
<title>Node28</title>
<g id="a_node28"><a xlink:title=" ">
<polygon fill="none" stroke="#bfbfbf" points="679.5,-183.14 679.5,-213.14 828.5,-213.14 828.5,-183.14 679.5,-183.14"/>
<text text-anchor="start" x="687.5" y="-201.14" font-family="Helvetica,sans-Serif" font-size="10.00">com.fs.starfarer.api.characters.</text>
<text text-anchor="middle" x="754" y="-190.14" font-family="Helvetica,sans-Serif" font-size="10.00">FullName.Gender</text>
</a>
</g>
</g>
<!-- Node28&#45;&gt;Node9 -->
<g id="edge29" class="edge">
<title>Node28&#45;&gt;Node9</title>
<path fill="none" stroke="#9a32cd" stroke-dasharray="5,2" d="M839.06,-190.53C907.58,-186.38 996.97,-186.31 1022,-211.14 1071.94,-260.67 994.5,-473.51 1040,-527.14 1043.21,-530.92 1046.85,-534.21 1050.82,-537.05"/>
<polygon fill="#9a32cd" stroke="#9a32cd" points="838.44,-187.07 828.69,-191.2 838.89,-194.05 838.44,-187.07"/>
<text text-anchor="middle" x="959.5" y="-214.14" font-family="Helvetica,sans-Serif" font-size="10.00"> giverGender</text>
</g>
<!-- Node29 -->
<g id="node29" class="node">
<title>Node29</title>
<g id="a_node29"><a xlink:href="interfacecom_1_1fs_1_1starfarer_1_1api_1_1campaign_1_1rules_1_1MemoryAPI.html" target="_top" xlink:title=" ">
<polygon fill="none" stroke="black" points="669.5,-134.14 669.5,-164.14 838.5,-164.14 838.5,-134.14 669.5,-134.14"/>
<text text-anchor="start" x="677.5" y="-152.14" font-family="Helvetica,sans-Serif" font-size="10.00">com.fs.starfarer.api.campaign.rules.</text>
<text text-anchor="middle" x="754" y="-141.14" font-family="Helvetica,sans-Serif" font-size="10.00">MemoryAPI</text>
</a>
</g>
</g>
<!-- Node29&#45;&gt;Node9 -->
<g id="edge30" class="edge">
<title>Node29&#45;&gt;Node9</title>
<path fill="none" stroke="#9a32cd" stroke-dasharray="5,2" d="M829.11,-132.59C889.89,-123.81 973.56,-123.6 1022,-174.14 1049.18,-202.49 1014.68,-497.12 1040,-527.14 1043.2,-530.93 1046.83,-534.22 1050.79,-537.07"/>
<polygon fill="#9a32cd" stroke="#9a32cd" points="828.52,-129.13 819.18,-134.12 829.6,-136.05 828.52,-129.13"/>
<text text-anchor="middle" x="959.5" y="-177.14" font-family="Helvetica,sans-Serif" font-size="10.00"> interactionMemory</text>
</g>
<!-- Node30 -->
<g id="node30" class="node">
<title>Node30</title>
<g id="a_node30"><a xlink:title=" ">
<polygon fill="none" stroke="#bfbfbf" points="709.5,-95.64 709.5,-114.64 798.5,-114.64 798.5,-95.64 709.5,-95.64"/>
<text text-anchor="middle" x="754" y="-102.64" font-family="Helvetica,sans-Serif" font-size="10.00">List&lt; FlagData &gt;</text>
</a>
</g>
</g>
<!-- Node30&#45;&gt;Node9 -->
<g id="edge32" class="edge">
<title>Node30&#45;&gt;Node9</title>
<path fill="none" stroke="#9a32cd" stroke-dasharray="5,2" d="M809.03,-98.76C878.34,-91.9 993.08,-85.51 1022,-114.14 1054.64,-146.46 1010.52,-491.92 1040,-527.14 1043.18,-530.95 1046.81,-534.24 1050.76,-537.1"/>
<polygon fill="#9a32cd" stroke="#9a32cd" points="808.33,-95.31 798.73,-99.81 809.04,-102.27 808.33,-95.31"/>
<text text-anchor="middle" x="959.5" y="-117.14" font-family="Helvetica,sans-Serif" font-size="10.00"> flags</text>
</g>
<!-- Node31 -->
<g id="node31" class="node">
<title>Node31</title>
<g id="a_node31"><a xlink:title=" ">
<polygon fill="none" stroke="#bfbfbf" points="692,-57.64 692,-76.64 816,-76.64 816,-57.64 692,-57.64"/>
<text text-anchor="middle" x="754" y="-64.64" font-family="Helvetica,sans-Serif" font-size="10.00">List&lt; StageConnection &gt;</text>
</a>
</g>
</g>
<!-- Node31&#45;&gt;Node9 -->
<g id="edge33" class="edge">
<title>Node31&#45;&gt;Node9</title>
<path fill="none" stroke="#9a32cd" stroke-dasharray="5,2" d="M826.09,-59.73C895.83,-54.21 995.48,-51.59 1022,-78.14 1057.29,-113.47 1008.02,-488.8 1040,-527.14 1043.18,-530.95 1046.8,-534.25 1050.74,-537.11"/>
<polygon fill="#9a32cd" stroke="#9a32cd" points="825.7,-56.25 816.02,-60.56 826.28,-63.22 825.7,-56.25"/>
<text text-anchor="middle" x="959.5" y="-81.14" font-family="Helvetica,sans-Serif" font-size="10.00"> connections</text>
</g>
<!-- Node32 -->
<g id="node32" class="node">
<title>Node32</title>
<g id="a_node32"><a xlink:title=" ">
<polygon fill="none" stroke="#bfbfbf" points="717,-19.64 717,-38.64 791,-38.64 791,-19.64 717,-19.64"/>
<text text-anchor="middle" x="754" y="-26.64" font-family="Helvetica,sans-Serif" font-size="10.00">Set&lt; String &gt;</text>
</a>
</g>
</g>
<!-- Node32&#45;&gt;Node9 -->
<g id="edge34" class="edge">
<title>Node32&#45;&gt;Node9</title>
<path fill="none" stroke="#9a32cd" stroke-dasharray="5,2" d="M793.6,-16.69C852.01,-0.53 962.34,18.99 1022,-41.14 1060.06,-79.5 1005.45,-485.59 1040,-527.14 1043.17,-530.96 1046.79,-534.26 1050.73,-537.13"/>
<polygon fill="#9a32cd" stroke="#9a32cd" points="792.31,-13.42 783.66,-19.54 794.24,-20.14 792.31,-13.42"/>
<text text-anchor="middle" x="959.5" y="-44.14" font-family="Helvetica,sans-Serif" font-size="10.00"> addedTags</text>
</g>
<!-- Node33 -->
<g id="node33" class="node">
<title>Node33</title>
<g id="a_node33"><a xlink:title=" ">
<polygon fill="none" stroke="#bfbfbf" points="629,-925.14 629,-955.14 879,-955.14 879,-925.14 629,-925.14"/>
<text text-anchor="start" x="637" y="-943.14" font-family="Helvetica,sans-Serif" font-size="10.00">List&lt; com.fs.starfarer.api.impl.campaign.missions.hub.</text>
<text text-anchor="middle" x="754" y="-932.14" font-family="Helvetica,sans-Serif" font-size="10.00">MissionTrigger &gt;</text>
</a>
</g>
</g>
<!-- Node33&#45;&gt;Node9 -->
<g id="edge35" class="edge">
<title>Node33&#45;&gt;Node9</title>
<path fill="none" stroke="#9a32cd" stroke-dasharray="5,2" d="M889.28,-930.99C944.79,-924.71 1001.05,-914.29 1022,-897.14 1129.7,-809.03 1147.87,-621.61 1150.9,-567.23"/>
<polygon fill="#9a32cd" stroke="#9a32cd" points="888.86,-927.51 879.3,-932.08 889.62,-934.47 888.86,-927.51"/>
<text text-anchor="middle" x="959.5" y="-933.14" font-family="Helvetica,sans-Serif" font-size="10.00"> triggers</text>
</g>
<!-- Node34 -->
<g id="node34" class="node">
<title>Node34</title>
<g id="a_node34"><a xlink:title=" ">
<polygon fill="none" stroke="#bfbfbf" points="708.5,-837.64 708.5,-856.64 799.5,-856.64 799.5,-837.64 708.5,-837.64"/>
<text text-anchor="middle" x="754" y="-844.64" font-family="Helvetica,sans-Serif" font-size="10.00">List&lt; Abortable &gt;</text>
</a>
</g>
</g>
<!-- Node34&#45;&gt;Node9 -->
<g id="edge36" class="edge">
<title>Node34&#45;&gt;Node9</title>
<path fill="none" stroke="#9a32cd" stroke-dasharray="5,2" d="M809.87,-848.91C877.86,-850.04 988.8,-848.1 1022,-825.14 1113.9,-761.59 1142.52,-614.8 1149.54,-567.28"/>
<polygon fill="#9a32cd" stroke="#9a32cd" points="809.82,-845.41 799.76,-848.71 809.69,-852.41 809.82,-845.41"/>
<text text-anchor="middle" x="959.5" y="-851.14" font-family="Helvetica,sans-Serif" font-size="10.00"> changes</text>
</g>
<!-- Node35 -->
<g id="node35" class="node">
<title>Node35</title>
<g id="a_node35"><a xlink:title=" ">
<polygon fill="none" stroke="#bfbfbf" points="727.5,-799.64 727.5,-818.64 780.5,-818.64 780.5,-799.64 727.5,-799.64"/>
<text text-anchor="middle" x="754" y="-806.64" font-family="Helvetica,sans-Serif" font-size="10.00">Random</text>
</a>
</g>
</g>
<!-- Node35&#45;&gt;Node9 -->
<g id="edge37" class="edge">
<title>Node35&#45;&gt;Node9</title>
<path fill="none" stroke="#9a32cd" stroke-dasharray="5,2" d="M790.81,-810.28C854.61,-811.65 984.74,-811.27 1022,-787.14 1103.92,-734.09 1138.49,-610.49 1148.34,-567.34"/>
<polygon fill="#9a32cd" stroke="#9a32cd" points="790.88,-806.78 780.8,-810.04 790.72,-813.78 790.88,-806.78"/>
<text text-anchor="middle" x="959.5" y="-813.14" font-family="Helvetica,sans-Serif" font-size="10.00"> genRandom</text>
</g>
<!-- Node36&#45;&gt;Node9 -->
<g id="edge38" class="edge">
<title>Node36&#45;&gt;Node9</title>
<path fill="none" stroke="#9a32cd" stroke-dasharray="5,2" d="M551.38,-519.4C566.87,-495.54 594.36,-460.19 629,-445.14 730.91,-400.87 769.69,-425.19 879,-445.14 945.83,-457.34 969.19,-456.41 1022,-499.14 1033.5,-508.45 1027.87,-518.67 1040,-527.14 1045.53,-531.01 1051.56,-534.28 1057.85,-537.07"/>
<polygon fill="#9a32cd" stroke="#9a32cd" points="548.39,-517.59 546.05,-527.92 554.32,-521.31 548.39,-517.59"/>
<text text-anchor="middle" x="754" y="-448.14" font-family="Helvetica,sans-Serif" font-size="10.00"> personOverride</text>
</g>
<!-- Node37 -->
<g id="node37" class="node">
<title>Node37</title>
<g id="a_node37"><a xlink:href="enumcom_1_1fs_1_1starfarer_1_1api_1_1campaign_1_1RepLevel.html" target="_top" xlink:title=" ">
<polygon fill="none" stroke="black" points="681,-652.14 681,-682.14 827,-682.14 827,-652.14 681,-652.14"/>
<text text-anchor="start" x="689" y="-670.14" font-family="Helvetica,sans-Serif" font-size="10.00">com.fs.starfarer.api.campaign.</text>
<text text-anchor="middle" x="754" y="-659.14" font-family="Helvetica,sans-Serif" font-size="10.00">RepLevel</text>
</a>
</g>
</g>
<!-- Node37&#45;&gt;Node9 -->
<g id="edge40" class="edge">
<title>Node37&#45;&gt;Node9</title>
<path fill="none" stroke="#9a32cd" stroke-dasharray="5,2" d="M837.26,-656.78C890.79,-648.67 961.62,-635.32 1022,-615.14 1059.47,-602.62 1100.01,-581.56 1125.57,-567.27"/>
<polygon fill="#9a32cd" stroke="#9a32cd" points="836.51,-653.36 827.13,-658.29 837.54,-660.28 836.51,-653.36"/>
<text text-anchor="middle" x="959.5" y="-682.14" font-family="Helvetica,sans-Serif" font-size="10.00"> penaltyLimitFaction</text>
<text text-anchor="middle" x="959.5" y="-671.14" font-family="Helvetica,sans-Serif" font-size="10.00">penaltyLimitPerson</text>
<text text-anchor="middle" x="959.5" y="-660.14" font-family="Helvetica,sans-Serif" font-size="10.00">rewardLimitFaction</text>
<text text-anchor="middle" x="959.5" y="-649.14" font-family="Helvetica,sans-Serif" font-size="10.00">rewardLimitPerson</text>
</g>
</g>
</svg>
