<?xml version="1.0" encoding="UTF-8" standalone="no"?>
<!DOCTYPE svg PUBLIC "-//W3C//DTD SVG 1.1//EN"
 "http://www.w3.org/Graphics/SVG/1.1/DTD/svg11.dtd">
<!-- Generated by graphviz version 12.2.0 (20241103.1931)
 -->
<!-- Title: com.fs.starfarer.api.impl.campaign.intel.group.FGTravelAction Pages: 1 -->
<svg width="2129pt" height="726pt"
 viewBox="0.00 0.00 2128.50 725.50" xmlns="http://www.w3.org/2000/svg" xmlns:xlink="http://www.w3.org/1999/xlink">
<g id="graph0" class="graph" transform="scale(1 1) rotate(0) translate(4 721.5)">
<title>com.fs.starfarer.api.impl.campaign.intel.group.FGTravelAction</title>
<!-- Node1 -->
<g id="Node000001" class="node">
<title>Node1</title>
<g id="a_Node000001"><a xlink:title=" ">
<polygon fill="#999999" stroke="#666666" points="2120.5,-426.5 1908.75,-426.5 1908.75,-396 2120.5,-396 2120.5,-426.5"/>
<text text-anchor="start" x="1916.75" y="-413" font-family="Helvetica,sans-Serif" font-size="10.00">com.fs.starfarer.api.impl.campaign.intel.group.</text>
<text text-anchor="middle" x="2014.62" y="-401.75" font-family="Helvetica,sans-Serif" font-size="10.00">FGTravelAction</text>
</a>
</g>
</g>
<!-- Node2 -->
<g id="Node000002" class="node">
<title>Node2</title>
<g id="a_Node000002"><a xlink:href="classcom_1_1fs_1_1starfarer_1_1api_1_1impl_1_1campaign_1_1intel_1_1group_1_1BaseFGAction.html" target="_top" xlink:title=" ">
<polygon fill="white" stroke="#666666" points="1839,-426.5 1627.25,-426.5 1627.25,-396 1839,-396 1839,-426.5"/>
<text text-anchor="start" x="1635.25" y="-413" font-family="Helvetica,sans-Serif" font-size="10.00">com.fs.starfarer.api.impl.campaign.intel.group.</text>
<text text-anchor="middle" x="1733.12" y="-401.75" font-family="Helvetica,sans-Serif" font-size="10.00">BaseFGAction</text>
</a>
</g>
</g>
<!-- Node2&#45;&gt;Node1 -->
<g id="edge1_Node000001_Node000002" class="edge">
<title>Node2&#45;&gt;Node1</title>
<g id="a_edge1_Node000001_Node000002"><a xlink:title=" ">
<path fill="none" stroke="#63b8ff" d="M1850.87,-411.25C1869.97,-411.25 1889.66,-411.25 1908.45,-411.25"/>
<polygon fill="#63b8ff" stroke="#63b8ff" points="1850.91,-407.75 1840.91,-411.25 1850.91,-414.75 1850.91,-407.75"/>
</a>
</g>
</g>
<!-- Node3 -->
<g id="Node000003" class="node">
<title>Node3</title>
<g id="a_Node000003"><a xlink:href="interfacecom_1_1fs_1_1starfarer_1_1api_1_1impl_1_1campaign_1_1intel_1_1group_1_1FGAction.html" target="_top" xlink:title=" ">
<polygon fill="white" stroke="#666666" points="1571,-426.5 1359.25,-426.5 1359.25,-396 1571,-396 1571,-426.5"/>
<text text-anchor="start" x="1367.25" y="-413" font-family="Helvetica,sans-Serif" font-size="10.00">com.fs.starfarer.api.impl.campaign.intel.group.</text>
<text text-anchor="middle" x="1465.12" y="-401.75" font-family="Helvetica,sans-Serif" font-size="10.00">FGAction</text>
</a>
</g>
</g>
<!-- Node3&#45;&gt;Node2 -->
<g id="edge2_Node000002_Node000003" class="edge">
<title>Node3&#45;&gt;Node2</title>
<g id="a_edge2_Node000002_Node000003"><a xlink:title=" ">
<path fill="none" stroke="#63b8ff" d="M1582.48,-411.25C1597.26,-411.25 1612.3,-411.25 1626.89,-411.25"/>
<polygon fill="#63b8ff" stroke="#63b8ff" points="1582.77,-407.75 1572.77,-411.25 1582.77,-414.75 1582.77,-407.75"/>
</a>
</g>
</g>
<!-- Node4 -->
<g id="Node000004" class="node">
<title>Node4</title>
<g id="a_Node000004"><a xlink:href="classcom_1_1fs_1_1starfarer_1_1api_1_1impl_1_1campaign_1_1intel_1_1group_1_1FleetGroupIntel.html" target="_top" xlink:title=" ">
<polygon fill="white" stroke="#666666" points="1571,-287.5 1359.25,-287.5 1359.25,-257 1571,-257 1571,-287.5"/>
<text text-anchor="start" x="1367.25" y="-274" font-family="Helvetica,sans-Serif" font-size="10.00">com.fs.starfarer.api.impl.campaign.intel.group.</text>
<text text-anchor="middle" x="1465.12" y="-262.75" font-family="Helvetica,sans-Serif" font-size="10.00">FleetGroupIntel</text>
</a>
</g>
</g>
<!-- Node4&#45;&gt;Node2 -->
<g id="edge3_Node000002_Node000004" class="edge">
<title>Node4&#45;&gt;Node2</title>
<g id="a_edge3_Node000002_Node000004"><a xlink:title=" ">
<path fill="none" stroke="#9a32cd" stroke-dasharray="5,2" d="M1491.75,-295.15C1522.02,-321.01 1574.91,-362.57 1627.25,-386.25 1635.09,-389.8 1643.51,-392.88 1652.03,-395.55"/>
<polygon fill="#9a32cd" stroke="#9a32cd" points="1494.1,-292.55 1484.25,-288.65 1489.52,-297.85 1494.1,-292.55"/>
</a>
</g>
<text text-anchor="middle" x="1599.12" y="-378.58" font-family="Helvetica,sans-Serif" font-size="10.00" fill="grey"> intel</text>
</g>
<!-- Node5 -->
<g id="Node000005" class="node">
<title>Node5</title>
<g id="a_Node000005"><a xlink:href="classcom_1_1fs_1_1starfarer_1_1api_1_1impl_1_1campaign_1_1intel_1_1BaseIntelPlugin.html" target="_top" xlink:title=" ">
<polygon fill="white" stroke="#666666" points="834.88,-570.5 649.38,-570.5 649.38,-540 834.88,-540 834.88,-570.5"/>
<text text-anchor="start" x="657.38" y="-557" font-family="Helvetica,sans-Serif" font-size="10.00">com.fs.starfarer.api.impl.campaign.intel.</text>
<text text-anchor="middle" x="742.12" y="-545.75" font-family="Helvetica,sans-Serif" font-size="10.00">BaseIntelPlugin</text>
</a>
</g>
</g>
<!-- Node5&#45;&gt;Node4 -->
<g id="edge4_Node000004_Node000005" class="edge">
<title>Node5&#45;&gt;Node4</title>
<g id="a_edge4_Node000004_Node000005"><a xlink:title=" ">
<path fill="none" stroke="#63b8ff" d="M846.33,-547.31C997.33,-533.71 1268.45,-501.12 1341.25,-438.25 1359.44,-422.54 1346.91,-407.87 1359.25,-387.25 1383.4,-346.91 1423.17,-308.28 1446.17,-287.67"/>
<polygon fill="#63b8ff" stroke="#63b8ff" points="846.39,-543.79 836.74,-548.16 847.01,-550.76 846.39,-543.79"/>
</a>
</g>
</g>
<!-- Node6 -->
<g id="Node000006" class="node">
<title>Node6</title>
<g id="a_Node000006"><a xlink:href="interfacecom_1_1fs_1_1starfarer_1_1api_1_1campaign_1_1comm_1_1IntelInfoPlugin.html" target="_top" xlink:title=" ">
<polygon fill="white" stroke="#666666" points="411,-717.5 236.75,-717.5 236.75,-687 411,-687 411,-717.5"/>
<text text-anchor="start" x="244.75" y="-704" font-family="Helvetica,sans-Serif" font-size="10.00">com.fs.starfarer.api.campaign.comm.</text>
<text text-anchor="middle" x="323.88" y="-692.75" font-family="Helvetica,sans-Serif" font-size="10.00">IntelInfoPlugin</text>
</a>
</g>
</g>
<!-- Node6&#45;&gt;Node5 -->
<g id="edge5_Node000005_Node000006" class="edge">
<title>Node6&#45;&gt;Node5</title>
<g id="a_edge5_Node000005_Node000006"><a xlink:title=" ">
<path fill="none" stroke="#63b8ff" d="M422.39,-686.13C483.38,-673.98 562.63,-654.36 628.75,-625.25 662.62,-610.34 698.33,-586.5 720.18,-570.86"/>
<polygon fill="#63b8ff" stroke="#63b8ff" points="421.86,-682.67 412.71,-688.02 423.2,-689.54 421.86,-682.67"/>
</a>
</g>
</g>
<!-- Node7 -->
<g id="Node000007" class="node">
<title>Node7</title>
<g id="a_Node000007"><a xlink:title=" ">
<polygon fill="white" stroke="#666666" points="424.88,-668.5 222.88,-668.5 222.88,-638 424.88,-638 424.88,-668.5"/>
<text text-anchor="start" x="230.88" y="-655" font-family="Helvetica,sans-Serif" font-size="10.00">com.fs.starfarer.api.impl.campaign.rulecmd.</text>
<text text-anchor="middle" x="323.88" y="-643.75" font-family="Helvetica,sans-Serif" font-size="10.00">CallEvent.CallableEvent</text>
</a>
</g>
</g>
<!-- Node7&#45;&gt;Node5 -->
<g id="edge6_Node000005_Node000007" class="edge">
<title>Node7&#45;&gt;Node5</title>
<g id="a_edge6_Node000005_Node000007"><a xlink:title=" ">
<path fill="none" stroke="#63b8ff" d="M432.53,-635.55C491,-625.04 564.32,-610.43 628.75,-593.25 652.33,-586.96 678.16,-578.36 699.1,-570.92"/>
<polygon fill="#63b8ff" stroke="#63b8ff" points="432.14,-632.06 422.91,-637.26 433.37,-638.95 432.14,-632.06"/>
</a>
</g>
</g>
<!-- Node8 -->
<g id="Node000008" class="node">
<title>Node8</title>
<g id="a_Node000008"><a xlink:href="interfacecom_1_1fs_1_1starfarer_1_1api_1_1EveryFrameScript.html" target="_top" xlink:title=" ">
<polygon fill="white" stroke="#666666" points="386.25,-619.5 261.5,-619.5 261.5,-589 386.25,-589 386.25,-619.5"/>
<text text-anchor="start" x="269.5" y="-606" font-family="Helvetica,sans-Serif" font-size="10.00">com.fs.starfarer.api.Every</text>
<text text-anchor="middle" x="323.88" y="-594.75" font-family="Helvetica,sans-Serif" font-size="10.00">FrameScript</text>
</a>
</g>
</g>
<!-- Node8&#45;&gt;Node5 -->
<g id="edge7_Node000005_Node000008" class="edge">
<title>Node8&#45;&gt;Node5</title>
<g id="a_edge7_Node000005_Node000008"><a xlink:title=" ">
<path fill="none" stroke="#63b8ff" d="M397.74,-596.05C459.31,-589.07 549.83,-578.71 628.75,-569.25 635.39,-568.45 642.24,-567.62 649.14,-566.78"/>
<polygon fill="#63b8ff" stroke="#63b8ff" points="397.63,-592.54 388.09,-597.14 398.42,-599.49 397.63,-592.54"/>
</a>
</g>
</g>
<!-- Node9 -->
<g id="Node000009" class="node">
<title>Node9</title>
<g id="a_Node000009"><a xlink:title=" ">
<polygon fill="white" stroke="#666666" points="442.5,-570.5 205.25,-570.5 205.25,-540 442.5,-540 442.5,-570.5"/>
<text text-anchor="start" x="213.25" y="-557" font-family="Helvetica,sans-Serif" font-size="10.00">com.fs.starfarer.api.impl.campaign.</text>
<text text-anchor="middle" x="323.88" y="-545.75" font-family="Helvetica,sans-Serif" font-size="10.00">CommRelayEntityPlugin.CommSnifferReadableIntel</text>
</a>
</g>
</g>
<!-- Node9&#45;&gt;Node5 -->
<g id="edge8_Node000005_Node000009" class="edge">
<title>Node9&#45;&gt;Node5</title>
<g id="a_edge8_Node000005_Node000009"><a xlink:title=" ">
<path fill="none" stroke="#63b8ff" d="M454.01,-555.25C517.16,-555.25 591.71,-555.25 649.01,-555.25"/>
<polygon fill="#63b8ff" stroke="#63b8ff" points="454.28,-551.75 444.28,-555.25 454.28,-558.75 454.28,-551.75"/>
</a>
</g>
</g>
<!-- Node10 -->
<g id="Node000010" class="node">
<title>Node10</title>
<g id="a_Node000010"><a xlink:href="interfacecom_1_1fs_1_1starfarer_1_1api_1_1campaign_1_1SectorEntityToken.html" target="_top" xlink:title=" ">
<polygon fill="white" stroke="#666666" points="396.38,-396.5 251.38,-396.5 251.38,-366 396.38,-366 396.38,-396.5"/>
<text text-anchor="start" x="259.38" y="-383" font-family="Helvetica,sans-Serif" font-size="10.00">com.fs.starfarer.api.campaign.</text>
<text text-anchor="middle" x="323.88" y="-371.75" font-family="Helvetica,sans-Serif" font-size="10.00">SectorEntityToken</text>
</a>
</g>
</g>
<!-- Node10&#45;&gt;Node1 -->
<g id="edge33_Node000001_Node000010" class="edge">
<title>Node10&#45;&gt;Node1</title>
<g id="a_edge33_Node000001_Node000010"><a xlink:title=" ">
<path fill="none" stroke="#9a32cd" stroke-dasharray="5,2" d="M389.02,-399.96C411.47,-405.93 436.95,-412.07 460.5,-416.25 832.36,-482.3 928.44,-500.25 1306.12,-500.25 1306.12,-500.25 1306.12,-500.25 1734.12,-500.25 1829.61,-500.25 1935.16,-452.51 1984.81,-426.96"/>
<polygon fill="#9a32cd" stroke="#9a32cd" points="389.95,-396.59 379.39,-397.35 388.12,-403.34 389.95,-396.59"/>
</a>
</g>
<text text-anchor="middle" x="1307.12" y="-513.25" font-family="Helvetica,sans-Serif" font-size="10.00" fill="grey"> from</text>
<text text-anchor="middle" x="1307.12" y="-502" font-family="Helvetica,sans-Serif" font-size="10.00" fill="grey">to</text>
</g>
<!-- Node10&#45;&gt;Node4 -->
<g id="edge29_Node000004_Node000010" class="edge">
<title>Node10&#45;&gt;Node4</title>
<g id="a_edge29_Node000004_Node000010"><a xlink:title=" ">
<path fill="none" stroke="#9a32cd" stroke-dasharray="5,2" d="M408.07,-391.24C571.96,-408.68 947.43,-437.5 1255,-378.25 1294.58,-370.63 1304.78,-367.41 1341.25,-350.25 1379.2,-332.39 1419.6,-304.9 1443.32,-287.77"/>
<polygon fill="#9a32cd" stroke="#9a32cd" points="408.46,-387.76 398.14,-390.17 407.71,-394.72 408.46,-387.76"/>
</a>
</g>
<text text-anchor="middle" x="928" y="-415.38" font-family="Helvetica,sans-Serif" font-size="10.00" fill="grey"> returnLocation</text>
</g>
<!-- Node10&#45;&gt;Node5 -->
<g id="edge9_Node000005_Node000010" class="edge">
<title>Node10&#45;&gt;Node5</title>
<g id="a_edge9_Node000005_Node000010"><a xlink:title=" ">
<path fill="none" stroke="#9a32cd" stroke-dasharray="5,2" d="M351.7,-404.18C377.8,-425.3 419.42,-455.89 460.5,-473.25 530.83,-502.97 555.82,-485.37 628.75,-508 656.44,-516.59 686.68,-529.52 708.81,-539.68"/>
<polygon fill="#9a32cd" stroke="#9a32cd" points="353.93,-401.49 343.99,-397.84 349.49,-406.89 353.93,-401.49"/>
</a>
</g>
<text text-anchor="middle" x="544.62" y="-509.75" font-family="Helvetica,sans-Serif" font-size="10.00" fill="grey"> postingLocation</text>
</g>
<!-- Node20 -->
<g id="Node000020" class="node">
<title>Node20</title>
<g id="a_Node000020"><a xlink:href="interfacecom_1_1fs_1_1starfarer_1_1api_1_1campaign_1_1CampaignFleetAPI.html" target="_top" xlink:title=" ">
<polygon fill="white" stroke="#666666" points="814.62,-248.5 669.62,-248.5 669.62,-218 814.62,-218 814.62,-248.5"/>
<text text-anchor="start" x="677.62" y="-235" font-family="Helvetica,sans-Serif" font-size="10.00">com.fs.starfarer.api.campaign.</text>
<text text-anchor="middle" x="742.12" y="-223.75" font-family="Helvetica,sans-Serif" font-size="10.00">CampaignFleetAPI</text>
</a>
</g>
</g>
<!-- Node10&#45;&gt;Node20 -->
<g id="edge21_Node000020_Node000010" class="edge">
<title>Node10&#45;&gt;Node20</title>
<g id="a_edge21_Node000020_Node000010"><a xlink:title=" ">
<path fill="none" stroke="#63b8ff" d="M372.37,-361.28C434.67,-335.51 547.72,-290.19 646.75,-258.25 656.83,-255 667.62,-251.84 678.16,-248.93"/>
<polygon fill="#63b8ff" stroke="#63b8ff" points="371.37,-357.91 363.47,-364.97 374.05,-364.37 371.37,-357.91"/>
</a>
</g>
</g>
<!-- Node22 -->
<g id="Node000022" class="node">
<title>Node22</title>
<g id="a_Node000022"><a xlink:title=" ">
<polygon fill="white" stroke="#666666" points="837.5,-346.5 646.75,-346.5 646.75,-316 837.5,-316 837.5,-346.5"/>
<text text-anchor="start" x="654.75" y="-333" font-family="Helvetica,sans-Serif" font-size="10.00">com.fs.starfarer.api.impl.campaign.fleets.</text>
<text text-anchor="middle" x="742.12" y="-321.75" font-family="Helvetica,sans-Serif" font-size="10.00">RouteManager.RouteSegment</text>
</a>
</g>
</g>
<!-- Node10&#45;&gt;Node22 -->
<g id="edge24_Node000022_Node000010" class="edge">
<title>Node10&#45;&gt;Node22</title>
<g id="a_edge24_Node000022_Node000010"><a xlink:title=" ">
<path fill="none" stroke="#9a32cd" stroke-dasharray="5,2" d="M407.64,-371.31C476.45,-363.04 574.4,-351.28 646.35,-342.63"/>
<polygon fill="#9a32cd" stroke="#9a32cd" points="407.44,-367.81 397.93,-372.47 408.28,-374.76 407.44,-367.81"/>
</a>
</g>
<text text-anchor="middle" x="544.62" y="-376.65" font-family="Helvetica,sans-Serif" font-size="10.00" fill="grey"> from</text>
<text text-anchor="middle" x="544.62" y="-365.4" font-family="Helvetica,sans-Serif" font-size="10.00" fill="grey">to</text>
</g>
<!-- Node11 -->
<g id="Node000011" class="node">
<title>Node11</title>
<g id="a_Node000011"><a xlink:href="interfacecom_1_1fs_1_1starfarer_1_1api_1_1campaign_1_1rules_1_1HasMemory.html" target="_top" xlink:title=" ">
<polygon fill="white" stroke="#666666" points="168.25,-203.5 0,-203.5 0,-173 168.25,-173 168.25,-203.5"/>
<text text-anchor="start" x="8" y="-190" font-family="Helvetica,sans-Serif" font-size="10.00">com.fs.starfarer.api.campaign.rules.</text>
<text text-anchor="middle" x="84.12" y="-178.75" font-family="Helvetica,sans-Serif" font-size="10.00">HasMemory</text>
</a>
</g>
</g>
<!-- Node11&#45;&gt;Node10 -->
<g id="edge10_Node000010_Node000011" class="edge">
<title>Node11&#45;&gt;Node10</title>
<g id="a_edge10_Node000010_Node000011"><a xlink:title=" ">
<path fill="none" stroke="#63b8ff" d="M112.96,-210.85C161.83,-250.51 261.82,-331.69 303.73,-365.71"/>
<polygon fill="#63b8ff" stroke="#63b8ff" points="115.32,-208.26 105.35,-204.67 110.91,-213.69 115.32,-208.26"/>
</a>
</g>
</g>
<!-- Node18 -->
<g id="Node000018" class="node">
<title>Node18</title>
<g id="a_Node000018"><a xlink:href="interfacecom_1_1fs_1_1starfarer_1_1api_1_1campaign_1_1econ_1_1MarketAPI.html" target="_top" xlink:title=" ">
<polygon fill="white" stroke="#666666" points="628.75,-203.5 460.5,-203.5 460.5,-173 628.75,-173 628.75,-203.5"/>
<text text-anchor="start" x="468.5" y="-190" font-family="Helvetica,sans-Serif" font-size="10.00">com.fs.starfarer.api.campaign.econ.</text>
<text text-anchor="middle" x="544.62" y="-178.75" font-family="Helvetica,sans-Serif" font-size="10.00">MarketAPI</text>
</a>
</g>
</g>
<!-- Node11&#45;&gt;Node18 -->
<g id="edge18_Node000018_Node000011" class="edge">
<title>Node11&#45;&gt;Node18</title>
<g id="a_edge18_Node000018_Node000011"><a xlink:title=" ">
<path fill="none" stroke="#63b8ff" d="M180.1,-188.25C262.71,-188.25 381.25,-188.25 460.25,-188.25"/>
<polygon fill="#63b8ff" stroke="#63b8ff" points="180.2,-184.75 170.2,-188.25 180.2,-191.75 180.2,-184.75"/>
</a>
</g>
</g>
<!-- Node25 -->
<g id="Node000025" class="node">
<title>Node25</title>
<g id="a_Node000025"><a xlink:href="interfacecom_1_1fs_1_1starfarer_1_1api_1_1campaign_1_1FactionAPI.html" target="_top" xlink:title=" ">
<polygon fill="white" stroke="#666666" points="1000.5,-119.5 855.5,-119.5 855.5,-89 1000.5,-89 1000.5,-119.5"/>
<text text-anchor="start" x="863.5" y="-106" font-family="Helvetica,sans-Serif" font-size="10.00">com.fs.starfarer.api.campaign.</text>
<text text-anchor="middle" x="928" y="-94.75" font-family="Helvetica,sans-Serif" font-size="10.00">FactionAPI</text>
</a>
</g>
</g>
<!-- Node11&#45;&gt;Node25 -->
<g id="edge31_Node000025_Node000011" class="edge">
<title>Node11&#45;&gt;Node25</title>
<g id="a_edge31_Node000025_Node000011"><a xlink:title=" ">
<path fill="none" stroke="#63b8ff" d="M179.94,-175.88C291.48,-161.66 482.32,-138.33 646.75,-123.25 717.53,-116.76 798.56,-111.5 855.22,-108.17"/>
<polygon fill="#63b8ff" stroke="#63b8ff" points="179.71,-172.38 170.23,-177.12 180.59,-179.33 179.71,-172.38"/>
</a>
</g>
</g>
<!-- Node12 -->
<g id="Node000012" class="node">
<title>Node12</title>
<g id="a_Node000012"><a xlink:title=" ">
<polygon fill="white" stroke="#666666" points="360.38,-521.88 287.38,-521.88 287.38,-502.62 360.38,-502.62 360.38,-521.88"/>
<text text-anchor="middle" x="323.88" y="-508.38" font-family="Helvetica,sans-Serif" font-size="10.00">Set&lt; String &gt;</text>
</a>
</g>
</g>
<!-- Node12&#45;&gt;Node5 -->
<g id="edge11_Node000005_Node000012" class="edge">
<title>Node12&#45;&gt;Node5</title>
<g id="a_edge11_Node000005_Node000012"><a xlink:title=" ">
<path fill="none" stroke="#9a32cd" stroke-dasharray="5,2" d="M371.79,-515.89C431.54,-520.68 537.95,-529.7 628.75,-540 635.4,-540.75 642.27,-541.58 649.18,-542.44"/>
<polygon fill="#9a32cd" stroke="#9a32cd" points="372.24,-512.42 361.99,-515.11 371.68,-519.4 372.24,-512.42"/>
</a>
</g>
<text text-anchor="middle" x="544.62" y="-541.75" font-family="Helvetica,sans-Serif" font-size="10.00" fill="grey"> tagsForSort</text>
</g>
<!-- Node13 -->
<g id="Node000013" class="node">
<title>Node13</title>
<g id="a_Node000013"><a xlink:title=" ">
<polygon fill="white" stroke="#666666" points="837.5,-395.5 646.75,-395.5 646.75,-365 837.5,-365 837.5,-395.5"/>
<text text-anchor="start" x="654.75" y="-382" font-family="Helvetica,sans-Serif" font-size="10.00">com.fs.starfarer.api.impl.campaign.fleets.</text>
<text text-anchor="middle" x="742.12" y="-370.75" font-family="Helvetica,sans-Serif" font-size="10.00">RouteManager.RouteFleetSpawner</text>
</a>
</g>
</g>
<!-- Node13&#45;&gt;Node4 -->
<g id="edge12_Node000004_Node000013" class="edge">
<title>Node13&#45;&gt;Node4</title>
<g id="a_edge12_Node000004_Node000013"><a xlink:title=" ">
<path fill="none" stroke="#63b8ff" d="M849.04,-382.75C953.35,-383.17 1116.69,-378.38 1255,-350.25 1319.93,-337.04 1391.43,-306.68 1431.75,-287.97"/>
<polygon fill="#63b8ff" stroke="#63b8ff" points="849.09,-379.25 839.07,-382.69 849.05,-386.25 849.09,-379.25"/>
</a>
</g>
</g>
<!-- Node16 -->
<g id="Node000016" class="node">
<title>Node16</title>
<g id="a_Node000016"><a xlink:title=" ">
<polygon fill="white" stroke="#666666" points="1232.12,-213.5 1041.38,-213.5 1041.38,-183 1232.12,-183 1232.12,-213.5"/>
<text text-anchor="start" x="1049.38" y="-200" font-family="Helvetica,sans-Serif" font-size="10.00">com.fs.starfarer.api.impl.campaign.fleets.</text>
<text text-anchor="middle" x="1136.75" y="-188.75" font-family="Helvetica,sans-Serif" font-size="10.00">RouteManager.RouteData</text>
</a>
</g>
</g>
<!-- Node13&#45;&gt;Node16 -->
<g id="edge25_Node000016_Node000013" class="edge">
<title>Node13&#45;&gt;Node16</title>
<g id="a_edge25_Node000016_Node000013"><a xlink:title=" ">
<path fill="none" stroke="#9a32cd" stroke-dasharray="5,2" d="M844.63,-362.46C911.71,-349.78 989.28,-332.97 1000.5,-321.25 1031.12,-289.26 987.63,-255.01 1018.5,-223.25 1024.96,-216.61 1032.71,-211.52 1041.12,-207.65"/>
<polygon fill="#9a32cd" stroke="#9a32cd" points="844.22,-358.98 835.03,-364.26 845.5,-365.86 844.22,-358.98"/>
</a>
</g>
<text text-anchor="middle" x="928" y="-361.89" font-family="Helvetica,sans-Serif" font-size="10.00" fill="grey"> spawner</text>
</g>
<!-- Node14 -->
<g id="Node000014" class="node">
<title>Node14</title>
<g id="a_Node000014"><a xlink:title=" ">
<polygon fill="white" stroke="#666666" points="1162.75,-67.88 1110.75,-67.88 1110.75,-48.62 1162.75,-48.62 1162.75,-67.88"/>
<text text-anchor="middle" x="1136.75" y="-54.38" font-family="Helvetica,sans-Serif" font-size="10.00">Random</text>
</a>
</g>
</g>
<!-- Node14&#45;&gt;Node4 -->
<g id="edge13_Node000004_Node000014" class="edge">
<title>Node14&#45;&gt;Node4</title>
<g id="a_edge13_Node000004_Node000014"><a xlink:title=" ">
<path fill="none" stroke="#9a32cd" stroke-dasharray="5,2" d="M1174.51,-52.9C1217.76,-48.53 1290.15,-47.46 1341.25,-79 1410.1,-121.5 1447.13,-218.55 1459.43,-256.56"/>
<polygon fill="#9a32cd" stroke="#9a32cd" points="1174.17,-49.41 1164.63,-54.02 1174.96,-56.37 1174.17,-49.41"/>
</a>
</g>
<text text-anchor="middle" x="1307.12" y="-80.75" font-family="Helvetica,sans-Serif" font-size="10.00" fill="grey"> random</text>
</g>
<!-- Node15 -->
<g id="Node000015" class="node">
<title>Node15</title>
<g id="a_Node000015"><a xlink:title=" ">
<polygon fill="white" stroke="#666666" points="1255,-30.5 1018.5,-30.5 1018.5,0 1255,0 1255,-30.5"/>
<text text-anchor="start" x="1026.5" y="-17" font-family="Helvetica,sans-Serif" font-size="10.00">List&lt; com.fs.starfarer.api.impl.campaign.intel.group.</text>
<text text-anchor="middle" x="1136.75" y="-5.75" font-family="Helvetica,sans-Serif" font-size="10.00">FGAction &gt;</text>
</a>
</g>
</g>
<!-- Node15&#45;&gt;Node4 -->
<g id="edge14_Node000004_Node000015" class="edge">
<title>Node15&#45;&gt;Node4</title>
<g id="a_edge14_Node000004_Node000015"><a xlink:title=" ">
<path fill="none" stroke="#9a32cd" stroke-dasharray="5,2" d="M1266.77,-12.29C1293.13,-16.62 1319.44,-25 1341.25,-40 1419.61,-93.91 1451.84,-214.06 1461.1,-256.8"/>
<polygon fill="#9a32cd" stroke="#9a32cd" points="1267.38,-8.84 1256.98,-10.89 1266.38,-15.77 1267.38,-8.84"/>
</a>
</g>
<text text-anchor="middle" x="1307.12" y="-41.75" font-family="Helvetica,sans-Serif" font-size="10.00" fill="grey"> actions</text>
</g>
<!-- Node16&#45;&gt;Node4 -->
<g id="edge15_Node000004_Node000016" class="edge">
<title>Node16&#45;&gt;Node4</title>
<g id="a_edge15_Node000004_Node000016"><a xlink:title=" ">
<path fill="none" stroke="#9a32cd" stroke-dasharray="5,2" d="M1243.49,-214.95C1275.09,-220.59 1309.72,-227.4 1341.25,-235 1366.5,-241.08 1394.21,-249.35 1416.92,-256.54"/>
<polygon fill="#9a32cd" stroke="#9a32cd" points="1244.39,-211.56 1233.94,-213.27 1243.18,-218.45 1244.39,-211.56"/>
</a>
</g>
<text text-anchor="middle" x="1307.12" y="-236.75" font-family="Helvetica,sans-Serif" font-size="10.00" fill="grey"> route</text>
</g>
<!-- Node17 -->
<g id="Node000017" class="node">
<title>Node17</title>
<g id="a_Node000017"><a xlink:title=" ">
<polygon fill="white" stroke="#666666" points="837.5,-297.5 646.75,-297.5 646.75,-267 837.5,-267 837.5,-297.5"/>
<text text-anchor="start" x="654.75" y="-284" font-family="Helvetica,sans-Serif" font-size="10.00">com.fs.starfarer.api.impl.campaign.fleets.</text>
<text text-anchor="middle" x="742.12" y="-272.75" font-family="Helvetica,sans-Serif" font-size="10.00">RouteManager.OptionalFleetData</text>
</a>
</g>
</g>
<!-- Node17&#45;&gt;Node16 -->
<g id="edge16_Node000016_Node000017" class="edge">
<title>Node17&#45;&gt;Node16</title>
<g id="a_edge16_Node000016_Node000017"><a xlink:title=" ">
<path fill="none" stroke="#9a32cd" stroke-dasharray="5,2" d="M849.2,-269.75C907.67,-261.76 973.72,-250.6 1000.5,-238.25 1009.96,-233.89 1009.13,-227.8 1018.5,-223.25 1025.89,-219.66 1033.8,-216.58 1041.88,-213.94"/>
<polygon fill="#9a32cd" stroke="#9a32cd" points="848.94,-266.26 839.5,-271.06 849.87,-273.19 848.94,-266.26"/>
</a>
</g>
<text text-anchor="middle" x="928" y="-270.14" font-family="Helvetica,sans-Serif" font-size="10.00" fill="grey"> extra</text>
</g>
<!-- Node18&#45;&gt;Node16 -->
<g id="edge17_Node000016_Node000018" class="edge">
<title>Node18&#45;&gt;Node16</title>
<g id="a_edge17_Node000016_Node000018"><a xlink:title=" ">
<path fill="none" stroke="#9a32cd" stroke-dasharray="5,2" d="M640.65,-189.86C750.75,-191.73 931.06,-194.78 1041.03,-196.64"/>
<polygon fill="#9a32cd" stroke="#9a32cd" points="640.81,-186.36 630.75,-189.69 640.69,-193.36 640.81,-186.36"/>
</a>
</g>
<text text-anchor="middle" x="742.12" y="-194.79" font-family="Helvetica,sans-Serif" font-size="10.00" fill="grey"> market</text>
</g>
<!-- Node19 -->
<g id="Node000019" class="node">
<title>Node19</title>
<g id="a_Node000019"><a xlink:title=" ">
<polygon fill="white" stroke="#666666" points="798.88,-151.88 685.38,-151.88 685.38,-132.62 798.88,-132.62 798.88,-151.88"/>
<text text-anchor="middle" x="742.12" y="-138.38" font-family="Helvetica,sans-Serif" font-size="10.00">List&lt; RouteSegment &gt;</text>
</a>
</g>
</g>
<!-- Node19&#45;&gt;Node16 -->
<g id="edge19_Node000016_Node000019" class="edge">
<title>Node19&#45;&gt;Node16</title>
<g id="a_edge19_Node000016_Node000019"><a xlink:title=" ">
<path fill="none" stroke="#9a32cd" stroke-dasharray="5,2" d="M810.42,-139.77C863.24,-139.69 938.04,-143.74 1000.5,-163 1009.3,-165.71 1009.9,-169.97 1018.5,-173.25 1027.74,-176.77 1037.59,-179.84 1047.5,-182.51"/>
<polygon fill="#9a32cd" stroke="#9a32cd" points="810.65,-136.27 800.67,-139.84 810.7,-143.27 810.65,-136.27"/>
</a>
</g>
<text text-anchor="middle" x="928" y="-164.75" font-family="Helvetica,sans-Serif" font-size="10.00" fill="grey"> segments</text>
</g>
<!-- Node20&#45;&gt;Node16 -->
<g id="edge20_Node000016_Node000020" class="edge">
<title>Node20&#45;&gt;Node16</title>
<g id="a_edge20_Node000016_Node000020"><a xlink:title=" ">
<path fill="none" stroke="#9a32cd" stroke-dasharray="5,2" d="M826.14,-225.85C889,-220.25 975.44,-212.54 1041.01,-206.7"/>
<polygon fill="#9a32cd" stroke="#9a32cd" points="825.84,-222.36 816.19,-226.74 826.46,-229.33 825.84,-222.36"/>
</a>
</g>
<text text-anchor="middle" x="928" y="-224.66" font-family="Helvetica,sans-Serif" font-size="10.00" fill="grey"> activeFleet</text>
</g>
<!-- Node21 -->
<g id="Node000021" class="node">
<title>Node21</title>
<g id="a_Node000021"><a xlink:href="interfacecom_1_1fs_1_1starfarer_1_1api_1_1campaign_1_1FleetOrStubAPI.html" target="_top" xlink:title=" ">
<polygon fill="white" stroke="#666666" points="396.38,-248.5 251.38,-248.5 251.38,-218 396.38,-218 396.38,-248.5"/>
<text text-anchor="start" x="259.38" y="-235" font-family="Helvetica,sans-Serif" font-size="10.00">com.fs.starfarer.api.campaign.</text>
<text text-anchor="middle" x="323.88" y="-223.75" font-family="Helvetica,sans-Serif" font-size="10.00">FleetOrStubAPI</text>
</a>
</g>
</g>
<!-- Node21&#45;&gt;Node20 -->
<g id="edge22_Node000020_Node000021" class="edge">
<title>Node21&#45;&gt;Node20</title>
<g id="a_edge22_Node000020_Node000021"><a xlink:title=" ">
<path fill="none" stroke="#63b8ff" d="M407.92,-233.25C484.43,-233.25 596.79,-233.25 669.46,-233.25"/>
<polygon fill="#63b8ff" stroke="#63b8ff" points="407.94,-229.75 397.94,-233.25 407.94,-236.75 407.94,-229.75"/>
</a>
</g>
</g>
<!-- Node22&#45;&gt;Node4 -->
<g id="edge26_Node000004_Node000022" class="edge">
<title>Node22&#45;&gt;Node4</title>
<g id="a_edge26_Node000004_Node000022"><a xlink:title=" ">
<path fill="none" stroke="#9a32cd" stroke-dasharray="5,2" d="M849.28,-334.98C953.1,-337.22 1115.49,-336.95 1255,-320.25 1293.97,-315.58 1302.98,-309.98 1341.25,-301.25 1359.84,-297.01 1379.99,-292.3 1398.49,-287.93"/>
<polygon fill="#9a32cd" stroke="#9a32cd" points="849.45,-331.49 839.37,-334.76 849.29,-338.49 849.45,-331.49"/>
</a>
</g>
<text text-anchor="middle" x="1136.75" y="-336.87" font-family="Helvetica,sans-Serif" font-size="10.00" fill="grey"> prevSegment</text>
</g>
<!-- Node22&#45;&gt;Node16 -->
<g id="edge23_Node000016_Node000022" class="edge">
<title>Node22&#45;&gt;Node16</title>
<g id="a_edge23_Node000016_Node000022"><a xlink:title=" ">
<path fill="none" stroke="#9a32cd" stroke-dasharray="5,2" d="M820.84,-313.09C832.43,-310.59 844.26,-308.14 855.5,-306 887.54,-299.89 975.92,-304.69 1000.5,-283.25 1021.48,-264.94 998.03,-242.12 1018.5,-223.25 1025.08,-217.18 1032.76,-212.45 1040.98,-208.77"/>
<polygon fill="#9a32cd" stroke="#9a32cd" points="820.32,-309.62 811.3,-315.18 821.82,-316.46 820.32,-309.62"/>
</a>
</g>
<text text-anchor="middle" x="928" y="-307.75" font-family="Helvetica,sans-Serif" font-size="10.00" fill="grey"> current</text>
</g>
<!-- Node23 -->
<g id="Node000023" class="node">
<title>Node23</title>
<g id="a_Node000023"><a xlink:title=" ">
<polygon fill="white" stroke="#666666" points="1221.62,-262.5 1051.88,-262.5 1051.88,-232 1221.62,-232 1221.62,-262.5"/>
<text text-anchor="start" x="1059.88" y="-249" font-family="Helvetica,sans-Serif" font-size="10.00">List&lt; com.fs.starfarer.api.campaign.</text>
<text text-anchor="middle" x="1136.75" y="-237.75" font-family="Helvetica,sans-Serif" font-size="10.00">CampaignFleetAPI &gt;</text>
</a>
</g>
</g>
<!-- Node23&#45;&gt;Node4 -->
<g id="edge27_Node000004_Node000023" class="edge">
<title>Node23&#45;&gt;Node4</title>
<g id="a_edge27_Node000004_Node000023"><a xlink:title=" ">
<path fill="none" stroke="#9a32cd" stroke-dasharray="5,2" d="M1233.41,-248.71C1267.49,-249.78 1306.13,-251.61 1341.25,-254.75 1347.04,-255.27 1352.98,-255.87 1358.97,-256.54"/>
<polygon fill="#9a32cd" stroke="#9a32cd" points="1233.64,-245.22 1223.55,-248.42 1233.44,-252.22 1233.64,-245.22"/>
</a>
</g>
<text text-anchor="middle" x="1307.12" y="-267.75" font-family="Helvetica,sans-Serif" font-size="10.00" fill="grey"> fleets</text>
<text text-anchor="middle" x="1307.12" y="-256.5" font-family="Helvetica,sans-Serif" font-size="10.00" fill="grey">spawning</text>
</g>
<!-- Node24 -->
<g id="Node000024" class="node">
<title>Node24</title>
<g id="a_Node000024"><a xlink:href="interfacecom_1_1fs_1_1starfarer_1_1api_1_1campaign_1_1LocationAPI.html" target="_top" xlink:title=" ">
<polygon fill="white" stroke="#666666" points="1209.25,-311.5 1064.25,-311.5 1064.25,-281 1209.25,-281 1209.25,-311.5"/>
<text text-anchor="start" x="1072.25" y="-298" font-family="Helvetica,sans-Serif" font-size="10.00">com.fs.starfarer.api.campaign.</text>
<text text-anchor="middle" x="1136.75" y="-286.75" font-family="Helvetica,sans-Serif" font-size="10.00">LocationAPI</text>
</a>
</g>
</g>
<!-- Node24&#45;&gt;Node4 -->
<g id="edge28_Node000004_Node000024" class="edge">
<title>Node24&#45;&gt;Node4</title>
<g id="a_edge28_Node000004_Node000024"><a xlink:title=" ">
<path fill="none" stroke="#9a32cd" stroke-dasharray="5,2" d="M1220.68,-290.15C1262.68,-287.06 1314.13,-283.28 1358.89,-279.99"/>
<polygon fill="#9a32cd" stroke="#9a32cd" points="1220.6,-286.65 1210.88,-290.87 1221.11,-293.63 1220.6,-286.65"/>
</a>
</g>
<text text-anchor="middle" x="1307.12" y="-287.44" font-family="Helvetica,sans-Serif" font-size="10.00" fill="grey"> spawnLocation</text>
</g>
<!-- Node25&#45;&gt;Node4 -->
<g id="edge30_Node000004_Node000025" class="edge">
<title>Node25&#45;&gt;Node4</title>
<g id="a_edge30_Node000004_Node000025"><a xlink:title=" ">
<path fill="none" stroke="#9a32cd" stroke-dasharray="5,2" d="M1012.09,-93.73C1079.39,-88.25 1175.71,-87.4 1255,-114 1341.11,-142.89 1420.01,-222.86 1450.65,-256.75"/>
<polygon fill="#9a32cd" stroke="#9a32cd" points="1011.88,-90.23 1002.22,-94.59 1012.48,-97.21 1011.88,-90.23"/>
</a>
</g>
<text text-anchor="middle" x="1136.75" y="-115.75" font-family="Helvetica,sans-Serif" font-size="10.00" fill="grey"> faction</text>
</g>
<!-- Node26 -->
<g id="Node000026" class="node">
<title>Node26</title>
<g id="a_Node000026"><a xlink:title=" ">
<polygon fill="white" stroke="#666666" points="1242.62,-164.5 1030.88,-164.5 1030.88,-134 1242.62,-134 1242.62,-164.5"/>
<text text-anchor="start" x="1038.88" y="-151" font-family="Helvetica,sans-Serif" font-size="10.00">com.fs.starfarer.api.impl.campaign.intel.group.</text>
<text text-anchor="middle" x="1136.75" y="-139.75" font-family="Helvetica,sans-Serif" font-size="10.00">FleetGroupIntel.FGIEventListener</text>
</a>
</g>
</g>
<!-- Node26&#45;&gt;Node4 -->
<g id="edge32_Node000004_Node000026" class="edge">
<title>Node26&#45;&gt;Node4</title>
<g id="a_edge32_Node000004_Node000026"><a xlink:title=" ">
<path fill="none" stroke="#9a32cd" stroke-dasharray="5,2" d="M1229.48,-167.59C1238.15,-169.68 1246.76,-171.91 1255,-174.25 1294.15,-185.35 1304.12,-188.35 1341.25,-205 1375.86,-220.53 1413.92,-242.1 1438.37,-256.59"/>
<polygon fill="#9a32cd" stroke="#9a32cd" points="1230.52,-164.23 1219.99,-165.35 1228.92,-171.05 1230.52,-164.23"/>
</a>
</g>
<text text-anchor="middle" x="1307.12" y="-206.75" font-family="Helvetica,sans-Serif" font-size="10.00" fill="grey"> listener</text>
</g>
<!-- Node27 -->
<g id="Node000027" class="node">
<title>Node27</title>
<g id="a_Node000027"><a xlink:href="classcom_1_1fs_1_1starfarer_1_1api_1_1util_1_1IntervalUtil.html" target="_top" xlink:title=" ">
<polygon fill="white" stroke="#666666" points="1791,-377.5 1675.25,-377.5 1675.25,-347 1791,-347 1791,-377.5"/>
<text text-anchor="start" x="1683.25" y="-364" font-family="Helvetica,sans-Serif" font-size="10.00">com.fs.starfarer.api.util.</text>
<text text-anchor="middle" x="1733.12" y="-352.75" font-family="Helvetica,sans-Serif" font-size="10.00">IntervalUtil</text>
</a>
</g>
</g>
<!-- Node27&#45;&gt;Node1 -->
<g id="edge34_Node000001_Node000027" class="edge">
<title>Node27&#45;&gt;Node1</title>
<g id="a_edge34_Node000001_Node000027"><a xlink:title=" ">
<path fill="none" stroke="#9a32cd" stroke-dasharray="5,2" d="M1802.42,-374.22C1839.02,-380.64 1884.58,-388.63 1924,-395.54"/>
<polygon fill="#9a32cd" stroke="#9a32cd" points="1803.31,-370.82 1792.85,-372.55 1802.1,-377.72 1803.31,-370.82"/>
</a>
</g>
<text text-anchor="middle" x="1873.88" y="-391.43" font-family="Helvetica,sans-Serif" font-size="10.00" fill="grey"> interval</text>
</g>
</g>
</svg>
