<?xml version="1.0" encoding="UTF-8" standalone="no"?>
<!DOCTYPE svg PUBLIC "-//W3C//DTD SVG 1.1//EN"
 "http://www.w3.org/Graphics/SVG/1.1/DTD/svg11.dtd">
<!-- Generated by graphviz version 7.0.5 (20221223.1930)
 -->
<!-- Title: com.fs.starfarer.api.impl.campaign.graid.CreditsGroundRaidObjectivePluginImpl Pages: 1 -->
<!--zoomable 172 -->
<svg id="main" version="1.1" xmlns="http://www.w3.org/2000/svg" xmlns:xlink="http://www.w3.org/1999/xlink" xml:space="preserve" onload="init(evt)">
<style type="text/css"><![CDATA[
.edge:hover path { stroke: red; }
.edge:hover polygon { stroke: red; fill: red; }
]]></style>
<script type="text/javascript"><![CDATA[
var edges = document.getElementsByTagName('g');
if (edges && edges.length) {
  for (var i=0;i<edges.length;i++) {
    if (edges[i].id.substr(0,4)=='edge') {
      edges[i].setAttribute('class','edge');
    }
  }
}
]]></script>
        <defs>
                <circle id="rim" cx="0" cy="0" r="7"/>
                <circle id="rim2" cx="0" cy="0" r="3.5"/>
                <g id="zoomPlus">
                        <use xlink:href="#rim" fill="#404040">
                                <set attributeName="fill" to="#808080" begin="zoomplus.mouseover" end="zoomplus.mouseout"/>
                        </use>
                        <path d="M-4,0h8M0,-4v8" fill="none" stroke="white" stroke-width="1.5" pointer-events="none"/>
                </g>
                <g id="zoomMin">
                        <use xlink:href="#rim" fill="#404040">
                                <set attributeName="fill" to="#808080" begin="zoomminus.mouseover" end="zoomminus.mouseout"/>
                        </use>
                        <path d="M-4,0h8" fill="none" stroke="white" stroke-width="1.5" pointer-events="none"/>
                </g>
                <g id="dirArrow">
                        <path fill="none" stroke="white" stroke-width="1.5" d="M0,-3.0v7 M-2.5,-0.5L0,-3.0L2.5,-0.5"/>
                </g>
               <g id="resetDef">
                       <use xlink:href="#rim2" fill="#404040">
                               <set attributeName="fill" to="#808080" begin="reset.mouseover" end="reset.mouseout"/>
                       </use>
               </g>
        </defs>

<script type="text/javascript">
var viewWidth = 981;
var viewHeight = 172;
var sectionId = 'dynsection-1';
</script>
<script xlink:href="svgpan.js"/>
<svg id="graph" class="graph">
<g id="viewport">
<title>com.fs.starfarer.api.impl.campaign.graid.CreditsGroundRaidObjectivePluginImpl</title>
<!-- Node1 -->
<g id="node1" class="node">
<title>Node1</title>
<g id="a_node1"><a xlink:title=" ">
<polygon fill="#999999" stroke="#666666" points="973,-91.5 784,-91.5 784,-61.5 973,-61.5 973,-91.5"/>
<text text-anchor="start" x="792" y="-79.5" font-family="Helvetica,sans-Serif" font-size="10.00">com.fs.starfarer.api.impl.campaign.graid.</text>
<text text-anchor="middle" x="878.5" y="-68.5" font-family="Helvetica,sans-Serif" font-size="10.00">CreditsGroundRaidObjectivePluginImpl</text>
</a>
</g>
</g>
<!-- Node2 -->
<g id="node2" class="node">
<title>Node2</title>
<g id="a_node2"><a xlink:href="classcom_1_1fs_1_1starfarer_1_1api_1_1impl_1_1campaign_1_1graid_1_1BaseGroundRaidObjectivePluginImpl.html" target="_top" xlink:title=" ">
<polygon fill="white" stroke="#666666" points="747,-91.5 558,-91.5 558,-61.5 747,-61.5 747,-91.5"/>
<text text-anchor="start" x="566" y="-79.5" font-family="Helvetica,sans-Serif" font-size="10.00">com.fs.starfarer.api.impl.campaign.graid.</text>
<text text-anchor="middle" x="652.5" y="-68.5" font-family="Helvetica,sans-Serif" font-size="10.00">BaseGroundRaidObjectivePluginImpl</text>
</a>
</g>
</g>
<!-- Node2&#45;&gt;Node1 -->
<g id="edge1" class="edge">
<title>Node2&#45;&gt;Node1</title>
<path fill="none" stroke="#63b8ff" d="M758.62,-76.5C767.03,-76.5 775.49,-76.5 783.82,-76.5"/>
<polygon fill="#63b8ff" stroke="#63b8ff" points="758.71,-73 748.71,-76.5 758.71,-80 758.71,-73"/>
</g>
<!-- Node3 -->
<g id="node3" class="node">
<title>Node3</title>
<g id="a_node3"><a xlink:href="interfacecom_1_1fs_1_1starfarer_1_1api_1_1impl_1_1campaign_1_1graid_1_1GroundRaidObjectivePlugin.html" target="_top" xlink:title=" ">
<polygon fill="white" stroke="#666666" points="395,-163.5 206,-163.5 206,-133.5 395,-133.5 395,-163.5"/>
<text text-anchor="start" x="214" y="-151.5" font-family="Helvetica,sans-Serif" font-size="10.00">com.fs.starfarer.api.impl.campaign.graid.</text>
<text text-anchor="middle" x="300.5" y="-140.5" font-family="Helvetica,sans-Serif" font-size="10.00">GroundRaidObjectivePlugin</text>
</a>
</g>
</g>
<!-- Node3&#45;&gt;Node2 -->
<g id="edge2" class="edge">
<title>Node3&#45;&gt;Node2</title>
<path fill="none" stroke="#63b8ff" d="M406.67,-132.77C448.37,-125.92 496.63,-117.23 540,-107.5 559.8,-103.06 581.33,-97.3 600.15,-91.95"/>
<polygon fill="#63b8ff" stroke="#63b8ff" points="406.18,-129.3 396.87,-134.36 407.3,-136.21 406.18,-129.3"/>
</g>
<!-- Node4 -->
<g id="node4" class="node">
<title>Node4</title>
<g id="a_node4"><a xlink:href="interfacecom_1_1fs_1_1starfarer_1_1api_1_1campaign_1_1econ_1_1MarketAPI.html" target="_top" xlink:title=" ">
<polygon fill="white" stroke="#666666" points="385,-115.5 216,-115.5 216,-85.5 385,-85.5 385,-115.5"/>
<text text-anchor="start" x="224" y="-103.5" font-family="Helvetica,sans-Serif" font-size="10.00">com.fs.starfarer.api.campaign.econ.</text>
<text text-anchor="middle" x="300.5" y="-92.5" font-family="Helvetica,sans-Serif" font-size="10.00">MarketAPI</text>
</a>
</g>
</g>
<!-- Node4&#45;&gt;Node2 -->
<g id="edge3" class="edge">
<title>Node4&#45;&gt;Node2</title>
<path fill="none" stroke="#9a32cd" stroke-dasharray="5,2" d="M396.8,-93.97C446.78,-90.54 507.78,-86.35 557.56,-82.94"/>
<polygon fill="#9a32cd" stroke="#9a32cd" points="396.58,-90.47 386.84,-94.65 397.06,-97.46 396.58,-90.47"/>
<text text-anchor="middle" x="476.5" y="-95.5" font-family="Helvetica,sans-Serif" font-size="10.00"> market</text>
</g>
<!-- Node5 -->
<g id="node5" class="node">
<title>Node5</title>
<g id="a_node5"><a xlink:href="interfacecom_1_1fs_1_1starfarer_1_1api_1_1campaign_1_1rules_1_1HasMemory.html" target="_top" xlink:title=" ">
<polygon fill="white" stroke="#666666" points="169,-115.5 0,-115.5 0,-85.5 169,-85.5 169,-115.5"/>
<text text-anchor="start" x="8" y="-103.5" font-family="Helvetica,sans-Serif" font-size="10.00">com.fs.starfarer.api.campaign.rules.</text>
<text text-anchor="middle" x="84.5" y="-92.5" font-family="Helvetica,sans-Serif" font-size="10.00">HasMemory</text>
</a>
</g>
</g>
<!-- Node5&#45;&gt;Node4 -->
<g id="edge4" class="edge">
<title>Node5&#45;&gt;Node4</title>
<path fill="none" stroke="#63b8ff" d="M180.62,-100.5C192.34,-100.5 204.25,-100.5 215.78,-100.5"/>
<polygon fill="#63b8ff" stroke="#63b8ff" points="180.98,-97 170.98,-100.5 180.98,-104 180.98,-97"/>
</g>
<!-- Node6 -->
<g id="node6" class="node">
<title>Node6</title>
<g id="a_node6"><a xlink:href="interfacecom_1_1fs_1_1starfarer_1_1api_1_1campaign_1_1econ_1_1Industry.html" target="_top" xlink:title=" ">
<polygon fill="white" stroke="#666666" points="385,-67.5 216,-67.5 216,-37.5 385,-37.5 385,-67.5"/>
<text text-anchor="start" x="224" y="-55.5" font-family="Helvetica,sans-Serif" font-size="10.00">com.fs.starfarer.api.campaign.econ.</text>
<text text-anchor="middle" x="300.5" y="-44.5" font-family="Helvetica,sans-Serif" font-size="10.00">Industry</text>
</a>
</g>
</g>
<!-- Node6&#45;&gt;Node2 -->
<g id="edge5" class="edge">
<title>Node6&#45;&gt;Node2</title>
<path fill="none" stroke="#9a32cd" stroke-dasharray="5,2" d="M396.87,-58.8C440.51,-61.7 492.88,-65.23 540,-68.5 545.71,-68.9 551.59,-69.31 557.51,-69.73"/>
<polygon fill="#9a32cd" stroke="#9a32cd" points="397.11,-55.3 386.9,-58.13 396.65,-62.29 397.11,-55.3"/>
<text text-anchor="middle" x="476.5" y="-71.5" font-family="Helvetica,sans-Serif" font-size="10.00"> source</text>
</g>
<!-- Node7 -->
<g id="node7" class="node">
<title>Node7</title>
<g id="a_node7"><a xlink:title=" ">
<polygon fill="white" stroke="#666666" points="320,-19 281,-19 281,0 320,0 320,-19"/>
<text text-anchor="middle" x="300.5" y="-7" font-family="Helvetica,sans-Serif" font-size="10.00">Color</text>
</a>
</g>
</g>
<!-- Node7&#45;&gt;Node2 -->
<g id="edge6" class="edge">
<title>Node7&#45;&gt;Node2</title>
<path fill="none" stroke="#9a32cd" stroke-dasharray="5,2" d="M331.57,-12.61C377.03,-17.59 465.81,-28.48 540,-44.5 560.87,-49 583.57,-55.26 603.01,-61.05"/>
<polygon fill="#9a32cd" stroke="#9a32cd" points="332.03,-9.13 321.71,-11.55 331.28,-16.09 332.03,-9.13"/>
<text text-anchor="middle" x="476.5" y="-47.5" font-family="Helvetica,sans-Serif" font-size="10.00"> assignedForcesColumnColor</text>
</g>
</g>
</svg>
        <g id="navigator" transform="translate(0 0)" fill="#404254">
                <rect fill="#f2f5e9" fill-opacity="0.5" stroke="#606060" stroke-width=".5" x="0" y="0" width="60" height="60"/>
                <use id="zoomplus" xlink:href="#zoomPlus" x="17" y="9" onmousedown="handleZoom(evt,'in')"/>
                <use id="zoomminus" xlink:href="#zoomMin" x="42" y="9" onmousedown="handleZoom(evt,'out')"/>
                <use id="reset" xlink:href="#resetDef" x="30" y="36" onmousedown="handleReset()"/>
                <g id="arrowUp" xlink:href="#dirArrow" transform="translate(30 24)" onmousedown="handlePan(0,-1)">
                  <use xlink:href="#rim" fill="#404040">
                        <set attributeName="fill" to="#808080" begin="arrowUp.mouseover" end="arrowUp.mouseout"/>
                  </use>
                  <path fill="none" stroke="white" stroke-width="1.5" d="M0,-3.0v7 M-2.5,-0.5L0,-3.0L2.5,-0.5"/>
                </g>
                <g id="arrowRight" xlink:href="#dirArrow" transform="rotate(90) translate(36 -43)" onmousedown="handlePan(1,0)">
                  <use xlink:href="#rim" fill="#404040">
                        <set attributeName="fill" to="#808080" begin="arrowRight.mouseover" end="arrowRight.mouseout"/>
                  </use>
                  <path fill="none" stroke="white" stroke-width="1.5" d="M0,-3.0v7 M-2.5,-0.5L0,-3.0L2.5,-0.5"/>
                </g>
                <g id="arrowDown" xlink:href="#dirArrow" transform="rotate(180) translate(-30 -48)" onmousedown="handlePan(0,1)">
                  <use xlink:href="#rim" fill="#404040">
                        <set attributeName="fill" to="#808080" begin="arrowDown.mouseover" end="arrowDown.mouseout"/>
                  </use>
                  <path fill="none" stroke="white" stroke-width="1.5" d="M0,-3.0v7 M-2.5,-0.5L0,-3.0L2.5,-0.5"/>
                </g>
                <g id="arrowLeft" xlink:href="#dirArrow" transform="rotate(270) translate(-36 17)" onmousedown="handlePan(-1,0)">
                  <use xlink:href="#rim" fill="#404040">
                        <set attributeName="fill" to="#808080" begin="arrowLeft.mouseover" end="arrowLeft.mouseout"/>
                  </use>
                  <path fill="none" stroke="white" stroke-width="1.5" d="M0,-3.0v7 M-2.5,-0.5L0,-3.0L2.5,-0.5"/>
                </g>
        </g>
        <svg viewBox="0 0 15 15" width="100%" height="30px" preserveAspectRatio="xMaxYMin meet">
         <g id="arrow_out" transform="scale(0.3 0.3)">
          <a xlink:href="classcom_1_1fs_1_1starfarer_1_1api_1_1impl_1_1campaign_1_1graid_1_1CreditsGroundRaidObjectivePluginImpl__coll__graph_org.svg" target="_base">
           <rect id="button" ry="5" rx="5" y="6" x="6" height="38" width="38"
                fill="#f2f5e9" fill-opacity="0.5" stroke="#606060" stroke-width="1.0"/>
           <path id="arrow"
             d="M 11.500037,31.436501 C 11.940474,20.09759 22.043105,11.32322 32.158766,21.979434 L 37.068811,17.246167 C 37.068811,17.246167 37.088388,32 37.088388,32 L 22.160133,31.978069 C 22.160133,31.978069 26.997745,27.140456 26.997745,27.140456 C 18.528582,18.264221 13.291696,25.230495 11.500037,31.436501 z"
             style="fill:#404040;"/>
          </a>
         </g>
        </svg>
</svg>
