<?xml version="1.0" encoding="UTF-8" standalone="no"?>
<!DOCTYPE svg PUBLIC "-//W3C//DTD SVG 1.1//EN"
 "http://www.w3.org/Graphics/SVG/1.1/DTD/svg11.dtd">
<!-- Generated by graphviz version 7.0.5 (20221223.1930)
 -->
<!-- Title: com.fs.starfarer.api.impl.campaign.skills.BaseSkillEffectDescription Pages: 1 -->
<svg width="1030pt" height="1814pt"
 viewBox="0.00 0.00 1030.00 1814.00" xmlns="http://www.w3.org/2000/svg" xmlns:xlink="http://www.w3.org/1999/xlink">
<g id="graph0" class="graph" transform="scale(1 1) rotate(0) translate(4 1810)">
<title>com.fs.starfarer.api.impl.campaign.skills.BaseSkillEffectDescription</title>
<!-- Node1 -->
<g id="node1" class="node">
<title>Node1</title>
<g id="a_node1"><a xlink:title=" ">
<polygon fill="#999999" stroke="#666666" points="561,-918 370,-918 370,-888 561,-888 561,-918"/>
<text text-anchor="start" x="378" y="-906" font-family="Helvetica,sans-Serif" font-size="10.00">com.fs.starfarer.api.impl.campaign.skills.</text>
<text text-anchor="middle" x="465.5" y="-895" font-family="Helvetica,sans-Serif" font-size="10.00">BaseSkillEffectDescription</text>
</a>
</g>
</g>
<!-- Node4 -->
<g id="node4" class="node">
<title>Node4</title>
<g id="a_node4"><a xlink:href="classcom_1_1fs_1_1starfarer_1_1api_1_1impl_1_1campaign_1_1skills_1_1AutomatedShips_1_1Level1.html" target="_top" xlink:title=" ">
<polygon fill="white" stroke="#bfbfbf" points="791.5,-1806 600.5,-1806 600.5,-1776 791.5,-1776 791.5,-1806"/>
<text text-anchor="start" x="608.5" y="-1794" font-family="Helvetica,sans-Serif" font-size="10.00">com.fs.starfarer.api.impl.campaign.skills.</text>
<text text-anchor="middle" x="696" y="-1783" font-family="Helvetica,sans-Serif" font-size="10.00">AutomatedShips.Level1</text>
</a>
</g>
</g>
<!-- Node1&#45;&gt;Node4 -->
<g id="edge3" class="edge">
<title>Node1&#45;&gt;Node4</title>
<path fill="none" stroke="#63b8ff" d="M466.68,-929.82C468.14,-1061.7 481.15,-1640.19 597,-1767 599.95,-1770.23 603.27,-1773.06 606.84,-1775.54"/>
<polygon fill="#63b8ff" stroke="#63b8ff" points="470.19,-929.96 466.59,-919.99 463.19,-930.03 470.19,-929.96"/>
</g>
<!-- Node5 -->
<g id="node5" class="node">
<title>Node5</title>
<g id="a_node5"><a xlink:href="classcom_1_1fs_1_1starfarer_1_1api_1_1impl_1_1campaign_1_1skills_1_1AutomatedShips_1_1Level2.html" target="_top" xlink:title=" ">
<polygon fill="white" stroke="#bfbfbf" points="791.5,-1758 600.5,-1758 600.5,-1728 791.5,-1728 791.5,-1758"/>
<text text-anchor="start" x="608.5" y="-1746" font-family="Helvetica,sans-Serif" font-size="10.00">com.fs.starfarer.api.impl.campaign.skills.</text>
<text text-anchor="middle" x="696" y="-1735" font-family="Helvetica,sans-Serif" font-size="10.00">AutomatedShips.Level2</text>
</a>
</g>
</g>
<!-- Node1&#45;&gt;Node5 -->
<g id="edge4" class="edge">
<title>Node1&#45;&gt;Node5</title>
<path fill="none" stroke="#63b8ff" d="M466.94,-929.53C469.59,-1056.39 487.27,-1599.93 597,-1719 599.97,-1722.22 603.29,-1725.04 606.87,-1727.51"/>
<polygon fill="#63b8ff" stroke="#63b8ff" points="470.44,-929.72 466.75,-919.79 463.45,-929.85 470.44,-929.72"/>
</g>
<!-- Node6 -->
<g id="node6" class="node">
<title>Node6</title>
<g id="a_node6"><a xlink:href="classcom_1_1fs_1_1starfarer_1_1api_1_1impl_1_1campaign_1_1skills_1_1AuxiliarySupport_1_1Level1.html" target="_top" xlink:title=" ">
<polygon fill="white" stroke="#bfbfbf" points="791.5,-1710 600.5,-1710 600.5,-1680 791.5,-1680 791.5,-1710"/>
<text text-anchor="start" x="608.5" y="-1698" font-family="Helvetica,sans-Serif" font-size="10.00">com.fs.starfarer.api.impl.campaign.skills.</text>
<text text-anchor="middle" x="696" y="-1687" font-family="Helvetica,sans-Serif" font-size="10.00">AuxiliarySupport.Level1</text>
</a>
</g>
</g>
<!-- Node1&#45;&gt;Node6 -->
<g id="edge5" class="edge">
<title>Node1&#45;&gt;Node6</title>
<path fill="none" stroke="#63b8ff" d="M467.23,-929.52C471.13,-1051.76 493.45,-1559.73 597,-1671 600.1,-1674.33 603.59,-1677.24 607.34,-1679.77"/>
<polygon fill="#63b8ff" stroke="#63b8ff" points="470.74,-929.72 466.94,-919.83 463.74,-929.93 470.74,-929.72"/>
</g>
<!-- Node7 -->
<g id="node7" class="node">
<title>Node7</title>
<g id="a_node7"><a xlink:href="classcom_1_1fs_1_1starfarer_1_1api_1_1impl_1_1campaign_1_1skills_1_1BulkTransport_1_1BaseCapacityModifierEffect.html" target="_top" xlink:title=" ">
<polygon fill="white" stroke="#bfbfbf" points="795,-1662 597,-1662 597,-1632 795,-1632 795,-1662"/>
<text text-anchor="start" x="605" y="-1650" font-family="Helvetica,sans-Serif" font-size="10.00">com.fs.starfarer.api.impl.campaign.skills.</text>
<text text-anchor="middle" x="696" y="-1639" font-family="Helvetica,sans-Serif" font-size="10.00">BulkTransport.BaseCapacityModifierEffect</text>
</a>
</g>
</g>
<!-- Node1&#45;&gt;Node7 -->
<g id="edge6" class="edge">
<title>Node1&#45;&gt;Node7</title>
<path fill="none" stroke="#63b8ff" d="M467.56,-929.71C472.81,-1047.52 499.67,-1519.56 597,-1623 600.12,-1626.32 603.62,-1629.21 607.38,-1631.72"/>
<polygon fill="#63b8ff" stroke="#63b8ff" points="471.06,-929.63 467.14,-919.78 464.07,-929.92 471.06,-929.63"/>
</g>
<!-- Node11 -->
<g id="node11" class="node">
<title>Node11</title>
<g id="a_node11"><a xlink:href="classcom_1_1fs_1_1starfarer_1_1api_1_1impl_1_1campaign_1_1skills_1_1BulkTransport_1_1Level4.html" target="_top" xlink:title=" ">
<polygon fill="white" stroke="#bfbfbf" points="791.5,-1614 600.5,-1614 600.5,-1584 791.5,-1584 791.5,-1614"/>
<text text-anchor="start" x="608.5" y="-1602" font-family="Helvetica,sans-Serif" font-size="10.00">com.fs.starfarer.api.impl.campaign.skills.</text>
<text text-anchor="middle" x="696" y="-1591" font-family="Helvetica,sans-Serif" font-size="10.00">BulkTransport.Level4</text>
</a>
</g>
</g>
<!-- Node1&#45;&gt;Node11 -->
<g id="edge10" class="edge">
<title>Node1&#45;&gt;Node11</title>
<path fill="none" stroke="#63b8ff" d="M467.94,-929.73C474.57,-1042.66 505.83,-1479.31 597,-1575 600.14,-1578.3 603.66,-1581.17 607.43,-1583.68"/>
<polygon fill="#63b8ff" stroke="#63b8ff" points="471.45,-929.72 467.38,-919.94 464.46,-930.12 471.45,-929.72"/>
</g>
<!-- Node12 -->
<g id="node12" class="node">
<title>Node12</title>
<g id="a_node12"><a xlink:href="classcom_1_1fs_1_1starfarer_1_1api_1_1impl_1_1campaign_1_1skills_1_1CarrierGroup_1_1Level1.html" target="_top" xlink:title=" ">
<polygon fill="white" stroke="#bfbfbf" points="791.5,-1566 600.5,-1566 600.5,-1536 791.5,-1536 791.5,-1566"/>
<text text-anchor="start" x="608.5" y="-1554" font-family="Helvetica,sans-Serif" font-size="10.00">com.fs.starfarer.api.impl.campaign.skills.</text>
<text text-anchor="middle" x="696" y="-1543" font-family="Helvetica,sans-Serif" font-size="10.00">CarrierGroup.Level1</text>
</a>
</g>
</g>
<!-- Node1&#45;&gt;Node12 -->
<g id="edge11" class="edge">
<title>Node1&#45;&gt;Node12</title>
<path fill="none" stroke="#63b8ff" d="M468.38,-929.87C476.5,-1037.92 512.01,-1439.06 597,-1527 600.17,-1530.27 603.7,-1533.13 607.49,-1535.62"/>
<polygon fill="#63b8ff" stroke="#63b8ff" points="471.88,-929.68 467.66,-919.96 464.9,-930.19 471.88,-929.68"/>
</g>
<!-- Node13 -->
<g id="node13" class="node">
<title>Node13</title>
<g id="a_node13"><a xlink:href="classcom_1_1fs_1_1starfarer_1_1api_1_1impl_1_1campaign_1_1skills_1_1CombatEndurance_1_1Level4.html" target="_top" xlink:title=" ">
<polygon fill="white" stroke="#bfbfbf" points="791.5,-1518 600.5,-1518 600.5,-1488 791.5,-1488 791.5,-1518"/>
<text text-anchor="start" x="608.5" y="-1506" font-family="Helvetica,sans-Serif" font-size="10.00">com.fs.starfarer.api.impl.campaign.skills.</text>
<text text-anchor="middle" x="696" y="-1495" font-family="Helvetica,sans-Serif" font-size="10.00">CombatEndurance.Level4</text>
</a>
</g>
</g>
<!-- Node1&#45;&gt;Node13 -->
<g id="edge12" class="edge">
<title>Node1&#45;&gt;Node13</title>
<path fill="none" stroke="#63b8ff" d="M468.88,-929.77C478.53,-1032.35 518.09,-1398.71 597,-1479 600.19,-1482.25 603.75,-1485.08 607.56,-1487.56"/>
<polygon fill="#63b8ff" stroke="#63b8ff" points="472.37,-929.49 467.97,-919.85 465.4,-930.13 472.37,-929.49"/>
</g>
<!-- Node14 -->
<g id="node14" class="node">
<title>Node14</title>
<g id="a_node14"><a xlink:href="classcom_1_1fs_1_1starfarer_1_1api_1_1impl_1_1campaign_1_1skills_1_1ContainmentProcedures_1_1Level1.html" target="_top" xlink:title=" ">
<polygon fill="white" stroke="#bfbfbf" points="791.5,-1470 600.5,-1470 600.5,-1440 791.5,-1440 791.5,-1470"/>
<text text-anchor="start" x="608.5" y="-1458" font-family="Helvetica,sans-Serif" font-size="10.00">com.fs.starfarer.api.impl.campaign.skills.</text>
<text text-anchor="middle" x="696" y="-1447" font-family="Helvetica,sans-Serif" font-size="10.00">ContainmentProcedures.Level1</text>
</a>
</g>
</g>
<!-- Node1&#45;&gt;Node14 -->
<g id="edge13" class="edge">
<title>Node1&#45;&gt;Node14</title>
<path fill="none" stroke="#63b8ff" d="M469.47,-929.71C480.76,-1026.7 524.16,-1358.32 597,-1431 600.35,-1434.34 604.08,-1437.24 608.08,-1439.76"/>
<polygon fill="#63b8ff" stroke="#63b8ff" points="472.95,-929.39 468.34,-919.86 466,-930.19 472.95,-929.39"/>
</g>
<!-- Node15 -->
<g id="node15" class="node">
<title>Node15</title>
<g id="a_node15"><a xlink:href="classcom_1_1fs_1_1starfarer_1_1api_1_1impl_1_1campaign_1_1skills_1_1ContainmentProcedures_1_1Level4.html" target="_top" xlink:title=" ">
<polygon fill="white" stroke="#bfbfbf" points="791.5,-1422 600.5,-1422 600.5,-1392 791.5,-1392 791.5,-1422"/>
<text text-anchor="start" x="608.5" y="-1410" font-family="Helvetica,sans-Serif" font-size="10.00">com.fs.starfarer.api.impl.campaign.skills.</text>
<text text-anchor="middle" x="696" y="-1399" font-family="Helvetica,sans-Serif" font-size="10.00">ContainmentProcedures.Level4</text>
</a>
</g>
</g>
<!-- Node1&#45;&gt;Node15 -->
<g id="edge14" class="edge">
<title>Node1&#45;&gt;Node15</title>
<path fill="none" stroke="#63b8ff" d="M470.16,-929.64C483.2,-1020.75 530.2,-1317.87 597,-1383 600.39,-1386.3 604.15,-1389.17 608.17,-1391.67"/>
<polygon fill="#63b8ff" stroke="#63b8ff" points="473.65,-929.34 468.79,-919.92 466.72,-930.31 473.65,-929.34"/>
</g>
<!-- Node16 -->
<g id="node16" class="node">
<title>Node16</title>
<g id="a_node16"><a xlink:href="classcom_1_1fs_1_1starfarer_1_1api_1_1impl_1_1campaign_1_1skills_1_1ContainmentProcedures_1_1Level5.html" target="_top" xlink:title=" ">
<polygon fill="white" stroke="#bfbfbf" points="791.5,-1374 600.5,-1374 600.5,-1344 791.5,-1344 791.5,-1374"/>
<text text-anchor="start" x="608.5" y="-1362" font-family="Helvetica,sans-Serif" font-size="10.00">com.fs.starfarer.api.impl.campaign.skills.</text>
<text text-anchor="middle" x="696" y="-1351" font-family="Helvetica,sans-Serif" font-size="10.00">ContainmentProcedures.Level5</text>
</a>
</g>
</g>
<!-- Node1&#45;&gt;Node16 -->
<g id="edge15" class="edge">
<title>Node1&#45;&gt;Node16</title>
<path fill="none" stroke="#63b8ff" d="M466.06,-929.57C466.35,-1004.98 477.98,-1222.15 597,-1335 600.43,-1338.25 604.23,-1341.09 608.28,-1343.56"/>
<polygon fill="#63b8ff" stroke="#63b8ff" points="469.56,-929.86 466.1,-919.85 462.56,-929.84 469.56,-929.86"/>
</g>
<!-- Node17 -->
<g id="node17" class="node">
<title>Node17</title>
<g id="a_node17"><a xlink:href="classcom_1_1fs_1_1starfarer_1_1api_1_1impl_1_1campaign_1_1skills_1_1CoordinatedManeuvers_1_1Level1A.html" target="_top" xlink:title=" ">
<polygon fill="white" stroke="#bfbfbf" points="791.5,-1326 600.5,-1326 600.5,-1296 791.5,-1296 791.5,-1326"/>
<text text-anchor="start" x="608.5" y="-1314" font-family="Helvetica,sans-Serif" font-size="10.00">com.fs.starfarer.api.impl.campaign.skills.</text>
<text text-anchor="middle" x="696" y="-1303" font-family="Helvetica,sans-Serif" font-size="10.00">CoordinatedManeuvers.Level1A</text>
</a>
</g>
</g>
<!-- Node1&#45;&gt;Node17 -->
<g id="edge16" class="edge">
<title>Node1&#45;&gt;Node17</title>
<path fill="none" stroke="#63b8ff" d="M467.22,-929.41C470.61,-998.98 489.74,-1188.73 597,-1287 600.62,-1290.31 604.61,-1293.19 608.87,-1295.68"/>
<polygon fill="#63b8ff" stroke="#63b8ff" points="470.73,-929.58 466.83,-919.73 463.74,-929.86 470.73,-929.58"/>
</g>
<!-- Node18 -->
<g id="node18" class="node">
<title>Node18</title>
<g id="a_node18"><a xlink:href="classcom_1_1fs_1_1starfarer_1_1api_1_1impl_1_1campaign_1_1skills_1_1CoordinatedManeuvers_1_1Level1B.html" target="_top" xlink:title=" ">
<polygon fill="white" stroke="#bfbfbf" points="791.5,-1278 600.5,-1278 600.5,-1248 791.5,-1248 791.5,-1278"/>
<text text-anchor="start" x="608.5" y="-1266" font-family="Helvetica,sans-Serif" font-size="10.00">com.fs.starfarer.api.impl.campaign.skills.</text>
<text text-anchor="middle" x="696" y="-1255" font-family="Helvetica,sans-Serif" font-size="10.00">CoordinatedManeuvers.Level1B</text>
</a>
</g>
</g>
<!-- Node1&#45;&gt;Node18 -->
<g id="edge17" class="edge">
<title>Node1&#45;&gt;Node18</title>
<path fill="none" stroke="#63b8ff" d="M468.69,-929.5C475.41,-993.08 501.53,-1155.22 597,-1239 600.82,-1242.35 605.03,-1245.25 609.49,-1247.76"/>
<polygon fill="#63b8ff" stroke="#63b8ff" points="472.18,-929.27 467.73,-919.65 465.22,-929.94 472.18,-929.27"/>
</g>
<!-- Node19 -->
<g id="node19" class="node">
<title>Node19</title>
<g id="a_node19"><a xlink:href="classcom_1_1fs_1_1starfarer_1_1api_1_1impl_1_1campaign_1_1skills_1_1CoordinatedManeuvers_1_1Level1C.html" target="_top" xlink:title=" ">
<polygon fill="white" stroke="#bfbfbf" points="791.5,-1230 600.5,-1230 600.5,-1200 791.5,-1200 791.5,-1230"/>
<text text-anchor="start" x="608.5" y="-1218" font-family="Helvetica,sans-Serif" font-size="10.00">com.fs.starfarer.api.impl.campaign.skills.</text>
<text text-anchor="middle" x="696" y="-1207" font-family="Helvetica,sans-Serif" font-size="10.00">CoordinatedManeuvers.Level1C</text>
</a>
</g>
</g>
<!-- Node1&#45;&gt;Node19 -->
<g id="edge18" class="edge">
<title>Node1&#45;&gt;Node19</title>
<path fill="none" stroke="#63b8ff" d="M470.61,-929.58C480.89,-986.67 513.18,-1121.43 597,-1191 600.91,-1194.24 605.19,-1197.06 609.71,-1199.51"/>
<polygon fill="#63b8ff" stroke="#63b8ff" points="474.08,-929.09 468.95,-919.82 467.18,-930.26 474.08,-929.09"/>
</g>
<!-- Node20 -->
<g id="node20" class="node">
<title>Node20</title>
<g id="a_node20"><a xlink:href="classcom_1_1fs_1_1starfarer_1_1api_1_1impl_1_1campaign_1_1skills_1_1CrewTraining_1_1Level1.html" target="_top" xlink:title=" ">
<polygon fill="white" stroke="#bfbfbf" points="791.5,-1182 600.5,-1182 600.5,-1152 791.5,-1152 791.5,-1182"/>
<text text-anchor="start" x="608.5" y="-1170" font-family="Helvetica,sans-Serif" font-size="10.00">com.fs.starfarer.api.impl.campaign.skills.</text>
<text text-anchor="middle" x="696" y="-1159" font-family="Helvetica,sans-Serif" font-size="10.00">CrewTraining.Level1</text>
</a>
</g>
</g>
<!-- Node1&#45;&gt;Node20 -->
<g id="edge19" class="edge">
<title>Node1&#45;&gt;Node20</title>
<path fill="none" stroke="#63b8ff" d="M473.23,-929.6C487.29,-979.52 524.63,-1087.24 597,-1143 601.3,-1146.31 606,-1149.18 610.93,-1151.65"/>
<polygon fill="#63b8ff" stroke="#63b8ff" points="476.61,-928.69 470.62,-919.95 469.85,-930.52 476.61,-928.69"/>
</g>
<!-- Node21 -->
<g id="node21" class="node">
<title>Node21</title>
<g id="a_node21"><a xlink:href="classcom_1_1fs_1_1starfarer_1_1api_1_1impl_1_1campaign_1_1skills_1_1CrewTraining_1_1Level2.html" target="_top" xlink:title=" ">
<polygon fill="white" stroke="#bfbfbf" points="791.5,-1134 600.5,-1134 600.5,-1104 791.5,-1104 791.5,-1134"/>
<text text-anchor="start" x="608.5" y="-1122" font-family="Helvetica,sans-Serif" font-size="10.00">com.fs.starfarer.api.impl.campaign.skills.</text>
<text text-anchor="middle" x="696" y="-1111" font-family="Helvetica,sans-Serif" font-size="10.00">CrewTraining.Level2</text>
</a>
</g>
</g>
<!-- Node1&#45;&gt;Node21 -->
<g id="edge20" class="edge">
<title>Node1&#45;&gt;Node21</title>
<path fill="none" stroke="#63b8ff" d="M476.64,-928.66C494.46,-970.3 535.44,-1052.25 597,-1095 601.75,-1098.3 606.9,-1101.14 612.27,-1103.6"/>
<polygon fill="#63b8ff" stroke="#63b8ff" points="479.98,-927.57 472.9,-919.68 473.51,-930.25 479.98,-927.57"/>
</g>
<!-- Node22 -->
<g id="node22" class="node">
<title>Node22</title>
<g id="a_node22"><a xlink:href="classcom_1_1fs_1_1starfarer_1_1api_1_1impl_1_1campaign_1_1skills_1_1CyberneticAugmentation_1_1Level2.html" target="_top" xlink:title=" ">
<polygon fill="white" stroke="#bfbfbf" points="791.5,-1086 600.5,-1086 600.5,-1056 791.5,-1056 791.5,-1086"/>
<text text-anchor="start" x="608.5" y="-1074" font-family="Helvetica,sans-Serif" font-size="10.00">com.fs.starfarer.api.impl.campaign.skills.</text>
<text text-anchor="middle" x="696" y="-1063" font-family="Helvetica,sans-Serif" font-size="10.00">CyberneticAugmentation.Level2</text>
</a>
</g>
</g>
<!-- Node1&#45;&gt;Node22 -->
<g id="edge21" class="edge">
<title>Node1&#45;&gt;Node22</title>
<path fill="none" stroke="#63b8ff" d="M481.89,-927.6C503.53,-960.06 546.04,-1016.64 597,-1047 602.49,-1050.27 608.41,-1053.1 614.52,-1055.54"/>
<polygon fill="#63b8ff" stroke="#63b8ff" points="485.08,-926.08 476.69,-919.62 479.22,-929.91 485.08,-926.08"/>
</g>
<!-- Node23 -->
<g id="node23" class="node">
<title>Node23</title>
<g id="a_node23"><a xlink:href="classcom_1_1fs_1_1starfarer_1_1api_1_1impl_1_1campaign_1_1skills_1_1DamageControl_1_1Level6.html" target="_top" xlink:title=" ">
<polygon fill="white" stroke="#bfbfbf" points="791.5,-1038 600.5,-1038 600.5,-1008 791.5,-1008 791.5,-1038"/>
<text text-anchor="start" x="608.5" y="-1026" font-family="Helvetica,sans-Serif" font-size="10.00">com.fs.starfarer.api.impl.campaign.skills.</text>
<text text-anchor="middle" x="696" y="-1015" font-family="Helvetica,sans-Serif" font-size="10.00">DamageControl.Level6</text>
</a>
</g>
</g>
<!-- Node1&#45;&gt;Node23 -->
<g id="edge22" class="edge">
<title>Node1&#45;&gt;Node23</title>
<path fill="none" stroke="#63b8ff" d="M491.28,-925.94C516.2,-947.81 556.61,-980.12 597,-999 603.9,-1002.23 611.29,-1005.05 618.8,-1007.51"/>
<polygon fill="#63b8ff" stroke="#63b8ff" points="493.75,-923.46 483.96,-919.41 489.09,-928.68 493.75,-923.46"/>
</g>
<!-- Node24 -->
<g id="node24" class="node">
<title>Node24</title>
<g id="a_node24"><a xlink:href="classcom_1_1fs_1_1starfarer_1_1api_1_1impl_1_1campaign_1_1skills_1_1DerelictContingent_1_1Level1.html" target="_top" xlink:title=" ">
<polygon fill="white" stroke="#bfbfbf" points="791.5,-990 600.5,-990 600.5,-960 791.5,-960 791.5,-990"/>
<text text-anchor="start" x="608.5" y="-978" font-family="Helvetica,sans-Serif" font-size="10.00">com.fs.starfarer.api.impl.campaign.skills.</text>
<text text-anchor="middle" x="696" y="-967" font-family="Helvetica,sans-Serif" font-size="10.00">DerelictContingent.Level1</text>
</a>
</g>
</g>
<!-- Node1&#45;&gt;Node24 -->
<g id="edge23" class="edge">
<title>Node1&#45;&gt;Node24</title>
<path fill="none" stroke="#63b8ff" d="M515.67,-922.57C539.93,-931.85 569.77,-942.69 597,-951 606.8,-953.99 617.24,-956.87 627.51,-959.53"/>
<polygon fill="#63b8ff" stroke="#63b8ff" points="516.94,-919.31 506.35,-918.98 514.43,-925.84 516.94,-919.31"/>
</g>
<!-- Node25 -->
<g id="node25" class="node">
<title>Node25</title>
<g id="a_node25"><a xlink:href="classcom_1_1fs_1_1starfarer_1_1api_1_1impl_1_1campaign_1_1skills_1_1EnergyWeaponMastery_1_1Level1.html" target="_top" xlink:title=" ">
<polygon fill="white" stroke="#bfbfbf" points="791.5,-942 600.5,-942 600.5,-912 791.5,-912 791.5,-942"/>
<text text-anchor="start" x="608.5" y="-930" font-family="Helvetica,sans-Serif" font-size="10.00">com.fs.starfarer.api.impl.campaign.skills.</text>
<text text-anchor="middle" x="696" y="-919" font-family="Helvetica,sans-Serif" font-size="10.00">EnergyWeaponMastery.Level1</text>
</a>
</g>
</g>
<!-- Node1&#45;&gt;Node25 -->
<g id="edge24" class="edge">
<title>Node1&#45;&gt;Node25</title>
<path fill="none" stroke="#63b8ff" d="M572.85,-914.17C581.91,-915.12 591.04,-916.08 600.01,-917.02"/>
<polygon fill="#63b8ff" stroke="#63b8ff" points="573.24,-910.69 562.92,-913.13 572.5,-917.65 573.24,-910.69"/>
</g>
<!-- Node26 -->
<g id="node26" class="node">
<title>Node26</title>
<g id="a_node26"><a xlink:href="classcom_1_1fs_1_1starfarer_1_1api_1_1impl_1_1campaign_1_1skills_1_1FieldRepairs_1_1Level1.html" target="_top" xlink:title=" ">
<polygon fill="white" stroke="#bfbfbf" points="791.5,-894 600.5,-894 600.5,-864 791.5,-864 791.5,-894"/>
<text text-anchor="start" x="608.5" y="-882" font-family="Helvetica,sans-Serif" font-size="10.00">com.fs.starfarer.api.impl.campaign.skills.</text>
<text text-anchor="middle" x="696" y="-871" font-family="Helvetica,sans-Serif" font-size="10.00">FieldRepairs.Level1</text>
</a>
</g>
</g>
<!-- Node1&#45;&gt;Node26 -->
<g id="edge25" class="edge">
<title>Node1&#45;&gt;Node26</title>
<path fill="none" stroke="#63b8ff" d="M572.85,-891.83C581.91,-890.88 591.04,-889.92 600.01,-888.98"/>
<polygon fill="#63b8ff" stroke="#63b8ff" points="572.5,-888.35 562.92,-892.87 573.24,-895.31 572.5,-888.35"/>
</g>
<!-- Node27 -->
<g id="node27" class="node">
<title>Node27</title>
<g id="a_node27"><a xlink:href="classcom_1_1fs_1_1starfarer_1_1api_1_1impl_1_1campaign_1_1skills_1_1FieldRepairs_1_1Level2.html" target="_top" xlink:title=" ">
<polygon fill="white" stroke="#bfbfbf" points="791.5,-846 600.5,-846 600.5,-816 791.5,-816 791.5,-846"/>
<text text-anchor="start" x="608.5" y="-834" font-family="Helvetica,sans-Serif" font-size="10.00">com.fs.starfarer.api.impl.campaign.skills.</text>
<text text-anchor="middle" x="696" y="-823" font-family="Helvetica,sans-Serif" font-size="10.00">FieldRepairs.Level2</text>
</a>
</g>
</g>
<!-- Node1&#45;&gt;Node27 -->
<g id="edge26" class="edge">
<title>Node1&#45;&gt;Node27</title>
<path fill="none" stroke="#63b8ff" d="M515.67,-883.43C539.93,-874.15 569.77,-863.31 597,-855 606.8,-852.01 617.24,-849.13 627.51,-846.47"/>
<polygon fill="#63b8ff" stroke="#63b8ff" points="514.43,-880.16 506.35,-887.02 516.94,-886.69 514.43,-880.16"/>
</g>
<!-- Node28 -->
<g id="node28" class="node">
<title>Node28</title>
<g id="a_node28"><a xlink:href="classcom_1_1fs_1_1starfarer_1_1api_1_1impl_1_1campaign_1_1skills_1_1FighterUplink_1_1Level1.html" target="_top" xlink:title=" ">
<polygon fill="white" stroke="#bfbfbf" points="791.5,-798 600.5,-798 600.5,-768 791.5,-768 791.5,-798"/>
<text text-anchor="start" x="608.5" y="-786" font-family="Helvetica,sans-Serif" font-size="10.00">com.fs.starfarer.api.impl.campaign.skills.</text>
<text text-anchor="middle" x="696" y="-775" font-family="Helvetica,sans-Serif" font-size="10.00">FighterUplink.Level1</text>
</a>
</g>
</g>
<!-- Node1&#45;&gt;Node28 -->
<g id="edge27" class="edge">
<title>Node1&#45;&gt;Node28</title>
<path fill="none" stroke="#63b8ff" d="M491.28,-880.06C516.2,-858.19 556.61,-825.88 597,-807 603.9,-803.77 611.29,-800.95 618.8,-798.49"/>
<polygon fill="#63b8ff" stroke="#63b8ff" points="489.09,-877.32 483.96,-886.59 493.75,-882.54 489.09,-877.32"/>
</g>
<!-- Node29 -->
<g id="node29" class="node">
<title>Node29</title>
<g id="a_node29"><a xlink:href="classcom_1_1fs_1_1starfarer_1_1api_1_1impl_1_1campaign_1_1skills_1_1FighterUplink_1_1Level2.html" target="_top" xlink:title=" ">
<polygon fill="white" stroke="#bfbfbf" points="791.5,-750 600.5,-750 600.5,-720 791.5,-720 791.5,-750"/>
<text text-anchor="start" x="608.5" y="-738" font-family="Helvetica,sans-Serif" font-size="10.00">com.fs.starfarer.api.impl.campaign.skills.</text>
<text text-anchor="middle" x="696" y="-727" font-family="Helvetica,sans-Serif" font-size="10.00">FighterUplink.Level2</text>
</a>
</g>
</g>
<!-- Node1&#45;&gt;Node29 -->
<g id="edge28" class="edge">
<title>Node1&#45;&gt;Node29</title>
<path fill="none" stroke="#63b8ff" d="M481.89,-878.4C503.53,-845.94 546.04,-789.36 597,-759 602.49,-755.73 608.41,-752.9 614.52,-750.46"/>
<polygon fill="#63b8ff" stroke="#63b8ff" points="479.22,-876.09 476.69,-886.38 485.08,-879.92 479.22,-876.09"/>
</g>
<!-- Node30 -->
<g id="node30" class="node">
<title>Node30</title>
<g id="a_node30"><a xlink:href="classcom_1_1fs_1_1starfarer_1_1api_1_1impl_1_1campaign_1_1skills_1_1FluxRegulation_1_1Level1.html" target="_top" xlink:title=" ">
<polygon fill="white" stroke="#bfbfbf" points="791.5,-702 600.5,-702 600.5,-672 791.5,-672 791.5,-702"/>
<text text-anchor="start" x="608.5" y="-690" font-family="Helvetica,sans-Serif" font-size="10.00">com.fs.starfarer.api.impl.campaign.skills.</text>
<text text-anchor="middle" x="696" y="-679" font-family="Helvetica,sans-Serif" font-size="10.00">FluxRegulation.Level1</text>
</a>
</g>
</g>
<!-- Node1&#45;&gt;Node30 -->
<g id="edge29" class="edge">
<title>Node1&#45;&gt;Node30</title>
<path fill="none" stroke="#63b8ff" d="M476.64,-877.34C494.46,-835.7 535.44,-753.75 597,-711 601.75,-707.7 606.9,-704.86 612.27,-702.4"/>
<polygon fill="#63b8ff" stroke="#63b8ff" points="473.51,-875.75 472.9,-886.32 479.98,-878.43 473.51,-875.75"/>
</g>
<!-- Node31 -->
<g id="node31" class="node">
<title>Node31</title>
<g id="a_node31"><a xlink:href="classcom_1_1fs_1_1starfarer_1_1api_1_1impl_1_1campaign_1_1skills_1_1ForceConcentration_1_1Level4.html" target="_top" xlink:title=" ">
<polygon fill="white" stroke="#bfbfbf" points="791.5,-654 600.5,-654 600.5,-624 791.5,-624 791.5,-654"/>
<text text-anchor="start" x="608.5" y="-642" font-family="Helvetica,sans-Serif" font-size="10.00">com.fs.starfarer.api.impl.campaign.skills.</text>
<text text-anchor="middle" x="696" y="-631" font-family="Helvetica,sans-Serif" font-size="10.00">ForceConcentration.Level4</text>
</a>
</g>
</g>
<!-- Node1&#45;&gt;Node31 -->
<g id="edge30" class="edge">
<title>Node1&#45;&gt;Node31</title>
<path fill="none" stroke="#63b8ff" d="M473.23,-876.4C487.29,-826.48 524.63,-718.76 597,-663 601.3,-659.69 606,-656.82 610.93,-654.35"/>
<polygon fill="#63b8ff" stroke="#63b8ff" points="469.85,-875.48 470.62,-886.05 476.61,-877.31 469.85,-875.48"/>
</g>
<!-- Node32 -->
<g id="node32" class="node">
<title>Node32</title>
<g id="a_node32"><a xlink:href="classcom_1_1fs_1_1starfarer_1_1api_1_1impl_1_1campaign_1_1skills_1_1IndustrialPlanning_1_1Level2.html" target="_top" xlink:title=" ">
<polygon fill="white" stroke="#bfbfbf" points="791.5,-606 600.5,-606 600.5,-576 791.5,-576 791.5,-606"/>
<text text-anchor="start" x="608.5" y="-594" font-family="Helvetica,sans-Serif" font-size="10.00">com.fs.starfarer.api.impl.campaign.skills.</text>
<text text-anchor="middle" x="696" y="-583" font-family="Helvetica,sans-Serif" font-size="10.00">IndustrialPlanning.Level2</text>
</a>
</g>
</g>
<!-- Node1&#45;&gt;Node32 -->
<g id="edge31" class="edge">
<title>Node1&#45;&gt;Node32</title>
<path fill="none" stroke="#63b8ff" d="M470.61,-876.42C480.89,-819.33 513.18,-684.57 597,-615 600.91,-611.76 605.19,-608.94 609.71,-606.49"/>
<polygon fill="#63b8ff" stroke="#63b8ff" points="467.18,-875.74 468.95,-886.18 474.08,-876.91 467.18,-875.74"/>
</g>
<!-- Node33 -->
<g id="node33" class="node">
<title>Node33</title>
<g id="a_node33"><a xlink:href="classcom_1_1fs_1_1starfarer_1_1api_1_1impl_1_1campaign_1_1skills_1_1MakeshiftEquipment_1_1Level3.html" target="_top" xlink:title=" ">
<polygon fill="white" stroke="#bfbfbf" points="791.5,-558 600.5,-558 600.5,-528 791.5,-528 791.5,-558"/>
<text text-anchor="start" x="608.5" y="-546" font-family="Helvetica,sans-Serif" font-size="10.00">com.fs.starfarer.api.impl.campaign.skills.</text>
<text text-anchor="middle" x="696" y="-535" font-family="Helvetica,sans-Serif" font-size="10.00">MakeshiftEquipment.Level3</text>
</a>
</g>
</g>
<!-- Node1&#45;&gt;Node33 -->
<g id="edge32" class="edge">
<title>Node1&#45;&gt;Node33</title>
<path fill="none" stroke="#63b8ff" d="M468.69,-876.5C475.41,-812.92 501.53,-650.78 597,-567 600.82,-563.65 605.03,-560.75 609.49,-558.24"/>
<polygon fill="#63b8ff" stroke="#63b8ff" points="465.22,-876.06 467.73,-886.35 472.18,-876.73 465.22,-876.06"/>
</g>
<!-- Node34 -->
<g id="node34" class="node">
<title>Node34</title>
<g id="a_node34"><a xlink:href="classcom_1_1fs_1_1starfarer_1_1api_1_1impl_1_1campaign_1_1skills_1_1Navigation_1_1Level4.html" target="_top" xlink:title=" ">
<polygon fill="white" stroke="#bfbfbf" points="791.5,-510 600.5,-510 600.5,-480 791.5,-480 791.5,-510"/>
<text text-anchor="start" x="608.5" y="-498" font-family="Helvetica,sans-Serif" font-size="10.00">com.fs.starfarer.api.impl.campaign.skills.</text>
<text text-anchor="middle" x="696" y="-487" font-family="Helvetica,sans-Serif" font-size="10.00">Navigation.Level4</text>
</a>
</g>
</g>
<!-- Node1&#45;&gt;Node34 -->
<g id="edge33" class="edge">
<title>Node1&#45;&gt;Node34</title>
<path fill="none" stroke="#63b8ff" d="M467.22,-876.59C470.61,-807.02 489.74,-617.27 597,-519 600.62,-515.69 604.61,-512.81 608.87,-510.32"/>
<polygon fill="#63b8ff" stroke="#63b8ff" points="463.74,-876.14 466.83,-886.27 470.73,-876.42 463.74,-876.14"/>
</g>
<!-- Node35 -->
<g id="node35" class="node">
<title>Node35</title>
<g id="a_node35"><a xlink:href="classcom_1_1fs_1_1starfarer_1_1api_1_1impl_1_1campaign_1_1skills_1_1NeuralLink_1_1Level1.html" target="_top" xlink:title=" ">
<polygon fill="white" stroke="#bfbfbf" points="791.5,-462 600.5,-462 600.5,-432 791.5,-432 791.5,-462"/>
<text text-anchor="start" x="608.5" y="-450" font-family="Helvetica,sans-Serif" font-size="10.00">com.fs.starfarer.api.impl.campaign.skills.</text>
<text text-anchor="middle" x="696" y="-439" font-family="Helvetica,sans-Serif" font-size="10.00">NeuralLink.Level1</text>
</a>
</g>
</g>
<!-- Node1&#45;&gt;Node35 -->
<g id="edge34" class="edge">
<title>Node1&#45;&gt;Node35</title>
<path fill="none" stroke="#63b8ff" d="M466.06,-876.43C466.35,-801.02 477.98,-583.85 597,-471 600.43,-467.75 604.23,-464.91 608.28,-462.44"/>
<polygon fill="#63b8ff" stroke="#63b8ff" points="462.56,-876.16 466.1,-886.15 469.56,-876.14 462.56,-876.16"/>
</g>
<!-- Node36 -->
<g id="node36" class="node">
<title>Node36</title>
<g id="a_node36"><a xlink:href="classcom_1_1fs_1_1starfarer_1_1api_1_1impl_1_1campaign_1_1skills_1_1PhaseCorps_1_1Level3.html" target="_top" xlink:title=" ">
<polygon fill="white" stroke="#bfbfbf" points="791.5,-414 600.5,-414 600.5,-384 791.5,-384 791.5,-414"/>
<text text-anchor="start" x="608.5" y="-402" font-family="Helvetica,sans-Serif" font-size="10.00">com.fs.starfarer.api.impl.campaign.skills.</text>
<text text-anchor="middle" x="696" y="-391" font-family="Helvetica,sans-Serif" font-size="10.00">PhaseCorps.Level3</text>
</a>
</g>
</g>
<!-- Node1&#45;&gt;Node36 -->
<g id="edge35" class="edge">
<title>Node1&#45;&gt;Node36</title>
<path fill="none" stroke="#63b8ff" d="M470.16,-876.36C483.2,-785.25 530.2,-488.13 597,-423 600.39,-419.7 604.15,-416.83 608.17,-414.33"/>
<polygon fill="#63b8ff" stroke="#63b8ff" points="466.72,-875.69 468.79,-886.08 473.65,-876.66 466.72,-875.69"/>
</g>
<!-- Node37 -->
<g id="node37" class="node">
<title>Node37</title>
<g id="a_node37"><a xlink:href="classcom_1_1fs_1_1starfarer_1_1api_1_1impl_1_1campaign_1_1skills_1_1PlanetaryOperations_1_1Level3.html" target="_top" xlink:title=" ">
<polygon fill="white" stroke="#bfbfbf" points="791.5,-366 600.5,-366 600.5,-336 791.5,-336 791.5,-366"/>
<text text-anchor="start" x="608.5" y="-354" font-family="Helvetica,sans-Serif" font-size="10.00">com.fs.starfarer.api.impl.campaign.skills.</text>
<text text-anchor="middle" x="696" y="-343" font-family="Helvetica,sans-Serif" font-size="10.00">PlanetaryOperations.Level3</text>
</a>
</g>
</g>
<!-- Node1&#45;&gt;Node37 -->
<g id="edge36" class="edge">
<title>Node1&#45;&gt;Node37</title>
<path fill="none" stroke="#63b8ff" d="M469.47,-876.29C480.76,-779.3 524.16,-447.68 597,-375 600.35,-371.66 604.08,-368.76 608.08,-366.24"/>
<polygon fill="#63b8ff" stroke="#63b8ff" points="466,-875.81 468.34,-886.14 472.95,-876.61 466,-875.81"/>
</g>
<!-- Node38 -->
<g id="node38" class="node">
<title>Node38</title>
<g id="a_node38"><a xlink:href="classcom_1_1fs_1_1starfarer_1_1api_1_1impl_1_1campaign_1_1skills_1_1RangedSpecialization_1_1Level1.html" target="_top" xlink:title=" ">
<polygon fill="white" stroke="#bfbfbf" points="791.5,-318 600.5,-318 600.5,-288 791.5,-288 791.5,-318"/>
<text text-anchor="start" x="608.5" y="-306" font-family="Helvetica,sans-Serif" font-size="10.00">com.fs.starfarer.api.impl.campaign.skills.</text>
<text text-anchor="middle" x="696" y="-295" font-family="Helvetica,sans-Serif" font-size="10.00">RangedSpecialization.Level1</text>
</a>
</g>
</g>
<!-- Node1&#45;&gt;Node38 -->
<g id="edge37" class="edge">
<title>Node1&#45;&gt;Node38</title>
<path fill="none" stroke="#63b8ff" d="M468.88,-876.23C478.53,-773.65 518.09,-407.29 597,-327 600.19,-323.75 603.75,-320.92 607.56,-318.44"/>
<polygon fill="#63b8ff" stroke="#63b8ff" points="465.4,-875.87 467.97,-886.15 472.37,-876.51 465.4,-875.87"/>
</g>
<!-- Node39 -->
<g id="node39" class="node">
<title>Node39</title>
<g id="a_node39"><a xlink:href="classcom_1_1fs_1_1starfarer_1_1api_1_1impl_1_1campaign_1_1skills_1_1Salvaging_1_1Level4.html" target="_top" xlink:title=" ">
<polygon fill="white" stroke="#bfbfbf" points="791.5,-270 600.5,-270 600.5,-240 791.5,-240 791.5,-270"/>
<text text-anchor="start" x="608.5" y="-258" font-family="Helvetica,sans-Serif" font-size="10.00">com.fs.starfarer.api.impl.campaign.skills.</text>
<text text-anchor="middle" x="696" y="-247" font-family="Helvetica,sans-Serif" font-size="10.00">Salvaging.Level4</text>
</a>
</g>
</g>
<!-- Node1&#45;&gt;Node39 -->
<g id="edge38" class="edge">
<title>Node1&#45;&gt;Node39</title>
<path fill="none" stroke="#63b8ff" d="M468.38,-876.13C476.5,-768.08 512.01,-366.94 597,-279 600.17,-275.73 603.7,-272.87 607.49,-270.38"/>
<polygon fill="#63b8ff" stroke="#63b8ff" points="464.9,-875.81 467.66,-886.04 471.88,-876.32 464.9,-875.81"/>
</g>
<!-- Node40 -->
<g id="node40" class="node">
<title>Node40</title>
<g id="a_node40"><a xlink:href="classcom_1_1fs_1_1starfarer_1_1api_1_1impl_1_1campaign_1_1skills_1_1SupportDoctrine_1_1Level3.html" target="_top" xlink:title=" ">
<polygon fill="white" stroke="#bfbfbf" points="791.5,-222 600.5,-222 600.5,-192 791.5,-192 791.5,-222"/>
<text text-anchor="start" x="608.5" y="-210" font-family="Helvetica,sans-Serif" font-size="10.00">com.fs.starfarer.api.impl.campaign.skills.</text>
<text text-anchor="middle" x="696" y="-199" font-family="Helvetica,sans-Serif" font-size="10.00">SupportDoctrine.Level3</text>
</a>
</g>
</g>
<!-- Node1&#45;&gt;Node40 -->
<g id="edge39" class="edge">
<title>Node1&#45;&gt;Node40</title>
<path fill="none" stroke="#63b8ff" d="M467.94,-876.27C474.57,-763.34 505.83,-326.69 597,-231 600.14,-227.7 603.66,-224.83 607.43,-222.32"/>
<polygon fill="#63b8ff" stroke="#63b8ff" points="464.46,-875.88 467.38,-886.06 471.45,-876.28 464.46,-875.88"/>
</g>
<!-- Node41 -->
<g id="node41" class="node">
<title>Node41</title>
<g id="a_node41"><a xlink:href="classcom_1_1fs_1_1starfarer_1_1api_1_1impl_1_1campaign_1_1skills_1_1TacticalDrills_1_1Level1.html" target="_top" xlink:title=" ">
<polygon fill="white" stroke="#bfbfbf" points="791.5,-174 600.5,-174 600.5,-144 791.5,-144 791.5,-174"/>
<text text-anchor="start" x="608.5" y="-162" font-family="Helvetica,sans-Serif" font-size="10.00">com.fs.starfarer.api.impl.campaign.skills.</text>
<text text-anchor="middle" x="696" y="-151" font-family="Helvetica,sans-Serif" font-size="10.00">TacticalDrills.Level1</text>
</a>
</g>
</g>
<!-- Node1&#45;&gt;Node41 -->
<g id="edge40" class="edge">
<title>Node1&#45;&gt;Node41</title>
<path fill="none" stroke="#63b8ff" d="M467.56,-876.29C472.81,-758.48 499.67,-286.44 597,-183 600.12,-179.68 603.62,-176.79 607.38,-174.28"/>
<polygon fill="#63b8ff" stroke="#63b8ff" points="464.07,-876.08 467.14,-886.22 471.06,-876.37 464.07,-876.08"/>
</g>
<!-- Node42 -->
<g id="node42" class="node">
<title>Node42</title>
<g id="a_node42"><a xlink:href="classcom_1_1fs_1_1starfarer_1_1api_1_1impl_1_1campaign_1_1skills_1_1TacticalDrills_1_1Level2.html" target="_top" xlink:title=" ">
<polygon fill="white" stroke="#bfbfbf" points="791.5,-126 600.5,-126 600.5,-96 791.5,-96 791.5,-126"/>
<text text-anchor="start" x="608.5" y="-114" font-family="Helvetica,sans-Serif" font-size="10.00">com.fs.starfarer.api.impl.campaign.skills.</text>
<text text-anchor="middle" x="696" y="-103" font-family="Helvetica,sans-Serif" font-size="10.00">TacticalDrills.Level2</text>
</a>
</g>
</g>
<!-- Node1&#45;&gt;Node42 -->
<g id="edge41" class="edge">
<title>Node1&#45;&gt;Node42</title>
<path fill="none" stroke="#63b8ff" d="M467.23,-876.48C471.13,-754.24 493.45,-246.27 597,-135 600.1,-131.67 603.59,-128.76 607.34,-126.23"/>
<polygon fill="#63b8ff" stroke="#63b8ff" points="463.74,-876.07 466.94,-886.17 470.74,-876.28 463.74,-876.07"/>
</g>
<!-- Node43 -->
<g id="node43" class="node">
<title>Node43</title>
<g id="a_node43"><a xlink:href="classcom_1_1fs_1_1starfarer_1_1api_1_1impl_1_1campaign_1_1skills_1_1WeaponDrills_1_1Level1.html" target="_top" xlink:title=" ">
<polygon fill="white" stroke="#bfbfbf" points="791.5,-78 600.5,-78 600.5,-48 791.5,-48 791.5,-78"/>
<text text-anchor="start" x="608.5" y="-66" font-family="Helvetica,sans-Serif" font-size="10.00">com.fs.starfarer.api.impl.campaign.skills.</text>
<text text-anchor="middle" x="696" y="-55" font-family="Helvetica,sans-Serif" font-size="10.00">WeaponDrills.Level1</text>
</a>
</g>
</g>
<!-- Node1&#45;&gt;Node43 -->
<g id="edge42" class="edge">
<title>Node1&#45;&gt;Node43</title>
<path fill="none" stroke="#63b8ff" d="M466.94,-876.47C469.59,-749.61 487.27,-206.07 597,-87 599.97,-83.78 603.29,-80.96 606.87,-78.49"/>
<polygon fill="#63b8ff" stroke="#63b8ff" points="463.45,-876.15 466.75,-886.21 470.44,-876.28 463.45,-876.15"/>
</g>
<!-- Node44 -->
<g id="node44" class="node">
<title>Node44</title>
<g id="a_node44"><a xlink:href="classcom_1_1fs_1_1starfarer_1_1api_1_1impl_1_1campaign_1_1skills_1_1WolfpackTactics_1_1Level1C.html" target="_top" xlink:title=" ">
<polygon fill="white" stroke="#bfbfbf" points="791.5,-30 600.5,-30 600.5,0 791.5,0 791.5,-30"/>
<text text-anchor="start" x="608.5" y="-18" font-family="Helvetica,sans-Serif" font-size="10.00">com.fs.starfarer.api.impl.campaign.skills.</text>
<text text-anchor="middle" x="696" y="-7" font-family="Helvetica,sans-Serif" font-size="10.00">WolfpackTactics.Level1C</text>
</a>
</g>
</g>
<!-- Node1&#45;&gt;Node44 -->
<g id="edge43" class="edge">
<title>Node1&#45;&gt;Node44</title>
<path fill="none" stroke="#63b8ff" d="M466.68,-876.18C468.14,-744.3 481.15,-165.81 597,-39 599.95,-35.77 603.27,-32.94 606.84,-30.46"/>
<polygon fill="#63b8ff" stroke="#63b8ff" points="463.19,-875.97 466.59,-886.01 470.19,-876.04 463.19,-875.97"/>
</g>
<!-- Node2 -->
<g id="node2" class="node">
<title>Node2</title>
<g id="a_node2"><a xlink:href="interfacecom_1_1fs_1_1starfarer_1_1api_1_1characters_1_1CustomSkillDescription.html" target="_top" xlink:title=" ">
<polygon fill="white" stroke="#666666" points="334,-918 185,-918 185,-888 334,-888 334,-918"/>
<text text-anchor="start" x="193" y="-906" font-family="Helvetica,sans-Serif" font-size="10.00">com.fs.starfarer.api.characters.</text>
<text text-anchor="middle" x="259.5" y="-895" font-family="Helvetica,sans-Serif" font-size="10.00">CustomSkillDescription</text>
</a>
</g>
</g>
<!-- Node2&#45;&gt;Node1 -->
<g id="edge1" class="edge">
<title>Node2&#45;&gt;Node1</title>
<path fill="none" stroke="#63b8ff" d="M345.8,-903C353.64,-903 361.62,-903 369.53,-903"/>
<polygon fill="#63b8ff" stroke="#63b8ff" points="345.95,-899.5 335.95,-903 345.95,-906.5 345.95,-899.5"/>
</g>
<!-- Node3 -->
<g id="node3" class="node">
<title>Node3</title>
<g id="a_node3"><a xlink:href="interfacecom_1_1fs_1_1starfarer_1_1api_1_1characters_1_1LevelBasedEffect.html" target="_top" xlink:title=" ">
<polygon fill="white" stroke="#bfbfbf" points="149,-918 0,-918 0,-888 149,-888 149,-918"/>
<text text-anchor="start" x="8" y="-906" font-family="Helvetica,sans-Serif" font-size="10.00">com.fs.starfarer.api.characters.</text>
<text text-anchor="middle" x="74.5" y="-895" font-family="Helvetica,sans-Serif" font-size="10.00">LevelBasedEffect</text>
</a>
</g>
</g>
<!-- Node3&#45;&gt;Node2 -->
<g id="edge2" class="edge">
<title>Node3&#45;&gt;Node2</title>
<path fill="none" stroke="#63b8ff" d="M160.65,-903C168.66,-903 176.73,-903 184.62,-903"/>
<polygon fill="#63b8ff" stroke="#63b8ff" points="160.92,-899.5 150.92,-903 160.92,-906.5 160.92,-899.5"/>
</g>
<!-- Node8 -->
<g id="node8" class="node">
<title>Node8</title>
<g id="a_node8"><a xlink:href="classcom_1_1fs_1_1starfarer_1_1api_1_1impl_1_1campaign_1_1skills_1_1BulkTransport_1_1Level1.html" target="_top" xlink:title=" ">
<polygon fill="white" stroke="#bfbfbf" points="1022,-1710 831,-1710 831,-1680 1022,-1680 1022,-1710"/>
<text text-anchor="start" x="839" y="-1698" font-family="Helvetica,sans-Serif" font-size="10.00">com.fs.starfarer.api.impl.campaign.skills.</text>
<text text-anchor="middle" x="926.5" y="-1687" font-family="Helvetica,sans-Serif" font-size="10.00">BulkTransport.Level1</text>
</a>
</g>
</g>
<!-- Node7&#45;&gt;Node8 -->
<g id="edge7" class="edge">
<title>Node7&#45;&gt;Node8</title>
<path fill="none" stroke="#63b8ff" d="M781.74,-1664.8C804.84,-1669.65 829.67,-1674.87 852.08,-1679.58"/>
<polygon fill="#63b8ff" stroke="#63b8ff" points="782.54,-1661.39 772.04,-1662.76 781.1,-1668.24 782.54,-1661.39"/>
</g>
<!-- Node9 -->
<g id="node9" class="node">
<title>Node9</title>
<g id="a_node9"><a xlink:href="classcom_1_1fs_1_1starfarer_1_1api_1_1impl_1_1campaign_1_1skills_1_1BulkTransport_1_1Level2.html" target="_top" xlink:title=" ">
<polygon fill="white" stroke="#bfbfbf" points="1022,-1662 831,-1662 831,-1632 1022,-1632 1022,-1662"/>
<text text-anchor="start" x="839" y="-1650" font-family="Helvetica,sans-Serif" font-size="10.00">com.fs.starfarer.api.impl.campaign.skills.</text>
<text text-anchor="middle" x="926.5" y="-1639" font-family="Helvetica,sans-Serif" font-size="10.00">BulkTransport.Level2</text>
</a>
</g>
</g>
<!-- Node7&#45;&gt;Node9 -->
<g id="edge8" class="edge">
<title>Node7&#45;&gt;Node9</title>
<path fill="none" stroke="#63b8ff" d="M806.56,-1647C814.6,-1647 822.67,-1647 830.61,-1647"/>
<polygon fill="#63b8ff" stroke="#63b8ff" points="806.74,-1643.5 796.74,-1647 806.74,-1650.5 806.74,-1643.5"/>
</g>
<!-- Node10 -->
<g id="node10" class="node">
<title>Node10</title>
<g id="a_node10"><a xlink:href="classcom_1_1fs_1_1starfarer_1_1api_1_1impl_1_1campaign_1_1skills_1_1BulkTransport_1_1Level3.html" target="_top" xlink:title=" ">
<polygon fill="white" stroke="#bfbfbf" points="1022,-1614 831,-1614 831,-1584 1022,-1584 1022,-1614"/>
<text text-anchor="start" x="839" y="-1602" font-family="Helvetica,sans-Serif" font-size="10.00">com.fs.starfarer.api.impl.campaign.skills.</text>
<text text-anchor="middle" x="926.5" y="-1591" font-family="Helvetica,sans-Serif" font-size="10.00">BulkTransport.Level3</text>
</a>
</g>
</g>
<!-- Node7&#45;&gt;Node10 -->
<g id="edge9" class="edge">
<title>Node7&#45;&gt;Node10</title>
<path fill="none" stroke="#63b8ff" d="M781.74,-1629.2C804.84,-1624.35 829.67,-1619.13 852.08,-1614.42"/>
<polygon fill="#63b8ff" stroke="#63b8ff" points="781.1,-1625.76 772.04,-1631.24 782.54,-1632.61 781.1,-1625.76"/>
</g>
</g>
</svg>
