<?xml version="1.0" encoding="UTF-8" standalone="no"?>
<!DOCTYPE svg PUBLIC "-//W3C//DTD SVG 1.1//EN"
 "http://www.w3.org/Graphics/SVG/1.1/DTD/svg11.dtd">
<!-- Generated by graphviz version 12.2.0 (20241103.1931)
 -->
<!-- Title: com.fs.starfarer.api.impl.campaign.rulecmd.missions.DeliveryMission Pages: 1 -->
<svg width="1147pt" height="545pt"
 viewBox="0.00 0.00 1146.50 544.50" xmlns="http://www.w3.org/2000/svg" xmlns:xlink="http://www.w3.org/1999/xlink">
<g id="graph0" class="graph" transform="scale(1 1) rotate(0) translate(4 540.5)">
<title>com.fs.starfarer.api.impl.campaign.rulecmd.missions.DeliveryMission</title>
<!-- Node1 -->
<g id="Node000001" class="node">
<title>Node1</title>
<g id="a_Node000001"><a xlink:title=" ">
<polygon fill="#999999" stroke="#666666" points="1138.5,-275.5 895.25,-275.5 895.25,-245 1138.5,-245 1138.5,-275.5"/>
<text text-anchor="start" x="903.25" y="-262" font-family="Helvetica,sans-Serif" font-size="10.00">com.fs.starfarer.api.impl.campaign.rulecmd.missions.</text>
<text text-anchor="middle" x="1016.88" y="-250.75" font-family="Helvetica,sans-Serif" font-size="10.00">DeliveryMission</text>
</a>
</g>
</g>
<!-- Node2 -->
<g id="Node000002" class="node">
<title>Node2</title>
<g id="a_Node000002"><a xlink:href="classcom_1_1fs_1_1starfarer_1_1api_1_1impl_1_1campaign_1_1rulecmd_1_1BaseCommandPlugin.html" target="_top" xlink:title=" ">
<polygon fill="white" stroke="#666666" points="791.75,-536.5 589.75,-536.5 589.75,-506 791.75,-506 791.75,-536.5"/>
<text text-anchor="start" x="597.75" y="-523" font-family="Helvetica,sans-Serif" font-size="10.00">com.fs.starfarer.api.impl.campaign.rulecmd.</text>
<text text-anchor="middle" x="690.75" y="-511.75" font-family="Helvetica,sans-Serif" font-size="10.00">BaseCommandPlugin</text>
</a>
</g>
</g>
<!-- Node2&#45;&gt;Node1 -->
<g id="edge1_Node000001_Node000002" class="edge">
<title>Node2&#45;&gt;Node1</title>
<g id="a_edge1_Node000001_Node000002"><a xlink:title=" ">
<path fill="none" stroke="#63b8ff" d="M802.71,-503.89C828.94,-496.07 855.56,-484.71 877.25,-468.25 947.76,-414.73 993.92,-314.42 1009.77,-275.88"/>
<polygon fill="#63b8ff" stroke="#63b8ff" points="802.03,-500.44 793.36,-506.52 803.93,-507.18 802.03,-500.44"/>
</a>
</g>
</g>
<!-- Node3 -->
<g id="Node000003" class="node">
<title>Node3</title>
<g id="a_Node000003"><a xlink:href="interfacecom_1_1fs_1_1starfarer_1_1api_1_1campaign_1_1rules_1_1CommandPlugin.html" target="_top" xlink:title=" ">
<polygon fill="white" stroke="#666666" points="373.5,-536.5 205.25,-536.5 205.25,-506 373.5,-506 373.5,-536.5"/>
<text text-anchor="start" x="213.25" y="-523" font-family="Helvetica,sans-Serif" font-size="10.00">com.fs.starfarer.api.campaign.rules.</text>
<text text-anchor="middle" x="289.38" y="-511.75" font-family="Helvetica,sans-Serif" font-size="10.00">CommandPlugin</text>
</a>
</g>
</g>
<!-- Node3&#45;&gt;Node2 -->
<g id="edge2_Node000002_Node000003" class="edge">
<title>Node3&#45;&gt;Node2</title>
<g id="a_edge2_Node000002_Node000003"><a xlink:title=" ">
<path fill="none" stroke="#63b8ff" d="M384.88,-521.25C446.41,-521.25 526.6,-521.25 589.29,-521.25"/>
<polygon fill="#63b8ff" stroke="#63b8ff" points="385.12,-517.75 375.12,-521.25 385.12,-524.75 385.12,-517.75"/>
</a>
</g>
</g>
<!-- Node4 -->
<g id="Node000004" class="node">
<title>Node4</title>
<g id="a_Node000004"><a xlink:href="interfacecom_1_1fs_1_1starfarer_1_1api_1_1campaign_1_1CampaignFleetAPI.html" target="_top" xlink:title=" ">
<polygon fill="white" stroke="#666666" points="763.25,-371.5 618.25,-371.5 618.25,-341 763.25,-341 763.25,-371.5"/>
<text text-anchor="start" x="626.25" y="-358" font-family="Helvetica,sans-Serif" font-size="10.00">com.fs.starfarer.api.campaign.</text>
<text text-anchor="middle" x="690.75" y="-346.75" font-family="Helvetica,sans-Serif" font-size="10.00">CampaignFleetAPI</text>
</a>
</g>
</g>
<!-- Node4&#45;&gt;Node1 -->
<g id="edge3_Node000001_Node000004" class="edge">
<title>Node4&#45;&gt;Node1</title>
<g id="a_edge3_Node000001_Node000004"><a xlink:title=" ">
<path fill="none" stroke="#9a32cd" stroke-dasharray="5,2" d="M774.97,-347.28C807.35,-342.51 844.48,-335.46 877.25,-325.25 917.47,-312.72 961.03,-290.79 988.37,-275.9"/>
<polygon fill="#9a32cd" stroke="#9a32cd" points="774.63,-343.79 765.22,-348.66 775.61,-350.72 774.63,-343.79"/>
</a>
</g>
<text text-anchor="middle" x="849.5" y="-340.82" font-family="Helvetica,sans-Serif" font-size="10.00" fill="grey"> playerFleet</text>
</g>
<!-- Node5 -->
<g id="Node000005" class="node">
<title>Node5</title>
<g id="a_Node000005"><a xlink:href="interfacecom_1_1fs_1_1starfarer_1_1api_1_1campaign_1_1SectorEntityToken.html" target="_top" xlink:title=" ">
<polygon fill="white" stroke="#666666" points="361.88,-421.5 216.88,-421.5 216.88,-391 361.88,-391 361.88,-421.5"/>
<text text-anchor="start" x="224.88" y="-408" font-family="Helvetica,sans-Serif" font-size="10.00">com.fs.starfarer.api.campaign.</text>
<text text-anchor="middle" x="289.38" y="-396.75" font-family="Helvetica,sans-Serif" font-size="10.00">SectorEntityToken</text>
</a>
</g>
</g>
<!-- Node5&#45;&gt;Node1 -->
<g id="edge7_Node000001_Node000005" class="edge">
<title>Node5&#45;&gt;Node1</title>
<g id="a_edge7_Node000001_Node000005"><a xlink:title=" ">
<path fill="none" stroke="#9a32cd" stroke-dasharray="5,2" d="M373.67,-409.43C475.99,-411.64 654.37,-410 803.75,-380.25 883.63,-364.34 963.32,-304.5 997.94,-275.8"/>
<polygon fill="#9a32cd" stroke="#9a32cd" points="373.78,-405.93 363.7,-409.19 373.61,-412.93 373.78,-405.93"/>
</a>
</g>
<text text-anchor="middle" x="690.75" y="-408.18" font-family="Helvetica,sans-Serif" font-size="10.00" fill="grey"> entity</text>
</g>
<!-- Node5&#45;&gt;Node4 -->
<g id="edge4_Node000004_Node000005" class="edge">
<title>Node5&#45;&gt;Node4</title>
<g id="a_edge4_Node000004_Node000005"><a xlink:title=" ">
<path fill="none" stroke="#63b8ff" d="M373.54,-395.84C445.71,-386.8 549.12,-373.86 617.79,-365.26"/>
<polygon fill="#63b8ff" stroke="#63b8ff" points="373.23,-392.35 363.74,-397.07 374.1,-399.3 373.23,-392.35"/>
</a>
</g>
</g>
<!-- Node6 -->
<g id="Node000006" class="node">
<title>Node6</title>
<g id="a_Node000006"><a xlink:href="interfacecom_1_1fs_1_1starfarer_1_1api_1_1campaign_1_1rules_1_1HasMemory.html" target="_top" xlink:title=" ">
<polygon fill="white" stroke="#666666" points="168.25,-421.5 0,-421.5 0,-391 168.25,-391 168.25,-421.5"/>
<text text-anchor="start" x="8" y="-408" font-family="Helvetica,sans-Serif" font-size="10.00">com.fs.starfarer.api.campaign.rules.</text>
<text text-anchor="middle" x="84.12" y="-396.75" font-family="Helvetica,sans-Serif" font-size="10.00">HasMemory</text>
</a>
</g>
</g>
<!-- Node6&#45;&gt;Node5 -->
<g id="edge5_Node000005_Node000006" class="edge">
<title>Node6&#45;&gt;Node5</title>
<g id="a_edge5_Node000005_Node000006"><a xlink:title=" ">
<path fill="none" stroke="#63b8ff" d="M179.92,-406.25C192.22,-406.25 204.66,-406.25 216.51,-406.25"/>
<polygon fill="#63b8ff" stroke="#63b8ff" points="180.19,-402.75 170.19,-406.25 180.19,-409.75 180.19,-402.75"/>
</a>
</g>
</g>
<!-- Node8 -->
<g id="Node000008" class="node">
<title>Node8</title>
<g id="a_Node000008"><a xlink:href="interfacecom_1_1fs_1_1starfarer_1_1api_1_1campaign_1_1FactionAPI.html" target="_top" xlink:title=" ">
<polygon fill="white" stroke="#666666" points="548.12,-467.5 403.12,-467.5 403.12,-437 548.12,-437 548.12,-467.5"/>
<text text-anchor="start" x="411.12" y="-454" font-family="Helvetica,sans-Serif" font-size="10.00">com.fs.starfarer.api.campaign.</text>
<text text-anchor="middle" x="475.62" y="-442.75" font-family="Helvetica,sans-Serif" font-size="10.00">FactionAPI</text>
</a>
</g>
</g>
<!-- Node6&#45;&gt;Node8 -->
<g id="edge9_Node000008_Node000006" class="edge">
<title>Node6&#45;&gt;Node8</title>
<g id="a_edge9_Node000008_Node000006"><a xlink:title=" ">
<path fill="none" stroke="#63b8ff" d="M167.62,-424.04C180.18,-426.37 193.03,-428.54 205.25,-430.25 271.81,-439.59 348.23,-445.36 402.63,-448.64"/>
<polygon fill="#63b8ff" stroke="#63b8ff" points="168.64,-420.67 158.16,-422.24 167.33,-427.54 168.64,-420.67"/>
</a>
</g>
</g>
<!-- Node13 -->
<g id="Node000013" class="node">
<title>Node13</title>
<g id="a_Node000013"><a xlink:href="interfacecom_1_1fs_1_1starfarer_1_1api_1_1campaign_1_1econ_1_1MarketAPI.html" target="_top" xlink:title=" ">
<polygon fill="white" stroke="#666666" points="559.75,-327.5 391.5,-327.5 391.5,-297 559.75,-297 559.75,-327.5"/>
<text text-anchor="start" x="399.5" y="-314" font-family="Helvetica,sans-Serif" font-size="10.00">com.fs.starfarer.api.campaign.econ.</text>
<text text-anchor="middle" x="475.62" y="-302.75" font-family="Helvetica,sans-Serif" font-size="10.00">MarketAPI</text>
</a>
</g>
</g>
<!-- Node6&#45;&gt;Node13 -->
<g id="edge15_Node000013_Node000006" class="edge">
<title>Node6&#45;&gt;Node13</title>
<g id="a_edge15_Node000013_Node000006"><a xlink:title=" ">
<path fill="none" stroke="#63b8ff" d="M112.97,-383.69C136.16,-366.3 170.84,-343.39 205.25,-332.25 265.37,-312.79 336.83,-308.27 391.04,-308.36"/>
<polygon fill="#63b8ff" stroke="#63b8ff" points="111.07,-380.74 105.27,-389.6 115.34,-386.29 111.07,-380.74"/>
</a>
</g>
</g>
<!-- Node7 -->
<g id="Node000007" class="node">
<title>Node7</title>
<g id="a_Node000007"><a xlink:href="interfacecom_1_1fs_1_1starfarer_1_1api_1_1campaign_1_1FleetOrStubAPI.html" target="_top" xlink:title=" ">
<polygon fill="white" stroke="#666666" points="361.88,-371.5 216.88,-371.5 216.88,-341 361.88,-341 361.88,-371.5"/>
<text text-anchor="start" x="224.88" y="-358" font-family="Helvetica,sans-Serif" font-size="10.00">com.fs.starfarer.api.campaign.</text>
<text text-anchor="middle" x="289.38" y="-346.75" font-family="Helvetica,sans-Serif" font-size="10.00">FleetOrStubAPI</text>
</a>
</g>
</g>
<!-- Node7&#45;&gt;Node4 -->
<g id="edge6_Node000004_Node000007" class="edge">
<title>Node7&#45;&gt;Node4</title>
<g id="a_edge6_Node000004_Node000007"><a xlink:title=" ">
<path fill="none" stroke="#63b8ff" d="M373.54,-356.25C445.71,-356.25 549.12,-356.25 617.79,-356.25"/>
<polygon fill="#63b8ff" stroke="#63b8ff" points="373.75,-352.75 363.75,-356.25 373.75,-359.75 373.75,-352.75"/>
</a>
</g>
</g>
<!-- Node8&#45;&gt;Node1 -->
<g id="edge8_Node000001_Node000008" class="edge">
<title>Node8&#45;&gt;Node1</title>
<g id="a_edge8_Node000001_Node000008"><a xlink:title=" ">
<path fill="none" stroke="#9a32cd" stroke-dasharray="5,2" d="M559.8,-453.18C660.6,-453.04 823.61,-448.4 877.25,-421.25 942.57,-388.18 989.94,-309.6 1007.92,-275.96"/>
<polygon fill="#9a32cd" stroke="#9a32cd" points="559.95,-449.68 549.95,-453.18 559.95,-456.68 559.95,-449.68"/>
</a>
</g>
<text text-anchor="middle" x="690.75" y="-477.34" font-family="Helvetica,sans-Serif" font-size="10.00" fill="grey"> entityFaction</text>
<text text-anchor="middle" x="690.75" y="-466.09" font-family="Helvetica,sans-Serif" font-size="10.00" fill="grey">faction</text>
<text text-anchor="middle" x="690.75" y="-454.84" font-family="Helvetica,sans-Serif" font-size="10.00" fill="grey">playerFaction</text>
</g>
<!-- Node9 -->
<g id="Node000009" class="node">
<title>Node9</title>
<g id="a_Node000009"><a xlink:href="interfacecom_1_1fs_1_1starfarer_1_1api_1_1campaign_1_1TextPanelAPI.html" target="_top" xlink:title=" ">
<polygon fill="white" stroke="#666666" points="763.25,-275.5 618.25,-275.5 618.25,-245 763.25,-245 763.25,-275.5"/>
<text text-anchor="start" x="626.25" y="-262" font-family="Helvetica,sans-Serif" font-size="10.00">com.fs.starfarer.api.campaign.</text>
<text text-anchor="middle" x="690.75" y="-250.75" font-family="Helvetica,sans-Serif" font-size="10.00">TextPanelAPI</text>
</a>
</g>
</g>
<!-- Node9&#45;&gt;Node1 -->
<g id="edge10_Node000001_Node000009" class="edge">
<title>Node9&#45;&gt;Node1</title>
<g id="a_edge10_Node000001_Node000009"><a xlink:title=" ">
<path fill="none" stroke="#9a32cd" stroke-dasharray="5,2" d="M774.77,-260.25C811.25,-260.25 854.8,-260.25 894.8,-260.25"/>
<polygon fill="#9a32cd" stroke="#9a32cd" points="775.2,-256.75 765.2,-260.25 775.2,-263.75 775.2,-256.75"/>
</a>
</g>
<text text-anchor="middle" x="849.5" y="-262" font-family="Helvetica,sans-Serif" font-size="10.00" fill="grey"> text</text>
</g>
<!-- Node10 -->
<g id="Node000010" class="node">
<title>Node10</title>
<g id="a_Node000010"><a xlink:href="interfacecom_1_1fs_1_1starfarer_1_1api_1_1campaign_1_1OptionPanelAPI.html" target="_top" xlink:title=" ">
<polygon fill="white" stroke="#666666" points="763.25,-226.5 618.25,-226.5 618.25,-196 763.25,-196 763.25,-226.5"/>
<text text-anchor="start" x="626.25" y="-213" font-family="Helvetica,sans-Serif" font-size="10.00">com.fs.starfarer.api.campaign.</text>
<text text-anchor="middle" x="690.75" y="-201.75" font-family="Helvetica,sans-Serif" font-size="10.00">OptionPanelAPI</text>
</a>
</g>
</g>
<!-- Node10&#45;&gt;Node1 -->
<g id="edge11_Node000001_Node000010" class="edge">
<title>Node10&#45;&gt;Node1</title>
<g id="a_edge11_Node000001_Node000010"><a xlink:title=" ">
<path fill="none" stroke="#9a32cd" stroke-dasharray="5,2" d="M774.91,-223.82C816.63,-230.13 867.57,-237.83 911.85,-244.52"/>
<polygon fill="#9a32cd" stroke="#9a32cd" points="775.59,-220.39 765.18,-222.35 774.54,-227.31 775.59,-220.39"/>
</a>
</g>
<text text-anchor="middle" x="849.5" y="-240.43" font-family="Helvetica,sans-Serif" font-size="10.00" fill="grey"> options</text>
</g>
<!-- Node11 -->
<g id="Node000011" class="node">
<title>Node11</title>
<g id="a_Node000011"><a xlink:href="interfacecom_1_1fs_1_1starfarer_1_1api_1_1campaign_1_1CargoAPI.html" target="_top" xlink:title=" ">
<polygon fill="white" stroke="#666666" points="763.25,-177.5 618.25,-177.5 618.25,-147 763.25,-147 763.25,-177.5"/>
<text text-anchor="start" x="626.25" y="-164" font-family="Helvetica,sans-Serif" font-size="10.00">com.fs.starfarer.api.campaign.</text>
<text text-anchor="middle" x="690.75" y="-152.75" font-family="Helvetica,sans-Serif" font-size="10.00">CargoAPI</text>
</a>
</g>
</g>
<!-- Node11&#45;&gt;Node1 -->
<g id="edge12_Node000001_Node000011" class="edge">
<title>Node11&#45;&gt;Node1</title>
<g id="a_edge12_Node000001_Node000011"><a xlink:title=" ">
<path fill="none" stroke="#9a32cd" stroke-dasharray="5,2" d="M774.78,-179.69C784.58,-182.07 794.42,-184.61 803.75,-187.25 864.09,-204.31 932.43,-228.78 974.85,-244.6"/>
<polygon fill="#9a32cd" stroke="#9a32cd" points="775.76,-176.33 765.22,-177.42 774.14,-183.14 775.76,-176.33"/>
</a>
</g>
<text text-anchor="middle" x="849.5" y="-210.88" font-family="Helvetica,sans-Serif" font-size="10.00" fill="grey"> playerCargo</text>
</g>
<!-- Node12 -->
<g id="Node000012" class="node">
<title>Node12</title>
<g id="a_Node000012"><a xlink:href="interfacecom_1_1fs_1_1starfarer_1_1api_1_1campaign_1_1rules_1_1MemoryAPI.html" target="_top" xlink:title=" ">
<polygon fill="white" stroke="#666666" points="774.88,-128.5 606.62,-128.5 606.62,-98 774.88,-98 774.88,-128.5"/>
<text text-anchor="start" x="614.62" y="-115" font-family="Helvetica,sans-Serif" font-size="10.00">com.fs.starfarer.api.campaign.rules.</text>
<text text-anchor="middle" x="690.75" y="-103.75" font-family="Helvetica,sans-Serif" font-size="10.00">MemoryAPI</text>
</a>
</g>
</g>
<!-- Node12&#45;&gt;Node1 -->
<g id="edge13_Node000001_Node000012" class="edge">
<title>Node12&#45;&gt;Node1</title>
<g id="a_edge13_Node000001_Node000012"><a xlink:title=" ">
<path fill="none" stroke="#9a32cd" stroke-dasharray="5,2" d="M785.42,-132.03C791.68,-133.94 797.84,-136.01 803.75,-138.25 878.02,-166.45 956.97,-218.55 994.14,-244.59"/>
<polygon fill="#9a32cd" stroke="#9a32cd" points="786.84,-128.8 776.26,-129.39 784.91,-135.52 786.84,-128.8"/>
</a>
</g>
<text text-anchor="middle" x="849.5" y="-173.77" font-family="Helvetica,sans-Serif" font-size="10.00" fill="grey"> memory</text>
</g>
<!-- Node13&#45;&gt;Node1 -->
<g id="edge14_Node000001_Node000013" class="edge">
<title>Node13&#45;&gt;Node1</title>
<g id="a_edge14_Node000001_Node000013"><a xlink:title=" ">
<path fill="none" stroke="#9a32cd" stroke-dasharray="5,2" d="M571.15,-304.85C636.51,-299.56 725.47,-292.03 803.75,-284.25 833.25,-281.32 865.03,-277.88 894.79,-274.53"/>
<polygon fill="#9a32cd" stroke="#9a32cd" points="571.24,-301.33 561.55,-305.62 571.8,-308.3 571.24,-301.33"/>
</a>
</g>
<text text-anchor="middle" x="690.75" y="-305.85" font-family="Helvetica,sans-Serif" font-size="10.00" fill="grey"> market</text>
</g>
<!-- Node14 -->
<g id="Node000014" class="node">
<title>Node14</title>
<g id="a_Node000014"><a xlink:href="interfacecom_1_1fs_1_1starfarer_1_1api_1_1campaign_1_1InteractionDialogAPI.html" target="_top" xlink:title=" ">
<polygon fill="white" stroke="#666666" points="763.25,-79.5 618.25,-79.5 618.25,-49 763.25,-49 763.25,-79.5"/>
<text text-anchor="start" x="626.25" y="-66" font-family="Helvetica,sans-Serif" font-size="10.00">com.fs.starfarer.api.campaign.</text>
<text text-anchor="middle" x="690.75" y="-54.75" font-family="Helvetica,sans-Serif" font-size="10.00">InteractionDialogAPI</text>
</a>
</g>
</g>
<!-- Node14&#45;&gt;Node1 -->
<g id="edge16_Node000001_Node000014" class="edge">
<title>Node14&#45;&gt;Node1</title>
<g id="a_edge16_Node000001_Node000014"><a xlink:title=" ">
<path fill="none" stroke="#9a32cd" stroke-dasharray="5,2" d="M774.87,-79.99C784.73,-82.68 794.55,-85.76 803.75,-89.25 892.64,-123 972.71,-209.17 1003.02,-244.64"/>
<polygon fill="#9a32cd" stroke="#9a32cd" points="775.77,-76.61 765.22,-77.49 774.02,-83.39 775.77,-76.61"/>
</a>
</g>
<text text-anchor="middle" x="849.5" y="-129.45" font-family="Helvetica,sans-Serif" font-size="10.00" fill="grey"> dialog</text>
</g>
<!-- Node15 -->
<g id="Node000015" class="node">
<title>Node15</title>
<g id="a_Node000015"><a xlink:title=" ">
<polygon fill="white" stroke="#666666" points="803.75,-30.5 577.75,-30.5 577.75,0 803.75,0 803.75,-30.5"/>
<text text-anchor="start" x="585.75" y="-17" font-family="Helvetica,sans-Serif" font-size="10.00">Map&lt; String, com.fs.starfarer.api.campaign.rules.</text>
<text text-anchor="middle" x="690.75" y="-5.75" font-family="Helvetica,sans-Serif" font-size="10.00">MemoryAPI &gt;</text>
</a>
</g>
</g>
<!-- Node15&#45;&gt;Node1 -->
<g id="edge17_Node000001_Node000015" class="edge">
<title>Node15&#45;&gt;Node1</title>
<g id="a_edge17_Node000001_Node000015"><a xlink:title=" ">
<path fill="none" stroke="#9a32cd" stroke-dasharray="5,2" d="M786.3,-34.15C792.26,-36.02 798.13,-38.05 803.75,-40.25 838.94,-54.03 848.76,-58.17 877.25,-83 935.41,-133.7 986.34,-211.67 1006.58,-244.65"/>
<polygon fill="#9a32cd" stroke="#9a32cd" points="787.51,-30.86 776.93,-31.38 785.53,-37.57 787.51,-30.86"/>
</a>
</g>
<text text-anchor="middle" x="849.5" y="-84.75" font-family="Helvetica,sans-Serif" font-size="10.00" fill="grey"> memoryMap</text>
</g>
</g>
</svg>
