<?xml version="1.0" encoding="UTF-8" standalone="no"?>
<!DOCTYPE svg PUBLIC "-//W3C//DTD SVG 1.1//EN"
 "http://www.w3.org/Graphics/SVG/1.1/DTD/svg11.dtd">
<!-- Generated by graphviz version 7.0.5 (20221223.1930)
 -->
<!-- Title: com.fs.starfarer.api.impl.campaign.fleets.RouteManager.RouteData Pages: 1 -->
<svg width="1059pt" height="277pt"
 viewBox="0.00 0.00 1059.00 277.00" xmlns="http://www.w3.org/2000/svg" xmlns:xlink="http://www.w3.org/1999/xlink">
<g id="graph0" class="graph" transform="scale(1 1) rotate(0) translate(4 273)">
<title>com.fs.starfarer.api.impl.campaign.fleets.RouteManager.RouteData</title>
<!-- Node1 -->
<g id="node1" class="node">
<title>Node1</title>
<g id="a_node1"><a xlink:title=" ">
<polygon fill="#999999" stroke="#666666" points="1051,-157 860,-157 860,-127 1051,-127 1051,-157"/>
<text text-anchor="start" x="868" y="-145" font-family="Helvetica,sans-Serif" font-size="10.00">com.fs.starfarer.api.impl.campaign.fleets.</text>
<text text-anchor="middle" x="955.5" y="-134" font-family="Helvetica,sans-Serif" font-size="10.00">RouteManager.RouteData</text>
</a>
</g>
</g>
<!-- Node2 -->
<g id="node2" class="node">
<title>Node2</title>
<g id="a_node2"><a xlink:href="classcom_1_1fs_1_1starfarer_1_1api_1_1impl_1_1campaign_1_1fleets_1_1RouteManager_1_1OptionalFleetData.html" target="_top" xlink:title=" ">
<polygon fill="white" stroke="#bfbfbf" points="760.5,-269 569.5,-269 569.5,-239 760.5,-239 760.5,-269"/>
<text text-anchor="start" x="577.5" y="-257" font-family="Helvetica,sans-Serif" font-size="10.00">com.fs.starfarer.api.impl.campaign.fleets.</text>
<text text-anchor="middle" x="665" y="-246" font-family="Helvetica,sans-Serif" font-size="10.00">RouteManager.OptionalFleetData</text>
</a>
</g>
</g>
<!-- Node2&#45;&gt;Node1 -->
<g id="edge1" class="edge">
<title>Node2&#45;&gt;Node1</title>
<path fill="none" stroke="#9a32cd" stroke-dasharray="5,2" d="M772.11,-244.02C795.71,-239.59 820.18,-233.21 842,-224 880.3,-207.84 917.92,-176.38 938.48,-157.47"/>
<polygon fill="#9a32cd" stroke="#9a32cd" points="771.72,-240.53 762.47,-245.71 772.93,-247.43 771.72,-240.53"/>
<text text-anchor="middle" x="816.5" y="-241" font-family="Helvetica,sans-Serif" font-size="10.00"> extra</text>
</g>
<!-- Node3 -->
<g id="node3" class="node">
<title>Node3</title>
<g id="a_node3"><a xlink:href="interfacecom_1_1fs_1_1starfarer_1_1api_1_1campaign_1_1econ_1_1MarketAPI.html" target="_top" xlink:title=" ">
<polygon fill="white" stroke="#bfbfbf" points="539,-226 370,-226 370,-196 539,-196 539,-226"/>
<text text-anchor="start" x="378" y="-214" font-family="Helvetica,sans-Serif" font-size="10.00">com.fs.starfarer.api.campaign.econ.</text>
<text text-anchor="middle" x="454.5" y="-203" font-family="Helvetica,sans-Serif" font-size="10.00">MarketAPI</text>
</a>
</g>
</g>
<!-- Node3&#45;&gt;Node1 -->
<g id="edge2" class="edge">
<title>Node3&#45;&gt;Node1</title>
<path fill="none" stroke="#9a32cd" stroke-dasharray="5,2" d="M550.59,-205.96C613.88,-201.78 698.73,-194.61 773,-183 814.33,-176.54 860.29,-166.12 895.62,-157.41"/>
<polygon fill="#9a32cd" stroke="#9a32cd" points="550.7,-202.44 540.94,-206.58 551.15,-209.43 550.7,-202.44"/>
<text text-anchor="middle" x="665" y="-208" font-family="Helvetica,sans-Serif" font-size="10.00"> market</text>
</g>
<!-- Node4 -->
<g id="node4" class="node">
<title>Node4</title>
<g id="a_node4"><a xlink:href="interfacecom_1_1fs_1_1starfarer_1_1api_1_1campaign_1_1rules_1_1HasMemory.html" target="_top" xlink:title=" ">
<polygon fill="white" stroke="#bfbfbf" points="169,-183 0,-183 0,-153 169,-153 169,-183"/>
<text text-anchor="start" x="8" y="-171" font-family="Helvetica,sans-Serif" font-size="10.00">com.fs.starfarer.api.campaign.rules.</text>
<text text-anchor="middle" x="84.5" y="-160" font-family="Helvetica,sans-Serif" font-size="10.00">HasMemory</text>
</a>
</g>
</g>
<!-- Node4&#45;&gt;Node3 -->
<g id="edge3" class="edge">
<title>Node4&#45;&gt;Node3</title>
<path fill="none" stroke="#63b8ff" d="M156.8,-185.9C172.9,-189.4 189.96,-192.7 206,-195 260.13,-202.77 321.46,-206.76 369.53,-208.82"/>
<polygon fill="#63b8ff" stroke="#63b8ff" points="157.84,-182.55 147.32,-183.79 156.32,-189.38 157.84,-182.55"/>
</g>
<!-- Node7 -->
<g id="node7" class="node">
<title>Node7</title>
<g id="a_node7"><a xlink:href="interfacecom_1_1fs_1_1starfarer_1_1api_1_1campaign_1_1SectorEntityToken.html" target="_top" xlink:title=" ">
<polygon fill="white" stroke="#666666" points="352,-138 206,-138 206,-108 352,-108 352,-138"/>
<text text-anchor="start" x="214" y="-126" font-family="Helvetica,sans-Serif" font-size="10.00">com.fs.starfarer.api.campaign.</text>
<text text-anchor="middle" x="279" y="-115" font-family="Helvetica,sans-Serif" font-size="10.00">SectorEntityToken</text>
</a>
</g>
</g>
<!-- Node4&#45;&gt;Node7 -->
<g id="edge7" class="edge">
<title>Node4&#45;&gt;Node7</title>
<path fill="none" stroke="#63b8ff" d="M162.87,-149.91C179.13,-146.11 196.15,-142.13 211.96,-138.44"/>
<polygon fill="#63b8ff" stroke="#63b8ff" points="162.16,-146.48 153.22,-152.17 163.76,-153.3 162.16,-146.48"/>
</g>
<!-- Node5 -->
<g id="node5" class="node">
<title>Node5</title>
<g id="a_node5"><a xlink:title=" ">
<polygon fill="white" stroke="#bfbfbf" points="773,-78 557,-78 557,-48 773,-48 773,-78"/>
<text text-anchor="start" x="565" y="-66" font-family="Helvetica,sans-Serif" font-size="10.00">List&lt; com.fs.starfarer.api.impl.campaign.fleets.</text>
<text text-anchor="middle" x="665" y="-55" font-family="Helvetica,sans-Serif" font-size="10.00">RouteManager.RouteSegment &gt;</text>
</a>
</g>
</g>
<!-- Node5&#45;&gt;Node1 -->
<g id="edge4" class="edge">
<title>Node5&#45;&gt;Node1</title>
<path fill="none" stroke="#9a32cd" stroke-dasharray="5,2" d="M749.6,-81.13C757.53,-83.03 765.43,-85.01 773,-87 818.85,-99.07 870.55,-114.96 907,-126.56"/>
<polygon fill="#9a32cd" stroke="#9a32cd" points="750.42,-77.72 739.88,-78.83 748.81,-84.54 750.42,-77.72"/>
<text text-anchor="middle" x="816.5" y="-108" font-family="Helvetica,sans-Serif" font-size="10.00"> segments</text>
</g>
<!-- Node6 -->
<g id="node6" class="node">
<title>Node6</title>
<g id="a_node6"><a xlink:href="interfacecom_1_1fs_1_1starfarer_1_1api_1_1campaign_1_1CampaignFleetAPI.html" target="_top" xlink:title=" ">
<polygon fill="white" stroke="#666666" points="738,-174 592,-174 592,-144 738,-144 738,-174"/>
<text text-anchor="start" x="600" y="-162" font-family="Helvetica,sans-Serif" font-size="10.00">com.fs.starfarer.api.campaign.</text>
<text text-anchor="middle" x="665" y="-151" font-family="Helvetica,sans-Serif" font-size="10.00">CampaignFleetAPI</text>
</a>
</g>
</g>
<!-- Node6&#45;&gt;Node1 -->
<g id="edge5" class="edge">
<title>Node6&#45;&gt;Node1</title>
<path fill="none" stroke="#9a32cd" stroke-dasharray="5,2" d="M749.86,-154.06C784.24,-152.03 824.21,-149.68 859.66,-147.59"/>
<polygon fill="#9a32cd" stroke="#9a32cd" points="749.72,-150.56 739.94,-154.64 750.13,-157.55 749.72,-150.56"/>
<text text-anchor="middle" x="816.5" y="-154" font-family="Helvetica,sans-Serif" font-size="10.00"> activeFleet</text>
</g>
<!-- Node7&#45;&gt;Node6 -->
<g id="edge6" class="edge">
<title>Node7&#45;&gt;Node6</title>
<path fill="none" stroke="#63b8ff" d="M363.42,-131.37C365.63,-131.58 367.83,-131.79 370,-132 445.64,-139.26 532.27,-147.16 591.79,-152.53"/>
<polygon fill="#63b8ff" stroke="#63b8ff" points="364,-127.91 353.71,-130.42 363.33,-134.87 364,-127.91"/>
</g>
<!-- Node9 -->
<g id="node9" class="node">
<title>Node9</title>
<g id="a_node9"><a xlink:href="classcom_1_1fs_1_1starfarer_1_1api_1_1impl_1_1campaign_1_1fleets_1_1RouteManager_1_1RouteSegment.html" target="_top" xlink:title=" ">
<polygon fill="white" stroke="#bfbfbf" points="760.5,-126 569.5,-126 569.5,-96 760.5,-96 760.5,-126"/>
<text text-anchor="start" x="577.5" y="-114" font-family="Helvetica,sans-Serif" font-size="10.00">com.fs.starfarer.api.impl.campaign.fleets.</text>
<text text-anchor="middle" x="665" y="-103" font-family="Helvetica,sans-Serif" font-size="10.00">RouteManager.RouteSegment</text>
</a>
</g>
</g>
<!-- Node7&#45;&gt;Node9 -->
<g id="edge10" class="edge">
<title>Node7&#45;&gt;Node9</title>
<path fill="none" stroke="#9a32cd" stroke-dasharray="5,2" d="M363.37,-110.53C365.6,-110.34 367.82,-110.16 370,-110 436.44,-105.23 511.54,-105.58 569.21,-107.07"/>
<polygon fill="#9a32cd" stroke="#9a32cd" points="363.22,-107.03 353.62,-111.5 363.92,-113.99 363.22,-107.03"/>
<text text-anchor="middle" x="454.5" y="-124" font-family="Helvetica,sans-Serif" font-size="10.00"> from</text>
<text text-anchor="middle" x="454.5" y="-113" font-family="Helvetica,sans-Serif" font-size="10.00">to</text>
</g>
<!-- Node8 -->
<g id="node8" class="node">
<title>Node8</title>
<g id="a_node8"><a xlink:href="interfacecom_1_1fs_1_1starfarer_1_1api_1_1campaign_1_1FleetOrStubAPI.html" target="_top" xlink:title=" ">
<polygon fill="white" stroke="#bfbfbf" points="352,-186 206,-186 206,-156 352,-156 352,-186"/>
<text text-anchor="start" x="214" y="-174" font-family="Helvetica,sans-Serif" font-size="10.00">com.fs.starfarer.api.campaign.</text>
<text text-anchor="middle" x="279" y="-163" font-family="Helvetica,sans-Serif" font-size="10.00">FleetOrStubAPI</text>
</a>
</g>
</g>
<!-- Node8&#45;&gt;Node6 -->
<g id="edge8" class="edge">
<title>Node8&#45;&gt;Node6</title>
<path fill="none" stroke="#63b8ff" d="M363.34,-168.4C431.48,-166.27 526.84,-163.29 591.77,-161.26"/>
<polygon fill="#63b8ff" stroke="#63b8ff" points="363.63,-164.88 353.74,-168.7 363.84,-171.88 363.63,-164.88"/>
</g>
<!-- Node9&#45;&gt;Node1 -->
<g id="edge9" class="edge">
<title>Node9&#45;&gt;Node1</title>
<path fill="none" stroke="#9a32cd" stroke-dasharray="5,2" d="M772.15,-122.41C800.79,-125.48 831.59,-128.79 859.58,-131.8"/>
<polygon fill="#9a32cd" stroke="#9a32cd" points="772.69,-118.94 762.37,-121.36 771.94,-125.9 772.69,-118.94"/>
<text text-anchor="middle" x="816.5" y="-132" font-family="Helvetica,sans-Serif" font-size="10.00"> current</text>
</g>
<!-- Node10 -->
<g id="node10" class="node">
<title>Node10</title>
<g id="a_node10"><a xlink:href="interfacecom_1_1fs_1_1starfarer_1_1api_1_1impl_1_1campaign_1_1fleets_1_1RouteManager_1_1RouteFleetSpawner.html" target="_top" xlink:title=" ">
<polygon fill="white" stroke="#bfbfbf" points="760.5,-30 569.5,-30 569.5,0 760.5,0 760.5,-30"/>
<text text-anchor="start" x="577.5" y="-18" font-family="Helvetica,sans-Serif" font-size="10.00">com.fs.starfarer.api.impl.campaign.fleets.</text>
<text text-anchor="middle" x="665" y="-7" font-family="Helvetica,sans-Serif" font-size="10.00">RouteManager.RouteFleetSpawner</text>
</a>
</g>
</g>
<!-- Node10&#45;&gt;Node1 -->
<g id="edge11" class="edge">
<title>Node10&#45;&gt;Node1</title>
<path fill="none" stroke="#9a32cd" stroke-dasharray="5,2" d="M757.65,-33.66C762.89,-35.31 768.04,-37.09 773,-39 834.03,-62.5 899.23,-104.07 932.38,-126.54"/>
<polygon fill="#9a32cd" stroke="#9a32cd" points="758.84,-30.36 748.26,-30.87 756.85,-37.07 758.84,-30.36"/>
<text text-anchor="middle" x="816.5" y="-74" font-family="Helvetica,sans-Serif" font-size="10.00"> spawner</text>
</g>
</g>
</svg>
