<?xml version="1.0" encoding="UTF-8" standalone="no"?>
<!DOCTYPE svg PUBLIC "-//W3C//DTD SVG 1.1//EN"
 "http://www.w3.org/Graphics/SVG/1.1/DTD/svg11.dtd">
<!-- Generated by graphviz version 12.2.0 (20241103.1931)
 -->
<!-- Title: com.fs.starfarer.api.impl.combat.CombatEntityPluginWithParticles Pages: 1 -->
<svg width="693pt" height="343pt"
 viewBox="0.00 0.00 692.75 342.88" xmlns="http://www.w3.org/2000/svg" xmlns:xlink="http://www.w3.org/1999/xlink">
<g id="graph0" class="graph" transform="scale(1 1) rotate(0) translate(4 338.88)">
<title>com.fs.starfarer.api.impl.combat.CombatEntityPluginWithParticles</title>
<!-- Node1 -->
<g id="Node000001" class="node">
<title>Node1</title>
<g id="a_Node000001"><a xlink:title=" ">
<polygon fill="#999999" stroke="#666666" points="684.75,-180.88 526.25,-180.88 526.25,-150.38 684.75,-150.38 684.75,-180.88"/>
<text text-anchor="start" x="534.25" y="-167.38" font-family="Helvetica,sans-Serif" font-size="10.00">com.fs.starfarer.api.impl.combat.</text>
<text text-anchor="middle" x="605.5" y="-156.12" font-family="Helvetica,sans-Serif" font-size="10.00">CombatEntityPluginWithParticles</text>
</a>
</g>
</g>
<!-- Node2 -->
<g id="Node000002" class="node">
<title>Node2</title>
<g id="a_Node000002"><a xlink:href="classcom_1_1fs_1_1starfarer_1_1api_1_1combat_1_1BaseCombatLayeredRenderingPlugin.html" target="_top" xlink:title=" ">
<polygon fill="white" stroke="#666666" points="412.62,-283.88 235.38,-283.88 235.38,-253.38 412.62,-253.38 412.62,-283.88"/>
<text text-anchor="start" x="243.38" y="-270.38" font-family="Helvetica,sans-Serif" font-size="10.00">com.fs.starfarer.api.combat.</text>
<text text-anchor="middle" x="324" y="-259.12" font-family="Helvetica,sans-Serif" font-size="10.00">BaseCombatLayeredRenderingPlugin</text>
</a>
</g>
</g>
<!-- Node2&#45;&gt;Node1 -->
<g id="edge1_Node000001_Node000002" class="edge">
<title>Node2&#45;&gt;Node1</title>
<g id="a_edge1_Node000001_Node000002"><a xlink:title=" ">
<path fill="none" stroke="#63b8ff" d="M424.02,-251.6C451.85,-245.16 481.74,-236.64 508.25,-225.62 536.07,-214.06 565.02,-194.89 583.81,-181.33"/>
<polygon fill="#63b8ff" stroke="#63b8ff" points="423.53,-248.12 414.54,-253.73 425.06,-254.96 423.53,-248.12"/>
</a>
</g>
</g>
<!-- Node3 -->
<g id="Node000003" class="node">
<title>Node3</title>
<g id="a_Node000003"><a xlink:href="interfacecom_1_1fs_1_1starfarer_1_1api_1_1combat_1_1CombatLayeredRenderingPlugin.html" target="_top" xlink:title=" ">
<polygon fill="white" stroke="#666666" points="154.75,-285.88 0,-285.88 0,-255.38 154.75,-255.38 154.75,-285.88"/>
<text text-anchor="start" x="8" y="-272.38" font-family="Helvetica,sans-Serif" font-size="10.00">com.fs.starfarer.api.combat.</text>
<text text-anchor="middle" x="77.38" y="-261.12" font-family="Helvetica,sans-Serif" font-size="10.00">CombatLayeredRenderingPlugin</text>
</a>
</g>
</g>
<!-- Node3&#45;&gt;Node2 -->
<g id="edge2_Node000002_Node000003" class="edge">
<title>Node3&#45;&gt;Node2</title>
<g id="a_edge2_Node000002_Node000003"><a xlink:title=" ">
<path fill="none" stroke="#63b8ff" d="M166.58,-269.9C188.85,-269.72 212.76,-269.53 235.02,-269.34"/>
<polygon fill="#63b8ff" stroke="#63b8ff" points="166.59,-266.4 156.62,-269.99 166.65,-273.4 166.59,-266.4"/>
</a>
</g>
</g>
<!-- Node4 -->
<g id="Node000004" class="node">
<title>Node4</title>
<g id="a_Node000004"><a xlink:href="enumcom_1_1fs_1_1starfarer_1_1api_1_1combat_1_1CombatEngineLayers.html" target="_top" xlink:title=" ">
<polygon fill="white" stroke="#666666" points="145,-231.88 9.75,-231.88 9.75,-201.38 145,-201.38 145,-231.88"/>
<text text-anchor="start" x="17.75" y="-218.38" font-family="Helvetica,sans-Serif" font-size="10.00">com.fs.starfarer.api.combat.</text>
<text text-anchor="middle" x="77.38" y="-207.12" font-family="Helvetica,sans-Serif" font-size="10.00">CombatEngineLayers</text>
</a>
</g>
</g>
<!-- Node4&#45;&gt;Node1 -->
<g id="edge7_Node000001_Node000004" class="edge">
<title>Node4&#45;&gt;Node1</title>
<g id="a_edge7_Node000001_Node000004"><a xlink:title=" ">
<path fill="none" stroke="#9a32cd" stroke-dasharray="5,2" d="M156.45,-217.35C243.02,-216.97 386.52,-212.85 508.25,-192.62 524.17,-189.98 541.23,-185.69 556.49,-181.31"/>
<polygon fill="#9a32cd" stroke="#9a32cd" points="156.65,-213.85 146.66,-217.37 156.67,-220.85 156.65,-213.85"/>
</a>
</g>
<text text-anchor="middle" x="324" y="-229.39" font-family="Helvetica,sans-Serif" font-size="10.00" fill="grey"> darkLayer</text>
<text text-anchor="middle" x="324" y="-218.14" font-family="Helvetica,sans-Serif" font-size="10.00" fill="grey">normalLayer</text>
</g>
<!-- Node4&#45;&gt;Node2 -->
<g id="edge3_Node000002_Node000004" class="edge">
<title>Node4&#45;&gt;Node2</title>
<g id="a_edge3_Node000002_Node000004"><a xlink:title=" ">
<path fill="none" stroke="#9a32cd" stroke-dasharray="5,2" d="M156.36,-233.2C186,-239.5 219.65,-246.66 248.92,-252.88"/>
<polygon fill="#9a32cd" stroke="#9a32cd" points="157.21,-229.8 146.7,-231.15 155.75,-236.65 157.21,-229.8"/>
</a>
</g>
<text text-anchor="middle" x="185.88" y="-242.82" font-family="Helvetica,sans-Serif" font-size="10.00" fill="grey"> layer</text>
</g>
<!-- Node5 -->
<g id="Node000005" class="node">
<title>Node5</title>
<g id="a_Node000005"><a xlink:href="interfacecom_1_1fs_1_1starfarer_1_1api_1_1combat_1_1CombatEntityAPI.html" target="_top" xlink:title=" ">
<polygon fill="white" stroke="#666666" points="145,-334.88 9.75,-334.88 9.75,-304.38 145,-304.38 145,-334.88"/>
<text text-anchor="start" x="17.75" y="-321.38" font-family="Helvetica,sans-Serif" font-size="10.00">com.fs.starfarer.api.combat.</text>
<text text-anchor="middle" x="77.38" y="-310.12" font-family="Helvetica,sans-Serif" font-size="10.00">CombatEntityAPI</text>
</a>
</g>
</g>
<!-- Node5&#45;&gt;Node2 -->
<g id="edge4_Node000002_Node000005" class="edge">
<title>Node5&#45;&gt;Node2</title>
<g id="a_edge4_Node000002_Node000005"><a xlink:title=" ">
<path fill="none" stroke="#9a32cd" stroke-dasharray="5,2" d="M156.21,-303.4C185.45,-297.3 218.6,-290.39 247.61,-284.34"/>
<polygon fill="#9a32cd" stroke="#9a32cd" points="155.78,-299.91 146.7,-305.38 157.21,-306.77 155.78,-299.91"/>
</a>
</g>
<text text-anchor="middle" x="185.88" y="-300.44" font-family="Helvetica,sans-Serif" font-size="10.00" fill="grey"> entity</text>
</g>
<!-- Node6 -->
<g id="Node000006" class="node">
<title>Node6</title>
<g id="a_Node000006"><a xlink:title=" ">
<polygon fill="white" stroke="#666666" points="375.12,-175.25 272.88,-175.25 272.88,-156 375.12,-156 375.12,-175.25"/>
<text text-anchor="middle" x="324" y="-161.75" font-family="Helvetica,sans-Serif" font-size="10.00">List&lt; ParticleData &gt;</text>
</a>
</g>
</g>
<!-- Node6&#45;&gt;Node1 -->
<g id="edge5_Node000001_Node000006" class="edge">
<title>Node6&#45;&gt;Node1</title>
<g id="a_edge5_Node000001_Node000006"><a xlink:title=" ">
<path fill="none" stroke="#9a32cd" stroke-dasharray="5,2" d="M387.07,-165.62C428.04,-165.62 482.07,-165.62 526.01,-165.62"/>
<polygon fill="#9a32cd" stroke="#9a32cd" points="387.13,-162.13 377.13,-165.63 387.13,-169.13 387.13,-162.13"/>
</a>
</g>
<text text-anchor="middle" x="478.62" y="-178.62" font-family="Helvetica,sans-Serif" font-size="10.00" fill="grey"> darkParticles</text>
<text text-anchor="middle" x="478.62" y="-167.38" font-family="Helvetica,sans-Serif" font-size="10.00" fill="grey">particles</text>
</g>
<!-- Node7 -->
<g id="Node000007" class="node">
<title>Node7</title>
<g id="a_Node000007"><a xlink:title=" ">
<polygon fill="white" stroke="#666666" points="415.62,-137.88 232.38,-137.88 232.38,-107.38 415.62,-107.38 415.62,-137.88"/>
<text text-anchor="start" x="240.38" y="-124.38" font-family="Helvetica,sans-Serif" font-size="10.00">EnumSet&lt; com.fs.starfarer.api.combat.</text>
<text text-anchor="middle" x="324" y="-113.12" font-family="Helvetica,sans-Serif" font-size="10.00">CombatEngineLayers &gt;</text>
</a>
</g>
</g>
<!-- Node7&#45;&gt;Node1 -->
<g id="edge6_Node000001_Node000007" class="edge">
<title>Node7&#45;&gt;Node1</title>
<g id="a_edge6_Node000001_Node000007"><a xlink:title=" ">
<path fill="none" stroke="#9a32cd" stroke-dasharray="5,2" d="M427.09,-137.96C453.53,-141.96 481.96,-146.3 508.25,-150.38 514.02,-151.27 519.98,-152.2 525.98,-153.14"/>
<polygon fill="#9a32cd" stroke="#9a32cd" points="427.8,-134.53 417.39,-136.49 426.76,-141.45 427.8,-134.53"/>
</a>
</g>
<text text-anchor="middle" x="478.62" y="-152.12" font-family="Helvetica,sans-Serif" font-size="10.00" fill="grey"> layers</text>
</g>
<!-- Node8 -->
<g id="Node000008" class="node">
<title>Node8</title>
<g id="a_Node000008"><a xlink:title=" ">
<polygon fill="white" stroke="#666666" points="431,-88.88 217,-88.88 217,-58.38 431,-58.38 431,-88.88"/>
<text text-anchor="start" x="225" y="-75.38" font-family="Helvetica,sans-Serif" font-size="10.00">com.fs.starfarer.api.impl.combat.</text>
<text text-anchor="middle" x="324" y="-64.12" font-family="Helvetica,sans-Serif" font-size="10.00">CombatEntityPluginWithParticles.ParticleData</text>
</a>
</g>
</g>
<!-- Node8&#45;&gt;Node1 -->
<g id="edge8_Node000001_Node000008" class="edge">
<title>Node8&#45;&gt;Node1</title>
<g id="a_edge8_Node000001_Node000008"><a xlink:title=" ">
<path fill="none" stroke="#9a32cd" stroke-dasharray="5,2" d="M407.45,-92.1C415.44,-94.18 423.4,-96.37 431,-98.62 465.98,-109 474.19,-113.32 508.25,-126.38 527.8,-133.87 549.39,-142.63 567.16,-149.97"/>
<polygon fill="#9a32cd" stroke="#9a32cd" points="408.59,-88.78 398.03,-89.71 406.86,-95.57 408.59,-88.78"/>
</a>
</g>
<text text-anchor="middle" x="478.62" y="-128.12" font-family="Helvetica,sans-Serif" font-size="10.00" fill="grey"> prev</text>
</g>
<!-- Node9 -->
<g id="Node000009" class="node">
<title>Node9</title>
<g id="a_Node000009"><a xlink:href="interfacecom_1_1fs_1_1starfarer_1_1api_1_1graphics_1_1SpriteAPI.html" target="_top" xlink:title=" ">
<polygon fill="white" stroke="#666666" points="147.25,-155.88 7.5,-155.88 7.5,-125.38 147.25,-125.38 147.25,-155.88"/>
<text text-anchor="start" x="15.5" y="-142.38" font-family="Helvetica,sans-Serif" font-size="10.00">com.fs.starfarer.api.graphics.</text>
<text text-anchor="middle" x="77.38" y="-131.12" font-family="Helvetica,sans-Serif" font-size="10.00">SpriteAPI</text>
</a>
</g>
</g>
<!-- Node9&#45;&gt;Node8 -->
<g id="edge9_Node000008_Node000009" class="edge">
<title>Node9&#45;&gt;Node8</title>
<g id="a_edge9_Node000008_Node000009"><a xlink:title=" ">
<path fill="none" stroke="#9a32cd" stroke-dasharray="5,2" d="M158.74,-127.11C172.53,-123.35 186.44,-118.61 199,-112.62 208.15,-108.27 207.86,-103 217,-98.62 224.42,-95.07 232.38,-92.01 240.48,-89.37"/>
<polygon fill="#9a32cd" stroke="#9a32cd" points="158.04,-123.68 149.21,-129.54 159.76,-130.46 158.04,-123.68"/>
</a>
</g>
<text text-anchor="middle" x="185.88" y="-124.31" font-family="Helvetica,sans-Serif" font-size="10.00" fill="grey"> sprite</text>
</g>
<!-- Node10 -->
<g id="Node000010" class="node">
<title>Node10</title>
<g id="a_Node000010"><a xlink:title=" ">
<polygon fill="white" stroke="#666666" points="103.75,-105.25 51,-105.25 51,-86 103.75,-86 103.75,-105.25"/>
<text text-anchor="middle" x="77.38" y="-91.75" font-family="Helvetica,sans-Serif" font-size="10.00">Vector2f</text>
</a>
</g>
</g>
<!-- Node10&#45;&gt;Node8 -->
<g id="edge10_Node000008_Node000010" class="edge">
<title>Node10&#45;&gt;Node8</title>
<g id="a_edge10_Node000008_Node000010"><a xlink:title=" ">
<path fill="none" stroke="#9a32cd" stroke-dasharray="5,2" d="M115.32,-92.3C142.34,-89.87 180.45,-86.45 216.66,-83.19"/>
<polygon fill="#9a32cd" stroke="#9a32cd" points="115.25,-88.79 105.6,-93.18 115.87,-95.77 115.25,-88.79"/>
</a>
</g>
<text text-anchor="middle" x="185.88" y="-99.6" font-family="Helvetica,sans-Serif" font-size="10.00" fill="grey"> offset</text>
<text text-anchor="middle" x="185.88" y="-88.35" font-family="Helvetica,sans-Serif" font-size="10.00" fill="grey">vel</text>
</g>
<!-- Node11 -->
<g id="Node000011" class="node">
<title>Node11</title>
<g id="a_Node000011"><a xlink:href="classcom_1_1fs_1_1starfarer_1_1api_1_1util_1_1FaderUtil.html" target="_top" xlink:title=" ">
<polygon fill="white" stroke="#666666" points="135.25,-67.88 19.5,-67.88 19.5,-37.38 135.25,-37.38 135.25,-67.88"/>
<text text-anchor="start" x="27.5" y="-54.38" font-family="Helvetica,sans-Serif" font-size="10.00">com.fs.starfarer.api.util.</text>
<text text-anchor="middle" x="77.38" y="-43.12" font-family="Helvetica,sans-Serif" font-size="10.00">FaderUtil</text>
</a>
</g>
</g>
<!-- Node11&#45;&gt;Node8 -->
<g id="edge11_Node000008_Node000011" class="edge">
<title>Node11&#45;&gt;Node8</title>
<g id="a_edge11_Node000008_Node000011"><a xlink:title=" ">
<path fill="none" stroke="#9a32cd" stroke-dasharray="5,2" d="M146.52,-57.26C163.66,-58.51 182.01,-59.92 199,-61.38 204.82,-61.87 210.79,-62.4 216.82,-62.95"/>
<polygon fill="#9a32cd" stroke="#9a32cd" points="147.2,-53.8 136.97,-56.57 146.7,-60.78 147.2,-53.8"/>
</a>
</g>
<text text-anchor="middle" x="185.88" y="-63.12" font-family="Helvetica,sans-Serif" font-size="10.00" fill="grey"> fader</text>
</g>
<!-- Node12 -->
<g id="Node000012" class="node">
<title>Node12</title>
<g id="a_Node000012"><a xlink:title=" ">
<polygon fill="white" stroke="#666666" points="96.62,-19.25 58.12,-19.25 58.12,0 96.62,0 96.62,-19.25"/>
<text text-anchor="middle" x="77.38" y="-5.75" font-family="Helvetica,sans-Serif" font-size="10.00">Color</text>
</a>
</g>
</g>
<!-- Node12&#45;&gt;Node8 -->
<g id="edge12_Node000008_Node000012" class="edge">
<title>Node12&#45;&gt;Node8</title>
<g id="a_edge12_Node000008_Node000012"><a xlink:title=" ">
<path fill="none" stroke="#9a32cd" stroke-dasharray="5,2" d="M108,-16.87C122.16,-20.36 139.35,-24.65 154.75,-28.62 191.64,-38.15 232.97,-49.2 265.44,-57.96"/>
<polygon fill="#9a32cd" stroke="#9a32cd" points="108.93,-13.49 98.39,-14.5 107.26,-20.29 108.93,-13.49"/>
</a>
</g>
<text text-anchor="middle" x="185.88" y="-41.25" font-family="Helvetica,sans-Serif" font-size="10.00" fill="grey"> color</text>
</g>
</g>
</svg>
