<?xml version="1.0" encoding="UTF-8" standalone="no"?>
<!DOCTYPE svg PUBLIC "-//W3C//DTD SVG 1.1//EN"
 "http://www.w3.org/Graphics/SVG/1.1/DTD/svg11.dtd">
<!-- Generated by graphviz version 7.0.5 (20221223.1930)
 -->
<!-- Title: com.fs.starfarer.api.impl.campaign.missions.hub.MissionFleetInterceptPlayerIfNearby Pages: 1 -->
<svg width="1571pt" height="1192pt"
 viewBox="0.00 0.00 1571.00 1191.50" xmlns="http://www.w3.org/2000/svg" xmlns:xlink="http://www.w3.org/1999/xlink">
<g id="graph0" class="graph" transform="scale(1 1) rotate(0) translate(4 1187.5)">
<title>com.fs.starfarer.api.impl.campaign.missions.hub.MissionFleetInterceptPlayerIfNearby</title>
<!-- Node1 -->
<g id="node1" class="node">
<title>Node1</title>
<g id="a_node1"><a xlink:title=" ">
<polygon fill="#999999" stroke="#666666" points="1563,-562.5 1338,-562.5 1338,-532.5 1563,-532.5 1563,-562.5"/>
<text text-anchor="start" x="1346" y="-550.5" font-family="Helvetica,sans-Serif" font-size="10.00">com.fs.starfarer.api.impl.campaign.missions.hub.</text>
<text text-anchor="middle" x="1450.5" y="-539.5" font-family="Helvetica,sans-Serif" font-size="10.00">MissionFleetInterceptPlayerIfNearby</text>
</a>
</g>
</g>
<!-- Node2 -->
<g id="node2" class="node">
<title>Node2</title>
<g id="a_node2"><a xlink:href="interfacecom_1_1fs_1_1starfarer_1_1api_1_1EveryFrameScript.html" target="_top" xlink:title=" ">
<polygon fill="white" stroke="#666666" points="387.5,-1067.5 262.5,-1067.5 262.5,-1037.5 387.5,-1037.5 387.5,-1067.5"/>
<text text-anchor="start" x="270.5" y="-1055.5" font-family="Helvetica,sans-Serif" font-size="10.00">com.fs.starfarer.api.Every</text>
<text text-anchor="middle" x="325" y="-1044.5" font-family="Helvetica,sans-Serif" font-size="10.00">FrameScript</text>
</a>
</g>
</g>
<!-- Node2&#45;&gt;Node1 -->
<g id="edge1" class="edge">
<title>Node2&#45;&gt;Node1</title>
<path fill="none" stroke="#63b8ff" d="M399.31,-1059.83C555.83,-1074.14 916.95,-1099.58 1022,-1041.5 1244.34,-918.57 1404.89,-632.55 1441.55,-562.96"/>
<polygon fill="#63b8ff" stroke="#63b8ff" points="399.74,-1056.36 389.46,-1058.92 399.1,-1063.33 399.74,-1056.36"/>
</g>
<!-- Node8 -->
<g id="node8" class="node">
<title>Node8</title>
<g id="a_node8"><a xlink:href="classcom_1_1fs_1_1starfarer_1_1api_1_1impl_1_1campaign_1_1intel_1_1BaseIntelPlugin.html" target="_top" xlink:title=" ">
<polygon fill="white" stroke="#666666" points="847,-906.5 661,-906.5 661,-876.5 847,-876.5 847,-906.5"/>
<text text-anchor="start" x="669" y="-894.5" font-family="Helvetica,sans-Serif" font-size="10.00">com.fs.starfarer.api.impl.campaign.intel.</text>
<text text-anchor="middle" x="754" y="-883.5" font-family="Helvetica,sans-Serif" font-size="10.00">BaseIntelPlugin</text>
</a>
</g>
</g>
<!-- Node2&#45;&gt;Node8 -->
<g id="edge10" class="edge">
<title>Node2&#45;&gt;Node8</title>
<path fill="none" stroke="#63b8ff" d="M363.71,-1031.8C390.68,-1017.39 428.07,-998.19 462,-983.5 526.64,-955.51 549.33,-963.54 611,-929.5 619.87,-924.6 619.77,-919.69 629,-915.5 638.98,-910.97 649.8,-907.29 660.74,-904.31"/>
<polygon fill="#63b8ff" stroke="#63b8ff" points="362.39,-1028.54 355.25,-1036.36 365.71,-1034.7 362.39,-1028.54"/>
</g>
<!-- Node3 -->
<g id="node3" class="node">
<title>Node3</title>
<g id="a_node3"><a xlink:href="interfacecom_1_1fs_1_1starfarer_1_1api_1_1campaign_1_1CampaignFleetAPI.html" target="_top" xlink:title=" ">
<polygon fill="white" stroke="#666666" points="827,-1138.5 681,-1138.5 681,-1108.5 827,-1108.5 827,-1138.5"/>
<text text-anchor="start" x="689" y="-1126.5" font-family="Helvetica,sans-Serif" font-size="10.00">com.fs.starfarer.api.campaign.</text>
<text text-anchor="middle" x="754" y="-1115.5" font-family="Helvetica,sans-Serif" font-size="10.00">CampaignFleetAPI</text>
</a>
</g>
</g>
<!-- Node3&#45;&gt;Node1 -->
<g id="edge2" class="edge">
<title>Node3&#45;&gt;Node1</title>
<path fill="none" stroke="#9a32cd" stroke-dasharray="5,2" d="M818.57,-1141.81C933.3,-1170.62 1176.36,-1211.71 1320,-1091.5 1404.97,-1020.39 1441.37,-643.63 1448.26,-562.78"/>
<polygon fill="#9a32cd" stroke="#9a32cd" points="819.57,-1138.45 809.01,-1139.35 817.83,-1145.23 819.57,-1138.45"/>
<text text-anchor="middle" x="1152.5" y="-1175.5" font-family="Helvetica,sans-Serif" font-size="10.00"> fleet</text>
</g>
<!-- Node4 -->
<g id="node4" class="node">
<title>Node4</title>
<g id="a_node4"><a xlink:href="interfacecom_1_1fs_1_1starfarer_1_1api_1_1campaign_1_1SectorEntityToken.html" target="_top" xlink:title=" ">
<polygon fill="white" stroke="#666666" points="398,-1115.5 252,-1115.5 252,-1085.5 398,-1085.5 398,-1115.5"/>
<text text-anchor="start" x="260" y="-1103.5" font-family="Helvetica,sans-Serif" font-size="10.00">com.fs.starfarer.api.campaign.</text>
<text text-anchor="middle" x="325" y="-1092.5" font-family="Helvetica,sans-Serif" font-size="10.00">SectorEntityToken</text>
</a>
</g>
</g>
<!-- Node4&#45;&gt;Node3 -->
<g id="edge3" class="edge">
<title>Node4&#45;&gt;Node3</title>
<path fill="none" stroke="#63b8ff" d="M409.79,-1105.01C488.68,-1109.26 605.62,-1115.56 680.57,-1119.6"/>
<polygon fill="#63b8ff" stroke="#63b8ff" points="410.12,-1101.53 399.95,-1104.48 409.74,-1108.52 410.12,-1101.53"/>
</g>
<!-- Node4&#45;&gt;Node8 -->
<g id="edge12" class="edge">
<title>Node4&#45;&gt;Node8</title>
<path fill="none" stroke="#9a32cd" stroke-dasharray="5,2" d="M409.24,-1095.9C422.12,-1091.91 434.34,-1085.77 444,-1076.5 468.11,-1053.36 438.09,-1026.85 462,-1003.5 510.53,-956.11 560.74,-1016.05 611,-970.5 630.06,-953.23 609.71,-932.51 629,-915.5 638.13,-907.45 649.12,-901.76 660.75,-897.79"/>
<polygon fill="#9a32cd" stroke="#9a32cd" points="408.55,-1092.46 399.76,-1098.38 410.32,-1099.23 408.55,-1092.46"/>
<text text-anchor="middle" x="536.5" y="-1006.5" font-family="Helvetica,sans-Serif" font-size="10.00"> postingLocation</text>
</g>
<!-- Node5 -->
<g id="node5" class="node">
<title>Node5</title>
<g id="a_node5"><a xlink:href="interfacecom_1_1fs_1_1starfarer_1_1api_1_1campaign_1_1rules_1_1HasMemory.html" target="_top" xlink:title=" ">
<polygon fill="white" stroke="#666666" points="169,-1036.5 0,-1036.5 0,-1006.5 169,-1006.5 169,-1036.5"/>
<text text-anchor="start" x="8" y="-1024.5" font-family="Helvetica,sans-Serif" font-size="10.00">com.fs.starfarer.api.campaign.rules.</text>
<text text-anchor="middle" x="84.5" y="-1013.5" font-family="Helvetica,sans-Serif" font-size="10.00">HasMemory</text>
</a>
</g>
</g>
<!-- Node5&#45;&gt;Node4 -->
<g id="edge4" class="edge">
<title>Node5&#45;&gt;Node4</title>
<path fill="none" stroke="#63b8ff" d="M124.57,-1042.08C147.72,-1053.57 177.93,-1067.37 206,-1076.5 220.51,-1081.22 236.34,-1085.2 251.56,-1088.48"/>
<polygon fill="#63b8ff" stroke="#63b8ff" points="126.32,-1039.04 115.81,-1037.67 123.17,-1045.29 126.32,-1039.04"/>
</g>
<!-- Node27 -->
<g id="node27" class="node">
<title>Node27</title>
<g id="a_node27"><a xlink:href="interfacecom_1_1fs_1_1starfarer_1_1api_1_1characters_1_1PersonAPI.html" target="_top" xlink:title=" ">
<polygon fill="white" stroke="#666666" points="611,-1052.5 462,-1052.5 462,-1022.5 611,-1022.5 611,-1052.5"/>
<text text-anchor="start" x="470" y="-1040.5" font-family="Helvetica,sans-Serif" font-size="10.00">com.fs.starfarer.api.characters.</text>
<text text-anchor="middle" x="536.5" y="-1029.5" font-family="Helvetica,sans-Serif" font-size="10.00">PersonAPI</text>
</a>
</g>
</g>
<!-- Node5&#45;&gt;Node27 -->
<g id="edge29" class="edge">
<title>Node5&#45;&gt;Node27</title>
<path fill="none" stroke="#63b8ff" d="M180.58,-1021.33C252.88,-1021.69 354.78,-1023.25 444,-1028.5 449.74,-1028.84 455.67,-1029.26 461.63,-1029.73"/>
<polygon fill="#63b8ff" stroke="#63b8ff" points="180.77,-1017.83 170.75,-1021.28 180.74,-1024.83 180.77,-1017.83"/>
</g>
<!-- Node6 -->
<g id="node6" class="node">
<title>Node6</title>
<g id="a_node6"><a xlink:href="interfacecom_1_1fs_1_1starfarer_1_1api_1_1campaign_1_1FleetOrStubAPI.html" target="_top" xlink:title=" ">
<polygon fill="white" stroke="#666666" points="398,-1163.5 252,-1163.5 252,-1133.5 398,-1133.5 398,-1163.5"/>
<text text-anchor="start" x="260" y="-1151.5" font-family="Helvetica,sans-Serif" font-size="10.00">com.fs.starfarer.api.campaign.</text>
<text text-anchor="middle" x="325" y="-1140.5" font-family="Helvetica,sans-Serif" font-size="10.00">FleetOrStubAPI</text>
</a>
</g>
</g>
<!-- Node6&#45;&gt;Node3 -->
<g id="edge5" class="edge">
<title>Node6&#45;&gt;Node3</title>
<path fill="none" stroke="#63b8ff" d="M409.79,-1143.59C488.68,-1138.98 605.62,-1132.13 680.57,-1127.74"/>
<polygon fill="#63b8ff" stroke="#63b8ff" points="409.72,-1140.09 399.95,-1144.17 410.13,-1147.08 409.72,-1140.09"/>
</g>
<!-- Node7 -->
<g id="node7" class="node">
<title>Node7</title>
<g id="a_node7"><a xlink:href="classcom_1_1fs_1_1starfarer_1_1api_1_1impl_1_1campaign_1_1missions_1_1hub_1_1BaseHubMission.html" target="_top" xlink:title=" ">
<polygon fill="white" stroke="#666666" points="1265,-562.5 1040,-562.5 1040,-532.5 1265,-532.5 1265,-562.5"/>
<text text-anchor="start" x="1048" y="-550.5" font-family="Helvetica,sans-Serif" font-size="10.00">com.fs.starfarer.api.impl.campaign.missions.hub.</text>
<text text-anchor="middle" x="1152.5" y="-539.5" font-family="Helvetica,sans-Serif" font-size="10.00">BaseHubMission</text>
</a>
</g>
</g>
<!-- Node7&#45;&gt;Node1 -->
<g id="edge6" class="edge">
<title>Node7&#45;&gt;Node1</title>
<path fill="none" stroke="#9a32cd" stroke-dasharray="5,2" d="M1276.9,-547.5C1297.14,-547.5 1318,-547.5 1337.93,-547.5"/>
<polygon fill="#9a32cd" stroke="#9a32cd" points="1276.92,-544 1266.92,-547.5 1276.92,-551 1276.92,-544"/>
<text text-anchor="middle" x="1301.5" y="-550.5" font-family="Helvetica,sans-Serif" font-size="10.00"> mission</text>
</g>
<!-- Node8&#45;&gt;Node7 -->
<g id="edge7" class="edge">
<title>Node8&#45;&gt;Node7</title>
<path fill="none" stroke="#63b8ff" d="M858.73,-900.31C912.44,-899.53 976.17,-889.68 1022,-854.5 1120.66,-778.77 1144.94,-613.7 1150.19,-562.77"/>
<polygon fill="#63b8ff" stroke="#63b8ff" points="858.94,-896.8 848.95,-900.33 858.96,-903.8 858.94,-896.8"/>
</g>
<!-- Node9 -->
<g id="node9" class="node">
<title>Node9</title>
<g id="a_node9"><a xlink:href="interfacecom_1_1fs_1_1starfarer_1_1api_1_1campaign_1_1comm_1_1IntelInfoPlugin.html" target="_top" xlink:title=" ">
<polygon fill="white" stroke="#666666" points="412.5,-906.5 237.5,-906.5 237.5,-876.5 412.5,-876.5 412.5,-906.5"/>
<text text-anchor="start" x="245.5" y="-894.5" font-family="Helvetica,sans-Serif" font-size="10.00">com.fs.starfarer.api.campaign.comm.</text>
<text text-anchor="middle" x="325" y="-883.5" font-family="Helvetica,sans-Serif" font-size="10.00">IntelInfoPlugin</text>
</a>
</g>
</g>
<!-- Node9&#45;&gt;Node8 -->
<g id="edge8" class="edge">
<title>Node9&#45;&gt;Node8</title>
<path fill="none" stroke="#63b8ff" d="M424.13,-891.5C495.28,-891.5 590.87,-891.5 660.66,-891.5"/>
<polygon fill="#63b8ff" stroke="#63b8ff" points="424.44,-888 414.44,-891.5 424.44,-895 424.44,-888"/>
</g>
<!-- Node10 -->
<g id="node10" class="node">
<title>Node10</title>
<g id="a_node10"><a xlink:title=" ">
<polygon fill="white" stroke="#666666" points="426.5,-858.5 223.5,-858.5 223.5,-828.5 426.5,-828.5 426.5,-858.5"/>
<text text-anchor="start" x="231.5" y="-846.5" font-family="Helvetica,sans-Serif" font-size="10.00">com.fs.starfarer.api.impl.campaign.rulecmd.</text>
<text text-anchor="middle" x="325" y="-835.5" font-family="Helvetica,sans-Serif" font-size="10.00">CallEvent.CallableEvent</text>
</a>
</g>
</g>
<!-- Node10&#45;&gt;Node8 -->
<g id="edge9" class="edge">
<title>Node10&#45;&gt;Node8</title>
<path fill="none" stroke="#63b8ff" d="M438.32,-856.13C507.67,-863.92 595.54,-873.8 660.79,-881.13"/>
<polygon fill="#63b8ff" stroke="#63b8ff" points="438.76,-852.65 428.43,-855.01 437.97,-859.61 438.76,-852.65"/>
</g>
<!-- Node11 -->
<g id="node11" class="node">
<title>Node11</title>
<g id="a_node11"><a xlink:title=" ">
<polygon fill="white" stroke="#666666" points="444,-954.5 206,-954.5 206,-924.5 444,-924.5 444,-954.5"/>
<text text-anchor="start" x="214" y="-942.5" font-family="Helvetica,sans-Serif" font-size="10.00">com.fs.starfarer.api.impl.campaign.</text>
<text text-anchor="middle" x="325" y="-931.5" font-family="Helvetica,sans-Serif" font-size="10.00">CommRelayEntityPlugin.CommSnifferReadableIntel</text>
</a>
</g>
</g>
<!-- Node11&#45;&gt;Node8 -->
<g id="edge11" class="edge">
<title>Node11&#45;&gt;Node8</title>
<path fill="none" stroke="#63b8ff" d="M455.73,-924.92C521.95,-917.47 600.93,-908.59 660.84,-901.86"/>
<polygon fill="#63b8ff" stroke="#63b8ff" points="455.43,-921.43 445.88,-926.02 456.21,-928.38 455.43,-921.43"/>
</g>
<!-- Node12 -->
<g id="node12" class="node">
<title>Node12</title>
<g id="a_node12"><a xlink:href="interfacecom_1_1fs_1_1starfarer_1_1api_1_1impl_1_1campaign_1_1missions_1_1hub_1_1HubMission.html" target="_top" xlink:title=" ">
<polygon fill="white" stroke="#666666" points="866.5,-858.5 641.5,-858.5 641.5,-828.5 866.5,-828.5 866.5,-858.5"/>
<text text-anchor="start" x="649.5" y="-846.5" font-family="Helvetica,sans-Serif" font-size="10.00">com.fs.starfarer.api.impl.campaign.missions.hub.</text>
<text text-anchor="middle" x="754" y="-835.5" font-family="Helvetica,sans-Serif" font-size="10.00">HubMission</text>
</a>
</g>
</g>
<!-- Node12&#45;&gt;Node7 -->
<g id="edge13" class="edge">
<title>Node12&#45;&gt;Node7</title>
<path fill="none" stroke="#63b8ff" d="M865.86,-859.5C917.44,-861.21 977.16,-854.4 1022,-823.5 1114.83,-759.52 1142.83,-610.94 1149.62,-562.83"/>
<polygon fill="#63b8ff" stroke="#63b8ff" points="866.3,-856.02 856.15,-859.06 865.99,-863.01 866.3,-856.02"/>
</g>
<!-- Node13 -->
<g id="node13" class="node">
<title>Node13</title>
<g id="a_node13"><a xlink:title=" ">
<polygon fill="white" stroke="#666666" points="818,-810.5 690,-810.5 690,-780.5 818,-780.5 818,-810.5"/>
<text text-anchor="start" x="698" y="-798.5" font-family="Helvetica,sans-Serif" font-size="10.00">LinkedHashMap&lt; Object,</text>
<text text-anchor="middle" x="754" y="-787.5" font-family="Helvetica,sans-Serif" font-size="10.00"> StageData &gt;</text>
</a>
</g>
</g>
<!-- Node13&#45;&gt;Node7 -->
<g id="edge14" class="edge">
<title>Node13&#45;&gt;Node7</title>
<path fill="none" stroke="#9a32cd" stroke-dasharray="5,2" d="M829.58,-807.42C886.64,-812.57 964.95,-810.7 1022,-774.5 1101.88,-723.82 1137.54,-605.11 1148.03,-562.81"/>
<polygon fill="#9a32cd" stroke="#9a32cd" points="830.28,-803.97 819.98,-806.46 829.58,-810.94 830.28,-803.97"/>
<text text-anchor="middle" x="959.5" y="-811.5" font-family="Helvetica,sans-Serif" font-size="10.00"> stages</text>
</g>
<!-- Node14 -->
<g id="node14" class="node">
<title>Node14</title>
<g id="a_node14"><a xlink:title=" ">
<polygon fill="white" stroke="#666666" points="793,-762 715,-762 715,-743 793,-743 793,-762"/>
<text text-anchor="middle" x="754" y="-750" font-family="Helvetica,sans-Serif" font-size="10.00">List&lt; Object &gt;</text>
</a>
</g>
</g>
<!-- Node14&#45;&gt;Node7 -->
<g id="edge15" class="edge">
<title>Node14&#45;&gt;Node7</title>
<path fill="none" stroke="#9a32cd" stroke-dasharray="5,2" d="M804.4,-748.09C876.39,-741.36 1003.59,-728.16 1022,-717.5 1086.37,-680.21 1129.35,-597.05 1144.96,-562.75"/>
<polygon fill="#9a32cd" stroke="#9a32cd" points="804.49,-744.57 794.86,-748.98 805.14,-751.54 804.49,-744.57"/>
<text text-anchor="middle" x="959.5" y="-762.5" font-family="Helvetica,sans-Serif" font-size="10.00"> failStages</text>
<text text-anchor="middle" x="959.5" y="-751.5" font-family="Helvetica,sans-Serif" font-size="10.00">noPenaltyFailStages</text>
<text text-anchor="middle" x="959.5" y="-740.5" font-family="Helvetica,sans-Serif" font-size="10.00">successStages</text>
</g>
<!-- Node15 -->
<g id="node15" class="node">
<title>Node15</title>
<g id="a_node15"><a xlink:title=" ">
<polygon fill="white" stroke="#666666" points="816,-725 692,-725 692,-706 816,-706 816,-725"/>
<text text-anchor="middle" x="754" y="-713" font-family="Helvetica,sans-Serif" font-size="10.00">List&lt; StageConnection &gt;</text>
</a>
</g>
</g>
<!-- Node15&#45;&gt;Node7 -->
<g id="edge16" class="edge">
<title>Node15&#45;&gt;Node7</title>
<path fill="none" stroke="#9a32cd" stroke-dasharray="5,2" d="M827.75,-710.35C894.85,-704.67 988.91,-694.08 1022,-677.5 1076.69,-650.11 1122.19,-590.68 1141.52,-562.68"/>
<polygon fill="#9a32cd" stroke="#9a32cd" points="827.58,-706.85 817.91,-711.16 828.16,-713.83 827.58,-706.85"/>
<text text-anchor="middle" x="959.5" y="-705.5" font-family="Helvetica,sans-Serif" font-size="10.00"> connections</text>
</g>
<!-- Node16 -->
<g id="node16" class="node">
<title>Node16</title>
<g id="a_node16"><a xlink:title=" ">
<polygon fill="white" stroke="#666666" points="879,-687.5 629,-687.5 629,-657.5 879,-657.5 879,-687.5"/>
<text text-anchor="start" x="637" y="-675.5" font-family="Helvetica,sans-Serif" font-size="10.00">List&lt; com.fs.starfarer.api.impl.campaign.missions.hub.</text>
<text text-anchor="middle" x="754" y="-664.5" font-family="Helvetica,sans-Serif" font-size="10.00">MissionTrigger &gt;</text>
</a>
</g>
</g>
<!-- Node16&#45;&gt;Node7 -->
<g id="edge17" class="edge">
<title>Node16&#45;&gt;Node7</title>
<path fill="none" stroke="#9a32cd" stroke-dasharray="5,2" d="M890.91,-664.34C933.86,-658.7 980.84,-649.26 1022,-633.5 1066.11,-616.61 1110.43,-582.63 1134.06,-562.81"/>
<polygon fill="#9a32cd" stroke="#9a32cd" points="890.49,-660.87 881,-665.58 891.36,-667.82 890.49,-660.87"/>
<text text-anchor="middle" x="959.5" y="-665.5" font-family="Helvetica,sans-Serif" font-size="10.00"> triggers</text>
</g>
<!-- Node17 -->
<g id="node17" class="node">
<title>Node17</title>
<g id="a_node17"><a xlink:title=" ">
<polygon fill="white" stroke="#666666" points="799.5,-639 708.5,-639 708.5,-620 799.5,-620 799.5,-639"/>
<text text-anchor="middle" x="754" y="-627" font-family="Helvetica,sans-Serif" font-size="10.00">List&lt; Abortable &gt;</text>
</a>
</g>
</g>
<!-- Node17&#45;&gt;Node7 -->
<g id="edge18" class="edge">
<title>Node17&#45;&gt;Node7</title>
<path fill="none" stroke="#9a32cd" stroke-dasharray="5,2" d="M810.7,-626.87C865.23,-623.35 950.31,-615.34 1022,-597.5 1055.79,-589.09 1092.7,-574.24 1118.43,-562.91"/>
<polygon fill="#9a32cd" stroke="#9a32cd" points="810.83,-623.35 801.06,-627.46 811.25,-630.34 810.83,-623.35"/>
<text text-anchor="middle" x="959.5" y="-621.5" font-family="Helvetica,sans-Serif" font-size="10.00"> changes</text>
</g>
<!-- Node18 -->
<g id="node18" class="node">
<title>Node18</title>
<g id="a_node18"><a xlink:title=" ">
<polygon fill="white" stroke="#666666" points="798.5,-602 709.5,-602 709.5,-583 798.5,-583 798.5,-602"/>
<text text-anchor="middle" x="754" y="-590" font-family="Helvetica,sans-Serif" font-size="10.00">List&lt; FlagData &gt;</text>
</a>
</g>
</g>
<!-- Node18&#45;&gt;Node7 -->
<g id="edge19" class="edge">
<title>Node18&#45;&gt;Node7</title>
<path fill="none" stroke="#9a32cd" stroke-dasharray="5,2" d="M810,-589.48C864.09,-586.15 948.95,-579.98 1022,-570.5 1037.96,-568.43 1054.96,-565.75 1071.2,-562.97"/>
<polygon fill="#9a32cd" stroke="#9a32cd" points="809.89,-585.98 800.11,-590.07 810.31,-592.96 809.89,-585.98"/>
<text text-anchor="middle" x="959.5" y="-585.5" font-family="Helvetica,sans-Serif" font-size="10.00"> flags</text>
</g>
<!-- Node19 -->
<g id="node19" class="node">
<title>Node19</title>
<g id="a_node19"><a xlink:href="interfacecom_1_1fs_1_1starfarer_1_1api_1_1campaign_1_1CargoAPI.html" target="_top" xlink:title=" ">
<polygon fill="white" stroke="#666666" points="827,-564.5 681,-564.5 681,-534.5 827,-534.5 827,-564.5"/>
<text text-anchor="start" x="689" y="-552.5" font-family="Helvetica,sans-Serif" font-size="10.00">com.fs.starfarer.api.campaign.</text>
<text text-anchor="middle" x="754" y="-541.5" font-family="Helvetica,sans-Serif" font-size="10.00">CargoAPI</text>
</a>
</g>
</g>
<!-- Node19&#45;&gt;Node7 -->
<g id="edge20" class="edge">
<title>Node19&#45;&gt;Node7</title>
<path fill="none" stroke="#9a32cd" stroke-dasharray="5,2" d="M838.69,-548.87C857.85,-548.73 878.13,-548.6 897,-548.5 943.72,-548.24 995.27,-548.03 1039.69,-547.86"/>
<polygon fill="#9a32cd" stroke="#9a32cd" points="838.73,-545.37 828.75,-548.94 838.78,-552.37 838.73,-545.37"/>
<text text-anchor="middle" x="959.5" y="-562.5" font-family="Helvetica,sans-Serif" font-size="10.00"> cargoOnAccept</text>
<text text-anchor="middle" x="959.5" y="-551.5" font-family="Helvetica,sans-Serif" font-size="10.00">cargoOnSuccess</text>
</g>
<!-- Node20 -->
<g id="node20" class="node">
<title>Node20</title>
<g id="a_node20"><a xlink:title=" ">
<polygon fill="white" stroke="#666666" points="866.5,-478.5 641.5,-478.5 641.5,-448.5 866.5,-448.5 866.5,-478.5"/>
<text text-anchor="start" x="649.5" y="-466.5" font-family="Helvetica,sans-Serif" font-size="10.00">com.fs.starfarer.api.impl.campaign.missions.hub.</text>
<text text-anchor="middle" x="754" y="-455.5" font-family="Helvetica,sans-Serif" font-size="10.00">BaseHubMission.TimeLimitData</text>
</a>
</g>
</g>
<!-- Node20&#45;&gt;Node7 -->
<g id="edge21" class="edge">
<title>Node20&#45;&gt;Node7</title>
<path fill="none" stroke="#9a32cd" stroke-dasharray="5,2" d="M878.02,-477.98C923.58,-484.49 975.46,-493.28 1022,-504.5 1052.28,-511.8 1085.63,-522.94 1110.89,-532.06"/>
<polygon fill="#9a32cd" stroke="#9a32cd" points="878.77,-474.55 868.38,-476.62 877.8,-481.48 878.77,-474.55"/>
<text text-anchor="middle" x="959.5" y="-507.5" font-family="Helvetica,sans-Serif" font-size="10.00"> timeLimit</text>
</g>
<!-- Node21 -->
<g id="node21" class="node">
<title>Node21</title>
<g id="a_node21"><a xlink:title=" ">
<polygon fill="white" stroke="#666666" points="389.5,-495 260.5,-495 260.5,-476 389.5,-476 389.5,-495"/>
<text text-anchor="middle" x="325" y="-483" font-family="Helvetica,sans-Serif" font-size="10.00">LinkedHashSet&lt; Object &gt;</text>
</a>
</g>
</g>
<!-- Node21&#45;&gt;Node20 -->
<g id="edge22" class="edge">
<title>Node21&#45;&gt;Node20</title>
<path fill="none" stroke="#9a32cd" stroke-dasharray="5,2" d="M401.14,-481.63C467.64,-478.2 565.6,-473.16 641.28,-469.26"/>
<polygon fill="#9a32cd" stroke="#9a32cd" points="401.24,-478.12 391.44,-482.13 401.6,-485.11 401.24,-478.12"/>
<text text-anchor="middle" x="536.5" y="-481.5" font-family="Helvetica,sans-Serif" font-size="10.00"> endLimitStages</text>
</g>
<!-- Node22 -->
<g id="node22" class="node">
<title>Node22</title>
<g id="a_node22"><a xlink:href="interfacecom_1_1fs_1_1starfarer_1_1api_1_1campaign_1_1StarSystemAPI.html" target="_top" xlink:title=" ">
<polygon fill="white" stroke="#666666" points="398,-457.5 252,-457.5 252,-427.5 398,-427.5 398,-457.5"/>
<text text-anchor="start" x="260" y="-445.5" font-family="Helvetica,sans-Serif" font-size="10.00">com.fs.starfarer.api.campaign.</text>
<text text-anchor="middle" x="325" y="-434.5" font-family="Helvetica,sans-Serif" font-size="10.00">StarSystemAPI</text>
</a>
</g>
</g>
<!-- Node22&#45;&gt;Node20 -->
<g id="edge23" class="edge">
<title>Node22&#45;&gt;Node20</title>
<path fill="none" stroke="#9a32cd" stroke-dasharray="5,2" d="M409.82,-444.51C466.62,-446.1 543.37,-448.7 611,-452.5 620.75,-453.05 630.87,-453.69 641.02,-454.38"/>
<polygon fill="#9a32cd" stroke="#9a32cd" points="409.97,-441.01 399.88,-444.24 409.78,-448.01 409.97,-441.01"/>
<text text-anchor="middle" x="536.5" y="-455.5" font-family="Helvetica,sans-Serif" font-size="10.00"> noLimitWhileInSystem</text>
</g>
<!-- Node23 -->
<g id="node23" class="node">
<title>Node23</title>
<g id="a_node23"><a xlink:href="interfacecom_1_1fs_1_1starfarer_1_1api_1_1campaign_1_1LocationAPI.html" target="_top" xlink:title=" ">
<polygon fill="white" stroke="#666666" points="157.5,-457.5 11.5,-457.5 11.5,-427.5 157.5,-427.5 157.5,-457.5"/>
<text text-anchor="start" x="19.5" y="-445.5" font-family="Helvetica,sans-Serif" font-size="10.00">com.fs.starfarer.api.campaign.</text>
<text text-anchor="middle" x="84.5" y="-434.5" font-family="Helvetica,sans-Serif" font-size="10.00">LocationAPI</text>
</a>
</g>
</g>
<!-- Node23&#45;&gt;Node22 -->
<g id="edge24" class="edge">
<title>Node23&#45;&gt;Node22</title>
<path fill="none" stroke="#63b8ff" d="M169.06,-442.5C195.99,-442.5 225.58,-442.5 251.63,-442.5"/>
<polygon fill="#63b8ff" stroke="#63b8ff" points="169.22,-439 159.22,-442.5 169.22,-446 169.22,-439"/>
</g>
<!-- Node24 -->
<g id="node24" class="node">
<title>Node24</title>
<g id="a_node24"><a xlink:title=" ">
<polygon fill="white" stroke="#666666" points="866.5,-382.5 641.5,-382.5 641.5,-352.5 866.5,-352.5 866.5,-382.5"/>
<text text-anchor="start" x="649.5" y="-370.5" font-family="Helvetica,sans-Serif" font-size="10.00">com.fs.starfarer.api.impl.campaign.missions.hub.</text>
<text text-anchor="middle" x="754" y="-359.5" font-family="Helvetica,sans-Serif" font-size="10.00">BaseHubMission.HubMissionResult</text>
</a>
</g>
</g>
<!-- Node24&#45;&gt;Node7 -->
<g id="edge25" class="edge">
<title>Node24&#45;&gt;Node7</title>
<path fill="none" stroke="#9a32cd" stroke-dasharray="5,2" d="M877.95,-375.58C925.09,-382.54 978.06,-395.28 1022,-418.5 1075.59,-446.82 1121.3,-504.69 1141.06,-532.25"/>
<polygon fill="#9a32cd" stroke="#9a32cd" points="878.62,-372.14 868.24,-374.22 877.66,-379.07 878.62,-372.14"/>
<text text-anchor="middle" x="959.5" y="-421.5" font-family="Helvetica,sans-Serif" font-size="10.00"> result</text>
</g>
<!-- Node25 -->
<g id="node25" class="node">
<title>Node25</title>
<g id="a_node25"><a xlink:title=" ">
<polygon fill="white" stroke="#666666" points="430,-388 220,-388 220,-347 430,-347 430,-388"/>
<text text-anchor="start" x="228" y="-376" font-family="Helvetica,sans-Serif" font-size="10.00">com.fs.starfarer.api.campaign.</text>
<text text-anchor="start" x="228" y="-365" font-family="Helvetica,sans-Serif" font-size="10.00">ReputationActionResponsePlugin.Reputation</text>
<text text-anchor="middle" x="325" y="-354" font-family="Helvetica,sans-Serif" font-size="10.00">AdjustmentResult</text>
</a>
</g>
</g>
<!-- Node25&#45;&gt;Node24 -->
<g id="edge26" class="edge">
<title>Node25&#45;&gt;Node24</title>
<path fill="none" stroke="#9a32cd" stroke-dasharray="5,2" d="M441.85,-367.5C503.79,-367.5 579.69,-367.5 641.03,-367.5"/>
<polygon fill="#9a32cd" stroke="#9a32cd" points="441.97,-364 431.97,-367.5 441.97,-371 441.97,-364"/>
<text text-anchor="middle" x="536.5" y="-381.5" font-family="Helvetica,sans-Serif" font-size="10.00"> repFaction</text>
<text text-anchor="middle" x="536.5" y="-370.5" font-family="Helvetica,sans-Serif" font-size="10.00">repPerson</text>
</g>
<!-- Node26 -->
<g id="node26" class="node">
<title>Node26</title>
<g id="a_node26"><a xlink:href="interfacecom_1_1fs_1_1starfarer_1_1api_1_1impl_1_1campaign_1_1missions_1_1hub_1_1MissionHub.html" target="_top" xlink:title=" ">
<polygon fill="white" stroke="#666666" points="866.5,-430.5 641.5,-430.5 641.5,-400.5 866.5,-400.5 866.5,-430.5"/>
<text text-anchor="start" x="649.5" y="-418.5" font-family="Helvetica,sans-Serif" font-size="10.00">com.fs.starfarer.api.impl.campaign.missions.hub.</text>
<text text-anchor="middle" x="754" y="-407.5" font-family="Helvetica,sans-Serif" font-size="10.00">MissionHub</text>
</a>
</g>
</g>
<!-- Node26&#45;&gt;Node7 -->
<g id="edge27" class="edge">
<title>Node26&#45;&gt;Node7</title>
<path fill="none" stroke="#9a32cd" stroke-dasharray="5,2" d="M878,-429.25C924.22,-436.92 976.54,-448.67 1022,-466.5 1064.21,-483.06 1107.81,-513.64 1132.11,-532.12"/>
<polygon fill="#9a32cd" stroke="#9a32cd" points="878.62,-425.8 868.19,-427.67 877.51,-432.72 878.62,-425.8"/>
<text text-anchor="middle" x="959.5" y="-469.5" font-family="Helvetica,sans-Serif" font-size="10.00"> hub</text>
</g>
<!-- Node27&#45;&gt;Node7 -->
<g id="edge28" class="edge">
<title>Node27&#45;&gt;Node7</title>
<path fill="none" stroke="#9a32cd" stroke-dasharray="5,2" d="M622.38,-1044.38C744.73,-1052.44 962.51,-1059.23 1022,-1011.5 1095.72,-952.36 1140.2,-636.02 1149.62,-562.69"/>
<polygon fill="#9a32cd" stroke="#9a32cd" points="622.93,-1040.91 612.72,-1043.73 622.46,-1047.9 622.93,-1040.91"/>
<text text-anchor="middle" x="754" y="-1052.5" font-family="Helvetica,sans-Serif" font-size="10.00"> personOverride</text>
</g>
<!-- Node28 -->
<g id="node28" class="node">
<title>Node28</title>
<g id="a_node28"><a xlink:href="interfacecom_1_1fs_1_1starfarer_1_1api_1_1impl_1_1campaign_1_1missions_1_1hub_1_1HubMissionCreator.html" target="_top" xlink:title=" ">
<polygon fill="white" stroke="#666666" points="866.5,-334.5 641.5,-334.5 641.5,-304.5 866.5,-304.5 866.5,-334.5"/>
<text text-anchor="start" x="649.5" y="-322.5" font-family="Helvetica,sans-Serif" font-size="10.00">com.fs.starfarer.api.impl.campaign.missions.hub.</text>
<text text-anchor="middle" x="754" y="-311.5" font-family="Helvetica,sans-Serif" font-size="10.00">HubMissionCreator</text>
</a>
</g>
</g>
<!-- Node28&#45;&gt;Node7 -->
<g id="edge30" class="edge">
<title>Node28&#45;&gt;Node7</title>
<path fill="none" stroke="#9a32cd" stroke-dasharray="5,2" d="M878.17,-320.92C926.07,-326.34 979.52,-338.78 1022,-365.5 1088.31,-407.21 1130.6,-496.41 1145.5,-532.19"/>
<polygon fill="#9a32cd" stroke="#9a32cd" points="878.58,-317.44 868.27,-319.9 877.86,-324.41 878.58,-317.44"/>
<text text-anchor="middle" x="959.5" y="-368.5" font-family="Helvetica,sans-Serif" font-size="10.00"> creator</text>
</g>
<!-- Node29 -->
<g id="node29" class="node">
<title>Node29</title>
<g id="a_node29"><a xlink:title=" ">
<polygon fill="white" stroke="#666666" points="780.5,-286 727.5,-286 727.5,-267 780.5,-267 780.5,-286"/>
<text text-anchor="middle" x="754" y="-274" font-family="Helvetica,sans-Serif" font-size="10.00">Random</text>
</a>
</g>
</g>
<!-- Node29&#45;&gt;Node7 -->
<g id="edge31" class="edge">
<title>Node29&#45;&gt;Node7</title>
<path fill="none" stroke="#9a32cd" stroke-dasharray="5,2" d="M792.09,-276.98C856.43,-278.47 985.38,-284.57 1022,-309.5 1103.46,-364.96 1138.32,-489.04 1148.3,-532.28"/>
<polygon fill="#9a32cd" stroke="#9a32cd" points="792.44,-273.48 782.38,-276.78 792.3,-280.48 792.44,-273.48"/>
<text text-anchor="middle" x="959.5" y="-312.5" font-family="Helvetica,sans-Serif" font-size="10.00"> genRandom</text>
</g>
<!-- Node30 -->
<g id="node30" class="node">
<title>Node30</title>
<g id="a_node30"><a xlink:href="classcom_1_1fs_1_1starfarer_1_1api_1_1util_1_1IntervalUtil.html" target="_top" xlink:title=" ">
<polygon fill="white" stroke="#666666" points="812,-114.5 696,-114.5 696,-84.5 812,-84.5 812,-114.5"/>
<text text-anchor="start" x="704" y="-102.5" font-family="Helvetica,sans-Serif" font-size="10.00">com.fs.starfarer.api.util.</text>
<text text-anchor="middle" x="754" y="-91.5" font-family="Helvetica,sans-Serif" font-size="10.00">IntervalUtil</text>
</a>
</g>
</g>
<!-- Node30&#45;&gt;Node1 -->
<g id="edge41" class="edge">
<title>Node30&#45;&gt;Node1</title>
<path fill="none" stroke="#9a32cd" stroke-dasharray="5,2" d="M823.38,-86.63C841.52,-82.97 861.05,-78.8 879,-74.5 887.07,-72.57 888.77,-70.62 897,-69.5 952.05,-62 971.29,-46.82 1022,-69.5 1250.16,-171.54 1406.92,-462.22 1442.04,-532.2"/>
<polygon fill="#9a32cd" stroke="#9a32cd" points="822.9,-83.16 813.78,-88.55 824.27,-90.02 822.9,-83.16"/>
<text text-anchor="middle" x="1152.5" y="-262.5" font-family="Helvetica,sans-Serif" font-size="10.00"> interval</text>
</g>
<!-- Node30&#45;&gt;Node7 -->
<g id="edge32" class="edge">
<title>Node30&#45;&gt;Node7</title>
<path fill="none" stroke="#9a32cd" stroke-dasharray="5,2" d="M823.58,-98.35C892.52,-98.63 992.67,-103.39 1022,-127.5 1088.16,-181.89 1137.87,-463.89 1149.11,-532.46"/>
<polygon fill="#9a32cd" stroke="#9a32cd" points="823.89,-94.85 813.89,-98.34 823.89,-101.85 823.89,-94.85"/>
<text text-anchor="middle" x="959.5" y="-130.5" font-family="Helvetica,sans-Serif" font-size="10.00"> tracker</text>
</g>
<!-- Node31 -->
<g id="node31" class="node">
<title>Node31</title>
<g id="a_node31"><a xlink:href="enumcom_1_1fs_1_1starfarer_1_1api_1_1campaign_1_1RepLevel.html" target="_top" xlink:title=" ">
<polygon fill="white" stroke="#666666" points="827,-248.5 681,-248.5 681,-218.5 827,-218.5 827,-248.5"/>
<text text-anchor="start" x="689" y="-236.5" font-family="Helvetica,sans-Serif" font-size="10.00">com.fs.starfarer.api.campaign.</text>
<text text-anchor="middle" x="754" y="-225.5" font-family="Helvetica,sans-Serif" font-size="10.00">RepLevel</text>
</a>
</g>
</g>
<!-- Node31&#45;&gt;Node7 -->
<g id="edge33" class="edge">
<title>Node31&#45;&gt;Node7</title>
<path fill="none" stroke="#9a32cd" stroke-dasharray="5,2" d="M838.86,-224.32C905.82,-218.76 993.05,-216.02 1022,-235.5 1127.09,-306.23 1147.03,-479.72 1150.7,-532.21"/>
<polygon fill="#9a32cd" stroke="#9a32cd" points="838.63,-220.83 828.97,-225.18 839.23,-227.8 838.63,-220.83"/>
<text text-anchor="middle" x="959.5" y="-271.5" font-family="Helvetica,sans-Serif" font-size="10.00"> penaltyLimitFaction</text>
<text text-anchor="middle" x="959.5" y="-260.5" font-family="Helvetica,sans-Serif" font-size="10.00">penaltyLimitPerson</text>
<text text-anchor="middle" x="959.5" y="-249.5" font-family="Helvetica,sans-Serif" font-size="10.00">rewardLimitFaction</text>
<text text-anchor="middle" x="959.5" y="-238.5" font-family="Helvetica,sans-Serif" font-size="10.00">rewardLimitPerson</text>
</g>
<!-- Node32 -->
<g id="node32" class="node">
<title>Node32</title>
<g id="a_node32"><a xlink:title=" ">
<polygon fill="white" stroke="#666666" points="825,-200 683,-200 683,-181 825,-181 825,-200"/>
<text text-anchor="middle" x="754" y="-188" font-family="Helvetica,sans-Serif" font-size="10.00">List&lt; PotentialContactData &gt;</text>
</a>
</g>
</g>
<!-- Node32&#45;&gt;Node7 -->
<g id="edge34" class="edge">
<title>Node32&#45;&gt;Node7</title>
<path fill="none" stroke="#9a32cd" stroke-dasharray="5,2" d="M836.91,-181.87C904.3,-176.53 993.23,-174.09 1022,-194.5 1138.33,-277.04 1150.42,-475.84 1151.47,-532.31"/>
<polygon fill="#9a32cd" stroke="#9a32cd" points="836.63,-178.38 826.95,-182.7 837.21,-185.36 836.63,-178.38"/>
<text text-anchor="start" x="897" y="-208.5" font-family="Helvetica,sans-Serif" font-size="10.00"> potentialContactsOnMission</text>
<text text-anchor="middle" x="959.5" y="-197.5" font-family="Helvetica,sans-Serif" font-size="10.00">Success</text>
</g>
<!-- Node33 -->
<g id="node33" class="node">
<title>Node33</title>
<g id="a_node33"><a xlink:href="interfacecom_1_1fs_1_1starfarer_1_1api_1_1campaign_1_1rules_1_1MemoryAPI.html" target="_top" xlink:title=" ">
<polygon fill="white" stroke="#666666" points="838.5,-162.5 669.5,-162.5 669.5,-132.5 838.5,-132.5 838.5,-162.5"/>
<text text-anchor="start" x="677.5" y="-150.5" font-family="Helvetica,sans-Serif" font-size="10.00">com.fs.starfarer.api.campaign.rules.</text>
<text text-anchor="middle" x="754" y="-139.5" font-family="Helvetica,sans-Serif" font-size="10.00">MemoryAPI</text>
</a>
</g>
</g>
<!-- Node33&#45;&gt;Node7 -->
<g id="edge35" class="edge">
<title>Node33&#45;&gt;Node7</title>
<path fill="none" stroke="#9a32cd" stroke-dasharray="5,2" d="M850.08,-142.3C915.69,-140.72 995.67,-143.37 1022,-163.5 1144.69,-257.29 1152.19,-472.55 1151.84,-532.03"/>
<polygon fill="#9a32cd" stroke="#9a32cd" points="850.26,-138.8 840.36,-142.58 850.46,-145.8 850.26,-138.8"/>
<text text-anchor="middle" x="959.5" y="-166.5" font-family="Helvetica,sans-Serif" font-size="10.00"> interactionMemory</text>
</g>
<!-- Node34 -->
<g id="node34" class="node">
<title>Node34</title>
<g id="a_node34"><a xlink:title=" ">
<polygon fill="white" stroke="#666666" points="791,-66 717,-66 717,-47 791,-47 791,-66"/>
<text text-anchor="middle" x="754" y="-54" font-family="Helvetica,sans-Serif" font-size="10.00">Set&lt; String &gt;</text>
</a>
</g>
</g>
<!-- Node34&#45;&gt;Node7 -->
<g id="edge36" class="edge">
<title>Node34&#45;&gt;Node7</title>
<path fill="none" stroke="#9a32cd" stroke-dasharray="5,2" d="M802.61,-47.51C861.35,-39.33 960.91,-35.42 1022,-87.5 1093.18,-148.19 1139.44,-458.88 1149.45,-532.05"/>
<polygon fill="#9a32cd" stroke="#9a32cd" points="802.3,-44.01 792.93,-48.96 803.34,-50.94 802.3,-44.01"/>
<text text-anchor="middle" x="959.5" y="-90.5" font-family="Helvetica,sans-Serif" font-size="10.00"> addedTags</text>
</g>
<!-- Node35 -->
<g id="node35" class="node">
<title>Node35</title>
<g id="a_node35"><a xlink:href="enumcom_1_1fs_1_1starfarer_1_1api_1_1campaign_1_1PersonImportance.html" target="_top" xlink:title=" ">
<polygon fill="white" stroke="#666666" points="827,-1002.5 681,-1002.5 681,-972.5 827,-972.5 827,-1002.5"/>
<text text-anchor="start" x="689" y="-990.5" font-family="Helvetica,sans-Serif" font-size="10.00">com.fs.starfarer.api.campaign.</text>
<text text-anchor="middle" x="754" y="-979.5" font-family="Helvetica,sans-Serif" font-size="10.00">PersonImportance</text>
</a>
</g>
</g>
<!-- Node35&#45;&gt;Node7 -->
<g id="edge37" class="edge">
<title>Node35&#45;&gt;Node7</title>
<path fill="none" stroke="#9a32cd" stroke-dasharray="5,2" d="M838.62,-998.66C896.42,-1001.62 971.67,-995.41 1022,-953.5 1147.37,-849.11 1152.84,-623.34 1151.95,-562.73"/>
<polygon fill="#9a32cd" stroke="#9a32cd" points="839.02,-995.18 828.82,-998.05 838.58,-1002.16 839.02,-995.18"/>
<text text-anchor="middle" x="959.5" y="-999.5" font-family="Helvetica,sans-Serif" font-size="10.00"> giverImportance</text>
</g>
<!-- Node36 -->
<g id="node36" class="node">
<title>Node36</title>
<g id="a_node36"><a xlink:title=" ">
<polygon fill="white" stroke="#666666" points="828.5,-954.5 679.5,-954.5 679.5,-924.5 828.5,-924.5 828.5,-954.5"/>
<text text-anchor="start" x="687.5" y="-942.5" font-family="Helvetica,sans-Serif" font-size="10.00">com.fs.starfarer.api.characters.</text>
<text text-anchor="middle" x="754" y="-931.5" font-family="Helvetica,sans-Serif" font-size="10.00">FullName.Gender</text>
</a>
</g>
</g>
<!-- Node36&#45;&gt;Node7 -->
<g id="edge38" class="edge">
<title>Node36&#45;&gt;Node7</title>
<path fill="none" stroke="#9a32cd" stroke-dasharray="5,2" d="M840.15,-944.07C897.61,-942.66 971.83,-931.5 1022,-889.5 1127.64,-801.06 1147.24,-616.82 1150.75,-562.74"/>
<polygon fill="#9a32cd" stroke="#9a32cd" points="840.35,-940.57 830.4,-944.21 840.45,-947.57 840.35,-940.57"/>
<text text-anchor="middle" x="959.5" y="-941.5" font-family="Helvetica,sans-Serif" font-size="10.00"> giverGender</text>
</g>
<!-- Node37 -->
<g id="node37" class="node">
<title>Node37</title>
<g id="a_node37"><a xlink:title=" ">
<polygon fill="white" stroke="#666666" points="773.5,-516 734.5,-516 734.5,-497 773.5,-497 773.5,-516"/>
<text text-anchor="middle" x="754" y="-504" font-family="Helvetica,sans-Serif" font-size="10.00">Color</text>
</a>
</g>
</g>
<!-- Node37&#45;&gt;Node7 -->
<g id="edge39" class="edge">
<title>Node37&#45;&gt;Node7</title>
<path fill="none" stroke="#9a32cd" stroke-dasharray="5,2" d="M785.21,-509.26C834.72,-513.83 936.19,-523.35 1022,-532.5 1027.74,-533.11 1033.62,-533.75 1039.56,-534.4"/>
<polygon fill="#9a32cd" stroke="#9a32cd" points="785.57,-505.78 775.29,-508.35 784.93,-512.75 785.57,-505.78"/>
<text text-anchor="middle" x="959.5" y="-535.5" font-family="Helvetica,sans-Serif" font-size="10.00"> mapMarkerNameColor</text>
</g>
<!-- Node38 -->
<g id="node38" class="node">
<title>Node38</title>
<g id="a_node38"><a xlink:title=" ">
<polygon fill="white" stroke="#666666" points="1191,-19 1114,-19 1114,0 1191,0 1191,-19"/>
<text text-anchor="middle" x="1152.5" y="-7" font-family="Helvetica,sans-Serif" font-size="10.00">Set&lt; Object &gt;</text>
</a>
</g>
</g>
<!-- Node38&#45;&gt;Node1 -->
<g id="edge40" class="edge">
<title>Node38&#45;&gt;Node1</title>
<path fill="none" stroke="#9a32cd" stroke-dasharray="5,2" d="M1202.91,-2.08C1239.6,0.52 1288.53,-2.59 1320,-30.5 1398.67,-100.25 1439.72,-453.56 1447.94,-532.04"/>
<polygon fill="#9a32cd" stroke="#9a32cd" points="1202.62,1.41 1192.97,-2.96 1203.25,-5.56 1202.62,1.41"/>
<text text-anchor="middle" x="1301.5" y="-33.5" font-family="Helvetica,sans-Serif" font-size="10.00"> stages</text>
</g>
</g>
</svg>
