<?xml version="1.0" encoding="UTF-8" standalone="no"?>
<!DOCTYPE svg PUBLIC "-//W3C//DTD SVG 1.1//EN"
 "http://www.w3.org/Graphics/SVG/1.1/DTD/svg11.dtd">
<!-- Generated by graphviz version 7.0.5 (20221223.1930)
 -->
<!-- Title: com.fs.starfarer.api.impl.campaign.terrain.StarCoronaAkaMainyuTerrainPlugin Pages: 1 -->
<svg width="1078pt" height="134pt"
 viewBox="0.00 0.00 1078.00 134.00" xmlns="http://www.w3.org/2000/svg" xmlns:xlink="http://www.w3.org/1999/xlink">
<g id="graph0" class="graph" transform="scale(1 1) rotate(0) translate(4 130)">
<title>com.fs.starfarer.api.impl.campaign.terrain.StarCoronaAkaMainyuTerrainPlugin</title>
<!-- Node1 -->
<g id="node1" class="node">
<title>Node1</title>
<g id="a_node1"><a xlink:title=" ">
<polygon fill="#999999" stroke="#666666" points="1070,-78 875,-78 875,-48 1070,-48 1070,-78"/>
<text text-anchor="start" x="883" y="-66" font-family="Helvetica,sans-Serif" font-size="10.00">com.fs.starfarer.api.impl.campaign.terrain.</text>
<text text-anchor="middle" x="972.5" y="-55" font-family="Helvetica,sans-Serif" font-size="10.00">StarCoronaAkaMainyuTerrainPlugin</text>
</a>
</g>
</g>
<!-- Node2 -->
<g id="node2" class="node">
<title>Node2</title>
<g id="a_node2"><a xlink:href="classcom_1_1fs_1_1starfarer_1_1api_1_1impl_1_1campaign_1_1terrain_1_1StarCoronaTerrainPlugin.html" target="_top" xlink:title=" ">
<polygon fill="white" stroke="#bfbfbf" points="839,-78 644,-78 644,-48 839,-48 839,-78"/>
<text text-anchor="start" x="652" y="-66" font-family="Helvetica,sans-Serif" font-size="10.00">com.fs.starfarer.api.impl.campaign.terrain.</text>
<text text-anchor="middle" x="741.5" y="-55" font-family="Helvetica,sans-Serif" font-size="10.00">StarCoronaTerrainPlugin</text>
</a>
</g>
</g>
<!-- Node2&#45;&gt;Node1 -->
<g id="edge1" class="edge">
<title>Node2&#45;&gt;Node1</title>
<path fill="none" stroke="#63b8ff" d="M850.61,-63C858.65,-63 866.73,-63 874.69,-63"/>
<polygon fill="#63b8ff" stroke="#63b8ff" points="850.8,-59.5 840.8,-63 850.8,-66.5 850.8,-59.5"/>
</g>
<!-- Node3 -->
<g id="node3" class="node">
<title>Node3</title>
<g id="a_node3"><a xlink:href="classcom_1_1fs_1_1starfarer_1_1api_1_1impl_1_1campaign_1_1terrain_1_1BaseRingTerrain.html" target="_top" xlink:title=" ">
<polygon fill="white" stroke="#666666" points="608,-126 413,-126 413,-96 608,-96 608,-126"/>
<text text-anchor="start" x="421" y="-114" font-family="Helvetica,sans-Serif" font-size="10.00">com.fs.starfarer.api.impl.campaign.terrain.</text>
<text text-anchor="middle" x="510.5" y="-103" font-family="Helvetica,sans-Serif" font-size="10.00">BaseRingTerrain</text>
</a>
</g>
</g>
<!-- Node3&#45;&gt;Node2 -->
<g id="edge2" class="edge">
<title>Node3&#45;&gt;Node2</title>
<path fill="none" stroke="#63b8ff" d="M596.43,-93.2C619.58,-88.35 644.46,-83.13 666.92,-78.42"/>
<polygon fill="#63b8ff" stroke="#63b8ff" points="595.77,-89.76 586.7,-95.24 597.2,-96.61 595.77,-89.76"/>
</g>
<!-- Node4 -->
<g id="node4" class="node">
<title>Node4</title>
<g id="a_node4"><a xlink:href="classcom_1_1fs_1_1starfarer_1_1api_1_1impl_1_1campaign_1_1terrain_1_1BaseTerrain.html" target="_top" xlink:title=" ">
<polygon fill="white" stroke="#bfbfbf" points="377,-126 182,-126 182,-96 377,-96 377,-126"/>
<text text-anchor="start" x="190" y="-114" font-family="Helvetica,sans-Serif" font-size="10.00">com.fs.starfarer.api.impl.campaign.terrain.</text>
<text text-anchor="middle" x="279.5" y="-103" font-family="Helvetica,sans-Serif" font-size="10.00">BaseTerrain</text>
</a>
</g>
</g>
<!-- Node4&#45;&gt;Node3 -->
<g id="edge3" class="edge">
<title>Node4&#45;&gt;Node3</title>
<path fill="none" stroke="#63b8ff" d="M388.61,-111C396.65,-111 404.73,-111 412.69,-111"/>
<polygon fill="#63b8ff" stroke="#63b8ff" points="388.8,-107.5 378.8,-111 388.8,-114.5 388.8,-107.5"/>
</g>
<!-- Node5 -->
<g id="node5" class="node">
<title>Node5</title>
<g id="a_node5"><a xlink:href="interfacecom_1_1fs_1_1starfarer_1_1api_1_1campaign_1_1CampaignTerrainPlugin.html" target="_top" xlink:title=" ">
<polygon fill="white" stroke="#bfbfbf" points="146,-126 0,-126 0,-96 146,-96 146,-126"/>
<text text-anchor="start" x="8" y="-114" font-family="Helvetica,sans-Serif" font-size="10.00">com.fs.starfarer.api.campaign.</text>
<text text-anchor="middle" x="73" y="-103" font-family="Helvetica,sans-Serif" font-size="10.00">CampaignTerrainPlugin</text>
</a>
</g>
</g>
<!-- Node5&#45;&gt;Node4 -->
<g id="edge4" class="edge">
<title>Node5&#45;&gt;Node4</title>
<path fill="none" stroke="#63b8ff" d="M157.85,-111C165.77,-111 173.84,-111 181.86,-111"/>
<polygon fill="#63b8ff" stroke="#63b8ff" points="157.9,-107.5 147.9,-111 157.9,-114.5 157.9,-107.5"/>
</g>
<!-- Node6 -->
<g id="node6" class="node">
<title>Node6</title>
<g id="a_node6"><a xlink:href="interfacecom_1_1fs_1_1starfarer_1_1api_1_1impl_1_1campaign_1_1terrain_1_1AuroraRenderer_1_1AuroraRendererDelegate.html" target="_top" xlink:title=" ">
<polygon fill="white" stroke="#bfbfbf" points="608,-78 413,-78 413,-48 608,-48 608,-78"/>
<text text-anchor="start" x="421" y="-66" font-family="Helvetica,sans-Serif" font-size="10.00">com.fs.starfarer.api.impl.campaign.terrain.</text>
<text text-anchor="middle" x="510.5" y="-55" font-family="Helvetica,sans-Serif" font-size="10.00">AuroraRenderer.AuroraRendererDelegate</text>
</a>
</g>
</g>
<!-- Node6&#45;&gt;Node2 -->
<g id="edge5" class="edge">
<title>Node6&#45;&gt;Node2</title>
<path fill="none" stroke="#63b8ff" d="M619.61,-63C627.65,-63 635.73,-63 643.69,-63"/>
<polygon fill="#63b8ff" stroke="#63b8ff" points="619.8,-59.5 609.8,-63 619.8,-66.5 619.8,-59.5"/>
</g>
<!-- Node7 -->
<g id="node7" class="node">
<title>Node7</title>
<g id="a_node7"><a xlink:href="interfacecom_1_1fs_1_1starfarer_1_1api_1_1impl_1_1campaign_1_1terrain_1_1FlareManager_1_1FlareManagerDelegate.html" target="_top" xlink:title=" ">
<polygon fill="white" stroke="#bfbfbf" points="608,-30 413,-30 413,0 608,0 608,-30"/>
<text text-anchor="start" x="421" y="-18" font-family="Helvetica,sans-Serif" font-size="10.00">com.fs.starfarer.api.impl.campaign.terrain.</text>
<text text-anchor="middle" x="510.5" y="-7" font-family="Helvetica,sans-Serif" font-size="10.00">FlareManager.FlareManagerDelegate</text>
</a>
</g>
</g>
<!-- Node7&#45;&gt;Node2 -->
<g id="edge6" class="edge">
<title>Node7&#45;&gt;Node2</title>
<path fill="none" stroke="#63b8ff" d="M596.43,-32.8C619.58,-37.65 644.46,-42.87 666.92,-47.58"/>
<polygon fill="#63b8ff" stroke="#63b8ff" points="597.2,-29.39 586.7,-30.76 595.77,-36.24 597.2,-29.39"/>
</g>
</g>
</svg>
