<?xml version="1.0" encoding="UTF-8" standalone="no"?>
<!DOCTYPE svg PUBLIC "-//W3C//DTD SVG 1.1//EN"
 "http://www.w3.org/Graphics/SVG/1.1/DTD/svg11.dtd">
<!-- Generated by graphviz version 12.2.0 (20241103.1931)
 -->
<!-- Title: com.fs.starfarer.api.impl.campaign.intel.events.BaseHostileActivityCause2 Pages: 1 -->
<svg width="731pt" height="578pt"
 viewBox="0.00 0.00 731.00 577.50" xmlns="http://www.w3.org/2000/svg" xmlns:xlink="http://www.w3.org/1999/xlink">
<g id="graph0" class="graph" transform="scale(1 1) rotate(0) translate(4 573.5)">
<title>com.fs.starfarer.api.impl.campaign.intel.events.BaseHostileActivityCause2</title>
<!-- Node1 -->
<g id="Node000001" class="node">
<title>Node1</title>
<g id="a_Node000001"><a xlink:title=" ">
<polygon fill="#999999" stroke="#666666" points="470,-299.5 253,-299.5 253,-269 470,-269 470,-299.5"/>
<text text-anchor="start" x="261" y="-286" font-family="Helvetica,sans-Serif" font-size="10.00">com.fs.starfarer.api.impl.campaign.intel.events.</text>
<text text-anchor="middle" x="361.5" y="-274.75" font-family="Helvetica,sans-Serif" font-size="10.00">BaseHostileActivityCause2</text>
</a>
</g>
</g>
<!-- Node3 -->
<g id="Node000003" class="node">
<title>Node3</title>
<g id="a_Node000003"><a xlink:href="classcom_1_1fs_1_1starfarer_1_1api_1_1impl_1_1campaign_1_1intel_1_1events_1_1HegemonyAICoresActivityCause.html" target="_top" xlink:title=" ">
<polygon fill="white" stroke="#666666" points="723,-569.5 506,-569.5 506,-539 723,-539 723,-569.5"/>
<text text-anchor="start" x="514" y="-556" font-family="Helvetica,sans-Serif" font-size="10.00">com.fs.starfarer.api.impl.campaign.intel.events.</text>
<text text-anchor="middle" x="614.5" y="-544.75" font-family="Helvetica,sans-Serif" font-size="10.00">HegemonyAICoresActivityCause</text>
</a>
</g>
</g>
<!-- Node1&#45;&gt;Node3 -->
<g id="edge2_Node000001_Node000003" class="edge">
<title>Node1&#45;&gt;Node3</title>
<g id="a_edge2_Node000001_Node000003"><a xlink:title=" ">
<path fill="none" stroke="#63b8ff" d="M370.15,-310.5C386.34,-361.2 429.04,-472.58 506,-529.25 510.86,-532.83 516.15,-535.91 521.7,-538.55"/>
<polygon fill="#63b8ff" stroke="#63b8ff" points="373.59,-309.78 367.29,-301.26 366.9,-311.85 373.59,-309.78"/>
</a>
</g>
</g>
<!-- Node4 -->
<g id="Node000004" class="node">
<title>Node4</title>
<g id="a_Node000004"><a xlink:href="classcom_1_1fs_1_1starfarer_1_1api_1_1impl_1_1campaign_1_1intel_1_1events_1_1KantasProtectionPirateActivityCause2.html" target="_top" xlink:title=" ">
<polygon fill="white" stroke="#666666" points="723,-520.5 506,-520.5 506,-490 723,-490 723,-520.5"/>
<text text-anchor="start" x="514" y="-507" font-family="Helvetica,sans-Serif" font-size="10.00">com.fs.starfarer.api.impl.campaign.intel.events.</text>
<text text-anchor="middle" x="614.5" y="-495.75" font-family="Helvetica,sans-Serif" font-size="10.00">KantasProtectionPirateActivityCause2</text>
</a>
</g>
</g>
<!-- Node1&#45;&gt;Node4 -->
<g id="edge3_Node000001_Node000004" class="edge">
<title>Node1&#45;&gt;Node4</title>
<g id="a_edge3_Node000001_Node000004"><a xlink:title=" ">
<path fill="none" stroke="#63b8ff" d="M374.02,-310.26C394.28,-352.83 440.42,-436.94 506,-480.25 511.44,-483.84 517.32,-486.92 523.45,-489.56"/>
<polygon fill="#63b8ff" stroke="#63b8ff" points="377.24,-308.88 369.86,-301.28 370.89,-311.83 377.24,-308.88"/>
</a>
</g>
</g>
<!-- Node5 -->
<g id="Node000005" class="node">
<title>Node5</title>
<g id="a_Node000005"><a xlink:href="classcom_1_1fs_1_1starfarer_1_1api_1_1impl_1_1campaign_1_1intel_1_1events_1_1KantasWrathPirateActivityCause2.html" target="_top" xlink:title=" ">
<polygon fill="white" stroke="#666666" points="723,-471.5 506,-471.5 506,-441 723,-441 723,-471.5"/>
<text text-anchor="start" x="514" y="-458" font-family="Helvetica,sans-Serif" font-size="10.00">com.fs.starfarer.api.impl.campaign.intel.events.</text>
<text text-anchor="middle" x="614.5" y="-446.75" font-family="Helvetica,sans-Serif" font-size="10.00">KantasWrathPirateActivityCause2</text>
</a>
</g>
</g>
<!-- Node1&#45;&gt;Node5 -->
<g id="edge4_Node000001_Node000005" class="edge">
<title>Node1&#45;&gt;Node5</title>
<g id="a_edge4_Node000001_Node000005"><a xlink:title=" ">
<path fill="none" stroke="#63b8ff" d="M379.52,-309C403.69,-342.14 451.13,-400.34 506,-431.25 512.34,-434.82 519.17,-437.89 526.2,-440.51"/>
<polygon fill="#63b8ff" stroke="#63b8ff" points="382.61,-307.29 373.95,-301.2 376.92,-311.37 382.61,-307.29"/>
</a>
</g>
</g>
<!-- Node6 -->
<g id="Node000006" class="node">
<title>Node6</title>
<g id="a_Node000006"><a xlink:href="classcom_1_1fs_1_1starfarer_1_1api_1_1impl_1_1campaign_1_1intel_1_1events_1_1LuddicChurchStandardActivityCause.html" target="_top" xlink:title=" ">
<polygon fill="white" stroke="#666666" points="723,-422.5 506,-422.5 506,-392 723,-392 723,-422.5"/>
<text text-anchor="start" x="514" y="-409" font-family="Helvetica,sans-Serif" font-size="10.00">com.fs.starfarer.api.impl.campaign.intel.events.</text>
<text text-anchor="middle" x="614.5" y="-397.75" font-family="Helvetica,sans-Serif" font-size="10.00">LuddicChurchStandardActivityCause</text>
</a>
</g>
</g>
<!-- Node1&#45;&gt;Node6 -->
<g id="edge5_Node000001_Node000006" class="edge">
<title>Node1&#45;&gt;Node6</title>
<g id="a_edge5_Node000001_Node000006"><a xlink:title=" ">
<path fill="none" stroke="#63b8ff" d="M389.3,-307.1C416.84,-329.44 461.83,-362.85 506,-382.25 514.07,-385.79 522.71,-388.87 531.46,-391.54"/>
<polygon fill="#63b8ff" stroke="#63b8ff" points="391.77,-304.6 381.82,-300.95 387.32,-310 391.77,-304.6"/>
</a>
</g>
</g>
<!-- Node7 -->
<g id="Node000007" class="node">
<title>Node7</title>
<g id="a_Node000007"><a xlink:href="classcom_1_1fs_1_1starfarer_1_1api_1_1impl_1_1campaign_1_1intel_1_1events_1_1LuddicPathAgreementHostileActivityCause2.html" target="_top" xlink:title=" ">
<polygon fill="white" stroke="#666666" points="723,-373.5 506,-373.5 506,-343 723,-343 723,-373.5"/>
<text text-anchor="start" x="514" y="-360" font-family="Helvetica,sans-Serif" font-size="10.00">com.fs.starfarer.api.impl.campaign.intel.events.</text>
<text text-anchor="middle" x="614.5" y="-348.75" font-family="Helvetica,sans-Serif" font-size="10.00">LuddicPathAgreementHostileActivityCause2</text>
</a>
</g>
</g>
<!-- Node1&#45;&gt;Node7 -->
<g id="edge6_Node000001_Node000007" class="edge">
<title>Node1&#45;&gt;Node7</title>
<g id="a_edge6_Node000001_Node000007"><a xlink:title=" ">
<path fill="none" stroke="#63b8ff" d="M415.57,-303.8C442.46,-313.34 475.75,-324.59 506,-333.25 517.33,-336.49 529.42,-339.62 541.25,-342.5"/>
<polygon fill="#63b8ff" stroke="#63b8ff" points="416.86,-300.54 406.27,-300.47 414.51,-307.13 416.86,-300.54"/>
</a>
</g>
</g>
<!-- Node8 -->
<g id="Node000008" class="node">
<title>Node8</title>
<g id="a_Node000008"><a xlink:href="classcom_1_1fs_1_1starfarer_1_1api_1_1impl_1_1campaign_1_1intel_1_1events_1_1PirateBasePirateActivityCause2.html" target="_top" xlink:title=" ">
<polygon fill="white" stroke="#666666" points="723,-324.5 506,-324.5 506,-294 723,-294 723,-324.5"/>
<text text-anchor="start" x="514" y="-311" font-family="Helvetica,sans-Serif" font-size="10.00">com.fs.starfarer.api.impl.campaign.intel.events.</text>
<text text-anchor="middle" x="614.5" y="-299.75" font-family="Helvetica,sans-Serif" font-size="10.00">PirateBasePirateActivityCause2</text>
</a>
</g>
</g>
<!-- Node1&#45;&gt;Node8 -->
<g id="edge7_Node000001_Node000008" class="edge">
<title>Node1&#45;&gt;Node8</title>
<g id="a_edge7_Node000001_Node000008"><a xlink:title=" ">
<path fill="none" stroke="#63b8ff" d="M481.69,-296.12C489.7,-296.92 497.74,-297.72 505.69,-298.51"/>
<polygon fill="#63b8ff" stroke="#63b8ff" points="482.21,-292.66 471.91,-295.15 481.51,-299.62 482.21,-292.66"/>
</a>
</g>
</g>
<!-- Node9 -->
<g id="Node000009" class="node">
<title>Node9</title>
<g id="a_Node000009"><a xlink:href="classcom_1_1fs_1_1starfarer_1_1api_1_1impl_1_1campaign_1_1intel_1_1events_1_1RemnantNexusActivityCause.html" target="_top" xlink:title=" ">
<polygon fill="white" stroke="#666666" points="723,-275.5 506,-275.5 506,-245 723,-245 723,-275.5"/>
<text text-anchor="start" x="514" y="-262" font-family="Helvetica,sans-Serif" font-size="10.00">com.fs.starfarer.api.impl.campaign.intel.events.</text>
<text text-anchor="middle" x="614.5" y="-250.75" font-family="Helvetica,sans-Serif" font-size="10.00">RemnantNexusActivityCause</text>
</a>
</g>
</g>
<!-- Node1&#45;&gt;Node9 -->
<g id="edge8_Node000001_Node000009" class="edge">
<title>Node1&#45;&gt;Node9</title>
<g id="a_edge8_Node000001_Node000009"><a xlink:title=" ">
<path fill="none" stroke="#63b8ff" d="M481.69,-272.85C489.7,-272.09 497.74,-271.32 505.69,-270.56"/>
<polygon fill="#63b8ff" stroke="#63b8ff" points="481.53,-269.35 471.91,-273.79 482.2,-276.32 481.53,-269.35"/>
</a>
</g>
</g>
<!-- Node10 -->
<g id="Node000010" class="node">
<title>Node10</title>
<g id="a_Node000010"><a xlink:href="classcom_1_1fs_1_1starfarer_1_1api_1_1impl_1_1campaign_1_1intel_1_1events_1_1SindrianDiktatStandardActivityCause.html" target="_top" xlink:title=" ">
<polygon fill="white" stroke="#666666" points="723,-226.5 506,-226.5 506,-196 723,-196 723,-226.5"/>
<text text-anchor="start" x="514" y="-213" font-family="Helvetica,sans-Serif" font-size="10.00">com.fs.starfarer.api.impl.campaign.intel.events.</text>
<text text-anchor="middle" x="614.5" y="-201.75" font-family="Helvetica,sans-Serif" font-size="10.00">SindrianDiktatStandardActivityCause</text>
</a>
</g>
</g>
<!-- Node1&#45;&gt;Node10 -->
<g id="edge9_Node000001_Node000010" class="edge">
<title>Node1&#45;&gt;Node10</title>
<g id="a_edge9_Node000001_Node000010"><a xlink:title=" ">
<path fill="none" stroke="#63b8ff" d="M416.49,-264.85C443.23,-255.58 476.12,-244.7 506,-236.25 517.43,-233.02 529.63,-229.88 541.56,-226.99"/>
<polygon fill="#63b8ff" stroke="#63b8ff" points="415.53,-261.48 407.24,-268.08 417.84,-268.09 415.53,-261.48"/>
</a>
</g>
</g>
<!-- Node11 -->
<g id="Node000011" class="node">
<title>Node11</title>
<g id="a_Node000011"><a xlink:href="classcom_1_1fs_1_1starfarer_1_1api_1_1impl_1_1campaign_1_1intel_1_1events_1_1StandardLuddicPathActivityCause2.html" target="_top" xlink:title=" ">
<polygon fill="white" stroke="#666666" points="723,-177.5 506,-177.5 506,-147 723,-147 723,-177.5"/>
<text text-anchor="start" x="514" y="-164" font-family="Helvetica,sans-Serif" font-size="10.00">com.fs.starfarer.api.impl.campaign.intel.events.</text>
<text text-anchor="middle" x="614.5" y="-152.75" font-family="Helvetica,sans-Serif" font-size="10.00">StandardLuddicPathActivityCause2</text>
</a>
</g>
</g>
<!-- Node1&#45;&gt;Node11 -->
<g id="edge10_Node000001_Node000011" class="edge">
<title>Node1&#45;&gt;Node11</title>
<g id="a_edge10_Node000001_Node000011"><a xlink:title=" ">
<path fill="none" stroke="#63b8ff" d="M389.34,-261.64C416.92,-239.54 461.92,-206.48 506,-187.25 514.17,-183.69 522.91,-180.59 531.76,-177.92"/>
<polygon fill="#63b8ff" stroke="#63b8ff" points="387.41,-258.7 381.86,-267.73 391.82,-264.14 387.41,-258.7"/>
</a>
</g>
</g>
<!-- Node12 -->
<g id="Node000012" class="node">
<title>Node12</title>
<g id="a_Node000012"><a xlink:href="classcom_1_1fs_1_1starfarer_1_1api_1_1impl_1_1campaign_1_1intel_1_1events_1_1StandardPerseanLeagueActivityCause.html" target="_top" xlink:title=" ">
<polygon fill="white" stroke="#666666" points="723,-128.5 506,-128.5 506,-98 723,-98 723,-128.5"/>
<text text-anchor="start" x="514" y="-115" font-family="Helvetica,sans-Serif" font-size="10.00">com.fs.starfarer.api.impl.campaign.intel.events.</text>
<text text-anchor="middle" x="614.5" y="-103.75" font-family="Helvetica,sans-Serif" font-size="10.00">StandardPerseanLeagueActivityCause</text>
</a>
</g>
</g>
<!-- Node1&#45;&gt;Node12 -->
<g id="edge11_Node000001_Node000012" class="edge">
<title>Node1&#45;&gt;Node12</title>
<g id="a_edge11_Node000001_Node000012"><a xlink:title=" ">
<path fill="none" stroke="#63b8ff" d="M379.56,-259.67C403.77,-226.76 451.27,-168.95 506,-138.25 512.43,-134.64 519.36,-131.55 526.5,-128.91"/>
<polygon fill="#63b8ff" stroke="#63b8ff" points="376.99,-257.26 373.98,-267.42 382.67,-261.35 376.99,-257.26"/>
</a>
</g>
</g>
<!-- Node13 -->
<g id="Node000013" class="node">
<title>Node13</title>
<g id="a_Node000013"><a xlink:href="classcom_1_1fs_1_1starfarer_1_1api_1_1impl_1_1campaign_1_1intel_1_1events_1_1StandardPirateActivityCause2.html" target="_top" xlink:title=" ">
<polygon fill="white" stroke="#666666" points="723,-79.5 506,-79.5 506,-49 723,-49 723,-79.5"/>
<text text-anchor="start" x="514" y="-66" font-family="Helvetica,sans-Serif" font-size="10.00">com.fs.starfarer.api.impl.campaign.intel.events.</text>
<text text-anchor="middle" x="614.5" y="-54.75" font-family="Helvetica,sans-Serif" font-size="10.00">StandardPirateActivityCause2</text>
</a>
</g>
</g>
<!-- Node1&#45;&gt;Node13 -->
<g id="edge12_Node000001_Node000013" class="edge">
<title>Node1&#45;&gt;Node13</title>
<g id="a_edge12_Node000001_Node000013"><a xlink:title=" ">
<path fill="none" stroke="#63b8ff" d="M374.06,-258.37C394.37,-216.02 440.59,-132.34 506,-89.25 511.44,-85.67 517.33,-82.59 523.46,-79.96"/>
<polygon fill="#63b8ff" stroke="#63b8ff" points="370.95,-256.76 369.88,-267.3 377.29,-259.72 370.95,-256.76"/>
</a>
</g>
</g>
<!-- Node14 -->
<g id="Node000014" class="node">
<title>Node14</title>
<g id="a_Node000014"><a xlink:href="classcom_1_1fs_1_1starfarer_1_1api_1_1impl_1_1campaign_1_1intel_1_1events_1_1TriTachyonStandardActivityCause.html" target="_top" xlink:title=" ">
<polygon fill="white" stroke="#666666" points="723,-30.5 506,-30.5 506,0 723,0 723,-30.5"/>
<text text-anchor="start" x="514" y="-17" font-family="Helvetica,sans-Serif" font-size="10.00">com.fs.starfarer.api.impl.campaign.intel.events.</text>
<text text-anchor="middle" x="614.5" y="-5.75" font-family="Helvetica,sans-Serif" font-size="10.00">TriTachyonStandardActivityCause</text>
</a>
</g>
</g>
<!-- Node1&#45;&gt;Node14 -->
<g id="edge13_Node000001_Node000014" class="edge">
<title>Node1&#45;&gt;Node14</title>
<g id="a_edge13_Node000001_Node000014"><a xlink:title=" ">
<path fill="none" stroke="#63b8ff" d="M370.29,-257.78C386.61,-207.14 429.38,-96.56 506,-40.25 510.86,-36.68 516.16,-33.6 521.7,-30.96"/>
<polygon fill="#63b8ff" stroke="#63b8ff" points="366.95,-256.71 367.32,-267.3 373.63,-258.8 366.95,-256.71"/>
</a>
</g>
</g>
<!-- Node2 -->
<g id="Node000002" class="node">
<title>Node2</title>
<g id="a_Node000002"><a xlink:href="interfacecom_1_1fs_1_1starfarer_1_1api_1_1impl_1_1campaign_1_1intel_1_1events_1_1HostileActivityCause2.html" target="_top" xlink:title=" ">
<polygon fill="white" stroke="#666666" points="217,-299.5 0,-299.5 0,-269 217,-269 217,-299.5"/>
<text text-anchor="start" x="8" y="-286" font-family="Helvetica,sans-Serif" font-size="10.00">com.fs.starfarer.api.impl.campaign.intel.events.</text>
<text text-anchor="middle" x="108.5" y="-274.75" font-family="Helvetica,sans-Serif" font-size="10.00">HostileActivityCause2</text>
</a>
</g>
</g>
<!-- Node2&#45;&gt;Node1 -->
<g id="edge1_Node000001_Node000002" class="edge">
<title>Node2&#45;&gt;Node1</title>
<g id="a_edge1_Node000001_Node000002"><a xlink:title=" ">
<path fill="none" stroke="#63b8ff" d="M228.69,-284.25C236.7,-284.25 244.74,-284.25 252.69,-284.25"/>
<polygon fill="#63b8ff" stroke="#63b8ff" points="228.92,-280.75 218.92,-284.25 228.92,-287.75 228.92,-280.75"/>
</a>
</g>
</g>
</g>
</svg>
