<?xml version="1.0" encoding="UTF-8" standalone="no"?>
<!DOCTYPE svg PUBLIC "-//W3C//DTD SVG 1.1//EN"
 "http://www.w3.org/Graphics/SVG/1.1/DTD/svg11.dtd">
<!-- Generated by graphviz version 12.2.0 (20241103.1931)
 -->
<!-- Title: com.fs.starfarer.api.impl.campaign.events.InvestigationEventCommSniffer Pages: 1 -->
<svg width="1121pt" height="88pt"
 viewBox="0.00 0.00 1120.75 87.50" xmlns="http://www.w3.org/2000/svg" xmlns:xlink="http://www.w3.org/1999/xlink">
<g id="graph0" class="graph" transform="scale(1 1) rotate(0) translate(4 83.5)">
<title>com.fs.starfarer.api.impl.campaign.events.InvestigationEventCommSniffer</title>
<!-- Node1 -->
<g id="Node000001" class="node">
<title>Node1</title>
<g id="a_Node000001"><a xlink:title=" ">
<polygon fill="#999999" stroke="#666666" points="1112.75,-54.5 916,-54.5 916,-24 1112.75,-24 1112.75,-54.5"/>
<text text-anchor="start" x="924" y="-41" font-family="Helvetica,sans-Serif" font-size="10.00">com.fs.starfarer.api.impl.campaign.events.</text>
<text text-anchor="middle" x="1014.38" y="-29.75" font-family="Helvetica,sans-Serif" font-size="10.00">InvestigationEventCommSniffer</text>
</a>
</g>
</g>
<!-- Node2 -->
<g id="Node000002" class="node">
<title>Node2</title>
<g id="a_Node000002"><a xlink:href="classcom_1_1fs_1_1starfarer_1_1api_1_1impl_1_1campaign_1_1events_1_1InvestigationEvent.html" target="_top" xlink:title=" ">
<polygon fill="white" stroke="#666666" points="880,-54.5 683.25,-54.5 683.25,-24 880,-24 880,-54.5"/>
<text text-anchor="start" x="691.25" y="-41" font-family="Helvetica,sans-Serif" font-size="10.00">com.fs.starfarer.api.impl.campaign.events.</text>
<text text-anchor="middle" x="781.62" y="-29.75" font-family="Helvetica,sans-Serif" font-size="10.00">InvestigationEvent</text>
</a>
</g>
</g>
<!-- Node2&#45;&gt;Node1 -->
<g id="edge1_Node000001_Node000002" class="edge">
<title>Node2&#45;&gt;Node1</title>
<g id="a_edge1_Node000001_Node000002"><a xlink:title=" ">
<path fill="none" stroke="#63b8ff" d="M891.76,-39.25C899.76,-39.25 907.8,-39.25 915.73,-39.25"/>
<polygon fill="#63b8ff" stroke="#63b8ff" points="892,-35.75 882,-39.25 892,-42.75 892,-35.75"/>
</a>
</g>
</g>
<!-- Node3 -->
<g id="Node000003" class="node">
<title>Node3</title>
<g id="a_Node000003"><a xlink:href="classcom_1_1fs_1_1starfarer_1_1api_1_1impl_1_1campaign_1_1events_1_1BaseEventPlugin.html" target="_top" xlink:title=" ">
<polygon fill="white" stroke="#666666" points="647.25,-54.5 450.5,-54.5 450.5,-24 647.25,-24 647.25,-54.5"/>
<text text-anchor="start" x="458.5" y="-41" font-family="Helvetica,sans-Serif" font-size="10.00">com.fs.starfarer.api.impl.campaign.events.</text>
<text text-anchor="middle" x="548.88" y="-29.75" font-family="Helvetica,sans-Serif" font-size="10.00">BaseEventPlugin</text>
</a>
</g>
</g>
<!-- Node3&#45;&gt;Node2 -->
<g id="edge2_Node000002_Node000003" class="edge">
<title>Node3&#45;&gt;Node2</title>
<g id="a_edge2_Node000002_Node000003"><a xlink:title=" ">
<path fill="none" stroke="#63b8ff" d="M659.01,-39.25C667.01,-39.25 675.05,-39.25 682.98,-39.25"/>
<polygon fill="#63b8ff" stroke="#63b8ff" points="659.25,-35.75 649.25,-39.25 659.25,-42.75 659.25,-35.75"/>
</a>
</g>
</g>
<!-- Node4 -->
<g id="Node000004" class="node">
<title>Node4</title>
<g id="a_Node000004"><a xlink:href="interfacecom_1_1fs_1_1starfarer_1_1api_1_1campaign_1_1events_1_1CampaignEventPlugin.html" target="_top" xlink:title=" ">
<polygon fill="white" stroke="#666666" points="414.5,-79.5 238,-79.5 238,-49 414.5,-49 414.5,-79.5"/>
<text text-anchor="start" x="246" y="-66" font-family="Helvetica,sans-Serif" font-size="10.00">com.fs.starfarer.api.campaign.events.</text>
<text text-anchor="middle" x="326.25" y="-54.75" font-family="Helvetica,sans-Serif" font-size="10.00">CampaignEventPlugin</text>
</a>
</g>
</g>
<!-- Node4&#45;&gt;Node3 -->
<g id="edge3_Node000003_Node000004" class="edge">
<title>Node4&#45;&gt;Node3</title>
<g id="a_edge3_Node000003_Node000004"><a xlink:title=" ">
<path fill="none" stroke="#63b8ff" d="M426.07,-53.05C434.12,-52.14 442.25,-51.22 450.29,-50.31"/>
<polygon fill="#63b8ff" stroke="#63b8ff" points="425.81,-49.56 416.27,-54.16 426.6,-56.51 425.81,-49.56"/>
</a>
</g>
</g>
<!-- Node5 -->
<g id="Node000005" class="node">
<title>Node5</title>
<g id="a_Node000005"><a xlink:title=" ">
<polygon fill="white" stroke="#666666" points="202,-79.5 0,-79.5 0,-49 202,-49 202,-79.5"/>
<text text-anchor="start" x="8" y="-66" font-family="Helvetica,sans-Serif" font-size="10.00">com.fs.starfarer.api.impl.campaign.rulecmd.</text>
<text text-anchor="middle" x="101" y="-54.75" font-family="Helvetica,sans-Serif" font-size="10.00">CallEvent.CallableEvent</text>
</a>
</g>
</g>
<!-- Node5&#45;&gt;Node4 -->
<g id="edge4_Node000004_Node000005" class="edge">
<title>Node5&#45;&gt;Node4</title>
<g id="a_edge4_Node000004_Node000005"><a xlink:title=" ">
<path fill="none" stroke="#63b8ff" d="M213.59,-64.25C221.67,-64.25 229.74,-64.25 237.65,-64.25"/>
<polygon fill="#63b8ff" stroke="#63b8ff" points="213.71,-60.75 203.71,-64.25 213.71,-67.75 213.71,-60.75"/>
</a>
</g>
</g>
<!-- Node6 -->
<g id="Node000006" class="node">
<title>Node6</title>
<g id="a_Node000006"><a xlink:href="interfacecom_1_1fs_1_1starfarer_1_1api_1_1campaign_1_1CampaignEventListener.html" target="_top" xlink:title=" ">
<polygon fill="white" stroke="#666666" points="398.75,-30.5 253.75,-30.5 253.75,0 398.75,0 398.75,-30.5"/>
<text text-anchor="start" x="261.75" y="-17" font-family="Helvetica,sans-Serif" font-size="10.00">com.fs.starfarer.api.campaign.</text>
<text text-anchor="middle" x="326.25" y="-5.75" font-family="Helvetica,sans-Serif" font-size="10.00">CampaignEventListener</text>
</a>
</g>
</g>
<!-- Node6&#45;&gt;Node3 -->
<g id="edge5_Node000003_Node000006" class="edge">
<title>Node6&#45;&gt;Node3</title>
<g id="a_edge5_Node000003_Node000006"><a xlink:title=" ">
<path fill="none" stroke="#63b8ff" d="M410.47,-24.3C423.5,-25.72 437.06,-27.2 450.37,-28.64"/>
<polygon fill="#63b8ff" stroke="#63b8ff" points="411.01,-20.84 400.69,-23.24 410.25,-27.8 411.01,-20.84"/>
</a>
</g>
</g>
</g>
</svg>
