<?xml version="1.0" encoding="UTF-8" standalone="no"?>
<!DOCTYPE svg PUBLIC "-//W3C//DTD SVG 1.1//EN"
 "http://www.w3.org/Graphics/SVG/1.1/DTD/svg11.dtd">
<!-- Generated by graphviz version 2.44.0 ()
 -->
<!-- Title: com.fs.starfarer.api.impl.campaign.abilities.GraviticScanData Pages: 1 -->
<svg width="1292pt" height="293pt"
 viewBox="0.00 0.00 1292.00 293.00" xmlns="http://www.w3.org/2000/svg" xmlns:xlink="http://www.w3.org/1999/xlink">
<g id="graph0" class="graph" transform="scale(1 1) rotate(0) translate(4 289)">
<title>com.fs.starfarer.api.impl.campaign.abilities.GraviticScanData</title>
<!-- Node1 -->
<g id="node1" class="node">
<title>Node1</title>
<g id="a_node1"><a xlink:title=" ">
<polygon fill="#bfbfbf" stroke="black" points="814,-49.5 814,-79.5 1015,-79.5 1015,-49.5 814,-49.5"/>
<text text-anchor="start" x="822" y="-67.5" font-family="Helvetica,sans-Serif" font-size="10.00">com.fs.starfarer.api.impl.campaign.abilities.</text>
<text text-anchor="middle" x="914.5" y="-56.5" font-family="Helvetica,sans-Serif" font-size="10.00">GraviticScanData</text>
</a>
</g>
</g>
<!-- Node5 -->
<g id="node5" class="node">
<title>Node5</title>
<g id="a_node5"><a xlink:href="classcom_1_1fs_1_1starfarer_1_1api_1_1impl_1_1campaign_1_1abilities_1_1GraviticScanAbility.html" target="_top" xlink:title=" ">
<polygon fill="none" stroke="black" points="1083,-90.5 1083,-120.5 1284,-120.5 1284,-90.5 1083,-90.5"/>
<text text-anchor="start" x="1091" y="-108.5" font-family="Helvetica,sans-Serif" font-size="10.00">com.fs.starfarer.api.impl.campaign.abilities.</text>
<text text-anchor="middle" x="1183.5" y="-97.5" font-family="Helvetica,sans-Serif" font-size="10.00">GraviticScanAbility</text>
</a>
</g>
</g>
<!-- Node1&#45;&gt;Node5 -->
<g id="edge13" class="edge">
<title>Node1&#45;&gt;Node5</title>
<path fill="none" stroke="#9a32cd" stroke-dasharray="5,2" d="M1023.56,-81.09C1043.75,-84.19 1064.75,-87.42 1084.61,-90.47"/>
<polygon fill="#9a32cd" stroke="#9a32cd" points="1023.82,-77.59 1013.4,-79.53 1022.76,-84.51 1023.82,-77.59"/>
<text text-anchor="middle" x="1049" y="-89.5" font-family="Helvetica,sans-Serif" font-size="10.00"> data</text>
</g>
<!-- Node2 -->
<g id="node2" class="node">
<title>Node2</title>
<g id="a_node2"><a xlink:title=" ">
<polygon fill="none" stroke="#bfbfbf" points="516,-98.5 516,-128.5 686,-128.5 686,-98.5 516,-98.5"/>
<text text-anchor="start" x="524" y="-116.5" font-family="Helvetica,sans-Serif" font-size="10.00">List&lt; com.fs.starfarer.api.campaign.</text>
<text text-anchor="middle" x="601" y="-105.5" font-family="Helvetica,sans-Serif" font-size="10.00">SectorEntityToken &gt;</text>
</a>
</g>
</g>
<!-- Node2&#45;&gt;Node1 -->
<g id="edge1" class="edge">
<title>Node2&#45;&gt;Node1</title>
<path fill="none" stroke="#9a32cd" stroke-dasharray="5,2" d="M696.48,-98.64C735.02,-92.58 779.51,-85.58 818.14,-79.5"/>
<polygon fill="#9a32cd" stroke="#9a32cd" points="695.63,-95.23 686.3,-100.24 696.72,-102.14 695.63,-95.23"/>
<text text-anchor="middle" x="764" y="-94.5" font-family="Helvetica,sans-Serif" font-size="10.00"> special</text>
</g>
<!-- Node3 -->
<g id="node3" class="node">
<title>Node3</title>
<g id="a_node3"><a xlink:title=" ">
<polygon fill="none" stroke="#bfbfbf" points="488,-49.5 488,-79.5 714,-79.5 714,-49.5 488,-49.5"/>
<text text-anchor="start" x="496" y="-67.5" font-family="Helvetica,sans-Serif" font-size="10.00">List&lt; com.fs.starfarer.api.impl.campaign.abilities.</text>
<text text-anchor="middle" x="601" y="-56.5" font-family="Helvetica,sans-Serif" font-size="10.00">GraviticScanData.GSPing &gt;</text>
</a>
</g>
</g>
<!-- Node3&#45;&gt;Node1 -->
<g id="edge2" class="edge">
<title>Node3&#45;&gt;Node1</title>
<path fill="none" stroke="#9a32cd" stroke-dasharray="5,2" d="M724.04,-64.5C753.79,-64.5 785.27,-64.5 813.84,-64.5"/>
<polygon fill="#9a32cd" stroke="#9a32cd" points="724.02,-61 714.02,-64.5 724.02,-68 724.02,-61"/>
<text text-anchor="middle" x="764" y="-67.5" font-family="Helvetica,sans-Serif" font-size="10.00"> pings</text>
</g>
<!-- Node4 -->
<g id="node4" class="node">
<title>Node4</title>
<g id="a_node4"><a xlink:href="classcom_1_1fs_1_1starfarer_1_1api_1_1util_1_1IntervalUtil.html" target="_top" xlink:title=" ">
<polygon fill="none" stroke="black" points="543,-0.5 543,-30.5 659,-30.5 659,-0.5 543,-0.5"/>
<text text-anchor="start" x="551" y="-18.5" font-family="Helvetica,sans-Serif" font-size="10.00">com.fs.starfarer.api.util.</text>
<text text-anchor="middle" x="601" y="-7.5" font-family="Helvetica,sans-Serif" font-size="10.00">IntervalUtil</text>
</a>
</g>
</g>
<!-- Node4&#45;&gt;Node1 -->
<g id="edge3" class="edge">
<title>Node4&#45;&gt;Node1</title>
<path fill="none" stroke="#9a32cd" stroke-dasharray="5,2" d="M669.37,-21.82C706.8,-25.75 754.12,-31.4 796,-38.5 813.92,-41.54 833.23,-45.51 850.92,-49.44"/>
<polygon fill="#9a32cd" stroke="#9a32cd" points="669.4,-18.3 659.09,-20.76 668.68,-25.26 669.4,-18.3"/>
<text text-anchor="middle" x="764" y="-52.5" font-family="Helvetica,sans-Serif" font-size="10.00"> planetInterval</text>
<text text-anchor="middle" x="764" y="-41.5" font-family="Helvetica,sans-Serif" font-size="10.00">specialInterval</text>
</g>
<!-- Node5&#45;&gt;Node1 -->
<g id="edge4" class="edge">
<title>Node5&#45;&gt;Node1</title>
<path fill="none" stroke="#9a32cd" stroke-dasharray="5,2" d="M1146.6,-85.74C1123.94,-74.43 1093.64,-61.34 1065,-55.5 1049.08,-52.25 1032.02,-51.13 1015.33,-51.28"/>
<polygon fill="#9a32cd" stroke="#9a32cd" points="1145.01,-88.86 1155.51,-90.3 1148.2,-82.63 1145.01,-88.86"/>
<text text-anchor="middle" x="1049" y="-58.5" font-family="Helvetica,sans-Serif" font-size="10.00"> ability</text>
</g>
<!-- Node6 -->
<g id="node6" class="node">
<title>Node6</title>
<g id="a_node6"><a xlink:href="classcom_1_1fs_1_1starfarer_1_1api_1_1impl_1_1campaign_1_1abilities_1_1BaseToggleAbility.html" target="_top" xlink:title=" ">
<polygon fill="none" stroke="black" points="814,-156.5 814,-186.5 1015,-186.5 1015,-156.5 814,-156.5"/>
<text text-anchor="start" x="822" y="-174.5" font-family="Helvetica,sans-Serif" font-size="10.00">com.fs.starfarer.api.impl.campaign.abilities.</text>
<text text-anchor="middle" x="914.5" y="-163.5" font-family="Helvetica,sans-Serif" font-size="10.00">BaseToggleAbility</text>
</a>
</g>
</g>
<!-- Node6&#45;&gt;Node5 -->
<g id="edge5" class="edge">
<title>Node6&#45;&gt;Node5</title>
<path fill="none" stroke="midnightblue" d="M987.97,-154.1C997.08,-151.89 1006.26,-149.65 1015,-147.5 1050.81,-138.69 1090.87,-128.65 1122.84,-120.6"/>
<polygon fill="midnightblue" stroke="midnightblue" points="987.05,-150.72 978.15,-156.48 988.7,-157.53 987.05,-150.72"/>
</g>
<!-- Node7 -->
<g id="node7" class="node">
<title>Node7</title>
<g id="a_node7"><a xlink:href="classcom_1_1fs_1_1starfarer_1_1api_1_1impl_1_1campaign_1_1abilities_1_1BaseAbilityPlugin.html" target="_top" xlink:title=" ">
<polygon fill="none" stroke="black" points="500.5,-156.5 500.5,-186.5 701.5,-186.5 701.5,-156.5 500.5,-156.5"/>
<text text-anchor="start" x="508.5" y="-174.5" font-family="Helvetica,sans-Serif" font-size="10.00">com.fs.starfarer.api.impl.campaign.abilities.</text>
<text text-anchor="middle" x="601" y="-163.5" font-family="Helvetica,sans-Serif" font-size="10.00">BaseAbilityPlugin</text>
</a>
</g>
</g>
<!-- Node7&#45;&gt;Node6 -->
<g id="edge6" class="edge">
<title>Node7&#45;&gt;Node6</title>
<path fill="none" stroke="midnightblue" d="M712.04,-171.5C745.24,-171.5 781.48,-171.5 813.95,-171.5"/>
<polygon fill="midnightblue" stroke="midnightblue" points="711.85,-168 701.85,-171.5 711.85,-175 711.85,-168"/>
</g>
<!-- Node8 -->
<g id="node8" class="node">
<title>Node8</title>
<g id="a_node8"><a xlink:href="interfacecom_1_1fs_1_1starfarer_1_1api_1_1characters_1_1AbilityPlugin.html" target="_top" xlink:title=" ">
<polygon fill="none" stroke="black" points="206,-254.5 206,-284.5 355,-284.5 355,-254.5 206,-254.5"/>
<text text-anchor="start" x="214" y="-272.5" font-family="Helvetica,sans-Serif" font-size="10.00">com.fs.starfarer.api.characters.</text>
<text text-anchor="middle" x="280.5" y="-261.5" font-family="Helvetica,sans-Serif" font-size="10.00">AbilityPlugin</text>
</a>
</g>
</g>
<!-- Node8&#45;&gt;Node7 -->
<g id="edge7" class="edge">
<title>Node8&#45;&gt;Node7</title>
<path fill="none" stroke="midnightblue" d="M341.6,-251.52C378.65,-240.39 427.12,-225.74 470,-212.5 497.47,-204.01 528.15,-194.35 552.8,-186.53"/>
<polygon fill="midnightblue" stroke="midnightblue" points="340.53,-248.19 331.95,-254.42 342.54,-254.9 340.53,-248.19"/>
</g>
<!-- Node9 -->
<g id="node9" class="node">
<title>Node9</title>
<g id="a_node9"><a xlink:href="interfacecom_1_1fs_1_1starfarer_1_1api_1_1EveryFrameScript.html" target="_top" xlink:title=" ">
<polygon fill="none" stroke="black" points="218,-205.5 218,-235.5 343,-235.5 343,-205.5 218,-205.5"/>
<text text-anchor="start" x="226" y="-223.5" font-family="Helvetica,sans-Serif" font-size="10.00">com.fs.starfarer.api.Every</text>
<text text-anchor="middle" x="280.5" y="-212.5" font-family="Helvetica,sans-Serif" font-size="10.00">FrameScript</text>
</a>
</g>
</g>
<!-- Node9&#45;&gt;Node7 -->
<g id="edge8" class="edge">
<title>Node9&#45;&gt;Node7</title>
<path fill="none" stroke="midnightblue" d="M353.33,-209.45C397.35,-202.68 454.27,-193.92 502.35,-186.52"/>
<polygon fill="midnightblue" stroke="midnightblue" points="352.64,-206.01 343.29,-210.99 353.7,-212.93 352.64,-206.01"/>
</g>
<!-- Node10 -->
<g id="node10" class="node">
<title>Node10</title>
<g id="a_node10"><a xlink:href="interfacecom_1_1fs_1_1starfarer_1_1api_1_1loading_1_1AbilitySpecAPI.html" target="_top" xlink:title=" ">
<polygon fill="none" stroke="black" points="213.5,-156.5 213.5,-186.5 347.5,-186.5 347.5,-156.5 213.5,-156.5"/>
<text text-anchor="start" x="221.5" y="-174.5" font-family="Helvetica,sans-Serif" font-size="10.00">com.fs.starfarer.api.loading.</text>
<text text-anchor="middle" x="280.5" y="-163.5" font-family="Helvetica,sans-Serif" font-size="10.00">AbilitySpecAPI</text>
</a>
</g>
</g>
<!-- Node10&#45;&gt;Node7 -->
<g id="edge9" class="edge">
<title>Node10&#45;&gt;Node7</title>
<path fill="none" stroke="#9a32cd" stroke-dasharray="5,2" d="M357.94,-171.5C400.67,-171.5 454.42,-171.5 500.42,-171.5"/>
<polygon fill="#9a32cd" stroke="#9a32cd" points="357.88,-168 347.88,-171.5 357.88,-175 357.88,-168"/>
<text text-anchor="middle" x="421.5" y="-174.5" font-family="Helvetica,sans-Serif" font-size="10.00"> spec</text>
</g>
<!-- Node11 -->
<g id="node11" class="node">
<title>Node11</title>
<g id="a_node11"><a xlink:title=" ">
<polygon fill="none" stroke="#bfbfbf" points="261,-118 261,-137 300,-137 300,-118 261,-118"/>
<text text-anchor="middle" x="280.5" y="-125" font-family="Helvetica,sans-Serif" font-size="10.00">Color</text>
</a>
</g>
</g>
<!-- Node11&#45;&gt;Node7 -->
<g id="edge10" class="edge">
<title>Node11&#45;&gt;Node7</title>
<path fill="none" stroke="#9a32cd" stroke-dasharray="5,2" d="M310.17,-131.46C352.66,-137.33 434.43,-148.63 500.31,-157.73"/>
<polygon fill="#9a32cd" stroke="#9a32cd" points="310.39,-127.96 300,-130.06 309.43,-134.89 310.39,-127.96"/>
<text text-anchor="middle" x="421.5" y="-155.5" font-family="Helvetica,sans-Serif" font-size="10.00"> defaultCooldownColor</text>
</g>
<!-- Node12 -->
<g id="node12" class="node">
<title>Node12</title>
<g id="a_node12"><a xlink:href="interfacecom_1_1fs_1_1starfarer_1_1api_1_1campaign_1_1SectorEntityToken.html" target="_top" xlink:title=" ">
<polygon fill="none" stroke="black" points="207.5,-68.5 207.5,-98.5 353.5,-98.5 353.5,-68.5 207.5,-68.5"/>
<text text-anchor="start" x="215.5" y="-86.5" font-family="Helvetica,sans-Serif" font-size="10.00">com.fs.starfarer.api.campaign.</text>
<text text-anchor="middle" x="280.5" y="-75.5" font-family="Helvetica,sans-Serif" font-size="10.00">SectorEntityToken</text>
</a>
</g>
</g>
<!-- Node12&#45;&gt;Node7 -->
<g id="edge11" class="edge">
<title>Node12&#45;&gt;Node7</title>
<path fill="none" stroke="#9a32cd" stroke-dasharray="5,2" d="M363.4,-94.28C397.39,-100.64 436.6,-110.49 470,-125.5 479,-129.55 479.14,-134.15 488,-138.5 502.74,-145.73 519.37,-151.69 535.21,-156.46"/>
<polygon fill="#9a32cd" stroke="#9a32cd" points="363.96,-90.83 353.5,-92.5 362.72,-97.72 363.96,-90.83"/>
<text text-anchor="middle" x="421.5" y="-128.5" font-family="Helvetica,sans-Serif" font-size="10.00"> entity</text>
</g>
<!-- Node13 -->
<g id="node13" class="node">
<title>Node13</title>
<g id="a_node13"><a xlink:href="interfacecom_1_1fs_1_1starfarer_1_1api_1_1campaign_1_1rules_1_1HasMemory.html" target="_top" xlink:title=" ">
<polygon fill="none" stroke="black" points="0,-68.5 0,-98.5 169,-98.5 169,-68.5 0,-68.5"/>
<text text-anchor="start" x="8" y="-86.5" font-family="Helvetica,sans-Serif" font-size="10.00">com.fs.starfarer.api.campaign.rules.</text>
<text text-anchor="middle" x="84.5" y="-75.5" font-family="Helvetica,sans-Serif" font-size="10.00">HasMemory</text>
</a>
</g>
</g>
<!-- Node13&#45;&gt;Node12 -->
<g id="edge12" class="edge">
<title>Node13&#45;&gt;Node12</title>
<path fill="none" stroke="midnightblue" d="M179.36,-83.5C188.78,-83.5 198.23,-83.5 207.37,-83.5"/>
<polygon fill="midnightblue" stroke="midnightblue" points="179.18,-80 169.18,-83.5 179.18,-87 179.18,-80"/>
</g>
<!-- Node14 -->
<g id="node14" class="node">
<title>Node14</title>
<g id="a_node14"><a xlink:href="interfacecom_1_1fs_1_1starfarer_1_1api_1_1graphics_1_1SpriteAPI.html" target="_top" xlink:title=" ">
<polygon fill="none" stroke="black" points="844.5,-107.5 844.5,-137.5 984.5,-137.5 984.5,-107.5 844.5,-107.5"/>
<text text-anchor="start" x="852.5" y="-125.5" font-family="Helvetica,sans-Serif" font-size="10.00">com.fs.starfarer.api.graphics.</text>
<text text-anchor="middle" x="914.5" y="-114.5" font-family="Helvetica,sans-Serif" font-size="10.00">SpriteAPI</text>
</a>
</g>
</g>
<!-- Node14&#45;&gt;Node5 -->
<g id="edge14" class="edge">
<title>Node14&#45;&gt;Node5</title>
<path fill="none" stroke="#9a32cd" stroke-dasharray="5,2" d="M994.61,-117.46C1022.25,-115.7 1053.64,-113.7 1082.75,-111.85"/>
<polygon fill="#9a32cd" stroke="#9a32cd" points="994.36,-113.97 984.61,-118.1 994.81,-120.96 994.36,-113.97"/>
<text text-anchor="middle" x="1049" y="-117.5" font-family="Helvetica,sans-Serif" font-size="10.00"> texture</text>
</g>
</g>
</svg>
