<?xml version="1.0" encoding="UTF-8" standalone="no"?>
<!DOCTYPE svg PUBLIC "-//W3C//DTD SVG 1.1//EN"
 "http://www.w3.org/Graphics/SVG/1.1/DTD/svg11.dtd">
<!-- Generated by graphviz version 2.44.0 ()
 -->
<!-- Title: com.fs.starfarer.api.impl.campaign.intel.punitive.PEAvertInteractionDialogPluginImpl Pages: 1 -->
<svg width="2617pt" height="888pt"
 viewBox="0.00 0.00 2617.00 888.00" xmlns="http://www.w3.org/2000/svg" xmlns:xlink="http://www.w3.org/1999/xlink">
<g id="graph0" class="graph" transform="scale(1 1) rotate(0) translate(4 884)">
<title>com.fs.starfarer.api.impl.campaign.intel.punitive.PEAvertInteractionDialogPluginImpl</title>
<!-- Node1 -->
<g id="node1" class="node">
<title>Node1</title>
<g id="a_node1"><a xlink:title=" ">
<polygon fill="#bfbfbf" stroke="black" points="2387,-220.5 2387,-250.5 2609,-250.5 2609,-220.5 2387,-220.5"/>
<text text-anchor="start" x="2395" y="-238.5" font-family="Helvetica,sans-Serif" font-size="10.00">com.fs.starfarer.api.impl.campaign.intel.punitive.</text>
<text text-anchor="middle" x="2498" y="-227.5" font-family="Helvetica,sans-Serif" font-size="10.00">PEAvertInteractionDialogPluginImpl</text>
</a>
</g>
</g>
<!-- Node2 -->
<g id="node2" class="node">
<title>Node2</title>
<g id="a_node2"><a xlink:href="interfacecom_1_1fs_1_1starfarer_1_1api_1_1campaign_1_1InteractionDialogPlugin.html" target="_top" xlink:title=" ">
<polygon fill="none" stroke="black" points="2097,-642.5 2097,-672.5 2243,-672.5 2243,-642.5 2097,-642.5"/>
<text text-anchor="start" x="2105" y="-660.5" font-family="Helvetica,sans-Serif" font-size="10.00">com.fs.starfarer.api.campaign.</text>
<text text-anchor="middle" x="2170" y="-649.5" font-family="Helvetica,sans-Serif" font-size="10.00">InteractionDialogPlugin</text>
</a>
</g>
</g>
<!-- Node2&#45;&gt;Node1 -->
<g id="edge1" class="edge">
<title>Node2&#45;&gt;Node1</title>
<path fill="none" stroke="midnightblue" d="M2253.08,-644.08C2293.83,-633.19 2340.35,-613.59 2369,-578.5 2455.62,-472.4 2487.11,-301.87 2494.91,-250.57"/>
<polygon fill="midnightblue" stroke="midnightblue" points="2251.96,-640.75 2243.13,-646.6 2253.68,-647.54 2251.96,-640.75"/>
</g>
<!-- Node3 -->
<g id="node3" class="node">
<title>Node3</title>
<g id="a_node3"><a xlink:href="interfacecom_1_1fs_1_1starfarer_1_1api_1_1ui_1_1IntelUIAPI.html" target="_top" xlink:title=" ">
<polygon fill="none" stroke="black" points="2114.5,-593.5 2114.5,-623.5 2225.5,-623.5 2225.5,-593.5 2114.5,-593.5"/>
<text text-anchor="start" x="2122.5" y="-611.5" font-family="Helvetica,sans-Serif" font-size="10.00">com.fs.starfarer.api.ui.</text>
<text text-anchor="middle" x="2170" y="-600.5" font-family="Helvetica,sans-Serif" font-size="10.00">IntelUIAPI</text>
</a>
</g>
</g>
<!-- Node3&#45;&gt;Node1 -->
<g id="edge2" class="edge">
<title>Node3&#45;&gt;Node1</title>
<path fill="none" stroke="#9a32cd" stroke-dasharray="5,2" d="M2235.53,-603.3C2251.45,-599.72 2267.72,-593.9 2281,-584.5 2407.52,-494.99 2474.97,-305.66 2492.4,-250.73"/>
<polygon fill="#9a32cd" stroke="#9a32cd" points="2234.83,-599.87 2225.7,-605.25 2236.19,-606.74 2234.83,-599.87"/>
<text text-anchor="middle" x="2334" y="-566.5" font-family="Helvetica,sans-Serif" font-size="10.00"> ui</text>
</g>
<!-- Node4 -->
<g id="node4" class="node">
<title>Node4</title>
<g id="a_node4"><a xlink:href="interfacecom_1_1fs_1_1starfarer_1_1api_1_1campaign_1_1CampaignFleetAPI.html" target="_top" xlink:title=" ">
<polygon fill="none" stroke="black" points="581,-289.5 581,-319.5 727,-319.5 727,-289.5 581,-289.5"/>
<text text-anchor="start" x="589" y="-307.5" font-family="Helvetica,sans-Serif" font-size="10.00">com.fs.starfarer.api.campaign.</text>
<text text-anchor="middle" x="654" y="-296.5" font-family="Helvetica,sans-Serif" font-size="10.00">CampaignFleetAPI</text>
</a>
</g>
</g>
<!-- Node4&#45;&gt;Node1 -->
<g id="edge3" class="edge">
<title>Node4&#45;&gt;Node1</title>
<path fill="none" stroke="#9a32cd" stroke-dasharray="5,2" d="M737.1,-304.5C792.45,-304.5 867.12,-304.5 933,-304.5 933,-304.5 933,-304.5 2171,-304.5 2274.41,-304.5 2392.35,-270.86 2454.11,-250.56"/>
<polygon fill="#9a32cd" stroke="#9a32cd" points="737,-301 727,-304.5 737,-308 737,-301"/>
<text text-anchor="middle" x="1552.5" y="-307.5" font-family="Helvetica,sans-Serif" font-size="10.00"> playerFleet</text>
</g>
<!-- Node5 -->
<g id="node5" class="node">
<title>Node5</title>
<g id="a_node5"><a xlink:href="interfacecom_1_1fs_1_1starfarer_1_1api_1_1campaign_1_1SectorEntityToken.html" target="_top" xlink:title=" ">
<polygon fill="none" stroke="black" points="252,-341.5 252,-371.5 398,-371.5 398,-341.5 252,-341.5"/>
<text text-anchor="start" x="260" y="-359.5" font-family="Helvetica,sans-Serif" font-size="10.00">com.fs.starfarer.api.campaign.</text>
<text text-anchor="middle" x="325" y="-348.5" font-family="Helvetica,sans-Serif" font-size="10.00">SectorEntityToken</text>
</a>
</g>
</g>
<!-- Node5&#45;&gt;Node4 -->
<g id="edge4" class="edge">
<title>Node5&#45;&gt;Node4</title>
<path fill="none" stroke="midnightblue" d="M408.23,-343.42C461.32,-334.98 529.74,-324.1 580.74,-315.99"/>
<polygon fill="midnightblue" stroke="midnightblue" points="407.49,-340 398.17,-345.02 408.59,-346.91 407.49,-340"/>
</g>
<!-- Node16 -->
<g id="node16" class="node">
<title>Node16</title>
<g id="a_node16"><a xlink:href="classcom_1_1fs_1_1starfarer_1_1api_1_1impl_1_1campaign_1_1intel_1_1BaseIntelPlugin.html" target="_top" xlink:title=" ">
<polygon fill="none" stroke="black" points="561,-397.5 561,-427.5 747,-427.5 747,-397.5 561,-397.5"/>
<text text-anchor="start" x="569" y="-415.5" font-family="Helvetica,sans-Serif" font-size="10.00">com.fs.starfarer.api.impl.campaign.intel.</text>
<text text-anchor="middle" x="654" y="-404.5" font-family="Helvetica,sans-Serif" font-size="10.00">BaseIntelPlugin</text>
</a>
</g>
</g>
<!-- Node5&#45;&gt;Node16 -->
<g id="edge20" class="edge">
<title>Node5&#45;&gt;Node16</title>
<path fill="none" stroke="#9a32cd" stroke-dasharray="5,2" d="M408.19,-370.58C456.09,-378.78 516.49,-389.12 565.31,-397.48"/>
<polygon fill="#9a32cd" stroke="#9a32cd" points="408.61,-367.1 398.17,-368.86 407.43,-374 408.61,-367.1"/>
<text text-anchor="middle" x="498" y="-393.5" font-family="Helvetica,sans-Serif" font-size="10.00"> postingLocation</text>
</g>
<!-- Node6 -->
<g id="node6" class="node">
<title>Node6</title>
<g id="a_node6"><a xlink:href="interfacecom_1_1fs_1_1starfarer_1_1api_1_1campaign_1_1rules_1_1HasMemory.html" target="_top" xlink:title=" ">
<polygon fill="none" stroke="black" points="0,-581.5 0,-611.5 169,-611.5 169,-581.5 0,-581.5"/>
<text text-anchor="start" x="8" y="-599.5" font-family="Helvetica,sans-Serif" font-size="10.00">com.fs.starfarer.api.campaign.rules.</text>
<text text-anchor="middle" x="84.5" y="-588.5" font-family="Helvetica,sans-Serif" font-size="10.00">HasMemory</text>
</a>
</g>
</g>
<!-- Node6&#45;&gt;Node5 -->
<g id="edge5" class="edge">
<title>Node6&#45;&gt;Node5</title>
<path fill="none" stroke="midnightblue" d="M92.01,-571.74C105.29,-526.36 139.97,-430.08 206,-381.5 219.32,-371.7 235.66,-365.56 251.89,-361.77"/>
<polygon fill="midnightblue" stroke="midnightblue" points="88.64,-570.79 89.29,-581.37 95.38,-572.69 88.64,-570.79"/>
</g>
<!-- Node23 -->
<g id="node23" class="node">
<title>Node23</title>
<g id="a_node23"><a xlink:href="interfacecom_1_1fs_1_1starfarer_1_1api_1_1campaign_1_1FactionAPI.html" target="_top" xlink:title=" ">
<polygon fill="none" stroke="black" points="581,-573.5 581,-603.5 727,-603.5 727,-573.5 581,-573.5"/>
<text text-anchor="start" x="589" y="-591.5" font-family="Helvetica,sans-Serif" font-size="10.00">com.fs.starfarer.api.campaign.</text>
<text text-anchor="middle" x="654" y="-580.5" font-family="Helvetica,sans-Serif" font-size="10.00">FactionAPI</text>
</a>
</g>
</g>
<!-- Node6&#45;&gt;Node23 -->
<g id="edge24" class="edge">
<title>Node6&#45;&gt;Node23</title>
<path fill="none" stroke="midnightblue" d="M179.57,-595.17C292.26,-593.59 478.57,-590.96 580.63,-589.52"/>
<polygon fill="midnightblue" stroke="midnightblue" points="179.19,-591.68 169.24,-595.32 179.28,-598.68 179.19,-591.68"/>
</g>
<!-- Node32 -->
<g id="node32" class="node">
<title>Node32</title>
<g id="a_node32"><a xlink:href="interfacecom_1_1fs_1_1starfarer_1_1api_1_1campaign_1_1econ_1_1MarketAPI.html" target="_top" xlink:title=" ">
<polygon fill="none" stroke="black" points="1468,-647.5 1468,-677.5 1637,-677.5 1637,-647.5 1468,-647.5"/>
<text text-anchor="start" x="1476" y="-665.5" font-family="Helvetica,sans-Serif" font-size="10.00">com.fs.starfarer.api.campaign.econ.</text>
<text text-anchor="middle" x="1552.5" y="-654.5" font-family="Helvetica,sans-Serif" font-size="10.00">MarketAPI</text>
</a>
</g>
</g>
<!-- Node6&#45;&gt;Node32 -->
<g id="edge36" class="edge">
<title>Node6&#45;&gt;Node32</title>
<path fill="none" stroke="midnightblue" d="M103.87,-619.23C140.72,-662.06 228.38,-750.5 324,-750.5 324,-750.5 324,-750.5 1237,-750.5 1343.88,-750.5 1463.88,-702.79 1519.73,-677.63"/>
<polygon fill="midnightblue" stroke="midnightblue" points="106.51,-616.93 97.39,-611.55 101.16,-621.45 106.51,-616.93"/>
</g>
<!-- Node7 -->
<g id="node7" class="node">
<title>Node7</title>
<g id="a_node7"><a xlink:href="interfacecom_1_1fs_1_1starfarer_1_1api_1_1campaign_1_1FleetOrStubAPI.html" target="_top" xlink:title=" ">
<polygon fill="none" stroke="black" points="252,-243.5 252,-273.5 398,-273.5 398,-243.5 252,-243.5"/>
<text text-anchor="start" x="260" y="-261.5" font-family="Helvetica,sans-Serif" font-size="10.00">com.fs.starfarer.api.campaign.</text>
<text text-anchor="middle" x="325" y="-250.5" font-family="Helvetica,sans-Serif" font-size="10.00">FleetOrStubAPI</text>
</a>
</g>
</g>
<!-- Node7&#45;&gt;Node4 -->
<g id="edge6" class="edge">
<title>Node7&#45;&gt;Node4</title>
<path fill="none" stroke="midnightblue" d="M408.23,-270.07C461.32,-277.54 529.74,-287.16 580.74,-294.33"/>
<polygon fill="midnightblue" stroke="midnightblue" points="408.56,-266.58 398.17,-268.65 407.58,-273.51 408.56,-266.58"/>
</g>
<!-- Node8 -->
<g id="node8" class="node">
<title>Node8</title>
<g id="a_node8"><a xlink:href="interfacecom_1_1fs_1_1starfarer_1_1api_1_1campaign_1_1OptionPanelAPI.html" target="_top" xlink:title=" ">
<polygon fill="none" stroke="black" points="2097,-245.5 2097,-275.5 2243,-275.5 2243,-245.5 2097,-245.5"/>
<text text-anchor="start" x="2105" y="-263.5" font-family="Helvetica,sans-Serif" font-size="10.00">com.fs.starfarer.api.campaign.</text>
<text text-anchor="middle" x="2170" y="-252.5" font-family="Helvetica,sans-Serif" font-size="10.00">OptionPanelAPI</text>
</a>
</g>
</g>
<!-- Node8&#45;&gt;Node1 -->
<g id="edge7" class="edge">
<title>Node8&#45;&gt;Node1</title>
<path fill="none" stroke="#9a32cd" stroke-dasharray="5,2" d="M2253.43,-254.18C2293.85,-251.08 2343.11,-247.3 2386.72,-243.96"/>
<polygon fill="#9a32cd" stroke="#9a32cd" points="2253.05,-250.7 2243.35,-254.95 2253.59,-257.68 2253.05,-250.7"/>
<text text-anchor="middle" x="2334" y="-252.5" font-family="Helvetica,sans-Serif" font-size="10.00"> options</text>
</g>
<!-- Node9 -->
<g id="node9" class="node">
<title>Node9</title>
<g id="a_node9"><a xlink:href="interfacecom_1_1fs_1_1starfarer_1_1api_1_1campaign_1_1TextPanelAPI.html" target="_top" xlink:title=" ">
<polygon fill="none" stroke="black" points="2097,-196.5 2097,-226.5 2243,-226.5 2243,-196.5 2097,-196.5"/>
<text text-anchor="start" x="2105" y="-214.5" font-family="Helvetica,sans-Serif" font-size="10.00">com.fs.starfarer.api.campaign.</text>
<text text-anchor="middle" x="2170" y="-203.5" font-family="Helvetica,sans-Serif" font-size="10.00">TextPanelAPI</text>
</a>
</g>
</g>
<!-- Node9&#45;&gt;Node1 -->
<g id="edge8" class="edge">
<title>Node9&#45;&gt;Node1</title>
<path fill="none" stroke="#9a32cd" stroke-dasharray="5,2" d="M2253.43,-217.57C2293.85,-220.54 2343.11,-224.17 2386.72,-227.38"/>
<polygon fill="#9a32cd" stroke="#9a32cd" points="2253.58,-214.07 2243.35,-216.83 2253.07,-221.05 2253.58,-214.07"/>
<text text-anchor="middle" x="2334" y="-228.5" font-family="Helvetica,sans-Serif" font-size="10.00"> textPanel</text>
</g>
<!-- Node10 -->
<g id="node10" class="node">
<title>Node10</title>
<g id="a_node10"><a xlink:title=" ">
<polygon fill="none" stroke="#bfbfbf" points="2059,-147.5 2059,-177.5 2281,-177.5 2281,-147.5 2059,-147.5"/>
<text text-anchor="start" x="2067" y="-165.5" font-family="Helvetica,sans-Serif" font-size="10.00">com.fs.starfarer.api.impl.campaign.intel.punitive.</text>
<text text-anchor="middle" x="2170" y="-154.5" font-family="Helvetica,sans-Serif" font-size="10.00">PEAvertInteractionDialogPluginImpl.OptionId</text>
</a>
</g>
</g>
<!-- Node10&#45;&gt;Node1 -->
<g id="edge9" class="edge">
<title>Node10&#45;&gt;Node1</title>
<path fill="none" stroke="#9a32cd" stroke-dasharray="5,2" d="M2251.57,-179.69C2287.54,-187.44 2330.42,-196.79 2369,-205.5 2390.15,-210.27 2413.23,-215.64 2433.9,-220.49"/>
<polygon fill="#9a32cd" stroke="#9a32cd" points="2252.14,-176.23 2241.62,-177.54 2250.66,-183.07 2252.14,-176.23"/>
<text text-anchor="middle" x="2334" y="-208.5" font-family="Helvetica,sans-Serif" font-size="10.00"> beingConfirmed</text>
</g>
<!-- Node11 -->
<g id="node11" class="node">
<title>Node11</title>
<g id="a_node11"><a xlink:href="interfacecom_1_1fs_1_1starfarer_1_1api_1_1campaign_1_1InteractionDialogAPI.html" target="_top" xlink:title=" ">
<polygon fill="none" stroke="black" points="2097,-98.5 2097,-128.5 2243,-128.5 2243,-98.5 2097,-98.5"/>
<text text-anchor="start" x="2105" y="-116.5" font-family="Helvetica,sans-Serif" font-size="10.00">com.fs.starfarer.api.campaign.</text>
<text text-anchor="middle" x="2170" y="-105.5" font-family="Helvetica,sans-Serif" font-size="10.00">InteractionDialogAPI</text>
</a>
</g>
</g>
<!-- Node11&#45;&gt;Node1 -->
<g id="edge10" class="edge">
<title>Node11&#45;&gt;Node1</title>
<path fill="none" stroke="#9a32cd" stroke-dasharray="5,2" d="M2252.98,-130.46C2262.49,-132.92 2272,-135.61 2281,-138.5 2350.86,-160.94 2428.31,-199.24 2468.81,-220.38"/>
<polygon fill="#9a32cd" stroke="#9a32cd" points="2253.64,-127.02 2243.09,-127.98 2251.94,-133.81 2253.64,-127.02"/>
<text text-anchor="middle" x="2334" y="-173.5" font-family="Helvetica,sans-Serif" font-size="10.00"> dialog</text>
</g>
<!-- Node12 -->
<g id="node12" class="node">
<title>Node12</title>
<g id="a_node12"><a xlink:href="interfacecom_1_1fs_1_1starfarer_1_1api_1_1campaign_1_1VisualPanelAPI.html" target="_top" xlink:title=" ">
<polygon fill="none" stroke="black" points="2097,-49.5 2097,-79.5 2243,-79.5 2243,-49.5 2097,-49.5"/>
<text text-anchor="start" x="2105" y="-67.5" font-family="Helvetica,sans-Serif" font-size="10.00">com.fs.starfarer.api.campaign.</text>
<text text-anchor="middle" x="2170" y="-56.5" font-family="Helvetica,sans-Serif" font-size="10.00">VisualPanelAPI</text>
</a>
</g>
</g>
<!-- Node12&#45;&gt;Node1 -->
<g id="edge11" class="edge">
<title>Node12&#45;&gt;Node1</title>
<path fill="none" stroke="#9a32cd" stroke-dasharray="5,2" d="M2253.06,-81.21C2262.56,-83.71 2272.05,-86.48 2281,-89.5 2321.71,-103.22 2332.58,-106.71 2369,-129.5 2413.03,-157.05 2458.42,-198.26 2481.5,-220.3"/>
<polygon fill="#9a32cd" stroke="#9a32cd" points="2253.74,-77.77 2243.18,-78.69 2252.01,-84.55 2253.74,-77.77"/>
<text text-anchor="middle" x="2334" y="-132.5" font-family="Helvetica,sans-Serif" font-size="10.00"> visual</text>
</g>
<!-- Node13 -->
<g id="node13" class="node">
<title>Node13</title>
<g id="a_node13"><a xlink:href="enumcom_1_1fs_1_1starfarer_1_1api_1_1campaign_1_1RepLevel.html" target="_top" xlink:title=" ">
<polygon fill="none" stroke="black" points="2097,-0.5 2097,-30.5 2243,-30.5 2243,-0.5 2097,-0.5"/>
<text text-anchor="start" x="2105" y="-18.5" font-family="Helvetica,sans-Serif" font-size="10.00">com.fs.starfarer.api.campaign.</text>
<text text-anchor="middle" x="2170" y="-7.5" font-family="Helvetica,sans-Serif" font-size="10.00">RepLevel</text>
</a>
</g>
</g>
<!-- Node13&#45;&gt;Node1 -->
<g id="edge12" class="edge">
<title>Node13&#45;&gt;Node1</title>
<path fill="none" stroke="#9a32cd" stroke-dasharray="5,2" d="M2253.42,-29.52C2291.46,-39.09 2335.51,-54.85 2369,-80.5 2423.03,-121.88 2469.02,-190.15 2487.86,-220.34"/>
<polygon fill="#9a32cd" stroke="#9a32cd" points="2253.91,-26.04 2243.37,-27.1 2252.27,-32.84 2253.91,-26.04"/>
<text text-anchor="middle" x="2334" y="-83.5" font-family="Helvetica,sans-Serif" font-size="10.00"> MIN_REP</text>
</g>
<!-- Node14 -->
<g id="node14" class="node">
<title>Node14</title>
<g id="a_node14"><a xlink:href="classcom_1_1fs_1_1starfarer_1_1api_1_1impl_1_1campaign_1_1intel_1_1punitive_1_1PunitiveExpeditionIntel.html" target="_top" xlink:title=" ">
<polygon fill="none" stroke="black" points="2059,-544.5 2059,-574.5 2281,-574.5 2281,-544.5 2059,-544.5"/>
<text text-anchor="start" x="2067" y="-562.5" font-family="Helvetica,sans-Serif" font-size="10.00">com.fs.starfarer.api.impl.campaign.intel.punitive.</text>
<text text-anchor="middle" x="2170" y="-551.5" font-family="Helvetica,sans-Serif" font-size="10.00">PunitiveExpeditionIntel</text>
</a>
</g>
</g>
<!-- Node14&#45;&gt;Node1 -->
<g id="edge13" class="edge">
<title>Node14&#45;&gt;Node1</title>
<path fill="none" stroke="#9a32cd" stroke-dasharray="5,2" d="M2193.67,-536.97C2256.08,-474.94 2429.28,-302.8 2481.75,-250.66"/>
<polygon fill="#9a32cd" stroke="#9a32cd" points="2190.91,-534.78 2186.29,-544.31 2195.85,-539.74 2190.91,-534.78"/>
<text text-anchor="middle" x="2334" y="-429.5" font-family="Helvetica,sans-Serif" font-size="10.00"> intel</text>
</g>
<!-- Node15 -->
<g id="node15" class="node">
<title>Node15</title>
<g id="a_node15"><a xlink:href="classcom_1_1fs_1_1starfarer_1_1api_1_1impl_1_1campaign_1_1intel_1_1raid_1_1RaidIntel.html" target="_top" xlink:title=" ">
<polygon fill="none" stroke="black" points="832,-480.5 832,-510.5 1036,-510.5 1036,-480.5 832,-480.5"/>
<text text-anchor="start" x="840" y="-498.5" font-family="Helvetica,sans-Serif" font-size="10.00">com.fs.starfarer.api.impl.campaign.intel.raid.</text>
<text text-anchor="middle" x="934" y="-487.5" font-family="Helvetica,sans-Serif" font-size="10.00">RaidIntel</text>
</a>
</g>
</g>
<!-- Node15&#45;&gt;Node14 -->
<g id="edge14" class="edge">
<title>Node15&#45;&gt;Node14</title>
<path fill="none" stroke="midnightblue" d="M1007.92,-512.65C1068.39,-525.36 1156.8,-540.5 1235,-540.5 1235,-540.5 1235,-540.5 1851,-540.5 1920.13,-540.5 1997.57,-545.03 2058.72,-549.67"/>
<polygon fill="midnightblue" stroke="midnightblue" points="1008.6,-509.21 998.09,-510.55 1007.14,-516.06 1008.6,-509.21"/>
</g>
<!-- Node36 -->
<g id="node36" class="node">
<title>Node36</title>
<g id="a_node36"><a xlink:href="classcom_1_1fs_1_1starfarer_1_1api_1_1impl_1_1campaign_1_1intel_1_1raid_1_1BaseRaidStage.html" target="_top" xlink:title=" ">
<polygon fill="none" stroke="black" points="1134,-383.5 1134,-413.5 1338,-413.5 1338,-383.5 1134,-383.5"/>
<text text-anchor="start" x="1142" y="-401.5" font-family="Helvetica,sans-Serif" font-size="10.00">com.fs.starfarer.api.impl.campaign.intel.raid.</text>
<text text-anchor="middle" x="1236" y="-390.5" font-family="Helvetica,sans-Serif" font-size="10.00">BaseRaidStage</text>
</a>
</g>
</g>
<!-- Node15&#45;&gt;Node36 -->
<g id="edge42" class="edge">
<title>Node15&#45;&gt;Node36</title>
<path fill="none" stroke="#9a32cd" stroke-dasharray="5,2" d="M1013.06,-477.93C1020.84,-475.88 1028.6,-473.73 1036,-471.5 1093.44,-454.21 1158.41,-429.34 1198.03,-413.56"/>
<polygon fill="#9a32cd" stroke="#9a32cd" points="1012.02,-474.58 1003.2,-480.46 1013.76,-481.36 1012.02,-474.58"/>
<text text-anchor="middle" x="1085" y="-467.5" font-family="Helvetica,sans-Serif" font-size="10.00"> intel</text>
</g>
<!-- Node16&#45;&gt;Node15 -->
<g id="edge15" class="edge">
<title>Node16&#45;&gt;Node15</title>
<path fill="none" stroke="midnightblue" d="M732.57,-430.2C740.54,-432.47 748.47,-434.91 756,-437.5 790.99,-449.55 796.96,-459.61 832,-471.5 841.64,-474.77 851.95,-477.77 862.16,-480.45"/>
<polygon fill="midnightblue" stroke="midnightblue" points="733.42,-426.81 722.85,-427.53 731.57,-433.56 733.42,-426.81"/>
</g>
<!-- Node17 -->
<g id="node17" class="node">
<title>Node17</title>
<g id="a_node17"><a xlink:href="interfacecom_1_1fs_1_1starfarer_1_1api_1_1campaign_1_1comm_1_1IntelInfoPlugin.html" target="_top" xlink:title=" ">
<polygon fill="none" stroke="black" points="237.5,-488.5 237.5,-518.5 412.5,-518.5 412.5,-488.5 237.5,-488.5"/>
<text text-anchor="start" x="245.5" y="-506.5" font-family="Helvetica,sans-Serif" font-size="10.00">com.fs.starfarer.api.campaign.comm.</text>
<text text-anchor="middle" x="325" y="-495.5" font-family="Helvetica,sans-Serif" font-size="10.00">IntelInfoPlugin</text>
</a>
</g>
</g>
<!-- Node17&#45;&gt;Node16 -->
<g id="edge16" class="edge">
<title>Node17&#45;&gt;Node16</title>
<path fill="none" stroke="midnightblue" d="M418.43,-486.19C427.12,-484.11 435.75,-481.88 444,-479.5 485.08,-467.65 494.45,-461.75 534,-445.5 542.1,-442.17 543.72,-440.34 552,-437.5 562.59,-433.87 573.98,-430.53 585.15,-427.55"/>
<polygon fill="midnightblue" stroke="midnightblue" points="417.57,-482.79 408.62,-488.46 419.15,-489.61 417.57,-482.79"/>
</g>
<!-- Node18 -->
<g id="node18" class="node">
<title>Node18</title>
<g id="a_node18"><a xlink:title=" ">
<polygon fill="none" stroke="#bfbfbf" points="223.5,-439.5 223.5,-469.5 426.5,-469.5 426.5,-439.5 223.5,-439.5"/>
<text text-anchor="start" x="231.5" y="-457.5" font-family="Helvetica,sans-Serif" font-size="10.00">com.fs.starfarer.api.impl.campaign.rulecmd.</text>
<text text-anchor="middle" x="325" y="-446.5" font-family="Helvetica,sans-Serif" font-size="10.00">CallEvent.CallableEvent</text>
</a>
</g>
</g>
<!-- Node18&#45;&gt;Node16 -->
<g id="edge17" class="edge">
<title>Node18&#45;&gt;Node16</title>
<path fill="none" stroke="midnightblue" d="M436.92,-440.25C477.26,-435.07 522.37,-429.28 560.9,-424.33"/>
<polygon fill="midnightblue" stroke="midnightblue" points="436.25,-436.81 426.78,-441.56 437.14,-443.75 436.25,-436.81"/>
</g>
<!-- Node19 -->
<g id="node19" class="node">
<title>Node19</title>
<g id="a_node19"><a xlink:href="interfacecom_1_1fs_1_1starfarer_1_1api_1_1EveryFrameScript.html" target="_top" xlink:title=" ">
<polygon fill="none" stroke="black" points="262.5,-390.5 262.5,-420.5 387.5,-420.5 387.5,-390.5 262.5,-390.5"/>
<text text-anchor="start" x="270.5" y="-408.5" font-family="Helvetica,sans-Serif" font-size="10.00">com.fs.starfarer.api.Every</text>
<text text-anchor="middle" x="325" y="-397.5" font-family="Helvetica,sans-Serif" font-size="10.00">FrameScript</text>
</a>
</g>
</g>
<!-- Node19&#45;&gt;Node16 -->
<g id="edge18" class="edge">
<title>Node19&#45;&gt;Node16</title>
<path fill="none" stroke="midnightblue" d="M397.8,-407.04C445.73,-408.06 509.2,-409.42 560.85,-410.53"/>
<polygon fill="midnightblue" stroke="midnightblue" points="397.58,-403.53 387.51,-406.82 397.43,-410.53 397.58,-403.53"/>
</g>
<!-- Node20 -->
<g id="node20" class="node">
<title>Node20</title>
<g id="a_node20"><a xlink:title=" ">
<polygon fill="none" stroke="#bfbfbf" points="206,-537.5 206,-567.5 444,-567.5 444,-537.5 206,-537.5"/>
<text text-anchor="start" x="214" y="-555.5" font-family="Helvetica,sans-Serif" font-size="10.00">com.fs.starfarer.api.impl.campaign.</text>
<text text-anchor="middle" x="325" y="-544.5" font-family="Helvetica,sans-Serif" font-size="10.00">CommRelayEntityPlugin.CommSnifferReadableIntel</text>
</a>
</g>
</g>
<!-- Node20&#45;&gt;Node16 -->
<g id="edge19" class="edge">
<title>Node20&#45;&gt;Node16</title>
<path fill="none" stroke="midnightblue" d="M426.16,-534.69C432.26,-532.82 438.25,-530.76 444,-528.5 487.63,-511.35 502.29,-508.02 534,-473.5 546.1,-460.33 538.03,-448.68 552,-437.5 556.8,-433.66 562.1,-430.4 567.69,-427.64"/>
<polygon fill="midnightblue" stroke="midnightblue" points="425.14,-531.34 416.5,-537.48 427.08,-538.07 425.14,-531.34"/>
</g>
<!-- Node21 -->
<g id="node21" class="node">
<title>Node21</title>
<g id="a_node21"><a xlink:title=" ">
<polygon fill="none" stroke="#bfbfbf" points="558.5,-446.5 558.5,-476.5 749.5,-476.5 749.5,-446.5 558.5,-446.5"/>
<text text-anchor="start" x="566.5" y="-464.5" font-family="Helvetica,sans-Serif" font-size="10.00">com.fs.starfarer.api.impl.campaign.fleets.</text>
<text text-anchor="middle" x="654" y="-453.5" font-family="Helvetica,sans-Serif" font-size="10.00">RouteManager.RouteFleetSpawner</text>
</a>
</g>
</g>
<!-- Node21&#45;&gt;Node15 -->
<g id="edge21" class="edge">
<title>Node21&#45;&gt;Node15</title>
<path fill="none" stroke="midnightblue" d="M759.53,-474.28C783.13,-477.17 808.15,-480.23 831.62,-483.1"/>
<polygon fill="midnightblue" stroke="midnightblue" points="759.86,-470.8 749.51,-473.06 759.01,-477.75 759.86,-470.8"/>
</g>
<!-- Node22 -->
<g id="node22" class="node">
<title>Node22</title>
<g id="a_node22"><a xlink:title=" ">
<polygon fill="none" stroke="#bfbfbf" points="552,-657.5 552,-687.5 756,-687.5 756,-657.5 552,-657.5"/>
<text text-anchor="start" x="560" y="-675.5" font-family="Helvetica,sans-Serif" font-size="10.00">com.fs.starfarer.api.impl.campaign.intel.raid.</text>
<text text-anchor="middle" x="654" y="-664.5" font-family="Helvetica,sans-Serif" font-size="10.00">RaidIntel.RaidDelegate</text>
</a>
</g>
</g>
<!-- Node22&#45;&gt;Node14 -->
<g id="edge28" class="edge">
<title>Node22&#45;&gt;Node14</title>
<path fill="none" stroke="midnightblue" d="M731.58,-689.52C787.18,-700.41 864.37,-712.5 933,-712.5 933,-712.5 933,-712.5 1851,-712.5 1941.3,-712.5 1982.2,-709.04 2041,-640.5 2058.02,-620.66 2039.72,-602.16 2059,-584.5 2063.19,-580.66 2067.84,-577.38 2072.79,-574.56"/>
<polygon fill="midnightblue" stroke="midnightblue" points="731.95,-686.03 721.46,-687.51 730.58,-692.89 731.95,-686.03"/>
</g>
<!-- Node22&#45;&gt;Node15 -->
<g id="edge22" class="edge">
<title>Node22&#45;&gt;Node15</title>
<path fill="none" stroke="#9a32cd" stroke-dasharray="5,2" d="M690.69,-652.34C710.16,-641.17 734.59,-626.87 756,-613.5 812.85,-577.99 878.06,-533.52 911.2,-510.64"/>
<polygon fill="#9a32cd" stroke="#9a32cd" points="688.78,-649.4 681.84,-657.4 692.26,-655.47 688.78,-649.4"/>
<text text-anchor="middle" x="794" y="-603.5" font-family="Helvetica,sans-Serif" font-size="10.00"> delegate</text>
</g>
<!-- Node23&#45;&gt;Node14 -->
<g id="edge31" class="edge">
<title>Node23&#45;&gt;Node14</title>
<path fill="none" stroke="#9a32cd" stroke-dasharray="5,2" d="M737.3,-586.92C992.3,-582.04 1769.36,-567.15 2058.81,-561.61"/>
<polygon fill="#9a32cd" stroke="#9a32cd" points="736.94,-583.43 727,-587.12 737.07,-590.43 736.94,-583.43"/>
<text text-anchor="middle" x="1386" y="-577.5" font-family="Helvetica,sans-Serif" font-size="10.00"> targetFaction</text>
</g>
<!-- Node23&#45;&gt;Node15 -->
<g id="edge23" class="edge">
<title>Node23&#45;&gt;Node15</title>
<path fill="none" stroke="#9a32cd" stroke-dasharray="5,2" d="M689.43,-568.55C712.67,-555.82 744.4,-539.82 774,-529.5 796.12,-521.79 820.61,-515.5 843.61,-510.53"/>
<polygon fill="#9a32cd" stroke="#9a32cd" points="687.69,-565.52 680.65,-573.43 691.09,-571.64 687.69,-565.52"/>
<text text-anchor="middle" x="794" y="-532.5" font-family="Helvetica,sans-Serif" font-size="10.00"> faction</text>
</g>
<!-- Node24 -->
<g id="node24" class="node">
<title>Node24</title>
<g id="a_node24"><a xlink:href="interfacecom_1_1fs_1_1starfarer_1_1api_1_1campaign_1_1StarSystemAPI.html" target="_top" xlink:title=" ">
<polygon fill="none" stroke="black" points="581,-343.5 581,-373.5 727,-373.5 727,-343.5 581,-343.5"/>
<text text-anchor="start" x="589" y="-361.5" font-family="Helvetica,sans-Serif" font-size="10.00">com.fs.starfarer.api.campaign.</text>
<text text-anchor="middle" x="654" y="-350.5" font-family="Helvetica,sans-Serif" font-size="10.00">StarSystemAPI</text>
</a>
</g>
</g>
<!-- Node24&#45;&gt;Node15 -->
<g id="edge25" class="edge">
<title>Node24&#45;&gt;Node15</title>
<path fill="none" stroke="#9a32cd" stroke-dasharray="5,2" d="M726.9,-376.68C736.88,-380.12 746.83,-384.05 756,-388.5 784.4,-402.29 794.15,-404.96 814,-429.5 826.77,-445.29 816.46,-458.42 832,-471.5 836,-474.87 840.39,-477.78 845.03,-480.29"/>
<polygon fill="#9a32cd" stroke="#9a32cd" points="727.96,-373.35 717.36,-373.55 725.77,-380 727.96,-373.35"/>
<text text-anchor="middle" x="794" y="-432.5" font-family="Helvetica,sans-Serif" font-size="10.00"> system</text>
</g>
<!-- Node25 -->
<g id="node25" class="node">
<title>Node25</title>
<g id="a_node25"><a xlink:href="interfacecom_1_1fs_1_1starfarer_1_1api_1_1campaign_1_1LocationAPI.html" target="_top" xlink:title=" ">
<polygon fill="none" stroke="black" points="252,-292.5 252,-322.5 398,-322.5 398,-292.5 252,-292.5"/>
<text text-anchor="start" x="260" y="-310.5" font-family="Helvetica,sans-Serif" font-size="10.00">com.fs.starfarer.api.campaign.</text>
<text text-anchor="middle" x="325" y="-299.5" font-family="Helvetica,sans-Serif" font-size="10.00">LocationAPI</text>
</a>
</g>
</g>
<!-- Node25&#45;&gt;Node24 -->
<g id="edge26" class="edge">
<title>Node25&#45;&gt;Node24</title>
<path fill="none" stroke="midnightblue" d="M408.23,-320.33C461.32,-328.6 529.74,-339.28 580.74,-347.23"/>
<polygon fill="midnightblue" stroke="midnightblue" points="408.59,-316.84 398.17,-318.76 407.51,-323.75 408.59,-316.84"/>
</g>
<!-- Node26 -->
<g id="node26" class="node">
<title>Node26</title>
<g id="a_node26"><a xlink:title=" ">
<polygon fill="none" stroke="#bfbfbf" points="606.5,-496 606.5,-515 701.5,-515 701.5,-496 606.5,-496"/>
<text text-anchor="middle" x="654" y="-503" font-family="Helvetica,sans-Serif" font-size="10.00">List&lt; RaidStage &gt;</text>
</a>
</g>
</g>
<!-- Node26&#45;&gt;Node15 -->
<g id="edge27" class="edge">
<title>Node26&#45;&gt;Node15</title>
<path fill="none" stroke="#9a32cd" stroke-dasharray="5,2" d="M711.62,-499.77C731.34,-498.03 753.63,-496.35 774,-495.5 792.62,-494.72 812.47,-494.35 831.61,-494.23"/>
<polygon fill="#9a32cd" stroke="#9a32cd" points="711.21,-496.29 701.57,-500.68 711.84,-503.26 711.21,-496.29"/>
<text text-anchor="middle" x="794" y="-498.5" font-family="Helvetica,sans-Serif" font-size="10.00"> stages</text>
</g>
<!-- Node27 -->
<g id="node27" class="node">
<title>Node27</title>
<g id="a_node27"><a xlink:title=" ">
<polygon fill="none" stroke="#bfbfbf" points="1739,-358.5 1739,-388.5 1961,-388.5 1961,-358.5 1739,-358.5"/>
<text text-anchor="start" x="1747" y="-376.5" font-family="Helvetica,sans-Serif" font-size="10.00">com.fs.starfarer.api.impl.campaign.intel.punitive.</text>
<text text-anchor="middle" x="1850" y="-365.5" font-family="Helvetica,sans-Serif" font-size="10.00">PunitiveExpeditionManager.PunExReason</text>
</a>
</g>
</g>
<!-- Node27&#45;&gt;Node14 -->
<g id="edge29" class="edge">
<title>Node27&#45;&gt;Node14</title>
<path fill="none" stroke="#9a32cd" stroke-dasharray="5,2" d="M1903.73,-392.18C1942.93,-407.09 1997.01,-429.85 2041,-456.5 2084.67,-482.96 2129.85,-522.77 2153.08,-544.33"/>
<polygon fill="#9a32cd" stroke="#9a32cd" points="1904.7,-388.8 1894.1,-388.56 1902.23,-395.36 1904.7,-388.8"/>
<text text-anchor="middle" x="2010" y="-459.5" font-family="Helvetica,sans-Serif" font-size="10.00"> bestReason</text>
</g>
<!-- Node28 -->
<g id="node28" class="node">
<title>Node28</title>
<g id="a_node28"><a xlink:title=" ">
<polygon fill="none" stroke="#bfbfbf" points="1441.5,-334.5 1441.5,-364.5 1663.5,-364.5 1663.5,-334.5 1441.5,-334.5"/>
<text text-anchor="start" x="1449.5" y="-352.5" font-family="Helvetica,sans-Serif" font-size="10.00">com.fs.starfarer.api.impl.campaign.intel.punitive.</text>
<text text-anchor="middle" x="1552.5" y="-341.5" font-family="Helvetica,sans-Serif" font-size="10.00">PunitiveExpeditionManager.PunExType</text>
</a>
</g>
</g>
<!-- Node28&#45;&gt;Node27 -->
<g id="edge30" class="edge">
<title>Node28&#45;&gt;Node27</title>
<path fill="none" stroke="#9a32cd" stroke-dasharray="5,2" d="M1673.71,-359.26C1695.26,-361.01 1717.62,-362.83 1738.87,-364.56"/>
<polygon fill="#9a32cd" stroke="#9a32cd" points="1673.78,-355.76 1663.53,-358.44 1673.22,-362.73 1673.78,-355.76"/>
<text text-anchor="middle" x="1705" y="-365.5" font-family="Helvetica,sans-Serif" font-size="10.00"> type</text>
</g>
<!-- Node29 -->
<g id="node29" class="node">
<title>Node29</title>
<g id="a_node29"><a xlink:title=" ">
<polygon fill="none" stroke="#bfbfbf" points="1739,-849.5 1739,-879.5 1961,-879.5 1961,-849.5 1739,-849.5"/>
<text text-anchor="start" x="1747" y="-867.5" font-family="Helvetica,sans-Serif" font-size="10.00">com.fs.starfarer.api.impl.campaign.intel.punitive.</text>
<text text-anchor="middle" x="1850" y="-856.5" font-family="Helvetica,sans-Serif" font-size="10.00">PunitiveExpeditionManager.PunExGoal</text>
</a>
</g>
</g>
<!-- Node29&#45;&gt;Node14 -->
<g id="edge32" class="edge">
<title>Node29&#45;&gt;Node14</title>
<path fill="none" stroke="#9a32cd" stroke-dasharray="5,2" d="M1971.15,-862.69C1997.64,-856.48 2023.1,-844.94 2041,-824.5 2076.23,-784.26 2024.09,-625.02 2059,-584.5 2062.2,-580.79 2065.82,-577.57 2069.75,-574.77"/>
<polygon fill="#9a32cd" stroke="#9a32cd" points="1970.43,-859.26 1961.36,-864.74 1971.86,-866.12 1970.43,-859.26"/>
<text text-anchor="middle" x="2010" y="-862.5" font-family="Helvetica,sans-Serif" font-size="10.00"> goal</text>
</g>
<!-- Node30 -->
<g id="node30" class="node">
<title>Node30</title>
<g id="a_node30"><a xlink:title=" ">
<polygon fill="none" stroke="#bfbfbf" points="1739,-800.5 1739,-830.5 1961,-830.5 1961,-800.5 1739,-800.5"/>
<text text-anchor="start" x="1747" y="-818.5" font-family="Helvetica,sans-Serif" font-size="10.00">com.fs.starfarer.api.impl.campaign.intel.punitive.</text>
<text text-anchor="middle" x="1850" y="-807.5" font-family="Helvetica,sans-Serif" font-size="10.00">PunitiveExpeditionIntel.PunExOutcome</text>
</a>
</g>
</g>
<!-- Node30&#45;&gt;Node14 -->
<g id="edge33" class="edge">
<title>Node30&#45;&gt;Node14</title>
<path fill="none" stroke="#9a32cd" stroke-dasharray="5,2" d="M1971.01,-812.14C1997.5,-805.66 2023,-793.93 2041,-773.5 2068.89,-741.84 2031.14,-616.19 2059,-584.5 2062.36,-580.68 2066.18,-577.37 2070.31,-574.52"/>
<polygon fill="#9a32cd" stroke="#9a32cd" points="1970.23,-808.73 1961.21,-814.3 1971.73,-815.57 1970.23,-808.73"/>
<text text-anchor="middle" x="2010" y="-812.5" font-family="Helvetica,sans-Serif" font-size="10.00"> outcome</text>
</g>
<!-- Node31 -->
<g id="node31" class="node">
<title>Node31</title>
<g id="a_node31"><a xlink:title=" ">
<polygon fill="none" stroke="#bfbfbf" points="1745,-741 1745,-782 1955,-782 1955,-741 1745,-741"/>
<text text-anchor="start" x="1753" y="-770" font-family="Helvetica,sans-Serif" font-size="10.00">com.fs.starfarer.api.campaign.</text>
<text text-anchor="start" x="1753" y="-759" font-family="Helvetica,sans-Serif" font-size="10.00">ReputationActionResponsePlugin.Reputation</text>
<text text-anchor="middle" x="1850" y="-748" font-family="Helvetica,sans-Serif" font-size="10.00">AdjustmentResult</text>
</a>
</g>
</g>
<!-- Node31&#45;&gt;Node14 -->
<g id="edge34" class="edge">
<title>Node31&#45;&gt;Node14</title>
<path fill="none" stroke="#9a32cd" stroke-dasharray="5,2" d="M1965.43,-763.32C1993.61,-758.14 2021.31,-747.32 2041,-726.5 2084.7,-680.27 2016.26,-631.62 2059,-584.5 2062.42,-580.73 2066.28,-577.47 2070.46,-574.65"/>
<polygon fill="#9a32cd" stroke="#9a32cd" points="1964.77,-759.88 1955.45,-764.93 1965.88,-766.79 1964.77,-759.88"/>
<text text-anchor="middle" x="2010" y="-761.5" font-family="Helvetica,sans-Serif" font-size="10.00"> repResult</text>
</g>
<!-- Node32&#45;&gt;Node14 -->
<g id="edge35" class="edge">
<title>Node32&#45;&gt;Node14</title>
<path fill="none" stroke="#9a32cd" stroke-dasharray="5,2" d="M1647.47,-659.77C1730.29,-656.54 1854.06,-649.68 1961,-635.5 1996.95,-630.74 2012.06,-641.35 2041,-619.5 2054.96,-608.96 2045.18,-595.22 2059,-584.5 2063.95,-580.66 2069.39,-577.39 2075.1,-574.6"/>
<polygon fill="#9a32cd" stroke="#9a32cd" points="1647.18,-656.28 1637.32,-660.16 1647.45,-663.28 1647.18,-656.28"/>
<text text-anchor="middle" x="1850" y="-668.5" font-family="Helvetica,sans-Serif" font-size="10.00"> from</text>
<text text-anchor="middle" x="1850" y="-657.5" font-family="Helvetica,sans-Serif" font-size="10.00">target</text>
</g>
<!-- Node34 -->
<g id="node34" class="node">
<title>Node34</title>
<g id="a_node34"><a xlink:href="classcom_1_1fs_1_1starfarer_1_1api_1_1impl_1_1campaign_1_1intel_1_1punitive_1_1PEActionStage.html" target="_top" xlink:title=" ">
<polygon fill="none" stroke="black" points="1739,-432.5 1739,-462.5 1961,-462.5 1961,-432.5 1739,-432.5"/>
<text text-anchor="start" x="1747" y="-450.5" font-family="Helvetica,sans-Serif" font-size="10.00">com.fs.starfarer.api.impl.campaign.intel.punitive.</text>
<text text-anchor="middle" x="1850" y="-439.5" font-family="Helvetica,sans-Serif" font-size="10.00">PEActionStage</text>
</a>
</g>
</g>
<!-- Node32&#45;&gt;Node34 -->
<g id="edge47" class="edge">
<title>Node32&#45;&gt;Node34</title>
<path fill="none" stroke="#9a32cd" stroke-dasharray="5,2" d="M1572.91,-639.59C1611.95,-594.03 1699.62,-494.55 1739,-472.5 1745.92,-468.62 1753.4,-465.35 1761.1,-462.58"/>
<polygon fill="#9a32cd" stroke="#9a32cd" points="1570.04,-637.56 1566.21,-647.44 1575.36,-642.1 1570.04,-637.56"/>
<text text-anchor="middle" x="1705" y="-514.5" font-family="Helvetica,sans-Serif" font-size="10.00"> target</text>
</g>
<!-- Node33 -->
<g id="node33" class="node">
<title>Node33</title>
<g id="a_node33"><a xlink:title=" ">
<polygon fill="none" stroke="#bfbfbf" points="1823.5,-607 1823.5,-626 1876.5,-626 1876.5,-607 1823.5,-607"/>
<text text-anchor="middle" x="1850" y="-614" font-family="Helvetica,sans-Serif" font-size="10.00">Random</text>
</a>
</g>
</g>
<!-- Node33&#45;&gt;Node14 -->
<g id="edge37" class="edge">
<title>Node33&#45;&gt;Node14</title>
<path fill="none" stroke="#9a32cd" stroke-dasharray="5,2" d="M1886.9,-615.09C1925.57,-612.85 1988.6,-607.11 2041,-592.5 2049.43,-590.15 2050.69,-587.26 2059,-584.5 2070.15,-580.79 2082.12,-577.45 2093.9,-574.51"/>
<polygon fill="#9a32cd" stroke="#9a32cd" points="1886.47,-611.61 1876.67,-615.63 1886.84,-618.6 1886.47,-611.61"/>
<text text-anchor="middle" x="2010" y="-607.5" font-family="Helvetica,sans-Serif" font-size="10.00"> random</text>
</g>
<!-- Node34&#45;&gt;Node14 -->
<g id="edge38" class="edge">
<title>Node34&#45;&gt;Node14</title>
<path fill="none" stroke="#9a32cd" stroke-dasharray="5,2" d="M1950.38,-464.66C1980.02,-471.2 2012.26,-479.73 2041,-490.5 2079.3,-504.85 2120.38,-528.67 2145.39,-544.23"/>
<polygon fill="#9a32cd" stroke="#9a32cd" points="1950.95,-461.2 1940.43,-462.52 1949.47,-468.05 1950.95,-461.2"/>
<text text-anchor="middle" x="2010" y="-493.5" font-family="Helvetica,sans-Serif" font-size="10.00"> action</text>
</g>
<!-- Node35 -->
<g id="node35" class="node">
<title>Node35</title>
<g id="a_node35"><a xlink:href="classcom_1_1fs_1_1starfarer_1_1api_1_1impl_1_1campaign_1_1intel_1_1raid_1_1ActionStage.html" target="_top" xlink:title=" ">
<polygon fill="none" stroke="black" points="1450.5,-383.5 1450.5,-413.5 1654.5,-413.5 1654.5,-383.5 1450.5,-383.5"/>
<text text-anchor="start" x="1458.5" y="-401.5" font-family="Helvetica,sans-Serif" font-size="10.00">com.fs.starfarer.api.impl.campaign.intel.raid.</text>
<text text-anchor="middle" x="1552.5" y="-390.5" font-family="Helvetica,sans-Serif" font-size="10.00">ActionStage</text>
</a>
</g>
</g>
<!-- Node35&#45;&gt;Node34 -->
<g id="edge39" class="edge">
<title>Node35&#45;&gt;Node34</title>
<path fill="none" stroke="midnightblue" d="M1654.08,-415.18C1687.93,-420.79 1725.47,-427.02 1758.5,-432.49"/>
<polygon fill="midnightblue" stroke="midnightblue" points="1654.61,-411.72 1644.17,-413.53 1653.46,-418.62 1654.61,-411.72"/>
</g>
<!-- Node36&#45;&gt;Node35 -->
<g id="edge40" class="edge">
<title>Node36&#45;&gt;Node35</title>
<path fill="none" stroke="midnightblue" d="M1348.45,-398.5C1381.69,-398.5 1417.92,-398.5 1450.45,-398.5"/>
<polygon fill="midnightblue" stroke="midnightblue" points="1348.24,-395 1338.24,-398.5 1348.24,-402 1348.24,-395"/>
</g>
<!-- Node37 -->
<g id="node37" class="node">
<title>Node37</title>
<g id="a_node37"><a xlink:title=" ">
<polygon fill="none" stroke="#bfbfbf" points="832,-333.5 832,-363.5 1036,-363.5 1036,-333.5 832,-333.5"/>
<text text-anchor="start" x="840" y="-351.5" font-family="Helvetica,sans-Serif" font-size="10.00">com.fs.starfarer.api.impl.campaign.intel.raid.</text>
<text text-anchor="middle" x="934" y="-340.5" font-family="Helvetica,sans-Serif" font-size="10.00">RaidIntel.RaidStage</text>
</a>
</g>
</g>
<!-- Node37&#45;&gt;Node36 -->
<g id="edge41" class="edge">
<title>Node37&#45;&gt;Node36</title>
<path fill="none" stroke="midnightblue" d="M1034.9,-365.15C1070.41,-371.07 1110.15,-377.69 1144.79,-383.47"/>
<polygon fill="midnightblue" stroke="midnightblue" points="1035.45,-361.69 1025.01,-363.5 1034.3,-368.6 1035.45,-361.69"/>
</g>
<!-- Node38 -->
<g id="node38" class="node">
<title>Node38</title>
<g id="a_node38"><a xlink:href="classcom_1_1fs_1_1starfarer_1_1api_1_1util_1_1IntervalUtil.html" target="_top" xlink:title=" ">
<polygon fill="none" stroke="black" points="876,-431.5 876,-461.5 992,-461.5 992,-431.5 876,-431.5"/>
<text text-anchor="start" x="884" y="-449.5" font-family="Helvetica,sans-Serif" font-size="10.00">com.fs.starfarer.api.util.</text>
<text text-anchor="middle" x="934" y="-438.5" font-family="Helvetica,sans-Serif" font-size="10.00">IntervalUtil</text>
</a>
</g>
</g>
<!-- Node38&#45;&gt;Node36 -->
<g id="edge43" class="edge">
<title>Node38&#45;&gt;Node36</title>
<path fill="none" stroke="#9a32cd" stroke-dasharray="5,2" d="M1002.02,-435.78C1043.01,-429.22 1096.08,-420.73 1141.21,-413.51"/>
<polygon fill="#9a32cd" stroke="#9a32cd" points="1001.46,-432.32 992.13,-437.36 1002.56,-439.23 1001.46,-432.32"/>
<text text-anchor="middle" x="1085" y="-429.5" font-family="Helvetica,sans-Serif" font-size="10.00"> statusInterval</text>
</g>
<!-- Node39 -->
<g id="node39" class="node">
<title>Node39</title>
<g id="a_node39"><a xlink:title=" ">
<polygon fill="none" stroke="#bfbfbf" points="832,-382.5 832,-412.5 1036,-412.5 1036,-382.5 832,-382.5"/>
<text text-anchor="start" x="840" y="-400.5" font-family="Helvetica,sans-Serif" font-size="10.00">com.fs.starfarer.api.impl.campaign.intel.raid.</text>
<text text-anchor="middle" x="934" y="-389.5" font-family="Helvetica,sans-Serif" font-size="10.00">RaidIntel.RaidStageStatus</text>
</a>
</g>
</g>
<!-- Node39&#45;&gt;Node36 -->
<g id="edge44" class="edge">
<title>Node39&#45;&gt;Node36</title>
<path fill="none" stroke="#9a32cd" stroke-dasharray="5,2" d="M1046.21,-397.87C1074.9,-397.97 1105.63,-398.07 1133.78,-398.16"/>
<polygon fill="#9a32cd" stroke="#9a32cd" points="1046.16,-394.37 1036.15,-397.84 1046.14,-401.37 1046.16,-394.37"/>
<text text-anchor="middle" x="1085" y="-400.5" font-family="Helvetica,sans-Serif" font-size="10.00"> status</text>
</g>
<!-- Node40 -->
<g id="node40" class="node">
<title>Node40</title>
<g id="a_node40"><a xlink:href="interfacecom_1_1fs_1_1starfarer_1_1api_1_1impl_1_1campaign_1_1procgen_1_1themes_1_1BaseAssignmentAI_1_1FleetActionDelegate.html" target="_top" xlink:title=" ">
<polygon fill="none" stroke="black" points="1434,-481.5 1434,-511.5 1671,-511.5 1671,-481.5 1434,-481.5"/>
<text text-anchor="start" x="1442" y="-499.5" font-family="Helvetica,sans-Serif" font-size="10.00">com.fs.starfarer.api.impl.campaign.procgen.themes.</text>
<text text-anchor="middle" x="1552.5" y="-488.5" font-family="Helvetica,sans-Serif" font-size="10.00">BaseAssignmentAI.FleetActionDelegate</text>
</a>
</g>
</g>
<!-- Node40&#45;&gt;Node34 -->
<g id="edge45" class="edge">
<title>Node40&#45;&gt;Node34</title>
<path fill="none" stroke="midnightblue" d="M1654.08,-479.82C1687.93,-474.21 1725.47,-467.98 1758.5,-462.51"/>
<polygon fill="midnightblue" stroke="midnightblue" points="1653.46,-476.38 1644.17,-481.47 1654.61,-483.28 1653.46,-476.38"/>
</g>
<!-- Node41 -->
<g id="node41" class="node">
<title>Node41</title>
<g id="a_node41"><a xlink:title=" ">
<polygon fill="none" stroke="#bfbfbf" points="1457,-432.5 1457,-462.5 1648,-462.5 1648,-432.5 1457,-432.5"/>
<text text-anchor="start" x="1465" y="-450.5" font-family="Helvetica,sans-Serif" font-size="10.00">List&lt; com.fs.starfarer.api.impl.campaign.</text>
<text text-anchor="middle" x="1552.5" y="-439.5" font-family="Helvetica,sans-Serif" font-size="10.00">MilitaryResponseScript &gt;</text>
</a>
</g>
</g>
<!-- Node41&#45;&gt;Node34 -->
<g id="edge46" class="edge">
<title>Node41&#45;&gt;Node34</title>
<path fill="none" stroke="#9a32cd" stroke-dasharray="5,2" d="M1658.49,-447.5C1684.55,-447.5 1712.56,-447.5 1738.86,-447.5"/>
<polygon fill="#9a32cd" stroke="#9a32cd" points="1658.22,-444 1648.22,-447.5 1658.22,-451 1658.22,-444"/>
<text text-anchor="middle" x="1705" y="-450.5" font-family="Helvetica,sans-Serif" font-size="10.00"> scripts</text>
</g>
<!-- Node42 -->
<g id="node42" class="node">
<title>Node42</title>
<g id="a_node42"><a xlink:href="interfacecom_1_1fs_1_1starfarer_1_1api_1_1campaign_1_1econ_1_1Industry.html" target="_top" xlink:title=" ">
<polygon fill="none" stroke="black" points="1765.5,-481.5 1765.5,-511.5 1934.5,-511.5 1934.5,-481.5 1765.5,-481.5"/>
<text text-anchor="start" x="1773.5" y="-499.5" font-family="Helvetica,sans-Serif" font-size="10.00">com.fs.starfarer.api.campaign.econ.</text>
<text text-anchor="middle" x="1850" y="-488.5" font-family="Helvetica,sans-Serif" font-size="10.00">Industry</text>
</a>
</g>
</g>
<!-- Node42&#45;&gt;Node14 -->
<g id="edge48" class="edge">
<title>Node42&#45;&gt;Node14</title>
<path fill="none" stroke="#9a32cd" stroke-dasharray="5,2" d="M1945.19,-501.59C1975.97,-504.4 2010.16,-508.75 2041,-515.5 2072.68,-522.43 2107.4,-534.67 2132.68,-544.49"/>
<polygon fill="#9a32cd" stroke="#9a32cd" points="1945.16,-498.07 1934.89,-500.69 1944.55,-505.04 1945.16,-498.07"/>
<text text-anchor="middle" x="2010" y="-518.5" font-family="Helvetica,sans-Serif" font-size="10.00"> targetIndustry</text>
</g>
</g>
</svg>
