<?xml version="1.0" encoding="UTF-8" standalone="no"?>
<!DOCTYPE svg PUBLIC "-//W3C//DTD SVG 1.1//EN"
 "http://www.w3.org/Graphics/SVG/1.1/DTD/svg11.dtd">
<!-- Generated by graphviz version 9.0.0 (20230911.1827)
 -->
<!-- Title: com.fs.starfarer.api.impl.campaign.ghosts.GBITooClose Pages: 1 -->
<svg width="701pt" height="88pt"
 viewBox="0.00 0.00 700.50 87.50" xmlns="http://www.w3.org/2000/svg" xmlns:xlink="http://www.w3.org/1999/xlink">
<g id="graph0" class="graph" transform="scale(1 1) rotate(0) translate(4 83.5)">
<title>com.fs.starfarer.api.impl.campaign.ghosts.GBITooClose</title>
<!-- Node1 -->
<g id="Node000001" class="node">
<title>Node1</title>
<g id="a_Node000001"><a xlink:title=" ">
<polygon fill="#999999" stroke="#666666" points="692.5,-43.5 495.75,-43.5 495.75,-13 692.5,-13 692.5,-43.5"/>
<text text-anchor="start" x="503.75" y="-30" font-family="Helvetica,sans-Serif" font-size="10.00">com.fs.starfarer.api.impl.campaign.ghosts.</text>
<text text-anchor="middle" x="594.12" y="-18.75" font-family="Helvetica,sans-Serif" font-size="10.00">GBITooClose</text>
</a>
</g>
</g>
<!-- Node2 -->
<g id="Node000002" class="node">
<title>Node2</title>
<g id="a_Node000002"><a xlink:href="classcom_1_1fs_1_1starfarer_1_1api_1_1impl_1_1campaign_1_1ghosts_1_1BaseGhostBehaviorInterrupt.html" target="_top" xlink:title=" ">
<polygon fill="white" stroke="#666666" points="430.5,-79.5 233.75,-79.5 233.75,-49 430.5,-49 430.5,-79.5"/>
<text text-anchor="start" x="241.75" y="-66" font-family="Helvetica,sans-Serif" font-size="10.00">com.fs.starfarer.api.impl.campaign.ghosts.</text>
<text text-anchor="middle" x="332.12" y="-54.75" font-family="Helvetica,sans-Serif" font-size="10.00">BaseGhostBehaviorInterrupt</text>
</a>
</g>
</g>
<!-- Node2&#45;&gt;Node1 -->
<g id="edge1_Node000001_Node000002" class="edge">
<title>Node2&#45;&gt;Node1</title>
<g id="a_edge1_Node000001_Node000002"><a xlink:title=" ">
<path fill="none" stroke="#63b8ff" d="M441.95,-49.18C459.7,-46.72 477.99,-44.19 495.46,-41.77"/>
<polygon fill="#63b8ff" stroke="#63b8ff" points="441.6,-45.7 432.18,-50.53 442.56,-52.63 441.6,-45.7"/>
</a>
</g>
</g>
<!-- Node3 -->
<g id="Node000003" class="node">
<title>Node3</title>
<g id="a_Node000003"><a xlink:href="interfacecom_1_1fs_1_1starfarer_1_1api_1_1impl_1_1campaign_1_1ghosts_1_1GhostBehaviorInterrupt.html" target="_top" xlink:title=" ">
<polygon fill="white" stroke="#666666" points="196.75,-79.5 0,-79.5 0,-49 196.75,-49 196.75,-79.5"/>
<text text-anchor="start" x="8" y="-66" font-family="Helvetica,sans-Serif" font-size="10.00">com.fs.starfarer.api.impl.campaign.ghosts.</text>
<text text-anchor="middle" x="98.38" y="-54.75" font-family="Helvetica,sans-Serif" font-size="10.00">GhostBehaviorInterrupt</text>
</a>
</g>
</g>
<!-- Node3&#45;&gt;Node2 -->
<g id="edge2_Node000002_Node000003" class="edge">
<title>Node3&#45;&gt;Node2</title>
<g id="a_edge2_Node000002_Node000003"><a xlink:title=" ">
<path fill="none" stroke="#63b8ff" d="M208.3,-64.25C216.63,-64.25 225,-64.25 233.26,-64.25"/>
<polygon fill="#63b8ff" stroke="#63b8ff" points="208.5,-60.75 198.5,-64.25 208.5,-67.75 208.5,-60.75"/>
</a>
</g>
</g>
<!-- Node4 -->
<g id="Node000004" class="node">
<title>Node4</title>
<g id="a_Node000004"><a xlink:href="classcom_1_1fs_1_1starfarer_1_1api_1_1impl_1_1campaign_1_1ghosts_1_1SharedTrigger.html" target="_top" xlink:title=" ">
<polygon fill="white" stroke="#666666" points="430.5,-30.5 233.75,-30.5 233.75,0 430.5,0 430.5,-30.5"/>
<text text-anchor="start" x="241.75" y="-17" font-family="Helvetica,sans-Serif" font-size="10.00">com.fs.starfarer.api.impl.campaign.ghosts.</text>
<text text-anchor="middle" x="332.12" y="-5.75" font-family="Helvetica,sans-Serif" font-size="10.00">SharedTrigger</text>
</a>
</g>
</g>
<!-- Node4&#45;&gt;Node1 -->
<g id="edge3_Node000001_Node000004" class="edge">
<title>Node4&#45;&gt;Node1</title>
<g id="a_edge3_Node000001_Node000004"><a xlink:title=" ">
<path fill="none" stroke="#9a32cd" stroke-dasharray="5,2" d="M441.95,-20.69C459.7,-21.58 477.99,-22.49 495.46,-23.37"/>
<polygon fill="#9a32cd" stroke="#9a32cd" points="442.35,-17.21 432.19,-20.2 442,-24.2 442.35,-17.21"/>
</a>
</g>
<text text-anchor="middle" x="463.12" y="-24" font-family="Helvetica,sans-Serif" font-size="10.00" fill="grey"> trigger</text>
</g>
</g>
</svg>
