<?xml version="1.0" encoding="UTF-8" standalone="no"?>
<!DOCTYPE svg PUBLIC "-//W3C//DTD SVG 1.1//EN"
 "http://www.w3.org/Graphics/SVG/1.1/DTD/svg11.dtd">
<!-- Generated by graphviz version 7.0.5 (20221223.1930)
 -->
<!-- Title: com.fs.starfarer.api.impl.campaign.terrain.BaseTiledTerrain Pages: 1 -->
<svg width="847pt" height="86pt"
 viewBox="0.00 0.00 847.00 86.00" xmlns="http://www.w3.org/2000/svg" xmlns:xlink="http://www.w3.org/1999/xlink">
<g id="graph0" class="graph" transform="scale(1 1) rotate(0) translate(4 82)">
<title>com.fs.starfarer.api.impl.campaign.terrain.BaseTiledTerrain</title>
<!-- Node1 -->
<g id="node1" class="node">
<title>Node1</title>
<g id="a_node1"><a xlink:title=" ">
<polygon fill="#999999" stroke="#666666" points="608,-54 413,-54 413,-24 608,-24 608,-54"/>
<text text-anchor="start" x="421" y="-42" font-family="Helvetica,sans-Serif" font-size="10.00">com.fs.starfarer.api.impl.campaign.terrain.</text>
<text text-anchor="middle" x="510.5" y="-31" font-family="Helvetica,sans-Serif" font-size="10.00">BaseTiledTerrain</text>
</a>
</g>
</g>
<!-- Node4 -->
<g id="node4" class="node">
<title>Node4</title>
<g id="a_node4"><a xlink:href="classcom_1_1fs_1_1starfarer_1_1api_1_1impl_1_1campaign_1_1terrain_1_1HyperspaceTerrainPlugin.html" target="_top" xlink:title=" ">
<polygon fill="white" stroke="#bfbfbf" points="839,-78 644,-78 644,-48 839,-48 839,-78"/>
<text text-anchor="start" x="652" y="-66" font-family="Helvetica,sans-Serif" font-size="10.00">com.fs.starfarer.api.impl.campaign.terrain.</text>
<text text-anchor="middle" x="741.5" y="-55" font-family="Helvetica,sans-Serif" font-size="10.00">HyperspaceTerrainPlugin</text>
</a>
</g>
</g>
<!-- Node1&#45;&gt;Node4 -->
<g id="edge3" class="edge">
<title>Node1&#45;&gt;Node4</title>
<path fill="none" stroke="#63b8ff" d="M619.61,-50.33C627.65,-51.17 635.73,-52.02 643.69,-52.85"/>
<polygon fill="#63b8ff" stroke="#63b8ff" points="620.1,-46.86 609.79,-49.3 619.37,-53.82 620.1,-46.86"/>
</g>
<!-- Node5 -->
<g id="node5" class="node">
<title>Node5</title>
<g id="a_node5"><a xlink:href="classcom_1_1fs_1_1starfarer_1_1api_1_1impl_1_1campaign_1_1terrain_1_1NebulaTerrainPlugin.html" target="_top" xlink:title=" ">
<polygon fill="white" stroke="#bfbfbf" points="839,-30 644,-30 644,0 839,0 839,-30"/>
<text text-anchor="start" x="652" y="-18" font-family="Helvetica,sans-Serif" font-size="10.00">com.fs.starfarer.api.impl.campaign.terrain.</text>
<text text-anchor="middle" x="741.5" y="-7" font-family="Helvetica,sans-Serif" font-size="10.00">NebulaTerrainPlugin</text>
</a>
</g>
</g>
<!-- Node1&#45;&gt;Node5 -->
<g id="edge4" class="edge">
<title>Node1&#45;&gt;Node5</title>
<path fill="none" stroke="#63b8ff" d="M619.61,-27.67C627.65,-26.83 635.73,-25.98 643.69,-25.15"/>
<polygon fill="#63b8ff" stroke="#63b8ff" points="619.37,-24.18 609.79,-28.7 620.1,-31.14 619.37,-24.18"/>
</g>
<!-- Node2 -->
<g id="node2" class="node">
<title>Node2</title>
<g id="a_node2"><a xlink:href="classcom_1_1fs_1_1starfarer_1_1api_1_1impl_1_1campaign_1_1terrain_1_1BaseTerrain.html" target="_top" xlink:title=" ">
<polygon fill="white" stroke="#bfbfbf" points="377,-54 182,-54 182,-24 377,-24 377,-54"/>
<text text-anchor="start" x="190" y="-42" font-family="Helvetica,sans-Serif" font-size="10.00">com.fs.starfarer.api.impl.campaign.terrain.</text>
<text text-anchor="middle" x="279.5" y="-31" font-family="Helvetica,sans-Serif" font-size="10.00">BaseTerrain</text>
</a>
</g>
</g>
<!-- Node2&#45;&gt;Node1 -->
<g id="edge1" class="edge">
<title>Node2&#45;&gt;Node1</title>
<path fill="none" stroke="#63b8ff" d="M388.61,-39C396.65,-39 404.73,-39 412.69,-39"/>
<polygon fill="#63b8ff" stroke="#63b8ff" points="388.8,-35.5 378.8,-39 388.8,-42.5 388.8,-35.5"/>
</g>
<!-- Node3 -->
<g id="node3" class="node">
<title>Node3</title>
<g id="a_node3"><a xlink:href="interfacecom_1_1fs_1_1starfarer_1_1api_1_1campaign_1_1CampaignTerrainPlugin.html" target="_top" xlink:title=" ">
<polygon fill="white" stroke="#bfbfbf" points="146,-54 0,-54 0,-24 146,-24 146,-54"/>
<text text-anchor="start" x="8" y="-42" font-family="Helvetica,sans-Serif" font-size="10.00">com.fs.starfarer.api.campaign.</text>
<text text-anchor="middle" x="73" y="-31" font-family="Helvetica,sans-Serif" font-size="10.00">CampaignTerrainPlugin</text>
</a>
</g>
</g>
<!-- Node3&#45;&gt;Node2 -->
<g id="edge2" class="edge">
<title>Node3&#45;&gt;Node2</title>
<path fill="none" stroke="#63b8ff" d="M157.85,-39C165.77,-39 173.84,-39 181.86,-39"/>
<polygon fill="#63b8ff" stroke="#63b8ff" points="157.9,-35.5 147.9,-39 157.9,-42.5 157.9,-35.5"/>
</g>
</g>
</svg>
