<?xml version="1.0" encoding="UTF-8" standalone="no"?>
<!DOCTYPE svg PUBLIC "-//W3C//DTD SVG 1.1//EN"
 "http://www.w3.org/Graphics/SVG/1.1/DTD/svg11.dtd">
<!-- Generated by graphviz version 2.44.0 ()
 -->
<!-- Title: com.fs.starfarer.api.plugins.impl.CoreAutofitPlugin.AutoAssignScore Pages: 1 -->
<svg width="607pt" height="88pt"
 viewBox="0.00 0.00 607.00 88.00" xmlns="http://www.w3.org/2000/svg" xmlns:xlink="http://www.w3.org/1999/xlink">
<g id="graph0" class="graph" transform="scale(1 1) rotate(0) translate(4 84)">
<title>com.fs.starfarer.api.plugins.impl.CoreAutofitPlugin.AutoAssignScore</title>
<!-- Node1 -->
<g id="node1" class="node">
<title>Node1</title>
<g id="a_node1"><a xlink:title=" ">
<polygon fill="#bfbfbf" stroke="black" points="429,-25.5 429,-55.5 599,-55.5 599,-25.5 429,-25.5"/>
<text text-anchor="start" x="437" y="-43.5" font-family="Helvetica,sans-Serif" font-size="10.00">com.fs.starfarer.api.plugins.impl.</text>
<text text-anchor="middle" x="514" y="-32.5" font-family="Helvetica,sans-Serif" font-size="10.00">CoreAutofitPlugin.AutoAssignScore</text>
</a>
</g>
</g>
<!-- Node2 -->
<g id="node2" class="node">
<title>Node2</title>
<g id="a_node2"><a xlink:href="interfacecom_1_1fs_1_1starfarer_1_1api_1_1fleet_1_1FleetMemberAPI.html" target="_top" xlink:title=" ">
<polygon fill="none" stroke="black" points="219.5,-49.5 219.5,-79.5 341.5,-79.5 341.5,-49.5 219.5,-49.5"/>
<text text-anchor="start" x="227.5" y="-67.5" font-family="Helvetica,sans-Serif" font-size="10.00">com.fs.starfarer.api.fleet.</text>
<text text-anchor="middle" x="280.5" y="-56.5" font-family="Helvetica,sans-Serif" font-size="10.00">FleetMemberAPI</text>
</a>
</g>
</g>
<!-- Node2&#45;&gt;Node1 -->
<g id="edge1" class="edge">
<title>Node2&#45;&gt;Node1</title>
<path fill="none" stroke="#9a32cd" stroke-dasharray="5,2" d="M351.89,-57.2C376.11,-54.69 403.47,-51.85 428.68,-49.24"/>
<polygon fill="#9a32cd" stroke="#9a32cd" points="351.31,-53.74 341.72,-58.26 352.03,-60.71 351.31,-53.74"/>
<text text-anchor="middle" x="392" y="-57.5" font-family="Helvetica,sans-Serif" font-size="10.00"> member</text>
</g>
<!-- Node3 -->
<g id="node3" class="node">
<title>Node3</title>
<g id="a_node3"><a xlink:href="interfacecom_1_1fs_1_1starfarer_1_1api_1_1characters_1_1PersonAPI.html" target="_top" xlink:title=" ">
<polygon fill="none" stroke="black" points="206,-0.5 206,-30.5 355,-30.5 355,-0.5 206,-0.5"/>
<text text-anchor="start" x="214" y="-18.5" font-family="Helvetica,sans-Serif" font-size="10.00">com.fs.starfarer.api.characters.</text>
<text text-anchor="middle" x="280.5" y="-7.5" font-family="Helvetica,sans-Serif" font-size="10.00">PersonAPI</text>
</a>
</g>
</g>
<!-- Node3&#45;&gt;Node1 -->
<g id="edge2" class="edge">
<title>Node3&#45;&gt;Node1</title>
<path fill="none" stroke="#9a32cd" stroke-dasharray="5,2" d="M365.1,-24.53C385.8,-26.76 408,-29.16 428.74,-31.4"/>
<polygon fill="#9a32cd" stroke="#9a32cd" points="365.38,-21.04 355.07,-23.44 364.63,-28 365.38,-21.04"/>
<text text-anchor="middle" x="392" y="-31.5" font-family="Helvetica,sans-Serif" font-size="10.00"> officer</text>
</g>
<!-- Node4 -->
<g id="node4" class="node">
<title>Node4</title>
<g id="a_node4"><a xlink:href="interfacecom_1_1fs_1_1starfarer_1_1api_1_1campaign_1_1rules_1_1HasMemory.html" target="_top" xlink:title=" ">
<polygon fill="none" stroke="black" points="0,-0.5 0,-30.5 169,-30.5 169,-0.5 0,-0.5"/>
<text text-anchor="start" x="8" y="-18.5" font-family="Helvetica,sans-Serif" font-size="10.00">com.fs.starfarer.api.campaign.rules.</text>
<text text-anchor="middle" x="84.5" y="-7.5" font-family="Helvetica,sans-Serif" font-size="10.00">HasMemory</text>
</a>
</g>
</g>
<!-- Node4&#45;&gt;Node3 -->
<g id="edge3" class="edge">
<title>Node4&#45;&gt;Node3</title>
<path fill="none" stroke="midnightblue" d="M179.24,-15.5C188.18,-15.5 197.15,-15.5 205.86,-15.5"/>
<polygon fill="midnightblue" stroke="midnightblue" points="179.18,-12 169.18,-15.5 179.18,-19 179.18,-12"/>
</g>
</g>
</svg>
