<?xml version="1.0" encoding="UTF-8" standalone="no"?>
<!DOCTYPE svg PUBLIC "-//W3C//DTD SVG 1.1//EN"
 "http://www.w3.org/Graphics/SVG/1.1/DTD/svg11.dtd">
<!-- Generated by graphviz version 12.2.0 (20241103.1931)
 -->
<!-- Title: com.fs.starfarer.api.impl.campaign.fleets.PatrolAssignmentAIV4 Pages: 1 -->
<svg width="905pt" height="88pt"
 viewBox="0.00 0.00 904.50 87.50" xmlns="http://www.w3.org/2000/svg" xmlns:xlink="http://www.w3.org/1999/xlink">
<g id="graph0" class="graph" transform="scale(1 1) rotate(0) translate(4 83.5)">
<title>com.fs.starfarer.api.impl.campaign.fleets.PatrolAssignmentAIV4</title>
<!-- Node1 -->
<g id="Node000001" class="node">
<title>Node1</title>
<g id="a_Node000001"><a xlink:title=" ">
<polygon fill="#999999" stroke="#666666" points="896.5,-54.5 705.75,-54.5 705.75,-24 896.5,-24 896.5,-54.5"/>
<text text-anchor="start" x="713.75" y="-41" font-family="Helvetica,sans-Serif" font-size="10.00">com.fs.starfarer.api.impl.campaign.fleets.</text>
<text text-anchor="middle" x="801.12" y="-29.75" font-family="Helvetica,sans-Serif" font-size="10.00">PatrolAssignmentAIV4</text>
</a>
</g>
</g>
<!-- Node2 -->
<g id="Node000002" class="node">
<title>Node2</title>
<g id="a_Node000002"><a xlink:href="classcom_1_1fs_1_1starfarer_1_1api_1_1impl_1_1campaign_1_1procgen_1_1themes_1_1RouteFleetAssignmentAI.html" target="_top" xlink:title=" ">
<polygon fill="white" stroke="#666666" points="669.75,-79.5 433.25,-79.5 433.25,-49 669.75,-49 669.75,-79.5"/>
<text text-anchor="start" x="441.25" y="-66" font-family="Helvetica,sans-Serif" font-size="10.00">com.fs.starfarer.api.impl.campaign.procgen.themes.</text>
<text text-anchor="middle" x="551.5" y="-54.75" font-family="Helvetica,sans-Serif" font-size="10.00">RouteFleetAssignmentAI</text>
</a>
</g>
</g>
<!-- Node2&#45;&gt;Node1 -->
<g id="edge1_Node000001_Node000002" class="edge">
<title>Node2&#45;&gt;Node1</title>
<g id="a_edge1_Node000001_Node000002"><a xlink:title=" ">
<path fill="none" stroke="#63b8ff" d="M681.55,-51.22C689.61,-50.41 697.64,-49.6 705.5,-48.8"/>
<polygon fill="#63b8ff" stroke="#63b8ff" points="681.25,-47.73 671.65,-52.22 681.96,-54.7 681.25,-47.73"/>
</a>
</g>
</g>
<!-- Node3 -->
<g id="Node000003" class="node">
<title>Node3</title>
<g id="a_Node000003"><a xlink:href="classcom_1_1fs_1_1starfarer_1_1api_1_1impl_1_1campaign_1_1procgen_1_1themes_1_1BaseAssignmentAI.html" target="_top" xlink:title=" ">
<polygon fill="white" stroke="#666666" points="397.25,-79.5 160.75,-79.5 160.75,-49 397.25,-49 397.25,-79.5"/>
<text text-anchor="start" x="168.75" y="-66" font-family="Helvetica,sans-Serif" font-size="10.00">com.fs.starfarer.api.impl.campaign.procgen.themes.</text>
<text text-anchor="middle" x="279" y="-54.75" font-family="Helvetica,sans-Serif" font-size="10.00">BaseAssignmentAI</text>
</a>
</g>
</g>
<!-- Node3&#45;&gt;Node2 -->
<g id="edge2_Node000002_Node000003" class="edge">
<title>Node3&#45;&gt;Node2</title>
<g id="a_edge2_Node000002_Node000003"><a xlink:title=" ">
<path fill="none" stroke="#63b8ff" d="M408.88,-64.25C416.98,-64.25 425.11,-64.25 433.15,-64.25"/>
<polygon fill="#63b8ff" stroke="#63b8ff" points="408.98,-60.75 398.98,-64.25 408.98,-67.75 408.98,-60.75"/>
</a>
</g>
</g>
<!-- Node4 -->
<g id="Node000004" class="node">
<title>Node4</title>
<g id="a_Node000004"><a xlink:href="interfacecom_1_1fs_1_1starfarer_1_1api_1_1EveryFrameScript.html" target="_top" xlink:title=" ">
<polygon fill="white" stroke="#666666" points="124.75,-79.5 0,-79.5 0,-49 124.75,-49 124.75,-79.5"/>
<text text-anchor="start" x="8" y="-66" font-family="Helvetica,sans-Serif" font-size="10.00">com.fs.starfarer.api.Every</text>
<text text-anchor="middle" x="62.38" y="-54.75" font-family="Helvetica,sans-Serif" font-size="10.00">FrameScript</text>
</a>
</g>
</g>
<!-- Node4&#45;&gt;Node3 -->
<g id="edge3_Node000003_Node000004" class="edge">
<title>Node4&#45;&gt;Node3</title>
<g id="a_edge3_Node000003_Node000004"><a xlink:title=" ">
<path fill="none" stroke="#63b8ff" d="M136.65,-64.25C144.36,-64.25 152.33,-64.25 160.39,-64.25"/>
<polygon fill="#63b8ff" stroke="#63b8ff" points="136.68,-60.75 126.68,-64.25 136.68,-67.75 136.68,-60.75"/>
</a>
</g>
</g>
<!-- Node5 -->
<g id="Node000005" class="node">
<title>Node5</title>
<g id="a_Node000005"><a xlink:href="interfacecom_1_1fs_1_1starfarer_1_1api_1_1campaign_1_1FleetActionTextProvider.html" target="_top" xlink:title=" ">
<polygon fill="white" stroke="#666666" points="624,-30.5 479,-30.5 479,0 624,0 624,-30.5"/>
<text text-anchor="start" x="487" y="-17" font-family="Helvetica,sans-Serif" font-size="10.00">com.fs.starfarer.api.campaign.</text>
<text text-anchor="middle" x="551.5" y="-5.75" font-family="Helvetica,sans-Serif" font-size="10.00">FleetActionTextProvider</text>
</a>
</g>
</g>
<!-- Node5&#45;&gt;Node1 -->
<g id="edge4_Node000001_Node000005" class="edge">
<title>Node5&#45;&gt;Node1</title>
<g id="a_edge4_Node000001_Node000005"><a xlink:title=" ">
<path fill="none" stroke="#63b8ff" d="M635.62,-23.31C658.01,-25.48 682.41,-27.84 705.38,-30.07"/>
<polygon fill="#63b8ff" stroke="#63b8ff" points="636.25,-19.85 625.96,-22.37 635.58,-26.82 636.25,-19.85"/>
</a>
</g>
</g>
</g>
</svg>
