<?xml version="1.0" encoding="UTF-8" standalone="no"?>
<!DOCTYPE svg PUBLIC "-//W3C//DTD SVG 1.1//EN"
 "http://www.w3.org/Graphics/SVG/1.1/DTD/svg11.dtd">
<!-- Generated by graphviz version 2.49.3 (20211027.1501)
 -->
<!-- Title: com.fs.starfarer.api.impl.campaign.terrain.HyperStormBoost Pages: 1 -->
<svg width="925pt" height="186pt"
 viewBox="0.00 0.00 925.00 186.00" xmlns="http://www.w3.org/2000/svg" xmlns:xlink="http://www.w3.org/1999/xlink">
<g id="graph0" class="graph" transform="scale(1 1) rotate(0) translate(4 182)">
<title>com.fs.starfarer.api.impl.campaign.terrain.HyperStormBoost</title>
<!-- Node1 -->
<g id="node1" class="node">
<title>Node1</title>
<g id="a_node1"><a xlink:title=" ">
<polygon fill="#bfbfbf" stroke="black" points="722,-98.5 722,-128.5 917,-128.5 917,-98.5 722,-98.5"/>
<text text-anchor="start" x="730" y="-116.5" font-family="Helvetica,sans-Serif" font-size="10.00">com.fs.starfarer.api.impl.campaign.terrain.</text>
<text text-anchor="middle" x="819.5" y="-105.5" font-family="Helvetica,sans-Serif" font-size="10.00">HyperStormBoost</text>
</a>
</g>
</g>
<!-- Node2 -->
<g id="node2" class="node">
<title>Node2</title>
<g id="a_node2"><a xlink:href="interfacecom_1_1fs_1_1starfarer_1_1api_1_1EveryFrameScript.html" target="_top" xlink:title=" ">
<polygon fill="none" stroke="black" points="502.5,-147.5 502.5,-177.5 627.5,-177.5 627.5,-147.5 502.5,-147.5"/>
<text text-anchor="start" x="510.5" y="-165.5" font-family="Helvetica,sans-Serif" font-size="10.00">com.fs.starfarer.api.Every</text>
<text text-anchor="middle" x="565" y="-154.5" font-family="Helvetica,sans-Serif" font-size="10.00">FrameScript</text>
</a>
</g>
</g>
<!-- Node2&#45;&gt;Node1 -->
<g id="edge1" class="edge">
<title>Node2&#45;&gt;Node1</title>
<path fill="none" stroke="midnightblue" d="M637.59,-148.61C669.9,-142.34 708.12,-134.92 741.09,-128.52"/>
<polygon fill="midnightblue" stroke="midnightblue" points="636.92,-145.17 627.77,-150.51 638.25,-152.04 636.92,-145.17"/>
</g>
<!-- Node3 -->
<g id="node3" class="node">
<title>Node3</title>
<g id="a_node3"><a xlink:href="interfacecom_1_1fs_1_1starfarer_1_1api_1_1campaign_1_1CampaignFleetAPI.html" target="_top" xlink:title=" ">
<polygon fill="none" stroke="black" points="492,-98.5 492,-128.5 638,-128.5 638,-98.5 492,-98.5"/>
<text text-anchor="start" x="500" y="-116.5" font-family="Helvetica,sans-Serif" font-size="10.00">com.fs.starfarer.api.campaign.</text>
<text text-anchor="middle" x="565" y="-105.5" font-family="Helvetica,sans-Serif" font-size="10.00">CampaignFleetAPI</text>
</a>
</g>
</g>
<!-- Node3&#45;&gt;Node1 -->
<g id="edge2" class="edge">
<title>Node3&#45;&gt;Node1</title>
<path fill="none" stroke="#9a32cd" stroke-dasharray="5,2" d="M648.29,-113.5C671.79,-113.5 697.61,-113.5 721.88,-113.5"/>
<polygon fill="#9a32cd" stroke="#9a32cd" points="648.02,-110 638.02,-113.5 648.02,-117 648.02,-110"/>
<text text-anchor="middle" x="693.5" y="-116.5" font-family="Helvetica,sans-Serif" font-size="10.00"> fleet</text>
</g>
<!-- Node4 -->
<g id="node4" class="node">
<title>Node4</title>
<g id="a_node4"><a xlink:href="interfacecom_1_1fs_1_1starfarer_1_1api_1_1campaign_1_1SectorEntityToken.html" target="_top" xlink:title=" ">
<polygon fill="none" stroke="black" points="230.5,-147.5 230.5,-177.5 376.5,-177.5 376.5,-147.5 230.5,-147.5"/>
<text text-anchor="start" x="238.5" y="-165.5" font-family="Helvetica,sans-Serif" font-size="10.00">com.fs.starfarer.api.campaign.</text>
<text text-anchor="middle" x="303.5" y="-154.5" font-family="Helvetica,sans-Serif" font-size="10.00">SectorEntityToken</text>
</a>
</g>
</g>
<!-- Node4&#45;&gt;Node3 -->
<g id="edge3" class="edge">
<title>Node4&#45;&gt;Node3</title>
<path fill="none" stroke="midnightblue" d="M386.61,-147C420.33,-140.63 459.02,-133.32 491.65,-127.16"/>
<polygon fill="midnightblue" stroke="midnightblue" points="385.96,-143.56 376.79,-148.85 387.26,-150.43 385.96,-143.56"/>
</g>
<!-- Node5 -->
<g id="node5" class="node">
<title>Node5</title>
<g id="a_node5"><a xlink:href="interfacecom_1_1fs_1_1starfarer_1_1api_1_1campaign_1_1rules_1_1HasMemory.html" target="_top" xlink:title=" ">
<polygon fill="none" stroke="black" points="0,-147.5 0,-177.5 169,-177.5 169,-147.5 0,-147.5"/>
<text text-anchor="start" x="8" y="-165.5" font-family="Helvetica,sans-Serif" font-size="10.00">com.fs.starfarer.api.campaign.rules.</text>
<text text-anchor="middle" x="84.5" y="-154.5" font-family="Helvetica,sans-Serif" font-size="10.00">HasMemory</text>
</a>
</g>
</g>
<!-- Node5&#45;&gt;Node4 -->
<g id="edge4" class="edge">
<title>Node5&#45;&gt;Node4</title>
<path fill="none" stroke="midnightblue" d="M179.1,-162.5C196.24,-162.5 213.87,-162.5 230.27,-162.5"/>
<polygon fill="midnightblue" stroke="midnightblue" points="179.09,-159 169.09,-162.5 179.09,-166 179.09,-159"/>
</g>
<!-- Node6 -->
<g id="node6" class="node">
<title>Node6</title>
<g id="a_node6"><a xlink:href="interfacecom_1_1fs_1_1starfarer_1_1api_1_1campaign_1_1FleetOrStubAPI.html" target="_top" xlink:title=" ">
<polygon fill="none" stroke="black" points="230.5,-98.5 230.5,-128.5 376.5,-128.5 376.5,-98.5 230.5,-98.5"/>
<text text-anchor="start" x="238.5" y="-116.5" font-family="Helvetica,sans-Serif" font-size="10.00">com.fs.starfarer.api.campaign.</text>
<text text-anchor="middle" x="303.5" y="-105.5" font-family="Helvetica,sans-Serif" font-size="10.00">FleetOrStubAPI</text>
</a>
</g>
</g>
<!-- Node6&#45;&gt;Node3 -->
<g id="edge5" class="edge">
<title>Node6&#45;&gt;Node3</title>
<path fill="none" stroke="midnightblue" d="M387.05,-113.5C420.66,-113.5 459.16,-113.5 491.65,-113.5"/>
<polygon fill="midnightblue" stroke="midnightblue" points="386.79,-110 376.79,-113.5 386.79,-117 386.79,-110"/>
</g>
<!-- Node7 -->
<g id="node7" class="node">
<title>Node7</title>
<g id="a_node7"><a xlink:title=" ">
<polygon fill="none" stroke="#bfbfbf" points="465,-49.5 465,-79.5 665,-79.5 665,-49.5 465,-49.5"/>
<text text-anchor="start" x="473" y="-67.5" font-family="Helvetica,sans-Serif" font-size="10.00">com.fs.starfarer.api.impl.campaign.terrain.</text>
<text text-anchor="middle" x="565" y="-56.5" font-family="Helvetica,sans-Serif" font-size="10.00">HyperspaceTerrainPlugin.CellStateTracker</text>
</a>
</g>
</g>
<!-- Node7&#45;&gt;Node1 -->
<g id="edge6" class="edge">
<title>Node7&#45;&gt;Node1</title>
<path fill="none" stroke="#9a32cd" stroke-dasharray="5,2" d="M653.43,-81.47C681.97,-87 713.43,-93.11 741.17,-98.49"/>
<polygon fill="#9a32cd" stroke="#9a32cd" points="653.96,-78 643.47,-79.53 652.62,-84.88 653.96,-78"/>
<text text-anchor="middle" x="693.5" y="-93.5" font-family="Helvetica,sans-Serif" font-size="10.00"> cell</text>
</g>
<!-- Node8 -->
<g id="node8" class="node">
<title>Node8</title>
<g id="a_node8"><a xlink:title=" ">
<polygon fill="none" stroke="#bfbfbf" points="206,-49.5 206,-79.5 401,-79.5 401,-49.5 206,-49.5"/>
<text text-anchor="start" x="214" y="-67.5" font-family="Helvetica,sans-Serif" font-size="10.00">com.fs.starfarer.api.impl.campaign.terrain.</text>
<text text-anchor="middle" x="303.5" y="-56.5" font-family="Helvetica,sans-Serif" font-size="10.00">HyperspaceTerrainPlugin.CellState</text>
</a>
</g>
</g>
<!-- Node8&#45;&gt;Node7 -->
<g id="edge7" class="edge">
<title>Node8&#45;&gt;Node7</title>
<path fill="none" stroke="#9a32cd" stroke-dasharray="5,2" d="M411.43,-64.5C429.05,-64.5 447.26,-64.5 464.69,-64.5"/>
<polygon fill="#9a32cd" stroke="#9a32cd" points="411.13,-61 401.13,-64.5 411.13,-68 411.13,-61"/>
<text text-anchor="middle" x="433" y="-67.5" font-family="Helvetica,sans-Serif" font-size="10.00"> state</text>
</g>
<!-- Node9 -->
<g id="node9" class="node">
<title>Node9</title>
<g id="a_node9"><a xlink:href="classcom_1_1fs_1_1starfarer_1_1api_1_1util_1_1FlickerUtilV2.html" target="_top" xlink:title=" ">
<polygon fill="none" stroke="black" points="245.5,-0.5 245.5,-30.5 361.5,-30.5 361.5,-0.5 245.5,-0.5"/>
<text text-anchor="start" x="253.5" y="-18.5" font-family="Helvetica,sans-Serif" font-size="10.00">com.fs.starfarer.api.util.</text>
<text text-anchor="middle" x="303.5" y="-7.5" font-family="Helvetica,sans-Serif" font-size="10.00">FlickerUtilV2</text>
</a>
</g>
</g>
<!-- Node9&#45;&gt;Node7 -->
<g id="edge8" class="edge">
<title>Node9&#45;&gt;Node7</title>
<path fill="none" stroke="#9a32cd" stroke-dasharray="5,2" d="M371.72,-28.19C406.11,-34.69 448.21,-42.64 484.24,-49.44"/>
<polygon fill="#9a32cd" stroke="#9a32cd" points="372.25,-24.73 361.77,-26.31 370.95,-31.61 372.25,-24.73"/>
<text text-anchor="middle" x="433" y="-44.5" font-family="Helvetica,sans-Serif" font-size="10.00"> flicker</text>
</g>
</g>
</svg>
