<?xml version="1.0" encoding="UTF-8" standalone="no"?>
<!DOCTYPE svg PUBLIC "-//W3C//DTD SVG 1.1//EN"
 "http://www.w3.org/Graphics/SVG/1.1/DTD/svg11.dtd">
<!-- Generated by graphviz version 12.2.0 (20241103.1931)
 -->
<!-- Title: com.fs.starfarer.api.impl.combat.NegativeExplosionVisual Pages: 1 -->
<!--zoomable 261 -->

<svg id="main" version="1.1" xmlns="http://www.w3.org/2000/svg" xmlns:xlink="http://www.w3.org/1999/xlink" xml:space="preserve" onload="init(evt)">

<style type="text/css"><![CDATA[
.node, .edge {opacity: 0.7;}
.node.selected, .edge.selected {opacity: 1;}
.edge:hover path { stroke: red; }
.edge:hover polygon { stroke: red; fill: red; }
]]></style>

<defs>
  <circle id="rim" cx="0" cy="0" r="7"/>
  <circle id="rim2" cx="0" cy="0" r="3.5"/>
  <g id="zoomPlus">
    <use xlink:href="#rim" fill="#404040"><set attributeName="fill" to="#808080" begin="zoomplus.mouseover" end="zoomplus.mouseout"/></use>
    <path d="M-4,0h8M0,-4v8" fill="none" stroke="white" stroke-width="1.5" pointer-events="none"/>
  </g>
  <g id="zoomMin">
    <use xlink:href="#rim" fill="#404040"><set attributeName="fill" to="#808080" begin="zoomminus.mouseover" end="zoomminus.mouseout"/></use>
    <path d="M-4,0h8" fill="none" stroke="white" stroke-width="1.5" pointer-events="none"/>
  </g>
  <g id="arrowUp" transform="translate(30 24)">
    <use xlink:href="#rim"/>
    <path pointer-events="none" fill="none" stroke="white" stroke-width="1.5" d="M0,-3.0v7 M-2.5,-0.5L0,-3.0L2.5,-0.5"/>
  </g>
  <g id="arrowRight" transform="rotate(90) translate(36 -43)">
    <use xlink:href="#rim"/>
    <path pointer-events="none" fill="none" stroke="white" stroke-width="1.5" d="M0,-3.0v7 M-2.5,-0.5L0,-3.0L2.5,-0.5"/>
  </g>
  <g id="arrowDown" transform="rotate(180) translate(-30 -48)">
    <use xlink:href="#rim"/>
    <path pointer-events="none" fill="none" stroke="white" stroke-width="1.5" d="M0,-3.0v7 M-2.5,-0.5L0,-3.0L2.5,-0.5"/>
  </g>
  <g id="arrowLeft" transform="rotate(270) translate(-36 17)">
    <use xlink:href="#rim"/>
    <path pointer-events="none" fill="none" stroke="white" stroke-width="1.5" d="M0,-3.0v7 M-2.5,-0.5L0,-3.0L2.5,-0.5"/>
  </g>
  <g id="resetDef">
    <use xlink:href="#rim2" fill="#404040"><set attributeName="fill" to="#808080" begin="reset.mouseover" end="reset.mouseout"/></use>
  </g>
</defs>
<script type="application/ecmascript">
var viewWidth = 718;
var viewHeight = 261;
var sectionId = 'dynsection-1';
</script>
<script type="application/ecmascript" xlink:href="svg.min.js"/>
<svg id="graph" class="graph">
<g id="viewport">
<title>com.fs.starfarer.api.impl.combat.NegativeExplosionVisual</title>
<!-- Node1 -->
<g id="Node000001" class="node">
<title>Node1</title>
<g id="a_Node000001"><a xlink:title=" ">
<polygon fill="#999999" stroke="#666666" points="710.25,-129.88 554.75,-129.88 554.75,-99.38 710.25,-99.38 710.25,-129.88"/>
<text text-anchor="start" x="562.75" y="-116.38" font-family="Helvetica,sans-Serif" font-size="10.00">com.fs.starfarer.api.impl.combat.</text>
<text text-anchor="middle" x="632.5" y="-105.12" font-family="Helvetica,sans-Serif" font-size="10.00">NegativeExplosionVisual</text>
</a>
</g>
</g>
<!-- Node2 -->
<g id="Node000002" class="node">
<title>Node2</title>
<g id="a_Node000002"><a xlink:href="classcom_1_1fs_1_1starfarer_1_1api_1_1combat_1_1BaseCombatLayeredRenderingPlugin.html" target="_top" xlink:title=" ">
<polygon fill="white" stroke="#666666" points="449.75,-203.88 272.5,-203.88 272.5,-173.38 449.75,-173.38 449.75,-203.88"/>
<text text-anchor="start" x="280.5" y="-190.38" font-family="Helvetica,sans-Serif" font-size="10.00">com.fs.starfarer.api.combat.</text>
<text text-anchor="middle" x="361.12" y="-179.12" font-family="Helvetica,sans-Serif" font-size="10.00">BaseCombatLayeredRenderingPlugin</text>
</a>
</g>
</g>
<!-- Node2&#45;&gt;Node1 -->
<g id="edge1_Node000001_Node000002" class="edge">
<title>Node2&#45;&gt;Node1</title>
<g id="a_edge1_Node000001_Node000002"><a xlink:title=" ">
<path fill="none" stroke="#63b8ff" d="M439.29,-170.24C469.76,-162.7 505.01,-153.64 536.75,-144.62 552.19,-140.24 568.91,-135.08 583.95,-130.29"/>
<polygon fill="#63b8ff" stroke="#63b8ff" points="438.64,-166.79 429.77,-172.58 440.31,-173.59 438.64,-166.79"/>
</a>
</g>
</g>
<!-- Node3 -->
<g id="Node000003" class="node">
<title>Node3</title>
<g id="a_Node000003"><a xlink:href="interfacecom_1_1fs_1_1starfarer_1_1api_1_1combat_1_1CombatLayeredRenderingPlugin.html" target="_top" xlink:title=" ">
<polygon fill="white" stroke="#666666" points="154.75,-252.88 0,-252.88 0,-222.38 154.75,-222.38 154.75,-252.88"/>
<text text-anchor="start" x="8" y="-239.38" font-family="Helvetica,sans-Serif" font-size="10.00">com.fs.starfarer.api.combat.</text>
<text text-anchor="middle" x="77.38" y="-228.12" font-family="Helvetica,sans-Serif" font-size="10.00">CombatLayeredRenderingPlugin</text>
</a>
</g>
</g>
<!-- Node3&#45;&gt;Node2 -->
<g id="edge2_Node000002_Node000003" class="edge">
<title>Node3&#45;&gt;Node2</title>
<g id="a_edge2_Node000002_Node000003"><a xlink:title=" ">
<path fill="none" stroke="#63b8ff" d="M166.22,-222.35C199.92,-216.49 238.35,-209.8 272.06,-203.94"/>
<polygon fill="#63b8ff" stroke="#63b8ff" points="165.74,-218.88 156.48,-224.04 166.94,-225.78 165.74,-218.88"/>
</a>
</g>
</g>
<!-- Node4 -->
<g id="Node000004" class="node">
<title>Node4</title>
<g id="a_Node000004"><a xlink:href="enumcom_1_1fs_1_1starfarer_1_1api_1_1combat_1_1CombatEngineLayers.html" target="_top" xlink:title=" ">
<polygon fill="white" stroke="#666666" points="145,-203.88 9.75,-203.88 9.75,-173.38 145,-173.38 145,-203.88"/>
<text text-anchor="start" x="17.75" y="-190.38" font-family="Helvetica,sans-Serif" font-size="10.00">com.fs.starfarer.api.combat.</text>
<text text-anchor="middle" x="77.38" y="-179.12" font-family="Helvetica,sans-Serif" font-size="10.00">CombatEngineLayers</text>
</a>
</g>
</g>
<!-- Node4&#45;&gt;Node2 -->
<g id="edge3_Node000002_Node000004" class="edge">
<title>Node4&#45;&gt;Node2</title>
<g id="a_edge3_Node000002_Node000004"><a xlink:title=" ">
<path fill="none" stroke="#9a32cd" stroke-dasharray="5,2" d="M156.55,-188.62C192.46,-188.62 235.2,-188.62 272.23,-188.62"/>
<polygon fill="#9a32cd" stroke="#9a32cd" points="156.66,-185.13 146.66,-188.63 156.66,-192.13 156.66,-185.13"/>
</a>
</g>
<text text-anchor="middle" x="213.62" y="-190.38" font-family="Helvetica,sans-Serif" font-size="10.00" fill="grey"> layer</text>
</g>
<!-- Node5 -->
<g id="Node000005" class="node">
<title>Node5</title>
<g id="a_Node000005"><a xlink:href="interfacecom_1_1fs_1_1starfarer_1_1api_1_1combat_1_1CombatEntityAPI.html" target="_top" xlink:title=" ">
<polygon fill="white" stroke="#666666" points="145,-154.88 9.75,-154.88 9.75,-124.38 145,-124.38 145,-154.88"/>
<text text-anchor="start" x="17.75" y="-141.38" font-family="Helvetica,sans-Serif" font-size="10.00">com.fs.starfarer.api.combat.</text>
<text text-anchor="middle" x="77.38" y="-130.12" font-family="Helvetica,sans-Serif" font-size="10.00">CombatEntityAPI</text>
</a>
</g>
</g>
<!-- Node5&#45;&gt;Node2 -->
<g id="edge4_Node000002_Node000005" class="edge">
<title>Node5&#45;&gt;Node2</title>
<g id="a_edge4_Node000002_Node000005"><a xlink:title=" ">
<path fill="none" stroke="#9a32cd" stroke-dasharray="5,2" d="M156.08,-153.14C192.09,-159.4 235.04,-166.87 272.23,-173.34"/>
<polygon fill="#9a32cd" stroke="#9a32cd" points="157.09,-149.76 146.64,-151.5 155.89,-156.66 157.09,-149.76"/>
</a>
</g>
<text text-anchor="middle" x="213.62" y="-171.7" font-family="Helvetica,sans-Serif" font-size="10.00" fill="grey"> entity</text>
</g>
<!-- Node6 -->
<g id="Node000006" class="node">
<title>Node6</title>
<g id="a_Node000006"><a xlink:href="classcom_1_1fs_1_1starfarer_1_1api_1_1util_1_1FaderUtil.html" target="_top" xlink:title=" ">
<polygon fill="white" stroke="#666666" points="419,-154.88 303.25,-154.88 303.25,-124.38 419,-124.38 419,-154.88"/>
<text text-anchor="start" x="311.25" y="-141.38" font-family="Helvetica,sans-Serif" font-size="10.00">com.fs.starfarer.api.util.</text>
<text text-anchor="middle" x="361.12" y="-130.12" font-family="Helvetica,sans-Serif" font-size="10.00">FaderUtil</text>
</a>
</g>
</g>
<!-- Node6&#45;&gt;Node1 -->
<g id="edge5_Node000001_Node000006" class="edge">
<title>Node6&#45;&gt;Node1</title>
<g id="a_edge5_Node000001_Node000006"><a xlink:title=" ">
<path fill="none" stroke="#9a32cd" stroke-dasharray="5,2" d="M430.64,-133.27C468.35,-129.77 515.26,-125.41 554.27,-121.79"/>
<polygon fill="#9a32cd" stroke="#9a32cd" points="430.39,-129.77 420.76,-134.18 431.04,-136.74 430.39,-129.77"/>
</a>
</g>
<text text-anchor="middle" x="502.25" y="-131.11" font-family="Helvetica,sans-Serif" font-size="10.00" fill="grey"> fader</text>
</g>
<!-- Node7 -->
<g id="Node000007" class="node">
<title>Node7</title>
<g id="a_Node000007"><a xlink:href="interfacecom_1_1fs_1_1starfarer_1_1api_1_1graphics_1_1SpriteAPI.html" target="_top" xlink:title=" ">
<polygon fill="white" stroke="#666666" points="431,-105.88 291.25,-105.88 291.25,-75.38 431,-75.38 431,-105.88"/>
<text text-anchor="start" x="299.25" y="-92.38" font-family="Helvetica,sans-Serif" font-size="10.00">com.fs.starfarer.api.graphics.</text>
<text text-anchor="middle" x="361.12" y="-81.12" font-family="Helvetica,sans-Serif" font-size="10.00">SpriteAPI</text>
</a>
</g>
</g>
<!-- Node7&#45;&gt;Node1 -->
<g id="edge6_Node000001_Node000007" class="edge">
<title>Node7&#45;&gt;Node1</title>
<g id="a_edge6_Node000001_Node000007"><a xlink:title=" ">
<path fill="none" stroke="#9a32cd" stroke-dasharray="5,2" d="M442.74,-97.81C478.07,-100.96 519.36,-104.63 554.29,-107.75"/>
<polygon fill="#9a32cd" stroke="#9a32cd" points="443.27,-94.34 433,-96.94 442.65,-101.31 443.27,-94.34"/>
</a>
</g>
<text text-anchor="middle" x="502.25" y="-107.93" font-family="Helvetica,sans-Serif" font-size="10.00" fill="grey"> atmosphereTex</text>
</g>
<!-- Node8 -->
<g id="Node000008" class="node">
<title>Node8</title>
<g id="a_Node000008"><a xlink:title=" ">
<polygon fill="white" stroke="#666666" points="447.5,-56.88 274.75,-56.88 274.75,-26.38 447.5,-26.38 447.5,-56.88"/>
<text text-anchor="start" x="282.75" y="-43.38" font-family="Helvetica,sans-Serif" font-size="10.00">com.fs.starfarer.api.impl.combat.</text>
<text text-anchor="middle" x="361.12" y="-32.12" font-family="Helvetica,sans-Serif" font-size="10.00">NegativeExplosionVisual.NEParams</text>
</a>
</g>
</g>
<!-- Node8&#45;&gt;Node1 -->
<g id="edge7_Node000001_Node000008" class="edge">
<title>Node8&#45;&gt;Node1</title>
<g id="a_edge7_Node000001_Node000008"><a xlink:title=" ">
<path fill="none" stroke="#9a32cd" stroke-dasharray="5,2" d="M439.26,-60C469.73,-67.51 504.98,-76.5 536.75,-85.38 551.67,-89.54 567.81,-94.4 582.47,-98.94"/>
<polygon fill="#9a32cd" stroke="#9a32cd" points="440.29,-56.65 429.74,-57.67 438.62,-63.45 440.29,-56.65"/>
</a>
</g>
<text text-anchor="middle" x="502.25" y="-87.12" font-family="Helvetica,sans-Serif" font-size="10.00" fill="grey"> p</text>
</g>
<!-- Node9 -->
<g id="Node000009" class="node">
<title>Node9</title>
<g id="a_Node000009"><a xlink:title=" ">
<polygon fill="white" stroke="#666666" points="106.75,-79.25 48,-79.25 48,-60 106.75,-60 106.75,-79.25"/>
<text text-anchor="middle" x="77.38" y="-65.75" font-family="Helvetica,sans-Serif" font-size="10.00">Cloneable</text>
</a>
</g>
</g>
<!-- Node9&#45;&gt;Node8 -->
<g id="edge8_Node000008_Node000009" class="edge">
<title>Node9&#45;&gt;Node8</title>
<g id="a_edge8_Node000008_Node000009"><a xlink:title=" ">
<path fill="none" stroke="#63b8ff" d="M118.49,-67.04C154.22,-64.59 207.91,-60.56 254.5,-55.62 260.94,-54.94 267.59,-54.19 274.28,-53.39"/>
<polygon fill="#63b8ff" stroke="#63b8ff" points="118.35,-63.54 108.6,-67.7 118.82,-70.52 118.35,-63.54"/>
</a>
</g>
</g>
<!-- Node10 -->
<g id="Node000010" class="node">
<title>Node10</title>
<g id="a_Node000010"><a xlink:title=" ">
<polygon fill="white" stroke="#666666" points="96.62,-19.25 58.12,-19.25 58.12,0 96.62,0 96.62,-19.25"/>
<text text-anchor="middle" x="77.38" y="-5.75" font-family="Helvetica,sans-Serif" font-size="10.00">Color</text>
</a>
</g>
</g>
<!-- Node10&#45;&gt;Node8 -->
<g id="edge9_Node000008_Node000010" class="edge">
<title>Node10&#45;&gt;Node8</title>
<g id="a_edge9_Node000008_Node000010"><a xlink:title=" ">
<path fill="none" stroke="#9a32cd" stroke-dasharray="5,2" d="M108.41,-5.91C143.66,-2.3 203.73,1.57 254.5,-6.62 277.77,-10.38 302.85,-18.5 322.73,-25.98"/>
<polygon fill="#9a32cd" stroke="#9a32cd" points="108.1,-2.43 98.54,-7 108.87,-9.39 108.1,-2.43"/>
</a>
</g>
<text text-anchor="middle" x="213.62" y="-42.12" font-family="Helvetica,sans-Serif" font-size="10.00" fill="grey"> blackColor</text>
<text text-anchor="middle" x="213.62" y="-30.88" font-family="Helvetica,sans-Serif" font-size="10.00" fill="grey">color</text>
<text text-anchor="middle" x="213.62" y="-19.62" font-family="Helvetica,sans-Serif" font-size="10.00" fill="grey">invertForDarkening</text>
<text text-anchor="middle" x="213.62" y="-8.38" font-family="Helvetica,sans-Serif" font-size="10.00" fill="grey">underglow</text>
</g>
</g>
</svg>

<g id="navigator" transform="translate(0 0)" fill="#404254">
  <rect fill="#f2f5e9" fill-opacity="0.5" stroke="#606060" stroke-width=".5" x="0" y="0" width="60" height="60"/>
  <use id="zoomplus" xlink:href="#zoomPlus" x="17" y="9" onmousedown="handleZoom(evt,'in')"/>
  <use id="zoomminus" xlink:href="#zoomMin" x="42" y="9" onmousedown="handleZoom(evt,'out')"/>
  <use id="reset" xlink:href="#resetDef" x="30" y="36" onmousedown="handleReset()"/>
   <use id="arrowup" xlink:href="#arrowUp" x="0" y="0" onmousedown="handlePan(0,-1)"/>
  <use id="arrowright" xlink:href="#arrowRight" x="0" y="0" onmousedown="handlePan(1,0)"/>
  <use id="arrowdown" xlink:href="#arrowDown" x="0" y="0" onmousedown="handlePan(0,1)"/>
  <use id="arrowleft" xlink:href="#arrowLeft" x="0" y="0" onmousedown="handlePan(-1,0)"/>
</g>
<svg viewBox="0 0 15 15" width="100%" height="30px" preserveAspectRatio="xMaxYMin meet">
 <g id="arrow_out" transform="scale(0.3 0.3)">
  <a xlink:href="classcom_1_1fs_1_1starfarer_1_1api_1_1impl_1_1combat_1_1NegativeExplosionVisual__coll__graph_org.svg" target="_base">
   <rect id="button" ry="5" rx="5" y="6" x="6" height="38" width="38"
        fill="#f2f5e9" fill-opacity="0.5" stroke="#606060" stroke-width="1.0"/>
   <path id="arrow"
     d="M 11.500037,31.436501 C 11.940474,20.09759 22.043105,11.32322 32.158766,21.979434 L 37.068811,17.246167 C 37.068811,17.246167 37.088388,32 37.088388,32 L 22.160133,31.978069 C 22.160133,31.978069 26.997745,27.140456 26.997745,27.140456 C 18.528582,18.264221 13.291696,25.230495 11.500037,31.436501 z"
     style="fill:#404040;"/>
  </a>
 </g>
</svg>

<style type='text/css'>
<![CDATA[
[data-mouse-over-selected='false'] { opacity: 0.7; }
[data-mouse-over-selected='true']  { opacity: 1.0; }
]]>
</style>
<script type="application/ecmascript"><![CDATA[
document.addEventListener('DOMContentLoaded', (event) => {
  highlightEdges();
  highlightAdjacentNodes();
});
]]></script>
</svg>
