<?xml version="1.0" encoding="UTF-8" standalone="no"?>
<!DOCTYPE svg PUBLIC "-//W3C//DTD SVG 1.1//EN"
 "http://www.w3.org/Graphics/SVG/1.1/DTD/svg11.dtd">
<!-- Generated by graphviz version 9.0.0 (20230911.1827)
 -->
<!-- Title: com.fs.starfarer.api.impl.campaign.abilities.BaseAbilityPlugin Pages: 1 -->
<svg width="842pt" height="529pt"
 viewBox="0.00 0.00 842.25 528.50" xmlns="http://www.w3.org/2000/svg" xmlns:xlink="http://www.w3.org/1999/xlink">
<g id="graph0" class="graph" transform="scale(1 1) rotate(0) translate(4 524.5)">
<title>com.fs.starfarer.api.impl.campaign.abilities.BaseAbilityPlugin</title>
<!-- Node1 -->
<g id="Node000001" class="node">
<title>Node1</title>
<g id="a_Node000001"><a xlink:title=" ">
<polygon fill="#999999" stroke="#666666" points="361.25,-226.5 160.75,-226.5 160.75,-196 361.25,-196 361.25,-226.5"/>
<text text-anchor="start" x="168.75" y="-213" font-family="Helvetica,sans-Serif" font-size="10.00">com.fs.starfarer.api.impl.campaign.abilities.</text>
<text text-anchor="middle" x="261" y="-201.75" font-family="Helvetica,sans-Serif" font-size="10.00">BaseAbilityPlugin</text>
</a>
</g>
</g>
<!-- Node4 -->
<g id="Node000004" class="node">
<title>Node4</title>
<g id="a_Node000004"><a xlink:href="classcom_1_1fs_1_1starfarer_1_1api_1_1impl_1_1campaign_1_1abilities_1_1BaseDurationAbility.html" target="_top" xlink:title=" ">
<polygon fill="white" stroke="#666666" points="597.75,-348.5 397.25,-348.5 397.25,-318 597.75,-318 597.75,-348.5"/>
<text text-anchor="start" x="405.25" y="-335" font-family="Helvetica,sans-Serif" font-size="10.00">com.fs.starfarer.api.impl.campaign.abilities.</text>
<text text-anchor="middle" x="497.5" y="-323.75" font-family="Helvetica,sans-Serif" font-size="10.00">BaseDurationAbility</text>
</a>
</g>
</g>
<!-- Node1&#45;&gt;Node4 -->
<g id="edge3_Node000001_Node000004" class="edge">
<title>Node1&#45;&gt;Node4</title>
<g id="a_edge3_Node000001_Node000004"><a xlink:title=" ">
<path fill="none" stroke="#63b8ff" d="M302.23,-232.18C348.86,-256.44 424.64,-295.86 466.44,-317.61"/>
<polygon fill="#63b8ff" stroke="#63b8ff" points="304.01,-229.16 293.52,-227.65 300.78,-235.37 304.01,-229.16"/>
</a>
</g>
</g>
<!-- Node12 -->
<g id="Node000012" class="node">
<title>Node12</title>
<g id="a_Node000012"><a xlink:href="classcom_1_1fs_1_1starfarer_1_1api_1_1impl_1_1campaign_1_1abilities_1_1BaseToggleAbility.html" target="_top" xlink:title=" ">
<polygon fill="white" stroke="#666666" points="597.75,-128.5 397.25,-128.5 397.25,-98 597.75,-98 597.75,-128.5"/>
<text text-anchor="start" x="405.25" y="-115" font-family="Helvetica,sans-Serif" font-size="10.00">com.fs.starfarer.api.impl.campaign.abilities.</text>
<text text-anchor="middle" x="497.5" y="-103.75" font-family="Helvetica,sans-Serif" font-size="10.00">BaseToggleAbility</text>
</a>
</g>
</g>
<!-- Node1&#45;&gt;Node12 -->
<g id="edge11_Node000001_Node000012" class="edge">
<title>Node1&#45;&gt;Node12</title>
<g id="a_edge11_Node000001_Node000012"><a xlink:title=" ">
<path fill="none" stroke="#63b8ff" d="M310.14,-191.13C354.21,-172.72 418.53,-145.84 458.92,-128.96"/>
<polygon fill="#63b8ff" stroke="#63b8ff" points="308.95,-187.84 301.07,-194.92 311.65,-194.29 308.95,-187.84"/>
</a>
</g>
</g>
<!-- Node2 -->
<g id="Node000002" class="node">
<title>Node2</title>
<g id="a_Node000002"><a xlink:title=" ">
<polygon fill="white" stroke="#666666" points="97,-242.88 27.75,-242.88 27.75,-223.62 97,-223.62 97,-242.88"/>
<text text-anchor="middle" x="62.38" y="-229.38" font-family="Helvetica,sans-Serif" font-size="10.00">AbilityPlugin</text>
</a>
</g>
</g>
<!-- Node2&#45;&gt;Node1 -->
<g id="edge1_Node000001_Node000002" class="edge">
<title>Node2&#45;&gt;Node1</title>
<g id="a_edge1_Node000001_Node000002"><a xlink:title=" ">
<path fill="none" stroke="#63b8ff" d="M108.52,-228.2C124.06,-226.46 142.14,-224.44 160.28,-222.41"/>
<polygon fill="#63b8ff" stroke="#63b8ff" points="108.23,-224.71 98.68,-229.3 109.01,-231.67 108.23,-224.71"/>
</a>
</g>
</g>
<!-- Node3 -->
<g id="Node000003" class="node">
<title>Node3</title>
<g id="a_Node000003"><a xlink:href="interfacecom_1_1fs_1_1starfarer_1_1api_1_1EveryFrameScript.html" target="_top" xlink:title=" ">
<polygon fill="white" stroke="#666666" points="124.75,-205.5 0,-205.5 0,-175 124.75,-175 124.75,-205.5"/>
<text text-anchor="start" x="8" y="-192" font-family="Helvetica,sans-Serif" font-size="10.00">com.fs.starfarer.api.Every</text>
<text text-anchor="middle" x="62.38" y="-180.75" font-family="Helvetica,sans-Serif" font-size="10.00">FrameScript</text>
</a>
</g>
</g>
<!-- Node3&#45;&gt;Node1 -->
<g id="edge2_Node000001_Node000003" class="edge">
<title>Node3&#45;&gt;Node1</title>
<g id="a_edge2_Node000001_Node000003"><a xlink:title=" ">
<path fill="none" stroke="#63b8ff" d="M136.35,-198.04C144.2,-198.88 152.27,-199.74 160.36,-200.61"/>
<polygon fill="#63b8ff" stroke="#63b8ff" points="136.87,-194.58 126.55,-197 136.13,-201.54 136.87,-194.58"/>
</a>
</g>
</g>
<!-- Node5 -->
<g id="Node000005" class="node">
<title>Node5</title>
<g id="a_Node000005"><a xlink:href="classcom_1_1fs_1_1starfarer_1_1api_1_1impl_1_1campaign_1_1abilities_1_1DistressCallAbility.html" target="_top" xlink:title=" ">
<polygon fill="white" stroke="#666666" points="834.25,-520.5 633.75,-520.5 633.75,-490 834.25,-490 834.25,-520.5"/>
<text text-anchor="start" x="641.75" y="-507" font-family="Helvetica,sans-Serif" font-size="10.00">com.fs.starfarer.api.impl.campaign.abilities.</text>
<text text-anchor="middle" x="734" y="-495.75" font-family="Helvetica,sans-Serif" font-size="10.00">DistressCallAbility</text>
</a>
</g>
</g>
<!-- Node4&#45;&gt;Node5 -->
<g id="edge4_Node000004_Node000005" class="edge">
<title>Node4&#45;&gt;Node5</title>
<g id="a_edge4_Node000004_Node000005"><a xlink:title=" ">
<path fill="none" stroke="#63b8ff" d="M514.58,-358.3C537.14,-391.38 581.36,-449.07 633.75,-480.25 639.78,-483.84 646.31,-486.92 653.05,-489.55"/>
<polygon fill="#63b8ff" stroke="#63b8ff" points="517.59,-356.52 509.12,-350.14 511.77,-360.4 517.59,-356.52"/>
</a>
</g>
</g>
<!-- Node6 -->
<g id="Node000006" class="node">
<title>Node6</title>
<g id="a_Node000006"><a xlink:href="classcom_1_1fs_1_1starfarer_1_1api_1_1impl_1_1campaign_1_1abilities_1_1EmergencyBurnAbility.html" target="_top" xlink:title=" ">
<polygon fill="white" stroke="#666666" points="834.25,-471.5 633.75,-471.5 633.75,-441 834.25,-441 834.25,-471.5"/>
<text text-anchor="start" x="641.75" y="-458" font-family="Helvetica,sans-Serif" font-size="10.00">com.fs.starfarer.api.impl.campaign.abilities.</text>
<text text-anchor="middle" x="734" y="-446.75" font-family="Helvetica,sans-Serif" font-size="10.00">EmergencyBurnAbility</text>
</a>
</g>
</g>
<!-- Node4&#45;&gt;Node6 -->
<g id="edge5_Node000004_Node000006" class="edge">
<title>Node4&#45;&gt;Node6</title>
<g id="a_edge5_Node000004_Node000006"><a xlink:title=" ">
<path fill="none" stroke="#63b8ff" d="M523.94,-356.3C549.8,-378.57 591.92,-411.71 633.75,-431.25 641.32,-434.78 649.45,-437.86 657.69,-440.53"/>
<polygon fill="#63b8ff" stroke="#63b8ff" points="526.46,-353.86 516.63,-349.91 521.86,-359.13 526.46,-353.86"/>
</a>
</g>
</g>
<!-- Node7 -->
<g id="Node000007" class="node">
<title>Node7</title>
<g id="a_Node000007"><a xlink:href="classcom_1_1fs_1_1starfarer_1_1api_1_1impl_1_1campaign_1_1abilities_1_1FractureJumpAbility.html" target="_top" xlink:title=" ">
<polygon fill="white" stroke="#666666" points="834.25,-422.5 633.75,-422.5 633.75,-392 834.25,-392 834.25,-422.5"/>
<text text-anchor="start" x="641.75" y="-409" font-family="Helvetica,sans-Serif" font-size="10.00">com.fs.starfarer.api.impl.campaign.abilities.</text>
<text text-anchor="middle" x="734" y="-397.75" font-family="Helvetica,sans-Serif" font-size="10.00">FractureJumpAbility</text>
</a>
</g>
</g>
<!-- Node4&#45;&gt;Node7 -->
<g id="edge6_Node000004_Node000007" class="edge">
<title>Node4&#45;&gt;Node7</title>
<g id="a_edge6_Node000004_Node000007"><a xlink:title=" ">
<path fill="none" stroke="#63b8ff" d="M548.83,-352.85C574.11,-362.35 605.33,-373.55 633.75,-382.25 644.37,-385.5 655.72,-388.66 666.81,-391.57"/>
<polygon fill="#63b8ff" stroke="#63b8ff" points="550.39,-349.7 539.8,-349.44 547.92,-356.25 550.39,-349.7"/>
</a>
</g>
</g>
<!-- Node8 -->
<g id="Node000008" class="node">
<title>Node8</title>
<g id="a_Node000008"><a xlink:href="classcom_1_1fs_1_1starfarer_1_1api_1_1impl_1_1campaign_1_1abilities_1_1InterdictionPulseAbility.html" target="_top" xlink:title=" ">
<polygon fill="white" stroke="#666666" points="834.25,-373.5 633.75,-373.5 633.75,-343 834.25,-343 834.25,-373.5"/>
<text text-anchor="start" x="641.75" y="-360" font-family="Helvetica,sans-Serif" font-size="10.00">com.fs.starfarer.api.impl.campaign.abilities.</text>
<text text-anchor="middle" x="734" y="-348.75" font-family="Helvetica,sans-Serif" font-size="10.00">InterdictionPulseAbility</text>
</a>
</g>
</g>
<!-- Node4&#45;&gt;Node8 -->
<g id="edge7_Node000004_Node000008" class="edge">
<title>Node4&#45;&gt;Node8</title>
<g id="a_edge7_Node000004_Node000008"><a xlink:title=" ">
<path fill="none" stroke="#63b8ff" d="M609.28,-345.06C617.33,-345.92 625.42,-346.78 633.4,-347.63"/>
<polygon fill="#63b8ff" stroke="#63b8ff" points="609.77,-341.59 599.45,-344.01 609.03,-348.55 609.77,-341.59"/>
</a>
</g>
</g>
<!-- Node9 -->
<g id="Node000009" class="node">
<title>Node9</title>
<g id="a_Node000009"><a xlink:href="classcom_1_1fs_1_1starfarer_1_1api_1_1impl_1_1campaign_1_1abilities_1_1RemoteSurveyAbility.html" target="_top" xlink:title=" ">
<polygon fill="white" stroke="#666666" points="834.25,-324.5 633.75,-324.5 633.75,-294 834.25,-294 834.25,-324.5"/>
<text text-anchor="start" x="641.75" y="-311" font-family="Helvetica,sans-Serif" font-size="10.00">com.fs.starfarer.api.impl.campaign.abilities.</text>
<text text-anchor="middle" x="734" y="-299.75" font-family="Helvetica,sans-Serif" font-size="10.00">RemoteSurveyAbility</text>
</a>
</g>
</g>
<!-- Node4&#45;&gt;Node9 -->
<g id="edge8_Node000004_Node000009" class="edge">
<title>Node4&#45;&gt;Node9</title>
<g id="a_edge8_Node000004_Node000009"><a xlink:title=" ">
<path fill="none" stroke="#63b8ff" d="M609.28,-321.91C617.33,-321.09 625.42,-320.26 633.4,-319.44"/>
<polygon fill="#63b8ff" stroke="#63b8ff" points="609.05,-318.42 599.45,-322.92 609.76,-325.38 609.05,-318.42"/>
</a>
</g>
</g>
<!-- Node10 -->
<g id="Node000010" class="node">
<title>Node10</title>
<g id="a_Node000010"><a xlink:href="classcom_1_1fs_1_1starfarer_1_1api_1_1impl_1_1campaign_1_1abilities_1_1ScavengeAbility.html" target="_top" xlink:title=" ">
<polygon fill="white" stroke="#666666" points="834.25,-275.5 633.75,-275.5 633.75,-245 834.25,-245 834.25,-275.5"/>
<text text-anchor="start" x="641.75" y="-262" font-family="Helvetica,sans-Serif" font-size="10.00">com.fs.starfarer.api.impl.campaign.abilities.</text>
<text text-anchor="middle" x="734" y="-250.75" font-family="Helvetica,sans-Serif" font-size="10.00">ScavengeAbility</text>
</a>
</g>
</g>
<!-- Node4&#45;&gt;Node10 -->
<g id="edge9_Node000004_Node000010" class="edge">
<title>Node4&#45;&gt;Node10</title>
<g id="a_edge9_Node000004_Node000010"><a xlink:title=" ">
<path fill="none" stroke="#63b8ff" d="M550.32,-313.57C575.34,-304.4 605.91,-293.67 633.75,-285.25 644.38,-282.03 655.73,-278.9 666.83,-275.99"/>
<polygon fill="#63b8ff" stroke="#63b8ff" points="549.19,-310.25 541.02,-317 551.61,-316.82 549.19,-310.25"/>
</a>
</g>
</g>
<!-- Node11 -->
<g id="Node000011" class="node">
<title>Node11</title>
<g id="a_Node000011"><a xlink:href="classcom_1_1fs_1_1starfarer_1_1api_1_1impl_1_1campaign_1_1abilities_1_1SensorBurstAbility.html" target="_top" xlink:title=" ">
<polygon fill="white" stroke="#666666" points="834.25,-226.5 633.75,-226.5 633.75,-196 834.25,-196 834.25,-226.5"/>
<text text-anchor="start" x="641.75" y="-213" font-family="Helvetica,sans-Serif" font-size="10.00">com.fs.starfarer.api.impl.campaign.abilities.</text>
<text text-anchor="middle" x="734" y="-201.75" font-family="Helvetica,sans-Serif" font-size="10.00">SensorBurstAbility</text>
</a>
</g>
</g>
<!-- Node4&#45;&gt;Node11 -->
<g id="edge10_Node000004_Node000011" class="edge">
<title>Node4&#45;&gt;Node11</title>
<g id="a_edge10_Node000004_Node000011"><a xlink:title=" ">
<path fill="none" stroke="#63b8ff" d="M523.98,-310.45C549.87,-288.42 592.02,-255.62 633.75,-236.25 641.41,-232.7 649.64,-229.6 657.97,-226.92"/>
<polygon fill="#63b8ff" stroke="#63b8ff" points="521.95,-307.58 516.67,-316.76 526.52,-312.87 521.95,-307.58"/>
</a>
</g>
</g>
<!-- Node13 -->
<g id="Node000013" class="node">
<title>Node13</title>
<g id="a_Node000013"><a xlink:href="classcom_1_1fs_1_1starfarer_1_1api_1_1impl_1_1campaign_1_1abilities_1_1GoDarkAbility.html" target="_top" xlink:title=" ">
<polygon fill="white" stroke="#666666" points="834.25,-177.5 633.75,-177.5 633.75,-147 834.25,-147 834.25,-177.5"/>
<text text-anchor="start" x="641.75" y="-164" font-family="Helvetica,sans-Serif" font-size="10.00">com.fs.starfarer.api.impl.campaign.abilities.</text>
<text text-anchor="middle" x="734" y="-152.75" font-family="Helvetica,sans-Serif" font-size="10.00">GoDarkAbility</text>
</a>
</g>
</g>
<!-- Node12&#45;&gt;Node13 -->
<g id="edge12_Node000012_Node000013" class="edge">
<title>Node12&#45;&gt;Node13</title>
<g id="a_edge12_Node000012_Node000013"><a xlink:title=" ">
<path fill="none" stroke="#63b8ff" d="M584.88,-131.3C608.82,-136.3 634.61,-141.69 657.86,-146.55"/>
<polygon fill="#63b8ff" stroke="#63b8ff" points="585.65,-127.89 575.15,-129.27 584.22,-134.74 585.65,-127.89"/>
</a>
</g>
</g>
<!-- Node14 -->
<g id="Node000014" class="node">
<title>Node14</title>
<g id="a_Node000014"><a xlink:href="classcom_1_1fs_1_1starfarer_1_1api_1_1impl_1_1campaign_1_1abilities_1_1GraviticScanAbility.html" target="_top" xlink:title=" ">
<polygon fill="white" stroke="#666666" points="834.25,-128.5 633.75,-128.5 633.75,-98 834.25,-98 834.25,-128.5"/>
<text text-anchor="start" x="641.75" y="-115" font-family="Helvetica,sans-Serif" font-size="10.00">com.fs.starfarer.api.impl.campaign.abilities.</text>
<text text-anchor="middle" x="734" y="-103.75" font-family="Helvetica,sans-Serif" font-size="10.00">GraviticScanAbility</text>
</a>
</g>
</g>
<!-- Node12&#45;&gt;Node14 -->
<g id="edge13_Node000012_Node000014" class="edge">
<title>Node12&#45;&gt;Node14</title>
<g id="a_edge13_Node000012_Node000014"><a xlink:title=" ">
<path fill="none" stroke="#63b8ff" d="M609.28,-113.25C617.33,-113.25 625.42,-113.25 633.4,-113.25"/>
<polygon fill="#63b8ff" stroke="#63b8ff" points="609.46,-109.75 599.46,-113.25 609.46,-116.75 609.46,-109.75"/>
</a>
</g>
</g>
<!-- Node15 -->
<g id="Node000015" class="node">
<title>Node15</title>
<g id="a_Node000015"><a xlink:href="classcom_1_1fs_1_1starfarer_1_1api_1_1impl_1_1campaign_1_1abilities_1_1SustainedBurnAbility.html" target="_top" xlink:title=" ">
<polygon fill="white" stroke="#666666" points="834.25,-79.5 633.75,-79.5 633.75,-49 834.25,-49 834.25,-79.5"/>
<text text-anchor="start" x="641.75" y="-66" font-family="Helvetica,sans-Serif" font-size="10.00">com.fs.starfarer.api.impl.campaign.abilities.</text>
<text text-anchor="middle" x="734" y="-54.75" font-family="Helvetica,sans-Serif" font-size="10.00">SustainedBurnAbility</text>
</a>
</g>
</g>
<!-- Node12&#45;&gt;Node15 -->
<g id="edge14_Node000012_Node000015" class="edge">
<title>Node12&#45;&gt;Node15</title>
<g id="a_edge14_Node000012_Node000015"><a xlink:title=" ">
<path fill="none" stroke="#63b8ff" d="M584.88,-95.2C608.82,-90.2 634.61,-84.81 657.86,-79.95"/>
<polygon fill="#63b8ff" stroke="#63b8ff" points="584.22,-91.76 575.15,-97.23 585.65,-98.61 584.22,-91.76"/>
</a>
</g>
</g>
<!-- Node16 -->
<g id="Node000016" class="node">
<title>Node16</title>
<g id="a_Node000016"><a xlink:href="classcom_1_1fs_1_1starfarer_1_1api_1_1impl_1_1campaign_1_1abilities_1_1TransponderAbility.html" target="_top" xlink:title=" ">
<polygon fill="white" stroke="#666666" points="834.25,-30.5 633.75,-30.5 633.75,0 834.25,0 834.25,-30.5"/>
<text text-anchor="start" x="641.75" y="-17" font-family="Helvetica,sans-Serif" font-size="10.00">com.fs.starfarer.api.impl.campaign.abilities.</text>
<text text-anchor="middle" x="734" y="-5.75" font-family="Helvetica,sans-Serif" font-size="10.00">TransponderAbility</text>
</a>
</g>
</g>
<!-- Node12&#45;&gt;Node16 -->
<g id="edge15_Node000012_Node000016" class="edge">
<title>Node12&#45;&gt;Node16</title>
<g id="a_edge15_Node000012_Node000016"><a xlink:title=" ">
<path fill="none" stroke="#63b8ff" d="M532.65,-91.73C559.34,-75.69 597.81,-54.23 633.75,-40.25 642.61,-36.8 652.1,-33.71 661.57,-30.96"/>
<polygon fill="#63b8ff" stroke="#63b8ff" points="531.05,-88.61 524.32,-96.8 534.69,-94.59 531.05,-88.61"/>
</a>
</g>
</g>
</g>
</svg>
