<?xml version="1.0" encoding="UTF-8" standalone="no"?>
<!DOCTYPE svg PUBLIC "-//W3C//DTD SVG 1.1//EN"
 "http://www.w3.org/Graphics/SVG/1.1/DTD/svg11.dtd">
<!-- Generated by graphviz version 12.2.0 (20241103.1931)
 -->
<!-- Title: com.fs.starfarer.api.plugins.impl.CoreAutofitPlugin Pages: 1 -->
<!--zoomable 534 -->

<svg id="main" version="1.1" xmlns="http://www.w3.org/2000/svg" xmlns:xlink="http://www.w3.org/1999/xlink" xml:space="preserve" onload="init(evt)">

<style type="text/css"><![CDATA[
.node, .edge {opacity: 0.7;}
.node.selected, .edge.selected {opacity: 1;}
.edge:hover path { stroke: red; }
.edge:hover polygon { stroke: red; fill: red; }
]]></style>

<defs>
  <circle id="rim" cx="0" cy="0" r="7"/>
  <circle id="rim2" cx="0" cy="0" r="3.5"/>
  <g id="zoomPlus">
    <use xlink:href="#rim" fill="#404040"><set attributeName="fill" to="#808080" begin="zoomplus.mouseover" end="zoomplus.mouseout"/></use>
    <path d="M-4,0h8M0,-4v8" fill="none" stroke="white" stroke-width="1.5" pointer-events="none"/>
  </g>
  <g id="zoomMin">
    <use xlink:href="#rim" fill="#404040"><set attributeName="fill" to="#808080" begin="zoomminus.mouseover" end="zoomminus.mouseout"/></use>
    <path d="M-4,0h8" fill="none" stroke="white" stroke-width="1.5" pointer-events="none"/>
  </g>
  <g id="arrowUp" transform="translate(30 24)">
    <use xlink:href="#rim"/>
    <path pointer-events="none" fill="none" stroke="white" stroke-width="1.5" d="M0,-3.0v7 M-2.5,-0.5L0,-3.0L2.5,-0.5"/>
  </g>
  <g id="arrowRight" transform="rotate(90) translate(36 -43)">
    <use xlink:href="#rim"/>
    <path pointer-events="none" fill="none" stroke="white" stroke-width="1.5" d="M0,-3.0v7 M-2.5,-0.5L0,-3.0L2.5,-0.5"/>
  </g>
  <g id="arrowDown" transform="rotate(180) translate(-30 -48)">
    <use xlink:href="#rim"/>
    <path pointer-events="none" fill="none" stroke="white" stroke-width="1.5" d="M0,-3.0v7 M-2.5,-0.5L0,-3.0L2.5,-0.5"/>
  </g>
  <g id="arrowLeft" transform="rotate(270) translate(-36 17)">
    <use xlink:href="#rim"/>
    <path pointer-events="none" fill="none" stroke="white" stroke-width="1.5" d="M0,-3.0v7 M-2.5,-0.5L0,-3.0L2.5,-0.5"/>
  </g>
  <g id="resetDef">
    <use xlink:href="#rim2" fill="#404040"><set attributeName="fill" to="#808080" begin="reset.mouseover" end="reset.mouseout"/></use>
  </g>
</defs>
<script type="application/ecmascript">
var viewWidth = 665;
var viewHeight = 534;
var sectionId = 'dynsection-1';
</script>
<script type="application/ecmascript" xlink:href="svg.min.js"/>
<svg id="graph" class="graph">
<g id="viewport">
<title>com.fs.starfarer.api.plugins.impl.CoreAutofitPlugin</title>
<!-- Node1 -->
<g id="Node000001" class="node">
<title>Node1</title>
<g id="a_Node000001"><a xlink:title=" ">
<polygon fill="#999999" stroke="#666666" points="657.25,-255.51 503.25,-255.51 503.25,-225.01 657.25,-225.01 657.25,-255.51"/>
<text text-anchor="start" x="511.25" y="-242.01" font-family="Helvetica,sans-Serif" font-size="10.00">com.fs.starfarer.api.plugins.impl.</text>
<text text-anchor="middle" x="580.25" y="-230.76" font-family="Helvetica,sans-Serif" font-size="10.00">CoreAutofitPlugin</text>
</a>
</g>
</g>
<!-- Node2 -->
<g id="Node000002" class="node">
<title>Node2</title>
<g id="a_Node000002"><a xlink:href="classcom_1_1fs_1_1starfarer_1_1api_1_1plugins_1_1impl_1_1BaseAutofitPlugin.html" target="_top" xlink:title=" ">
<polygon fill="white" stroke="#666666" points="371.62,-525.51 217.62,-525.51 217.62,-495.01 371.62,-495.01 371.62,-525.51"/>
<text text-anchor="start" x="225.62" y="-512.01" font-family="Helvetica,sans-Serif" font-size="10.00">com.fs.starfarer.api.plugins.impl.</text>
<text text-anchor="middle" x="294.62" y="-500.76" font-family="Helvetica,sans-Serif" font-size="10.00">BaseAutofitPlugin</text>
</a>
</g>
</g>
<!-- Node2&#45;&gt;Node1 -->
<g id="edge1_Node000001_Node000002" class="edge">
<title>Node2&#45;&gt;Node1</title>
<g id="a_edge1_Node000001_Node000002"><a xlink:title=" ">
<path fill="none" stroke="#63b8ff" d="M382.98,-519.88C417.96,-519.25 456.66,-512.36 485.25,-490.26 562.29,-430.7 576.19,-300.62 578.7,-255.8"/>
<polygon fill="#63b8ff" stroke="#63b8ff" points="383.28,-516.38 373.28,-519.88 383.28,-523.38 383.28,-516.38"/>
</a>
</g>
</g>
<!-- Node3 -->
<g id="Node000003" class="node">
<title>Node3</title>
<g id="a_Node000003"><a xlink:href="interfacecom_1_1fs_1_1starfarer_1_1api_1_1plugins_1_1AutofitPlugin.html" target="_top" xlink:title=" ">
<polygon fill="white" stroke="#666666" points="151,-525.51 17.25,-525.51 17.25,-495.01 151,-495.01 151,-525.51"/>
<text text-anchor="start" x="25.25" y="-512.01" font-family="Helvetica,sans-Serif" font-size="10.00">com.fs.starfarer.api.plugins.</text>
<text text-anchor="middle" x="84.12" y="-500.76" font-family="Helvetica,sans-Serif" font-size="10.00">AutofitPlugin</text>
</a>
</g>
</g>
<!-- Node3&#45;&gt;Node2 -->
<g id="edge2_Node000002_Node000003" class="edge">
<title>Node3&#45;&gt;Node2</title>
<g id="a_edge2_Node000002_Node000003"><a xlink:title=" ">
<path fill="none" stroke="#63b8ff" d="M162.65,-510.26C180.53,-510.26 199.54,-510.26 217.37,-510.26"/>
<polygon fill="#63b8ff" stroke="#63b8ff" points="162.9,-506.76 152.9,-510.26 162.9,-513.76 162.9,-506.76"/>
</a>
</g>
</g>
<!-- Node4 -->
<g id="Node000004" class="node">
<title>Node4</title>
<g id="a_Node000004"><a xlink:title=" ">
<polygon fill="white" stroke="#666666" points="354.75,-476.88 234.5,-476.88 234.5,-457.63 354.75,-457.63 354.75,-476.88"/>
<text text-anchor="middle" x="294.62" y="-463.38" font-family="Helvetica,sans-Serif" font-size="10.00">Map&lt; String, Category &gt;</text>
</a>
</g>
</g>
<!-- Node4&#45;&gt;Node1 -->
<g id="edge3_Node000001_Node000004" class="edge">
<title>Node4&#45;&gt;Node1</title>
<g id="a_edge3_Node000001_Node000004"><a xlink:title=" ">
<path fill="none" stroke="#9a32cd" stroke-dasharray="5,2" d="M366.2,-468.65C404.81,-466.02 451.52,-456.93 485.25,-431.26 544.8,-385.93 568.96,-292.8 576.45,-255.86"/>
<polygon fill="#9a32cd" stroke="#9a32cd" points="366.33,-465.14 356.53,-469.17 366.7,-472.13 366.33,-465.14"/>
</a>
</g>
<text text-anchor="middle" x="443.62" y="-476.99" font-family="Helvetica,sans-Serif" font-size="10.00" fill="grey"> categories</text>
<text text-anchor="middle" x="443.62" y="-465.74" font-family="Helvetica,sans-Serif" font-size="10.00" fill="grey">reusableCategories</text>
</g>
<!-- Node5 -->
<g id="Node000005" class="node">
<title>Node5</title>
<g id="a_Node000005"><a xlink:title=" ">
<polygon fill="white" stroke="#666666" points="347.25,-439.88 242,-439.88 242,-420.63 347.25,-420.63 347.25,-439.88"/>
<text text-anchor="middle" x="294.62" y="-426.38" font-family="Helvetica,sans-Serif" font-size="10.00">List&lt; AutofitOption &gt;</text>
</a>
</g>
</g>
<!-- Node5&#45;&gt;Node1 -->
<g id="edge4_Node000001_Node000005" class="edge">
<title>Node5&#45;&gt;Node1</title>
<g id="a_edge4_Node000001_Node000005"><a xlink:title=" ">
<path fill="none" stroke="#9a32cd" stroke-dasharray="5,2" d="M359.03,-424.77C398.58,-418.64 448.72,-405.68 485.25,-378.26 529.53,-345.02 560.06,-284.56 572.71,-256"/>
<polygon fill="#9a32cd" stroke="#9a32cd" points="358.56,-421.3 349.15,-426.17 359.55,-428.23 358.56,-421.3"/>
</a>
</g>
<text text-anchor="middle" x="443.62" y="-417.26" font-family="Helvetica,sans-Serif" font-size="10.00" fill="grey"> options</text>
</g>
<!-- Node6 -->
<g id="Node000006" class="node">
<title>Node6</title>
<g id="a_Node000006"><a xlink:title=" ">
<polygon fill="white" stroke="#666666" points="375.75,-402.51 213.5,-402.51 213.5,-372.01 375.75,-372.01 375.75,-402.51"/>
<text text-anchor="start" x="221.5" y="-389.01" font-family="Helvetica,sans-Serif" font-size="10.00">Map&lt; com.fs.starfarer.api.loading.</text>
<text text-anchor="middle" x="294.62" y="-377.76" font-family="Helvetica,sans-Serif" font-size="10.00">WeaponSpecAPI, List&lt; String &gt; &gt;</text>
</a>
</g>
</g>
<!-- Node6&#45;&gt;Node1 -->
<g id="edge5_Node000001_Node000006" class="edge">
<title>Node6&#45;&gt;Node1</title>
<g id="a_edge5_Node000001_Node000006"><a xlink:title=" ">
<path fill="none" stroke="#9a32cd" stroke-dasharray="5,2" d="M385.74,-368.57C418.52,-359.42 454.93,-346.36 485.25,-328.26 518.46,-308.43 549.71,-275.21 566.49,-255.76"/>
<polygon fill="#9a32cd" stroke="#9a32cd" points="384.98,-365.15 376.24,-371.14 386.81,-371.91 384.98,-365.15"/>
</a>
</g>
<text text-anchor="middle" x="443.62" y="-364.35" font-family="Helvetica,sans-Serif" font-size="10.00" fill="grey"> altWeaponCats</text>
</g>
<!-- Node7 -->
<g id="Node000007" class="node">
<title>Node7</title>
<g id="a_Node000007"><a xlink:title=" ">
<polygon fill="white" stroke="#666666" points="384,-353.51 205.25,-353.51 205.25,-323.01 384,-323.01 384,-353.51"/>
<text text-anchor="start" x="213.25" y="-340.01" font-family="Helvetica,sans-Serif" font-size="10.00">Map&lt; com.fs.starfarer.api.loading.</text>
<text text-anchor="middle" x="294.62" y="-328.76" font-family="Helvetica,sans-Serif" font-size="10.00">FighterWingSpecAPI, List&lt; String &gt; &gt;</text>
</a>
</g>
</g>
<!-- Node7&#45;&gt;Node1 -->
<g id="edge6_Node000001_Node000007" class="edge">
<title>Node7&#45;&gt;Node1</title>
<g id="a_edge6_Node000001_Node000007"><a xlink:title=" ">
<path fill="none" stroke="#9a32cd" stroke-dasharray="5,2" d="M375.95,-319.78C410.11,-311.02 450.1,-299.54 485.25,-286.26 507.85,-277.71 532.34,-265.63 550.66,-255.99"/>
<polygon fill="#9a32cd" stroke="#9a32cd" points="375.38,-316.32 366.55,-322.16 377.1,-323.1 375.38,-316.32"/>
</a>
</g>
<text text-anchor="middle" x="443.62" y="-314.29" font-family="Helvetica,sans-Serif" font-size="10.00" fill="grey"> altFighterCats</text>
</g>
<!-- Node8 -->
<g id="Node000008" class="node">
<title>Node8</title>
<g id="a_Node000008"><a xlink:href="interfacecom_1_1fs_1_1starfarer_1_1api_1_1characters_1_1PersonAPI.html" target="_top" xlink:title=" ">
<polygon fill="white" stroke="#666666" points="369,-304.51 220.25,-304.51 220.25,-274.01 369,-274.01 369,-304.51"/>
<text text-anchor="start" x="228.25" y="-291.01" font-family="Helvetica,sans-Serif" font-size="10.00">com.fs.starfarer.api.characters.</text>
<text text-anchor="middle" x="294.62" y="-279.76" font-family="Helvetica,sans-Serif" font-size="10.00">PersonAPI</text>
</a>
</g>
</g>
<!-- Node8&#45;&gt;Node1 -->
<g id="edge7_Node000001_Node000008" class="edge">
<title>Node8&#45;&gt;Node1</title>
<g id="a_edge7_Node000001_Node000008"><a xlink:title=" ">
<path fill="none" stroke="#9a32cd" stroke-dasharray="5,2" d="M380.69,-274.56C419.52,-267.85 465.15,-259.97 502.87,-253.45"/>
<polygon fill="#9a32cd" stroke="#9a32cd" points="380.15,-271.1 370.9,-276.25 381.35,-278 380.15,-271.1"/>
</a>
</g>
<text text-anchor="middle" x="443.62" y="-272.34" font-family="Helvetica,sans-Serif" font-size="10.00" fill="grey"> fleetCommander</text>
</g>
<!-- Node9 -->
<g id="Node000009" class="node">
<title>Node9</title>
<g id="a_Node000009"><a xlink:href="interfacecom_1_1fs_1_1starfarer_1_1api_1_1campaign_1_1rules_1_1HasMemory.html" target="_top" xlink:title=" ">
<polygon fill="white" stroke="#666666" points="168.25,-304.51 0,-304.51 0,-274.01 168.25,-274.01 168.25,-304.51"/>
<text text-anchor="start" x="8" y="-291.01" font-family="Helvetica,sans-Serif" font-size="10.00">com.fs.starfarer.api.campaign.rules.</text>
<text text-anchor="middle" x="84.12" y="-279.76" font-family="Helvetica,sans-Serif" font-size="10.00">HasMemory</text>
</a>
</g>
</g>
<!-- Node9&#45;&gt;Node8 -->
<g id="edge8_Node000008_Node000009" class="edge">
<title>Node9&#45;&gt;Node8</title>
<g id="a_edge8_Node000008_Node000009"><a xlink:title=" ">
<path fill="none" stroke="#63b8ff" d="M179.9,-289.26C193.27,-289.26 206.86,-289.26 219.76,-289.26"/>
<polygon fill="#63b8ff" stroke="#63b8ff" points="180.24,-285.76 170.24,-289.26 180.24,-292.76 180.24,-285.76"/>
</a>
</g>
</g>
<!-- Node10 -->
<g id="Node000010" class="node">
<title>Node10</title>
<g id="a_Node000010"><a xlink:href="interfacecom_1_1fs_1_1starfarer_1_1api_1_1characters_1_1MutableCharacterStatsAPI.html" target="_top" xlink:title=" ">
<polygon fill="white" stroke="#666666" points="369,-255.51 220.25,-255.51 220.25,-225.01 369,-225.01 369,-255.51"/>
<text text-anchor="start" x="228.25" y="-242.01" font-family="Helvetica,sans-Serif" font-size="10.00">com.fs.starfarer.api.characters.</text>
<text text-anchor="middle" x="294.62" y="-230.76" font-family="Helvetica,sans-Serif" font-size="10.00">MutableCharacterStatsAPI</text>
</a>
</g>
</g>
<!-- Node10&#45;&gt;Node1 -->
<g id="edge9_Node000001_Node000010" class="edge">
<title>Node10&#45;&gt;Node1</title>
<g id="a_edge9_Node000001_Node000010"><a xlink:title=" ">
<path fill="none" stroke="#9a32cd" stroke-dasharray="5,2" d="M380.69,-240.26C419.52,-240.26 465.15,-240.26 502.87,-240.26"/>
<polygon fill="#9a32cd" stroke="#9a32cd" points="380.92,-236.76 370.92,-240.26 380.92,-243.76 380.92,-236.76"/>
</a>
</g>
<text text-anchor="middle" x="443.62" y="-242.01" font-family="Helvetica,sans-Serif" font-size="10.00" fill="grey"> stats</text>
</g>
<!-- Node11 -->
<g id="Node000011" class="node">
<title>Node11</title>
<g id="a_Node000011"><a xlink:title=" ">
<polygon fill="white" stroke="#666666" points="320.62,-206.88 268.62,-206.88 268.62,-187.63 320.62,-187.63 320.62,-206.88"/>
<text text-anchor="middle" x="294.62" y="-193.38" font-family="Helvetica,sans-Serif" font-size="10.00">Random</text>
</a>
</g>
</g>
<!-- Node11&#45;&gt;Node1 -->
<g id="edge10_Node000001_Node000011" class="edge">
<title>Node11&#45;&gt;Node1</title>
<g id="a_edge10_Node000001_Node000011"><a xlink:title=" ">
<path fill="none" stroke="#9a32cd" stroke-dasharray="5,2" d="M332.17,-202.43C370.37,-207.88 432.06,-216.8 485.25,-225.01 490.97,-225.89 496.88,-226.81 502.83,-227.76"/>
<polygon fill="#9a32cd" stroke="#9a32cd" points="332.99,-199.01 322.6,-201.07 332.01,-205.94 332.99,-199.01"/>
</a>
</g>
<text text-anchor="middle" x="443.62" y="-226.76" font-family="Helvetica,sans-Serif" font-size="10.00" fill="grey"> random</text>
</g>
<!-- Node12 -->
<g id="Node000012" class="node">
<title>Node12</title>
<g id="a_Node000012"><a xlink:title=" ">
<polygon fill="white" stroke="#666666" points="373.12,-169.88 216.12,-169.88 216.12,-150.63 373.12,-150.63 373.12,-169.88"/>
<text text-anchor="middle" x="294.62" y="-156.38" font-family="Helvetica,sans-Serif" font-size="10.00">Map&lt; String, AvailableWeapon &gt;</text>
</a>
</g>
</g>
<!-- Node12&#45;&gt;Node1 -->
<g id="edge11_Node000001_Node000012" class="edge">
<title>Node12&#45;&gt;Node1</title>
<g id="a_edge11_Node000001_Node000012"><a xlink:title=" ">
<path fill="none" stroke="#9a32cd" stroke-dasharray="5,2" d="M380.62,-172.25C413.72,-178.08 451.69,-186.21 485.25,-197.01 507.65,-204.21 531.74,-215.37 549.92,-224.55"/>
<polygon fill="#9a32cd" stroke="#9a32cd" points="381.54,-168.86 371.09,-170.62 380.35,-175.76 381.54,-168.86"/>
</a>
</g>
<text text-anchor="middle" x="443.62" y="-198.76" font-family="Helvetica,sans-Serif" font-size="10.00" fill="grey"> fittedWeapons</text>
</g>
<!-- Node13 -->
<g id="Node000013" class="node">
<title>Node13</title>
<g id="a_Node000013"><a xlink:title=" ">
<polygon fill="white" stroke="#666666" points="370.5,-132.88 218.75,-132.88 218.75,-113.63 370.5,-113.63 370.5,-132.88"/>
<text text-anchor="middle" x="294.62" y="-119.38" font-family="Helvetica,sans-Serif" font-size="10.00">Map&lt; String, AvailableFighter &gt;</text>
</a>
</g>
</g>
<!-- Node13&#45;&gt;Node1 -->
<g id="edge12_Node000001_Node000013" class="edge">
<title>Node13&#45;&gt;Node1</title>
<g id="a_edge12_Node000001_Node000013"><a xlink:title=" ">
<path fill="none" stroke="#9a32cd" stroke-dasharray="5,2" d="M382.03,-131.13C415.48,-136.53 453.32,-145.64 485.25,-161.01 517.95,-176.74 548.67,-206.52 565.62,-224.76"/>
<polygon fill="#9a32cd" stroke="#9a32cd" points="382.78,-127.7 372.37,-129.66 381.73,-134.62 382.78,-127.7"/>
</a>
</g>
<text text-anchor="middle" x="443.62" y="-162.76" font-family="Helvetica,sans-Serif" font-size="10.00" fill="grey"> fittedFighters</text>
</g>
<!-- Node14 -->
<g id="Node000014" class="node">
<title>Node14</title>
<g id="a_Node000014"><a xlink:title=" ">
<polygon fill="white" stroke="#666666" points="331.12,-94.88 258.12,-94.88 258.12,-75.63 331.12,-75.63 331.12,-94.88"/>
<text text-anchor="middle" x="294.62" y="-81.38" font-family="Helvetica,sans-Serif" font-size="10.00">Set&lt; String &gt;</text>
</a>
</g>
</g>
<!-- Node14&#45;&gt;Node1 -->
<g id="edge13_Node000001_Node000014" class="edge">
<title>Node14&#45;&gt;Node1</title>
<g id="a_edge13_Node000001_Node000014"><a xlink:title=" ">
<path fill="none" stroke="#9a32cd" stroke-dasharray="5,2" d="M343,-80.96C383.55,-79.54 442.05,-83.05 485.25,-108.76 531.55,-136.31 561.28,-196.5 573.24,-224.87"/>
<polygon fill="#9a32cd" stroke="#9a32cd" points="342.88,-77.46 333.06,-81.44 343.21,-84.45 342.88,-77.46"/>
</a>
</g>
<text text-anchor="middle" x="443.62" y="-121.76" font-family="Helvetica,sans-Serif" font-size="10.00" fill="grey"> availableMods</text>
<text text-anchor="middle" x="443.62" y="-110.51" font-family="Helvetica,sans-Serif" font-size="10.00" fill="grey">slotsToSkip</text>
</g>
<!-- Node15 -->
<g id="Node000015" class="node">
<title>Node15</title>
<g id="a_Node000015"><a xlink:title=" ">
<polygon fill="white" stroke="#666666" points="333.38,-57.88 255.88,-57.88 255.88,-38.63 333.38,-38.63 333.38,-57.88"/>
<text text-anchor="middle" x="294.62" y="-44.38" font-family="Helvetica,sans-Serif" font-size="10.00">Set&lt; Integer &gt;</text>
</a>
</g>
</g>
<!-- Node15&#45;&gt;Node1 -->
<g id="edge14_Node000001_Node000015" class="edge">
<title>Node15&#45;&gt;Node1</title>
<g id="a_edge14_Node000001_Node000015"><a xlink:title=" ">
<path fill="none" stroke="#9a32cd" stroke-dasharray="5,2" d="M344.95,-41.79C385.91,-39.03 443.93,-41.41 485.25,-69.01 541.66,-106.68 567.3,-190.01 575.82,-224.67"/>
<polygon fill="#9a32cd" stroke="#9a32cd" points="344.81,-38.29 335.13,-42.59 345.38,-45.27 344.81,-38.29"/>
</a>
</g>
<text text-anchor="middle" x="443.62" y="-70.76" font-family="Helvetica,sans-Serif" font-size="10.00" fill="grey"> baysToSkip</text>
</g>
<!-- Node16 -->
<g id="Node000016" class="node">
<title>Node16</title>
<g id="a_Node000016"><a xlink:title=" ">
<polygon fill="white" stroke="#666666" points="350.62,-20.88 238.62,-20.88 238.62,-1.63 350.62,-1.63 350.62,-20.88"/>
<text text-anchor="middle" x="294.62" y="-7.38" font-family="Helvetica,sans-Serif" font-size="10.00">Map&lt; String, Integer &gt;</text>
</a>
</g>
</g>
<!-- Node16&#45;&gt;Node1 -->
<g id="edge15_Node000001_Node000016" class="edge">
<title>Node16&#45;&gt;Node1</title>
<g id="a_edge15_Node000001_Node000016"><a xlink:title=" ">
<path fill="none" stroke="#9a32cd" stroke-dasharray="5,2" d="M362.25,-0.87C401.47,1.63 450.12,-1.96 485.25,-27.01 553.12,-75.38 572.63,-183.99 577.66,-224.57"/>
<polygon fill="#9a32cd" stroke="#9a32cd" points="362.13,2.64 352.44,-1.65 362.69,-4.34 362.13,2.64"/>
</a>
</g>
<text text-anchor="middle" x="443.62" y="-28.76" font-family="Helvetica,sans-Serif" font-size="10.00" fill="grey"> tagLevels</text>
</g>
</g>
</svg>

<g id="navigator" transform="translate(0 0)" fill="#404254">
  <rect fill="#f2f5e9" fill-opacity="0.5" stroke="#606060" stroke-width=".5" x="0" y="0" width="60" height="60"/>
  <use id="zoomplus" xlink:href="#zoomPlus" x="17" y="9" onmousedown="handleZoom(evt,'in')"/>
  <use id="zoomminus" xlink:href="#zoomMin" x="42" y="9" onmousedown="handleZoom(evt,'out')"/>
  <use id="reset" xlink:href="#resetDef" x="30" y="36" onmousedown="handleReset()"/>
   <use id="arrowup" xlink:href="#arrowUp" x="0" y="0" onmousedown="handlePan(0,-1)"/>
  <use id="arrowright" xlink:href="#arrowRight" x="0" y="0" onmousedown="handlePan(1,0)"/>
  <use id="arrowdown" xlink:href="#arrowDown" x="0" y="0" onmousedown="handlePan(0,1)"/>
  <use id="arrowleft" xlink:href="#arrowLeft" x="0" y="0" onmousedown="handlePan(-1,0)"/>
</g>
<svg viewBox="0 0 15 15" width="100%" height="30px" preserveAspectRatio="xMaxYMin meet">
 <g id="arrow_out" transform="scale(0.3 0.3)">
  <a xlink:href="classcom_1_1fs_1_1starfarer_1_1api_1_1plugins_1_1impl_1_1CoreAutofitPlugin__coll__graph_org.svg" target="_base">
   <rect id="button" ry="5" rx="5" y="6" x="6" height="38" width="38"
        fill="#f2f5e9" fill-opacity="0.5" stroke="#606060" stroke-width="1.0"/>
   <path id="arrow"
     d="M 11.500037,31.436501 C 11.940474,20.09759 22.043105,11.32322 32.158766,21.979434 L 37.068811,17.246167 C 37.068811,17.246167 37.088388,32 37.088388,32 L 22.160133,31.978069 C 22.160133,31.978069 26.997745,27.140456 26.997745,27.140456 C 18.528582,18.264221 13.291696,25.230495 11.500037,31.436501 z"
     style="fill:#404040;"/>
  </a>
 </g>
</svg>

<style type='text/css'>
<![CDATA[
[data-mouse-over-selected='false'] { opacity: 0.7; }
[data-mouse-over-selected='true']  { opacity: 1.0; }
]]>
</style>
<script type="application/ecmascript"><![CDATA[
document.addEventListener('DOMContentLoaded', (event) => {
  highlightEdges();
  highlightAdjacentNodes();
});
]]></script>
</svg>
