<?xml version="1.0" encoding="UTF-8" standalone="no"?>
<!DOCTYPE svg PUBLIC "-//W3C//DTD SVG 1.1//EN"
 "http://www.w3.org/Graphics/SVG/1.1/DTD/svg11.dtd">
<!-- Generated by graphviz version 7.0.5 (20221223.1930)
 -->
<!-- Title: com.fs.starfarer.api.plugins.impl.CoreAutofitPlugin Pages: 1 -->
<svg width="701pt" height="543pt"
 viewBox="0.00 0.00 701.00 542.77" xmlns="http://www.w3.org/2000/svg" xmlns:xlink="http://www.w3.org/1999/xlink">
<g id="graph0" class="graph" transform="scale(1 1) rotate(0) translate(4 538.77)">
<title>com.fs.starfarer.api.plugins.impl.CoreAutofitPlugin</title>
<!-- Node1 -->
<g id="node1" class="node">
<title>Node1</title>
<g id="a_node1"><a xlink:title=" ">
<polygon fill="#999999" stroke="#666666" points="693,-256.77 538,-256.77 538,-226.77 693,-226.77 693,-256.77"/>
<text text-anchor="start" x="546" y="-244.77" font-family="Helvetica,sans-Serif" font-size="10.00">com.fs.starfarer.api.plugins.impl.</text>
<text text-anchor="middle" x="615.5" y="-233.77" font-family="Helvetica,sans-Serif" font-size="10.00">CoreAutofitPlugin</text>
</a>
</g>
</g>
<!-- Node2 -->
<g id="node2" class="node">
<title>Node2</title>
<g id="a_node2"><a xlink:href="classcom_1_1fs_1_1starfarer_1_1api_1_1plugins_1_1impl_1_1BaseAutofitPlugin.html" target="_top" xlink:title=" ">
<polygon fill="white" stroke="#bfbfbf" points="389.5,-534.77 234.5,-534.77 234.5,-504.77 389.5,-504.77 389.5,-534.77"/>
<text text-anchor="start" x="242.5" y="-522.77" font-family="Helvetica,sans-Serif" font-size="10.00">com.fs.starfarer.api.plugins.impl.</text>
<text text-anchor="middle" x="312" y="-511.77" font-family="Helvetica,sans-Serif" font-size="10.00">BaseAutofitPlugin</text>
</a>
</g>
</g>
<!-- Node2&#45;&gt;Node1 -->
<g id="edge1" class="edge">
<title>Node2&#45;&gt;Node1</title>
<path fill="none" stroke="#63b8ff" d="M401.23,-525.8C441.33,-524.06 487.06,-515.24 520,-488.77 595.15,-428.36 610.6,-300.85 613.72,-256.97"/>
<polygon fill="#63b8ff" stroke="#63b8ff" points="401.22,-522.3 391.32,-526.07 401.42,-529.3 401.22,-522.3"/>
</g>
<!-- Node3 -->
<g id="node3" class="node">
<title>Node3</title>
<g id="a_node3"><a xlink:href="interfacecom_1_1fs_1_1starfarer_1_1api_1_1plugins_1_1AutofitPlugin.html" target="_top" xlink:title=" ">
<polygon fill="white" stroke="#bfbfbf" points="151.5,-534.77 17.5,-534.77 17.5,-504.77 151.5,-504.77 151.5,-534.77"/>
<text text-anchor="start" x="25.5" y="-522.77" font-family="Helvetica,sans-Serif" font-size="10.00">com.fs.starfarer.api.plugins.</text>
<text text-anchor="middle" x="84.5" y="-511.77" font-family="Helvetica,sans-Serif" font-size="10.00">AutofitPlugin</text>
</a>
</g>
</g>
<!-- Node3&#45;&gt;Node2 -->
<g id="edge2" class="edge">
<title>Node3&#45;&gt;Node2</title>
<path fill="none" stroke="#63b8ff" d="M163.37,-519.77C186.34,-519.77 211.44,-519.77 234.33,-519.77"/>
<polygon fill="#63b8ff" stroke="#63b8ff" points="163.45,-516.27 153.45,-519.77 163.45,-523.27 163.45,-516.27"/>
</g>
<!-- Node4 -->
<g id="node4" class="node">
<title>Node4</title>
<g id="a_node4"><a xlink:title=" ">
<polygon fill="white" stroke="#bfbfbf" points="418,-486.77 206,-486.77 206,-456.77 418,-456.77 418,-486.77"/>
<text text-anchor="start" x="214" y="-474.77" font-family="Helvetica,sans-Serif" font-size="10.00">Map&lt; String, com.fs.starfarer.api.plugins.impl.</text>
<text text-anchor="middle" x="312" y="-463.77" font-family="Helvetica,sans-Serif" font-size="10.00">CoreAutofitPlugin.Category &gt;</text>
</a>
</g>
</g>
<!-- Node4&#45;&gt;Node1 -->
<g id="edge3" class="edge">
<title>Node4&#45;&gt;Node1</title>
<path fill="none" stroke="#9a32cd" stroke-dasharray="5,2" d="M429.47,-464.75C461.31,-458.21 494.13,-446.69 520,-426.77 577.72,-382.31 603.19,-292.83 611.36,-257.05"/>
<polygon fill="#9a32cd" stroke="#9a32cd" points="428.92,-461.29 419.75,-466.58 430.22,-468.17 428.92,-461.29"/>
<text text-anchor="middle" x="478" y="-476.77" font-family="Helvetica,sans-Serif" font-size="10.00"> categories</text>
<text text-anchor="middle" x="478" y="-465.77" font-family="Helvetica,sans-Serif" font-size="10.00">reusableCategories</text>
</g>
<!-- Node5 -->
<g id="node5" class="node">
<title>Node5</title>
<g id="a_node5"><a xlink:title=" ">
<polygon fill="white" stroke="#bfbfbf" points="365,-438.27 259,-438.27 259,-419.27 365,-419.27 365,-438.27"/>
<text text-anchor="middle" x="312" y="-426.27" font-family="Helvetica,sans-Serif" font-size="10.00">List&lt; AutofitOption &gt;</text>
</a>
</g>
</g>
<!-- Node5&#45;&gt;Node1 -->
<g id="edge4" class="edge">
<title>Node5&#45;&gt;Node1</title>
<path fill="none" stroke="#9a32cd" stroke-dasharray="5,2" d="M376.51,-424.36C420.52,-418.52 478.43,-405 520,-373.77 562.81,-341.6 594.13,-284.47 607.43,-257.15"/>
<polygon fill="#9a32cd" stroke="#9a32cd" points="376.37,-420.86 366.86,-425.54 377.21,-427.8 376.37,-420.86"/>
<text text-anchor="middle" x="478" y="-414.77" font-family="Helvetica,sans-Serif" font-size="10.00"> options</text>
</g>
<!-- Node6 -->
<g id="node6" class="node">
<title>Node6</title>
<g id="a_node6"><a xlink:title=" ">
<polygon fill="white" stroke="#bfbfbf" points="393.5,-400.77 230.5,-400.77 230.5,-370.77 393.5,-370.77 393.5,-400.77"/>
<text text-anchor="start" x="238.5" y="-388.77" font-family="Helvetica,sans-Serif" font-size="10.00">Map&lt; com.fs.starfarer.api.loading.</text>
<text text-anchor="middle" x="312" y="-377.77" font-family="Helvetica,sans-Serif" font-size="10.00">WeaponSpecAPI, List&lt; String &gt; &gt;</text>
</a>
</g>
</g>
<!-- Node6&#45;&gt;Node1 -->
<g id="edge5" class="edge">
<title>Node6&#45;&gt;Node1</title>
<path fill="none" stroke="#9a32cd" stroke-dasharray="5,2" d="M404.84,-368.5C442.28,-358.91 484.91,-344.59 520,-323.77 551.57,-305.03 582.64,-275.3 600.11,-257.25"/>
<polygon fill="#9a32cd" stroke="#9a32cd" points="404.25,-365.04 395.38,-370.84 405.93,-371.83 404.25,-365.04"/>
<text text-anchor="middle" x="478" y="-361.77" font-family="Helvetica,sans-Serif" font-size="10.00"> altWeaponCats</text>
</g>
<!-- Node7 -->
<g id="node7" class="node">
<title>Node7</title>
<g id="a_node7"><a xlink:title=" ">
<polygon fill="white" stroke="#bfbfbf" points="401.5,-352.77 222.5,-352.77 222.5,-322.77 401.5,-322.77 401.5,-352.77"/>
<text text-anchor="start" x="230.5" y="-340.77" font-family="Helvetica,sans-Serif" font-size="10.00">Map&lt; com.fs.starfarer.api.loading.</text>
<text text-anchor="middle" x="312" y="-329.77" font-family="Helvetica,sans-Serif" font-size="10.00">FighterWingSpecAPI, List&lt; String &gt; &gt;</text>
</a>
</g>
</g>
<!-- Node7&#45;&gt;Node1 -->
<g id="edge6" class="edge">
<title>Node7&#45;&gt;Node1</title>
<path fill="none" stroke="#9a32cd" stroke-dasharray="5,2" d="M399.3,-319.8C436.91,-310.92 481.18,-299.03 520,-284.77 541.83,-276.75 565.65,-265.89 583.92,-257.1"/>
<polygon fill="#9a32cd" stroke="#9a32cd" points="398.79,-316.33 389.84,-322 400.37,-323.14 398.79,-316.33"/>
<text text-anchor="middle" x="478" y="-311.77" font-family="Helvetica,sans-Serif" font-size="10.00"> altFighterCats</text>
</g>
<!-- Node8 -->
<g id="node8" class="node">
<title>Node8</title>
<g id="a_node8"><a xlink:href="interfacecom_1_1fs_1_1starfarer_1_1api_1_1characters_1_1PersonAPI.html" target="_top" xlink:title=" ">
<polygon fill="white" stroke="#666666" points="386.5,-304.77 237.5,-304.77 237.5,-274.77 386.5,-274.77 386.5,-304.77"/>
<text text-anchor="start" x="245.5" y="-292.77" font-family="Helvetica,sans-Serif" font-size="10.00">com.fs.starfarer.api.characters.</text>
<text text-anchor="middle" x="312" y="-281.77" font-family="Helvetica,sans-Serif" font-size="10.00">PersonAPI</text>
</a>
</g>
</g>
<!-- Node8&#45;&gt;Node1 -->
<g id="edge7" class="edge">
<title>Node8&#45;&gt;Node1</title>
<path fill="none" stroke="#9a32cd" stroke-dasharray="5,2" d="M397.98,-276.24C441.84,-269.25 494.93,-260.8 537.56,-254.01"/>
<polygon fill="#9a32cd" stroke="#9a32cd" points="397.58,-272.76 388.25,-277.79 398.68,-279.67 397.58,-272.76"/>
<text text-anchor="middle" x="478" y="-272.77" font-family="Helvetica,sans-Serif" font-size="10.00"> fleetCommander</text>
</g>
<!-- Node9 -->
<g id="node9" class="node">
<title>Node9</title>
<g id="a_node9"><a xlink:href="interfacecom_1_1fs_1_1starfarer_1_1api_1_1campaign_1_1rules_1_1HasMemory.html" target="_top" xlink:title=" ">
<polygon fill="white" stroke="#bfbfbf" points="169,-304.77 0,-304.77 0,-274.77 169,-274.77 169,-304.77"/>
<text text-anchor="start" x="8" y="-292.77" font-family="Helvetica,sans-Serif" font-size="10.00">com.fs.starfarer.api.campaign.rules.</text>
<text text-anchor="middle" x="84.5" y="-281.77" font-family="Helvetica,sans-Serif" font-size="10.00">HasMemory</text>
</a>
</g>
</g>
<!-- Node9&#45;&gt;Node8 -->
<g id="edge8" class="edge">
<title>Node9&#45;&gt;Node8</title>
<path fill="none" stroke="#63b8ff" d="M180.82,-289.77C199.72,-289.77 219.3,-289.77 237.35,-289.77"/>
<polygon fill="#63b8ff" stroke="#63b8ff" points="180.98,-286.27 170.98,-289.77 180.98,-293.27 180.98,-286.27"/>
</g>
<!-- Node10 -->
<g id="node10" class="node">
<title>Node10</title>
<g id="a_node10"><a xlink:href="interfacecom_1_1fs_1_1starfarer_1_1api_1_1characters_1_1MutableCharacterStatsAPI.html" target="_top" xlink:title=" ">
<polygon fill="white" stroke="#bfbfbf" points="386.5,-256.77 237.5,-256.77 237.5,-226.77 386.5,-226.77 386.5,-256.77"/>
<text text-anchor="start" x="245.5" y="-244.77" font-family="Helvetica,sans-Serif" font-size="10.00">com.fs.starfarer.api.characters.</text>
<text text-anchor="middle" x="312" y="-233.77" font-family="Helvetica,sans-Serif" font-size="10.00">MutableCharacterStatsAPI</text>
</a>
</g>
</g>
<!-- Node10&#45;&gt;Node1 -->
<g id="edge9" class="edge">
<title>Node10&#45;&gt;Node1</title>
<path fill="none" stroke="#9a32cd" stroke-dasharray="5,2" d="M398.26,-241.77C442.07,-241.77 495.02,-241.77 537.56,-241.77"/>
<polygon fill="#9a32cd" stroke="#9a32cd" points="398.27,-238.27 388.27,-241.77 398.27,-245.27 398.27,-238.27"/>
<text text-anchor="middle" x="478" y="-244.77" font-family="Helvetica,sans-Serif" font-size="10.00"> stats</text>
</g>
<!-- Node11 -->
<g id="node11" class="node">
<title>Node11</title>
<g id="a_node11"><a xlink:title=" ">
<polygon fill="white" stroke="#bfbfbf" points="338.5,-208.27 285.5,-208.27 285.5,-189.27 338.5,-189.27 338.5,-208.27"/>
<text text-anchor="middle" x="312" y="-196.27" font-family="Helvetica,sans-Serif" font-size="10.00">Random</text>
</a>
</g>
</g>
<!-- Node11&#45;&gt;Node1 -->
<g id="edge10" class="edge">
<title>Node11&#45;&gt;Node1</title>
<path fill="none" stroke="#9a32cd" stroke-dasharray="5,2" d="M350.02,-203.51C391.46,-208.89 460.6,-218.04 520,-226.77 525.75,-227.61 531.7,-228.51 537.68,-229.42"/>
<polygon fill="#9a32cd" stroke="#9a32cd" points="350.71,-200.07 340.34,-202.26 349.81,-207.02 350.71,-200.07"/>
<text text-anchor="middle" x="478" y="-229.77" font-family="Helvetica,sans-Serif" font-size="10.00"> random</text>
</g>
<!-- Node12 -->
<g id="node12" class="node">
<title>Node12</title>
<g id="a_node12"><a xlink:title=" ">
<polygon fill="white" stroke="#bfbfbf" points="391,-171.27 233,-171.27 233,-152.27 391,-152.27 391,-171.27"/>
<text text-anchor="middle" x="312" y="-159.27" font-family="Helvetica,sans-Serif" font-size="10.00">Map&lt; String, AvailableWeapon &gt;</text>
</a>
</g>
</g>
<!-- Node12&#45;&gt;Node1 -->
<g id="edge11" class="edge">
<title>Node12&#45;&gt;Node1</title>
<path fill="none" stroke="#9a32cd" stroke-dasharray="5,2" d="M402.47,-173.4C439.35,-179.42 482.21,-188.03 520,-199.77 542.29,-206.69 566.31,-217.41 584.56,-226.29"/>
<polygon fill="#9a32cd" stroke="#9a32cd" points="403.15,-169.96 392.72,-171.85 402.05,-176.87 403.15,-169.96"/>
<text text-anchor="middle" x="478" y="-202.77" font-family="Helvetica,sans-Serif" font-size="10.00"> fittedWeapons</text>
</g>
<!-- Node13 -->
<g id="node13" class="node">
<title>Node13</title>
<g id="a_node13"><a xlink:title=" ">
<polygon fill="white" stroke="#bfbfbf" points="388,-134.27 236,-134.27 236,-115.27 388,-115.27 388,-134.27"/>
<text text-anchor="middle" x="312" y="-122.27" font-family="Helvetica,sans-Serif" font-size="10.00">Map&lt; String, AvailableFighter &gt;</text>
</a>
</g>
</g>
<!-- Node13&#45;&gt;Node1 -->
<g id="edge12" class="edge">
<title>Node13&#45;&gt;Node1</title>
<path fill="none" stroke="#9a32cd" stroke-dasharray="5,2" d="M399.32,-131.61C437.68,-137.1 482.53,-146.97 520,-164.77 552.31,-180.11 583.14,-208.75 600.37,-226.45"/>
<polygon fill="#9a32cd" stroke="#9a32cd" points="400.04,-128.18 389.66,-130.31 399.1,-135.11 400.04,-128.18"/>
<text text-anchor="middle" x="478" y="-167.77" font-family="Helvetica,sans-Serif" font-size="10.00"> fittedFighters</text>
</g>
<!-- Node14 -->
<g id="node14" class="node">
<title>Node14</title>
<g id="a_node14"><a xlink:title=" ">
<polygon fill="white" stroke="#bfbfbf" points="349,-96.27 275,-96.27 275,-77.27 349,-77.27 349,-96.27"/>
<text text-anchor="middle" x="312" y="-84.27" font-family="Helvetica,sans-Serif" font-size="10.00">Set&lt; String &gt;</text>
</a>
</g>
</g>
<!-- Node14&#45;&gt;Node1 -->
<g id="edge13" class="edge">
<title>Node14&#45;&gt;Node1</title>
<path fill="none" stroke="#9a32cd" stroke-dasharray="5,2" d="M360.75,-82.14C405.05,-80.13 471.29,-83.15 520,-111.77 566.19,-138.91 596.25,-198.46 608.4,-226.54"/>
<polygon fill="#9a32cd" stroke="#9a32cd" points="360.72,-78.63 350.93,-82.69 361.12,-85.62 360.72,-78.63"/>
<text text-anchor="middle" x="478" y="-125.77" font-family="Helvetica,sans-Serif" font-size="10.00"> availableMods</text>
<text text-anchor="middle" x="478" y="-114.77" font-family="Helvetica,sans-Serif" font-size="10.00">slotsToSkip</text>
</g>
<!-- Node15 -->
<g id="node15" class="node">
<title>Node15</title>
<g id="a_node15"><a xlink:title=" ">
<polygon fill="white" stroke="#bfbfbf" points="351,-59.27 273,-59.27 273,-40.27 351,-40.27 351,-59.27"/>
<text text-anchor="middle" x="312" y="-47.27" font-family="Helvetica,sans-Serif" font-size="10.00">Set&lt; Integer &gt;</text>
</a>
</g>
</g>
<!-- Node15&#45;&gt;Node1 -->
<g id="edge14" class="edge">
<title>Node15&#45;&gt;Node1</title>
<path fill="none" stroke="#9a32cd" stroke-dasharray="5,2" d="M362.41,-42.28C407.23,-38.15 473.26,-38.99 520,-69.77 577.05,-107.34 602.7,-191.56 611.15,-226.32"/>
<polygon fill="#9a32cd" stroke="#9a32cd" points="362.3,-38.77 352.72,-43.29 363.03,-45.73 362.3,-38.77"/>
<text text-anchor="middle" x="478" y="-72.77" font-family="Helvetica,sans-Serif" font-size="10.00"> baysToSkip</text>
</g>
<!-- Node16 -->
<g id="node16" class="node">
<title>Node16</title>
<g id="a_node16"><a xlink:title=" ">
<polygon fill="white" stroke="#bfbfbf" points="368.5,-22.27 255.5,-22.27 255.5,-3.27 368.5,-3.27 368.5,-22.27"/>
<text text-anchor="middle" x="312" y="-10.27" font-family="Helvetica,sans-Serif" font-size="10.00">Map&lt; String, Integer &gt;</text>
</a>
</g>
</g>
<!-- Node16&#45;&gt;Node1 -->
<g id="edge15" class="edge">
<title>Node16&#45;&gt;Node1</title>
<path fill="none" stroke="#9a32cd" stroke-dasharray="5,2" d="M377.92,-1.59C421.89,2.37 479.2,0.07 520,-28.77 588.22,-76.98 607.87,-186 612.92,-226.36"/>
<polygon fill="#9a32cd" stroke="#9a32cd" points="377.56,1.9 367.98,-2.62 378.29,-5.07 377.56,1.9"/>
<text text-anchor="middle" x="478" y="-31.77" font-family="Helvetica,sans-Serif" font-size="10.00"> tagLevels</text>
</g>
</g>
</svg>
