<?xml version="1.0" encoding="UTF-8" standalone="no"?>
<!DOCTYPE svg PUBLIC "-//W3C//DTD SVG 1.1//EN"
 "http://www.w3.org/Graphics/SVG/1.1/DTD/svg11.dtd">
<!-- Generated by graphviz version 2.44.0 ()
 -->
<!-- Title: com.fs.starfarer.api.impl.campaign.procgen.themes.SalvageSpecialAssigner.BreadcrumbSpecialCreator Pages: 1 -->
<svg width="557pt" height="127pt"
 viewBox="0.00 0.00 557.00 126.50" xmlns="http://www.w3.org/2000/svg" xmlns:xlink="http://www.w3.org/1999/xlink">
<g id="graph0" class="graph" transform="scale(1 1) rotate(0) translate(4 122.5)">
<title>com.fs.starfarer.api.impl.campaign.procgen.themes.SalvageSpecialAssigner.BreadcrumbSpecialCreator</title>
<!-- Node1 -->
<g id="node1" class="node">
<title>Node1</title>
<g id="a_node1"><a xlink:title=" ">
<polygon fill="#bfbfbf" stroke="black" points="308,-39 308,-69 549,-69 549,-39 308,-39"/>
<text text-anchor="start" x="316" y="-57" font-family="Helvetica,sans-Serif" font-size="10.00">com.fs.starfarer.api.impl.campaign.procgen.themes.</text>
<text text-anchor="middle" x="428.5" y="-46" font-family="Helvetica,sans-Serif" font-size="10.00">SalvageSpecialAssigner.BreadcrumbSpecialCreator</text>
</a>
</g>
</g>
<!-- Node2 -->
<g id="node2" class="node">
<title>Node2</title>
<g id="a_node2"><a xlink:href="interfacecom_1_1fs_1_1starfarer_1_1api_1_1impl_1_1campaign_1_1procgen_1_1themes_1_1SalvageSpecialAssigner_1_1SpecialCreator.html" target="_top" xlink:title=" ">
<polygon fill="none" stroke="black" points="0,-88 0,-118 237,-118 237,-88 0,-88"/>
<text text-anchor="start" x="8" y="-106" font-family="Helvetica,sans-Serif" font-size="10.00">com.fs.starfarer.api.impl.campaign.procgen.themes.</text>
<text text-anchor="middle" x="118.5" y="-95" font-family="Helvetica,sans-Serif" font-size="10.00">SalvageSpecialAssigner.SpecialCreator</text>
</a>
</g>
</g>
<!-- Node2&#45;&gt;Node1 -->
<g id="edge1" class="edge">
<title>Node2&#45;&gt;Node1</title>
<path fill="none" stroke="midnightblue" d="M224.33,-86.32C259.62,-80.71 298.75,-74.48 333.18,-69.01"/>
<polygon fill="midnightblue" stroke="midnightblue" points="223.33,-82.94 214,-87.97 224.43,-89.85 223.33,-82.94"/>
</g>
<!-- Node3 -->
<g id="node3" class="node">
<title>Node3</title>
<g id="a_node3"><a xlink:title=" ">
<polygon fill="none" stroke="#bfbfbf" points="33.5,-39 33.5,-69 203.5,-69 203.5,-39 33.5,-39"/>
<text text-anchor="start" x="41.5" y="-57" font-family="Helvetica,sans-Serif" font-size="10.00">List&lt; com.fs.starfarer.api.campaign.</text>
<text text-anchor="middle" x="118.5" y="-46" font-family="Helvetica,sans-Serif" font-size="10.00">SectorEntityToken &gt;</text>
</a>
</g>
</g>
<!-- Node3&#45;&gt;Node1 -->
<g id="edge2" class="edge">
<title>Node3&#45;&gt;Node1</title>
<path fill="none" stroke="#9a32cd" stroke-dasharray="5,2" d="M214,-54C243.65,-54 276.79,-54 307.94,-54"/>
<polygon fill="#9a32cd" stroke="#9a32cd" points="213.66,-50.5 203.66,-54 213.66,-57.5 213.66,-50.5"/>
<text text-anchor="middle" x="272.5" y="-57" font-family="Helvetica,sans-Serif" font-size="10.00"> all</text>
</g>
<!-- Node4 -->
<g id="node4" class="node">
<title>Node4</title>
<g id="a_node4"><a xlink:title=" ">
<polygon fill="none" stroke="#bfbfbf" points="92,-0.5 92,-19.5 145,-19.5 145,-0.5 92,-0.5"/>
<text text-anchor="middle" x="118.5" y="-7.5" font-family="Helvetica,sans-Serif" font-size="10.00">Random</text>
</a>
</g>
</g>
<!-- Node4&#45;&gt;Node1 -->
<g id="edge3" class="edge">
<title>Node4&#45;&gt;Node1</title>
<path fill="none" stroke="#9a32cd" stroke-dasharray="5,2" d="M155.2,-15.1C195.89,-20.91 264.27,-30.68 322.33,-38.98"/>
<polygon fill="#9a32cd" stroke="#9a32cd" points="155.62,-11.63 145.23,-13.68 154.63,-18.55 155.62,-11.63"/>
<text text-anchor="middle" x="272.5" y="-37" font-family="Helvetica,sans-Serif" font-size="10.00"> random</text>
</g>
</g>
</svg>
