<?xml version="1.0" encoding="UTF-8" standalone="no"?>
<!DOCTYPE svg PUBLIC "-//W3C//DTD SVG 1.1//EN"
 "http://www.w3.org/Graphics/SVG/1.1/DTD/svg11.dtd">
<!-- Generated by graphviz version 9.0.0 (20230911.1827)
 -->
<!-- Title: com.fs.starfarer.api.impl.campaign.intel.events.HostileActivityEventIntel Pages: 1 -->
<svg width="958pt" height="240pt"
 viewBox="0.00 0.00 958.25 239.88" xmlns="http://www.w3.org/2000/svg" xmlns:xlink="http://www.w3.org/1999/xlink">
<g id="graph0" class="graph" transform="scale(1 1) rotate(0) translate(4 235.88)">
<title>com.fs.starfarer.api.impl.campaign.intel.events.HostileActivityEventIntel</title>
<!-- Node1 -->
<g id="Node000001" class="node">
<title>Node1</title>
<g id="a_Node000001"><a xlink:title=" ">
<polygon fill="#999999" stroke="#666666" points="950.25,-91.5 733.25,-91.5 733.25,-61 950.25,-61 950.25,-91.5"/>
<text text-anchor="start" x="741.25" y="-78" font-family="Helvetica,sans-Serif" font-size="10.00">com.fs.starfarer.api.impl.campaign.intel.events.</text>
<text text-anchor="middle" x="841.75" y="-66.75" font-family="Helvetica,sans-Serif" font-size="10.00">HostileActivityEventIntel</text>
</a>
</g>
</g>
<!-- Node2 -->
<g id="Node000002" class="node">
<title>Node2</title>
<g id="a_Node000002"><a xlink:href="classcom_1_1fs_1_1starfarer_1_1api_1_1impl_1_1campaign_1_1intel_1_1events_1_1BaseEventIntel.html" target="_top" xlink:title=" ">
<polygon fill="white" stroke="#666666" points="608,-153.5 391,-153.5 391,-123 608,-123 608,-153.5"/>
<text text-anchor="start" x="399" y="-140" font-family="Helvetica,sans-Serif" font-size="10.00">com.fs.starfarer.api.impl.campaign.intel.events.</text>
<text text-anchor="middle" x="499.5" y="-128.75" font-family="Helvetica,sans-Serif" font-size="10.00">BaseEventIntel</text>
</a>
</g>
</g>
<!-- Node2&#45;&gt;Node1 -->
<g id="edge1_Node000001_Node000002" class="edge">
<title>Node2&#45;&gt;Node1</title>
<g id="a_edge1_Node000001_Node000002"><a xlink:title=" ">
<path fill="none" stroke="#63b8ff" d="M598.43,-120.5C635.08,-113.85 677.08,-106.21 715.25,-99.25 728.11,-96.9 741.7,-94.42 755.02,-91.98"/>
<polygon fill="#63b8ff" stroke="#63b8ff" points="597.94,-117.03 588.72,-122.26 599.19,-123.92 597.94,-117.03"/>
</a>
</g>
</g>
<!-- Node3 -->
<g id="Node000003" class="node">
<title>Node3</title>
<g id="a_Node000003"><a xlink:href="classcom_1_1fs_1_1starfarer_1_1api_1_1impl_1_1campaign_1_1intel_1_1BaseIntelPlugin.html" target="_top" xlink:title=" ">
<polygon fill="white" stroke="#666666" points="354,-179.5 168.5,-179.5 168.5,-149 354,-149 354,-179.5"/>
<text text-anchor="start" x="176.5" y="-166" font-family="Helvetica,sans-Serif" font-size="10.00">com.fs.starfarer.api.impl.campaign.intel.</text>
<text text-anchor="middle" x="261.25" y="-154.75" font-family="Helvetica,sans-Serif" font-size="10.00">BaseIntelPlugin</text>
</a>
</g>
</g>
<!-- Node3&#45;&gt;Node2 -->
<g id="edge2_Node000002_Node000003" class="edge">
<title>Node3&#45;&gt;Node2</title>
<g id="a_edge2_Node000002_Node000003"><a xlink:title=" ">
<path fill="none" stroke="#63b8ff" d="M365.54,-152.88C373.86,-151.97 382.28,-151.04 390.63,-150.12"/>
<polygon fill="#63b8ff" stroke="#63b8ff" points="365.33,-149.38 355.77,-153.96 366.09,-156.34 365.33,-149.38"/>
</a>
</g>
</g>
<!-- Node4 -->
<g id="Node000004" class="node">
<title>Node4</title>
<g id="a_Node000004"><a xlink:title=" ">
<polygon fill="white" stroke="#666666" points="104.88,-231.88 26.62,-231.88 26.62,-212.62 104.88,-212.62 104.88,-231.88"/>
<text text-anchor="middle" x="65.75" y="-218.38" font-family="Helvetica,sans-Serif" font-size="10.00">IntelInfoPlugin</text>
</a>
</g>
</g>
<!-- Node4&#45;&gt;Node3 -->
<g id="edge3_Node000003_Node000004" class="edge">
<title>Node4&#45;&gt;Node3</title>
<g id="a_edge3_Node000003_Node000004"><a xlink:title=" ">
<path fill="none" stroke="#63b8ff" d="M114.62,-209.12C120.32,-207.5 126.04,-205.86 131.5,-204.25 157.77,-196.52 186.92,-187.5 210.83,-179.98"/>
<polygon fill="#63b8ff" stroke="#63b8ff" points="113.92,-205.68 105.24,-211.75 115.82,-212.42 113.92,-205.68"/>
</a>
</g>
</g>
<!-- Node5 -->
<g id="Node000005" class="node">
<title>Node5</title>
<g id="a_Node000005"><a xlink:title=" ">
<polygon fill="white" stroke="#666666" points="103.38,-194.88 28.12,-194.88 28.12,-175.62 103.38,-175.62 103.38,-194.88"/>
<text text-anchor="middle" x="65.75" y="-181.38" font-family="Helvetica,sans-Serif" font-size="10.00">CallableEvent</text>
</a>
</g>
</g>
<!-- Node5&#45;&gt;Node3 -->
<g id="edge4_Node000003_Node000005" class="edge">
<title>Node5&#45;&gt;Node3</title>
<g id="a_edge4_Node000003_Node000005"><a xlink:title=" ">
<path fill="none" stroke="#63b8ff" d="M114.9,-180.02C131.07,-178.27 149.69,-176.25 168.08,-174.25"/>
<polygon fill="#63b8ff" stroke="#63b8ff" points="114.67,-176.53 105.11,-181.09 115.43,-183.49 114.67,-176.53"/>
</a>
</g>
</g>
<!-- Node6 -->
<g id="Node000006" class="node">
<title>Node6</title>
<g id="a_Node000006"><a xlink:href="interfacecom_1_1fs_1_1starfarer_1_1api_1_1EveryFrameScript.html" target="_top" xlink:title=" ">
<polygon fill="white" stroke="#666666" points="128.12,-157.5 3.38,-157.5 3.38,-127 128.12,-127 128.12,-157.5"/>
<text text-anchor="start" x="11.38" y="-144" font-family="Helvetica,sans-Serif" font-size="10.00">com.fs.starfarer.api.Every</text>
<text text-anchor="middle" x="65.75" y="-132.75" font-family="Helvetica,sans-Serif" font-size="10.00">FrameScript</text>
</a>
</g>
</g>
<!-- Node6&#45;&gt;Node3 -->
<g id="edge5_Node000003_Node000006" class="edge">
<title>Node6&#45;&gt;Node3</title>
<g id="a_edge5_Node000003_Node000006"><a xlink:title=" ">
<path fill="none" stroke="#63b8ff" d="M139.65,-150.54C148.92,-151.59 158.52,-152.68 168.05,-153.77"/>
<polygon fill="#63b8ff" stroke="#63b8ff" points="140.34,-147.09 130.01,-149.44 139.55,-154.05 140.34,-147.09"/>
</a>
</g>
</g>
<!-- Node7 -->
<g id="Node000007" class="node">
<title>Node7</title>
<g id="a_Node000007"><a xlink:title=" ">
<polygon fill="white" stroke="#666666" points="131.5,-108.88 0,-108.88 0,-89.62 131.5,-89.62 131.5,-108.88"/>
<text text-anchor="middle" x="65.75" y="-95.38" font-family="Helvetica,sans-Serif" font-size="10.00">CommSnifferReadableIntel</text>
</a>
</g>
</g>
<!-- Node7&#45;&gt;Node3 -->
<g id="edge6_Node000003_Node000007" class="edge">
<title>Node7&#45;&gt;Node3</title>
<g id="a_edge6_Node000003_Node000007"><a xlink:title=" ">
<path fill="none" stroke="#63b8ff" d="M117.9,-112.94C122.56,-114.58 127.15,-116.35 131.5,-118.25 149.04,-125.89 150.85,-132.87 168.5,-140.25 175.79,-143.3 183.57,-146.05 191.41,-148.5"/>
<polygon fill="#63b8ff" stroke="#63b8ff" points="119.06,-109.64 108.47,-109.84 116.87,-116.29 119.06,-109.64"/>
</a>
</g>
</g>
<!-- Node8 -->
<g id="Node000008" class="node">
<title>Node8</title>
<g id="a_Node000008"><a xlink:title=" ">
<polygon fill="white" stroke="#666666" points="316.12,-130.88 206.38,-130.88 206.38,-111.62 316.12,-111.62 316.12,-130.88"/>
<text text-anchor="middle" x="261.25" y="-117.38" font-family="Helvetica,sans-Serif" font-size="10.00">EconomyTickListener</text>
</a>
</g>
</g>
<!-- Node8&#45;&gt;Node2 -->
<g id="edge7_Node000002_Node000008" class="edge">
<title>Node8&#45;&gt;Node2</title>
<g id="a_edge7_Node000002_Node000008"><a xlink:title=" ">
<path fill="none" stroke="#63b8ff" d="M327.91,-125.97C347.35,-127.37 369.16,-128.94 390.53,-130.48"/>
<polygon fill="#63b8ff" stroke="#63b8ff" points="328.19,-122.49 317.96,-125.26 327.68,-129.47 328.19,-122.49"/>
</a>
</g>
</g>
<!-- Node9 -->
<g id="Node000009" class="node">
<title>Node9</title>
<g id="a_Node000009"><a xlink:title=" ">
<polygon fill="white" stroke="#666666" points="560.75,-104.88 438.25,-104.88 438.25,-85.62 560.75,-85.62 560.75,-104.88"/>
<text text-anchor="middle" x="499.5" y="-91.38" font-family="Helvetica,sans-Serif" font-size="10.00">EconomyUpdateListener</text>
</a>
</g>
</g>
<!-- Node9&#45;&gt;Node1 -->
<g id="edge8_Node000001_Node000009" class="edge">
<title>Node9&#45;&gt;Node1</title>
<g id="a_edge8_Node000001_Node000009"><a xlink:title=" ">
<path fill="none" stroke="#63b8ff" d="M572.16,-91.25C618.83,-88.64 680.57,-85.19 733.09,-82.26"/>
<polygon fill="#63b8ff" stroke="#63b8ff" points="572.24,-87.74 562.45,-91.79 572.63,-94.73 572.24,-87.74"/>
</a>
</g>
</g>
<!-- Node10 -->
<g id="Node000010" class="node">
<title>Node10</title>
<g id="a_Node000010"><a xlink:title=" ">
<polygon fill="white" stroke="#666666" points="548.38,-67.88 450.62,-67.88 450.62,-48.62 548.38,-48.62 548.38,-67.88"/>
<text text-anchor="middle" x="499.5" y="-54.38" font-family="Helvetica,sans-Serif" font-size="10.00">FleetEventListener</text>
</a>
</g>
</g>
<!-- Node10&#45;&gt;Node1 -->
<g id="edge9_Node000001_Node000010" class="edge">
<title>Node10&#45;&gt;Node1</title>
<g id="a_edge9_Node000001_Node000010"><a xlink:title=" ">
<path fill="none" stroke="#63b8ff" d="M559.89,-61.39C607.57,-63.91 675.78,-67.52 733.03,-70.55"/>
<polygon fill="#63b8ff" stroke="#63b8ff" points="560.21,-57.9 550.04,-60.87 559.84,-64.89 560.21,-57.9"/>
</a>
</g>
</g>
<!-- Node11 -->
<g id="Node000011" class="node">
<title>Node11</title>
<g id="a_Node000011"><a xlink:href="interfacecom_1_1fs_1_1starfarer_1_1api_1_1impl_1_1campaign_1_1intel_1_1events_1_1HostileActivityFactor.html" target="_top" xlink:title=" ">
<polygon fill="white" stroke="#666666" points="608,-30.5 391,-30.5 391,0 608,0 608,-30.5"/>
<text text-anchor="start" x="399" y="-17" font-family="Helvetica,sans-Serif" font-size="10.00">com.fs.starfarer.api.impl.campaign.intel.events.</text>
<text text-anchor="middle" x="499.5" y="-5.75" font-family="Helvetica,sans-Serif" font-size="10.00">HostileActivityFactor</text>
</a>
</g>
</g>
<!-- Node11&#45;&gt;Node1 -->
<g id="edge10_Node000001_Node000011" class="edge">
<title>Node11&#45;&gt;Node1</title>
<g id="a_edge10_Node000001_Node000011"><a xlink:title=" ">
<path fill="none" stroke="#9a32cd" stroke-dasharray="5,2" d="M619.67,-32.72C650.84,-37.63 684.36,-43.22 715.25,-49 733.66,-52.44 753.5,-56.56 771.85,-60.54"/>
<polygon fill="#9a32cd" stroke="#9a32cd" points="620.22,-29.26 609.8,-31.18 619.14,-36.18 620.22,-29.26"/>
</a>
</g>
<text text-anchor="middle" x="670.62" y="-50" font-family="Helvetica,sans-Serif" font-size="10.00" fill="grey"> prevMajorEventPick</text>
</g>
</g>
</svg>
