<?xml version="1.0" encoding="UTF-8" standalone="no"?>
<!DOCTYPE svg PUBLIC "-//W3C//DTD SVG 1.1//EN"
 "http://www.w3.org/Graphics/SVG/1.1/DTD/svg11.dtd">
<!-- Generated by graphviz version 7.0.5 (20221223.1930)
 -->
<!-- Title: com.fs.starfarer.api.impl.campaign.terrain.MagneticFieldTerrainPlugin Pages: 1 -->
<!--zoomable 408 -->
<svg id="main" version="1.1" xmlns="http://www.w3.org/2000/svg" xmlns:xlink="http://www.w3.org/1999/xlink" xml:space="preserve" onload="init(evt)">
<style type="text/css"><![CDATA[
.edge:hover path { stroke: red; }
.edge:hover polygon { stroke: red; fill: red; }
]]></style>
<script type="text/javascript"><![CDATA[
var edges = document.getElementsByTagName('g');
if (edges && edges.length) {
  for (var i=0;i<edges.length;i++) {
    if (edges[i].id.substr(0,4)=='edge') {
      edges[i].setAttribute('class','edge');
    }
  }
}
]]></script>
        <defs>
                <circle id="rim" cx="0" cy="0" r="7"/>
                <circle id="rim2" cx="0" cy="0" r="3.5"/>
                <g id="zoomPlus">
                        <use xlink:href="#rim" fill="#404040">
                                <set attributeName="fill" to="#808080" begin="zoomplus.mouseover" end="zoomplus.mouseout"/>
                        </use>
                        <path d="M-4,0h8M0,-4v8" fill="none" stroke="white" stroke-width="1.5" pointer-events="none"/>
                </g>
                <g id="zoomMin">
                        <use xlink:href="#rim" fill="#404040">
                                <set attributeName="fill" to="#808080" begin="zoomminus.mouseover" end="zoomminus.mouseout"/>
                        </use>
                        <path d="M-4,0h8" fill="none" stroke="white" stroke-width="1.5" pointer-events="none"/>
                </g>
                <g id="dirArrow">
                        <path fill="none" stroke="white" stroke-width="1.5" d="M0,-3.0v7 M-2.5,-0.5L0,-3.0L2.5,-0.5"/>
                </g>
               <g id="resetDef">
                       <use xlink:href="#rim2" fill="#404040">
                               <set attributeName="fill" to="#808080" begin="reset.mouseover" end="reset.mouseout"/>
                       </use>
               </g>
        </defs>

<script type="text/javascript">
var viewWidth = 1283;
var viewHeight = 408;
var sectionId = 'dynsection-1';
</script>
<script xlink:href="svgpan.js"/>
<svg id="graph" class="graph">
<g id="viewport">
<title>com.fs.starfarer.api.impl.campaign.terrain.MagneticFieldTerrainPlugin</title>
<!-- Node1 -->
<g id="node1" class="node">
<title>Node1</title>
<g id="a_node1"><a xlink:title=" ">
<polygon fill="#999999" stroke="#666666" points="1275,-204 1080,-204 1080,-174 1275,-174 1275,-204"/>
<text text-anchor="start" x="1088" y="-192" font-family="Helvetica,sans-Serif" font-size="10.00">com.fs.starfarer.api.impl.campaign.terrain.</text>
<text text-anchor="middle" x="1177.5" y="-181" font-family="Helvetica,sans-Serif" font-size="10.00">MagneticFieldTerrainPlugin</text>
</a>
</g>
</g>
<!-- Node2 -->
<g id="node2" class="node">
<title>Node2</title>
<g id="a_node2"><a xlink:href="classcom_1_1fs_1_1starfarer_1_1api_1_1impl_1_1campaign_1_1terrain_1_1BaseRingTerrain.html" target="_top" xlink:title=" ">
<polygon fill="white" stroke="#666666" points="968,-365 773,-365 773,-335 968,-335 968,-365"/>
<text text-anchor="start" x="781" y="-353" font-family="Helvetica,sans-Serif" font-size="10.00">com.fs.starfarer.api.impl.campaign.terrain.</text>
<text text-anchor="middle" x="870.5" y="-342" font-family="Helvetica,sans-Serif" font-size="10.00">BaseRingTerrain</text>
</a>
</g>
</g>
<!-- Node2&#45;&gt;Node1 -->
<g id="edge1" class="edge">
<title>Node2&#45;&gt;Node1</title>
<path fill="none" stroke="#63b8ff" d="M972.87,-331.11C977.35,-329.53 981.75,-327.83 986,-326 1058.18,-294.82 1129.8,-232.79 1160.68,-204.14"/>
<polygon fill="#63b8ff" stroke="#63b8ff" points="972.13,-327.66 963.7,-334.08 974.29,-334.32 972.13,-327.66"/>
</g>
<!-- Node3 -->
<g id="node3" class="node">
<title>Node3</title>
<g id="a_node3"><a xlink:href="classcom_1_1fs_1_1starfarer_1_1api_1_1impl_1_1campaign_1_1terrain_1_1BaseTerrain.html" target="_top" xlink:title=" ">
<polygon fill="white" stroke="#666666" points="639,-400 444,-400 444,-370 639,-370 639,-400"/>
<text text-anchor="start" x="452" y="-388" font-family="Helvetica,sans-Serif" font-size="10.00">com.fs.starfarer.api.impl.campaign.terrain.</text>
<text text-anchor="middle" x="541.5" y="-377" font-family="Helvetica,sans-Serif" font-size="10.00">BaseTerrain</text>
</a>
</g>
</g>
<!-- Node3&#45;&gt;Node2 -->
<g id="edge2" class="edge">
<title>Node3&#45;&gt;Node2</title>
<path fill="none" stroke="#63b8ff" d="M650.54,-373.44C689.97,-369.22 734.29,-364.47 772.68,-360.36"/>
<polygon fill="#63b8ff" stroke="#63b8ff" points="650.36,-369.94 640.79,-374.48 651.1,-376.9 650.36,-369.94"/>
</g>
<!-- Node4 -->
<g id="node4" class="node">
<title>Node4</title>
<g id="a_node4"><a xlink:href="interfacecom_1_1fs_1_1starfarer_1_1api_1_1campaign_1_1CampaignTerrainPlugin.html" target="_top" xlink:title=" ">
<polygon fill="white" stroke="#666666" points="352,-400 206,-400 206,-370 352,-370 352,-400"/>
<text text-anchor="start" x="214" y="-388" font-family="Helvetica,sans-Serif" font-size="10.00">com.fs.starfarer.api.campaign.</text>
<text text-anchor="middle" x="279" y="-377" font-family="Helvetica,sans-Serif" font-size="10.00">CampaignTerrainPlugin</text>
</a>
</g>
</g>
<!-- Node4&#45;&gt;Node3 -->
<g id="edge3" class="edge">
<title>Node4&#45;&gt;Node3</title>
<path fill="none" stroke="#63b8ff" d="M363.72,-385C389.22,-385 417.46,-385 443.74,-385"/>
<polygon fill="#63b8ff" stroke="#63b8ff" points="363.73,-381.5 353.73,-385 363.73,-388.5 363.73,-381.5"/>
</g>
<!-- Node5 -->
<g id="node5" class="node">
<title>Node5</title>
<g id="a_node5"><a xlink:href="interfacecom_1_1fs_1_1starfarer_1_1api_1_1campaign_1_1SectorEntityToken.html" target="_top" xlink:title=" ">
<polygon fill="white" stroke="#666666" points="352,-333 206,-333 206,-303 352,-303 352,-333"/>
<text text-anchor="start" x="214" y="-321" font-family="Helvetica,sans-Serif" font-size="10.00">com.fs.starfarer.api.campaign.</text>
<text text-anchor="middle" x="279" y="-310" font-family="Helvetica,sans-Serif" font-size="10.00">SectorEntityToken</text>
</a>
</g>
</g>
<!-- Node5&#45;&gt;Node3 -->
<g id="edge4" class="edge">
<title>Node5&#45;&gt;Node3</title>
<path fill="none" stroke="#9a32cd" stroke-dasharray="5,2" d="M348.97,-336.29C378.25,-344 412.77,-353.02 444,-361 454.96,-363.8 466.62,-366.74 477.92,-369.56"/>
<polygon fill="#9a32cd" stroke="#9a32cd" points="350.04,-332.95 339.48,-333.79 348.26,-339.72 350.04,-332.95"/>
<text text-anchor="middle" x="398" y="-358" font-family="Helvetica,sans-Serif" font-size="10.00"> entity</text>
</g>
<!-- Node7 -->
<g id="node7" class="node">
<title>Node7</title>
<g id="a_node7"><a xlink:title=" ">
<polygon fill="white" stroke="#666666" points="639,-304 444,-304 444,-274 639,-274 639,-304"/>
<text text-anchor="start" x="452" y="-292" font-family="Helvetica,sans-Serif" font-size="10.00">com.fs.starfarer.api.impl.campaign.terrain.</text>
<text text-anchor="middle" x="541.5" y="-281" font-family="Helvetica,sans-Serif" font-size="10.00">BaseRingTerrain.RingParams</text>
</a>
</g>
</g>
<!-- Node5&#45;&gt;Node7 -->
<g id="edge7" class="edge">
<title>Node5&#45;&gt;Node7</title>
<path fill="none" stroke="#9a32cd" stroke-dasharray="5,2" d="M363.38,-308.72C388.97,-305.87 417.34,-302.71 443.74,-299.77"/>
<polygon fill="#9a32cd" stroke="#9a32cd" points="363.27,-305.21 353.72,-309.79 364.05,-312.16 363.27,-305.21"/>
<text text-anchor="middle" x="398" y="-310" font-family="Helvetica,sans-Serif" font-size="10.00"> relatedEntity</text>
</g>
<!-- Node6 -->
<g id="node6" class="node">
<title>Node6</title>
<g id="a_node6"><a xlink:href="interfacecom_1_1fs_1_1starfarer_1_1api_1_1campaign_1_1rules_1_1HasMemory.html" target="_top" xlink:title=" ">
<polygon fill="white" stroke="#666666" points="169,-333 0,-333 0,-303 169,-303 169,-333"/>
<text text-anchor="start" x="8" y="-321" font-family="Helvetica,sans-Serif" font-size="10.00">com.fs.starfarer.api.campaign.rules.</text>
<text text-anchor="middle" x="84.5" y="-310" font-family="Helvetica,sans-Serif" font-size="10.00">HasMemory</text>
</a>
</g>
</g>
<!-- Node6&#45;&gt;Node5 -->
<g id="edge5" class="edge">
<title>Node6&#45;&gt;Node5</title>
<path fill="none" stroke="#63b8ff" d="M180.73,-318C189.08,-318 197.44,-318 205.56,-318"/>
<polygon fill="#63b8ff" stroke="#63b8ff" points="180.89,-314.5 170.89,-318 180.89,-321.5 180.89,-314.5"/>
</g>
<!-- Node7&#45;&gt;Node2 -->
<g id="edge6" class="edge">
<title>Node7&#45;&gt;Node2</title>
<path fill="none" stroke="#9a32cd" stroke-dasharray="5,2" d="M636.64,-306.56C684.02,-315.4 740.94,-326.02 786.65,-334.54"/>
<polygon fill="#9a32cd" stroke="#9a32cd" points="637.4,-303.14 626.93,-304.75 636.12,-310.02 637.4,-303.14"/>
<text text-anchor="middle" x="697" y="-327" font-family="Helvetica,sans-Serif" font-size="10.00"> params</text>
</g>
<!-- Node14 -->
<g id="node14" class="node">
<title>Node14</title>
<g id="a_node14"><a xlink:title=" ">
<polygon fill="white" stroke="#666666" points="986,-173 755,-173 755,-143 986,-143 986,-173"/>
<text text-anchor="start" x="763" y="-161" font-family="Helvetica,sans-Serif" font-size="10.00">com.fs.starfarer.api.impl.campaign.terrain.</text>
<text text-anchor="middle" x="870.5" y="-150" font-family="Helvetica,sans-Serif" font-size="10.00">MagneticFieldTerrainPlugin.MagneticFieldParams</text>
</a>
</g>
</g>
<!-- Node7&#45;&gt;Node14 -->
<g id="edge15" class="edge">
<title>Node7&#45;&gt;Node14</title>
<path fill="none" stroke="#63b8ff" d="M577.51,-267.79C618.64,-243.73 689.59,-204.89 755,-182 764.11,-178.81 773.78,-175.98 783.48,-173.49"/>
<polygon fill="#63b8ff" stroke="#63b8ff" points="575.85,-264.7 569.02,-272.8 579.41,-270.73 575.85,-264.7"/>
</g>
<!-- Node8 -->
<g id="node8" class="node">
<title>Node8</title>
<g id="a_node8"><a xlink:title=" ">
<polygon fill="white" stroke="#666666" points="638.5,-352 444.5,-352 444.5,-322 638.5,-322 638.5,-352"/>
<text text-anchor="start" x="452.5" y="-340" font-family="Helvetica,sans-Serif" font-size="10.00">EnumSet&lt; com.fs.starfarer.api.campaign.</text>
<text text-anchor="middle" x="541.5" y="-329" font-family="Helvetica,sans-Serif" font-size="10.00">CampaignEngineLayers &gt;</text>
</a>
</g>
</g>
<!-- Node8&#45;&gt;Node2 -->
<g id="edge8" class="edge">
<title>Node8&#45;&gt;Node2</title>
<path fill="none" stroke="#9a32cd" stroke-dasharray="5,2" d="M650.13,-341.28C689.67,-342.85 734.18,-344.62 772.72,-346.15"/>
<polygon fill="#9a32cd" stroke="#9a32cd" points="650.49,-337.79 640.35,-340.89 650.21,-344.78 650.49,-337.79"/>
<text text-anchor="middle" x="697" y="-347" font-family="Helvetica,sans-Serif" font-size="10.00"> layers</text>
</g>
<!-- Node9 -->
<g id="node9" class="node">
<title>Node9</title>
<g id="a_node9"><a xlink:title=" ">
<polygon fill="white" stroke="#666666" points="968,-317 773,-317 773,-287 968,-287 968,-317"/>
<text text-anchor="start" x="781" y="-305" font-family="Helvetica,sans-Serif" font-size="10.00">com.fs.starfarer.api.impl.campaign.terrain.</text>
<text text-anchor="middle" x="870.5" y="-294" font-family="Helvetica,sans-Serif" font-size="10.00">AuroraRenderer.AuroraRendererDelegate</text>
</a>
</g>
</g>
<!-- Node9&#45;&gt;Node1 -->
<g id="edge9" class="edge">
<title>Node9&#45;&gt;Node1</title>
<path fill="none" stroke="#63b8ff" d="M967.09,-283.7C973.54,-281.94 979.89,-280.04 986,-278 1046.26,-257.91 1112.61,-224.01 1148.93,-204.36"/>
<polygon fill="#63b8ff" stroke="#63b8ff" points="966.45,-280.26 957.66,-286.17 968.22,-287.03 966.45,-280.26"/>
</g>
<!-- Node10 -->
<g id="node10" class="node">
<title>Node10</title>
<g id="a_node10"><a xlink:title=" ">
<polygon fill="white" stroke="#666666" points="968,-269 773,-269 773,-239 968,-239 968,-269"/>
<text text-anchor="start" x="781" y="-257" font-family="Helvetica,sans-Serif" font-size="10.00">com.fs.starfarer.api.impl.campaign.terrain.</text>
<text text-anchor="middle" x="870.5" y="-246" font-family="Helvetica,sans-Serif" font-size="10.00">FlareManager.FlareManagerDelegate</text>
</a>
</g>
</g>
<!-- Node10&#45;&gt;Node1 -->
<g id="edge10" class="edge">
<title>Node10&#45;&gt;Node1</title>
<path fill="none" stroke="#63b8ff" d="M956.8,-236.17C966.65,-234.1 976.55,-232.01 986,-230 1025.38,-221.64 1069.31,-212.19 1105.05,-204.47"/>
<polygon fill="#63b8ff" stroke="#63b8ff" points="956.28,-232.71 947.21,-238.19 957.72,-239.56 956.28,-232.71"/>
</g>
<!-- Node11 -->
<g id="node11" class="node">
<title>Node11</title>
<g id="a_node11"><a xlink:href="interfacecom_1_1fs_1_1starfarer_1_1api_1_1graphics_1_1SpriteAPI.html" target="_top" xlink:title=" ">
<polygon fill="white" stroke="#666666" points="940.5,-221 800.5,-221 800.5,-191 940.5,-191 940.5,-221"/>
<text text-anchor="start" x="808.5" y="-209" font-family="Helvetica,sans-Serif" font-size="10.00">com.fs.starfarer.api.graphics.</text>
<text text-anchor="middle" x="870.5" y="-198" font-family="Helvetica,sans-Serif" font-size="10.00">SpriteAPI</text>
</a>
</g>
</g>
<!-- Node11&#45;&gt;Node1 -->
<g id="edge11" class="edge">
<title>Node11&#45;&gt;Node1</title>
<path fill="none" stroke="#9a32cd" stroke-dasharray="5,2" d="M952.04,-201.51C991.15,-199.33 1038.45,-196.69 1079.53,-194.4"/>
<polygon fill="#9a32cd" stroke="#9a32cd" points="952.01,-198.01 942.22,-202.06 952.4,-205 952.01,-198.01"/>
<text text-anchor="middle" x="1033" y="-201" font-family="Helvetica,sans-Serif" font-size="10.00"> texture</text>
</g>
<!-- Node12 -->
<g id="node12" class="node">
<title>Node12</title>
<g id="a_node12"><a xlink:title=" ">
<polygon fill="white" stroke="#666666" points="561,-103.5 522,-103.5 522,-84.5 561,-84.5 561,-103.5"/>
<text text-anchor="middle" x="541.5" y="-91.5" font-family="Helvetica,sans-Serif" font-size="10.00">Color</text>
</a>
</g>
</g>
<!-- Node12&#45;&gt;Node1 -->
<g id="edge12" class="edge">
<title>Node12&#45;&gt;Node1</title>
<path fill="none" stroke="#9a32cd" stroke-dasharray="5,2" d="M572.07,-86.58C644.34,-69.76 835.07,-33.29 986,-75 1056.21,-94.4 1126.59,-147.29 1158.61,-173.65"/>
<polygon fill="#9a32cd" stroke="#9a32cd" points="571.51,-83.12 562.6,-88.84 573.14,-89.93 571.51,-83.12"/>
<text text-anchor="middle" x="870.5" y="-78" font-family="Helvetica,sans-Serif" font-size="10.00"> color</text>
</g>
<!-- Node12&#45;&gt;Node14 -->
<g id="edge16" class="edge">
<title>Node12&#45;&gt;Node14</title>
<path fill="none" stroke="#9a32cd" stroke-dasharray="5,2" d="M572.56,-99.88C621.59,-109.48 720.31,-128.8 790.45,-142.53"/>
<polygon fill="#9a32cd" stroke="#9a32cd" points="573.47,-96.49 562.98,-98.01 572.12,-103.36 573.47,-96.49"/>
<text text-anchor="middle" x="697" y="-134" font-family="Helvetica,sans-Serif" font-size="10.00"> baseColor</text>
</g>
<!-- Node13 -->
<g id="node13" class="node">
<title>Node13</title>
<g id="a_node13"><a xlink:href="classcom_1_1fs_1_1starfarer_1_1api_1_1impl_1_1campaign_1_1terrain_1_1AuroraRenderer.html" target="_top" xlink:title=" ">
<polygon fill="white" stroke="#666666" points="968,-125 773,-125 773,-95 968,-95 968,-125"/>
<text text-anchor="start" x="781" y="-113" font-family="Helvetica,sans-Serif" font-size="10.00">com.fs.starfarer.api.impl.campaign.terrain.</text>
<text text-anchor="middle" x="870.5" y="-102" font-family="Helvetica,sans-Serif" font-size="10.00">AuroraRenderer</text>
</a>
</g>
</g>
<!-- Node13&#45;&gt;Node1 -->
<g id="edge13" class="edge">
<title>Node13&#45;&gt;Node1</title>
<path fill="none" stroke="#9a32cd" stroke-dasharray="5,2" d="M960.3,-127.93C969,-129.89 977.69,-131.93 986,-134 1034.1,-145.97 1088.37,-161.87 1126.64,-173.5"/>
<polygon fill="#9a32cd" stroke="#9a32cd" points="961.28,-124.56 950.76,-125.82 959.77,-131.4 961.28,-124.56"/>
<text text-anchor="middle" x="1033" y="-156" font-family="Helvetica,sans-Serif" font-size="10.00"> renderer</text>
</g>
<!-- Node14&#45;&gt;Node1 -->
<g id="edge14" class="edge">
<title>Node14&#45;&gt;Node1</title>
<path fill="none" stroke="#9a32cd" stroke-dasharray="5,2" d="M997.62,-170.82C1025.03,-173.6 1053.6,-176.51 1079.67,-179.16"/>
<polygon fill="#9a32cd" stroke="#9a32cd" points="998.18,-167.36 987.88,-169.83 997.47,-174.32 998.18,-167.36"/>
<text text-anchor="middle" x="1033" y="-180" font-family="Helvetica,sans-Serif" font-size="10.00"> params</text>
</g>
<!-- Node15 -->
<g id="node15" class="node">
<title>Node15</title>
<g id="a_node15"><a xlink:title=" ">
<polygon fill="white" stroke="#666666" points="577.5,-167.5 505.5,-167.5 505.5,-148.5 577.5,-148.5 577.5,-167.5"/>
<text text-anchor="middle" x="541.5" y="-155.5" font-family="Helvetica,sans-Serif" font-size="10.00">List&lt; Color &gt;</text>
</a>
</g>
</g>
<!-- Node15&#45;&gt;Node14 -->
<g id="edge17" class="edge">
<title>Node15&#45;&gt;Node14</title>
<path fill="none" stroke="#9a32cd" stroke-dasharray="5,2" d="M589.31,-158C632.31,-158 697.78,-158 754.63,-158"/>
<polygon fill="#9a32cd" stroke="#9a32cd" points="589.32,-154.5 579.32,-158 589.32,-161.5 589.32,-154.5"/>
<text text-anchor="middle" x="697" y="-161" font-family="Helvetica,sans-Serif" font-size="10.00"> auroraColorRange</text>
</g>
<!-- Node16 -->
<g id="node16" class="node">
<title>Node16</title>
<g id="a_node16"><a xlink:href="classcom_1_1fs_1_1starfarer_1_1api_1_1impl_1_1campaign_1_1terrain_1_1FlareManager.html" target="_top" xlink:title=" ">
<polygon fill="white" stroke="#666666" points="968,-30 773,-30 773,0 968,0 968,-30"/>
<text text-anchor="start" x="781" y="-18" font-family="Helvetica,sans-Serif" font-size="10.00">com.fs.starfarer.api.impl.campaign.terrain.</text>
<text text-anchor="middle" x="870.5" y="-7" font-family="Helvetica,sans-Serif" font-size="10.00">FlareManager</text>
</a>
</g>
</g>
<!-- Node16&#45;&gt;Node1 -->
<g id="edge18" class="edge">
<title>Node16&#45;&gt;Node1</title>
<path fill="none" stroke="#9a32cd" stroke-dasharray="5,2" d="M979.43,-15.22C1007.74,-19.06 1037.25,-26.7 1062,-41 1117.13,-72.86 1154.96,-142.69 1169.66,-173.67"/>
<polygon fill="#9a32cd" stroke="#9a32cd" points="980.08,-11.77 969.74,-14.06 979.25,-18.72 980.08,-11.77"/>
<text text-anchor="middle" x="1033" y="-44" font-family="Helvetica,sans-Serif" font-size="10.00"> flareManager</text>
</g>
</g>
</svg>
        <g id="navigator" transform="translate(0 0)" fill="#404254">
                <rect fill="#f2f5e9" fill-opacity="0.5" stroke="#606060" stroke-width=".5" x="0" y="0" width="60" height="60"/>
                <use id="zoomplus" xlink:href="#zoomPlus" x="17" y="9" onmousedown="handleZoom(evt,'in')"/>
                <use id="zoomminus" xlink:href="#zoomMin" x="42" y="9" onmousedown="handleZoom(evt,'out')"/>
                <use id="reset" xlink:href="#resetDef" x="30" y="36" onmousedown="handleReset()"/>
                <g id="arrowUp" xlink:href="#dirArrow" transform="translate(30 24)" onmousedown="handlePan(0,-1)">
                  <use xlink:href="#rim" fill="#404040">
                        <set attributeName="fill" to="#808080" begin="arrowUp.mouseover" end="arrowUp.mouseout"/>
                  </use>
                  <path fill="none" stroke="white" stroke-width="1.5" d="M0,-3.0v7 M-2.5,-0.5L0,-3.0L2.5,-0.5"/>
                </g>
                <g id="arrowRight" xlink:href="#dirArrow" transform="rotate(90) translate(36 -43)" onmousedown="handlePan(1,0)">
                  <use xlink:href="#rim" fill="#404040">
                        <set attributeName="fill" to="#808080" begin="arrowRight.mouseover" end="arrowRight.mouseout"/>
                  </use>
                  <path fill="none" stroke="white" stroke-width="1.5" d="M0,-3.0v7 M-2.5,-0.5L0,-3.0L2.5,-0.5"/>
                </g>
                <g id="arrowDown" xlink:href="#dirArrow" transform="rotate(180) translate(-30 -48)" onmousedown="handlePan(0,1)">
                  <use xlink:href="#rim" fill="#404040">
                        <set attributeName="fill" to="#808080" begin="arrowDown.mouseover" end="arrowDown.mouseout"/>
                  </use>
                  <path fill="none" stroke="white" stroke-width="1.5" d="M0,-3.0v7 M-2.5,-0.5L0,-3.0L2.5,-0.5"/>
                </g>
                <g id="arrowLeft" xlink:href="#dirArrow" transform="rotate(270) translate(-36 17)" onmousedown="handlePan(-1,0)">
                  <use xlink:href="#rim" fill="#404040">
                        <set attributeName="fill" to="#808080" begin="arrowLeft.mouseover" end="arrowLeft.mouseout"/>
                  </use>
                  <path fill="none" stroke="white" stroke-width="1.5" d="M0,-3.0v7 M-2.5,-0.5L0,-3.0L2.5,-0.5"/>
                </g>
        </g>
        <svg viewBox="0 0 15 15" width="100%" height="30px" preserveAspectRatio="xMaxYMin meet">
         <g id="arrow_out" transform="scale(0.3 0.3)">
          <a xlink:href="classcom_1_1fs_1_1starfarer_1_1api_1_1impl_1_1campaign_1_1terrain_1_1MagneticFieldTerrainPlugin__coll__graph_org.svg" target="_base">
           <rect id="button" ry="5" rx="5" y="6" x="6" height="38" width="38"
                fill="#f2f5e9" fill-opacity="0.5" stroke="#606060" stroke-width="1.0"/>
           <path id="arrow"
             d="M 11.500037,31.436501 C 11.940474,20.09759 22.043105,11.32322 32.158766,21.979434 L 37.068811,17.246167 C 37.068811,17.246167 37.088388,32 37.088388,32 L 22.160133,31.978069 C 22.160133,31.978069 26.997745,27.140456 26.997745,27.140456 C 18.528582,18.264221 13.291696,25.230495 11.500037,31.436501 z"
             style="fill:#404040;"/>
          </a>
         </g>
        </svg>
</svg>
