<?xml version="1.0" encoding="UTF-8" standalone="no"?>
<!DOCTYPE svg PUBLIC "-//W3C//DTD SVG 1.1//EN"
 "http://www.w3.org/Graphics/SVG/1.1/DTD/svg11.dtd">
<!-- Generated by graphviz version 9.0.0 (20230911.1827)
 -->
<!-- Title: com.fs.starfarer.api.util.CampaignEngineGlowUtil Pages: 1 -->
<!--zoomable 195 -->

<svg id="main" version="1.1" xmlns="http://www.w3.org/2000/svg" xmlns:xlink="http://www.w3.org/1999/xlink" xml:space="preserve" onload="init(evt)">
<style type="text/css"><![CDATA[
.node, .edge {opacity: 0.7;}
.node.selected, .edge.selected {opacity: 1;}
.edge:hover path { stroke: red; }
.edge:hover polygon { stroke: red; fill: red; }
]]></style>

<defs>
  <circle id="rim" cx="0" cy="0" r="7"/>
  <circle id="rim2" cx="0" cy="0" r="3.5"/>
  <g id="zoomPlus">
    <use xlink:href="#rim" fill="#404040"><set attributeName="fill" to="#808080" begin="zoomplus.mouseover" end="zoomplus.mouseout"/></use>
    <path d="M-4,0h8M0,-4v8" fill="none" stroke="white" stroke-width="1.5" pointer-events="none"/>
  </g>
  <g id="zoomMin">
    <use xlink:href="#rim" fill="#404040"><set attributeName="fill" to="#808080" begin="zoomminus.mouseover" end="zoomminus.mouseout"/></use>
    <path d="M-4,0h8" fill="none" stroke="white" stroke-width="1.5" pointer-events="none"/>
  </g>
  <g id="arrowUp" transform="translate(30 24)">
    <use xlink:href="#rim"/>
    <path pointer-events="none" fill="none" stroke="white" stroke-width="1.5" d="M0,-3.0v7 M-2.5,-0.5L0,-3.0L2.5,-0.5"/>
  </g>
  <g id="arrowRight" transform="rotate(90) translate(36 -43)">
    <use xlink:href="#rim"/>
    <path pointer-events="none" fill="none" stroke="white" stroke-width="1.5" d="M0,-3.0v7 M-2.5,-0.5L0,-3.0L2.5,-0.5"/>
  </g>
  <g id="arrowDown" transform="rotate(180) translate(-30 -48)">
    <use xlink:href="#rim"/>
    <path pointer-events="none" fill="none" stroke="white" stroke-width="1.5" d="M0,-3.0v7 M-2.5,-0.5L0,-3.0L2.5,-0.5"/>
  </g>
  <g id="arrowLeft" transform="rotate(270) translate(-36 17)">
    <use xlink:href="#rim"/>
    <path pointer-events="none" fill="none" stroke="white" stroke-width="1.5" d="M0,-3.0v7 M-2.5,-0.5L0,-3.0L2.5,-0.5"/>
  </g>
  <g id="resetDef">
    <use xlink:href="#rim2" fill="#404040"><set attributeName="fill" to="#808080" begin="reset.mouseover" end="reset.mouseout"/></use>
  </g>
</defs>
<script type="application/ecmascript">
var viewWidth = 512;
var viewHeight = 195;
var sectionId = 'dynsection-1';
</script>
<script type="application/ecmascript" xlink:href="svg.min.js"/>
<svg id="graph" class="graph">
<g id="viewport">
<title>com.fs.starfarer.api.util.CampaignEngineGlowUtil</title>
<!-- Node1 -->
<g id="Node000001" class="node">
<title>Node1</title>
<g id="a_Node000001"><a xlink:title=" ">
<polygon fill="#999999" stroke="#666666" points="503.5,-87.5 377.25,-87.5 377.25,-57 503.5,-57 503.5,-87.5"/>
<text text-anchor="start" x="385.25" y="-74" font-family="Helvetica,sans-Serif" font-size="10.00">com.fs.starfarer.api.util.</text>
<text text-anchor="middle" x="440.38" y="-62.75" font-family="Helvetica,sans-Serif" font-size="10.00">CampaignEngineGlowUtil</text>
</a>
</g>
</g>
<!-- Node2 -->
<g id="Node000002" class="node">
<title>Node2</title>
<g id="a_Node000002"><a xlink:title=" ">
<polygon fill="white" stroke="#666666" points="262.5,-186.88 158.75,-186.88 158.75,-167.62 262.5,-167.62 262.5,-186.88"/>
<text text-anchor="middle" x="210.62" y="-173.38" font-family="Helvetica,sans-Serif" font-size="10.00">EngineGlowControls</text>
</a>
</g>
</g>
<!-- Node2&#45;&gt;Node1 -->
<g id="edge1_Node000001_Node000002" class="edge">
<title>Node2&#45;&gt;Node1</title>
<g id="a_edge1_Node000001_Node000002"><a xlink:title=" ">
<path fill="none" stroke="#63b8ff" d="M274.19,-181.4C301.61,-180.74 333.36,-176.45 359.25,-163.25 392.63,-146.22 418.33,-108.88 430.89,-87.7"/>
<polygon fill="#63b8ff" stroke="#63b8ff" points="274.22,-177.9 264.24,-181.46 274.27,-184.9 274.22,-177.9"/>
</a>
</g>
</g>
<!-- Node3 -->
<g id="Node000003" class="node">
<title>Node3</title>
<g id="a_Node000003"><a xlink:href="classcom_1_1fs_1_1starfarer_1_1api_1_1util_1_1ValueShifterUtil.html" target="_top" xlink:title=" ">
<polygon fill="white" stroke="#666666" points="268.5,-87.5 152.75,-87.5 152.75,-57 268.5,-57 268.5,-87.5"/>
<text text-anchor="start" x="160.75" y="-74" font-family="Helvetica,sans-Serif" font-size="10.00">com.fs.starfarer.api.util.</text>
<text text-anchor="middle" x="210.62" y="-62.75" font-family="Helvetica,sans-Serif" font-size="10.00">ValueShifterUtil</text>
</a>
</g>
</g>
<!-- Node3&#45;&gt;Node1 -->
<g id="edge2_Node000001_Node000003" class="edge">
<title>Node3&#45;&gt;Node1</title>
<g id="a_edge2_Node000001_Node000003"><a xlink:title=" ">
<path fill="none" stroke="#9a32cd" stroke-dasharray="5,2" d="M280.3,-72.25C311.03,-72.25 347.01,-72.25 376.97,-72.25"/>
<polygon fill="#9a32cd" stroke="#9a32cd" points="280.32,-68.75 270.32,-72.25 280.32,-75.75 280.32,-68.75"/>
</a>
</g>
<text text-anchor="middle" x="322.88" y="-152.75" font-family="Helvetica,sans-Serif" font-size="10.00" fill="grey"> flickerMult</text>
<text text-anchor="middle" x="322.88" y="-141.5" font-family="Helvetica,sans-Serif" font-size="10.00" fill="grey">flickerRateMult</text>
<text text-anchor="middle" x="322.88" y="-130.25" font-family="Helvetica,sans-Serif" font-size="10.00" fill="grey">glowCoreMult</text>
<text text-anchor="middle" x="322.88" y="-119" font-family="Helvetica,sans-Serif" font-size="10.00" fill="grey">glowFringeMult</text>
<text text-anchor="middle" x="322.88" y="-107.75" font-family="Helvetica,sans-Serif" font-size="10.00" fill="grey">glowMult</text>
<text text-anchor="middle" x="322.88" y="-96.5" font-family="Helvetica,sans-Serif" font-size="10.00" fill="grey">lengthMult</text>
<text text-anchor="middle" x="322.88" y="-85.25" font-family="Helvetica,sans-Serif" font-size="10.00" fill="grey">textureScrollMult</text>
<text text-anchor="middle" x="322.88" y="-74" font-family="Helvetica,sans-Serif" font-size="10.00" fill="grey">widthMult</text>
</g>
<!-- Node4 -->
<g id="Node000004" class="node">
<title>Node4</title>
<g id="a_Node000004"><a xlink:href="interfacecom_1_1fs_1_1starfarer_1_1api_1_1util_1_1ValueShifterAPI.html" target="_top" xlink:title=" ">
<polygon fill="white" stroke="#666666" points="115.75,-87.5 0,-87.5 0,-57 115.75,-57 115.75,-87.5"/>
<text text-anchor="start" x="8" y="-74" font-family="Helvetica,sans-Serif" font-size="10.00">com.fs.starfarer.api.util.</text>
<text text-anchor="middle" x="57.88" y="-62.75" font-family="Helvetica,sans-Serif" font-size="10.00">ValueShifterAPI</text>
</a>
</g>
</g>
<!-- Node4&#45;&gt;Node3 -->
<g id="edge3_Node000003_Node000004" class="edge">
<title>Node4&#45;&gt;Node3</title>
<g id="a_edge3_Node000003_Node000004"><a xlink:title=" ">
<path fill="none" stroke="#63b8ff" d="M127.2,-72.25C135.59,-72.25 144.1,-72.25 152.3,-72.25"/>
<polygon fill="#63b8ff" stroke="#63b8ff" points="127.38,-68.75 117.38,-72.25 127.38,-75.75 127.38,-68.75"/>
</a>
</g>
</g>
<!-- Node5 -->
<g id="Node000005" class="node">
<title>Node5</title>
<g id="a_Node000005"><a xlink:href="classcom_1_1fs_1_1starfarer_1_1api_1_1util_1_1ColorShifterUtil.html" target="_top" xlink:title=" ">
<polygon fill="white" stroke="#666666" points="268.5,-30.5 152.75,-30.5 152.75,0 268.5,0 268.5,-30.5"/>
<text text-anchor="start" x="160.75" y="-17" font-family="Helvetica,sans-Serif" font-size="10.00">com.fs.starfarer.api.util.</text>
<text text-anchor="middle" x="210.62" y="-5.75" font-family="Helvetica,sans-Serif" font-size="10.00">ColorShifterUtil</text>
</a>
</g>
</g>
<!-- Node5&#45;&gt;Node1 -->
<g id="edge4_Node000001_Node000005" class="edge">
<title>Node5&#45;&gt;Node1</title>
<g id="a_edge4_Node000001_Node000005"><a xlink:title=" ">
<path fill="none" stroke="#9a32cd" stroke-dasharray="5,2" d="M280.23,-19.73C305.43,-22.54 333.98,-27.1 359.25,-34.5 377.4,-39.82 396.61,-48.74 411.66,-56.58"/>
<polygon fill="#9a32cd" stroke="#9a32cd" points="280.72,-16.26 270.41,-18.72 280,-23.22 280.72,-16.26"/>
</a>
</g>
<text text-anchor="middle" x="322.88" y="-59.5" font-family="Helvetica,sans-Serif" font-size="10.00" fill="grey"> flameColor</text>
<text text-anchor="middle" x="322.88" y="-48.25" font-family="Helvetica,sans-Serif" font-size="10.00" fill="grey">glowColorCore</text>
<text text-anchor="middle" x="322.88" y="-37" font-family="Helvetica,sans-Serif" font-size="10.00" fill="grey">glowColorFringe</text>
</g>
<!-- Node6 -->
<g id="Node000006" class="node">
<title>Node6</title>
<g id="a_Node000006"><a xlink:href="interfacecom_1_1fs_1_1starfarer_1_1api_1_1util_1_1ColorShifterAPI.html" target="_top" xlink:title=" ">
<polygon fill="white" stroke="#666666" points="115.75,-30.5 0,-30.5 0,0 115.75,0 115.75,-30.5"/>
<text text-anchor="start" x="8" y="-17" font-family="Helvetica,sans-Serif" font-size="10.00">com.fs.starfarer.api.util.</text>
<text text-anchor="middle" x="57.88" y="-5.75" font-family="Helvetica,sans-Serif" font-size="10.00">ColorShifterAPI</text>
</a>
</g>
</g>
<!-- Node6&#45;&gt;Node5 -->
<g id="edge5_Node000005_Node000006" class="edge">
<title>Node6&#45;&gt;Node5</title>
<g id="a_edge5_Node000005_Node000006"><a xlink:title=" ">
<path fill="none" stroke="#63b8ff" d="M127.2,-15.25C135.59,-15.25 144.1,-15.25 152.3,-15.25"/>
<polygon fill="#63b8ff" stroke="#63b8ff" points="127.38,-11.75 117.38,-15.25 127.38,-18.75 127.38,-11.75"/>
</a>
</g>
</g>
</g>
</svg>

<g id="navigator" transform="translate(0 0)" fill="#404254">
  <rect fill="#f2f5e9" fill-opacity="0.5" stroke="#606060" stroke-width=".5" x="0" y="0" width="60" height="60"/>
  <use id="zoomplus" xlink:href="#zoomPlus" x="17" y="9" onmousedown="handleZoom(evt,'in')"/>
  <use id="zoomminus" xlink:href="#zoomMin" x="42" y="9" onmousedown="handleZoom(evt,'out')"/>
  <use id="reset" xlink:href="#resetDef" x="30" y="36" onmousedown="handleReset()"/>
   <use id="arrowup" xlink:href="#arrowUp" x="0" y="0" onmousedown="handlePan(0,-1)"/>
  <use id="arrowright" xlink:href="#arrowRight" x="0" y="0" onmousedown="handlePan(1,0)"/>
  <use id="arrowdown" xlink:href="#arrowDown" x="0" y="0" onmousedown="handlePan(0,1)"/>
  <use id="arrowleft" xlink:href="#arrowLeft" x="0" y="0" onmousedown="handlePan(-1,0)"/>
</g>
<svg viewBox="0 0 15 15" width="100%" height="30px" preserveAspectRatio="xMaxYMin meet">
 <g id="arrow_out" transform="scale(0.3 0.3)">
  <a xlink:href="classcom_1_1fs_1_1starfarer_1_1api_1_1util_1_1CampaignEngineGlowUtil__coll__graph_org.svg" target="_base">
   <rect id="button" ry="5" rx="5" y="6" x="6" height="38" width="38"
        fill="#f2f5e9" fill-opacity="0.5" stroke="#606060" stroke-width="1.0"/>
   <path id="arrow"
     d="M 11.500037,31.436501 C 11.940474,20.09759 22.043105,11.32322 32.158766,21.979434 L 37.068811,17.246167 C 37.068811,17.246167 37.088388,32 37.088388,32 L 22.160133,31.978069 C 22.160133,31.978069 26.997745,27.140456 26.997745,27.140456 C 18.528582,18.264221 13.291696,25.230495 11.500037,31.436501 z"
     style="fill:#404040;"/>
  </a>
 </g>
</svg>

<style type='text/css'>
<![CDATA[
[data-mouse-over-selected='false'] { opacity: 0.7; }
[data-mouse-over-selected='true']  { opacity: 1.0; }
]]>
</style>
<script type="application/ecmascript"><![CDATA[
document.addEventListener('DOMContentLoaded', (event) => {
  highlightEdges();
  highlightAdjacentNodes();
});
]]></script>
</svg>
