<?xml version="1.0" encoding="UTF-8" standalone="no"?>
<!DOCTYPE svg PUBLIC "-//W3C//DTD SVG 1.1//EN"
 "http://www.w3.org/Graphics/SVG/1.1/DTD/svg11.dtd">
<!-- Generated by graphviz version 12.2.0 (20241103.1931)
 -->
<!-- Title: com.fs.starfarer.api.impl.campaign.skills.FieldRepairsScript Pages: 1 -->
<svg width="587pt" height="211pt"
 viewBox="0.00 0.00 586.50 210.88" xmlns="http://www.w3.org/2000/svg" xmlns:xlink="http://www.w3.org/1999/xlink">
<g id="graph0" class="graph" transform="scale(1 1) rotate(0) translate(4 206.88)">
<title>com.fs.starfarer.api.impl.campaign.skills.FieldRepairsScript</title>
<!-- Node1 -->
<g id="Node000001" class="node">
<title>Node1</title>
<g id="a_Node000001"><a xlink:title=" ">
<polygon fill="#999999" stroke="#666666" points="578.5,-104.88 388.5,-104.88 388.5,-74.38 578.5,-74.38 578.5,-104.88"/>
<text text-anchor="start" x="396.5" y="-91.38" font-family="Helvetica,sans-Serif" font-size="10.00">com.fs.starfarer.api.impl.campaign.skills.</text>
<text text-anchor="middle" x="483.5" y="-80.12" font-family="Helvetica,sans-Serif" font-size="10.00">FieldRepairsScript</text>
</a>
</g>
</g>
<!-- Node2 -->
<g id="Node000002" class="node">
<title>Node2</title>
<g id="a_Node000002"><a xlink:href="interfacecom_1_1fs_1_1starfarer_1_1api_1_1EveryFrameScript.html" target="_top" xlink:title=" ">
<polygon fill="white" stroke="#666666" points="295.88,-202.88 171.12,-202.88 171.12,-172.38 295.88,-172.38 295.88,-202.88"/>
<text text-anchor="start" x="179.12" y="-189.38" font-family="Helvetica,sans-Serif" font-size="10.00">com.fs.starfarer.api.Every</text>
<text text-anchor="middle" x="233.5" y="-178.12" font-family="Helvetica,sans-Serif" font-size="10.00">FrameScript</text>
</a>
</g>
</g>
<!-- Node2&#45;&gt;Node1 -->
<g id="edge1_Node000001_Node000002" class="edge">
<title>Node2&#45;&gt;Node1</title>
<g id="a_edge1_Node000001_Node000002"><a xlink:title=" ">
<path fill="none" stroke="#63b8ff" d="M307.25,-173.33C328.05,-168.21 350.5,-161.66 370.5,-153.62 402.92,-140.6 437.42,-119.68 459.42,-105.33"/>
<polygon fill="#63b8ff" stroke="#63b8ff" points="306.61,-169.89 297.69,-175.61 308.23,-176.7 306.61,-169.89"/>
</a>
</g>
</g>
<!-- Node3 -->
<g id="Node000003" class="node">
<title>Node3</title>
<g id="a_Node000003"><a xlink:href="classcom_1_1fs_1_1starfarer_1_1api_1_1util_1_1IntervalUtil.html" target="_top" xlink:title=" ">
<polygon fill="white" stroke="#666666" points="291.38,-153.88 175.62,-153.88 175.62,-123.38 291.38,-123.38 291.38,-153.88"/>
<text text-anchor="start" x="183.62" y="-140.38" font-family="Helvetica,sans-Serif" font-size="10.00">com.fs.starfarer.api.util.</text>
<text text-anchor="middle" x="233.5" y="-129.12" font-family="Helvetica,sans-Serif" font-size="10.00">IntervalUtil</text>
</a>
</g>
</g>
<!-- Node3&#45;&gt;Node1 -->
<g id="edge2_Node000001_Node000003" class="edge">
<title>Node3&#45;&gt;Node1</title>
<g id="a_edge2_Node000001_Node000003"><a xlink:title=" ">
<path fill="none" stroke="#9a32cd" stroke-dasharray="5,2" d="M302.71,-128.63C324.44,-125.17 348.54,-121.04 370.5,-116.62 386.97,-113.31 404.69,-109.27 421.07,-105.33"/>
<polygon fill="#9a32cd" stroke="#9a32cd" points="302.41,-125.14 293.08,-130.15 303.5,-132.05 302.41,-125.14"/>
</a>
</g>
<text text-anchor="middle" x="342.38" y="-139.7" font-family="Helvetica,sans-Serif" font-size="10.00" fill="grey"> tracker</text>
<text text-anchor="middle" x="342.38" y="-128.45" font-family="Helvetica,sans-Serif" font-size="10.00" fill="grey">tracker2</text>
</g>
<!-- Node4 -->
<g id="Node000004" class="node">
<title>Node4</title>
<g id="a_Node000004"><a xlink:href="interfacecom_1_1fs_1_1starfarer_1_1api_1_1fleet_1_1FleetMemberAPI.html" target="_top" xlink:title=" ">
<polygon fill="white" stroke="#666666" points="294,-104.88 173,-104.88 173,-74.38 294,-74.38 294,-104.88"/>
<text text-anchor="start" x="181" y="-91.38" font-family="Helvetica,sans-Serif" font-size="10.00">com.fs.starfarer.api.fleet.</text>
<text text-anchor="middle" x="233.5" y="-80.12" font-family="Helvetica,sans-Serif" font-size="10.00">FleetMemberAPI</text>
</a>
</g>
</g>
<!-- Node4&#45;&gt;Node1 -->
<g id="edge3_Node000001_Node000004" class="edge">
<title>Node4&#45;&gt;Node1</title>
<g id="a_edge3_Node000001_Node000004"><a xlink:title=" ">
<path fill="none" stroke="#9a32cd" stroke-dasharray="5,2" d="M305.42,-89.62C331.27,-89.62 360.91,-89.62 388.45,-89.62"/>
<polygon fill="#9a32cd" stroke="#9a32cd" points="305.73,-86.13 295.73,-89.63 305.73,-93.13 305.73,-86.13"/>
</a>
</g>
<text text-anchor="middle" x="342.38" y="-102.62" font-family="Helvetica,sans-Serif" font-size="10.00" fill="grey"> picked</text>
<text text-anchor="middle" x="342.38" y="-91.38" font-family="Helvetica,sans-Serif" font-size="10.00" fill="grey">pickedNew</text>
</g>
<!-- Node5 -->
<g id="Node000005" class="node">
<title>Node5</title>
<g id="a_Node000005"><a xlink:href="interfacecom_1_1fs_1_1starfarer_1_1api_1_1loading_1_1WithSourceMod.html" target="_top" xlink:title=" ">
<polygon fill="white" stroke="#666666" points="133.75,-104.88 0,-104.88 0,-74.38 133.75,-74.38 133.75,-104.88"/>
<text text-anchor="start" x="8" y="-91.38" font-family="Helvetica,sans-Serif" font-size="10.00">com.fs.starfarer.api.loading.</text>
<text text-anchor="middle" x="66.88" y="-80.12" font-family="Helvetica,sans-Serif" font-size="10.00">WithSourceMod</text>
</a>
</g>
</g>
<!-- Node5&#45;&gt;Node4 -->
<g id="edge4_Node000004_Node000005" class="edge">
<title>Node5&#45;&gt;Node4</title>
<g id="a_edge4_Node000004_Node000005"><a xlink:title=" ">
<path fill="none" stroke="#63b8ff" d="M145.39,-89.62C154.53,-89.62 163.75,-89.62 172.6,-89.62"/>
<polygon fill="#63b8ff" stroke="#63b8ff" points="145.4,-86.13 135.4,-89.63 145.4,-93.13 145.4,-86.13"/>
</a>
</g>
</g>
<!-- Node6 -->
<g id="Node000006" class="node">
<title>Node6</title>
<g id="a_Node000006"><a xlink:title=" ">
<polygon fill="white" stroke="#666666" points="259.5,-56.25 207.5,-56.25 207.5,-37 259.5,-37 259.5,-56.25"/>
<text text-anchor="middle" x="233.5" y="-42.75" font-family="Helvetica,sans-Serif" font-size="10.00">Random</text>
</a>
</g>
</g>
<!-- Node6&#45;&gt;Node1 -->
<g id="edge5_Node000001_Node000006" class="edge">
<title>Node6&#45;&gt;Node1</title>
<g id="a_edge5_Node000001_Node000006"><a xlink:title=" ">
<path fill="none" stroke="#9a32cd" stroke-dasharray="5,2" d="M270.58,-52.88C302.32,-58.38 349.88,-66.63 391.9,-73.92"/>
<polygon fill="#9a32cd" stroke="#9a32cd" points="271.59,-49.5 261.14,-51.24 270.39,-56.4 271.59,-49.5"/>
</a>
</g>
<text text-anchor="middle" x="342.38" y="-71.16" font-family="Helvetica,sans-Serif" font-size="10.00" fill="grey"> newRandom</text>
</g>
<!-- Node7 -->
<g id="Node000007" class="node">
<title>Node7</title>
<g id="a_Node000007"><a xlink:title=" ">
<polygon fill="white" stroke="#666666" points="296.25,-19.25 170.75,-19.25 170.75,0 296.25,0 296.25,-19.25"/>
<text text-anchor="middle" x="233.5" y="-5.75" font-family="Helvetica,sans-Serif" font-size="10.00">LinkedHashSet&lt; String &gt;</text>
</a>
</g>
</g>
<!-- Node7&#45;&gt;Node1 -->
<g id="edge6_Node000001_Node000007" class="edge">
<title>Node7&#45;&gt;Node1</title>
<g id="a_edge6_Node000001_Node000007"><a xlink:title=" ">
<path fill="none" stroke="#9a32cd" stroke-dasharray="5,2" d="M289.46,-22.49C314.4,-28.73 344.15,-36.74 370.5,-45.38 396.13,-53.77 424.37,-64.94 446.08,-73.96"/>
<polygon fill="#9a32cd" stroke="#9a32cd" points="290.39,-19.11 279.84,-20.11 288.71,-25.91 290.39,-19.11"/>
</a>
</g>
<text text-anchor="middle" x="342.38" y="-47.12" font-family="Helvetica,sans-Serif" font-size="10.00" fill="grey"> seen</text>
</g>
</g>
</svg>
