<?xml version="1.0" encoding="UTF-8" standalone="no"?>
<!DOCTYPE svg PUBLIC "-//W3C//DTD SVG 1.1//EN"
 "http://www.w3.org/Graphics/SVG/1.1/DTD/svg11.dtd">
<!-- Generated by graphviz version 12.2.0 (20241103.1931)
 -->
<!-- Title: com.fs.starfarer.api.campaign.impl.items.WeaponBlueprintItemPlugin Pages: 1 -->
<svg width="914pt" height="211pt"
 viewBox="0.00 0.00 913.50 210.50" xmlns="http://www.w3.org/2000/svg" xmlns:xlink="http://www.w3.org/1999/xlink">
<g id="graph0" class="graph" transform="scale(1 1) rotate(0) translate(4 206.5)">
<title>com.fs.starfarer.api.campaign.impl.items.WeaponBlueprintItemPlugin</title>
<!-- Node1 -->
<g id="Node000001" class="node">
<title>Node1</title>
<g id="a_Node000001"><a xlink:title=" ">
<polygon fill="#999999" stroke="#666666" points="905.5,-81.5 714,-81.5 714,-51 905.5,-51 905.5,-81.5"/>
<text text-anchor="start" x="722" y="-68" font-family="Helvetica,sans-Serif" font-size="10.00">com.fs.starfarer.api.campaign.impl.items.</text>
<text text-anchor="middle" x="809.75" y="-56.75" font-family="Helvetica,sans-Serif" font-size="10.00">WeaponBlueprintItemPlugin</text>
</a>
</g>
</g>
<!-- Node2 -->
<g id="Node000002" class="node">
<title>Node2</title>
<g id="a_Node000002"><a xlink:href="classcom_1_1fs_1_1starfarer_1_1api_1_1campaign_1_1impl_1_1items_1_1BaseSpecialItemPlugin.html" target="_top" xlink:title=" ">
<polygon fill="white" stroke="#666666" points="677,-147.5 485.5,-147.5 485.5,-117 677,-117 677,-147.5"/>
<text text-anchor="start" x="493.5" y="-134" font-family="Helvetica,sans-Serif" font-size="10.00">com.fs.starfarer.api.campaign.impl.items.</text>
<text text-anchor="middle" x="581.25" y="-122.75" font-family="Helvetica,sans-Serif" font-size="10.00">BaseSpecialItemPlugin</text>
</a>
</g>
</g>
<!-- Node2&#45;&gt;Node1 -->
<g id="edge1_Node000001_Node000002" class="edge">
<title>Node2&#45;&gt;Node1</title>
<g id="a_edge1_Node000001_Node000002"><a xlink:title=" ">
<path fill="none" stroke="#63b8ff" d="M647.01,-113.38C681.12,-103.44 722.46,-91.39 754.81,-81.97"/>
<polygon fill="#63b8ff" stroke="#63b8ff" points="646.29,-109.94 637.67,-116.1 648.25,-116.66 646.29,-109.94"/>
</a>
</g>
</g>
<!-- Node3 -->
<g id="Node000003" class="node">
<title>Node3</title>
<g id="a_Node000003"><a xlink:href="interfacecom_1_1fs_1_1starfarer_1_1api_1_1campaign_1_1SpecialItemPlugin.html" target="_top" xlink:title=" ">
<polygon fill="white" stroke="#666666" points="315.75,-153.5 170.75,-153.5 170.75,-123 315.75,-123 315.75,-153.5"/>
<text text-anchor="start" x="178.75" y="-140" font-family="Helvetica,sans-Serif" font-size="10.00">com.fs.starfarer.api.campaign.</text>
<text text-anchor="middle" x="243.25" y="-128.75" font-family="Helvetica,sans-Serif" font-size="10.00">SpecialItemPlugin</text>
</a>
</g>
</g>
<!-- Node3&#45;&gt;Node2 -->
<g id="edge2_Node000002_Node000003" class="edge">
<title>Node3&#45;&gt;Node2</title>
<g id="a_edge2_Node000002_Node000003"><a xlink:title=" ">
<path fill="none" stroke="#63b8ff" d="M327.17,-136.77C375,-135.92 435.33,-134.84 485.09,-133.95"/>
<polygon fill="#63b8ff" stroke="#63b8ff" points="327.37,-133.27 317.43,-136.94 327.49,-140.26 327.37,-133.27"/>
</a>
</g>
</g>
<!-- Node4 -->
<g id="Node000004" class="node">
<title>Node4</title>
<g id="a_Node000004"><a xlink:href="interfacecom_1_1fs_1_1starfarer_1_1api_1_1campaign_1_1SpecialItemSpecAPI.html" target="_top" xlink:title=" ">
<polygon fill="white" stroke="#666666" points="315.75,-104.5 170.75,-104.5 170.75,-74 315.75,-74 315.75,-104.5"/>
<text text-anchor="start" x="178.75" y="-91" font-family="Helvetica,sans-Serif" font-size="10.00">com.fs.starfarer.api.campaign.</text>
<text text-anchor="middle" x="243.25" y="-79.75" font-family="Helvetica,sans-Serif" font-size="10.00">SpecialItemSpecAPI</text>
</a>
</g>
</g>
<!-- Node4&#45;&gt;Node2 -->
<g id="edge3_Node000002_Node000004" class="edge">
<title>Node4&#45;&gt;Node2</title>
<g id="a_edge3_Node000002_Node000004"><a xlink:title=" ">
<path fill="none" stroke="#9a32cd" stroke-dasharray="5,2" d="M327.17,-99.86C375,-105.98 435.33,-113.7 485.09,-120.07"/>
<polygon fill="#9a32cd" stroke="#9a32cd" points="327.78,-96.41 317.42,-98.61 326.89,-103.36 327.78,-96.41"/>
</a>
</g>
<text text-anchor="middle" x="400.62" y="-118.86" font-family="Helvetica,sans-Serif" font-size="10.00" fill="grey"> spec</text>
</g>
<!-- Node5 -->
<g id="Node000005" class="node">
<title>Node5</title>
<g id="a_Node000005"><a xlink:href="interfacecom_1_1fs_1_1starfarer_1_1api_1_1loading_1_1WithSourceMod.html" target="_top" xlink:title=" ">
<polygon fill="white" stroke="#666666" points="133.75,-73.5 0,-73.5 0,-43 133.75,-43 133.75,-73.5"/>
<text text-anchor="start" x="8" y="-60" font-family="Helvetica,sans-Serif" font-size="10.00">com.fs.starfarer.api.loading.</text>
<text text-anchor="middle" x="66.88" y="-48.75" font-family="Helvetica,sans-Serif" font-size="10.00">WithSourceMod</text>
</a>
</g>
</g>
<!-- Node5&#45;&gt;Node4 -->
<g id="edge4_Node000004_Node000005" class="edge">
<title>Node5&#45;&gt;Node4</title>
<g id="a_edge4_Node000004_Node000005"><a xlink:title=" ">
<path fill="none" stroke="#63b8ff" d="M144.86,-71.94C153.35,-73.45 161.98,-74.98 170.4,-76.48"/>
<polygon fill="#63b8ff" stroke="#63b8ff" points="145.75,-68.54 135.29,-70.23 144.52,-75.43 145.75,-68.54"/>
</a>
</g>
</g>
<!-- Node8 -->
<g id="Node000008" class="node">
<title>Node8</title>
<g id="a_Node000008"><a xlink:href="interfacecom_1_1fs_1_1starfarer_1_1api_1_1loading_1_1WeaponSpecAPI.html" target="_top" xlink:title=" ">
<polygon fill="white" stroke="#666666" points="467.5,-75.5 333.75,-75.5 333.75,-45 467.5,-45 467.5,-75.5"/>
<text text-anchor="start" x="341.75" y="-62" font-family="Helvetica,sans-Serif" font-size="10.00">com.fs.starfarer.api.loading.</text>
<text text-anchor="middle" x="400.62" y="-50.75" font-family="Helvetica,sans-Serif" font-size="10.00">WeaponSpecAPI</text>
</a>
</g>
</g>
<!-- Node5&#45;&gt;Node8 -->
<g id="edge8_Node000008_Node000005" class="edge">
<title>Node5&#45;&gt;Node8</title>
<g id="a_edge8_Node000008_Node000005"><a xlink:title=" ">
<path fill="none" stroke="#63b8ff" d="M145.71,-58.72C202.73,-59.06 279.3,-59.52 333.4,-59.85"/>
<polygon fill="#63b8ff" stroke="#63b8ff" points="145.75,-55.22 135.73,-58.66 145.7,-62.22 145.75,-55.22"/>
</a>
</g>
</g>
<!-- Node6 -->
<g id="Node000006" class="node">
<title>Node6</title>
<g id="a_Node000006"><a xlink:href="interfacecom_1_1fs_1_1starfarer_1_1api_1_1campaign_1_1CargoStackAPI.html" target="_top" xlink:title=" ">
<polygon fill="white" stroke="#666666" points="315.75,-202.5 170.75,-202.5 170.75,-172 315.75,-172 315.75,-202.5"/>
<text text-anchor="start" x="178.75" y="-189" font-family="Helvetica,sans-Serif" font-size="10.00">com.fs.starfarer.api.campaign.</text>
<text text-anchor="middle" x="243.25" y="-177.75" font-family="Helvetica,sans-Serif" font-size="10.00">CargoStackAPI</text>
</a>
</g>
</g>
<!-- Node6&#45;&gt;Node2 -->
<g id="edge5_Node000002_Node000006" class="edge">
<title>Node6&#45;&gt;Node2</title>
<g id="a_edge5_Node000002_Node000006"><a xlink:title=" ">
<path fill="none" stroke="#9a32cd" stroke-dasharray="5,2" d="M327.17,-173.68C375,-165.85 435.33,-155.97 485.09,-147.83"/>
<polygon fill="#9a32cd" stroke="#9a32cd" points="326.72,-170.2 317.41,-175.27 327.85,-177.11 326.72,-170.2"/>
</a>
</g>
<text text-anchor="middle" x="400.62" y="-174.25" font-family="Helvetica,sans-Serif" font-size="10.00" fill="grey"> stack</text>
</g>
<!-- Node7 -->
<g id="Node000007" class="node">
<title>Node7</title>
<g id="a_Node000007"><a xlink:href="interfacecom_1_1fs_1_1starfarer_1_1api_1_1campaign_1_1impl_1_1items_1_1BlueprintProviderItem.html" target="_top" xlink:title=" ">
<polygon fill="white" stroke="#666666" points="677,-30.5 485.5,-30.5 485.5,0 677,0 677,-30.5"/>
<text text-anchor="start" x="493.5" y="-17" font-family="Helvetica,sans-Serif" font-size="10.00">com.fs.starfarer.api.campaign.impl.items.</text>
<text text-anchor="middle" x="581.25" y="-5.75" font-family="Helvetica,sans-Serif" font-size="10.00">BlueprintProviderItem</text>
</a>
</g>
</g>
<!-- Node7&#45;&gt;Node1 -->
<g id="edge6_Node000001_Node000007" class="edge">
<title>Node7&#45;&gt;Node1</title>
<g id="a_edge6_Node000001_Node000007"><a xlink:title=" ">
<path fill="none" stroke="#63b8ff" d="M663.28,-33.5C688.11,-39.09 715.19,-45.18 739.17,-50.58"/>
<polygon fill="#63b8ff" stroke="#63b8ff" points="664.06,-30.08 653.53,-31.3 662.52,-36.91 664.06,-30.08"/>
</a>
</g>
</g>
<!-- Node8&#45;&gt;Node1 -->
<g id="edge7_Node000001_Node000008" class="edge">
<title>Node8&#45;&gt;Node1</title>
<g id="a_edge7_Node000001_Node000008"><a xlink:title=" ">
<path fill="none" stroke="#9a32cd" stroke-dasharray="5,2" d="M479.2,-61.39C545.87,-62.38 642.25,-63.8 713.57,-64.85"/>
<polygon fill="#9a32cd" stroke="#9a32cd" points="479.51,-57.9 469.46,-61.25 479.4,-64.9 479.51,-57.9"/>
</a>
</g>
<text text-anchor="middle" x="581.25" y="-66.06" font-family="Helvetica,sans-Serif" font-size="10.00" fill="grey"> weapon</text>
</g>
</g>
</svg>
