<?xml version="1.0" encoding="UTF-8" standalone="no"?>
<!DOCTYPE svg PUBLIC "-//W3C//DTD SVG 1.1//EN"
 "http://www.w3.org/Graphics/SVG/1.1/DTD/svg11.dtd">
<!-- Generated by graphviz version 2.49.3 (20211027.1501)
 -->
<!-- Title: com.fs.starfarer.api.impl.campaign.intel.inspection.HegemonyInspectionManager Pages: 1 -->
<svg width="2661pt" height="566pt"
 viewBox="0.00 0.00 2661.00 566.06" xmlns="http://www.w3.org/2000/svg" xmlns:xlink="http://www.w3.org/1999/xlink">
<g id="graph0" class="graph" transform="scale(1 1) rotate(0) translate(4 562.06)">
<title>com.fs.starfarer.api.impl.campaign.intel.inspection.HegemonyInspectionManager</title>
<!-- Node1 -->
<g id="node1" class="node">
<title>Node1</title>
<g id="a_node1"><a xlink:title=" ">
<polygon fill="#bfbfbf" stroke="black" points="2420,-441.5 2420,-471.5 2653,-471.5 2653,-441.5 2420,-441.5"/>
<text text-anchor="start" x="2428" y="-459.5" font-family="Helvetica,sans-Serif" font-size="10.00">com.fs.starfarer.api.impl.campaign.intel.inspection.</text>
<text text-anchor="middle" x="2536.5" y="-448.5" font-family="Helvetica,sans-Serif" font-size="10.00">HegemonyInspectionManager</text>
</a>
</g>
</g>
<!-- Node2 -->
<g id="node2" class="node">
<title>Node2</title>
<g id="a_node2"><a xlink:href="interfacecom_1_1fs_1_1starfarer_1_1api_1_1EveryFrameScript.html" target="_top" xlink:title=" ">
<polygon fill="none" stroke="black" points="262.5,-481.5 262.5,-511.5 387.5,-511.5 387.5,-481.5 262.5,-481.5"/>
<text text-anchor="start" x="270.5" y="-499.5" font-family="Helvetica,sans-Serif" font-size="10.00">com.fs.starfarer.api.Every</text>
<text text-anchor="middle" x="325" y="-488.5" font-family="Helvetica,sans-Serif" font-size="10.00">FrameScript</text>
</a>
</g>
</g>
<!-- Node2&#45;&gt;Node1 -->
<g id="edge1" class="edge">
<title>Node2&#45;&gt;Node1</title>
<path fill="none" stroke="midnightblue" d="M398.01,-504.13C464.21,-510.49 565.1,-518.5 653,-518.5 653,-518.5 653,-518.5 2247.5,-518.5 2336.49,-518.5 2437.56,-489.86 2493.18,-471.51"/>
<polygon fill="midnightblue" stroke="midnightblue" points="397.99,-500.62 387.69,-503.13 397.31,-507.58 397.99,-500.62"/>
</g>
<!-- Node7 -->
<g id="node7" class="node">
<title>Node7</title>
<g id="a_node7"><a xlink:href="classcom_1_1fs_1_1starfarer_1_1api_1_1impl_1_1campaign_1_1intel_1_1BaseIntelPlugin.html" target="_top" xlink:title=" ">
<polygon fill="none" stroke="black" points="561,-197.5 561,-227.5 747,-227.5 747,-197.5 561,-197.5"/>
<text text-anchor="start" x="569" y="-215.5" font-family="Helvetica,sans-Serif" font-size="10.00">com.fs.starfarer.api.impl.campaign.intel.</text>
<text text-anchor="middle" x="654" y="-204.5" font-family="Helvetica,sans-Serif" font-size="10.00">BaseIntelPlugin</text>
</a>
</g>
</g>
<!-- Node2&#45;&gt;Node7 -->
<g id="edge9" class="edge">
<title>Node2&#45;&gt;Node7</title>
<path fill="none" stroke="midnightblue" d="M352.2,-474.91C395.08,-438.45 480.78,-360.68 534,-279.5 545.36,-262.17 536.21,-249.91 552,-236.5 555.98,-233.12 560.36,-230.19 564.99,-227.67"/>
<polygon fill="midnightblue" stroke="midnightblue" points="349.86,-472.32 344.47,-481.44 354.37,-477.67 349.86,-472.32"/>
</g>
<!-- Node3 -->
<g id="node3" class="node">
<title>Node3</title>
<g id="a_node3"><a xlink:href="classcom_1_1fs_1_1starfarer_1_1api_1_1util_1_1IntervalUtil.html" target="_top" xlink:title=" ">
<polygon fill="none" stroke="black" points="876,-0.5 876,-30.5 992,-30.5 992,-0.5 876,-0.5"/>
<text text-anchor="start" x="884" y="-18.5" font-family="Helvetica,sans-Serif" font-size="10.00">com.fs.starfarer.api.util.</text>
<text text-anchor="middle" x="934" y="-7.5" font-family="Helvetica,sans-Serif" font-size="10.00">IntervalUtil</text>
</a>
</g>
</g>
<!-- Node3&#45;&gt;Node1 -->
<g id="edge2" class="edge">
<title>Node3&#45;&gt;Node1</title>
<path fill="none" stroke="#9a32cd" stroke-dasharray="5,2" d="M1002.45,-12.67C1063.24,-10.37 1155.09,-7.5 1235,-7.5 1235,-7.5 1235,-7.5 2247.5,-7.5 2458.42,-7.5 2521.99,-362.87 2533.46,-441.3"/>
<polygon fill="#9a32cd" stroke="#9a32cd" points="1002.08,-9.19 992.22,-13.07 1002.35,-16.18 1002.08,-9.19"/>
<text text-anchor="middle" x="1730.5" y="-10.5" font-family="Helvetica,sans-Serif" font-size="10.00"> inspectionChecker</text>
</g>
<!-- Node20 -->
<g id="node20" class="node">
<title>Node20</title>
<g id="a_node20"><a xlink:href="classcom_1_1fs_1_1starfarer_1_1api_1_1impl_1_1campaign_1_1intel_1_1raid_1_1BaseRaidStage.html" target="_top" xlink:title=" ">
<polygon fill="none" stroke="black" points="1134,-133.5 1134,-163.5 1338,-163.5 1338,-133.5 1134,-133.5"/>
<text text-anchor="start" x="1142" y="-151.5" font-family="Helvetica,sans-Serif" font-size="10.00">com.fs.starfarer.api.impl.campaign.intel.raid.</text>
<text text-anchor="middle" x="1236" y="-140.5" font-family="Helvetica,sans-Serif" font-size="10.00">BaseRaidStage</text>
</a>
</g>
</g>
<!-- Node3&#45;&gt;Node20 -->
<g id="edge25" class="edge">
<title>Node3&#45;&gt;Node20</title>
<path fill="none" stroke="#9a32cd" stroke-dasharray="5,2" d="M978.36,-34.72C1038.53,-61.4 1146.12,-109.1 1200.91,-133.39"/>
<polygon fill="#9a32cd" stroke="#9a32cd" points="979.68,-31.48 969.12,-30.63 976.85,-37.88 979.68,-31.48"/>
<text text-anchor="middle" x="1085" y="-97.5" font-family="Helvetica,sans-Serif" font-size="10.00"> statusInterval</text>
</g>
<!-- Node4 -->
<g id="node4" class="node">
<title>Node4</title>
<g id="a_node4"><a xlink:title=" ">
<polygon fill="none" stroke="#bfbfbf" points="1893.5,-471 1893.5,-490 1946.5,-490 1946.5,-471 1893.5,-471"/>
<text text-anchor="middle" x="1920" y="-478" font-family="Helvetica,sans-Serif" font-size="10.00">Random</text>
</a>
</g>
</g>
<!-- Node4&#45;&gt;Node1 -->
<g id="edge3" class="edge">
<title>Node4&#45;&gt;Node1</title>
<path fill="none" stroke="#9a32cd" stroke-dasharray="5,2" d="M1956.68,-479.11C2045.19,-475.65 2277.88,-466.56 2419.82,-461.02"/>
<polygon fill="#9a32cd" stroke="#9a32cd" points="1956.48,-475.61 1946.62,-479.5 1956.75,-482.61 1956.48,-475.61"/>
<text text-anchor="middle" x="2246.5" y="-474.5" font-family="Helvetica,sans-Serif" font-size="10.00"> random</text>
</g>
<!-- Node5 -->
<g id="node5" class="node">
<title>Node5</title>
<g id="a_node5"><a xlink:href="classcom_1_1fs_1_1starfarer_1_1api_1_1impl_1_1campaign_1_1intel_1_1inspection_1_1HegemonyInspectionIntel.html" target="_top" xlink:title=" ">
<polygon fill="none" stroke="black" points="2130,-303.5 2130,-333.5 2363,-333.5 2363,-303.5 2130,-303.5"/>
<text text-anchor="start" x="2138" y="-321.5" font-family="Helvetica,sans-Serif" font-size="10.00">com.fs.starfarer.api.impl.campaign.intel.inspection.</text>
<text text-anchor="middle" x="2246.5" y="-310.5" font-family="Helvetica,sans-Serif" font-size="10.00">HegemonyInspectionIntel</text>
</a>
</g>
</g>
<!-- Node4&#45;&gt;Node5 -->
<g id="edge34" class="edge">
<title>Node4&#45;&gt;Node5</title>
<path fill="none" stroke="#9a32cd" stroke-dasharray="5,2" d="M1956.72,-475.68C1982.85,-471.71 2018.99,-465.3 2050,-456.5 2078.42,-448.43 2086.63,-447.64 2112,-432.5 2160.16,-403.76 2208.05,-357.44 2231.19,-333.66"/>
<polygon fill="#9a32cd" stroke="#9a32cd" points="1955.92,-472.26 1946.53,-477.18 1956.94,-479.18 1955.92,-472.26"/>
<text text-anchor="middle" x="2090" y="-453.5" font-family="Helvetica,sans-Serif" font-size="10.00"> random</text>
</g>
<!-- Node5&#45;&gt;Node1 -->
<g id="edge4" class="edge">
<title>Node5&#45;&gt;Node1</title>
<path fill="none" stroke="#9a32cd" stroke-dasharray="5,2" d="M2288.11,-337.96C2346.18,-365.79 2451.72,-416.35 2504.17,-441.49"/>
<polygon fill="#9a32cd" stroke="#9a32cd" points="2289.4,-334.7 2278.87,-333.53 2286.38,-341.01 2289.4,-334.7"/>
<text text-anchor="middle" x="2391.5" y="-394.5" font-family="Helvetica,sans-Serif" font-size="10.00"> intel</text>
</g>
<!-- Node6 -->
<g id="node6" class="node">
<title>Node6</title>
<g id="a_node6"><a xlink:href="classcom_1_1fs_1_1starfarer_1_1api_1_1impl_1_1campaign_1_1intel_1_1raid_1_1RaidIntel.html" target="_top" xlink:title=" ">
<polygon fill="none" stroke="black" points="832,-193.5 832,-223.5 1036,-223.5 1036,-193.5 832,-193.5"/>
<text text-anchor="start" x="840" y="-211.5" font-family="Helvetica,sans-Serif" font-size="10.00">com.fs.starfarer.api.impl.campaign.intel.raid.</text>
<text text-anchor="middle" x="934" y="-200.5" font-family="Helvetica,sans-Serif" font-size="10.00">RaidIntel</text>
</a>
</g>
</g>
<!-- Node6&#45;&gt;Node5 -->
<g id="edge5" class="edge">
<title>Node6&#45;&gt;Node5</title>
<path fill="none" stroke="midnightblue" d="M1046.07,-208.5C1102.63,-208.5 1172.48,-208.5 1235,-208.5 1235,-208.5 1235,-208.5 1921,-208.5 2006.56,-208.5 2031.59,-203.27 2112,-232.5 2157.6,-249.08 2203.6,-283.51 2227.9,-303.41"/>
<polygon fill="midnightblue" stroke="midnightblue" points="1046.03,-205 1036.03,-208.5 1046.03,-212 1046.03,-205"/>
</g>
<!-- Node6&#45;&gt;Node20 -->
<g id="edge24" class="edge">
<title>Node6&#45;&gt;Node20</title>
<path fill="none" stroke="#9a32cd" stroke-dasharray="5,2" d="M1015.89,-191.32C1028.64,-188.67 1041.67,-185.99 1054,-183.5 1087.26,-176.79 1124,-169.64 1155.65,-163.56"/>
<polygon fill="#9a32cd" stroke="#9a32cd" points="1014.83,-187.97 1005.75,-193.44 1016.26,-194.82 1014.83,-187.97"/>
<text text-anchor="middle" x="1085" y="-186.5" font-family="Helvetica,sans-Serif" font-size="10.00"> intel</text>
</g>
<!-- Node7&#45;&gt;Node6 -->
<g id="edge6" class="edge">
<title>Node7&#45;&gt;Node6</title>
<path fill="none" stroke="midnightblue" d="M757.39,-207.92C763.01,-207.76 768.57,-207.61 774,-207.5 792.63,-207.11 812.49,-206.99 831.63,-207.04"/>
<polygon fill="midnightblue" stroke="midnightblue" points="757.12,-204.43 747.24,-208.24 757.34,-211.43 757.12,-204.43"/>
</g>
<!-- Node8 -->
<g id="node8" class="node">
<title>Node8</title>
<g id="a_node8"><a xlink:href="interfacecom_1_1fs_1_1starfarer_1_1api_1_1campaign_1_1comm_1_1IntelInfoPlugin.html" target="_top" xlink:title=" ">
<polygon fill="none" stroke="black" points="237.5,-148.5 237.5,-178.5 412.5,-178.5 412.5,-148.5 237.5,-148.5"/>
<text text-anchor="start" x="245.5" y="-166.5" font-family="Helvetica,sans-Serif" font-size="10.00">com.fs.starfarer.api.campaign.comm.</text>
<text text-anchor="middle" x="325" y="-155.5" font-family="Helvetica,sans-Serif" font-size="10.00">IntelInfoPlugin</text>
</a>
</g>
</g>
<!-- Node8&#45;&gt;Node7 -->
<g id="edge7" class="edge">
<title>Node8&#45;&gt;Node7</title>
<path fill="none" stroke="midnightblue" d="M422.83,-178.01C466.51,-184.56 517.86,-192.25 560.95,-198.71"/>
<polygon fill="midnightblue" stroke="midnightblue" points="423.18,-174.52 412.77,-176.5 422.14,-181.45 423.18,-174.52"/>
</g>
<!-- Node9 -->
<g id="node9" class="node">
<title>Node9</title>
<g id="a_node9"><a xlink:title=" ">
<polygon fill="none" stroke="#bfbfbf" points="223.5,-295.5 223.5,-325.5 426.5,-325.5 426.5,-295.5 223.5,-295.5"/>
<text text-anchor="start" x="231.5" y="-313.5" font-family="Helvetica,sans-Serif" font-size="10.00">com.fs.starfarer.api.impl.campaign.rulecmd.</text>
<text text-anchor="middle" x="325" y="-302.5" font-family="Helvetica,sans-Serif" font-size="10.00">CallEvent.CallableEvent</text>
</a>
</g>
</g>
<!-- Node9&#45;&gt;Node7 -->
<g id="edge8" class="edge">
<title>Node9&#45;&gt;Node7</title>
<path fill="none" stroke="midnightblue" d="M419.44,-293.12C427.8,-291.08 436.08,-288.87 444,-286.5 485.28,-274.16 496.63,-271.94 534,-250.5 542.79,-245.46 542.86,-240.88 552,-236.5 559.15,-233.07 566.83,-230.11 574.64,-227.56"/>
<polygon fill="midnightblue" stroke="midnightblue" points="418.55,-289.73 409.63,-295.44 420.16,-296.55 418.55,-289.73"/>
</g>
<!-- Node10 -->
<g id="node10" class="node">
<title>Node10</title>
<g id="a_node10"><a xlink:title=" ">
<polygon fill="none" stroke="#bfbfbf" points="206,-246.5 206,-276.5 444,-276.5 444,-246.5 206,-246.5"/>
<text text-anchor="start" x="214" y="-264.5" font-family="Helvetica,sans-Serif" font-size="10.00">com.fs.starfarer.api.impl.campaign.</text>
<text text-anchor="middle" x="325" y="-253.5" font-family="Helvetica,sans-Serif" font-size="10.00">CommRelayEntityPlugin.CommSnifferReadableIntel</text>
</a>
</g>
</g>
<!-- Node10&#45;&gt;Node7 -->
<g id="edge10" class="edge">
<title>Node10&#45;&gt;Node7</title>
<path fill="none" stroke="midnightblue" d="M436.25,-244.98C476.77,-238.91 522.18,-232.1 560.93,-226.3"/>
<polygon fill="midnightblue" stroke="midnightblue" points="435.7,-241.52 426.33,-246.47 436.74,-248.44 435.7,-241.52"/>
</g>
<!-- Node11 -->
<g id="node11" class="node">
<title>Node11</title>
<g id="a_node11"><a xlink:href="interfacecom_1_1fs_1_1starfarer_1_1api_1_1campaign_1_1SectorEntityToken.html" target="_top" xlink:title=" ">
<polygon fill="none" stroke="black" points="252,-197.5 252,-227.5 398,-227.5 398,-197.5 252,-197.5"/>
<text text-anchor="start" x="260" y="-215.5" font-family="Helvetica,sans-Serif" font-size="10.00">com.fs.starfarer.api.campaign.</text>
<text text-anchor="middle" x="325" y="-204.5" font-family="Helvetica,sans-Serif" font-size="10.00">SectorEntityToken</text>
</a>
</g>
</g>
<!-- Node11&#45;&gt;Node7 -->
<g id="edge11" class="edge">
<title>Node11&#45;&gt;Node7</title>
<path fill="none" stroke="#9a32cd" stroke-dasharray="5,2" d="M408.19,-212.5C454.63,-212.5 512.8,-212.5 560.79,-212.5"/>
<polygon fill="#9a32cd" stroke="#9a32cd" points="408.17,-209 398.17,-212.5 408.17,-216 408.17,-209"/>
<text text-anchor="middle" x="498" y="-215.5" font-family="Helvetica,sans-Serif" font-size="10.00"> postingLocation</text>
</g>
<!-- Node12 -->
<g id="node12" class="node">
<title>Node12</title>
<g id="a_node12"><a xlink:href="interfacecom_1_1fs_1_1starfarer_1_1api_1_1campaign_1_1rules_1_1HasMemory.html" target="_top" xlink:title=" ">
<polygon fill="none" stroke="black" points="0,-197.5 0,-227.5 169,-227.5 169,-197.5 0,-197.5"/>
<text text-anchor="start" x="8" y="-215.5" font-family="Helvetica,sans-Serif" font-size="10.00">com.fs.starfarer.api.campaign.rules.</text>
<text text-anchor="middle" x="84.5" y="-204.5" font-family="Helvetica,sans-Serif" font-size="10.00">HasMemory</text>
</a>
</g>
</g>
<!-- Node12&#45;&gt;Node11 -->
<g id="edge12" class="edge">
<title>Node12&#45;&gt;Node11</title>
<path fill="none" stroke="midnightblue" d="M179.48,-212.5C203.58,-212.5 229.13,-212.5 251.94,-212.5"/>
<polygon fill="midnightblue" stroke="midnightblue" points="179.25,-209 169.25,-212.5 179.25,-216 179.25,-209"/>
</g>
<!-- Node16 -->
<g id="node16" class="node">
<title>Node16</title>
<g id="a_node16"><a xlink:href="interfacecom_1_1fs_1_1starfarer_1_1api_1_1campaign_1_1FactionAPI.html" target="_top" xlink:title=" ">
<polygon fill="none" stroke="black" points="581,-427.5 581,-457.5 727,-457.5 727,-427.5 581,-427.5"/>
<text text-anchor="start" x="589" y="-445.5" font-family="Helvetica,sans-Serif" font-size="10.00">com.fs.starfarer.api.campaign.</text>
<text text-anchor="middle" x="654" y="-434.5" font-family="Helvetica,sans-Serif" font-size="10.00">FactionAPI</text>
</a>
</g>
</g>
<!-- Node12&#45;&gt;Node16 -->
<g id="edge17" class="edge">
<title>Node12&#45;&gt;Node16</title>
<path fill="none" stroke="midnightblue" d="M86.43,-237.96C90.21,-299.37 109.33,-455.44 206,-521.5 343.45,-615.43 558.44,-500.54 629.4,-457.51"/>
<polygon fill="midnightblue" stroke="midnightblue" points="89.91,-237.44 85.89,-227.63 82.91,-237.8 89.91,-237.44"/>
</g>
<!-- Node24 -->
<g id="node24" class="node">
<title>Node24</title>
<g id="a_node24"><a xlink:href="interfacecom_1_1fs_1_1starfarer_1_1api_1_1campaign_1_1econ_1_1MarketAPI.html" target="_top" xlink:title=" ">
<polygon fill="none" stroke="black" points="1468,-51.5 1468,-81.5 1637,-81.5 1637,-51.5 1468,-51.5"/>
<text text-anchor="start" x="1476" y="-69.5" font-family="Helvetica,sans-Serif" font-size="10.00">com.fs.starfarer.api.campaign.econ.</text>
<text text-anchor="middle" x="1552.5" y="-58.5" font-family="Helvetica,sans-Serif" font-size="10.00">MarketAPI</text>
</a>
</g>
</g>
<!-- Node12&#45;&gt;Node24 -->
<g id="edge29" class="edge">
<title>Node12&#45;&gt;Node24</title>
<path fill="none" stroke="midnightblue" d="M101.54,-188.98C122.22,-160.63 160.92,-113.78 206,-89.5 253.04,-64.16 270.57,-66.5 324,-66.5 324,-66.5 324,-66.5 1237,-66.5 1315.22,-66.5 1404.37,-66.5 1467.74,-66.5"/>
<polygon fill="midnightblue" stroke="midnightblue" points="98.68,-186.97 95.72,-197.14 104.38,-191.04 98.68,-186.97"/>
</g>
<!-- Node13 -->
<g id="node13" class="node">
<title>Node13</title>
<g id="a_node13"><a xlink:title=" ">
<polygon fill="none" stroke="#bfbfbf" points="558.5,-148.5 558.5,-178.5 749.5,-178.5 749.5,-148.5 558.5,-148.5"/>
<text text-anchor="start" x="566.5" y="-166.5" font-family="Helvetica,sans-Serif" font-size="10.00">com.fs.starfarer.api.impl.campaign.fleets.</text>
<text text-anchor="middle" x="654" y="-155.5" font-family="Helvetica,sans-Serif" font-size="10.00">RouteManager.RouteFleetSpawner</text>
</a>
</g>
</g>
<!-- Node13&#45;&gt;Node6 -->
<g id="edge13" class="edge">
<title>Node13&#45;&gt;Node6</title>
<path fill="none" stroke="midnightblue" d="M758.15,-180.2C785.03,-184.55 813.82,-189.21 840.13,-193.47"/>
<polygon fill="midnightblue" stroke="midnightblue" points="758.39,-176.69 747.96,-178.55 757.27,-183.6 758.39,-176.69"/>
</g>
<!-- Node14 -->
<g id="node14" class="node">
<title>Node14</title>
<g id="a_node14"><a xlink:href="interfacecom_1_1fs_1_1starfarer_1_1api_1_1campaign_1_1StarSystemAPI.html" target="_top" xlink:title=" ">
<polygon fill="none" stroke="black" points="581,-99.5 581,-129.5 727,-129.5 727,-99.5 581,-99.5"/>
<text text-anchor="start" x="589" y="-117.5" font-family="Helvetica,sans-Serif" font-size="10.00">com.fs.starfarer.api.campaign.</text>
<text text-anchor="middle" x="654" y="-106.5" font-family="Helvetica,sans-Serif" font-size="10.00">StarSystemAPI</text>
</a>
</g>
</g>
<!-- Node14&#45;&gt;Node6 -->
<g id="edge14" class="edge">
<title>Node14&#45;&gt;Node6</title>
<path fill="none" stroke="#9a32cd" stroke-dasharray="5,2" d="M736.76,-132.11C743.33,-134.07 749.81,-136.2 756,-138.5 783.21,-148.6 789.82,-152.45 814,-168.5 822.68,-174.26 822.71,-178.8 832,-183.5 839.66,-187.38 847.95,-190.67 856.37,-193.48"/>
<polygon fill="#9a32cd" stroke="#9a32cd" points="737.68,-128.73 727.1,-129.35 735.75,-135.46 737.68,-128.73"/>
<text text-anchor="middle" x="794" y="-171.5" font-family="Helvetica,sans-Serif" font-size="10.00"> system</text>
</g>
<!-- Node15 -->
<g id="node15" class="node">
<title>Node15</title>
<g id="a_node15"><a xlink:href="interfacecom_1_1fs_1_1starfarer_1_1api_1_1campaign_1_1LocationAPI.html" target="_top" xlink:title=" ">
<polygon fill="none" stroke="black" points="252,-99.5 252,-129.5 398,-129.5 398,-99.5 252,-99.5"/>
<text text-anchor="start" x="260" y="-117.5" font-family="Helvetica,sans-Serif" font-size="10.00">com.fs.starfarer.api.campaign.</text>
<text text-anchor="middle" x="325" y="-106.5" font-family="Helvetica,sans-Serif" font-size="10.00">LocationAPI</text>
</a>
</g>
</g>
<!-- Node15&#45;&gt;Node14 -->
<g id="edge15" class="edge">
<title>Node15&#45;&gt;Node14</title>
<path fill="none" stroke="midnightblue" d="M408.23,-114.5C461.32,-114.5 529.74,-114.5 580.74,-114.5"/>
<polygon fill="midnightblue" stroke="midnightblue" points="408.17,-111 398.17,-114.5 408.17,-118 408.17,-111"/>
</g>
<!-- Node16&#45;&gt;Node5 -->
<g id="edge32" class="edge">
<title>Node16&#45;&gt;Node5</title>
<path fill="none" stroke="#9a32cd" stroke-dasharray="5,2" d="M737.1,-442.5C792.45,-442.5 867.12,-442.5 933,-442.5 933,-442.5 933,-442.5 1731.5,-442.5 1873.31,-442.5 1913.57,-462.17 2050,-423.5 2118.76,-404.01 2190.52,-357.63 2224.83,-333.57"/>
<polygon fill="#9a32cd" stroke="#9a32cd" points="737,-439 727,-442.5 737,-446 737,-439"/>
<text text-anchor="middle" x="1386" y="-445.5" font-family="Helvetica,sans-Serif" font-size="10.00"> targetFaction</text>
</g>
<!-- Node16&#45;&gt;Node6 -->
<g id="edge16" class="edge">
<title>Node16&#45;&gt;Node6</title>
<path fill="none" stroke="#9a32cd" stroke-dasharray="5,2" d="M680.92,-420.68C736.77,-373.67 867.27,-263.83 915.05,-223.61"/>
<polygon fill="#9a32cd" stroke="#9a32cd" points="678.64,-418.03 673.24,-427.15 683.14,-423.38 678.64,-418.03"/>
<text text-anchor="middle" x="794" y="-342.5" font-family="Helvetica,sans-Serif" font-size="10.00"> faction</text>
</g>
<!-- Node17 -->
<g id="node17" class="node">
<title>Node17</title>
<g id="a_node17"><a xlink:title=" ">
<polygon fill="none" stroke="#bfbfbf" points="552,-246.5 552,-276.5 756,-276.5 756,-246.5 552,-246.5"/>
<text text-anchor="start" x="560" y="-264.5" font-family="Helvetica,sans-Serif" font-size="10.00">com.fs.starfarer.api.impl.campaign.intel.raid.</text>
<text text-anchor="middle" x="654" y="-253.5" font-family="Helvetica,sans-Serif" font-size="10.00">RaidIntel.RaidDelegate</text>
</a>
</g>
</g>
<!-- Node17&#45;&gt;Node5 -->
<g id="edge19" class="edge">
<title>Node17&#45;&gt;Node5</title>
<path fill="none" stroke="midnightblue" d="M766.29,-252.01C1003.55,-233.93 1576.16,-201.72 2050,-265.5 2103.67,-272.72 2163.52,-290.44 2202.69,-303.4"/>
<polygon fill="midnightblue" stroke="midnightblue" points="765.98,-248.52 756.28,-252.78 766.51,-255.5 765.98,-248.52"/>
</g>
<!-- Node17&#45;&gt;Node6 -->
<g id="edge18" class="edge">
<title>Node17&#45;&gt;Node6</title>
<path fill="none" stroke="#9a32cd" stroke-dasharray="5,2" d="M734.15,-243.7C741.6,-241.49 748.99,-239.08 756,-236.5 764.39,-233.41 765.43,-230.07 774,-227.5 792.37,-221.99 812.39,-218.07 831.84,-215.28"/>
<polygon fill="#9a32cd" stroke="#9a32cd" points="733,-240.39 724.34,-246.49 734.92,-247.12 733,-240.39"/>
<text text-anchor="middle" x="794" y="-230.5" font-family="Helvetica,sans-Serif" font-size="10.00"> delegate</text>
</g>
<!-- Node18 -->
<g id="node18" class="node">
<title>Node18</title>
<g id="a_node18"><a xlink:href="classcom_1_1fs_1_1starfarer_1_1api_1_1impl_1_1campaign_1_1intel_1_1inspection_1_1HIActionStage.html" target="_top" xlink:title=" ">
<polygon fill="none" stroke="black" points="1803.5,-123.5 1803.5,-153.5 2036.5,-153.5 2036.5,-123.5 1803.5,-123.5"/>
<text text-anchor="start" x="1811.5" y="-141.5" font-family="Helvetica,sans-Serif" font-size="10.00">com.fs.starfarer.api.impl.campaign.intel.inspection.</text>
<text text-anchor="middle" x="1920" y="-130.5" font-family="Helvetica,sans-Serif" font-size="10.00">HIActionStage</text>
</a>
</g>
</g>
<!-- Node18&#45;&gt;Node5 -->
<g id="edge20" class="edge">
<title>Node18&#45;&gt;Node5</title>
<path fill="none" stroke="#9a32cd" stroke-dasharray="5,2" d="M2041.51,-156.09C2065.79,-162.57 2090.46,-171.42 2112,-183.5 2167.2,-214.46 2214.69,-274.92 2234.99,-303.21"/>
<polygon fill="#9a32cd" stroke="#9a32cd" points="2042.05,-152.62 2031.5,-153.55 2040.33,-159.4 2042.05,-152.62"/>
<text text-anchor="middle" x="2090" y="-186.5" font-family="Helvetica,sans-Serif" font-size="10.00"> action</text>
</g>
<!-- Node19 -->
<g id="node19" class="node">
<title>Node19</title>
<g id="a_node19"><a xlink:href="classcom_1_1fs_1_1starfarer_1_1api_1_1impl_1_1campaign_1_1intel_1_1raid_1_1ActionStage.html" target="_top" xlink:title=" ">
<polygon fill="none" stroke="black" points="1450.5,-149.5 1450.5,-179.5 1654.5,-179.5 1654.5,-149.5 1450.5,-149.5"/>
<text text-anchor="start" x="1458.5" y="-167.5" font-family="Helvetica,sans-Serif" font-size="10.00">com.fs.starfarer.api.impl.campaign.intel.raid.</text>
<text text-anchor="middle" x="1552.5" y="-156.5" font-family="Helvetica,sans-Serif" font-size="10.00">ActionStage</text>
</a>
</g>
</g>
<!-- Node19&#45;&gt;Node18 -->
<g id="edge21" class="edge">
<title>Node19&#45;&gt;Node18</title>
<path fill="none" stroke="midnightblue" d="M1664.94,-156.57C1708.76,-153.46 1759.06,-149.88 1803.28,-146.73"/>
<polygon fill="midnightblue" stroke="midnightblue" points="1664.55,-153.09 1654.83,-157.29 1665.05,-160.07 1664.55,-153.09"/>
</g>
<!-- Node20&#45;&gt;Node19 -->
<g id="edge22" class="edge">
<title>Node20&#45;&gt;Node19</title>
<path fill="none" stroke="midnightblue" d="M1348.45,-154.17C1381.69,-155.86 1417.92,-157.7 1450.45,-159.36"/>
<polygon fill="midnightblue" stroke="midnightblue" points="1348.41,-150.66 1338.24,-153.65 1348.05,-157.65 1348.41,-150.66"/>
</g>
<!-- Node21 -->
<g id="node21" class="node">
<title>Node21</title>
<g id="a_node21"><a xlink:title=" ">
<polygon fill="none" stroke="#bfbfbf" points="832,-95.5 832,-125.5 1036,-125.5 1036,-95.5 832,-95.5"/>
<text text-anchor="start" x="840" y="-113.5" font-family="Helvetica,sans-Serif" font-size="10.00">com.fs.starfarer.api.impl.campaign.intel.raid.</text>
<text text-anchor="middle" x="934" y="-102.5" font-family="Helvetica,sans-Serif" font-size="10.00">RaidIntel.RaidStage</text>
</a>
</g>
</g>
<!-- Node21&#45;&gt;Node20 -->
<g id="edge23" class="edge">
<title>Node21&#45;&gt;Node20</title>
<path fill="none" stroke="midnightblue" d="M1046.21,-124.59C1074.9,-128.22 1105.63,-132.11 1133.78,-135.68"/>
<polygon fill="midnightblue" stroke="midnightblue" points="1046.51,-121.1 1036.15,-123.31 1045.63,-128.04 1046.51,-121.1"/>
</g>
<!-- Node22 -->
<g id="node22" class="node">
<title>Node22</title>
<g id="a_node22"><a xlink:title=" ">
<polygon fill="none" stroke="#bfbfbf" points="832,-144.5 832,-174.5 1036,-174.5 1036,-144.5 832,-144.5"/>
<text text-anchor="start" x="840" y="-162.5" font-family="Helvetica,sans-Serif" font-size="10.00">com.fs.starfarer.api.impl.campaign.intel.raid.</text>
<text text-anchor="middle" x="934" y="-151.5" font-family="Helvetica,sans-Serif" font-size="10.00">RaidIntel.RaidStageStatus</text>
</a>
</g>
</g>
<!-- Node22&#45;&gt;Node20 -->
<g id="edge26" class="edge">
<title>Node22&#45;&gt;Node20</title>
<path fill="none" stroke="#9a32cd" stroke-dasharray="5,2" d="M1046.31,-149.88C1048.9,-149.74 1051.46,-149.61 1054,-149.5 1079.9,-148.34 1107.9,-147.83 1133.97,-147.66"/>
<polygon fill="#9a32cd" stroke="#9a32cd" points="1046.02,-146.39 1036.24,-150.45 1046.42,-153.37 1046.02,-146.39"/>
<text text-anchor="middle" x="1085" y="-152.5" font-family="Helvetica,sans-Serif" font-size="10.00"> status</text>
</g>
<!-- Node23 -->
<g id="node23" class="node">
<title>Node23</title>
<g id="a_node23"><a xlink:href="interfacecom_1_1fs_1_1starfarer_1_1api_1_1impl_1_1campaign_1_1procgen_1_1themes_1_1BaseAssignmentAI_1_1FleetActionDelegate.html" target="_top" xlink:title=" ">
<polygon fill="none" stroke="black" points="1434,-100.5 1434,-130.5 1671,-130.5 1671,-100.5 1434,-100.5"/>
<text text-anchor="start" x="1442" y="-118.5" font-family="Helvetica,sans-Serif" font-size="10.00">com.fs.starfarer.api.impl.campaign.procgen.themes.</text>
<text text-anchor="middle" x="1552.5" y="-107.5" font-family="Helvetica,sans-Serif" font-size="10.00">BaseAssignmentAI.FleetActionDelegate</text>
</a>
</g>
</g>
<!-- Node23&#45;&gt;Node18 -->
<g id="edge27" class="edge">
<title>Node23&#45;&gt;Node18</title>
<path fill="none" stroke="midnightblue" d="M1681.18,-123.53C1720.95,-126.04 1764.55,-128.78 1803.44,-131.23"/>
<polygon fill="midnightblue" stroke="midnightblue" points="1681.36,-120.04 1671.16,-122.9 1680.92,-127.03 1681.36,-120.04"/>
</g>
<!-- Node24&#45;&gt;Node5 -->
<g id="edge31" class="edge">
<title>Node24&#45;&gt;Node5</title>
<path fill="none" stroke="#9a32cd" stroke-dasharray="5,2" d="M1647.45,-50.63C1751.34,-37.62 1921.05,-30.08 2050,-91.5 2148.37,-138.36 2216.67,-260.55 2238.23,-303.39"/>
<polygon fill="#9a32cd" stroke="#9a32cd" points="1646.76,-47.19 1637.29,-51.95 1647.66,-54.13 1646.76,-47.19"/>
<text text-anchor="middle" x="1920" y="-105.5" font-family="Helvetica,sans-Serif" font-size="10.00"> from</text>
<text text-anchor="middle" x="1920" y="-94.5" font-family="Helvetica,sans-Serif" font-size="10.00">target</text>
</g>
<!-- Node24&#45;&gt;Node18 -->
<g id="edge28" class="edge">
<title>Node24&#45;&gt;Node18</title>
<path fill="none" stroke="#9a32cd" stroke-dasharray="5,2" d="M1639.87,-83.49C1680.05,-91.39 1728.46,-100.92 1772,-109.5 1794.97,-114.03 1819.96,-118.95 1842.71,-123.44"/>
<polygon fill="#9a32cd" stroke="#9a32cd" points="1640.33,-80.01 1629.85,-81.52 1638.98,-86.88 1640.33,-80.01"/>
<text text-anchor="middle" x="1730.5" y="-112.5" font-family="Helvetica,sans-Serif" font-size="10.00"> target</text>
</g>
<!-- Node25 -->
<g id="node25" class="node">
<title>Node25</title>
<g id="a_node25"><a xlink:title=" ">
<polygon fill="none" stroke="#bfbfbf" points="1803.5,-383.5 1803.5,-413.5 2036.5,-413.5 2036.5,-383.5 1803.5,-383.5"/>
<text text-anchor="start" x="1811.5" y="-401.5" font-family="Helvetica,sans-Serif" font-size="10.00">com.fs.starfarer.api.impl.campaign.intel.inspection.</text>
<text text-anchor="middle" x="1920" y="-390.5" font-family="Helvetica,sans-Serif" font-size="10.00">HegemonyInspectionIntel.AntiInspectionOrders</text>
</a>
</g>
</g>
<!-- Node25&#45;&gt;Node5 -->
<g id="edge30" class="edge">
<title>Node25&#45;&gt;Node5</title>
<path fill="none" stroke="#9a32cd" stroke-dasharray="5,2" d="M2017.92,-381.5C2028.77,-379.29 2039.64,-376.94 2050,-374.5 2100.86,-362.51 2158.25,-345.67 2197.63,-333.59"/>
<polygon fill="#9a32cd" stroke="#9a32cd" points="2017.09,-378.09 2007.97,-383.49 2018.47,-384.96 2017.09,-378.09"/>
<text text-anchor="middle" x="2090" y="-371.5" font-family="Helvetica,sans-Serif" font-size="10.00"> orders</text>
</g>
<!-- Node26 -->
<g id="node26" class="node">
<title>Node26</title>
<g id="a_node26"><a xlink:title=" ">
<polygon fill="none" stroke="#bfbfbf" points="1790,-334.5 1790,-364.5 2050,-364.5 2050,-334.5 1790,-334.5"/>
<text text-anchor="start" x="1798" y="-352.5" font-family="Helvetica,sans-Serif" font-size="10.00">com.fs.starfarer.api.impl.campaign.intel.inspection.</text>
<text text-anchor="middle" x="1920" y="-341.5" font-family="Helvetica,sans-Serif" font-size="10.00">HegemonyInspectionIntel.HegemonyInspectionOutcome</text>
</a>
</g>
</g>
<!-- Node26&#45;&gt;Node5 -->
<g id="edge33" class="edge">
<title>Node26&#45;&gt;Node5</title>
<path fill="none" stroke="#9a32cd" stroke-dasharray="5,2" d="M2060.42,-336.18C2083.59,-333.97 2107.4,-331.69 2129.89,-329.54"/>
<polygon fill="#9a32cd" stroke="#9a32cd" points="2059.81,-332.72 2050.18,-337.16 2060.47,-339.69 2059.81,-332.72"/>
<text text-anchor="middle" x="2090" y="-337.5" font-family="Helvetica,sans-Serif" font-size="10.00"> outcome</text>
</g>
<!-- Node27 -->
<g id="node27" class="node">
<title>Node27</title>
<g id="a_node27"><a xlink:title=" ">
<polygon fill="none" stroke="#bfbfbf" points="1815,-275 1815,-316 2025,-316 2025,-275 1815,-275"/>
<text text-anchor="start" x="1823" y="-304" font-family="Helvetica,sans-Serif" font-size="10.00">com.fs.starfarer.api.campaign.</text>
<text text-anchor="start" x="1823" y="-293" font-family="Helvetica,sans-Serif" font-size="10.00">ReputationActionResponsePlugin.Reputation</text>
<text text-anchor="middle" x="1920" y="-282" font-family="Helvetica,sans-Serif" font-size="10.00">AdjustmentResult</text>
</a>
</g>
</g>
<!-- Node27&#45;&gt;Node5 -->
<g id="edge35" class="edge">
<title>Node27&#45;&gt;Node5</title>
<path fill="none" stroke="#9a32cd" stroke-dasharray="5,2" d="M2035.32,-303.6C2066.01,-305.78 2099.22,-308.13 2129.98,-310.31"/>
<polygon fill="#9a32cd" stroke="#9a32cd" points="2035.24,-300.09 2025.01,-302.87 2034.74,-307.07 2035.24,-300.09"/>
<text text-anchor="middle" x="2090" y="-310.5" font-family="Helvetica,sans-Serif" font-size="10.00"> repResult</text>
</g>
</g>
</svg>
