<?xml version="1.0" encoding="UTF-8" standalone="no"?>
<!DOCTYPE svg PUBLIC "-//W3C//DTD SVG 1.1//EN"
 "http://www.w3.org/Graphics/SVG/1.1/DTD/svg11.dtd">
<!-- Generated by graphviz version 2.44.0 ()
 -->
<!-- Title: com.fs.starfarer.api.impl.campaign.intel.bar.events.ScientistAICoreIntel Pages: 1 -->
<svg width="1840pt" height="582pt"
 viewBox="0.00 0.00 1840.00 582.00" xmlns="http://www.w3.org/2000/svg" xmlns:xlink="http://www.w3.org/1999/xlink">
<g id="graph0" class="graph" transform="scale(1 1) rotate(0) translate(4 578)">
<title>com.fs.starfarer.api.impl.campaign.intel.bar.events.ScientistAICoreIntel</title>
<!-- Node1 -->
<g id="node1" class="node">
<title>Node1</title>
<g id="a_node1"><a xlink:title=" ">
<polygon fill="#bfbfbf" stroke="black" points="1599,-329.5 1599,-359.5 1832,-359.5 1832,-329.5 1599,-329.5"/>
<text text-anchor="start" x="1607" y="-347.5" font-family="Helvetica,sans-Serif" font-size="10.00">com.fs.starfarer.api.impl.campaign.intel.bar.events.</text>
<text text-anchor="middle" x="1715.5" y="-336.5" font-family="Helvetica,sans-Serif" font-size="10.00">ScientistAICoreIntel</text>
</a>
</g>
</g>
<!-- Node2 -->
<g id="node2" class="node">
<title>Node2</title>
<g id="a_node2"><a xlink:href="classcom_1_1fs_1_1starfarer_1_1api_1_1impl_1_1campaign_1_1intel_1_1BaseIntelPlugin.html" target="_top" xlink:title=" ">
<polygon fill="none" stroke="black" points="1291.5,-427.5 1291.5,-457.5 1477.5,-457.5 1477.5,-427.5 1291.5,-427.5"/>
<text text-anchor="start" x="1299.5" y="-445.5" font-family="Helvetica,sans-Serif" font-size="10.00">com.fs.starfarer.api.impl.campaign.intel.</text>
<text text-anchor="middle" x="1384.5" y="-434.5" font-family="Helvetica,sans-Serif" font-size="10.00">BaseIntelPlugin</text>
</a>
</g>
</g>
<!-- Node2&#45;&gt;Node1 -->
<g id="edge1" class="edge">
<title>Node2&#45;&gt;Node1</title>
<path fill="none" stroke="midnightblue" d="M1445.93,-424.5C1508.56,-405.84 1605.35,-377.01 1664.03,-359.53"/>
<polygon fill="midnightblue" stroke="midnightblue" points="1444.77,-421.19 1436.19,-427.4 1446.77,-427.9 1444.77,-421.19"/>
</g>
<!-- Node3 -->
<g id="node3" class="node">
<title>Node3</title>
<g id="a_node3"><a xlink:href="interfacecom_1_1fs_1_1starfarer_1_1api_1_1campaign_1_1comm_1_1IntelInfoPlugin.html" target="_top" xlink:title=" ">
<polygon fill="none" stroke="black" points="953.5,-445.5 953.5,-475.5 1128.5,-475.5 1128.5,-445.5 953.5,-445.5"/>
<text text-anchor="start" x="961.5" y="-463.5" font-family="Helvetica,sans-Serif" font-size="10.00">com.fs.starfarer.api.campaign.comm.</text>
<text text-anchor="middle" x="1041" y="-452.5" font-family="Helvetica,sans-Serif" font-size="10.00">IntelInfoPlugin</text>
</a>
</g>
</g>
<!-- Node3&#45;&gt;Node2 -->
<g id="edge2" class="edge">
<title>Node3&#45;&gt;Node2</title>
<path fill="none" stroke="midnightblue" d="M1138.68,-455.4C1186.55,-452.88 1244.05,-449.85 1291.29,-447.36"/>
<polygon fill="midnightblue" stroke="midnightblue" points="1138.42,-451.91 1128.62,-455.93 1138.79,-458.9 1138.42,-451.91"/>
</g>
<!-- Node4 -->
<g id="node4" class="node">
<title>Node4</title>
<g id="a_node4"><a xlink:title=" ">
<polygon fill="none" stroke="#bfbfbf" points="939.5,-396.5 939.5,-426.5 1142.5,-426.5 1142.5,-396.5 939.5,-396.5"/>
<text text-anchor="start" x="947.5" y="-414.5" font-family="Helvetica,sans-Serif" font-size="10.00">com.fs.starfarer.api.impl.campaign.rulecmd.</text>
<text text-anchor="middle" x="1041" y="-403.5" font-family="Helvetica,sans-Serif" font-size="10.00">CallEvent.CallableEvent</text>
</a>
</g>
</g>
<!-- Node4&#45;&gt;Node2 -->
<g id="edge3" class="edge">
<title>Node4&#45;&gt;Node2</title>
<path fill="none" stroke="midnightblue" d="M1152.68,-421.55C1197.53,-425.62 1248.71,-430.26 1291.47,-434.15"/>
<polygon fill="midnightblue" stroke="midnightblue" points="1152.89,-418.05 1142.61,-420.63 1152.26,-425.02 1152.89,-418.05"/>
</g>
<!-- Node5 -->
<g id="node5" class="node">
<title>Node5</title>
<g id="a_node5"><a xlink:href="interfacecom_1_1fs_1_1starfarer_1_1api_1_1EveryFrameScript.html" target="_top" xlink:title=" ">
<polygon fill="none" stroke="black" points="978.5,-543.5 978.5,-573.5 1103.5,-573.5 1103.5,-543.5 978.5,-543.5"/>
<text text-anchor="start" x="986.5" y="-561.5" font-family="Helvetica,sans-Serif" font-size="10.00">com.fs.starfarer.api.Every</text>
<text text-anchor="middle" x="1041" y="-550.5" font-family="Helvetica,sans-Serif" font-size="10.00">FrameScript</text>
</a>
</g>
</g>
<!-- Node5&#45;&gt;Node2 -->
<g id="edge4" class="edge">
<title>Node5&#45;&gt;Node2</title>
<path fill="none" stroke="midnightblue" d="M1113.77,-545.43C1129.15,-542.03 1145.22,-538.04 1160,-533.5 1230.09,-511.99 1308.8,-477.37 1351.58,-457.61"/>
<polygon fill="midnightblue" stroke="midnightblue" points="1112.82,-542.05 1103.77,-547.57 1114.29,-548.9 1112.82,-542.05"/>
</g>
<!-- Node6 -->
<g id="node6" class="node">
<title>Node6</title>
<g id="a_node6"><a xlink:title=" ">
<polygon fill="none" stroke="#bfbfbf" points="922,-494.5 922,-524.5 1160,-524.5 1160,-494.5 922,-494.5"/>
<text text-anchor="start" x="930" y="-512.5" font-family="Helvetica,sans-Serif" font-size="10.00">com.fs.starfarer.api.impl.campaign.</text>
<text text-anchor="middle" x="1041" y="-501.5" font-family="Helvetica,sans-Serif" font-size="10.00">CommRelayEntityPlugin.CommSnifferReadableIntel</text>
</a>
</g>
</g>
<!-- Node6&#45;&gt;Node2 -->
<g id="edge5" class="edge">
<title>Node6&#45;&gt;Node2</title>
<path fill="none" stroke="midnightblue" d="M1128.7,-492.49C1183.61,-481.72 1253.96,-467.92 1306.82,-457.54"/>
<polygon fill="midnightblue" stroke="midnightblue" points="1127.78,-489.1 1118.64,-494.46 1129.13,-495.97 1127.78,-489.1"/>
</g>
<!-- Node7 -->
<g id="node7" class="node">
<title>Node7</title>
<g id="a_node7"><a xlink:href="interfacecom_1_1fs_1_1starfarer_1_1api_1_1campaign_1_1SectorEntityToken.html" target="_top" xlink:title=" ">
<polygon fill="none" stroke="black" points="968,-347.5 968,-377.5 1114,-377.5 1114,-347.5 968,-347.5"/>
<text text-anchor="start" x="976" y="-365.5" font-family="Helvetica,sans-Serif" font-size="10.00">com.fs.starfarer.api.campaign.</text>
<text text-anchor="middle" x="1041" y="-354.5" font-family="Helvetica,sans-Serif" font-size="10.00">SectorEntityToken</text>
</a>
</g>
</g>
<!-- Node7&#45;&gt;Node1 -->
<g id="edge22" class="edge">
<title>Node7&#45;&gt;Node1</title>
<path fill="none" stroke="#9a32cd" stroke-dasharray="5,2" d="M1124.43,-360.29C1243.39,-357.11 1463.75,-351.21 1598.91,-347.59"/>
<polygon fill="#9a32cd" stroke="#9a32cd" points="1124.19,-356.8 1114.29,-360.57 1124.38,-363.8 1124.19,-356.8"/>
<text text-anchor="middle" x="1384.5" y="-359.5" font-family="Helvetica,sans-Serif" font-size="10.00"> cache</text>
</g>
<!-- Node7&#45;&gt;Node2 -->
<g id="edge6" class="edge">
<title>Node7&#45;&gt;Node2</title>
<path fill="none" stroke="#9a32cd" stroke-dasharray="5,2" d="M1124.22,-378.73C1136.24,-381.25 1148.45,-383.88 1160,-386.5 1216.76,-399.38 1281.2,-415.71 1326.25,-427.4"/>
<polygon fill="#9a32cd" stroke="#9a32cd" points="1124.69,-375.25 1114.19,-376.65 1123.27,-382.11 1124.69,-375.25"/>
<text text-anchor="middle" x="1214" y="-410.5" font-family="Helvetica,sans-Serif" font-size="10.00"> postingLocation</text>
</g>
<!-- Node8 -->
<g id="node8" class="node">
<title>Node8</title>
<g id="a_node8"><a xlink:href="interfacecom_1_1fs_1_1starfarer_1_1api_1_1campaign_1_1rules_1_1HasMemory.html" target="_top" xlink:title=" ">
<polygon fill="none" stroke="black" points="0,-290.5 0,-320.5 169,-320.5 169,-290.5 0,-290.5"/>
<text text-anchor="start" x="8" y="-308.5" font-family="Helvetica,sans-Serif" font-size="10.00">com.fs.starfarer.api.campaign.rules.</text>
<text text-anchor="middle" x="84.5" y="-297.5" font-family="Helvetica,sans-Serif" font-size="10.00">HasMemory</text>
</a>
</g>
</g>
<!-- Node8&#45;&gt;Node7 -->
<g id="edge7" class="edge">
<title>Node8&#45;&gt;Node7</title>
<path fill="none" stroke="midnightblue" d="M179.26,-318.55C181.86,-318.88 184.45,-319.19 187,-319.5 378.18,-342.44 425.7,-353.71 618,-363.5 721.42,-368.77 747.44,-363.77 851,-363.5 889.56,-363.4 932.53,-363.18 967.75,-362.97"/>
<polygon fill="midnightblue" stroke="midnightblue" points="179.47,-315.05 169.11,-317.27 178.59,-322 179.47,-315.05"/>
</g>
<!-- Node16 -->
<g id="node16" class="node">
<title>Node16</title>
<g id="a_node16"><a xlink:href="interfacecom_1_1fs_1_1starfarer_1_1api_1_1campaign_1_1econ_1_1MarketAPI.html" target="_top" xlink:title=" ">
<polygon fill="none" stroke="black" points="235,-245.5 235,-275.5 404,-275.5 404,-245.5 235,-245.5"/>
<text text-anchor="start" x="243" y="-263.5" font-family="Helvetica,sans-Serif" font-size="10.00">com.fs.starfarer.api.campaign.econ.</text>
<text text-anchor="middle" x="319.5" y="-252.5" font-family="Helvetica,sans-Serif" font-size="10.00">MarketAPI</text>
</a>
</g>
</g>
<!-- Node8&#45;&gt;Node16 -->
<g id="edge16" class="edge">
<title>Node8&#45;&gt;Node16</title>
<path fill="none" stroke="midnightblue" d="M173.45,-288.51C195.54,-284.25 219.1,-279.7 240.66,-275.53"/>
<polygon fill="midnightblue" stroke="midnightblue" points="172.56,-285.12 163.41,-290.45 173.89,-291.99 172.56,-285.12"/>
</g>
<!-- Node19 -->
<g id="node19" class="node">
<title>Node19</title>
<g id="a_node19"><a xlink:href="interfacecom_1_1fs_1_1starfarer_1_1api_1_1characters_1_1PersonAPI.html" target="_top" xlink:title=" ">
<polygon fill="none" stroke="black" points="451,-290.5 451,-320.5 600,-320.5 600,-290.5 451,-290.5"/>
<text text-anchor="start" x="459" y="-308.5" font-family="Helvetica,sans-Serif" font-size="10.00">com.fs.starfarer.api.characters.</text>
<text text-anchor="middle" x="525.5" y="-297.5" font-family="Helvetica,sans-Serif" font-size="10.00">PersonAPI</text>
</a>
</g>
</g>
<!-- Node8&#45;&gt;Node19 -->
<g id="edge21" class="edge">
<title>Node8&#45;&gt;Node19</title>
<path fill="none" stroke="midnightblue" d="M179.32,-305.5C260.42,-305.5 376.05,-305.5 450.69,-305.5"/>
<polygon fill="midnightblue" stroke="midnightblue" points="179.11,-302 169.11,-305.5 179.11,-309 179.11,-302"/>
</g>
<!-- Node9 -->
<g id="node9" class="node">
<title>Node9</title>
<g id="a_node9"><a xlink:href="classcom_1_1fs_1_1starfarer_1_1api_1_1impl_1_1campaign_1_1intel_1_1bar_1_1events_1_1ScientistAICoreBarEvent.html" target="_top" xlink:title=" ">
<polygon fill="none" stroke="black" points="1268,-290.5 1268,-320.5 1501,-320.5 1501,-290.5 1268,-290.5"/>
<text text-anchor="start" x="1276" y="-308.5" font-family="Helvetica,sans-Serif" font-size="10.00">com.fs.starfarer.api.impl.campaign.intel.bar.events.</text>
<text text-anchor="middle" x="1384.5" y="-297.5" font-family="Helvetica,sans-Serif" font-size="10.00">ScientistAICoreBarEvent</text>
</a>
</g>
</g>
<!-- Node9&#45;&gt;Node1 -->
<g id="edge8" class="edge">
<title>Node9&#45;&gt;Node1</title>
<path fill="none" stroke="#9a32cd" stroke-dasharray="5,2" d="M1511.16,-320.4C1540.02,-323.82 1570.57,-327.44 1598.97,-330.8"/>
<polygon fill="#9a32cd" stroke="#9a32cd" points="1511.37,-316.9 1501.03,-319.2 1510.55,-323.85 1511.37,-316.9"/>
<text text-anchor="middle" x="1550" y="-331.5" font-family="Helvetica,sans-Serif" font-size="10.00"> event</text>
</g>
<!-- Node10 -->
<g id="node10" class="node">
<title>Node10</title>
<g id="a_node10"><a xlink:href="classcom_1_1fs_1_1starfarer_1_1api_1_1impl_1_1campaign_1_1intel_1_1bar_1_1events_1_1BaseGetCommodityBarEvent.html" target="_top" xlink:title=" ">
<polygon fill="none" stroke="black" points="924.5,-290.5 924.5,-320.5 1157.5,-320.5 1157.5,-290.5 924.5,-290.5"/>
<text text-anchor="start" x="932.5" y="-308.5" font-family="Helvetica,sans-Serif" font-size="10.00">com.fs.starfarer.api.impl.campaign.intel.bar.events.</text>
<text text-anchor="middle" x="1041" y="-297.5" font-family="Helvetica,sans-Serif" font-size="10.00">BaseGetCommodityBarEvent</text>
</a>
</g>
</g>
<!-- Node10&#45;&gt;Node9 -->
<g id="edge9" class="edge">
<title>Node10&#45;&gt;Node9</title>
<path fill="none" stroke="midnightblue" d="M1167.69,-305.5C1200.42,-305.5 1235.52,-305.5 1267.71,-305.5"/>
<polygon fill="midnightblue" stroke="midnightblue" points="1167.62,-302 1157.62,-305.5 1167.62,-309 1167.62,-302"/>
</g>
<!-- Node11 -->
<g id="node11" class="node">
<title>Node11</title>
<g id="a_node11"><a xlink:href="classcom_1_1fs_1_1starfarer_1_1api_1_1impl_1_1campaign_1_1intel_1_1bar_1_1events_1_1BaseBarEvent.html" target="_top" xlink:title=" ">
<polygon fill="none" stroke="black" points="618,-147.5 618,-177.5 851,-177.5 851,-147.5 618,-147.5"/>
<text text-anchor="start" x="626" y="-165.5" font-family="Helvetica,sans-Serif" font-size="10.00">com.fs.starfarer.api.impl.campaign.intel.bar.events.</text>
<text text-anchor="middle" x="734.5" y="-154.5" font-family="Helvetica,sans-Serif" font-size="10.00">BaseBarEvent</text>
</a>
</g>
</g>
<!-- Node11&#45;&gt;Node10 -->
<g id="edge10" class="edge">
<title>Node11&#45;&gt;Node10</title>
<path fill="none" stroke="midnightblue" d="M796.46,-181.12C831.39,-194.28 874.09,-214.91 904,-244.5 916.72,-257.08 907.85,-269.56 922,-280.5 926.97,-284.34 932.4,-287.63 938.1,-290.43"/>
<polygon fill="midnightblue" stroke="midnightblue" points="797.42,-177.75 786.83,-177.61 795.02,-184.32 797.42,-177.75"/>
</g>
<!-- Node12 -->
<g id="node12" class="node">
<title>Node12</title>
<g id="a_node12"><a xlink:href="interfacecom_1_1fs_1_1starfarer_1_1api_1_1impl_1_1campaign_1_1intel_1_1bar_1_1PortsideBarEvent.html" target="_top" xlink:title=" ">
<polygon fill="none" stroke="black" points="218.5,-49.5 218.5,-79.5 420.5,-79.5 420.5,-49.5 218.5,-49.5"/>
<text text-anchor="start" x="226.5" y="-67.5" font-family="Helvetica,sans-Serif" font-size="10.00">com.fs.starfarer.api.impl.campaign.intel.bar.</text>
<text text-anchor="middle" x="319.5" y="-56.5" font-family="Helvetica,sans-Serif" font-size="10.00">PortsideBarEvent</text>
</a>
</g>
</g>
<!-- Node12&#45;&gt;Node11 -->
<g id="edge11" class="edge">
<title>Node12&#45;&gt;Node11</title>
<path fill="none" stroke="midnightblue" d="M401.12,-81.62C411.85,-83.92 422.69,-86.26 433,-88.5 507.29,-104.65 526.23,-107.12 600,-125.5 627.07,-132.25 657.02,-140.47 681.68,-147.46"/>
<polygon fill="midnightblue" stroke="midnightblue" points="401.84,-78.19 391.33,-79.52 400.38,-85.04 401.84,-78.19"/>
</g>
<!-- Node13 -->
<g id="node13" class="node">
<title>Node13</title>
<g id="a_node13"><a xlink:title=" ">
<polygon fill="none" stroke="#bfbfbf" points="206,-0.5 206,-30.5 433,-30.5 433,-0.5 206,-0.5"/>
<text text-anchor="start" x="214" y="-18.5" font-family="Helvetica,sans-Serif" font-size="10.00">Map&lt; String, com.fs.starfarer.api.campaign.rules.</text>
<text text-anchor="middle" x="319.5" y="-7.5" font-family="Helvetica,sans-Serif" font-size="10.00">MemoryAPI &gt;</text>
</a>
</g>
</g>
<!-- Node13&#45;&gt;Node11 -->
<g id="edge12" class="edge">
<title>Node13&#45;&gt;Node11</title>
<path fill="none" stroke="#9a32cd" stroke-dasharray="5,2" d="M437.15,-32.43C488.38,-42.22 548.47,-56.98 600,-78.5 643.72,-96.75 689.31,-128.7 714.29,-147.49"/>
<polygon fill="#9a32cd" stroke="#9a32cd" points="437.5,-28.94 427.03,-30.54 436.22,-35.82 437.5,-28.94"/>
<text text-anchor="middle" x="525.5" y="-81.5" font-family="Helvetica,sans-Serif" font-size="10.00"> memoryMap</text>
</g>
<!-- Node14 -->
<g id="node14" class="node">
<title>Node14</title>
<g id="a_node14"><a xlink:href="interfacecom_1_1fs_1_1starfarer_1_1api_1_1campaign_1_1OptionPanelAPI.html" target="_top" xlink:title=" ">
<polygon fill="none" stroke="black" points="246.5,-196.5 246.5,-226.5 392.5,-226.5 392.5,-196.5 246.5,-196.5"/>
<text text-anchor="start" x="254.5" y="-214.5" font-family="Helvetica,sans-Serif" font-size="10.00">com.fs.starfarer.api.campaign.</text>
<text text-anchor="middle" x="319.5" y="-203.5" font-family="Helvetica,sans-Serif" font-size="10.00">OptionPanelAPI</text>
</a>
</g>
</g>
<!-- Node14&#45;&gt;Node11 -->
<g id="edge13" class="edge">
<title>Node14&#45;&gt;Node11</title>
<path fill="none" stroke="#9a32cd" stroke-dasharray="5,2" d="M402.97,-201.72C464.53,-194.41 549.46,-184.33 617.82,-176.23"/>
<polygon fill="#9a32cd" stroke="#9a32cd" points="402.43,-198.25 392.91,-202.91 403.25,-205.21 402.43,-198.25"/>
<text text-anchor="middle" x="525.5" y="-199.5" font-family="Helvetica,sans-Serif" font-size="10.00"> options</text>
</g>
<!-- Node15 -->
<g id="node15" class="node">
<title>Node15</title>
<g id="a_node15"><a xlink:href="interfacecom_1_1fs_1_1starfarer_1_1api_1_1campaign_1_1TextPanelAPI.html" target="_top" xlink:title=" ">
<polygon fill="none" stroke="black" points="246.5,-147.5 246.5,-177.5 392.5,-177.5 392.5,-147.5 246.5,-147.5"/>
<text text-anchor="start" x="254.5" y="-165.5" font-family="Helvetica,sans-Serif" font-size="10.00">com.fs.starfarer.api.campaign.</text>
<text text-anchor="middle" x="319.5" y="-154.5" font-family="Helvetica,sans-Serif" font-size="10.00">TextPanelAPI</text>
</a>
</g>
</g>
<!-- Node15&#45;&gt;Node11 -->
<g id="edge14" class="edge">
<title>Node15&#45;&gt;Node11</title>
<path fill="none" stroke="#9a32cd" stroke-dasharray="5,2" d="M402.97,-162.5C464.53,-162.5 549.46,-162.5 617.82,-162.5"/>
<polygon fill="#9a32cd" stroke="#9a32cd" points="402.91,-159 392.91,-162.5 402.91,-166 402.91,-159"/>
<text text-anchor="middle" x="525.5" y="-165.5" font-family="Helvetica,sans-Serif" font-size="10.00"> text</text>
</g>
<!-- Node16&#45;&gt;Node10 -->
<g id="edge18" class="edge">
<title>Node16&#45;&gt;Node10</title>
<path fill="none" stroke="#9a32cd" stroke-dasharray="5,2" d="M414.18,-265.15C520.22,-270.57 698.09,-280.11 851,-290.5 874.73,-292.11 900.12,-294.01 924.34,-295.9"/>
<polygon fill="#9a32cd" stroke="#9a32cd" points="414.31,-261.66 404.15,-264.64 413.96,-268.65 414.31,-261.66"/>
<text text-anchor="middle" x="734.5" y="-293.5" font-family="Helvetica,sans-Serif" font-size="10.00"> market</text>
</g>
<!-- Node16&#45;&gt;Node11 -->
<g id="edge15" class="edge">
<title>Node16&#45;&gt;Node11</title>
<path fill="none" stroke="#9a32cd" stroke-dasharray="5,2" d="M399.64,-243.45C416.56,-240 434.35,-236.51 451,-233.5 516.94,-221.6 535.06,-227.02 600,-210.5 633.77,-201.91 671,-188.15 697.54,-177.56"/>
<polygon fill="#9a32cd" stroke="#9a32cd" points="398.88,-240.04 389.79,-245.48 400.29,-246.89 398.88,-240.04"/>
<text text-anchor="middle" x="525.5" y="-236.5" font-family="Helvetica,sans-Serif" font-size="10.00"> shownAt</text>
</g>
<!-- Node17 -->
<g id="node17" class="node">
<title>Node17</title>
<g id="a_node17"><a xlink:href="interfacecom_1_1fs_1_1starfarer_1_1api_1_1campaign_1_1InteractionDialogAPI.html" target="_top" xlink:title=" ">
<polygon fill="none" stroke="black" points="246.5,-98.5 246.5,-128.5 392.5,-128.5 392.5,-98.5 246.5,-98.5"/>
<text text-anchor="start" x="254.5" y="-116.5" font-family="Helvetica,sans-Serif" font-size="10.00">com.fs.starfarer.api.campaign.</text>
<text text-anchor="middle" x="319.5" y="-105.5" font-family="Helvetica,sans-Serif" font-size="10.00">InteractionDialogAPI</text>
</a>
</g>
</g>
<!-- Node17&#45;&gt;Node11 -->
<g id="edge17" class="edge">
<title>Node17&#45;&gt;Node11</title>
<path fill="none" stroke="#9a32cd" stroke-dasharray="5,2" d="M402.97,-123.28C464.53,-130.59 549.46,-140.67 617.82,-148.77"/>
<polygon fill="#9a32cd" stroke="#9a32cd" points="403.25,-119.79 392.91,-122.09 402.43,-126.75 403.25,-119.79"/>
<text text-anchor="middle" x="525.5" y="-150.5" font-family="Helvetica,sans-Serif" font-size="10.00"> dialog</text>
</g>
<!-- Node18 -->
<g id="node18" class="node">
<title>Node18</title>
<g id="a_node18"><a xlink:title=" ">
<polygon fill="none" stroke="#bfbfbf" points="708,-335 708,-354 761,-354 761,-335 708,-335"/>
<text text-anchor="middle" x="734.5" y="-342" font-family="Helvetica,sans-Serif" font-size="10.00">Random</text>
</a>
</g>
</g>
<!-- Node18&#45;&gt;Node10 -->
<g id="edge19" class="edge">
<title>Node18&#45;&gt;Node10</title>
<path fill="none" stroke="#9a32cd" stroke-dasharray="5,2" d="M771.13,-339.94C808.66,-335.13 869.75,-327.31 924.22,-320.33"/>
<polygon fill="#9a32cd" stroke="#9a32cd" points="770.67,-336.47 761.2,-341.21 771.56,-343.41 770.67,-336.47"/>
<text text-anchor="middle" x="886.5" y="-330.5" font-family="Helvetica,sans-Serif" font-size="10.00"> random</text>
</g>
<!-- Node19&#45;&gt;Node10 -->
<g id="edge20" class="edge">
<title>Node19&#45;&gt;Node10</title>
<path fill="none" stroke="#9a32cd" stroke-dasharray="5,2" d="M610.25,-305.5C695.69,-305.5 828.92,-305.5 924.38,-305.5"/>
<polygon fill="#9a32cd" stroke="#9a32cd" points="610.07,-302 600.07,-305.5 610.07,-309 610.07,-302"/>
<text text-anchor="middle" x="734.5" y="-308.5" font-family="Helvetica,sans-Serif" font-size="10.00"> person</text>
</g>
<!-- Node20 -->
<g id="node20" class="node">
<title>Node20</title>
<g id="a_node20"><a xlink:href="interfacecom_1_1fs_1_1starfarer_1_1api_1_1campaign_1_1StarSystemAPI.html" target="_top" xlink:title=" ">
<polygon fill="none" stroke="black" points="1311.5,-241.5 1311.5,-271.5 1457.5,-271.5 1457.5,-241.5 1311.5,-241.5"/>
<text text-anchor="start" x="1319.5" y="-259.5" font-family="Helvetica,sans-Serif" font-size="10.00">com.fs.starfarer.api.campaign.</text>
<text text-anchor="middle" x="1384.5" y="-248.5" font-family="Helvetica,sans-Serif" font-size="10.00">StarSystemAPI</text>
</a>
</g>
</g>
<!-- Node20&#45;&gt;Node1 -->
<g id="edge23" class="edge">
<title>Node20&#45;&gt;Node1</title>
<path fill="none" stroke="#9a32cd" stroke-dasharray="5,2" d="M1467.64,-272.66C1478.88,-275.13 1490.25,-277.78 1501,-280.5 1559.33,-295.27 1625.57,-315.71 1668.59,-329.48"/>
<polygon fill="#9a32cd" stroke="#9a32cd" points="1468.32,-269.22 1457.81,-270.52 1466.84,-276.06 1468.32,-269.22"/>
<text text-anchor="middle" x="1550" y="-305.5" font-family="Helvetica,sans-Serif" font-size="10.00"> cacheSystem</text>
</g>
<!-- Node21 -->
<g id="node21" class="node">
<title>Node21</title>
<g id="a_node21"><a xlink:href="interfacecom_1_1fs_1_1starfarer_1_1api_1_1campaign_1_1LocationAPI.html" target="_top" xlink:title=" ">
<polygon fill="none" stroke="black" points="968,-241.5 968,-271.5 1114,-271.5 1114,-241.5 968,-241.5"/>
<text text-anchor="start" x="976" y="-259.5" font-family="Helvetica,sans-Serif" font-size="10.00">com.fs.starfarer.api.campaign.</text>
<text text-anchor="middle" x="1041" y="-248.5" font-family="Helvetica,sans-Serif" font-size="10.00">LocationAPI</text>
</a>
</g>
</g>
<!-- Node21&#45;&gt;Node20 -->
<g id="edge24" class="edge">
<title>Node21&#45;&gt;Node20</title>
<path fill="none" stroke="midnightblue" d="M1124.08,-256.5C1181.15,-256.5 1256.51,-256.5 1311.3,-256.5"/>
<polygon fill="midnightblue" stroke="midnightblue" points="1124.01,-253 1114.01,-256.5 1124.01,-260 1124.01,-253"/>
</g>
</g>
</svg>
