<?xml version="1.0" encoding="UTF-8" standalone="no"?>
<!DOCTYPE svg PUBLIC "-//W3C//DTD SVG 1.1//EN"
 "http://www.w3.org/Graphics/SVG/1.1/DTD/svg11.dtd">
<!-- Generated by graphviz version 12.2.0 (20241103.1931)
 -->
<!-- Title: com.fs.starfarer.api.impl.campaign.intel.events.DisposableHostileActivityFleetManager Pages: 1 -->
<svg width="1295pt" height="381pt"
 viewBox="0.00 0.00 1294.75 380.50" xmlns="http://www.w3.org/2000/svg" xmlns:xlink="http://www.w3.org/1999/xlink">
<g id="graph0" class="graph" transform="scale(1 1) rotate(0) translate(4 376.5)">
<title>com.fs.starfarer.api.impl.campaign.intel.events.DisposableHostileActivityFleetManager</title>
<!-- Node1 -->
<g id="Node000001" class="node">
<title>Node1</title>
<g id="a_Node000001"><a xlink:title=" ">
<polygon fill="#999999" stroke="#666666" points="1286.75,-78.5 1069.75,-78.5 1069.75,-48 1286.75,-48 1286.75,-78.5"/>
<text text-anchor="start" x="1077.75" y="-65" font-family="Helvetica,sans-Serif" font-size="10.00">com.fs.starfarer.api.impl.campaign.intel.events.</text>
<text text-anchor="middle" x="1178.25" y="-53.75" font-family="Helvetica,sans-Serif" font-size="10.00">DisposableHostileActivityFleetManager</text>
</a>
</g>
</g>
<!-- Node2 -->
<g id="Node000002" class="node">
<title>Node2</title>
<g id="a_Node000002"><a xlink:href="classcom_1_1fs_1_1starfarer_1_1api_1_1impl_1_1campaign_1_1fleets_1_1DisposableFleetManager.html" target="_top" xlink:title=" ">
<polygon fill="white" stroke="#666666" points="999.25,-108.5 808.5,-108.5 808.5,-78 999.25,-78 999.25,-108.5"/>
<text text-anchor="start" x="816.5" y="-95" font-family="Helvetica,sans-Serif" font-size="10.00">com.fs.starfarer.api.impl.campaign.fleets.</text>
<text text-anchor="middle" x="903.88" y="-83.75" font-family="Helvetica,sans-Serif" font-size="10.00">DisposableFleetManager</text>
</a>
</g>
</g>
<!-- Node2&#45;&gt;Node1 -->
<g id="edge1_Node000001_Node000002" class="edge">
<title>Node2&#45;&gt;Node1</title>
<g id="a_edge1_Node000001_Node000002"><a xlink:title=" ">
<path fill="none" stroke="#63b8ff" d="M1010.62,-81.6C1029.9,-79.48 1050.04,-77.26 1069.38,-75.13"/>
<polygon fill="#63b8ff" stroke="#63b8ff" points="1010.44,-78.1 1000.88,-82.68 1011.2,-85.06 1010.44,-78.1"/>
</a>
</g>
</g>
<!-- Node3 -->
<g id="Node000003" class="node">
<title>Node3</title>
<g id="a_Node000003"><a xlink:href="classcom_1_1fs_1_1starfarer_1_1api_1_1impl_1_1campaign_1_1fleets_1_1PlayerVisibleFleetManager.html" target="_top" xlink:title=" ">
<polygon fill="white" stroke="#666666" points="707.25,-179.5 516.5,-179.5 516.5,-149 707.25,-149 707.25,-179.5"/>
<text text-anchor="start" x="524.5" y="-166" font-family="Helvetica,sans-Serif" font-size="10.00">com.fs.starfarer.api.impl.campaign.fleets.</text>
<text text-anchor="middle" x="611.88" y="-154.75" font-family="Helvetica,sans-Serif" font-size="10.00">PlayerVisibleFleetManager</text>
</a>
</g>
</g>
<!-- Node3&#45;&gt;Node2 -->
<g id="edge2_Node000002_Node000003" class="edge">
<title>Node3&#45;&gt;Node2</title>
<g id="a_edge2_Node000002_Node000003"><a xlink:title=" ">
<path fill="none" stroke="#63b8ff" d="M718.69,-147.98C742.47,-143.55 767.47,-138.28 790.5,-132.25 814.77,-125.89 841.32,-116.79 862.51,-108.97"/>
<polygon fill="#63b8ff" stroke="#63b8ff" points="718.2,-144.51 708.99,-149.75 719.45,-151.4 718.2,-144.51"/>
</a>
</g>
</g>
<!-- Node4 -->
<g id="Node000004" class="node">
<title>Node4</title>
<g id="a_Node000004"><a xlink:href="classcom_1_1fs_1_1starfarer_1_1api_1_1impl_1_1campaign_1_1fleets_1_1BaseLimitedFleetManager.html" target="_top" xlink:title=" ">
<polygon fill="white" stroke="#666666" points="443,-263.5 252.25,-263.5 252.25,-233 443,-233 443,-263.5"/>
<text text-anchor="start" x="260.25" y="-250" font-family="Helvetica,sans-Serif" font-size="10.00">com.fs.starfarer.api.impl.campaign.fleets.</text>
<text text-anchor="middle" x="347.62" y="-238.75" font-family="Helvetica,sans-Serif" font-size="10.00">BaseLimitedFleetManager</text>
</a>
</g>
</g>
<!-- Node4&#45;&gt;Node3 -->
<g id="edge3_Node000003_Node000004" class="edge">
<title>Node4&#45;&gt;Node3</title>
<g id="a_edge3_Node000003_Node000004"><a xlink:title=" ">
<path fill="none" stroke="#63b8ff" d="M408.48,-229.08C454.98,-214.18 518.66,-193.79 562.1,-179.87"/>
<polygon fill="#63b8ff" stroke="#63b8ff" points="407.54,-225.7 399.09,-232.09 409.68,-232.37 407.54,-225.7"/>
</a>
</g>
</g>
<!-- Node5 -->
<g id="Node000005" class="node">
<title>Node5</title>
<g id="a_Node000005"><a xlink:href="interfacecom_1_1fs_1_1starfarer_1_1api_1_1EveryFrameScript.html" target="_top" xlink:title=" ">
<polygon fill="white" stroke="#666666" points="154.38,-372.5 29.63,-372.5 29.63,-342 154.38,-342 154.38,-372.5"/>
<text text-anchor="start" x="37.62" y="-359" font-family="Helvetica,sans-Serif" font-size="10.00">com.fs.starfarer.api.Every</text>
<text text-anchor="middle" x="92" y="-347.75" font-family="Helvetica,sans-Serif" font-size="10.00">FrameScript</text>
</a>
</g>
</g>
<!-- Node5&#45;&gt;Node4 -->
<g id="edge4_Node000004_Node000005" class="edge">
<title>Node5&#45;&gt;Node4</title>
<g id="a_edge4_Node000004_Node000005"><a xlink:title=" ">
<path fill="none" stroke="#63b8ff" d="M165.44,-338.84C171.77,-336.78 178.04,-334.58 184,-332.25 234.02,-312.71 288.87,-282.36 320.38,-263.99"/>
<polygon fill="#63b8ff" stroke="#63b8ff" points="164.71,-335.4 156.2,-341.71 166.79,-342.08 164.71,-335.4"/>
</a>
</g>
</g>
<!-- Node6 -->
<g id="Node000006" class="node">
<title>Node6</title>
<g id="a_Node000006"><a xlink:href="interfacecom_1_1fs_1_1starfarer_1_1api_1_1campaign_1_1listeners_1_1FleetEventListener.html" target="_top" xlink:title=" ">
<polygon fill="white" stroke="#666666" points="184,-323.5 0,-323.5 0,-293 184,-293 184,-323.5"/>
<text text-anchor="start" x="8" y="-310" font-family="Helvetica,sans-Serif" font-size="10.00">com.fs.starfarer.api.campaign.listeners.</text>
<text text-anchor="middle" x="92" y="-298.75" font-family="Helvetica,sans-Serif" font-size="10.00">FleetEventListener</text>
</a>
</g>
</g>
<!-- Node6&#45;&gt;Node4 -->
<g id="edge5_Node000004_Node000006" class="edge">
<title>Node6&#45;&gt;Node4</title>
<g id="a_edge5_Node000004_Node000006"><a xlink:title=" ">
<path fill="none" stroke="#63b8ff" d="M170.47,-289.92C205.56,-281.62 246.62,-271.91 280.27,-263.95"/>
<polygon fill="#63b8ff" stroke="#63b8ff" points="169.7,-286.51 160.78,-292.22 171.32,-293.32 169.7,-286.51"/>
</a>
</g>
</g>
<!-- Node7 -->
<g id="Node000007" class="node">
<title>Node7</title>
<g id="a_Node000007"><a xlink:title=" ">
<polygon fill="white" stroke="#666666" points="115,-274.88 69,-274.88 69,-255.62 115,-255.62 115,-274.88"/>
<text text-anchor="middle" x="92" y="-261.38" font-family="Helvetica,sans-Serif" font-size="10.00">Logger</text>
</a>
</g>
</g>
<!-- Node7&#45;&gt;Node4 -->
<g id="edge6_Node000004_Node000007" class="edge">
<title>Node7&#45;&gt;Node4</title>
<g id="a_edge6_Node000004_Node000007"><a xlink:title=" ">
<path fill="none" stroke="#9a32cd" stroke-dasharray="5,2" d="M126.37,-263.01C158.26,-260.88 207.86,-257.55 251.92,-254.6"/>
<polygon fill="#9a32cd" stroke="#9a32cd" points="126.32,-259.51 116.57,-263.67 126.79,-266.49 126.32,-259.51"/>
</a>
</g>
<text text-anchor="middle" x="218.12" y="-259.52" font-family="Helvetica,sans-Serif" font-size="10.00" fill="grey"> log</text>
</g>
<!-- Node8 -->
<g id="Node000008" class="node">
<title>Node8</title>
<g id="a_Node000008"><a xlink:title=" ">
<polygon fill="white" stroke="#666666" points="157.38,-237.88 26.62,-237.88 26.62,-218.62 157.38,-218.62 157.38,-237.88"/>
<text text-anchor="middle" x="92" y="-224.38" font-family="Helvetica,sans-Serif" font-size="10.00">List&lt; ManagedFleetData &gt;</text>
</a>
</g>
</g>
<!-- Node8&#45;&gt;Node4 -->
<g id="edge7_Node000004_Node000008" class="edge">
<title>Node8&#45;&gt;Node4</title>
<g id="a_edge7_Node000004_Node000008"><a xlink:title=" ">
<path fill="none" stroke="#9a32cd" stroke-dasharray="5,2" d="M168.99,-234.24C195.05,-236.3 224.55,-238.62 251.92,-240.78"/>
<polygon fill="#9a32cd" stroke="#9a32cd" points="169.41,-230.76 159.17,-233.47 168.86,-237.74 169.41,-230.76"/>
</a>
</g>
<text text-anchor="middle" x="218.12" y="-240.6" font-family="Helvetica,sans-Serif" font-size="10.00" fill="grey"> active</text>
</g>
<!-- Node9 -->
<g id="Node000009" class="node">
<title>Node9</title>
<g id="a_Node000009"><a xlink:href="classcom_1_1fs_1_1starfarer_1_1api_1_1util_1_1IntervalUtil.html" target="_top" xlink:title=" ">
<polygon fill="white" stroke="#666666" points="149.88,-179.5 34.12,-179.5 34.12,-149 149.88,-149 149.88,-179.5"/>
<text text-anchor="start" x="42.12" y="-166" font-family="Helvetica,sans-Serif" font-size="10.00">com.fs.starfarer.api.util.</text>
<text text-anchor="middle" x="92" y="-154.75" font-family="Helvetica,sans-Serif" font-size="10.00">IntervalUtil</text>
</a>
</g>
</g>
<!-- Node9&#45;&gt;Node2 -->
<g id="edge10_Node000002_Node000009" class="edge">
<title>Node9&#45;&gt;Node2</title>
<g id="a_edge10_Node000002_Node000009"><a xlink:title=" ">
<path fill="none" stroke="#9a32cd" stroke-dasharray="5,2" d="M161.6,-158.24C306.34,-145.55 643.2,-116.02 808.27,-101.54"/>
<polygon fill="#9a32cd" stroke="#9a32cd" points="161.44,-154.74 151.78,-159.1 162.05,-161.71 161.44,-154.74"/>
</a>
</g>
<text text-anchor="middle" x="479.75" y="-132.96" font-family="Helvetica,sans-Serif" font-size="10.00" fill="grey"> tracker2</text>
</g>
<!-- Node9&#45;&gt;Node3 -->
<g id="edge9_Node000003_Node000009" class="edge">
<title>Node9&#45;&gt;Node3</title>
<g id="a_edge9_Node000003_Node000009"><a xlink:title=" ">
<path fill="none" stroke="#9a32cd" stroke-dasharray="5,2" d="M161.17,-164.25C252.1,-164.25 413.52,-164.25 516.21,-164.25"/>
<polygon fill="#9a32cd" stroke="#9a32cd" points="161.42,-160.75 151.42,-164.25 161.42,-167.75 161.42,-160.75"/>
</a>
</g>
<text text-anchor="middle" x="347.62" y="-166" font-family="Helvetica,sans-Serif" font-size="10.00" fill="grey"> despawnTracker</text>
</g>
<!-- Node9&#45;&gt;Node4 -->
<g id="edge8_Node000004_Node000009" class="edge">
<title>Node9&#45;&gt;Node4</title>
<g id="a_edge8_Node000004_Node000009"><a xlink:title=" ">
<path fill="none" stroke="#9a32cd" stroke-dasharray="5,2" d="M151.17,-183.52C196.12,-198.4 257.53,-218.74 299.45,-232.63"/>
<polygon fill="#9a32cd" stroke="#9a32cd" points="152.44,-180.25 141.84,-180.43 150.24,-186.89 152.44,-180.25"/>
</a>
</g>
<text text-anchor="middle" x="218.12" y="-210.52" font-family="Helvetica,sans-Serif" font-size="10.00" fill="grey"> tracker</text>
</g>
<!-- Node10 -->
<g id="Node000010" class="node">
<title>Node10</title>
<g id="a_Node000010"><a xlink:title=" ">
<polygon fill="white" stroke="#666666" points="684,-90.12 539.75,-90.12 539.75,-48.38 684,-48.38 684,-90.12"/>
<text text-anchor="start" x="547.75" y="-76.62" font-family="Helvetica,sans-Serif" font-size="10.00">LinkedHashMap&lt; String,</text>
<text text-anchor="start" x="547.75" y="-65.38" font-family="Helvetica,sans-Serif" font-size="10.00"> com.fs.starfarer.api.util.</text>
<text text-anchor="middle" x="611.88" y="-54.12" font-family="Helvetica,sans-Serif" font-size="10.00">TimeoutTracker&lt; Boolean &gt; &gt;</text>
</a>
</g>
</g>
<!-- Node10&#45;&gt;Node2 -->
<g id="edge11_Node000002_Node000010" class="edge">
<title>Node10&#45;&gt;Node2</title>
<g id="a_edge11_Node000002_Node000010"><a xlink:title=" ">
<path fill="none" stroke="#9a32cd" stroke-dasharray="5,2" d="M695.39,-76.08C730.57,-78.99 771.83,-82.41 808.25,-85.42"/>
<polygon fill="#9a32cd" stroke="#9a32cd" points="695.95,-72.61 685.7,-75.28 695.37,-79.59 695.95,-72.61"/>
</a>
</g>
<text text-anchor="middle" x="757.88" y="-85.15" font-family="Helvetica,sans-Serif" font-size="10.00" fill="grey"> recentSpawns</text>
</g>
<!-- Node11 -->
<g id="Node000011" class="node">
<title>Node11</title>
<g id="a_Node000011"><a xlink:href="interfacecom_1_1fs_1_1starfarer_1_1api_1_1campaign_1_1StarSystemAPI.html" target="_top" xlink:title=" ">
<polygon fill="white" stroke="#666666" points="684.38,-30.5 539.38,-30.5 539.38,0 684.38,0 684.38,-30.5"/>
<text text-anchor="start" x="547.38" y="-17" font-family="Helvetica,sans-Serif" font-size="10.00">com.fs.starfarer.api.campaign.</text>
<text text-anchor="middle" x="611.88" y="-5.75" font-family="Helvetica,sans-Serif" font-size="10.00">StarSystemAPI</text>
</a>
</g>
</g>
<!-- Node11&#45;&gt;Node2 -->
<g id="edge12_Node000002_Node000011" class="edge">
<title>Node11&#45;&gt;Node2</title>
<g id="a_edge12_Node000002_Node000011"><a xlink:title=" ">
<path fill="none" stroke="#9a32cd" stroke-dasharray="5,2" d="M686.95,-33.79C693.82,-35.6 700.67,-37.44 707.25,-39.25 718.56,-42.36 797.19,-66.14 808.5,-69.25 818.52,-72.01 829.18,-74.83 839.58,-77.52"/>
<polygon fill="#9a32cd" stroke="#9a32cd" points="688.19,-30.5 677.63,-31.36 686.42,-37.28 688.19,-30.5"/>
</a>
</g>
<text text-anchor="middle" x="757.88" y="-65.11" font-family="Helvetica,sans-Serif" font-size="10.00" fill="grey"> currSpawnLoc</text>
</g>
<!-- Node12 -->
<g id="Node000012" class="node">
<title>Node12</title>
<g id="a_Node000012"><a xlink:href="interfacecom_1_1fs_1_1starfarer_1_1api_1_1campaign_1_1LocationAPI.html" target="_top" xlink:title=" ">
<polygon fill="white" stroke="#666666" points="420.12,-30.5 275.12,-30.5 275.12,0 420.12,0 420.12,-30.5"/>
<text text-anchor="start" x="283.12" y="-17" font-family="Helvetica,sans-Serif" font-size="10.00">com.fs.starfarer.api.campaign.</text>
<text text-anchor="middle" x="347.62" y="-5.75" font-family="Helvetica,sans-Serif" font-size="10.00">LocationAPI</text>
</a>
</g>
</g>
<!-- Node12&#45;&gt;Node11 -->
<g id="edge13_Node000011_Node000012" class="edge">
<title>Node12&#45;&gt;Node11</title>
<g id="a_edge13_Node000011_Node000012"><a xlink:title=" ">
<path fill="none" stroke="#63b8ff" d="M431.79,-15.25C466.35,-15.25 506.07,-15.25 539.3,-15.25"/>
<polygon fill="#63b8ff" stroke="#63b8ff" points="431.8,-11.75 421.8,-15.25 431.8,-18.75 431.8,-11.75"/>
</a>
</g>
</g>
<!-- Node13 -->
<g id="Node000013" class="node">
<title>Node13</title>
<g id="a_Node000013"><a xlink:title=" ">
<polygon fill="white" stroke="#666666" points="929.88,-59.88 877.88,-59.88 877.88,-40.62 929.88,-40.62 929.88,-59.88"/>
<text text-anchor="middle" x="903.88" y="-46.38" font-family="Helvetica,sans-Serif" font-size="10.00">Random</text>
</a>
</g>
</g>
<!-- Node13&#45;&gt;Node1 -->
<g id="edge14_Node000001_Node000013" class="edge">
<title>Node13&#45;&gt;Node1</title>
<g id="a_edge14_Node000001_Node000013"><a xlink:title=" ">
<path fill="none" stroke="#9a32cd" stroke-dasharray="5,2" d="M941.28,-51.99C974.07,-53.55 1023.97,-55.93 1069.45,-58.11"/>
<polygon fill="#9a32cd" stroke="#9a32cd" points="941.68,-48.5 931.52,-51.52 941.34,-55.49 941.68,-48.5"/>
</a>
</g>
<text text-anchor="middle" x="1034.5" y="-58.89" font-family="Helvetica,sans-Serif" font-size="10.00" fill="grey"> random</text>
</g>
</g>
</svg>
