<?xml version="1.0" encoding="UTF-8" standalone="no"?>
<!DOCTYPE svg PUBLIC "-//W3C//DTD SVG 1.1//EN"
 "http://www.w3.org/Graphics/SVG/1.1/DTD/svg11.dtd">
<!-- Generated by graphviz version 12.2.0 (20241103.1931)
 -->
<!-- Title: com.fs.starfarer.api.impl.campaign.tutorial.TutorialGoSlowDialogPluginImpl Pages: 1 -->
<svg width="823pt" height="296pt"
 viewBox="0.00 0.00 822.50 295.50" xmlns="http://www.w3.org/2000/svg" xmlns:xlink="http://www.w3.org/1999/xlink">
<g id="graph0" class="graph" transform="scale(1 1) rotate(0) translate(4 291.5)">
<title>com.fs.starfarer.api.impl.campaign.tutorial.TutorialGoSlowDialogPluginImpl</title>
<!-- Node1 -->
<g id="Node000001" class="node">
<title>Node1</title>
<g id="a_Node000001"><a xlink:title=" ">
<polygon fill="#999999" stroke="#666666" points="814.5,-164.5 617.75,-164.5 617.75,-134 814.5,-134 814.5,-164.5"/>
<text text-anchor="start" x="625.75" y="-151" font-family="Helvetica,sans-Serif" font-size="10.00">com.fs.starfarer.api.impl.campaign.tutorial.</text>
<text text-anchor="middle" x="716.12" y="-139.75" font-family="Helvetica,sans-Serif" font-size="10.00">TutorialGoSlowDialogPluginImpl</text>
</a>
</g>
</g>
<!-- Node2 -->
<g id="Node000002" class="node">
<title>Node2</title>
<g id="a_Node000002"><a xlink:href="interfacecom_1_1fs_1_1starfarer_1_1api_1_1campaign_1_1InteractionDialogPlugin.html" target="_top" xlink:title=" ">
<polygon fill="white" stroke="#666666" points="532.25,-287.5 387.25,-287.5 387.25,-257 532.25,-257 532.25,-287.5"/>
<text text-anchor="start" x="395.25" y="-274" font-family="Helvetica,sans-Serif" font-size="10.00">com.fs.starfarer.api.campaign.</text>
<text text-anchor="middle" x="459.75" y="-262.75" font-family="Helvetica,sans-Serif" font-size="10.00">InteractionDialogPlugin</text>
</a>
</g>
</g>
<!-- Node2&#45;&gt;Node1 -->
<g id="edge1_Node000001_Node000002" class="edge">
<title>Node2&#45;&gt;Node1</title>
<g id="a_edge1_Node000001_Node000002"><a xlink:title=" ">
<path fill="none" stroke="#63b8ff" d="M519.21,-252.58C523.65,-250.85 528.04,-249.07 532.25,-247.25 590.13,-222.28 654.33,-185.65 689.17,-164.97"/>
<polygon fill="#63b8ff" stroke="#63b8ff" points="518.34,-249.17 510.22,-255.97 520.81,-255.72 518.34,-249.17"/>
</a>
</g>
</g>
<!-- Node3 -->
<g id="Node000003" class="node">
<title>Node3</title>
<g id="a_Node000003"><a xlink:href="interfacecom_1_1fs_1_1starfarer_1_1api_1_1campaign_1_1InteractionDialogAPI.html" target="_top" xlink:title=" ">
<polygon fill="white" stroke="#666666" points="532.25,-238.5 387.25,-238.5 387.25,-208 532.25,-208 532.25,-238.5"/>
<text text-anchor="start" x="395.25" y="-225" font-family="Helvetica,sans-Serif" font-size="10.00">com.fs.starfarer.api.campaign.</text>
<text text-anchor="middle" x="459.75" y="-213.75" font-family="Helvetica,sans-Serif" font-size="10.00">InteractionDialogAPI</text>
</a>
</g>
</g>
<!-- Node3&#45;&gt;Node1 -->
<g id="edge2_Node000001_Node000003" class="edge">
<title>Node3&#45;&gt;Node1</title>
<g id="a_edge2_Node000001_Node000003"><a xlink:title=" ">
<path fill="none" stroke="#9a32cd" stroke-dasharray="5,2" d="M525.65,-204.37C567.63,-192.16 621.65,-176.44 661.26,-164.92"/>
<polygon fill="#9a32cd" stroke="#9a32cd" points="524.77,-200.98 516.15,-207.13 526.73,-207.7 524.77,-200.98"/>
</a>
</g>
<text text-anchor="middle" x="575" y="-198.95" font-family="Helvetica,sans-Serif" font-size="10.00" fill="grey"> dialog</text>
</g>
<!-- Node4 -->
<g id="Node000004" class="node">
<title>Node4</title>
<g id="a_Node000004"><a xlink:href="interfacecom_1_1fs_1_1starfarer_1_1api_1_1campaign_1_1TextPanelAPI.html" target="_top" xlink:title=" ">
<polygon fill="white" stroke="#666666" points="532.25,-189.5 387.25,-189.5 387.25,-159 532.25,-159 532.25,-189.5"/>
<text text-anchor="start" x="395.25" y="-176" font-family="Helvetica,sans-Serif" font-size="10.00">com.fs.starfarer.api.campaign.</text>
<text text-anchor="middle" x="459.75" y="-164.75" font-family="Helvetica,sans-Serif" font-size="10.00">TextPanelAPI</text>
</a>
</g>
</g>
<!-- Node4&#45;&gt;Node1 -->
<g id="edge3_Node000001_Node000004" class="edge">
<title>Node4&#45;&gt;Node1</title>
<g id="a_edge3_Node000001_Node000004"><a xlink:title=" ">
<path fill="none" stroke="#9a32cd" stroke-dasharray="5,2" d="M543.93,-166.07C567.38,-163.77 593.1,-161.24 617.32,-158.86"/>
<polygon fill="#9a32cd" stroke="#9a32cd" points="543.74,-162.58 534.13,-167.04 544.42,-169.54 543.74,-162.58"/>
</a>
</g>
<text text-anchor="middle" x="575" y="-167.2" font-family="Helvetica,sans-Serif" font-size="10.00" fill="grey"> textPanel</text>
</g>
<!-- Node5 -->
<g id="Node000005" class="node">
<title>Node5</title>
<g id="a_Node000005"><a xlink:href="interfacecom_1_1fs_1_1starfarer_1_1api_1_1campaign_1_1OptionPanelAPI.html" target="_top" xlink:title=" ">
<polygon fill="white" stroke="#666666" points="532.25,-140.5 387.25,-140.5 387.25,-110 532.25,-110 532.25,-140.5"/>
<text text-anchor="start" x="395.25" y="-127" font-family="Helvetica,sans-Serif" font-size="10.00">com.fs.starfarer.api.campaign.</text>
<text text-anchor="middle" x="459.75" y="-115.75" font-family="Helvetica,sans-Serif" font-size="10.00">OptionPanelAPI</text>
</a>
</g>
</g>
<!-- Node5&#45;&gt;Node1 -->
<g id="edge4_Node000001_Node000005" class="edge">
<title>Node5&#45;&gt;Node1</title>
<g id="a_edge4_Node000001_Node000005"><a xlink:title=" ">
<path fill="none" stroke="#9a32cd" stroke-dasharray="5,2" d="M543.93,-133.1C567.38,-135.31 593.1,-137.74 617.32,-140.02"/>
<polygon fill="#9a32cd" stroke="#9a32cd" points="544.42,-129.63 534.13,-132.17 543.76,-136.6 544.42,-129.63"/>
</a>
</g>
<text text-anchor="middle" x="575" y="-139.72" font-family="Helvetica,sans-Serif" font-size="10.00" fill="grey"> options</text>
</g>
<!-- Node6 -->
<g id="Node000006" class="node">
<title>Node6</title>
<g id="a_Node000006"><a xlink:href="interfacecom_1_1fs_1_1starfarer_1_1api_1_1campaign_1_1VisualPanelAPI.html" target="_top" xlink:title=" ">
<polygon fill="white" stroke="#666666" points="532.25,-91.5 387.25,-91.5 387.25,-61 532.25,-61 532.25,-91.5"/>
<text text-anchor="start" x="395.25" y="-78" font-family="Helvetica,sans-Serif" font-size="10.00">com.fs.starfarer.api.campaign.</text>
<text text-anchor="middle" x="459.75" y="-66.75" font-family="Helvetica,sans-Serif" font-size="10.00">VisualPanelAPI</text>
</a>
</g>
</g>
<!-- Node6&#45;&gt;Node1 -->
<g id="edge5_Node000001_Node000006" class="edge">
<title>Node6&#45;&gt;Node1</title>
<g id="a_edge5_Node000001_Node000006"><a xlink:title=" ">
<path fill="none" stroke="#9a32cd" stroke-dasharray="5,2" d="M526.2,-95.03C567.89,-107 621.27,-122.32 660.65,-133.62"/>
<polygon fill="#9a32cd" stroke="#9a32cd" points="527.35,-91.72 516.77,-92.33 525.42,-98.45 527.35,-91.72"/>
</a>
</g>
<text text-anchor="middle" x="575" y="-116.69" font-family="Helvetica,sans-Serif" font-size="10.00" fill="grey"> visual</text>
</g>
<!-- Node7 -->
<g id="Node000007" class="node">
<title>Node7</title>
<g id="a_Node000007"><a xlink:href="interfacecom_1_1fs_1_1starfarer_1_1api_1_1campaign_1_1CampaignFleetAPI.html" target="_top" xlink:title=" ">
<polygon fill="white" stroke="#666666" points="532.25,-42.5 387.25,-42.5 387.25,-12 532.25,-12 532.25,-42.5"/>
<text text-anchor="start" x="395.25" y="-29" font-family="Helvetica,sans-Serif" font-size="10.00">com.fs.starfarer.api.campaign.</text>
<text text-anchor="middle" x="459.75" y="-17.75" font-family="Helvetica,sans-Serif" font-size="10.00">CampaignFleetAPI</text>
</a>
</g>
</g>
<!-- Node7&#45;&gt;Node1 -->
<g id="edge6_Node000001_Node000007" class="edge">
<title>Node7&#45;&gt;Node1</title>
<g id="a_edge6_Node000001_Node000007"><a xlink:title=" ">
<path fill="none" stroke="#9a32cd" stroke-dasharray="5,2" d="M518.98,-46.85C523.5,-48.6 527.97,-50.41 532.25,-52.25 589.87,-77.01 653.91,-113.09 688.84,-133.55"/>
<polygon fill="#9a32cd" stroke="#9a32cd" points="520.42,-43.65 509.83,-43.41 517.96,-50.2 520.42,-43.65"/>
</a>
</g>
<text text-anchor="middle" x="575" y="-85.78" font-family="Helvetica,sans-Serif" font-size="10.00" fill="grey"> playerFleet</text>
</g>
<!-- Node8 -->
<g id="Node000008" class="node">
<title>Node8</title>
<g id="a_Node000008"><a xlink:href="interfacecom_1_1fs_1_1starfarer_1_1api_1_1campaign_1_1SectorEntityToken.html" target="_top" xlink:title=" ">
<polygon fill="white" stroke="#666666" points="350.25,-79.5 205.25,-79.5 205.25,-49 350.25,-49 350.25,-79.5"/>
<text text-anchor="start" x="213.25" y="-66" font-family="Helvetica,sans-Serif" font-size="10.00">com.fs.starfarer.api.campaign.</text>
<text text-anchor="middle" x="277.75" y="-54.75" font-family="Helvetica,sans-Serif" font-size="10.00">SectorEntityToken</text>
</a>
</g>
</g>
<!-- Node8&#45;&gt;Node7 -->
<g id="edge7_Node000007_Node000008" class="edge">
<title>Node8&#45;&gt;Node7</title>
<g id="a_edge7_Node000007_Node000008"><a xlink:title=" ">
<path fill="none" stroke="#63b8ff" d="M361.69,-47.2C370.12,-45.47 378.64,-43.72 386.95,-42.01"/>
<polygon fill="#63b8ff" stroke="#63b8ff" points="361.24,-43.72 352.15,-49.16 362.65,-50.58 361.24,-43.72"/>
</a>
</g>
</g>
<!-- Node9 -->
<g id="Node000009" class="node">
<title>Node9</title>
<g id="a_Node000009"><a xlink:href="interfacecom_1_1fs_1_1starfarer_1_1api_1_1campaign_1_1rules_1_1HasMemory.html" target="_top" xlink:title=" ">
<polygon fill="white" stroke="#666666" points="168.25,-79.5 0,-79.5 0,-49 168.25,-49 168.25,-79.5"/>
<text text-anchor="start" x="8" y="-66" font-family="Helvetica,sans-Serif" font-size="10.00">com.fs.starfarer.api.campaign.rules.</text>
<text text-anchor="middle" x="84.12" y="-54.75" font-family="Helvetica,sans-Serif" font-size="10.00">HasMemory</text>
</a>
</g>
</g>
<!-- Node9&#45;&gt;Node8 -->
<g id="edge8_Node000008_Node000009" class="edge">
<title>Node9&#45;&gt;Node8</title>
<g id="a_edge8_Node000008_Node000009"><a xlink:title=" ">
<path fill="none" stroke="#63b8ff" d="M180.02,-64.25C188.4,-64.25 196.79,-64.25 204.94,-64.25"/>
<polygon fill="#63b8ff" stroke="#63b8ff" points="180.13,-60.75 170.13,-64.25 180.13,-67.75 180.13,-60.75"/>
</a>
</g>
</g>
<!-- Node10 -->
<g id="Node000010" class="node">
<title>Node10</title>
<g id="a_Node000010"><a xlink:href="interfacecom_1_1fs_1_1starfarer_1_1api_1_1campaign_1_1FleetOrStubAPI.html" target="_top" xlink:title=" ">
<polygon fill="white" stroke="#666666" points="350.25,-30.5 205.25,-30.5 205.25,0 350.25,0 350.25,-30.5"/>
<text text-anchor="start" x="213.25" y="-17" font-family="Helvetica,sans-Serif" font-size="10.00">com.fs.starfarer.api.campaign.</text>
<text text-anchor="middle" x="277.75" y="-5.75" font-family="Helvetica,sans-Serif" font-size="10.00">FleetOrStubAPI</text>
</a>
</g>
</g>
<!-- Node10&#45;&gt;Node7 -->
<g id="edge9_Node000007_Node000010" class="edge">
<title>Node10&#45;&gt;Node7</title>
<g id="a_edge9_Node000007_Node000010"><a xlink:title=" ">
<path fill="none" stroke="#63b8ff" d="M361.97,-20.8C370.31,-21.35 378.74,-21.92 386.95,-22.46"/>
<polygon fill="#63b8ff" stroke="#63b8ff" points="362.39,-17.32 352.18,-20.15 361.92,-24.3 362.39,-17.32"/>
</a>
</g>
</g>
</g>
</svg>
