<?xml version="1.0" encoding="UTF-8" standalone="no"?>
<!DOCTYPE svg PUBLIC "-//W3C//DTD SVG 1.1//EN"
 "http://www.w3.org/Graphics/SVG/1.1/DTD/svg11.dtd">
<!-- Generated by graphviz version 7.0.5 (20221223.1930)
 -->
<!-- Title: com.fs.starfarer.api.impl.campaign.velfield.SlipstreamBuilder Pages: 1 -->
<!--zoomable 540 -->
<svg id="main" version="1.1" xmlns="http://www.w3.org/2000/svg" xmlns:xlink="http://www.w3.org/1999/xlink" xml:space="preserve" onload="init(evt)">
<style type="text/css"><![CDATA[
.edge:hover path { stroke: red; }
.edge:hover polygon { stroke: red; fill: red; }
]]></style>
<script type="text/javascript"><![CDATA[
var edges = document.getElementsByTagName('g');
if (edges && edges.length) {
  for (var i=0;i<edges.length;i++) {
    if (edges[i].id.substr(0,4)=='edge') {
      edges[i].setAttribute('class','edge');
    }
  }
}
]]></script>
        <defs>
                <circle id="rim" cx="0" cy="0" r="7"/>
                <circle id="rim2" cx="0" cy="0" r="3.5"/>
                <g id="zoomPlus">
                        <use xlink:href="#rim" fill="#404040">
                                <set attributeName="fill" to="#808080" begin="zoomplus.mouseover" end="zoomplus.mouseout"/>
                        </use>
                        <path d="M-4,0h8M0,-4v8" fill="none" stroke="white" stroke-width="1.5" pointer-events="none"/>
                </g>
                <g id="zoomMin">
                        <use xlink:href="#rim" fill="#404040">
                                <set attributeName="fill" to="#808080" begin="zoomminus.mouseover" end="zoomminus.mouseout"/>
                        </use>
                        <path d="M-4,0h8" fill="none" stroke="white" stroke-width="1.5" pointer-events="none"/>
                </g>
                <g id="dirArrow">
                        <path fill="none" stroke="white" stroke-width="1.5" d="M0,-3.0v7 M-2.5,-0.5L0,-3.0L2.5,-0.5"/>
                </g>
               <g id="resetDef">
                       <use xlink:href="#rim2" fill="#404040">
                               <set attributeName="fill" to="#808080" begin="reset.mouseover" end="reset.mouseout"/>
                       </use>
               </g>
        </defs>

<script type="text/javascript">
var viewWidth = 1360;
var viewHeight = 540;
var sectionId = 'dynsection-0';
</script>
<script xlink:href="svgpan.js"/>
<svg id="graph" class="graph">
<g id="viewport">
<title>com.fs.starfarer.api.impl.campaign.velfield.SlipstreamBuilder</title>
<!-- Node1 -->
<g id="node1" class="node">
<title>Node1</title>
<g id="a_node1"><a xlink:title=" ">
<polygon fill="#999999" stroke="#666666" points="1352,-390 1154,-390 1154,-360 1352,-360 1352,-390"/>
<text text-anchor="start" x="1162" y="-378" font-family="Helvetica,sans-Serif" font-size="10.00">com.fs.starfarer.api.impl.campaign.velfield.</text>
<text text-anchor="middle" x="1253" y="-367" font-family="Helvetica,sans-Serif" font-size="10.00">SlipstreamBuilder</text>
</a>
</g>
</g>
<!-- Node2 -->
<g id="node2" class="node">
<title>Node2</title>
<g id="a_node2"><a xlink:title=" ">
<polygon fill="white" stroke="#666666" points="404,-531.5 351,-531.5 351,-512.5 404,-512.5 404,-531.5"/>
<text text-anchor="middle" x="377.5" y="-519.5" font-family="Helvetica,sans-Serif" font-size="10.00">Random</text>
</a>
</g>
</g>
<!-- Node2&#45;&gt;Node1 -->
<g id="edge1" class="edge">
<title>Node2&#45;&gt;Node1</title>
<path fill="none" stroke="#9a32cd" stroke-dasharray="5,2" d="M415.61,-521.74C522.36,-520.15 838.61,-509.63 1090,-442 1137.47,-429.23 1189.52,-405.91 1221.48,-390.43"/>
<polygon fill="#9a32cd" stroke="#9a32cd" points="415.69,-518.23 405.74,-521.86 415.78,-525.23 415.69,-518.23"/>
<text text-anchor="middle" x="837.5" y="-497" font-family="Helvetica,sans-Serif" font-size="10.00"> random</text>
</g>
<!-- Node14 -->
<g id="node14" class="node">
<title>Node14</title>
<g id="a_node14"><a xlink:href="classcom_1_1fs_1_1starfarer_1_1api_1_1impl_1_1campaign_1_1velfield_1_1SlipstreamBuilder.html" target="_top" xlink:title=" ">
<polygon fill="white" stroke="#666666" points="770.5,-363 572.5,-363 572.5,-333 770.5,-333 770.5,-363"/>
<text text-anchor="start" x="580.5" y="-351" font-family="Helvetica,sans-Serif" font-size="10.00">com.fs.starfarer.api.impl.campaign.velfield.</text>
<text text-anchor="middle" x="671.5" y="-340" font-family="Helvetica,sans-Serif" font-size="10.00">SlipstreamBuilder</text>
</a>
</g>
</g>
<!-- Node2&#45;&gt;Node14 -->
<g id="edge15" class="edge">
<title>Node2&#45;&gt;Node14</title>
<path fill="none" stroke="#9a32cd" stroke-dasharray="5,2" d="M405.72,-506.46C427.08,-494.23 457.52,-476.67 484,-461 491.94,-456.3 595.99,-393.2 645.13,-363.39"/>
<polygon fill="#9a32cd" stroke="#9a32cd" points="403.99,-503.42 397.05,-511.42 407.47,-509.5 403.99,-503.42"/>
<text text-anchor="middle" x="522" y="-452" font-family="Helvetica,sans-Serif" font-size="10.00"> random</text>
</g>
<!-- Node3 -->
<g id="node3" class="node">
<title>Node3</title>
<g id="a_node3"><a xlink:title=" ">
<polygon fill="white" stroke="#666666" points="484,-452 271,-452 271,-422 484,-422 484,-452"/>
<text text-anchor="start" x="279" y="-440" font-family="Helvetica,sans-Serif" font-size="10.00">com.fs.starfarer.api.impl.campaign.velfield.</text>
<text text-anchor="middle" x="377.5" y="-429" font-family="Helvetica,sans-Serif" font-size="10.00">SlipstreamTerrainPlugin2.SlipstreamParams2</text>
</a>
</g>
</g>
<!-- Node3&#45;&gt;Node1 -->
<g id="edge2" class="edge">
<title>Node3&#45;&gt;Node1</title>
<path fill="none" stroke="#9a32cd" stroke-dasharray="5,2" d="M482.52,-453.9C489.1,-454.69 495.64,-455.4 502,-456 527.68,-458.41 534.21,-457.56 560,-458 659.1,-459.71 684.27,-466.67 783,-458 928.18,-445.25 1095.76,-410.72 1186.08,-390.43"/>
<polygon fill="#9a32cd" stroke="#9a32cd" points="483.28,-450.47 472.92,-452.69 482.4,-457.41 483.28,-450.47"/>
<text text-anchor="middle" x="837.5" y="-459" font-family="Helvetica,sans-Serif" font-size="10.00"> params</text>
</g>
<!-- Node5 -->
<g id="node5" class="node">
<title>Node5</title>
<g id="a_node5"><a xlink:href="classcom_1_1fs_1_1starfarer_1_1api_1_1impl_1_1campaign_1_1velfield_1_1SlipstreamTerrainPlugin2.html" target="_top" xlink:title=" ">
<polygon fill="white" stroke="#666666" points="1090,-314 892,-314 892,-284 1090,-284 1090,-314"/>
<text text-anchor="start" x="900" y="-302" font-family="Helvetica,sans-Serif" font-size="10.00">com.fs.starfarer.api.impl.campaign.velfield.</text>
<text text-anchor="middle" x="991" y="-291" font-family="Helvetica,sans-Serif" font-size="10.00">SlipstreamTerrainPlugin2</text>
</a>
</g>
</g>
<!-- Node3&#45;&gt;Node5 -->
<g id="edge9" class="edge">
<title>Node3&#45;&gt;Node5</title>
<path fill="none" stroke="#9a32cd" stroke-dasharray="5,2" d="M495.87,-441.77C620.65,-445.14 808.8,-444.81 874,-416 923.45,-394.15 963.11,-340.79 980.48,-314.36"/>
<polygon fill="#9a32cd" stroke="#9a32cd" points="495.99,-438.27 485.89,-441.49 495.79,-445.27 495.99,-438.27"/>
<text text-anchor="middle" x="671.5" y="-446" font-family="Helvetica,sans-Serif" font-size="10.00"> params</text>
</g>
<!-- Node3&#45;&gt;Node14 -->
<g id="edge16" class="edge">
<title>Node3&#45;&gt;Node14</title>
<path fill="none" stroke="#9a32cd" stroke-dasharray="5,2" d="M439.75,-418.33C493.28,-402.02 570.06,-378.61 620.1,-363.36"/>
<polygon fill="#9a32cd" stroke="#9a32cd" points="439.02,-414.89 430.48,-421.16 441.06,-421.59 439.02,-414.89"/>
<text text-anchor="middle" x="522" y="-400" font-family="Helvetica,sans-Serif" font-size="10.00"> params</text>
</g>
<!-- Node4 -->
<g id="node4" class="node">
<title>Node4</title>
<g id="a_node4"><a xlink:title=" ">
<polygon fill="white" stroke="#666666" points="104,-446.5 65,-446.5 65,-427.5 104,-427.5 104,-446.5"/>
<text text-anchor="middle" x="84.5" y="-434.5" font-family="Helvetica,sans-Serif" font-size="10.00">Color</text>
</a>
</g>
</g>
<!-- Node4&#45;&gt;Node3 -->
<g id="edge3" class="edge">
<title>Node4&#45;&gt;Node3</title>
<path fill="none" stroke="#9a32cd" stroke-dasharray="5,2" d="M115.42,-437C151.87,-437 215.43,-437 270.71,-437"/>
<polygon fill="#9a32cd" stroke="#9a32cd" points="115.66,-433.5 105.66,-437 115.66,-440.5 115.66,-433.5"/>
<text text-anchor="middle" x="220" y="-495" font-family="Helvetica,sans-Serif" font-size="10.00"> edgeColor</text>
<text text-anchor="middle" x="220" y="-484" font-family="Helvetica,sans-Serif" font-size="10.00">mapColor</text>
<text text-anchor="middle" x="220" y="-473" font-family="Helvetica,sans-Serif" font-size="10.00">maxColor</text>
<text text-anchor="middle" x="220" y="-462" font-family="Helvetica,sans-Serif" font-size="10.00">minColor</text>
<text text-anchor="middle" x="220" y="-451" font-family="Helvetica,sans-Serif" font-size="10.00">spriteColor</text>
<text text-anchor="middle" x="220" y="-440" font-family="Helvetica,sans-Serif" font-size="10.00">windGlowColor</text>
</g>
<!-- Node5&#45;&gt;Node1 -->
<g id="edge4" class="edge">
<title>Node5&#45;&gt;Node1</title>
<path fill="none" stroke="#9a32cd" stroke-dasharray="5,2" d="M1055.81,-317.65C1099.84,-330.52 1157.69,-347.43 1199.15,-359.55"/>
<polygon fill="#9a32cd" stroke="#9a32cd" points="1056.96,-314.34 1046.38,-314.9 1055,-321.06 1056.96,-314.34"/>
<text text-anchor="middle" x="1122" y="-342" font-family="Helvetica,sans-Serif" font-size="10.00"> plugin</text>
</g>
<!-- Node5&#45;&gt;Node14 -->
<g id="edge17" class="edge">
<title>Node5&#45;&gt;Node14</title>
<path fill="none" stroke="#9a32cd" stroke-dasharray="5,2" d="M880.69,-315.87C845,-321.38 805.61,-327.46 770.78,-332.83"/>
<polygon fill="#9a32cd" stroke="#9a32cd" points="880.79,-319.4 890.14,-314.41 879.72,-312.48 880.79,-319.4"/>
<text text-anchor="middle" x="837.5" y="-330" font-family="Helvetica,sans-Serif" font-size="10.00"> plugin</text>
</g>
<!-- Node6 -->
<g id="node6" class="node">
<title>Node6</title>
<g id="a_node6"><a xlink:href="classcom_1_1fs_1_1starfarer_1_1api_1_1impl_1_1campaign_1_1terrain_1_1BaseTerrain.html" target="_top" xlink:title=" ">
<polygon fill="white" stroke="#666666" points="769,-69 574,-69 574,-39 769,-39 769,-69"/>
<text text-anchor="start" x="582" y="-57" font-family="Helvetica,sans-Serif" font-size="10.00">com.fs.starfarer.api.impl.campaign.terrain.</text>
<text text-anchor="middle" x="671.5" y="-46" font-family="Helvetica,sans-Serif" font-size="10.00">BaseTerrain</text>
</a>
</g>
</g>
<!-- Node6&#45;&gt;Node5 -->
<g id="edge5" class="edge">
<title>Node6&#45;&gt;Node5</title>
<path fill="none" stroke="#63b8ff" d="M780.64,-46.29C812.97,-48.76 846.96,-56.57 874,-75 949.26,-126.31 978.8,-242.12 987.23,-283.74"/>
<polygon fill="#63b8ff" stroke="#63b8ff" points="780.99,-42.8 770.8,-45.71 780.58,-49.79 780.99,-42.8"/>
</g>
<!-- Node7 -->
<g id="node7" class="node">
<title>Node7</title>
<g id="a_node7"><a xlink:href="interfacecom_1_1fs_1_1starfarer_1_1api_1_1campaign_1_1CampaignTerrainPlugin.html" target="_top" xlink:title=" ">
<polygon fill="white" stroke="#666666" points="450.5,-78 304.5,-78 304.5,-48 450.5,-48 450.5,-78"/>
<text text-anchor="start" x="312.5" y="-66" font-family="Helvetica,sans-Serif" font-size="10.00">com.fs.starfarer.api.campaign.</text>
<text text-anchor="middle" x="377.5" y="-55" font-family="Helvetica,sans-Serif" font-size="10.00">CampaignTerrainPlugin</text>
</a>
</g>
</g>
<!-- Node7&#45;&gt;Node6 -->
<g id="edge6" class="edge">
<title>Node7&#45;&gt;Node6</title>
<path fill="none" stroke="#63b8ff" d="M461.77,-60.43C496.62,-59.36 537.35,-58.1 573.54,-56.99"/>
<polygon fill="#63b8ff" stroke="#63b8ff" points="462.08,-56.92 452.19,-60.73 462.3,-63.92 462.08,-56.92"/>
</g>
<!-- Node8 -->
<g id="node8" class="node">
<title>Node8</title>
<g id="a_node8"><a xlink:href="interfacecom_1_1fs_1_1starfarer_1_1api_1_1campaign_1_1SectorEntityToken.html" target="_top" xlink:title=" ">
<polygon fill="white" stroke="#666666" points="450.5,-30 304.5,-30 304.5,0 450.5,0 450.5,-30"/>
<text text-anchor="start" x="312.5" y="-18" font-family="Helvetica,sans-Serif" font-size="10.00">com.fs.starfarer.api.campaign.</text>
<text text-anchor="middle" x="377.5" y="-7" font-family="Helvetica,sans-Serif" font-size="10.00">SectorEntityToken</text>
</a>
</g>
</g>
<!-- Node8&#45;&gt;Node6 -->
<g id="edge7" class="edge">
<title>Node8&#45;&gt;Node6</title>
<path fill="none" stroke="#9a32cd" stroke-dasharray="5,2" d="M461.77,-26.12C496.62,-30.78 537.35,-36.22 573.54,-41.05"/>
<polygon fill="#9a32cd" stroke="#9a32cd" points="462.56,-22.7 452.18,-24.84 461.63,-29.63 462.56,-22.7"/>
<text text-anchor="middle" x="522" y="-40" font-family="Helvetica,sans-Serif" font-size="10.00"> entity</text>
</g>
<!-- Node9 -->
<g id="node9" class="node">
<title>Node9</title>
<g id="a_node9"><a xlink:href="interfacecom_1_1fs_1_1starfarer_1_1api_1_1campaign_1_1rules_1_1HasMemory.html" target="_top" xlink:title=" ">
<polygon fill="white" stroke="#666666" points="169,-30 0,-30 0,0 169,0 169,-30"/>
<text text-anchor="start" x="8" y="-18" font-family="Helvetica,sans-Serif" font-size="10.00">com.fs.starfarer.api.campaign.rules.</text>
<text text-anchor="middle" x="84.5" y="-7" font-family="Helvetica,sans-Serif" font-size="10.00">HasMemory</text>
</a>
</g>
</g>
<!-- Node9&#45;&gt;Node8 -->
<g id="edge8" class="edge">
<title>Node9&#45;&gt;Node8</title>
<path fill="none" stroke="#63b8ff" d="M180.71,-15C220.87,-15 266.85,-15 304.16,-15"/>
<polygon fill="#63b8ff" stroke="#63b8ff" points="180.79,-11.5 170.79,-15 180.79,-18.5 180.79,-11.5"/>
</g>
<!-- Node10 -->
<g id="node10" class="node">
<title>Node10</title>
<g id="a_node10"><a xlink:title=" ">
<polygon fill="white" stroke="#666666" points="739,-314.5 604,-314.5 604,-295.5 739,-295.5 739,-314.5"/>
<text text-anchor="middle" x="671.5" y="-302.5" font-family="Helvetica,sans-Serif" font-size="10.00">List&lt; SlipstreamSegment &gt;</text>
</a>
</g>
</g>
<!-- Node10&#45;&gt;Node5 -->
<g id="edge10" class="edge">
<title>Node10&#45;&gt;Node5</title>
<path fill="none" stroke="#9a32cd" stroke-dasharray="5,2" d="M750.55,-301.54C767.2,-300.92 784.68,-300.36 801,-300 830.52,-299.35 862.65,-299.03 891.9,-298.89"/>
<polygon fill="#9a32cd" stroke="#9a32cd" points="750.55,-298.04 740.69,-301.92 750.82,-305.03 750.55,-298.04"/>
<text text-anchor="middle" x="837.5" y="-303" font-family="Helvetica,sans-Serif" font-size="10.00"> segments</text>
</g>
<!-- Node11 -->
<g id="node11" class="node">
<title>Node11</title>
<g id="a_node11"><a xlink:title=" ">
<polygon fill="white" stroke="#666666" points="714.5,-277.5 628.5,-277.5 628.5,-258.5 714.5,-258.5 714.5,-277.5"/>
<text text-anchor="middle" x="671.5" y="-265.5" font-family="Helvetica,sans-Serif" font-size="10.00">List&lt; Vector2f &gt;</text>
</a>
</g>
</g>
<!-- Node11&#45;&gt;Node5 -->
<g id="edge11" class="edge">
<title>Node11&#45;&gt;Node5</title>
<path fill="none" stroke="#9a32cd" stroke-dasharray="5,2" d="M725.89,-271.52C766.54,-274.37 823.86,-278.77 874,-284 879.76,-284.6 885.67,-285.25 891.63,-285.94"/>
<polygon fill="#9a32cd" stroke="#9a32cd" points="726.35,-268.04 716.13,-270.84 725.87,-275.03 726.35,-268.04"/>
<text text-anchor="middle" x="837.5" y="-287" font-family="Helvetica,sans-Serif" font-size="10.00"> encounterPoints</text>
</g>
<!-- Node12 -->
<g id="node12" class="node">
<title>Node12</title>
<g id="a_node12"><a xlink:title=" ">
<polygon fill="white" stroke="#666666" points="736,-240.5 607,-240.5 607,-221.5 736,-221.5 736,-240.5"/>
<text text-anchor="middle" x="671.5" y="-228.5" font-family="Helvetica,sans-Serif" font-size="10.00">List&lt; SlipstreamParticle &gt;</text>
</a>
</g>
</g>
<!-- Node12&#45;&gt;Node5 -->
<g id="edge12" class="edge">
<title>Node12&#45;&gt;Node5</title>
<path fill="none" stroke="#9a32cd" stroke-dasharray="5,2" d="M747.11,-239.65C785.33,-244.8 832.45,-252.24 874,-262 898.59,-267.78 925.5,-276.22 947.21,-283.59"/>
<polygon fill="#9a32cd" stroke="#9a32cd" points="747.94,-236.23 737.56,-238.39 747.02,-243.17 747.94,-236.23"/>
<text text-anchor="middle" x="837.5" y="-265" font-family="Helvetica,sans-Serif" font-size="10.00"> particles</text>
</g>
<!-- Node13 -->
<g id="node13" class="node">
<title>Node13</title>
<g id="a_node13"><a xlink:title=" ">
<polygon fill="white" stroke="#666666" points="783,-203 560,-203 560,-173 783,-173 783,-203"/>
<text text-anchor="start" x="568" y="-191" font-family="Helvetica,sans-Serif" font-size="10.00">List&lt; com.fs.starfarer.api.impl.campaign.velfield.</text>
<text text-anchor="middle" x="671.5" y="-180" font-family="Helvetica,sans-Serif" font-size="10.00">BoundingBox &gt;</text>
</a>
</g>
</g>
<!-- Node13&#45;&gt;Node5 -->
<g id="edge13" class="edge">
<title>Node13&#45;&gt;Node5</title>
<path fill="none" stroke="#9a32cd" stroke-dasharray="5,2" d="M783.36,-205.79C813.33,-212.32 845.38,-220.92 874,-232 908.92,-245.52 945.8,-268.53 968.36,-283.75"/>
<polygon fill="#9a32cd" stroke="#9a32cd" points="784.41,-202.44 773.9,-203.79 782.96,-209.29 784.41,-202.44"/>
<text text-anchor="middle" x="837.5" y="-235" font-family="Helvetica,sans-Serif" font-size="10.00"> bounds</text>
</g>
<!-- Node14&#45;&gt;Node5 -->
<g id="edge14" class="edge">
<title>Node14&#45;&gt;Node5</title>
<path fill="none" stroke="#9a32cd" stroke-dasharray="5,2" d="M782.24,-353.55C812.22,-353.12 844.56,-350.85 874,-345 904.39,-338.96 937.02,-325.31 959.91,-314.45"/>
<polygon fill="#9a32cd" stroke="#9a32cd" points="782.36,-350.04 772.38,-353.61 782.41,-357.04 782.36,-350.04"/>
<text text-anchor="middle" x="837.5" y="-355" font-family="Helvetica,sans-Serif" font-size="10.00"> builder</text>
</g>
<!-- Node15 -->
<g id="node15" class="node">
<title>Node15</title>
<g id="a_node15"><a xlink:title=" ">
<polygon fill="white" stroke="#666666" points="442,-373.5 313,-373.5 313,-354.5 442,-354.5 442,-373.5"/>
<text text-anchor="middle" x="377.5" y="-361.5" font-family="Helvetica,sans-Serif" font-size="10.00">List&lt; SlipstreamSection &gt;</text>
</a>
</g>
</g>
<!-- Node15&#45;&gt;Node1 -->
<g id="edge21" class="edge">
<title>Node15&#45;&gt;Node1</title>
<path fill="none" stroke="#9a32cd" stroke-dasharray="5,2" d="M453.61,-367.98C486.28,-369.54 525.02,-371.15 560,-372 771.53,-377.12 1019.55,-376.61 1153.72,-375.8"/>
<polygon fill="#9a32cd" stroke="#9a32cd" points="453.99,-364.49 443.83,-367.51 453.65,-371.49 453.99,-364.49"/>
<text text-anchor="middle" x="837.5" y="-379" font-family="Helvetica,sans-Serif" font-size="10.00"> sections</text>
</g>
<!-- Node15&#45;&gt;Node14 -->
<g id="edge18" class="edge">
<title>Node15&#45;&gt;Node14</title>
<path fill="none" stroke="#9a32cd" stroke-dasharray="5,2" d="M453.67,-356.59C469.61,-355.22 486.35,-353.93 502,-353 524.64,-351.66 549.02,-350.67 572,-349.94"/>
<polygon fill="#9a32cd" stroke="#9a32cd" points="453.39,-353.1 443.73,-357.47 454,-360.07 453.39,-353.1"/>
<text text-anchor="middle" x="522" y="-356" font-family="Helvetica,sans-Serif" font-size="10.00"> sections</text>
</g>
<!-- Node16 -->
<g id="node16" class="node">
<title>Node16</title>
<g id="a_node16"><a xlink:title=" ">
<polygon fill="white" stroke="#666666" points="404,-266.5 351,-266.5 351,-247.5 404,-247.5 404,-266.5"/>
<text text-anchor="middle" x="377.5" y="-254.5" font-family="Helvetica,sans-Serif" font-size="10.00">Vector2f</text>
</a>
</g>
</g>
<!-- Node16&#45;&gt;Node1 -->
<g id="edge22" class="edge">
<title>Node16&#45;&gt;Node1</title>
<path fill="none" stroke="#9a32cd" stroke-dasharray="5,2" d="M401.42,-240.68C434.54,-218.2 498.55,-178.83 560,-164 656.35,-140.75 685.22,-147.8 783,-164 832.77,-172.25 1014.43,-238.13 1090,-275 1142.58,-300.65 1199.89,-338.64 1230.26,-359.64"/>
<polygon fill="#9a32cd" stroke="#9a32cd" points="399.66,-237.64 393.42,-246.2 403.64,-243.4 399.66,-237.64"/>
<text text-anchor="middle" x="837.5" y="-192" font-family="Helvetica,sans-Serif" font-size="10.00"> start</text>
</g>
<!-- Node16&#45;&gt;Node14 -->
<g id="edge19" class="edge">
<title>Node16&#45;&gt;Node14</title>
<path fill="none" stroke="#9a32cd" stroke-dasharray="5,2" d="M412.67,-271.25C448.8,-285.92 507.69,-308.75 560,-324 570.46,-327.05 581.58,-329.91 592.58,-332.51"/>
<polygon fill="#9a32cd" stroke="#9a32cd" points="414.2,-268.09 403.62,-267.54 411.55,-274.57 414.2,-268.09"/>
<text text-anchor="middle" x="522" y="-320" font-family="Helvetica,sans-Serif" font-size="10.00"> start</text>
</g>
<!-- Node17 -->
<g id="node17" class="node">
<title>Node17</title>
<g id="a_node17"><a xlink:title=" ">
<polygon fill="white" stroke="#666666" points="476.5,-136 278.5,-136 278.5,-106 476.5,-106 476.5,-136"/>
<text text-anchor="start" x="286.5" y="-124" font-family="Helvetica,sans-Serif" font-size="10.00">com.fs.starfarer.api.impl.campaign.velfield.</text>
<text text-anchor="middle" x="377.5" y="-113" font-family="Helvetica,sans-Serif" font-size="10.00">SlipstreamBuilder.StreamType</text>
</a>
</g>
</g>
<!-- Node17&#45;&gt;Node1 -->
<g id="edge23" class="edge">
<title>Node17&#45;&gt;Node1</title>
<path fill="none" stroke="#9a32cd" stroke-dasharray="5,2" d="M488.25,-106.03C635.31,-91.48 899.8,-85.01 1090,-192 1164.7,-234.02 1222.38,-323.67 1243.39,-359.62"/>
<polygon fill="#9a32cd" stroke="#9a32cd" points="488.09,-102.53 478.5,-107.03 488.81,-109.5 488.09,-102.53"/>
<text text-anchor="middle" x="837.5" y="-120" font-family="Helvetica,sans-Serif" font-size="10.00"> type</text>
</g>
<!-- Node17&#45;&gt;Node14 -->
<g id="edge20" class="edge">
<title>Node17&#45;&gt;Node14</title>
<path fill="none" stroke="#9a32cd" stroke-dasharray="5,2" d="M404.6,-144C438.87,-175.07 499.66,-233.25 542,-291 551.88,-304.47 546.63,-313.99 560,-324 564.32,-327.24 568.99,-330.05 573.88,-332.5"/>
<polygon fill="#9a32cd" stroke="#9a32cd" points="406.98,-141.43 397.2,-137.35 402.3,-146.64 406.98,-141.43"/>
<text text-anchor="middle" x="522" y="-294" font-family="Helvetica,sans-Serif" font-size="10.00"> type</text>
</g>
</g>
</svg>
        <g id="navigator" transform="translate(0 0)" fill="#404254">
                <rect fill="#f2f5e9" fill-opacity="0.5" stroke="#606060" stroke-width=".5" x="0" y="0" width="60" height="60"/>
                <use id="zoomplus" xlink:href="#zoomPlus" x="17" y="9" onmousedown="handleZoom(evt,'in')"/>
                <use id="zoomminus" xlink:href="#zoomMin" x="42" y="9" onmousedown="handleZoom(evt,'out')"/>
                <use id="reset" xlink:href="#resetDef" x="30" y="36" onmousedown="handleReset()"/>
                <g id="arrowUp" xlink:href="#dirArrow" transform="translate(30 24)" onmousedown="handlePan(0,-1)">
                  <use xlink:href="#rim" fill="#404040">
                        <set attributeName="fill" to="#808080" begin="arrowUp.mouseover" end="arrowUp.mouseout"/>
                  </use>
                  <path fill="none" stroke="white" stroke-width="1.5" d="M0,-3.0v7 M-2.5,-0.5L0,-3.0L2.5,-0.5"/>
                </g>
                <g id="arrowRight" xlink:href="#dirArrow" transform="rotate(90) translate(36 -43)" onmousedown="handlePan(1,0)">
                  <use xlink:href="#rim" fill="#404040">
                        <set attributeName="fill" to="#808080" begin="arrowRight.mouseover" end="arrowRight.mouseout"/>
                  </use>
                  <path fill="none" stroke="white" stroke-width="1.5" d="M0,-3.0v7 M-2.5,-0.5L0,-3.0L2.5,-0.5"/>
                </g>
                <g id="arrowDown" xlink:href="#dirArrow" transform="rotate(180) translate(-30 -48)" onmousedown="handlePan(0,1)">
                  <use xlink:href="#rim" fill="#404040">
                        <set attributeName="fill" to="#808080" begin="arrowDown.mouseover" end="arrowDown.mouseout"/>
                  </use>
                  <path fill="none" stroke="white" stroke-width="1.5" d="M0,-3.0v7 M-2.5,-0.5L0,-3.0L2.5,-0.5"/>
                </g>
                <g id="arrowLeft" xlink:href="#dirArrow" transform="rotate(270) translate(-36 17)" onmousedown="handlePan(-1,0)">
                  <use xlink:href="#rim" fill="#404040">
                        <set attributeName="fill" to="#808080" begin="arrowLeft.mouseover" end="arrowLeft.mouseout"/>
                  </use>
                  <path fill="none" stroke="white" stroke-width="1.5" d="M0,-3.0v7 M-2.5,-0.5L0,-3.0L2.5,-0.5"/>
                </g>
        </g>
        <svg viewBox="0 0 15 15" width="100%" height="30px" preserveAspectRatio="xMaxYMin meet">
         <g id="arrow_out" transform="scale(0.3 0.3)">
          <a xlink:href="classcom_1_1fs_1_1starfarer_1_1api_1_1impl_1_1campaign_1_1velfield_1_1SlipstreamBuilder__coll__graph_org.svg" target="_base">
           <rect id="button" ry="5" rx="5" y="6" x="6" height="38" width="38"
                fill="#f2f5e9" fill-opacity="0.5" stroke="#606060" stroke-width="1.0"/>
           <path id="arrow"
             d="M 11.500037,31.436501 C 11.940474,20.09759 22.043105,11.32322 32.158766,21.979434 L 37.068811,17.246167 C 37.068811,17.246167 37.088388,32 37.088388,32 L 22.160133,31.978069 C 22.160133,31.978069 26.997745,27.140456 26.997745,27.140456 C 18.528582,18.264221 13.291696,25.230495 11.500037,31.436501 z"
             style="fill:#404040;"/>
          </a>
         </g>
        </svg>
</svg>
