<?xml version="1.0" encoding="UTF-8" standalone="no"?>
<!DOCTYPE svg PUBLIC "-//W3C//DTD SVG 1.1//EN"
 "http://www.w3.org/Graphics/SVG/1.1/DTD/svg11.dtd">
<!-- Generated by graphviz version 9.0.0 (20230911.1827)
 -->
<!-- Title: com.fs.starfarer.api.impl.campaign.eventide.DuelPanel Pages: 1 -->
<!--zoomable 362 -->

<svg id="main" version="1.1" xmlns="http://www.w3.org/2000/svg" xmlns:xlink="http://www.w3.org/1999/xlink" xml:space="preserve" onload="init(evt)">
<style type="text/css"><![CDATA[
.node, .edge {opacity: 0.7;}
.node.selected, .edge.selected {opacity: 1;}
.edge:hover path { stroke: red; }
.edge:hover polygon { stroke: red; fill: red; }
]]></style>

<defs>
  <circle id="rim" cx="0" cy="0" r="7"/>
  <circle id="rim2" cx="0" cy="0" r="3.5"/>
  <g id="zoomPlus">
    <use xlink:href="#rim" fill="#404040"><set attributeName="fill" to="#808080" begin="zoomplus.mouseover" end="zoomplus.mouseout"/></use>
    <path d="M-4,0h8M0,-4v8" fill="none" stroke="white" stroke-width="1.5" pointer-events="none"/>
  </g>
  <g id="zoomMin">
    <use xlink:href="#rim" fill="#404040"><set attributeName="fill" to="#808080" begin="zoomminus.mouseover" end="zoomminus.mouseout"/></use>
    <path d="M-4,0h8" fill="none" stroke="white" stroke-width="1.5" pointer-events="none"/>
  </g>
  <g id="arrowUp" transform="translate(30 24)">
    <use xlink:href="#rim"/>
    <path pointer-events="none" fill="none" stroke="white" stroke-width="1.5" d="M0,-3.0v7 M-2.5,-0.5L0,-3.0L2.5,-0.5"/>
  </g>
  <g id="arrowRight" transform="rotate(90) translate(36 -43)">
    <use xlink:href="#rim"/>
    <path pointer-events="none" fill="none" stroke="white" stroke-width="1.5" d="M0,-3.0v7 M-2.5,-0.5L0,-3.0L2.5,-0.5"/>
  </g>
  <g id="arrowDown" transform="rotate(180) translate(-30 -48)">
    <use xlink:href="#rim"/>
    <path pointer-events="none" fill="none" stroke="white" stroke-width="1.5" d="M0,-3.0v7 M-2.5,-0.5L0,-3.0L2.5,-0.5"/>
  </g>
  <g id="arrowLeft" transform="rotate(270) translate(-36 17)">
    <use xlink:href="#rim"/>
    <path pointer-events="none" fill="none" stroke="white" stroke-width="1.5" d="M0,-3.0v7 M-2.5,-0.5L0,-3.0L2.5,-0.5"/>
  </g>
  <g id="resetDef">
    <use xlink:href="#rim2" fill="#404040"><set attributeName="fill" to="#808080" begin="reset.mouseover" end="reset.mouseout"/></use>
  </g>
</defs>
<script type="application/ecmascript">
var viewWidth = 860;
var viewHeight = 362;
var sectionId = 'dynsection-1';
</script>
<script type="application/ecmascript" xlink:href="svg.min.js"/>
<svg id="graph" class="graph">
<g id="viewport">
<title>com.fs.starfarer.api.impl.campaign.eventide.DuelPanel</title>
<!-- Node1 -->
<g id="Node000001" class="node">
<title>Node1</title>
<g id="a_Node000001"><a xlink:title=" ">
<polygon fill="#999999" stroke="#666666" points="851.75,-255.5 647.5,-255.5 647.5,-225 851.75,-225 851.75,-255.5"/>
<text text-anchor="start" x="655.5" y="-242" font-family="Helvetica,sans-Serif" font-size="10.00">com.fs.starfarer.api.impl.campaign.eventide.</text>
<text text-anchor="middle" x="749.62" y="-230.75" font-family="Helvetica,sans-Serif" font-size="10.00">DuelPanel</text>
</a>
</g>
</g>
<!-- Node2 -->
<g id="Node000002" class="node">
<title>Node2</title>
<g id="a_Node000002"><a xlink:title=" ">
<polygon fill="white" stroke="#666666" points="265.12,-239.88 130.62,-239.88 130.62,-220.62 265.12,-220.62 265.12,-239.88"/>
<text text-anchor="middle" x="197.88" y="-226.38" font-family="Helvetica,sans-Serif" font-size="10.00">BaseCustomUIPanelPlugin</text>
</a>
</g>
</g>
<!-- Node2&#45;&gt;Node1 -->
<g id="edge1_Node000001_Node000002" class="edge">
<title>Node2&#45;&gt;Node1</title>
<g id="a_edge1_Node000001_Node000002"><a xlink:title=" ">
<path fill="none" stroke="#63b8ff" d="M276.76,-221.87C301.65,-219.57 329.33,-217.39 354.75,-216.25 445.44,-212.19 468.4,-210.54 559,-216.25 587.81,-218.07 618.94,-221.42 647.49,-225.06"/>
<polygon fill="#63b8ff" stroke="#63b8ff" points="276.67,-218.37 267.04,-222.8 277.33,-225.34 276.67,-218.37"/>
</a>
</g>
</g>
<!-- Node10 -->
<g id="Node000010" class="node">
<title>Node10</title>
<g id="a_Node000010"><a xlink:href="classcom_1_1fs_1_1starfarer_1_1api_1_1impl_1_1campaign_1_1eventide_1_1DuelTutorialPanel.html" target="_top" xlink:title=" ">
<polygon fill="white" stroke="#666666" points="559,-353.5 354.75,-353.5 354.75,-323 559,-323 559,-353.5"/>
<text text-anchor="start" x="362.75" y="-340" font-family="Helvetica,sans-Serif" font-size="10.00">com.fs.starfarer.api.impl.campaign.eventide.</text>
<text text-anchor="middle" x="456.88" y="-328.75" font-family="Helvetica,sans-Serif" font-size="10.00">DuelTutorialPanel</text>
</a>
</g>
</g>
<!-- Node2&#45;&gt;Node10 -->
<g id="edge13_Node000010_Node000002" class="edge">
<title>Node2&#45;&gt;Node10</title>
<g id="a_edge13_Node000010_Node000002"><a xlink:title=" ">
<path fill="none" stroke="#63b8ff" d="M224.33,-246.34C254.45,-264.78 306.6,-294.81 354.75,-313.25 363.79,-316.71 373.46,-319.82 383.11,-322.57"/>
<polygon fill="#63b8ff" stroke="#63b8ff" points="226.27,-243.43 215.92,-241.14 222.58,-249.38 226.27,-243.43"/>
</a>
</g>
</g>
<!-- Node3 -->
<g id="Node000003" class="node">
<title>Node3</title>
<g id="a_Node000003"><a xlink:href="classcom_1_1fs_1_1starfarer_1_1api_1_1impl_1_1campaign_1_1eventide_1_1Actor.html" target="_top" xlink:title=" ">
<polygon fill="white" stroke="#666666" points="559,-128.5 354.75,-128.5 354.75,-98 559,-98 559,-128.5"/>
<text text-anchor="start" x="362.75" y="-115" font-family="Helvetica,sans-Serif" font-size="10.00">com.fs.starfarer.api.impl.campaign.eventide.</text>
<text text-anchor="middle" x="456.88" y="-103.75" font-family="Helvetica,sans-Serif" font-size="10.00">Actor</text>
</a>
</g>
</g>
<!-- Node3&#45;&gt;Node1 -->
<g id="edge2_Node000001_Node000003" class="edge">
<title>Node3&#45;&gt;Node1</title>
<g id="a_edge2_Node000001_Node000003"><a xlink:title=" ">
<path fill="none" stroke="#9a32cd" stroke-dasharray="5,2" d="M545.31,-131.71C572.9,-139.03 603.07,-148.65 629.5,-160.75 667.48,-178.13 706.92,-206.94 729.54,-224.69"/>
<polygon fill="#9a32cd" stroke="#9a32cd" points="546.5,-128.4 535.94,-129.29 544.75,-135.17 546.5,-128.4"/>
</a>
</g>
<text text-anchor="middle" x="603.25" y="-173.25" font-family="Helvetica,sans-Serif" font-size="10.00" fill="grey"> enemy</text>
<text text-anchor="middle" x="603.25" y="-162" font-family="Helvetica,sans-Serif" font-size="10.00" fill="grey">player</text>
</g>
<!-- Node4 -->
<g id="Node000004" class="node">
<title>Node4</title>
<g id="a_Node000004"><a xlink:href="classcom_1_1fs_1_1starfarer_1_1api_1_1impl_1_1campaign_1_1eventide_1_1AnimAction.html" target="_top" xlink:title=" ">
<polygon fill="white" stroke="#666666" points="851.75,-77.5 647.5,-77.5 647.5,-47 851.75,-47 851.75,-77.5"/>
<text text-anchor="start" x="655.5" y="-64" font-family="Helvetica,sans-Serif" font-size="10.00">com.fs.starfarer.api.impl.campaign.eventide.</text>
<text text-anchor="middle" x="749.62" y="-52.75" font-family="Helvetica,sans-Serif" font-size="10.00">AnimAction</text>
</a>
</g>
</g>
<!-- Node3&#45;&gt;Node4 -->
<g id="edge9_Node000004_Node000003" class="edge">
<title>Node3&#45;&gt;Node4</title>
<g id="a_edge9_Node000004_Node000003"><a xlink:title=" ">
<path fill="none" stroke="#9a32cd" stroke-dasharray="5,2" d="M514.12,-94.14C533.8,-88.12 556.19,-81.99 577,-78 599.63,-73.66 624.17,-70.5 647.43,-68.21"/>
<polygon fill="#9a32cd" stroke="#9a32cd" points="513.12,-90.79 504.62,-97.11 515.21,-97.47 513.12,-90.79"/>
</a>
</g>
<text text-anchor="middle" x="603.25" y="-80" font-family="Helvetica,sans-Serif" font-size="10.00" fill="grey"> actor</text>
</g>
<!-- Node4&#45;&gt;Node3 -->
<g id="edge3_Node000003_Node000004" class="edge">
<title>Node4&#45;&gt;Node3</title>
<g id="a_edge3_Node000003_Node000004"><a xlink:title=" ">
<path fill="none" stroke="#9a32cd" stroke-dasharray="5,2" d="M678.85,-80.61C662.72,-84.47 645.57,-88.27 629.5,-91.25 606.9,-95.44 582.49,-99.08 559.35,-102.14"/>
<polygon fill="#9a32cd" stroke="#9a32cd" points="679.47,-84.06 688.36,-78.3 677.81,-77.26 679.47,-84.06"/>
</a>
</g>
<text text-anchor="middle" x="603.25" y="-112.25" font-family="Helvetica,sans-Serif" font-size="10.00" fill="grey"> currAction</text>
<text text-anchor="middle" x="603.25" y="-101" font-family="Helvetica,sans-Serif" font-size="10.00" fill="grey">nextAction</text>
</g>
<!-- Node5 -->
<g id="Node000005" class="node">
<title>Node5</title>
<g id="a_Node000005"><a xlink:href="classcom_1_1fs_1_1starfarer_1_1api_1_1impl_1_1campaign_1_1eventide_1_1CharAnim.html" target="_top" xlink:title=" ">
<polygon fill="white" stroke="#666666" points="559,-70.5 354.75,-70.5 354.75,-40 559,-40 559,-70.5"/>
<text text-anchor="start" x="362.75" y="-57" font-family="Helvetica,sans-Serif" font-size="10.00">com.fs.starfarer.api.impl.campaign.eventide.</text>
<text text-anchor="middle" x="456.88" y="-45.75" font-family="Helvetica,sans-Serif" font-size="10.00">CharAnim</text>
</a>
</g>
</g>
<!-- Node5&#45;&gt;Node4 -->
<g id="edge4_Node000004_Node000005" class="edge">
<title>Node5&#45;&gt;Node4</title>
<g id="a_edge4_Node000004_Node000005"><a xlink:title=" ">
<path fill="none" stroke="#9a32cd" stroke-dasharray="5,2" d="M570.58,-45.26C590.23,-44.64 610.46,-44.71 629.5,-46 635.23,-46.39 641.1,-46.88 647.02,-47.45"/>
<polygon fill="#9a32cd" stroke="#9a32cd" points="570.46,-41.76 560.6,-45.65 570.73,-48.76 570.46,-41.76"/>
</a>
</g>
<text text-anchor="middle" x="603.25" y="-48" font-family="Helvetica,sans-Serif" font-size="10.00" fill="grey"> anim</text>
</g>
<!-- Node6 -->
<g id="Node000006" class="node">
<title>Node6</title>
<g id="a_Node000006"><a xlink:title=" ">
<polygon fill="white" stroke="#666666" points="58.75,-45.88 0,-45.88 0,-26.62 58.75,-26.62 58.75,-45.88"/>
<text text-anchor="middle" x="29.38" y="-32.38" font-family="Helvetica,sans-Serif" font-size="10.00">Cloneable</text>
</a>
</g>
</g>
<!-- Node6&#45;&gt;Node5 -->
<g id="edge5_Node000005_Node000006" class="edge">
<title>Node6&#45;&gt;Node5</title>
<g id="a_edge5_Node000005_Node000006"><a xlink:title=" ">
<path fill="none" stroke="#63b8ff" d="M70.51,-43.53C72.61,-43.8 74.7,-44.04 76.75,-44.25 170.61,-53.66 278.14,-55.98 354.65,-56.2"/>
<polygon fill="#63b8ff" stroke="#63b8ff" points="71.13,-40.09 60.73,-42.1 70.12,-47.01 71.13,-40.09"/>
</a>
</g>
</g>
<!-- Node7 -->
<g id="Node000007" class="node">
<title>Node7</title>
<g id="a_Node000007"><a xlink:href="classcom_1_1fs_1_1starfarer_1_1api_1_1impl_1_1campaign_1_1eventide_1_1CharAnimFrame.html" target="_top" xlink:title=" ">
<polygon fill="white" stroke="#666666" points="300,-30.5 95.75,-30.5 95.75,0 300,0 300,-30.5"/>
<text text-anchor="start" x="103.75" y="-17" font-family="Helvetica,sans-Serif" font-size="10.00">com.fs.starfarer.api.impl.campaign.eventide.</text>
<text text-anchor="middle" x="197.88" y="-5.75" font-family="Helvetica,sans-Serif" font-size="10.00">CharAnimFrame</text>
</a>
</g>
</g>
<!-- Node6&#45;&gt;Node7 -->
<g id="edge7_Node000007_Node000006" class="edge">
<title>Node6&#45;&gt;Node7</title>
<g id="a_edge7_Node000007_Node000006"><a xlink:title=" ">
<path fill="none" stroke="#63b8ff" d="M70.24,-31.22C78.03,-30.24 86.53,-29.17 95.32,-28.06"/>
<polygon fill="#63b8ff" stroke="#63b8ff" points="69.98,-27.73 60.5,-32.45 70.86,-34.67 69.98,-27.73"/>
</a>
</g>
</g>
<!-- Node7&#45;&gt;Node4 -->
<g id="edge8_Node000004_Node000007" class="edge">
<title>Node7&#45;&gt;Node4</title>
<g id="a_edge8_Node000004_Node000007"><a xlink:title=" ">
<path fill="none" stroke="#9a32cd" stroke-dasharray="5,2" d="M311.41,-10C325.99,-9.48 340.72,-9.04 354.75,-8.75 445.51,-6.86 469.08,3.69 559,-8.75 610.67,-15.9 668.07,-33.52 706.04,-46.59"/>
<polygon fill="#9a32cd" stroke="#9a32cd" points="311.69,-6.49 301.82,-10.35 311.95,-13.48 311.69,-6.49"/>
</a>
</g>
<text text-anchor="middle" x="456.88" y="-22.25" font-family="Helvetica,sans-Serif" font-size="10.00" fill="grey"> curr</text>
<text text-anchor="middle" x="456.88" y="-11" font-family="Helvetica,sans-Serif" font-size="10.00" fill="grey">preFrame</text>
</g>
<!-- Node7&#45;&gt;Node5 -->
<g id="edge6_Node000005_Node000007" class="edge">
<title>Node7&#45;&gt;Node5</title>
<g id="a_edge6_Node000005_Node000007"><a xlink:title=" ">
<path fill="none" stroke="#9a32cd" stroke-dasharray="5,2" d="M311.5,-29.22C320.05,-30.44 328.54,-31.71 336.75,-33 349.22,-34.97 362.39,-37.23 375.24,-39.55"/>
<polygon fill="#9a32cd" stroke="#9a32cd" points="312.13,-25.77 301.74,-27.85 311.16,-32.7 312.13,-25.77"/>
</a>
</g>
<text text-anchor="middle" x="327.38" y="-35" font-family="Helvetica,sans-Serif" font-size="10.00" fill="grey"> last</text>
</g>
<!-- Node8 -->
<g id="Node000008" class="node">
<title>Node8</title>
<g id="a_Node000008"><a xlink:href="interfacecom_1_1fs_1_1starfarer_1_1api_1_1impl_1_1campaign_1_1eventide_1_1DuelEnemyAI.html" target="_top" xlink:title=" ">
<polygon fill="white" stroke="#666666" points="559,-304.5 354.75,-304.5 354.75,-274 559,-274 559,-304.5"/>
<text text-anchor="start" x="362.75" y="-291" font-family="Helvetica,sans-Serif" font-size="10.00">com.fs.starfarer.api.impl.campaign.eventide.</text>
<text text-anchor="middle" x="456.88" y="-279.75" font-family="Helvetica,sans-Serif" font-size="10.00">DuelEnemyAI</text>
</a>
</g>
</g>
<!-- Node8&#45;&gt;Node1 -->
<g id="edge10_Node000001_Node000008" class="edge">
<title>Node8&#45;&gt;Node1</title>
<g id="a_edge10_Node000001_Node000008"><a xlink:title=" ">
<path fill="none" stroke="#9a32cd" stroke-dasharray="5,2" d="M562.17,-271.67C592.63,-266.54 625.73,-260.96 655.46,-255.95"/>
<polygon fill="#9a32cd" stroke="#9a32cd" points="561.84,-268.18 552.56,-273.29 563,-275.08 561.84,-268.18"/>
</a>
</g>
<text text-anchor="middle" x="603.25" y="-270" font-family="Helvetica,sans-Serif" font-size="10.00" fill="grey"> ai</text>
</g>
<!-- Node9 -->
<g id="Node000009" class="node">
<title>Node9</title>
<g id="a_Node000009"><a xlink:href="interfacecom_1_1fs_1_1starfarer_1_1api_1_1impl_1_1campaign_1_1eventide_1_1DuelBackground.html" target="_top" xlink:title=" ">
<polygon fill="white" stroke="#666666" points="559,-255.5 354.75,-255.5 354.75,-225 559,-225 559,-255.5"/>
<text text-anchor="start" x="362.75" y="-242" font-family="Helvetica,sans-Serif" font-size="10.00">com.fs.starfarer.api.impl.campaign.eventide.</text>
<text text-anchor="middle" x="456.88" y="-230.75" font-family="Helvetica,sans-Serif" font-size="10.00">DuelBackground</text>
</a>
</g>
</g>
<!-- Node9&#45;&gt;Node1 -->
<g id="edge11_Node000001_Node000009" class="edge">
<title>Node9&#45;&gt;Node1</title>
<g id="a_edge11_Node000001_Node000009"><a xlink:title=" ">
<path fill="none" stroke="#9a32cd" stroke-dasharray="5,2" d="M570.64,-240.25C595.87,-240.25 622.48,-240.25 647.21,-240.25"/>
<polygon fill="#9a32cd" stroke="#9a32cd" points="570.67,-236.75 560.67,-240.25 570.67,-243.75 570.67,-236.75"/>
</a>
</g>
<text text-anchor="middle" x="603.25" y="-242" font-family="Helvetica,sans-Serif" font-size="10.00" fill="grey"> background</text>
</g>
<!-- Node10&#45;&gt;Node1 -->
<g id="edge12_Node000001_Node000010" class="edge">
<title>Node10&#45;&gt;Node1</title>
<g id="a_edge12_Node000001_Node000010"><a xlink:title=" ">
<path fill="none" stroke="#9a32cd" stroke-dasharray="5,2" d="M537.53,-319.56C544.82,-317.54 552.07,-315.43 559,-313.25 613.17,-296.2 674.21,-271.72 712.05,-255.9"/>
<polygon fill="#9a32cd" stroke="#9a32cd" points="536.68,-316.16 527.93,-322.13 538.49,-322.92 536.68,-316.16"/>
</a>
</g>
<text text-anchor="middle" x="603.25" y="-308" font-family="Helvetica,sans-Serif" font-size="10.00" fill="grey"> prompt</text>
</g>
<!-- Node11 -->
<g id="Node000011" class="node">
<title>Node11</title>
<g id="a_Node000011"><a xlink:title=" ">
<polygon fill="white" stroke="#666666" points="300,-353.5 95.75,-353.5 95.75,-323 300,-323 300,-353.5"/>
<text text-anchor="start" x="103.75" y="-340" font-family="Helvetica,sans-Serif" font-size="10.00">com.fs.starfarer.api.impl.campaign.eventide.</text>
<text text-anchor="middle" x="197.88" y="-328.75" font-family="Helvetica,sans-Serif" font-size="10.00">DuelTutorialPanel.TutStage</text>
</a>
</g>
</g>
<!-- Node11&#45;&gt;Node10 -->
<g id="edge14_Node000010_Node000011" class="edge">
<title>Node11&#45;&gt;Node10</title>
<g id="a_edge14_Node000010_Node000011"><a xlink:title=" ">
<path fill="none" stroke="#9a32cd" stroke-dasharray="5,2" d="M311.81,-338.25C326.06,-338.25 340.57,-338.25 354.62,-338.25"/>
<polygon fill="#9a32cd" stroke="#9a32cd" points="311.96,-334.75 301.96,-338.25 311.96,-341.75 311.96,-334.75"/>
</a>
</g>
<text text-anchor="middle" x="327.38" y="-340" font-family="Helvetica,sans-Serif" font-size="10.00" fill="grey"> curr</text>
</g>
</g>
</svg>

<g id="navigator" transform="translate(0 0)" fill="#404254">
  <rect fill="#f2f5e9" fill-opacity="0.5" stroke="#606060" stroke-width=".5" x="0" y="0" width="60" height="60"/>
  <use id="zoomplus" xlink:href="#zoomPlus" x="17" y="9" onmousedown="handleZoom(evt,'in')"/>
  <use id="zoomminus" xlink:href="#zoomMin" x="42" y="9" onmousedown="handleZoom(evt,'out')"/>
  <use id="reset" xlink:href="#resetDef" x="30" y="36" onmousedown="handleReset()"/>
   <use id="arrowup" xlink:href="#arrowUp" x="0" y="0" onmousedown="handlePan(0,-1)"/>
  <use id="arrowright" xlink:href="#arrowRight" x="0" y="0" onmousedown="handlePan(1,0)"/>
  <use id="arrowdown" xlink:href="#arrowDown" x="0" y="0" onmousedown="handlePan(0,1)"/>
  <use id="arrowleft" xlink:href="#arrowLeft" x="0" y="0" onmousedown="handlePan(-1,0)"/>
</g>
<svg viewBox="0 0 15 15" width="100%" height="30px" preserveAspectRatio="xMaxYMin meet">
 <g id="arrow_out" transform="scale(0.3 0.3)">
  <a xlink:href="classcom_1_1fs_1_1starfarer_1_1api_1_1impl_1_1campaign_1_1eventide_1_1DuelPanel__coll__graph_org.svg" target="_base">
   <rect id="button" ry="5" rx="5" y="6" x="6" height="38" width="38"
        fill="#f2f5e9" fill-opacity="0.5" stroke="#606060" stroke-width="1.0"/>
   <path id="arrow"
     d="M 11.500037,31.436501 C 11.940474,20.09759 22.043105,11.32322 32.158766,21.979434 L 37.068811,17.246167 C 37.068811,17.246167 37.088388,32 37.088388,32 L 22.160133,31.978069 C 22.160133,31.978069 26.997745,27.140456 26.997745,27.140456 C 18.528582,18.264221 13.291696,25.230495 11.500037,31.436501 z"
     style="fill:#404040;"/>
  </a>
 </g>
</svg>

<style type='text/css'>
<![CDATA[
[data-mouse-over-selected='false'] { opacity: 0.7; }
[data-mouse-over-selected='true']  { opacity: 1.0; }
]]>
</style>
<script type="application/ecmascript"><![CDATA[
document.addEventListener('DOMContentLoaded', (event) => {
  highlightEdges();
  highlightAdjacentNodes();
});
]]></script>
</svg>
