<?xml version="1.0" encoding="UTF-8" standalone="no"?>
<!DOCTYPE svg PUBLIC "-//W3C//DTD SVG 1.1//EN"
 "http://www.w3.org/Graphics/SVG/1.1/DTD/svg11.dtd">
<!-- Generated by graphviz version 2.49.3 (20211027.1501)
 -->
<!-- Title: com.fs.starfarer.api.impl.campaign.fleets.PlayerVisibleFleetManager Pages: 1 -->
<svg width="681pt" height="178pt"
 viewBox="0.00 0.00 681.00 178.00" xmlns="http://www.w3.org/2000/svg" xmlns:xlink="http://www.w3.org/1999/xlink">
<g id="graph0" class="graph" transform="scale(1 1) rotate(0) translate(4 174)">
<title>com.fs.starfarer.api.impl.campaign.fleets.PlayerVisibleFleetManager</title>
<!-- Node1 -->
<g id="node1" class="node">
<title>Node1</title>
<g id="a_node1"><a xlink:title=" ">
<polygon fill="#bfbfbf" stroke="black" points="482,-11.5 482,-41.5 673,-41.5 673,-11.5 482,-11.5"/>
<text text-anchor="start" x="490" y="-29.5" font-family="Helvetica,sans-Serif" font-size="10.00">com.fs.starfarer.api.impl.campaign.fleets.</text>
<text text-anchor="middle" x="577.5" y="-18.5" font-family="Helvetica,sans-Serif" font-size="10.00">PlayerVisibleFleetManager</text>
</a>
</g>
</g>
<!-- Node2 -->
<g id="node2" class="node">
<title>Node2</title>
<g id="a_node2"><a xlink:href="classcom_1_1fs_1_1starfarer_1_1api_1_1impl_1_1campaign_1_1fleets_1_1BaseLimitedFleetManager.html" target="_top" xlink:title=" ">
<polygon fill="none" stroke="black" points="254,-55.5 254,-85.5 445,-85.5 445,-55.5 254,-55.5"/>
<text text-anchor="start" x="262" y="-73.5" font-family="Helvetica,sans-Serif" font-size="10.00">com.fs.starfarer.api.impl.campaign.fleets.</text>
<text text-anchor="middle" x="349.5" y="-62.5" font-family="Helvetica,sans-Serif" font-size="10.00">BaseLimitedFleetManager</text>
</a>
</g>
</g>
<!-- Node2&#45;&gt;Node1 -->
<g id="edge1" class="edge">
<title>Node2&#45;&gt;Node1</title>
<path fill="none" stroke="midnightblue" d="M437.53,-53.56C457.88,-49.59 479.43,-45.4 499.32,-41.53"/>
<polygon fill="midnightblue" stroke="midnightblue" points="436.79,-50.13 427.64,-55.48 438.13,-57.01 436.79,-50.13"/>
</g>
<!-- Node3 -->
<g id="node3" class="node">
<title>Node3</title>
<g id="a_node3"><a xlink:href="interfacecom_1_1fs_1_1starfarer_1_1api_1_1EveryFrameScript.html" target="_top" xlink:title=" ">
<polygon fill="none" stroke="black" points="30,-139.5 30,-169.5 155,-169.5 155,-139.5 30,-139.5"/>
<text text-anchor="start" x="38" y="-157.5" font-family="Helvetica,sans-Serif" font-size="10.00">com.fs.starfarer.api.Every</text>
<text text-anchor="middle" x="92.5" y="-146.5" font-family="Helvetica,sans-Serif" font-size="10.00">FrameScript</text>
</a>
</g>
</g>
<!-- Node3&#45;&gt;Node2 -->
<g id="edge2" class="edge">
<title>Node3&#45;&gt;Node2</title>
<path fill="none" stroke="midnightblue" d="M163.98,-136.74C171.1,-134.73 178.21,-132.63 185,-130.5 228.56,-116.83 277.62,-98.41 310.53,-85.6"/>
<polygon fill="midnightblue" stroke="midnightblue" points="162.97,-133.38 154.27,-139.43 164.84,-140.13 162.97,-133.38"/>
</g>
<!-- Node4 -->
<g id="node4" class="node">
<title>Node4</title>
<g id="a_node4"><a xlink:href="interfacecom_1_1fs_1_1starfarer_1_1api_1_1campaign_1_1listeners_1_1FleetEventListener.html" target="_top" xlink:title=" ">
<polygon fill="none" stroke="black" points="0,-90.5 0,-120.5 185,-120.5 185,-90.5 0,-90.5"/>
<text text-anchor="start" x="8" y="-108.5" font-family="Helvetica,sans-Serif" font-size="10.00">com.fs.starfarer.api.campaign.listeners.</text>
<text text-anchor="middle" x="92.5" y="-97.5" font-family="Helvetica,sans-Serif" font-size="10.00">FleetEventListener</text>
</a>
</g>
</g>
<!-- Node4&#45;&gt;Node2 -->
<g id="edge3" class="edge">
<title>Node4&#45;&gt;Node2</title>
<path fill="none" stroke="midnightblue" d="M195.21,-91.54C214.53,-88.89 234.66,-86.12 253.75,-83.51"/>
<polygon fill="midnightblue" stroke="midnightblue" points="194.63,-88.09 185.2,-92.91 195.58,-95.02 194.63,-88.09"/>
</g>
<!-- Node5 -->
<g id="node5" class="node">
<title>Node5</title>
<g id="a_node5"><a xlink:title=" ">
<polygon fill="none" stroke="#bfbfbf" points="69,-52 69,-71 116,-71 116,-52 69,-52"/>
<text text-anchor="middle" x="92.5" y="-59" font-family="Helvetica,sans-Serif" font-size="10.00">Logger</text>
</a>
</g>
</g>
<!-- Node5&#45;&gt;Node2 -->
<g id="edge4" class="edge">
<title>Node5&#45;&gt;Node2</title>
<path fill="none" stroke="#9a32cd" stroke-dasharray="5,2" d="M126.3,-62.66C158.49,-63.79 209.13,-65.58 253.95,-67.16"/>
<polygon fill="#9a32cd" stroke="#9a32cd" points="126.25,-59.15 116.13,-62.3 126,-66.15 126.25,-59.15"/>
<text text-anchor="middle" x="219.5" y="-68.5" font-family="Helvetica,sans-Serif" font-size="10.00"> log</text>
</g>
<!-- Node6 -->
<g id="node6" class="node">
<title>Node6</title>
<g id="a_node6"><a xlink:href="classcom_1_1fs_1_1starfarer_1_1api_1_1util_1_1IntervalUtil.html" target="_top" xlink:title=" ">
<polygon fill="none" stroke="black" points="34.5,-0.5 34.5,-30.5 150.5,-30.5 150.5,-0.5 34.5,-0.5"/>
<text text-anchor="start" x="42.5" y="-18.5" font-family="Helvetica,sans-Serif" font-size="10.00">com.fs.starfarer.api.util.</text>
<text text-anchor="middle" x="92.5" y="-7.5" font-family="Helvetica,sans-Serif" font-size="10.00">IntervalUtil</text>
</a>
</g>
</g>
<!-- Node6&#45;&gt;Node1 -->
<g id="edge6" class="edge">
<title>Node6&#45;&gt;Node1</title>
<path fill="none" stroke="#9a32cd" stroke-dasharray="5,2" d="M160.94,-17.04C244.52,-18.94 387.44,-22.19 481.93,-24.35"/>
<polygon fill="#9a32cd" stroke="#9a32cd" points="160.88,-13.53 150.8,-16.81 160.72,-20.53 160.88,-13.53"/>
<text text-anchor="middle" x="349.5" y="-26.5" font-family="Helvetica,sans-Serif" font-size="10.00"> despawnTracker</text>
</g>
<!-- Node6&#45;&gt;Node2 -->
<g id="edge5" class="edge">
<title>Node6&#45;&gt;Node2</title>
<path fill="none" stroke="#9a32cd" stroke-dasharray="5,2" d="M160.75,-30C197.12,-37.85 241.99,-47.53 278.74,-55.45"/>
<polygon fill="#9a32cd" stroke="#9a32cd" points="161.24,-26.53 150.73,-27.84 159.76,-33.37 161.24,-26.53"/>
<text text-anchor="middle" x="219.5" y="-47.5" font-family="Helvetica,sans-Serif" font-size="10.00"> tracker</text>
</g>
</g>
</svg>
