<?xml version="1.0" encoding="UTF-8" standalone="no"?>
<!DOCTYPE svg PUBLIC "-//W3C//DTD SVG 1.1//EN"
 "http://www.w3.org/Graphics/SVG/1.1/DTD/svg11.dtd">
<!-- Generated by graphviz version 2.44.0 ()
 -->
<!-- Title: com.fs.starfarer.api.impl.campaign.rulecmd.salvage.PrintWreckDescription Pages: 1 -->
<svg width="1093pt" height="439pt"
 viewBox="0.00 0.00 1093.00 439.00" xmlns="http://www.w3.org/2000/svg" xmlns:xlink="http://www.w3.org/1999/xlink">
<g id="graph0" class="graph" transform="scale(1 1) rotate(0) translate(4 435)">
<title>com.fs.starfarer.api.impl.campaign.rulecmd.salvage.PrintWreckDescription</title>
<!-- Node1 -->
<g id="node1" class="node">
<title>Node1</title>
<g id="a_node1"><a xlink:title=" ">
<polygon fill="#bfbfbf" stroke="black" points="846,-196.5 846,-226.5 1085,-226.5 1085,-196.5 846,-196.5"/>
<text text-anchor="start" x="854" y="-214.5" font-family="Helvetica,sans-Serif" font-size="10.00">com.fs.starfarer.api.impl.campaign.rulecmd.salvage.</text>
<text text-anchor="middle" x="965.5" y="-203.5" font-family="Helvetica,sans-Serif" font-size="10.00">PrintWreckDescription</text>
</a>
</g>
</g>
<!-- Node2 -->
<g id="node2" class="node">
<title>Node2</title>
<g id="a_node2"><a xlink:href="classcom_1_1fs_1_1starfarer_1_1api_1_1impl_1_1campaign_1_1rulecmd_1_1BaseCommandPlugin.html" target="_top" xlink:title=" ">
<polygon fill="none" stroke="black" points="557,-400.5 557,-430.5 760,-430.5 760,-400.5 557,-400.5"/>
<text text-anchor="start" x="565" y="-418.5" font-family="Helvetica,sans-Serif" font-size="10.00">com.fs.starfarer.api.impl.campaign.rulecmd.</text>
<text text-anchor="middle" x="658.5" y="-407.5" font-family="Helvetica,sans-Serif" font-size="10.00">BaseCommandPlugin</text>
</a>
</g>
</g>
<!-- Node2&#45;&gt;Node1 -->
<g id="edge1" class="edge">
<title>Node2&#45;&gt;Node1</title>
<path fill="none" stroke="midnightblue" d="M740.61,-397.75C747.22,-395.82 753.76,-393.73 760,-391.5 791.63,-380.2 801,-378.48 828,-358.5 882.03,-318.51 932.18,-255.27 953.58,-226.56"/>
<polygon fill="midnightblue" stroke="midnightblue" points="739.57,-394.41 730.89,-400.49 741.47,-401.15 739.57,-394.41"/>
</g>
<!-- Node3 -->
<g id="node3" class="node">
<title>Node3</title>
<g id="a_node3"><a xlink:href="interfacecom_1_1fs_1_1starfarer_1_1api_1_1campaign_1_1rules_1_1CommandPlugin.html" target="_top" xlink:title=" ">
<polygon fill="none" stroke="black" points="206,-400.5 206,-430.5 375,-430.5 375,-400.5 206,-400.5"/>
<text text-anchor="start" x="214" y="-418.5" font-family="Helvetica,sans-Serif" font-size="10.00">com.fs.starfarer.api.campaign.rules.</text>
<text text-anchor="middle" x="290.5" y="-407.5" font-family="Helvetica,sans-Serif" font-size="10.00">CommandPlugin</text>
</a>
</g>
</g>
<!-- Node3&#45;&gt;Node2 -->
<g id="edge2" class="edge">
<title>Node3&#45;&gt;Node2</title>
<path fill="none" stroke="midnightblue" d="M385.32,-415.5C437.79,-415.5 503.21,-415.5 556.76,-415.5"/>
<polygon fill="midnightblue" stroke="midnightblue" points="385.01,-412 375.01,-415.5 385.01,-419 385.01,-412"/>
</g>
<!-- Node4 -->
<g id="node4" class="node">
<title>Node4</title>
<g id="a_node4"><a xlink:href="interfacecom_1_1fs_1_1starfarer_1_1api_1_1campaign_1_1CargoAPI.html" target="_top" xlink:title=" ">
<polygon fill="none" stroke="black" points="585.5,-351.5 585.5,-381.5 731.5,-381.5 731.5,-351.5 585.5,-351.5"/>
<text text-anchor="start" x="593.5" y="-369.5" font-family="Helvetica,sans-Serif" font-size="10.00">com.fs.starfarer.api.campaign.</text>
<text text-anchor="middle" x="658.5" y="-358.5" font-family="Helvetica,sans-Serif" font-size="10.00">CargoAPI</text>
</a>
</g>
</g>
<!-- Node4&#45;&gt;Node1 -->
<g id="edge3" class="edge">
<title>Node4&#45;&gt;Node1</title>
<path fill="none" stroke="#9a32cd" stroke-dasharray="5,2" d="M741.58,-353.73C769.94,-347.35 801.28,-338 828,-324.5 878.8,-298.83 927.46,-251.25 950.55,-226.83"/>
<polygon fill="#9a32cd" stroke="#9a32cd" points="740.72,-350.34 731.69,-355.87 742.2,-357.18 740.72,-350.34"/>
<text text-anchor="middle" x="803" y="-346.5" font-family="Helvetica,sans-Serif" font-size="10.00"> cargo</text>
</g>
<!-- Node5 -->
<g id="node5" class="node">
<title>Node5</title>
<g id="a_node5"><a xlink:href="interfacecom_1_1fs_1_1starfarer_1_1api_1_1campaign_1_1FactionAPI.html" target="_top" xlink:title=" ">
<polygon fill="none" stroke="black" points="393,-294.5 393,-324.5 539,-324.5 539,-294.5 393,-294.5"/>
<text text-anchor="start" x="401" y="-312.5" font-family="Helvetica,sans-Serif" font-size="10.00">com.fs.starfarer.api.campaign.</text>
<text text-anchor="middle" x="466" y="-301.5" font-family="Helvetica,sans-Serif" font-size="10.00">FactionAPI</text>
</a>
</g>
</g>
<!-- Node5&#45;&gt;Node1 -->
<g id="edge4" class="edge">
<title>Node5&#45;&gt;Node1</title>
<path fill="none" stroke="#9a32cd" stroke-dasharray="5,2" d="M549.46,-310.58C623.62,-309.59 734.88,-303.21 828,-277.5 869.36,-266.08 913.39,-242.45 939.92,-226.78"/>
<polygon fill="#9a32cd" stroke="#9a32cd" points="549.21,-307.08 539.25,-310.69 549.28,-314.08 549.21,-307.08"/>
<text text-anchor="middle" x="658.5" y="-323.5" font-family="Helvetica,sans-Serif" font-size="10.00"> entityFaction</text>
<text text-anchor="middle" x="658.5" y="-312.5" font-family="Helvetica,sans-Serif" font-size="10.00">playerFaction</text>
</g>
<!-- Node6 -->
<g id="node6" class="node">
<title>Node6</title>
<g id="a_node6"><a xlink:href="interfacecom_1_1fs_1_1starfarer_1_1api_1_1campaign_1_1rules_1_1HasMemory.html" target="_top" xlink:title=" ">
<polygon fill="none" stroke="black" points="0,-270.5 0,-300.5 169,-300.5 169,-270.5 0,-270.5"/>
<text text-anchor="start" x="8" y="-288.5" font-family="Helvetica,sans-Serif" font-size="10.00">com.fs.starfarer.api.campaign.rules.</text>
<text text-anchor="middle" x="84.5" y="-277.5" font-family="Helvetica,sans-Serif" font-size="10.00">HasMemory</text>
</a>
</g>
</g>
<!-- Node6&#45;&gt;Node5 -->
<g id="edge5" class="edge">
<title>Node6&#45;&gt;Node5</title>
<path fill="none" stroke="midnightblue" d="M179.25,-291.43C245.27,-295.6 332.36,-301.11 392.96,-304.94"/>
<polygon fill="midnightblue" stroke="midnightblue" points="179.45,-287.93 169.25,-290.8 179.01,-294.92 179.45,-287.93"/>
</g>
<!-- Node7 -->
<g id="node7" class="node">
<title>Node7</title>
<g id="a_node7"><a xlink:href="interfacecom_1_1fs_1_1starfarer_1_1api_1_1campaign_1_1SectorEntityToken.html" target="_top" xlink:title=" ">
<polygon fill="none" stroke="black" points="217.5,-248.5 217.5,-278.5 363.5,-278.5 363.5,-248.5 217.5,-248.5"/>
<text text-anchor="start" x="225.5" y="-266.5" font-family="Helvetica,sans-Serif" font-size="10.00">com.fs.starfarer.api.campaign.</text>
<text text-anchor="middle" x="290.5" y="-255.5" font-family="Helvetica,sans-Serif" font-size="10.00">SectorEntityToken</text>
</a>
</g>
</g>
<!-- Node6&#45;&gt;Node7 -->
<g id="edge7" class="edge">
<title>Node6&#45;&gt;Node7</title>
<path fill="none" stroke="midnightblue" d="M179.3,-275.38C192.13,-274 205.13,-272.6 217.49,-271.27"/>
<polygon fill="midnightblue" stroke="midnightblue" points="178.63,-271.94 169.06,-276.49 179.38,-278.9 178.63,-271.94"/>
</g>
<!-- Node7&#45;&gt;Node1 -->
<g id="edge6" class="edge">
<title>Node7&#45;&gt;Node1</title>
<path fill="none" stroke="#9a32cd" stroke-dasharray="5,2" d="M374.11,-260.37C467.8,-256.44 625.09,-248.7 760,-236.5 789.92,-233.79 822.23,-230.17 852.13,-226.53"/>
<polygon fill="#9a32cd" stroke="#9a32cd" points="373.69,-256.89 363.84,-260.8 373.98,-263.88 373.69,-256.89"/>
<text text-anchor="middle" x="658.5" y="-253.5" font-family="Helvetica,sans-Serif" font-size="10.00"> entity</text>
</g>
<!-- Node8 -->
<g id="node8" class="node">
<title>Node8</title>
<g id="a_node8"><a xlink:href="interfacecom_1_1fs_1_1starfarer_1_1api_1_1campaign_1_1CampaignFleetAPI.html" target="_top" xlink:title=" ">
<polygon fill="none" stroke="black" points="585.5,-196.5 585.5,-226.5 731.5,-226.5 731.5,-196.5 585.5,-196.5"/>
<text text-anchor="start" x="593.5" y="-214.5" font-family="Helvetica,sans-Serif" font-size="10.00">com.fs.starfarer.api.campaign.</text>
<text text-anchor="middle" x="658.5" y="-203.5" font-family="Helvetica,sans-Serif" font-size="10.00">CampaignFleetAPI</text>
</a>
</g>
</g>
<!-- Node7&#45;&gt;Node8 -->
<g id="edge9" class="edge">
<title>Node7&#45;&gt;Node8</title>
<path fill="none" stroke="midnightblue" d="M373.8,-251.81C437.37,-242.78 524.48,-230.4 585.34,-221.75"/>
<polygon fill="midnightblue" stroke="midnightblue" points="373.22,-248.35 363.81,-253.23 374.2,-255.28 373.22,-248.35"/>
</g>
<!-- Node8&#45;&gt;Node1 -->
<g id="edge8" class="edge">
<title>Node8&#45;&gt;Node1</title>
<path fill="none" stroke="#9a32cd" stroke-dasharray="5,2" d="M741.97,-211.5C773.96,-211.5 811.19,-211.5 845.95,-211.5"/>
<polygon fill="#9a32cd" stroke="#9a32cd" points="741.78,-208 731.78,-211.5 741.78,-215 741.78,-208"/>
<text text-anchor="middle" x="803" y="-214.5" font-family="Helvetica,sans-Serif" font-size="10.00"> playerFleet</text>
</g>
<!-- Node9 -->
<g id="node9" class="node">
<title>Node9</title>
<g id="a_node9"><a xlink:href="interfacecom_1_1fs_1_1starfarer_1_1api_1_1campaign_1_1FleetOrStubAPI.html" target="_top" xlink:title=" ">
<polygon fill="none" stroke="black" points="217.5,-196.5 217.5,-226.5 363.5,-226.5 363.5,-196.5 217.5,-196.5"/>
<text text-anchor="start" x="225.5" y="-214.5" font-family="Helvetica,sans-Serif" font-size="10.00">com.fs.starfarer.api.campaign.</text>
<text text-anchor="middle" x="290.5" y="-203.5" font-family="Helvetica,sans-Serif" font-size="10.00">FleetOrStubAPI</text>
</a>
</g>
</g>
<!-- Node9&#45;&gt;Node8 -->
<g id="edge10" class="edge">
<title>Node9&#45;&gt;Node8</title>
<path fill="none" stroke="midnightblue" d="M374.19,-211.5C437.73,-211.5 524.6,-211.5 585.34,-211.5"/>
<polygon fill="midnightblue" stroke="midnightblue" points="373.81,-208 363.81,-211.5 373.81,-215 373.81,-208"/>
</g>
<!-- Node10 -->
<g id="node10" class="node">
<title>Node10</title>
<g id="a_node10"><a xlink:href="interfacecom_1_1fs_1_1starfarer_1_1api_1_1campaign_1_1OptionPanelAPI.html" target="_top" xlink:title=" ">
<polygon fill="none" stroke="black" points="585.5,-147.5 585.5,-177.5 731.5,-177.5 731.5,-147.5 585.5,-147.5"/>
<text text-anchor="start" x="593.5" y="-165.5" font-family="Helvetica,sans-Serif" font-size="10.00">com.fs.starfarer.api.campaign.</text>
<text text-anchor="middle" x="658.5" y="-154.5" font-family="Helvetica,sans-Serif" font-size="10.00">OptionPanelAPI</text>
</a>
</g>
</g>
<!-- Node10&#45;&gt;Node1 -->
<g id="edge11" class="edge">
<title>Node10&#45;&gt;Node1</title>
<path fill="none" stroke="#9a32cd" stroke-dasharray="5,2" d="M741.74,-175.71C781.65,-182.12 829.77,-189.85 871.06,-196.49"/>
<polygon fill="#9a32cd" stroke="#9a32cd" points="742.21,-172.24 731.78,-174.11 741.1,-179.15 742.21,-172.24"/>
<text text-anchor="middle" x="803" y="-190.5" font-family="Helvetica,sans-Serif" font-size="10.00"> options</text>
</g>
<!-- Node11 -->
<g id="node11" class="node">
<title>Node11</title>
<g id="a_node11"><a xlink:href="interfacecom_1_1fs_1_1starfarer_1_1api_1_1campaign_1_1rules_1_1MemoryAPI.html" target="_top" xlink:title=" ">
<polygon fill="none" stroke="black" points="574,-98.5 574,-128.5 743,-128.5 743,-98.5 574,-98.5"/>
<text text-anchor="start" x="582" y="-116.5" font-family="Helvetica,sans-Serif" font-size="10.00">com.fs.starfarer.api.campaign.rules.</text>
<text text-anchor="middle" x="658.5" y="-105.5" font-family="Helvetica,sans-Serif" font-size="10.00">MemoryAPI</text>
</a>
</g>
</g>
<!-- Node11&#45;&gt;Node1 -->
<g id="edge12" class="edge">
<title>Node11&#45;&gt;Node1</title>
<path fill="none" stroke="#9a32cd" stroke-dasharray="5,2" d="M733.99,-131.15C742.8,-133.5 751.62,-135.97 760,-138.5 818.64,-156.21 885.23,-180.85 926.06,-196.49"/>
<polygon fill="#9a32cd" stroke="#9a32cd" points="734.66,-127.71 724.1,-128.56 732.88,-134.48 734.66,-127.71"/>
<text text-anchor="middle" x="803" y="-161.5" font-family="Helvetica,sans-Serif" font-size="10.00"> memory</text>
</g>
<!-- Node12 -->
<g id="node12" class="node">
<title>Node12</title>
<g id="a_node12"><a xlink:href="interfacecom_1_1fs_1_1starfarer_1_1api_1_1campaign_1_1TextPanelAPI.html" target="_top" xlink:title=" ">
<polygon fill="none" stroke="black" points="585.5,-49.5 585.5,-79.5 731.5,-79.5 731.5,-49.5 585.5,-49.5"/>
<text text-anchor="start" x="593.5" y="-67.5" font-family="Helvetica,sans-Serif" font-size="10.00">com.fs.starfarer.api.campaign.</text>
<text text-anchor="middle" x="658.5" y="-56.5" font-family="Helvetica,sans-Serif" font-size="10.00">TextPanelAPI</text>
</a>
</g>
</g>
<!-- Node12&#45;&gt;Node1 -->
<g id="edge13" class="edge">
<title>Node12&#45;&gt;Node1</title>
<path fill="none" stroke="#9a32cd" stroke-dasharray="5,2" d="M740.63,-82.51C747.26,-84.64 753.79,-86.96 760,-89.5 831.95,-118.89 908.51,-170.91 944.11,-196.47"/>
<polygon fill="#9a32cd" stroke="#9a32cd" points="741.46,-79.11 730.88,-79.54 739.42,-85.8 741.46,-79.11"/>
<text text-anchor="middle" x="803" y="-123.5" font-family="Helvetica,sans-Serif" font-size="10.00"> text</text>
</g>
<!-- Node13 -->
<g id="node13" class="node">
<title>Node13</title>
<g id="a_node13"><a xlink:href="interfacecom_1_1fs_1_1starfarer_1_1api_1_1campaign_1_1InteractionDialogAPI.html" target="_top" xlink:title=" ">
<polygon fill="none" stroke="black" points="585.5,-0.5 585.5,-30.5 731.5,-30.5 731.5,-0.5 585.5,-0.5"/>
<text text-anchor="start" x="593.5" y="-18.5" font-family="Helvetica,sans-Serif" font-size="10.00">com.fs.starfarer.api.campaign.</text>
<text text-anchor="middle" x="658.5" y="-7.5" font-family="Helvetica,sans-Serif" font-size="10.00">InteractionDialogAPI</text>
</a>
</g>
</g>
<!-- Node13&#45;&gt;Node1 -->
<g id="edge14" class="edge">
<title>Node13&#45;&gt;Node1</title>
<path fill="none" stroke="#9a32cd" stroke-dasharray="5,2" d="M741.11,-33.34C747.59,-35.5 753.96,-37.88 760,-40.5 845.35,-77.5 922.74,-161.81 952.06,-196.34"/>
<polygon fill="#9a32cd" stroke="#9a32cd" points="742.15,-30 731.56,-30.34 740.05,-36.68 742.15,-30"/>
<text text-anchor="middle" x="803" y="-78.5" font-family="Helvetica,sans-Serif" font-size="10.00"> dialog</text>
</g>
</g>
</svg>
