<?xml version="1.0" encoding="UTF-8" standalone="no"?>
<!DOCTYPE svg PUBLIC "-//W3C//DTD SVG 1.1//EN"
 "http://www.w3.org/Graphics/SVG/1.1/DTD/svg11.dtd">
<!-- Generated by graphviz version 7.0.5 (20221223.1930)
 -->
<!-- Title: com.fs.starfarer.api.impl.campaign.rulecmd.salvage.PrintWreckDescription Pages: 1 -->
<svg width="1659pt" height="500pt"
 viewBox="0.00 0.00 1659.00 500.00" xmlns="http://www.w3.org/2000/svg" xmlns:xlink="http://www.w3.org/1999/xlink">
<g id="graph0" class="graph" transform="scale(1 1) rotate(0) translate(4 496)">
<title>com.fs.starfarer.api.impl.campaign.rulecmd.salvage.PrintWreckDescription</title>
<!-- Node1 -->
<g id="node1" class="node">
<title>Node1</title>
<g id="a_node1"><a xlink:title=" ">
<polygon fill="#999999" stroke="#666666" points="1651,-270 1412,-270 1412,-240 1651,-240 1651,-270"/>
<text text-anchor="start" x="1420" y="-258" font-family="Helvetica,sans-Serif" font-size="10.00">com.fs.starfarer.api.impl.campaign.rulecmd.salvage.</text>
<text text-anchor="middle" x="1531.5" y="-247" font-family="Helvetica,sans-Serif" font-size="10.00">PrintWreckDescription</text>
</a>
</g>
</g>
<!-- Node2 -->
<g id="node2" class="node">
<title>Node2</title>
<g id="a_node2"><a xlink:href="classcom_1_1fs_1_1starfarer_1_1api_1_1impl_1_1campaign_1_1rulecmd_1_1BaseCommandPlugin.html" target="_top" xlink:title=" ">
<polygon fill="white" stroke="#bfbfbf" points="1308,-492 1105,-492 1105,-462 1308,-462 1308,-492"/>
<text text-anchor="start" x="1113" y="-480" font-family="Helvetica,sans-Serif" font-size="10.00">com.fs.starfarer.api.impl.campaign.rulecmd.</text>
<text text-anchor="middle" x="1206.5" y="-469" font-family="Helvetica,sans-Serif" font-size="10.00">BaseCommandPlugin</text>
</a>
</g>
</g>
<!-- Node2&#45;&gt;Node1 -->
<g id="edge1" class="edge">
<title>Node2&#45;&gt;Node1</title>
<path fill="none" stroke="#63b8ff" d="M1319.51,-474.24C1345.4,-469.74 1371.82,-461.74 1394,-448 1464.99,-404.01 1509.37,-308 1524.59,-270.47"/>
<polygon fill="#63b8ff" stroke="#63b8ff" points="1319.31,-470.73 1309.96,-475.73 1320.38,-477.65 1319.31,-470.73"/>
</g>
<!-- Node3 -->
<g id="node3" class="node">
<title>Node3</title>
<g id="a_node3"><a xlink:href="interfacecom_1_1fs_1_1starfarer_1_1api_1_1campaign_1_1rules_1_1CommandPlugin.html" target="_top" xlink:title=" ">
<polygon fill="white" stroke="#bfbfbf" points="986,-492 817,-492 817,-462 986,-462 986,-492"/>
<text text-anchor="start" x="825" y="-480" font-family="Helvetica,sans-Serif" font-size="10.00">com.fs.starfarer.api.campaign.rules.</text>
<text text-anchor="middle" x="901.5" y="-469" font-family="Helvetica,sans-Serif" font-size="10.00">CommandPlugin</text>
</a>
</g>
</g>
<!-- Node3&#45;&gt;Node2 -->
<g id="edge2" class="edge">
<title>Node3&#45;&gt;Node2</title>
<path fill="none" stroke="#63b8ff" d="M997.47,-477C1031.56,-477 1070.1,-477 1104.67,-477"/>
<polygon fill="#63b8ff" stroke="#63b8ff" points="997.61,-473.5 987.61,-477 997.61,-480.5 997.61,-473.5"/>
</g>
<!-- Node4 -->
<g id="node4" class="node">
<title>Node4</title>
<g id="a_node4"><a xlink:href="interfacecom_1_1fs_1_1starfarer_1_1api_1_1campaign_1_1CampaignFleetAPI.html" target="_top" xlink:title=" ">
<polygon fill="white" stroke="#666666" points="974.5,-406 828.5,-406 828.5,-376 974.5,-376 974.5,-406"/>
<text text-anchor="start" x="836.5" y="-394" font-family="Helvetica,sans-Serif" font-size="10.00">com.fs.starfarer.api.campaign.</text>
<text text-anchor="middle" x="901.5" y="-383" font-family="Helvetica,sans-Serif" font-size="10.00">CampaignFleetAPI</text>
</a>
</g>
</g>
<!-- Node4&#45;&gt;Node1 -->
<g id="edge3" class="edge">
<title>Node4&#45;&gt;Node1</title>
<path fill="none" stroke="#9a32cd" stroke-dasharray="5,2" d="M986.08,-400.2C1086.43,-408.02 1258.17,-411.03 1394,-360 1445.78,-340.55 1494.01,-294.38 1516.77,-270.26"/>
<polygon fill="#9a32cd" stroke="#9a32cd" points="986.57,-396.73 976.32,-399.4 986,-403.7 986.57,-396.73"/>
<text text-anchor="middle" x="1206.5" y="-407" font-family="Helvetica,sans-Serif" font-size="10.00"> playerFleet</text>
</g>
<!-- Node5 -->
<g id="node5" class="node">
<title>Node5</title>
<g id="a_node5"><a xlink:href="interfacecom_1_1fs_1_1starfarer_1_1api_1_1campaign_1_1SectorEntityToken.html" target="_top" xlink:title=" ">
<polygon fill="white" stroke="#666666" points="559,-361 413,-361 413,-331 559,-331 559,-361"/>
<text text-anchor="start" x="421" y="-349" font-family="Helvetica,sans-Serif" font-size="10.00">com.fs.starfarer.api.campaign.</text>
<text text-anchor="middle" x="486" y="-338" font-family="Helvetica,sans-Serif" font-size="10.00">SectorEntityToken</text>
</a>
</g>
</g>
<!-- Node5&#45;&gt;Node1 -->
<g id="edge7" class="edge">
<title>Node5&#45;&gt;Node1</title>
<path fill="none" stroke="#9a32cd" stroke-dasharray="5,2" d="M570.8,-347.34C752.58,-349.71 1178.13,-352.26 1320,-327 1384.07,-315.59 1455,-288.01 1495.99,-270.49"/>
<polygon fill="#9a32cd" stroke="#9a32cd" points="571.01,-343.84 560.96,-347.21 570.91,-350.84 571.01,-343.84"/>
<text text-anchor="middle" x="1046" y="-349" font-family="Helvetica,sans-Serif" font-size="10.00"> entity</text>
</g>
<!-- Node5&#45;&gt;Node4 -->
<g id="edge4" class="edge">
<title>Node5&#45;&gt;Node4</title>
<path fill="none" stroke="#63b8ff" d="M570.85,-355.13C646.39,-363.35 756.29,-375.31 828.08,-383.12"/>
<polygon fill="#63b8ff" stroke="#63b8ff" points="571.32,-351.66 561,-354.05 570.57,-358.62 571.32,-351.66"/>
</g>
<!-- Node15 -->
<g id="node15" class="node">
<title>Node15</title>
<g id="a_node15"><a xlink:href="classcom_1_1fs_1_1starfarer_1_1api_1_1impl_1_1campaign_1_1BaseCustomEntityPlugin.html" target="_top" xlink:title=" ">
<polygon fill="white" stroke="#bfbfbf" points="984.5,-238 818.5,-238 818.5,-208 984.5,-208 984.5,-238"/>
<text text-anchor="start" x="826.5" y="-226" font-family="Helvetica,sans-Serif" font-size="10.00">com.fs.starfarer.api.impl.campaign.</text>
<text text-anchor="middle" x="901.5" y="-215" font-family="Helvetica,sans-Serif" font-size="10.00">BaseCustomEntityPlugin</text>
</a>
</g>
</g>
<!-- Node5&#45;&gt;Node15 -->
<g id="edge18" class="edge">
<title>Node5&#45;&gt;Node15</title>
<path fill="none" stroke="#9a32cd" stroke-dasharray="5,2" d="M570.53,-332.91C644.76,-320.7 747.31,-302.3 786,-288 820.09,-275.4 856,-253.38 878.32,-238.5"/>
<polygon fill="#9a32cd" stroke="#9a32cd" points="570.13,-329.42 560.83,-334.49 571.26,-336.33 570.13,-329.42"/>
<text text-anchor="middle" x="713" y="-323" font-family="Helvetica,sans-Serif" font-size="10.00"> entity</text>
</g>
<!-- Node22 -->
<g id="node22" class="node">
<title>Node22</title>
<g id="a_node22"><a xlink:href="classcom_1_1fs_1_1starfarer_1_1api_1_1impl_1_1campaign_1_1GenericCampaignEntitySprite.html" target="_top" xlink:title=" ">
<polygon fill="white" stroke="#bfbfbf" points="984.5,-156 818.5,-156 818.5,-126 984.5,-126 984.5,-156"/>
<text text-anchor="start" x="826.5" y="-144" font-family="Helvetica,sans-Serif" font-size="10.00">com.fs.starfarer.api.impl.campaign.</text>
<text text-anchor="middle" x="901.5" y="-133" font-family="Helvetica,sans-Serif" font-size="10.00">GenericCampaignEntitySprite</text>
</a>
</g>
</g>
<!-- Node5&#45;&gt;Node22 -->
<g id="edge26" class="edge">
<title>Node5&#45;&gt;Node22</title>
<path fill="none" stroke="#9a32cd" stroke-dasharray="5,2" d="M528.37,-325.49C611.2,-284.43 795.76,-192.93 869.34,-156.45"/>
<polygon fill="#9a32cd" stroke="#9a32cd" points="526.84,-322.34 519.44,-329.92 529.95,-328.61 526.84,-322.34"/>
<text text-anchor="middle" x="713" y="-270" font-family="Helvetica,sans-Serif" font-size="10.00"> entity</text>
</g>
<!-- Node6 -->
<g id="node6" class="node">
<title>Node6</title>
<g id="a_node6"><a xlink:href="interfacecom_1_1fs_1_1starfarer_1_1api_1_1campaign_1_1rules_1_1HasMemory.html" target="_top" xlink:title=" ">
<polygon fill="white" stroke="#bfbfbf" points="220.5,-424 51.5,-424 51.5,-394 220.5,-394 220.5,-424"/>
<text text-anchor="start" x="59.5" y="-412" font-family="Helvetica,sans-Serif" font-size="10.00">com.fs.starfarer.api.campaign.rules.</text>
<text text-anchor="middle" x="136" y="-401" font-family="Helvetica,sans-Serif" font-size="10.00">HasMemory</text>
</a>
</g>
</g>
<!-- Node6&#45;&gt;Node5 -->
<g id="edge5" class="edge">
<title>Node6&#45;&gt;Node5</title>
<path fill="none" stroke="#63b8ff" d="M231.98,-391.81C288.91,-381.5 360.16,-368.6 412.53,-359.12"/>
<polygon fill="#63b8ff" stroke="#63b8ff" points="231.5,-388.33 222.29,-393.56 232.75,-395.22 231.5,-388.33"/>
</g>
<!-- Node8 -->
<g id="node8" class="node">
<title>Node8</title>
<g id="a_node8"><a xlink:href="interfacecom_1_1fs_1_1starfarer_1_1api_1_1campaign_1_1FactionAPI.html" target="_top" xlink:title=" ">
<polygon fill="white" stroke="#666666" points="786,-451 640,-451 640,-421 786,-421 786,-451"/>
<text text-anchor="start" x="648" y="-439" font-family="Helvetica,sans-Serif" font-size="10.00">com.fs.starfarer.api.campaign.</text>
<text text-anchor="middle" x="713" y="-428" font-family="Helvetica,sans-Serif" font-size="10.00">FactionAPI</text>
</a>
</g>
</g>
<!-- Node6&#45;&gt;Node8 -->
<g id="edge9" class="edge">
<title>Node6&#45;&gt;Node8</title>
<path fill="none" stroke="#63b8ff" d="M232.1,-413.47C346.65,-418.84 536.51,-427.76 639.74,-432.61"/>
<polygon fill="#63b8ff" stroke="#63b8ff" points="232.58,-409.98 222.43,-413.01 232.25,-416.98 232.58,-409.98"/>
</g>
<!-- Node7 -->
<g id="node7" class="node">
<title>Node7</title>
<g id="a_node7"><a xlink:href="interfacecom_1_1fs_1_1starfarer_1_1api_1_1campaign_1_1FleetOrStubAPI.html" target="_top" xlink:title=" ">
<polygon fill="white" stroke="#bfbfbf" points="559,-410 413,-410 413,-380 559,-380 559,-410"/>
<text text-anchor="start" x="421" y="-398" font-family="Helvetica,sans-Serif" font-size="10.00">com.fs.starfarer.api.campaign.</text>
<text text-anchor="middle" x="486" y="-387" font-family="Helvetica,sans-Serif" font-size="10.00">FleetOrStubAPI</text>
</a>
</g>
</g>
<!-- Node7&#45;&gt;Node4 -->
<g id="edge6" class="edge">
<title>Node7&#45;&gt;Node4</title>
<path fill="none" stroke="#63b8ff" d="M570.85,-394.19C646.39,-393.46 756.29,-392.4 828.08,-391.7"/>
<polygon fill="#63b8ff" stroke="#63b8ff" points="570.98,-390.69 561.01,-394.28 571.05,-397.69 570.98,-390.69"/>
</g>
<!-- Node8&#45;&gt;Node1 -->
<g id="edge8" class="edge">
<title>Node8&#45;&gt;Node1</title>
<path fill="none" stroke="#9a32cd" stroke-dasharray="5,2" d="M797.54,-438.21C939.98,-441.21 1223.78,-443.69 1320,-419 1410.87,-395.68 1489.69,-306.64 1518.67,-270.44"/>
<polygon fill="#9a32cd" stroke="#9a32cd" points="797.87,-434.71 787.8,-438 797.72,-441.71 797.87,-434.71"/>
<text text-anchor="middle" x="1046" y="-453" font-family="Helvetica,sans-Serif" font-size="10.00"> entityFaction</text>
<text text-anchor="middle" x="1046" y="-442" font-family="Helvetica,sans-Serif" font-size="10.00">playerFaction</text>
</g>
<!-- Node9 -->
<g id="node9" class="node">
<title>Node9</title>
<g id="a_node9"><a xlink:href="interfacecom_1_1fs_1_1starfarer_1_1api_1_1campaign_1_1TextPanelAPI.html" target="_top" xlink:title=" ">
<polygon fill="white" stroke="#bfbfbf" points="1279.5,-318 1133.5,-318 1133.5,-288 1279.5,-288 1279.5,-318"/>
<text text-anchor="start" x="1141.5" y="-306" font-family="Helvetica,sans-Serif" font-size="10.00">com.fs.starfarer.api.campaign.</text>
<text text-anchor="middle" x="1206.5" y="-295" font-family="Helvetica,sans-Serif" font-size="10.00">TextPanelAPI</text>
</a>
</g>
</g>
<!-- Node9&#45;&gt;Node1 -->
<g id="edge10" class="edge">
<title>Node9&#45;&gt;Node1</title>
<path fill="none" stroke="#9a32cd" stroke-dasharray="5,2" d="M1291.37,-290.54C1332.62,-284.41 1382.73,-276.96 1426.4,-270.47"/>
<polygon fill="#9a32cd" stroke="#9a32cd" points="1290.86,-287.07 1281.48,-292.01 1291.89,-294 1290.86,-287.07"/>
<text text-anchor="middle" x="1366" y="-286" font-family="Helvetica,sans-Serif" font-size="10.00"> text</text>
</g>
<!-- Node10 -->
<g id="node10" class="node">
<title>Node10</title>
<g id="a_node10"><a xlink:href="interfacecom_1_1fs_1_1starfarer_1_1api_1_1campaign_1_1OptionPanelAPI.html" target="_top" xlink:title=" ">
<polygon fill="white" stroke="#bfbfbf" points="1279.5,-270 1133.5,-270 1133.5,-240 1279.5,-240 1279.5,-270"/>
<text text-anchor="start" x="1141.5" y="-258" font-family="Helvetica,sans-Serif" font-size="10.00">com.fs.starfarer.api.campaign.</text>
<text text-anchor="middle" x="1206.5" y="-247" font-family="Helvetica,sans-Serif" font-size="10.00">OptionPanelAPI</text>
</a>
</g>
</g>
<!-- Node10&#45;&gt;Node1 -->
<g id="edge11" class="edge">
<title>Node10&#45;&gt;Node1</title>
<path fill="none" stroke="#9a32cd" stroke-dasharray="5,2" d="M1291.15,-255C1327.87,-255 1371.65,-255 1411.66,-255"/>
<polygon fill="#9a32cd" stroke="#9a32cd" points="1291.5,-251.5 1281.5,-255 1291.5,-258.5 1291.5,-251.5"/>
<text text-anchor="middle" x="1366" y="-258" font-family="Helvetica,sans-Serif" font-size="10.00"> options</text>
</g>
<!-- Node11 -->
<g id="node11" class="node">
<title>Node11</title>
<g id="a_node11"><a xlink:href="interfacecom_1_1fs_1_1starfarer_1_1api_1_1campaign_1_1CargoAPI.html" target="_top" xlink:title=" ">
<polygon fill="white" stroke="#666666" points="1279.5,-222 1133.5,-222 1133.5,-192 1279.5,-192 1279.5,-222"/>
<text text-anchor="start" x="1141.5" y="-210" font-family="Helvetica,sans-Serif" font-size="10.00">com.fs.starfarer.api.campaign.</text>
<text text-anchor="middle" x="1206.5" y="-199" font-family="Helvetica,sans-Serif" font-size="10.00">CargoAPI</text>
</a>
</g>
</g>
<!-- Node11&#45;&gt;Node1 -->
<g id="edge12" class="edge">
<title>Node11&#45;&gt;Node1</title>
<path fill="none" stroke="#9a32cd" stroke-dasharray="5,2" d="M1291.37,-219.46C1332.62,-225.59 1382.73,-233.04 1426.4,-239.53"/>
<polygon fill="#9a32cd" stroke="#9a32cd" points="1291.89,-216 1281.48,-217.99 1290.86,-222.93 1291.89,-216"/>
<text text-anchor="middle" x="1366" y="-236" font-family="Helvetica,sans-Serif" font-size="10.00"> cargo</text>
</g>
<!-- Node12 -->
<g id="node12" class="node">
<title>Node12</title>
<g id="a_node12"><a xlink:href="interfacecom_1_1fs_1_1starfarer_1_1api_1_1campaign_1_1rules_1_1MemoryAPI.html" target="_top" xlink:title=" ">
<polygon fill="white" stroke="#bfbfbf" points="1291,-174 1122,-174 1122,-144 1291,-144 1291,-174"/>
<text text-anchor="start" x="1130" y="-162" font-family="Helvetica,sans-Serif" font-size="10.00">com.fs.starfarer.api.campaign.rules.</text>
<text text-anchor="middle" x="1206.5" y="-151" font-family="Helvetica,sans-Serif" font-size="10.00">MemoryAPI</text>
</a>
</g>
</g>
<!-- Node12&#45;&gt;Node1 -->
<g id="edge13" class="edge">
<title>Node12&#45;&gt;Node1</title>
<path fill="none" stroke="#9a32cd" stroke-dasharray="5,2" d="M1296.94,-177.06C1304.77,-178.95 1312.54,-180.94 1320,-183 1380.12,-199.63 1448.16,-223.93 1490.2,-239.61"/>
<polygon fill="#9a32cd" stroke="#9a32cd" points="1297.87,-173.68 1287.34,-174.8 1296.27,-180.5 1297.87,-173.68"/>
<text text-anchor="middle" x="1366" y="-207" font-family="Helvetica,sans-Serif" font-size="10.00"> memory</text>
</g>
<!-- Node13 -->
<g id="node13" class="node">
<title>Node13</title>
<g id="a_node13"><a xlink:href="interfacecom_1_1fs_1_1starfarer_1_1api_1_1campaign_1_1InteractionDialogAPI.html" target="_top" xlink:title=" ">
<polygon fill="white" stroke="#bfbfbf" points="1279.5,-126 1133.5,-126 1133.5,-96 1279.5,-96 1279.5,-126"/>
<text text-anchor="start" x="1141.5" y="-114" font-family="Helvetica,sans-Serif" font-size="10.00">com.fs.starfarer.api.campaign.</text>
<text text-anchor="middle" x="1206.5" y="-103" font-family="Helvetica,sans-Serif" font-size="10.00">InteractionDialogAPI</text>
</a>
</g>
</g>
<!-- Node13&#45;&gt;Node1 -->
<g id="edge14" class="edge">
<title>Node13&#45;&gt;Node1</title>
<path fill="none" stroke="#9a32cd" stroke-dasharray="5,2" d="M1290.92,-126.1C1300.84,-128.68 1310.72,-131.64 1320,-135 1394.16,-161.87 1472.61,-213.75 1509.28,-239.59"/>
<polygon fill="#9a32cd" stroke="#9a32cd" points="1291.76,-122.7 1281.22,-123.7 1290.08,-129.49 1291.76,-122.7"/>
<text text-anchor="middle" x="1366" y="-170" font-family="Helvetica,sans-Serif" font-size="10.00"> dialog</text>
</g>
<!-- Node14 -->
<g id="node14" class="node">
<title>Node14</title>
<g id="a_node14"><a xlink:href="classcom_1_1fs_1_1starfarer_1_1api_1_1impl_1_1campaign_1_1DerelictShipEntityPlugin.html" target="_top" xlink:title=" ">
<polygon fill="white" stroke="#bfbfbf" points="1289.5,-78 1123.5,-78 1123.5,-48 1289.5,-48 1289.5,-78"/>
<text text-anchor="start" x="1131.5" y="-66" font-family="Helvetica,sans-Serif" font-size="10.00">com.fs.starfarer.api.impl.campaign.</text>
<text text-anchor="middle" x="1206.5" y="-55" font-family="Helvetica,sans-Serif" font-size="10.00">DerelictShipEntityPlugin</text>
</a>
</g>
</g>
<!-- Node14&#45;&gt;Node1 -->
<g id="edge15" class="edge">
<title>Node14&#45;&gt;Node1</title>
<path fill="none" stroke="#9a32cd" stroke-dasharray="5,2" d="M1300.99,-80.78C1307.48,-82.67 1313.88,-84.75 1320,-87 1408.19,-119.48 1487.66,-204.52 1517.74,-239.57"/>
<polygon fill="#9a32cd" stroke="#9a32cd" points="1302.03,-77.43 1291.46,-78.15 1300.17,-84.18 1302.03,-77.43"/>
<text text-anchor="middle" x="1366" y="-127" font-family="Helvetica,sans-Serif" font-size="10.00"> plugin</text>
</g>
<!-- Node15&#45;&gt;Node14 -->
<g id="edge16" class="edge">
<title>Node15&#45;&gt;Node14</title>
<path fill="none" stroke="#63b8ff" d="M959.3,-203.34C996.37,-188.04 1043.56,-163.55 1075,-129 1088.67,-113.98 1077.31,-99.9 1093,-87 1101.79,-79.77 1112.25,-74.57 1123.19,-70.86"/>
<polygon fill="#63b8ff" stroke="#63b8ff" points="958.03,-200.08 950.05,-207.04 960.63,-206.58 958.03,-200.08"/>
</g>
<!-- Node16 -->
<g id="node16" class="node">
<title>Node16</title>
<g id="a_node16"><a xlink:href="interfacecom_1_1fs_1_1starfarer_1_1api_1_1campaign_1_1CustomCampaignEntityPlugin.html" target="_top" xlink:title=" ">
<polygon fill="white" stroke="#bfbfbf" points="559,-238 413,-238 413,-208 559,-208 559,-238"/>
<text text-anchor="start" x="421" y="-226" font-family="Helvetica,sans-Serif" font-size="10.00">com.fs.starfarer.api.campaign.</text>
<text text-anchor="middle" x="486" y="-215" font-family="Helvetica,sans-Serif" font-size="10.00">CustomCampaignEntityPlugin</text>
</a>
</g>
</g>
<!-- Node16&#45;&gt;Node15 -->
<g id="edge17" class="edge">
<title>Node16&#45;&gt;Node15</title>
<path fill="none" stroke="#63b8ff" d="M570.8,-223C642.93,-223 746.42,-223 818.13,-223"/>
<polygon fill="#63b8ff" stroke="#63b8ff" points="571.01,-219.5 561.01,-223 571.01,-226.5 571.01,-219.5"/>
</g>
<!-- Node17 -->
<g id="node17" class="node">
<title>Node17</title>
<g id="a_node17"><a xlink:href="classcom_1_1fs_1_1starfarer_1_1api_1_1impl_1_1campaign_1_1DerelictShipEntityPlugin_1_1DerelictShipData.html" target="_top" xlink:title=" ">
<polygon fill="white" stroke="#bfbfbf" points="999,-106 804,-106 804,-76 999,-76 999,-106"/>
<text text-anchor="start" x="812" y="-94" font-family="Helvetica,sans-Serif" font-size="10.00">com.fs.starfarer.api.impl.campaign.</text>
<text text-anchor="middle" x="901.5" y="-83" font-family="Helvetica,sans-Serif" font-size="10.00">DerelictShipEntityPlugin.DerelictShipData</text>
</a>
</g>
</g>
<!-- Node17&#45;&gt;Node14 -->
<g id="edge19" class="edge">
<title>Node17&#45;&gt;Node14</title>
<path fill="none" stroke="#9a32cd" stroke-dasharray="5,2" d="M1010.6,-81.01C1047.75,-77.58 1088.71,-73.79 1123.44,-70.58"/>
<polygon fill="#9a32cd" stroke="#9a32cd" points="1010.35,-77.52 1000.71,-81.92 1010.99,-84.49 1010.35,-77.52"/>
<text text-anchor="middle" x="1046" y="-84" font-family="Helvetica,sans-Serif" font-size="10.00"> data</text>
</g>
<!-- Node18 -->
<g id="node18" class="node">
<title>Node18</title>
<g id="a_node18"><a xlink:href="classcom_1_1fs_1_1starfarer_1_1api_1_1impl_1_1campaign_1_1rulecmd_1_1salvage_1_1special_1_1ShipRecoverySpecial_1_1PerShipData.html" target="_top" xlink:title=" ">
<polygon fill="white" stroke="#bfbfbf" points="622,-106 350,-106 350,-76 622,-76 622,-106"/>
<text text-anchor="start" x="358" y="-94" font-family="Helvetica,sans-Serif" font-size="10.00">com.fs.starfarer.api.impl.campaign.rulecmd.salvage.special.</text>
<text text-anchor="middle" x="486" y="-83" font-family="Helvetica,sans-Serif" font-size="10.00">ShipRecoverySpecial.PerShipData</text>
</a>
</g>
</g>
<!-- Node18&#45;&gt;Node17 -->
<g id="edge20" class="edge">
<title>Node18&#45;&gt;Node17</title>
<path fill="none" stroke="#9a32cd" stroke-dasharray="5,2" d="M633.6,-91C690.1,-91 753.15,-91 803.79,-91"/>
<polygon fill="#9a32cd" stroke="#9a32cd" points="633.91,-87.5 623.91,-91 633.91,-94.5 633.91,-87.5"/>
<text text-anchor="middle" x="713" y="-94" font-family="Helvetica,sans-Serif" font-size="10.00"> ship</text>
</g>
<!-- Node19 -->
<g id="node19" class="node">
<title>Node19</title>
<g id="a_node19"><a xlink:title=" ">
<polygon fill="white" stroke="#bfbfbf" points="165.5,-57.5 106.5,-57.5 106.5,-38.5 165.5,-38.5 165.5,-57.5"/>
<text text-anchor="middle" x="136" y="-45.5" font-family="Helvetica,sans-Serif" font-size="10.00">Cloneable</text>
</a>
</g>
</g>
<!-- Node19&#45;&gt;Node18 -->
<g id="edge21" class="edge">
<title>Node19&#45;&gt;Node18</title>
<path fill="none" stroke="#63b8ff" d="M176.96,-52.94C221.43,-58.43 295.52,-67.59 359.9,-75.54"/>
<polygon fill="#63b8ff" stroke="#63b8ff" points="177.63,-49.49 167.28,-51.74 176.77,-56.44 177.63,-49.49"/>
</g>
<!-- Node20 -->
<g id="node20" class="node">
<title>Node20</title>
<g id="a_node20"><a xlink:href="enumcom_1_1fs_1_1starfarer_1_1api_1_1impl_1_1campaign_1_1rulecmd_1_1salvage_1_1special_1_1ShipRecoverySpecial_1_1ShipCondition.html" target="_top" xlink:title=" ">
<polygon fill="white" stroke="#bfbfbf" points="272,-154 0,-154 0,-124 272,-124 272,-154"/>
<text text-anchor="start" x="8" y="-142" font-family="Helvetica,sans-Serif" font-size="10.00">com.fs.starfarer.api.impl.campaign.rulecmd.salvage.special.</text>
<text text-anchor="middle" x="136" y="-131" font-family="Helvetica,sans-Serif" font-size="10.00">ShipRecoverySpecial.ShipCondition</text>
</a>
</g>
</g>
<!-- Node20&#45;&gt;Node18 -->
<g id="edge22" class="edge">
<title>Node20&#45;&gt;Node18</title>
<path fill="none" stroke="#9a32cd" stroke-dasharray="5,2" d="M260.3,-121.99C296.98,-116.93 336.96,-111.42 372.89,-106.46"/>
<polygon fill="#9a32cd" stroke="#9a32cd" points="259.95,-118.51 250.52,-123.34 260.91,-125.44 259.95,-118.51"/>
<text text-anchor="middle" x="311" y="-120" font-family="Helvetica,sans-Serif" font-size="10.00"> condition</text>
</g>
<!-- Node21 -->
<g id="node21" class="node">
<title>Node21</title>
<g id="a_node21"><a xlink:href="interfacecom_1_1fs_1_1starfarer_1_1api_1_1combat_1_1ShipVariantAPI.html" target="_top" xlink:title=" ">
<polygon fill="white" stroke="#bfbfbf" points="204,-106 68,-106 68,-76 204,-76 204,-106"/>
<text text-anchor="start" x="76" y="-94" font-family="Helvetica,sans-Serif" font-size="10.00">com.fs.starfarer.api.combat.</text>
<text text-anchor="middle" x="136" y="-83" font-family="Helvetica,sans-Serif" font-size="10.00">ShipVariantAPI</text>
</a>
</g>
</g>
<!-- Node21&#45;&gt;Node18 -->
<g id="edge23" class="edge">
<title>Node21&#45;&gt;Node18</title>
<path fill="none" stroke="#9a32cd" stroke-dasharray="5,2" d="M215.53,-91C255.11,-91 304.25,-91 349.68,-91"/>
<polygon fill="#9a32cd" stroke="#9a32cd" points="215.61,-87.5 205.61,-91 215.61,-94.5 215.61,-87.5"/>
<text text-anchor="middle" x="311" y="-94" font-family="Helvetica,sans-Serif" font-size="10.00"> variant</text>
</g>
<!-- Node22&#45;&gt;Node14 -->
<g id="edge24" class="edge">
<title>Node22&#45;&gt;Node14</title>
<path fill="none" stroke="#9a32cd" stroke-dasharray="5,2" d="M986.46,-122.83C1014.97,-115.68 1046.74,-106.62 1075,-96 1083.37,-92.85 1084.56,-89.96 1093,-87 1102.61,-83.63 1112.86,-80.66 1123.11,-78.04"/>
<polygon fill="#9a32cd" stroke="#9a32cd" points="985.65,-119.42 976.77,-125.21 987.32,-126.22 985.65,-119.42"/>
<text text-anchor="middle" x="1046" y="-117" font-family="Helvetica,sans-Serif" font-size="10.00"> sprite</text>
</g>
<!-- Node23 -->
<g id="node23" class="node">
<title>Node23</title>
<g id="a_node23"><a xlink:href="interfacecom_1_1fs_1_1starfarer_1_1api_1_1graphics_1_1SpriteAPI.html" target="_top" xlink:title=" ">
<polygon fill="white" stroke="#bfbfbf" points="556,-156 416,-156 416,-126 556,-126 556,-156"/>
<text text-anchor="start" x="424" y="-144" font-family="Helvetica,sans-Serif" font-size="10.00">com.fs.starfarer.api.graphics.</text>
<text text-anchor="middle" x="486" y="-133" font-family="Helvetica,sans-Serif" font-size="10.00">SpriteAPI</text>
</a>
</g>
</g>
<!-- Node23&#45;&gt;Node22 -->
<g id="edge25" class="edge">
<title>Node23&#45;&gt;Node22</title>
<path fill="none" stroke="#9a32cd" stroke-dasharray="5,2" d="M567.52,-141C639.8,-141 745.43,-141 818.25,-141"/>
<polygon fill="#9a32cd" stroke="#9a32cd" points="567.72,-137.5 557.72,-141 567.72,-144.5 567.72,-137.5"/>
<text text-anchor="middle" x="713" y="-177" font-family="Helvetica,sans-Serif" font-size="10.00"> glow</text>
<text text-anchor="middle" x="713" y="-166" font-family="Helvetica,sans-Serif" font-size="10.00">overlay</text>
<text text-anchor="middle" x="713" y="-155" font-family="Helvetica,sans-Serif" font-size="10.00">shadowMask</text>
<text text-anchor="middle" x="713" y="-144" font-family="Helvetica,sans-Serif" font-size="10.00">sprite</text>
</g>
<!-- Node24 -->
<g id="node24" class="node">
<title>Node24</title>
<g id="a_node24"><a xlink:href="interfacecom_1_1fs_1_1starfarer_1_1api_1_1fleet_1_1FleetMemberAPI.html" target="_top" xlink:title=" ">
<polygon fill="white" stroke="#666666" points="962.5,-58 840.5,-58 840.5,-28 962.5,-28 962.5,-58"/>
<text text-anchor="start" x="848.5" y="-46" font-family="Helvetica,sans-Serif" font-size="10.00">com.fs.starfarer.api.fleet.</text>
<text text-anchor="middle" x="901.5" y="-35" font-family="Helvetica,sans-Serif" font-size="10.00">FleetMemberAPI</text>
</a>
</g>
</g>
<!-- Node24&#45;&gt;Node14 -->
<g id="edge27" class="edge">
<title>Node24&#45;&gt;Node14</title>
<path fill="none" stroke="#9a32cd" stroke-dasharray="5,2" d="M973.98,-45.59C1005.04,-46.9 1041.84,-48.71 1075,-51 1090.55,-52.07 1107.12,-53.43 1123.05,-54.85"/>
<polygon fill="#9a32cd" stroke="#9a32cd" points="974.46,-42.1 964.32,-45.19 974.17,-49.1 974.46,-42.1"/>
<text text-anchor="middle" x="1046" y="-54" font-family="Helvetica,sans-Serif" font-size="10.00"> member</text>
</g>
<!-- Node25 -->
<g id="node25" class="node">
<title>Node25</title>
<g id="a_node25"><a xlink:title=" ">
<polygon fill="white" stroke="#bfbfbf" points="1320,-30 1093,-30 1093,0 1320,0 1320,-30"/>
<text text-anchor="start" x="1101" y="-18" font-family="Helvetica,sans-Serif" font-size="10.00">Map&lt; String, com.fs.starfarer.api.campaign.rules.</text>
<text text-anchor="middle" x="1206.5" y="-7" font-family="Helvetica,sans-Serif" font-size="10.00">MemoryAPI &gt;</text>
</a>
</g>
</g>
<!-- Node25&#45;&gt;Node1 -->
<g id="edge28" class="edge">
<title>Node25&#45;&gt;Node1</title>
<path fill="none" stroke="#9a32cd" stroke-dasharray="5,2" d="M1303.78,-33.53C1309.31,-35.22 1314.76,-37.04 1320,-39 1355.21,-52.18 1365.42,-55.57 1394,-80 1452,-129.57 1501.94,-207.15 1521.59,-239.75"/>
<polygon fill="#9a32cd" stroke="#9a32cd" points="1305.07,-30.26 1294.49,-30.87 1303.14,-36.99 1305.07,-30.26"/>
<text text-anchor="middle" x="1366" y="-83" font-family="Helvetica,sans-Serif" font-size="10.00"> memoryMap</text>
</g>
</g>
</svg>
