<?xml version="1.0" encoding="UTF-8" standalone="no"?>
<!DOCTYPE svg PUBLIC "-//W3C//DTD SVG 1.1//EN"
 "http://www.w3.org/Graphics/SVG/1.1/DTD/svg11.dtd">
<!-- Generated by graphviz version 2.49.3 (20211027.1501)
 -->
<!-- Title: com.fs.starfarer.api.impl.campaign.procgen.EventTestPluginImpl Pages: 1 -->
<svg width="1566pt" height="489pt"
 viewBox="0.00 0.00 1566.00 489.00" xmlns="http://www.w3.org/2000/svg" xmlns:xlink="http://www.w3.org/1999/xlink">
<g id="graph0" class="graph" transform="scale(1 1) rotate(0) translate(4 485)">
<title>com.fs.starfarer.api.impl.campaign.procgen.EventTestPluginImpl</title>
<!-- Node1 -->
<g id="node1" class="node">
<title>Node1</title>
<g id="a_node1"><a xlink:title=" ">
<polygon fill="#bfbfbf" stroke="black" points="1355,-231.5 1355,-261.5 1558,-261.5 1558,-231.5 1355,-231.5"/>
<text text-anchor="start" x="1363" y="-249.5" font-family="Helvetica,sans-Serif" font-size="10.00">com.fs.starfarer.api.impl.campaign.procgen.</text>
<text text-anchor="middle" x="1456.5" y="-238.5" font-family="Helvetica,sans-Serif" font-size="10.00">EventTestPluginImpl</text>
</a>
</g>
</g>
<!-- Node2 -->
<g id="node2" class="node">
<title>Node2</title>
<g id="a_node2"><a xlink:href="interfacecom_1_1fs_1_1starfarer_1_1api_1_1campaign_1_1InteractionDialogPlugin.html" target="_top" xlink:title=" ">
<polygon fill="none" stroke="black" points="1032,-450.5 1032,-480.5 1178,-480.5 1178,-450.5 1032,-450.5"/>
<text text-anchor="start" x="1040" y="-468.5" font-family="Helvetica,sans-Serif" font-size="10.00">com.fs.starfarer.api.campaign.</text>
<text text-anchor="middle" x="1105" y="-457.5" font-family="Helvetica,sans-Serif" font-size="10.00">InteractionDialogPlugin</text>
</a>
</g>
</g>
<!-- Node2&#45;&gt;Node1 -->
<g id="edge1" class="edge">
<title>Node2&#45;&gt;Node1</title>
<path fill="none" stroke="midnightblue" d="M1188.21,-459.57C1235.18,-452.85 1293.25,-438.61 1337,-408.5 1393.84,-369.39 1433.64,-293.87 1448.76,-261.66"/>
<polygon fill="midnightblue" stroke="midnightblue" points="1187.51,-456.13 1178.06,-460.93 1188.44,-463.07 1187.51,-456.13"/>
</g>
<!-- Node3 -->
<g id="node3" class="node">
<title>Node3</title>
<g id="a_node3"><a xlink:href="interfacecom_1_1fs_1_1starfarer_1_1api_1_1campaign_1_1InteractionDialogAPI.html" target="_top" xlink:title=" ">
<polygon fill="none" stroke="black" points="1032,-401.5 1032,-431.5 1178,-431.5 1178,-401.5 1032,-401.5"/>
<text text-anchor="start" x="1040" y="-419.5" font-family="Helvetica,sans-Serif" font-size="10.00">com.fs.starfarer.api.campaign.</text>
<text text-anchor="middle" x="1105" y="-408.5" font-family="Helvetica,sans-Serif" font-size="10.00">InteractionDialogAPI</text>
</a>
</g>
</g>
<!-- Node3&#45;&gt;Node1 -->
<g id="edge2" class="edge">
<title>Node3&#45;&gt;Node1</title>
<path fill="none" stroke="#9a32cd" stroke-dasharray="5,2" d="M1188.09,-404.71C1234.12,-395.57 1291.29,-379.86 1337,-353.5 1380.7,-328.3 1422.16,-284.85 1442.47,-261.84"/>
<polygon fill="#9a32cd" stroke="#9a32cd" points="1187.3,-401.29 1178.14,-406.62 1188.62,-408.17 1187.3,-401.29"/>
<text text-anchor="middle" x="1285.5" y="-396.5" font-family="Helvetica,sans-Serif" font-size="10.00"> dialog</text>
</g>
<!-- Node4 -->
<g id="node4" class="node">
<title>Node4</title>
<g id="a_node4"><a xlink:href="interfacecom_1_1fs_1_1starfarer_1_1api_1_1campaign_1_1TextPanelAPI.html" target="_top" xlink:title=" ">
<polygon fill="none" stroke="black" points="1032,-352.5 1032,-382.5 1178,-382.5 1178,-352.5 1032,-352.5"/>
<text text-anchor="start" x="1040" y="-370.5" font-family="Helvetica,sans-Serif" font-size="10.00">com.fs.starfarer.api.campaign.</text>
<text text-anchor="middle" x="1105" y="-359.5" font-family="Helvetica,sans-Serif" font-size="10.00">TextPanelAPI</text>
</a>
</g>
</g>
<!-- Node4&#45;&gt;Node1 -->
<g id="edge3" class="edge">
<title>Node4&#45;&gt;Node1</title>
<path fill="none" stroke="#9a32cd" stroke-dasharray="5,2" d="M1187.44,-350.22C1197.08,-348.03 1206.77,-345.76 1216,-343.5 1270.14,-330.22 1285.25,-331.21 1337,-310.5 1371.08,-296.86 1407.93,-275.88 1431.33,-261.69"/>
<polygon fill="#9a32cd" stroke="#9a32cd" points="1186.41,-346.87 1177.43,-352.48 1187.95,-353.7 1186.41,-346.87"/>
<text text-anchor="middle" x="1285.5" y="-341.5" font-family="Helvetica,sans-Serif" font-size="10.00"> textPanel</text>
</g>
<!-- Node5 -->
<g id="node5" class="node">
<title>Node5</title>
<g id="a_node5"><a xlink:href="interfacecom_1_1fs_1_1starfarer_1_1api_1_1campaign_1_1OptionPanelAPI.html" target="_top" xlink:title=" ">
<polygon fill="none" stroke="black" points="1032,-303.5 1032,-333.5 1178,-333.5 1178,-303.5 1032,-303.5"/>
<text text-anchor="start" x="1040" y="-321.5" font-family="Helvetica,sans-Serif" font-size="10.00">com.fs.starfarer.api.campaign.</text>
<text text-anchor="middle" x="1105" y="-310.5" font-family="Helvetica,sans-Serif" font-size="10.00">OptionPanelAPI</text>
</a>
</g>
</g>
<!-- Node5&#45;&gt;Node1 -->
<g id="edge4" class="edge">
<title>Node5&#45;&gt;Node1</title>
<path fill="none" stroke="#9a32cd" stroke-dasharray="5,2" d="M1188.13,-304.37C1232.36,-296.46 1287.79,-286.09 1337,-275.5 1356.57,-271.29 1377.84,-266.23 1396.88,-261.53"/>
<polygon fill="#9a32cd" stroke="#9a32cd" points="1187.24,-300.97 1178,-306.17 1188.46,-307.86 1187.24,-300.97"/>
<text text-anchor="middle" x="1285.5" y="-298.5" font-family="Helvetica,sans-Serif" font-size="10.00"> options</text>
</g>
<!-- Node6 -->
<g id="node6" class="node">
<title>Node6</title>
<g id="a_node6"><a xlink:href="interfacecom_1_1fs_1_1starfarer_1_1api_1_1campaign_1_1VisualPanelAPI.html" target="_top" xlink:title=" ">
<polygon fill="none" stroke="black" points="1032,-254.5 1032,-284.5 1178,-284.5 1178,-254.5 1032,-254.5"/>
<text text-anchor="start" x="1040" y="-272.5" font-family="Helvetica,sans-Serif" font-size="10.00">com.fs.starfarer.api.campaign.</text>
<text text-anchor="middle" x="1105" y="-261.5" font-family="Helvetica,sans-Serif" font-size="10.00">VisualPanelAPI</text>
</a>
</g>
</g>
<!-- Node6&#45;&gt;Node1 -->
<g id="edge5" class="edge">
<title>Node6&#45;&gt;Node1</title>
<path fill="none" stroke="#9a32cd" stroke-dasharray="5,2" d="M1188.49,-264.07C1238.24,-260.8 1301.96,-256.6 1354.68,-253.13"/>
<polygon fill="#9a32cd" stroke="#9a32cd" points="1188.17,-260.59 1178.42,-264.73 1188.62,-267.57 1188.17,-260.59"/>
<text text-anchor="middle" x="1285.5" y="-263.5" font-family="Helvetica,sans-Serif" font-size="10.00"> visual</text>
</g>
<!-- Node7 -->
<g id="node7" class="node">
<title>Node7</title>
<g id="a_node7"><a xlink:href="interfacecom_1_1fs_1_1starfarer_1_1api_1_1campaign_1_1CampaignFleetAPI.html" target="_top" xlink:title=" ">
<polygon fill="none" stroke="black" points="646,-267.5 646,-297.5 792,-297.5 792,-267.5 646,-267.5"/>
<text text-anchor="start" x="654" y="-285.5" font-family="Helvetica,sans-Serif" font-size="10.00">com.fs.starfarer.api.campaign.</text>
<text text-anchor="middle" x="719" y="-274.5" font-family="Helvetica,sans-Serif" font-size="10.00">CampaignFleetAPI</text>
</a>
</g>
</g>
<!-- Node7&#45;&gt;Node1 -->
<g id="edge6" class="edge">
<title>Node7&#45;&gt;Node1</title>
<path fill="none" stroke="#9a32cd" stroke-dasharray="5,2" d="M796.81,-265.37C851.48,-254.08 926.85,-240.34 994,-234.5 1092.3,-225.96 1117.36,-232.03 1216,-234.5 1261.57,-235.64 1311.98,-238 1354.74,-240.33"/>
<polygon fill="#9a32cd" stroke="#9a32cd" points="795.93,-261.98 786.85,-267.44 797.36,-268.83 795.93,-261.98"/>
<text text-anchor="middle" x="1105" y="-237.5" font-family="Helvetica,sans-Serif" font-size="10.00"> playerFleet</text>
</g>
<!-- Node8 -->
<g id="node8" class="node">
<title>Node8</title>
<g id="a_node8"><a xlink:href="interfacecom_1_1fs_1_1starfarer_1_1api_1_1campaign_1_1SectorEntityToken.html" target="_top" xlink:title=" ">
<polygon fill="none" stroke="black" points="252,-233.5 252,-263.5 398,-263.5 398,-233.5 252,-233.5"/>
<text text-anchor="start" x="260" y="-251.5" font-family="Helvetica,sans-Serif" font-size="10.00">com.fs.starfarer.api.campaign.</text>
<text text-anchor="middle" x="325" y="-240.5" font-family="Helvetica,sans-Serif" font-size="10.00">SectorEntityToken</text>
</a>
</g>
</g>
<!-- Node8&#45;&gt;Node7 -->
<g id="edge7" class="edge">
<title>Node8&#45;&gt;Node7</title>
<path fill="none" stroke="midnightblue" d="M408.49,-255.66C478.72,-261.75 578.61,-270.41 645.73,-276.23"/>
<polygon fill="midnightblue" stroke="midnightblue" points="408.62,-252.15 398.36,-254.78 408.02,-259.13 408.62,-252.15"/>
</g>
<!-- Node11 -->
<g id="node11" class="node">
<title>Node11</title>
<g id="a_node11"><a xlink:href="interfacecom_1_1fs_1_1starfarer_1_1api_1_1campaign_1_1PlanetAPI.html" target="_top" xlink:title=" ">
<polygon fill="none" stroke="black" points="830,-178.5 830,-208.5 976,-208.5 976,-178.5 830,-178.5"/>
<text text-anchor="start" x="838" y="-196.5" font-family="Helvetica,sans-Serif" font-size="10.00">com.fs.starfarer.api.campaign.</text>
<text text-anchor="middle" x="903" y="-185.5" font-family="Helvetica,sans-Serif" font-size="10.00">PlanetAPI</text>
</a>
</g>
</g>
<!-- Node8&#45;&gt;Node11 -->
<g id="edge11" class="edge">
<title>Node8&#45;&gt;Node11</title>
<path fill="none" stroke="midnightblue" d="M408.46,-241.92C464.7,-237.33 540.89,-230.89 608,-224.5 683.75,-217.28 770.36,-208.03 829.85,-201.52"/>
<polygon fill="midnightblue" stroke="midnightblue" points="407.87,-238.46 398.19,-242.76 408.44,-245.44 407.87,-238.46"/>
</g>
<!-- Node15 -->
<g id="node15" class="node">
<title>Node15</title>
<g id="a_node15"><a xlink:href="classcom_1_1fs_1_1starfarer_1_1api_1_1impl_1_1campaign_1_1intel_1_1BaseIntelPlugin.html" target="_top" xlink:title=" ">
<polygon fill="none" stroke="black" points="626,-150.5 626,-180.5 812,-180.5 812,-150.5 626,-150.5"/>
<text text-anchor="start" x="634" y="-168.5" font-family="Helvetica,sans-Serif" font-size="10.00">com.fs.starfarer.api.impl.campaign.intel.</text>
<text text-anchor="middle" x="719" y="-157.5" font-family="Helvetica,sans-Serif" font-size="10.00">BaseIntelPlugin</text>
</a>
</g>
</g>
<!-- Node8&#45;&gt;Node15 -->
<g id="edge21" class="edge">
<title>Node8&#45;&gt;Node15</title>
<path fill="none" stroke="#9a32cd" stroke-dasharray="5,2" d="M408.08,-235.66C420.32,-232.64 432.64,-228.97 444,-224.5 452.73,-221.07 453.2,-216.74 462,-213.5 523.65,-190.83 543.49,-202.9 608,-190.5 623.39,-187.54 639.9,-183.99 655.33,-180.51"/>
<polygon fill="#9a32cd" stroke="#9a32cd" points="407.24,-232.26 398.29,-237.94 408.82,-239.08 407.24,-232.26"/>
<text text-anchor="middle" x="535" y="-216.5" font-family="Helvetica,sans-Serif" font-size="10.00"> postingLocation</text>
</g>
<!-- Node9 -->
<g id="node9" class="node">
<title>Node9</title>
<g id="a_node9"><a xlink:href="interfacecom_1_1fs_1_1starfarer_1_1api_1_1campaign_1_1rules_1_1HasMemory.html" target="_top" xlink:title=" ">
<polygon fill="none" stroke="black" points="0,-5.5 0,-35.5 169,-35.5 169,-5.5 0,-5.5"/>
<text text-anchor="start" x="8" y="-23.5" font-family="Helvetica,sans-Serif" font-size="10.00">com.fs.starfarer.api.campaign.rules.</text>
<text text-anchor="middle" x="84.5" y="-12.5" font-family="Helvetica,sans-Serif" font-size="10.00">HasMemory</text>
</a>
</g>
</g>
<!-- Node9&#45;&gt;Node8 -->
<g id="edge8" class="edge">
<title>Node9&#45;&gt;Node8</title>
<path fill="none" stroke="midnightblue" d="M92.75,-45.29C106.88,-88.95 142.42,-179.21 206,-224.5 219.37,-234.02 235.63,-239.96 251.76,-243.62"/>
<polygon fill="midnightblue" stroke="midnightblue" points="96.09,-44.24 89.76,-35.74 89.41,-46.33 96.09,-44.24"/>
</g>
<!-- Node13 -->
<g id="node13" class="node">
<title>Node13</title>
<g id="a_node13"><a xlink:href="interfacecom_1_1fs_1_1starfarer_1_1api_1_1campaign_1_1FactionAPI.html" target="_top" xlink:title=" ">
<polygon fill="none" stroke="black" points="462,-0.5 462,-30.5 608,-30.5 608,-0.5 462,-0.5"/>
<text text-anchor="start" x="470" y="-18.5" font-family="Helvetica,sans-Serif" font-size="10.00">com.fs.starfarer.api.campaign.</text>
<text text-anchor="middle" x="535" y="-7.5" font-family="Helvetica,sans-Serif" font-size="10.00">FactionAPI</text>
</a>
</g>
</g>
<!-- Node9&#45;&gt;Node13 -->
<g id="edge14" class="edge">
<title>Node9&#45;&gt;Node13</title>
<path fill="none" stroke="midnightblue" d="M179.14,-19.46C263.32,-18.52 385.18,-17.16 461.96,-16.3"/>
<polygon fill="midnightblue" stroke="midnightblue" points="179.03,-15.96 169.07,-19.57 179.11,-22.96 179.03,-15.96"/>
</g>
<!-- Node10 -->
<g id="node10" class="node">
<title>Node10</title>
<g id="a_node10"><a xlink:href="interfacecom_1_1fs_1_1starfarer_1_1api_1_1campaign_1_1FleetOrStubAPI.html" target="_top" xlink:title=" ">
<polygon fill="none" stroke="black" points="252,-282.5 252,-312.5 398,-312.5 398,-282.5 252,-282.5"/>
<text text-anchor="start" x="260" y="-300.5" font-family="Helvetica,sans-Serif" font-size="10.00">com.fs.starfarer.api.campaign.</text>
<text text-anchor="middle" x="325" y="-289.5" font-family="Helvetica,sans-Serif" font-size="10.00">FleetOrStubAPI</text>
</a>
</g>
</g>
<!-- Node10&#45;&gt;Node7 -->
<g id="edge9" class="edge">
<title>Node10&#45;&gt;Node7</title>
<path fill="none" stroke="midnightblue" d="M408.49,-294.34C478.72,-291.66 578.61,-287.83 645.73,-285.27"/>
<polygon fill="midnightblue" stroke="midnightblue" points="408.21,-290.85 398.36,-294.73 408.48,-297.85 408.21,-290.85"/>
</g>
<!-- Node11&#45;&gt;Node1 -->
<g id="edge10" class="edge">
<title>Node11&#45;&gt;Node1</title>
<path fill="none" stroke="#9a32cd" stroke-dasharray="5,2" d="M986.31,-191.6C988.9,-191.56 991.47,-191.53 994,-191.5 1146.67,-189.8 1188.18,-176.39 1337,-210.5 1361.83,-216.19 1389.07,-224.33 1411.16,-231.43"/>
<polygon fill="#9a32cd" stroke="#9a32cd" points="986.15,-188.1 976.21,-191.75 986.26,-195.1 986.15,-188.1"/>
<text text-anchor="middle" x="1105" y="-194.5" font-family="Helvetica,sans-Serif" font-size="10.00"> planet</text>
</g>
<!-- Node12 -->
<g id="node12" class="node">
<title>Node12</title>
<g id="a_node12"><a xlink:title=" ">
<polygon fill="none" stroke="#bfbfbf" points="994,-110.5 994,-140.5 1216,-140.5 1216,-110.5 994,-110.5"/>
<text text-anchor="start" x="1002" y="-128.5" font-family="Helvetica,sans-Serif" font-size="10.00">com.fs.starfarer.api.impl.campaign.intel.punitive.</text>
<text text-anchor="middle" x="1105" y="-117.5" font-family="Helvetica,sans-Serif" font-size="10.00">PunitiveExpeditionManager.PunExData</text>
</a>
</g>
</g>
<!-- Node12&#45;&gt;Node1 -->
<g id="edge12" class="edge">
<title>Node12&#45;&gt;Node1</title>
<path fill="none" stroke="#9a32cd" stroke-dasharray="5,2" d="M1226.32,-126.97C1262.93,-130.71 1302.57,-138.21 1337,-152.5 1380.66,-170.62 1421.5,-209.73 1441.91,-231.36"/>
<polygon fill="#9a32cd" stroke="#9a32cd" points="1226.36,-123.46 1216.08,-126.01 1225.71,-130.43 1226.36,-123.46"/>
<text text-anchor="middle" x="1285.5" y="-155.5" font-family="Helvetica,sans-Serif" font-size="10.00"> punExData</text>
</g>
<!-- Node13&#45;&gt;Node12 -->
<g id="edge13" class="edge">
<title>Node13&#45;&gt;Node12</title>
<path fill="none" stroke="#9a32cd" stroke-dasharray="5,2" d="M574.61,-34.87C590.23,-42 608.64,-49.54 626,-54.5 693.11,-73.67 874.88,-97.91 993.94,-112.53"/>
<polygon fill="#9a32cd" stroke="#9a32cd" points="575.82,-31.58 565.28,-30.51 572.86,-37.92 575.82,-31.58"/>
<text text-anchor="middle" x="719" y="-90.5" font-family="Helvetica,sans-Serif" font-size="10.00"> faction</text>
</g>
<!-- Node14 -->
<g id="node14" class="node">
<title>Node14</title>
<g id="a_node14"><a xlink:href="classcom_1_1fs_1_1starfarer_1_1api_1_1util_1_1IntervalUtil.html" target="_top" xlink:title=" ">
<polygon fill="none" stroke="black" points="661,-15.5 661,-45.5 777,-45.5 777,-15.5 661,-15.5"/>
<text text-anchor="start" x="669" y="-33.5" font-family="Helvetica,sans-Serif" font-size="10.00">com.fs.starfarer.api.util.</text>
<text text-anchor="middle" x="719" y="-22.5" font-family="Helvetica,sans-Serif" font-size="10.00">IntervalUtil</text>
</a>
</g>
</g>
<!-- Node14&#45;&gt;Node12 -->
<g id="edge15" class="edge">
<title>Node14&#45;&gt;Node12</title>
<path fill="none" stroke="#9a32cd" stroke-dasharray="5,2" d="M787.23,-20.01C843.16,-15.08 922.08,-17.38 976,-57.5 992.62,-69.87 978.14,-87.17 994,-100.5 998.57,-104.34 1003.62,-107.63 1008.96,-110.43"/>
<polygon fill="#9a32cd" stroke="#9a32cd" points="786.67,-16.55 777.06,-21.01 787.36,-23.51 786.67,-16.55"/>
<text text-anchor="middle" x="903" y="-60.5" font-family="Helvetica,sans-Serif" font-size="10.00"> tracker</text>
</g>
<!-- Node15&#45;&gt;Node12 -->
<g id="edge16" class="edge">
<title>Node15&#45;&gt;Node12</title>
<path fill="none" stroke="#9a32cd" stroke-dasharray="5,2" d="M822.54,-154.82C875.42,-149.31 939.97,-142.59 993.9,-136.97"/>
<polygon fill="#9a32cd" stroke="#9a32cd" points="822.05,-151.35 812.47,-155.87 822.78,-158.31 822.05,-151.35"/>
<text text-anchor="middle" x="903" y="-156.5" font-family="Helvetica,sans-Serif" font-size="10.00"> intel</text>
</g>
<!-- Node16 -->
<g id="node16" class="node">
<title>Node16</title>
<g id="a_node16"><a xlink:href="interfacecom_1_1fs_1_1starfarer_1_1api_1_1campaign_1_1comm_1_1IntelInfoPlugin.html" target="_top" xlink:title=" ">
<polygon fill="none" stroke="black" points="237.5,-184.5 237.5,-214.5 412.5,-214.5 412.5,-184.5 237.5,-184.5"/>
<text text-anchor="start" x="245.5" y="-202.5" font-family="Helvetica,sans-Serif" font-size="10.00">com.fs.starfarer.api.campaign.comm.</text>
<text text-anchor="middle" x="325" y="-191.5" font-family="Helvetica,sans-Serif" font-size="10.00">IntelInfoPlugin</text>
</a>
</g>
</g>
<!-- Node16&#45;&gt;Node15 -->
<g id="edge17" class="edge">
<title>Node16&#45;&gt;Node15</title>
<path fill="none" stroke="midnightblue" d="M422.7,-191.11C484.73,-185.73 564.79,-178.79 625.9,-173.49"/>
<polygon fill="midnightblue" stroke="midnightblue" points="422.17,-187.65 412.51,-192 422.78,-194.62 422.17,-187.65"/>
</g>
<!-- Node17 -->
<g id="node17" class="node">
<title>Node17</title>
<g id="a_node17"><a xlink:title=" ">
<polygon fill="none" stroke="#bfbfbf" points="223.5,-135.5 223.5,-165.5 426.5,-165.5 426.5,-135.5 223.5,-135.5"/>
<text text-anchor="start" x="231.5" y="-153.5" font-family="Helvetica,sans-Serif" font-size="10.00">com.fs.starfarer.api.impl.campaign.rulecmd.</text>
<text text-anchor="middle" x="325" y="-142.5" font-family="Helvetica,sans-Serif" font-size="10.00">CallEvent.CallableEvent</text>
</a>
</g>
</g>
<!-- Node17&#45;&gt;Node15 -->
<g id="edge18" class="edge">
<title>Node17&#45;&gt;Node15</title>
<path fill="none" stroke="midnightblue" d="M436.92,-154.74C496.65,-157.03 569.45,-159.82 626,-161.98"/>
<polygon fill="midnightblue" stroke="midnightblue" points="436.82,-151.24 426.7,-154.35 436.55,-158.23 436.82,-151.24"/>
</g>
<!-- Node18 -->
<g id="node18" class="node">
<title>Node18</title>
<g id="a_node18"><a xlink:href="interfacecom_1_1fs_1_1starfarer_1_1api_1_1EveryFrameScript.html" target="_top" xlink:title=" ">
<polygon fill="none" stroke="black" points="262.5,-86.5 262.5,-116.5 387.5,-116.5 387.5,-86.5 262.5,-86.5"/>
<text text-anchor="start" x="270.5" y="-104.5" font-family="Helvetica,sans-Serif" font-size="10.00">com.fs.starfarer.api.Every</text>
<text text-anchor="middle" x="325" y="-93.5" font-family="Helvetica,sans-Serif" font-size="10.00">FrameScript</text>
</a>
</g>
</g>
<!-- Node18&#45;&gt;Node15 -->
<g id="edge19" class="edge">
<title>Node18&#45;&gt;Node15</title>
<path fill="none" stroke="midnightblue" d="M397.71,-113.21C461.89,-123.69 556.34,-139.11 626.05,-150.49"/>
<polygon fill="midnightblue" stroke="midnightblue" points="398.11,-109.73 387.68,-111.57 396.99,-116.64 398.11,-109.73"/>
</g>
<!-- Node19 -->
<g id="node19" class="node">
<title>Node19</title>
<g id="a_node19"><a xlink:title=" ">
<polygon fill="none" stroke="#bfbfbf" points="206,-37.5 206,-67.5 444,-67.5 444,-37.5 206,-37.5"/>
<text text-anchor="start" x="214" y="-55.5" font-family="Helvetica,sans-Serif" font-size="10.00">com.fs.starfarer.api.impl.campaign.</text>
<text text-anchor="middle" x="325" y="-44.5" font-family="Helvetica,sans-Serif" font-size="10.00">CommRelayEntityPlugin.CommSnifferReadableIntel</text>
</a>
</g>
</g>
<!-- Node19&#45;&gt;Node15 -->
<g id="edge20" class="edge">
<title>Node19&#45;&gt;Node15</title>
<path fill="none" stroke="midnightblue" d="M409.56,-69.75C421.15,-72.27 432.88,-74.9 444,-77.5 517.26,-94.63 544.11,-79.76 608,-119.5 618.44,-125.99 615.61,-133.93 626,-140.5 632.16,-144.39 638.91,-147.68 645.88,-150.47"/>
<polygon fill="midnightblue" stroke="midnightblue" points="409.95,-66.25 399.44,-67.56 408.47,-73.09 409.95,-66.25"/>
</g>
<!-- Node20 -->
<g id="node20" class="node">
<title>Node20</title>
<g id="a_node20"><a xlink:title=" ">
<polygon fill="none" stroke="#bfbfbf" points="692.5,-112 692.5,-131 745.5,-131 745.5,-112 692.5,-112"/>
<text text-anchor="middle" x="719" y="-119" font-family="Helvetica,sans-Serif" font-size="10.00">Random</text>
</a>
</g>
</g>
<!-- Node20&#45;&gt;Node12 -->
<g id="edge22" class="edge">
<title>Node20&#45;&gt;Node12</title>
<path fill="none" stroke="#9a32cd" stroke-dasharray="5,2" d="M755.87,-121.87C809.7,-122.43 913.63,-123.52 993.98,-124.35"/>
<polygon fill="#9a32cd" stroke="#9a32cd" points="755.83,-118.37 745.79,-121.77 755.75,-125.37 755.83,-118.37"/>
<text text-anchor="middle" x="903" y="-126.5" font-family="Helvetica,sans-Serif" font-size="10.00"> random</text>
</g>
<!-- Node21 -->
<g id="node21" class="node">
<title>Node21</title>
<g id="a_node21"><a xlink:title=" ">
<polygon fill="none" stroke="#bfbfbf" points="1085.5,-72 1085.5,-91 1124.5,-91 1124.5,-72 1085.5,-72"/>
<text text-anchor="middle" x="1105" y="-79" font-family="Helvetica,sans-Serif" font-size="10.00">Color</text>
</a>
</g>
</g>
<!-- Node21&#45;&gt;Node1 -->
<g id="edge23" class="edge">
<title>Node21&#45;&gt;Node1</title>
<path fill="none" stroke="#9a32cd" stroke-dasharray="5,2" d="M1134.78,-79.17C1180.49,-76.77 1271.23,-77.41 1337,-112.5 1389.88,-140.71 1430.38,-202.55 1447.11,-231.27"/>
<polygon fill="#9a32cd" stroke="#9a32cd" points="1134.46,-75.68 1124.69,-79.79 1134.89,-82.67 1134.46,-75.68"/>
<text text-anchor="middle" x="1285.5" y="-115.5" font-family="Helvetica,sans-Serif" font-size="10.00"> HIGHLIGHT_COLOR</text>
</g>
<!-- Node22 -->
<g id="node22" class="node">
<title>Node22</title>
<g id="a_node22"><a xlink:title=" ">
<polygon fill="none" stroke="#bfbfbf" points="1003.5,-22.5 1003.5,-52.5 1206.5,-52.5 1206.5,-22.5 1003.5,-22.5"/>
<text text-anchor="start" x="1011.5" y="-40.5" font-family="Helvetica,sans-Serif" font-size="10.00">com.fs.starfarer.api.impl.campaign.procgen.</text>
<text text-anchor="middle" x="1105" y="-29.5" font-family="Helvetica,sans-Serif" font-size="10.00">EventTestPluginImpl.OptionId</text>
</a>
</g>
</g>
<!-- Node22&#45;&gt;Node1 -->
<g id="edge24" class="edge">
<title>Node22&#45;&gt;Node1</title>
<path fill="none" stroke="#9a32cd" stroke-dasharray="5,2" d="M1216.74,-33.2C1257.14,-36.25 1301.57,-45.41 1337,-67.5 1400.88,-107.34 1437.73,-195.75 1450.43,-231.28"/>
<polygon fill="#9a32cd" stroke="#9a32cd" points="1216.76,-29.69 1206.56,-32.55 1216.32,-36.68 1216.76,-29.69"/>
<text text-anchor="middle" x="1285.5" y="-70.5" font-family="Helvetica,sans-Serif" font-size="10.00"> lastOptionMousedOver</text>
</g>
</g>
</svg>
