<?xml version="1.0" encoding="UTF-8" standalone="no"?>
<!DOCTYPE svg PUBLIC "-//W3C//DTD SVG 1.1//EN"
 "http://www.w3.org/Graphics/SVG/1.1/DTD/svg11.dtd">
<!-- Generated by graphviz version 2.44.0 ()
 -->
<!-- Title: com.fs.starfarer.api.impl.campaign.events.OfficerManagerEvent Pages: 1 -->
<svg width="890pt" height="165pt"
 viewBox="0.00 0.00 890.00 165.09" xmlns="http://www.w3.org/2000/svg" xmlns:xlink="http://www.w3.org/1999/xlink">
<g id="graph0" class="graph" transform="scale(1 1) rotate(0) translate(4 161.09)">
<title>com.fs.starfarer.api.impl.campaign.events.OfficerManagerEvent</title>
<!-- Node1 -->
<g id="node1" class="node">
<title>Node1</title>
<g id="a_node1"><a xlink:title=" ">
<polygon fill="#bfbfbf" stroke="black" points="685,-73.5 685,-103.5 882,-103.5 882,-73.5 685,-73.5"/>
<text text-anchor="start" x="693" y="-91.5" font-family="Helvetica,sans-Serif" font-size="10.00">com.fs.starfarer.api.impl.campaign.events.</text>
<text text-anchor="middle" x="783.5" y="-80.5" font-family="Helvetica,sans-Serif" font-size="10.00">OfficerManagerEvent</text>
</a>
</g>
</g>
<!-- Node2 -->
<g id="node2" class="node">
<title>Node2</title>
<g id="a_node2"><a xlink:href="classcom_1_1fs_1_1starfarer_1_1api_1_1impl_1_1campaign_1_1events_1_1BaseEventPlugin.html" target="_top" xlink:title=" ">
<polygon fill="none" stroke="black" points="452,-98.5 452,-128.5 649,-128.5 649,-98.5 452,-98.5"/>
<text text-anchor="start" x="460" y="-116.5" font-family="Helvetica,sans-Serif" font-size="10.00">com.fs.starfarer.api.impl.campaign.events.</text>
<text text-anchor="middle" x="550.5" y="-105.5" font-family="Helvetica,sans-Serif" font-size="10.00">BaseEventPlugin</text>
</a>
</g>
</g>
<!-- Node2&#45;&gt;Node1 -->
<g id="edge1" class="edge">
<title>Node2&#45;&gt;Node1</title>
<path fill="none" stroke="midnightblue" d="M659.15,-101.85C667.72,-100.92 676.35,-99.99 684.85,-99.07"/>
<polygon fill="midnightblue" stroke="midnightblue" points="658.7,-98.38 649.13,-102.93 659.45,-105.34 658.7,-98.38"/>
</g>
<!-- Node3 -->
<g id="node3" class="node">
<title>Node3</title>
<g id="a_node3"><a xlink:href="interfacecom_1_1fs_1_1starfarer_1_1api_1_1campaign_1_1events_1_1CampaignEventPlugin.html" target="_top" xlink:title=" ">
<polygon fill="none" stroke="black" points="239,-98.5 239,-128.5 416,-128.5 416,-98.5 239,-98.5"/>
<text text-anchor="start" x="247" y="-116.5" font-family="Helvetica,sans-Serif" font-size="10.00">com.fs.starfarer.api.campaign.events.</text>
<text text-anchor="middle" x="327.5" y="-105.5" font-family="Helvetica,sans-Serif" font-size="10.00">CampaignEventPlugin</text>
</a>
</g>
</g>
<!-- Node3&#45;&gt;Node2 -->
<g id="edge2" class="edge">
<title>Node3&#45;&gt;Node2</title>
<path fill="none" stroke="midnightblue" d="M426.38,-113.5C434.8,-113.5 443.32,-113.5 451.75,-113.5"/>
<polygon fill="midnightblue" stroke="midnightblue" points="426.16,-110 416.16,-113.5 426.16,-117 426.16,-110"/>
</g>
<!-- Node4 -->
<g id="node4" class="node">
<title>Node4</title>
<g id="a_node4"><a xlink:href="interfacecom_1_1fs_1_1starfarer_1_1api_1_1impl_1_1campaign_1_1rulecmd_1_1CallEvent_1_1CallableEvent.html" target="_top" xlink:title=" ">
<polygon fill="none" stroke="black" points="0,-120.5 0,-150.5 203,-150.5 203,-120.5 0,-120.5"/>
<text text-anchor="start" x="8" y="-138.5" font-family="Helvetica,sans-Serif" font-size="10.00">com.fs.starfarer.api.impl.campaign.rulecmd.</text>
<text text-anchor="middle" x="101.5" y="-127.5" font-family="Helvetica,sans-Serif" font-size="10.00">CallEvent.CallableEvent</text>
</a>
</g>
</g>
<!-- Node4&#45;&gt;Node1 -->
<g id="edge5" class="edge">
<title>Node4&#45;&gt;Node1</title>
<path fill="none" stroke="midnightblue" d="M213.4,-147.95C324.55,-157.67 500.07,-165.47 649,-138.5 685.65,-131.86 725.35,-115.75 751.84,-103.59"/>
<polygon fill="midnightblue" stroke="midnightblue" points="213.45,-144.44 203.18,-147.04 212.83,-151.41 213.45,-144.44"/>
</g>
<!-- Node4&#45;&gt;Node3 -->
<g id="edge3" class="edge">
<title>Node4&#45;&gt;Node3</title>
<path fill="none" stroke="midnightblue" d="M213.17,-124.63C221.82,-123.78 230.48,-122.93 238.95,-122.1"/>
<polygon fill="midnightblue" stroke="midnightblue" points="212.64,-121.17 203.03,-125.63 213.33,-128.13 212.64,-121.17"/>
</g>
<!-- Node5 -->
<g id="node5" class="node">
<title>Node5</title>
<g id="a_node5"><a xlink:href="interfacecom_1_1fs_1_1starfarer_1_1api_1_1campaign_1_1CampaignEventListener.html" target="_top" xlink:title=" ">
<polygon fill="none" stroke="black" points="254.5,-49.5 254.5,-79.5 400.5,-79.5 400.5,-49.5 254.5,-49.5"/>
<text text-anchor="start" x="262.5" y="-67.5" font-family="Helvetica,sans-Serif" font-size="10.00">com.fs.starfarer.api.campaign.</text>
<text text-anchor="middle" x="327.5" y="-56.5" font-family="Helvetica,sans-Serif" font-size="10.00">CampaignEventListener</text>
</a>
</g>
</g>
<!-- Node5&#45;&gt;Node2 -->
<g id="edge4" class="edge">
<title>Node5&#45;&gt;Node2</title>
<path fill="none" stroke="midnightblue" d="M406.34,-81.76C430.96,-87.22 457.97,-93.21 481.82,-98.49"/>
<polygon fill="midnightblue" stroke="midnightblue" points="406.83,-78.28 396.31,-79.53 405.31,-85.12 406.83,-78.28"/>
</g>
<!-- Node6 -->
<g id="node6" class="node">
<title>Node6</title>
<g id="a_node6"><a xlink:href="interfacecom_1_1fs_1_1starfarer_1_1api_1_1campaign_1_1listeners_1_1ColonyInteractionListener.html" target="_top" xlink:title=" ">
<polygon fill="none" stroke="black" points="458,-49.5 458,-79.5 643,-79.5 643,-49.5 458,-49.5"/>
<text text-anchor="start" x="466" y="-67.5" font-family="Helvetica,sans-Serif" font-size="10.00">com.fs.starfarer.api.campaign.listeners.</text>
<text text-anchor="middle" x="550.5" y="-56.5" font-family="Helvetica,sans-Serif" font-size="10.00">ColonyInteractionListener</text>
</a>
</g>
</g>
<!-- Node6&#45;&gt;Node1 -->
<g id="edge6" class="edge">
<title>Node6&#45;&gt;Node1</title>
<path fill="none" stroke="midnightblue" d="M653.18,-75.06C663.72,-76.16 674.41,-77.27 684.91,-78.36"/>
<polygon fill="midnightblue" stroke="midnightblue" points="653.44,-71.57 643.13,-74.02 652.71,-78.53 653.44,-71.57"/>
</g>
<!-- Node7 -->
<g id="node7" class="node">
<title>Node7</title>
<g id="a_node7"><a xlink:href="interfacecom_1_1fs_1_1starfarer_1_1api_1_1EveryFrameScript.html" target="_top" xlink:title=" ">
<polygon fill="none" stroke="black" points="488,-0.5 488,-30.5 613,-30.5 613,-0.5 488,-0.5"/>
<text text-anchor="start" x="496" y="-18.5" font-family="Helvetica,sans-Serif" font-size="10.00">com.fs.starfarer.api.Every</text>
<text text-anchor="middle" x="550.5" y="-7.5" font-family="Helvetica,sans-Serif" font-size="10.00">FrameScript</text>
</a>
</g>
</g>
<!-- Node7&#45;&gt;Node1 -->
<g id="edge7" class="edge">
<title>Node7&#45;&gt;Node1</title>
<path fill="none" stroke="midnightblue" d="M623.03,-32.14C631.82,-34.47 640.64,-36.95 649,-39.5 681.82,-49.53 718.36,-63.11 744.9,-73.43"/>
<polygon fill="midnightblue" stroke="midnightblue" points="623.71,-28.71 613.16,-29.58 621.96,-35.48 623.71,-28.71"/>
</g>
</g>
</svg>
