<?xml version="1.0" encoding="UTF-8" standalone="no"?>
<!DOCTYPE svg PUBLIC "-//W3C//DTD SVG 1.1//EN"
 "http://www.w3.org/Graphics/SVG/1.1/DTD/svg11.dtd">
<!-- Generated by graphviz version 2.44.0 ()
 -->
<!-- Title: com.fs.starfarer.api.impl.campaign.rulecmd.salvage.PrintWreckDescription Pages: 1 -->
<svg width="1659pt" height="569pt"
 viewBox="0.00 0.00 1659.00 569.00" xmlns="http://www.w3.org/2000/svg" xmlns:xlink="http://www.w3.org/1999/xlink">
<g id="graph0" class="graph" transform="scale(1 1) rotate(0) translate(4 565)">
<title>com.fs.starfarer.api.impl.campaign.rulecmd.salvage.PrintWreckDescription</title>
<!-- Node1 -->
<g id="node1" class="node">
<title>Node1</title>
<g id="a_node1"><a xlink:title=" ">
<polygon fill="#bfbfbf" stroke="black" points="1412,-237.5 1412,-267.5 1651,-267.5 1651,-237.5 1412,-237.5"/>
<text text-anchor="start" x="1420" y="-255.5" font-family="Helvetica,sans-Serif" font-size="10.00">com.fs.starfarer.api.impl.campaign.rulecmd.salvage.</text>
<text text-anchor="middle" x="1531.5" y="-244.5" font-family="Helvetica,sans-Serif" font-size="10.00">PrintWreckDescription</text>
</a>
</g>
</g>
<!-- Node2 -->
<g id="node2" class="node">
<title>Node2</title>
<g id="a_node2"><a xlink:href="classcom_1_1fs_1_1starfarer_1_1api_1_1impl_1_1campaign_1_1rulecmd_1_1BaseCommandPlugin.html" target="_top" xlink:title=" ">
<polygon fill="none" stroke="black" points="1105,-499.5 1105,-529.5 1308,-529.5 1308,-499.5 1105,-499.5"/>
<text text-anchor="start" x="1113" y="-517.5" font-family="Helvetica,sans-Serif" font-size="10.00">com.fs.starfarer.api.impl.campaign.rulecmd.</text>
<text text-anchor="middle" x="1206.5" y="-506.5" font-family="Helvetica,sans-Serif" font-size="10.00">BaseCommandPlugin</text>
</a>
</g>
</g>
<!-- Node2&#45;&gt;Node1 -->
<g id="edge1" class="edge">
<title>Node2&#45;&gt;Node1</title>
<path fill="none" stroke="midnightblue" d="M1248.96,-495.11C1270.36,-484.88 1296.78,-471.9 1320,-459.5 1353.55,-441.58 1364.94,-441.05 1394,-416.5 1449.46,-369.64 1500.01,-298.4 1520.66,-267.58"/>
<polygon fill="midnightblue" stroke="midnightblue" points="1247.34,-492 1239.81,-499.46 1250.35,-498.32 1247.34,-492"/>
</g>
<!-- Node3 -->
<g id="node3" class="node">
<title>Node3</title>
<g id="a_node3"><a xlink:href="interfacecom_1_1fs_1_1starfarer_1_1api_1_1campaign_1_1rules_1_1CommandPlugin.html" target="_top" xlink:title=" ">
<polygon fill="none" stroke="black" points="817,-517.5 817,-547.5 986,-547.5 986,-517.5 817,-517.5"/>
<text text-anchor="start" x="825" y="-535.5" font-family="Helvetica,sans-Serif" font-size="10.00">com.fs.starfarer.api.campaign.rules.</text>
<text text-anchor="middle" x="901.5" y="-524.5" font-family="Helvetica,sans-Serif" font-size="10.00">CommandPlugin</text>
</a>
</g>
</g>
<!-- Node3&#45;&gt;Node2 -->
<g id="edge2" class="edge">
<title>Node3&#45;&gt;Node2</title>
<path fill="none" stroke="midnightblue" d="M996.17,-526.94C1030.66,-524.89 1069.87,-522.56 1104.94,-520.47"/>
<polygon fill="midnightblue" stroke="midnightblue" points="995.87,-523.45 986.1,-527.53 996.29,-530.43 995.87,-523.45"/>
</g>
<!-- Node4 -->
<g id="node4" class="node">
<title>Node4</title>
<g id="a_node4"><a xlink:title=" ">
<polygon fill="none" stroke="#bfbfbf" points="1093,-419.5 1093,-449.5 1320,-449.5 1320,-419.5 1093,-419.5"/>
<text text-anchor="start" x="1101" y="-437.5" font-family="Helvetica,sans-Serif" font-size="10.00">Map&lt; String, com.fs.starfarer.api.campaign.rules.</text>
<text text-anchor="middle" x="1206.5" y="-426.5" font-family="Helvetica,sans-Serif" font-size="10.00">MemoryAPI &gt;</text>
</a>
</g>
</g>
<!-- Node4&#45;&gt;Node1 -->
<g id="edge3" class="edge">
<title>Node4&#45;&gt;Node1</title>
<path fill="none" stroke="#9a32cd" stroke-dasharray="5,2" d="M1300.84,-416.76C1307.39,-414.86 1313.83,-412.77 1320,-410.5 1405.54,-379 1485.6,-300.64 1516.77,-267.59"/>
<polygon fill="#9a32cd" stroke="#9a32cd" points="1299.9,-413.39 1291.2,-419.43 1301.77,-420.14 1299.9,-413.39"/>
<text text-anchor="middle" x="1366" y="-404.5" font-family="Helvetica,sans-Serif" font-size="10.00"> memoryMap</text>
</g>
<!-- Node5 -->
<g id="node5" class="node">
<title>Node5</title>
<g id="a_node5"><a xlink:href="interfacecom_1_1fs_1_1starfarer_1_1api_1_1campaign_1_1CargoAPI.html" target="_top" xlink:title=" ">
<polygon fill="none" stroke="black" points="1133.5,-370.5 1133.5,-400.5 1279.5,-400.5 1279.5,-370.5 1133.5,-370.5"/>
<text text-anchor="start" x="1141.5" y="-388.5" font-family="Helvetica,sans-Serif" font-size="10.00">com.fs.starfarer.api.campaign.</text>
<text text-anchor="middle" x="1206.5" y="-377.5" font-family="Helvetica,sans-Serif" font-size="10.00">CargoAPI</text>
</a>
</g>
</g>
<!-- Node5&#45;&gt;Node1 -->
<g id="edge4" class="edge">
<title>Node5&#45;&gt;Node1</title>
<path fill="none" stroke="#9a32cd" stroke-dasharray="5,2" d="M1289.49,-369.53C1299.82,-367.07 1310.2,-364.38 1320,-361.5 1353.74,-351.58 1362.32,-348.75 1394,-333.5 1435.71,-313.42 1481.46,-284.81 1507.99,-267.52"/>
<polygon fill="#9a32cd" stroke="#9a32cd" points="1288.58,-366.15 1279.62,-371.81 1290.16,-372.97 1288.58,-366.15"/>
<text text-anchor="middle" x="1366" y="-358.5" font-family="Helvetica,sans-Serif" font-size="10.00"> cargo</text>
</g>
<!-- Node6 -->
<g id="node6" class="node">
<title>Node6</title>
<g id="a_node6"><a xlink:href="classcom_1_1fs_1_1starfarer_1_1api_1_1impl_1_1campaign_1_1DerelictShipEntityPlugin.html" target="_top" xlink:title=" ">
<polygon fill="none" stroke="black" points="1123.5,-321.5 1123.5,-351.5 1289.5,-351.5 1289.5,-321.5 1123.5,-321.5"/>
<text text-anchor="start" x="1131.5" y="-339.5" font-family="Helvetica,sans-Serif" font-size="10.00">com.fs.starfarer.api.impl.campaign.</text>
<text text-anchor="middle" x="1206.5" y="-328.5" font-family="Helvetica,sans-Serif" font-size="10.00">DerelictShipEntityPlugin</text>
</a>
</g>
</g>
<!-- Node6&#45;&gt;Node1 -->
<g id="edge5" class="edge">
<title>Node6&#45;&gt;Node1</title>
<path fill="none" stroke="#9a32cd" stroke-dasharray="5,2" d="M1299.72,-325.72C1330.05,-321.1 1363.74,-314.81 1394,-306.5 1430.74,-296.41 1471.12,-279.69 1498.36,-267.52"/>
<polygon fill="#9a32cd" stroke="#9a32cd" points="1298.95,-322.3 1289.57,-327.22 1299.97,-329.22 1298.95,-322.3"/>
<text text-anchor="middle" x="1366" y="-321.5" font-family="Helvetica,sans-Serif" font-size="10.00"> plugin</text>
</g>
<!-- Node7 -->
<g id="node7" class="node">
<title>Node7</title>
<g id="a_node7"><a xlink:href="classcom_1_1fs_1_1starfarer_1_1api_1_1impl_1_1campaign_1_1BaseCustomEntityPlugin.html" target="_top" xlink:title=" ">
<polygon fill="none" stroke="black" points="818.5,-321.5 818.5,-351.5 984.5,-351.5 984.5,-321.5 818.5,-321.5"/>
<text text-anchor="start" x="826.5" y="-339.5" font-family="Helvetica,sans-Serif" font-size="10.00">com.fs.starfarer.api.impl.campaign.</text>
<text text-anchor="middle" x="901.5" y="-328.5" font-family="Helvetica,sans-Serif" font-size="10.00">BaseCustomEntityPlugin</text>
</a>
</g>
</g>
<!-- Node7&#45;&gt;Node6 -->
<g id="edge6" class="edge">
<title>Node7&#45;&gt;Node6</title>
<path fill="none" stroke="midnightblue" d="M995.14,-336.5C1036.06,-336.5 1083.76,-336.5 1123.38,-336.5"/>
<polygon fill="midnightblue" stroke="midnightblue" points="994.9,-333 984.9,-336.5 994.9,-340 994.9,-333"/>
</g>
<!-- Node8 -->
<g id="node8" class="node">
<title>Node8</title>
<g id="a_node8"><a xlink:href="interfacecom_1_1fs_1_1starfarer_1_1api_1_1campaign_1_1CustomCampaignEntityPlugin.html" target="_top" xlink:title=" ">
<polygon fill="none" stroke="black" points="413,-370.5 413,-400.5 559,-400.5 559,-370.5 413,-370.5"/>
<text text-anchor="start" x="421" y="-388.5" font-family="Helvetica,sans-Serif" font-size="10.00">com.fs.starfarer.api.campaign.</text>
<text text-anchor="middle" x="486" y="-377.5" font-family="Helvetica,sans-Serif" font-size="10.00">CustomCampaignEntityPlugin</text>
</a>
</g>
</g>
<!-- Node8&#45;&gt;Node7 -->
<g id="edge7" class="edge">
<title>Node8&#45;&gt;Node7</title>
<path fill="none" stroke="midnightblue" d="M569.5,-391.63C630.47,-393.78 714.88,-391.71 786,-371.5 794.8,-369 795.5,-364.9 804,-361.5 813.32,-357.77 823.37,-354.45 833.34,-351.54"/>
<polygon fill="midnightblue" stroke="midnightblue" points="569.29,-388.12 559.16,-391.22 569.01,-395.12 569.29,-388.12"/>
</g>
<!-- Node9 -->
<g id="node9" class="node">
<title>Node9</title>
<g id="a_node9"><a xlink:href="interfacecom_1_1fs_1_1starfarer_1_1api_1_1campaign_1_1SectorEntityToken.html" target="_top" xlink:title=" ">
<polygon fill="none" stroke="black" points="413,-277.5 413,-307.5 559,-307.5 559,-277.5 413,-277.5"/>
<text text-anchor="start" x="421" y="-295.5" font-family="Helvetica,sans-Serif" font-size="10.00">com.fs.starfarer.api.campaign.</text>
<text text-anchor="middle" x="486" y="-284.5" font-family="Helvetica,sans-Serif" font-size="10.00">SectorEntityToken</text>
</a>
</g>
</g>
<!-- Node9&#45;&gt;Node1 -->
<g id="edge21" class="edge">
<title>Node9&#45;&gt;Node1</title>
<path fill="none" stroke="#9a32cd" stroke-dasharray="5,2" d="M569.28,-291.52C728.59,-289.29 1090.27,-282.52 1394,-264.5 1399.82,-264.15 1405.77,-263.77 1411.78,-263.34"/>
<polygon fill="#9a32cd" stroke="#9a32cd" points="569.03,-288.03 559.08,-291.67 569.12,-295.03 569.03,-288.03"/>
<text text-anchor="middle" x="1046" y="-283.5" font-family="Helvetica,sans-Serif" font-size="10.00"> entity</text>
</g>
<!-- Node9&#45;&gt;Node7 -->
<g id="edge8" class="edge">
<title>Node9&#45;&gt;Node7</title>
<path fill="none" stroke="#9a32cd" stroke-dasharray="5,2" d="M569,-301.23C641.26,-308.91 745.99,-320.06 818.3,-327.75"/>
<polygon fill="#9a32cd" stroke="#9a32cd" points="569.34,-297.74 559.03,-300.16 568.6,-304.7 569.34,-297.74"/>
<text text-anchor="middle" x="713" y="-325.5" font-family="Helvetica,sans-Serif" font-size="10.00"> entity</text>
</g>
<!-- Node11 -->
<g id="node11" class="node">
<title>Node11</title>
<g id="a_node11"><a xlink:href="classcom_1_1fs_1_1starfarer_1_1api_1_1impl_1_1campaign_1_1GenericCampaignEntitySprite.html" target="_top" xlink:title=" ">
<polygon fill="none" stroke="black" points="818.5,-419.5 818.5,-449.5 984.5,-449.5 984.5,-419.5 818.5,-419.5"/>
<text text-anchor="start" x="826.5" y="-437.5" font-family="Helvetica,sans-Serif" font-size="10.00">com.fs.starfarer.api.impl.campaign.</text>
<text text-anchor="middle" x="901.5" y="-426.5" font-family="Helvetica,sans-Serif" font-size="10.00">GenericCampaignEntitySprite</text>
</a>
</g>
</g>
<!-- Node9&#45;&gt;Node11 -->
<g id="edge11" class="edge">
<title>Node9&#45;&gt;Node11</title>
<path fill="none" stroke="#9a32cd" stroke-dasharray="5,2" d="M533,-311.49C594.18,-336.31 706.02,-380.18 804,-410.5 814.23,-413.66 825.16,-416.7 835.86,-419.49"/>
<polygon fill="#9a32cd" stroke="#9a32cd" points="534.21,-308.2 523.63,-307.67 531.57,-314.68 534.21,-308.2"/>
<text text-anchor="middle" x="713" y="-404.5" font-family="Helvetica,sans-Serif" font-size="10.00"> entity</text>
</g>
<!-- Node20 -->
<g id="node20" class="node">
<title>Node20</title>
<g id="a_node20"><a xlink:href="interfacecom_1_1fs_1_1starfarer_1_1api_1_1campaign_1_1CampaignFleetAPI.html" target="_top" xlink:title=" ">
<polygon fill="none" stroke="black" points="828.5,-233.5 828.5,-263.5 974.5,-263.5 974.5,-233.5 828.5,-233.5"/>
<text text-anchor="start" x="836.5" y="-251.5" font-family="Helvetica,sans-Serif" font-size="10.00">com.fs.starfarer.api.campaign.</text>
<text text-anchor="middle" x="901.5" y="-240.5" font-family="Helvetica,sans-Serif" font-size="10.00">CampaignFleetAPI</text>
</a>
</g>
</g>
<!-- Node9&#45;&gt;Node20 -->
<g id="edge23" class="edge">
<title>Node9&#45;&gt;Node20</title>
<path fill="none" stroke="midnightblue" d="M568.99,-283.78C644.64,-275.73 755.88,-263.89 828.26,-256.19"/>
<polygon fill="midnightblue" stroke="midnightblue" points="568.6,-280.3 559.03,-284.84 569.34,-287.26 568.6,-280.3"/>
</g>
<!-- Node10 -->
<g id="node10" class="node">
<title>Node10</title>
<g id="a_node10"><a xlink:href="interfacecom_1_1fs_1_1starfarer_1_1api_1_1campaign_1_1rules_1_1HasMemory.html" target="_top" xlink:title=" ">
<polygon fill="none" stroke="black" points="51.5,-214.5 51.5,-244.5 220.5,-244.5 220.5,-214.5 51.5,-214.5"/>
<text text-anchor="start" x="59.5" y="-232.5" font-family="Helvetica,sans-Serif" font-size="10.00">com.fs.starfarer.api.campaign.rules.</text>
<text text-anchor="middle" x="136" y="-221.5" font-family="Helvetica,sans-Serif" font-size="10.00">HasMemory</text>
</a>
</g>
</g>
<!-- Node10&#45;&gt;Node9 -->
<g id="edge9" class="edge">
<title>Node10&#45;&gt;Node9</title>
<path fill="none" stroke="midnightblue" d="M228.34,-246.33C266,-253.24 310.1,-261.3 350,-268.5 370.38,-272.18 392.5,-276.13 412.82,-279.74"/>
<polygon fill="midnightblue" stroke="midnightblue" points="228.87,-242.87 218.4,-244.51 227.61,-249.75 228.87,-242.87"/>
</g>
<!-- Node19 -->
<g id="node19" class="node">
<title>Node19</title>
<g id="a_node19"><a xlink:href="interfacecom_1_1fs_1_1starfarer_1_1api_1_1campaign_1_1FactionAPI.html" target="_top" xlink:title=" ">
<polygon fill="none" stroke="black" points="640,-186.5 640,-216.5 786,-216.5 786,-186.5 640,-186.5"/>
<text text-anchor="start" x="648" y="-204.5" font-family="Helvetica,sans-Serif" font-size="10.00">com.fs.starfarer.api.campaign.</text>
<text text-anchor="middle" x="713" y="-193.5" font-family="Helvetica,sans-Serif" font-size="10.00">FactionAPI</text>
</a>
</g>
</g>
<!-- Node10&#45;&gt;Node19 -->
<g id="edge20" class="edge">
<title>Node10&#45;&gt;Node19</title>
<path fill="none" stroke="midnightblue" d="M230.75,-224.93C345.12,-219.37 536,-210.07 639.66,-205.02"/>
<polygon fill="midnightblue" stroke="midnightblue" points="230.43,-221.45 220.61,-225.43 230.77,-228.44 230.43,-221.45"/>
</g>
<!-- Node11&#45;&gt;Node6 -->
<g id="edge10" class="edge">
<title>Node11&#45;&gt;Node6</title>
<path fill="none" stroke="#9a32cd" stroke-dasharray="5,2" d="M977.41,-416.82C984.74,-414.8 992.04,-412.69 999,-410.5 1033.49,-399.67 1045.19,-401.95 1075,-381.5 1084.86,-374.74 1082.67,-367.53 1093,-361.5 1102.33,-356.05 1112.73,-351.79 1123.33,-348.46"/>
<polygon fill="#9a32cd" stroke="#9a32cd" points="976.18,-413.53 967.43,-419.5 977.99,-420.29 976.18,-413.53"/>
<text text-anchor="middle" x="1046" y="-407.5" font-family="Helvetica,sans-Serif" font-size="10.00"> sprite</text>
</g>
<!-- Node12 -->
<g id="node12" class="node">
<title>Node12</title>
<g id="a_node12"><a xlink:href="interfacecom_1_1fs_1_1starfarer_1_1api_1_1graphics_1_1SpriteAPI.html" target="_top" xlink:title=" ">
<polygon fill="none" stroke="black" points="416,-419.5 416,-449.5 556,-449.5 556,-419.5 416,-419.5"/>
<text text-anchor="start" x="424" y="-437.5" font-family="Helvetica,sans-Serif" font-size="10.00">com.fs.starfarer.api.graphics.</text>
<text text-anchor="middle" x="486" y="-426.5" font-family="Helvetica,sans-Serif" font-size="10.00">SpriteAPI</text>
</a>
</g>
</g>
<!-- Node12&#45;&gt;Node11 -->
<g id="edge12" class="edge">
<title>Node12&#45;&gt;Node11</title>
<path fill="none" stroke="#9a32cd" stroke-dasharray="5,2" d="M566.62,-434.5C638.93,-434.5 745.13,-434.5 818.25,-434.5"/>
<polygon fill="#9a32cd" stroke="#9a32cd" points="566.21,-431 556.21,-434.5 566.21,-438 566.21,-431"/>
<text text-anchor="middle" x="713" y="-470.5" font-family="Helvetica,sans-Serif" font-size="10.00"> glow</text>
<text text-anchor="middle" x="713" y="-459.5" font-family="Helvetica,sans-Serif" font-size="10.00">overlay</text>
<text text-anchor="middle" x="713" y="-448.5" font-family="Helvetica,sans-Serif" font-size="10.00">shadowMask</text>
<text text-anchor="middle" x="713" y="-437.5" font-family="Helvetica,sans-Serif" font-size="10.00">sprite</text>
</g>
<!-- Node13 -->
<g id="node13" class="node">
<title>Node13</title>
<g id="a_node13"><a xlink:href="classcom_1_1fs_1_1starfarer_1_1api_1_1impl_1_1campaign_1_1DerelictShipEntityPlugin_1_1DerelictShipData.html" target="_top" xlink:title=" ">
<polygon fill="none" stroke="black" points="804,-468.5 804,-498.5 999,-498.5 999,-468.5 804,-468.5"/>
<text text-anchor="start" x="812" y="-486.5" font-family="Helvetica,sans-Serif" font-size="10.00">com.fs.starfarer.api.impl.campaign.</text>
<text text-anchor="middle" x="901.5" y="-475.5" font-family="Helvetica,sans-Serif" font-size="10.00">DerelictShipEntityPlugin.DerelictShipData</text>
</a>
</g>
</g>
<!-- Node13&#45;&gt;Node6 -->
<g id="edge13" class="edge">
<title>Node13&#45;&gt;Node6</title>
<path fill="none" stroke="#9a32cd" stroke-dasharray="5,2" d="M1004.09,-465.11C1030.66,-455.63 1056.9,-441.27 1075,-419.5 1092.26,-398.75 1073.15,-379.78 1093,-361.5 1101.61,-353.57 1112.16,-347.96 1123.31,-344.02"/>
<polygon fill="#9a32cd" stroke="#9a32cd" points="1002.67,-461.9 994.3,-468.39 1004.89,-468.54 1002.67,-461.9"/>
<text text-anchor="middle" x="1046" y="-461.5" font-family="Helvetica,sans-Serif" font-size="10.00"> data</text>
</g>
<!-- Node14 -->
<g id="node14" class="node">
<title>Node14</title>
<g id="a_node14"><a xlink:href="classcom_1_1fs_1_1starfarer_1_1api_1_1impl_1_1campaign_1_1rulecmd_1_1salvage_1_1special_1_1ShipRecoverySpecial_1_1PerShipData.html" target="_top" xlink:title=" ">
<polygon fill="none" stroke="black" points="350,-486.5 350,-516.5 622,-516.5 622,-486.5 350,-486.5"/>
<text text-anchor="start" x="358" y="-504.5" font-family="Helvetica,sans-Serif" font-size="10.00">com.fs.starfarer.api.impl.campaign.rulecmd.salvage.special.</text>
<text text-anchor="middle" x="486" y="-493.5" font-family="Helvetica,sans-Serif" font-size="10.00">ShipRecoverySpecial.PerShipData</text>
</a>
</g>
</g>
<!-- Node14&#45;&gt;Node13 -->
<g id="edge14" class="edge">
<title>Node14&#45;&gt;Node13</title>
<path fill="none" stroke="#9a32cd" stroke-dasharray="5,2" d="M632.28,-495.18C689.18,-492.7 752.92,-489.92 803.97,-487.7"/>
<polygon fill="#9a32cd" stroke="#9a32cd" points="631.95,-491.69 622.11,-495.62 632.25,-498.68 631.95,-491.69"/>
<text text-anchor="middle" x="713" y="-497.5" font-family="Helvetica,sans-Serif" font-size="10.00"> ship</text>
</g>
<!-- Node15 -->
<g id="node15" class="node">
<title>Node15</title>
<g id="a_node15"><a xlink:title=" ">
<polygon fill="none" stroke="#bfbfbf" points="106.5,-492 106.5,-511 165.5,-511 165.5,-492 106.5,-492"/>
<text text-anchor="middle" x="136" y="-499" font-family="Helvetica,sans-Serif" font-size="10.00">Cloneable</text>
</a>
</g>
</g>
<!-- Node15&#45;&gt;Node14 -->
<g id="edge15" class="edge">
<title>Node15&#45;&gt;Node14</title>
<path fill="none" stroke="midnightblue" d="M175.85,-501.5C217.89,-501.5 287.3,-501.5 349.71,-501.5"/>
<polygon fill="midnightblue" stroke="midnightblue" points="175.77,-498 165.77,-501.5 175.77,-505 175.77,-498"/>
</g>
<!-- Node16 -->
<g id="node16" class="node">
<title>Node16</title>
<g id="a_node16"><a xlink:href="interfacecom_1_1fs_1_1starfarer_1_1api_1_1combat_1_1ShipVariantAPI.html" target="_top" xlink:title=" ">
<polygon fill="none" stroke="black" points="68,-442.5 68,-472.5 204,-472.5 204,-442.5 68,-442.5"/>
<text text-anchor="start" x="76" y="-460.5" font-family="Helvetica,sans-Serif" font-size="10.00">com.fs.starfarer.api.combat.</text>
<text text-anchor="middle" x="136" y="-449.5" font-family="Helvetica,sans-Serif" font-size="10.00">ShipVariantAPI</text>
</a>
</g>
</g>
<!-- Node16&#45;&gt;Node14 -->
<g id="edge16" class="edge">
<title>Node16&#45;&gt;Node14</title>
<path fill="none" stroke="#9a32cd" stroke-dasharray="5,2" d="M214.3,-467.27C258.96,-472.92 316.07,-480.14 366.32,-486.49"/>
<polygon fill="#9a32cd" stroke="#9a32cd" points="214.46,-463.77 204.1,-465.98 213.58,-470.71 214.46,-463.77"/>
<text text-anchor="middle" x="311" y="-484.5" font-family="Helvetica,sans-Serif" font-size="10.00"> variant</text>
</g>
<!-- Node17 -->
<g id="node17" class="node">
<title>Node17</title>
<g id="a_node17"><a xlink:href="enumcom_1_1fs_1_1starfarer_1_1api_1_1impl_1_1campaign_1_1rulecmd_1_1salvage_1_1special_1_1ShipRecoverySpecial_1_1ShipCondition.html" target="_top" xlink:title=" ">
<polygon fill="none" stroke="black" points="0,-530.5 0,-560.5 272,-560.5 272,-530.5 0,-530.5"/>
<text text-anchor="start" x="8" y="-548.5" font-family="Helvetica,sans-Serif" font-size="10.00">com.fs.starfarer.api.impl.campaign.rulecmd.salvage.special.</text>
<text text-anchor="middle" x="136" y="-537.5" font-family="Helvetica,sans-Serif" font-size="10.00">ShipRecoverySpecial.ShipCondition</text>
</a>
</g>
</g>
<!-- Node17&#45;&gt;Node14 -->
<g id="edge17" class="edge">
<title>Node17&#45;&gt;Node14</title>
<path fill="none" stroke="#9a32cd" stroke-dasharray="5,2" d="M265.9,-529.2C298.73,-525.05 333.86,-520.61 366.16,-516.53"/>
<polygon fill="#9a32cd" stroke="#9a32cd" points="265.27,-525.75 255.79,-530.48 266.15,-532.7 265.27,-525.75"/>
<text text-anchor="middle" x="311" y="-528.5" font-family="Helvetica,sans-Serif" font-size="10.00"> condition</text>
</g>
<!-- Node18 -->
<g id="node18" class="node">
<title>Node18</title>
<g id="a_node18"><a xlink:href="interfacecom_1_1fs_1_1starfarer_1_1api_1_1fleet_1_1FleetMemberAPI.html" target="_top" xlink:title=" ">
<polygon fill="none" stroke="black" points="840.5,-370.5 840.5,-400.5 962.5,-400.5 962.5,-370.5 840.5,-370.5"/>
<text text-anchor="start" x="848.5" y="-388.5" font-family="Helvetica,sans-Serif" font-size="10.00">com.fs.starfarer.api.fleet.</text>
<text text-anchor="middle" x="901.5" y="-377.5" font-family="Helvetica,sans-Serif" font-size="10.00">FleetMemberAPI</text>
</a>
</g>
</g>
<!-- Node18&#45;&gt;Node6 -->
<g id="edge18" class="edge">
<title>Node18&#45;&gt;Node6</title>
<path fill="none" stroke="#9a32cd" stroke-dasharray="5,2" d="M972.68,-374.15C1017.64,-366.88 1076.17,-357.41 1123.3,-349.79"/>
<polygon fill="#9a32cd" stroke="#9a32cd" points="972.04,-370.71 962.73,-375.76 973.16,-377.62 972.04,-370.71"/>
<text text-anchor="middle" x="1046" y="-369.5" font-family="Helvetica,sans-Serif" font-size="10.00"> member</text>
</g>
<!-- Node19&#45;&gt;Node1 -->
<g id="edge19" class="edge">
<title>Node19&#45;&gt;Node1</title>
<path fill="none" stroke="#9a32cd" stroke-dasharray="5,2" d="M796.35,-206.11C869.52,-210.25 979.4,-216.57 1075,-222.5 1189.3,-229.59 1319.69,-238.23 1411.59,-244.42"/>
<polygon fill="#9a32cd" stroke="#9a32cd" points="796.45,-202.61 786.27,-205.54 796.06,-209.6 796.45,-202.61"/>
<text text-anchor="middle" x="1046" y="-236.5" font-family="Helvetica,sans-Serif" font-size="10.00"> entityFaction</text>
<text text-anchor="middle" x="1046" y="-225.5" font-family="Helvetica,sans-Serif" font-size="10.00">playerFaction</text>
</g>
<!-- Node20&#45;&gt;Node1 -->
<g id="edge22" class="edge">
<title>Node20&#45;&gt;Node1</title>
<path fill="none" stroke="#9a32cd" stroke-dasharray="5,2" d="M984.82,-249.02C1093.87,-249.72 1286.93,-250.95 1411.75,-251.74"/>
<polygon fill="#9a32cd" stroke="#9a32cd" points="984.56,-245.52 974.54,-248.96 984.52,-252.52 984.56,-245.52"/>
<text text-anchor="middle" x="1206.5" y="-253.5" font-family="Helvetica,sans-Serif" font-size="10.00"> playerFleet</text>
</g>
<!-- Node21 -->
<g id="node21" class="node">
<title>Node21</title>
<g id="a_node21"><a xlink:href="interfacecom_1_1fs_1_1starfarer_1_1api_1_1campaign_1_1FleetOrStubAPI.html" target="_top" xlink:title=" ">
<polygon fill="none" stroke="black" points="413,-228.5 413,-258.5 559,-258.5 559,-228.5 413,-228.5"/>
<text text-anchor="start" x="421" y="-246.5" font-family="Helvetica,sans-Serif" font-size="10.00">com.fs.starfarer.api.campaign.</text>
<text text-anchor="middle" x="486" y="-235.5" font-family="Helvetica,sans-Serif" font-size="10.00">FleetOrStubAPI</text>
</a>
</g>
</g>
<!-- Node21&#45;&gt;Node20 -->
<g id="edge24" class="edge">
<title>Node21&#45;&gt;Node20</title>
<path fill="none" stroke="midnightblue" d="M569.46,-244.5C645.1,-245.41 756.03,-246.75 828.26,-247.63"/>
<polygon fill="midnightblue" stroke="midnightblue" points="569.07,-240.99 559.03,-244.37 568.98,-247.99 569.07,-240.99"/>
</g>
<!-- Node22 -->
<g id="node22" class="node">
<title>Node22</title>
<g id="a_node22"><a xlink:href="interfacecom_1_1fs_1_1starfarer_1_1api_1_1campaign_1_1OptionPanelAPI.html" target="_top" xlink:title=" ">
<polygon fill="none" stroke="black" points="1133.5,-147.5 1133.5,-177.5 1279.5,-177.5 1279.5,-147.5 1133.5,-147.5"/>
<text text-anchor="start" x="1141.5" y="-165.5" font-family="Helvetica,sans-Serif" font-size="10.00">com.fs.starfarer.api.campaign.</text>
<text text-anchor="middle" x="1206.5" y="-154.5" font-family="Helvetica,sans-Serif" font-size="10.00">OptionPanelAPI</text>
</a>
</g>
</g>
<!-- Node22&#45;&gt;Node1 -->
<g id="edge25" class="edge">
<title>Node22&#45;&gt;Node1</title>
<path fill="none" stroke="#9a32cd" stroke-dasharray="5,2" d="M1289.64,-164.18C1322.63,-166.57 1360.66,-171.53 1394,-181.5 1436.74,-194.28 1481.8,-220.6 1507.97,-237.36"/>
<polygon fill="#9a32cd" stroke="#9a32cd" points="1289.79,-160.68 1279.58,-163.52 1289.33,-167.67 1289.79,-160.68"/>
<text text-anchor="middle" x="1366" y="-184.5" font-family="Helvetica,sans-Serif" font-size="10.00"> options</text>
</g>
<!-- Node23 -->
<g id="node23" class="node">
<title>Node23</title>
<g id="a_node23"><a xlink:href="interfacecom_1_1fs_1_1starfarer_1_1api_1_1campaign_1_1rules_1_1MemoryAPI.html" target="_top" xlink:title=" ">
<polygon fill="none" stroke="black" points="1122,-98.5 1122,-128.5 1291,-128.5 1291,-98.5 1122,-98.5"/>
<text text-anchor="start" x="1130" y="-116.5" font-family="Helvetica,sans-Serif" font-size="10.00">com.fs.starfarer.api.campaign.rules.</text>
<text text-anchor="middle" x="1206.5" y="-105.5" font-family="Helvetica,sans-Serif" font-size="10.00">MemoryAPI</text>
</a>
</g>
</g>
<!-- Node23&#45;&gt;Node1 -->
<g id="edge26" class="edge">
<title>Node23&#45;&gt;Node1</title>
<path fill="none" stroke="#9a32cd" stroke-dasharray="5,2" d="M1301.23,-126.4C1331.66,-132.59 1365.03,-141.58 1394,-154.5 1441.96,-175.89 1489.96,-215.65 1514.23,-237.37"/>
<polygon fill="#9a32cd" stroke="#9a32cd" points="1301.52,-122.89 1291.03,-124.4 1300.18,-129.76 1301.52,-122.89"/>
<text text-anchor="middle" x="1366" y="-157.5" font-family="Helvetica,sans-Serif" font-size="10.00"> memory</text>
</g>
<!-- Node24 -->
<g id="node24" class="node">
<title>Node24</title>
<g id="a_node24"><a xlink:href="interfacecom_1_1fs_1_1starfarer_1_1api_1_1campaign_1_1TextPanelAPI.html" target="_top" xlink:title=" ">
<polygon fill="none" stroke="black" points="1133.5,-49.5 1133.5,-79.5 1279.5,-79.5 1279.5,-49.5 1133.5,-49.5"/>
<text text-anchor="start" x="1141.5" y="-67.5" font-family="Helvetica,sans-Serif" font-size="10.00">com.fs.starfarer.api.campaign.</text>
<text text-anchor="middle" x="1206.5" y="-56.5" font-family="Helvetica,sans-Serif" font-size="10.00">TextPanelAPI</text>
</a>
</g>
</g>
<!-- Node24&#45;&gt;Node1 -->
<g id="edge27" class="edge">
<title>Node24&#45;&gt;Node1</title>
<path fill="none" stroke="#9a32cd" stroke-dasharray="5,2" d="M1289.58,-80.95C1299.9,-83.54 1310.25,-86.4 1320,-89.5 1353.98,-100.3 1364.23,-100.88 1394,-120.5 1446.03,-154.78 1495.63,-210.39 1518.04,-237.15"/>
<polygon fill="#9a32cd" stroke="#9a32cd" points="1290.27,-77.52 1279.73,-78.55 1288.61,-84.32 1290.27,-77.52"/>
<text text-anchor="middle" x="1366" y="-123.5" font-family="Helvetica,sans-Serif" font-size="10.00"> text</text>
</g>
<!-- Node25 -->
<g id="node25" class="node">
<title>Node25</title>
<g id="a_node25"><a xlink:href="interfacecom_1_1fs_1_1starfarer_1_1api_1_1campaign_1_1InteractionDialogAPI.html" target="_top" xlink:title=" ">
<polygon fill="none" stroke="black" points="1133.5,-0.5 1133.5,-30.5 1279.5,-30.5 1279.5,-0.5 1133.5,-0.5"/>
<text text-anchor="start" x="1141.5" y="-18.5" font-family="Helvetica,sans-Serif" font-size="10.00">com.fs.starfarer.api.campaign.</text>
<text text-anchor="middle" x="1206.5" y="-7.5" font-family="Helvetica,sans-Serif" font-size="10.00">InteractionDialogAPI</text>
</a>
</g>
</g>
<!-- Node25&#45;&gt;Node1 -->
<g id="edge28" class="edge">
<title>Node25&#45;&gt;Node1</title>
<path fill="none" stroke="#9a32cd" stroke-dasharray="5,2" d="M1289.34,-29.97C1324.52,-39.42 1364.29,-54.79 1394,-79.5 1452.23,-127.95 1502.04,-204.94 1521.62,-237.34"/>
<polygon fill="#9a32cd" stroke="#9a32cd" points="1290.1,-26.55 1279.55,-27.46 1288.36,-33.33 1290.1,-26.55"/>
<text text-anchor="middle" x="1366" y="-82.5" font-family="Helvetica,sans-Serif" font-size="10.00"> dialog</text>
</g>
</g>
</svg>
