<?xml version="1.0" encoding="UTF-8" standalone="no"?>
<!DOCTYPE svg PUBLIC "-//W3C//DTD SVG 1.1//EN"
 "http://www.w3.org/Graphics/SVG/1.1/DTD/svg11.dtd">
<!-- Generated by graphviz version 7.0.5 (20221223.1930)
 -->
<!-- Title: com.fs.starfarer.api.impl.campaign.rulecmd.missions.GateCMD Pages: 1 -->
<svg width="983pt" height="421pt"
 viewBox="0.00 0.00 983.00 421.00" xmlns="http://www.w3.org/2000/svg" xmlns:xlink="http://www.w3.org/1999/xlink">
<g id="graph0" class="graph" transform="scale(1 1) rotate(0) translate(4 417)">
<title>com.fs.starfarer.api.impl.campaign.rulecmd.missions.GateCMD</title>
<!-- Node1 -->
<g id="node1" class="node">
<title>Node1</title>
<g id="a_node1"><a xlink:title=" ">
<polygon fill="#999999" stroke="#666666" points="975,-222 731,-222 731,-192 975,-192 975,-222"/>
<text text-anchor="start" x="739" y="-210" font-family="Helvetica,sans-Serif" font-size="10.00">com.fs.starfarer.api.impl.campaign.rulecmd.missions.</text>
<text text-anchor="middle" x="853" y="-199" font-family="Helvetica,sans-Serif" font-size="10.00">GateCMD</text>
</a>
</g>
</g>
<!-- Node2 -->
<g id="node2" class="node">
<title>Node2</title>
<g id="a_node2"><a xlink:href="classcom_1_1fs_1_1starfarer_1_1api_1_1impl_1_1campaign_1_1rulecmd_1_1BaseCommandPlugin.html" target="_top" xlink:title=" ">
<polygon fill="white" stroke="#666666" points="627,-413 424,-413 424,-383 627,-383 627,-413"/>
<text text-anchor="start" x="432" y="-401" font-family="Helvetica,sans-Serif" font-size="10.00">com.fs.starfarer.api.impl.campaign.rulecmd.</text>
<text text-anchor="middle" x="525.5" y="-390" font-family="Helvetica,sans-Serif" font-size="10.00">BaseCommandPlugin</text>
</a>
</g>
</g>
<!-- Node2&#45;&gt;Node1 -->
<g id="edge1" class="edge">
<title>Node2&#45;&gt;Node1</title>
<path fill="none" stroke="#63b8ff" d="M638.4,-392.89C664.07,-388.28 690.42,-380.6 713,-368 777.17,-332.19 825.57,-254.77 843.94,-222.06"/>
<polygon fill="#63b8ff" stroke="#63b8ff" points="637.86,-389.43 628.56,-394.49 638.99,-396.34 637.86,-389.43"/>
</g>
<!-- Node3 -->
<g id="node3" class="node">
<title>Node3</title>
<g id="a_node3"><a xlink:href="interfacecom_1_1fs_1_1starfarer_1_1api_1_1campaign_1_1rules_1_1CommandPlugin.html" target="_top" xlink:title=" ">
<polygon fill="white" stroke="#666666" points="375,-413 206,-413 206,-383 375,-383 375,-413"/>
<text text-anchor="start" x="214" y="-401" font-family="Helvetica,sans-Serif" font-size="10.00">com.fs.starfarer.api.campaign.rules.</text>
<text text-anchor="middle" x="290.5" y="-390" font-family="Helvetica,sans-Serif" font-size="10.00">CommandPlugin</text>
</a>
</g>
</g>
<!-- Node3&#45;&gt;Node2 -->
<g id="edge2" class="edge">
<title>Node3&#45;&gt;Node2</title>
<path fill="none" stroke="#63b8ff" d="M386.8,-398C398.92,-398 411.36,-398 423.57,-398"/>
<polygon fill="#63b8ff" stroke="#63b8ff" points="386.8,-394.5 376.8,-398 386.8,-401.5 386.8,-394.5"/>
</g>
<!-- Node4 -->
<g id="node4" class="node">
<title>Node4</title>
<g id="a_node4"><a xlink:href="interfacecom_1_1fs_1_1starfarer_1_1api_1_1campaign_1_1CampaignFleetAPI.html" target="_top" xlink:title=" ">
<polygon fill="white" stroke="#666666" points="598.5,-318 452.5,-318 452.5,-288 598.5,-288 598.5,-318"/>
<text text-anchor="start" x="460.5" y="-306" font-family="Helvetica,sans-Serif" font-size="10.00">com.fs.starfarer.api.campaign.</text>
<text text-anchor="middle" x="525.5" y="-295" font-family="Helvetica,sans-Serif" font-size="10.00">CampaignFleetAPI</text>
</a>
</g>
</g>
<!-- Node4&#45;&gt;Node1 -->
<g id="edge3" class="edge">
<title>Node4&#45;&gt;Node1</title>
<path fill="none" stroke="#9a32cd" stroke-dasharray="5,2" d="M609.9,-286.34C619.75,-284.04 629.63,-281.58 639,-279 699.79,-262.3 768.65,-238.02 811.21,-222.36"/>
<polygon fill="#9a32cd" stroke="#9a32cd" points="609.27,-282.89 600.29,-288.53 610.82,-289.72 609.27,-282.89"/>
<text text-anchor="middle" x="685" y="-276" font-family="Helvetica,sans-Serif" font-size="10.00"> playerFleet</text>
</g>
<!-- Node5 -->
<g id="node5" class="node">
<title>Node5</title>
<g id="a_node5"><a xlink:href="interfacecom_1_1fs_1_1starfarer_1_1api_1_1campaign_1_1SectorEntityToken.html" target="_top" xlink:title=" ">
<polygon fill="white" stroke="#666666" points="363.5,-365 217.5,-365 217.5,-335 363.5,-335 363.5,-365"/>
<text text-anchor="start" x="225.5" y="-353" font-family="Helvetica,sans-Serif" font-size="10.00">com.fs.starfarer.api.campaign.</text>
<text text-anchor="middle" x="290.5" y="-342" font-family="Helvetica,sans-Serif" font-size="10.00">SectorEntityToken</text>
</a>
</g>
</g>
<!-- Node5&#45;&gt;Node1 -->
<g id="edge7" class="edge">
<title>Node5&#45;&gt;Node1</title>
<path fill="none" stroke="#9a32cd" stroke-dasharray="5,2" d="M375.03,-354.11C446.47,-355.36 551.33,-351.79 639,-327 716.6,-305.06 796.34,-249.59 832.3,-222.44"/>
<polygon fill="#9a32cd" stroke="#9a32cd" points="375.44,-350.62 365.37,-353.9 375.29,-357.62 375.44,-350.62"/>
<text text-anchor="middle" x="525.5" y="-357" font-family="Helvetica,sans-Serif" font-size="10.00"> entity</text>
</g>
<!-- Node5&#45;&gt;Node4 -->
<g id="edge4" class="edge">
<title>Node5&#45;&gt;Node4</title>
<path fill="none" stroke="#63b8ff" d="M374.98,-333.16C400.2,-328.07 427.67,-322.53 452.1,-317.6"/>
<polygon fill="#63b8ff" stroke="#63b8ff" points="374.54,-329.68 365.43,-335.09 375.92,-336.54 374.54,-329.68"/>
</g>
<!-- Node6 -->
<g id="node6" class="node">
<title>Node6</title>
<g id="a_node6"><a xlink:href="interfacecom_1_1fs_1_1starfarer_1_1api_1_1campaign_1_1rules_1_1HasMemory.html" target="_top" xlink:title=" ">
<polygon fill="white" stroke="#666666" points="169,-365 0,-365 0,-335 169,-335 169,-365"/>
<text text-anchor="start" x="8" y="-353" font-family="Helvetica,sans-Serif" font-size="10.00">com.fs.starfarer.api.campaign.rules.</text>
<text text-anchor="middle" x="84.5" y="-342" font-family="Helvetica,sans-Serif" font-size="10.00">HasMemory</text>
</a>
</g>
</g>
<!-- Node6&#45;&gt;Node5 -->
<g id="edge5" class="edge">
<title>Node6&#45;&gt;Node5</title>
<path fill="none" stroke="#63b8ff" d="M180.56,-350C192.83,-350 205.23,-350 217.05,-350"/>
<polygon fill="#63b8ff" stroke="#63b8ff" points="180.87,-346.5 170.87,-350 180.87,-353.5 180.87,-346.5"/>
</g>
<!-- Node7 -->
<g id="node7" class="node">
<title>Node7</title>
<g id="a_node7"><a xlink:href="interfacecom_1_1fs_1_1starfarer_1_1api_1_1campaign_1_1FleetOrStubAPI.html" target="_top" xlink:title=" ">
<polygon fill="white" stroke="#666666" points="363.5,-317 217.5,-317 217.5,-287 363.5,-287 363.5,-317"/>
<text text-anchor="start" x="225.5" y="-305" font-family="Helvetica,sans-Serif" font-size="10.00">com.fs.starfarer.api.campaign.</text>
<text text-anchor="middle" x="290.5" y="-294" font-family="Helvetica,sans-Serif" font-size="10.00">FleetOrStubAPI</text>
</a>
</g>
</g>
<!-- Node7&#45;&gt;Node4 -->
<g id="edge6" class="edge">
<title>Node7&#45;&gt;Node4</title>
<path fill="none" stroke="#63b8ff" d="M375.32,-302.36C400.44,-302.47 427.78,-302.58 452.1,-302.69"/>
<polygon fill="#63b8ff" stroke="#63b8ff" points="375.47,-298.86 365.46,-302.32 375.44,-305.86 375.47,-298.86"/>
</g>
<!-- Node8 -->
<g id="node8" class="node">
<title>Node8</title>
<g id="a_node8"><a xlink:href="interfacecom_1_1fs_1_1starfarer_1_1api_1_1campaign_1_1TextPanelAPI.html" target="_top" xlink:title=" ">
<polygon fill="white" stroke="#666666" points="598.5,-270 452.5,-270 452.5,-240 598.5,-240 598.5,-270"/>
<text text-anchor="start" x="460.5" y="-258" font-family="Helvetica,sans-Serif" font-size="10.00">com.fs.starfarer.api.campaign.</text>
<text text-anchor="middle" x="525.5" y="-247" font-family="Helvetica,sans-Serif" font-size="10.00">TextPanelAPI</text>
</a>
</g>
</g>
<!-- Node8&#45;&gt;Node1 -->
<g id="edge8" class="edge">
<title>Node8&#45;&gt;Node1</title>
<path fill="none" stroke="#9a32cd" stroke-dasharray="5,2" d="M609.97,-242.69C651.67,-236.54 702.57,-229.04 746.91,-222.5"/>
<polygon fill="#9a32cd" stroke="#9a32cd" points="609.62,-239.2 600.24,-244.13 610.64,-246.13 609.62,-239.2"/>
<text text-anchor="middle" x="685" y="-239" font-family="Helvetica,sans-Serif" font-size="10.00"> text</text>
</g>
<!-- Node9 -->
<g id="node9" class="node">
<title>Node9</title>
<g id="a_node9"><a xlink:href="interfacecom_1_1fs_1_1starfarer_1_1api_1_1campaign_1_1OptionPanelAPI.html" target="_top" xlink:title=" ">
<polygon fill="white" stroke="#666666" points="598.5,-222 452.5,-222 452.5,-192 598.5,-192 598.5,-222"/>
<text text-anchor="start" x="460.5" y="-210" font-family="Helvetica,sans-Serif" font-size="10.00">com.fs.starfarer.api.campaign.</text>
<text text-anchor="middle" x="525.5" y="-199" font-family="Helvetica,sans-Serif" font-size="10.00">OptionPanelAPI</text>
</a>
</g>
</g>
<!-- Node9&#45;&gt;Node1 -->
<g id="edge9" class="edge">
<title>Node9&#45;&gt;Node1</title>
<path fill="none" stroke="#9a32cd" stroke-dasharray="5,2" d="M609.9,-207C646.62,-207 690.49,-207 730.73,-207"/>
<polygon fill="#9a32cd" stroke="#9a32cd" points="610.25,-203.5 600.25,-207 610.25,-210.5 610.25,-203.5"/>
<text text-anchor="middle" x="685" y="-210" font-family="Helvetica,sans-Serif" font-size="10.00"> options</text>
</g>
<!-- Node10 -->
<g id="node10" class="node">
<title>Node10</title>
<g id="a_node10"><a xlink:href="interfacecom_1_1fs_1_1starfarer_1_1api_1_1campaign_1_1CargoAPI.html" target="_top" xlink:title=" ">
<polygon fill="white" stroke="#666666" points="598.5,-174 452.5,-174 452.5,-144 598.5,-144 598.5,-174"/>
<text text-anchor="start" x="460.5" y="-162" font-family="Helvetica,sans-Serif" font-size="10.00">com.fs.starfarer.api.campaign.</text>
<text text-anchor="middle" x="525.5" y="-151" font-family="Helvetica,sans-Serif" font-size="10.00">CargoAPI</text>
</a>
</g>
</g>
<!-- Node10&#45;&gt;Node1 -->
<g id="edge10" class="edge">
<title>Node10&#45;&gt;Node1</title>
<path fill="none" stroke="#9a32cd" stroke-dasharray="5,2" d="M609.97,-171.31C651.67,-177.46 702.57,-184.96 746.91,-191.5"/>
<polygon fill="#9a32cd" stroke="#9a32cd" points="610.64,-167.87 600.24,-169.87 609.62,-174.8 610.64,-167.87"/>
<text text-anchor="middle" x="685" y="-189" font-family="Helvetica,sans-Serif" font-size="10.00"> playerCargo</text>
</g>
<!-- Node11 -->
<g id="node11" class="node">
<title>Node11</title>
<g id="a_node11"><a xlink:href="interfacecom_1_1fs_1_1starfarer_1_1api_1_1campaign_1_1rules_1_1MemoryAPI.html" target="_top" xlink:title=" ">
<polygon fill="white" stroke="#666666" points="610,-126 441,-126 441,-96 610,-96 610,-126"/>
<text text-anchor="start" x="449" y="-114" font-family="Helvetica,sans-Serif" font-size="10.00">com.fs.starfarer.api.campaign.rules.</text>
<text text-anchor="middle" x="525.5" y="-103" font-family="Helvetica,sans-Serif" font-size="10.00">MemoryAPI</text>
</a>
</g>
</g>
<!-- Node11&#45;&gt;Node1 -->
<g id="edge11" class="edge">
<title>Node11&#45;&gt;Node1</title>
<path fill="none" stroke="#9a32cd" stroke-dasharray="5,2" d="M615.93,-129.09C623.76,-130.97 631.54,-132.95 639,-135 699.79,-151.7 768.65,-175.98 811.21,-191.64"/>
<polygon fill="#9a32cd" stroke="#9a32cd" points="616.86,-125.71 606.33,-126.84 615.27,-132.53 616.86,-125.71"/>
<text text-anchor="middle" x="685" y="-160" font-family="Helvetica,sans-Serif" font-size="10.00"> memory</text>
</g>
<!-- Node12 -->
<g id="node12" class="node">
<title>Node12</title>
<g id="a_node12"><a xlink:href="interfacecom_1_1fs_1_1starfarer_1_1api_1_1campaign_1_1InteractionDialogAPI.html" target="_top" xlink:title=" ">
<polygon fill="white" stroke="#666666" points="598.5,-78 452.5,-78 452.5,-48 598.5,-48 598.5,-78"/>
<text text-anchor="start" x="460.5" y="-66" font-family="Helvetica,sans-Serif" font-size="10.00">com.fs.starfarer.api.campaign.</text>
<text text-anchor="middle" x="525.5" y="-55" font-family="Helvetica,sans-Serif" font-size="10.00">InteractionDialogAPI</text>
</a>
</g>
</g>
<!-- Node12&#45;&gt;Node1 -->
<g id="edge12" class="edge">
<title>Node12&#45;&gt;Node1</title>
<path fill="none" stroke="#9a32cd" stroke-dasharray="5,2" d="M609.96,-78C619.87,-80.6 629.74,-83.59 639,-87 713.48,-114.43 792.8,-165.82 830.15,-191.52"/>
<polygon fill="#9a32cd" stroke="#9a32cd" points="610.8,-74.61 600.26,-75.59 609.12,-81.4 610.8,-74.61"/>
<text text-anchor="middle" x="685" y="-124" font-family="Helvetica,sans-Serif" font-size="10.00"> dialog</text>
</g>
<!-- Node13 -->
<g id="node13" class="node">
<title>Node13</title>
<g id="a_node13"><a xlink:title=" ">
<polygon fill="white" stroke="#666666" points="639,-30 412,-30 412,0 639,0 639,-30"/>
<text text-anchor="start" x="420" y="-18" font-family="Helvetica,sans-Serif" font-size="10.00">Map&lt; String, com.fs.starfarer.api.campaign.rules.</text>
<text text-anchor="middle" x="525.5" y="-7" font-family="Helvetica,sans-Serif" font-size="10.00">MemoryAPI &gt;</text>
</a>
</g>
</g>
<!-- Node13&#45;&gt;Node1 -->
<g id="edge13" class="edge">
<title>Node13&#45;&gt;Node1</title>
<path fill="none" stroke="#9a32cd" stroke-dasharray="5,2" d="M622.78,-33.53C628.31,-35.22 633.76,-37.04 639,-39 727.66,-72.18 808.4,-156.82 839.01,-191.66"/>
<polygon fill="#9a32cd" stroke="#9a32cd" points="624.07,-30.26 613.49,-30.87 622.14,-36.99 624.07,-30.26"/>
<text text-anchor="middle" x="685" y="-80" font-family="Helvetica,sans-Serif" font-size="10.00"> memoryMap</text>
</g>
</g>
</svg>
