<?xml version="1.0" encoding="UTF-8" standalone="no"?>
<!DOCTYPE svg PUBLIC "-//W3C//DTD SVG 1.1//EN"
 "http://www.w3.org/Graphics/SVG/1.1/DTD/svg11.dtd">
<!-- Generated by graphviz version 12.2.0 (20241103.1931)
 -->
<!-- Title: com.fs.starfarer.api.impl.campaign.missions.DelayedFleetEncounter.CanSpawnFleetConditionChecker Pages: 1 -->
<svg width="825pt" height="211pt"
 viewBox="0.00 0.00 825.00 210.88" xmlns="http://www.w3.org/2000/svg" xmlns:xlink="http://www.w3.org/1999/xlink">
<g id="graph0" class="graph" transform="scale(1 1) rotate(0) translate(4 206.88)">
<title>com.fs.starfarer.api.impl.campaign.missions.DelayedFleetEncounter.CanSpawnFleetConditionChecker</title>
<!-- Node1 -->
<g id="Node000001" class="node">
<title>Node1</title>
<g id="a_Node000001"><a xlink:title=" ">
<polygon fill="#999999" stroke="#666666" points="817,-116.5 553.5,-116.5 553.5,-86 817,-86 817,-116.5"/>
<text text-anchor="start" x="561.5" y="-103" font-family="Helvetica,sans-Serif" font-size="10.00">com.fs.starfarer.api.impl.campaign.missions.</text>
<text text-anchor="middle" x="685.25" y="-91.75" font-family="Helvetica,sans-Serif" font-size="10.00">DelayedFleetEncounter.CanSpawnFleetConditionChecker</text>
</a>
</g>
</g>
<!-- Node2 -->
<g id="Node000002" class="node">
<title>Node2</title>
<g id="a_Node000002"><a xlink:title=" ">
<polygon fill="white" stroke="#666666" points="354.75,-202.88 262.25,-202.88 262.25,-183.62 354.75,-183.62 354.75,-202.88"/>
<text text-anchor="middle" x="308.5" y="-189.38" font-family="Helvetica,sans-Serif" font-size="10.00">ConditionChecker</text>
</a>
</g>
</g>
<!-- Node2&#45;&gt;Node1 -->
<g id="edge1_Node000001_Node000002" class="edge">
<title>Node2&#45;&gt;Node1</title>
<g id="a_edge1_Node000001_Node000002"><a xlink:title=" ">
<path fill="none" stroke="#63b8ff" d="M366.17,-182.88C381.01,-180.12 396.99,-177.11 411.75,-174.25 466.84,-163.57 481.21,-163.44 535.5,-149.25 571.07,-139.95 610.66,-127.05 640.05,-116.96"/>
<polygon fill="#63b8ff" stroke="#63b8ff" points="365.77,-179.4 356.57,-184.66 367.04,-186.28 365.77,-179.4"/>
</a>
</g>
</g>
<!-- Node3 -->
<g id="Node000003" class="node">
<title>Node3</title>
<g id="a_Node000003"><a xlink:href="interfacecom_1_1fs_1_1starfarer_1_1api_1_1campaign_1_1StarSystemAPI.html" target="_top" xlink:title=" ">
<polygon fill="white" stroke="#666666" points="381,-165.5 236,-165.5 236,-135 381,-135 381,-165.5"/>
<text text-anchor="start" x="244" y="-152" font-family="Helvetica,sans-Serif" font-size="10.00">com.fs.starfarer.api.campaign.</text>
<text text-anchor="middle" x="308.5" y="-140.75" font-family="Helvetica,sans-Serif" font-size="10.00">StarSystemAPI</text>
</a>
</g>
</g>
<!-- Node3&#45;&gt;Node1 -->
<g id="edge2_Node000001_Node000003" class="edge">
<title>Node3&#45;&gt;Node1</title>
<g id="a_edge2_Node000001_Node000003"><a xlink:title=" ">
<path fill="none" stroke="#9a32cd" stroke-dasharray="5,2" d="M392.48,-139.4C442.87,-132.81 508.05,-124.29 564.02,-116.97"/>
<polygon fill="#9a32cd" stroke="#9a32cd" points="392.27,-135.9 382.81,-140.66 393.18,-142.84 392.27,-135.9"/>
</a>
</g>
<text text-anchor="middle" x="482.62" y="-136.15" font-family="Helvetica,sans-Serif" font-size="10.00" fill="grey"> lastSystemPlayerWasIn</text>
</g>
<!-- Node4 -->
<g id="Node000004" class="node">
<title>Node4</title>
<g id="a_Node000004"><a xlink:href="interfacecom_1_1fs_1_1starfarer_1_1api_1_1campaign_1_1LocationAPI.html" target="_top" xlink:title=" ">
<polygon fill="white" stroke="#666666" points="156.62,-165.5 11.62,-165.5 11.62,-135 156.62,-135 156.62,-165.5"/>
<text text-anchor="start" x="19.62" y="-152" font-family="Helvetica,sans-Serif" font-size="10.00">com.fs.starfarer.api.campaign.</text>
<text text-anchor="middle" x="84.12" y="-140.75" font-family="Helvetica,sans-Serif" font-size="10.00">LocationAPI</text>
</a>
</g>
</g>
<!-- Node4&#45;&gt;Node3 -->
<g id="edge3_Node000003_Node000004" class="edge">
<title>Node4&#45;&gt;Node3</title>
<g id="a_edge3_Node000003_Node000004"><a xlink:title=" ">
<path fill="none" stroke="#63b8ff" d="M168.45,-150.25C190.62,-150.25 214.37,-150.25 235.86,-150.25"/>
<polygon fill="#63b8ff" stroke="#63b8ff" points="168.53,-146.75 158.53,-150.25 168.53,-153.75 168.53,-146.75"/>
</a>
</g>
</g>
<!-- Node5 -->
<g id="Node000005" class="node">
<title>Node5</title>
<g id="a_Node000005"><a xlink:title=" ">
<polygon fill="white" stroke="#666666" points="411.75,-116.5 205.25,-116.5 205.25,-86 411.75,-86 411.75,-116.5"/>
<text text-anchor="start" x="213.25" y="-103" font-family="Helvetica,sans-Serif" font-size="10.00">com.fs.starfarer.api.impl.campaign.missions.</text>
<text text-anchor="middle" x="308.5" y="-91.75" font-family="Helvetica,sans-Serif" font-size="10.00">DelayedFleetEncounter.EncounterType</text>
</a>
</g>
</g>
<!-- Node5&#45;&gt;Node1 -->
<g id="edge4_Node000001_Node000005" class="edge">
<title>Node5&#45;&gt;Node1</title>
<g id="a_edge4_Node000001_Node000005"><a xlink:title=" ">
<path fill="none" stroke="#9a32cd" stroke-dasharray="5,2" d="M423.3,-101.25C464.25,-101.25 510.77,-101.25 553.08,-101.25"/>
<polygon fill="#9a32cd" stroke="#9a32cd" points="423.42,-97.75 413.42,-101.25 423.42,-104.75 423.42,-97.75"/>
</a>
</g>
<text text-anchor="middle" x="482.62" y="-103" font-family="Helvetica,sans-Serif" font-size="10.00" fill="grey"> typePicked</text>
</g>
<!-- Node6 -->
<g id="Node000006" class="node">
<title>Node6</title>
<g id="a_Node000006"><a xlink:title=" ">
<polygon fill="white" stroke="#666666" points="334.88,-67.88 282.12,-67.88 282.12,-48.62 334.88,-48.62 334.88,-67.88"/>
<text text-anchor="middle" x="308.5" y="-54.38" font-family="Helvetica,sans-Serif" font-size="10.00">Vector2f</text>
</a>
</g>
</g>
<!-- Node6&#45;&gt;Node1 -->
<g id="edge5_Node000001_Node000006" class="edge">
<title>Node6&#45;&gt;Node1</title>
<g id="a_edge5_Node000001_Node000006"><a xlink:title=" ">
<path fill="none" stroke="#9a32cd" stroke-dasharray="5,2" d="M346.56,-62.5C394.35,-67.99 480.01,-77.81 553.09,-86.2"/>
<polygon fill="#9a32cd" stroke="#9a32cd" points="347.1,-59.04 336.76,-61.38 346.3,-66 347.1,-59.04"/>
</a>
</g>
<text text-anchor="middle" x="482.62" y="-85.35" font-family="Helvetica,sans-Serif" font-size="10.00" fill="grey"> location</text>
</g>
<!-- Node7 -->
<g id="Node000007" class="node">
<title>Node7</title>
<g id="a_Node000007"><a xlink:href="interfacecom_1_1fs_1_1starfarer_1_1api_1_1campaign_1_1SectorEntityToken.html" target="_top" xlink:title=" ">
<polygon fill="white" stroke="#666666" points="381,-30.5 236,-30.5 236,0 381,0 381,-30.5"/>
<text text-anchor="start" x="244" y="-17" font-family="Helvetica,sans-Serif" font-size="10.00">com.fs.starfarer.api.campaign.</text>
<text text-anchor="middle" x="308.5" y="-5.75" font-family="Helvetica,sans-Serif" font-size="10.00">SectorEntityToken</text>
</a>
</g>
</g>
<!-- Node7&#45;&gt;Node1 -->
<g id="edge6_Node000001_Node000007" class="edge">
<title>Node7&#45;&gt;Node1</title>
<g id="a_edge6_Node000001_Node000007"><a xlink:title=" ">
<path fill="none" stroke="#9a32cd" stroke-dasharray="5,2" d="M392.66,-28.43C435.55,-35.78 488.58,-45.72 535.5,-57 569.56,-65.19 607.38,-76.47 636.37,-85.59"/>
<polygon fill="#9a32cd" stroke="#9a32cd" points="393.35,-25 382.91,-26.78 392.18,-31.9 393.35,-25"/>
</a>
</g>
<text text-anchor="middle" x="482.62" y="-58.75" font-family="Helvetica,sans-Serif" font-size="10.00" fill="grey"> foundEntity</text>
</g>
<!-- Node8 -->
<g id="Node000008" class="node">
<title>Node8</title>
<g id="a_Node000008"><a xlink:href="interfacecom_1_1fs_1_1starfarer_1_1api_1_1campaign_1_1rules_1_1HasMemory.html" target="_top" xlink:title=" ">
<polygon fill="white" stroke="#666666" points="168.25,-30.5 0,-30.5 0,0 168.25,0 168.25,-30.5"/>
<text text-anchor="start" x="8" y="-17" font-family="Helvetica,sans-Serif" font-size="10.00">com.fs.starfarer.api.campaign.rules.</text>
<text text-anchor="middle" x="84.12" y="-5.75" font-family="Helvetica,sans-Serif" font-size="10.00">HasMemory</text>
</a>
</g>
</g>
<!-- Node8&#45;&gt;Node7 -->
<g id="edge7_Node000007_Node000008" class="edge">
<title>Node8&#45;&gt;Node7</title>
<g id="a_edge7_Node000007_Node000008"><a xlink:title=" ">
<path fill="none" stroke="#63b8ff" d="M180.06,-15.25C198.67,-15.25 217.92,-15.25 235.63,-15.25"/>
<polygon fill="#63b8ff" stroke="#63b8ff" points="180.08,-11.75 170.08,-15.25 180.08,-18.75 180.08,-11.75"/>
</a>
</g>
</g>
</g>
</svg>
