<?xml version="1.0" encoding="UTF-8" standalone="no"?>
<!DOCTYPE svg PUBLIC "-//W3C//DTD SVG 1.1//EN"
 "http://www.w3.org/Graphics/SVG/1.1/DTD/svg11.dtd">
<!-- Generated by graphviz version 9.0.0 (20230911.1827)
 -->
<!-- Title: com.fs.starfarer.api.impl.campaign.tutorial.CampaignTutorialScript Pages: 1 -->
<svg width="791pt" height="131pt"
 viewBox="0.00 0.00 791.00 130.50" xmlns="http://www.w3.org/2000/svg" xmlns:xlink="http://www.w3.org/1999/xlink">
<g id="graph0" class="graph" transform="scale(1 1) rotate(0) translate(4 126.5)">
<title>com.fs.starfarer.api.impl.campaign.tutorial.CampaignTutorialScript</title>
<!-- Node1 -->
<g id="Node000001" class="node">
<title>Node1</title>
<g id="a_Node000001"><a xlink:title=" ">
<polygon fill="#999999" stroke="#666666" points="783,-79.5 586.25,-79.5 586.25,-49 783,-49 783,-79.5"/>
<text text-anchor="start" x="594.25" y="-66" font-family="Helvetica,sans-Serif" font-size="10.00">com.fs.starfarer.api.impl.campaign.tutorial.</text>
<text text-anchor="middle" x="684.62" y="-54.75" font-family="Helvetica,sans-Serif" font-size="10.00">CampaignTutorialScript</text>
</a>
</g>
</g>
<!-- Node2 -->
<g id="Node000002" class="node">
<title>Node2</title>
<g id="a_Node000002"><a xlink:href="interfacecom_1_1fs_1_1starfarer_1_1api_1_1EveryFrameScript.html" target="_top" xlink:title=" ">
<polygon fill="white" stroke="#666666" points="160.75,-122.5 36,-122.5 36,-92 160.75,-92 160.75,-122.5"/>
<text text-anchor="start" x="44" y="-109" font-family="Helvetica,sans-Serif" font-size="10.00">com.fs.starfarer.api.Every</text>
<text text-anchor="middle" x="98.38" y="-97.75" font-family="Helvetica,sans-Serif" font-size="10.00">FrameScript</text>
</a>
</g>
</g>
<!-- Node2&#45;&gt;Node1 -->
<g id="edge1_Node000001_Node000002" class="edge">
<title>Node2&#45;&gt;Node1</title>
<g id="a_edge1_Node000001_Node000002"><a xlink:title=" ">
<path fill="none" stroke="#63b8ff" d="M172.45,-104.72C249.09,-101.8 372.98,-96.34 479.75,-88.25 519.17,-85.26 528.98,-83.8 568.25,-79.25 573.97,-78.59 579.84,-77.89 585.77,-77.16"/>
<polygon fill="#63b8ff" stroke="#63b8ff" points="172.41,-101.22 162.55,-105.09 172.67,-108.21 172.41,-101.22"/>
</a>
</g>
</g>
<!-- Node4 -->
<g id="Node000004" class="node">
<title>Node4</title>
<g id="a_Node000004"><a xlink:href="classcom_1_1fs_1_1starfarer_1_1api_1_1impl_1_1campaign_1_1tutorial_1_1TutorialMissionIntel.html" target="_top" xlink:title=" ">
<polygon fill="white" stroke="#666666" points="467.75,-79.5 271,-79.5 271,-49 467.75,-49 467.75,-79.5"/>
<text text-anchor="start" x="279" y="-66" font-family="Helvetica,sans-Serif" font-size="10.00">com.fs.starfarer.api.impl.campaign.tutorial.</text>
<text text-anchor="middle" x="369.38" y="-54.75" font-family="Helvetica,sans-Serif" font-size="10.00">TutorialMissionIntel</text>
</a>
</g>
</g>
<!-- Node2&#45;&gt;Node4 -->
<g id="edge5_Node000004_Node000002" class="edge">
<title>Node2&#45;&gt;Node4</title>
<g id="a_edge5_Node000004_Node000002"><a xlink:title=" ">
<path fill="none" stroke="#63b8ff" d="M172.4,-95.58C202.63,-90.74 238.14,-85.07 270.57,-79.88"/>
<polygon fill="#63b8ff" stroke="#63b8ff" points="171.91,-92.11 162.58,-97.15 173.01,-99.02 171.91,-92.11"/>
</a>
</g>
</g>
<!-- Node3 -->
<g id="Node000003" class="node">
<title>Node3</title>
<g id="a_Node000003"><a xlink:title=" ">
<polygon fill="white" stroke="#666666" points="479.75,-30.5 259,-30.5 259,0 479.75,0 479.75,-30.5"/>
<text text-anchor="start" x="267" y="-17" font-family="Helvetica,sans-Serif" font-size="10.00">com.fs.starfarer.api.impl.campaign.tutorial.</text>
<text text-anchor="middle" x="369.38" y="-5.75" font-family="Helvetica,sans-Serif" font-size="10.00">CampaignTutorialScript.CampaignTutorialStage</text>
</a>
</g>
</g>
<!-- Node3&#45;&gt;Node1 -->
<g id="edge2_Node000001_Node000003" class="edge">
<title>Node3&#45;&gt;Node1</title>
<g id="a_edge2_Node000001_Node000003"><a xlink:title=" ">
<path fill="none" stroke="#9a32cd" stroke-dasharray="5,2" d="M491.3,-26.81C516.79,-29.86 543.46,-33.51 568.25,-37.75 585.47,-40.7 603.97,-44.61 621.01,-48.52"/>
<polygon fill="#9a32cd" stroke="#9a32cd" points="491.91,-23.36 481.57,-25.67 491.1,-30.31 491.91,-23.36"/>
</a>
</g>
<text text-anchor="middle" x="533" y="-50.25" font-family="Helvetica,sans-Serif" font-size="10.00" fill="grey"> quickSaveFrom</text>
<text text-anchor="middle" x="533" y="-39" font-family="Helvetica,sans-Serif" font-size="10.00" fill="grey">stage</text>
</g>
<!-- Node4&#45;&gt;Node1 -->
<g id="edge3_Node000001_Node000004" class="edge">
<title>Node4&#45;&gt;Node1</title>
<g id="a_edge3_Node000001_Node000004"><a xlink:title=" ">
<path fill="none" stroke="#9a32cd" stroke-dasharray="5,2" d="M479.33,-64.25C514.03,-64.25 552.17,-64.25 586,-64.25"/>
<polygon fill="#9a32cd" stroke="#9a32cd" points="479.71,-60.75 469.71,-64.25 479.71,-67.75 479.71,-60.75"/>
</a>
</g>
<text text-anchor="middle" x="533" y="-66" font-family="Helvetica,sans-Serif" font-size="10.00" fill="grey"> intel</text>
</g>
<!-- Node5 -->
<g id="Node000005" class="node">
<title>Node5</title>
<g id="a_Node000005"><a xlink:title=" ">
<polygon fill="white" stroke="#666666" points="140.5,-69.88 56.25,-69.88 56.25,-50.62 140.5,-50.62 140.5,-69.88"/>
<text text-anchor="middle" x="98.38" y="-56.38" font-family="Helvetica,sans-Serif" font-size="10.00">BaseIntelPlugin</text>
</a>
</g>
</g>
<!-- Node5&#45;&gt;Node4 -->
<g id="edge4_Node000004_Node000005" class="edge">
<title>Node5&#45;&gt;Node4</title>
<g id="a_edge4_Node000004_Node000005"><a xlink:title=" ">
<path fill="none" stroke="#63b8ff" d="M152.26,-61.04C185.99,-61.54 230.73,-62.2 270.75,-62.8"/>
<polygon fill="#63b8ff" stroke="#63b8ff" points="152.38,-57.54 142.33,-60.89 152.28,-64.54 152.38,-57.54"/>
</a>
</g>
</g>
<!-- Node6 -->
<g id="Node000006" class="node">
<title>Node6</title>
<g id="a_Node000006"><a xlink:title=" ">
<polygon fill="white" stroke="#666666" points="196.75,-32.5 0,-32.5 0,-2 196.75,-2 196.75,-32.5"/>
<text text-anchor="start" x="8" y="-19" font-family="Helvetica,sans-Serif" font-size="10.00">com.fs.starfarer.api.impl.campaign.tutorial.</text>
<text text-anchor="middle" x="98.38" y="-7.75" font-family="Helvetica,sans-Serif" font-size="10.00">TutorialMissionIntel.TutorialMissionStage</text>
</a>
</g>
</g>
<!-- Node6&#45;&gt;Node4 -->
<g id="edge6_Node000004_Node000006" class="edge">
<title>Node6&#45;&gt;Node4</title>
<g id="a_edge6_Node000004_Node000006"><a xlink:title=" ">
<path fill="none" stroke="#9a32cd" stroke-dasharray="5,2" d="M200.57,-34.93C226.18,-39.4 253.51,-44.18 278.51,-48.55"/>
<polygon fill="#9a32cd" stroke="#9a32cd" points="201.27,-31.5 190.81,-33.23 200.06,-38.4 201.27,-31.5"/>
</a>
</g>
<text text-anchor="middle" x="227.88" y="-42" font-family="Helvetica,sans-Serif" font-size="10.00" fill="grey"> stage</text>
</g>
</g>
</svg>
