<?xml version="1.0" encoding="UTF-8" standalone="no"?>
<!DOCTYPE svg PUBLIC "-//W3C//DTD SVG 1.1//EN"
 "http://www.w3.org/Graphics/SVG/1.1/DTD/svg11.dtd">
<!-- Generated by graphviz version 2.44.0 ()
 -->
<!-- Title: com.fs.starfarer.api.impl.campaign.econ.RogueAICore Pages: 1 -->
<svg width="627pt" height="88pt"
 viewBox="0.00 0.00 627.00 88.00" xmlns="http://www.w3.org/2000/svg" xmlns:xlink="http://www.w3.org/1999/xlink">
<g id="graph0" class="graph" transform="scale(1 1) rotate(0) translate(4 84)">
<title>com.fs.starfarer.api.impl.campaign.econ.RogueAICore</title>
<!-- Node1 -->
<g id="node1" class="node">
<title>Node1</title>
<g id="a_node1"><a xlink:title=" ">
<polygon fill="#bfbfbf" stroke="black" points="430,-24.5 430,-54.5 619,-54.5 619,-24.5 430,-24.5"/>
<text text-anchor="start" x="438" y="-42.5" font-family="Helvetica,sans-Serif" font-size="10.00">com.fs.starfarer.api.impl.campaign.econ.</text>
<text text-anchor="middle" x="524.5" y="-31.5" font-family="Helvetica,sans-Serif" font-size="10.00">RogueAICore</text>
</a>
</g>
</g>
<!-- Node2 -->
<g id="node2" class="node">
<title>Node2</title>
<g id="a_node2"><a xlink:href="classcom_1_1fs_1_1starfarer_1_1api_1_1impl_1_1campaign_1_1econ_1_1BaseMarketConditionPlugin.html" target="_top" xlink:title=" ">
<polygon fill="none" stroke="black" points="205,-49.5 205,-79.5 394,-79.5 394,-49.5 205,-49.5"/>
<text text-anchor="start" x="213" y="-67.5" font-family="Helvetica,sans-Serif" font-size="10.00">com.fs.starfarer.api.impl.campaign.econ.</text>
<text text-anchor="middle" x="299.5" y="-56.5" font-family="Helvetica,sans-Serif" font-size="10.00">BaseMarketConditionPlugin</text>
</a>
</g>
</g>
<!-- Node2&#45;&gt;Node1 -->
<g id="edge1" class="edge">
<title>Node2&#45;&gt;Node1</title>
<path fill="none" stroke="midnightblue" d="M404.11,-52.88C412.67,-51.92 421.3,-50.96 429.78,-50.01"/>
<polygon fill="midnightblue" stroke="midnightblue" points="403.65,-49.41 394.1,-54.01 404.43,-56.37 403.65,-49.41"/>
</g>
<!-- Node3 -->
<g id="node3" class="node">
<title>Node3</title>
<g id="a_node3"><a xlink:href="interfacecom_1_1fs_1_1starfarer_1_1api_1_1campaign_1_1econ_1_1MarketConditionPlugin.html" target="_top" xlink:title=" ">
<polygon fill="none" stroke="black" points="0,-49.5 0,-79.5 169,-79.5 169,-49.5 0,-49.5"/>
<text text-anchor="start" x="8" y="-67.5" font-family="Helvetica,sans-Serif" font-size="10.00">com.fs.starfarer.api.campaign.econ.</text>
<text text-anchor="middle" x="84.5" y="-56.5" font-family="Helvetica,sans-Serif" font-size="10.00">MarketConditionPlugin</text>
</a>
</g>
</g>
<!-- Node3&#45;&gt;Node2 -->
<g id="edge2" class="edge">
<title>Node3&#45;&gt;Node2</title>
<path fill="none" stroke="midnightblue" d="M179.08,-64.5C187.67,-64.5 196.37,-64.5 204.95,-64.5"/>
<polygon fill="midnightblue" stroke="midnightblue" points="179.07,-61 169.07,-64.5 179.07,-68 179.07,-61"/>
</g>
<!-- Node4 -->
<g id="node4" class="node">
<title>Node4</title>
<g id="a_node4"><a xlink:href="interfacecom_1_1fs_1_1starfarer_1_1api_1_1campaign_1_1econ_1_1MarketImmigrationModifier.html" target="_top" xlink:title=" ">
<polygon fill="none" stroke="black" points="215,-0.5 215,-30.5 384,-30.5 384,-0.5 215,-0.5"/>
<text text-anchor="start" x="223" y="-18.5" font-family="Helvetica,sans-Serif" font-size="10.00">com.fs.starfarer.api.campaign.econ.</text>
<text text-anchor="middle" x="299.5" y="-7.5" font-family="Helvetica,sans-Serif" font-size="10.00">MarketImmigrationModifier</text>
</a>
</g>
</g>
<!-- Node4&#45;&gt;Node1 -->
<g id="edge3" class="edge">
<title>Node4&#45;&gt;Node1</title>
<path fill="none" stroke="midnightblue" d="M394.35,-25.6C406.02,-26.86 417.95,-28.14 429.62,-29.4"/>
<polygon fill="midnightblue" stroke="midnightblue" points="394.49,-22.1 384.17,-24.5 393.74,-29.06 394.49,-22.1"/>
</g>
</g>
</svg>
