<?xml version="1.0" encoding="UTF-8" standalone="no"?>
<!DOCTYPE svg PUBLIC "-//W3C//DTD SVG 1.1//EN"
 "http://www.w3.org/Graphics/SVG/1.1/DTD/svg11.dtd">
<!-- Generated by graphviz version 12.2.0 (20241103.1931)
 -->
<!-- Title: com.fs.starfarer.api.impl.combat.dweller.ShroudedVortexAI Pages: 1 -->
<svg width="608pt" height="260pt"
 viewBox="0.00 0.00 608.25 259.88" xmlns="http://www.w3.org/2000/svg" xmlns:xlink="http://www.w3.org/1999/xlink">
<g id="graph0" class="graph" transform="scale(1 1) rotate(0) translate(4 255.88)">
<title>com.fs.starfarer.api.impl.combat.dweller.ShroudedVortexAI</title>
<!-- Node1 -->
<g id="Node000001" class="node">
<title>Node1</title>
<g id="a_Node000001"><a xlink:title=" ">
<polygon fill="#999999" stroke="#666666" points="600.25,-133.88 411.75,-133.88 411.75,-103.38 600.25,-103.38 600.25,-133.88"/>
<text text-anchor="start" x="419.75" y="-120.38" font-family="Helvetica,sans-Serif" font-size="10.00">com.fs.starfarer.api.impl.combat.dweller.</text>
<text text-anchor="middle" x="506" y="-109.12" font-family="Helvetica,sans-Serif" font-size="10.00">ShroudedVortexAI</text>
</a>
</g>
</g>
<!-- Node2 -->
<g id="Node000002" class="node">
<title>Node2</title>
<g id="a_Node000002"><a xlink:href="interfacecom_1_1fs_1_1starfarer_1_1api_1_1combat_1_1ShipAIPlugin.html" target="_top" xlink:title=" ">
<polygon fill="white" stroke="#666666" points="307.5,-251.88 172.25,-251.88 172.25,-221.38 307.5,-221.38 307.5,-251.88"/>
<text text-anchor="start" x="180.25" y="-238.38" font-family="Helvetica,sans-Serif" font-size="10.00">com.fs.starfarer.api.combat.</text>
<text text-anchor="middle" x="239.88" y="-227.12" font-family="Helvetica,sans-Serif" font-size="10.00">ShipAIPlugin</text>
</a>
</g>
</g>
<!-- Node2&#45;&gt;Node1 -->
<g id="edge1_Node000001_Node000002" class="edge">
<title>Node2&#45;&gt;Node1</title>
<g id="a_edge1_Node000001_Node000002"><a xlink:title=" ">
<path fill="none" stroke="#63b8ff" d="M314.39,-217.72C340.04,-210.04 368.67,-200.22 393.75,-188.62 426.89,-173.31 462.06,-149.79 483.78,-134.31"/>
<polygon fill="#63b8ff" stroke="#63b8ff" points="313.67,-214.28 305.06,-220.45 315.64,-221 313.67,-214.28"/>
</a>
</g>
</g>
<!-- Node3 -->
<g id="Node000003" class="node">
<title>Node3</title>
<g id="a_Node000003"><a xlink:href="classcom_1_1fs_1_1starfarer_1_1api_1_1combat_1_1ShipwideAIFlags.html" target="_top" xlink:title=" ">
<polygon fill="white" stroke="#666666" points="307.5,-202.88 172.25,-202.88 172.25,-172.38 307.5,-172.38 307.5,-202.88"/>
<text text-anchor="start" x="180.25" y="-189.38" font-family="Helvetica,sans-Serif" font-size="10.00">com.fs.starfarer.api.combat.</text>
<text text-anchor="middle" x="239.88" y="-178.12" font-family="Helvetica,sans-Serif" font-size="10.00">ShipwideAIFlags</text>
</a>
</g>
</g>
<!-- Node3&#45;&gt;Node1 -->
<g id="edge2_Node000001_Node000003" class="edge">
<title>Node3&#45;&gt;Node1</title>
<g id="a_edge2_Node000001_Node000003"><a xlink:title=" ">
<path fill="none" stroke="#9a32cd" stroke-dasharray="5,2" d="M319.24,-175.21C343.32,-170.74 369.79,-165.16 393.75,-158.62 418.2,-151.95 444.96,-142.41 466.1,-134.32"/>
<polygon fill="#9a32cd" stroke="#9a32cd" points="318.7,-171.75 309.48,-176.98 319.95,-178.64 318.7,-171.75"/>
</a>
</g>
<text text-anchor="middle" x="359.62" y="-175.46" font-family="Helvetica,sans-Serif" font-size="10.00" fill="grey"> flags</text>
</g>
<!-- Node4 -->
<g id="Node000004" class="node">
<title>Node4</title>
<g id="a_Node000004"><a xlink:href="interfacecom_1_1fs_1_1starfarer_1_1api_1_1combat_1_1ShipAPI.html" target="_top" xlink:title=" ">
<polygon fill="white" stroke="#666666" points="307.5,-153.88 172.25,-153.88 172.25,-123.38 307.5,-123.38 307.5,-153.88"/>
<text text-anchor="start" x="180.25" y="-140.38" font-family="Helvetica,sans-Serif" font-size="10.00">com.fs.starfarer.api.combat.</text>
<text text-anchor="middle" x="239.88" y="-129.12" font-family="Helvetica,sans-Serif" font-size="10.00">ShipAPI</text>
</a>
</g>
</g>
<!-- Node4&#45;&gt;Node1 -->
<g id="edge3_Node000001_Node000004" class="edge">
<title>Node4&#45;&gt;Node1</title>
<g id="a_edge3_Node000001_Node000004"><a xlink:title=" ">
<path fill="none" stroke="#9a32cd" stroke-dasharray="5,2" d="M319.19,-132.69C348.22,-130.5 381.42,-127.98 411.66,-125.69"/>
<polygon fill="#9a32cd" stroke="#9a32cd" points="319.08,-129.19 309.38,-133.44 319.61,-136.17 319.08,-129.19"/>
</a>
</g>
<text text-anchor="middle" x="359.62" y="-145.16" font-family="Helvetica,sans-Serif" font-size="10.00" fill="grey"> ship</text>
<text text-anchor="middle" x="359.62" y="-133.91" font-family="Helvetica,sans-Serif" font-size="10.00" fill="grey">target</text>
</g>
<!-- Node5 -->
<g id="Node000005" class="node">
<title>Node5</title>
<g id="a_Node000005"><a xlink:href="interfacecom_1_1fs_1_1starfarer_1_1api_1_1combat_1_1CombatEntityAPI.html" target="_top" xlink:title=" ">
<polygon fill="white" stroke="#666666" points="135.25,-153.88 0,-153.88 0,-123.38 135.25,-123.38 135.25,-153.88"/>
<text text-anchor="start" x="8" y="-140.38" font-family="Helvetica,sans-Serif" font-size="10.00">com.fs.starfarer.api.combat.</text>
<text text-anchor="middle" x="67.62" y="-129.12" font-family="Helvetica,sans-Serif" font-size="10.00">CombatEntityAPI</text>
</a>
</g>
</g>
<!-- Node5&#45;&gt;Node4 -->
<g id="edge4_Node000004_Node000005" class="edge">
<title>Node5&#45;&gt;Node4</title>
<g id="a_edge4_Node000004_Node000005"><a xlink:title=" ">
<path fill="none" stroke="#63b8ff" d="M146.81,-138.62C155.22,-138.62 163.73,-138.62 171.99,-138.62"/>
<polygon fill="#63b8ff" stroke="#63b8ff" points="146.94,-135.13 136.94,-138.63 146.94,-142.13 146.94,-135.13"/>
</a>
</g>
</g>
<!-- Node6 -->
<g id="Node000006" class="node">
<title>Node6</title>
<g id="a_Node000006"><a xlink:title=" ">
<polygon fill="white" stroke="#666666" points="266.25,-105.25 213.5,-105.25 213.5,-86 266.25,-86 266.25,-105.25"/>
<text text-anchor="middle" x="239.88" y="-91.75" font-family="Helvetica,sans-Serif" font-size="10.00">Vector2f</text>
</a>
</g>
</g>
<!-- Node6&#45;&gt;Node1 -->
<g id="edge5_Node000001_Node000006" class="edge">
<title>Node6&#45;&gt;Node1</title>
<g id="a_edge5_Node000001_Node000006"><a xlink:title=" ">
<path fill="none" stroke="#9a32cd" stroke-dasharray="5,2" d="M278.08,-98.86C312.59,-101.87 365.38,-106.47 411.36,-110.47"/>
<polygon fill="#9a32cd" stroke="#9a32cd" points="278.46,-95.38 268.19,-98 277.85,-102.36 278.46,-95.38"/>
</a>
</g>
<text text-anchor="middle" x="359.62" y="-110.25" font-family="Helvetica,sans-Serif" font-size="10.00" fill="grey"> prevVel</text>
</g>
<!-- Node7 -->
<g id="Node000007" class="node">
<title>Node7</title>
<g id="a_Node000007"><a xlink:href="classcom_1_1fs_1_1starfarer_1_1api_1_1util_1_1IntervalUtil.html" target="_top" xlink:title=" ">
<polygon fill="white" stroke="#666666" points="297.75,-67.88 182,-67.88 182,-37.38 297.75,-37.38 297.75,-67.88"/>
<text text-anchor="start" x="190" y="-54.38" font-family="Helvetica,sans-Serif" font-size="10.00">com.fs.starfarer.api.util.</text>
<text text-anchor="middle" x="239.88" y="-43.12" font-family="Helvetica,sans-Serif" font-size="10.00">IntervalUtil</text>
</a>
</g>
</g>
<!-- Node7&#45;&gt;Node1 -->
<g id="edge6_Node000001_Node000007" class="edge">
<title>Node7&#45;&gt;Node1</title>
<g id="a_edge6_Node000001_Node000007"><a xlink:title=" ">
<path fill="none" stroke="#9a32cd" stroke-dasharray="5,2" d="M309.24,-59.98C335.88,-63.66 366.49,-68.91 393.75,-76.12 419.93,-83.05 448.45,-94.02 470.06,-103.08"/>
<polygon fill="#9a32cd" stroke="#9a32cd" points="309.97,-56.54 299.59,-58.69 309.05,-63.48 309.97,-56.54"/>
</a>
</g>
<text text-anchor="middle" x="359.62" y="-89.12" font-family="Helvetica,sans-Serif" font-size="10.00" fill="grey"> headingInterval</text>
<text text-anchor="middle" x="359.62" y="-77.88" font-family="Helvetica,sans-Serif" font-size="10.00" fill="grey">updateInterval</text>
</g>
<!-- Node8 -->
<g id="Node000008" class="node">
<title>Node8</title>
<g id="a_Node000008"><a xlink:title=" ">
<polygon fill="white" stroke="#666666" points="292.88,-19.25 186.88,-19.25 186.88,0 292.88,0 292.88,-19.25"/>
<text text-anchor="middle" x="239.88" y="-5.75" font-family="Helvetica,sans-Serif" font-size="10.00">List&lt; FlockingData &gt;</text>
</a>
</g>
</g>
<!-- Node8&#45;&gt;Node1 -->
<g id="edge7_Node000001_Node000008" class="edge">
<title>Node8&#45;&gt;Node1</title>
<g id="a_edge7_Node000001_Node000008"><a xlink:title=" ">
<path fill="none" stroke="#9a32cd" stroke-dasharray="5,2" d="M304.12,-20.39C332.26,-26.39 365.37,-35.18 393.75,-47.38 428.1,-62.14 463.81,-86.98 485.22,-103.09"/>
<polygon fill="#9a32cd" stroke="#9a32cd" points="305.18,-17.03 294.68,-18.44 303.77,-23.89 305.18,-17.03"/>
</a>
</g>
<text text-anchor="middle" x="359.62" y="-49.12" font-family="Helvetica,sans-Serif" font-size="10.00" fill="grey"> flockingData</text>
</g>
</g>
</svg>
