<?xml version="1.0" encoding="UTF-8" standalone="no"?>
<!DOCTYPE svg PUBLIC "-//W3C//DTD SVG 1.1//EN"
 "http://www.w3.org/Graphics/SVG/1.1/DTD/svg11.dtd">
<!-- Generated by graphviz version 2.49.3 (20211027.1501)
 -->
<!-- Title: com.fs.starfarer.api.impl.campaign.fleets.MercAssignmentAIV2 Pages: 1 -->
<svg width="1657pt" height="386pt"
 viewBox="0.00 0.00 1657.00 386.00" xmlns="http://www.w3.org/2000/svg" xmlns:xlink="http://www.w3.org/1999/xlink">
<g id="graph0" class="graph" transform="scale(1 1) rotate(0) translate(4 382)">
<title>com.fs.starfarer.api.impl.campaign.fleets.MercAssignmentAIV2</title>
<!-- Node1 -->
<g id="node1" class="node">
<title>Node1</title>
<g id="a_node1"><a xlink:title=" ">
<polygon fill="#bfbfbf" stroke="black" points="1458,-151.5 1458,-181.5 1649,-181.5 1649,-151.5 1458,-151.5"/>
<text text-anchor="start" x="1466" y="-169.5" font-family="Helvetica,sans-Serif" font-size="10.00">com.fs.starfarer.api.impl.campaign.fleets.</text>
<text text-anchor="middle" x="1553.5" y="-158.5" font-family="Helvetica,sans-Serif" font-size="10.00">MercAssignmentAIV2</text>
</a>
</g>
</g>
<!-- Node2 -->
<g id="node2" class="node">
<title>Node2</title>
<g id="a_node2"><a xlink:href="classcom_1_1fs_1_1starfarer_1_1api_1_1impl_1_1campaign_1_1procgen_1_1themes_1_1RouteFleetAssignmentAI.html" target="_top" xlink:title=" ">
<polygon fill="none" stroke="black" points="1184,-151.5 1184,-181.5 1421,-181.5 1421,-151.5 1184,-151.5"/>
<text text-anchor="start" x="1192" y="-169.5" font-family="Helvetica,sans-Serif" font-size="10.00">com.fs.starfarer.api.impl.campaign.procgen.themes.</text>
<text text-anchor="middle" x="1302.5" y="-158.5" font-family="Helvetica,sans-Serif" font-size="10.00">RouteFleetAssignmentAI</text>
</a>
</g>
</g>
<!-- Node2&#45;&gt;Node1 -->
<g id="edge1" class="edge">
<title>Node2&#45;&gt;Node1</title>
<path fill="none" stroke="midnightblue" d="M1431.21,-166.5C1440.18,-166.5 1449.14,-166.5 1457.88,-166.5"/>
<polygon fill="midnightblue" stroke="midnightblue" points="1431.07,-163 1421.07,-166.5 1431.07,-170 1431.07,-163"/>
</g>
<!-- Node3 -->
<g id="node3" class="node">
<title>Node3</title>
<g id="a_node3"><a xlink:href="classcom_1_1fs_1_1starfarer_1_1api_1_1impl_1_1campaign_1_1procgen_1_1themes_1_1BaseAssignmentAI.html" target="_top" xlink:title=" ">
<polygon fill="none" stroke="black" points="886,-101.5 886,-131.5 1123,-131.5 1123,-101.5 886,-101.5"/>
<text text-anchor="start" x="894" y="-119.5" font-family="Helvetica,sans-Serif" font-size="10.00">com.fs.starfarer.api.impl.campaign.procgen.themes.</text>
<text text-anchor="middle" x="1004.5" y="-108.5" font-family="Helvetica,sans-Serif" font-size="10.00">BaseAssignmentAI</text>
</a>
</g>
</g>
<!-- Node3&#45;&gt;Node2 -->
<g id="edge2" class="edge">
<title>Node3&#45;&gt;Node2</title>
<path fill="none" stroke="midnightblue" d="M1104.52,-133.23C1139.44,-139.13 1178.46,-145.72 1212.5,-151.47"/>
<polygon fill="midnightblue" stroke="midnightblue" points="1104.75,-129.72 1094.31,-131.5 1103.59,-136.62 1104.75,-129.72"/>
</g>
<!-- Node4 -->
<g id="node4" class="node">
<title>Node4</title>
<g id="a_node4"><a xlink:href="interfacecom_1_1fs_1_1starfarer_1_1api_1_1EveryFrameScript.html" target="_top" xlink:title=" ">
<polygon fill="none" stroke="black" points="613,-101.5 613,-131.5 738,-131.5 738,-101.5 613,-101.5"/>
<text text-anchor="start" x="621" y="-119.5" font-family="Helvetica,sans-Serif" font-size="10.00">com.fs.starfarer.api.Every</text>
<text text-anchor="middle" x="675.5" y="-108.5" font-family="Helvetica,sans-Serif" font-size="10.00">FrameScript</text>
</a>
</g>
</g>
<!-- Node4&#45;&gt;Node3 -->
<g id="edge3" class="edge">
<title>Node4&#45;&gt;Node3</title>
<path fill="none" stroke="midnightblue" d="M748.02,-116.5C788.39,-116.5 839.86,-116.5 886,-116.5"/>
<polygon fill="midnightblue" stroke="midnightblue" points="748.01,-113 738.01,-116.5 748.01,-120 748.01,-113"/>
</g>
<!-- Node5 -->
<g id="node5" class="node">
<title>Node5</title>
<g id="a_node5"><a xlink:href="interfacecom_1_1fs_1_1starfarer_1_1api_1_1campaign_1_1CampaignFleetAPI.html" target="_top" xlink:title=" ">
<polygon fill="none" stroke="black" points="602.5,-150.5 602.5,-180.5 748.5,-180.5 748.5,-150.5 602.5,-150.5"/>
<text text-anchor="start" x="610.5" y="-168.5" font-family="Helvetica,sans-Serif" font-size="10.00">com.fs.starfarer.api.campaign.</text>
<text text-anchor="middle" x="675.5" y="-157.5" font-family="Helvetica,sans-Serif" font-size="10.00">CampaignFleetAPI</text>
</a>
</g>
</g>
<!-- Node5&#45;&gt;Node3 -->
<g id="edge4" class="edge">
<title>Node5&#45;&gt;Node3</title>
<path fill="none" stroke="#9a32cd" stroke-dasharray="5,2" d="M758.72,-153.18C802.61,-146.6 856.97,-138.46 903.3,-131.51"/>
<polygon fill="#9a32cd" stroke="#9a32cd" points="758.04,-149.74 748.67,-154.69 759.07,-156.67 758.04,-149.74"/>
<text text-anchor="middle" x="840" y="-146.5" font-family="Helvetica,sans-Serif" font-size="10.00"> fleet</text>
</g>
<!-- Node11 -->
<g id="node11" class="node">
<title>Node11</title>
<g id="a_node11"><a xlink:title=" ">
<polygon fill="none" stroke="#bfbfbf" points="909,-225.5 909,-255.5 1100,-255.5 1100,-225.5 909,-225.5"/>
<text text-anchor="start" x="917" y="-243.5" font-family="Helvetica,sans-Serif" font-size="10.00">com.fs.starfarer.api.impl.campaign.fleets.</text>
<text text-anchor="middle" x="1004.5" y="-232.5" font-family="Helvetica,sans-Serif" font-size="10.00">RouteManager.RouteData</text>
</a>
</g>
</g>
<!-- Node5&#45;&gt;Node11 -->
<g id="edge14" class="edge">
<title>Node5&#45;&gt;Node11</title>
<path fill="none" stroke="#9a32cd" stroke-dasharray="5,2" d="M758.57,-182.69C770.47,-185.26 782.56,-187.92 794,-190.5 843.97,-201.78 900.46,-215.3 942.17,-225.44"/>
<polygon fill="#9a32cd" stroke="#9a32cd" points="759.16,-179.24 748.64,-180.56 757.68,-186.08 759.16,-179.24"/>
<text text-anchor="middle" x="840" y="-209.5" font-family="Helvetica,sans-Serif" font-size="10.00"> activeFleet</text>
</g>
<!-- Node6 -->
<g id="node6" class="node">
<title>Node6</title>
<g id="a_node6"><a xlink:href="interfacecom_1_1fs_1_1starfarer_1_1api_1_1campaign_1_1SectorEntityToken.html" target="_top" xlink:title=" ">
<polygon fill="none" stroke="black" points="206,-297.5 206,-327.5 352,-327.5 352,-297.5 206,-297.5"/>
<text text-anchor="start" x="214" y="-315.5" font-family="Helvetica,sans-Serif" font-size="10.00">com.fs.starfarer.api.campaign.</text>
<text text-anchor="middle" x="279" y="-304.5" font-family="Helvetica,sans-Serif" font-size="10.00">SectorEntityToken</text>
</a>
</g>
</g>
<!-- Node6&#45;&gt;Node5 -->
<g id="edge5" class="edge">
<title>Node6&#45;&gt;Node5</title>
<path fill="none" stroke="midnightblue" d="M317.68,-292.93C370.09,-266.39 468.55,-219.05 557,-190.5 571.49,-185.82 587.27,-181.78 602.43,-178.39"/>
<polygon fill="midnightblue" stroke="midnightblue" points="316.07,-289.82 308.74,-297.47 319.24,-296.05 316.07,-289.82"/>
</g>
<!-- Node14 -->
<g id="node14" class="node">
<title>Node14</title>
<g id="a_node14"><a xlink:title=" ">
<polygon fill="none" stroke="#bfbfbf" points="580,-297.5 580,-327.5 771,-327.5 771,-297.5 580,-297.5"/>
<text text-anchor="start" x="588" y="-315.5" font-family="Helvetica,sans-Serif" font-size="10.00">com.fs.starfarer.api.impl.campaign.fleets.</text>
<text text-anchor="middle" x="675.5" y="-304.5" font-family="Helvetica,sans-Serif" font-size="10.00">RouteManager.RouteSegment</text>
</a>
</g>
</g>
<!-- Node6&#45;&gt;Node14 -->
<g id="edge16" class="edge">
<title>Node6&#45;&gt;Node14</title>
<path fill="none" stroke="#9a32cd" stroke-dasharray="5,2" d="M362.72,-312.5C426.13,-312.5 513.7,-312.5 579.89,-312.5"/>
<polygon fill="#9a32cd" stroke="#9a32cd" points="362.36,-309 352.36,-312.5 362.36,-316 362.36,-309"/>
<text text-anchor="middle" x="454.5" y="-326.5" font-family="Helvetica,sans-Serif" font-size="10.00"> from</text>
<text text-anchor="middle" x="454.5" y="-315.5" font-family="Helvetica,sans-Serif" font-size="10.00">to</text>
</g>
<!-- Node7 -->
<g id="node7" class="node">
<title>Node7</title>
<g id="a_node7"><a xlink:href="interfacecom_1_1fs_1_1starfarer_1_1api_1_1campaign_1_1rules_1_1HasMemory.html" target="_top" xlink:title=" ">
<polygon fill="none" stroke="black" points="0,-320.5 0,-350.5 169,-350.5 169,-320.5 0,-320.5"/>
<text text-anchor="start" x="8" y="-338.5" font-family="Helvetica,sans-Serif" font-size="10.00">com.fs.starfarer.api.campaign.rules.</text>
<text text-anchor="middle" x="84.5" y="-327.5" font-family="Helvetica,sans-Serif" font-size="10.00">HasMemory</text>
</a>
</g>
</g>
<!-- Node7&#45;&gt;Node6 -->
<g id="edge6" class="edge">
<title>Node7&#45;&gt;Node6</title>
<path fill="none" stroke="midnightblue" d="M179.21,-324.3C188.2,-323.23 197.21,-322.15 205.95,-321.11"/>
<polygon fill="midnightblue" stroke="midnightblue" points="178.61,-320.85 169.09,-325.51 179.44,-327.8 178.61,-320.85"/>
</g>
<!-- Node13 -->
<g id="node13" class="node">
<title>Node13</title>
<g id="a_node13"><a xlink:href="interfacecom_1_1fs_1_1starfarer_1_1api_1_1campaign_1_1econ_1_1MarketAPI.html" target="_top" xlink:title=" ">
<polygon fill="none" stroke="black" points="370,-347.5 370,-377.5 539,-377.5 539,-347.5 370,-347.5"/>
<text text-anchor="start" x="378" y="-365.5" font-family="Helvetica,sans-Serif" font-size="10.00">com.fs.starfarer.api.campaign.econ.</text>
<text text-anchor="middle" x="454.5" y="-354.5" font-family="Helvetica,sans-Serif" font-size="10.00">MarketAPI</text>
</a>
</g>
</g>
<!-- Node7&#45;&gt;Node13 -->
<g id="edge13" class="edge">
<title>Node7&#45;&gt;Node13</title>
<path fill="none" stroke="midnightblue" d="M179.03,-342.36C237.77,-346.67 312.89,-352.18 369.69,-356.35"/>
<polygon fill="midnightblue" stroke="midnightblue" points="179.23,-338.87 169,-341.63 178.72,-345.85 179.23,-338.87"/>
</g>
<!-- Node8 -->
<g id="node8" class="node">
<title>Node8</title>
<g id="a_node8"><a xlink:href="interfacecom_1_1fs_1_1starfarer_1_1api_1_1campaign_1_1FleetOrStubAPI.html" target="_top" xlink:title=" ">
<polygon fill="none" stroke="black" points="206,-150.5 206,-180.5 352,-180.5 352,-150.5 206,-150.5"/>
<text text-anchor="start" x="214" y="-168.5" font-family="Helvetica,sans-Serif" font-size="10.00">com.fs.starfarer.api.campaign.</text>
<text text-anchor="middle" x="279" y="-157.5" font-family="Helvetica,sans-Serif" font-size="10.00">FleetOrStubAPI</text>
</a>
</g>
</g>
<!-- Node8&#45;&gt;Node5 -->
<g id="edge7" class="edge">
<title>Node8&#45;&gt;Node5</title>
<path fill="none" stroke="midnightblue" d="M362.59,-165.5C433.45,-165.5 534.57,-165.5 602.27,-165.5"/>
<polygon fill="midnightblue" stroke="midnightblue" points="362.36,-162 352.36,-165.5 362.36,-169 362.36,-162"/>
</g>
<!-- Node9 -->
<g id="node9" class="node">
<title>Node9</title>
<g id="a_node9"><a xlink:href="interfacecom_1_1fs_1_1starfarer_1_1api_1_1impl_1_1campaign_1_1procgen_1_1themes_1_1BaseAssignmentAI_1_1FleetActionDelegate.html" target="_top" xlink:title=" ">
<polygon fill="none" stroke="black" points="557,-52.5 557,-82.5 794,-82.5 794,-52.5 557,-52.5"/>
<text text-anchor="start" x="565" y="-70.5" font-family="Helvetica,sans-Serif" font-size="10.00">com.fs.starfarer.api.impl.campaign.procgen.themes.</text>
<text text-anchor="middle" x="675.5" y="-59.5" font-family="Helvetica,sans-Serif" font-size="10.00">BaseAssignmentAI.FleetActionDelegate</text>
</a>
</g>
</g>
<!-- Node9&#45;&gt;Node3 -->
<g id="edge8" class="edge">
<title>Node9&#45;&gt;Node3</title>
<path fill="none" stroke="#9a32cd" stroke-dasharray="5,2" d="M786.83,-84.03C824.55,-89.68 866.49,-95.97 903.36,-101.49"/>
<polygon fill="#9a32cd" stroke="#9a32cd" points="787.24,-80.56 776.83,-82.53 786.2,-87.48 787.24,-80.56"/>
<text text-anchor="middle" x="840" y="-97.5" font-family="Helvetica,sans-Serif" font-size="10.00"> delegate</text>
</g>
<!-- Node10 -->
<g id="node10" class="node">
<title>Node10</title>
<g id="a_node10"><a xlink:href="classcom_1_1fs_1_1starfarer_1_1api_1_1util_1_1IntervalUtil.html" target="_top" xlink:title=" ">
<polygon fill="none" stroke="black" points="617.5,-0.5 617.5,-30.5 733.5,-30.5 733.5,-0.5 617.5,-0.5"/>
<text text-anchor="start" x="625.5" y="-18.5" font-family="Helvetica,sans-Serif" font-size="10.00">com.fs.starfarer.api.util.</text>
<text text-anchor="middle" x="675.5" y="-7.5" font-family="Helvetica,sans-Serif" font-size="10.00">IntervalUtil</text>
</a>
</g>
</g>
<!-- Node10&#45;&gt;Node3 -->
<g id="edge9" class="edge">
<title>Node10&#45;&gt;Node3</title>
<path fill="none" stroke="#9a32cd" stroke-dasharray="5,2" d="M743.85,-23.76C781.05,-29.41 827.74,-38.31 868,-51.5 907.67,-64.49 950.68,-86.64 977.36,-101.42"/>
<polygon fill="#9a32cd" stroke="#9a32cd" points="744.02,-20.25 733.62,-22.25 743,-27.17 744.02,-20.25"/>
<text text-anchor="middle" x="840" y="-76.5" font-family="Helvetica,sans-Serif" font-size="10.00"> buildTracker</text>
<text text-anchor="middle" x="840" y="-65.5" font-family="Helvetica,sans-Serif" font-size="10.00">capTracker</text>
<text text-anchor="middle" x="840" y="-54.5" font-family="Helvetica,sans-Serif" font-size="10.00">raidTracker</text>
</g>
<!-- Node11&#45;&gt;Node2 -->
<g id="edge10" class="edge">
<title>Node11&#45;&gt;Node2</title>
<path fill="none" stroke="#9a32cd" stroke-dasharray="5,2" d="M1075.61,-222.97C1126.03,-210.37 1193.33,-193.54 1241.33,-181.54"/>
<polygon fill="#9a32cd" stroke="#9a32cd" points="1074.61,-219.61 1065.76,-225.44 1076.31,-226.41 1074.61,-219.61"/>
<text text-anchor="middle" x="1153.5" y="-208.5" font-family="Helvetica,sans-Serif" font-size="10.00"> route</text>
</g>
<!-- Node12 -->
<g id="node12" class="node">
<title>Node12</title>
<g id="a_node12"><a xlink:title=" ">
<polygon fill="none" stroke="#bfbfbf" points="580,-199.5 580,-229.5 771,-229.5 771,-199.5 580,-199.5"/>
<text text-anchor="start" x="588" y="-217.5" font-family="Helvetica,sans-Serif" font-size="10.00">com.fs.starfarer.api.impl.campaign.fleets.</text>
<text text-anchor="middle" x="675.5" y="-206.5" font-family="Helvetica,sans-Serif" font-size="10.00">RouteManager.OptionalFleetData</text>
</a>
</g>
</g>
<!-- Node12&#45;&gt;Node11 -->
<g id="edge11" class="edge">
<title>Node12&#45;&gt;Node11</title>
<path fill="none" stroke="#9a32cd" stroke-dasharray="5,2" d="M781.1,-222.82C822.12,-226.08 868.85,-229.79 908.85,-232.97"/>
<polygon fill="#9a32cd" stroke="#9a32cd" points="781.33,-219.32 771.08,-222.02 780.77,-226.3 781.33,-219.32"/>
<text text-anchor="middle" x="840" y="-231.5" font-family="Helvetica,sans-Serif" font-size="10.00"> extra</text>
</g>
<!-- Node13&#45;&gt;Node11 -->
<g id="edge12" class="edge">
<title>Node13&#45;&gt;Node11</title>
<path fill="none" stroke="#9a32cd" stroke-dasharray="5,2" d="M549.65,-364.53C618.4,-363.86 713.29,-358.42 794,-337.5 864.61,-319.19 940.71,-277.89 978.81,-255.54"/>
<polygon fill="#9a32cd" stroke="#9a32cd" points="549.25,-361.03 539.28,-364.6 549.3,-368.03 549.25,-361.03"/>
<text text-anchor="middle" x="675.5" y="-366.5" font-family="Helvetica,sans-Serif" font-size="10.00"> market</text>
</g>
<!-- Node14&#45;&gt;Node11 -->
<g id="edge15" class="edge">
<title>Node14&#45;&gt;Node11</title>
<path fill="none" stroke="#9a32cd" stroke-dasharray="5,2" d="M761.47,-295.39C772.43,-293.11 783.48,-290.78 794,-288.5 842.87,-277.91 897.98,-265.26 939.4,-255.6"/>
<polygon fill="#9a32cd" stroke="#9a32cd" points="760.54,-292.01 751.46,-297.47 761.96,-298.87 760.54,-292.01"/>
<text text-anchor="middle" x="840" y="-286.5" font-family="Helvetica,sans-Serif" font-size="10.00"> current</text>
</g>
<!-- Node15 -->
<g id="node15" class="node">
<title>Node15</title>
<g id="a_node15"><a xlink:title=" ">
<polygon fill="none" stroke="#bfbfbf" points="580,-248.5 580,-278.5 771,-278.5 771,-248.5 580,-248.5"/>
<text text-anchor="start" x="588" y="-266.5" font-family="Helvetica,sans-Serif" font-size="10.00">com.fs.starfarer.api.impl.campaign.fleets.</text>
<text text-anchor="middle" x="675.5" y="-255.5" font-family="Helvetica,sans-Serif" font-size="10.00">RouteManager.RouteFleetSpawner</text>
</a>
</g>
</g>
<!-- Node15&#45;&gt;Node11 -->
<g id="edge17" class="edge">
<title>Node15&#45;&gt;Node11</title>
<path fill="none" stroke="#9a32cd" stroke-dasharray="5,2" d="M781.1,-256.14C822.12,-253.26 868.85,-249.97 908.85,-247.16"/>
<polygon fill="#9a32cd" stroke="#9a32cd" points="780.81,-252.65 771.08,-256.85 781.3,-259.64 780.81,-252.65"/>
<text text-anchor="middle" x="840" y="-255.5" font-family="Helvetica,sans-Serif" font-size="10.00"> spawner</text>
</g>
</g>
</svg>
