<?xml version="1.0" encoding="UTF-8" standalone="no"?>
<!DOCTYPE svg PUBLIC "-//W3C//DTD SVG 1.1//EN"
 "http://www.w3.org/Graphics/SVG/1.1/DTD/svg11.dtd">
<!-- Generated by graphviz version 2.44.0 ()
 -->
<!-- Title: com.fs.starfarer.api.impl.campaign.intel.events.ht.HyperspaceTopographyEventIntel Pages: 1 -->
<svg width="986pt" height="284pt"
 viewBox="0.00 0.00 986.00 284.00" xmlns="http://www.w3.org/2000/svg" xmlns:xlink="http://www.w3.org/1999/xlink">
<g id="graph0" class="graph" transform="scale(1 1) rotate(0) translate(4 280)">
<title>com.fs.starfarer.api.impl.campaign.intel.events.ht.HyperspaceTopographyEventIntel</title>
<!-- Node1 -->
<g id="node1" class="node">
<title>Node1</title>
<g id="a_node1"><a xlink:title=" ">
<polygon fill="#bfbfbf" stroke="black" points="750,-73.5 750,-103.5 978,-103.5 978,-73.5 750,-73.5"/>
<text text-anchor="start" x="758" y="-91.5" font-family="Helvetica,sans-Serif" font-size="10.00">com.fs.starfarer.api.impl.campaign.intel.events.ht.</text>
<text text-anchor="middle" x="864" y="-80.5" font-family="Helvetica,sans-Serif" font-size="10.00">HyperspaceTopographyEventIntel</text>
</a>
</g>
</g>
<!-- Node2 -->
<g id="node2" class="node">
<title>Node2</title>
<g id="a_node2"><a xlink:href="classcom_1_1fs_1_1starfarer_1_1api_1_1impl_1_1campaign_1_1intel_1_1events_1_1BaseEventIntel.html" target="_top" xlink:title=" ">
<polygon fill="none" stroke="black" points="496,-147.5 496,-177.5 714,-177.5 714,-147.5 496,-147.5"/>
<text text-anchor="start" x="504" y="-165.5" font-family="Helvetica,sans-Serif" font-size="10.00">com.fs.starfarer.api.impl.campaign.intel.events.</text>
<text text-anchor="middle" x="605" y="-154.5" font-family="Helvetica,sans-Serif" font-size="10.00">BaseEventIntel</text>
</a>
</g>
</g>
<!-- Node2&#45;&gt;Node1 -->
<g id="edge1" class="edge">
<title>Node2&#45;&gt;Node1</title>
<path fill="none" stroke="midnightblue" d="M688.38,-145.14C697.06,-143.03 705.73,-140.8 714,-138.5 750.94,-128.23 792.21,-114.17 821.93,-103.58"/>
<polygon fill="midnightblue" stroke="midnightblue" points="687.5,-141.75 678.59,-147.47 689.13,-148.56 687.5,-141.75"/>
</g>
<!-- Node3 -->
<g id="node3" class="node">
<title>Node3</title>
<g id="a_node3"><a xlink:href="classcom_1_1fs_1_1starfarer_1_1api_1_1impl_1_1campaign_1_1intel_1_1BaseIntelPlugin.html" target="_top" xlink:title=" ">
<polygon fill="none" stroke="black" points="274,-171.5 274,-201.5 460,-201.5 460,-171.5 274,-171.5"/>
<text text-anchor="start" x="282" y="-189.5" font-family="Helvetica,sans-Serif" font-size="10.00">com.fs.starfarer.api.impl.campaign.intel.</text>
<text text-anchor="middle" x="367" y="-178.5" font-family="Helvetica,sans-Serif" font-size="10.00">BaseIntelPlugin</text>
</a>
</g>
</g>
<!-- Node3&#45;&gt;Node2 -->
<g id="edge2" class="edge">
<title>Node3&#45;&gt;Node2</title>
<path fill="none" stroke="midnightblue" d="M470.42,-176.08C478.81,-175.23 487.31,-174.37 495.73,-173.51"/>
<polygon fill="midnightblue" stroke="midnightblue" points="469.85,-172.62 460.26,-177.12 470.56,-179.59 469.85,-172.62"/>
</g>
<!-- Node4 -->
<g id="node4" class="node">
<title>Node4</title>
<g id="a_node4"><a xlink:href="interfacecom_1_1fs_1_1starfarer_1_1api_1_1campaign_1_1comm_1_1IntelInfoPlugin.html" target="_top" xlink:title=" ">
<polygon fill="none" stroke="black" points="31.5,-245.5 31.5,-275.5 206.5,-275.5 206.5,-245.5 31.5,-245.5"/>
<text text-anchor="start" x="39.5" y="-263.5" font-family="Helvetica,sans-Serif" font-size="10.00">com.fs.starfarer.api.campaign.comm.</text>
<text text-anchor="middle" x="119" y="-252.5" font-family="Helvetica,sans-Serif" font-size="10.00">IntelInfoPlugin</text>
</a>
</g>
</g>
<!-- Node4&#45;&gt;Node3 -->
<g id="edge3" class="edge">
<title>Node4&#45;&gt;Node3</title>
<path fill="none" stroke="midnightblue" d="M213.2,-243.11C221.63,-241.06 230,-238.86 238,-236.5 270.61,-226.89 306.58,-212.49 332.06,-201.6"/>
<polygon fill="midnightblue" stroke="midnightblue" points="212.22,-239.74 203.29,-245.43 213.82,-246.55 212.22,-239.74"/>
</g>
<!-- Node5 -->
<g id="node5" class="node">
<title>Node5</title>
<g id="a_node5"><a xlink:href="interfacecom_1_1fs_1_1starfarer_1_1api_1_1impl_1_1campaign_1_1rulecmd_1_1CallEvent_1_1CallableEvent.html" target="_top" xlink:title=" ">
<polygon fill="none" stroke="black" points="17.5,-196.5 17.5,-226.5 220.5,-226.5 220.5,-196.5 17.5,-196.5"/>
<text text-anchor="start" x="25.5" y="-214.5" font-family="Helvetica,sans-Serif" font-size="10.00">com.fs.starfarer.api.impl.campaign.rulecmd.</text>
<text text-anchor="middle" x="119" y="-203.5" font-family="Helvetica,sans-Serif" font-size="10.00">CallEvent.CallableEvent</text>
</a>
</g>
</g>
<!-- Node5&#45;&gt;Node3 -->
<g id="edge4" class="edge">
<title>Node5&#45;&gt;Node3</title>
<path fill="none" stroke="midnightblue" d="M231.09,-200.21C245.33,-198.76 259.79,-197.29 273.69,-195.88"/>
<polygon fill="midnightblue" stroke="midnightblue" points="230.36,-196.77 220.77,-201.26 231.07,-203.73 230.36,-196.77"/>
</g>
<!-- Node6 -->
<g id="node6" class="node">
<title>Node6</title>
<g id="a_node6"><a xlink:href="interfacecom_1_1fs_1_1starfarer_1_1api_1_1EveryFrameScript.html" target="_top" xlink:title=" ">
<polygon fill="none" stroke="black" points="56.5,-147.5 56.5,-177.5 181.5,-177.5 181.5,-147.5 56.5,-147.5"/>
<text text-anchor="start" x="64.5" y="-165.5" font-family="Helvetica,sans-Serif" font-size="10.00">com.fs.starfarer.api.Every</text>
<text text-anchor="middle" x="119" y="-154.5" font-family="Helvetica,sans-Serif" font-size="10.00">FrameScript</text>
</a>
</g>
</g>
<!-- Node6&#45;&gt;Node3 -->
<g id="edge5" class="edge">
<title>Node6&#45;&gt;Node3</title>
<path fill="none" stroke="midnightblue" d="M191.78,-169.5C217.48,-172.01 246.8,-174.87 273.96,-177.52"/>
<polygon fill="midnightblue" stroke="midnightblue" points="192.05,-166.01 181.76,-168.53 191.37,-172.98 192.05,-166.01"/>
</g>
<!-- Node7 -->
<g id="node7" class="node">
<title>Node7</title>
<g id="a_node7"><a xlink:href="interfacecom_1_1fs_1_1starfarer_1_1api_1_1impl_1_1campaign_1_1CommRelayEntityPlugin_1_1CommSnifferReadableIntel.html" target="_top" xlink:title=" ">
<polygon fill="none" stroke="black" points="0,-98.5 0,-128.5 238,-128.5 238,-98.5 0,-98.5"/>
<text text-anchor="start" x="8" y="-116.5" font-family="Helvetica,sans-Serif" font-size="10.00">com.fs.starfarer.api.impl.campaign.</text>
<text text-anchor="middle" x="119" y="-105.5" font-family="Helvetica,sans-Serif" font-size="10.00">CommRelayEntityPlugin.CommSnifferReadableIntel</text>
</a>
</g>
</g>
<!-- Node7&#45;&gt;Node3 -->
<g id="edge6" class="edge">
<title>Node7&#45;&gt;Node3</title>
<path fill="none" stroke="midnightblue" d="M218.8,-131.47C225.38,-133.57 231.84,-135.91 238,-138.5 255.72,-145.96 256.45,-154.63 274,-162.5 281.53,-165.88 289.63,-168.85 297.79,-171.45"/>
<polygon fill="midnightblue" stroke="midnightblue" points="219.66,-128.08 209.08,-128.56 217.65,-134.78 219.66,-128.08"/>
</g>
<!-- Node8 -->
<g id="node8" class="node">
<title>Node8</title>
<g id="a_node8"><a xlink:href="interfacecom_1_1fs_1_1starfarer_1_1api_1_1campaign_1_1listeners_1_1EconomyTickListener.html" target="_top" xlink:title=" ">
<polygon fill="none" stroke="black" points="274.5,-122.5 274.5,-152.5 459.5,-152.5 459.5,-122.5 274.5,-122.5"/>
<text text-anchor="start" x="282.5" y="-140.5" font-family="Helvetica,sans-Serif" font-size="10.00">com.fs.starfarer.api.campaign.listeners.</text>
<text text-anchor="middle" x="367" y="-129.5" font-family="Helvetica,sans-Serif" font-size="10.00">EconomyTickListener</text>
</a>
</g>
</g>
<!-- Node8&#45;&gt;Node2 -->
<g id="edge7" class="edge">
<title>Node8&#45;&gt;Node2</title>
<path fill="none" stroke="midnightblue" d="M469.72,-148.28C478.41,-149.2 487.22,-150.13 495.96,-151.05"/>
<polygon fill="midnightblue" stroke="midnightblue" points="469.89,-144.77 459.58,-147.2 469.16,-151.74 469.89,-144.77"/>
</g>
<!-- Node9 -->
<g id="node9" class="node">
<title>Node9</title>
<g id="a_node9"><a xlink:href="interfacecom_1_1fs_1_1starfarer_1_1api_1_1campaign_1_1listeners_1_1FleetEventListener.html" target="_top" xlink:title=" ">
<polygon fill="none" stroke="black" points="512.5,-98.5 512.5,-128.5 697.5,-128.5 697.5,-98.5 512.5,-98.5"/>
<text text-anchor="start" x="520.5" y="-116.5" font-family="Helvetica,sans-Serif" font-size="10.00">com.fs.starfarer.api.campaign.listeners.</text>
<text text-anchor="middle" x="605" y="-105.5" font-family="Helvetica,sans-Serif" font-size="10.00">FleetEventListener</text>
</a>
</g>
</g>
<!-- Node9&#45;&gt;Node1 -->
<g id="edge8" class="edge">
<title>Node9&#45;&gt;Node1</title>
<path fill="none" stroke="midnightblue" d="M707.67,-103.61C721.5,-102.27 735.75,-100.88 749.76,-99.52"/>
<polygon fill="midnightblue" stroke="midnightblue" points="707.31,-100.13 697.69,-104.58 707.99,-107.1 707.31,-100.13"/>
</g>
<!-- Node10 -->
<g id="node10" class="node">
<title>Node10</title>
<g id="a_node10"><a xlink:href="interfacecom_1_1fs_1_1starfarer_1_1api_1_1campaign_1_1listeners_1_1CharacterStatsRefreshListener.html" target="_top" xlink:title=" ">
<polygon fill="none" stroke="black" points="512.5,-49.5 512.5,-79.5 697.5,-79.5 697.5,-49.5 512.5,-49.5"/>
<text text-anchor="start" x="520.5" y="-67.5" font-family="Helvetica,sans-Serif" font-size="10.00">com.fs.starfarer.api.campaign.listeners.</text>
<text text-anchor="middle" x="605" y="-56.5" font-family="Helvetica,sans-Serif" font-size="10.00">CharacterStatsRefreshListener</text>
</a>
</g>
</g>
<!-- Node10&#45;&gt;Node1 -->
<g id="edge9" class="edge">
<title>Node10&#45;&gt;Node1</title>
<path fill="none" stroke="midnightblue" d="M707.67,-73.99C721.5,-75.29 735.75,-76.62 749.76,-77.93"/>
<polygon fill="midnightblue" stroke="midnightblue" points="707.98,-70.51 697.69,-73.06 707.33,-77.48 707.98,-70.51"/>
</g>
<!-- Node11 -->
<g id="node11" class="node">
<title>Node11</title>
<g id="a_node11"><a xlink:href="interfacecom_1_1fs_1_1starfarer_1_1api_1_1campaign_1_1listeners_1_1CurrentLocationChangedListener.html" target="_top" xlink:title=" ">
<polygon fill="none" stroke="black" points="512.5,-0.5 512.5,-30.5 697.5,-30.5 697.5,-0.5 512.5,-0.5"/>
<text text-anchor="start" x="520.5" y="-18.5" font-family="Helvetica,sans-Serif" font-size="10.00">com.fs.starfarer.api.campaign.listeners.</text>
<text text-anchor="middle" x="605" y="-7.5" font-family="Helvetica,sans-Serif" font-size="10.00">CurrentLocationChangedListener</text>
</a>
</g>
</g>
<!-- Node11&#45;&gt;Node1 -->
<g id="edge10" class="edge">
<title>Node11&#45;&gt;Node1</title>
<path fill="none" stroke="midnightblue" d="M688.15,-32.86C696.91,-34.98 705.66,-37.21 714,-39.5 750.5,-49.53 791.29,-63.11 820.95,-73.44"/>
<polygon fill="midnightblue" stroke="midnightblue" points="688.82,-29.42 678.28,-30.52 687.2,-36.23 688.82,-29.42"/>
</g>
</g>
</svg>
