<?xml version="1.0" encoding="UTF-8" standalone="no"?>
<!DOCTYPE svg PUBLIC "-//W3C//DTD SVG 1.1//EN"
 "http://www.w3.org/Graphics/SVG/1.1/DTD/svg11.dtd">
<!-- Generated by graphviz version 12.2.0 (20241103.1931)
 -->
<!-- Title: com.fs.starfarer.api.impl.campaign.intel.events.LuddicChurchStandardActivityCause Pages: 1 -->
<svg width="2008pt" height="470pt"
 viewBox="0.00 0.00 2007.50 469.50" xmlns="http://www.w3.org/2000/svg" xmlns:xlink="http://www.w3.org/1999/xlink">
<g id="graph0" class="graph" transform="scale(1 1) rotate(0) translate(4 465.5)">
<title>com.fs.starfarer.api.impl.campaign.intel.events.LuddicChurchStandardActivityCause</title>
<!-- Node1 -->
<g id="Node000001" class="node">
<title>Node1</title>
<g id="a_Node000001"><a xlink:title=" ">
<polygon fill="#999999" stroke="#666666" points="1999.5,-153.5 1782.5,-153.5 1782.5,-123 1999.5,-123 1999.5,-153.5"/>
<text text-anchor="start" x="1790.5" y="-140" font-family="Helvetica,sans-Serif" font-size="10.00">com.fs.starfarer.api.impl.campaign.intel.events.</text>
<text text-anchor="middle" x="1891" y="-128.75" font-family="Helvetica,sans-Serif" font-size="10.00">LuddicChurchStandardActivityCause</text>
</a>
</g>
</g>
<!-- Node2 -->
<g id="Node000002" class="node">
<title>Node2</title>
<g id="a_Node000002"><a xlink:href="classcom_1_1fs_1_1starfarer_1_1api_1_1impl_1_1campaign_1_1intel_1_1events_1_1BaseHostileActivityCause2.html" target="_top" xlink:title=" ">
<polygon fill="white" stroke="#666666" points="1745.5,-153.5 1528.5,-153.5 1528.5,-123 1745.5,-123 1745.5,-153.5"/>
<text text-anchor="start" x="1536.5" y="-140" font-family="Helvetica,sans-Serif" font-size="10.00">com.fs.starfarer.api.impl.campaign.intel.events.</text>
<text text-anchor="middle" x="1637" y="-128.75" font-family="Helvetica,sans-Serif" font-size="10.00">BaseHostileActivityCause2</text>
</a>
</g>
</g>
<!-- Node2&#45;&gt;Node1 -->
<g id="edge1_Node000001_Node000002" class="edge">
<title>Node2&#45;&gt;Node1</title>
<g id="a_edge1_Node000001_Node000002"><a xlink:title=" ">
<path fill="none" stroke="#63b8ff" d="M1757.29,-138.25C1765.62,-138.25 1773.99,-138.25 1782.26,-138.25"/>
<polygon fill="#63b8ff" stroke="#63b8ff" points="1757.48,-134.75 1747.48,-138.25 1757.48,-141.75 1757.48,-134.75"/>
</a>
</g>
</g>
<!-- Node3 -->
<g id="Node000003" class="node">
<title>Node3</title>
<g id="a_Node000003"><a xlink:href="interfacecom_1_1fs_1_1starfarer_1_1api_1_1impl_1_1campaign_1_1intel_1_1events_1_1HostileActivityCause2.html" target="_top" xlink:title=" ">
<polygon fill="white" stroke="#666666" points="1472.25,-177.5 1255.25,-177.5 1255.25,-147 1472.25,-147 1472.25,-177.5"/>
<text text-anchor="start" x="1263.25" y="-164" font-family="Helvetica,sans-Serif" font-size="10.00">com.fs.starfarer.api.impl.campaign.intel.events.</text>
<text text-anchor="middle" x="1363.75" y="-152.75" font-family="Helvetica,sans-Serif" font-size="10.00">HostileActivityCause2</text>
</a>
</g>
</g>
<!-- Node3&#45;&gt;Node2 -->
<g id="edge2_Node000002_Node000003" class="edge">
<title>Node3&#45;&gt;Node2</title>
<g id="a_edge2_Node000002_Node000003"><a xlink:title=" ">
<path fill="none" stroke="#63b8ff" d="M1483.97,-151.7C1498.75,-150.39 1513.8,-149.06 1528.39,-147.77"/>
<polygon fill="#63b8ff" stroke="#63b8ff" points="1483.89,-148.19 1474.24,-152.56 1484.51,-155.17 1483.89,-148.19"/>
</a>
</g>
</g>
<!-- Node4 -->
<g id="Node000004" class="node">
<title>Node4</title>
<g id="a_Node000004"><a xlink:href="classcom_1_1fs_1_1starfarer_1_1api_1_1impl_1_1campaign_1_1intel_1_1events_1_1HostileActivityEventIntel.html" target="_top" xlink:title=" ">
<polygon fill="white" stroke="#666666" points="1472.25,-128.5 1255.25,-128.5 1255.25,-98 1472.25,-98 1472.25,-128.5"/>
<text text-anchor="start" x="1263.25" y="-115" font-family="Helvetica,sans-Serif" font-size="10.00">com.fs.starfarer.api.impl.campaign.intel.events.</text>
<text text-anchor="middle" x="1363.75" y="-103.75" font-family="Helvetica,sans-Serif" font-size="10.00">HostileActivityEventIntel</text>
</a>
</g>
</g>
<!-- Node4&#45;&gt;Node2 -->
<g id="edge3_Node000002_Node000004" class="edge">
<title>Node4&#45;&gt;Node2</title>
<g id="a_edge3_Node000002_Node000004"><a xlink:title=" ">
<path fill="none" stroke="#9a32cd" stroke-dasharray="5,2" d="M1483.97,-124.24C1498.75,-125.6 1513.8,-126.99 1528.39,-128.33"/>
<polygon fill="#9a32cd" stroke="#9a32cd" points="1484.52,-120.77 1474.24,-123.34 1483.88,-127.74 1484.52,-120.77"/>
</a>
</g>
<text text-anchor="middle" x="1500.38" y="-128.25" font-family="Helvetica,sans-Serif" font-size="10.00" fill="grey"> intel</text>
</g>
<!-- Node5 -->
<g id="Node000005" class="node">
<title>Node5</title>
<g id="a_Node000005"><a xlink:href="classcom_1_1fs_1_1starfarer_1_1api_1_1impl_1_1campaign_1_1intel_1_1events_1_1BaseEventIntel.html" target="_top" xlink:title=" ">
<polygon fill="white" stroke="#666666" points="1130,-226.5 913,-226.5 913,-196 1130,-196 1130,-226.5"/>
<text text-anchor="start" x="921" y="-213" font-family="Helvetica,sans-Serif" font-size="10.00">com.fs.starfarer.api.impl.campaign.intel.events.</text>
<text text-anchor="middle" x="1021.5" y="-201.75" font-family="Helvetica,sans-Serif" font-size="10.00">BaseEventIntel</text>
</a>
</g>
</g>
<!-- Node5&#45;&gt;Node4 -->
<g id="edge4_Node000004_Node000005" class="edge">
<title>Node5&#45;&gt;Node4</title>
<g id="a_edge4_Node000004_Node000005"><a xlink:title=" ">
<path fill="none" stroke="#63b8ff" d="M1104.46,-192.89C1113.11,-190.75 1121.75,-188.51 1130,-186.25 1178.22,-173.02 1192.99,-175.52 1237.25,-152.25 1246.22,-147.53 1246.1,-142.61 1255.25,-138.25 1262.77,-134.66 1270.85,-131.57 1279.06,-128.92"/>
<polygon fill="#63b8ff" stroke="#63b8ff" points="1103.89,-189.43 1095,-195.2 1105.55,-196.23 1103.89,-189.43"/>
</a>
</g>
</g>
<!-- Node6 -->
<g id="Node000006" class="node">
<title>Node6</title>
<g id="a_Node000006"><a xlink:href="classcom_1_1fs_1_1starfarer_1_1api_1_1impl_1_1campaign_1_1intel_1_1BaseIntelPlugin.html" target="_top" xlink:title=" ">
<polygon fill="white" stroke="#666666" points="763.38,-339.5 577.88,-339.5 577.88,-309 763.38,-309 763.38,-339.5"/>
<text text-anchor="start" x="585.88" y="-326" font-family="Helvetica,sans-Serif" font-size="10.00">com.fs.starfarer.api.impl.campaign.intel.</text>
<text text-anchor="middle" x="670.62" y="-314.75" font-family="Helvetica,sans-Serif" font-size="10.00">BaseIntelPlugin</text>
</a>
</g>
</g>
<!-- Node6&#45;&gt;Node5 -->
<g id="edge5_Node000005_Node000006" class="edge">
<title>Node6&#45;&gt;Node5</title>
<g id="a_edge5_Node000005_Node000006"><a xlink:title=" ">
<path fill="none" stroke="#63b8ff" d="M766.14,-305.97C774.76,-303.88 783.32,-301.63 791.5,-299.25 861.84,-278.8 941.04,-246.1 985.43,-226.85"/>
<polygon fill="#63b8ff" stroke="#63b8ff" points="765.63,-302.5 756.7,-308.2 767.23,-309.31 765.63,-302.5"/>
</a>
</g>
</g>
<!-- Node7 -->
<g id="Node000007" class="node">
<title>Node7</title>
<g id="a_Node000007"><a xlink:href="interfacecom_1_1fs_1_1starfarer_1_1api_1_1campaign_1_1comm_1_1IntelInfoPlugin.html" target="_top" xlink:title=" ">
<polygon fill="white" stroke="#666666" points="411,-461.5 236.75,-461.5 236.75,-431 411,-431 411,-461.5"/>
<text text-anchor="start" x="244.75" y="-448" font-family="Helvetica,sans-Serif" font-size="10.00">com.fs.starfarer.api.campaign.comm.</text>
<text text-anchor="middle" x="323.88" y="-436.75" font-family="Helvetica,sans-Serif" font-size="10.00">IntelInfoPlugin</text>
</a>
</g>
</g>
<!-- Node7&#45;&gt;Node6 -->
<g id="edge6_Node000006_Node000007" class="edge">
<title>Node7&#45;&gt;Node6</title>
<g id="a_edge6_Node000006_Node000007"><a xlink:title=" ">
<path fill="none" stroke="#63b8ff" d="M419.64,-427.79C427.42,-425.77 435.13,-423.58 442.5,-421.25 514.65,-398.41 595.27,-360.96 638.39,-339.9"/>
<polygon fill="#63b8ff" stroke="#63b8ff" points="418.94,-424.36 410.08,-430.18 420.63,-431.15 418.94,-424.36"/>
</a>
</g>
</g>
<!-- Node8 -->
<g id="Node000008" class="node">
<title>Node8</title>
<g id="a_Node000008"><a xlink:title=" ">
<polygon fill="white" stroke="#666666" points="424.88,-412.5 222.88,-412.5 222.88,-382 424.88,-382 424.88,-412.5"/>
<text text-anchor="start" x="230.88" y="-399" font-family="Helvetica,sans-Serif" font-size="10.00">com.fs.starfarer.api.impl.campaign.rulecmd.</text>
<text text-anchor="middle" x="323.88" y="-387.75" font-family="Helvetica,sans-Serif" font-size="10.00">CallEvent.CallableEvent</text>
</a>
</g>
</g>
<!-- Node8&#45;&gt;Node6 -->
<g id="edge7_Node000006_Node000008" class="edge">
<title>Node8&#45;&gt;Node6</title>
<g id="a_edge7_Node000006_Node000008"><a xlink:title=" ">
<path fill="none" stroke="#63b8ff" d="M409.97,-379.23C466.87,-367.18 541.01,-351.48 595.49,-339.95"/>
<polygon fill="#63b8ff" stroke="#63b8ff" points="409.37,-375.78 400.31,-381.28 410.82,-382.63 409.37,-375.78"/>
</a>
</g>
</g>
<!-- Node9 -->
<g id="Node000009" class="node">
<title>Node9</title>
<g id="a_Node000009"><a xlink:href="interfacecom_1_1fs_1_1starfarer_1_1api_1_1EveryFrameScript.html" target="_top" xlink:title=" ">
<polygon fill="white" stroke="#666666" points="386.25,-363.5 261.5,-363.5 261.5,-333 386.25,-333 386.25,-363.5"/>
<text text-anchor="start" x="269.5" y="-350" font-family="Helvetica,sans-Serif" font-size="10.00">com.fs.starfarer.api.Every</text>
<text text-anchor="middle" x="323.88" y="-338.75" font-family="Helvetica,sans-Serif" font-size="10.00">FrameScript</text>
</a>
</g>
</g>
<!-- Node9&#45;&gt;Node6 -->
<g id="edge8_Node000006_Node000009" class="edge">
<title>Node9&#45;&gt;Node6</title>
<g id="a_edge8_Node000006_Node000009"><a xlink:title=" ">
<path fill="none" stroke="#63b8ff" d="M397.74,-343.18C450.19,-339.53 521.35,-334.57 577.7,-330.65"/>
<polygon fill="#63b8ff" stroke="#63b8ff" points="397.75,-339.67 388.02,-343.85 398.24,-346.65 397.75,-339.67"/>
</a>
</g>
</g>
<!-- Node10 -->
<g id="Node000010" class="node">
<title>Node10</title>
<g id="a_Node000010"><a xlink:title=" ">
<polygon fill="white" stroke="#666666" points="442.5,-314.5 205.25,-314.5 205.25,-284 442.5,-284 442.5,-314.5"/>
<text text-anchor="start" x="213.25" y="-301" font-family="Helvetica,sans-Serif" font-size="10.00">com.fs.starfarer.api.impl.campaign.</text>
<text text-anchor="middle" x="323.88" y="-289.75" font-family="Helvetica,sans-Serif" font-size="10.00">CommRelayEntityPlugin.CommSnifferReadableIntel</text>
</a>
</g>
</g>
<!-- Node10&#45;&gt;Node6 -->
<g id="edge9_Node000006_Node000010" class="edge">
<title>Node10&#45;&gt;Node6</title>
<g id="a_edge9_Node000006_Node000010"><a xlink:title=" ">
<path fill="none" stroke="#63b8ff" d="M454.03,-308.62C495.07,-311.59 539.61,-314.82 577.49,-317.57"/>
<polygon fill="#63b8ff" stroke="#63b8ff" points="454.29,-305.13 444.06,-307.89 453.78,-312.11 454.29,-305.13"/>
</a>
</g>
</g>
<!-- Node11 -->
<g id="Node000011" class="node">
<title>Node11</title>
<g id="a_Node000011"><a xlink:href="interfacecom_1_1fs_1_1starfarer_1_1api_1_1campaign_1_1SectorEntityToken.html" target="_top" xlink:title=" ">
<polygon fill="white" stroke="#666666" points="396.38,-265.5 251.38,-265.5 251.38,-235 396.38,-235 396.38,-265.5"/>
<text text-anchor="start" x="259.38" y="-252" font-family="Helvetica,sans-Serif" font-size="10.00">com.fs.starfarer.api.campaign.</text>
<text text-anchor="middle" x="323.88" y="-240.75" font-family="Helvetica,sans-Serif" font-size="10.00">SectorEntityToken</text>
</a>
</g>
</g>
<!-- Node11&#45;&gt;Node6 -->
<g id="edge10_Node000006_Node000011" class="edge">
<title>Node11&#45;&gt;Node6</title>
<g id="a_edge10_Node000006_Node000011"><a xlink:title=" ">
<path fill="none" stroke="#9a32cd" stroke-dasharray="5,2" d="M407.53,-266.24C445.52,-273.97 491.08,-283.78 531.75,-294 539.83,-296.03 541.66,-297.23 549.75,-299.25 562.64,-302.47 576.38,-305.61 589.79,-308.51"/>
<polygon fill="#9a32cd" stroke="#9a32cd" points="408.49,-262.87 397.99,-264.32 407.1,-269.73 408.49,-262.87"/>
</a>
</g>
<text text-anchor="middle" x="496.12" y="-295.75" font-family="Helvetica,sans-Serif" font-size="10.00" fill="grey"> postingLocation</text>
</g>
<!-- Node12 -->
<g id="Node000012" class="node">
<title>Node12</title>
<g id="a_Node000012"><a xlink:href="interfacecom_1_1fs_1_1starfarer_1_1api_1_1campaign_1_1rules_1_1HasMemory.html" target="_top" xlink:title=" ">
<polygon fill="white" stroke="#666666" points="168.25,-265.5 0,-265.5 0,-235 168.25,-235 168.25,-265.5"/>
<text text-anchor="start" x="8" y="-252" font-family="Helvetica,sans-Serif" font-size="10.00">com.fs.starfarer.api.campaign.rules.</text>
<text text-anchor="middle" x="84.12" y="-240.75" font-family="Helvetica,sans-Serif" font-size="10.00">HasMemory</text>
</a>
</g>
</g>
<!-- Node12&#45;&gt;Node11 -->
<g id="edge11_Node000011_Node000012" class="edge">
<title>Node12&#45;&gt;Node11</title>
<g id="a_edge11_Node000011_Node000012"><a xlink:title=" ">
<path fill="none" stroke="#63b8ff" d="M180.1,-250.25C203.75,-250.25 228.71,-250.25 251.04,-250.25"/>
<polygon fill="#63b8ff" stroke="#63b8ff" points="180.13,-246.75 170.13,-250.25 180.13,-253.75 180.13,-246.75"/>
</a>
</g>
</g>
<!-- Node13 -->
<g id="Node000013" class="node">
<title>Node13</title>
<g id="a_Node000013"><a xlink:title=" ">
<polygon fill="white" stroke="#666666" points="360.38,-216.88 287.38,-216.88 287.38,-197.62 360.38,-197.62 360.38,-216.88"/>
<text text-anchor="middle" x="323.88" y="-203.38" font-family="Helvetica,sans-Serif" font-size="10.00">Set&lt; String &gt;</text>
</a>
</g>
</g>
<!-- Node13&#45;&gt;Node6 -->
<g id="edge12_Node000006_Node000013" class="edge">
<title>Node13&#45;&gt;Node6</title>
<g id="a_edge12_Node000006_Node000013"><a xlink:title=" ">
<path fill="none" stroke="#9a32cd" stroke-dasharray="5,2" d="M372.1,-212.35C393.8,-215.33 419.72,-219.81 442.5,-226.25 483.78,-237.91 500.37,-233.75 531.75,-263 544.91,-275.26 535.51,-288.25 549.75,-299.25 557.99,-305.62 567.47,-310.46 577.41,-314.14"/>
<polygon fill="#9a32cd" stroke="#9a32cd" points="372.73,-208.9 362.36,-211.08 371.82,-215.84 372.73,-208.9"/>
</a>
</g>
<text text-anchor="middle" x="496.12" y="-264.75" font-family="Helvetica,sans-Serif" font-size="10.00" fill="grey"> tagsForSort</text>
</g>
<!-- Node14 -->
<g id="Node000014" class="node">
<title>Node14</title>
<g id="a_Node000014"><a xlink:href="interfacecom_1_1fs_1_1starfarer_1_1api_1_1campaign_1_1listeners_1_1EconomyTickListener.html" target="_top" xlink:title=" ">
<polygon fill="white" stroke="#666666" points="762.62,-290.5 578.62,-290.5 578.62,-260 762.62,-260 762.62,-290.5"/>
<text text-anchor="start" x="586.62" y="-277" font-family="Helvetica,sans-Serif" font-size="10.00">com.fs.starfarer.api.campaign.listeners.</text>
<text text-anchor="middle" x="670.62" y="-265.75" font-family="Helvetica,sans-Serif" font-size="10.00">EconomyTickListener</text>
</a>
</g>
</g>
<!-- Node14&#45;&gt;Node5 -->
<g id="edge13_Node000005_Node000014" class="edge">
<title>Node14&#45;&gt;Node5</title>
<g id="a_edge13_Node000005_Node000014"><a xlink:title=" ">
<path fill="none" stroke="#63b8ff" d="M773.97,-260.07C812.06,-254.08 855.59,-246.82 895,-239.25 914.07,-235.59 934.68,-231.18 953.57,-226.96"/>
<polygon fill="#63b8ff" stroke="#63b8ff" points="773.7,-256.57 764.36,-261.57 774.78,-263.49 773.7,-256.57"/>
</a>
</g>
</g>
<!-- Node15 -->
<g id="Node000015" class="node">
<title>Node15</title>
<g id="a_Node000015"><a xlink:title=" ">
<polygon fill="white" stroke="#666666" points="730.38,-241.88 610.88,-241.88 610.88,-222.62 730.38,-222.62 730.38,-241.88"/>
<text text-anchor="middle" x="670.62" y="-228.38" font-family="Helvetica,sans-Serif" font-size="10.00">List&lt; EventStageData &gt;</text>
</a>
</g>
</g>
<!-- Node15&#45;&gt;Node5 -->
<g id="edge14_Node000005_Node000015" class="edge">
<title>Node15&#45;&gt;Node5</title>
<g id="a_edge14_Node000005_Node000015"><a xlink:title=" ">
<path fill="none" stroke="#9a32cd" stroke-dasharray="5,2" d="M742.23,-228C791.13,-225.06 857.16,-221.08 912.63,-217.74"/>
<polygon fill="#9a32cd" stroke="#9a32cd" points="742.09,-224.5 732.32,-228.6 742.51,-231.49 742.09,-224.5"/>
</a>
</g>
<text text-anchor="middle" x="852.25" y="-225.38" font-family="Helvetica,sans-Serif" font-size="10.00" fill="grey"> stages</text>
</g>
<!-- Node16 -->
<g id="Node000016" class="node">
<title>Node16</title>
<g id="a_Node000016"><a xlink:title=" ">
<polygon fill="white" stroke="#666666" points="791.5,-204.5 549.75,-204.5 549.75,-174 791.5,-174 791.5,-204.5"/>
<text text-anchor="start" x="557.75" y="-191" font-family="Helvetica,sans-Serif" font-size="10.00">List&lt; com.fs.starfarer.api.impl.campaign.intel.events.</text>
<text text-anchor="middle" x="670.62" y="-179.75" font-family="Helvetica,sans-Serif" font-size="10.00">EventFactor &gt;</text>
</a>
</g>
</g>
<!-- Node16&#45;&gt;Node5 -->
<g id="edge15_Node000005_Node000016" class="edge">
<title>Node16&#45;&gt;Node5</title>
<g id="a_edge15_Node000005_Node000016"><a xlink:title=" ">
<path fill="none" stroke="#9a32cd" stroke-dasharray="5,2" d="M802.85,-197.52C839.11,-199.81 878.02,-202.27 912.78,-204.46"/>
<polygon fill="#9a32cd" stroke="#9a32cd" points="803.4,-194.05 793.2,-196.92 802.96,-201.04 803.4,-194.05"/>
</a>
</g>
<text text-anchor="middle" x="852.25" y="-204.62" font-family="Helvetica,sans-Serif" font-size="10.00" fill="grey"> factors</text>
</g>
<!-- Node17 -->
<g id="Node000017" class="node">
<title>Node17</title>
<g id="a_Node000017"><a xlink:title=" ">
<polygon fill="white" stroke="#666666" points="696.62,-155.88 644.62,-155.88 644.62,-136.62 696.62,-136.62 696.62,-155.88"/>
<text text-anchor="middle" x="670.62" y="-142.38" font-family="Helvetica,sans-Serif" font-size="10.00">Random</text>
</a>
</g>
</g>
<!-- Node17&#45;&gt;Node5 -->
<g id="edge16_Node000005_Node000017" class="edge">
<title>Node17&#45;&gt;Node5</title>
<g id="a_edge16_Node000005_Node000017"><a xlink:title=" ">
<path fill="none" stroke="#9a32cd" stroke-dasharray="5,2" d="M708.21,-151.93C731.96,-155.64 763.58,-160.64 791.5,-165.25 837.55,-172.85 849.22,-173.93 895,-183 914.06,-186.78 934.66,-191.25 953.55,-195.51"/>
<polygon fill="#9a32cd" stroke="#9a32cd" points="708.81,-148.48 698.39,-150.39 707.73,-155.39 708.81,-148.48"/>
</a>
</g>
<text text-anchor="middle" x="852.25" y="-184.75" font-family="Helvetica,sans-Serif" font-size="10.00" fill="grey"> random</text>
</g>
<!-- Node18 -->
<g id="Node000018" class="node">
<title>Node18</title>
<g id="a_Node000018"><a xlink:href="interfacecom_1_1fs_1_1starfarer_1_1api_1_1campaign_1_1InteractionDialogAPI.html" target="_top" xlink:title=" ">
<polygon fill="white" stroke="#666666" points="743.12,-118.5 598.12,-118.5 598.12,-88 743.12,-88 743.12,-118.5"/>
<text text-anchor="start" x="606.12" y="-105" font-family="Helvetica,sans-Serif" font-size="10.00">com.fs.starfarer.api.campaign.</text>
<text text-anchor="middle" x="670.62" y="-93.75" font-family="Helvetica,sans-Serif" font-size="10.00">InteractionDialogAPI</text>
</a>
</g>
</g>
<!-- Node18&#45;&gt;Node5 -->
<g id="edge17_Node000005_Node000018" class="edge">
<title>Node18&#45;&gt;Node5</title>
<g id="a_edge17_Node000005_Node000018"><a xlink:title=" ">
<path fill="none" stroke="#9a32cd" stroke-dasharray="5,2" d="M754.75,-104.93C800.24,-109.7 855.26,-122.21 895,-153 908.28,-163.29 899.64,-176.06 913,-186.25 917.72,-189.85 922.88,-192.95 928.29,-195.61"/>
<polygon fill="#9a32cd" stroke="#9a32cd" points="755.19,-101.45 744.91,-104.01 754.54,-108.42 755.19,-101.45"/>
</a>
</g>
<text text-anchor="middle" x="852.25" y="-154.75" font-family="Helvetica,sans-Serif" font-size="10.00" fill="grey"> addingFactorDialog</text>
</g>
<!-- Node19 -->
<g id="Node000019" class="node">
<title>Node19</title>
<g id="a_Node000019"><a xlink:title=" ">
<polygon fill="white" stroke="#666666" points="1112,-177.5 931,-177.5 931,-147 1112,-147 1112,-177.5"/>
<text text-anchor="start" x="939" y="-164" font-family="Helvetica,sans-Serif" font-size="10.00">com.fs.starfarer.api.campaign.econ.</text>
<text text-anchor="middle" x="1021.5" y="-152.75" font-family="Helvetica,sans-Serif" font-size="10.00">EconomyAPI.EconomyUpdateListener</text>
</a>
</g>
</g>
<!-- Node19&#45;&gt;Node4 -->
<g id="edge18_Node000004_Node000019" class="edge">
<title>Node19&#45;&gt;Node4</title>
<g id="a_edge18_Node000004_Node000019"><a xlink:title=" ">
<path fill="none" stroke="#63b8ff" d="M1123.54,-147.7C1164.88,-141.75 1212.79,-134.85 1254.82,-128.79"/>
<polygon fill="#63b8ff" stroke="#63b8ff" points="1123.24,-144.21 1113.84,-149.1 1124.24,-151.13 1123.24,-144.21"/>
</a>
</g>
</g>
<!-- Node20 -->
<g id="Node000020" class="node">
<title>Node20</title>
<g id="a_Node000020"><a xlink:href="interfacecom_1_1fs_1_1starfarer_1_1api_1_1campaign_1_1listeners_1_1FleetEventListener.html" target="_top" xlink:title=" ">
<polygon fill="white" stroke="#666666" points="1113.5,-128.5 929.5,-128.5 929.5,-98 1113.5,-98 1113.5,-128.5"/>
<text text-anchor="start" x="937.5" y="-115" font-family="Helvetica,sans-Serif" font-size="10.00">com.fs.starfarer.api.campaign.listeners.</text>
<text text-anchor="middle" x="1021.5" y="-103.75" font-family="Helvetica,sans-Serif" font-size="10.00">FleetEventListener</text>
</a>
</g>
</g>
<!-- Node20&#45;&gt;Node4 -->
<g id="edge19_Node000004_Node000020" class="edge">
<title>Node20&#45;&gt;Node4</title>
<g id="a_edge19_Node000004_Node000020"><a xlink:title=" ">
<path fill="none" stroke="#63b8ff" d="M1125.08,-113.25C1166.13,-113.25 1213.44,-113.25 1254.99,-113.25"/>
<polygon fill="#63b8ff" stroke="#63b8ff" points="1125.19,-109.75 1115.19,-113.25 1125.19,-116.75 1125.19,-109.75"/>
</a>
</g>
</g>
<!-- Node21 -->
<g id="Node000021" class="node">
<title>Node21</title>
<g id="a_Node000021"><a xlink:title=" ">
<polygon fill="white" stroke="#666666" points="1118,-79.5 925,-79.5 925,-49 1118,-49 1118,-79.5"/>
<text text-anchor="start" x="933" y="-66" font-family="Helvetica,sans-Serif" font-size="10.00">Map&lt; String, com.fs.starfarer.api.combat.</text>
<text text-anchor="middle" x="1021.5" y="-54.75" font-family="Helvetica,sans-Serif" font-size="10.00">MutableStatWithTempMods &gt;</text>
</a>
</g>
</g>
<!-- Node21&#45;&gt;Node4 -->
<g id="edge20_Node000004_Node000021" class="edge">
<title>Node21&#45;&gt;Node4</title>
<g id="a_edge20_Node000004_Node000021"><a xlink:title=" ">
<path fill="none" stroke="#9a32cd" stroke-dasharray="5,2" d="M1129.57,-79.67C1169.53,-85.42 1214.89,-91.96 1254.91,-97.72"/>
<polygon fill="#9a32cd" stroke="#9a32cd" points="1130.08,-76.21 1119.68,-78.25 1129.08,-83.14 1130.08,-76.21"/>
</a>
</g>
<text text-anchor="middle" x="1192.62" y="-96.33" font-family="Helvetica,sans-Serif" font-size="10.00" fill="grey"> systemSpawnMults</text>
</g>
<!-- Node22 -->
<g id="Node000022" class="node">
<title>Node22</title>
<g id="a_Node000022"><a xlink:href="interfacecom_1_1fs_1_1starfarer_1_1api_1_1impl_1_1campaign_1_1intel_1_1events_1_1HostileActivityFactor.html" target="_top" xlink:title=" ">
<polygon fill="white" stroke="#666666" points="1130,-30.5 913,-30.5 913,0 1130,0 1130,-30.5"/>
<text text-anchor="start" x="921" y="-17" font-family="Helvetica,sans-Serif" font-size="10.00">com.fs.starfarer.api.impl.campaign.intel.events.</text>
<text text-anchor="middle" x="1021.5" y="-5.75" font-family="Helvetica,sans-Serif" font-size="10.00">HostileActivityFactor</text>
</a>
</g>
</g>
<!-- Node22&#45;&gt;Node4 -->
<g id="edge21_Node000004_Node000022" class="edge">
<title>Node22&#45;&gt;Node4</title>
<g id="a_edge21_Node000004_Node000022"><a xlink:title=" ">
<path fill="none" stroke="#9a32cd" stroke-dasharray="5,2" d="M1102.09,-33.53C1111.51,-35.76 1120.97,-38.03 1130,-40.25 1177.82,-51.99 1190.21,-53.47 1237.25,-68 1265.91,-76.85 1297.69,-88.33 1322.1,-97.51"/>
<polygon fill="#9a32cd" stroke="#9a32cd" points="1103.1,-30.17 1092.56,-31.28 1101.49,-36.98 1103.1,-30.17"/>
</a>
</g>
<text text-anchor="middle" x="1192.62" y="-69.75" font-family="Helvetica,sans-Serif" font-size="10.00" fill="grey"> prevMajorEventPick</text>
</g>
</g>
</svg>
