<?xml version="1.0" encoding="UTF-8" standalone="no"?>
<!DOCTYPE svg PUBLIC "-//W3C//DTD SVG 1.1//EN"
 "http://www.w3.org/Graphics/SVG/1.1/DTD/svg11.dtd">
<!-- Generated by graphviz version 12.2.0 (20241103.1931)
 -->
<!-- Title: com.fs.starfarer.api.impl.campaign.intel.misc.FleetLogIntel Pages: 1 -->
<!--zoomable 431 -->

<svg id="main" version="1.1" xmlns="http://www.w3.org/2000/svg" xmlns:xlink="http://www.w3.org/1999/xlink" xml:space="preserve" onload="init(evt)">

<style type="text/css"><![CDATA[
.node, .edge {opacity: 0.7;}
.node.selected, .edge.selected {opacity: 1;}
.edge:hover path { stroke: red; }
.edge:hover polygon { stroke: red; fill: red; }
]]></style>

<defs>
  <circle id="rim" cx="0" cy="0" r="7"/>
  <circle id="rim2" cx="0" cy="0" r="3.5"/>
  <g id="zoomPlus">
    <use xlink:href="#rim" fill="#404040"><set attributeName="fill" to="#808080" begin="zoomplus.mouseover" end="zoomplus.mouseout"/></use>
    <path d="M-4,0h8M0,-4v8" fill="none" stroke="white" stroke-width="1.5" pointer-events="none"/>
  </g>
  <g id="zoomMin">
    <use xlink:href="#rim" fill="#404040"><set attributeName="fill" to="#808080" begin="zoomminus.mouseover" end="zoomminus.mouseout"/></use>
    <path d="M-4,0h8" fill="none" stroke="white" stroke-width="1.5" pointer-events="none"/>
  </g>
  <g id="arrowUp" transform="translate(30 24)">
    <use xlink:href="#rim"/>
    <path pointer-events="none" fill="none" stroke="white" stroke-width="1.5" d="M0,-3.0v7 M-2.5,-0.5L0,-3.0L2.5,-0.5"/>
  </g>
  <g id="arrowRight" transform="rotate(90) translate(36 -43)">
    <use xlink:href="#rim"/>
    <path pointer-events="none" fill="none" stroke="white" stroke-width="1.5" d="M0,-3.0v7 M-2.5,-0.5L0,-3.0L2.5,-0.5"/>
  </g>
  <g id="arrowDown" transform="rotate(180) translate(-30 -48)">
    <use xlink:href="#rim"/>
    <path pointer-events="none" fill="none" stroke="white" stroke-width="1.5" d="M0,-3.0v7 M-2.5,-0.5L0,-3.0L2.5,-0.5"/>
  </g>
  <g id="arrowLeft" transform="rotate(270) translate(-36 17)">
    <use xlink:href="#rim"/>
    <path pointer-events="none" fill="none" stroke="white" stroke-width="1.5" d="M0,-3.0v7 M-2.5,-0.5L0,-3.0L2.5,-0.5"/>
  </g>
  <g id="resetDef">
    <use xlink:href="#rim2" fill="#404040"><set attributeName="fill" to="#808080" begin="reset.mouseover" end="reset.mouseout"/></use>
  </g>
</defs>
<script type="application/ecmascript">
var viewWidth = 1201;
var viewHeight = 431;
var sectionId = 'dynsection-0';
</script>
<script type="application/ecmascript" xlink:href="svg.min.js"/>
<svg id="graph" class="graph">
<g id="viewport">
<title>com.fs.starfarer.api.impl.campaign.intel.misc.FleetLogIntel</title>
<!-- Node1 -->
<g id="Node000001" class="node">
<title>Node1</title>
<g id="a_Node000001"><a xlink:title=" ">
<polygon fill="#999999" stroke="#666666" points="703.5,-226.5 494.75,-226.5 494.75,-196 703.5,-196 703.5,-226.5"/>
<text text-anchor="start" x="502.75" y="-213" font-family="Helvetica,sans-Serif" font-size="10.00">com.fs.starfarer.api.impl.campaign.intel.misc.</text>
<text text-anchor="middle" x="599.12" y="-201.75" font-family="Helvetica,sans-Serif" font-size="10.00">FleetLogIntel</text>
</a>
</g>
</g>
<!-- Node7 -->
<g id="Node000007" class="node">
<title>Node7</title>
<g id="a_Node000007"><a xlink:href="classcom_1_1fs_1_1starfarer_1_1api_1_1impl_1_1campaign_1_1intel_1_1misc_1_1BreadcrumbIntel.html" target="_top" xlink:title=" ">
<polygon fill="white" stroke="#666666" points="948.25,-422.5 739.5,-422.5 739.5,-392 948.25,-392 948.25,-422.5"/>
<text text-anchor="start" x="747.5" y="-409" font-family="Helvetica,sans-Serif" font-size="10.00">com.fs.starfarer.api.impl.campaign.intel.misc.</text>
<text text-anchor="middle" x="843.88" y="-397.75" font-family="Helvetica,sans-Serif" font-size="10.00">BreadcrumbIntel</text>
</a>
</g>
</g>
<!-- Node1&#45;&gt;Node7 -->
<g id="edge6_Node000001_Node000007" class="edge">
<title>Node1&#45;&gt;Node7</title>
<g id="a_edge6_Node000001_Node000007"><a xlink:title=" ">
<path fill="none" stroke="#63b8ff" d="M613.58,-236.61C635.01,-274.42 680.55,-345.12 739.5,-382.25 745.2,-385.84 751.38,-388.92 757.78,-391.55"/>
<polygon fill="#63b8ff" stroke="#63b8ff" points="616.83,-235.24 608.92,-228.19 610.7,-238.63 616.83,-235.24"/>
</a>
</g>
</g>
<!-- Node8 -->
<g id="Node000008" class="node">
<title>Node8</title>
<g id="a_Node000008"><a xlink:href="classcom_1_1fs_1_1starfarer_1_1api_1_1impl_1_1campaign_1_1intel_1_1misc_1_1BreadcrumbIntelV2.html" target="_top" xlink:title=" ">
<polygon fill="white" stroke="#666666" points="948.25,-373.5 739.5,-373.5 739.5,-343 948.25,-343 948.25,-373.5"/>
<text text-anchor="start" x="747.5" y="-360" font-family="Helvetica,sans-Serif" font-size="10.00">com.fs.starfarer.api.impl.campaign.intel.misc.</text>
<text text-anchor="middle" x="843.88" y="-348.75" font-family="Helvetica,sans-Serif" font-size="10.00">BreadcrumbIntelV2</text>
</a>
</g>
</g>
<!-- Node1&#45;&gt;Node8 -->
<g id="edge7_Node000001_Node000008" class="edge">
<title>Node1&#45;&gt;Node8</title>
<g id="a_edge7_Node000001_Node000008"><a xlink:title=" ">
<path fill="none" stroke="#63b8ff" d="M620.47,-234.96C645.62,-262.74 691.07,-308.15 739.5,-333.25 746.39,-336.82 753.79,-339.89 761.37,-342.53"/>
<polygon fill="#63b8ff" stroke="#63b8ff" points="623.31,-232.89 614.05,-227.74 618.08,-237.54 623.31,-232.89"/>
</a>
</g>
</g>
<!-- Node10 -->
<g id="Node000010" class="node">
<title>Node10</title>
<g id="a_Node000010"><a xlink:href="classcom_1_1fs_1_1starfarer_1_1api_1_1impl_1_1campaign_1_1intel_1_1misc_1_1CargoPodsIntel.html" target="_top" xlink:title=" ">
<polygon fill="white" stroke="#666666" points="948.25,-324.5 739.5,-324.5 739.5,-294 948.25,-294 948.25,-324.5"/>
<text text-anchor="start" x="747.5" y="-311" font-family="Helvetica,sans-Serif" font-size="10.00">com.fs.starfarer.api.impl.campaign.intel.misc.</text>
<text text-anchor="middle" x="843.88" y="-299.75" font-family="Helvetica,sans-Serif" font-size="10.00">CargoPodsIntel</text>
</a>
</g>
</g>
<!-- Node1&#45;&gt;Node10 -->
<g id="edge9_Node000001_Node000010" class="edge">
<title>Node1&#45;&gt;Node10</title>
<g id="a_edge9_Node000001_Node000010"><a xlink:title=" ">
<path fill="none" stroke="#63b8ff" d="M635.01,-232.6C662.55,-248.68 702.39,-270.29 739.5,-284.25 748.66,-287.7 758.46,-290.79 768.24,-293.52"/>
<polygon fill="#63b8ff" stroke="#63b8ff" points="637.14,-229.79 626.75,-227.71 633.57,-235.82 637.14,-229.79"/>
</a>
</g>
</g>
<!-- Node11 -->
<g id="Node000011" class="node">
<title>Node11</title>
<g id="a_Node000011"><a xlink:href="classcom_1_1fs_1_1starfarer_1_1api_1_1impl_1_1campaign_1_1intel_1_1misc_1_1MapMarkerIntel.html" target="_top" xlink:title=" ">
<polygon fill="white" stroke="#666666" points="948.25,-275.5 739.5,-275.5 739.5,-245 948.25,-245 948.25,-275.5"/>
<text text-anchor="start" x="747.5" y="-262" font-family="Helvetica,sans-Serif" font-size="10.00">com.fs.starfarer.api.impl.campaign.intel.misc.</text>
<text text-anchor="middle" x="843.88" y="-250.75" font-family="Helvetica,sans-Serif" font-size="10.00">MapMarkerIntel</text>
</a>
</g>
</g>
<!-- Node1&#45;&gt;Node11 -->
<g id="edge10_Node000001_Node000011" class="edge">
<title>Node1&#45;&gt;Node11</title>
<g id="a_edge10_Node000001_Node000011"><a xlink:title=" ">
<path fill="none" stroke="#63b8ff" d="M689.21,-229.23C714.09,-234.25 740.92,-239.67 765.09,-244.55"/>
<polygon fill="#63b8ff" stroke="#63b8ff" points="689.91,-225.8 679.42,-227.26 688.53,-232.67 689.91,-225.8"/>
</a>
</g>
</g>
<!-- Node16 -->
<g id="Node000016" class="node">
<title>Node16</title>
<g id="a_Node000016"><a xlink:href="classcom_1_1fs_1_1starfarer_1_1api_1_1impl_1_1campaign_1_1intel_1_1misc_1_1ProductionReportIntel.html" target="_top" xlink:title=" ">
<polygon fill="white" stroke="#666666" points="948.25,-226.5 739.5,-226.5 739.5,-196 948.25,-196 948.25,-226.5"/>
<text text-anchor="start" x="747.5" y="-213" font-family="Helvetica,sans-Serif" font-size="10.00">com.fs.starfarer.api.impl.campaign.intel.misc.</text>
<text text-anchor="middle" x="843.88" y="-201.75" font-family="Helvetica,sans-Serif" font-size="10.00">ProductionReportIntel</text>
</a>
</g>
</g>
<!-- Node1&#45;&gt;Node16 -->
<g id="edge15_Node000001_Node000016" class="edge">
<title>Node1&#45;&gt;Node16</title>
<g id="a_edge15_Node000001_Node000016"><a xlink:title=" ">
<path fill="none" stroke="#63b8ff" d="M715.1,-211.25C723.14,-211.25 731.21,-211.25 739.18,-211.25"/>
<polygon fill="#63b8ff" stroke="#63b8ff" points="715.29,-207.75 705.29,-211.25 715.29,-214.75 715.29,-207.75"/>
</a>
</g>
</g>
<!-- Node17 -->
<g id="Node000017" class="node">
<title>Node17</title>
<g id="a_Node000017"><a xlink:href="classcom_1_1fs_1_1starfarer_1_1api_1_1impl_1_1campaign_1_1intel_1_1misc_1_1RemoteSurveyDataForPlanetIntel.html" target="_top" xlink:title=" ">
<polygon fill="white" stroke="#666666" points="948.25,-177.5 739.5,-177.5 739.5,-147 948.25,-147 948.25,-177.5"/>
<text text-anchor="start" x="747.5" y="-164" font-family="Helvetica,sans-Serif" font-size="10.00">com.fs.starfarer.api.impl.campaign.intel.misc.</text>
<text text-anchor="middle" x="843.88" y="-152.75" font-family="Helvetica,sans-Serif" font-size="10.00">RemoteSurveyDataForPlanetIntel</text>
</a>
</g>
</g>
<!-- Node1&#45;&gt;Node17 -->
<g id="edge16_Node000001_Node000017" class="edge">
<title>Node1&#45;&gt;Node17</title>
<g id="a_edge16_Node000001_Node000017"><a xlink:title=" ">
<path fill="none" stroke="#63b8ff" d="M689.21,-193.27C714.09,-188.25 740.92,-182.83 765.09,-177.95"/>
<polygon fill="#63b8ff" stroke="#63b8ff" points="688.53,-189.83 679.42,-195.24 689.91,-196.7 688.53,-189.83"/>
</a>
</g>
</g>
<!-- Node18 -->
<g id="Node000018" class="node">
<title>Node18</title>
<g id="a_Node000018"><a xlink:href="classcom_1_1fs_1_1starfarer_1_1api_1_1impl_1_1campaign_1_1intel_1_1misc_1_1SimUpdateIntel.html" target="_top" xlink:title=" ">
<polygon fill="white" stroke="#666666" points="948.25,-128.5 739.5,-128.5 739.5,-98 948.25,-98 948.25,-128.5"/>
<text text-anchor="start" x="747.5" y="-115" font-family="Helvetica,sans-Serif" font-size="10.00">com.fs.starfarer.api.impl.campaign.intel.misc.</text>
<text text-anchor="middle" x="843.88" y="-103.75" font-family="Helvetica,sans-Serif" font-size="10.00">SimUpdateIntel</text>
</a>
</g>
</g>
<!-- Node1&#45;&gt;Node18 -->
<g id="edge17_Node000001_Node000018" class="edge">
<title>Node1&#45;&gt;Node18</title>
<g id="a_edge17_Node000001_Node000018"><a xlink:title=" ">
<path fill="none" stroke="#63b8ff" d="M635.01,-189.9C662.55,-173.82 702.39,-152.21 739.5,-138.25 748.66,-134.8 758.46,-131.71 768.24,-128.98"/>
<polygon fill="#63b8ff" stroke="#63b8ff" points="633.57,-186.68 626.75,-194.79 637.14,-192.71 633.57,-186.68"/>
</a>
</g>
</g>
<!-- Node19 -->
<g id="Node000019" class="node">
<title>Node19</title>
<g id="a_Node000019"><a xlink:href="classcom_1_1fs_1_1starfarer_1_1api_1_1impl_1_1campaign_1_1intel_1_1misc_1_1SurveyDataForPlanetIntel.html" target="_top" xlink:title=" ">
<polygon fill="white" stroke="#666666" points="948.25,-79.5 739.5,-79.5 739.5,-49 948.25,-49 948.25,-79.5"/>
<text text-anchor="start" x="747.5" y="-66" font-family="Helvetica,sans-Serif" font-size="10.00">com.fs.starfarer.api.impl.campaign.intel.misc.</text>
<text text-anchor="middle" x="843.88" y="-54.75" font-family="Helvetica,sans-Serif" font-size="10.00">SurveyDataForPlanetIntel</text>
</a>
</g>
</g>
<!-- Node1&#45;&gt;Node19 -->
<g id="edge18_Node000001_Node000019" class="edge">
<title>Node1&#45;&gt;Node19</title>
<g id="a_edge18_Node000001_Node000019"><a xlink:title=" ">
<path fill="none" stroke="#63b8ff" d="M620.47,-187.54C645.62,-159.76 691.07,-114.35 739.5,-89.25 746.39,-85.68 753.79,-82.61 761.37,-79.97"/>
<polygon fill="#63b8ff" stroke="#63b8ff" points="618.08,-184.96 614.05,-194.76 623.31,-189.61 618.08,-184.96"/>
</a>
</g>
</g>
<!-- Node20 -->
<g id="Node000020" class="node">
<title>Node20</title>
<g id="a_Node000020"><a xlink:href="classcom_1_1fs_1_1starfarer_1_1api_1_1impl_1_1codex_1_1CodexUpdateIntel.html" target="_top" xlink:title=" ">
<polygon fill="white" stroke="#666666" points="918.25,-30.5 769.5,-30.5 769.5,0 918.25,0 918.25,-30.5"/>
<text text-anchor="start" x="777.5" y="-17" font-family="Helvetica,sans-Serif" font-size="10.00">com.fs.starfarer.api.impl.codex.</text>
<text text-anchor="middle" x="843.88" y="-5.75" font-family="Helvetica,sans-Serif" font-size="10.00">CodexUpdateIntel</text>
</a>
</g>
</g>
<!-- Node1&#45;&gt;Node20 -->
<g id="edge19_Node000001_Node000020" class="edge">
<title>Node1&#45;&gt;Node20</title>
<g id="a_edge19_Node000001_Node000020"><a xlink:title=" ">
<path fill="none" stroke="#63b8ff" d="M613.58,-185.89C635.01,-148.08 680.55,-77.38 739.5,-40.25 748.48,-34.59 758.65,-30.21 769.01,-26.83"/>
<polygon fill="#63b8ff" stroke="#63b8ff" points="610.7,-183.87 608.92,-194.31 616.83,-187.26 610.7,-183.87"/>
</a>
</g>
</g>
<!-- Node2 -->
<g id="Node000002" class="node">
<title>Node2</title>
<g id="a_Node000002"><a xlink:href="classcom_1_1fs_1_1starfarer_1_1api_1_1impl_1_1campaign_1_1intel_1_1BaseIntelPlugin.html" target="_top" xlink:title=" ">
<polygon fill="white" stroke="#666666" points="458.75,-226.5 273.25,-226.5 273.25,-196 458.75,-196 458.75,-226.5"/>
<text text-anchor="start" x="281.25" y="-213" font-family="Helvetica,sans-Serif" font-size="10.00">com.fs.starfarer.api.impl.campaign.intel.</text>
<text text-anchor="middle" x="366" y="-201.75" font-family="Helvetica,sans-Serif" font-size="10.00">BaseIntelPlugin</text>
</a>
</g>
</g>
<!-- Node2&#45;&gt;Node1 -->
<g id="edge1_Node000001_Node000002" class="edge">
<title>Node2&#45;&gt;Node1</title>
<g id="a_edge1_Node000001_Node000002"><a xlink:title=" ">
<path fill="none" stroke="#63b8ff" d="M470.5,-211.25C478.39,-211.25 486.36,-211.25 494.25,-211.25"/>
<polygon fill="#63b8ff" stroke="#63b8ff" points="470.52,-207.75 460.52,-211.25 470.52,-214.75 470.52,-207.75"/>
</a>
</g>
</g>
<!-- Node3 -->
<g id="Node000003" class="node">
<title>Node3</title>
<g id="a_Node000003"><a xlink:href="interfacecom_1_1fs_1_1starfarer_1_1api_1_1campaign_1_1comm_1_1IntelInfoPlugin.html" target="_top" xlink:title=" ">
<polygon fill="white" stroke="#666666" points="205.75,-300.5 31.5,-300.5 31.5,-270 205.75,-270 205.75,-300.5"/>
<text text-anchor="start" x="39.5" y="-287" font-family="Helvetica,sans-Serif" font-size="10.00">com.fs.starfarer.api.campaign.comm.</text>
<text text-anchor="middle" x="118.62" y="-275.75" font-family="Helvetica,sans-Serif" font-size="10.00">IntelInfoPlugin</text>
</a>
</g>
</g>
<!-- Node3&#45;&gt;Node2 -->
<g id="edge2_Node000002_Node000003" class="edge">
<title>Node3&#45;&gt;Node2</title>
<g id="a_edge2_Node000002_Node000003"><a xlink:title=" ">
<path fill="none" stroke="#63b8ff" d="M212.66,-266.9C221.02,-264.82 229.32,-262.6 237.25,-260.25 268.68,-250.94 303.35,-237.43 328.63,-226.95"/>
<polygon fill="#63b8ff" stroke="#63b8ff" points="212.04,-263.44 203.14,-269.19 213.68,-270.25 212.04,-263.44"/>
</a>
</g>
</g>
<!-- Node4 -->
<g id="Node000004" class="node">
<title>Node4</title>
<g id="a_Node000004"><a xlink:title=" ">
<polygon fill="white" stroke="#666666" points="219.62,-251.5 17.62,-251.5 17.62,-221 219.62,-221 219.62,-251.5"/>
<text text-anchor="start" x="25.62" y="-238" font-family="Helvetica,sans-Serif" font-size="10.00">com.fs.starfarer.api.impl.campaign.rulecmd.</text>
<text text-anchor="middle" x="118.62" y="-226.75" font-family="Helvetica,sans-Serif" font-size="10.00">CallEvent.CallableEvent</text>
</a>
</g>
</g>
<!-- Node4&#45;&gt;Node2 -->
<g id="edge3_Node000002_Node000004" class="edge">
<title>Node4&#45;&gt;Node2</title>
<g id="a_edge3_Node000002_Node000004"><a xlink:title=" ">
<path fill="none" stroke="#63b8ff" d="M231.01,-224.9C245.07,-223.47 259.34,-222.01 273.06,-220.62"/>
<polygon fill="#63b8ff" stroke="#63b8ff" points="230.88,-221.4 221.29,-225.89 231.59,-228.36 230.88,-221.4"/>
</a>
</g>
</g>
<!-- Node5 -->
<g id="Node000005" class="node">
<title>Node5</title>
<g id="a_Node000005"><a xlink:href="interfacecom_1_1fs_1_1starfarer_1_1api_1_1EveryFrameScript.html" target="_top" xlink:title=" ">
<polygon fill="white" stroke="#666666" points="181,-202.5 56.25,-202.5 56.25,-172 181,-172 181,-202.5"/>
<text text-anchor="start" x="64.25" y="-189" font-family="Helvetica,sans-Serif" font-size="10.00">com.fs.starfarer.api.Every</text>
<text text-anchor="middle" x="118.62" y="-177.75" font-family="Helvetica,sans-Serif" font-size="10.00">FrameScript</text>
</a>
</g>
</g>
<!-- Node5&#45;&gt;Node2 -->
<g id="edge4_Node000002_Node000005" class="edge">
<title>Node5&#45;&gt;Node2</title>
<g id="a_edge4_Node000002_Node000005"><a xlink:title=" ">
<path fill="none" stroke="#63b8ff" d="M192.59,-194.39C217.89,-196.86 246.58,-199.67 273.2,-202.27"/>
<polygon fill="#63b8ff" stroke="#63b8ff" points="193.03,-190.91 182.73,-193.42 192.34,-197.88 193.03,-190.91"/>
</a>
</g>
</g>
<!-- Node6 -->
<g id="Node000006" class="node">
<title>Node6</title>
<g id="a_Node000006"><a xlink:title=" ">
<polygon fill="white" stroke="#666666" points="237.25,-153.5 0,-153.5 0,-123 237.25,-123 237.25,-153.5"/>
<text text-anchor="start" x="8" y="-140" font-family="Helvetica,sans-Serif" font-size="10.00">com.fs.starfarer.api.impl.campaign.</text>
<text text-anchor="middle" x="118.62" y="-128.75" font-family="Helvetica,sans-Serif" font-size="10.00">CommRelayEntityPlugin.CommSnifferReadableIntel</text>
</a>
</g>
</g>
<!-- Node6&#45;&gt;Node2 -->
<g id="edge5_Node000002_Node000006" class="edge">
<title>Node6&#45;&gt;Node2</title>
<g id="a_edge5_Node000002_Node000006"><a xlink:title=" ">
<path fill="none" stroke="#63b8ff" d="M212.43,-156.61C220.86,-158.69 229.24,-160.91 237.25,-163.25 268.29,-172.32 302.55,-185.37 327.77,-195.57"/>
<polygon fill="#63b8ff" stroke="#63b8ff" points="213.34,-153.23 202.8,-154.31 211.72,-160.04 213.34,-153.23"/>
</a>
</g>
</g>
<!-- Node9 -->
<g id="Node000009" class="node">
<title>Node9</title>
<g id="a_Node000009"><a xlink:href="classcom_1_1fs_1_1starfarer_1_1api_1_1impl_1_1campaign_1_1intel_1_1misc_1_1DistressCallIntel.html" target="_top" xlink:title=" ">
<polygon fill="white" stroke="#666666" points="1193,-373.5 984.25,-373.5 984.25,-343 1193,-343 1193,-373.5"/>
<text text-anchor="start" x="992.25" y="-360" font-family="Helvetica,sans-Serif" font-size="10.00">com.fs.starfarer.api.impl.campaign.intel.misc.</text>
<text text-anchor="middle" x="1088.62" y="-348.75" font-family="Helvetica,sans-Serif" font-size="10.00">DistressCallIntel</text>
</a>
</g>
</g>
<!-- Node8&#45;&gt;Node9 -->
<g id="edge8_Node000008_Node000009" class="edge">
<title>Node8&#45;&gt;Node9</title>
<g id="a_edge8_Node000008_Node000009"><a xlink:title=" ">
<path fill="none" stroke="#63b8ff" d="M959.85,-358.25C967.89,-358.25 975.96,-358.25 983.93,-358.25"/>
<polygon fill="#63b8ff" stroke="#63b8ff" points="960.04,-354.75 950.04,-358.25 960.04,-361.75 960.04,-354.75"/>
</a>
</g>
</g>
<!-- Node12 -->
<g id="Node000012" class="node">
<title>Node12</title>
<g id="a_Node000012"><a xlink:href="classcom_1_1fs_1_1starfarer_1_1api_1_1impl_1_1campaign_1_1intel_1_1misc_1_1CryosleeperIntel.html" target="_top" xlink:title=" ">
<polygon fill="white" stroke="#666666" points="1193,-324.5 984.25,-324.5 984.25,-294 1193,-294 1193,-324.5"/>
<text text-anchor="start" x="992.25" y="-311" font-family="Helvetica,sans-Serif" font-size="10.00">com.fs.starfarer.api.impl.campaign.intel.misc.</text>
<text text-anchor="middle" x="1088.62" y="-299.75" font-family="Helvetica,sans-Serif" font-size="10.00">CryosleeperIntel</text>
</a>
</g>
</g>
<!-- Node11&#45;&gt;Node12 -->
<g id="edge11_Node000011_Node000012" class="edge">
<title>Node11&#45;&gt;Node12</title>
<g id="a_edge11_Node000011_Node000012"><a xlink:title=" ">
<path fill="none" stroke="#63b8ff" d="M933.96,-278.23C958.84,-283.25 985.67,-288.67 1009.84,-293.55"/>
<polygon fill="#63b8ff" stroke="#63b8ff" points="934.66,-274.8 924.17,-276.26 933.28,-281.67 934.66,-274.8"/>
</a>
</g>
</g>
<!-- Node13 -->
<g id="Node000013" class="node">
<title>Node13</title>
<g id="a_Node000013"><a xlink:href="classcom_1_1fs_1_1starfarer_1_1api_1_1impl_1_1campaign_1_1intel_1_1misc_1_1HypershuntIntel.html" target="_top" xlink:title=" ">
<polygon fill="white" stroke="#666666" points="1193,-275.5 984.25,-275.5 984.25,-245 1193,-245 1193,-275.5"/>
<text text-anchor="start" x="992.25" y="-262" font-family="Helvetica,sans-Serif" font-size="10.00">com.fs.starfarer.api.impl.campaign.intel.misc.</text>
<text text-anchor="middle" x="1088.62" y="-250.75" font-family="Helvetica,sans-Serif" font-size="10.00">HypershuntIntel</text>
</a>
</g>
</g>
<!-- Node11&#45;&gt;Node13 -->
<g id="edge12_Node000011_Node000013" class="edge">
<title>Node11&#45;&gt;Node13</title>
<g id="a_edge12_Node000011_Node000013"><a xlink:title=" ">
<path fill="none" stroke="#63b8ff" d="M959.85,-260.25C967.89,-260.25 975.96,-260.25 983.93,-260.25"/>
<polygon fill="#63b8ff" stroke="#63b8ff" points="960.04,-256.75 950.04,-260.25 960.04,-263.75 960.04,-256.75"/>
</a>
</g>
</g>
<!-- Node14 -->
<g id="Node000014" class="node">
<title>Node14</title>
<g id="a_Node000014"><a xlink:href="classcom_1_1fs_1_1starfarer_1_1api_1_1impl_1_1campaign_1_1intel_1_1misc_1_1RemnantNexusIntel.html" target="_top" xlink:title=" ">
<polygon fill="white" stroke="#666666" points="1193,-226.5 984.25,-226.5 984.25,-196 1193,-196 1193,-226.5"/>
<text text-anchor="start" x="992.25" y="-213" font-family="Helvetica,sans-Serif" font-size="10.00">com.fs.starfarer.api.impl.campaign.intel.misc.</text>
<text text-anchor="middle" x="1088.62" y="-201.75" font-family="Helvetica,sans-Serif" font-size="10.00">RemnantNexusIntel</text>
</a>
</g>
</g>
<!-- Node11&#45;&gt;Node14 -->
<g id="edge13_Node000011_Node000014" class="edge">
<title>Node11&#45;&gt;Node14</title>
<g id="a_edge13_Node000011_Node000014"><a xlink:title=" ">
<path fill="none" stroke="#63b8ff" d="M933.96,-242.27C958.84,-237.25 985.67,-231.83 1009.84,-226.95"/>
<polygon fill="#63b8ff" stroke="#63b8ff" points="933.28,-238.83 924.17,-244.24 934.66,-245.7 933.28,-238.83"/>
</a>
</g>
</g>
<!-- Node15 -->
<g id="Node000015" class="node">
<title>Node15</title>
<g id="a_Node000015"><a xlink:href="classcom_1_1fs_1_1starfarer_1_1api_1_1impl_1_1campaign_1_1intel_1_1misc_1_1WormholeIntel.html" target="_top" xlink:title=" ">
<polygon fill="white" stroke="#666666" points="1193,-177.5 984.25,-177.5 984.25,-147 1193,-147 1193,-177.5"/>
<text text-anchor="start" x="992.25" y="-164" font-family="Helvetica,sans-Serif" font-size="10.00">com.fs.starfarer.api.impl.campaign.intel.misc.</text>
<text text-anchor="middle" x="1088.62" y="-152.75" font-family="Helvetica,sans-Serif" font-size="10.00">WormholeIntel</text>
</a>
</g>
</g>
<!-- Node11&#45;&gt;Node15 -->
<g id="edge14_Node000011_Node000015" class="edge">
<title>Node11&#45;&gt;Node15</title>
<g id="a_edge14_Node000011_Node000015"><a xlink:title=" ">
<path fill="none" stroke="#63b8ff" d="M940.81,-239.69C943.37,-238.3 945.85,-236.83 948.25,-235.25 970.52,-220.59 961.98,-201.91 984.25,-187.25 989.72,-183.65 995.67,-180.56 1001.85,-177.92"/>
<polygon fill="#63b8ff" stroke="#63b8ff" points="939.51,-236.43 932.02,-243.93 942.55,-242.74 939.51,-236.43"/>
</a>
</g>
</g>
</g>
</svg>

<g id="navigator" transform="translate(0 0)" fill="#404254">
  <rect fill="#f2f5e9" fill-opacity="0.5" stroke="#606060" stroke-width=".5" x="0" y="0" width="60" height="60"/>
  <use id="zoomplus" xlink:href="#zoomPlus" x="17" y="9" onmousedown="handleZoom(evt,'in')"/>
  <use id="zoomminus" xlink:href="#zoomMin" x="42" y="9" onmousedown="handleZoom(evt,'out')"/>
  <use id="reset" xlink:href="#resetDef" x="30" y="36" onmousedown="handleReset()"/>
   <use id="arrowup" xlink:href="#arrowUp" x="0" y="0" onmousedown="handlePan(0,-1)"/>
  <use id="arrowright" xlink:href="#arrowRight" x="0" y="0" onmousedown="handlePan(1,0)"/>
  <use id="arrowdown" xlink:href="#arrowDown" x="0" y="0" onmousedown="handlePan(0,1)"/>
  <use id="arrowleft" xlink:href="#arrowLeft" x="0" y="0" onmousedown="handlePan(-1,0)"/>
</g>
<svg viewBox="0 0 15 15" width="100%" height="30px" preserveAspectRatio="xMaxYMin meet">
 <g id="arrow_out" transform="scale(0.3 0.3)">
  <a xlink:href="classcom_1_1fs_1_1starfarer_1_1api_1_1impl_1_1campaign_1_1intel_1_1misc_1_1FleetLogIntel__inherit__graph_org.svg" target="_base">
   <rect id="button" ry="5" rx="5" y="6" x="6" height="38" width="38"
        fill="#f2f5e9" fill-opacity="0.5" stroke="#606060" stroke-width="1.0"/>
   <path id="arrow"
     d="M 11.500037,31.436501 C 11.940474,20.09759 22.043105,11.32322 32.158766,21.979434 L 37.068811,17.246167 C 37.068811,17.246167 37.088388,32 37.088388,32 L 22.160133,31.978069 C 22.160133,31.978069 26.997745,27.140456 26.997745,27.140456 C 18.528582,18.264221 13.291696,25.230495 11.500037,31.436501 z"
     style="fill:#404040;"/>
  </a>
 </g>
</svg>

<style type='text/css'>
<![CDATA[
[data-mouse-over-selected='false'] { opacity: 0.7; }
[data-mouse-over-selected='true']  { opacity: 1.0; }
]]>
</style>
<script type="application/ecmascript"><![CDATA[
document.addEventListener('DOMContentLoaded', (event) => {
  highlightEdges();
  highlightAdjacentNodes();
});
]]></script>
</svg>
