<?xml version="1.0" encoding="UTF-8" standalone="no"?>
<!DOCTYPE svg PUBLIC "-//W3C//DTD SVG 1.1//EN"
 "http://www.w3.org/Graphics/SVG/1.1/DTD/svg11.dtd">
<!-- Generated by graphviz version 12.2.0 (20241103.1931)
 -->
<!-- Title: com.fs.starfarer.api.impl.campaign.ghosts.GBLeviathanCalfRun Pages: 1 -->
<svg width="726pt" height="88pt"
 viewBox="0.00 0.00 725.75 87.50" xmlns="http://www.w3.org/2000/svg" xmlns:xlink="http://www.w3.org/1999/xlink">
<g id="graph0" class="graph" transform="scale(1 1) rotate(0) translate(4 83.5)">
<title>com.fs.starfarer.api.impl.campaign.ghosts.GBLeviathanCalfRun</title>
<!-- Node1 -->
<g id="Node000001" class="node">
<title>Node1</title>
<g id="a_Node000001"><a xlink:title=" ">
<polygon fill="#999999" stroke="#666666" points="717.75,-54.5 521,-54.5 521,-24 717.75,-24 717.75,-54.5"/>
<text text-anchor="start" x="529" y="-41" font-family="Helvetica,sans-Serif" font-size="10.00">com.fs.starfarer.api.impl.campaign.ghosts.</text>
<text text-anchor="middle" x="619.38" y="-29.75" font-family="Helvetica,sans-Serif" font-size="10.00">GBLeviathanCalfRun</text>
</a>
</g>
</g>
<!-- Node2 -->
<g id="Node000002" class="node">
<title>Node2</title>
<g id="a_Node000002"><a xlink:href="classcom_1_1fs_1_1starfarer_1_1api_1_1impl_1_1campaign_1_1ghosts_1_1BaseGhostBehavior.html" target="_top" xlink:title=" ">
<polygon fill="white" stroke="#666666" points="457.25,-79.5 260.5,-79.5 260.5,-49 457.25,-49 457.25,-79.5"/>
<text text-anchor="start" x="268.5" y="-66" font-family="Helvetica,sans-Serif" font-size="10.00">com.fs.starfarer.api.impl.campaign.ghosts.</text>
<text text-anchor="middle" x="358.88" y="-54.75" font-family="Helvetica,sans-Serif" font-size="10.00">BaseGhostBehavior</text>
</a>
</g>
</g>
<!-- Node2&#45;&gt;Node1 -->
<g id="edge1_Node000001_Node000002" class="edge">
<title>Node2&#45;&gt;Node1</title>
<g id="a_edge1_Node000001_Node000002"><a xlink:title=" ">
<path fill="none" stroke="#63b8ff" d="M468.8,-53.72C485.96,-52.06 503.62,-50.35 520.51,-48.71"/>
<polygon fill="#63b8ff" stroke="#63b8ff" points="468.73,-50.21 459.11,-54.65 469.4,-57.17 468.73,-50.21"/>
</a>
</g>
</g>
<!-- Node3 -->
<g id="Node000003" class="node">
<title>Node3</title>
<g id="a_Node000003"><a xlink:href="interfacecom_1_1fs_1_1starfarer_1_1api_1_1impl_1_1campaign_1_1ghosts_1_1GhostBehavior.html" target="_top" xlink:title=" ">
<polygon fill="white" stroke="#666666" points="196.75,-79.5 0,-79.5 0,-49 196.75,-49 196.75,-79.5"/>
<text text-anchor="start" x="8" y="-66" font-family="Helvetica,sans-Serif" font-size="10.00">com.fs.starfarer.api.impl.campaign.ghosts.</text>
<text text-anchor="middle" x="98.38" y="-54.75" font-family="Helvetica,sans-Serif" font-size="10.00">GhostBehavior</text>
</a>
</g>
</g>
<!-- Node3&#45;&gt;Node2 -->
<g id="edge2_Node000002_Node000003" class="edge">
<title>Node3&#45;&gt;Node2</title>
<g id="a_edge2_Node000002_Node000003"><a xlink:title=" ">
<path fill="none" stroke="#63b8ff" d="M208.3,-64.25C225.46,-64.25 243.12,-64.25 260.01,-64.25"/>
<polygon fill="#63b8ff" stroke="#63b8ff" points="208.62,-60.75 198.62,-64.25 208.62,-67.75 208.62,-60.75"/>
</a>
</g>
</g>
<!-- Node4 -->
<g id="Node000004" class="node">
<title>Node4</title>
<g id="a_Node000004"><a xlink:title=" ">
<polygon fill="white" stroke="#666666" points="485,-30.5 232.75,-30.5 232.75,0 485,0 485,-30.5"/>
<text text-anchor="start" x="240.75" y="-17" font-family="Helvetica,sans-Serif" font-size="10.00">com.fs.starfarer.api.impl.campaign.ghosts.</text>
<text text-anchor="middle" x="358.88" y="-5.75" font-family="Helvetica,sans-Serif" font-size="10.00">GBIGenerateSlipstream.GhostBehaviorWithSlipstream</text>
</a>
</g>
</g>
<!-- Node4&#45;&gt;Node1 -->
<g id="edge3_Node000001_Node000004" class="edge">
<title>Node4&#45;&gt;Node1</title>
<g id="a_edge3_Node000001_Node000004"><a xlink:title=" ">
<path fill="none" stroke="#63b8ff" d="M496.71,-27.95C504.75,-28.7 512.74,-29.44 520.57,-30.17"/>
<polygon fill="#63b8ff" stroke="#63b8ff" points="497.13,-24.48 486.85,-27.04 496.48,-31.45 497.13,-24.48"/>
</a>
</g>
</g>
</g>
</svg>
