<?xml version="1.0" encoding="UTF-8" standalone="no"?>
<!DOCTYPE svg PUBLIC "-//W3C//DTD SVG 1.1//EN"
 "http://www.w3.org/Graphics/SVG/1.1/DTD/svg11.dtd">
<!-- Generated by graphviz version 7.0.5 (20221223.1930)
 -->
<!-- Title: com.fs.starfarer.api.impl.campaign.missions.hub.HubMissionWithTriggers.AddCustomDropAction Pages: 1 -->
<svg width="521pt" height="86pt"
 viewBox="0.00 0.00 521.00 86.00" xmlns="http://www.w3.org/2000/svg" xmlns:xlink="http://www.w3.org/1999/xlink">
<g id="graph0" class="graph" transform="scale(1 1) rotate(0) translate(4 82)">
<title>com.fs.starfarer.api.impl.campaign.missions.hub.HubMissionWithTriggers.AddCustomDropAction</title>
<!-- Node1 -->
<g id="node1" class="node">
<title>Node1</title>
<g id="a_node1"><a xlink:title=" ">
<polygon fill="#999999" stroke="#666666" points="513,-54 288,-54 288,-24 513,-24 513,-54"/>
<text text-anchor="start" x="296" y="-42" font-family="Helvetica,sans-Serif" font-size="10.00">com.fs.starfarer.api.impl.campaign.missions.hub.</text>
<text text-anchor="middle" x="400.5" y="-31" font-family="Helvetica,sans-Serif" font-size="10.00">HubMissionWithTriggers.AddCustomDropAction</text>
</a>
</g>
</g>
<!-- Node2 -->
<g id="node2" class="node">
<title>Node2</title>
<g id="a_node2"><a xlink:href="interfacecom_1_1fs_1_1starfarer_1_1api_1_1impl_1_1campaign_1_1missions_1_1hub_1_1MissionTrigger_1_1TriggerAction.html" target="_top" xlink:title=" ">
<polygon fill="white" stroke="#bfbfbf" points="225,-78 0,-78 0,-48 225,-48 225,-78"/>
<text text-anchor="start" x="8" y="-66" font-family="Helvetica,sans-Serif" font-size="10.00">com.fs.starfarer.api.impl.campaign.missions.hub.</text>
<text text-anchor="middle" x="112.5" y="-55" font-family="Helvetica,sans-Serif" font-size="10.00">MissionTrigger.TriggerAction</text>
</a>
</g>
</g>
<!-- Node2&#45;&gt;Node1 -->
<g id="edge1" class="edge">
<title>Node2&#45;&gt;Node1</title>
<path fill="none" stroke="#63b8ff" d="M236.44,-52.68C253.5,-51.25 270.94,-49.79 287.77,-48.38"/>
<polygon fill="#63b8ff" stroke="#63b8ff" points="236.48,-49.17 226.81,-53.49 237.07,-56.14 236.48,-49.17"/>
</g>
<!-- Node3 -->
<g id="node3" class="node">
<title>Node3</title>
<g id="a_node3"><a xlink:href="interfacecom_1_1fs_1_1starfarer_1_1api_1_1campaign_1_1CargoAPI.html" target="_top" xlink:title=" ">
<polygon fill="white" stroke="#666666" points="185.5,-30 39.5,-30 39.5,0 185.5,0 185.5,-30"/>
<text text-anchor="start" x="47.5" y="-18" font-family="Helvetica,sans-Serif" font-size="10.00">com.fs.starfarer.api.campaign.</text>
<text text-anchor="middle" x="112.5" y="-7" font-family="Helvetica,sans-Serif" font-size="10.00">CargoAPI</text>
</a>
</g>
</g>
<!-- Node3&#45;&gt;Node1 -->
<g id="edge2" class="edge">
<title>Node3&#45;&gt;Node1</title>
<path fill="none" stroke="#9a32cd" stroke-dasharray="5,2" d="M197.13,-22.02C225.4,-24.39 257.43,-27.08 287.54,-29.6"/>
<polygon fill="#9a32cd" stroke="#9a32cd" points="197.44,-18.53 187.18,-21.18 196.85,-25.51 197.44,-18.53"/>
<text text-anchor="middle" x="256.5" y="-30" font-family="Helvetica,sans-Serif" font-size="10.00"> cargo</text>
</g>
</g>
</svg>
