<?xml version="1.0" encoding="UTF-8" standalone="no"?>
<!DOCTYPE svg PUBLIC "-//W3C//DTD SVG 1.1//EN"
 "http://www.w3.org/Graphics/SVG/1.1/DTD/svg11.dtd">
<!-- Generated by graphviz version 2.44.0 ()
 -->
<!-- Title: com.fs.starfarer.api.impl.campaign.rulecmd.salvage.Objectives Pages: 1 -->
<svg width="1123pt" height="499pt"
 viewBox="0.00 0.00 1123.00 499.00" xmlns="http://www.w3.org/2000/svg" xmlns:xlink="http://www.w3.org/1999/xlink">
<g id="graph0" class="graph" transform="scale(1 1) rotate(0) translate(4 495)">
<title>com.fs.starfarer.api.impl.campaign.rulecmd.salvage.Objectives</title>
<!-- Node1 -->
<g id="node1" class="node">
<title>Node1</title>
<g id="a_node1"><a xlink:title=" ">
<polygon fill="#bfbfbf" stroke="black" points="876,-235.5 876,-265.5 1115,-265.5 1115,-235.5 876,-235.5"/>
<text text-anchor="start" x="884" y="-253.5" font-family="Helvetica,sans-Serif" font-size="10.00">com.fs.starfarer.api.impl.campaign.rulecmd.salvage.</text>
<text text-anchor="middle" x="995.5" y="-242.5" font-family="Helvetica,sans-Serif" font-size="10.00">Objectives</text>
</a>
</g>
</g>
<!-- Node2 -->
<g id="node2" class="node">
<title>Node2</title>
<g id="a_node2"><a xlink:href="classcom_1_1fs_1_1starfarer_1_1api_1_1impl_1_1campaign_1_1rulecmd_1_1BaseCommandPlugin.html" target="_top" xlink:title=" ">
<polygon fill="none" stroke="black" points="569,-460.5 569,-490.5 772,-490.5 772,-460.5 569,-460.5"/>
<text text-anchor="start" x="577" y="-478.5" font-family="Helvetica,sans-Serif" font-size="10.00">com.fs.starfarer.api.impl.campaign.rulecmd.</text>
<text text-anchor="middle" x="670.5" y="-467.5" font-family="Helvetica,sans-Serif" font-size="10.00">BaseCommandPlugin</text>
</a>
</g>
</g>
<!-- Node2&#45;&gt;Node1 -->
<g id="edge1" class="edge">
<title>Node2&#45;&gt;Node1</title>
<path fill="none" stroke="midnightblue" d="M765.96,-457.67C772.13,-455.79 778.19,-453.74 784,-451.5 819.49,-437.81 828.72,-432.78 858,-408.5 912.13,-363.61 962.61,-296.02 983.88,-265.91"/>
<polygon fill="midnightblue" stroke="midnightblue" points="764.85,-454.34 756.21,-460.47 766.78,-461.07 764.85,-454.34"/>
</g>
<!-- Node3 -->
<g id="node3" class="node">
<title>Node3</title>
<g id="a_node3"><a xlink:href="interfacecom_1_1fs_1_1starfarer_1_1api_1_1campaign_1_1rules_1_1CommandPlugin.html" target="_top" xlink:title=" ">
<polygon fill="none" stroke="black" points="206,-460.5 206,-490.5 375,-490.5 375,-460.5 206,-460.5"/>
<text text-anchor="start" x="214" y="-478.5" font-family="Helvetica,sans-Serif" font-size="10.00">com.fs.starfarer.api.campaign.rules.</text>
<text text-anchor="middle" x="290.5" y="-467.5" font-family="Helvetica,sans-Serif" font-size="10.00">CommandPlugin</text>
</a>
</g>
</g>
<!-- Node3&#45;&gt;Node2 -->
<g id="edge2" class="edge">
<title>Node3&#45;&gt;Node2</title>
<path fill="none" stroke="midnightblue" d="M385.61,-475.5C441.32,-475.5 511.88,-475.5 568.72,-475.5"/>
<polygon fill="midnightblue" stroke="midnightblue" points="385.39,-472 375.39,-475.5 385.39,-479 385.39,-472"/>
</g>
<!-- Node4 -->
<g id="node4" class="node">
<title>Node4</title>
<g id="a_node4"><a xlink:title=" ">
<polygon fill="none" stroke="#bfbfbf" points="557,-411.5 557,-441.5 784,-441.5 784,-411.5 557,-411.5"/>
<text text-anchor="start" x="565" y="-429.5" font-family="Helvetica,sans-Serif" font-size="10.00">Map&lt; String, com.fs.starfarer.api.campaign.rules.</text>
<text text-anchor="middle" x="670.5" y="-418.5" font-family="Helvetica,sans-Serif" font-size="10.00">MemoryAPI &gt;</text>
</a>
</g>
</g>
<!-- Node4&#45;&gt;Node1 -->
<g id="edge3" class="edge">
<title>Node4&#45;&gt;Node1</title>
<path fill="none" stroke="#9a32cd" stroke-dasharray="5,2" d="M767.05,-408.55C772.85,-406.71 778.54,-404.7 784,-402.5 866.36,-369.3 946.62,-297.19 979.24,-265.71"/>
<polygon fill="#9a32cd" stroke="#9a32cd" points="765.79,-405.27 757.21,-411.48 767.79,-411.98 765.79,-405.27"/>
<text text-anchor="middle" x="830" y="-396.5" font-family="Helvetica,sans-Serif" font-size="10.00"> memoryMap</text>
</g>
<!-- Node5 -->
<g id="node5" class="node">
<title>Node5</title>
<g id="a_node5"><a xlink:href="interfacecom_1_1fs_1_1starfarer_1_1api_1_1campaign_1_1CargoAPI.html" target="_top" xlink:title=" ">
<polygon fill="none" stroke="black" points="597.5,-362.5 597.5,-392.5 743.5,-392.5 743.5,-362.5 597.5,-362.5"/>
<text text-anchor="start" x="605.5" y="-380.5" font-family="Helvetica,sans-Serif" font-size="10.00">com.fs.starfarer.api.campaign.</text>
<text text-anchor="middle" x="670.5" y="-369.5" font-family="Helvetica,sans-Serif" font-size="10.00">CargoAPI</text>
</a>
</g>
</g>
<!-- Node5&#45;&gt;Node1 -->
<g id="edge4" class="edge">
<title>Node5&#45;&gt;Node1</title>
<path fill="none" stroke="#9a32cd" stroke-dasharray="5,2" d="M739.72,-359.78C754.36,-355.85 769.72,-351.62 784,-347.5 817.09,-337.95 826.27,-337.88 858,-324.5 898.73,-307.32 943.3,-281.78 970.07,-265.65"/>
<polygon fill="#9a32cd" stroke="#9a32cd" points="738.48,-356.49 729.72,-362.46 740.29,-363.26 738.48,-356.49"/>
<text text-anchor="middle" x="830" y="-344.5" font-family="Helvetica,sans-Serif" font-size="10.00"> playerCargo</text>
</g>
<!-- Node6 -->
<g id="node6" class="node">
<title>Node6</title>
<g id="a_node6"><a xlink:href="interfacecom_1_1fs_1_1starfarer_1_1api_1_1campaign_1_1FactionAPI.html" target="_top" xlink:title=" ">
<polygon fill="none" stroke="black" points="393,-294.5 393,-324.5 539,-324.5 539,-294.5 393,-294.5"/>
<text text-anchor="start" x="401" y="-312.5" font-family="Helvetica,sans-Serif" font-size="10.00">com.fs.starfarer.api.campaign.</text>
<text text-anchor="middle" x="466" y="-301.5" font-family="Helvetica,sans-Serif" font-size="10.00">FactionAPI</text>
</a>
</g>
</g>
<!-- Node6&#45;&gt;Node1 -->
<g id="edge5" class="edge">
<title>Node6&#45;&gt;Node1</title>
<path fill="none" stroke="#9a32cd" stroke-dasharray="5,2" d="M549.75,-305.46C629.1,-300.95 752.12,-292.26 858,-277.5 880.37,-274.38 904.61,-269.94 926.37,-265.56"/>
<polygon fill="#9a32cd" stroke="#9a32cd" points="549.12,-301.99 539.33,-306.05 549.51,-308.98 549.12,-301.99"/>
<text text-anchor="middle" x="670.5" y="-329.5" font-family="Helvetica,sans-Serif" font-size="10.00"> entityFaction</text>
<text text-anchor="middle" x="670.5" y="-318.5" font-family="Helvetica,sans-Serif" font-size="10.00">faction</text>
<text text-anchor="middle" x="670.5" y="-307.5" font-family="Helvetica,sans-Serif" font-size="10.00">playerFaction</text>
</g>
<!-- Node7 -->
<g id="node7" class="node">
<title>Node7</title>
<g id="a_node7"><a xlink:href="interfacecom_1_1fs_1_1starfarer_1_1api_1_1campaign_1_1rules_1_1HasMemory.html" target="_top" xlink:title=" ">
<polygon fill="none" stroke="black" points="0,-270.5 0,-300.5 169,-300.5 169,-270.5 0,-270.5"/>
<text text-anchor="start" x="8" y="-288.5" font-family="Helvetica,sans-Serif" font-size="10.00">com.fs.starfarer.api.campaign.rules.</text>
<text text-anchor="middle" x="84.5" y="-277.5" font-family="Helvetica,sans-Serif" font-size="10.00">HasMemory</text>
</a>
</g>
</g>
<!-- Node7&#45;&gt;Node6 -->
<g id="edge6" class="edge">
<title>Node7&#45;&gt;Node6</title>
<path fill="none" stroke="midnightblue" d="M179.25,-291.43C245.27,-295.6 332.36,-301.11 392.96,-304.94"/>
<polygon fill="midnightblue" stroke="midnightblue" points="179.45,-287.93 169.25,-290.8 179.01,-294.92 179.45,-287.93"/>
</g>
<!-- Node8 -->
<g id="node8" class="node">
<title>Node8</title>
<g id="a_node8"><a xlink:href="interfacecom_1_1fs_1_1starfarer_1_1api_1_1campaign_1_1SectorEntityToken.html" target="_top" xlink:title=" ">
<polygon fill="none" stroke="black" points="217.5,-248.5 217.5,-278.5 363.5,-278.5 363.5,-248.5 217.5,-248.5"/>
<text text-anchor="start" x="225.5" y="-266.5" font-family="Helvetica,sans-Serif" font-size="10.00">com.fs.starfarer.api.campaign.</text>
<text text-anchor="middle" x="290.5" y="-255.5" font-family="Helvetica,sans-Serif" font-size="10.00">SectorEntityToken</text>
</a>
</g>
</g>
<!-- Node7&#45;&gt;Node8 -->
<g id="edge8" class="edge">
<title>Node7&#45;&gt;Node8</title>
<path fill="none" stroke="midnightblue" d="M179.3,-275.38C192.13,-274 205.13,-272.6 217.49,-271.27"/>
<polygon fill="midnightblue" stroke="midnightblue" points="178.63,-271.94 169.06,-276.49 179.38,-278.9 178.63,-271.94"/>
</g>
<!-- Node8&#45;&gt;Node1 -->
<g id="edge7" class="edge">
<title>Node8&#45;&gt;Node1</title>
<path fill="none" stroke="#9a32cd" stroke-dasharray="5,2" d="M373.95,-261.98C498.03,-259.68 733.36,-255.33 875.86,-252.69"/>
<polygon fill="#9a32cd" stroke="#9a32cd" points="373.69,-258.48 363.76,-262.16 373.82,-265.48 373.69,-258.48"/>
<text text-anchor="middle" x="670.5" y="-261.5" font-family="Helvetica,sans-Serif" font-size="10.00"> entity</text>
</g>
<!-- Node9 -->
<g id="node9" class="node">
<title>Node9</title>
<g id="a_node9"><a xlink:href="interfacecom_1_1fs_1_1starfarer_1_1api_1_1campaign_1_1CampaignFleetAPI.html" target="_top" xlink:title=" ">
<polygon fill="none" stroke="black" points="597.5,-196.5 597.5,-226.5 743.5,-226.5 743.5,-196.5 597.5,-196.5"/>
<text text-anchor="start" x="605.5" y="-214.5" font-family="Helvetica,sans-Serif" font-size="10.00">com.fs.starfarer.api.campaign.</text>
<text text-anchor="middle" x="670.5" y="-203.5" font-family="Helvetica,sans-Serif" font-size="10.00">CampaignFleetAPI</text>
</a>
</g>
</g>
<!-- Node8&#45;&gt;Node9 -->
<g id="edge10" class="edge">
<title>Node8&#45;&gt;Node9</title>
<path fill="none" stroke="midnightblue" d="M373.99,-252.15C440.65,-242.98 533.56,-230.2 597.31,-221.43"/>
<polygon fill="midnightblue" stroke="midnightblue" points="373.36,-248.71 363.93,-253.54 374.32,-255.64 373.36,-248.71"/>
</g>
<!-- Node9&#45;&gt;Node1 -->
<g id="edge9" class="edge">
<title>Node9&#45;&gt;Node1</title>
<path fill="none" stroke="#9a32cd" stroke-dasharray="5,2" d="M753.82,-221.44C790.82,-225.91 835.2,-231.27 875.71,-236.16"/>
<polygon fill="#9a32cd" stroke="#9a32cd" points="753.93,-217.93 743.59,-220.2 753.09,-224.88 753.93,-217.93"/>
<text text-anchor="middle" x="830" y="-235.5" font-family="Helvetica,sans-Serif" font-size="10.00"> playerFleet</text>
</g>
<!-- Node10 -->
<g id="node10" class="node">
<title>Node10</title>
<g id="a_node10"><a xlink:href="interfacecom_1_1fs_1_1starfarer_1_1api_1_1campaign_1_1FleetOrStubAPI.html" target="_top" xlink:title=" ">
<polygon fill="none" stroke="black" points="217.5,-196.5 217.5,-226.5 363.5,-226.5 363.5,-196.5 217.5,-196.5"/>
<text text-anchor="start" x="225.5" y="-214.5" font-family="Helvetica,sans-Serif" font-size="10.00">com.fs.starfarer.api.campaign.</text>
<text text-anchor="middle" x="290.5" y="-203.5" font-family="Helvetica,sans-Serif" font-size="10.00">FleetOrStubAPI</text>
</a>
</g>
</g>
<!-- Node10&#45;&gt;Node9 -->
<g id="edge11" class="edge">
<title>Node10&#45;&gt;Node9</title>
<path fill="none" stroke="midnightblue" d="M373.99,-211.5C440.65,-211.5 533.56,-211.5 597.31,-211.5"/>
<polygon fill="midnightblue" stroke="midnightblue" points="373.93,-208 363.93,-211.5 373.93,-215 373.93,-208"/>
</g>
<!-- Node11 -->
<g id="node11" class="node">
<title>Node11</title>
<g id="a_node11"><a xlink:href="interfacecom_1_1fs_1_1starfarer_1_1api_1_1campaign_1_1OptionPanelAPI.html" target="_top" xlink:title=" ">
<polygon fill="none" stroke="black" points="597.5,-147.5 597.5,-177.5 743.5,-177.5 743.5,-147.5 597.5,-147.5"/>
<text text-anchor="start" x="605.5" y="-165.5" font-family="Helvetica,sans-Serif" font-size="10.00">com.fs.starfarer.api.campaign.</text>
<text text-anchor="middle" x="670.5" y="-154.5" font-family="Helvetica,sans-Serif" font-size="10.00">OptionPanelAPI</text>
</a>
</g>
</g>
<!-- Node11&#45;&gt;Node1 -->
<g id="edge12" class="edge">
<title>Node11&#45;&gt;Node1</title>
<path fill="none" stroke="#9a32cd" stroke-dasharray="5,2" d="M752.83,-179.84C763.35,-182.3 773.95,-184.88 784,-187.5 840.67,-202.26 905.06,-221.97 947.54,-235.38"/>
<polygon fill="#9a32cd" stroke="#9a32cd" points="753.33,-176.37 742.8,-177.53 751.76,-183.19 753.33,-176.37"/>
<text text-anchor="middle" x="830" y="-209.5" font-family="Helvetica,sans-Serif" font-size="10.00"> options</text>
</g>
<!-- Node12 -->
<g id="node12" class="node">
<title>Node12</title>
<g id="a_node12"><a xlink:href="interfacecom_1_1fs_1_1starfarer_1_1api_1_1campaign_1_1rules_1_1MemoryAPI.html" target="_top" xlink:title=" ">
<polygon fill="none" stroke="black" points="586,-98.5 586,-128.5 755,-128.5 755,-98.5 586,-98.5"/>
<text text-anchor="start" x="594" y="-116.5" font-family="Helvetica,sans-Serif" font-size="10.00">com.fs.starfarer.api.campaign.rules.</text>
<text text-anchor="middle" x="670.5" y="-105.5" font-family="Helvetica,sans-Serif" font-size="10.00">MemoryAPI</text>
</a>
</g>
</g>
<!-- Node12&#45;&gt;Node1 -->
<g id="edge13" class="edge">
<title>Node12&#45;&gt;Node1</title>
<path fill="none" stroke="#9a32cd" stroke-dasharray="5,2" d="M761.59,-131.23C769.25,-133.42 776.81,-135.84 784,-138.5 855.64,-164.96 933.36,-211.46 971.18,-235.36"/>
<polygon fill="#9a32cd" stroke="#9a32cd" points="762.43,-127.83 751.86,-128.56 760.58,-134.58 762.43,-127.83"/>
<text text-anchor="middle" x="830" y="-172.5" font-family="Helvetica,sans-Serif" font-size="10.00"> memory</text>
</g>
<!-- Node13 -->
<g id="node13" class="node">
<title>Node13</title>
<g id="a_node13"><a xlink:href="interfacecom_1_1fs_1_1starfarer_1_1api_1_1campaign_1_1TextPanelAPI.html" target="_top" xlink:title=" ">
<polygon fill="none" stroke="black" points="597.5,-49.5 597.5,-79.5 743.5,-79.5 743.5,-49.5 597.5,-49.5"/>
<text text-anchor="start" x="605.5" y="-67.5" font-family="Helvetica,sans-Serif" font-size="10.00">com.fs.starfarer.api.campaign.</text>
<text text-anchor="middle" x="670.5" y="-56.5" font-family="Helvetica,sans-Serif" font-size="10.00">TextPanelAPI</text>
</a>
</g>
</g>
<!-- Node13&#45;&gt;Node1 -->
<g id="edge14" class="edge">
<title>Node13&#45;&gt;Node1</title>
<path fill="none" stroke="#9a32cd" stroke-dasharray="5,2" d="M753.55,-79.63C763.95,-82.44 774.33,-85.72 784,-89.5 869.49,-122.91 949.57,-202.02 980.76,-235.32"/>
<polygon fill="#9a32cd" stroke="#9a32cd" points="754.16,-76.17 743.6,-77.06 752.41,-82.95 754.16,-76.17"/>
<text text-anchor="middle" x="830" y="-129.5" font-family="Helvetica,sans-Serif" font-size="10.00"> text</text>
</g>
<!-- Node14 -->
<g id="node14" class="node">
<title>Node14</title>
<g id="a_node14"><a xlink:href="interfacecom_1_1fs_1_1starfarer_1_1api_1_1campaign_1_1InteractionDialogAPI.html" target="_top" xlink:title=" ">
<polygon fill="none" stroke="black" points="597.5,-0.5 597.5,-30.5 743.5,-30.5 743.5,-0.5 597.5,-0.5"/>
<text text-anchor="start" x="605.5" y="-18.5" font-family="Helvetica,sans-Serif" font-size="10.00">com.fs.starfarer.api.campaign.</text>
<text text-anchor="middle" x="670.5" y="-7.5" font-family="Helvetica,sans-Serif" font-size="10.00">InteractionDialogAPI</text>
</a>
</g>
</g>
<!-- Node14&#45;&gt;Node1 -->
<g id="edge15" class="edge">
<title>Node14&#45;&gt;Node1</title>
<path fill="none" stroke="#9a32cd" stroke-dasharray="5,2" d="M753.52,-30.72C763.92,-33.52 774.31,-36.77 784,-40.5 819.29,-54.09 829.13,-58.07 858,-82.5 914.51,-130.33 964.88,-204.03 985.1,-235.46"/>
<polygon fill="#9a32cd" stroke="#9a32cd" points="754.12,-27.26 743.56,-28.16 752.38,-34.04 754.12,-27.26"/>
<text text-anchor="middle" x="830" y="-85.5" font-family="Helvetica,sans-Serif" font-size="10.00"> dialog</text>
</g>
</g>
</svg>
