<?xml version="1.0" encoding="UTF-8" standalone="no"?>
<!DOCTYPE svg PUBLIC "-//W3C//DTD SVG 1.1//EN"
 "http://www.w3.org/Graphics/SVG/1.1/DTD/svg11.dtd">
<!-- Generated by graphviz version 2.44.0 ()
 -->
<!-- Title: com.fs.starfarer.api.impl.campaign.econ.impl.Cryorevival Pages: 1 -->
<svg width="1057pt" height="358pt"
 viewBox="0.00 0.00 1057.00 358.15" xmlns="http://www.w3.org/2000/svg" xmlns:xlink="http://www.w3.org/1999/xlink">
<g id="graph0" class="graph" transform="scale(1 1) rotate(0) translate(4 354.15)">
<title>com.fs.starfarer.api.impl.campaign.econ.impl.Cryorevival</title>
<!-- Node1 -->
<g id="node1" class="node">
<title>Node1</title>
<g id="a_node1"><a xlink:title=" ">
<polygon fill="#bfbfbf" stroke="black" points="840,-160.65 840,-190.65 1049,-190.65 1049,-160.65 840,-160.65"/>
<text text-anchor="start" x="848" y="-178.65" font-family="Helvetica,sans-Serif" font-size="10.00">com.fs.starfarer.api.impl.campaign.econ.impl.</text>
<text text-anchor="middle" x="944.5" y="-167.65" font-family="Helvetica,sans-Serif" font-size="10.00">Cryorevival</text>
</a>
</g>
</g>
<!-- Node2 -->
<g id="node2" class="node">
<title>Node2</title>
<g id="a_node2"><a xlink:href="classcom_1_1fs_1_1starfarer_1_1api_1_1impl_1_1campaign_1_1econ_1_1impl_1_1BaseIndustry.html" target="_top" xlink:title=" ">
<polygon fill="none" stroke="black" points="594,-197.65 594,-227.65 803,-227.65 803,-197.65 594,-197.65"/>
<text text-anchor="start" x="602" y="-215.65" font-family="Helvetica,sans-Serif" font-size="10.00">com.fs.starfarer.api.impl.campaign.econ.impl.</text>
<text text-anchor="middle" x="698.5" y="-204.65" font-family="Helvetica,sans-Serif" font-size="10.00">BaseIndustry</text>
</a>
</g>
</g>
<!-- Node2&#45;&gt;Node1 -->
<g id="edge1" class="edge">
<title>Node2&#45;&gt;Node1</title>
<path fill="none" stroke="midnightblue" d="M808.67,-196.1C820.55,-194.3 832.59,-192.47 844.34,-190.69"/>
<polygon fill="midnightblue" stroke="midnightblue" points="808.11,-192.64 798.74,-197.6 809.16,-199.57 808.11,-192.64"/>
</g>
<!-- Node3 -->
<g id="node3" class="node">
<title>Node3</title>
<g id="a_node3"><a xlink:href="interfacecom_1_1fs_1_1starfarer_1_1api_1_1campaign_1_1econ_1_1Industry.html" target="_top" xlink:title=" ">
<polygon fill="none" stroke="black" points="235,-319.65 235,-349.65 404,-349.65 404,-319.65 235,-319.65"/>
<text text-anchor="start" x="243" y="-337.65" font-family="Helvetica,sans-Serif" font-size="10.00">com.fs.starfarer.api.campaign.econ.</text>
<text text-anchor="middle" x="319.5" y="-326.65" font-family="Helvetica,sans-Serif" font-size="10.00">Industry</text>
</a>
</g>
</g>
<!-- Node3&#45;&gt;Node2 -->
<g id="edge2" class="edge">
<title>Node3&#45;&gt;Node2</title>
<path fill="none" stroke="midnightblue" d="M399.18,-317.39C410.54,-314.84 422.07,-312.2 433,-309.65 496.72,-294.78 514.67,-297.45 576,-274.65 610.63,-261.78 648.17,-241.57 672.22,-227.75"/>
<polygon fill="midnightblue" stroke="midnightblue" points="398.26,-314.01 389.27,-319.62 399.79,-320.84 398.26,-314.01"/>
</g>
<!-- Node4 -->
<g id="node4" class="node">
<title>Node4</title>
<g id="a_node4"><a xlink:title=" ">
<polygon fill="none" stroke="#bfbfbf" points="290,-281.15 290,-300.15 349,-300.15 349,-281.15 290,-281.15"/>
<text text-anchor="middle" x="319.5" y="-288.15" font-family="Helvetica,sans-Serif" font-size="10.00">Cloneable</text>
</a>
</g>
</g>
<!-- Node4&#45;&gt;Node2 -->
<g id="edge3" class="edge">
<title>Node4&#45;&gt;Node2</title>
<path fill="none" stroke="midnightblue" d="M359.21,-286.11C409.54,-279.83 500,-267.24 576,-249.65 601.89,-243.66 630.32,-235.12 653.17,-227.74"/>
<polygon fill="midnightblue" stroke="midnightblue" points="358.6,-282.66 349.1,-287.36 359.45,-289.61 358.6,-282.66"/>
</g>
<!-- Node5 -->
<g id="node5" class="node">
<title>Node5</title>
<g id="a_node5"><a xlink:href="interfacecom_1_1fs_1_1starfarer_1_1api_1_1loading_1_1IndustrySpecAPI.html" target="_top" xlink:title=" ">
<polygon fill="none" stroke="black" points="252.5,-231.65 252.5,-261.65 386.5,-261.65 386.5,-231.65 252.5,-231.65"/>
<text text-anchor="start" x="260.5" y="-249.65" font-family="Helvetica,sans-Serif" font-size="10.00">com.fs.starfarer.api.loading.</text>
<text text-anchor="middle" x="319.5" y="-238.65" font-family="Helvetica,sans-Serif" font-size="10.00">IndustrySpecAPI</text>
</a>
</g>
</g>
<!-- Node5&#45;&gt;Node2 -->
<g id="edge4" class="edge">
<title>Node5&#45;&gt;Node2</title>
<path fill="none" stroke="#9a32cd" stroke-dasharray="5,2" d="M396.57,-239.79C453.26,-234.68 531.32,-227.64 593.74,-222.01"/>
<polygon fill="#9a32cd" stroke="#9a32cd" points="396.24,-236.31 386.6,-240.69 396.87,-243.28 396.24,-236.31"/>
<text text-anchor="middle" x="513.5" y="-237.65" font-family="Helvetica,sans-Serif" font-size="10.00"> spec</text>
</g>
<!-- Node6 -->
<g id="node6" class="node">
<title>Node6</title>
<g id="a_node6"><a xlink:href="interfacecom_1_1fs_1_1starfarer_1_1api_1_1campaign_1_1econ_1_1MarketAPI.html" target="_top" xlink:title=" ">
<polygon fill="none" stroke="black" points="235,-182.65 235,-212.65 404,-212.65 404,-182.65 235,-182.65"/>
<text text-anchor="start" x="243" y="-200.65" font-family="Helvetica,sans-Serif" font-size="10.00">com.fs.starfarer.api.campaign.econ.</text>
<text text-anchor="middle" x="319.5" y="-189.65" font-family="Helvetica,sans-Serif" font-size="10.00">MarketAPI</text>
</a>
</g>
</g>
<!-- Node6&#45;&gt;Node2 -->
<g id="edge5" class="edge">
<title>Node6&#45;&gt;Node2</title>
<path fill="none" stroke="#9a32cd" stroke-dasharray="5,2" d="M414.19,-201.38C468.76,-203.55 537.68,-206.29 593.88,-208.53"/>
<polygon fill="#9a32cd" stroke="#9a32cd" points="414.3,-197.88 404.17,-200.98 414.02,-204.88 414.3,-197.88"/>
<text text-anchor="middle" x="513.5" y="-210.65" font-family="Helvetica,sans-Serif" font-size="10.00"> market</text>
</g>
<!-- Node7 -->
<g id="node7" class="node">
<title>Node7</title>
<g id="a_node7"><a xlink:href="interfacecom_1_1fs_1_1starfarer_1_1api_1_1campaign_1_1rules_1_1HasMemory.html" target="_top" xlink:title=" ">
<polygon fill="none" stroke="black" points="0,-182.65 0,-212.65 169,-212.65 169,-182.65 0,-182.65"/>
<text text-anchor="start" x="8" y="-200.65" font-family="Helvetica,sans-Serif" font-size="10.00">com.fs.starfarer.api.campaign.rules.</text>
<text text-anchor="middle" x="84.5" y="-189.65" font-family="Helvetica,sans-Serif" font-size="10.00">HasMemory</text>
</a>
</g>
</g>
<!-- Node7&#45;&gt;Node6 -->
<g id="edge6" class="edge">
<title>Node7&#45;&gt;Node6</title>
<path fill="none" stroke="midnightblue" d="M179.36,-197.65C197.66,-197.65 216.73,-197.65 234.67,-197.65"/>
<polygon fill="midnightblue" stroke="midnightblue" points="179.29,-194.15 169.29,-197.65 179.29,-201.15 179.29,-194.15"/>
</g>
<!-- Node8 -->
<g id="node8" class="node">
<title>Node8</title>
<g id="a_node8"><a xlink:href="classcom_1_1fs_1_1starfarer_1_1api_1_1combat_1_1MutableStat.html" target="_top" xlink:title=" ">
<polygon fill="none" stroke="black" points="251.5,-110.65 251.5,-140.65 387.5,-140.65 387.5,-110.65 251.5,-110.65"/>
<text text-anchor="start" x="259.5" y="-128.65" font-family="Helvetica,sans-Serif" font-size="10.00">com.fs.starfarer.api.combat.</text>
<text text-anchor="middle" x="319.5" y="-117.65" font-family="Helvetica,sans-Serif" font-size="10.00">MutableStat</text>
</a>
</g>
</g>
<!-- Node8&#45;&gt;Node2 -->
<g id="edge7" class="edge">
<title>Node8&#45;&gt;Node2</title>
<path fill="none" stroke="#9a32cd" stroke-dasharray="5,2" d="M397.71,-118.31C462.51,-113.82 548.74,-112.32 576,-132.65 596.62,-148.03 575.11,-170.2 594,-187.65 598.07,-191.42 602.61,-194.64 607.46,-197.4"/>
<polygon fill="#9a32cd" stroke="#9a32cd" points="397.22,-114.84 387.5,-119.05 397.73,-121.82 397.22,-114.84"/>
<text text-anchor="middle" x="513.5" y="-190.65" font-family="Helvetica,sans-Serif" font-size="10.00"> demandReduction</text>
<text text-anchor="middle" x="513.5" y="-179.65" font-family="Helvetica,sans-Serif" font-size="10.00">demandReductionFromOther</text>
<text text-anchor="middle" x="513.5" y="-168.65" font-family="Helvetica,sans-Serif" font-size="10.00">income</text>
<text text-anchor="middle" x="513.5" y="-157.65" font-family="Helvetica,sans-Serif" font-size="10.00">supplyBonus</text>
<text text-anchor="middle" x="513.5" y="-146.65" font-family="Helvetica,sans-Serif" font-size="10.00">supplyBonusFromOther</text>
<text text-anchor="middle" x="513.5" y="-135.65" font-family="Helvetica,sans-Serif" font-size="10.00">upkeep</text>
</g>
<!-- Node9 -->
<g id="node9" class="node">
<title>Node9</title>
<g id="a_node9"><a xlink:title=" ">
<polygon fill="none" stroke="#bfbfbf" points="206,-61.65 206,-91.65 433,-91.65 433,-61.65 206,-61.65"/>
<text text-anchor="start" x="214" y="-79.65" font-family="Helvetica,sans-Serif" font-size="10.00">Map&lt; String, com.fs.starfarer.api.campaign.econ.</text>
<text text-anchor="middle" x="319.5" y="-68.65" font-family="Helvetica,sans-Serif" font-size="10.00">MutableCommodityQuantity &gt;</text>
</a>
</g>
</g>
<!-- Node9&#45;&gt;Node2 -->
<g id="edge8" class="edge">
<title>Node9&#45;&gt;Node2</title>
<path fill="none" stroke="#9a32cd" stroke-dasharray="5,2" d="M385.89,-59.62C443.06,-48.98 524.73,-44.69 576,-89.65 609.29,-118.85 563.56,-155.49 594,-187.65 597.56,-191.41 601.57,-194.65 605.91,-197.43"/>
<polygon fill="#9a32cd" stroke="#9a32cd" points="385.01,-56.23 375.87,-61.6 386.36,-63.1 385.01,-56.23"/>
<text text-anchor="middle" x="513.5" y="-103.65" font-family="Helvetica,sans-Serif" font-size="10.00"> demand</text>
<text text-anchor="middle" x="513.5" y="-92.65" font-family="Helvetica,sans-Serif" font-size="10.00">supply</text>
</g>
<!-- Node10 -->
<g id="node10" class="node">
<title>Node10</title>
<g id="a_node10"><a xlink:href="classcom_1_1fs_1_1starfarer_1_1api_1_1campaign_1_1SpecialItemData.html" target="_top" xlink:title=" ">
<polygon fill="none" stroke="black" points="246.5,-12.65 246.5,-42.65 392.5,-42.65 392.5,-12.65 246.5,-12.65"/>
<text text-anchor="start" x="254.5" y="-30.65" font-family="Helvetica,sans-Serif" font-size="10.00">com.fs.starfarer.api.campaign.</text>
<text text-anchor="middle" x="319.5" y="-19.65" font-family="Helvetica,sans-Serif" font-size="10.00">SpecialItemData</text>
</a>
</g>
</g>
<!-- Node10&#45;&gt;Node2 -->
<g id="edge9" class="edge">
<title>Node10&#45;&gt;Node2</title>
<path fill="none" stroke="#9a32cd" stroke-dasharray="5,2" d="M380.2,-10.3C437.92,2.46 524.06,10.27 576,-37.65 625.35,-83.19 549.39,-137.47 594,-187.65 597.32,-191.38 601.08,-194.61 605.17,-197.38"/>
<polygon fill="#9a32cd" stroke="#9a32cd" points="379.07,-6.97 370.12,-12.64 380.65,-13.79 379.07,-6.97"/>
<text text-anchor="middle" x="513.5" y="-40.65" font-family="Helvetica,sans-Serif" font-size="10.00"> special</text>
</g>
<!-- Node11 -->
<g id="node11" class="node">
<title>Node11</title>
<g id="a_node11"><a xlink:href="interfacecom_1_1fs_1_1starfarer_1_1api_1_1campaign_1_1econ_1_1MarketImmigrationModifier.html" target="_top" xlink:title=" ">
<polygon fill="none" stroke="black" points="614,-148.65 614,-178.65 783,-178.65 783,-148.65 614,-148.65"/>
<text text-anchor="start" x="622" y="-166.65" font-family="Helvetica,sans-Serif" font-size="10.00">com.fs.starfarer.api.campaign.econ.</text>
<text text-anchor="middle" x="698.5" y="-155.65" font-family="Helvetica,sans-Serif" font-size="10.00">MarketImmigrationModifier</text>
</a>
</g>
</g>
<!-- Node11&#45;&gt;Node1 -->
<g id="edge10" class="edge">
<title>Node11&#45;&gt;Node1</title>
<path fill="none" stroke="midnightblue" d="M793.49,-168.28C808.62,-169.02 824.36,-169.79 839.7,-170.55"/>
<polygon fill="midnightblue" stroke="midnightblue" points="793.29,-164.76 783.13,-167.77 792.95,-171.75 793.29,-164.76"/>
</g>
</g>
</svg>
