<?xml version="1.0" encoding="UTF-8" standalone="no"?>
<!DOCTYPE svg PUBLIC "-//W3C//DTD SVG 1.1//EN"
 "http://www.w3.org/Graphics/SVG/1.1/DTD/svg11.dtd">
<!-- Generated by graphviz version 2.49.3 (20211027.1501)
 -->
<!-- Title: com.fs.starfarer.api.impl.campaign.intel.PersonBountyIntel Pages: 1 -->
<svg width="995pt" height="361pt"
 viewBox="0.00 0.00 995.00 360.50" xmlns="http://www.w3.org/2000/svg" xmlns:xlink="http://www.w3.org/1999/xlink">
<g id="graph0" class="graph" transform="scale(1 1) rotate(0) translate(4 356.5)">
<title>com.fs.starfarer.api.impl.campaign.intel.PersonBountyIntel</title>
<!-- Node1 -->
<g id="node1" class="node">
<title>Node1</title>
<g id="a_node1"><a xlink:title=" ">
<polygon fill="#bfbfbf" stroke="black" points="801,-130 801,-160 987,-160 987,-130 801,-130"/>
<text text-anchor="start" x="809" y="-148" font-family="Helvetica,sans-Serif" font-size="10.00">com.fs.starfarer.api.impl.campaign.intel.</text>
<text text-anchor="middle" x="894" y="-137" font-family="Helvetica,sans-Serif" font-size="10.00">PersonBountyIntel</text>
</a>
</g>
</g>
<!-- Node2 -->
<g id="node2" class="node">
<title>Node2</title>
<g id="a_node2"><a xlink:href="classcom_1_1fs_1_1starfarer_1_1api_1_1impl_1_1campaign_1_1intel_1_1BaseIntelPlugin.html" target="_top" xlink:title=" ">
<polygon fill="none" stroke="black" points="552,-221 552,-251 738,-251 738,-221 552,-221"/>
<text text-anchor="start" x="560" y="-239" font-family="Helvetica,sans-Serif" font-size="10.00">com.fs.starfarer.api.impl.campaign.intel.</text>
<text text-anchor="middle" x="645" y="-228" font-family="Helvetica,sans-Serif" font-size="10.00">BaseIntelPlugin</text>
</a>
</g>
</g>
<!-- Node2&#45;&gt;Node1 -->
<g id="edge1" class="edge">
<title>Node2&#45;&gt;Node1</title>
<path fill="none" stroke="midnightblue" d="M732.95,-218.51C749.78,-214.16 767.12,-208.99 783,-203 813.7,-191.42 846.73,-173.14 868.49,-160.2"/>
<polygon fill="midnightblue" stroke="midnightblue" points="731.95,-215.15 723.11,-220.98 733.66,-221.94 731.95,-215.15"/>
</g>
<!-- Node3 -->
<g id="node3" class="node">
<title>Node3</title>
<g id="a_node3"><a xlink:href="interfacecom_1_1fs_1_1starfarer_1_1api_1_1campaign_1_1comm_1_1IntelInfoPlugin.html" target="_top" xlink:title=" ">
<polygon fill="none" stroke="black" points="237.5,-224 237.5,-254 412.5,-254 412.5,-224 237.5,-224"/>
<text text-anchor="start" x="245.5" y="-242" font-family="Helvetica,sans-Serif" font-size="10.00">com.fs.starfarer.api.campaign.comm.</text>
<text text-anchor="middle" x="325" y="-231" font-family="Helvetica,sans-Serif" font-size="10.00">IntelInfoPlugin</text>
</a>
</g>
</g>
<!-- Node3&#45;&gt;Node2 -->
<g id="edge2" class="edge">
<title>Node3&#45;&gt;Node2</title>
<path fill="none" stroke="midnightblue" d="M422.9,-238.09C463.91,-237.7 511.46,-237.25 551.93,-236.87"/>
<polygon fill="midnightblue" stroke="midnightblue" points="422.86,-234.59 412.89,-238.18 422.93,-241.59 422.86,-234.59"/>
</g>
<!-- Node4 -->
<g id="node4" class="node">
<title>Node4</title>
<g id="a_node4"><a xlink:title=" ">
<polygon fill="none" stroke="#bfbfbf" points="223.5,-126 223.5,-156 426.5,-156 426.5,-126 223.5,-126"/>
<text text-anchor="start" x="231.5" y="-144" font-family="Helvetica,sans-Serif" font-size="10.00">com.fs.starfarer.api.impl.campaign.rulecmd.</text>
<text text-anchor="middle" x="325" y="-133" font-family="Helvetica,sans-Serif" font-size="10.00">CallEvent.CallableEvent</text>
</a>
</g>
</g>
<!-- Node4&#45;&gt;Node2 -->
<g id="edge3" class="edge">
<title>Node4&#45;&gt;Node2</title>
<path fill="none" stroke="midnightblue" d="M413.62,-158.26C423.91,-160.67 434.22,-163.26 444,-166 501.22,-182 565.84,-205.67 605.75,-220.97"/>
<polygon fill="midnightblue" stroke="midnightblue" points="414.31,-154.82 403.78,-156 412.75,-161.65 414.31,-154.82"/>
</g>
<!-- Node5 -->
<g id="node5" class="node">
<title>Node5</title>
<g id="a_node5"><a xlink:href="interfacecom_1_1fs_1_1starfarer_1_1api_1_1EveryFrameScript.html" target="_top" xlink:title=" ">
<polygon fill="none" stroke="black" points="262.5,-175 262.5,-205 387.5,-205 387.5,-175 262.5,-175"/>
<text text-anchor="start" x="270.5" y="-193" font-family="Helvetica,sans-Serif" font-size="10.00">com.fs.starfarer.api.Every</text>
<text text-anchor="middle" x="325" y="-182" font-family="Helvetica,sans-Serif" font-size="10.00">FrameScript</text>
</a>
</g>
</g>
<!-- Node5&#45;&gt;Node1 -->
<g id="edge8" class="edge">
<title>Node5&#45;&gt;Node1</title>
<path fill="none" stroke="midnightblue" d="M397.59,-188.94C479.91,-187.16 619.03,-182.44 738,-170 761.72,-167.52 787.33,-163.81 810.78,-160.01"/>
<polygon fill="midnightblue" stroke="midnightblue" points="397.51,-185.44 387.59,-189.15 397.66,-192.44 397.51,-185.44"/>
</g>
<!-- Node5&#45;&gt;Node2 -->
<g id="edge4" class="edge">
<title>Node5&#45;&gt;Node2</title>
<path fill="none" stroke="midnightblue" d="M397.78,-200.38C443.33,-206.97 502.72,-215.56 551.75,-222.66"/>
<polygon fill="midnightblue" stroke="midnightblue" points="398.09,-196.89 387.69,-198.92 397.09,-203.82 398.09,-196.89"/>
</g>
<!-- Node6 -->
<g id="node6" class="node">
<title>Node6</title>
<g id="a_node6"><a xlink:title=" ">
<polygon fill="none" stroke="#bfbfbf" points="206,-322 206,-352 444,-352 444,-322 206,-322"/>
<text text-anchor="start" x="214" y="-340" font-family="Helvetica,sans-Serif" font-size="10.00">com.fs.starfarer.api.impl.campaign.</text>
<text text-anchor="middle" x="325" y="-329" font-family="Helvetica,sans-Serif" font-size="10.00">CommRelayEntityPlugin.CommSnifferReadableIntel</text>
</a>
</g>
</g>
<!-- Node6&#45;&gt;Node2 -->
<g id="edge5" class="edge">
<title>Node6&#45;&gt;Node2</title>
<path fill="none" stroke="midnightblue" d="M417.95,-319.71C426.79,-317.62 435.6,-315.38 444,-313 504.14,-295.96 571.48,-268.13 610.67,-251"/>
<polygon fill="midnightblue" stroke="midnightblue" points="416.92,-316.35 407.95,-322 418.48,-323.18 416.92,-316.35"/>
</g>
<!-- Node7 -->
<g id="node7" class="node">
<title>Node7</title>
<g id="a_node7"><a xlink:href="interfacecom_1_1fs_1_1starfarer_1_1api_1_1campaign_1_1SectorEntityToken.html" target="_top" xlink:title=" ">
<polygon fill="none" stroke="black" points="252,-273 252,-303 398,-303 398,-273 252,-273"/>
<text text-anchor="start" x="260" y="-291" font-family="Helvetica,sans-Serif" font-size="10.00">com.fs.starfarer.api.campaign.</text>
<text text-anchor="middle" x="325" y="-280" font-family="Helvetica,sans-Serif" font-size="10.00">SectorEntityToken</text>
</a>
</g>
</g>
<!-- Node7&#45;&gt;Node2 -->
<g id="edge6" class="edge">
<title>Node7&#45;&gt;Node2</title>
<path fill="none" stroke="#9a32cd" stroke-dasharray="5,2" d="M408.26,-274.55C452.32,-267.34 506.72,-258.45 552.16,-251.02"/>
<polygon fill="#9a32cd" stroke="#9a32cd" points="407.46,-271.13 398.16,-276.2 408.59,-278.04 407.46,-271.13"/>
<text text-anchor="middle" x="498" y="-268" font-family="Helvetica,sans-Serif" font-size="10.00"> postingLocation</text>
</g>
<!-- Node8 -->
<g id="node8" class="node">
<title>Node8</title>
<g id="a_node8"><a xlink:href="interfacecom_1_1fs_1_1starfarer_1_1api_1_1campaign_1_1rules_1_1HasMemory.html" target="_top" xlink:title=" ">
<polygon fill="none" stroke="black" points="0,-273 0,-303 169,-303 169,-273 0,-273"/>
<text text-anchor="start" x="8" y="-291" font-family="Helvetica,sans-Serif" font-size="10.00">com.fs.starfarer.api.campaign.rules.</text>
<text text-anchor="middle" x="84.5" y="-280" font-family="Helvetica,sans-Serif" font-size="10.00">HasMemory</text>
</a>
</g>
</g>
<!-- Node8&#45;&gt;Node7 -->
<g id="edge7" class="edge">
<title>Node8&#45;&gt;Node7</title>
<path fill="none" stroke="midnightblue" d="M179.48,-288C203.58,-288 229.13,-288 251.94,-288"/>
<polygon fill="midnightblue" stroke="midnightblue" points="179.25,-284.5 169.25,-288 179.25,-291.5 179.25,-284.5"/>
</g>
<!-- Node9 -->
<g id="node9" class="node">
<title>Node9</title>
<g id="a_node9"><a xlink:href="interfacecom_1_1fs_1_1starfarer_1_1api_1_1campaign_1_1listeners_1_1FleetEventListener.html" target="_top" xlink:title=" ">
<polygon fill="none" stroke="black" points="552.5,-130 552.5,-160 737.5,-160 737.5,-130 552.5,-130"/>
<text text-anchor="start" x="560.5" y="-148" font-family="Helvetica,sans-Serif" font-size="10.00">com.fs.starfarer.api.campaign.listeners.</text>
<text text-anchor="middle" x="645" y="-137" font-family="Helvetica,sans-Serif" font-size="10.00">FleetEventListener</text>
</a>
</g>
</g>
<!-- Node9&#45;&gt;Node1 -->
<g id="edge9" class="edge">
<title>Node9&#45;&gt;Node1</title>
<path fill="none" stroke="midnightblue" d="M747.85,-145C765.36,-145 783.46,-145 800.7,-145"/>
<polygon fill="midnightblue" stroke="midnightblue" points="747.62,-141.5 737.62,-145 747.62,-148.5 747.62,-141.5"/>
</g>
<!-- Node10 -->
<g id="node10" class="node">
<title>Node10</title>
<g id="a_node10"><a xlink:title=" ">
<polygon fill="none" stroke="#bfbfbf" points="621.5,-91.5 621.5,-110.5 668.5,-110.5 668.5,-91.5 621.5,-91.5"/>
<text text-anchor="middle" x="645" y="-98.5" font-family="Helvetica,sans-Serif" font-size="10.00">Logger</text>
</a>
</g>
</g>
<!-- Node10&#45;&gt;Node1 -->
<g id="edge10" class="edge">
<title>Node10&#45;&gt;Node1</title>
<path fill="none" stroke="#9a32cd" stroke-dasharray="5,2" d="M678.79,-106.84C711.78,-112.72 764,-122.02 808.62,-129.97"/>
<polygon fill="#9a32cd" stroke="#9a32cd" points="679.25,-103.37 668.79,-105.06 678.03,-110.26 679.25,-103.37"/>
<text text-anchor="middle" x="769.5" y="-127" font-family="Helvetica,sans-Serif" font-size="10.00"> log</text>
</g>
<!-- Node11 -->
<g id="node11" class="node">
<title>Node11</title>
<g id="a_node11"><a xlink:title=" ">
<polygon fill="none" stroke="#bfbfbf" points="552,-42 552,-72 738,-72 738,-42 552,-42"/>
<text text-anchor="start" x="560" y="-60" font-family="Helvetica,sans-Serif" font-size="10.00">com.fs.starfarer.api.impl.campaign.intel.</text>
<text text-anchor="middle" x="645" y="-49" font-family="Helvetica,sans-Serif" font-size="10.00">PersonBountyIntel.BountyResult</text>
</a>
</g>
</g>
<!-- Node11&#45;&gt;Node1 -->
<g id="edge11" class="edge">
<title>Node11&#45;&gt;Node1</title>
<path fill="none" stroke="#9a32cd" stroke-dasharray="5,2" d="M715.39,-74.89C723.06,-77.15 730.72,-79.54 738,-82 780.52,-96.36 828.17,-116.33 859.28,-129.91"/>
<polygon fill="#9a32cd" stroke="#9a32cd" points="716.28,-71.51 705.7,-72.1 714.34,-78.23 716.28,-71.51"/>
<text text-anchor="middle" x="769.5" y="-100" font-family="Helvetica,sans-Serif" font-size="10.00"> result</text>
</g>
<!-- Node12 -->
<g id="node12" class="node">
<title>Node12</title>
<g id="a_node12"><a xlink:title=" ">
<polygon fill="none" stroke="#bfbfbf" points="232,-60 232,-90 418,-90 418,-60 232,-60"/>
<text text-anchor="start" x="240" y="-78" font-family="Helvetica,sans-Serif" font-size="10.00">com.fs.starfarer.api.impl.campaign.intel.</text>
<text text-anchor="middle" x="325" y="-67" font-family="Helvetica,sans-Serif" font-size="10.00">PersonBountyIntel.BountyResultType</text>
</a>
</g>
</g>
<!-- Node12&#45;&gt;Node11 -->
<g id="edge12" class="edge">
<title>Node12&#45;&gt;Node11</title>
<path fill="none" stroke="#9a32cd" stroke-dasharray="5,2" d="M428.63,-69.19C468.29,-66.95 513.32,-64.4 551.91,-62.21"/>
<polygon fill="#9a32cd" stroke="#9a32cd" points="428.19,-65.71 418.41,-69.77 428.59,-72.7 428.19,-65.71"/>
<text text-anchor="middle" x="498" y="-70" font-family="Helvetica,sans-Serif" font-size="10.00"> type</text>
</g>
<!-- Node13 -->
<g id="node13" class="node">
<title>Node13</title>
<g id="a_node13"><a xlink:title=" ">
<polygon fill="none" stroke="#bfbfbf" points="220,-0.5 220,-41.5 430,-41.5 430,-0.5 220,-0.5"/>
<text text-anchor="start" x="228" y="-29.5" font-family="Helvetica,sans-Serif" font-size="10.00">com.fs.starfarer.api.campaign.</text>
<text text-anchor="start" x="228" y="-18.5" font-family="Helvetica,sans-Serif" font-size="10.00">ReputationActionResponsePlugin.Reputation</text>
<text text-anchor="middle" x="325" y="-7.5" font-family="Helvetica,sans-Serif" font-size="10.00">AdjustmentResult</text>
</a>
</g>
</g>
<!-- Node13&#45;&gt;Node11 -->
<g id="edge13" class="edge">
<title>Node13&#45;&gt;Node11</title>
<path fill="none" stroke="#9a32cd" stroke-dasharray="5,2" d="M440.36,-33.95C477.02,-38.1 517.11,-42.64 551.96,-46.58"/>
<polygon fill="#9a32cd" stroke="#9a32cd" points="440.46,-30.43 430.13,-32.79 439.67,-37.39 440.46,-30.43"/>
<text text-anchor="middle" x="498" y="-48" font-family="Helvetica,sans-Serif" font-size="10.00"> rep</text>
</g>
</g>
</svg>
