<?xml version="1.0" encoding="UTF-8" standalone="no"?>
<!DOCTYPE svg PUBLIC "-//W3C//DTD SVG 1.1//EN"
 "http://www.w3.org/Graphics/SVG/1.1/DTD/svg11.dtd">
<!-- Generated by graphviz version 2.44.0 ()
 -->
<!-- Title: Graphical Class Hierarchy Pages: 1 -->
<svg width="863pt" height="431pt"
 viewBox="0.00 0.00 863.00 431.00" xmlns="http://www.w3.org/2000/svg" xmlns:xlink="http://www.w3.org/1999/xlink">
<g id="graph0" class="graph" transform="scale(1 1) rotate(0) translate(4 427)">
<title>Graphical Class Hierarchy</title>
<!-- Node0 -->
<g id="node1" class="node">
<title>Node0</title>
<g id="a_node1"><a xlink:href="interfacecom_1_1fs_1_1starfarer_1_1api_1_1impl_1_1campaign_1_1rulecmd_1_1salvage_1_1SalvageSpeci0c23cb623422966b4963c997c750605b.html" target="_top" xlink:title=" ">
<polygon fill="none" stroke="black" points="0,-196.5 0,-226.5 239,-226.5 239,-196.5 0,-196.5"/>
<text text-anchor="start" x="8" y="-214.5" font-family="Helvetica,sans-Serif" font-size="10.00">com.fs.starfarer.api.impl.campaign.rulecmd.salvage.</text>
<text text-anchor="middle" x="119.5" y="-203.5" font-family="Helvetica,sans-Serif" font-size="10.00">SalvageSpecialInteraction.SalvageSpecialPlugin</text>
</a>
</g>
</g>
<!-- Node1 -->
<g id="node2" class="node">
<title>Node1</title>
<g id="a_node2"><a xlink:href="classcom_1_1fs_1_1starfarer_1_1api_1_1impl_1_1campaign_1_1rulecmd_1_1salvage_1_1special_1_1BaseSalvageSpecial.html" target="_top" xlink:title=" ">
<polygon fill="none" stroke="black" points="275,-196.5 275,-226.5 547,-226.5 547,-196.5 275,-196.5"/>
<text text-anchor="start" x="283" y="-214.5" font-family="Helvetica,sans-Serif" font-size="10.00">com.fs.starfarer.api.impl.campaign.rulecmd.salvage.special.</text>
<text text-anchor="middle" x="411" y="-203.5" font-family="Helvetica,sans-Serif" font-size="10.00">BaseSalvageSpecial</text>
</a>
</g>
</g>
<!-- Node0&#45;&gt;Node1 -->
<g id="edge1" class="edge">
<title>Node0&#45;&gt;Node1</title>
<path fill="none" stroke="midnightblue" d="M249.29,-211.5C257.7,-211.5 266.17,-211.5 274.61,-211.5"/>
<polygon fill="midnightblue" stroke="midnightblue" points="249.09,-208 239.09,-211.5 249.09,-215 249.09,-208"/>
</g>
<!-- Node2 -->
<g id="node3" class="node">
<title>Node2</title>
<g id="a_node3"><a xlink:href="classcom_1_1fs_1_1starfarer_1_1api_1_1impl_1_1campaign_1_1rulecmd_1_1salvage_1_1special_1_1BlueprintSpecial.html" target="_top" xlink:title=" ">
<polygon fill="none" stroke="black" points="583,-392.5 583,-422.5 855,-422.5 855,-392.5 583,-392.5"/>
<text text-anchor="start" x="591" y="-410.5" font-family="Helvetica,sans-Serif" font-size="10.00">com.fs.starfarer.api.impl.campaign.rulecmd.salvage.special.</text>
<text text-anchor="middle" x="719" y="-399.5" font-family="Helvetica,sans-Serif" font-size="10.00">BlueprintSpecial</text>
</a>
</g>
</g>
<!-- Node1&#45;&gt;Node2 -->
<g id="edge2" class="edge">
<title>Node1&#45;&gt;Node2</title>
<path fill="none" stroke="midnightblue" d="M427.97,-235.14C455.02,-273.15 513.75,-347.26 583,-383.5 589.54,-386.92 596.47,-389.87 603.61,-392.4"/>
<polygon fill="midnightblue" stroke="midnightblue" points="430.68,-232.91 422.08,-226.73 424.95,-236.93 430.68,-232.91"/>
</g>
<!-- Node3 -->
<g id="node4" class="node">
<title>Node3</title>
<g id="a_node4"><a xlink:href="classcom_1_1fs_1_1starfarer_1_1api_1_1impl_1_1campaign_1_1rulecmd_1_1salvage_1_1special_1_1BreadcrumbSpecial.html" target="_top" xlink:title=" ">
<polygon fill="none" stroke="black" points="583,-343.5 583,-373.5 855,-373.5 855,-343.5 583,-343.5"/>
<text text-anchor="start" x="591" y="-361.5" font-family="Helvetica,sans-Serif" font-size="10.00">com.fs.starfarer.api.impl.campaign.rulecmd.salvage.special.</text>
<text text-anchor="middle" x="719" y="-350.5" font-family="Helvetica,sans-Serif" font-size="10.00">BreadcrumbSpecial</text>
</a>
</g>
</g>
<!-- Node1&#45;&gt;Node3 -->
<g id="edge3" class="edge">
<title>Node1&#45;&gt;Node3</title>
<path fill="none" stroke="midnightblue" d="M435.62,-233.9C466.79,-262.09 524.56,-309.81 583,-334.5 591.22,-337.97 599.93,-340.95 608.81,-343.49"/>
<polygon fill="midnightblue" stroke="midnightblue" points="437.66,-231.02 427.92,-226.84 432.93,-236.18 437.66,-231.02"/>
</g>
<!-- Node4 -->
<g id="node5" class="node">
<title>Node4</title>
<g id="a_node5"><a xlink:href="classcom_1_1fs_1_1starfarer_1_1api_1_1impl_1_1campaign_1_1rulecmd_1_1salvage_1_1special_1_1CargoManifestSpecial.html" target="_top" xlink:title=" ">
<polygon fill="none" stroke="black" points="583,-294.5 583,-324.5 855,-324.5 855,-294.5 583,-294.5"/>
<text text-anchor="start" x="591" y="-312.5" font-family="Helvetica,sans-Serif" font-size="10.00">com.fs.starfarer.api.impl.campaign.rulecmd.salvage.special.</text>
<text text-anchor="middle" x="719" y="-301.5" font-family="Helvetica,sans-Serif" font-size="10.00">CargoManifestSpecial</text>
</a>
</g>
</g>
<!-- Node1&#45;&gt;Node4 -->
<g id="edge4" class="edge">
<title>Node1&#45;&gt;Node4</title>
<path fill="none" stroke="midnightblue" d="M450.29,-231.14C484.33,-247.85 535.86,-271.32 583,-285.5 594.28,-288.89 606.25,-291.87 618.22,-294.47"/>
<polygon fill="midnightblue" stroke="midnightblue" points="451.69,-227.93 441.18,-226.62 448.58,-234.2 451.69,-227.93"/>
</g>
<!-- Node5 -->
<g id="node6" class="node">
<title>Node5</title>
<g id="a_node6"><a xlink:href="classcom_1_1fs_1_1starfarer_1_1api_1_1impl_1_1campaign_1_1rulecmd_1_1salvage_1_1special_1_1DomainSurveyDerelictSpecial.html" target="_top" xlink:title=" ">
<polygon fill="none" stroke="black" points="583,-245.5 583,-275.5 855,-275.5 855,-245.5 583,-245.5"/>
<text text-anchor="start" x="591" y="-263.5" font-family="Helvetica,sans-Serif" font-size="10.00">com.fs.starfarer.api.impl.campaign.rulecmd.salvage.special.</text>
<text text-anchor="middle" x="719" y="-252.5" font-family="Helvetica,sans-Serif" font-size="10.00">DomainSurveyDerelictSpecial</text>
</a>
</g>
</g>
<!-- Node1&#45;&gt;Node5 -->
<g id="edge5" class="edge">
<title>Node1&#45;&gt;Node5</title>
<path fill="none" stroke="midnightblue" d="M516.15,-228.18C551.21,-233.79 590.09,-240.02 624.29,-245.49"/>
<polygon fill="midnightblue" stroke="midnightblue" points="516.32,-224.66 505.89,-226.53 515.21,-231.57 516.32,-224.66"/>
</g>
<!-- Node6 -->
<g id="node7" class="node">
<title>Node6</title>
<g id="a_node7"><a xlink:href="classcom_1_1fs_1_1starfarer_1_1api_1_1impl_1_1campaign_1_1rulecmd_1_1salvage_1_1special_1_1ShipRecoverySpecial.html" target="_top" xlink:title=" ">
<polygon fill="none" stroke="black" points="583,-196.5 583,-226.5 855,-226.5 855,-196.5 583,-196.5"/>
<text text-anchor="start" x="591" y="-214.5" font-family="Helvetica,sans-Serif" font-size="10.00">com.fs.starfarer.api.impl.campaign.rulecmd.salvage.special.</text>
<text text-anchor="middle" x="719" y="-203.5" font-family="Helvetica,sans-Serif" font-size="10.00">ShipRecoverySpecial</text>
</a>
</g>
</g>
<!-- Node1&#45;&gt;Node6 -->
<g id="edge6" class="edge">
<title>Node1&#45;&gt;Node6</title>
<path fill="none" stroke="midnightblue" d="M557.13,-211.5C565.69,-211.5 574.28,-211.5 582.8,-211.5"/>
<polygon fill="midnightblue" stroke="midnightblue" points="557.11,-208 547.11,-211.5 557.11,-215 557.11,-208"/>
</g>
<!-- Node7 -->
<g id="node8" class="node">
<title>Node7</title>
<g id="a_node8"><a xlink:href="classcom_1_1fs_1_1starfarer_1_1api_1_1impl_1_1campaign_1_1rulecmd_1_1salvage_1_1special_1_1SleeperPodsSpecial.html" target="_top" xlink:title=" ">
<polygon fill="none" stroke="black" points="583,-147.5 583,-177.5 855,-177.5 855,-147.5 583,-147.5"/>
<text text-anchor="start" x="591" y="-165.5" font-family="Helvetica,sans-Serif" font-size="10.00">com.fs.starfarer.api.impl.campaign.rulecmd.salvage.special.</text>
<text text-anchor="middle" x="719" y="-154.5" font-family="Helvetica,sans-Serif" font-size="10.00">SleeperPodsSpecial</text>
</a>
</g>
</g>
<!-- Node1&#45;&gt;Node7 -->
<g id="edge7" class="edge">
<title>Node1&#45;&gt;Node7</title>
<path fill="none" stroke="midnightblue" d="M516.15,-194.82C551.21,-189.21 590.09,-182.98 624.29,-177.51"/>
<polygon fill="midnightblue" stroke="midnightblue" points="515.21,-191.43 505.89,-196.47 516.32,-198.34 515.21,-191.43"/>
</g>
<!-- Node8 -->
<g id="node9" class="node">
<title>Node8</title>
<g id="a_node9"><a xlink:href="classcom_1_1fs_1_1starfarer_1_1api_1_1impl_1_1campaign_1_1rulecmd_1_1salvage_1_1special_1_1SurveyDataSpecial.html" target="_top" xlink:title=" ">
<polygon fill="none" stroke="black" points="583,-98.5 583,-128.5 855,-128.5 855,-98.5 583,-98.5"/>
<text text-anchor="start" x="591" y="-116.5" font-family="Helvetica,sans-Serif" font-size="10.00">com.fs.starfarer.api.impl.campaign.rulecmd.salvage.special.</text>
<text text-anchor="middle" x="719" y="-105.5" font-family="Helvetica,sans-Serif" font-size="10.00">SurveyDataSpecial</text>
</a>
</g>
</g>
<!-- Node1&#45;&gt;Node8 -->
<g id="edge8" class="edge">
<title>Node1&#45;&gt;Node8</title>
<path fill="none" stroke="midnightblue" d="M450.97,-191.93C485.04,-175.54 536.25,-152.62 583,-138.5 595.55,-134.71 608.94,-131.39 622.23,-128.52"/>
<polygon fill="midnightblue" stroke="midnightblue" points="449.29,-188.86 441.83,-196.37 452.35,-195.15 449.29,-188.86"/>
</g>
<!-- Node9 -->
<g id="node10" class="node">
<title>Node9</title>
<g id="a_node10"><a xlink:href="classcom_1_1fs_1_1starfarer_1_1api_1_1impl_1_1campaign_1_1rulecmd_1_1salvage_1_1special_1_1TopographicDataSpecial.html" target="_top" xlink:title=" ">
<polygon fill="none" stroke="black" points="583,-49.5 583,-79.5 855,-79.5 855,-49.5 583,-49.5"/>
<text text-anchor="start" x="591" y="-67.5" font-family="Helvetica,sans-Serif" font-size="10.00">com.fs.starfarer.api.impl.campaign.rulecmd.salvage.special.</text>
<text text-anchor="middle" x="719" y="-56.5" font-family="Helvetica,sans-Serif" font-size="10.00">TopographicDataSpecial</text>
</a>
</g>
</g>
<!-- Node1&#45;&gt;Node9 -->
<g id="edge9" class="edge">
<title>Node1&#45;&gt;Node9</title>
<path fill="none" stroke="midnightblue" d="M435.69,-189.36C466.92,-161.47 524.76,-114.22 583,-89.5 592.22,-85.59 602.04,-82.29 612.03,-79.5"/>
<polygon fill="midnightblue" stroke="midnightblue" points="433.04,-187.03 427.97,-196.34 437.73,-192.22 433.04,-187.03"/>
</g>
<!-- Node10 -->
<g id="node11" class="node">
<title>Node10</title>
<g id="a_node11"><a xlink:href="classcom_1_1fs_1_1starfarer_1_1api_1_1impl_1_1campaign_1_1rulecmd_1_1salvage_1_1special_1_1TransmitterTrapSpecial.html" target="_top" xlink:title=" ">
<polygon fill="none" stroke="black" points="583,-0.5 583,-30.5 855,-30.5 855,-0.5 583,-0.5"/>
<text text-anchor="start" x="591" y="-18.5" font-family="Helvetica,sans-Serif" font-size="10.00">com.fs.starfarer.api.impl.campaign.rulecmd.salvage.special.</text>
<text text-anchor="middle" x="719" y="-7.5" font-family="Helvetica,sans-Serif" font-size="10.00">TransmitterTrapSpecial</text>
</a>
</g>
</g>
<!-- Node1&#45;&gt;Node10 -->
<g id="edge10" class="edge">
<title>Node1&#45;&gt;Node10</title>
<path fill="none" stroke="midnightblue" d="M428.03,-188.06C455.18,-150.35 514.03,-76.78 583,-40.5 590.38,-36.62 598.27,-33.33 606.39,-30.54"/>
<polygon fill="midnightblue" stroke="midnightblue" points="425.05,-186.22 422.12,-196.4 430.76,-190.26 425.05,-186.22"/>
</g>
</g>
</svg>
