<?xml version="1.0" encoding="UTF-8" standalone="no"?>
<!DOCTYPE svg PUBLIC "-//W3C//DTD SVG 1.1//EN"
 "http://www.w3.org/Graphics/SVG/1.1/DTD/svg11.dtd">
<!-- Generated by graphviz version 9.0.0 (20230911.1827)
 -->
<!-- Title: Graphical Class Hierarchy Pages: 1 -->
<svg width="790pt" height="823pt"
 viewBox="0.00 0.00 789.75 822.50" xmlns="http://www.w3.org/2000/svg" xmlns:xlink="http://www.w3.org/1999/xlink">
<g id="graph0" class="graph" transform="scale(1 1) rotate(0) translate(4 818.5)">
<title>Graphical Class Hierarchy</title>
<!-- Node0 -->
<g id="Node000000" class="node">
<title>Node0</title>
<g id="a_Node000000"><a xlink:href="interfacecom_1_1fs_1_1starfarer_1_1api_1_1impl_1_1campaign_1_1CampaignObjective.html" target="_top" xlink:title=" ">
<polygon fill="white" stroke="#666666" points="345.5,-765.5 180.25,-765.5 180.25,-735 345.5,-735 345.5,-765.5"/>
<text text-anchor="start" x="188.25" y="-752" font-family="Helvetica,sans-Serif" font-size="10.00">com.fs.starfarer.api.impl.campaign.</text>
<text text-anchor="middle" x="262.88" y="-740.75" font-family="Helvetica,sans-Serif" font-size="10.00">CampaignObjective</text>
</a>
</g>
</g>
<!-- Node1 -->
<g id="Node000001" class="node">
<title>Node1</title>
<g id="a_Node000001"><a xlink:href="classcom_1_1fs_1_1starfarer_1_1api_1_1impl_1_1campaign_1_1BaseCampaignObjectivePlugin.html" target="_top" xlink:title=" ">
<polygon fill="white" stroke="#666666" points="563.62,-765.5 398.38,-765.5 398.38,-735 563.62,-735 563.62,-765.5"/>
<text text-anchor="start" x="406.38" y="-752" font-family="Helvetica,sans-Serif" font-size="10.00">com.fs.starfarer.api.impl.campaign.</text>
<text text-anchor="middle" x="481" y="-740.75" font-family="Helvetica,sans-Serif" font-size="10.00">BaseCampaignObjectivePlugin</text>
</a>
</g>
</g>
<!-- Node0&#45;&gt;Node1 -->
<g id="edge854_Node000000_Node000001" class="edge">
<title>Node0&#45;&gt;Node1</title>
<g id="a_edge854_Node000000_Node000001"><a xlink:title=" ">
<path fill="none" stroke="#63b8ff" d="M357.21,-750.25C370.8,-750.25 384.7,-750.25 398.04,-750.25"/>
<polygon fill="#63b8ff" stroke="#63b8ff" points="357.4,-746.75 347.4,-750.25 357.4,-753.75 357.4,-746.75"/>
</a>
</g>
</g>
<!-- Node2 -->
<g id="Node000002" class="node">
<title>Node2</title>
<g id="a_Node000002"><a xlink:href="classcom_1_1fs_1_1starfarer_1_1api_1_1impl_1_1campaign_1_1CommRelayEntityPlugin.html" target="_top" xlink:title=" ">
<polygon fill="white" stroke="#666666" points="781.75,-814.5 616.5,-814.5 616.5,-784 781.75,-784 781.75,-814.5"/>
<text text-anchor="start" x="624.5" y="-801" font-family="Helvetica,sans-Serif" font-size="10.00">com.fs.starfarer.api.impl.campaign.</text>
<text text-anchor="middle" x="699.12" y="-789.75" font-family="Helvetica,sans-Serif" font-size="10.00">CommRelayEntityPlugin</text>
</a>
</g>
</g>
<!-- Node1&#45;&gt;Node2 -->
<g id="edge855_Node000001_Node000002" class="edge">
<title>Node1&#45;&gt;Node2</title>
<g id="a_edge855_Node000001_Node000002"><a xlink:title=" ">
<path fill="none" stroke="#63b8ff" d="M562.21,-768.44C584.11,-773.4 607.64,-778.74 628.87,-783.55"/>
<polygon fill="#63b8ff" stroke="#63b8ff" points="563.28,-765.09 552.75,-766.29 561.73,-771.92 563.28,-765.09"/>
</a>
</g>
</g>
<!-- Node3 -->
<g id="Node000003" class="node">
<title>Node3</title>
<g id="a_Node000003"><a xlink:href="classcom_1_1fs_1_1starfarer_1_1api_1_1impl_1_1campaign_1_1NavBuoyEntityPlugin.html" target="_top" xlink:title=" ">
<polygon fill="white" stroke="#666666" points="781.75,-765.5 616.5,-765.5 616.5,-735 781.75,-735 781.75,-765.5"/>
<text text-anchor="start" x="624.5" y="-752" font-family="Helvetica,sans-Serif" font-size="10.00">com.fs.starfarer.api.impl.campaign.</text>
<text text-anchor="middle" x="699.12" y="-740.75" font-family="Helvetica,sans-Serif" font-size="10.00">NavBuoyEntityPlugin</text>
</a>
</g>
</g>
<!-- Node1&#45;&gt;Node3 -->
<g id="edge856_Node000001_Node000003" class="edge">
<title>Node1&#45;&gt;Node3</title>
<g id="a_edge856_Node000001_Node000003"><a xlink:title=" ">
<path fill="none" stroke="#63b8ff" d="M575.34,-750.25C588.92,-750.25 602.83,-750.25 616.17,-750.25"/>
<polygon fill="#63b8ff" stroke="#63b8ff" points="575.53,-746.75 565.53,-750.25 575.53,-753.75 575.53,-746.75"/>
</a>
</g>
</g>
<!-- Node4 -->
<g id="Node000004" class="node">
<title>Node4</title>
<g id="a_Node000004"><a xlink:href="classcom_1_1fs_1_1starfarer_1_1api_1_1impl_1_1campaign_1_1SensorArrayEntityPlugin.html" target="_top" xlink:title=" ">
<polygon fill="white" stroke="#666666" points="781.75,-716.5 616.5,-716.5 616.5,-686 781.75,-686 781.75,-716.5"/>
<text text-anchor="start" x="624.5" y="-703" font-family="Helvetica,sans-Serif" font-size="10.00">com.fs.starfarer.api.impl.campaign.</text>
<text text-anchor="middle" x="699.12" y="-691.75" font-family="Helvetica,sans-Serif" font-size="10.00">SensorArrayEntityPlugin</text>
</a>
</g>
</g>
<!-- Node1&#45;&gt;Node4 -->
<g id="edge857_Node000001_Node000004" class="edge">
<title>Node1&#45;&gt;Node4</title>
<g id="a_edge857_Node000001_Node000004"><a xlink:title=" ">
<path fill="none" stroke="#63b8ff" d="M562.21,-732.06C584.11,-727.1 607.64,-721.76 628.87,-716.95"/>
<polygon fill="#63b8ff" stroke="#63b8ff" points="561.73,-728.58 552.75,-734.21 563.28,-735.41 561.73,-728.58"/>
</a>
</g>
</g>
<!-- Node21 -->
<g id="Node000021" class="node">
<title>Node21</title>
<g id="a_Node000021"><a xlink:title=" ">
<polygon fill="#e0e0e0" stroke="#999999" points="144.25,-392.88 0,-392.88 0,-373.62 144.25,-373.62 144.25,-392.88"/>
<text text-anchor="middle" x="72.12" y="-379.38" font-family="Helvetica,sans-Serif" font-size="10.00">CustomCampaignEntityPlugin</text>
</a>
</g>
</g>
<!-- Node5 -->
<g id="Node000005" class="node">
<title>Node5</title>
<g id="a_Node000005"><a xlink:href="classcom_1_1fs_1_1starfarer_1_1api_1_1impl_1_1campaign_1_1BaseCustomEntityPlugin.html" target="_top" xlink:title=" ">
<polygon fill="white" stroke="#666666" points="345.5,-398.5 180.25,-398.5 180.25,-368 345.5,-368 345.5,-398.5"/>
<text text-anchor="start" x="188.25" y="-385" font-family="Helvetica,sans-Serif" font-size="10.00">com.fs.starfarer.api.impl.campaign.</text>
<text text-anchor="middle" x="262.88" y="-373.75" font-family="Helvetica,sans-Serif" font-size="10.00">BaseCustomEntityPlugin</text>
</a>
</g>
</g>
<!-- Node21&#45;&gt;Node5 -->
<g id="edge858_Node000021_Node000005" class="edge">
<title>Node21&#45;&gt;Node5</title>
<g id="a_edge858_Node000021_Node000005"><a xlink:title=" ">
<path fill="none" stroke="#63b8ff" d="M155.75,-383.25C163.78,-383.25 171.94,-383.25 179.97,-383.25"/>
<polygon fill="#63b8ff" stroke="#63b8ff" points="156,-379.75 146,-383.25 156,-386.75 156,-379.75"/>
</a>
</g>
</g>
<!-- Node5&#45;&gt;Node1 -->
<g id="edge860_Node000005_Node000001" class="edge">
<title>Node5&#45;&gt;Node1</title>
<g id="a_edge860_Node000005_Node000001"><a xlink:title=" ">
<path fill="none" stroke="#63b8ff" d="M264.86,-410.13C268.72,-474.58 287.76,-638.96 381.5,-725.25 386.43,-729.79 392.07,-733.53 398.1,-736.62"/>
<polygon fill="#63b8ff" stroke="#63b8ff" points="268.37,-410.28 264.36,-400.47 261.38,-410.64 268.37,-410.28"/>
</a>
</g>
</g>
<!-- Node6 -->
<g id="Node000006" class="node">
<title>Node6</title>
<g id="a_Node000006"><a xlink:href="classcom_1_1fs_1_1starfarer_1_1api_1_1impl_1_1campaign_1_1AbyssalLightEntityPlugin.html" target="_top" xlink:title=" ">
<polygon fill="white" stroke="#666666" points="563.62,-716.5 398.38,-716.5 398.38,-686 563.62,-686 563.62,-716.5"/>
<text text-anchor="start" x="406.38" y="-703" font-family="Helvetica,sans-Serif" font-size="10.00">com.fs.starfarer.api.impl.campaign.</text>
<text text-anchor="middle" x="481" y="-691.75" font-family="Helvetica,sans-Serif" font-size="10.00">AbyssalLightEntityPlugin</text>
</a>
</g>
</g>
<!-- Node5&#45;&gt;Node6 -->
<g id="edge859_Node000005_Node000006" class="edge">
<title>Node5&#45;&gt;Node6</title>
<g id="a_edge859_Node000005_Node000006"><a xlink:title=" ">
<path fill="none" stroke="#63b8ff" d="M266.62,-410.16C274.01,-467.99 299.64,-604.63 381.5,-676.25 386.55,-680.66 392.26,-684.32 398.34,-687.34"/>
<polygon fill="#63b8ff" stroke="#63b8ff" points="270.11,-409.79 265.46,-400.27 263.15,-410.61 270.11,-409.79"/>
</a>
</g>
</g>
<!-- Node7 -->
<g id="Node000007" class="node">
<title>Node7</title>
<g id="a_Node000007"><a xlink:href="classcom_1_1fs_1_1starfarer_1_1api_1_1impl_1_1campaign_1_1CargoPodsEntityPlugin.html" target="_top" xlink:title=" ">
<polygon fill="white" stroke="#666666" points="563.62,-667.5 398.38,-667.5 398.38,-637 563.62,-637 563.62,-667.5"/>
<text text-anchor="start" x="406.38" y="-654" font-family="Helvetica,sans-Serif" font-size="10.00">com.fs.starfarer.api.impl.campaign.</text>
<text text-anchor="middle" x="481" y="-642.75" font-family="Helvetica,sans-Serif" font-size="10.00">CargoPodsEntityPlugin</text>
</a>
</g>
</g>
<!-- Node5&#45;&gt;Node7 -->
<g id="edge861_Node000005_Node000007" class="edge">
<title>Node5&#45;&gt;Node7</title>
<g id="a_edge861_Node000005_Node000007"><a xlink:title=" ">
<path fill="none" stroke="#63b8ff" d="M269.04,-410.17C280.18,-460.73 311.36,-569.94 381.5,-627.25 386.55,-631.38 392.21,-634.84 398.18,-637.73"/>
<polygon fill="#63b8ff" stroke="#63b8ff" points="272.47,-409.48 266.99,-400.41 265.62,-410.91 272.47,-409.48"/>
</a>
</g>
</g>
<!-- Node8 -->
<g id="Node000008" class="node">
<title>Node8</title>
<g id="a_Node000008"><a xlink:href="classcom_1_1fs_1_1starfarer_1_1api_1_1impl_1_1campaign_1_1CryosleeperEntityPlugin.html" target="_top" xlink:title=" ">
<polygon fill="white" stroke="#666666" points="563.62,-618.5 398.38,-618.5 398.38,-588 563.62,-588 563.62,-618.5"/>
<text text-anchor="start" x="406.38" y="-605" font-family="Helvetica,sans-Serif" font-size="10.00">com.fs.starfarer.api.impl.campaign.</text>
<text text-anchor="middle" x="481" y="-593.75" font-family="Helvetica,sans-Serif" font-size="10.00">CryosleeperEntityPlugin</text>
</a>
</g>
</g>
<!-- Node5&#45;&gt;Node8 -->
<g id="edge862_Node000005_Node000008" class="edge">
<title>Node5&#45;&gt;Node8</title>
<g id="a_edge862_Node000005_Node000008"><a xlink:title=" ">
<path fill="none" stroke="#63b8ff" d="M272.42,-409.8C287.45,-452.15 322.73,-534.65 381.5,-578.25 386.6,-582.03 392.22,-585.25 398.1,-587.98"/>
<polygon fill="#63b8ff" stroke="#63b8ff" points="275.76,-408.75 269.21,-400.42 269.14,-411.02 275.76,-408.75"/>
</a>
</g>
</g>
<!-- Node9 -->
<g id="Node000009" class="node">
<title>Node9</title>
<g id="a_Node000009"><a xlink:href="classcom_1_1fs_1_1starfarer_1_1api_1_1impl_1_1campaign_1_1DerelictShipEntityPlugin.html" target="_top" xlink:title=" ">
<polygon fill="white" stroke="#666666" points="563.62,-569.5 398.38,-569.5 398.38,-539 563.62,-539 563.62,-569.5"/>
<text text-anchor="start" x="406.38" y="-556" font-family="Helvetica,sans-Serif" font-size="10.00">com.fs.starfarer.api.impl.campaign.</text>
<text text-anchor="middle" x="481" y="-544.75" font-family="Helvetica,sans-Serif" font-size="10.00">DerelictShipEntityPlugin</text>
</a>
</g>
</g>
<!-- Node5&#45;&gt;Node9 -->
<g id="edge863_Node000005_Node000009" class="edge">
<title>Node5&#45;&gt;Node9</title>
<g id="a_edge863_Node000005_Node000009"><a xlink:title=" ">
<path fill="none" stroke="#63b8ff" d="M277.34,-408.58C296.17,-441.52 333.55,-498.47 381.5,-529.25 387.07,-532.82 393.12,-535.89 399.39,-538.51"/>
<polygon fill="#63b8ff" stroke="#63b8ff" points="280.54,-407.14 272.62,-400.11 274.43,-410.55 280.54,-407.14"/>
</a>
</g>
</g>
<!-- Node10 -->
<g id="Node000010" class="node">
<title>Node10</title>
<g id="a_Node000010"><a xlink:href="classcom_1_1fs_1_1starfarer_1_1api_1_1impl_1_1campaign_1_1ExampleCustomEntityPlugin.html" target="_top" xlink:title=" ">
<polygon fill="white" stroke="#666666" points="563.62,-520.5 398.38,-520.5 398.38,-490 563.62,-490 563.62,-520.5"/>
<text text-anchor="start" x="406.38" y="-507" font-family="Helvetica,sans-Serif" font-size="10.00">com.fs.starfarer.api.impl.campaign.</text>
<text text-anchor="middle" x="481" y="-495.75" font-family="Helvetica,sans-Serif" font-size="10.00">ExampleCustomEntityPlugin</text>
</a>
</g>
</g>
<!-- Node5&#45;&gt;Node10 -->
<g id="edge864_Node000005_Node000010" class="edge">
<title>Node5&#45;&gt;Node10</title>
<g id="a_edge864_Node000005_Node000010"><a xlink:title=" ">
<path fill="none" stroke="#63b8ff" d="M286.06,-406.77C308.21,-428.89 344.23,-461.36 381.5,-480.25 388.5,-483.8 396.05,-486.87 403.73,-489.52"/>
<polygon fill="#63b8ff" stroke="#63b8ff" points="288.84,-404.61 279.34,-399.93 283.85,-409.51 288.84,-404.61"/>
</a>
</g>
</g>
<!-- Node11 -->
<g id="Node000011" class="node">
<title>Node11</title>
<g id="a_Node000011"><a xlink:href="classcom_1_1fs_1_1starfarer_1_1api_1_1impl_1_1campaign_1_1ExplosionEntityPlugin.html" target="_top" xlink:title=" ">
<polygon fill="white" stroke="#666666" points="563.62,-471.5 398.38,-471.5 398.38,-441 563.62,-441 563.62,-471.5"/>
<text text-anchor="start" x="406.38" y="-458" font-family="Helvetica,sans-Serif" font-size="10.00">com.fs.starfarer.api.impl.campaign.</text>
<text text-anchor="middle" x="481" y="-446.75" font-family="Helvetica,sans-Serif" font-size="10.00">ExplosionEntityPlugin</text>
</a>
</g>
</g>
<!-- Node5&#45;&gt;Node11 -->
<g id="edge865_Node000005_Node000011" class="edge">
<title>Node5&#45;&gt;Node11</title>
<g id="a_edge865_Node000005_Node000011"><a xlink:title=" ">
<path fill="none" stroke="#63b8ff" d="M309.18,-403.46C330.81,-412.66 357.22,-423.26 381.5,-431.25 391.55,-434.56 402.31,-437.69 412.88,-440.55"/>
<polygon fill="#63b8ff" stroke="#63b8ff" points="310.62,-400.27 300.05,-399.53 307.85,-406.7 310.62,-400.27"/>
</a>
</g>
</g>
<!-- Node12 -->
<g id="Node000012" class="node">
<title>Node12</title>
<g id="a_Node000012"><a xlink:href="classcom_1_1fs_1_1starfarer_1_1api_1_1impl_1_1campaign_1_1FusionLampEntityPlugin.html" target="_top" xlink:title=" ">
<polygon fill="white" stroke="#666666" points="563.62,-422.5 398.38,-422.5 398.38,-392 563.62,-392 563.62,-422.5"/>
<text text-anchor="start" x="406.38" y="-409" font-family="Helvetica,sans-Serif" font-size="10.00">com.fs.starfarer.api.impl.campaign.</text>
<text text-anchor="middle" x="481" y="-397.75" font-family="Helvetica,sans-Serif" font-size="10.00">FusionLampEntityPlugin</text>
</a>
</g>
</g>
<!-- Node5&#45;&gt;Node12 -->
<g id="edge866_Node000005_Node000012" class="edge">
<title>Node5&#45;&gt;Node12</title>
<g id="a_edge866_Node000005_Node000012"><a xlink:title=" ">
<path fill="none" stroke="#63b8ff" d="M357.21,-393.61C370.8,-395.12 384.7,-396.67 398.04,-398.15"/>
<polygon fill="#63b8ff" stroke="#63b8ff" points="357.72,-390.15 347.4,-392.52 356.95,-397.11 357.72,-390.15"/>
</a>
</g>
</g>
<!-- Node13 -->
<g id="Node000013" class="node">
<title>Node13</title>
<g id="a_Node000013"><a xlink:href="classcom_1_1fs_1_1starfarer_1_1api_1_1impl_1_1campaign_1_1GateEntityPlugin.html" target="_top" xlink:title=" ">
<polygon fill="white" stroke="#666666" points="563.62,-373.5 398.38,-373.5 398.38,-343 563.62,-343 563.62,-373.5"/>
<text text-anchor="start" x="406.38" y="-360" font-family="Helvetica,sans-Serif" font-size="10.00">com.fs.starfarer.api.impl.campaign.</text>
<text text-anchor="middle" x="481" y="-348.75" font-family="Helvetica,sans-Serif" font-size="10.00">GateEntityPlugin</text>
</a>
</g>
</g>
<!-- Node5&#45;&gt;Node13 -->
<g id="edge867_Node000005_Node000013" class="edge">
<title>Node5&#45;&gt;Node13</title>
<g id="a_edge867_Node000005_Node000013"><a xlink:title=" ">
<path fill="none" stroke="#63b8ff" d="M357.21,-372.45C370.8,-370.88 384.7,-369.27 398.04,-367.73"/>
<polygon fill="#63b8ff" stroke="#63b8ff" points="356.93,-368.96 347.39,-373.59 357.73,-375.92 356.93,-368.96"/>
</a>
</g>
</g>
<!-- Node14 -->
<g id="Node000014" class="node">
<title>Node14</title>
<g id="a_Node000014"><a xlink:href="classcom_1_1fs_1_1starfarer_1_1api_1_1impl_1_1campaign_1_1HiddenCacheEntityPlugin.html" target="_top" xlink:title=" ">
<polygon fill="white" stroke="#666666" points="563.62,-324.5 398.38,-324.5 398.38,-294 563.62,-294 563.62,-324.5"/>
<text text-anchor="start" x="406.38" y="-311" font-family="Helvetica,sans-Serif" font-size="10.00">com.fs.starfarer.api.impl.campaign.</text>
<text text-anchor="middle" x="481" y="-299.75" font-family="Helvetica,sans-Serif" font-size="10.00">HiddenCacheEntityPlugin</text>
</a>
</g>
</g>
<!-- Node5&#45;&gt;Node14 -->
<g id="edge868_Node000005_Node000014" class="edge">
<title>Node5&#45;&gt;Node14</title>
<g id="a_edge868_Node000005_Node000014"><a xlink:title=" ">
<path fill="none" stroke="#63b8ff" d="M308.12,-363.01C329.93,-353.51 356.79,-342.48 381.5,-334.25 391.46,-330.93 402.11,-327.81 412.59,-324.96"/>
<polygon fill="#63b8ff" stroke="#63b8ff" points="306.98,-359.69 299.24,-366.93 309.8,-366.1 306.98,-359.69"/>
</a>
</g>
</g>
<!-- Node15 -->
<g id="Node000015" class="node">
<title>Node15</title>
<g id="a_Node000015"><a xlink:href="classcom_1_1fs_1_1starfarer_1_1api_1_1impl_1_1campaign_1_1SupplyCacheEntityPlugin.html" target="_top" xlink:title=" ">
<polygon fill="white" stroke="#666666" points="563.62,-275.5 398.38,-275.5 398.38,-245 563.62,-245 563.62,-275.5"/>
<text text-anchor="start" x="406.38" y="-262" font-family="Helvetica,sans-Serif" font-size="10.00">com.fs.starfarer.api.impl.campaign.</text>
<text text-anchor="middle" x="481" y="-250.75" font-family="Helvetica,sans-Serif" font-size="10.00">SupplyCacheEntityPlugin</text>
</a>
</g>
</g>
<!-- Node5&#45;&gt;Node15 -->
<g id="edge869_Node000005_Node000015" class="edge">
<title>Node5&#45;&gt;Node15</title>
<g id="a_edge869_Node000005_Node000015"><a xlink:title=" ">
<path fill="none" stroke="#63b8ff" d="M285.64,-359.86C307.72,-337.49 343.92,-304.42 381.5,-285.25 388.49,-281.68 396.03,-278.6 403.72,-275.94"/>
<polygon fill="#63b8ff" stroke="#63b8ff" points="283.39,-357.15 278.95,-366.76 288.42,-362.02 283.39,-357.15"/>
</a>
</g>
</g>
<!-- Node16 -->
<g id="Node000016" class="node">
<title>Node16</title>
<g id="a_Node000016"><a xlink:href="classcom_1_1fs_1_1starfarer_1_1api_1_1impl_1_1campaign_1_1WarningBeaconEntityPlugin.html" target="_top" xlink:title=" ">
<polygon fill="white" stroke="#666666" points="563.62,-226.5 398.38,-226.5 398.38,-196 563.62,-196 563.62,-226.5"/>
<text text-anchor="start" x="406.38" y="-213" font-family="Helvetica,sans-Serif" font-size="10.00">com.fs.starfarer.api.impl.campaign.</text>
<text text-anchor="middle" x="481" y="-201.75" font-family="Helvetica,sans-Serif" font-size="10.00">WarningBeaconEntityPlugin</text>
</a>
</g>
</g>
<!-- Node5&#45;&gt;Node16 -->
<g id="edge870_Node000005_Node000016" class="edge">
<title>Node5&#45;&gt;Node16</title>
<g id="a_edge870_Node000005_Node000016"><a xlink:title=" ">
<path fill="none" stroke="#63b8ff" d="M277.29,-357.75C296.08,-324.58 333.4,-267.23 381.5,-236.25 387.06,-232.67 393.11,-229.6 399.38,-226.97"/>
<polygon fill="#63b8ff" stroke="#63b8ff" points="274.35,-355.83 272.58,-366.28 280.48,-359.21 274.35,-355.83"/>
</a>
</g>
</g>
<!-- Node17 -->
<g id="Node000017" class="node">
<title>Node17</title>
<g id="a_Node000017"><a xlink:href="classcom_1_1fs_1_1starfarer_1_1api_1_1impl_1_1campaign_1_1entities_1_1GateHaulerEntityPlugin.html" target="_top" xlink:title=" ">
<polygon fill="white" stroke="#666666" points="580.5,-177.5 381.5,-177.5 381.5,-147 580.5,-147 580.5,-177.5"/>
<text text-anchor="start" x="389.5" y="-164" font-family="Helvetica,sans-Serif" font-size="10.00">com.fs.starfarer.api.impl.campaign.entities.</text>
<text text-anchor="middle" x="481" y="-152.75" font-family="Helvetica,sans-Serif" font-size="10.00">GateHaulerEntityPlugin</text>
</a>
</g>
</g>
<!-- Node5&#45;&gt;Node17 -->
<g id="edge871_Node000005_Node000017" class="edge">
<title>Node5&#45;&gt;Node17</title>
<g id="a_edge871_Node000005_Node000017"><a xlink:title=" ">
<path fill="none" stroke="#63b8ff" d="M272.27,-356.88C287.18,-314.41 322.41,-231.19 381.5,-187.25 386.31,-183.67 391.59,-180.6 397.11,-177.97"/>
<polygon fill="#63b8ff" stroke="#63b8ff" points="268.98,-355.68 269.09,-366.27 275.61,-357.93 268.98,-355.68"/>
</a>
</g>
</g>
<!-- Node18 -->
<g id="Node000018" class="node">
<title>Node18</title>
<g id="a_Node000018"><a xlink:href="classcom_1_1fs_1_1starfarer_1_1api_1_1impl_1_1campaign_1_1velfield_1_1SlipstreamEntityPlugin.html" target="_top" xlink:title=" ">
<polygon fill="white" stroke="#666666" points="579.75,-128.5 382.25,-128.5 382.25,-98 579.75,-98 579.75,-128.5"/>
<text text-anchor="start" x="390.25" y="-115" font-family="Helvetica,sans-Serif" font-size="10.00">com.fs.starfarer.api.impl.campaign.velfield.</text>
<text text-anchor="middle" x="481" y="-103.75" font-family="Helvetica,sans-Serif" font-size="10.00">SlipstreamEntityPlugin</text>
</a>
</g>
</g>
<!-- Node5&#45;&gt;Node18 -->
<g id="edge872_Node000005_Node000018" class="edge">
<title>Node5&#45;&gt;Node18</title>
<g id="a_edge872_Node000005_Node000018"><a xlink:title=" ">
<path fill="none" stroke="#63b8ff" d="M268.93,-356.54C279.95,-305.92 311.02,-195.93 381.5,-138.25 385.87,-134.67 390.68,-131.6 395.77,-128.96"/>
<polygon fill="#63b8ff" stroke="#63b8ff" points="265.57,-355.53 266.97,-366.03 272.42,-356.95 265.57,-355.53"/>
</a>
</g>
</g>
<!-- Node19 -->
<g id="Node000019" class="node">
<title>Node19</title>
<g id="a_Node000019"><a xlink:href="classcom_1_1fs_1_1starfarer_1_1api_1_1impl_1_1campaign_1_1velfield_1_1SlipstreamEntityPlugin2.html" target="_top" xlink:title=" ">
<polygon fill="white" stroke="#666666" points="579.75,-79.5 382.25,-79.5 382.25,-49 579.75,-49 579.75,-79.5"/>
<text text-anchor="start" x="390.25" y="-66" font-family="Helvetica,sans-Serif" font-size="10.00">com.fs.starfarer.api.impl.campaign.velfield.</text>
<text text-anchor="middle" x="481" y="-54.75" font-family="Helvetica,sans-Serif" font-size="10.00">SlipstreamEntityPlugin2</text>
</a>
</g>
</g>
<!-- Node5&#45;&gt;Node19 -->
<g id="edge873_Node000005_Node000019" class="edge">
<title>Node5&#45;&gt;Node19</title>
<g id="a_edge873_Node000005_Node000019"><a xlink:title=" ">
<path fill="none" stroke="#63b8ff" d="M266.55,-356.61C273.81,-298.8 299.27,-161.28 381.5,-89.25 385.61,-85.65 390.18,-82.55 395.02,-79.89"/>
<polygon fill="#63b8ff" stroke="#63b8ff" points="263.11,-355.84 265.44,-366.18 270.07,-356.65 263.11,-355.84"/>
</a>
</g>
</g>
<!-- Node20 -->
<g id="Node000020" class="node">
<title>Node20</title>
<g id="a_Node000020"><a xlink:href="classcom_1_1fs_1_1starfarer_1_1api_1_1impl_1_1campaign_1_1velfield_1_1TurbulenceEntityPlugin.html" target="_top" xlink:title=" ">
<polygon fill="white" stroke="#666666" points="579.75,-30.5 382.25,-30.5 382.25,0 579.75,0 579.75,-30.5"/>
<text text-anchor="start" x="390.25" y="-17" font-family="Helvetica,sans-Serif" font-size="10.00">com.fs.starfarer.api.impl.campaign.velfield.</text>
<text text-anchor="middle" x="481" y="-5.75" font-family="Helvetica,sans-Serif" font-size="10.00">TurbulenceEntityPlugin</text>
</a>
</g>
</g>
<!-- Node5&#45;&gt;Node20 -->
<g id="edge874_Node000005_Node000020" class="edge">
<title>Node5&#45;&gt;Node20</title>
<g id="a_edge874_Node000005_Node000020"><a xlink:title=" ">
<path fill="none" stroke="#63b8ff" d="M264.81,-356.74C268.55,-292.42 287.34,-127.01 381.5,-40.25 385.39,-36.66 389.73,-33.57 394.34,-30.92"/>
<polygon fill="#63b8ff" stroke="#63b8ff" points="261.33,-356.2 264.33,-366.36 268.32,-356.54 261.33,-356.2"/>
</a>
</g>
</g>
</g>
</svg>
