<?xml version="1.0" encoding="UTF-8" standalone="no"?>
<!DOCTYPE svg PUBLIC "-//W3C//DTD SVG 1.1//EN"
 "http://www.w3.org/Graphics/SVG/1.1/DTD/svg11.dtd">
<!-- Generated by graphviz version 2.44.0 ()
 -->
<!-- Title: Graphical Class Hierarchy Pages: 1 -->
<svg width="996pt" height="529pt"
 viewBox="0.00 0.00 996.00 529.00" xmlns="http://www.w3.org/2000/svg" xmlns:xlink="http://www.w3.org/1999/xlink">
<g id="graph0" class="graph" transform="scale(1 1) rotate(0) translate(4 525)">
<title>Graphical Class Hierarchy</title>
<!-- Node0 -->
<g id="node1" class="node">
<title>Node0</title>
<g id="a_node1"><a xlink:href="interfacecom_1_1fs_1_1starfarer_1_1api_1_1impl_1_1campaign_1_1missions_1_1cb_1_1CustomBountyCreator.html" target="_top" xlink:title=" ">
<polygon fill="none" stroke="black" points="0,-245.5 0,-275.5 220,-275.5 220,-245.5 0,-245.5"/>
<text text-anchor="start" x="8" y="-263.5" font-family="Helvetica,sans-Serif" font-size="10.00">com.fs.starfarer.api.impl.campaign.missions.cb.</text>
<text text-anchor="middle" x="110" y="-252.5" font-family="Helvetica,sans-Serif" font-size="10.00">CustomBountyCreator</text>
</a>
</g>
</g>
<!-- Node1 -->
<g id="node2" class="node">
<title>Node1</title>
<g id="a_node2"><a xlink:href="classcom_1_1fs_1_1starfarer_1_1api_1_1impl_1_1campaign_1_1missions_1_1cb_1_1BaseCustomBountyCreator.html" target="_top" xlink:title=" ">
<polygon fill="none" stroke="black" points="256,-245.5 256,-275.5 476,-275.5 476,-245.5 256,-245.5"/>
<text text-anchor="start" x="264" y="-263.5" font-family="Helvetica,sans-Serif" font-size="10.00">com.fs.starfarer.api.impl.campaign.missions.cb.</text>
<text text-anchor="middle" x="366" y="-252.5" font-family="Helvetica,sans-Serif" font-size="10.00">BaseCustomBountyCreator</text>
</a>
</g>
</g>
<!-- Node0&#45;&gt;Node1 -->
<g id="edge1" class="edge">
<title>Node0&#45;&gt;Node1</title>
<path fill="none" stroke="midnightblue" d="M230.22,-260.5C238.78,-260.5 247.4,-260.5 255.9,-260.5"/>
<polygon fill="midnightblue" stroke="midnightblue" points="230.19,-257 220.19,-260.5 230.19,-264 230.19,-257"/>
</g>
<!-- Node2 -->
<g id="node3" class="node">
<title>Node2</title>
<g id="a_node3"><a xlink:href="classcom_1_1fs_1_1starfarer_1_1api_1_1impl_1_1campaign_1_1missions_1_1cb_1_1CBDerelict.html" target="_top" xlink:title=" ">
<polygon fill="none" stroke="black" points="512,-490.5 512,-520.5 732,-520.5 732,-490.5 512,-490.5"/>
<text text-anchor="start" x="520" y="-508.5" font-family="Helvetica,sans-Serif" font-size="10.00">com.fs.starfarer.api.impl.campaign.missions.cb.</text>
<text text-anchor="middle" x="622" y="-497.5" font-family="Helvetica,sans-Serif" font-size="10.00">CBDerelict</text>
</a>
</g>
</g>
<!-- Node1&#45;&gt;Node2 -->
<g id="edge2" class="edge">
<title>Node1&#45;&gt;Node2</title>
<path fill="none" stroke="midnightblue" d="M375.93,-285.33C393.95,-331.73 439.28,-431.39 512,-481.5 517.03,-484.96 522.47,-487.94 528.14,-490.49"/>
<polygon fill="midnightblue" stroke="midnightblue" points="379.12,-283.88 372.31,-275.77 372.57,-286.36 379.12,-283.88"/>
</g>
<!-- Node3 -->
<g id="node4" class="node">
<title>Node3</title>
<g id="a_node4"><a xlink:href="classcom_1_1fs_1_1starfarer_1_1api_1_1impl_1_1campaign_1_1missions_1_1cb_1_1CBDeserter.html" target="_top" xlink:title=" ">
<polygon fill="none" stroke="black" points="512,-441.5 512,-471.5 732,-471.5 732,-441.5 512,-441.5"/>
<text text-anchor="start" x="520" y="-459.5" font-family="Helvetica,sans-Serif" font-size="10.00">com.fs.starfarer.api.impl.campaign.missions.cb.</text>
<text text-anchor="middle" x="622" y="-448.5" font-family="Helvetica,sans-Serif" font-size="10.00">CBDeserter</text>
</a>
</g>
</g>
<!-- Node1&#45;&gt;Node3 -->
<g id="edge3" class="edge">
<title>Node1&#45;&gt;Node3</title>
<path fill="none" stroke="midnightblue" d="M380.23,-284.61C402.3,-322.44 450.37,-395.26 512,-432.5 517.72,-435.96 523.88,-438.92 530.26,-441.45"/>
<polygon fill="midnightblue" stroke="midnightblue" points="383.18,-282.73 375.18,-275.79 377.11,-286.21 383.18,-282.73"/>
</g>
<!-- Node4 -->
<g id="node5" class="node">
<title>Node4</title>
<g id="a_node5"><a xlink:href="classcom_1_1fs_1_1starfarer_1_1api_1_1impl_1_1campaign_1_1missions_1_1cb_1_1CBEnemyStation.html" target="_top" xlink:title=" ">
<polygon fill="none" stroke="black" points="512,-392.5 512,-422.5 732,-422.5 732,-392.5 512,-392.5"/>
<text text-anchor="start" x="520" y="-410.5" font-family="Helvetica,sans-Serif" font-size="10.00">com.fs.starfarer.api.impl.campaign.missions.cb.</text>
<text text-anchor="middle" x="622" y="-399.5" font-family="Helvetica,sans-Serif" font-size="10.00">CBEnemyStation</text>
</a>
</g>
</g>
<!-- Node1&#45;&gt;Node4 -->
<g id="edge4" class="edge">
<title>Node1&#45;&gt;Node4</title>
<path fill="none" stroke="midnightblue" d="M387.15,-283.39C413.15,-311.42 461.12,-358.28 512,-383.5 518.94,-386.94 526.38,-389.89 533.98,-392.43"/>
<polygon fill="midnightblue" stroke="midnightblue" points="389.44,-280.7 380.11,-275.67 384.27,-285.42 389.44,-280.7"/>
</g>
<!-- Node5 -->
<g id="node6" class="node">
<title>Node5</title>
<g id="a_node6"><a xlink:href="classcom_1_1fs_1_1starfarer_1_1api_1_1impl_1_1campaign_1_1missions_1_1cb_1_1CBMerc.html" target="_top" xlink:title=" ">
<polygon fill="none" stroke="black" points="512,-343.5 512,-373.5 732,-373.5 732,-343.5 512,-343.5"/>
<text text-anchor="start" x="520" y="-361.5" font-family="Helvetica,sans-Serif" font-size="10.00">com.fs.starfarer.api.impl.campaign.missions.cb.</text>
<text text-anchor="middle" x="622" y="-350.5" font-family="Helvetica,sans-Serif" font-size="10.00">CBMerc</text>
</a>
</g>
</g>
<!-- Node1&#45;&gt;Node5 -->
<g id="edge5" class="edge">
<title>Node1&#45;&gt;Node5</title>
<path fill="none" stroke="midnightblue" d="M400.59,-280.76C429.29,-297.31 472.15,-320.21 512,-334.5 521.39,-337.87 531.42,-340.85 541.44,-343.47"/>
<polygon fill="midnightblue" stroke="midnightblue" points="402.19,-277.65 391.79,-275.64 398.67,-283.7 402.19,-277.65"/>
</g>
<!-- Node7 -->
<g id="node8" class="node">
<title>Node7</title>
<g id="a_node8"><a xlink:href="classcom_1_1fs_1_1starfarer_1_1api_1_1impl_1_1campaign_1_1missions_1_1cb_1_1CBPather.html" target="_top" xlink:title=" ">
<polygon fill="none" stroke="black" points="512,-294.5 512,-324.5 732,-324.5 732,-294.5 512,-294.5"/>
<text text-anchor="start" x="520" y="-312.5" font-family="Helvetica,sans-Serif" font-size="10.00">com.fs.starfarer.api.impl.campaign.missions.cb.</text>
<text text-anchor="middle" x="622" y="-301.5" font-family="Helvetica,sans-Serif" font-size="10.00">CBPather</text>
</a>
</g>
</g>
<!-- Node1&#45;&gt;Node7 -->
<g id="edge7" class="edge">
<title>Node1&#45;&gt;Node7</title>
<path fill="none" stroke="midnightblue" d="M454.95,-277.47C483.66,-283 515.31,-289.11 543.21,-294.49"/>
<polygon fill="midnightblue" stroke="midnightblue" points="455.42,-273.99 444.93,-275.53 454.09,-280.87 455.42,-273.99"/>
</g>
<!-- Node8 -->
<g id="node9" class="node">
<title>Node8</title>
<g id="a_node9"><a xlink:href="classcom_1_1fs_1_1starfarer_1_1api_1_1impl_1_1campaign_1_1missions_1_1cb_1_1CBPatrol.html" target="_top" xlink:title=" ">
<polygon fill="none" stroke="black" points="512,-245.5 512,-275.5 732,-275.5 732,-245.5 512,-245.5"/>
<text text-anchor="start" x="520" y="-263.5" font-family="Helvetica,sans-Serif" font-size="10.00">com.fs.starfarer.api.impl.campaign.missions.cb.</text>
<text text-anchor="middle" x="622" y="-252.5" font-family="Helvetica,sans-Serif" font-size="10.00">CBPatrol</text>
</a>
</g>
</g>
<!-- Node1&#45;&gt;Node8 -->
<g id="edge8" class="edge">
<title>Node1&#45;&gt;Node8</title>
<path fill="none" stroke="midnightblue" d="M486.22,-260.5C494.78,-260.5 503.4,-260.5 511.9,-260.5"/>
<polygon fill="midnightblue" stroke="midnightblue" points="486.19,-257 476.19,-260.5 486.19,-264 486.19,-257"/>
</g>
<!-- Node9 -->
<g id="node10" class="node">
<title>Node9</title>
<g id="a_node10"><a xlink:href="classcom_1_1fs_1_1starfarer_1_1api_1_1impl_1_1campaign_1_1missions_1_1cb_1_1CBPirate.html" target="_top" xlink:title=" ">
<polygon fill="none" stroke="black" points="512,-196.5 512,-226.5 732,-226.5 732,-196.5 512,-196.5"/>
<text text-anchor="start" x="520" y="-214.5" font-family="Helvetica,sans-Serif" font-size="10.00">com.fs.starfarer.api.impl.campaign.missions.cb.</text>
<text text-anchor="middle" x="622" y="-203.5" font-family="Helvetica,sans-Serif" font-size="10.00">CBPirate</text>
</a>
</g>
</g>
<!-- Node1&#45;&gt;Node9 -->
<g id="edge9" class="edge">
<title>Node1&#45;&gt;Node9</title>
<path fill="none" stroke="midnightblue" d="M454.95,-243.53C483.66,-238 515.31,-231.89 543.21,-226.51"/>
<polygon fill="midnightblue" stroke="midnightblue" points="454.09,-240.13 444.93,-245.47 455.42,-247.01 454.09,-240.13"/>
</g>
<!-- Node10 -->
<g id="node11" class="node">
<title>Node10</title>
<g id="a_node11"><a xlink:href="classcom_1_1fs_1_1starfarer_1_1api_1_1impl_1_1campaign_1_1missions_1_1cb_1_1CBRemnant.html" target="_top" xlink:title=" ">
<polygon fill="none" stroke="black" points="512,-147.5 512,-177.5 732,-177.5 732,-147.5 512,-147.5"/>
<text text-anchor="start" x="520" y="-165.5" font-family="Helvetica,sans-Serif" font-size="10.00">com.fs.starfarer.api.impl.campaign.missions.cb.</text>
<text text-anchor="middle" x="622" y="-154.5" font-family="Helvetica,sans-Serif" font-size="10.00">CBRemnant</text>
</a>
</g>
</g>
<!-- Node1&#45;&gt;Node10 -->
<g id="edge10" class="edge">
<title>Node1&#45;&gt;Node10</title>
<path fill="none" stroke="midnightblue" d="M401.18,-240.33C429.92,-224.1 472.52,-201.73 512,-187.5 522.41,-183.75 533.59,-180.43 544.68,-177.53"/>
<polygon fill="midnightblue" stroke="midnightblue" points="399.31,-237.37 392.36,-245.36 402.78,-243.45 399.31,-237.37"/>
</g>
<!-- Node11 -->
<g id="node12" class="node">
<title>Node11</title>
<g id="a_node12"><a xlink:href="classcom_1_1fs_1_1starfarer_1_1api_1_1impl_1_1campaign_1_1missions_1_1cb_1_1CBRemnantPlus.html" target="_top" xlink:title=" ">
<polygon fill="none" stroke="black" points="512,-98.5 512,-128.5 732,-128.5 732,-98.5 512,-98.5"/>
<text text-anchor="start" x="520" y="-116.5" font-family="Helvetica,sans-Serif" font-size="10.00">com.fs.starfarer.api.impl.campaign.missions.cb.</text>
<text text-anchor="middle" x="622" y="-105.5" font-family="Helvetica,sans-Serif" font-size="10.00">CBRemnantPlus</text>
</a>
</g>
</g>
<!-- Node1&#45;&gt;Node11 -->
<g id="edge11" class="edge">
<title>Node1&#45;&gt;Node11</title>
<path fill="none" stroke="midnightblue" d="M387.64,-237.44C413.81,-209.66 461.62,-163.62 512,-138.5 519.82,-134.6 528.26,-131.3 536.86,-128.51"/>
<polygon fill="midnightblue" stroke="midnightblue" points="384.77,-235.38 380.54,-245.09 389.91,-240.14 384.77,-235.38"/>
</g>
<!-- Node12 -->
<g id="node13" class="node">
<title>Node12</title>
<g id="a_node13"><a xlink:href="classcom_1_1fs_1_1starfarer_1_1api_1_1impl_1_1campaign_1_1missions_1_1cb_1_1CBRemnantStation.html" target="_top" xlink:title=" ">
<polygon fill="none" stroke="black" points="512,-49.5 512,-79.5 732,-79.5 732,-49.5 512,-49.5"/>
<text text-anchor="start" x="520" y="-67.5" font-family="Helvetica,sans-Serif" font-size="10.00">com.fs.starfarer.api.impl.campaign.missions.cb.</text>
<text text-anchor="middle" x="622" y="-56.5" font-family="Helvetica,sans-Serif" font-size="10.00">CBRemnantStation</text>
</a>
</g>
</g>
<!-- Node1&#45;&gt;Node12 -->
<g id="edge12" class="edge">
<title>Node1&#45;&gt;Node12</title>
<path fill="none" stroke="midnightblue" d="M380.3,-236.59C402.48,-199.07 450.69,-126.8 512,-89.5 518.39,-85.62 525.32,-82.33 532.48,-79.56"/>
<polygon fill="midnightblue" stroke="midnightblue" points="377.22,-234.93 375.23,-245.34 383.27,-238.44 377.22,-234.93"/>
</g>
<!-- Node13 -->
<g id="node14" class="node">
<title>Node13</title>
<g id="a_node14"><a xlink:href="classcom_1_1fs_1_1starfarer_1_1api_1_1impl_1_1campaign_1_1missions_1_1cb_1_1CBTrader.html" target="_top" xlink:title=" ">
<polygon fill="none" stroke="black" points="512,-0.5 512,-30.5 732,-30.5 732,-0.5 512,-0.5"/>
<text text-anchor="start" x="520" y="-18.5" font-family="Helvetica,sans-Serif" font-size="10.00">com.fs.starfarer.api.impl.campaign.missions.cb.</text>
<text text-anchor="middle" x="622" y="-7.5" font-family="Helvetica,sans-Serif" font-size="10.00">CBTrader</text>
</a>
</g>
</g>
<!-- Node1&#45;&gt;Node13 -->
<g id="edge13" class="edge">
<title>Node1&#45;&gt;Node13</title>
<path fill="none" stroke="midnightblue" d="M376,-235.84C394.15,-189.75 439.68,-90.7 512,-40.5 517.58,-36.63 523.68,-33.34 530.04,-30.56"/>
<polygon fill="midnightblue" stroke="midnightblue" points="372.67,-234.75 372.35,-245.34 379.2,-237.26 372.67,-234.75"/>
</g>
<!-- Node6 -->
<g id="node7" class="node">
<title>Node6</title>
<g id="a_node7"><a xlink:href="classcom_1_1fs_1_1starfarer_1_1api_1_1impl_1_1campaign_1_1missions_1_1cb_1_1CBMercUW.html" target="_top" xlink:title=" ">
<polygon fill="none" stroke="black" points="768,-343.5 768,-373.5 988,-373.5 988,-343.5 768,-343.5"/>
<text text-anchor="start" x="776" y="-361.5" font-family="Helvetica,sans-Serif" font-size="10.00">com.fs.starfarer.api.impl.campaign.missions.cb.</text>
<text text-anchor="middle" x="878" y="-350.5" font-family="Helvetica,sans-Serif" font-size="10.00">CBMercUW</text>
</a>
</g>
</g>
<!-- Node5&#45;&gt;Node6 -->
<g id="edge6" class="edge">
<title>Node5&#45;&gt;Node6</title>
<path fill="none" stroke="midnightblue" d="M742.22,-358.5C750.78,-358.5 759.4,-358.5 767.9,-358.5"/>
<polygon fill="midnightblue" stroke="midnightblue" points="742.19,-355 732.19,-358.5 742.19,-362 742.19,-355"/>
</g>
</g>
</svg>
