<?xml version="1.0" encoding="UTF-8" standalone="no"?>
<!DOCTYPE svg PUBLIC "-//W3C//DTD SVG 1.1//EN"
 "http://www.w3.org/Graphics/SVG/1.1/DTD/svg11.dtd">
<!-- Generated by graphviz version 2.44.0 ()
 -->
<!-- Title: Graphical Class Hierarchy Pages: 1 -->
<svg width="994pt" height="578pt"
 viewBox="0.00 0.00 994.00 578.00" xmlns="http://www.w3.org/2000/svg" xmlns:xlink="http://www.w3.org/1999/xlink">
<g id="graph0" class="graph" transform="scale(1 1) rotate(0) translate(4 574)">
<title>Graphical Class Hierarchy</title>
<!-- Node0 -->
<g id="node1" class="node">
<title>Node0</title>
<g id="a_node1"><a xlink:href="interfacecom_1_1fs_1_1starfarer_1_1api_1_1impl_1_1campaign_1_1procgen_1_1themes_1_1BaseAssignmentAI_1_1FleetActionDelegate.html" target="_top" xlink:title=" ">
<polygon fill="none" stroke="black" points="480,-245.5 480,-275.5 717,-275.5 717,-245.5 480,-245.5"/>
<text text-anchor="start" x="488" y="-263.5" font-family="Helvetica,sans-Serif" font-size="10.00">com.fs.starfarer.api.impl.campaign.procgen.themes.</text>
<text text-anchor="middle" x="598.5" y="-252.5" font-family="Helvetica,sans-Serif" font-size="10.00">BaseAssignmentAI.FleetActionDelegate</text>
</a>
</g>
</g>
<!-- Node1 -->
<g id="node2" class="node">
<title>Node1</title>
<g id="a_node2"><a xlink:href="classcom_1_1fs_1_1starfarer_1_1api_1_1impl_1_1campaign_1_1intel_1_1inspection_1_1HIActionStage.html" target="_top" xlink:title=" ">
<polygon fill="none" stroke="black" points="753,-245.5 753,-275.5 986,-275.5 986,-245.5 753,-245.5"/>
<text text-anchor="start" x="761" y="-263.5" font-family="Helvetica,sans-Serif" font-size="10.00">com.fs.starfarer.api.impl.campaign.intel.inspection.</text>
<text text-anchor="middle" x="869.5" y="-252.5" font-family="Helvetica,sans-Serif" font-size="10.00">HIActionStage</text>
</a>
</g>
</g>
<!-- Node0&#45;&gt;Node1 -->
<g id="edge1" class="edge">
<title>Node0&#45;&gt;Node1</title>
<path fill="none" stroke="midnightblue" d="M727.15,-260.5C735.74,-260.5 744.36,-260.5 752.88,-260.5"/>
<polygon fill="midnightblue" stroke="midnightblue" points="727.1,-257 717.1,-260.5 727.1,-264 727.1,-257"/>
</g>
<!-- Node2 -->
<g id="node3" class="node">
<title>Node2</title>
<g id="a_node3"><a xlink:href="classcom_1_1fs_1_1starfarer_1_1api_1_1impl_1_1campaign_1_1intel_1_1punitive_1_1PEActionStage.html" target="_top" xlink:title=" ">
<polygon fill="none" stroke="black" points="758.5,-196.5 758.5,-226.5 980.5,-226.5 980.5,-196.5 758.5,-196.5"/>
<text text-anchor="start" x="766.5" y="-214.5" font-family="Helvetica,sans-Serif" font-size="10.00">com.fs.starfarer.api.impl.campaign.intel.punitive.</text>
<text text-anchor="middle" x="869.5" y="-203.5" font-family="Helvetica,sans-Serif" font-size="10.00">PEActionStage</text>
</a>
</g>
</g>
<!-- Node0&#45;&gt;Node2 -->
<g id="edge2" class="edge">
<title>Node0&#45;&gt;Node2</title>
<path fill="none" stroke="midnightblue" d="M692.25,-243.61C722.75,-238.05 756.44,-231.91 786.12,-226.51"/>
<polygon fill="midnightblue" stroke="midnightblue" points="691.25,-240.23 682.04,-245.47 692.5,-247.12 691.25,-240.23"/>
</g>
<!-- Node3 -->
<g id="node4" class="node">
<title>Node3</title>
<g id="a_node4"><a xlink:href="classcom_1_1fs_1_1starfarer_1_1api_1_1impl_1_1campaign_1_1intel_1_1raid_1_1PirateRaidActionStage.html" target="_top" xlink:title=" ">
<polygon fill="none" stroke="black" points="767.5,-147.5 767.5,-177.5 971.5,-177.5 971.5,-147.5 767.5,-147.5"/>
<text text-anchor="start" x="775.5" y="-165.5" font-family="Helvetica,sans-Serif" font-size="10.00">com.fs.starfarer.api.impl.campaign.intel.raid.</text>
<text text-anchor="middle" x="869.5" y="-154.5" font-family="Helvetica,sans-Serif" font-size="10.00">PirateRaidActionStage</text>
</a>
</g>
</g>
<!-- Node0&#45;&gt;Node3 -->
<g id="edge3" class="edge">
<title>Node0&#45;&gt;Node3</title>
<path fill="none" stroke="midnightblue" d="M707.13,-241.15C710.53,-239.42 713.84,-237.54 717,-235.5 739.7,-220.84 730.26,-201.11 753,-186.5 758.34,-183.07 764.08,-180.12 770.05,-177.58"/>
<polygon fill="midnightblue" stroke="midnightblue" points="705.53,-238.04 697.89,-245.38 708.44,-244.4 705.53,-238.04"/>
</g>
<!-- Node1986 -->
<g id="node5" class="node">
<title>Node1986</title>
<g id="a_node5"><a xlink:href="interfacecom_1_1fs_1_1starfarer_1_1api_1_1impl_1_1campaign_1_1intel_1_1raid_1_1RaidIntel_1_1RaidStage.html" target="_top" xlink:title=" ">
<polygon fill="none" stroke="black" points="0,-318.5 0,-348.5 204,-348.5 204,-318.5 0,-318.5"/>
<text text-anchor="start" x="8" y="-336.5" font-family="Helvetica,sans-Serif" font-size="10.00">com.fs.starfarer.api.impl.campaign.intel.raid.</text>
<text text-anchor="middle" x="102" y="-325.5" font-family="Helvetica,sans-Serif" font-size="10.00">RaidIntel.RaidStage</text>
</a>
</g>
</g>
<!-- Node1987 -->
<g id="node6" class="node">
<title>Node1987</title>
<g id="a_node6"><a xlink:href="classcom_1_1fs_1_1starfarer_1_1api_1_1impl_1_1campaign_1_1intel_1_1raid_1_1BaseRaidStage.html" target="_top" xlink:title=" ">
<polygon fill="none" stroke="black" points="240,-318.5 240,-348.5 444,-348.5 444,-318.5 240,-318.5"/>
<text text-anchor="start" x="248" y="-336.5" font-family="Helvetica,sans-Serif" font-size="10.00">com.fs.starfarer.api.impl.campaign.intel.raid.</text>
<text text-anchor="middle" x="342" y="-325.5" font-family="Helvetica,sans-Serif" font-size="10.00">BaseRaidStage</text>
</a>
</g>
</g>
<!-- Node1986&#45;&gt;Node1987 -->
<g id="edge4" class="edge">
<title>Node1986&#45;&gt;Node1987</title>
<path fill="none" stroke="midnightblue" d="M214.53,-333.5C222.96,-333.5 231.45,-333.5 239.81,-333.5"/>
<polygon fill="midnightblue" stroke="midnightblue" points="214.28,-330 204.28,-333.5 214.28,-337 214.28,-330"/>
</g>
<!-- Node1988 -->
<g id="node7" class="node">
<title>Node1988</title>
<g id="a_node7"><a xlink:href="classcom_1_1fs_1_1starfarer_1_1api_1_1impl_1_1campaign_1_1intel_1_1raid_1_1ActionStage.html" target="_top" xlink:title=" ">
<polygon fill="none" stroke="black" points="496.5,-196.5 496.5,-226.5 700.5,-226.5 700.5,-196.5 496.5,-196.5"/>
<text text-anchor="start" x="504.5" y="-214.5" font-family="Helvetica,sans-Serif" font-size="10.00">com.fs.starfarer.api.impl.campaign.intel.raid.</text>
<text text-anchor="middle" x="598.5" y="-203.5" font-family="Helvetica,sans-Serif" font-size="10.00">ActionStage</text>
</a>
</g>
</g>
<!-- Node1987&#45;&gt;Node1988 -->
<g id="edge5" class="edge">
<title>Node1987&#45;&gt;Node1988</title>
<path fill="none" stroke="midnightblue" d="M367.08,-311.4C393.02,-288.83 436.46,-254.49 480,-235.5 487.92,-232.05 496.36,-229.08 504.94,-226.54"/>
<polygon fill="midnightblue" stroke="midnightblue" points="364.47,-309.04 359.3,-318.28 369.11,-314.28 364.47,-309.04"/>
</g>
<!-- Node1989 -->
<g id="node8" class="node">
<title>Node1989</title>
<g id="a_node8"><a xlink:href="classcom_1_1fs_1_1starfarer_1_1api_1_1impl_1_1campaign_1_1intel_1_1raid_1_1AssembleStage.html" target="_top" xlink:title=" ">
<polygon fill="none" stroke="black" points="496.5,-74.5 496.5,-104.5 700.5,-104.5 700.5,-74.5 496.5,-74.5"/>
<text text-anchor="start" x="504.5" y="-92.5" font-family="Helvetica,sans-Serif" font-size="10.00">com.fs.starfarer.api.impl.campaign.intel.raid.</text>
<text text-anchor="middle" x="598.5" y="-81.5" font-family="Helvetica,sans-Serif" font-size="10.00">AssembleStage</text>
</a>
</g>
</g>
<!-- Node1987&#45;&gt;Node1989 -->
<g id="edge9" class="edge">
<title>Node1987&#45;&gt;Node1989</title>
<path fill="none" stroke="midnightblue" d="M362.71,-310.56C388.58,-280.87 435.89,-228.04 480,-186.5 512.74,-155.67 553.81,-123.01 577.71,-104.55"/>
<polygon fill="midnightblue" stroke="midnightblue" points="359.91,-308.44 356,-318.29 365.2,-313.03 359.91,-308.44"/>
</g>
<!-- Node1993 -->
<g id="node12" class="node">
<title>Node1993</title>
<g id="a_node12"><a xlink:href="classcom_1_1fs_1_1starfarer_1_1api_1_1impl_1_1campaign_1_1intel_1_1raid_1_1OrganizeStage.html" target="_top" xlink:title=" ">
<polygon fill="none" stroke="black" points="496.5,-490.5 496.5,-520.5 700.5,-520.5 700.5,-490.5 496.5,-490.5"/>
<text text-anchor="start" x="504.5" y="-508.5" font-family="Helvetica,sans-Serif" font-size="10.00">com.fs.starfarer.api.impl.campaign.intel.raid.</text>
<text text-anchor="middle" x="598.5" y="-497.5" font-family="Helvetica,sans-Serif" font-size="10.00">OrganizeStage</text>
</a>
</g>
</g>
<!-- Node1987&#45;&gt;Node1993 -->
<g id="edge13" class="edge">
<title>Node1987&#45;&gt;Node1993</title>
<path fill="none" stroke="midnightblue" d="M371.45,-354.95C398.88,-375.41 441.74,-406.83 480,-432.5 511.11,-453.37 547.94,-475.91 571.96,-490.34"/>
<polygon fill="midnightblue" stroke="midnightblue" points="373.22,-351.9 363.11,-348.71 369.02,-357.5 373.22,-351.9"/>
</g>
<!-- Node1996 -->
<g id="node15" class="node">
<title>Node1996</title>
<g id="a_node15"><a xlink:href="classcom_1_1fs_1_1starfarer_1_1api_1_1impl_1_1campaign_1_1intel_1_1raid_1_1ReturnStage.html" target="_top" xlink:title=" ">
<polygon fill="none" stroke="black" points="496.5,-392.5 496.5,-422.5 700.5,-422.5 700.5,-392.5 496.5,-392.5"/>
<text text-anchor="start" x="504.5" y="-410.5" font-family="Helvetica,sans-Serif" font-size="10.00">com.fs.starfarer.api.impl.campaign.intel.raid.</text>
<text text-anchor="middle" x="598.5" y="-399.5" font-family="Helvetica,sans-Serif" font-size="10.00">ReturnStage</text>
</a>
</g>
</g>
<!-- Node1987&#45;&gt;Node1996 -->
<g id="edge16" class="edge">
<title>Node1987&#45;&gt;Node1996</title>
<path fill="none" stroke="midnightblue" d="M404.64,-351.42C447.84,-363.98 504.93,-380.58 545.76,-392.46"/>
<polygon fill="midnightblue" stroke="midnightblue" points="405.39,-348 394.81,-348.56 403.43,-354.72 405.39,-348"/>
</g>
<!-- Node1999 -->
<g id="node18" class="node">
<title>Node1999</title>
<g id="a_node18"><a xlink:href="classcom_1_1fs_1_1starfarer_1_1api_1_1impl_1_1campaign_1_1intel_1_1raid_1_1TravelStage.html" target="_top" xlink:title=" ">
<polygon fill="none" stroke="black" points="496.5,-318.5 496.5,-348.5 700.5,-348.5 700.5,-318.5 496.5,-318.5"/>
<text text-anchor="start" x="504.5" y="-336.5" font-family="Helvetica,sans-Serif" font-size="10.00">com.fs.starfarer.api.impl.campaign.intel.raid.</text>
<text text-anchor="middle" x="598.5" y="-325.5" font-family="Helvetica,sans-Serif" font-size="10.00">TravelStage</text>
</a>
</g>
</g>
<!-- Node1987&#45;&gt;Node1999 -->
<g id="edge19" class="edge">
<title>Node1987&#45;&gt;Node1999</title>
<path fill="none" stroke="midnightblue" d="M454.37,-333.5C468.26,-333.5 482.4,-333.5 496.12,-333.5"/>
<polygon fill="midnightblue" stroke="midnightblue" points="454.32,-330 444.32,-333.5 454.32,-337 454.32,-330"/>
</g>
<!-- Node1988&#45;&gt;Node1 -->
<g id="edge6" class="edge">
<title>Node1988&#45;&gt;Node1</title>
<path fill="none" stroke="midnightblue" d="M692.25,-228.39C722.75,-233.95 756.44,-240.09 786.12,-245.49"/>
<polygon fill="midnightblue" stroke="midnightblue" points="692.5,-224.88 682.04,-226.53 691.25,-231.77 692.5,-224.88"/>
</g>
<!-- Node1988&#45;&gt;Node2 -->
<g id="edge7" class="edge">
<title>Node1988&#45;&gt;Node2</title>
<path fill="none" stroke="midnightblue" d="M711.01,-211.5C726.63,-211.5 742.68,-211.5 758.28,-211.5"/>
<polygon fill="midnightblue" stroke="midnightblue" points="710.81,-208 700.81,-211.5 710.81,-215 710.81,-208"/>
</g>
<!-- Node1988&#45;&gt;Node3 -->
<g id="edge8" class="edge">
<title>Node1988&#45;&gt;Node3</title>
<path fill="none" stroke="midnightblue" d="M692.25,-194.61C722.75,-189.05 756.44,-182.91 786.12,-177.51"/>
<polygon fill="midnightblue" stroke="midnightblue" points="691.25,-191.23 682.04,-196.47 692.5,-198.12 691.25,-191.23"/>
</g>
<!-- Node1990 -->
<g id="node9" class="node">
<title>Node1990</title>
<g id="a_node9"><a xlink:href="classcom_1_1fs_1_1starfarer_1_1api_1_1impl_1_1campaign_1_1intel_1_1inspection_1_1HIAssembleStage.html" target="_top" xlink:title=" ">
<polygon fill="none" stroke="black" points="753,-98.5 753,-128.5 986,-128.5 986,-98.5 753,-98.5"/>
<text text-anchor="start" x="761" y="-116.5" font-family="Helvetica,sans-Serif" font-size="10.00">com.fs.starfarer.api.impl.campaign.intel.inspection.</text>
<text text-anchor="middle" x="869.5" y="-105.5" font-family="Helvetica,sans-Serif" font-size="10.00">HIAssembleStage</text>
</a>
</g>
</g>
<!-- Node1989&#45;&gt;Node1990 -->
<g id="edge10" class="edge">
<title>Node1989&#45;&gt;Node1990</title>
<path fill="none" stroke="midnightblue" d="M710.84,-99.43C724.7,-100.67 738.9,-101.94 752.83,-103.18"/>
<polygon fill="midnightblue" stroke="midnightblue" points="711.09,-95.94 700.81,-98.54 710.46,-102.91 711.09,-95.94"/>
</g>
<!-- Node1991 -->
<g id="node10" class="node">
<title>Node1991</title>
<g id="a_node10"><a xlink:href="classcom_1_1fs_1_1starfarer_1_1api_1_1impl_1_1campaign_1_1intel_1_1punitive_1_1PEAssembleStage.html" target="_top" xlink:title=" ">
<polygon fill="none" stroke="black" points="758.5,-49.5 758.5,-79.5 980.5,-79.5 980.5,-49.5 758.5,-49.5"/>
<text text-anchor="start" x="766.5" y="-67.5" font-family="Helvetica,sans-Serif" font-size="10.00">com.fs.starfarer.api.impl.campaign.intel.punitive.</text>
<text text-anchor="middle" x="869.5" y="-56.5" font-family="Helvetica,sans-Serif" font-size="10.00">PEAssembleStage</text>
</a>
</g>
</g>
<!-- Node1989&#45;&gt;Node1991 -->
<g id="edge11" class="edge">
<title>Node1989&#45;&gt;Node1991</title>
<path fill="none" stroke="midnightblue" d="M711.01,-79.14C726.63,-77.68 742.68,-76.19 758.28,-74.74"/>
<polygon fill="midnightblue" stroke="midnightblue" points="710.45,-75.67 700.81,-80.08 711.1,-82.64 710.45,-75.67"/>
</g>
<!-- Node1992 -->
<g id="node11" class="node">
<title>Node1992</title>
<g id="a_node11"><a xlink:href="classcom_1_1fs_1_1starfarer_1_1api_1_1impl_1_1campaign_1_1intel_1_1raid_1_1PirateRaidAssembleStage.html" target="_top" xlink:title=" ">
<polygon fill="none" stroke="black" points="767.5,-0.5 767.5,-30.5 971.5,-30.5 971.5,-0.5 767.5,-0.5"/>
<text text-anchor="start" x="775.5" y="-18.5" font-family="Helvetica,sans-Serif" font-size="10.00">com.fs.starfarer.api.impl.campaign.intel.raid.</text>
<text text-anchor="middle" x="869.5" y="-7.5" font-family="Helvetica,sans-Serif" font-size="10.00">PirateRaidAssembleStage</text>
</a>
</g>
</g>
<!-- Node1989&#45;&gt;Node1992 -->
<g id="edge12" class="edge">
<title>Node1989&#45;&gt;Node1992</title>
<path fill="none" stroke="midnightblue" d="M651.17,-71.1C680.75,-60.96 718.69,-48.62 753,-39.5 764.97,-36.32 777.74,-33.3 790.25,-30.54"/>
<polygon fill="midnightblue" stroke="midnightblue" points="649.79,-67.87 641.48,-74.44 652.07,-74.49 649.79,-67.87"/>
</g>
<!-- Node1994 -->
<g id="node13" class="node">
<title>Node1994</title>
<g id="a_node13"><a xlink:href="classcom_1_1fs_1_1starfarer_1_1api_1_1impl_1_1campaign_1_1intel_1_1inspection_1_1HIOrganizeStage.html" target="_top" xlink:title=" ">
<polygon fill="none" stroke="black" points="753,-539.5 753,-569.5 986,-569.5 986,-539.5 753,-539.5"/>
<text text-anchor="start" x="761" y="-557.5" font-family="Helvetica,sans-Serif" font-size="10.00">com.fs.starfarer.api.impl.campaign.intel.inspection.</text>
<text text-anchor="middle" x="869.5" y="-546.5" font-family="Helvetica,sans-Serif" font-size="10.00">HIOrganizeStage</text>
</a>
</g>
</g>
<!-- Node1993&#45;&gt;Node1994 -->
<g id="edge14" class="edge">
<title>Node1993&#45;&gt;Node1994</title>
<path fill="none" stroke="midnightblue" d="M692.25,-522.39C722.75,-527.95 756.44,-534.09 786.12,-539.49"/>
<polygon fill="midnightblue" stroke="midnightblue" points="692.5,-518.88 682.04,-520.53 691.25,-525.77 692.5,-518.88"/>
</g>
<!-- Node1995 -->
<g id="node14" class="node">
<title>Node1995</title>
<g id="a_node14"><a xlink:href="classcom_1_1fs_1_1starfarer_1_1api_1_1impl_1_1campaign_1_1intel_1_1punitive_1_1PEOrganizeStage.html" target="_top" xlink:title=" ">
<polygon fill="none" stroke="black" points="758.5,-490.5 758.5,-520.5 980.5,-520.5 980.5,-490.5 758.5,-490.5"/>
<text text-anchor="start" x="766.5" y="-508.5" font-family="Helvetica,sans-Serif" font-size="10.00">com.fs.starfarer.api.impl.campaign.intel.punitive.</text>
<text text-anchor="middle" x="869.5" y="-497.5" font-family="Helvetica,sans-Serif" font-size="10.00">PEOrganizeStage</text>
</a>
</g>
</g>
<!-- Node1993&#45;&gt;Node1995 -->
<g id="edge15" class="edge">
<title>Node1993&#45;&gt;Node1995</title>
<path fill="none" stroke="midnightblue" d="M711.01,-505.5C726.63,-505.5 742.68,-505.5 758.28,-505.5"/>
<polygon fill="midnightblue" stroke="midnightblue" points="710.81,-502 700.81,-505.5 710.81,-509 710.81,-502"/>
</g>
<!-- Node1997 -->
<g id="node16" class="node">
<title>Node1997</title>
<g id="a_node16"><a xlink:href="classcom_1_1fs_1_1starfarer_1_1api_1_1impl_1_1campaign_1_1intel_1_1inspection_1_1HIReturnStage.html" target="_top" xlink:title=" ">
<polygon fill="none" stroke="black" points="753,-441.5 753,-471.5 986,-471.5 986,-441.5 753,-441.5"/>
<text text-anchor="start" x="761" y="-459.5" font-family="Helvetica,sans-Serif" font-size="10.00">com.fs.starfarer.api.impl.campaign.intel.inspection.</text>
<text text-anchor="middle" x="869.5" y="-448.5" font-family="Helvetica,sans-Serif" font-size="10.00">HIReturnStage</text>
</a>
</g>
</g>
<!-- Node1996&#45;&gt;Node1997 -->
<g id="edge17" class="edge">
<title>Node1996&#45;&gt;Node1997</title>
<path fill="none" stroke="midnightblue" d="M692.25,-424.39C722.75,-429.95 756.44,-436.09 786.12,-441.49"/>
<polygon fill="midnightblue" stroke="midnightblue" points="692.5,-420.88 682.04,-422.53 691.25,-427.77 692.5,-420.88"/>
</g>
<!-- Node1998 -->
<g id="node17" class="node">
<title>Node1998</title>
<g id="a_node17"><a xlink:href="classcom_1_1fs_1_1starfarer_1_1api_1_1impl_1_1campaign_1_1intel_1_1punitive_1_1PEReturnStage.html" target="_top" xlink:title=" ">
<polygon fill="none" stroke="black" points="758.5,-392.5 758.5,-422.5 980.5,-422.5 980.5,-392.5 758.5,-392.5"/>
<text text-anchor="start" x="766.5" y="-410.5" font-family="Helvetica,sans-Serif" font-size="10.00">com.fs.starfarer.api.impl.campaign.intel.punitive.</text>
<text text-anchor="middle" x="869.5" y="-399.5" font-family="Helvetica,sans-Serif" font-size="10.00">PEReturnStage</text>
</a>
</g>
</g>
<!-- Node1996&#45;&gt;Node1998 -->
<g id="edge18" class="edge">
<title>Node1996&#45;&gt;Node1998</title>
<path fill="none" stroke="midnightblue" d="M711.01,-407.5C726.63,-407.5 742.68,-407.5 758.28,-407.5"/>
<polygon fill="midnightblue" stroke="midnightblue" points="710.81,-404 700.81,-407.5 710.81,-411 710.81,-404"/>
</g>
<!-- Node2000 -->
<g id="node19" class="node">
<title>Node2000</title>
<g id="a_node19"><a xlink:href="classcom_1_1fs_1_1starfarer_1_1api_1_1impl_1_1campaign_1_1intel_1_1inspection_1_1HITravelStage.html" target="_top" xlink:title=" ">
<polygon fill="none" stroke="black" points="753,-343.5 753,-373.5 986,-373.5 986,-343.5 753,-343.5"/>
<text text-anchor="start" x="761" y="-361.5" font-family="Helvetica,sans-Serif" font-size="10.00">com.fs.starfarer.api.impl.campaign.intel.inspection.</text>
<text text-anchor="middle" x="869.5" y="-350.5" font-family="Helvetica,sans-Serif" font-size="10.00">HITravelStage</text>
</a>
</g>
</g>
<!-- Node1999&#45;&gt;Node2000 -->
<g id="edge20" class="edge">
<title>Node1999&#45;&gt;Node2000</title>
<path fill="none" stroke="midnightblue" d="M710.84,-343.85C724.7,-345.14 738.9,-346.46 752.83,-347.75"/>
<polygon fill="midnightblue" stroke="midnightblue" points="711.1,-340.36 700.81,-342.92 710.45,-347.33 711.1,-340.36"/>
</g>
<!-- Node2001 -->
<g id="node20" class="node">
<title>Node2001</title>
<g id="a_node20"><a xlink:href="classcom_1_1fs_1_1starfarer_1_1api_1_1impl_1_1campaign_1_1intel_1_1punitive_1_1PETravelStage.html" target="_top" xlink:title=" ">
<polygon fill="none" stroke="black" points="758.5,-294.5 758.5,-324.5 980.5,-324.5 980.5,-294.5 758.5,-294.5"/>
<text text-anchor="start" x="766.5" y="-312.5" font-family="Helvetica,sans-Serif" font-size="10.00">com.fs.starfarer.api.impl.campaign.intel.punitive.</text>
<text text-anchor="middle" x="869.5" y="-301.5" font-family="Helvetica,sans-Serif" font-size="10.00">PETravelStage</text>
</a>
</g>
</g>
<!-- Node1999&#45;&gt;Node2001 -->
<g id="edge21" class="edge">
<title>Node1999&#45;&gt;Node2001</title>
<path fill="none" stroke="midnightblue" d="M711.01,-323.55C726.63,-322.16 742.68,-320.73 758.28,-319.33"/>
<polygon fill="midnightblue" stroke="midnightblue" points="710.46,-320.09 700.81,-324.46 711.09,-327.06 710.46,-320.09"/>
</g>
</g>
</svg>
