<?xml version="1.0" encoding="UTF-8" standalone="no"?>
<!DOCTYPE svg PUBLIC "-//W3C//DTD SVG 1.1//EN"
 "http://www.w3.org/Graphics/SVG/1.1/DTD/svg11.dtd">
<!-- Generated by graphviz version 7.0.5 (20221223.1930)
 -->
<!-- Title: Graphical Class Hierarchy Pages: 1 -->
<svg width="543pt" height="422pt"
 viewBox="0.00 0.00 543.00 422.00" xmlns="http://www.w3.org/2000/svg" xmlns:xlink="http://www.w3.org/1999/xlink">
<g id="graph0" class="graph" transform="scale(1 1) rotate(0) translate(4 418)">
<title>Graphical Class Hierarchy</title>
<!-- Node0 -->
<g id="node1" class="node">
<title>Node0</title>
<g id="a_node1"><a xlink:href="interfacecom_1_1fs_1_1starfarer_1_1api_1_1impl_1_1campaign_1_1procgen_1_1themes_1_1SalvageSpecialAssigner_1_1SpecialCreator.html" target="_top" xlink:title=" ">
<polygon fill="white" stroke="#666666" points="237,-222 0,-222 0,-192 237,-192 237,-222"/>
<text text-anchor="start" x="8" y="-210" font-family="Helvetica,sans-Serif" font-size="10.00">com.fs.starfarer.api.impl.campaign.procgen.themes.</text>
<text text-anchor="middle" x="118.5" y="-199" font-family="Helvetica,sans-Serif" font-size="10.00">SalvageSpecialAssigner.SpecialCreator</text>
</a>
</g>
</g>
<!-- Node1 -->
<g id="node2" class="node">
<title>Node1</title>
<g id="a_node2"><a xlink:href="classcom_1_1fs_1_1starfarer_1_1api_1_1impl_1_1campaign_1_1procgen_1_1themes_1_1SalvageSpecialAss1e88cb126a99405e10096a33b0c34f57.html" target="_top" xlink:title=" ">
<polygon fill="white" stroke="#666666" points="522.5,-414 285.5,-414 285.5,-384 522.5,-384 522.5,-414"/>
<text text-anchor="start" x="293.5" y="-402" font-family="Helvetica,sans-Serif" font-size="10.00">com.fs.starfarer.api.impl.campaign.procgen.themes.</text>
<text text-anchor="middle" x="404" y="-391" font-family="Helvetica,sans-Serif" font-size="10.00">SalvageSpecialAssigner.BlueprintSpecialCreator</text>
</a>
</g>
</g>
<!-- Node0&#45;&gt;Node1 -->
<g id="edge1" class="edge">
<title>Node0&#45;&gt;Node1</title>
<path fill="none" stroke="#63b8ff" d="M134.66,-232.03C158.87,-269.65 210,-340.05 273,-375 278.92,-378.28 285.2,-381.13 291.68,-383.6"/>
<polygon fill="#63b8ff" stroke="#63b8ff" points="137.66,-230.23 129.37,-223.63 131.74,-233.96 137.66,-230.23"/>
</g>
<!-- Node2 -->
<g id="node3" class="node">
<title>Node2</title>
<g id="a_node3"><a xlink:href="classcom_1_1fs_1_1starfarer_1_1api_1_1impl_1_1campaign_1_1procgen_1_1themes_1_1SalvageSpecialAssfb2fa9b30c73697aba2eb4a03b46204d.html" target="_top" xlink:title=" ">
<polygon fill="white" stroke="#666666" points="524.5,-366 283.5,-366 283.5,-336 524.5,-336 524.5,-366"/>
<text text-anchor="start" x="291.5" y="-354" font-family="Helvetica,sans-Serif" font-size="10.00">com.fs.starfarer.api.impl.campaign.procgen.themes.</text>
<text text-anchor="middle" x="404" y="-343" font-family="Helvetica,sans-Serif" font-size="10.00">SalvageSpecialAssigner.BreadcrumbSpecialCreator</text>
</a>
</g>
</g>
<!-- Node0&#45;&gt;Node2 -->
<g id="edge2" class="edge">
<title>Node0&#45;&gt;Node2</title>
<path fill="none" stroke="#63b8ff" d="M141.89,-230.35C169.86,-258.02 220.45,-303.34 273,-327 280.32,-330.3 288.08,-333.14 296,-335.6"/>
<polygon fill="#63b8ff" stroke="#63b8ff" points="144.56,-228.07 135.03,-223.45 139.6,-233.01 144.56,-228.07"/>
</g>
<!-- Node3 -->
<g id="node4" class="node">
<title>Node3</title>
<g id="a_node4"><a xlink:href="classcom_1_1fs_1_1starfarer_1_1api_1_1impl_1_1campaign_1_1procgen_1_1themes_1_1SalvageSpecialAssa121abdb63eeefd8a50060d39ad888cc.html" target="_top" xlink:title=" ">
<polygon fill="white" stroke="#666666" points="529.5,-318 278.5,-318 278.5,-288 529.5,-288 529.5,-318"/>
<text text-anchor="start" x="286.5" y="-306" font-family="Helvetica,sans-Serif" font-size="10.00">com.fs.starfarer.api.impl.campaign.procgen.themes.</text>
<text text-anchor="middle" x="404" y="-295" font-family="Helvetica,sans-Serif" font-size="10.00">SalvageSpecialAssigner.CargoManifestSpecialCreator</text>
</a>
</g>
</g>
<!-- Node0&#45;&gt;Node3 -->
<g id="edge3" class="edge">
<title>Node0&#45;&gt;Node3</title>
<path fill="none" stroke="#63b8ff" d="M156.67,-227.74C187.09,-243.9 231.7,-265.75 273,-279 283.05,-282.23 293.69,-285.07 304.38,-287.56"/>
<polygon fill="#63b8ff" stroke="#63b8ff" points="158.71,-224.87 148.25,-223.21 155.4,-231.03 158.71,-224.87"/>
</g>
<!-- Node4 -->
<g id="node5" class="node">
<title>Node4</title>
<g id="a_node5"><a xlink:href="classcom_1_1fs_1_1starfarer_1_1api_1_1impl_1_1campaign_1_1procgen_1_1themes_1_1SalvageSpecialAssigner_1_1NothingSpecialCreator.html" target="_top" xlink:title=" ">
<polygon fill="white" stroke="#666666" points="522.5,-270 285.5,-270 285.5,-240 522.5,-240 522.5,-270"/>
<text text-anchor="start" x="293.5" y="-258" font-family="Helvetica,sans-Serif" font-size="10.00">com.fs.starfarer.api.impl.campaign.procgen.themes.</text>
<text text-anchor="middle" x="404" y="-247" font-family="Helvetica,sans-Serif" font-size="10.00">SalvageSpecialAssigner.NothingSpecialCreator</text>
</a>
</g>
</g>
<!-- Node0&#45;&gt;Node4 -->
<g id="edge4" class="edge">
<title>Node0&#45;&gt;Node4</title>
<path fill="none" stroke="#63b8ff" d="M221.91,-224.34C251.33,-229.32 283.22,-234.72 311.91,-239.58"/>
<polygon fill="#63b8ff" stroke="#63b8ff" points="222.7,-220.92 212.25,-222.7 221.53,-227.82 222.7,-220.92"/>
</g>
<!-- Node5 -->
<g id="node6" class="node">
<title>Node5</title>
<g id="a_node6"><a xlink:href="classcom_1_1fs_1_1starfarer_1_1api_1_1impl_1_1campaign_1_1procgen_1_1themes_1_1SalvageSpecialAss045282595e610e49703c0594678f0146.html" target="_top" xlink:title=" ">
<polygon fill="white" stroke="#666666" points="528,-222 280,-222 280,-192 528,-192 528,-222"/>
<text text-anchor="start" x="288" y="-210" font-family="Helvetica,sans-Serif" font-size="10.00">com.fs.starfarer.api.impl.campaign.procgen.themes.</text>
<text text-anchor="middle" x="404" y="-199" font-family="Helvetica,sans-Serif" font-size="10.00">SalvageSpecialAssigner.ShipRecoverySpecialCreator</text>
</a>
</g>
</g>
<!-- Node0&#45;&gt;Node5 -->
<g id="edge5" class="edge">
<title>Node0&#45;&gt;Node5</title>
<path fill="none" stroke="#63b8ff" d="M248.48,-207C258.85,-207 269.32,-207 279.65,-207"/>
<polygon fill="#63b8ff" stroke="#63b8ff" points="248.78,-203.5 238.78,-207 248.78,-210.5 248.78,-203.5"/>
</g>
<!-- Node6 -->
<g id="node7" class="node">
<title>Node6</title>
<g id="a_node7"><a xlink:href="classcom_1_1fs_1_1starfarer_1_1api_1_1impl_1_1campaign_1_1procgen_1_1themes_1_1SalvageSpecialAssb563d58354b77fdc37d63f75a12312b0.html" target="_top" xlink:title=" ">
<polygon fill="white" stroke="#666666" points="526,-174 282,-174 282,-144 526,-144 526,-174"/>
<text text-anchor="start" x="290" y="-162" font-family="Helvetica,sans-Serif" font-size="10.00">com.fs.starfarer.api.impl.campaign.procgen.themes.</text>
<text text-anchor="middle" x="404" y="-151" font-family="Helvetica,sans-Serif" font-size="10.00">SalvageSpecialAssigner.SleeperPodsSpecialCreator</text>
</a>
</g>
</g>
<!-- Node0&#45;&gt;Node6 -->
<g id="edge6" class="edge">
<title>Node0&#45;&gt;Node6</title>
<path fill="none" stroke="#63b8ff" d="M221.91,-189.66C251.33,-184.68 283.22,-179.28 311.91,-174.42"/>
<polygon fill="#63b8ff" stroke="#63b8ff" points="221.53,-186.18 212.25,-191.3 222.7,-193.08 221.53,-186.18"/>
</g>
<!-- Node7 -->
<g id="node8" class="node">
<title>Node7</title>
<g id="a_node8"><a xlink:href="classcom_1_1fs_1_1starfarer_1_1api_1_1impl_1_1campaign_1_1procgen_1_1themes_1_1SalvageSpecialAsscca646965ef900933a72d5d778b42d4d.html" target="_top" xlink:title=" ">
<polygon fill="white" stroke="#666666" points="523.5,-126 284.5,-126 284.5,-96 523.5,-96 523.5,-126"/>
<text text-anchor="start" x="292.5" y="-114" font-family="Helvetica,sans-Serif" font-size="10.00">com.fs.starfarer.api.impl.campaign.procgen.themes.</text>
<text text-anchor="middle" x="404" y="-103" font-family="Helvetica,sans-Serif" font-size="10.00">SalvageSpecialAssigner.SurveyDataSpecialCreator</text>
</a>
</g>
</g>
<!-- Node0&#45;&gt;Node7 -->
<g id="edge7" class="edge">
<title>Node0&#45;&gt;Node7</title>
<path fill="none" stroke="#63b8ff" d="M156.67,-186.26C187.09,-170.1 231.7,-148.25 273,-135 283.05,-131.77 293.69,-128.93 304.38,-126.44"/>
<polygon fill="#63b8ff" stroke="#63b8ff" points="155.4,-182.97 148.25,-190.79 158.71,-189.13 155.4,-182.97"/>
</g>
<!-- Node8 -->
<g id="node9" class="node">
<title>Node8</title>
<g id="a_node9"><a xlink:href="classcom_1_1fs_1_1starfarer_1_1api_1_1impl_1_1campaign_1_1procgen_1_1themes_1_1SalvageSpecialAssa3c45ced31f0fc9f1984bba11723062f.html" target="_top" xlink:title=" ">
<polygon fill="white" stroke="#666666" points="535,-78 273,-78 273,-48 535,-48 535,-78"/>
<text text-anchor="start" x="281" y="-66" font-family="Helvetica,sans-Serif" font-size="10.00">com.fs.starfarer.api.impl.campaign.procgen.themes.</text>
<text text-anchor="middle" x="404" y="-55" font-family="Helvetica,sans-Serif" font-size="10.00">SalvageSpecialAssigner.TopographicDataSpecialCreator</text>
</a>
</g>
</g>
<!-- Node0&#45;&gt;Node8 -->
<g id="edge8" class="edge">
<title>Node0&#45;&gt;Node8</title>
<path fill="none" stroke="#63b8ff" d="M141.89,-183.65C169.86,-155.98 220.45,-110.66 273,-87 280.32,-83.7 288.08,-80.86 296,-78.4"/>
<polygon fill="#63b8ff" stroke="#63b8ff" points="139.6,-180.99 135.03,-190.55 144.56,-185.93 139.6,-180.99"/>
</g>
<!-- Node9 -->
<g id="node10" class="node">
<title>Node9</title>
<g id="a_node10"><a xlink:href="classcom_1_1fs_1_1starfarer_1_1api_1_1impl_1_1campaign_1_1procgen_1_1themes_1_1SalvageSpecialAss4da10bfe440209670d30297696e5f510.html" target="_top" xlink:title=" ">
<polygon fill="white" stroke="#666666" points="532.5,-30 275.5,-30 275.5,0 532.5,0 532.5,-30"/>
<text text-anchor="start" x="283.5" y="-18" font-family="Helvetica,sans-Serif" font-size="10.00">com.fs.starfarer.api.impl.campaign.procgen.themes.</text>
<text text-anchor="middle" x="404" y="-7" font-family="Helvetica,sans-Serif" font-size="10.00">SalvageSpecialAssigner.TransmitterTrapSpecialCreator</text>
</a>
</g>
</g>
<!-- Node0&#45;&gt;Node9 -->
<g id="edge9" class="edge">
<title>Node0&#45;&gt;Node9</title>
<path fill="none" stroke="#63b8ff" d="M134.66,-181.97C158.87,-144.35 210,-73.95 273,-39 278.92,-35.72 285.2,-32.87 291.68,-30.4"/>
<polygon fill="#63b8ff" stroke="#63b8ff" points="131.74,-180.04 129.37,-190.37 137.66,-183.77 131.74,-180.04"/>
</g>
</g>
</svg>
