<?xml version="1.0" encoding="UTF-8" standalone="no"?>
<!DOCTYPE svg PUBLIC "-//W3C//DTD SVG 1.1//EN"
 "http://www.w3.org/Graphics/SVG/1.1/DTD/svg11.dtd">
<!-- Generated by graphviz version 2.44.0 ()
 -->
<!-- Title: Graphical Class Hierarchy Pages: 1 -->
<svg width="632pt" height="333pt"
 viewBox="0.00 0.00 632.00 333.00" xmlns="http://www.w3.org/2000/svg" xmlns:xlink="http://www.w3.org/1999/xlink">
<g id="graph0" class="graph" transform="scale(1 1) rotate(0) translate(4 329)">
<title>Graphical Class Hierarchy</title>
<!-- Node0 -->
<g id="node1" class="node">
<title>Node0</title>
<g id="a_node1"><a xlink:href="interfacecom_1_1fs_1_1starfarer_1_1api_1_1impl_1_1campaign_1_1enc_1_1EPEncounterCreator.html" target="_top" xlink:title=" ">
<polygon fill="none" stroke="black" points="0,-147.5 0,-177.5 184,-177.5 184,-147.5 0,-147.5"/>
<text text-anchor="start" x="8" y="-165.5" font-family="Helvetica,sans-Serif" font-size="10.00">com.fs.starfarer.api.impl.campaign.enc.</text>
<text text-anchor="middle" x="92" y="-154.5" font-family="Helvetica,sans-Serif" font-size="10.00">EPEncounterCreator</text>
</a>
</g>
</g>
<!-- Node1 -->
<g id="node2" class="node">
<title>Node1</title>
<g id="a_node2"><a xlink:href="classcom_1_1fs_1_1starfarer_1_1api_1_1impl_1_1campaign_1_1enc_1_1BaseEPEncounterCreator.html" target="_top" xlink:title=" ">
<polygon fill="none" stroke="black" points="220,-147.5 220,-177.5 404,-177.5 404,-147.5 220,-147.5"/>
<text text-anchor="start" x="228" y="-165.5" font-family="Helvetica,sans-Serif" font-size="10.00">com.fs.starfarer.api.impl.campaign.enc.</text>
<text text-anchor="middle" x="312" y="-154.5" font-family="Helvetica,sans-Serif" font-size="10.00">BaseEPEncounterCreator</text>
</a>
</g>
</g>
<!-- Node0&#45;&gt;Node1 -->
<g id="edge1" class="edge">
<title>Node0&#45;&gt;Node1</title>
<path fill="none" stroke="midnightblue" d="M194.47,-162.5C202.93,-162.5 211.45,-162.5 219.83,-162.5"/>
<polygon fill="midnightblue" stroke="midnightblue" points="194.19,-159 184.19,-162.5 194.19,-166 194.19,-159"/>
</g>
<!-- Node2 -->
<g id="node3" class="node">
<title>Node2</title>
<g id="a_node3"><a xlink:href="classcom_1_1fs_1_1starfarer_1_1api_1_1impl_1_1campaign_1_1enc_1_1OutsideSystemNoEPEC.html" target="_top" xlink:title=" ">
<polygon fill="none" stroke="black" points="440,-294.5 440,-324.5 624,-324.5 624,-294.5 440,-294.5"/>
<text text-anchor="start" x="448" y="-312.5" font-family="Helvetica,sans-Serif" font-size="10.00">com.fs.starfarer.api.impl.campaign.enc.</text>
<text text-anchor="middle" x="532" y="-301.5" font-family="Helvetica,sans-Serif" font-size="10.00">OutsideSystemNoEPEC</text>
</a>
</g>
</g>
<!-- Node1&#45;&gt;Node2 -->
<g id="edge2" class="edge">
<title>Node1&#45;&gt;Node2</title>
<path fill="none" stroke="midnightblue" d="M330.48,-185.51C352.84,-213.34 394.21,-259.67 440,-285.5 446.12,-288.95 452.75,-291.92 459.55,-294.47"/>
<polygon fill="midnightblue" stroke="midnightblue" points="333.1,-183.19 324.16,-177.51 327.61,-187.53 333.1,-183.19"/>
</g>
<!-- Node3 -->
<g id="node4" class="node">
<title>Node3</title>
<g id="a_node4"><a xlink:href="classcom_1_1fs_1_1starfarer_1_1api_1_1impl_1_1campaign_1_1enc_1_1OutsideSystemRemnantEPEC.html" target="_top" xlink:title=" ">
<polygon fill="none" stroke="black" points="440,-245.5 440,-275.5 624,-275.5 624,-245.5 440,-245.5"/>
<text text-anchor="start" x="448" y="-263.5" font-family="Helvetica,sans-Serif" font-size="10.00">com.fs.starfarer.api.impl.campaign.enc.</text>
<text text-anchor="middle" x="532" y="-252.5" font-family="Helvetica,sans-Serif" font-size="10.00">OutsideSystemRemnantEPEC</text>
</a>
</g>
</g>
<!-- Node1&#45;&gt;Node3 -->
<g id="edge3" class="edge">
<title>Node1&#45;&gt;Node3</title>
<path fill="none" stroke="midnightblue" d="M343.64,-183.53C368.64,-199.89 405.35,-222.15 440,-236.5 448,-239.81 456.59,-242.78 465.18,-245.41"/>
<polygon fill="midnightblue" stroke="midnightblue" points="345.26,-180.4 334.99,-177.8 341.39,-186.24 345.26,-180.4"/>
</g>
<!-- Node4 -->
<g id="node5" class="node">
<title>Node4</title>
<g id="a_node5"><a xlink:href="classcom_1_1fs_1_1starfarer_1_1api_1_1impl_1_1campaign_1_1enc_1_1SlipstreamLuddicPathEPEC.html" target="_top" xlink:title=" ">
<polygon fill="none" stroke="black" points="440,-196.5 440,-226.5 624,-226.5 624,-196.5 440,-196.5"/>
<text text-anchor="start" x="448" y="-214.5" font-family="Helvetica,sans-Serif" font-size="10.00">com.fs.starfarer.api.impl.campaign.enc.</text>
<text text-anchor="middle" x="532" y="-203.5" font-family="Helvetica,sans-Serif" font-size="10.00">SlipstreamLuddicPathEPEC</text>
</a>
</g>
</g>
<!-- Node1&#45;&gt;Node4 -->
<g id="edge4" class="edge">
<title>Node1&#45;&gt;Node4</title>
<path fill="none" stroke="midnightblue" d="M389.78,-179.76C414.07,-185.22 440.71,-191.21 464.24,-196.49"/>
<polygon fill="midnightblue" stroke="midnightblue" points="390.41,-176.31 379.89,-177.53 388.88,-183.14 390.41,-176.31"/>
</g>
<!-- Node5 -->
<g id="node6" class="node">
<title>Node5</title>
<g id="a_node6"><a xlink:href="classcom_1_1fs_1_1starfarer_1_1api_1_1impl_1_1campaign_1_1enc_1_1SlipstreamMercenaryEPEC.html" target="_top" xlink:title=" ">
<polygon fill="none" stroke="black" points="440,-147.5 440,-177.5 624,-177.5 624,-147.5 440,-147.5"/>
<text text-anchor="start" x="448" y="-165.5" font-family="Helvetica,sans-Serif" font-size="10.00">com.fs.starfarer.api.impl.campaign.enc.</text>
<text text-anchor="middle" x="532" y="-154.5" font-family="Helvetica,sans-Serif" font-size="10.00">SlipstreamMercenaryEPEC</text>
</a>
</g>
</g>
<!-- Node1&#45;&gt;Node5 -->
<g id="edge5" class="edge">
<title>Node1&#45;&gt;Node5</title>
<path fill="none" stroke="midnightblue" d="M414.47,-162.5C422.93,-162.5 431.45,-162.5 439.83,-162.5"/>
<polygon fill="midnightblue" stroke="midnightblue" points="414.19,-159 404.19,-162.5 414.19,-166 414.19,-159"/>
</g>
<!-- Node6 -->
<g id="node7" class="node">
<title>Node6</title>
<g id="a_node7"><a xlink:href="classcom_1_1fs_1_1starfarer_1_1api_1_1impl_1_1campaign_1_1enc_1_1SlipstreamNoEPEC.html" target="_top" xlink:title=" ">
<polygon fill="none" stroke="black" points="440,-98.5 440,-128.5 624,-128.5 624,-98.5 440,-98.5"/>
<text text-anchor="start" x="448" y="-116.5" font-family="Helvetica,sans-Serif" font-size="10.00">com.fs.starfarer.api.impl.campaign.enc.</text>
<text text-anchor="middle" x="532" y="-105.5" font-family="Helvetica,sans-Serif" font-size="10.00">SlipstreamNoEPEC</text>
</a>
</g>
</g>
<!-- Node1&#45;&gt;Node6 -->
<g id="edge6" class="edge">
<title>Node1&#45;&gt;Node6</title>
<path fill="none" stroke="midnightblue" d="M389.78,-145.24C414.07,-139.78 440.71,-133.79 464.24,-128.51"/>
<polygon fill="midnightblue" stroke="midnightblue" points="388.88,-141.86 379.89,-147.47 390.41,-148.69 388.88,-141.86"/>
</g>
<!-- Node7 -->
<g id="node8" class="node">
<title>Node7</title>
<g id="a_node8"><a xlink:href="classcom_1_1fs_1_1starfarer_1_1api_1_1impl_1_1campaign_1_1enc_1_1SlipstreamPirateEPEC.html" target="_top" xlink:title=" ">
<polygon fill="none" stroke="black" points="440,-49.5 440,-79.5 624,-79.5 624,-49.5 440,-49.5"/>
<text text-anchor="start" x="448" y="-67.5" font-family="Helvetica,sans-Serif" font-size="10.00">com.fs.starfarer.api.impl.campaign.enc.</text>
<text text-anchor="middle" x="532" y="-56.5" font-family="Helvetica,sans-Serif" font-size="10.00">SlipstreamPirateEPEC</text>
</a>
</g>
</g>
<!-- Node1&#45;&gt;Node7 -->
<g id="edge7" class="edge">
<title>Node1&#45;&gt;Node7</title>
<path fill="none" stroke="midnightblue" d="M344.18,-141.58C369.21,-125.54 405.71,-103.79 440,-89.5 448.92,-85.78 458.57,-82.45 468.12,-79.52"/>
<polygon fill="midnightblue" stroke="midnightblue" points="341.99,-138.83 335.5,-147.21 345.8,-144.7 341.99,-138.83"/>
</g>
<!-- Node8 -->
<g id="node9" class="node">
<title>Node8</title>
<g id="a_node9"><a xlink:href="classcom_1_1fs_1_1starfarer_1_1api_1_1impl_1_1campaign_1_1enc_1_1SlipstreamScavengerEPEC.html" target="_top" xlink:title=" ">
<polygon fill="none" stroke="black" points="440,-0.5 440,-30.5 624,-30.5 624,-0.5 440,-0.5"/>
<text text-anchor="start" x="448" y="-18.5" font-family="Helvetica,sans-Serif" font-size="10.00">com.fs.starfarer.api.impl.campaign.enc.</text>
<text text-anchor="middle" x="532" y="-7.5" font-family="Helvetica,sans-Serif" font-size="10.00">SlipstreamScavengerEPEC</text>
</a>
</g>
</g>
<!-- Node1&#45;&gt;Node8 -->
<g id="edge8" class="edge">
<title>Node1&#45;&gt;Node8</title>
<path fill="none" stroke="midnightblue" d="M330.92,-139.32C353.45,-111.75 394.71,-66.23 440,-40.5 446.7,-36.7 454,-33.45 461.46,-30.67"/>
<polygon fill="midnightblue" stroke="midnightblue" points="328.08,-137.27 324.54,-147.26 333.53,-141.65 328.08,-137.27"/>
</g>
</g>
</svg>
