<?xml version="1.0" encoding="UTF-8" standalone="no"?>
<!DOCTYPE svg PUBLIC "-//W3C//DTD SVG 1.1//EN"
 "http://www.w3.org/Graphics/SVG/1.1/DTD/svg11.dtd">
<!-- Generated by graphviz version 2.44.0 ()
 -->
<!-- Title: com.fs.starfarer.api.campaign.econ.EconomyAPI.EconomyUpdateListener Pages: 1 -->
<svg width="445pt" height="284pt"
 viewBox="0.00 0.00 445.00 284.00" xmlns="http://www.w3.org/2000/svg" xmlns:xlink="http://www.w3.org/1999/xlink">
<g id="graph0" class="graph" transform="scale(1 1) rotate(0) translate(4 280)">
<title>com.fs.starfarer.api.campaign.econ.EconomyAPI.EconomyUpdateListener</title>
<!-- Node1 -->
<g id="node1" class="node">
<title>Node1</title>
<g id="a_node1"><a xlink:title=" ">
<polygon fill="#bfbfbf" stroke="black" points="0,-122.5 0,-152.5 182,-152.5 182,-122.5 0,-122.5"/>
<text text-anchor="start" x="8" y="-140.5" font-family="Helvetica,sans-Serif" font-size="10.00">com.fs.starfarer.api.campaign.econ.</text>
<text text-anchor="middle" x="91" y="-129.5" font-family="Helvetica,sans-Serif" font-size="10.00">EconomyAPI.EconomyUpdateListener</text>
</a>
</g>
</g>
<!-- Node2 -->
<g id="node2" class="node">
<title>Node2</title>
<g id="a_node2"><a xlink:href="classcom_1_1fs_1_1starfarer_1_1api_1_1impl_1_1campaign_1_1econ_1_1impl_1_1ConditionManager.html" target="_top" xlink:title=" ">
<polygon fill="none" stroke="black" points="223,-245.5 223,-275.5 432,-275.5 432,-245.5 223,-245.5"/>
<text text-anchor="start" x="231" y="-263.5" font-family="Helvetica,sans-Serif" font-size="10.00">com.fs.starfarer.api.impl.campaign.econ.impl.</text>
<text text-anchor="middle" x="327.5" y="-252.5" font-family="Helvetica,sans-Serif" font-size="10.00">ConditionManager</text>
</a>
</g>
</g>
<!-- Node1&#45;&gt;Node2 -->
<g id="edge1" class="edge">
<title>Node1&#45;&gt;Node2</title>
<path fill="none" stroke="midnightblue" d="M114.13,-160.07C137.76,-182.82 177.33,-217.26 218,-236.5 225.32,-239.96 233.17,-242.94 241.16,-245.49"/>
<polygon fill="midnightblue" stroke="midnightblue" points="116.35,-157.33 106.75,-152.83 111.45,-162.33 116.35,-157.33"/>
</g>
<!-- Node3 -->
<g id="node3" class="node">
<title>Node3</title>
<g id="a_node3"><a xlink:href="classcom_1_1fs_1_1starfarer_1_1api_1_1impl_1_1campaign_1_1econ_1_1impl_1_1ShipQuality.html" target="_top" xlink:title=" ">
<polygon fill="none" stroke="black" points="223,-196.5 223,-226.5 432,-226.5 432,-196.5 223,-196.5"/>
<text text-anchor="start" x="231" y="-214.5" font-family="Helvetica,sans-Serif" font-size="10.00">com.fs.starfarer.api.impl.campaign.econ.impl.</text>
<text text-anchor="middle" x="327.5" y="-203.5" font-family="Helvetica,sans-Serif" font-size="10.00">ShipQuality</text>
</a>
</g>
</g>
<!-- Node1&#45;&gt;Node3 -->
<g id="edge2" class="edge">
<title>Node1&#45;&gt;Node3</title>
<path fill="none" stroke="midnightblue" d="M134.91,-156.51C159,-166.68 189.8,-178.85 218,-187.5 228.6,-190.75 239.92,-193.76 251.09,-196.46"/>
<polygon fill="midnightblue" stroke="midnightblue" points="136.27,-153.29 125.7,-152.58 133.52,-159.72 136.27,-153.29"/>
</g>
<!-- Node4 -->
<g id="node4" class="node">
<title>Node4</title>
<g id="a_node4"><a xlink:href="classcom_1_1fs_1_1starfarer_1_1api_1_1impl_1_1campaign_1_1intel_1_1bases_1_1LuddicPathBaseIntel.html" target="_top" xlink:title=" ">
<polygon fill="none" stroke="black" points="220,-147.5 220,-177.5 435,-177.5 435,-147.5 220,-147.5"/>
<text text-anchor="start" x="228" y="-165.5" font-family="Helvetica,sans-Serif" font-size="10.00">com.fs.starfarer.api.impl.campaign.intel.bases.</text>
<text text-anchor="middle" x="327.5" y="-154.5" font-family="Helvetica,sans-Serif" font-size="10.00">LuddicPathBaseIntel</text>
</a>
</g>
</g>
<!-- Node1&#45;&gt;Node4 -->
<g id="edge3" class="edge">
<title>Node1&#45;&gt;Node4</title>
<path fill="none" stroke="midnightblue" d="M192.46,-148.21C201.5,-149.17 210.68,-150.15 219.77,-151.12"/>
<polygon fill="midnightblue" stroke="midnightblue" points="192.64,-144.71 182.33,-147.13 191.9,-151.67 192.64,-144.71"/>
</g>
<!-- Node5 -->
<g id="node5" class="node">
<title>Node5</title>
<g id="a_node5"><a xlink:href="classcom_1_1fs_1_1starfarer_1_1api_1_1impl_1_1campaign_1_1intel_1_1bases_1_1PirateBaseIntel.html" target="_top" xlink:title=" ">
<polygon fill="none" stroke="black" points="220,-98.5 220,-128.5 435,-128.5 435,-98.5 220,-98.5"/>
<text text-anchor="start" x="228" y="-116.5" font-family="Helvetica,sans-Serif" font-size="10.00">com.fs.starfarer.api.impl.campaign.intel.bases.</text>
<text text-anchor="middle" x="327.5" y="-105.5" font-family="Helvetica,sans-Serif" font-size="10.00">PirateBaseIntel</text>
</a>
</g>
</g>
<!-- Node1&#45;&gt;Node5 -->
<g id="edge4" class="edge">
<title>Node1&#45;&gt;Node5</title>
<path fill="none" stroke="midnightblue" d="M192.46,-127.22C201.5,-126.29 210.68,-125.35 219.77,-124.42"/>
<polygon fill="midnightblue" stroke="midnightblue" points="191.92,-123.76 182.33,-128.26 192.63,-130.72 191.92,-123.76"/>
</g>
<!-- Node6 -->
<g id="node6" class="node">
<title>Node6</title>
<g id="a_node6"><a xlink:href="classcom_1_1fs_1_1starfarer_1_1api_1_1impl_1_1campaign_1_1intel_1_1events_1_1HostileActivityEventIntel.html" target="_top" xlink:title=" ">
<polygon fill="none" stroke="black" points="218.5,-49.5 218.5,-79.5 436.5,-79.5 436.5,-49.5 218.5,-49.5"/>
<text text-anchor="start" x="226.5" y="-67.5" font-family="Helvetica,sans-Serif" font-size="10.00">com.fs.starfarer.api.impl.campaign.intel.events.</text>
<text text-anchor="middle" x="327.5" y="-56.5" font-family="Helvetica,sans-Serif" font-size="10.00">HostileActivityEventIntel</text>
</a>
</g>
</g>
<!-- Node1&#45;&gt;Node6 -->
<g id="edge5" class="edge">
<title>Node1&#45;&gt;Node6</title>
<path fill="none" stroke="midnightblue" d="M137.13,-118.58C160.91,-109.05 190.74,-97.79 218,-89.5 229.84,-85.9 242.54,-82.54 254.93,-79.52"/>
<polygon fill="midnightblue" stroke="midnightblue" points="135.62,-115.41 127.66,-122.41 138.24,-121.9 135.62,-115.41"/>
</g>
<!-- Node7 -->
<g id="node7" class="node">
<title>Node7</title>
<g id="a_node7"><a xlink:href="classcom_1_1fs_1_1starfarer_1_1api_1_1impl_1_1campaign_1_1submarkets_1_1LocalResourcesSubmarketPlugin.html" target="_top" xlink:title=" ">
<polygon fill="none" stroke="black" points="218,-0.5 218,-30.5 437,-30.5 437,-0.5 218,-0.5"/>
<text text-anchor="start" x="226" y="-18.5" font-family="Helvetica,sans-Serif" font-size="10.00">com.fs.starfarer.api.impl.campaign.submarkets.</text>
<text text-anchor="middle" x="327.5" y="-7.5" font-family="Helvetica,sans-Serif" font-size="10.00">LocalResourcesSubmarketPlugin</text>
</a>
</g>
</g>
<!-- Node1&#45;&gt;Node7 -->
<g id="edge6" class="edge">
<title>Node1&#45;&gt;Node7</title>
<path fill="none" stroke="midnightblue" d="M114.65,-115.11C138.42,-92.88 177.86,-59.46 218,-40.5 226.21,-36.62 235.07,-33.32 244.06,-30.52"/>
<polygon fill="midnightblue" stroke="midnightblue" points="112.05,-112.75 107.21,-122.18 116.87,-117.83 112.05,-112.75"/>
</g>
</g>
</svg>
