<?xml version="1.0" encoding="UTF-8" standalone="no"?>
<!DOCTYPE svg PUBLIC "-//W3C//DTD SVG 1.1//EN"
 "http://www.w3.org/Graphics/SVG/1.1/DTD/svg11.dtd">
<!-- Generated by graphviz version 7.0.5 (20221223.1930)
 -->
<!-- Title: com.fs.starfarer.api.characters.MarketSkillEffect Pages: 1 -->
<svg width="569pt" height="518pt"
 viewBox="0.00 0.00 569.00 518.00" xmlns="http://www.w3.org/2000/svg" xmlns:xlink="http://www.w3.org/1999/xlink">
<g id="graph0" class="graph" transform="scale(1 1) rotate(0) translate(4 514)">
<title>com.fs.starfarer.api.characters.MarketSkillEffect</title>
<!-- Node1 -->
<g id="node1" class="node">
<title>Node1</title>
<g id="a_node1"><a xlink:title=" ">
<polygon fill="#999999" stroke="#666666" points="334,-270 185,-270 185,-240 334,-240 334,-270"/>
<text text-anchor="start" x="193" y="-258" font-family="Helvetica,sans-Serif" font-size="10.00">com.fs.starfarer.api.characters.</text>
<text text-anchor="middle" x="259.5" y="-247" font-family="Helvetica,sans-Serif" font-size="10.00">MarketSkillEffect</text>
</a>
</g>
</g>
<!-- Node3 -->
<g id="node3" class="node">
<title>Node3</title>
<g id="a_node3"><a xlink:title=" ">
<polygon fill="white" stroke="#666666" points="561,-510 370,-510 370,-480 561,-480 561,-510"/>
<text text-anchor="start" x="378" y="-498" font-family="Helvetica,sans-Serif" font-size="10.00">com.fs.starfarer.api.impl.campaign.skills.</text>
<text text-anchor="middle" x="465.5" y="-487" font-family="Helvetica,sans-Serif" font-size="10.00">FleetLogistics.Market1</text>
</a>
</g>
</g>
<!-- Node1&#45;&gt;Node3 -->
<g id="edge2" class="edge">
<title>Node1&#45;&gt;Node3</title>
<path fill="none" stroke="#63b8ff" d="M266.31,-281.36C277.82,-327.17 307.94,-421.31 370,-471 374.1,-474.28 378.59,-477.12 383.31,-479.57"/>
<polygon fill="#63b8ff" stroke="#63b8ff" points="269.75,-280.69 264.02,-271.78 262.94,-282.32 269.75,-280.69"/>
</g>
<!-- Node4 -->
<g id="node4" class="node">
<title>Node4</title>
<g id="a_node4"><a xlink:title=" ">
<polygon fill="white" stroke="#666666" points="561,-462 370,-462 370,-432 561,-432 561,-462"/>
<text text-anchor="start" x="378" y="-450" font-family="Helvetica,sans-Serif" font-size="10.00">com.fs.starfarer.api.impl.campaign.skills.</text>
<text text-anchor="middle" x="465.5" y="-439" font-family="Helvetica,sans-Serif" font-size="10.00">FleetLogistics.Market2</text>
</a>
</g>
</g>
<!-- Node1&#45;&gt;Node4 -->
<g id="edge3" class="edge">
<title>Node1&#45;&gt;Node4</title>
<path fill="none" stroke="#63b8ff" d="M270.16,-280.77C285.47,-318.03 318.93,-386.47 370,-423 374.68,-426.35 379.79,-429.23 385.12,-431.71"/>
<polygon fill="#63b8ff" stroke="#63b8ff" points="273.49,-279.69 266.55,-271.69 266.99,-282.27 273.49,-279.69"/>
</g>
<!-- Node5 -->
<g id="node5" class="node">
<title>Node5</title>
<g id="a_node5"><a xlink:title=" ">
<polygon fill="white" stroke="#666666" points="561,-414 370,-414 370,-384 561,-384 561,-414"/>
<text text-anchor="start" x="378" y="-402" font-family="Helvetica,sans-Serif" font-size="10.00">com.fs.starfarer.api.impl.campaign.skills.</text>
<text text-anchor="middle" x="465.5" y="-391" font-family="Helvetica,sans-Serif" font-size="10.00">FleetLogistics.Market3</text>
</a>
</g>
</g>
<!-- Node1&#45;&gt;Node5 -->
<g id="edge4" class="edge">
<title>Node1&#45;&gt;Node5</title>
<path fill="none" stroke="#63b8ff" d="M276.2,-279.43C295.13,-306.87 329.49,-350.72 370,-375 375.52,-378.31 381.48,-381.16 387.63,-383.62"/>
<polygon fill="#63b8ff" stroke="#63b8ff" points="279.28,-277.73 270.79,-271.39 273.47,-281.64 279.28,-277.73"/>
</g>
<!-- Node6 -->
<g id="node6" class="node">
<title>Node6</title>
<g id="a_node6"><a xlink:title=" ">
<polygon fill="white" stroke="#666666" points="561,-366 370,-366 370,-336 561,-336 561,-366"/>
<text text-anchor="start" x="378" y="-354" font-family="Helvetica,sans-Serif" font-size="10.00">com.fs.starfarer.api.impl.campaign.skills.</text>
<text text-anchor="middle" x="465.5" y="-343" font-family="Helvetica,sans-Serif" font-size="10.00">Hypercognition.Level1</text>
</a>
</g>
</g>
<!-- Node1&#45;&gt;Node6 -->
<g id="edge5" class="edge">
<title>Node1&#45;&gt;Node6</title>
<path fill="none" stroke="#63b8ff" d="M288.62,-277.29C309.89,-293.18 340.39,-313.95 370,-327 377.28,-330.21 385.07,-333.05 392.94,-335.55"/>
<polygon fill="#63b8ff" stroke="#63b8ff" points="290.82,-274.57 280.74,-271.3 286.58,-280.14 290.82,-274.57"/>
</g>
<!-- Node7 -->
<g id="node7" class="node">
<title>Node7</title>
<g id="a_node7"><a xlink:title=" ">
<polygon fill="white" stroke="#666666" points="561,-318 370,-318 370,-288 561,-288 561,-318"/>
<text text-anchor="start" x="378" y="-306" font-family="Helvetica,sans-Serif" font-size="10.00">com.fs.starfarer.api.impl.campaign.skills.</text>
<text text-anchor="middle" x="465.5" y="-295" font-family="Helvetica,sans-Serif" font-size="10.00">Hypercognition.Level2</text>
</a>
</g>
</g>
<!-- Node1&#45;&gt;Node7 -->
<g id="edge6" class="edge">
<title>Node1&#45;&gt;Node7</title>
<path fill="none" stroke="#63b8ff" d="M337.28,-273.07C357.58,-277.84 379.31,-282.95 398.95,-287.58"/>
<polygon fill="#63b8ff" stroke="#63b8ff" points="338.18,-269.68 327.64,-270.8 336.58,-276.5 338.18,-269.68"/>
</g>
<!-- Node8 -->
<g id="node8" class="node">
<title>Node8</title>
<g id="a_node8"><a xlink:title=" ">
<polygon fill="white" stroke="#666666" points="561,-270 370,-270 370,-240 561,-240 561,-270"/>
<text text-anchor="start" x="378" y="-258" font-family="Helvetica,sans-Serif" font-size="10.00">com.fs.starfarer.api.impl.campaign.skills.</text>
<text text-anchor="middle" x="465.5" y="-247" font-family="Helvetica,sans-Serif" font-size="10.00">Hypercognition.Level3</text>
</a>
</g>
</g>
<!-- Node1&#45;&gt;Node8 -->
<g id="edge7" class="edge">
<title>Node1&#45;&gt;Node8</title>
<path fill="none" stroke="#63b8ff" d="M345.8,-255C353.64,-255 361.62,-255 369.53,-255"/>
<polygon fill="#63b8ff" stroke="#63b8ff" points="345.95,-251.5 335.95,-255 345.95,-258.5 345.95,-251.5"/>
</g>
<!-- Node9 -->
<g id="node9" class="node">
<title>Node9</title>
<g id="a_node9"><a xlink:title=" ">
<polygon fill="white" stroke="#666666" points="561,-222 370,-222 370,-192 561,-192 561,-222"/>
<text text-anchor="start" x="378" y="-210" font-family="Helvetica,sans-Serif" font-size="10.00">com.fs.starfarer.api.impl.campaign.skills.</text>
<text text-anchor="middle" x="465.5" y="-199" font-family="Helvetica,sans-Serif" font-size="10.00">Hypercognition.Level4</text>
</a>
</g>
</g>
<!-- Node1&#45;&gt;Node9 -->
<g id="edge8" class="edge">
<title>Node1&#45;&gt;Node9</title>
<path fill="none" stroke="#63b8ff" d="M337.28,-236.93C357.58,-232.16 379.31,-227.05 398.95,-222.42"/>
<polygon fill="#63b8ff" stroke="#63b8ff" points="336.58,-233.5 327.64,-239.2 338.18,-240.32 336.58,-233.5"/>
</g>
<!-- Node10 -->
<g id="node10" class="node">
<title>Node10</title>
<g id="a_node10"><a xlink:title=" ">
<polygon fill="white" stroke="#666666" points="561,-174 370,-174 370,-144 561,-144 561,-174"/>
<text text-anchor="start" x="378" y="-162" font-family="Helvetica,sans-Serif" font-size="10.00">com.fs.starfarer.api.impl.campaign.skills.</text>
<text text-anchor="middle" x="465.5" y="-151" font-family="Helvetica,sans-Serif" font-size="10.00">PlanetaryOperations.Level1</text>
</a>
</g>
</g>
<!-- Node1&#45;&gt;Node10 -->
<g id="edge9" class="edge">
<title>Node1&#45;&gt;Node10</title>
<path fill="none" stroke="#63b8ff" d="M288.62,-232.71C309.89,-216.82 340.39,-196.05 370,-183 377.28,-179.79 385.07,-176.95 392.94,-174.45"/>
<polygon fill="#63b8ff" stroke="#63b8ff" points="286.58,-229.86 280.74,-238.7 290.82,-235.43 286.58,-229.86"/>
</g>
<!-- Node11 -->
<g id="node11" class="node">
<title>Node11</title>
<g id="a_node11"><a xlink:title=" ">
<polygon fill="white" stroke="#666666" points="561,-126 370,-126 370,-96 561,-96 561,-126"/>
<text text-anchor="start" x="378" y="-114" font-family="Helvetica,sans-Serif" font-size="10.00">com.fs.starfarer.api.impl.campaign.skills.</text>
<text text-anchor="middle" x="465.5" y="-103" font-family="Helvetica,sans-Serif" font-size="10.00">PlanetaryOperations.Level2</text>
</a>
</g>
</g>
<!-- Node1&#45;&gt;Node11 -->
<g id="edge10" class="edge">
<title>Node1&#45;&gt;Node11</title>
<path fill="none" stroke="#63b8ff" d="M276.2,-230.57C295.13,-203.13 329.49,-159.28 370,-135 375.52,-131.69 381.48,-128.84 387.63,-126.38"/>
<polygon fill="#63b8ff" stroke="#63b8ff" points="273.47,-228.36 270.79,-238.61 279.28,-232.27 273.47,-228.36"/>
</g>
<!-- Node12 -->
<g id="node12" class="node">
<title>Node12</title>
<g id="a_node12"><a xlink:title=" ">
<polygon fill="white" stroke="#666666" points="561,-78 370,-78 370,-48 561,-48 561,-78"/>
<text text-anchor="start" x="378" y="-66" font-family="Helvetica,sans-Serif" font-size="10.00">com.fs.starfarer.api.impl.campaign.skills.</text>
<text text-anchor="middle" x="465.5" y="-55" font-family="Helvetica,sans-Serif" font-size="10.00">SpaceOperations.Level1</text>
</a>
</g>
</g>
<!-- Node1&#45;&gt;Node12 -->
<g id="edge11" class="edge">
<title>Node1&#45;&gt;Node12</title>
<path fill="none" stroke="#63b8ff" d="M270.16,-229.23C285.47,-191.97 318.93,-123.53 370,-87 374.68,-83.65 379.79,-80.77 385.12,-78.29"/>
<polygon fill="#63b8ff" stroke="#63b8ff" points="266.99,-227.73 266.55,-238.31 273.49,-230.31 266.99,-227.73"/>
</g>
<!-- Node13 -->
<g id="node13" class="node">
<title>Node13</title>
<g id="a_node13"><a xlink:title=" ">
<polygon fill="white" stroke="#666666" points="561,-30 370,-30 370,0 561,0 561,-30"/>
<text text-anchor="start" x="378" y="-18" font-family="Helvetica,sans-Serif" font-size="10.00">com.fs.starfarer.api.impl.campaign.skills.</text>
<text text-anchor="middle" x="465.5" y="-7" font-family="Helvetica,sans-Serif" font-size="10.00">SpaceOperations.Level2</text>
</a>
</g>
</g>
<!-- Node1&#45;&gt;Node13 -->
<g id="edge12" class="edge">
<title>Node1&#45;&gt;Node13</title>
<path fill="none" stroke="#63b8ff" d="M266.31,-228.64C277.82,-182.83 307.94,-88.69 370,-39 374.1,-35.72 378.59,-32.88 383.31,-30.43"/>
<polygon fill="#63b8ff" stroke="#63b8ff" points="262.94,-227.68 264.02,-238.22 269.75,-229.31 262.94,-227.68"/>
</g>
<!-- Node2 -->
<g id="node2" class="node">
<title>Node2</title>
<g id="a_node2"><a xlink:href="interfacecom_1_1fs_1_1starfarer_1_1api_1_1characters_1_1LevelBasedEffect.html" target="_top" xlink:title=" ">
<polygon fill="white" stroke="#666666" points="149,-270 0,-270 0,-240 149,-240 149,-270"/>
<text text-anchor="start" x="8" y="-258" font-family="Helvetica,sans-Serif" font-size="10.00">com.fs.starfarer.api.characters.</text>
<text text-anchor="middle" x="74.5" y="-247" font-family="Helvetica,sans-Serif" font-size="10.00">LevelBasedEffect</text>
</a>
</g>
</g>
<!-- Node2&#45;&gt;Node1 -->
<g id="edge1" class="edge">
<title>Node2&#45;&gt;Node1</title>
<path fill="none" stroke="#63b8ff" d="M160.65,-255C168.66,-255 176.73,-255 184.62,-255"/>
<polygon fill="#63b8ff" stroke="#63b8ff" points="160.92,-251.5 150.92,-255 160.92,-258.5 160.92,-251.5"/>
</g>
</g>
</svg>
