<?xml version="1.0" encoding="UTF-8" standalone="no"?>
<!DOCTYPE svg PUBLIC "-//W3C//DTD SVG 1.1//EN"
 "http://www.w3.org/Graphics/SVG/1.1/DTD/svg11.dtd">
<!-- Generated by graphviz version 2.44.0 ()
 -->
<!-- Title: com.fs.starfarer.api.impl.campaign.missions.hub.HubMissionWithSearch.PlanetRequirement Pages: 1 -->
<svg width="791pt" height="490pt"
 viewBox="0.00 0.00 791.00 490.00" xmlns="http://www.w3.org/2000/svg" xmlns:xlink="http://www.w3.org/1999/xlink">
<g id="graph0" class="graph" transform="scale(1 1) rotate(0) translate(4 486)">
<title>com.fs.starfarer.api.impl.campaign.missions.hub.HubMissionWithSearch.PlanetRequirement</title>
<!-- Node1 -->
<g id="node1" class="node">
<title>Node1</title>
<g id="a_node1"><a xlink:title=" ">
<polygon fill="#bfbfbf" stroke="black" points="261,-220.5 261,-250.5 486,-250.5 486,-220.5 261,-220.5"/>
<text text-anchor="start" x="269" y="-238.5" font-family="Helvetica,sans-Serif" font-size="10.00">com.fs.starfarer.api.impl.campaign.missions.hub.</text>
<text text-anchor="middle" x="373.5" y="-227.5" font-family="Helvetica,sans-Serif" font-size="10.00">HubMissionWithSearch.PlanetRequirement</text>
</a>
</g>
</g>
<!-- Node3 -->
<g id="node3" class="node">
<title>Node3</title>
<g id="a_node3"><a xlink:href="classcom_1_1fs_1_1starfarer_1_1api_1_1impl_1_1campaign_1_1missions_1_1hub_1_1HubMissionWithSearch_1_1MultiplePlanetRequirements.html" target="_top" xlink:title=" ">
<polygon fill="none" stroke="black" points="531.5,-451.5 531.5,-481.5 773.5,-481.5 773.5,-451.5 531.5,-451.5"/>
<text text-anchor="start" x="539.5" y="-469.5" font-family="Helvetica,sans-Serif" font-size="10.00">com.fs.starfarer.api.impl.campaign.missions.hub.</text>
<text text-anchor="middle" x="652.5" y="-458.5" font-family="Helvetica,sans-Serif" font-size="10.00">HubMissionWithSearch.MultiplePlanetRequirements</text>
</a>
</g>
</g>
<!-- Node1&#45;&gt;Node3 -->
<g id="edge2" class="edge">
<title>Node1&#45;&gt;Node3</title>
<path fill="none" stroke="midnightblue" d="M384.42,-259.92C403.75,-304.16 450.88,-397.17 522,-442.5 527.4,-445.94 533.17,-448.92 539.16,-451.49"/>
<polygon fill="midnightblue" stroke="midnightblue" points="387.55,-258.34 380.41,-250.51 381.11,-261.08 387.55,-258.34"/>
</g>
<!-- Node4 -->
<g id="node4" class="node">
<title>Node4</title>
<g id="a_node4"><a xlink:href="classcom_1_1fs_1_1starfarer_1_1api_1_1impl_1_1campaign_1_1missions_1_1hub_1_1HubMissionWithSearch_1_1PlanetFullySurveyedReq.html" target="_top" xlink:title=" ">
<polygon fill="none" stroke="black" points="539,-402.5 539,-432.5 766,-432.5 766,-402.5 539,-402.5"/>
<text text-anchor="start" x="547" y="-420.5" font-family="Helvetica,sans-Serif" font-size="10.00">com.fs.starfarer.api.impl.campaign.missions.hub.</text>
<text text-anchor="middle" x="652.5" y="-409.5" font-family="Helvetica,sans-Serif" font-size="10.00">HubMissionWithSearch.PlanetFullySurveyedReq</text>
</a>
</g>
</g>
<!-- Node1&#45;&gt;Node4 -->
<g id="edge3" class="edge">
<title>Node1&#45;&gt;Node4</title>
<path fill="none" stroke="midnightblue" d="M389.43,-259.38C412.96,-294.84 462.19,-360.71 522,-393.5 528.32,-396.96 535.04,-399.94 541.97,-402.49"/>
<polygon fill="midnightblue" stroke="midnightblue" points="392.14,-257.13 383.75,-250.66 386.27,-260.95 392.14,-257.13"/>
</g>
<!-- Node5 -->
<g id="node5" class="node">
<title>Node5</title>
<g id="a_node5"><a xlink:href="classcom_1_1fs_1_1starfarer_1_1api_1_1impl_1_1campaign_1_1missions_1_1hub_1_1HubMissionWithSearc7b7268c35ea9041286808048decd6ebd.html" target="_top" xlink:title=" ">
<polygon fill="none" stroke="black" points="537.5,-343 537.5,-384 767.5,-384 767.5,-343 537.5,-343"/>
<text text-anchor="start" x="545.5" y="-372" font-family="Helvetica,sans-Serif" font-size="10.00">com.fs.starfarer.api.impl.campaign.missions.hub.</text>
<text text-anchor="start" x="545.5" y="-361" font-family="Helvetica,sans-Serif" font-size="10.00">HubMissionWithSearch.PlanetInDirectionOfOther</text>
<text text-anchor="middle" x="652.5" y="-350" font-family="Helvetica,sans-Serif" font-size="10.00">MissionsReq</text>
</a>
</g>
</g>
<!-- Node1&#45;&gt;Node5 -->
<g id="edge4" class="edge">
<title>Node1&#45;&gt;Node5</title>
<path fill="none" stroke="midnightblue" d="M400.4,-257.3C428.57,-279.9 475.77,-314.64 522,-334.5 529.3,-337.64 536.99,-340.46 544.82,-342.98"/>
<polygon fill="midnightblue" stroke="midnightblue" points="402.26,-254.3 392.29,-250.7 397.84,-259.73 402.26,-254.3"/>
</g>
<!-- Node6 -->
<g id="node6" class="node">
<title>Node6</title>
<g id="a_node6"><a xlink:href="classcom_1_1fs_1_1starfarer_1_1api_1_1impl_1_1campaign_1_1missions_1_1hub_1_1HubMissionWithSearch_1_1PlanetIsGasGiantReq.html" target="_top" xlink:title=" ">
<polygon fill="none" stroke="black" points="540,-294.5 540,-324.5 765,-324.5 765,-294.5 540,-294.5"/>
<text text-anchor="start" x="548" y="-312.5" font-family="Helvetica,sans-Serif" font-size="10.00">com.fs.starfarer.api.impl.campaign.missions.hub.</text>
<text text-anchor="middle" x="652.5" y="-301.5" font-family="Helvetica,sans-Serif" font-size="10.00">HubMissionWithSearch.PlanetIsGasGiantReq</text>
</a>
</g>
</g>
<!-- Node1&#45;&gt;Node6 -->
<g id="edge5" class="edge">
<title>Node1&#45;&gt;Node6</title>
<path fill="none" stroke="midnightblue" d="M423.49,-254.08C451.94,-264.37 488.65,-276.8 522,-285.5 534.5,-288.76 547.79,-291.75 560.92,-294.43"/>
<polygon fill="midnightblue" stroke="midnightblue" points="424.38,-250.68 413.79,-250.54 421.98,-257.26 424.38,-250.68"/>
</g>
<!-- Node7 -->
<g id="node7" class="node">
<title>Node7</title>
<g id="a_node7"><a xlink:href="classcom_1_1fs_1_1starfarer_1_1api_1_1impl_1_1campaign_1_1missions_1_1hub_1_1HubMissionWithSearch_1_1PlanetIsPopulatedReq.html" target="_top" xlink:title=" ">
<polygon fill="none" stroke="black" points="540,-245.5 540,-275.5 765,-275.5 765,-245.5 540,-245.5"/>
<text text-anchor="start" x="548" y="-263.5" font-family="Helvetica,sans-Serif" font-size="10.00">com.fs.starfarer.api.impl.campaign.missions.hub.</text>
<text text-anchor="middle" x="652.5" y="-252.5" font-family="Helvetica,sans-Serif" font-size="10.00">HubMissionWithSearch.PlanetIsPopulatedReq</text>
</a>
</g>
</g>
<!-- Node1&#45;&gt;Node7 -->
<g id="edge6" class="edge">
<title>Node1&#45;&gt;Node7</title>
<path fill="none" stroke="midnightblue" d="M496.72,-246.53C511.01,-247.82 525.53,-249.13 539.66,-250.41"/>
<polygon fill="midnightblue" stroke="midnightblue" points="496.64,-243.01 486.37,-245.6 496.01,-249.98 496.64,-243.01"/>
</g>
<!-- Node8 -->
<g id="node8" class="node">
<title>Node8</title>
<g id="a_node8"><a xlink:href="classcom_1_1fs_1_1starfarer_1_1api_1_1impl_1_1campaign_1_1missions_1_1hub_1_1HubMissionWithSearcd5ca3cb37cc5611165a68af216d7f12a.html" target="_top" xlink:title=" ">
<polygon fill="none" stroke="black" points="522,-196.5 522,-226.5 783,-226.5 783,-196.5 522,-196.5"/>
<text text-anchor="start" x="530" y="-214.5" font-family="Helvetica,sans-Serif" font-size="10.00">com.fs.starfarer.api.impl.campaign.missions.hub.</text>
<text text-anchor="middle" x="652.5" y="-203.5" font-family="Helvetica,sans-Serif" font-size="10.00">HubMissionWithSearch.PlanetOrbitIsNotNearJumpPoint</text>
</a>
</g>
</g>
<!-- Node1&#45;&gt;Node8 -->
<g id="edge7" class="edge">
<title>Node1&#45;&gt;Node8</title>
<path fill="none" stroke="midnightblue" d="M496.58,-224.92C505,-224.19 513.49,-223.46 521.94,-222.73"/>
<polygon fill="midnightblue" stroke="midnightblue" points="496.03,-221.46 486.37,-225.81 496.63,-228.43 496.03,-221.46"/>
</g>
<!-- Node9 -->
<g id="node9" class="node">
<title>Node9</title>
<g id="a_node9"><a xlink:href="classcom_1_1fs_1_1starfarer_1_1api_1_1impl_1_1campaign_1_1missions_1_1hub_1_1HubMissionWithSearch_1_1PlanetUnexploredRuinsReq.html" target="_top" xlink:title=" ">
<polygon fill="none" stroke="black" points="533,-147.5 533,-177.5 772,-177.5 772,-147.5 533,-147.5"/>
<text text-anchor="start" x="541" y="-165.5" font-family="Helvetica,sans-Serif" font-size="10.00">com.fs.starfarer.api.impl.campaign.missions.hub.</text>
<text text-anchor="middle" x="652.5" y="-154.5" font-family="Helvetica,sans-Serif" font-size="10.00">HubMissionWithSearch.PlanetUnexploredRuinsReq</text>
</a>
</g>
</g>
<!-- Node1&#45;&gt;Node9 -->
<g id="edge8" class="edge">
<title>Node1&#45;&gt;Node9</title>
<path fill="none" stroke="midnightblue" d="M424.42,-217.01C452.75,-207 489.04,-194.99 522,-186.5 534.62,-183.25 548.04,-180.26 561.28,-177.57"/>
<polygon fill="midnightblue" stroke="midnightblue" points="422.99,-213.81 414.75,-220.46 425.34,-220.4 422.99,-213.81"/>
</g>
<!-- Node10 -->
<g id="node10" class="node">
<title>Node10</title>
<g id="a_node10"><a xlink:href="classcom_1_1fs_1_1starfarer_1_1api_1_1impl_1_1campaign_1_1missions_1_1hub_1_1HubMissionWithSearch_1_1PlanetUnsurveyedReq.html" target="_top" xlink:title=" ">
<polygon fill="none" stroke="black" points="540,-98.5 540,-128.5 765,-128.5 765,-98.5 540,-98.5"/>
<text text-anchor="start" x="548" y="-116.5" font-family="Helvetica,sans-Serif" font-size="10.00">com.fs.starfarer.api.impl.campaign.missions.hub.</text>
<text text-anchor="middle" x="652.5" y="-105.5" font-family="Helvetica,sans-Serif" font-size="10.00">HubMissionWithSearch.PlanetUnsurveyedReq</text>
</a>
</g>
</g>
<!-- Node1&#45;&gt;Node10 -->
<g id="edge9" class="edge">
<title>Node1&#45;&gt;Node10</title>
<path fill="none" stroke="midnightblue" d="M400.3,-213.6C428.38,-190.95 475.52,-156.33 522,-137.5 530.48,-134.07 539.47,-131.12 548.6,-128.59"/>
<polygon fill="midnightblue" stroke="midnightblue" points="397.74,-211.17 392.22,-220.21 402.17,-216.59 397.74,-211.17"/>
</g>
<!-- Node11 -->
<g id="node11" class="node">
<title>Node11</title>
<g id="a_node11"><a xlink:href="classcom_1_1fs_1_1starfarer_1_1api_1_1impl_1_1campaign_1_1missions_1_1hub_1_1HubMissionWithSearch_1_1RequiredPlanetConditions.html" target="_top" xlink:title=" ">
<polygon fill="none" stroke="black" points="536,-49.5 536,-79.5 769,-79.5 769,-49.5 536,-49.5"/>
<text text-anchor="start" x="544" y="-67.5" font-family="Helvetica,sans-Serif" font-size="10.00">com.fs.starfarer.api.impl.campaign.missions.hub.</text>
<text text-anchor="middle" x="652.5" y="-56.5" font-family="Helvetica,sans-Serif" font-size="10.00">HubMissionWithSearch.RequiredPlanetConditions</text>
</a>
</g>
</g>
<!-- Node1&#45;&gt;Node11 -->
<g id="edge10" class="edge">
<title>Node1&#45;&gt;Node11</title>
<path fill="none" stroke="midnightblue" d="M390.58,-212.28C414.91,-179.08 464.41,-118.74 522,-88.5 528.58,-85.05 535.58,-82.08 542.78,-79.54"/>
<polygon fill="midnightblue" stroke="midnightblue" points="387.67,-210.33 384.67,-220.49 393.35,-214.42 387.67,-210.33"/>
</g>
<!-- Node12 -->
<g id="node12" class="node">
<title>Node12</title>
<g id="a_node12"><a xlink:href="classcom_1_1fs_1_1starfarer_1_1api_1_1impl_1_1campaign_1_1missions_1_1hub_1_1HubMissionWithSearch_1_1RequiredPlanetTags.html" target="_top" xlink:title=" ">
<polygon fill="none" stroke="black" points="540,-0.5 540,-30.5 765,-30.5 765,-0.5 540,-0.5"/>
<text text-anchor="start" x="548" y="-18.5" font-family="Helvetica,sans-Serif" font-size="10.00">com.fs.starfarer.api.impl.campaign.missions.hub.</text>
<text text-anchor="middle" x="652.5" y="-7.5" font-family="Helvetica,sans-Serif" font-size="10.00">HubMissionWithSearch.RequiredPlanetTags</text>
</a>
</g>
</g>
<!-- Node1&#45;&gt;Node12 -->
<g id="edge11" class="edge">
<title>Node1&#45;&gt;Node12</title>
<path fill="none" stroke="midnightblue" d="M385.36,-211.18C405.62,-168.81 453.45,-81.95 522,-39.5 527.64,-36.01 533.66,-33 539.91,-30.41"/>
<polygon fill="midnightblue" stroke="midnightblue" points="382.08,-209.92 381.02,-220.46 388.42,-212.88 382.08,-209.92"/>
</g>
<!-- Node2 -->
<g id="node2" class="node">
<title>Node2</title>
<g id="a_node2"><a xlink:href="interfacecom_1_1fs_1_1starfarer_1_1api_1_1impl_1_1campaign_1_1missions_1_1hub_1_1HubMissionWithSearch_1_1GenericRequirement.html" target="_top" xlink:title=" ">
<polygon fill="none" stroke="black" points="0,-220.5 0,-250.5 225,-250.5 225,-220.5 0,-220.5"/>
<text text-anchor="start" x="8" y="-238.5" font-family="Helvetica,sans-Serif" font-size="10.00">com.fs.starfarer.api.impl.campaign.missions.hub.</text>
<text text-anchor="middle" x="112.5" y="-227.5" font-family="Helvetica,sans-Serif" font-size="10.00">HubMissionWithSearch.GenericRequirement</text>
</a>
</g>
</g>
<!-- Node2&#45;&gt;Node1 -->
<g id="edge1" class="edge">
<title>Node2&#45;&gt;Node1</title>
<path fill="none" stroke="midnightblue" d="M235.47,-235.5C243.9,-235.5 252.37,-235.5 260.74,-235.5"/>
<polygon fill="midnightblue" stroke="midnightblue" points="235.22,-232 225.22,-235.5 235.22,-239 235.22,-232"/>
</g>
</g>
</svg>
