<?xml version="1.0" encoding="UTF-8" standalone="no"?>
<!DOCTYPE svg PUBLIC "-//W3C//DTD SVG 1.1//EN"
 "http://www.w3.org/Graphics/SVG/1.1/DTD/svg11.dtd">
<!-- Generated by graphviz version 2.49.3 (20211027.1501)
 -->
<!-- Title: com.fs.starfarer.api.ui.TooltipMakerAPI.TooltipCreator Pages: 1 -->
<svg width="403pt" height="284pt"
 viewBox="0.00 0.00 403.00 284.00" xmlns="http://www.w3.org/2000/svg" xmlns:xlink="http://www.w3.org/1999/xlink">
<g id="graph0" class="graph" transform="scale(1 1) rotate(0) translate(4 280)">
<title>com.fs.starfarer.api.ui.TooltipMakerAPI.TooltipCreator</title>
<!-- Node1 -->
<g id="node1" class="node">
<title>Node1</title>
<g id="a_node1"><a xlink:title=" ">
<polygon fill="#bfbfbf" stroke="black" points="0,-122.5 0,-152.5 152,-152.5 152,-122.5 0,-122.5"/>
<text text-anchor="start" x="8" y="-140.5" font-family="Helvetica,sans-Serif" font-size="10.00">com.fs.starfarer.api.ui.</text>
<text text-anchor="middle" x="76" y="-129.5" font-family="Helvetica,sans-Serif" font-size="10.00">TooltipMakerAPI.TooltipCreator</text>
</a>
</g>
</g>
<!-- Node2 -->
<g id="node2" class="node">
<title>Node2</title>
<g id="a_node2"><a xlink:href="classcom_1_1fs_1_1starfarer_1_1api_1_1impl_1_1campaign_1_1MonthlyReportNodeTooltipCreator.html" target="_top" xlink:title=" ">
<polygon fill="none" stroke="black" points="208.5,-245.5 208.5,-275.5 374.5,-275.5 374.5,-245.5 208.5,-245.5"/>
<text text-anchor="start" x="216.5" y="-263.5" font-family="Helvetica,sans-Serif" font-size="10.00">com.fs.starfarer.api.impl.campaign.</text>
<text text-anchor="middle" x="291.5" y="-252.5" font-family="Helvetica,sans-Serif" font-size="10.00">MonthlyReportNodeTooltipCreator</text>
</a>
</g>
</g>
<!-- Node1&#45;&gt;Node2 -->
<g id="edge1" class="edge">
<title>Node1&#45;&gt;Node2</title>
<path fill="none" stroke="midnightblue" d="M96.27,-160.36C116.71,-183.11 151.1,-217.33 188,-236.5 194.65,-239.95 201.8,-242.92 209.12,-245.46"/>
<polygon fill="midnightblue" stroke="midnightblue" points="98.87,-158.02 89.63,-152.83 93.62,-162.65 98.87,-158.02"/>
</g>
<!-- Node3 -->
<g id="node3" class="node">
<title>Node3</title>
<g id="a_node3"><a xlink:href="classcom_1_1fs_1_1starfarer_1_1api_1_1impl_1_1campaign_1_1OverheadTooltipCreator.html" target="_top" xlink:title=" ">
<polygon fill="none" stroke="black" points="208.5,-196.5 208.5,-226.5 374.5,-226.5 374.5,-196.5 208.5,-196.5"/>
<text text-anchor="start" x="216.5" y="-214.5" font-family="Helvetica,sans-Serif" font-size="10.00">com.fs.starfarer.api.impl.campaign.</text>
<text text-anchor="middle" x="291.5" y="-203.5" font-family="Helvetica,sans-Serif" font-size="10.00">OverheadTooltipCreator</text>
</a>
</g>
</g>
<!-- Node1&#45;&gt;Node3 -->
<g id="edge2" class="edge">
<title>Node1&#45;&gt;Node3</title>
<path fill="none" stroke="midnightblue" d="M115.74,-157.18C136.73,-167.26 163.35,-179.15 188,-187.5 197.69,-190.78 208.05,-193.78 218.32,-196.46"/>
<polygon fill="midnightblue" stroke="midnightblue" points="117.04,-153.92 106.52,-152.69 113.98,-160.21 117.04,-153.92"/>
</g>
<!-- Node4 -->
<g id="node4" class="node">
<title>Node4</title>
<g id="a_node4"><a xlink:href="classcom_1_1fs_1_1starfarer_1_1api_1_1impl_1_1campaign_1_1missions_1_1CommodityProductionMission.html" target="_top" xlink:title=" ">
<polygon fill="none" stroke="black" points="188,-147.5 188,-177.5 395,-177.5 395,-147.5 188,-147.5"/>
<text text-anchor="start" x="196" y="-165.5" font-family="Helvetica,sans-Serif" font-size="10.00">com.fs.starfarer.api.impl.campaign.missions.</text>
<text text-anchor="middle" x="291.5" y="-154.5" font-family="Helvetica,sans-Serif" font-size="10.00">CommodityProductionMission</text>
</a>
</g>
</g>
<!-- Node1&#45;&gt;Node4 -->
<g id="edge3" class="edge">
<title>Node1&#45;&gt;Node4</title>
<path fill="none" stroke="midnightblue" d="M162.39,-147.5C170.77,-148.48 179.33,-149.48 187.85,-150.48"/>
<polygon fill="midnightblue" stroke="midnightblue" points="162.61,-144 152.27,-146.31 161.8,-150.95 162.61,-144"/>
</g>
<!-- Node5 -->
<g id="node5" class="node">
<title>Node5</title>
<g id="a_node5"><a xlink:href="classcom_1_1fs_1_1starfarer_1_1api_1_1impl_1_1campaign_1_1tutorial_1_1GalatianAcademyStipend.html" target="_top" xlink:title=" ">
<polygon fill="none" stroke="black" points="193,-98.5 193,-128.5 390,-128.5 390,-98.5 193,-98.5"/>
<text text-anchor="start" x="201" y="-116.5" font-family="Helvetica,sans-Serif" font-size="10.00">com.fs.starfarer.api.impl.campaign.tutorial.</text>
<text text-anchor="middle" x="291.5" y="-105.5" font-family="Helvetica,sans-Serif" font-size="10.00">GalatianAcademyStipend</text>
</a>
</g>
</g>
<!-- Node1&#45;&gt;Node5 -->
<g id="edge4" class="edge">
<title>Node1&#45;&gt;Node5</title>
<path fill="none" stroke="midnightblue" d="M162.52,-127.89C172.45,-126.77 182.64,-125.62 192.72,-124.49"/>
<polygon fill="midnightblue" stroke="midnightblue" points="161.82,-124.44 152.27,-129.04 162.6,-131.4 161.82,-124.44"/>
</g>
<!-- Node6 -->
<g id="node6" class="node">
<title>Node6</title>
<g id="a_node6"><a xlink:href="classcom_1_1fs_1_1starfarer_1_1api_1_1impl_1_1campaign_1_1tutorial_1_1SpacerObligation.html" target="_top" xlink:title=" ">
<polygon fill="none" stroke="black" points="193,-49.5 193,-79.5 390,-79.5 390,-49.5 193,-49.5"/>
<text text-anchor="start" x="201" y="-67.5" font-family="Helvetica,sans-Serif" font-size="10.00">com.fs.starfarer.api.impl.campaign.tutorial.</text>
<text text-anchor="middle" x="291.5" y="-56.5" font-family="Helvetica,sans-Serif" font-size="10.00">SpacerObligation</text>
</a>
</g>
</g>
<!-- Node1&#45;&gt;Node6 -->
<g id="edge5" class="edge">
<title>Node1&#45;&gt;Node6</title>
<path fill="none" stroke="midnightblue" d="M117.19,-118.17C138,-108.66 164.01,-97.55 188,-89.5 198.85,-85.86 210.52,-82.51 221.95,-79.52"/>
<polygon fill="midnightblue" stroke="midnightblue" points="115.63,-115.03 108.03,-122.4 118.57,-121.38 115.63,-115.03"/>
</g>
<!-- Node7 -->
<g id="node7" class="node">
<title>Node7</title>
<g id="a_node7"><a xlink:href="classcom_1_1fs_1_1starfarer_1_1api_1_1ui_1_1BaseTooltipCreator.html" target="_top" xlink:title=" ">
<polygon fill="none" stroke="black" points="236,-0.5 236,-30.5 347,-30.5 347,-0.5 236,-0.5"/>
<text text-anchor="start" x="244" y="-18.5" font-family="Helvetica,sans-Serif" font-size="10.00">com.fs.starfarer.api.ui.</text>
<text text-anchor="middle" x="291.5" y="-7.5" font-family="Helvetica,sans-Serif" font-size="10.00">BaseTooltipCreator</text>
</a>
</g>
</g>
<!-- Node1&#45;&gt;Node7 -->
<g id="edge6" class="edge">
<title>Node1&#45;&gt;Node7</title>
<path fill="none" stroke="midnightblue" d="M97.01,-114.52C117.63,-92.3 151.79,-59.29 188,-40.5 202.71,-32.86 219.83,-27.5 235.82,-23.76"/>
<polygon fill="midnightblue" stroke="midnightblue" points="94.19,-112.43 90.05,-122.18 99.37,-117.14 94.19,-112.43"/>
</g>
</g>
</svg>
