<?xml version="1.0" encoding="UTF-8" standalone="no"?>
<!DOCTYPE svg PUBLIC "-//W3C//DTD SVG 1.1//EN"
 "http://www.w3.org/Graphics/SVG/1.1/DTD/svg11.dtd">
<!-- Generated by graphviz version 2.44.0 ()
 -->
<!-- Title: com.fs.starfarer.api.campaign.listeners.FleetEventListener Pages: 1 -->
<svg width="1216pt" height="1215pt"
 viewBox="0.00 0.00 1216.00 1215.00" xmlns="http://www.w3.org/2000/svg" xmlns:xlink="http://www.w3.org/1999/xlink">
<g id="graph0" class="graph" transform="scale(1 1) rotate(0) translate(4 1211)">
<title>com.fs.starfarer.api.campaign.listeners.FleetEventListener</title>
<!-- Node1 -->
<g id="node1" class="node">
<title>Node1</title>
<g id="a_node1"><a xlink:title=" ">
<polygon fill="#bfbfbf" stroke="black" points="0,-588.5 0,-618.5 185,-618.5 185,-588.5 0,-588.5"/>
<text text-anchor="start" x="8" y="-606.5" font-family="Helvetica,sans-Serif" font-size="10.00">com.fs.starfarer.api.campaign.listeners.</text>
<text text-anchor="middle" x="92.5" y="-595.5" font-family="Helvetica,sans-Serif" font-size="10.00">FleetEventListener</text>
</a>
</g>
</g>
<!-- Node2 -->
<g id="node2" class="node">
<title>Node2</title>
<g id="a_node2"><a xlink:href="classcom_1_1fs_1_1starfarer_1_1api_1_1campaign_1_1listeners_1_1BaseFleetEventListener.html" target="_top" xlink:title=" ">
<polygon fill="none" stroke="black" points="245,-1176.5 245,-1206.5 430,-1206.5 430,-1176.5 245,-1176.5"/>
<text text-anchor="start" x="253" y="-1194.5" font-family="Helvetica,sans-Serif" font-size="10.00">com.fs.starfarer.api.campaign.listeners.</text>
<text text-anchor="middle" x="337.5" y="-1183.5" font-family="Helvetica,sans-Serif" font-size="10.00">BaseFleetEventListener</text>
</a>
</g>
</g>
<!-- Node1&#45;&gt;Node2 -->
<g id="edge1" class="edge">
<title>Node1&#45;&gt;Node2</title>
<path fill="none" stroke="midnightblue" d="M95.62,-628.57C104.52,-727.61 142.07,-1089.93 221,-1167.5 227.87,-1174.25 236.1,-1179.33 244.98,-1183.12"/>
<polygon fill="midnightblue" stroke="midnightblue" points="99.11,-628.23 94.74,-618.58 92.13,-628.84 99.11,-628.23"/>
</g>
<!-- Node3 -->
<g id="node3" class="node">
<title>Node3</title>
<g id="a_node3"><a xlink:href="classcom_1_1fs_1_1starfarer_1_1api_1_1impl_1_1campaign_1_1econ_1_1impl_1_1LionsGuardHQ.html" target="_top" xlink:title=" ">
<polygon fill="none" stroke="black" points="233,-1127.5 233,-1157.5 442,-1157.5 442,-1127.5 233,-1127.5"/>
<text text-anchor="start" x="241" y="-1145.5" font-family="Helvetica,sans-Serif" font-size="10.00">com.fs.starfarer.api.impl.campaign.econ.impl.</text>
<text text-anchor="middle" x="337.5" y="-1134.5" font-family="Helvetica,sans-Serif" font-size="10.00">LionsGuardHQ</text>
</a>
</g>
</g>
<!-- Node1&#45;&gt;Node3 -->
<g id="edge2" class="edge">
<title>Node1&#45;&gt;Node3</title>
<path fill="none" stroke="midnightblue" d="M96.19,-628.49C106.75,-721.88 148.4,-1048.6 221,-1118.5 224.61,-1121.98 228.6,-1125.01 232.84,-1127.66"/>
<polygon fill="midnightblue" stroke="midnightblue" points="99.67,-628.08 95.08,-618.53 92.71,-628.85 99.67,-628.08"/>
</g>
<!-- Node4 -->
<g id="node4" class="node">
<title>Node4</title>
<g id="a_node4"><a xlink:href="classcom_1_1fs_1_1starfarer_1_1api_1_1impl_1_1campaign_1_1econ_1_1impl_1_1MilitaryBase.html" target="_top" xlink:title=" ">
<polygon fill="none" stroke="black" points="233,-1078.5 233,-1108.5 442,-1108.5 442,-1078.5 233,-1078.5"/>
<text text-anchor="start" x="241" y="-1096.5" font-family="Helvetica,sans-Serif" font-size="10.00">com.fs.starfarer.api.impl.campaign.econ.impl.</text>
<text text-anchor="middle" x="337.5" y="-1085.5" font-family="Helvetica,sans-Serif" font-size="10.00">MilitaryBase</text>
</a>
</g>
</g>
<!-- Node1&#45;&gt;Node4 -->
<g id="edge3" class="edge">
<title>Node1&#45;&gt;Node4</title>
<path fill="none" stroke="midnightblue" d="M96.9,-628.64C109.29,-716.41 154.76,-1007.26 221,-1069.5 224.66,-1072.94 228.67,-1075.93 232.94,-1078.55"/>
<polygon fill="midnightblue" stroke="midnightblue" points="100.34,-627.95 95.5,-618.52 93.41,-628.91 100.34,-627.95"/>
</g>
<!-- Node5 -->
<g id="node5" class="node">
<title>Node5</title>
<g id="a_node5"><a xlink:href="classcom_1_1fs_1_1starfarer_1_1api_1_1impl_1_1campaign_1_1econ_1_1impl_1_1OrbitalStation.html" target="_top" xlink:title=" ">
<polygon fill="none" stroke="black" points="233,-1029.5 233,-1059.5 442,-1059.5 442,-1029.5 233,-1029.5"/>
<text text-anchor="start" x="241" y="-1047.5" font-family="Helvetica,sans-Serif" font-size="10.00">com.fs.starfarer.api.impl.campaign.econ.impl.</text>
<text text-anchor="middle" x="337.5" y="-1036.5" font-family="Helvetica,sans-Serif" font-size="10.00">OrbitalStation</text>
</a>
</g>
</g>
<!-- Node1&#45;&gt;Node5 -->
<g id="edge4" class="edge">
<title>Node1&#45;&gt;Node5</title>
<path fill="none" stroke="midnightblue" d="M92.99,-628.95C93.02,-701.93 103.69,-913.5 221,-1020.5 224.71,-1023.88 228.76,-1026.84 233.07,-1029.41"/>
<polygon fill="midnightblue" stroke="midnightblue" points="96.49,-628.87 93.06,-618.84 89.49,-628.82 96.49,-628.87"/>
</g>
<!-- Node6 -->
<g id="node6" class="node">
<title>Node6</title>
<g id="a_node6"><a xlink:href="classcom_1_1fs_1_1starfarer_1_1api_1_1impl_1_1campaign_1_1fleets_1_1BaseLimitedFleetManager.html" target="_top" xlink:title=" ">
<polygon fill="none" stroke="black" points="242,-980.5 242,-1010.5 433,-1010.5 433,-980.5 242,-980.5"/>
<text text-anchor="start" x="250" y="-998.5" font-family="Helvetica,sans-Serif" font-size="10.00">com.fs.starfarer.api.impl.campaign.fleets.</text>
<text text-anchor="middle" x="337.5" y="-987.5" font-family="Helvetica,sans-Serif" font-size="10.00">BaseLimitedFleetManager</text>
</a>
</g>
</g>
<!-- Node1&#45;&gt;Node6 -->
<g id="edge5" class="edge">
<title>Node1&#45;&gt;Node6</title>
<path fill="none" stroke="midnightblue" d="M94.17,-628.65C97.4,-695.56 115.89,-879.11 221,-971.5 227.15,-976.91 234.2,-981.21 241.72,-984.63"/>
<polygon fill="midnightblue" stroke="midnightblue" points="97.67,-628.45 93.76,-618.6 90.67,-628.73 97.67,-628.45"/>
</g>
<!-- Node14 -->
<g id="node14" class="node">
<title>Node14</title>
<g id="a_node14"><a xlink:href="classcom_1_1fs_1_1starfarer_1_1api_1_1impl_1_1campaign_1_1fleets_1_1EconomyFleetRouteManager.html" target="_top" xlink:title=" ">
<polygon fill="none" stroke="black" points="242,-931.5 242,-961.5 433,-961.5 433,-931.5 242,-931.5"/>
<text text-anchor="start" x="250" y="-949.5" font-family="Helvetica,sans-Serif" font-size="10.00">com.fs.starfarer.api.impl.campaign.fleets.</text>
<text text-anchor="middle" x="337.5" y="-938.5" font-family="Helvetica,sans-Serif" font-size="10.00">EconomyFleetRouteManager</text>
</a>
</g>
</g>
<!-- Node1&#45;&gt;Node14 -->
<g id="edge13" class="edge">
<title>Node1&#45;&gt;Node14</title>
<path fill="none" stroke="midnightblue" d="M95.71,-628.97C102.44,-689.9 128.28,-844.76 221,-922.5 227.28,-927.76 234.41,-931.97 241.99,-935.32"/>
<polygon fill="midnightblue" stroke="midnightblue" points="99.17,-628.32 94.67,-618.73 92.2,-629.03 99.17,-628.32"/>
</g>
<!-- Node15 -->
<g id="node15" class="node">
<title>Node15</title>
<g id="a_node15"><a xlink:href="classcom_1_1fs_1_1starfarer_1_1api_1_1impl_1_1campaign_1_1fleets_1_1PatrolFleetManagerV2.html" target="_top" xlink:title=" ">
<polygon fill="none" stroke="black" points="242,-882.5 242,-912.5 433,-912.5 433,-882.5 242,-882.5"/>
<text text-anchor="start" x="250" y="-900.5" font-family="Helvetica,sans-Serif" font-size="10.00">com.fs.starfarer.api.impl.campaign.fleets.</text>
<text text-anchor="middle" x="337.5" y="-889.5" font-family="Helvetica,sans-Serif" font-size="10.00">PatrolFleetManagerV2</text>
</a>
</g>
</g>
<!-- Node1&#45;&gt;Node15 -->
<g id="edge14" class="edge">
<title>Node1&#45;&gt;Node15</title>
<path fill="none" stroke="midnightblue" d="M97.7,-628.74C108.09,-682.77 140.24,-809.88 221,-873.5 227.27,-878.44 234.32,-882.44 241.75,-885.66"/>
<polygon fill="midnightblue" stroke="midnightblue" points="101.1,-627.87 95.85,-618.66 94.21,-629.13 101.1,-627.87"/>
</g>
<!-- Node16 -->
<g id="node16" class="node">
<title>Node16</title>
<g id="a_node16"><a xlink:href="classcom_1_1fs_1_1starfarer_1_1api_1_1impl_1_1campaign_1_1fleets_1_1PersonalFleetScript.html" target="_top" xlink:title=" ">
<polygon fill="none" stroke="black" points="242,-833.5 242,-863.5 433,-863.5 433,-833.5 242,-833.5"/>
<text text-anchor="start" x="250" y="-851.5" font-family="Helvetica,sans-Serif" font-size="10.00">com.fs.starfarer.api.impl.campaign.fleets.</text>
<text text-anchor="middle" x="337.5" y="-840.5" font-family="Helvetica,sans-Serif" font-size="10.00">PersonalFleetScript</text>
</a>
</g>
</g>
<!-- Node1&#45;&gt;Node16 -->
<g id="edge15" class="edge">
<title>Node1&#45;&gt;Node16</title>
<path fill="none" stroke="midnightblue" d="M100.49,-628.66C114.81,-675.22 152.07,-774.65 221,-824.5 227.39,-829.12 234.47,-832.9 241.89,-835.97"/>
<polygon fill="midnightblue" stroke="midnightblue" points="103.76,-627.37 97.56,-618.78 97.05,-629.37 103.76,-627.37"/>
</g>
<!-- Node19 -->
<g id="node19" class="node">
<title>Node19</title>
<g id="a_node19"><a xlink:href="classcom_1_1fs_1_1starfarer_1_1api_1_1impl_1_1campaign_1_1fleets_1_1PilgrimageFleetRouteManager.html" target="_top" xlink:title=" ">
<polygon fill="none" stroke="black" points="242,-784.5 242,-814.5 433,-814.5 433,-784.5 242,-784.5"/>
<text text-anchor="start" x="250" y="-802.5" font-family="Helvetica,sans-Serif" font-size="10.00">com.fs.starfarer.api.impl.campaign.fleets.</text>
<text text-anchor="middle" x="337.5" y="-791.5" font-family="Helvetica,sans-Serif" font-size="10.00">PilgrimageFleetRouteManager</text>
</a>
</g>
</g>
<!-- Node1&#45;&gt;Node19 -->
<g id="edge18" class="edge">
<title>Node1&#45;&gt;Node19</title>
<path fill="none" stroke="midnightblue" d="M104.39,-627.89C122.7,-665.88 163.36,-738.65 221,-775.5 227.47,-779.64 234.52,-783.08 241.85,-785.94"/>
<polygon fill="midnightblue" stroke="midnightblue" points="107.44,-626.15 100.03,-618.59 101.11,-629.13 107.44,-626.15"/>
</g>
<!-- Node20 -->
<g id="node20" class="node">
<title>Node20</title>
<g id="a_node20"><a xlink:href="classcom_1_1fs_1_1starfarer_1_1api_1_1impl_1_1campaign_1_1fleets_1_1RouteManager.html" target="_top" xlink:title=" ">
<polygon fill="none" stroke="black" points="242,-735.5 242,-765.5 433,-765.5 433,-735.5 242,-735.5"/>
<text text-anchor="start" x="250" y="-753.5" font-family="Helvetica,sans-Serif" font-size="10.00">com.fs.starfarer.api.impl.campaign.fleets.</text>
<text text-anchor="middle" x="337.5" y="-742.5" font-family="Helvetica,sans-Serif" font-size="10.00">RouteManager</text>
</a>
</g>
</g>
<!-- Node1&#45;&gt;Node20 -->
<g id="edge19" class="edge">
<title>Node1&#45;&gt;Node20</title>
<path fill="none" stroke="midnightblue" d="M110.85,-626.91C133.1,-655.15 174.42,-701.89 221,-726.5 227.61,-729.99 234.68,-732.98 241.95,-735.53"/>
<polygon fill="midnightblue" stroke="midnightblue" points="113.45,-624.56 104.57,-618.78 107.91,-628.84 113.45,-624.56"/>
</g>
<!-- Node21 -->
<g id="node21" class="node">
<title>Node21</title>
<g id="a_node21"><a xlink:href="classcom_1_1fs_1_1starfarer_1_1api_1_1impl_1_1campaign_1_1fleets_1_1SeededFleetManager.html" target="_top" xlink:title=" ">
<polygon fill="none" stroke="black" points="242,-686.5 242,-716.5 433,-716.5 433,-686.5 242,-686.5"/>
<text text-anchor="start" x="250" y="-704.5" font-family="Helvetica,sans-Serif" font-size="10.00">com.fs.starfarer.api.impl.campaign.fleets.</text>
<text text-anchor="middle" x="337.5" y="-693.5" font-family="Helvetica,sans-Serif" font-size="10.00">SeededFleetManager</text>
</a>
</g>
</g>
<!-- Node1&#45;&gt;Node21 -->
<g id="edge20" class="edge">
<title>Node1&#45;&gt;Node21</title>
<path fill="none" stroke="midnightblue" d="M122.84,-624.21C147.84,-640.92 185.29,-663.84 221,-677.5 229.89,-680.9 239.37,-683.86 248.92,-686.42"/>
<polygon fill="midnightblue" stroke="midnightblue" points="124.78,-621.29 114.54,-618.58 120.85,-627.09 124.78,-621.29"/>
</g>
<!-- Node23 -->
<g id="node23" class="node">
<title>Node23</title>
<g id="a_node23"><a xlink:href="classcom_1_1fs_1_1starfarer_1_1api_1_1impl_1_1campaign_1_1fleets_1_1SourceBasedFleetManager.html" target="_top" xlink:title=" ">
<polygon fill="none" stroke="black" points="242,-637.5 242,-667.5 433,-667.5 433,-637.5 242,-637.5"/>
<text text-anchor="start" x="250" y="-655.5" font-family="Helvetica,sans-Serif" font-size="10.00">com.fs.starfarer.api.impl.campaign.fleets.</text>
<text text-anchor="middle" x="337.5" y="-644.5" font-family="Helvetica,sans-Serif" font-size="10.00">SourceBasedFleetManager</text>
</a>
</g>
</g>
<!-- Node1&#45;&gt;Node23 -->
<g id="edge22" class="edge">
<title>Node1&#45;&gt;Node23</title>
<path fill="none" stroke="midnightblue" d="M178,-620.54C205.37,-626.06 235.5,-632.13 262.08,-637.49"/>
<polygon fill="midnightblue" stroke="midnightblue" points="178.55,-617.08 168.06,-618.53 177.17,-623.94 178.55,-617.08"/>
</g>
<!-- Node26 -->
<g id="node26" class="node">
<title>Node26</title>
<g id="a_node26"><a xlink:href="classcom_1_1fs_1_1starfarer_1_1api_1_1impl_1_1campaign_1_1fleets_1_1misc_1_1MiscFleetRouteManager.html" target="_top" xlink:title=" ">
<polygon fill="none" stroke="black" points="230,-588.5 230,-618.5 445,-618.5 445,-588.5 230,-588.5"/>
<text text-anchor="start" x="238" y="-606.5" font-family="Helvetica,sans-Serif" font-size="10.00">com.fs.starfarer.api.impl.campaign.fleets.misc.</text>
<text text-anchor="middle" x="337.5" y="-595.5" font-family="Helvetica,sans-Serif" font-size="10.00">MiscFleetRouteManager</text>
</a>
</g>
</g>
<!-- Node1&#45;&gt;Node26 -->
<g id="edge25" class="edge">
<title>Node1&#45;&gt;Node26</title>
<path fill="none" stroke="midnightblue" d="M195.07,-603.5C206.6,-603.5 218.37,-603.5 229.95,-603.5"/>
<polygon fill="midnightblue" stroke="midnightblue" points="195.02,-600 185.02,-603.5 195.02,-607 195.02,-600"/>
</g>
<!-- Node27 -->
<g id="node27" class="node">
<title>Node27</title>
<g id="a_node27"><a xlink:href="classcom_1_1fs_1_1starfarer_1_1api_1_1impl_1_1campaign_1_1intel_1_1FactionCommissionIntel.html" target="_top" xlink:title=" ">
<polygon fill="none" stroke="black" points="244.5,-539.5 244.5,-569.5 430.5,-569.5 430.5,-539.5 244.5,-539.5"/>
<text text-anchor="start" x="252.5" y="-557.5" font-family="Helvetica,sans-Serif" font-size="10.00">com.fs.starfarer.api.impl.campaign.intel.</text>
<text text-anchor="middle" x="337.5" y="-546.5" font-family="Helvetica,sans-Serif" font-size="10.00">FactionCommissionIntel</text>
</a>
</g>
</g>
<!-- Node1&#45;&gt;Node27 -->
<g id="edge26" class="edge">
<title>Node1&#45;&gt;Node27</title>
<path fill="none" stroke="midnightblue" d="M178,-586.46C205.37,-580.94 235.5,-574.87 262.08,-569.51"/>
<polygon fill="midnightblue" stroke="midnightblue" points="177.17,-583.06 168.06,-588.47 178.55,-589.92 177.17,-583.06"/>
</g>
<!-- Node28 -->
<g id="node28" class="node">
<title>Node28</title>
<g id="a_node28"><a xlink:href="classcom_1_1fs_1_1starfarer_1_1api_1_1impl_1_1campaign_1_1intel_1_1PersonBountyIntel.html" target="_top" xlink:title=" ">
<polygon fill="none" stroke="black" points="244.5,-490.5 244.5,-520.5 430.5,-520.5 430.5,-490.5 244.5,-490.5"/>
<text text-anchor="start" x="252.5" y="-508.5" font-family="Helvetica,sans-Serif" font-size="10.00">com.fs.starfarer.api.impl.campaign.intel.</text>
<text text-anchor="middle" x="337.5" y="-497.5" font-family="Helvetica,sans-Serif" font-size="10.00">PersonBountyIntel</text>
</a>
</g>
</g>
<!-- Node1&#45;&gt;Node28 -->
<g id="edge27" class="edge">
<title>Node1&#45;&gt;Node28</title>
<path fill="none" stroke="midnightblue" d="M123.69,-582.66C148.73,-566.27 185.8,-544.02 221,-530.5 230.96,-526.68 241.64,-523.37 252.33,-520.54"/>
<polygon fill="midnightblue" stroke="midnightblue" points="121.43,-579.96 115.04,-588.4 125.31,-585.79 121.43,-579.96"/>
</g>
<!-- Node29 -->
<g id="node29" class="node">
<title>Node29</title>
<g id="a_node29"><a xlink:href="classcom_1_1fs_1_1starfarer_1_1api_1_1impl_1_1campaign_1_1intel_1_1SystemBountyIntel.html" target="_top" xlink:title=" ">
<polygon fill="none" stroke="black" points="244.5,-441.5 244.5,-471.5 430.5,-471.5 430.5,-441.5 244.5,-441.5"/>
<text text-anchor="start" x="252.5" y="-459.5" font-family="Helvetica,sans-Serif" font-size="10.00">com.fs.starfarer.api.impl.campaign.intel.</text>
<text text-anchor="middle" x="337.5" y="-448.5" font-family="Helvetica,sans-Serif" font-size="10.00">SystemBountyIntel</text>
</a>
</g>
</g>
<!-- Node1&#45;&gt;Node29 -->
<g id="edge28" class="edge">
<title>Node1&#45;&gt;Node29</title>
<path fill="none" stroke="midnightblue" d="M110.92,-580.35C133.25,-552.41 174.66,-506.12 221,-481.5 228.34,-477.6 236.25,-474.31 244.36,-471.53"/>
<polygon fill="midnightblue" stroke="midnightblue" points="108.04,-578.36 104.62,-588.39 113.54,-582.68 108.04,-578.36"/>
</g>
<!-- Node30 -->
<g id="node30" class="node">
<title>Node30</title>
<g id="a_node30"><a xlink:href="classcom_1_1fs_1_1starfarer_1_1api_1_1impl_1_1campaign_1_1intel_1_1bar_1_1events_1_1DeliveryFailureConsequences.html" target="_top" xlink:title=" ">
<polygon fill="none" stroke="black" points="221,-392.5 221,-422.5 454,-422.5 454,-392.5 221,-392.5"/>
<text text-anchor="start" x="229" y="-410.5" font-family="Helvetica,sans-Serif" font-size="10.00">com.fs.starfarer.api.impl.campaign.intel.bar.events.</text>
<text text-anchor="middle" x="337.5" y="-399.5" font-family="Helvetica,sans-Serif" font-size="10.00">DeliveryFailureConsequences</text>
</a>
</g>
</g>
<!-- Node1&#45;&gt;Node30 -->
<g id="edge29" class="edge">
<title>Node1&#45;&gt;Node30</title>
<path fill="none" stroke="midnightblue" d="M104.61,-579.03C123.08,-541.26 163.82,-469.28 221,-432.5 227.04,-428.62 233.59,-425.33 240.39,-422.54"/>
<polygon fill="midnightblue" stroke="midnightblue" points="101.34,-577.75 100.19,-588.28 107.66,-580.76 101.34,-577.75"/>
</g>
<!-- Node31 -->
<g id="node31" class="node">
<title>Node31</title>
<g id="a_node31"><a xlink:href="classcom_1_1fs_1_1starfarer_1_1api_1_1impl_1_1campaign_1_1intel_1_1bases_1_1LuddicPathBaseIntel.html" target="_top" xlink:title=" ">
<polygon fill="none" stroke="black" points="230,-343.5 230,-373.5 445,-373.5 445,-343.5 230,-343.5"/>
<text text-anchor="start" x="238" y="-361.5" font-family="Helvetica,sans-Serif" font-size="10.00">com.fs.starfarer.api.impl.campaign.intel.bases.</text>
<text text-anchor="middle" x="337.5" y="-350.5" font-family="Helvetica,sans-Serif" font-size="10.00">LuddicPathBaseIntel</text>
</a>
</g>
</g>
<!-- Node1&#45;&gt;Node31 -->
<g id="edge30" class="edge">
<title>Node1&#45;&gt;Node31</title>
<path fill="none" stroke="midnightblue" d="M100.57,-578.51C115.01,-532.24 152.47,-433.4 221,-383.5 226.31,-379.64 232.09,-376.35 238.15,-373.55"/>
<polygon fill="midnightblue" stroke="midnightblue" points="97.14,-577.73 97.61,-588.32 103.85,-579.75 97.14,-577.73"/>
</g>
<!-- Node32 -->
<g id="node32" class="node">
<title>Node32</title>
<g id="a_node32"><a xlink:href="classcom_1_1fs_1_1starfarer_1_1api_1_1impl_1_1campaign_1_1intel_1_1bases_1_1LuddicPathCellsIntel.html" target="_top" xlink:title=" ">
<polygon fill="none" stroke="black" points="230,-294.5 230,-324.5 445,-324.5 445,-294.5 230,-294.5"/>
<text text-anchor="start" x="238" y="-312.5" font-family="Helvetica,sans-Serif" font-size="10.00">com.fs.starfarer.api.impl.campaign.intel.bases.</text>
<text text-anchor="middle" x="337.5" y="-301.5" font-family="Helvetica,sans-Serif" font-size="10.00">LuddicPathCellsIntel</text>
</a>
</g>
</g>
<!-- Node1&#45;&gt;Node32 -->
<g id="edge31" class="edge">
<title>Node1&#45;&gt;Node32</title>
<path fill="none" stroke="midnightblue" d="M97.7,-578.26C108.09,-524.23 140.24,-397.12 221,-333.5 225.34,-330.08 230.06,-327.11 235.01,-324.54"/>
<polygon fill="midnightblue" stroke="midnightblue" points="94.21,-577.87 95.85,-588.34 101.1,-579.13 94.21,-577.87"/>
</g>
<!-- Node33 -->
<g id="node33" class="node">
<title>Node33</title>
<g id="a_node33"><a xlink:href="classcom_1_1fs_1_1starfarer_1_1api_1_1impl_1_1campaign_1_1intel_1_1bases_1_1PirateBaseIntel.html" target="_top" xlink:title=" ">
<polygon fill="none" stroke="black" points="230,-245.5 230,-275.5 445,-275.5 445,-245.5 230,-245.5"/>
<text text-anchor="start" x="238" y="-263.5" font-family="Helvetica,sans-Serif" font-size="10.00">com.fs.starfarer.api.impl.campaign.intel.bases.</text>
<text text-anchor="middle" x="337.5" y="-252.5" font-family="Helvetica,sans-Serif" font-size="10.00">PirateBaseIntel</text>
</a>
</g>
</g>
<!-- Node1&#45;&gt;Node33 -->
<g id="edge32" class="edge">
<title>Node1&#45;&gt;Node33</title>
<path fill="none" stroke="midnightblue" d="M95.71,-578.03C102.44,-517.1 128.28,-362.24 221,-284.5 225.08,-281.08 229.52,-278.11 234.21,-275.52"/>
<polygon fill="midnightblue" stroke="midnightblue" points="92.2,-577.97 94.67,-588.27 99.17,-578.68 92.2,-577.97"/>
</g>
<!-- Node34 -->
<g id="node34" class="node">
<title>Node34</title>
<g id="a_node34"><a xlink:href="classcom_1_1fs_1_1starfarer_1_1api_1_1impl_1_1campaign_1_1intel_1_1events_1_1HostileActivityEventIntel.html" target="_top" xlink:title=" ">
<polygon fill="none" stroke="black" points="228.5,-196.5 228.5,-226.5 446.5,-226.5 446.5,-196.5 228.5,-196.5"/>
<text text-anchor="start" x="236.5" y="-214.5" font-family="Helvetica,sans-Serif" font-size="10.00">com.fs.starfarer.api.impl.campaign.intel.events.</text>
<text text-anchor="middle" x="337.5" y="-203.5" font-family="Helvetica,sans-Serif" font-size="10.00">HostileActivityEventIntel</text>
</a>
</g>
</g>
<!-- Node1&#45;&gt;Node34 -->
<g id="edge33" class="edge">
<title>Node1&#45;&gt;Node34</title>
<path fill="none" stroke="midnightblue" d="M94.17,-578.35C97.4,-511.44 115.89,-327.89 221,-235.5 224.85,-232.12 229.04,-229.17 233.48,-226.6"/>
<polygon fill="midnightblue" stroke="midnightblue" points="90.67,-578.27 93.76,-588.4 97.67,-578.55 90.67,-578.27"/>
</g>
<!-- Node35 -->
<g id="node35" class="node">
<title>Node35</title>
<g id="a_node35"><a xlink:href="classcom_1_1fs_1_1starfarer_1_1api_1_1impl_1_1campaign_1_1intel_1_1events_1_1ht_1_1HyperspaceTopographyEventIntel.html" target="_top" xlink:title=" ">
<polygon fill="none" stroke="black" points="223.5,-147.5 223.5,-177.5 451.5,-177.5 451.5,-147.5 223.5,-147.5"/>
<text text-anchor="start" x="231.5" y="-165.5" font-family="Helvetica,sans-Serif" font-size="10.00">com.fs.starfarer.api.impl.campaign.intel.events.ht.</text>
<text text-anchor="middle" x="337.5" y="-154.5" font-family="Helvetica,sans-Serif" font-size="10.00">HyperspaceTopographyEventIntel</text>
</a>
</g>
</g>
<!-- Node1&#45;&gt;Node35 -->
<g id="edge34" class="edge">
<title>Node1&#45;&gt;Node35</title>
<path fill="none" stroke="midnightblue" d="M92.99,-578.05C93.02,-505.07 103.69,-293.5 221,-186.5 224.71,-183.12 228.76,-180.16 233.07,-177.59"/>
<polygon fill="midnightblue" stroke="midnightblue" points="89.49,-578.18 93.06,-588.16 96.49,-578.13 89.49,-578.18"/>
</g>
<!-- Node36 -->
<g id="node36" class="node">
<title>Node36</title>
<g id="a_node36"><a xlink:href="classcom_1_1fs_1_1starfarer_1_1api_1_1impl_1_1campaign_1_1missions_1_1PirateSystemBounty.html" target="_top" xlink:title=" ">
<polygon fill="none" stroke="black" points="234,-98.5 234,-128.5 441,-128.5 441,-98.5 234,-98.5"/>
<text text-anchor="start" x="242" y="-116.5" font-family="Helvetica,sans-Serif" font-size="10.00">com.fs.starfarer.api.impl.campaign.missions.</text>
<text text-anchor="middle" x="337.5" y="-105.5" font-family="Helvetica,sans-Serif" font-size="10.00">PirateSystemBounty</text>
</a>
</g>
</g>
<!-- Node1&#45;&gt;Node36 -->
<g id="edge35" class="edge">
<title>Node1&#45;&gt;Node36</title>
<path fill="none" stroke="midnightblue" d="M96.9,-578.36C109.29,-490.59 154.76,-199.74 221,-137.5 224.96,-133.78 229.33,-130.58 233.99,-127.82"/>
<polygon fill="midnightblue" stroke="midnightblue" points="93.41,-578.09 95.5,-588.48 100.34,-579.05 93.41,-578.09"/>
</g>
<!-- Node37 -->
<g id="node37" class="node">
<title>Node37</title>
<g id="a_node37"><a xlink:href="classcom_1_1fs_1_1starfarer_1_1api_1_1impl_1_1campaign_1_1missions_1_1cb_1_1BaseCustomBounty.html" target="_top" xlink:title=" ">
<polygon fill="none" stroke="black" points="227.5,-49.5 227.5,-79.5 447.5,-79.5 447.5,-49.5 227.5,-49.5"/>
<text text-anchor="start" x="235.5" y="-67.5" font-family="Helvetica,sans-Serif" font-size="10.00">com.fs.starfarer.api.impl.campaign.missions.cb.</text>
<text text-anchor="middle" x="337.5" y="-56.5" font-family="Helvetica,sans-Serif" font-size="10.00">BaseCustomBounty</text>
</a>
</g>
</g>
<!-- Node1&#45;&gt;Node37 -->
<g id="edge36" class="edge">
<title>Node1&#45;&gt;Node37</title>
<path fill="none" stroke="midnightblue" d="M96.19,-578.51C106.75,-485.12 148.4,-158.4 221,-88.5 224.54,-85.09 228.43,-82.11 232.58,-79.51"/>
<polygon fill="midnightblue" stroke="midnightblue" points="92.71,-578.15 95.08,-588.47 99.67,-578.92 92.71,-578.15"/>
</g>
<!-- Node40 -->
<g id="node40" class="node">
<title>Node40</title>
<g id="a_node40"><a xlink:href="classcom_1_1fs_1_1starfarer_1_1api_1_1impl_1_1campaign_1_1rulecmd_1_1HA__CMD_1_1StationKingScript.html" target="_top" xlink:title=" ">
<polygon fill="none" stroke="black" points="236,-0.5 236,-30.5 439,-30.5 439,-0.5 236,-0.5"/>
<text text-anchor="start" x="244" y="-18.5" font-family="Helvetica,sans-Serif" font-size="10.00">com.fs.starfarer.api.impl.campaign.rulecmd.</text>
<text text-anchor="middle" x="337.5" y="-7.5" font-family="Helvetica,sans-Serif" font-size="10.00">HA_CMD.StationKingScript</text>
</a>
</g>
</g>
<!-- Node1&#45;&gt;Node40 -->
<g id="edge39" class="edge">
<title>Node1&#45;&gt;Node40</title>
<path fill="none" stroke="midnightblue" d="M95.62,-578.43C104.52,-479.39 142.07,-117.07 221,-39.5 225.46,-35.12 230.49,-31.45 235.9,-28.37"/>
<polygon fill="midnightblue" stroke="midnightblue" points="92.13,-578.16 94.74,-588.42 99.11,-578.77 92.13,-578.16"/>
</g>
<!-- Node7 -->
<g id="node7" class="node">
<title>Node7</title>
<g id="a_node7"><a xlink:href="classcom_1_1fs_1_1starfarer_1_1api_1_1impl_1_1campaign_1_1fleets_1_1LuddicPathFleetManager.html" target="_top" xlink:title=" ">
<polygon fill="none" stroke="black" points="513,-1029.5 513,-1059.5 704,-1059.5 704,-1029.5 513,-1029.5"/>
<text text-anchor="start" x="521" y="-1047.5" font-family="Helvetica,sans-Serif" font-size="10.00">com.fs.starfarer.api.impl.campaign.fleets.</text>
<text text-anchor="middle" x="608.5" y="-1036.5" font-family="Helvetica,sans-Serif" font-size="10.00">LuddicPathFleetManager</text>
</a>
</g>
</g>
<!-- Node6&#45;&gt;Node7 -->
<g id="edge6" class="edge">
<title>Node6&#45;&gt;Node7</title>
<path fill="none" stroke="midnightblue" d="M431.25,-1012.39C461.75,-1017.95 495.44,-1024.09 525.12,-1029.49"/>
<polygon fill="midnightblue" stroke="midnightblue" points="431.5,-1008.88 421.04,-1010.53 430.25,-1015.77 431.5,-1008.88"/>
</g>
<!-- Node8 -->
<g id="node8" class="node">
<title>Node8</title>
<g id="a_node8"><a xlink:href="classcom_1_1fs_1_1starfarer_1_1api_1_1impl_1_1campaign_1_1fleets_1_1PirateFleetManager.html" target="_top" xlink:title=" ">
<polygon fill="none" stroke="black" points="513,-980.5 513,-1010.5 704,-1010.5 704,-980.5 513,-980.5"/>
<text text-anchor="start" x="521" y="-998.5" font-family="Helvetica,sans-Serif" font-size="10.00">com.fs.starfarer.api.impl.campaign.fleets.</text>
<text text-anchor="middle" x="608.5" y="-987.5" font-family="Helvetica,sans-Serif" font-size="10.00">PirateFleetManager</text>
</a>
</g>
</g>
<!-- Node6&#45;&gt;Node8 -->
<g id="edge7" class="edge">
<title>Node6&#45;&gt;Node8</title>
<path fill="none" stroke="midnightblue" d="M443.38,-995.5C466.2,-995.5 490.21,-995.5 512.61,-995.5"/>
<polygon fill="midnightblue" stroke="midnightblue" points="443.34,-992 433.34,-995.5 443.34,-999 443.34,-992"/>
</g>
<!-- Node9 -->
<g id="node9" class="node">
<title>Node9</title>
<g id="a_node9"><a xlink:href="classcom_1_1fs_1_1starfarer_1_1api_1_1impl_1_1campaign_1_1fleets_1_1PlayerVisibleFleetManager.html" target="_top" xlink:title=" ">
<polygon fill="none" stroke="black" points="513,-931.5 513,-961.5 704,-961.5 704,-931.5 513,-931.5"/>
<text text-anchor="start" x="521" y="-949.5" font-family="Helvetica,sans-Serif" font-size="10.00">com.fs.starfarer.api.impl.campaign.fleets.</text>
<text text-anchor="middle" x="608.5" y="-938.5" font-family="Helvetica,sans-Serif" font-size="10.00">PlayerVisibleFleetManager</text>
</a>
</g>
</g>
<!-- Node6&#45;&gt;Node9 -->
<g id="edge8" class="edge">
<title>Node6&#45;&gt;Node9</title>
<path fill="none" stroke="midnightblue" d="M431.25,-978.61C461.75,-973.05 495.44,-966.91 525.12,-961.51"/>
<polygon fill="midnightblue" stroke="midnightblue" points="430.25,-975.23 421.04,-980.47 431.5,-982.12 430.25,-975.23"/>
</g>
<!-- Node10 -->
<g id="node10" class="node">
<title>Node10</title>
<g id="a_node10"><a xlink:href="classcom_1_1fs_1_1starfarer_1_1api_1_1impl_1_1campaign_1_1fleets_1_1DisposableFleetManager.html" target="_top" xlink:title=" ">
<polygon fill="none" stroke="black" points="763,-931.5 763,-961.5 954,-961.5 954,-931.5 763,-931.5"/>
<text text-anchor="start" x="771" y="-949.5" font-family="Helvetica,sans-Serif" font-size="10.00">com.fs.starfarer.api.impl.campaign.fleets.</text>
<text text-anchor="middle" x="858.5" y="-938.5" font-family="Helvetica,sans-Serif" font-size="10.00">DisposableFleetManager</text>
</a>
</g>
</g>
<!-- Node9&#45;&gt;Node10 -->
<g id="edge9" class="edge">
<title>Node9&#45;&gt;Node10</title>
<path fill="none" stroke="midnightblue" d="M714.72,-946.5C730.66,-946.5 747.03,-946.5 762.73,-946.5"/>
<polygon fill="midnightblue" stroke="midnightblue" points="714.32,-943 704.32,-946.5 714.32,-950 714.32,-943"/>
</g>
<!-- Node11 -->
<g id="node11" class="node">
<title>Node11</title>
<g id="a_node11"><a xlink:href="classcom_1_1fs_1_1starfarer_1_1api_1_1impl_1_1campaign_1_1fleets_1_1DisposableLuddicPathFleetManager.html" target="_top" xlink:title=" ">
<polygon fill="none" stroke="black" points="1003.5,-980.5 1003.5,-1010.5 1194.5,-1010.5 1194.5,-980.5 1003.5,-980.5"/>
<text text-anchor="start" x="1011.5" y="-998.5" font-family="Helvetica,sans-Serif" font-size="10.00">com.fs.starfarer.api.impl.campaign.fleets.</text>
<text text-anchor="middle" x="1099" y="-987.5" font-family="Helvetica,sans-Serif" font-size="10.00">DisposableLuddicPathFleetManager</text>
</a>
</g>
</g>
<!-- Node10&#45;&gt;Node11 -->
<g id="edge10" class="edge">
<title>Node10&#45;&gt;Node11</title>
<path fill="none" stroke="midnightblue" d="M942.79,-963.61C969.56,-969.11 998.99,-975.16 1024.96,-980.49"/>
<polygon fill="midnightblue" stroke="midnightblue" points="943.18,-960.12 932.68,-961.53 941.77,-966.98 943.18,-960.12"/>
</g>
<!-- Node12 -->
<g id="node12" class="node">
<title>Node12</title>
<g id="a_node12"><a xlink:href="classcom_1_1fs_1_1starfarer_1_1api_1_1impl_1_1campaign_1_1fleets_1_1DisposablePirateFleetManager.html" target="_top" xlink:title=" ">
<polygon fill="none" stroke="black" points="1003.5,-931.5 1003.5,-961.5 1194.5,-961.5 1194.5,-931.5 1003.5,-931.5"/>
<text text-anchor="start" x="1011.5" y="-949.5" font-family="Helvetica,sans-Serif" font-size="10.00">com.fs.starfarer.api.impl.campaign.fleets.</text>
<text text-anchor="middle" x="1099" y="-938.5" font-family="Helvetica,sans-Serif" font-size="10.00">DisposablePirateFleetManager</text>
</a>
</g>
</g>
<!-- Node10&#45;&gt;Node12 -->
<g id="edge11" class="edge">
<title>Node10&#45;&gt;Node12</title>
<path fill="none" stroke="midnightblue" d="M964.38,-946.5C977.27,-946.5 990.39,-946.5 1003.12,-946.5"/>
<polygon fill="midnightblue" stroke="midnightblue" points="964.1,-943 954.1,-946.5 964.1,-950 964.1,-943"/>
</g>
<!-- Node13 -->
<g id="node13" class="node">
<title>Node13</title>
<g id="a_node13"><a xlink:href="classcom_1_1fs_1_1starfarer_1_1api_1_1impl_1_1campaign_1_1intel_1_1events_1_1DisposableHostileActivityFleetManager.html" target="_top" xlink:title=" ">
<polygon fill="none" stroke="black" points="990,-882.5 990,-912.5 1208,-912.5 1208,-882.5 990,-882.5"/>
<text text-anchor="start" x="998" y="-900.5" font-family="Helvetica,sans-Serif" font-size="10.00">com.fs.starfarer.api.impl.campaign.intel.events.</text>
<text text-anchor="middle" x="1099" y="-889.5" font-family="Helvetica,sans-Serif" font-size="10.00">DisposableHostileActivityFleetManager</text>
</a>
</g>
</g>
<!-- Node10&#45;&gt;Node13 -->
<g id="edge12" class="edge">
<title>Node10&#45;&gt;Node13</title>
<path fill="none" stroke="midnightblue" d="M942.79,-929.39C969.56,-923.89 998.99,-917.84 1024.96,-912.51"/>
<polygon fill="midnightblue" stroke="midnightblue" points="941.77,-926.02 932.68,-931.47 943.18,-932.88 941.77,-926.02"/>
</g>
<!-- Node17 -->
<g id="node17" class="node">
<title>Node17</title>
<g id="a_node17"><a xlink:href="classcom_1_1fs_1_1starfarer_1_1api_1_1impl_1_1campaign_1_1fleets_1_1PersonalFleetHoracioCaden.html" target="_top" xlink:title=" ">
<polygon fill="none" stroke="black" points="513,-858.5 513,-888.5 704,-888.5 704,-858.5 513,-858.5"/>
<text text-anchor="start" x="521" y="-876.5" font-family="Helvetica,sans-Serif" font-size="10.00">com.fs.starfarer.api.impl.campaign.fleets.</text>
<text text-anchor="middle" x="608.5" y="-865.5" font-family="Helvetica,sans-Serif" font-size="10.00">PersonalFleetHoracioCaden</text>
</a>
</g>
</g>
<!-- Node16&#45;&gt;Node17 -->
<g id="edge16" class="edge">
<title>Node16&#45;&gt;Node17</title>
<path fill="none" stroke="midnightblue" d="M443.38,-858.25C466.2,-860.37 490.21,-862.6 512.61,-864.68"/>
<polygon fill="midnightblue" stroke="midnightblue" points="443.62,-854.75 433.34,-857.31 442.97,-861.72 443.62,-854.75"/>
</g>
<!-- Node18 -->
<g id="node18" class="node">
<title>Node18</title>
<g id="a_node18"><a xlink:href="classcom_1_1fs_1_1starfarer_1_1api_1_1impl_1_1campaign_1_1fleets_1_1PersonalFleetOxanaHyder.html" target="_top" xlink:title=" ">
<polygon fill="none" stroke="black" points="513,-809.5 513,-839.5 704,-839.5 704,-809.5 513,-809.5"/>
<text text-anchor="start" x="521" y="-827.5" font-family="Helvetica,sans-Serif" font-size="10.00">com.fs.starfarer.api.impl.campaign.fleets.</text>
<text text-anchor="middle" x="608.5" y="-816.5" font-family="Helvetica,sans-Serif" font-size="10.00">PersonalFleetOxanaHyder</text>
</a>
</g>
</g>
<!-- Node16&#45;&gt;Node18 -->
<g id="edge17" class="edge">
<title>Node16&#45;&gt;Node18</title>
<path fill="none" stroke="midnightblue" d="M443.38,-839.14C466.2,-837.11 490.21,-834.96 512.61,-832.97"/>
<polygon fill="midnightblue" stroke="midnightblue" points="442.99,-835.66 433.34,-840.04 443.61,-842.64 442.99,-835.66"/>
</g>
<!-- Node22 -->
<g id="node22" class="node">
<title>Node22</title>
<g id="a_node22"><a xlink:href="classcom_1_1fs_1_1starfarer_1_1api_1_1impl_1_1campaign_1_1procgen_1_1themes_1_1RemnantSeededFleetManager.html" target="_top" xlink:title=" ">
<polygon fill="none" stroke="black" points="490,-686.5 490,-716.5 727,-716.5 727,-686.5 490,-686.5"/>
<text text-anchor="start" x="498" y="-704.5" font-family="Helvetica,sans-Serif" font-size="10.00">com.fs.starfarer.api.impl.campaign.procgen.themes.</text>
<text text-anchor="middle" x="608.5" y="-693.5" font-family="Helvetica,sans-Serif" font-size="10.00">RemnantSeededFleetManager</text>
</a>
</g>
</g>
<!-- Node21&#45;&gt;Node22 -->
<g id="edge21" class="edge">
<title>Node21&#45;&gt;Node22</title>
<path fill="none" stroke="midnightblue" d="M443.74,-701.5C458.89,-701.5 474.57,-701.5 489.95,-701.5"/>
<polygon fill="midnightblue" stroke="midnightblue" points="443.34,-698 433.34,-701.5 443.34,-705 443.34,-698"/>
</g>
<!-- Node24 -->
<g id="node24" class="node">
<title>Node24</title>
<g id="a_node24"><a xlink:href="classcom_1_1fs_1_1starfarer_1_1api_1_1impl_1_1campaign_1_1procgen_1_1themes_1_1RemnantStationFleetManager.html" target="_top" xlink:title=" ">
<polygon fill="none" stroke="black" points="490,-637.5 490,-667.5 727,-667.5 727,-637.5 490,-637.5"/>
<text text-anchor="start" x="498" y="-655.5" font-family="Helvetica,sans-Serif" font-size="10.00">com.fs.starfarer.api.impl.campaign.procgen.themes.</text>
<text text-anchor="middle" x="608.5" y="-644.5" font-family="Helvetica,sans-Serif" font-size="10.00">RemnantStationFleetManager</text>
</a>
</g>
</g>
<!-- Node23&#45;&gt;Node24 -->
<g id="edge23" class="edge">
<title>Node23&#45;&gt;Node24</title>
<path fill="none" stroke="midnightblue" d="M443.74,-652.5C458.89,-652.5 474.57,-652.5 489.95,-652.5"/>
<polygon fill="midnightblue" stroke="midnightblue" points="443.34,-649 433.34,-652.5 443.34,-656 443.34,-649"/>
</g>
<!-- Node25 -->
<g id="node25" class="node">
<title>Node25</title>
<g id="a_node25"><a xlink:href="classcom_1_1fs_1_1starfarer_1_1api_1_1impl_1_1campaign_1_1tutorial_1_1RogueMinerMiscFleetManager.html" target="_top" xlink:title=" ">
<polygon fill="none" stroke="black" points="510,-588.5 510,-618.5 707,-618.5 707,-588.5 510,-588.5"/>
<text text-anchor="start" x="518" y="-606.5" font-family="Helvetica,sans-Serif" font-size="10.00">com.fs.starfarer.api.impl.campaign.tutorial.</text>
<text text-anchor="middle" x="608.5" y="-595.5" font-family="Helvetica,sans-Serif" font-size="10.00">RogueMinerMiscFleetManager</text>
</a>
</g>
</g>
<!-- Node23&#45;&gt;Node25 -->
<g id="edge24" class="edge">
<title>Node23&#45;&gt;Node25</title>
<path fill="none" stroke="midnightblue" d="M431.25,-635.61C461.75,-630.05 495.44,-623.91 525.12,-618.51"/>
<polygon fill="midnightblue" stroke="midnightblue" points="430.25,-632.23 421.04,-637.47 431.5,-639.12 430.25,-632.23"/>
</g>
<!-- Node38 -->
<g id="node38" class="node">
<title>Node38</title>
<g id="a_node38"><a xlink:href="classcom_1_1fs_1_1starfarer_1_1api_1_1impl_1_1campaign_1_1missions_1_1cb_1_1MilitaryCustomBounty.html" target="_top" xlink:title=" ">
<polygon fill="none" stroke="black" points="498.5,-74.5 498.5,-104.5 718.5,-104.5 718.5,-74.5 498.5,-74.5"/>
<text text-anchor="start" x="506.5" y="-92.5" font-family="Helvetica,sans-Serif" font-size="10.00">com.fs.starfarer.api.impl.campaign.missions.cb.</text>
<text text-anchor="middle" x="608.5" y="-81.5" font-family="Helvetica,sans-Serif" font-size="10.00">MilitaryCustomBounty</text>
</a>
</g>
</g>
<!-- Node37&#45;&gt;Node38 -->
<g id="edge37" class="edge">
<title>Node37&#45;&gt;Node38</title>
<path fill="none" stroke="midnightblue" d="M457.79,-75.59C471.28,-76.84 484.97,-78.11 498.32,-79.35"/>
<polygon fill="midnightblue" stroke="midnightblue" points="457.81,-72.07 447.52,-74.63 457.16,-79.04 457.81,-72.07"/>
</g>
<!-- Node39 -->
<g id="node39" class="node">
<title>Node39</title>
<g id="a_node39"><a xlink:href="classcom_1_1fs_1_1starfarer_1_1api_1_1impl_1_1campaign_1_1missions_1_1cb_1_1UnderworldCustomBounty.html" target="_top" xlink:title=" ">
<polygon fill="none" stroke="black" points="498.5,-25.5 498.5,-55.5 718.5,-55.5 718.5,-25.5 498.5,-25.5"/>
<text text-anchor="start" x="506.5" y="-43.5" font-family="Helvetica,sans-Serif" font-size="10.00">com.fs.starfarer.api.impl.campaign.missions.cb.</text>
<text text-anchor="middle" x="608.5" y="-32.5" font-family="Helvetica,sans-Serif" font-size="10.00">UnderworldCustomBounty</text>
</a>
</g>
</g>
<!-- Node37&#45;&gt;Node39 -->
<g id="edge38" class="edge">
<title>Node37&#45;&gt;Node39</title>
<path fill="none" stroke="midnightblue" d="M457.79,-53.86C471.28,-52.65 484.97,-51.43 498.32,-50.24"/>
<polygon fill="midnightblue" stroke="midnightblue" points="457.17,-50.4 447.52,-54.77 457.8,-57.37 457.17,-50.4"/>
</g>
</g>
</svg>
