<?xml version="1.0" encoding="UTF-8" standalone="no"?>
<!DOCTYPE svg PUBLIC "-//W3C//DTD SVG 1.1//EN"
 "http://www.w3.org/Graphics/SVG/1.1/DTD/svg11.dtd">
<!-- Generated by graphviz version 12.2.0 (20241103.1931)
 -->
<!-- Title: com.fs.starfarer.api.characters.FleetStatsSkillEffect Pages: 1 -->
<svg width="568pt" height="1509pt"
 viewBox="0.00 0.00 567.50 1508.50" xmlns="http://www.w3.org/2000/svg" xmlns:xlink="http://www.w3.org/1999/xlink">
<g id="graph0" class="graph" transform="scale(1 1) rotate(0) translate(4 1504.5)">
<title>com.fs.starfarer.api.characters.FleetStatsSkillEffect</title>
<!-- Node1 -->
<g id="Node000001" class="node">
<title>Node1</title>
<g id="a_Node000001"><a xlink:title=" ">
<polygon fill="#999999" stroke="#666666" points="333.5,-765.5 184.75,-765.5 184.75,-735 333.5,-735 333.5,-765.5"/>
<text text-anchor="start" x="192.75" y="-752" font-family="Helvetica,sans-Serif" font-size="10.00">com.fs.starfarer.api.characters.</text>
<text text-anchor="middle" x="259.12" y="-740.75" font-family="Helvetica,sans-Serif" font-size="10.00">FleetStatsSkillEffect</text>
</a>
</g>
</g>
<!-- Node3 -->
<g id="Node000003" class="node">
<title>Node3</title>
<g id="a_Node000003"><a xlink:title=" ">
<polygon fill="white" stroke="#666666" points="559.5,-1500.5 369.5,-1500.5 369.5,-1470 559.5,-1470 559.5,-1500.5"/>
<text text-anchor="start" x="377.5" y="-1487" font-family="Helvetica,sans-Serif" font-size="10.00">com.fs.starfarer.api.impl.campaign.skills.</text>
<text text-anchor="middle" x="464.5" y="-1475.75" font-family="Helvetica,sans-Serif" font-size="10.00">ContainmentProcedures.Level2</text>
</a>
</g>
</g>
<!-- Node1&#45;&gt;Node3 -->
<g id="edge2_Node000001_Node000003" class="edge">
<title>Node1&#45;&gt;Node3</title>
<g id="a_edge2_Node000001_Node000003"><a xlink:title=" ">
<path fill="none" stroke="#63b8ff" d="M260.47,-777.26C262.53,-894.33 276.52,-1356.74 369.5,-1460.25 372.77,-1463.89 376.51,-1467.03 380.56,-1469.73"/>
<polygon fill="#63b8ff" stroke="#63b8ff" points="263.97,-777.32 260.32,-767.38 256.98,-777.44 263.97,-777.32"/>
</a>
</g>
</g>
<!-- Node4 -->
<g id="Node000004" class="node">
<title>Node4</title>
<g id="a_Node000004"><a xlink:title=" ">
<polygon fill="white" stroke="#666666" points="559.5,-1451.5 369.5,-1451.5 369.5,-1421 559.5,-1421 559.5,-1451.5"/>
<text text-anchor="start" x="377.5" y="-1438" font-family="Helvetica,sans-Serif" font-size="10.00">com.fs.starfarer.api.impl.campaign.skills.</text>
<text text-anchor="middle" x="464.5" y="-1426.75" font-family="Helvetica,sans-Serif" font-size="10.00">ContainmentProcedures.Level3</text>
</a>
</g>
</g>
<!-- Node1&#45;&gt;Node4 -->
<g id="edge3_Node000001_Node000004" class="edge">
<title>Node1&#45;&gt;Node4</title>
<g id="a_edge3_Node000001_Node000004"><a xlink:title=" ">
<path fill="none" stroke="#63b8ff" d="M260.81,-777.18C264.2,-889.05 282.71,-1315.71 369.5,-1411.25 372.79,-1414.87 376.55,-1418 380.61,-1420.69"/>
<polygon fill="#63b8ff" stroke="#63b8ff" points="264.32,-777.37 260.53,-767.47 257.32,-777.57 264.32,-777.37"/>
</a>
</g>
</g>
<!-- Node5 -->
<g id="Node000005" class="node">
<title>Node5</title>
<g id="a_Node000005"><a xlink:title=" ">
<polygon fill="white" stroke="#666666" points="559.5,-1402.5 369.5,-1402.5 369.5,-1372 559.5,-1372 559.5,-1402.5"/>
<text text-anchor="start" x="377.5" y="-1389" font-family="Helvetica,sans-Serif" font-size="10.00">com.fs.starfarer.api.impl.campaign.skills.</text>
<text text-anchor="middle" x="464.5" y="-1377.75" font-family="Helvetica,sans-Serif" font-size="10.00">DerelictContingent.Level2</text>
</a>
</g>
</g>
<!-- Node1&#45;&gt;Node5 -->
<g id="edge4_Node000001_Node000005" class="edge">
<title>Node1&#45;&gt;Node5</title>
<g id="a_edge4_Node000001_Node000005"><a xlink:title=" ">
<path fill="none" stroke="#63b8ff" d="M261.2,-777.21C266.01,-883.86 288.92,-1274.68 369.5,-1362.25 372.82,-1365.85 376.59,-1368.96 380.67,-1371.64"/>
<polygon fill="#63b8ff" stroke="#63b8ff" points="264.71,-777.27 260.78,-767.43 257.71,-777.57 264.71,-777.27"/>
</a>
</g>
</g>
<!-- Node6 -->
<g id="Node000006" class="node">
<title>Node6</title>
<g id="a_Node000006"><a xlink:title=" ">
<polygon fill="white" stroke="#666666" points="559.5,-1353.5 369.5,-1353.5 369.5,-1323 559.5,-1323 559.5,-1353.5"/>
<text text-anchor="start" x="377.5" y="-1340" font-family="Helvetica,sans-Serif" font-size="10.00">com.fs.starfarer.api.impl.campaign.skills.</text>
<text text-anchor="middle" x="464.5" y="-1328.75" font-family="Helvetica,sans-Serif" font-size="10.00">FieldRepairs.Level5A</text>
</a>
</g>
</g>
<!-- Node1&#45;&gt;Node6 -->
<g id="edge5_Node000001_Node000006" class="edge">
<title>Node1&#45;&gt;Node6</title>
<g id="a_edge5_Node000001_Node000006"><a xlink:title=" ">
<path fill="none" stroke="#63b8ff" d="M261.65,-776.99C267.91,-877.84 295.03,-1233.54 369.5,-1313.25 372.84,-1316.83 376.63,-1319.92 380.73,-1322.58"/>
<polygon fill="#63b8ff" stroke="#63b8ff" points="265.15,-777.02 261.06,-767.25 258.17,-777.44 265.15,-777.02"/>
</a>
</g>
</g>
<!-- Node7 -->
<g id="Node000007" class="node">
<title>Node7</title>
<g id="a_Node000007"><a xlink:title=" ">
<polygon fill="white" stroke="#666666" points="559.5,-1304.5 369.5,-1304.5 369.5,-1274 559.5,-1274 559.5,-1304.5"/>
<text text-anchor="start" x="377.5" y="-1291" font-family="Helvetica,sans-Serif" font-size="10.00">com.fs.starfarer.api.impl.campaign.skills.</text>
<text text-anchor="middle" x="464.5" y="-1279.75" font-family="Helvetica,sans-Serif" font-size="10.00">FieldRepairs.Level5B</text>
</a>
</g>
</g>
<!-- Node1&#45;&gt;Node7 -->
<g id="edge6_Node000001_Node000007" class="edge">
<title>Node1&#45;&gt;Node7</title>
<g id="a_edge6_Node000001_Node000007"><a xlink:title=" ">
<path fill="none" stroke="#63b8ff" d="M262.19,-777.11C270.06,-872.4 301.21,-1192.44 369.5,-1264.25 372.87,-1267.8 376.69,-1270.86 380.81,-1273.51"/>
<polygon fill="#63b8ff" stroke="#63b8ff" points="265.7,-777.11 261.41,-767.42 258.73,-777.67 265.7,-777.11"/>
</a>
</g>
</g>
<!-- Node8 -->
<g id="Node000008" class="node">
<title>Node8</title>
<g id="a_Node000008"><a xlink:title=" ">
<polygon fill="white" stroke="#666666" points="559.5,-1255.5 369.5,-1255.5 369.5,-1225 559.5,-1225 559.5,-1255.5"/>
<text text-anchor="start" x="377.5" y="-1242" font-family="Helvetica,sans-Serif" font-size="10.00">com.fs.starfarer.api.impl.campaign.skills.</text>
<text text-anchor="middle" x="464.5" y="-1230.75" font-family="Helvetica,sans-Serif" font-size="10.00">FleetLogistics.Level1B</text>
</a>
</g>
</g>
<!-- Node1&#45;&gt;Node8 -->
<g id="edge7_Node000001_Node000008" class="edge">
<title>Node1&#45;&gt;Node8</title>
<g id="a_edge7_Node000001_Node000008"><a xlink:title=" ">
<path fill="none" stroke="#63b8ff" d="M262.81,-776.83C272.34,-865.81 307.27,-1151.19 369.5,-1215.25 373.03,-1218.88 377.02,-1222.01 381.32,-1224.7"/>
<polygon fill="#63b8ff" stroke="#63b8ff" points="266.32,-776.71 261.8,-767.13 259.36,-777.44 266.32,-776.71"/>
</a>
</g>
</g>
<!-- Node9 -->
<g id="Node000009" class="node">
<title>Node9</title>
<g id="a_Node000009"><a xlink:title=" ">
<polygon fill="white" stroke="#666666" points="559.5,-1206.5 369.5,-1206.5 369.5,-1176 559.5,-1176 559.5,-1206.5"/>
<text text-anchor="start" x="377.5" y="-1193" font-family="Helvetica,sans-Serif" font-size="10.00">com.fs.starfarer.api.impl.campaign.skills.</text>
<text text-anchor="middle" x="464.5" y="-1181.75" font-family="Helvetica,sans-Serif" font-size="10.00">HullRestoration.Level1</text>
</a>
</g>
</g>
<!-- Node1&#45;&gt;Node9 -->
<g id="edge8_Node000001_Node000009" class="edge">
<title>Node1&#45;&gt;Node9</title>
<g id="a_edge8_Node000001_Node000009"><a xlink:title=" ">
<path fill="none" stroke="#63b8ff" d="M263.62,-776.98C274.99,-859.8 313.39,-1109.99 369.5,-1166.25 373.08,-1169.84 377.11,-1172.93 381.43,-1175.59"/>
<polygon fill="#63b8ff" stroke="#63b8ff" points="267.12,-776.75 262.32,-767.3 260.19,-777.68 267.12,-776.75"/>
</a>
</g>
</g>
<!-- Node10 -->
<g id="Node000010" class="node">
<title>Node10</title>
<g id="a_Node000010"><a xlink:title=" ">
<polygon fill="white" stroke="#666666" points="559.5,-1157.5 369.5,-1157.5 369.5,-1127 559.5,-1127 559.5,-1157.5"/>
<text text-anchor="start" x="377.5" y="-1144" font-family="Helvetica,sans-Serif" font-size="10.00">com.fs.starfarer.api.impl.campaign.skills.</text>
<text text-anchor="middle" x="464.5" y="-1132.75" font-family="Helvetica,sans-Serif" font-size="10.00">HullRestoration.Level4A</text>
</a>
</g>
</g>
<!-- Node1&#45;&gt;Node10 -->
<g id="edge9_Node000001_Node000010" class="edge">
<title>Node1&#45;&gt;Node10</title>
<g id="a_edge9_Node000001_Node000010"><a xlink:title=" ">
<path fill="none" stroke="#63b8ff" d="M259.78,-777.08C260.43,-844.51 271.82,-1022.43 369.5,-1117.25 373.26,-1120.9 377.48,-1124.03 382.01,-1126.71"/>
<polygon fill="#63b8ff" stroke="#63b8ff" points="263.28,-777.33 259.76,-767.33 256.28,-777.34 263.28,-777.33"/>
</a>
</g>
</g>
<!-- Node11 -->
<g id="Node000011" class="node">
<title>Node11</title>
<g id="a_Node000011"><a xlink:title=" ">
<polygon fill="white" stroke="#666666" points="559.5,-1108.5 369.5,-1108.5 369.5,-1078 559.5,-1078 559.5,-1108.5"/>
<text text-anchor="start" x="377.5" y="-1095" font-family="Helvetica,sans-Serif" font-size="10.00">com.fs.starfarer.api.impl.campaign.skills.</text>
<text text-anchor="middle" x="464.5" y="-1083.75" font-family="Helvetica,sans-Serif" font-size="10.00">HullRestoration.Level4B</text>
</a>
</g>
</g>
<!-- Node1&#45;&gt;Node11 -->
<g id="edge10_Node000001_Node000011" class="edge">
<title>Node1&#45;&gt;Node11</title>
<g id="a_edge10_Node000001_Node000011"><a xlink:title=" ">
<path fill="none" stroke="#63b8ff" d="M261.23,-777.2C265.23,-838.34 283.75,-988.41 369.5,-1068.25 373.33,-1071.82 377.61,-1074.89 382.18,-1077.53"/>
<polygon fill="#63b8ff" stroke="#63b8ff" points="264.73,-777.18 260.68,-767.39 257.74,-777.58 264.73,-777.18"/>
</a>
</g>
</g>
<!-- Node12 -->
<g id="Node000012" class="node">
<title>Node12</title>
<g id="a_Node000012"><a xlink:title=" ">
<polygon fill="white" stroke="#666666" points="559.5,-1059.5 369.5,-1059.5 369.5,-1029 559.5,-1029 559.5,-1059.5"/>
<text text-anchor="start" x="377.5" y="-1046" font-family="Helvetica,sans-Serif" font-size="10.00">com.fs.starfarer.api.impl.campaign.skills.</text>
<text text-anchor="middle" x="464.5" y="-1034.75" font-family="Helvetica,sans-Serif" font-size="10.00">MakeshiftEquipment.Level1</text>
</a>
</g>
</g>
<!-- Node1&#45;&gt;Node12 -->
<g id="edge11_Node000001_Node000012" class="edge">
<title>Node1&#45;&gt;Node12</title>
<g id="a_edge11_Node000001_Node000012"><a xlink:title=" ">
<path fill="none" stroke="#63b8ff" d="M263.14,-777.09C270.7,-831.26 295.46,-954.01 369.5,-1019.25 373.55,-1022.82 378.06,-1025.89 382.85,-1028.53"/>
<polygon fill="#63b8ff" stroke="#63b8ff" points="266.62,-776.71 261.87,-767.25 259.68,-777.61 266.62,-776.71"/>
</a>
</g>
</g>
<!-- Node13 -->
<g id="Node000013" class="node">
<title>Node13</title>
<g id="a_Node000013"><a xlink:title=" ">
<polygon fill="white" stroke="#666666" points="559.5,-1010.5 369.5,-1010.5 369.5,-980 559.5,-980 559.5,-1010.5"/>
<text text-anchor="start" x="377.5" y="-997" font-family="Helvetica,sans-Serif" font-size="10.00">com.fs.starfarer.api.impl.campaign.skills.</text>
<text text-anchor="middle" x="464.5" y="-985.75" font-family="Helvetica,sans-Serif" font-size="10.00">MakeshiftEquipment.Level2</text>
</a>
</g>
</g>
<!-- Node1&#45;&gt;Node13 -->
<g id="edge12_Node000001_Node000013" class="edge">
<title>Node1&#45;&gt;Node13</title>
<g id="a_edge12_Node000001_Node000013"><a xlink:title=" ">
<path fill="none" stroke="#63b8ff" d="M265.76,-776.72C277.04,-823.14 306.89,-919.13 369.5,-970.25 373.95,-973.88 378.87,-976.99 384.07,-979.65"/>
<polygon fill="#63b8ff" stroke="#63b8ff" points="269.23,-776.22 263.56,-767.26 262.41,-777.8 269.23,-776.22"/>
</a>
</g>
</g>
<!-- Node14 -->
<g id="Node000014" class="node">
<title>Node14</title>
<g id="a_Node000014"><a xlink:title=" ">
<polygon fill="white" stroke="#666666" points="559.5,-961.5 369.5,-961.5 369.5,-931 559.5,-931 559.5,-961.5"/>
<text text-anchor="start" x="377.5" y="-948" font-family="Helvetica,sans-Serif" font-size="10.00">com.fs.starfarer.api.impl.campaign.skills.</text>
<text text-anchor="middle" x="464.5" y="-936.75" font-family="Helvetica,sans-Serif" font-size="10.00">Navigation.Level1B</text>
</a>
</g>
</g>
<!-- Node1&#45;&gt;Node14 -->
<g id="edge13_Node000001_Node000014" class="edge">
<title>Node1&#45;&gt;Node14</title>
<g id="a_edge13_Node000001_Node000014"><a xlink:title=" ">
<path fill="none" stroke="#63b8ff" d="M269.69,-776.41C284.89,-814.23 318.18,-883.76 369.5,-921.25 374.41,-924.84 379.8,-927.91 385.43,-930.54"/>
<polygon fill="#63b8ff" stroke="#63b8ff" points="272.98,-775.22 266.1,-767.17 266.46,-777.76 272.98,-775.22"/>
</a>
</g>
</g>
<!-- Node15 -->
<g id="Node000015" class="node">
<title>Node15</title>
<g id="a_Node000015"><a xlink:title=" ">
<polygon fill="white" stroke="#666666" points="559.5,-912.5 369.5,-912.5 369.5,-882 559.5,-882 559.5,-912.5"/>
<text text-anchor="start" x="377.5" y="-899" font-family="Helvetica,sans-Serif" font-size="10.00">com.fs.starfarer.api.impl.campaign.skills.</text>
<text text-anchor="middle" x="464.5" y="-887.75" font-family="Helvetica,sans-Serif" font-size="10.00">Navigation.Level3A</text>
</a>
</g>
</g>
<!-- Node1&#45;&gt;Node15 -->
<g id="edge14_Node000001_Node000015" class="edge">
<title>Node1&#45;&gt;Node15</title>
<g id="a_edge14_Node000001_Node000015"><a xlink:title=" ">
<path fill="none" stroke="#63b8ff" d="M275.76,-775.01C294.62,-802.84 328.89,-847.36 369.5,-872.25 375.4,-875.87 381.83,-878.97 388.45,-881.62"/>
<polygon fill="#63b8ff" stroke="#63b8ff" points="278.79,-773.26 270.36,-766.85 272.96,-777.12 278.79,-773.26"/>
</a>
</g>
</g>
<!-- Node16 -->
<g id="Node000016" class="node">
<title>Node16</title>
<g id="a_Node000016"><a xlink:title=" ">
<polygon fill="white" stroke="#666666" points="559.5,-863.5 369.5,-863.5 369.5,-833 559.5,-833 559.5,-863.5"/>
<text text-anchor="start" x="377.5" y="-850" font-family="Helvetica,sans-Serif" font-size="10.00">com.fs.starfarer.api.impl.campaign.skills.</text>
<text text-anchor="middle" x="464.5" y="-838.75" font-family="Helvetica,sans-Serif" font-size="10.00">Navigation.Level3B</text>
</a>
</g>
</g>
<!-- Node1&#45;&gt;Node16 -->
<g id="edge15_Node000001_Node000016" class="edge">
<title>Node1&#45;&gt;Node16</title>
<g id="a_edge15_Node000001_Node000016"><a xlink:title=" ">
<path fill="none" stroke="#63b8ff" d="M288.2,-772.77C309.44,-788.84 339.91,-809.89 369.5,-823.25 377.27,-826.76 385.64,-829.86 394.05,-832.57"/>
<polygon fill="#63b8ff" stroke="#63b8ff" points="290.39,-770.04 280.33,-766.71 286.12,-775.58 290.39,-770.04"/>
</a>
</g>
</g>
<!-- Node17 -->
<g id="Node000017" class="node">
<title>Node17</title>
<g id="a_Node000017"><a xlink:title=" ">
<polygon fill="white" stroke="#666666" points="559.5,-814.5 369.5,-814.5 369.5,-784 559.5,-784 559.5,-814.5"/>
<text text-anchor="start" x="377.5" y="-801" font-family="Helvetica,sans-Serif" font-size="10.00">com.fs.starfarer.api.impl.campaign.skills.</text>
<text text-anchor="middle" x="464.5" y="-789.75" font-family="Helvetica,sans-Serif" font-size="10.00">PlanetaryOperations.Level3</text>
</a>
</g>
</g>
<!-- Node1&#45;&gt;Node17 -->
<g id="edge16_Node000001_Node000017" class="edge">
<title>Node1&#45;&gt;Node17</title>
<g id="a_edge16_Node000001_Node000017"><a xlink:title=" ">
<path fill="none" stroke="#63b8ff" d="M336.45,-768.64C356.82,-773.55 378.63,-778.8 398.33,-783.55"/>
<polygon fill="#63b8ff" stroke="#63b8ff" points="337.33,-765.25 326.78,-766.31 335.69,-772.06 337.33,-765.25"/>
</a>
</g>
</g>
<!-- Node18 -->
<g id="Node000018" class="node">
<title>Node18</title>
<g id="a_Node000018"><a xlink:title=" ">
<polygon fill="white" stroke="#666666" points="559.5,-765.5 369.5,-765.5 369.5,-735 559.5,-735 559.5,-765.5"/>
<text text-anchor="start" x="377.5" y="-752" font-family="Helvetica,sans-Serif" font-size="10.00">com.fs.starfarer.api.impl.campaign.skills.</text>
<text text-anchor="middle" x="464.5" y="-740.75" font-family="Helvetica,sans-Serif" font-size="10.00">PlanetaryOperations.Level4</text>
</a>
</g>
</g>
<!-- Node1&#45;&gt;Node18 -->
<g id="edge17_Node000001_Node000018" class="edge">
<title>Node1&#45;&gt;Node18</title>
<g id="a_edge17_Node000001_Node000018"><a xlink:title=" ">
<path fill="none" stroke="#63b8ff" d="M345.28,-750.25C353.18,-750.25 361.21,-750.25 369.18,-750.25"/>
<polygon fill="#63b8ff" stroke="#63b8ff" points="345.35,-746.75 335.35,-750.25 345.35,-753.75 345.35,-746.75"/>
</a>
</g>
</g>
<!-- Node19 -->
<g id="Node000019" class="node">
<title>Node19</title>
<g id="a_Node000019"><a xlink:title=" ">
<polygon fill="white" stroke="#666666" points="559.5,-716.5 369.5,-716.5 369.5,-686 559.5,-686 559.5,-716.5"/>
<text text-anchor="start" x="377.5" y="-703" font-family="Helvetica,sans-Serif" font-size="10.00">com.fs.starfarer.api.impl.campaign.skills.</text>
<text text-anchor="middle" x="464.5" y="-691.75" font-family="Helvetica,sans-Serif" font-size="10.00">RecoveryOperations.Level1</text>
</a>
</g>
</g>
<!-- Node1&#45;&gt;Node19 -->
<g id="edge18_Node000001_Node000019" class="edge">
<title>Node1&#45;&gt;Node19</title>
<g id="a_edge18_Node000001_Node000019"><a xlink:title=" ">
<path fill="none" stroke="#63b8ff" d="M336.45,-731.86C356.82,-726.95 378.63,-721.7 398.33,-716.95"/>
<polygon fill="#63b8ff" stroke="#63b8ff" points="335.69,-728.44 326.78,-734.19 337.33,-735.25 335.69,-728.44"/>
</a>
</g>
</g>
<!-- Node20 -->
<g id="Node000020" class="node">
<title>Node20</title>
<g id="a_Node000020"><a xlink:title=" ">
<polygon fill="white" stroke="#666666" points="559.5,-667.5 369.5,-667.5 369.5,-637 559.5,-637 559.5,-667.5"/>
<text text-anchor="start" x="377.5" y="-654" font-family="Helvetica,sans-Serif" font-size="10.00">com.fs.starfarer.api.impl.campaign.skills.</text>
<text text-anchor="middle" x="464.5" y="-642.75" font-family="Helvetica,sans-Serif" font-size="10.00">RecoveryOperations.Level1B</text>
</a>
</g>
</g>
<!-- Node1&#45;&gt;Node20 -->
<g id="edge19_Node000001_Node000020" class="edge">
<title>Node1&#45;&gt;Node20</title>
<g id="a_edge19_Node000001_Node000020"><a xlink:title=" ">
<path fill="none" stroke="#63b8ff" d="M288.2,-727.73C309.44,-711.66 339.91,-690.61 369.5,-677.25 377.27,-673.74 385.64,-670.64 394.05,-667.93"/>
<polygon fill="#63b8ff" stroke="#63b8ff" points="286.12,-724.92 280.33,-733.79 290.39,-730.46 286.12,-724.92"/>
</a>
</g>
</g>
<!-- Node21 -->
<g id="Node000021" class="node">
<title>Node21</title>
<g id="a_Node000021"><a xlink:title=" ">
<polygon fill="white" stroke="#666666" points="559.5,-618.5 369.5,-618.5 369.5,-588 559.5,-588 559.5,-618.5"/>
<text text-anchor="start" x="377.5" y="-605" font-family="Helvetica,sans-Serif" font-size="10.00">com.fs.starfarer.api.impl.campaign.skills.</text>
<text text-anchor="middle" x="464.5" y="-593.75" font-family="Helvetica,sans-Serif" font-size="10.00">RecoveryOperations.Level2</text>
</a>
</g>
</g>
<!-- Node1&#45;&gt;Node21 -->
<g id="edge20_Node000001_Node000021" class="edge">
<title>Node1&#45;&gt;Node21</title>
<g id="a_edge20_Node000001_Node000021"><a xlink:title=" ">
<path fill="none" stroke="#63b8ff" d="M275.76,-725.49C294.62,-697.66 328.89,-653.14 369.5,-628.25 375.4,-624.63 381.83,-621.53 388.45,-618.88"/>
<polygon fill="#63b8ff" stroke="#63b8ff" points="272.96,-723.38 270.36,-733.65 278.79,-727.24 272.96,-723.38"/>
</a>
</g>
</g>
<!-- Node22 -->
<g id="Node000022" class="node">
<title>Node22</title>
<g id="a_Node000022"><a xlink:title=" ">
<polygon fill="white" stroke="#666666" points="559.5,-569.5 369.5,-569.5 369.5,-539 559.5,-539 559.5,-569.5"/>
<text text-anchor="start" x="377.5" y="-556" font-family="Helvetica,sans-Serif" font-size="10.00">com.fs.starfarer.api.impl.campaign.skills.</text>
<text text-anchor="middle" x="464.5" y="-544.75" font-family="Helvetica,sans-Serif" font-size="10.00">RecoveryOperations.Level2B</text>
</a>
</g>
</g>
<!-- Node1&#45;&gt;Node22 -->
<g id="edge21_Node000001_Node000022" class="edge">
<title>Node1&#45;&gt;Node22</title>
<g id="a_edge21_Node000001_Node000022"><a xlink:title=" ">
<path fill="none" stroke="#63b8ff" d="M269.69,-724.09C284.89,-686.27 318.18,-616.74 369.5,-579.25 374.41,-575.66 379.8,-572.59 385.43,-569.96"/>
<polygon fill="#63b8ff" stroke="#63b8ff" points="266.46,-722.74 266.1,-733.33 272.98,-725.28 266.46,-722.74"/>
</a>
</g>
</g>
<!-- Node23 -->
<g id="Node000023" class="node">
<title>Node23</title>
<g id="a_Node000023"><a xlink:title=" ">
<polygon fill="white" stroke="#666666" points="559.5,-520.5 369.5,-520.5 369.5,-490 559.5,-490 559.5,-520.5"/>
<text text-anchor="start" x="377.5" y="-507" font-family="Helvetica,sans-Serif" font-size="10.00">com.fs.starfarer.api.impl.campaign.skills.</text>
<text text-anchor="middle" x="464.5" y="-495.75" font-family="Helvetica,sans-Serif" font-size="10.00">RecoveryOperations.Level3</text>
</a>
</g>
</g>
<!-- Node1&#45;&gt;Node23 -->
<g id="edge22_Node000001_Node000023" class="edge">
<title>Node1&#45;&gt;Node23</title>
<g id="a_edge22_Node000001_Node000023"><a xlink:title=" ">
<path fill="none" stroke="#63b8ff" d="M265.76,-723.78C277.04,-677.36 306.89,-581.37 369.5,-530.25 373.95,-526.62 378.87,-523.51 384.07,-520.85"/>
<polygon fill="#63b8ff" stroke="#63b8ff" points="262.41,-722.7 263.56,-733.24 269.23,-724.28 262.41,-722.7"/>
</a>
</g>
</g>
<!-- Node24 -->
<g id="Node000024" class="node">
<title>Node24</title>
<g id="a_Node000024"><a xlink:title=" ">
<polygon fill="white" stroke="#666666" points="559.5,-471.5 369.5,-471.5 369.5,-441 559.5,-441 559.5,-471.5"/>
<text text-anchor="start" x="377.5" y="-458" font-family="Helvetica,sans-Serif" font-size="10.00">com.fs.starfarer.api.impl.campaign.skills.</text>
<text text-anchor="middle" x="464.5" y="-446.75" font-family="Helvetica,sans-Serif" font-size="10.00">RecoveryOperations.Level3B</text>
</a>
</g>
</g>
<!-- Node1&#45;&gt;Node24 -->
<g id="edge23_Node000001_Node000024" class="edge">
<title>Node1&#45;&gt;Node24</title>
<g id="a_edge23_Node000001_Node000024"><a xlink:title=" ">
<path fill="none" stroke="#63b8ff" d="M263.14,-723.41C270.7,-669.24 295.46,-546.49 369.5,-481.25 373.55,-477.68 378.06,-474.61 382.85,-471.97"/>
<polygon fill="#63b8ff" stroke="#63b8ff" points="259.68,-722.89 261.87,-733.25 266.62,-723.79 259.68,-722.89"/>
</a>
</g>
</g>
<!-- Node25 -->
<g id="Node000025" class="node">
<title>Node25</title>
<g id="a_Node000025"><a xlink:title=" ">
<polygon fill="white" stroke="#666666" points="559.5,-422.5 369.5,-422.5 369.5,-392 559.5,-392 559.5,-422.5"/>
<text text-anchor="start" x="377.5" y="-409" font-family="Helvetica,sans-Serif" font-size="10.00">com.fs.starfarer.api.impl.campaign.skills.</text>
<text text-anchor="middle" x="464.5" y="-397.75" font-family="Helvetica,sans-Serif" font-size="10.00">Salvaging.Level1</text>
</a>
</g>
</g>
<!-- Node1&#45;&gt;Node25 -->
<g id="edge24_Node000001_Node000025" class="edge">
<title>Node1&#45;&gt;Node25</title>
<g id="a_edge24_Node000001_Node000025"><a xlink:title=" ">
<path fill="none" stroke="#63b8ff" d="M261.23,-723.3C265.23,-662.16 283.75,-512.09 369.5,-432.25 373.33,-428.68 377.61,-425.61 382.18,-422.97"/>
<polygon fill="#63b8ff" stroke="#63b8ff" points="257.74,-722.92 260.68,-733.11 264.73,-723.32 257.74,-722.92"/>
</a>
</g>
</g>
<!-- Node26 -->
<g id="Node000026" class="node">
<title>Node26</title>
<g id="a_Node000026"><a xlink:title=" ">
<polygon fill="white" stroke="#666666" points="559.5,-373.5 369.5,-373.5 369.5,-343 559.5,-343 559.5,-373.5"/>
<text text-anchor="start" x="377.5" y="-360" font-family="Helvetica,sans-Serif" font-size="10.00">com.fs.starfarer.api.impl.campaign.skills.</text>
<text text-anchor="middle" x="464.5" y="-348.75" font-family="Helvetica,sans-Serif" font-size="10.00">Salvaging.Level2</text>
</a>
</g>
</g>
<!-- Node1&#45;&gt;Node26 -->
<g id="edge25_Node000001_Node000026" class="edge">
<title>Node1&#45;&gt;Node26</title>
<g id="a_edge25_Node000001_Node000026"><a xlink:title=" ">
<path fill="none" stroke="#63b8ff" d="M259.78,-723.42C260.43,-655.99 271.82,-478.07 369.5,-383.25 373.26,-379.6 377.48,-376.47 382.01,-373.79"/>
<polygon fill="#63b8ff" stroke="#63b8ff" points="256.28,-723.16 259.76,-733.17 263.28,-723.17 256.28,-723.16"/>
</a>
</g>
</g>
<!-- Node27 -->
<g id="Node000027" class="node">
<title>Node27</title>
<g id="a_Node000027"><a xlink:title=" ">
<polygon fill="white" stroke="#666666" points="559.5,-324.5 369.5,-324.5 369.5,-294 559.5,-294 559.5,-324.5"/>
<text text-anchor="start" x="377.5" y="-311" font-family="Helvetica,sans-Serif" font-size="10.00">com.fs.starfarer.api.impl.campaign.skills.</text>
<text text-anchor="middle" x="464.5" y="-299.75" font-family="Helvetica,sans-Serif" font-size="10.00">Salvaging.Level3</text>
</a>
</g>
</g>
<!-- Node1&#45;&gt;Node27 -->
<g id="edge26_Node000001_Node000027" class="edge">
<title>Node1&#45;&gt;Node27</title>
<g id="a_edge26_Node000001_Node000027"><a xlink:title=" ">
<path fill="none" stroke="#63b8ff" d="M263.62,-723.52C274.99,-640.7 313.39,-390.51 369.5,-334.25 373.08,-330.66 377.11,-327.57 381.43,-324.91"/>
<polygon fill="#63b8ff" stroke="#63b8ff" points="260.19,-722.82 262.32,-733.2 267.12,-723.75 260.19,-722.82"/>
</a>
</g>
</g>
<!-- Node28 -->
<g id="Node000028" class="node">
<title>Node28</title>
<g id="a_Node000028"><a xlink:title=" ">
<polygon fill="white" stroke="#666666" points="559.5,-275.5 369.5,-275.5 369.5,-245 559.5,-245 559.5,-275.5"/>
<text text-anchor="start" x="377.5" y="-262" font-family="Helvetica,sans-Serif" font-size="10.00">com.fs.starfarer.api.impl.campaign.skills.</text>
<text text-anchor="middle" x="464.5" y="-250.75" font-family="Helvetica,sans-Serif" font-size="10.00">Salvaging.Level5</text>
</a>
</g>
</g>
<!-- Node1&#45;&gt;Node28 -->
<g id="edge27_Node000001_Node000028" class="edge">
<title>Node1&#45;&gt;Node28</title>
<g id="a_edge27_Node000001_Node000028"><a xlink:title=" ">
<path fill="none" stroke="#63b8ff" d="M262.81,-723.67C272.34,-634.69 307.27,-349.31 369.5,-285.25 373.03,-281.62 377.02,-278.49 381.32,-275.8"/>
<polygon fill="#63b8ff" stroke="#63b8ff" points="259.36,-723.06 261.8,-733.37 266.32,-723.79 259.36,-723.06"/>
</a>
</g>
</g>
<!-- Node29 -->
<g id="Node000029" class="node">
<title>Node29</title>
<g id="a_Node000029"><a xlink:title=" ">
<polygon fill="white" stroke="#666666" points="559.5,-226.5 369.5,-226.5 369.5,-196 559.5,-196 559.5,-226.5"/>
<text text-anchor="start" x="377.5" y="-213" font-family="Helvetica,sans-Serif" font-size="10.00">com.fs.starfarer.api.impl.campaign.skills.</text>
<text text-anchor="middle" x="464.5" y="-201.75" font-family="Helvetica,sans-Serif" font-size="10.00">Sensors.Level1</text>
</a>
</g>
</g>
<!-- Node1&#45;&gt;Node29 -->
<g id="edge28_Node000001_Node000029" class="edge">
<title>Node1&#45;&gt;Node29</title>
<g id="a_edge28_Node000001_Node000029"><a xlink:title=" ">
<path fill="none" stroke="#63b8ff" d="M262.19,-723.39C270.06,-628.1 301.21,-308.06 369.5,-236.25 372.87,-232.7 376.69,-229.64 380.81,-226.99"/>
<polygon fill="#63b8ff" stroke="#63b8ff" points="258.73,-722.83 261.41,-733.08 265.7,-723.39 258.73,-722.83"/>
</a>
</g>
</g>
<!-- Node30 -->
<g id="Node000030" class="node">
<title>Node30</title>
<g id="a_Node000030"><a xlink:title=" ">
<polygon fill="white" stroke="#666666" points="559.5,-177.5 369.5,-177.5 369.5,-147 559.5,-147 559.5,-177.5"/>
<text text-anchor="start" x="377.5" y="-164" font-family="Helvetica,sans-Serif" font-size="10.00">com.fs.starfarer.api.impl.campaign.skills.</text>
<text text-anchor="middle" x="464.5" y="-152.75" font-family="Helvetica,sans-Serif" font-size="10.00">Sensors.Level2</text>
</a>
</g>
</g>
<!-- Node1&#45;&gt;Node30 -->
<g id="edge29_Node000001_Node000030" class="edge">
<title>Node1&#45;&gt;Node30</title>
<g id="a_edge29_Node000001_Node000030"><a xlink:title=" ">
<path fill="none" stroke="#63b8ff" d="M261.65,-723.51C267.91,-622.66 295.03,-266.96 369.5,-187.25 372.84,-183.67 376.63,-180.58 380.73,-177.92"/>
<polygon fill="#63b8ff" stroke="#63b8ff" points="258.17,-723.06 261.06,-733.25 265.15,-723.48 258.17,-723.06"/>
</a>
</g>
</g>
<!-- Node31 -->
<g id="Node000031" class="node">
<title>Node31</title>
<g id="a_Node000031"><a xlink:title=" ">
<polygon fill="white" stroke="#666666" points="559.5,-128.5 369.5,-128.5 369.5,-98 559.5,-98 559.5,-128.5"/>
<text text-anchor="start" x="377.5" y="-115" font-family="Helvetica,sans-Serif" font-size="10.00">com.fs.starfarer.api.impl.campaign.skills.</text>
<text text-anchor="middle" x="464.5" y="-103.75" font-family="Helvetica,sans-Serif" font-size="10.00">Sensors.Level3</text>
</a>
</g>
</g>
<!-- Node1&#45;&gt;Node31 -->
<g id="edge30_Node000001_Node000031" class="edge">
<title>Node1&#45;&gt;Node31</title>
<g id="a_edge30_Node000001_Node000031"><a xlink:title=" ">
<path fill="none" stroke="#63b8ff" d="M261.2,-723.29C266.01,-616.64 288.92,-225.82 369.5,-138.25 372.82,-134.65 376.59,-131.54 380.67,-128.86"/>
<polygon fill="#63b8ff" stroke="#63b8ff" points="257.71,-722.93 260.78,-733.07 264.71,-723.23 257.71,-722.93"/>
</a>
</g>
</g>
<!-- Node32 -->
<g id="Node000032" class="node">
<title>Node32</title>
<g id="a_Node000032"><a xlink:title=" ">
<polygon fill="white" stroke="#666666" points="559.5,-79.5 369.5,-79.5 369.5,-49 559.5,-49 559.5,-79.5"/>
<text text-anchor="start" x="377.5" y="-66" font-family="Helvetica,sans-Serif" font-size="10.00">com.fs.starfarer.api.impl.campaign.skills.</text>
<text text-anchor="middle" x="464.5" y="-54.75" font-family="Helvetica,sans-Serif" font-size="10.00">TacticalDrills.Level2</text>
</a>
</g>
</g>
<!-- Node1&#45;&gt;Node32 -->
<g id="edge31_Node000001_Node000032" class="edge">
<title>Node1&#45;&gt;Node32</title>
<g id="a_edge31_Node000001_Node000032"><a xlink:title=" ">
<path fill="none" stroke="#63b8ff" d="M260.81,-723.32C264.2,-611.45 282.71,-184.79 369.5,-89.25 372.79,-85.63 376.55,-82.5 380.61,-79.81"/>
<polygon fill="#63b8ff" stroke="#63b8ff" points="257.32,-722.93 260.53,-733.03 264.32,-723.13 257.32,-722.93"/>
</a>
</g>
</g>
<!-- Node33 -->
<g id="Node000033" class="node">
<title>Node33</title>
<g id="a_Node000033"><a xlink:title=" ">
<polygon fill="white" stroke="#666666" points="559.5,-30.5 369.5,-30.5 369.5,0 559.5,0 559.5,-30.5"/>
<text text-anchor="start" x="377.5" y="-17" font-family="Helvetica,sans-Serif" font-size="10.00">com.fs.starfarer.api.impl.campaign.skills.</text>
<text text-anchor="middle" x="464.5" y="-5.75" font-family="Helvetica,sans-Serif" font-size="10.00">TacticalDrills.Level3</text>
</a>
</g>
</g>
<!-- Node1&#45;&gt;Node33 -->
<g id="edge32_Node000001_Node000033" class="edge">
<title>Node1&#45;&gt;Node33</title>
<g id="a_edge32_Node000001_Node000033"><a xlink:title=" ">
<path fill="none" stroke="#63b8ff" d="M260.47,-723.24C262.53,-606.17 276.52,-143.76 369.5,-40.25 372.77,-36.61 376.51,-33.47 380.56,-30.77"/>
<polygon fill="#63b8ff" stroke="#63b8ff" points="256.98,-723.06 260.32,-733.12 263.97,-723.18 256.98,-723.06"/>
</a>
</g>
</g>
<!-- Node2 -->
<g id="Node000002" class="node">
<title>Node2</title>
<g id="a_Node000002"><a xlink:href="interfacecom_1_1fs_1_1starfarer_1_1api_1_1characters_1_1LevelBasedEffect.html" target="_top" xlink:title=" ">
<polygon fill="white" stroke="#666666" points="148.75,-765.5 0,-765.5 0,-735 148.75,-735 148.75,-765.5"/>
<text text-anchor="start" x="8" y="-752" font-family="Helvetica,sans-Serif" font-size="10.00">com.fs.starfarer.api.characters.</text>
<text text-anchor="middle" x="74.38" y="-740.75" font-family="Helvetica,sans-Serif" font-size="10.00">LevelBasedEffect</text>
</a>
</g>
</g>
<!-- Node2&#45;&gt;Node1 -->
<g id="edge1_Node000001_Node000002" class="edge">
<title>Node2&#45;&gt;Node1</title>
<g id="a_edge1_Node000001_Node000002"><a xlink:title=" ">
<path fill="none" stroke="#63b8ff" d="M160.69,-750.25C168.59,-750.25 176.56,-750.25 184.34,-750.25"/>
<polygon fill="#63b8ff" stroke="#63b8ff" points="160.69,-746.75 150.69,-750.25 160.69,-753.75 160.69,-746.75"/>
</a>
</g>
</g>
</g>
</svg>
