<?xml version="1.0" encoding="UTF-8" standalone="no"?>
<!DOCTYPE svg PUBLIC "-//W3C//DTD SVG 1.1//EN"
 "http://www.w3.org/Graphics/SVG/1.1/DTD/svg11.dtd">
<!-- Generated by graphviz version 2.44.0 ()
 -->
<!-- Title: com.fs.starfarer.api.campaign.listeners.EconomyTickListener Pages: 1 -->
<svg width="712pt" height="382pt"
 viewBox="0.00 0.00 712.00 382.00" xmlns="http://www.w3.org/2000/svg" xmlns:xlink="http://www.w3.org/1999/xlink">
<g id="graph0" class="graph" transform="scale(1 1) rotate(0) translate(4 378)">
<title>com.fs.starfarer.api.campaign.listeners.EconomyTickListener</title>
<!-- Node1 -->
<g id="node1" class="node">
<title>Node1</title>
<g id="a_node1"><a xlink:title=" ">
<polygon fill="#bfbfbf" stroke="black" points="0,-171.5 0,-201.5 185,-201.5 185,-171.5 0,-171.5"/>
<text text-anchor="start" x="8" y="-189.5" font-family="Helvetica,sans-Serif" font-size="10.00">com.fs.starfarer.api.campaign.listeners.</text>
<text text-anchor="middle" x="92.5" y="-178.5" font-family="Helvetica,sans-Serif" font-size="10.00">EconomyTickListener</text>
</a>
</g>
</g>
<!-- Node2 -->
<g id="node2" class="node">
<title>Node2</title>
<g id="a_node2"><a xlink:href="classcom_1_1fs_1_1starfarer_1_1api_1_1impl_1_1campaign_1_1intel_1_1FactionCommissionIntel.html" target="_top" xlink:title=" ">
<polygon fill="none" stroke="black" points="237.5,-343.5 237.5,-373.5 423.5,-373.5 423.5,-343.5 237.5,-343.5"/>
<text text-anchor="start" x="245.5" y="-361.5" font-family="Helvetica,sans-Serif" font-size="10.00">com.fs.starfarer.api.impl.campaign.intel.</text>
<text text-anchor="middle" x="330.5" y="-350.5" font-family="Helvetica,sans-Serif" font-size="10.00">FactionCommissionIntel</text>
</a>
</g>
</g>
<!-- Node1&#45;&gt;Node2 -->
<g id="edge1" class="edge">
<title>Node1&#45;&gt;Node2</title>
<path fill="none" stroke="midnightblue" d="M107.28,-210.59C127.67,-243.91 169.11,-303.49 221,-334.5 226.8,-337.96 233.04,-340.93 239.49,-343.47"/>
<polygon fill="midnightblue" stroke="midnightblue" points="110.24,-208.71 102.1,-201.93 104.23,-212.3 110.24,-208.71"/>
</g>
<!-- Node3 -->
<g id="node3" class="node">
<title>Node3</title>
<g id="a_node3"><a xlink:href="classcom_1_1fs_1_1starfarer_1_1api_1_1impl_1_1campaign_1_1intel_1_1events_1_1BaseEventIntel.html" target="_top" xlink:title=" ">
<polygon fill="none" stroke="black" points="221.5,-294.5 221.5,-324.5 439.5,-324.5 439.5,-294.5 221.5,-294.5"/>
<text text-anchor="start" x="229.5" y="-312.5" font-family="Helvetica,sans-Serif" font-size="10.00">com.fs.starfarer.api.impl.campaign.intel.events.</text>
<text text-anchor="middle" x="330.5" y="-301.5" font-family="Helvetica,sans-Serif" font-size="10.00">BaseEventIntel</text>
</a>
</g>
</g>
<!-- Node1&#45;&gt;Node3 -->
<g id="edge2" class="edge">
<title>Node1&#45;&gt;Node3</title>
<path fill="none" stroke="midnightblue" d="M115.95,-209.06C139.9,-231.81 179.98,-266.24 221,-285.5 228.33,-288.94 236.18,-291.9 244.18,-294.45"/>
<polygon fill="midnightblue" stroke="midnightblue" points="118.09,-206.26 108.47,-201.83 113.23,-211.29 118.09,-206.26"/>
</g>
<!-- Node6 -->
<g id="node6" class="node">
<title>Node6</title>
<g id="a_node6"><a xlink:href="classcom_1_1fs_1_1starfarer_1_1api_1_1impl_1_1campaign_1_1missions_1_1CommodityProductionMission.html" target="_top" xlink:title=" ">
<polygon fill="none" stroke="black" points="227,-245.5 227,-275.5 434,-275.5 434,-245.5 227,-245.5"/>
<text text-anchor="start" x="235" y="-263.5" font-family="Helvetica,sans-Serif" font-size="10.00">com.fs.starfarer.api.impl.campaign.missions.</text>
<text text-anchor="middle" x="330.5" y="-252.5" font-family="Helvetica,sans-Serif" font-size="10.00">CommodityProductionMission</text>
</a>
</g>
</g>
<!-- Node1&#45;&gt;Node6 -->
<g id="edge5" class="edge">
<title>Node1&#45;&gt;Node6</title>
<path fill="none" stroke="midnightblue" d="M136.95,-205.49C161.33,-215.65 192.49,-227.81 221,-236.5 231.7,-239.76 243.13,-242.78 254.39,-245.49"/>
<polygon fill="midnightblue" stroke="midnightblue" points="138.19,-202.21 127.62,-201.56 135.48,-208.67 138.19,-202.21"/>
</g>
<!-- Node7 -->
<g id="node7" class="node">
<title>Node7</title>
<g id="a_node7"><a xlink:href="classcom_1_1fs_1_1starfarer_1_1api_1_1impl_1_1campaign_1_1plog_1_1PlaythroughLog.html" target="_top" xlink:title=" ">
<polygon fill="none" stroke="black" points="237.5,-196.5 237.5,-226.5 423.5,-226.5 423.5,-196.5 237.5,-196.5"/>
<text text-anchor="start" x="245.5" y="-214.5" font-family="Helvetica,sans-Serif" font-size="10.00">com.fs.starfarer.api.impl.campaign.plog.</text>
<text text-anchor="middle" x="330.5" y="-203.5" font-family="Helvetica,sans-Serif" font-size="10.00">PlaythroughLog</text>
</a>
</g>
</g>
<!-- Node1&#45;&gt;Node7 -->
<g id="edge6" class="edge">
<title>Node1&#45;&gt;Node7</title>
<path fill="none" stroke="midnightblue" d="M195.18,-197.27C209.14,-198.75 223.41,-200.26 237.19,-201.72"/>
<polygon fill="midnightblue" stroke="midnightblue" points="195.39,-193.77 185.08,-196.2 194.66,-200.74 195.39,-193.77"/>
</g>
<!-- Node8 -->
<g id="node8" class="node">
<title>Node8</title>
<g id="a_node8"><a xlink:href="classcom_1_1fs_1_1starfarer_1_1api_1_1impl_1_1campaign_1_1rulecmd_1_1HA__CMD_1_1StationKingScript.html" target="_top" xlink:title=" ">
<polygon fill="none" stroke="black" points="229,-147.5 229,-177.5 432,-177.5 432,-147.5 229,-147.5"/>
<text text-anchor="start" x="237" y="-165.5" font-family="Helvetica,sans-Serif" font-size="10.00">com.fs.starfarer.api.impl.campaign.rulecmd.</text>
<text text-anchor="middle" x="330.5" y="-154.5" font-family="Helvetica,sans-Serif" font-size="10.00">HA_CMD.StationKingScript</text>
</a>
</g>
</g>
<!-- Node1&#45;&gt;Node8 -->
<g id="edge7" class="edge">
<title>Node1&#45;&gt;Node8</title>
<path fill="none" stroke="midnightblue" d="M195.27,-176.15C206.44,-175.01 217.81,-173.86 228.97,-172.72"/>
<polygon fill="midnightblue" stroke="midnightblue" points="194.68,-172.69 185.08,-177.19 195.38,-179.66 194.68,-172.69"/>
</g>
<!-- Node9 -->
<g id="node9" class="node">
<title>Node9</title>
<g id="a_node9"><a xlink:href="classcom_1_1fs_1_1starfarer_1_1api_1_1impl_1_1campaign_1_1submarkets_1_1LocalResourcesSubmarketPlugin.html" target="_top" xlink:title=" ">
<polygon fill="none" stroke="black" points="221,-98.5 221,-128.5 440,-128.5 440,-98.5 221,-98.5"/>
<text text-anchor="start" x="229" y="-116.5" font-family="Helvetica,sans-Serif" font-size="10.00">com.fs.starfarer.api.impl.campaign.submarkets.</text>
<text text-anchor="middle" x="330.5" y="-105.5" font-family="Helvetica,sans-Serif" font-size="10.00">LocalResourcesSubmarketPlugin</text>
</a>
</g>
</g>
<!-- Node1&#45;&gt;Node9 -->
<g id="edge8" class="edge">
<title>Node1&#45;&gt;Node9</title>
<path fill="none" stroke="midnightblue" d="M139.18,-167.61C163.26,-158.08 193.44,-146.82 221,-138.5 232.84,-134.92 245.55,-131.57 257.94,-128.56"/>
<polygon fill="midnightblue" stroke="midnightblue" points="137.59,-164.47 129.6,-171.43 140.19,-170.97 137.59,-164.47"/>
</g>
<!-- Node10 -->
<g id="node10" class="node">
<title>Node10</title>
<g id="a_node10"><a xlink:href="classcom_1_1fs_1_1starfarer_1_1api_1_1impl_1_1campaign_1_1tutorial_1_1GalatianAcademyStipend.html" target="_top" xlink:title=" ">
<polygon fill="none" stroke="black" points="232,-49.5 232,-79.5 429,-79.5 429,-49.5 232,-49.5"/>
<text text-anchor="start" x="240" y="-67.5" font-family="Helvetica,sans-Serif" font-size="10.00">com.fs.starfarer.api.impl.campaign.tutorial.</text>
<text text-anchor="middle" x="330.5" y="-56.5" font-family="Helvetica,sans-Serif" font-size="10.00">GalatianAcademyStipend</text>
</a>
</g>
</g>
<!-- Node1&#45;&gt;Node10 -->
<g id="edge9" class="edge">
<title>Node1&#45;&gt;Node10</title>
<path fill="none" stroke="midnightblue" d="M116.47,-164.12C140.57,-141.9 180.5,-108.49 221,-89.5 229.23,-85.64 238.09,-82.36 247.08,-79.57"/>
<polygon fill="midnightblue" stroke="midnightblue" points="113.83,-161.8 108.93,-171.19 118.62,-166.9 113.83,-161.8"/>
</g>
<!-- Node11 -->
<g id="node11" class="node">
<title>Node11</title>
<g id="a_node11"><a xlink:href="classcom_1_1fs_1_1starfarer_1_1api_1_1impl_1_1campaign_1_1tutorial_1_1SpacerObligation.html" target="_top" xlink:title=" ">
<polygon fill="none" stroke="black" points="232,-0.5 232,-30.5 429,-30.5 429,-0.5 232,-0.5"/>
<text text-anchor="start" x="240" y="-18.5" font-family="Helvetica,sans-Serif" font-size="10.00">com.fs.starfarer.api.impl.campaign.tutorial.</text>
<text text-anchor="middle" x="330.5" y="-7.5" font-family="Helvetica,sans-Serif" font-size="10.00">SpacerObligation</text>
</a>
</g>
</g>
<!-- Node1&#45;&gt;Node11 -->
<g id="edge10" class="edge">
<title>Node1&#45;&gt;Node11</title>
<path fill="none" stroke="midnightblue" d="M107.67,-162.38C128.29,-129.5 169.76,-71.19 221,-40.5 227.47,-36.63 234.48,-33.35 241.73,-30.59"/>
<polygon fill="midnightblue" stroke="midnightblue" points="104.43,-160.97 102.18,-171.33 110.39,-164.63 104.43,-160.97"/>
</g>
<!-- Node4 -->
<g id="node4" class="node">
<title>Node4</title>
<g id="a_node4"><a xlink:href="classcom_1_1fs_1_1starfarer_1_1api_1_1impl_1_1campaign_1_1intel_1_1events_1_1HostileActivityEventIntel.html" target="_top" xlink:title=" ">
<polygon fill="none" stroke="black" points="481,-318.5 481,-348.5 699,-348.5 699,-318.5 481,-318.5"/>
<text text-anchor="start" x="489" y="-336.5" font-family="Helvetica,sans-Serif" font-size="10.00">com.fs.starfarer.api.impl.campaign.intel.events.</text>
<text text-anchor="middle" x="590" y="-325.5" font-family="Helvetica,sans-Serif" font-size="10.00">HostileActivityEventIntel</text>
</a>
</g>
</g>
<!-- Node3&#45;&gt;Node4 -->
<g id="edge3" class="edge">
<title>Node3&#45;&gt;Node4</title>
<path fill="none" stroke="midnightblue" d="M449.85,-320.53C460.16,-321.49 470.56,-322.46 480.78,-323.41"/>
<polygon fill="midnightblue" stroke="midnightblue" points="449.87,-317.02 439.58,-319.57 449.22,-323.99 449.87,-317.02"/>
</g>
<!-- Node5 -->
<g id="node5" class="node">
<title>Node5</title>
<g id="a_node5"><a xlink:href="classcom_1_1fs_1_1starfarer_1_1api_1_1impl_1_1campaign_1_1intel_1_1events_1_1ht_1_1HyperspaceTopographyEventIntel.html" target="_top" xlink:title=" ">
<polygon fill="none" stroke="black" points="476,-269.5 476,-299.5 704,-299.5 704,-269.5 476,-269.5"/>
<text text-anchor="start" x="484" y="-287.5" font-family="Helvetica,sans-Serif" font-size="10.00">com.fs.starfarer.api.impl.campaign.intel.events.ht.</text>
<text text-anchor="middle" x="590" y="-276.5" font-family="Helvetica,sans-Serif" font-size="10.00">HyperspaceTopographyEventIntel</text>
</a>
</g>
</g>
<!-- Node3&#45;&gt;Node5 -->
<g id="edge4" class="edge">
<title>Node3&#45;&gt;Node5</title>
<path fill="none" stroke="midnightblue" d="M449.74,-298.02C458.42,-297.18 467.16,-296.33 475.81,-295.49"/>
<polygon fill="midnightblue" stroke="midnightblue" points="449.2,-294.56 439.58,-299.01 449.88,-301.52 449.2,-294.56"/>
</g>
</g>
</svg>
