<?xml version="1.0" encoding="UTF-8" standalone="no"?>
<!DOCTYPE svg PUBLIC "-//W3C//DTD SVG 1.1//EN"
 "http://www.w3.org/Graphics/SVG/1.1/DTD/svg11.dtd">
<!-- Generated by graphviz version 2.44.0 ()
 -->
<!-- Title: com.fs.starfarer.api.combat.CombatEntityAPI Pages: 1 -->
<svg width="488pt" height="235pt"
 viewBox="0.00 0.00 488.00 235.00" xmlns="http://www.w3.org/2000/svg" xmlns:xlink="http://www.w3.org/1999/xlink">
<g id="graph0" class="graph" transform="scale(1 1) rotate(0) translate(4 231)">
<title>com.fs.starfarer.api.combat.CombatEntityAPI</title>
<!-- Node1 -->
<g id="node1" class="node">
<title>Node1</title>
<g id="a_node1"><a xlink:title=" ">
<polygon fill="#bfbfbf" stroke="black" points="0,-98.5 0,-128.5 136,-128.5 136,-98.5 0,-98.5"/>
<text text-anchor="start" x="8" y="-116.5" font-family="Helvetica,sans-Serif" font-size="10.00">com.fs.starfarer.api.combat.</text>
<text text-anchor="middle" x="68" y="-105.5" font-family="Helvetica,sans-Serif" font-size="10.00">CombatEntityAPI</text>
</a>
</g>
</g>
<!-- Node2 -->
<g id="node2" class="node">
<title>Node2</title>
<g id="a_node2"><a xlink:href="interfacecom_1_1fs_1_1starfarer_1_1api_1_1combat_1_1BattleObjectiveAPI.html" target="_top" xlink:title=" ">
<polygon fill="none" stroke="black" points="172,-196.5 172,-226.5 308,-226.5 308,-196.5 172,-196.5"/>
<text text-anchor="start" x="180" y="-214.5" font-family="Helvetica,sans-Serif" font-size="10.00">com.fs.starfarer.api.combat.</text>
<text text-anchor="middle" x="240" y="-203.5" font-family="Helvetica,sans-Serif" font-size="10.00">BattleObjectiveAPI</text>
</a>
</g>
</g>
<!-- Node1&#45;&gt;Node2 -->
<g id="edge1" class="edge">
<title>Node1&#45;&gt;Node2</title>
<path fill="none" stroke="midnightblue" d="M94.62,-135.01C114.7,-151.08 143.85,-172.72 172,-187.5 178.24,-190.77 185.02,-193.78 191.79,-196.47"/>
<polygon fill="midnightblue" stroke="midnightblue" points="96.57,-132.09 86.6,-128.5 92.16,-137.52 96.57,-132.09"/>
</g>
<!-- Node3 -->
<g id="node3" class="node">
<title>Node3</title>
<g id="a_node3"><a xlink:href="interfacecom_1_1fs_1_1starfarer_1_1api_1_1combat_1_1CombatAsteroidAPI.html" target="_top" xlink:title=" ">
<polygon fill="none" stroke="black" points="172,-147.5 172,-177.5 308,-177.5 308,-147.5 172,-147.5"/>
<text text-anchor="start" x="180" y="-165.5" font-family="Helvetica,sans-Serif" font-size="10.00">com.fs.starfarer.api.combat.</text>
<text text-anchor="middle" x="240" y="-154.5" font-family="Helvetica,sans-Serif" font-size="10.00">CombatAsteroidAPI</text>
</a>
</g>
</g>
<!-- Node1&#45;&gt;Node3 -->
<g id="edge2" class="edge">
<title>Node1&#45;&gt;Node3</title>
<path fill="none" stroke="midnightblue" d="M131.08,-131.39C149.37,-136.66 169.18,-142.38 186.78,-147.45"/>
<polygon fill="midnightblue" stroke="midnightblue" points="131.97,-128.01 121.39,-128.6 130.03,-134.73 131.97,-128.01"/>
</g>
<!-- Node4 -->
<g id="node4" class="node">
<title>Node4</title>
<g id="a_node4"><a xlink:href="interfacecom_1_1fs_1_1starfarer_1_1api_1_1combat_1_1DamagingProjectileAPI.html" target="_top" xlink:title=" ">
<polygon fill="none" stroke="black" points="172,-98.5 172,-128.5 308,-128.5 308,-98.5 172,-98.5"/>
<text text-anchor="start" x="180" y="-116.5" font-family="Helvetica,sans-Serif" font-size="10.00">com.fs.starfarer.api.combat.</text>
<text text-anchor="middle" x="240" y="-105.5" font-family="Helvetica,sans-Serif" font-size="10.00">DamagingProjectileAPI</text>
</a>
</g>
</g>
<!-- Node1&#45;&gt;Node4 -->
<g id="edge3" class="edge">
<title>Node1&#45;&gt;Node4</title>
<path fill="none" stroke="midnightblue" d="M146.42,-113.5C154.88,-113.5 163.43,-113.5 171.74,-113.5"/>
<polygon fill="midnightblue" stroke="midnightblue" points="146.19,-110 136.19,-113.5 146.19,-117 146.19,-110"/>
</g>
<!-- Node6 -->
<g id="node6" class="node">
<title>Node6</title>
<g id="a_node6"><a xlink:href="interfacecom_1_1fs_1_1starfarer_1_1api_1_1combat_1_1EmpArcEntityAPI.html" target="_top" xlink:title=" ">
<polygon fill="none" stroke="black" points="172,-49.5 172,-79.5 308,-79.5 308,-49.5 172,-49.5"/>
<text text-anchor="start" x="180" y="-67.5" font-family="Helvetica,sans-Serif" font-size="10.00">com.fs.starfarer.api.combat.</text>
<text text-anchor="middle" x="240" y="-56.5" font-family="Helvetica,sans-Serif" font-size="10.00">EmpArcEntityAPI</text>
</a>
</g>
</g>
<!-- Node1&#45;&gt;Node6 -->
<g id="edge5" class="edge">
<title>Node1&#45;&gt;Node6</title>
<path fill="none" stroke="midnightblue" d="M131.08,-95.61C149.37,-90.34 169.18,-84.62 186.78,-79.55"/>
<polygon fill="midnightblue" stroke="midnightblue" points="130.03,-92.27 121.39,-98.4 131.97,-98.99 130.03,-92.27"/>
</g>
<!-- Node7 -->
<g id="node7" class="node">
<title>Node7</title>
<g id="a_node7"><a xlink:href="interfacecom_1_1fs_1_1starfarer_1_1api_1_1combat_1_1ShipAPI.html" target="_top" xlink:title=" ">
<polygon fill="none" stroke="black" points="172,-0.5 172,-30.5 308,-30.5 308,-0.5 172,-0.5"/>
<text text-anchor="start" x="180" y="-18.5" font-family="Helvetica,sans-Serif" font-size="10.00">com.fs.starfarer.api.combat.</text>
<text text-anchor="middle" x="240" y="-7.5" font-family="Helvetica,sans-Serif" font-size="10.00">ShipAPI</text>
</a>
</g>
</g>
<!-- Node1&#45;&gt;Node7 -->
<g id="edge6" class="edge">
<title>Node1&#45;&gt;Node7</title>
<path fill="none" stroke="midnightblue" d="M95.46,-91.83C115.56,-76.11 144.37,-55.12 172,-40.5 178.8,-36.9 186.24,-33.58 193.61,-30.61"/>
<polygon fill="midnightblue" stroke="midnightblue" points="93.07,-89.26 87.4,-98.22 97.41,-94.75 93.07,-89.26"/>
</g>
<!-- Node5 -->
<g id="node5" class="node">
<title>Node5</title>
<g id="a_node5"><a xlink:href="interfacecom_1_1fs_1_1starfarer_1_1api_1_1combat_1_1MissileAPI.html" target="_top" xlink:title=" ">
<polygon fill="none" stroke="black" points="344,-98.5 344,-128.5 480,-128.5 480,-98.5 344,-98.5"/>
<text text-anchor="start" x="352" y="-116.5" font-family="Helvetica,sans-Serif" font-size="10.00">com.fs.starfarer.api.combat.</text>
<text text-anchor="middle" x="412" y="-105.5" font-family="Helvetica,sans-Serif" font-size="10.00">MissileAPI</text>
</a>
</g>
</g>
<!-- Node4&#45;&gt;Node5 -->
<g id="edge4" class="edge">
<title>Node4&#45;&gt;Node5</title>
<path fill="none" stroke="midnightblue" d="M318.42,-113.5C326.88,-113.5 335.43,-113.5 343.74,-113.5"/>
<polygon fill="midnightblue" stroke="midnightblue" points="318.19,-110 308.19,-113.5 318.19,-117 318.19,-110"/>
</g>
</g>
</svg>
