<?xml version="1.0" encoding="UTF-8" standalone="no"?>
<!DOCTYPE svg PUBLIC "-//W3C//DTD SVG 1.1//EN"
 "http://www.w3.org/Graphics/SVG/1.1/DTD/svg11.dtd">
<!-- Generated by graphviz version 12.2.0 (20241103.1931)
 -->
<!-- Title: com.fs.starfarer.api.campaign.CustomCampaignEntityPlugin Pages: 1 -->
<svg width="791pt" height="823pt"
 viewBox="0.00 0.00 790.50 822.50" xmlns="http://www.w3.org/2000/svg" xmlns:xlink="http://www.w3.org/1999/xlink">
<g id="graph0" class="graph" transform="scale(1 1) rotate(0) translate(4 818.5)">
<title>com.fs.starfarer.api.campaign.CustomCampaignEntityPlugin</title>
<!-- Node1 -->
<g id="Node000001" class="node">
<title>Node1</title>
<g id="a_Node000001"><a xlink:title=" ">
<polygon fill="#999999" stroke="#666666" points="145,-422.5 0,-422.5 0,-392 145,-392 145,-422.5"/>
<text text-anchor="start" x="8" y="-409" font-family="Helvetica,sans-Serif" font-size="10.00">com.fs.starfarer.api.campaign.</text>
<text text-anchor="middle" x="72.5" y="-397.75" font-family="Helvetica,sans-Serif" font-size="10.00">CustomCampaignEntityPlugin</text>
</a>
</g>
</g>
<!-- Node2 -->
<g id="Node000002" class="node">
<title>Node2</title>
<g id="a_Node000002"><a xlink:href="classcom_1_1fs_1_1starfarer_1_1api_1_1impl_1_1campaign_1_1BaseCustomEntityPlugin.html" target="_top" xlink:title=" ">
<polygon fill="white" stroke="#666666" points="346.25,-422.5 181,-422.5 181,-392 346.25,-392 346.25,-422.5"/>
<text text-anchor="start" x="189" y="-409" font-family="Helvetica,sans-Serif" font-size="10.00">com.fs.starfarer.api.impl.campaign.</text>
<text text-anchor="middle" x="263.62" y="-397.75" font-family="Helvetica,sans-Serif" font-size="10.00">BaseCustomEntityPlugin</text>
</a>
</g>
</g>
<!-- Node1&#45;&gt;Node2 -->
<g id="edge1_Node000001_Node000002" class="edge">
<title>Node1&#45;&gt;Node2</title>
<g id="a_edge1_Node000001_Node000002"><a xlink:title=" ">
<path fill="none" stroke="#63b8ff" d="M156.54,-407.25C164.58,-407.25 172.74,-407.25 180.77,-407.25"/>
<polygon fill="#63b8ff" stroke="#63b8ff" points="156.78,-403.75 146.78,-407.25 156.78,-410.75 156.78,-403.75"/>
</a>
</g>
</g>
<!-- Node3 -->
<g id="Node000003" class="node">
<title>Node3</title>
<g id="a_Node000003"><a xlink:href="classcom_1_1fs_1_1starfarer_1_1api_1_1impl_1_1campaign_1_1AbyssalLightEntityPlugin.html" target="_top" xlink:title=" ">
<polygon fill="white" stroke="#666666" points="564.38,-814.5 399.12,-814.5 399.12,-784 564.38,-784 564.38,-814.5"/>
<text text-anchor="start" x="407.12" y="-801" font-family="Helvetica,sans-Serif" font-size="10.00">com.fs.starfarer.api.impl.campaign.</text>
<text text-anchor="middle" x="481.75" y="-789.75" font-family="Helvetica,sans-Serif" font-size="10.00">AbyssalLightEntityPlugin</text>
</a>
</g>
</g>
<!-- Node2&#45;&gt;Node3 -->
<g id="edge2_Node000002_Node000003" class="edge">
<title>Node2&#45;&gt;Node3</title>
<g id="a_edge2_Node000002_Node000003"><a xlink:title=" ">
<path fill="none" stroke="#63b8ff" d="M264.88,-434.2C267.04,-501.9 282.44,-680.41 382.25,-774.25 387.13,-778.84 392.74,-782.62 398.74,-785.73"/>
<polygon fill="#63b8ff" stroke="#63b8ff" points="268.38,-434.32 264.65,-424.4 261.39,-434.48 268.38,-434.32"/>
</a>
</g>
</g>
<!-- Node4 -->
<g id="Node000004" class="node">
<title>Node4</title>
<g id="a_Node000004"><a xlink:href="classcom_1_1fs_1_1starfarer_1_1api_1_1impl_1_1campaign_1_1BaseCampaignObjectivePlugin.html" target="_top" xlink:title=" ">
<polygon fill="white" stroke="#666666" points="564.38,-765.5 399.12,-765.5 399.12,-735 564.38,-735 564.38,-765.5"/>
<text text-anchor="start" x="407.12" y="-752" font-family="Helvetica,sans-Serif" font-size="10.00">com.fs.starfarer.api.impl.campaign.</text>
<text text-anchor="middle" x="481.75" y="-740.75" font-family="Helvetica,sans-Serif" font-size="10.00">BaseCampaignObjectivePlugin</text>
</a>
</g>
</g>
<!-- Node2&#45;&gt;Node4 -->
<g id="edge3_Node000002_Node000004" class="edge">
<title>Node2&#45;&gt;Node4</title>
<g id="a_edge3_Node000002_Node000004"><a xlink:title=" ">
<path fill="none" stroke="#63b8ff" d="M266.43,-434.32C272.01,-495.7 294.43,-646.25 382.25,-725.25 387.23,-729.73 392.91,-733.44 398.96,-736.49"/>
<polygon fill="#63b8ff" stroke="#63b8ff" points="269.92,-434.14 265.62,-424.46 262.95,-434.71 269.92,-434.14"/>
</a>
</g>
</g>
<!-- Node8 -->
<g id="Node000008" class="node">
<title>Node8</title>
<g id="a_Node000008"><a xlink:href="classcom_1_1fs_1_1starfarer_1_1api_1_1impl_1_1campaign_1_1CargoPodsEntityPlugin.html" target="_top" xlink:title=" ">
<polygon fill="white" stroke="#666666" points="564.38,-716.5 399.12,-716.5 399.12,-686 564.38,-686 564.38,-716.5"/>
<text text-anchor="start" x="407.12" y="-703" font-family="Helvetica,sans-Serif" font-size="10.00">com.fs.starfarer.api.impl.campaign.</text>
<text text-anchor="middle" x="481.75" y="-691.75" font-family="Helvetica,sans-Serif" font-size="10.00">CargoPodsEntityPlugin</text>
</a>
</g>
</g>
<!-- Node2&#45;&gt;Node8 -->
<g id="edge7_Node000002_Node000008" class="edge">
<title>Node2&#45;&gt;Node8</title>
<g id="a_edge7_Node000002_Node000008"><a xlink:title=" ">
<path fill="none" stroke="#63b8ff" d="M268.4,-433.87C277.54,-488.06 306.01,-611.56 382.25,-676.25 387.23,-680.47 392.82,-684 398.76,-686.94"/>
<polygon fill="#63b8ff" stroke="#63b8ff" points="271.91,-433.64 266.89,-424.31 265,-434.73 271.91,-433.64"/>
</a>
</g>
</g>
<!-- Node9 -->
<g id="Node000009" class="node">
<title>Node9</title>
<g id="a_Node000009"><a xlink:href="classcom_1_1fs_1_1starfarer_1_1api_1_1impl_1_1campaign_1_1CryosleeperEntityPlugin.html" target="_top" xlink:title=" ">
<polygon fill="white" stroke="#666666" points="564.38,-667.5 399.12,-667.5 399.12,-637 564.38,-637 564.38,-667.5"/>
<text text-anchor="start" x="407.12" y="-654" font-family="Helvetica,sans-Serif" font-size="10.00">com.fs.starfarer.api.impl.campaign.</text>
<text text-anchor="middle" x="481.75" y="-642.75" font-family="Helvetica,sans-Serif" font-size="10.00">CryosleeperEntityPlugin</text>
</a>
</g>
</g>
<!-- Node2&#45;&gt;Node9 -->
<g id="edge8_Node000002_Node000009" class="edge">
<title>Node2&#45;&gt;Node9</title>
<g id="a_edge8_Node000002_Node000009"><a xlink:title=" ">
<path fill="none" stroke="#63b8ff" d="M271.23,-433.83C284.22,-480.41 317.62,-576.66 382.25,-627.25 387.25,-631.17 392.79,-634.47 398.63,-637.27"/>
<polygon fill="#63b8ff" stroke="#63b8ff" points="274.65,-433.07 268.68,-424.32 267.89,-434.88 274.65,-433.07"/>
</a>
</g>
</g>
<!-- Node10 -->
<g id="Node000010" class="node">
<title>Node10</title>
<g id="a_Node000010"><a xlink:href="classcom_1_1fs_1_1starfarer_1_1api_1_1impl_1_1campaign_1_1DerelictShipEntityPlugin.html" target="_top" xlink:title=" ">
<polygon fill="white" stroke="#666666" points="564.38,-618.5 399.12,-618.5 399.12,-588 564.38,-588 564.38,-618.5"/>
<text text-anchor="start" x="407.12" y="-605" font-family="Helvetica,sans-Serif" font-size="10.00">com.fs.starfarer.api.impl.campaign.</text>
<text text-anchor="middle" x="481.75" y="-593.75" font-family="Helvetica,sans-Serif" font-size="10.00">DerelictShipEntityPlugin</text>
</a>
</g>
</g>
<!-- Node2&#45;&gt;Node10 -->
<g id="edge9_Node000002_Node000010" class="edge">
<title>Node2&#45;&gt;Node10</title>
<g id="a_edge9_Node000002_Node000010"><a xlink:title=" ">
<path fill="none" stroke="#63b8ff" d="M275.18,-433.01C292.04,-470.83 328.7,-540.95 382.25,-578.25 387.46,-581.88 393.16,-584.98 399.09,-587.64"/>
<polygon fill="#63b8ff" stroke="#63b8ff" points="278.56,-431.99 271.37,-424.2 272.13,-434.77 278.56,-431.99"/>
</a>
</g>
</g>
<!-- Node11 -->
<g id="Node000011" class="node">
<title>Node11</title>
<g id="a_Node000011"><a xlink:href="classcom_1_1fs_1_1starfarer_1_1api_1_1impl_1_1campaign_1_1ExampleCustomEntityPlugin.html" target="_top" xlink:title=" ">
<polygon fill="white" stroke="#666666" points="564.38,-569.5 399.12,-569.5 399.12,-539 564.38,-539 564.38,-569.5"/>
<text text-anchor="start" x="407.12" y="-556" font-family="Helvetica,sans-Serif" font-size="10.00">com.fs.starfarer.api.impl.campaign.</text>
<text text-anchor="middle" x="481.75" y="-544.75" font-family="Helvetica,sans-Serif" font-size="10.00">ExampleCustomEntityPlugin</text>
</a>
</g>
</g>
<!-- Node2&#45;&gt;Node11 -->
<g id="edge10_Node000002_Node000011" class="edge">
<title>Node2&#45;&gt;Node11</title>
<g id="a_edge10_Node000002_Node000011"><a xlink:title=" ">
<path fill="none" stroke="#63b8ff" d="M281.55,-431.7C302.13,-459.55 339.46,-504.4 382.25,-529.25 388.43,-532.84 395.12,-535.92 402,-538.56"/>
<polygon fill="#63b8ff" stroke="#63b8ff" points="284.57,-429.9 275.88,-423.85 278.9,-434 284.57,-429.9"/>
</a>
</g>
</g>
<!-- Node12 -->
<g id="Node000012" class="node">
<title>Node12</title>
<g id="a_Node000012"><a xlink:href="classcom_1_1fs_1_1starfarer_1_1api_1_1impl_1_1campaign_1_1ExplosionEntityPlugin.html" target="_top" xlink:title=" ">
<polygon fill="white" stroke="#666666" points="564.38,-520.5 399.12,-520.5 399.12,-490 564.38,-490 564.38,-520.5"/>
<text text-anchor="start" x="407.12" y="-507" font-family="Helvetica,sans-Serif" font-size="10.00">com.fs.starfarer.api.impl.campaign.</text>
<text text-anchor="middle" x="481.75" y="-495.75" font-family="Helvetica,sans-Serif" font-size="10.00">ExplosionEntityPlugin</text>
</a>
</g>
</g>
<!-- Node2&#45;&gt;Node12 -->
<g id="edge11_Node000002_Node000012" class="edge">
<title>Node2&#45;&gt;Node12</title>
<g id="a_edge11_Node000002_Node000012"><a xlink:title=" ">
<path fill="none" stroke="#63b8ff" d="M294.42,-429.33C317.39,-445.45 350.51,-466.76 382.25,-480.25 390.45,-483.74 399.25,-486.82 408.09,-489.52"/>
<polygon fill="#63b8ff" stroke="#63b8ff" points="296.63,-426.62 286.46,-423.66 292.57,-432.32 296.63,-426.62"/>
</a>
</g>
</g>
<!-- Node13 -->
<g id="Node000013" class="node">
<title>Node13</title>
<g id="a_Node000013"><a xlink:href="classcom_1_1fs_1_1starfarer_1_1api_1_1impl_1_1campaign_1_1FusionLampEntityPlugin.html" target="_top" xlink:title=" ">
<polygon fill="white" stroke="#666666" points="564.38,-471.5 399.12,-471.5 399.12,-441 564.38,-441 564.38,-471.5"/>
<text text-anchor="start" x="407.12" y="-458" font-family="Helvetica,sans-Serif" font-size="10.00">com.fs.starfarer.api.impl.campaign.</text>
<text text-anchor="middle" x="481.75" y="-446.75" font-family="Helvetica,sans-Serif" font-size="10.00">FusionLampEntityPlugin</text>
</a>
</g>
</g>
<!-- Node2&#45;&gt;Node13 -->
<g id="edge12_Node000002_Node000013" class="edge">
<title>Node2&#45;&gt;Node13</title>
<g id="a_edge12_Node000002_Node000013"><a xlink:title=" ">
<path fill="none" stroke="#63b8ff" d="M344.84,-425.44C366.73,-430.4 390.27,-435.74 411.5,-440.55"/>
<polygon fill="#63b8ff" stroke="#63b8ff" points="345.9,-422.09 335.38,-423.29 344.35,-428.92 345.9,-422.09"/>
</a>
</g>
</g>
<!-- Node14 -->
<g id="Node000014" class="node">
<title>Node14</title>
<g id="a_Node000014"><a xlink:href="classcom_1_1fs_1_1starfarer_1_1api_1_1impl_1_1campaign_1_1GateEntityPlugin.html" target="_top" xlink:title=" ">
<polygon fill="white" stroke="#666666" points="564.38,-422.5 399.12,-422.5 399.12,-392 564.38,-392 564.38,-422.5"/>
<text text-anchor="start" x="407.12" y="-409" font-family="Helvetica,sans-Serif" font-size="10.00">com.fs.starfarer.api.impl.campaign.</text>
<text text-anchor="middle" x="481.75" y="-397.75" font-family="Helvetica,sans-Serif" font-size="10.00">GateEntityPlugin</text>
</a>
</g>
</g>
<!-- Node2&#45;&gt;Node14 -->
<g id="edge13_Node000002_Node000014" class="edge">
<title>Node2&#45;&gt;Node14</title>
<g id="a_edge13_Node000002_Node000014"><a xlink:title=" ">
<path fill="none" stroke="#63b8ff" d="M357.96,-407.25C371.55,-407.25 385.45,-407.25 398.79,-407.25"/>
<polygon fill="#63b8ff" stroke="#63b8ff" points="358.15,-403.75 348.15,-407.25 358.15,-410.75 358.15,-403.75"/>
</a>
</g>
</g>
<!-- Node15 -->
<g id="Node000015" class="node">
<title>Node15</title>
<g id="a_Node000015"><a xlink:href="classcom_1_1fs_1_1starfarer_1_1api_1_1impl_1_1campaign_1_1HiddenCacheEntityPlugin.html" target="_top" xlink:title=" ">
<polygon fill="white" stroke="#666666" points="564.38,-373.5 399.12,-373.5 399.12,-343 564.38,-343 564.38,-373.5"/>
<text text-anchor="start" x="407.12" y="-360" font-family="Helvetica,sans-Serif" font-size="10.00">com.fs.starfarer.api.impl.campaign.</text>
<text text-anchor="middle" x="481.75" y="-348.75" font-family="Helvetica,sans-Serif" font-size="10.00">HiddenCacheEntityPlugin</text>
</a>
</g>
</g>
<!-- Node2&#45;&gt;Node15 -->
<g id="edge14_Node000002_Node000015" class="edge">
<title>Node2&#45;&gt;Node15</title>
<g id="a_edge14_Node000002_Node000015"><a xlink:title=" ">
<path fill="none" stroke="#63b8ff" d="M344.84,-389.06C366.73,-384.1 390.27,-378.76 411.5,-373.95"/>
<polygon fill="#63b8ff" stroke="#63b8ff" points="344.35,-385.58 335.38,-391.21 345.9,-392.41 344.35,-385.58"/>
</a>
</g>
</g>
<!-- Node16 -->
<g id="Node000016" class="node">
<title>Node16</title>
<g id="a_Node000016"><a xlink:href="classcom_1_1fs_1_1starfarer_1_1api_1_1impl_1_1campaign_1_1SupplyCacheEntityPlugin.html" target="_top" xlink:title=" ">
<polygon fill="white" stroke="#666666" points="564.38,-324.5 399.12,-324.5 399.12,-294 564.38,-294 564.38,-324.5"/>
<text text-anchor="start" x="407.12" y="-311" font-family="Helvetica,sans-Serif" font-size="10.00">com.fs.starfarer.api.impl.campaign.</text>
<text text-anchor="middle" x="481.75" y="-299.75" font-family="Helvetica,sans-Serif" font-size="10.00">SupplyCacheEntityPlugin</text>
</a>
</g>
</g>
<!-- Node2&#45;&gt;Node16 -->
<g id="edge15_Node000002_Node000016" class="edge">
<title>Node2&#45;&gt;Node16</title>
<g id="a_edge15_Node000002_Node000016"><a xlink:title=" ">
<path fill="none" stroke="#63b8ff" d="M294.42,-385.17C317.39,-369.05 350.51,-347.74 382.25,-334.25 390.45,-330.76 399.25,-327.68 408.09,-324.98"/>
<polygon fill="#63b8ff" stroke="#63b8ff" points="292.57,-382.18 286.46,-390.84 296.63,-387.88 292.57,-382.18"/>
</a>
</g>
</g>
<!-- Node17 -->
<g id="Node000017" class="node">
<title>Node17</title>
<g id="a_Node000017"><a xlink:href="classcom_1_1fs_1_1starfarer_1_1api_1_1impl_1_1campaign_1_1WarningBeaconEntityPlugin.html" target="_top" xlink:title=" ">
<polygon fill="white" stroke="#666666" points="564.38,-275.5 399.12,-275.5 399.12,-245 564.38,-245 564.38,-275.5"/>
<text text-anchor="start" x="407.12" y="-262" font-family="Helvetica,sans-Serif" font-size="10.00">com.fs.starfarer.api.impl.campaign.</text>
<text text-anchor="middle" x="481.75" y="-250.75" font-family="Helvetica,sans-Serif" font-size="10.00">WarningBeaconEntityPlugin</text>
</a>
</g>
</g>
<!-- Node2&#45;&gt;Node17 -->
<g id="edge16_Node000002_Node000017" class="edge">
<title>Node2&#45;&gt;Node17</title>
<g id="a_edge16_Node000002_Node000017"><a xlink:title=" ">
<path fill="none" stroke="#63b8ff" d="M281.55,-382.8C302.13,-354.95 339.46,-310.1 382.25,-285.25 388.43,-281.66 395.12,-278.58 402,-275.94"/>
<polygon fill="#63b8ff" stroke="#63b8ff" points="278.9,-380.5 275.88,-390.65 284.57,-384.6 278.9,-380.5"/>
</a>
</g>
</g>
<!-- Node18 -->
<g id="Node000018" class="node">
<title>Node18</title>
<g id="a_Node000018"><a xlink:href="classcom_1_1fs_1_1starfarer_1_1api_1_1impl_1_1campaign_1_1entities_1_1GateHaulerEntityPlugin.html" target="_top" xlink:title=" ">
<polygon fill="white" stroke="#666666" points="581.25,-226.5 382.25,-226.5 382.25,-196 581.25,-196 581.25,-226.5"/>
<text text-anchor="start" x="390.25" y="-213" font-family="Helvetica,sans-Serif" font-size="10.00">com.fs.starfarer.api.impl.campaign.entities.</text>
<text text-anchor="middle" x="481.75" y="-201.75" font-family="Helvetica,sans-Serif" font-size="10.00">GateHaulerEntityPlugin</text>
</a>
</g>
</g>
<!-- Node2&#45;&gt;Node18 -->
<g id="edge17_Node000002_Node000018" class="edge">
<title>Node2&#45;&gt;Node18</title>
<g id="a_edge17_Node000002_Node000018"><a xlink:title=" ">
<path fill="none" stroke="#63b8ff" d="M275.18,-381.49C292.04,-343.67 328.7,-273.55 382.25,-236.25 387.46,-232.62 393.16,-229.52 399.09,-226.86"/>
<polygon fill="#63b8ff" stroke="#63b8ff" points="272.13,-379.73 271.37,-390.3 278.56,-382.51 272.13,-379.73"/>
</a>
</g>
</g>
<!-- Node19 -->
<g id="Node000019" class="node">
<title>Node19</title>
<g id="a_Node000019"><a xlink:href="classcom_1_1fs_1_1starfarer_1_1api_1_1impl_1_1campaign_1_1entities_1_1GenericProbeEntityPlugin.html" target="_top" xlink:title=" ">
<polygon fill="white" stroke="#666666" points="581.25,-177.5 382.25,-177.5 382.25,-147 581.25,-147 581.25,-177.5"/>
<text text-anchor="start" x="390.25" y="-164" font-family="Helvetica,sans-Serif" font-size="10.00">com.fs.starfarer.api.impl.campaign.entities.</text>
<text text-anchor="middle" x="481.75" y="-152.75" font-family="Helvetica,sans-Serif" font-size="10.00">GenericProbeEntityPlugin</text>
</a>
</g>
</g>
<!-- Node2&#45;&gt;Node19 -->
<g id="edge18_Node000002_Node000019" class="edge">
<title>Node2&#45;&gt;Node19</title>
<g id="a_edge18_Node000002_Node000019"><a xlink:title=" ">
<path fill="none" stroke="#63b8ff" d="M271.23,-380.67C284.22,-334.09 317.62,-237.84 382.25,-187.25 386.83,-183.66 391.87,-180.58 397.17,-177.94"/>
<polygon fill="#63b8ff" stroke="#63b8ff" points="267.89,-379.62 268.68,-390.18 274.65,-381.43 267.89,-379.62"/>
</a>
</g>
</g>
<!-- Node20 -->
<g id="Node000020" class="node">
<title>Node20</title>
<g id="a_Node000020"><a xlink:href="classcom_1_1fs_1_1starfarer_1_1api_1_1impl_1_1campaign_1_1velfield_1_1SlipstreamEntityPlugin.html" target="_top" xlink:title=" ">
<polygon fill="white" stroke="#666666" points="580.5,-128.5 383,-128.5 383,-98 580.5,-98 580.5,-128.5"/>
<text text-anchor="start" x="391" y="-115" font-family="Helvetica,sans-Serif" font-size="10.00">com.fs.starfarer.api.impl.campaign.velfield.</text>
<text text-anchor="middle" x="481.75" y="-103.75" font-family="Helvetica,sans-Serif" font-size="10.00">SlipstreamEntityPlugin</text>
</a>
</g>
</g>
<!-- Node2&#45;&gt;Node20 -->
<g id="edge19_Node000002_Node000020" class="edge">
<title>Node2&#45;&gt;Node20</title>
<g id="a_edge19_Node000002_Node000020"><a xlink:title=" ">
<path fill="none" stroke="#63b8ff" d="M268.4,-380.63C277.54,-326.44 306.01,-202.94 382.25,-138.25 386.56,-134.6 391.32,-131.47 396.37,-128.79"/>
<polygon fill="#63b8ff" stroke="#63b8ff" points="265,-379.77 266.89,-390.19 271.91,-380.86 265,-379.77"/>
</a>
</g>
</g>
<!-- Node21 -->
<g id="Node000021" class="node">
<title>Node21</title>
<g id="a_Node000021"><a xlink:href="classcom_1_1fs_1_1starfarer_1_1api_1_1impl_1_1campaign_1_1velfield_1_1SlipstreamEntityPlugin2.html" target="_top" xlink:title=" ">
<polygon fill="white" stroke="#666666" points="580.5,-79.5 383,-79.5 383,-49 580.5,-49 580.5,-79.5"/>
<text text-anchor="start" x="391" y="-66" font-family="Helvetica,sans-Serif" font-size="10.00">com.fs.starfarer.api.impl.campaign.velfield.</text>
<text text-anchor="middle" x="481.75" y="-54.75" font-family="Helvetica,sans-Serif" font-size="10.00">SlipstreamEntityPlugin2</text>
</a>
</g>
</g>
<!-- Node2&#45;&gt;Node21 -->
<g id="edge20_Node000002_Node000021" class="edge">
<title>Node2&#45;&gt;Node21</title>
<g id="a_edge20_Node000002_Node000021"><a xlink:title=" ">
<path fill="none" stroke="#63b8ff" d="M266.43,-380.18C272.01,-318.8 294.43,-168.25 382.25,-89.25 386.32,-85.59 390.84,-82.45 395.66,-79.76"/>
<polygon fill="#63b8ff" stroke="#63b8ff" points="262.95,-379.79 265.62,-390.04 269.92,-380.36 262.95,-379.79"/>
</a>
</g>
</g>
<!-- Node22 -->
<g id="Node000022" class="node">
<title>Node22</title>
<g id="a_Node000022"><a xlink:href="classcom_1_1fs_1_1starfarer_1_1api_1_1impl_1_1campaign_1_1velfield_1_1TurbulenceEntityPlugin.html" target="_top" xlink:title=" ">
<polygon fill="white" stroke="#666666" points="580.5,-30.5 383,-30.5 383,0 580.5,0 580.5,-30.5"/>
<text text-anchor="start" x="391" y="-17" font-family="Helvetica,sans-Serif" font-size="10.00">com.fs.starfarer.api.impl.campaign.velfield.</text>
<text text-anchor="middle" x="481.75" y="-5.75" font-family="Helvetica,sans-Serif" font-size="10.00">TurbulenceEntityPlugin</text>
</a>
</g>
</g>
<!-- Node2&#45;&gt;Node22 -->
<g id="edge21_Node000002_Node000022" class="edge">
<title>Node2&#45;&gt;Node22</title>
<g id="a_edge21_Node000002_Node000022"><a xlink:title=" ">
<path fill="none" stroke="#63b8ff" d="M264.88,-380.3C267.04,-312.6 282.44,-134.09 382.25,-40.25 386.11,-36.62 390.41,-33.51 395.01,-30.82"/>
<polygon fill="#63b8ff" stroke="#63b8ff" points="261.39,-380.02 264.65,-390.1 268.38,-380.18 261.39,-380.02"/>
</a>
</g>
</g>
<!-- Node5 -->
<g id="Node000005" class="node">
<title>Node5</title>
<g id="a_Node000005"><a xlink:href="classcom_1_1fs_1_1starfarer_1_1api_1_1impl_1_1campaign_1_1CommRelayEntityPlugin.html" target="_top" xlink:title=" ">
<polygon fill="white" stroke="#666666" points="782.5,-814.5 617.25,-814.5 617.25,-784 782.5,-784 782.5,-814.5"/>
<text text-anchor="start" x="625.25" y="-801" font-family="Helvetica,sans-Serif" font-size="10.00">com.fs.starfarer.api.impl.campaign.</text>
<text text-anchor="middle" x="699.88" y="-789.75" font-family="Helvetica,sans-Serif" font-size="10.00">CommRelayEntityPlugin</text>
</a>
</g>
</g>
<!-- Node4&#45;&gt;Node5 -->
<g id="edge4_Node000004_Node000005" class="edge">
<title>Node4&#45;&gt;Node5</title>
<g id="a_edge4_Node000004_Node000005"><a xlink:title=" ">
<path fill="none" stroke="#63b8ff" d="M562.96,-768.44C584.86,-773.4 608.39,-778.74 629.62,-783.55"/>
<polygon fill="#63b8ff" stroke="#63b8ff" points="564.03,-765.09 553.5,-766.29 562.48,-771.92 564.03,-765.09"/>
</a>
</g>
</g>
<!-- Node6 -->
<g id="Node000006" class="node">
<title>Node6</title>
<g id="a_Node000006"><a xlink:href="classcom_1_1fs_1_1starfarer_1_1api_1_1impl_1_1campaign_1_1NavBuoyEntityPlugin.html" target="_top" xlink:title=" ">
<polygon fill="white" stroke="#666666" points="782.5,-765.5 617.25,-765.5 617.25,-735 782.5,-735 782.5,-765.5"/>
<text text-anchor="start" x="625.25" y="-752" font-family="Helvetica,sans-Serif" font-size="10.00">com.fs.starfarer.api.impl.campaign.</text>
<text text-anchor="middle" x="699.88" y="-740.75" font-family="Helvetica,sans-Serif" font-size="10.00">NavBuoyEntityPlugin</text>
</a>
</g>
</g>
<!-- Node4&#45;&gt;Node6 -->
<g id="edge5_Node000004_Node000006" class="edge">
<title>Node4&#45;&gt;Node6</title>
<g id="a_edge5_Node000004_Node000006"><a xlink:title=" ">
<path fill="none" stroke="#63b8ff" d="M576.09,-750.25C589.67,-750.25 603.58,-750.25 616.92,-750.25"/>
<polygon fill="#63b8ff" stroke="#63b8ff" points="576.28,-746.75 566.28,-750.25 576.28,-753.75 576.28,-746.75"/>
</a>
</g>
</g>
<!-- Node7 -->
<g id="Node000007" class="node">
<title>Node7</title>
<g id="a_Node000007"><a xlink:href="classcom_1_1fs_1_1starfarer_1_1api_1_1impl_1_1campaign_1_1SensorArrayEntityPlugin.html" target="_top" xlink:title=" ">
<polygon fill="white" stroke="#666666" points="782.5,-716.5 617.25,-716.5 617.25,-686 782.5,-686 782.5,-716.5"/>
<text text-anchor="start" x="625.25" y="-703" font-family="Helvetica,sans-Serif" font-size="10.00">com.fs.starfarer.api.impl.campaign.</text>
<text text-anchor="middle" x="699.88" y="-691.75" font-family="Helvetica,sans-Serif" font-size="10.00">SensorArrayEntityPlugin</text>
</a>
</g>
</g>
<!-- Node4&#45;&gt;Node7 -->
<g id="edge6_Node000004_Node000007" class="edge">
<title>Node4&#45;&gt;Node7</title>
<g id="a_edge6_Node000004_Node000007"><a xlink:title=" ">
<path fill="none" stroke="#63b8ff" d="M562.96,-732.06C584.86,-727.1 608.39,-721.76 629.62,-716.95"/>
<polygon fill="#63b8ff" stroke="#63b8ff" points="562.48,-728.58 553.5,-734.21 564.03,-735.41 562.48,-728.58"/>
</a>
</g>
</g>
</g>
</svg>
