<?xml version="1.0" encoding="UTF-8" standalone="no"?>
<!DOCTYPE svg PUBLIC "-//W3C//DTD SVG 1.1//EN"
 "http://www.w3.org/Graphics/SVG/1.1/DTD/svg11.dtd">
<!-- Generated by graphviz version 9.0.0 (20230911.1827)
 -->
<!-- Title: com.fs.starfarer.api.impl.campaign.intel.events.HostileActivityFactor Pages: 1 -->
<svg width="731pt" height="88pt"
 viewBox="0.00 0.00 731.00 87.50" xmlns="http://www.w3.org/2000/svg" xmlns:xlink="http://www.w3.org/1999/xlink">
<g id="graph0" class="graph" transform="scale(1 1) rotate(0) translate(4 83.5)">
<title>com.fs.starfarer.api.impl.campaign.intel.events.HostileActivityFactor</title>
<!-- Node1 -->
<g id="Node000001" class="node">
<title>Node1</title>
<g id="a_Node000001"><a xlink:title=" ">
<polygon fill="#999999" stroke="#666666" points="217,-54.5 0,-54.5 0,-24 217,-24 217,-54.5"/>
<text text-anchor="start" x="8" y="-41" font-family="Helvetica,sans-Serif" font-size="10.00">com.fs.starfarer.api.impl.campaign.intel.events.</text>
<text text-anchor="middle" x="108.5" y="-29.75" font-family="Helvetica,sans-Serif" font-size="10.00">HostileActivityFactor</text>
</a>
</g>
</g>
<!-- Node2 -->
<g id="Node000002" class="node">
<title>Node2</title>
<g id="a_Node000002"><a xlink:href="classcom_1_1fs_1_1starfarer_1_1api_1_1impl_1_1campaign_1_1intel_1_1events_1_1BaseHostileActivityFactor.html" target="_top" xlink:title=" ">
<polygon fill="white" stroke="#666666" points="470,-54.5 253,-54.5 253,-24 470,-24 470,-54.5"/>
<text text-anchor="start" x="261" y="-41" font-family="Helvetica,sans-Serif" font-size="10.00">com.fs.starfarer.api.impl.campaign.intel.events.</text>
<text text-anchor="middle" x="361.5" y="-29.75" font-family="Helvetica,sans-Serif" font-size="10.00">BaseHostileActivityFactor</text>
</a>
</g>
</g>
<!-- Node1&#45;&gt;Node2 -->
<g id="edge1_Node000001_Node000002" class="edge">
<title>Node1&#45;&gt;Node2</title>
<g id="a_edge1_Node000001_Node000002"><a xlink:title=" ">
<path fill="none" stroke="#63b8ff" d="M228.69,-39.25C236.7,-39.25 244.74,-39.25 252.69,-39.25"/>
<polygon fill="#63b8ff" stroke="#63b8ff" points="228.92,-35.75 218.92,-39.25 228.92,-42.75 228.92,-35.75"/>
</a>
</g>
</g>
<!-- Node3 -->
<g id="Node000003" class="node">
<title>Node3</title>
<g id="a_Node000003"><a xlink:href="classcom_1_1fs_1_1starfarer_1_1api_1_1impl_1_1campaign_1_1intel_1_1events_1_1LuddicPathHostileActivityFactor.html" target="_top" xlink:title=" ">
<polygon fill="white" stroke="#666666" points="723,-79.5 506,-79.5 506,-49 723,-49 723,-79.5"/>
<text text-anchor="start" x="514" y="-66" font-family="Helvetica,sans-Serif" font-size="10.00">com.fs.starfarer.api.impl.campaign.intel.events.</text>
<text text-anchor="middle" x="614.5" y="-54.75" font-family="Helvetica,sans-Serif" font-size="10.00">LuddicPathHostileActivityFactor</text>
</a>
</g>
</g>
<!-- Node2&#45;&gt;Node3 -->
<g id="edge2_Node000002_Node000003" class="edge">
<title>Node2&#45;&gt;Node3</title>
<g id="a_edge2_Node000002_Node000003"><a xlink:title=" ">
<path fill="none" stroke="#63b8ff" d="M481.69,-51.12C489.7,-51.92 497.74,-52.72 505.69,-53.51"/>
<polygon fill="#63b8ff" stroke="#63b8ff" points="482.21,-47.66 471.91,-50.15 481.51,-54.62 482.21,-47.66"/>
</a>
</g>
</g>
<!-- Node4 -->
<g id="Node000004" class="node">
<title>Node4</title>
<g id="a_Node000004"><a xlink:href="classcom_1_1fs_1_1starfarer_1_1api_1_1impl_1_1campaign_1_1intel_1_1events_1_1PirateHostileActivityFactor.html" target="_top" xlink:title=" ">
<polygon fill="white" stroke="#666666" points="723,-30.5 506,-30.5 506,0 723,0 723,-30.5"/>
<text text-anchor="start" x="514" y="-17" font-family="Helvetica,sans-Serif" font-size="10.00">com.fs.starfarer.api.impl.campaign.intel.events.</text>
<text text-anchor="middle" x="614.5" y="-5.75" font-family="Helvetica,sans-Serif" font-size="10.00">PirateHostileActivityFactor</text>
</a>
</g>
</g>
<!-- Node2&#45;&gt;Node4 -->
<g id="edge3_Node000002_Node000004" class="edge">
<title>Node2&#45;&gt;Node4</title>
<g id="a_edge3_Node000002_Node000004"><a xlink:title=" ">
<path fill="none" stroke="#63b8ff" d="M481.69,-27.85C489.7,-27.09 497.74,-26.32 505.69,-25.56"/>
<polygon fill="#63b8ff" stroke="#63b8ff" points="481.53,-24.35 471.91,-28.79 482.2,-31.32 481.53,-24.35"/>
</a>
</g>
</g>
</g>
</svg>
