<?xml version="1.0" encoding="UTF-8" standalone="no"?>
<!DOCTYPE svg PUBLIC "-//W3C//DTD SVG 1.1//EN"
 "http://www.w3.org/Graphics/SVG/1.1/DTD/svg11.dtd">
<!-- Generated by graphviz version 2.44.0 ()
 -->
<!-- Title: com.fs.starfarer.api.characters.SkillsChangeEffect Pages: 1 -->
<svg width="560pt" height="186pt"
 viewBox="0.00 0.00 560.00 186.00" xmlns="http://www.w3.org/2000/svg" xmlns:xlink="http://www.w3.org/1999/xlink">
<g id="graph0" class="graph" transform="scale(1 1) rotate(0) translate(4 182)">
<title>com.fs.starfarer.api.characters.SkillsChangeEffect</title>
<!-- Node1 -->
<g id="node1" class="node">
<title>Node1</title>
<g id="a_node1"><a xlink:title=" ">
<polygon fill="#bfbfbf" stroke="black" points="0,-73.5 0,-103.5 149,-103.5 149,-73.5 0,-73.5"/>
<text text-anchor="start" x="8" y="-91.5" font-family="Helvetica,sans-Serif" font-size="10.00">com.fs.starfarer.api.characters.</text>
<text text-anchor="middle" x="74.5" y="-80.5" font-family="Helvetica,sans-Serif" font-size="10.00">SkillsChangeEffect</text>
</a>
</g>
</g>
<!-- Node2 -->
<g id="node2" class="node">
<title>Node2</title>
<g id="a_node2"><a xlink:href="classcom_1_1fs_1_1starfarer_1_1api_1_1characters_1_1BaseSkillsChangeEffect.html" target="_top" xlink:title=" ">
<polygon fill="none" stroke="black" points="185,-73.5 185,-103.5 334,-103.5 334,-73.5 185,-73.5"/>
<text text-anchor="start" x="193" y="-91.5" font-family="Helvetica,sans-Serif" font-size="10.00">com.fs.starfarer.api.characters.</text>
<text text-anchor="middle" x="259.5" y="-80.5" font-family="Helvetica,sans-Serif" font-size="10.00">BaseSkillsChangeEffect</text>
</a>
</g>
</g>
<!-- Node1&#45;&gt;Node2 -->
<g id="edge1" class="edge">
<title>Node1&#45;&gt;Node2</title>
<path fill="none" stroke="midnightblue" d="M159.39,-88.5C167.84,-88.5 176.38,-88.5 184.71,-88.5"/>
<polygon fill="midnightblue" stroke="midnightblue" points="159.14,-85 149.14,-88.5 159.14,-92 159.14,-85"/>
</g>
<!-- Node3 -->
<g id="node3" class="node">
<title>Node3</title>
<g id="a_node3"><a xlink:href="classcom_1_1fs_1_1starfarer_1_1api_1_1characters_1_1SkillsChangeOfficerEffect.html" target="_top" xlink:title=" ">
<polygon fill="none" stroke="black" points="386.5,-147.5 386.5,-177.5 535.5,-177.5 535.5,-147.5 386.5,-147.5"/>
<text text-anchor="start" x="394.5" y="-165.5" font-family="Helvetica,sans-Serif" font-size="10.00">com.fs.starfarer.api.characters.</text>
<text text-anchor="middle" x="461" y="-154.5" font-family="Helvetica,sans-Serif" font-size="10.00">SkillsChangeOfficerEffect</text>
</a>
</g>
</g>
<!-- Node2&#45;&gt;Node3 -->
<g id="edge2" class="edge">
<title>Node2&#45;&gt;Node3</title>
<path fill="none" stroke="midnightblue" d="M299.23,-108.11C319.89,-118.08 345.95,-129.87 370,-138.5 378.98,-141.72 388.6,-144.73 398.09,-147.46"/>
<polygon fill="midnightblue" stroke="midnightblue" points="300.67,-104.92 290.15,-103.68 297.6,-111.21 300.67,-104.92"/>
</g>
<!-- Node4 -->
<g id="node4" class="node">
<title>Node4</title>
<g id="a_node4"><a xlink:href="classcom_1_1fs_1_1starfarer_1_1api_1_1characters_1_1SkillsChangeRemoveExcessOPEffect.html" target="_top" xlink:title=" ">
<polygon fill="none" stroke="black" points="371,-98.5 371,-128.5 551,-128.5 551,-98.5 371,-98.5"/>
<text text-anchor="start" x="379" y="-116.5" font-family="Helvetica,sans-Serif" font-size="10.00">com.fs.starfarer.api.characters.</text>
<text text-anchor="middle" x="461" y="-105.5" font-family="Helvetica,sans-Serif" font-size="10.00">SkillsChangeRemoveExcessOPEffect</text>
</a>
</g>
</g>
<!-- Node2&#45;&gt;Node4 -->
<g id="edge3" class="edge">
<title>Node2&#45;&gt;Node4</title>
<path fill="none" stroke="midnightblue" d="M344.35,-99.01C353.06,-100.1 361.93,-101.21 370.7,-102.31"/>
<polygon fill="midnightblue" stroke="midnightblue" points="344.58,-95.51 334.22,-97.74 343.71,-102.45 344.58,-95.51"/>
</g>
<!-- Node5 -->
<g id="node5" class="node">
<title>Node5</title>
<g id="a_node5"><a xlink:href="classcom_1_1fs_1_1starfarer_1_1api_1_1characters_1_1SkillsChangeRemoveSmodsEffect.html" target="_top" xlink:title=" ">
<polygon fill="none" stroke="black" points="378.5,-49.5 378.5,-79.5 543.5,-79.5 543.5,-49.5 378.5,-49.5"/>
<text text-anchor="start" x="386.5" y="-67.5" font-family="Helvetica,sans-Serif" font-size="10.00">com.fs.starfarer.api.characters.</text>
<text text-anchor="middle" x="461" y="-56.5" font-family="Helvetica,sans-Serif" font-size="10.00">SkillsChangeRemoveSmodsEffect</text>
</a>
</g>
</g>
<!-- Node2&#45;&gt;Node5 -->
<g id="edge4" class="edge">
<title>Node2&#45;&gt;Node5</title>
<path fill="none" stroke="midnightblue" d="M344.4,-78.41C355.58,-77.06 367.04,-75.68 378.19,-74.34"/>
<polygon fill="midnightblue" stroke="midnightblue" points="343.73,-74.96 334.22,-79.63 344.57,-81.91 343.73,-74.96"/>
</g>
<!-- Node6 -->
<g id="node6" class="node">
<title>Node6</title>
<g id="a_node6"><a xlink:href="classcom_1_1fs_1_1starfarer_1_1api_1_1characters_1_1SkillsChangeRemoveVentsCapsEffect.html" target="_top" xlink:title=" ">
<polygon fill="none" stroke="black" points="370,-0.5 370,-30.5 552,-30.5 552,-0.5 370,-0.5"/>
<text text-anchor="start" x="378" y="-18.5" font-family="Helvetica,sans-Serif" font-size="10.00">com.fs.starfarer.api.characters.</text>
<text text-anchor="middle" x="461" y="-7.5" font-family="Helvetica,sans-Serif" font-size="10.00">SkillsChangeRemoveVentsCapsEffect</text>
</a>
</g>
</g>
<!-- Node2&#45;&gt;Node6 -->
<g id="edge5" class="edge">
<title>Node2&#45;&gt;Node6</title>
<path fill="none" stroke="midnightblue" d="M300.95,-69.12C321.38,-59.76 346.7,-48.79 370,-40.5 379.93,-36.96 390.62,-33.61 401.04,-30.58"/>
<polygon fill="midnightblue" stroke="midnightblue" points="299.25,-66.05 291.65,-73.43 302.19,-72.41 299.25,-66.05"/>
</g>
</g>
</svg>
