<?xml version="1.0" encoding="UTF-8" standalone="no"?>
<!DOCTYPE svg PUBLIC "-//W3C//DTD SVG 1.1//EN"
 "http://www.w3.org/Graphics/SVG/1.1/DTD/svg11.dtd">
<!-- Generated by graphviz version 2.44.0 ()
 -->
<!-- Title: com.fs.starfarer.api.impl.campaign.ghosts.GhostBehaviorInterrupt Pages: 1 -->
<svg width="671pt" height="480pt"
 viewBox="0.00 0.00 671.00 480.00" xmlns="http://www.w3.org/2000/svg" xmlns:xlink="http://www.w3.org/1999/xlink">
<g id="graph0" class="graph" transform="scale(1 1) rotate(0) translate(4 476)">
<title>com.fs.starfarer.api.impl.campaign.ghosts.GhostBehaviorInterrupt</title>
<!-- Node1 -->
<g id="node1" class="node">
<title>Node1</title>
<g id="a_node1"><a xlink:title=" ">
<polygon fill="#bfbfbf" stroke="black" points="0,-220.5 0,-250.5 197,-250.5 197,-220.5 0,-220.5"/>
<text text-anchor="start" x="8" y="-238.5" font-family="Helvetica,sans-Serif" font-size="10.00">com.fs.starfarer.api.impl.campaign.ghosts.</text>
<text text-anchor="middle" x="98.5" y="-227.5" font-family="Helvetica,sans-Serif" font-size="10.00">GhostBehaviorInterrupt</text>
</a>
</g>
</g>
<!-- Node2 -->
<g id="node2" class="node">
<title>Node2</title>
<g id="a_node2"><a xlink:href="classcom_1_1fs_1_1starfarer_1_1api_1_1impl_1_1campaign_1_1ghosts_1_1BaseGhostBehaviorInterrupt.html" target="_top" xlink:title=" ">
<polygon fill="none" stroke="black" points="233,-220.5 233,-250.5 430,-250.5 430,-220.5 233,-220.5"/>
<text text-anchor="start" x="241" y="-238.5" font-family="Helvetica,sans-Serif" font-size="10.00">com.fs.starfarer.api.impl.campaign.ghosts.</text>
<text text-anchor="middle" x="331.5" y="-227.5" font-family="Helvetica,sans-Serif" font-size="10.00">BaseGhostBehaviorInterrupt</text>
</a>
</g>
</g>
<!-- Node1&#45;&gt;Node2 -->
<g id="edge1" class="edge">
<title>Node1&#45;&gt;Node2</title>
<path fill="none" stroke="midnightblue" d="M207.15,-235.5C215.72,-235.5 224.35,-235.5 232.85,-235.5"/>
<polygon fill="midnightblue" stroke="midnightblue" points="207.13,-232 197.13,-235.5 207.13,-239 207.13,-232"/>
</g>
<!-- Node3 -->
<g id="node3" class="node">
<title>Node3</title>
<g id="a_node3"><a xlink:href="classcom_1_1fs_1_1starfarer_1_1api_1_1impl_1_1campaign_1_1ghosts_1_1GBIDespawn.html" target="_top" xlink:title=" ">
<polygon fill="none" stroke="black" points="466,-441.5 466,-471.5 663,-471.5 663,-441.5 466,-441.5"/>
<text text-anchor="start" x="474" y="-459.5" font-family="Helvetica,sans-Serif" font-size="10.00">com.fs.starfarer.api.impl.campaign.ghosts.</text>
<text text-anchor="middle" x="564.5" y="-448.5" font-family="Helvetica,sans-Serif" font-size="10.00">GBIDespawn</text>
</a>
</g>
</g>
<!-- Node2&#45;&gt;Node3 -->
<g id="edge2" class="edge">
<title>Node2&#45;&gt;Node3</title>
<path fill="none" stroke="midnightblue" d="M342.13,-260.11C359.93,-302.26 402.1,-388 466,-432.5 470.86,-435.89 476.16,-438.8 481.68,-441.3"/>
<polygon fill="midnightblue" stroke="midnightblue" points="345.27,-258.54 338.23,-250.62 338.8,-261.2 345.27,-258.54"/>
</g>
<!-- Node4 -->
<g id="node4" class="node">
<title>Node4</title>
<g id="a_node4"><a xlink:href="classcom_1_1fs_1_1starfarer_1_1api_1_1impl_1_1campaign_1_1ghosts_1_1GBIGenerateSlipstream.html" target="_top" xlink:title=" ">
<polygon fill="none" stroke="black" points="466,-392.5 466,-422.5 663,-422.5 663,-392.5 466,-392.5"/>
<text text-anchor="start" x="474" y="-410.5" font-family="Helvetica,sans-Serif" font-size="10.00">com.fs.starfarer.api.impl.campaign.ghosts.</text>
<text text-anchor="middle" x="564.5" y="-399.5" font-family="Helvetica,sans-Serif" font-size="10.00">GBIGenerateSlipstream</text>
</a>
</g>
</g>
<!-- Node2&#45;&gt;Node4 -->
<g id="edge3" class="edge">
<title>Node2&#45;&gt;Node4</title>
<path fill="none" stroke="midnightblue" d="M347.32,-259.4C369.13,-292.52 413.07,-351.84 466,-383.5 471.76,-386.95 477.99,-389.9 484.42,-392.43"/>
<polygon fill="midnightblue" stroke="midnightblue" points="350.13,-257.31 341.76,-250.8 344.25,-261.1 350.13,-257.31"/>
</g>
<!-- Node5 -->
<g id="node5" class="node">
<title>Node5</title>
<g id="a_node5"><a xlink:href="classcom_1_1fs_1_1starfarer_1_1api_1_1impl_1_1campaign_1_1ghosts_1_1GBIPlaySound.html" target="_top" xlink:title=" ">
<polygon fill="none" stroke="black" points="466,-343.5 466,-373.5 663,-373.5 663,-343.5 466,-343.5"/>
<text text-anchor="start" x="474" y="-361.5" font-family="Helvetica,sans-Serif" font-size="10.00">com.fs.starfarer.api.impl.campaign.ghosts.</text>
<text text-anchor="middle" x="564.5" y="-350.5" font-family="Helvetica,sans-Serif" font-size="10.00">GBIPlaySound</text>
</a>
</g>
</g>
<!-- Node2&#45;&gt;Node5 -->
<g id="edge4" class="edge">
<title>Node2&#45;&gt;Node5</title>
<path fill="none" stroke="midnightblue" d="M355.97,-257.52C381.26,-280.06 423.59,-314.55 466,-334.5 473.26,-337.91 481.05,-340.88 488.96,-343.44"/>
<polygon fill="midnightblue" stroke="midnightblue" points="358.15,-254.76 348.39,-250.65 353.45,-259.95 358.15,-254.76"/>
</g>
<!-- Node6 -->
<g id="node6" class="node">
<title>Node6</title>
<g id="a_node6"><a xlink:href="classcom_1_1fs_1_1starfarer_1_1api_1_1impl_1_1campaign_1_1ghosts_1_1GBIRemoraDrain.html" target="_top" xlink:title=" ">
<polygon fill="none" stroke="black" points="466,-294.5 466,-324.5 663,-324.5 663,-294.5 466,-294.5"/>
<text text-anchor="start" x="474" y="-312.5" font-family="Helvetica,sans-Serif" font-size="10.00">com.fs.starfarer.api.impl.campaign.ghosts.</text>
<text text-anchor="middle" x="564.5" y="-301.5" font-family="Helvetica,sans-Serif" font-size="10.00">GBIRemoraDrain</text>
</a>
</g>
</g>
<!-- Node2&#45;&gt;Node6 -->
<g id="edge5" class="edge">
<title>Node2&#45;&gt;Node6</title>
<path fill="none" stroke="midnightblue" d="M378.63,-254.3C404.14,-264.31 436.54,-276.39 466,-285.5 476.24,-288.67 487.19,-291.7 497.91,-294.47"/>
<polygon fill="midnightblue" stroke="midnightblue" points="379.8,-251 369.22,-250.58 377.23,-257.51 379.8,-251"/>
</g>
<!-- Node7 -->
<g id="node7" class="node">
<title>Node7</title>
<g id="a_node7"><a xlink:href="classcom_1_1fs_1_1starfarer_1_1api_1_1impl_1_1campaign_1_1ghosts_1_1GBIRunEveryFrame.html" target="_top" xlink:title=" ">
<polygon fill="none" stroke="black" points="466,-245.5 466,-275.5 663,-275.5 663,-245.5 466,-245.5"/>
<text text-anchor="start" x="474" y="-263.5" font-family="Helvetica,sans-Serif" font-size="10.00">com.fs.starfarer.api.impl.campaign.ghosts.</text>
<text text-anchor="middle" x="564.5" y="-252.5" font-family="Helvetica,sans-Serif" font-size="10.00">GBIRunEveryFrame</text>
</a>
</g>
</g>
<!-- Node2&#45;&gt;Node7 -->
<g id="edge6" class="edge">
<title>Node2&#45;&gt;Node7</title>
<path fill="none" stroke="midnightblue" d="M440.15,-247.15C448.72,-248.08 457.35,-249.01 465.85,-249.93"/>
<polygon fill="midnightblue" stroke="midnightblue" points="440.45,-243.66 430.13,-246.07 439.7,-250.62 440.45,-243.66"/>
</g>
<!-- Node8 -->
<g id="node8" class="node">
<title>Node8</title>
<g id="a_node8"><a xlink:href="classcom_1_1fs_1_1starfarer_1_1api_1_1impl_1_1campaign_1_1ghosts_1_1GBIRunScript.html" target="_top" xlink:title=" ">
<polygon fill="none" stroke="black" points="466,-196.5 466,-226.5 663,-226.5 663,-196.5 466,-196.5"/>
<text text-anchor="start" x="474" y="-214.5" font-family="Helvetica,sans-Serif" font-size="10.00">com.fs.starfarer.api.impl.campaign.ghosts.</text>
<text text-anchor="middle" x="564.5" y="-203.5" font-family="Helvetica,sans-Serif" font-size="10.00">GBIRunScript</text>
</a>
</g>
</g>
<!-- Node2&#45;&gt;Node8 -->
<g id="edge7" class="edge">
<title>Node2&#45;&gt;Node8</title>
<path fill="none" stroke="midnightblue" d="M440.15,-224.32C448.72,-223.42 457.35,-222.53 465.85,-221.65"/>
<polygon fill="midnightblue" stroke="midnightblue" points="439.71,-220.84 430.13,-225.36 440.44,-227.8 439.71,-220.84"/>
</g>
<!-- Node9 -->
<g id="node9" class="node">
<title>Node9</title>
<g id="a_node9"><a xlink:href="classcom_1_1fs_1_1starfarer_1_1api_1_1impl_1_1campaign_1_1ghosts_1_1GBITooClose.html" target="_top" xlink:title=" ">
<polygon fill="none" stroke="black" points="466,-147.5 466,-177.5 663,-177.5 663,-147.5 466,-147.5"/>
<text text-anchor="start" x="474" y="-165.5" font-family="Helvetica,sans-Serif" font-size="10.00">com.fs.starfarer.api.impl.campaign.ghosts.</text>
<text text-anchor="middle" x="564.5" y="-154.5" font-family="Helvetica,sans-Serif" font-size="10.00">GBITooClose</text>
</a>
</g>
</g>
<!-- Node2&#45;&gt;Node9 -->
<g id="edge8" class="edge">
<title>Node2&#45;&gt;Node9</title>
<path fill="none" stroke="midnightblue" d="M380.99,-216.82C406.16,-207.44 437.53,-196.25 466,-187.5 477.28,-184.04 489.38,-180.66 501.1,-177.57"/>
<polygon fill="midnightblue" stroke="midnightblue" points="379.45,-213.66 371.31,-220.45 381.91,-220.22 379.45,-213.66"/>
</g>
<!-- Node10 -->
<g id="node10" class="node">
<title>Node10</title>
<g id="a_node10"><a xlink:href="classcom_1_1fs_1_1starfarer_1_1api_1_1impl_1_1campaign_1_1ghosts_1_1GBITooCloseToOther.html" target="_top" xlink:title=" ">
<polygon fill="none" stroke="black" points="466,-98.5 466,-128.5 663,-128.5 663,-98.5 466,-98.5"/>
<text text-anchor="start" x="474" y="-116.5" font-family="Helvetica,sans-Serif" font-size="10.00">com.fs.starfarer.api.impl.campaign.ghosts.</text>
<text text-anchor="middle" x="564.5" y="-105.5" font-family="Helvetica,sans-Serif" font-size="10.00">GBITooCloseToOther</text>
</a>
</g>
</g>
<!-- Node2&#45;&gt;Node10 -->
<g id="edge9" class="edge">
<title>Node2&#45;&gt;Node10</title>
<path fill="none" stroke="midnightblue" d="M356.52,-213.66C381.95,-191.65 424.13,-158.2 466,-138.5 474.14,-134.67 482.96,-131.37 491.84,-128.54"/>
<polygon fill="midnightblue" stroke="midnightblue" points="354.08,-211.15 348.87,-220.38 358.7,-216.41 354.08,-211.15"/>
</g>
<!-- Node11 -->
<g id="node11" class="node">
<title>Node11</title>
<g id="a_node11"><a xlink:href="classcom_1_1fs_1_1starfarer_1_1api_1_1impl_1_1campaign_1_1ghosts_1_1GBITowardsDirection.html" target="_top" xlink:title=" ">
<polygon fill="none" stroke="black" points="466,-49.5 466,-79.5 663,-79.5 663,-49.5 466,-49.5"/>
<text text-anchor="start" x="474" y="-67.5" font-family="Helvetica,sans-Serif" font-size="10.00">com.fs.starfarer.api.impl.campaign.ghosts.</text>
<text text-anchor="middle" x="564.5" y="-56.5" font-family="Helvetica,sans-Serif" font-size="10.00">GBITowardsDirection</text>
</a>
</g>
</g>
<!-- Node2&#45;&gt;Node11 -->
<g id="edge10" class="edge">
<title>Node2&#45;&gt;Node11</title>
<path fill="none" stroke="midnightblue" d="M347.44,-211.99C369.39,-179.42 413.51,-121 466,-89.5 472.44,-85.63 479.47,-82.36 486.71,-79.59"/>
<polygon fill="midnightblue" stroke="midnightblue" points="344.44,-210.18 341.85,-220.45 350.28,-214.04 344.44,-210.18"/>
</g>
<!-- Node12 -->
<g id="node12" class="node">
<title>Node12</title>
<g id="a_node12"><a xlink:href="classcom_1_1fs_1_1starfarer_1_1api_1_1impl_1_1campaign_1_1ghosts_1_1GBITowardsEntity.html" target="_top" xlink:title=" ">
<polygon fill="none" stroke="black" points="466,-0.5 466,-30.5 663,-30.5 663,-0.5 466,-0.5"/>
<text text-anchor="start" x="474" y="-18.5" font-family="Helvetica,sans-Serif" font-size="10.00">com.fs.starfarer.api.impl.campaign.ghosts.</text>
<text text-anchor="middle" x="564.5" y="-7.5" font-family="Helvetica,sans-Serif" font-size="10.00">GBITowardsEntity</text>
</a>
</g>
</g>
<!-- Node2&#45;&gt;Node12 -->
<g id="edge11" class="edge">
<title>Node2&#45;&gt;Node12</title>
<path fill="none" stroke="midnightblue" d="M342.38,-210.9C360.43,-169.16 402.81,-84.73 466,-40.5 471.58,-36.59 477.73,-33.29 484.13,-30.51"/>
<polygon fill="midnightblue" stroke="midnightblue" points="339.07,-209.73 338.41,-220.3 345.52,-212.45 339.07,-209.73"/>
</g>
</g>
</svg>
