<?xml version="1.0" encoding="UTF-8" standalone="no"?>
<!DOCTYPE svg PUBLIC "-//W3C//DTD SVG 1.1//EN"
 "http://www.w3.org/Graphics/SVG/1.1/DTD/svg11.dtd">
<!-- Generated by graphviz version 12.2.0 (20241103.1931)
 -->
<!-- Title: com.fs.starfarer.api.impl.campaign.procgen.themes.BaseAssignmentAI.FleetActionDelegate Pages: 1 -->
<svg width="513pt" height="186pt"
 viewBox="0.00 0.00 512.50 185.50" xmlns="http://www.w3.org/2000/svg" xmlns:xlink="http://www.w3.org/1999/xlink">
<g id="graph0" class="graph" transform="scale(1 1) rotate(0) translate(4 181.5)">
<title>com.fs.starfarer.api.impl.campaign.procgen.themes.BaseAssignmentAI.FleetActionDelegate</title>
<!-- Node1 -->
<g id="Node000001" class="node">
<title>Node1</title>
<g id="a_Node000001"><a xlink:title=" ">
<polygon fill="#999999" stroke="#666666" points="236.5,-103.5 0,-103.5 0,-73 236.5,-73 236.5,-103.5"/>
<text text-anchor="start" x="8" y="-90" font-family="Helvetica,sans-Serif" font-size="10.00">com.fs.starfarer.api.impl.campaign.procgen.themes.</text>
<text text-anchor="middle" x="118.25" y="-78.75" font-family="Helvetica,sans-Serif" font-size="10.00">BaseAssignmentAI.FleetActionDelegate</text>
</a>
</g>
</g>
<!-- Node2 -->
<g id="Node000002" class="node">
<title>Node2</title>
<g id="a_Node000002"><a xlink:href="classcom_1_1fs_1_1starfarer_1_1api_1_1impl_1_1campaign_1_1intel_1_1group_1_1FGRaidAction.html" target="_top" xlink:title=" ">
<polygon fill="white" stroke="#666666" points="494.38,-177.5 282.62,-177.5 282.62,-147 494.38,-147 494.38,-177.5"/>
<text text-anchor="start" x="290.62" y="-164" font-family="Helvetica,sans-Serif" font-size="10.00">com.fs.starfarer.api.impl.campaign.intel.group.</text>
<text text-anchor="middle" x="388.5" y="-152.75" font-family="Helvetica,sans-Serif" font-size="10.00">FGRaidAction</text>
</a>
</g>
</g>
<!-- Node1&#45;&gt;Node2 -->
<g id="edge1_Node000001_Node000002" class="edge">
<title>Node1&#45;&gt;Node2</title>
<g id="a_edge1_Node000001_Node000002"><a xlink:title=" ">
<path fill="none" stroke="#63b8ff" d="M175.21,-107.56C204.07,-117.15 239.96,-128.53 272.5,-137.25 284.64,-140.5 297.58,-143.63 310.24,-146.52"/>
<polygon fill="#63b8ff" stroke="#63b8ff" points="176.54,-104.31 165.95,-104.46 174.32,-110.95 176.54,-104.31"/>
</a>
</g>
</g>
<!-- Node3 -->
<g id="Node000003" class="node">
<title>Node3</title>
<g id="a_Node000003"><a xlink:href="classcom_1_1fs_1_1starfarer_1_1api_1_1impl_1_1campaign_1_1intel_1_1inspection_1_1HIActionStage.html" target="_top" xlink:title=" ">
<polygon fill="white" stroke="#666666" points="504.5,-128.5 272.5,-128.5 272.5,-98 504.5,-98 504.5,-128.5"/>
<text text-anchor="start" x="280.5" y="-115" font-family="Helvetica,sans-Serif" font-size="10.00">com.fs.starfarer.api.impl.campaign.intel.inspection.</text>
<text text-anchor="middle" x="388.5" y="-103.75" font-family="Helvetica,sans-Serif" font-size="10.00">HIActionStage</text>
</a>
</g>
</g>
<!-- Node1&#45;&gt;Node3 -->
<g id="edge2_Node000001_Node000003" class="edge">
<title>Node1&#45;&gt;Node3</title>
<g id="a_edge2_Node000001_Node000003"><a xlink:title=" ">
<path fill="none" stroke="#63b8ff" d="M248.18,-100.27C256.17,-101.01 264.18,-101.76 272.11,-102.5"/>
<polygon fill="#63b8ff" stroke="#63b8ff" points="248.7,-96.8 238.42,-99.36 248.05,-103.77 248.7,-96.8"/>
</a>
</g>
</g>
<!-- Node4 -->
<g id="Node000004" class="node">
<title>Node4</title>
<g id="a_Node000004"><a xlink:href="classcom_1_1fs_1_1starfarer_1_1api_1_1impl_1_1campaign_1_1intel_1_1punitive_1_1PEActionStage.html" target="_top" xlink:title=" ">
<polygon fill="white" stroke="#666666" points="499.25,-79.5 277.75,-79.5 277.75,-49 499.25,-49 499.25,-79.5"/>
<text text-anchor="start" x="285.75" y="-66" font-family="Helvetica,sans-Serif" font-size="10.00">com.fs.starfarer.api.impl.campaign.intel.punitive.</text>
<text text-anchor="middle" x="388.5" y="-54.75" font-family="Helvetica,sans-Serif" font-size="10.00">PEActionStage</text>
</a>
</g>
</g>
<!-- Node1&#45;&gt;Node4 -->
<g id="edge3_Node000001_Node000004" class="edge">
<title>Node1&#45;&gt;Node4</title>
<g id="a_edge3_Node000001_Node000004"><a xlink:title=" ">
<path fill="none" stroke="#63b8ff" d="M248.35,-76.7C258.13,-75.83 267.93,-74.95 277.57,-74.09"/>
<polygon fill="#63b8ff" stroke="#63b8ff" points="248.06,-73.21 238.42,-77.59 248.69,-80.18 248.06,-73.21"/>
</a>
</g>
</g>
<!-- Node5 -->
<g id="Node000005" class="node">
<title>Node5</title>
<g id="a_Node000005"><a xlink:href="classcom_1_1fs_1_1starfarer_1_1api_1_1impl_1_1campaign_1_1intel_1_1raid_1_1PirateRaidActionStage.html" target="_top" xlink:title=" ">
<polygon fill="white" stroke="#666666" points="490.25,-30.5 286.75,-30.5 286.75,0 490.25,0 490.25,-30.5"/>
<text text-anchor="start" x="294.75" y="-17" font-family="Helvetica,sans-Serif" font-size="10.00">com.fs.starfarer.api.impl.campaign.intel.raid.</text>
<text text-anchor="middle" x="388.5" y="-5.75" font-family="Helvetica,sans-Serif" font-size="10.00">PirateRaidActionStage</text>
</a>
</g>
</g>
<!-- Node1&#45;&gt;Node5 -->
<g id="edge4_Node000001_Node000005" class="edge">
<title>Node1&#45;&gt;Node5</title>
<g id="a_edge4_Node000001_Node000005"><a xlink:title=" ">
<path fill="none" stroke="#63b8ff" d="M176.2,-69.08C204.9,-59.76 240.36,-48.76 272.5,-40.25 284.75,-37.01 297.81,-33.87 310.57,-30.98"/>
<polygon fill="#63b8ff" stroke="#63b8ff" points="175.4,-65.66 166.99,-72.09 177.58,-72.31 175.4,-65.66"/>
</a>
</g>
</g>
</g>
</svg>
