<?xml version="1.0" encoding="UTF-8" standalone="no"?>
<!DOCTYPE svg PUBLIC "-//W3C//DTD SVG 1.1//EN"
 "http://www.w3.org/Graphics/SVG/1.1/DTD/svg11.dtd">
<!-- Generated by graphviz version 2.44.0 ()
 -->
<!-- Title: com.fs.starfarer.api.impl.campaign.rulecmd.salvage.SalvageGenFromSeed.SalvageDefenderModificationPlugin Pages: 1 -->
<svg width="833pt" height="39pt"
 viewBox="0.00 0.00 833.00 39.00" xmlns="http://www.w3.org/2000/svg" xmlns:xlink="http://www.w3.org/1999/xlink">
<g id="graph0" class="graph" transform="scale(1 1) rotate(0) translate(4 35)">
<title>com.fs.starfarer.api.impl.campaign.rulecmd.salvage.SalvageGenFromSeed.SalvageDefenderModificationPlugin</title>
<!-- Node1 -->
<g id="node1" class="node">
<title>Node1</title>
<g id="a_node1"><a xlink:title=" ">
<polygon fill="#bfbfbf" stroke="black" points="230,-0.5 230,-30.5 500,-30.5 500,-0.5 230,-0.5"/>
<text text-anchor="start" x="238" y="-18.5" font-family="Helvetica,sans-Serif" font-size="10.00">com.fs.starfarer.api.impl.campaign.rulecmd.salvage.</text>
<text text-anchor="middle" x="365" y="-7.5" font-family="Helvetica,sans-Serif" font-size="10.00">SalvageGenFromSeed.SalvageDefenderModificationPlugin</text>
</a>
</g>
</g>
<!-- Node3 -->
<g id="node3" class="node">
<title>Node3</title>
<g id="a_node3"><a xlink:href="classcom_1_1fs_1_1starfarer_1_1api_1_1impl_1_1campaign_1_1rulecmd_1_1salvage_1_1SalvageGenFromSe153cb471dc7087f7726aa24a04df0947.html" target="_top" xlink:title=" ">
<polygon fill="none" stroke="black" points="536,-0.5 536,-30.5 825,-30.5 825,-0.5 536,-0.5"/>
<text text-anchor="start" x="544" y="-18.5" font-family="Helvetica,sans-Serif" font-size="10.00">com.fs.starfarer.api.impl.campaign.rulecmd.salvage.</text>
<text text-anchor="middle" x="680.5" y="-7.5" font-family="Helvetica,sans-Serif" font-size="10.00">SalvageGenFromSeed.SalvageDefenderModificationPluginImpl</text>
</a>
</g>
</g>
<!-- Node1&#45;&gt;Node3 -->
<g id="edge2" class="edge">
<title>Node1&#45;&gt;Node3</title>
<path fill="none" stroke="midnightblue" d="M510.59,-15.5C519.03,-15.5 527.52,-15.5 535.96,-15.5"/>
<polygon fill="midnightblue" stroke="midnightblue" points="510.32,-12 500.32,-15.5 510.32,-19 510.32,-12"/>
</g>
<!-- Node2 -->
<g id="node2" class="node">
<title>Node2</title>
<g id="a_node2"><a xlink:href="interfacecom_1_1fs_1_1starfarer_1_1api_1_1campaign_1_1GenericPluginManagerAPI_1_1GenericPlugin.html" target="_top" xlink:title=" ">
<polygon fill="none" stroke="black" points="0,-0.5 0,-30.5 194,-30.5 194,-0.5 0,-0.5"/>
<text text-anchor="start" x="8" y="-18.5" font-family="Helvetica,sans-Serif" font-size="10.00">com.fs.starfarer.api.campaign.</text>
<text text-anchor="middle" x="97" y="-7.5" font-family="Helvetica,sans-Serif" font-size="10.00">GenericPluginManagerAPI.GenericPlugin</text>
</a>
</g>
</g>
<!-- Node2&#45;&gt;Node1 -->
<g id="edge1" class="edge">
<title>Node2&#45;&gt;Node1</title>
<path fill="none" stroke="midnightblue" d="M204.19,-15.5C212.59,-15.5 221.13,-15.5 229.68,-15.5"/>
<polygon fill="midnightblue" stroke="midnightblue" points="204.03,-12 194.03,-15.5 204.03,-19 204.03,-12"/>
</g>
</g>
</svg>
