<?xml version="1.0" encoding="UTF-8" standalone="no"?>
<!DOCTYPE svg PUBLIC "-//W3C//DTD SVG 1.1//EN"
 "http://www.w3.org/Graphics/SVG/1.1/DTD/svg11.dtd">
<!-- Generated by graphviz version 2.44.0 ()
 -->
<!-- Title: com.fs.starfarer.api.impl.campaign.intel.bar.events.DeliveryFailureConsequences Pages: 1 -->
<!--zoomable 695 -->
<svg id="main" version="1.1" xmlns="http://www.w3.org/2000/svg" xmlns:xlink="http://www.w3.org/1999/xlink" xml:space="preserve" onload="init(evt)">
<style type="text/css"><![CDATA[
.edge:hover path { stroke: red; }
.edge:hover polygon { stroke: red; fill: red; }
]]></style>
<script type="text/javascript"><![CDATA[
var edges = document.getElementsByTagName('g');
if (edges && edges.length) {
  for (var i=0;i<edges.length;i++) {
    if (edges[i].id.substr(0,4)=='edge') {
      edges[i].setAttribute('class','edge');
    }
  }
}
]]></script>
        <defs>
                <circle id="rim" cx="0" cy="0" r="7"/>
                <circle id="rim2" cx="0" cy="0" r="3.5"/>
                <g id="zoomPlus">
                        <use xlink:href="#rim" fill="#404040">
                                <set attributeName="fill" to="#808080" begin="zoomplus.mouseover" end="zoomplus.mouseout"/>
                        </use>
                        <path d="M-4,0h8M0,-4v8" fill="none" stroke="white" stroke-width="1.5" pointer-events="none"/>
                </g>
                <g id="zoomMin">
                        <use xlink:href="#rim" fill="#404040">
                                <set attributeName="fill" to="#808080" begin="zoomminus.mouseover" end="zoomminus.mouseout"/>
                        </use>
                        <path d="M-4,0h8" fill="none" stroke="white" stroke-width="1.5" pointer-events="none"/>
                </g>
                <g id="dirArrow">
                        <path fill="none" stroke="white" stroke-width="1.5" d="M0,-3.0v7 M-2.5,-0.5L0,-3.0L2.5,-0.5"/>
                </g>
               <g id="resetDef">
                       <use xlink:href="#rim2" fill="#404040">
                               <set attributeName="fill" to="#808080" begin="reset.mouseover" end="reset.mouseout"/>
                       </use>
               </g>
        </defs>

<script type="text/javascript">
var viewWidth = 684;
var viewHeight = 695;
var sectionId = 'dynsection-1';
</script>
<script xlink:href="../../svgpan.js"/>
<svg id="graph" class="graph">
<g id="viewport">
<title>com.fs.starfarer.api.impl.campaign.intel.bar.events.DeliveryFailureConsequences</title>
<!-- Node1 -->
<g id="node1" class="node">
<title>Node1</title>
<g id="a_node1"><a xlink:title=" ">
<polygon fill="#bfbfbf" stroke="black" points="211,-0.5 211,-233.5 444,-233.5 444,-0.5 211,-0.5"/>
<text text-anchor="start" x="219" y="-221.5" font-family="Helvetica,sans-Serif" font-size="10.00">com.fs.starfarer.api.impl.campaign.intel.bar.events.</text>
<text text-anchor="middle" x="327.5" y="-210.5" font-family="Helvetica,sans-Serif" font-size="10.00">DeliveryFailureConsequences</text>
<polyline fill="none" stroke="black" points="211,-203.5 444,-203.5 "/>
<text text-anchor="start" x="219" y="-191.5" font-family="Helvetica,sans-Serif" font-size="10.00">+ RADIUS_FROM_CORE</text>
<text text-anchor="start" x="219" y="-180.5" font-family="Helvetica,sans-Serif" font-size="10.00">+ DAYS_IN_SYSTEM</text>
<text text-anchor="start" x="219" y="-169.5" font-family="Helvetica,sans-Serif" font-size="10.00"># delayDays</text>
<text text-anchor="start" x="219" y="-158.5" font-family="Helvetica,sans-Serif" font-size="10.00"># sentFleet</text>
<text text-anchor="start" x="219" y="-147.5" font-family="Helvetica,sans-Serif" font-size="10.00"># name</text>
<text text-anchor="start" x="219" y="-136.5" font-family="Helvetica,sans-Serif" font-size="10.00"># commodity</text>
<text text-anchor="start" x="219" y="-125.5" font-family="Helvetica,sans-Serif" font-size="10.00"># reward</text>
<text text-anchor="start" x="219" y="-114.5" font-family="Helvetica,sans-Serif" font-size="10.00"># seed</text>
<text text-anchor="start" x="219" y="-103.5" font-family="Helvetica,sans-Serif" font-size="10.00"># daysInSystem</text>
<polyline fill="none" stroke="black" points="211,-96.5 444,-96.5 "/>
<text text-anchor="start" x="219" y="-84.5" font-family="Helvetica,sans-Serif" font-size="10.00">+ DeliveryFailureConsequences()</text>
<text text-anchor="start" x="219" y="-73.5" font-family="Helvetica,sans-Serif" font-size="10.00">+ advance()</text>
<text text-anchor="start" x="219" y="-62.5" font-family="Helvetica,sans-Serif" font-size="10.00">+ isDone()</text>
<text text-anchor="start" x="219" y="-51.5" font-family="Helvetica,sans-Serif" font-size="10.00">+ runWhilePaused()</text>
<text text-anchor="start" x="219" y="-40.5" font-family="Helvetica,sans-Serif" font-size="10.00">+ reportBattleOccurred()</text>
<text text-anchor="start" x="219" y="-29.5" font-family="Helvetica,sans-Serif" font-size="10.00">+ reportFleetDespawnedToListener()</text>
<text text-anchor="start" x="219" y="-18.5" font-family="Helvetica,sans-Serif" font-size="10.00"># sendFleet()</text>
<text text-anchor="start" x="219" y="-7.5" font-family="Helvetica,sans-Serif" font-size="10.00"># createBountyHunter()</text>
</a>
</g>
</g>
<!-- Node2 -->
<g id="node2" class="node">
<title>Node2</title>
<g id="a_node2"><a xlink:href="../../d7/d63/interfacecom_1_1fs_1_1starfarer_1_1api_1_1EveryFrameScript.html" target="_top" xlink:title=" ">
<polygon fill="none" stroke="black" points="0,-331 0,-421 125,-421 125,-331 0,-331"/>
<text text-anchor="start" x="8" y="-409" font-family="Helvetica,sans-Serif" font-size="10.00">com.fs.starfarer.api.Every</text>
<text text-anchor="middle" x="62.5" y="-398" font-family="Helvetica,sans-Serif" font-size="10.00">FrameScript</text>
<polyline fill="none" stroke="black" points="0,-391 125,-391 "/>
<text text-anchor="middle" x="62.5" y="-379" font-family="Helvetica,sans-Serif" font-size="10.00"> </text>
<polyline fill="none" stroke="black" points="0,-372 125,-372 "/>
<text text-anchor="start" x="8" y="-360" font-family="Helvetica,sans-Serif" font-size="10.00">+ isDone()</text>
<text text-anchor="start" x="8" y="-349" font-family="Helvetica,sans-Serif" font-size="10.00">+ runWhilePaused()</text>
<text text-anchor="start" x="8" y="-338" font-family="Helvetica,sans-Serif" font-size="10.00">+ advance()</text>
</a>
</g>
</g>
<!-- Node2&#45;&gt;Node1 -->
<g id="edge1" class="edge">
<title>Node2&#45;&gt;Node1</title>
<path fill="none" stroke="midnightblue" d="M99.41,-322.67C110.14,-308.64 122.29,-293.81 134.5,-281 157.88,-256.48 184.72,-231.91 210.81,-209.56"/>
<polygon fill="none" stroke="midnightblue" points="96.48,-320.74 93.26,-330.83 102.07,-324.95 96.48,-320.74"/>
</g>
<!-- Node3 -->
<g id="node3" class="node">
<title>Node3</title>
<g id="a_node3"><a xlink:href="../../d5/d7b/interfacecom_1_1fs_1_1starfarer_1_1api_1_1campaign_1_1listeners_1_1FleetEventListener.html" target="_top" xlink:title=" ">
<polygon fill="none" stroke="black" points="143,-336.5 143,-415.5 328,-415.5 328,-336.5 143,-336.5"/>
<text text-anchor="start" x="151" y="-403.5" font-family="Helvetica,sans-Serif" font-size="10.00">com.fs.starfarer.api.campaign.listeners.</text>
<text text-anchor="middle" x="235.5" y="-392.5" font-family="Helvetica,sans-Serif" font-size="10.00">FleetEventListener</text>
<polyline fill="none" stroke="black" points="143,-385.5 328,-385.5 "/>
<text text-anchor="middle" x="235.5" y="-373.5" font-family="Helvetica,sans-Serif" font-size="10.00"> </text>
<polyline fill="none" stroke="black" points="143,-366.5 328,-366.5 "/>
<text text-anchor="start" x="151" y="-354.5" font-family="Helvetica,sans-Serif" font-size="10.00">+ reportFleetDespawnedToListener()</text>
<text text-anchor="start" x="151" y="-343.5" font-family="Helvetica,sans-Serif" font-size="10.00">+ reportBattleOccurred()</text>
</a>
</g>
</g>
<!-- Node3&#45;&gt;Node1 -->
<g id="edge2" class="edge">
<title>Node3&#45;&gt;Node1</title>
<path fill="none" stroke="midnightblue" d="M252.85,-326.53C262.29,-300.17 274.39,-266.36 286.1,-233.66"/>
<polygon fill="none" stroke="midnightblue" points="249.45,-325.65 249.37,-336.25 256.04,-328.01 249.45,-325.65"/>
</g>
<!-- Node4 -->
<g id="node4" class="node">
<title>Node4</title>
<g id="a_node4"><a xlink:href="../../d6/d7c/enumcom_1_1fs_1_1starfarer_1_1api_1_1characters_1_1FullName_1_1Gender.html" target="_top" xlink:title=" ">
<polygon fill="none" stroke="black" points="346,-331 346,-421 495,-421 495,-331 346,-331"/>
<text text-anchor="start" x="354" y="-409" font-family="Helvetica,sans-Serif" font-size="10.00">com.fs.starfarer.api.characters.</text>
<text text-anchor="middle" x="420.5" y="-398" font-family="Helvetica,sans-Serif" font-size="10.00">FullName.Gender</text>
<polyline fill="none" stroke="black" points="346,-391 495,-391 "/>
<text text-anchor="start" x="354" y="-379" font-family="Helvetica,sans-Serif" font-size="10.00">+ MALE</text>
<text text-anchor="start" x="354" y="-368" font-family="Helvetica,sans-Serif" font-size="10.00">+ FEMALE</text>
<text text-anchor="start" x="354" y="-357" font-family="Helvetica,sans-Serif" font-size="10.00">+ ANY</text>
<polyline fill="none" stroke="black" points="346,-350 495,-350 "/>
<text text-anchor="middle" x="420.5" y="-338" font-family="Helvetica,sans-Serif" font-size="10.00"> </text>
</a>
</g>
</g>
<!-- Node4&#45;&gt;Node1 -->
<g id="edge3" class="edge">
<title>Node4&#45;&gt;Node1</title>
<path fill="none" stroke="#404040" d="M404.51,-330.82C395.84,-306.85 384.63,-275.88 373.47,-245.02"/>
<polygon fill="none" stroke="#404040" points="373.44,-244.96 367.64,-240.68 369.36,-233.67 375.16,-237.95 373.44,-244.96"/>
<text text-anchor="middle" x="398" y="-255" font-family="Helvetica,sans-Serif" font-size="10.00"> #gender</text>
</g>
<!-- Node5 -->
<g id="node5" class="node">
<title>Node5</title>
<g id="a_node5"><a xlink:href="../../db/d13/interfacecom_1_1fs_1_1starfarer_1_1api_1_1campaign_1_1StarSystemAPI.html" target="_top" xlink:title=" ">
<polygon fill="none" stroke="black" points="513,-281.5 513,-470.5 670,-470.5 670,-281.5 513,-281.5"/>
<text text-anchor="start" x="521" y="-458.5" font-family="Helvetica,sans-Serif" font-size="10.00">com.fs.starfarer.api.campaign.</text>
<text text-anchor="middle" x="591.5" y="-447.5" font-family="Helvetica,sans-Serif" font-size="10.00">StarSystemAPI</text>
<polyline fill="none" stroke="black" points="513,-440.5 670,-440.5 "/>
<text text-anchor="middle" x="591.5" y="-428.5" font-family="Helvetica,sans-Serif" font-size="10.00"> </text>
<polyline fill="none" stroke="black" points="513,-421.5 670,-421.5 "/>
<text text-anchor="start" x="521" y="-409.5" font-family="Helvetica,sans-Serif" font-size="10.00">+ getLocation()</text>
<text text-anchor="start" x="521" y="-398.5" font-family="Helvetica,sans-Serif" font-size="10.00">+ initStar()</text>
<text text-anchor="start" x="521" y="-387.5" font-family="Helvetica,sans-Serif" font-size="10.00">+ initStar()</text>
<text text-anchor="start" x="521" y="-376.5" font-family="Helvetica,sans-Serif" font-size="10.00">+ generateAnchorIfNeeded()</text>
<text text-anchor="start" x="521" y="-365.5" font-family="Helvetica,sans-Serif" font-size="10.00">+ initStar()</text>
<text text-anchor="start" x="521" y="-354.5" font-family="Helvetica,sans-Serif" font-size="10.00">+ initStar()</text>
<text text-anchor="start" x="521" y="-343.5" font-family="Helvetica,sans-Serif" font-size="10.00">+ getHyperspaceAnchor()</text>
<text text-anchor="start" x="521" y="-332.5" font-family="Helvetica,sans-Serif" font-size="10.00">+ setHyperspaceAnchor()</text>
<text text-anchor="start" x="521" y="-321.5" font-family="Helvetica,sans-Serif" font-size="10.00">+ getStar()</text>
<text text-anchor="start" x="521" y="-310.5" font-family="Helvetica,sans-Serif" font-size="10.00">+ autogenerateHyperspaceJump</text>
<text text-anchor="start" x="521" y="-299.5" font-family="Helvetica,sans-Serif" font-size="10.00">Points()</text>
<text text-anchor="start" x="521" y="-288.5" font-family="Helvetica,sans-Serif" font-size="10.00">and 39 more...</text>
</a>
</g>
</g>
<!-- Node5&#45;&gt;Node1 -->
<g id="edge4" class="edge">
<title>Node5&#45;&gt;Node1</title>
<path fill="none" stroke="#404040" d="M512.6,-289.17C509.88,-286.4 507.18,-283.67 504.5,-281 488.26,-264.8 470.83,-248.04 453.49,-231.72"/>
<polygon fill="none" stroke="#404040" points="453.18,-231.44 446.07,-230.25 444.43,-223.23 451.54,-224.41 453.18,-231.44"/>
<text text-anchor="middle" x="527" y="-255" font-family="Helvetica,sans-Serif" font-size="10.00"> #systemPlayerIsIn</text>
</g>
<!-- Node6 -->
<g id="node6" class="node">
<title>Node6</title>
<g id="a_node6"><a xlink:href="../../d2/d2c/interfacecom_1_1fs_1_1starfarer_1_1api_1_1campaign_1_1LocationAPI.html" target="_top" xlink:title=" ">
<polygon fill="none" stroke="black" points="507.5,-508.5 507.5,-686.5 675.5,-686.5 675.5,-508.5 507.5,-508.5"/>
<text text-anchor="start" x="515.5" y="-674.5" font-family="Helvetica,sans-Serif" font-size="10.00">com.fs.starfarer.api.campaign.</text>
<text text-anchor="middle" x="591.5" y="-663.5" font-family="Helvetica,sans-Serif" font-size="10.00">LocationAPI</text>
<polyline fill="none" stroke="black" points="507.5,-656.5 675.5,-656.5 "/>
<text text-anchor="middle" x="591.5" y="-644.5" font-family="Helvetica,sans-Serif" font-size="10.00"> </text>
<polyline fill="none" stroke="black" points="507.5,-637.5 675.5,-637.5 "/>
<text text-anchor="start" x="515.5" y="-625.5" font-family="Helvetica,sans-Serif" font-size="10.00">+ getId()</text>
<text text-anchor="start" x="515.5" y="-614.5" font-family="Helvetica,sans-Serif" font-size="10.00">+ activeThisFrame()</text>
<text text-anchor="start" x="515.5" y="-603.5" font-family="Helvetica,sans-Serif" font-size="10.00">+ getBackgroundTextureFilename()</text>
<text text-anchor="start" x="515.5" y="-592.5" font-family="Helvetica,sans-Serif" font-size="10.00">+ setBackgroundTextureFilename()</text>
<text text-anchor="start" x="515.5" y="-581.5" font-family="Helvetica,sans-Serif" font-size="10.00">+ addSpawnPoint()</text>
<text text-anchor="start" x="515.5" y="-570.5" font-family="Helvetica,sans-Serif" font-size="10.00">+ removeSpawnPoint()</text>
<text text-anchor="start" x="515.5" y="-559.5" font-family="Helvetica,sans-Serif" font-size="10.00">+ getSpawnPoints()</text>
<text text-anchor="start" x="515.5" y="-548.5" font-family="Helvetica,sans-Serif" font-size="10.00">+ spawnFleet()</text>
<text text-anchor="start" x="515.5" y="-537.5" font-family="Helvetica,sans-Serif" font-size="10.00">+ createToken()</text>
<text text-anchor="start" x="515.5" y="-526.5" font-family="Helvetica,sans-Serif" font-size="10.00">+ createToken()</text>
<text text-anchor="start" x="515.5" y="-515.5" font-family="Helvetica,sans-Serif" font-size="10.00">and 65 more...</text>
</a>
</g>
</g>
<!-- Node6&#45;&gt;Node5 -->
<g id="edge5" class="edge">
<title>Node6&#45;&gt;Node5</title>
<path fill="none" stroke="midnightblue" d="M591.5,-498.24C591.5,-489.11 591.5,-479.87 591.5,-470.78"/>
<polygon fill="none" stroke="midnightblue" points="588,-498.49 591.5,-508.49 595,-498.49 588,-498.49"/>
</g>
</g>
</svg>
        <g id="navigator" transform="translate(0 0)" fill="#404254">
                <rect fill="#f2f5e9" fill-opacity="0.5" stroke="#606060" stroke-width=".5" x="0" y="0" width="60" height="60"/>
                <use id="zoomplus" xlink:href="#zoomPlus" x="17" y="9" onmousedown="handleZoom(evt,'in')"/>
                <use id="zoomminus" xlink:href="#zoomMin" x="42" y="9" onmousedown="handleZoom(evt,'out')"/>
                <use id="reset" xlink:href="#resetDef" x="30" y="36" onmousedown="handleReset()"/>
                <g id="arrowUp" xlink:href="#dirArrow" transform="translate(30 24)" onmousedown="handlePan(0,-1)">
                  <use xlink:href="#rim" fill="#404040">
                        <set attributeName="fill" to="#808080" begin="arrowUp.mouseover" end="arrowUp.mouseout"/>
                  </use>
                  <path fill="none" stroke="white" stroke-width="1.5" d="M0,-3.0v7 M-2.5,-0.5L0,-3.0L2.5,-0.5"/>
                </g>
                <g id="arrowRight" xlink:href="#dirArrow" transform="rotate(90) translate(36 -43)" onmousedown="handlePan(1,0)">
                  <use xlink:href="#rim" fill="#404040">
                        <set attributeName="fill" to="#808080" begin="arrowRight.mouseover" end="arrowRight.mouseout"/>
                  </use>
                  <path fill="none" stroke="white" stroke-width="1.5" d="M0,-3.0v7 M-2.5,-0.5L0,-3.0L2.5,-0.5"/>
                </g>
                <g id="arrowDown" xlink:href="#dirArrow" transform="rotate(180) translate(-30 -48)" onmousedown="handlePan(0,1)">
                  <use xlink:href="#rim" fill="#404040">
                        <set attributeName="fill" to="#808080" begin="arrowDown.mouseover" end="arrowDown.mouseout"/>
                  </use>
                  <path fill="none" stroke="white" stroke-width="1.5" d="M0,-3.0v7 M-2.5,-0.5L0,-3.0L2.5,-0.5"/>
                </g>
                <g id="arrowLeft" xlink:href="#dirArrow" transform="rotate(270) translate(-36 17)" onmousedown="handlePan(-1,0)">
                  <use xlink:href="#rim" fill="#404040">
                        <set attributeName="fill" to="#808080" begin="arrowLeft.mouseover" end="arrowLeft.mouseout"/>
                  </use>
                  <path fill="none" stroke="white" stroke-width="1.5" d="M0,-3.0v7 M-2.5,-0.5L0,-3.0L2.5,-0.5"/>
                </g>
        </g>
        <svg viewBox="0 0 15 15" width="100%" height="30px" preserveAspectRatio="xMaxYMin meet">
         <g id="arrow_out" transform="scale(0.3 0.3)">
          <a xlink:href="classcom_1_1fs_1_1starfarer_1_1api_1_1impl_1_1campaign_1_1intel_1_1bar_1_1events_1_1DeliveryFailureConsequences__coll__graph_org.svg" target="_base">
           <rect id="button" ry="5" rx="5" y="6" x="6" height="38" width="38"
                fill="#f2f5e9" fill-opacity="0.5" stroke="#606060" stroke-width="1.0"/>
           <path id="arrow"
             d="M 11.500037,31.436501 C 11.940474,20.09759 22.043105,11.32322 32.158766,21.979434 L 37.068811,17.246167 C 37.068811,17.246167 37.088388,32 37.088388,32 L 22.160133,31.978069 C 22.160133,31.978069 26.997745,27.140456 26.997745,27.140456 C 18.528582,18.264221 13.291696,25.230495 11.500037,31.436501 z"
             style="fill:#404040;"/>
          </a>
         </g>
        </svg>
</svg>
