<?xml version="1.0" encoding="UTF-8" standalone="no"?>
<!DOCTYPE svg PUBLIC "-//W3C//DTD SVG 1.1//EN"
 "http://www.w3.org/Graphics/SVG/1.1/DTD/svg11.dtd">
<!-- Generated by graphviz version 2.44.0 ()
 -->
<!-- Title: com.fs.starfarer.api.impl.campaign.rulecmd.salvage.AddBarEvent.TempBarEvents Pages: 1 -->
<svg width="304pt" height="193pt"
 viewBox="0.00 0.00 304.00 193.00" xmlns="http://www.w3.org/2000/svg" xmlns:xlink="http://www.w3.org/1999/xlink">
<g id="graph0" class="graph" transform="scale(1 1) rotate(0) translate(4 189)">
<title>com.fs.starfarer.api.impl.campaign.rulecmd.salvage.AddBarEvent.TempBarEvents</title>
<!-- Node1 -->
<g id="node1" class="node">
<title>Node1</title>
<g id="a_node1"><a xlink:title=" ">
<polygon fill="#bfbfbf" stroke="black" points="28.5,-0.5 28.5,-68.5 267.5,-68.5 267.5,-0.5 28.5,-0.5"/>
<text text-anchor="start" x="36.5" y="-56.5" font-family="Helvetica,sans-Serif" font-size="10.00">com.fs.starfarer.api.impl.campaign.rulecmd.salvage.</text>
<text text-anchor="middle" x="148" y="-45.5" font-family="Helvetica,sans-Serif" font-size="10.00">AddBarEvent.TempBarEvents</text>
<polyline fill="none" stroke="black" points="28.5,-38.5 267.5,-38.5 "/>
<text text-anchor="middle" x="148" y="-26.5" font-family="Helvetica,sans-Serif" font-size="10.00"> </text>
<polyline fill="none" stroke="black" points="28.5,-19.5 267.5,-19.5 "/>
<text text-anchor="middle" x="148" y="-7.5" font-family="Helvetica,sans-Serif" font-size="10.00"> </text>
</a>
</g>
</g>
<!-- Node2 -->
<g id="node2" class="node">
<title>Node2</title>
<g id="a_node2"><a xlink:title=" ">
<polygon fill="none" stroke="#bfbfbf" points="0,-116.5 0,-184.5 296,-184.5 296,-116.5 0,-116.5"/>
<text text-anchor="start" x="8" y="-172.5" font-family="Helvetica,sans-Serif" font-size="10.00">Map&lt; String, com.fs.starfarer.api.impl.campaign.rulecmd.salvage.</text>
<text text-anchor="middle" x="148" y="-161.5" font-family="Helvetica,sans-Serif" font-size="10.00">AddBarEvent.BarEventData &gt;</text>
<polyline fill="none" stroke="#bfbfbf" points="0,-154.5 296,-154.5 "/>
<text text-anchor="middle" x="148" y="-142.5" font-family="Helvetica,sans-Serif" font-size="10.00"> </text>
<polyline fill="none" stroke="#bfbfbf" points="0,-135.5 296,-135.5 "/>
<text text-anchor="middle" x="148" y="-123.5" font-family="Helvetica,sans-Serif" font-size="10.00"> </text>
</a>
</g>
</g>
<!-- Node2&#45;&gt;Node1 -->
<g id="edge1" class="edge">
<title>Node2&#45;&gt;Node1</title>
<path fill="none" stroke="#404040" d="M148,-116.22C148,-105.1 148,-92.51 148,-80.64"/>
<polygon fill="none" stroke="#404040" points="148,-80.62 144,-74.62 148,-68.62 152,-74.62 148,-80.62"/>
<text text-anchor="middle" x="167" y="-90" font-family="Helvetica,sans-Serif" font-size="10.00"> +events</text>
</g>
</g>
</svg>
