<?xml version="1.0" encoding="UTF-8" standalone="no"?>
<!DOCTYPE svg PUBLIC "-//W3C//DTD SVG 1.1//EN"
 "http://www.w3.org/Graphics/SVG/1.1/DTD/svg11.dtd">
<!-- Generated by graphviz version 2.44.0 ()
 -->
<!-- Title: com.fs.starfarer.api.impl.campaign.missions.DelayedFleetEncounter.CanSpawnFleetConditionChecker Pages: 1 -->
<!--zoomable 596 -->
<svg id="main" version="1.1" xmlns="http://www.w3.org/2000/svg" xmlns:xlink="http://www.w3.org/1999/xlink" xml:space="preserve" onload="init(evt)">
<style type="text/css"><![CDATA[
.edge:hover path { stroke: red; }
.edge:hover polygon { stroke: red; fill: red; }
]]></style>
<script type="text/javascript"><![CDATA[
var edges = document.getElementsByTagName('g');
if (edges && edges.length) {
  for (var i=0;i<edges.length;i++) {
    if (edges[i].id.substr(0,4)=='edge') {
      edges[i].setAttribute('class','edge');
    }
  }
}
]]></script>
        <defs>
                <circle id="rim" cx="0" cy="0" r="7"/>
                <circle id="rim2" cx="0" cy="0" r="3.5"/>
                <g id="zoomPlus">
                        <use xlink:href="#rim" fill="#404040">
                                <set attributeName="fill" to="#808080" begin="zoomplus.mouseover" end="zoomplus.mouseout"/>
                        </use>
                        <path d="M-4,0h8M0,-4v8" fill="none" stroke="white" stroke-width="1.5" pointer-events="none"/>
                </g>
                <g id="zoomMin">
                        <use xlink:href="#rim" fill="#404040">
                                <set attributeName="fill" to="#808080" begin="zoomminus.mouseover" end="zoomminus.mouseout"/>
                        </use>
                        <path d="M-4,0h8" fill="none" stroke="white" stroke-width="1.5" pointer-events="none"/>
                </g>
                <g id="dirArrow">
                        <path fill="none" stroke="white" stroke-width="1.5" d="M0,-3.0v7 M-2.5,-0.5L0,-3.0L2.5,-0.5"/>
                </g>
               <g id="resetDef">
                       <use xlink:href="#rim2" fill="#404040">
                               <set attributeName="fill" to="#808080" begin="reset.mouseover" end="reset.mouseout"/>
                       </use>
               </g>
        </defs>

<script type="text/javascript">
var viewWidth = 743;
var viewHeight = 596;
var sectionId = 'dynsection-1';
</script>
<script xlink:href="../../svgpan.js"/>
<svg id="graph" class="graph">
<g id="viewport">
<title>com.fs.starfarer.api.impl.campaign.missions.DelayedFleetEncounter.CanSpawnFleetConditionChecker</title>
<!-- Node1 -->
<g id="node1" class="node">
<title>Node1</title>
<g id="a_node1"><a xlink:title=" ">
<polygon fill="#bfbfbf" stroke="black" points="170.5,-0.5 170.5,-134.5 434.5,-134.5 434.5,-0.5 170.5,-0.5"/>
<text text-anchor="start" x="178.5" y="-122.5" font-family="Helvetica,sans-Serif" font-size="10.00">com.fs.starfarer.api.impl.campaign.missions.</text>
<text text-anchor="middle" x="302.5" y="-111.5" font-family="Helvetica,sans-Serif" font-size="10.00">DelayedFleetEncounter.CanSpawnFleetConditionChecker</text>
<polyline fill="none" stroke="black" points="170.5,-104.5 434.5,-104.5 "/>
<text text-anchor="start" x="178.5" y="-92.5" font-family="Helvetica,sans-Serif" font-size="10.00"># daysInSystem</text>
<text text-anchor="start" x="178.5" y="-81.5" font-family="Helvetica,sans-Serif" font-size="10.00"># conditionsMet</text>
<text text-anchor="start" x="178.5" y="-70.5" font-family="Helvetica,sans-Serif" font-size="10.00"># daysBeforeInHyper</text>
<text text-anchor="start" x="178.5" y="-59.5" font-family="Helvetica,sans-Serif" font-size="10.00"># daysBeforeInSystem</text>
<polyline fill="none" stroke="black" points="170.5,-52.5 434.5,-52.5 "/>
<text text-anchor="start" x="178.5" y="-40.5" font-family="Helvetica,sans-Serif" font-size="10.00">+ conditionsMet()</text>
<text text-anchor="start" x="178.5" y="-29.5" font-family="Helvetica,sans-Serif" font-size="10.00">+ advance()</text>
<text text-anchor="start" x="178.5" y="-18.5" font-family="Helvetica,sans-Serif" font-size="10.00">+ doCheck()</text>
<text text-anchor="start" x="178.5" y="-7.5" font-family="Helvetica,sans-Serif" font-size="10.00"># isPlayerInRightRangeBand()</text>
</a>
</g>
</g>
<!-- Node2 -->
<g id="node2" class="node">
<title>Node2</title>
<g id="a_node2"><a xlink:title=" ">
<polygon fill="none" stroke="#bfbfbf" points="0,-248.5 0,-305.5 93,-305.5 93,-248.5 0,-248.5"/>
<text text-anchor="middle" x="46.5" y="-293.5" font-family="Helvetica,sans-Serif" font-size="10.00">ConditionChecker</text>
<polyline fill="none" stroke="#bfbfbf" points="0,-286.5 93,-286.5 "/>
<text text-anchor="middle" x="46.5" y="-274.5" font-family="Helvetica,sans-Serif" font-size="10.00"> </text>
<polyline fill="none" stroke="#bfbfbf" points="0,-267.5 93,-267.5 "/>
<text text-anchor="middle" x="46.5" y="-255.5" font-family="Helvetica,sans-Serif" font-size="10.00"> </text>
</a>
</g>
</g>
<!-- Node2&#45;&gt;Node1 -->
<g id="edge1" class="edge">
<title>Node2&#45;&gt;Node1</title>
<path fill="none" stroke="midnightblue" d="M62.78,-239.18C72.37,-220.44 85.9,-198.26 102.5,-182 122.33,-162.59 146.13,-145.35 170.29,-130.54"/>
<polygon fill="none" stroke="midnightblue" points="59.55,-237.82 58.26,-248.33 65.82,-240.92 59.55,-237.82"/>
</g>
<!-- Node3 -->
<g id="node3" class="node">
<title>Node3</title>
<g id="a_node3"><a xlink:href="../../d6/de1/interfacecom_1_1fs_1_1starfarer_1_1api_1_1campaign_1_1SectorEntityToken.html" target="_top" xlink:title=" ">
<polygon fill="none" stroke="black" points="111.5,-188 111.5,-366 257.5,-366 257.5,-188 111.5,-188"/>
<text text-anchor="start" x="119.5" y="-354" font-family="Helvetica,sans-Serif" font-size="10.00">com.fs.starfarer.api.campaign.</text>
<text text-anchor="middle" x="184.5" y="-343" font-family="Helvetica,sans-Serif" font-size="10.00">SectorEntityToken</text>
<polyline fill="none" stroke="black" points="111.5,-336 257.5,-336 "/>
<text text-anchor="middle" x="184.5" y="-324" font-family="Helvetica,sans-Serif" font-size="10.00"> </text>
<polyline fill="none" stroke="black" points="111.5,-317 257.5,-317 "/>
<text text-anchor="start" x="119.5" y="-305" font-family="Helvetica,sans-Serif" font-size="10.00">+ isPlayerFleet()</text>
<text text-anchor="start" x="119.5" y="-294" font-family="Helvetica,sans-Serif" font-size="10.00">+ getMarket()</text>
<text text-anchor="start" x="119.5" y="-283" font-family="Helvetica,sans-Serif" font-size="10.00">+ setMarket()</text>
<text text-anchor="start" x="119.5" y="-272" font-family="Helvetica,sans-Serif" font-size="10.00">+ getCargo()</text>
<text text-anchor="start" x="119.5" y="-261" font-family="Helvetica,sans-Serif" font-size="10.00">+ getLocation()</text>
<text text-anchor="start" x="119.5" y="-250" font-family="Helvetica,sans-Serif" font-size="10.00">+ getLocationInHyperspace()</text>
<text text-anchor="start" x="119.5" y="-239" font-family="Helvetica,sans-Serif" font-size="10.00">+ getOrbit()</text>
<text text-anchor="start" x="119.5" y="-228" font-family="Helvetica,sans-Serif" font-size="10.00">+ setOrbit()</text>
<text text-anchor="start" x="119.5" y="-217" font-family="Helvetica,sans-Serif" font-size="10.00">+ getId()</text>
<text text-anchor="start" x="119.5" y="-206" font-family="Helvetica,sans-Serif" font-size="10.00">+ getName()</text>
<text text-anchor="start" x="119.5" y="-195" font-family="Helvetica,sans-Serif" font-size="10.00">and 115 more...</text>
</a>
</g>
</g>
<!-- Node3&#45;&gt;Node1 -->
<g id="edge2" class="edge">
<title>Node3&#45;&gt;Node1</title>
<path fill="none" stroke="#404040" d="M223.66,-188C229.65,-176.06 236.01,-164.11 242.5,-153 244.05,-150.35 245.66,-147.68 247.31,-145"/>
<polygon fill="none" stroke="#404040" points="247.45,-144.78 247.29,-137.57 253.89,-134.66 254.04,-141.87 247.45,-144.78"/>
<text text-anchor="middle" x="270.5" y="-156" font-family="Helvetica,sans-Serif" font-size="10.00"> #foundEntity</text>
</g>
<!-- Node4 -->
<g id="node4" class="node">
<title>Node4</title>
<g id="a_node4"><a xlink:href="../../de/da5/interfacecom_1_1fs_1_1starfarer_1_1api_1_1campaign_1_1rules_1_1HasMemory.html" target="_top" xlink:title=" ">
<polygon fill="none" stroke="black" points="100,-459 100,-538 269,-538 269,-459 100,-459"/>
<text text-anchor="start" x="108" y="-526" font-family="Helvetica,sans-Serif" font-size="10.00">com.fs.starfarer.api.campaign.rules.</text>
<text text-anchor="middle" x="184.5" y="-515" font-family="Helvetica,sans-Serif" font-size="10.00">HasMemory</text>
<polyline fill="none" stroke="black" points="100,-508 269,-508 "/>
<text text-anchor="middle" x="184.5" y="-496" font-family="Helvetica,sans-Serif" font-size="10.00"> </text>
<polyline fill="none" stroke="black" points="100,-489 269,-489 "/>
<text text-anchor="start" x="108" y="-477" font-family="Helvetica,sans-Serif" font-size="10.00">+ getMemory()</text>
<text text-anchor="start" x="108" y="-466" font-family="Helvetica,sans-Serif" font-size="10.00">+ getMemoryWithoutUpdate()</text>
</a>
</g>
</g>
<!-- Node4&#45;&gt;Node3 -->
<g id="edge3" class="edge">
<title>Node4&#45;&gt;Node3</title>
<path fill="none" stroke="midnightblue" d="M184.5,-448.76C184.5,-424.54 184.5,-394.52 184.5,-366.43"/>
<polygon fill="none" stroke="midnightblue" points="181,-448.76 184.5,-458.76 188,-448.76 181,-448.76"/>
</g>
<!-- Node5 -->
<g id="node5" class="node">
<title>Node5</title>
<g id="a_node5"><a xlink:title=" ">
<polygon fill="none" stroke="#bfbfbf" points="276,-248.5 276,-305.5 329,-305.5 329,-248.5 276,-248.5"/>
<text text-anchor="middle" x="302.5" y="-293.5" font-family="Helvetica,sans-Serif" font-size="10.00">Vector2f</text>
<polyline fill="none" stroke="#bfbfbf" points="276,-286.5 329,-286.5 "/>
<text text-anchor="middle" x="302.5" y="-274.5" font-family="Helvetica,sans-Serif" font-size="10.00"> </text>
<polyline fill="none" stroke="#bfbfbf" points="276,-267.5 329,-267.5 "/>
<text text-anchor="middle" x="302.5" y="-255.5" font-family="Helvetica,sans-Serif" font-size="10.00"> </text>
</a>
</g>
</g>
<!-- Node5&#45;&gt;Node1 -->
<g id="edge4" class="edge">
<title>Node5&#45;&gt;Node1</title>
<path fill="none" stroke="#404040" d="M302.5,-248.45C302.5,-222.61 302.5,-182.72 302.5,-147.06"/>
<polygon fill="none" stroke="#404040" points="302.5,-146.65 298.5,-140.65 302.5,-134.65 306.5,-140.65 302.5,-146.65"/>
<text text-anchor="middle" x="323.5" y="-156" font-family="Helvetica,sans-Serif" font-size="10.00"> #location</text>
</g>
<!-- Node6 -->
<g id="node6" class="node">
<title>Node6</title>
<g id="a_node6"><a xlink:href="../../dd/de7/enumcom_1_1fs_1_1starfarer_1_1api_1_1impl_1_1campaign_1_1missions_1_1DelayedFleetEncounter_1_1EncounterType.html" target="_top" xlink:title=" ">
<polygon fill="none" stroke="black" points="347,-226.5 347,-327.5 554,-327.5 554,-226.5 347,-226.5"/>
<text text-anchor="start" x="355" y="-315.5" font-family="Helvetica,sans-Serif" font-size="10.00">com.fs.starfarer.api.impl.campaign.missions.</text>
<text text-anchor="middle" x="450.5" y="-304.5" font-family="Helvetica,sans-Serif" font-size="10.00">DelayedFleetEncounter.EncounterType</text>
<polyline fill="none" stroke="black" points="347,-297.5 554,-297.5 "/>
<text text-anchor="start" x="355" y="-285.5" font-family="Helvetica,sans-Serif" font-size="10.00">+ OUTSIDE_SYSTEM</text>
<text text-anchor="start" x="355" y="-274.5" font-family="Helvetica,sans-Serif" font-size="10.00">+ IN_HYPER_EN_ROUTE</text>
<text text-anchor="start" x="355" y="-263.5" font-family="Helvetica,sans-Serif" font-size="10.00">+ JUMP_IN_NEAR_PLAYER</text>
<text text-anchor="start" x="355" y="-252.5" font-family="Helvetica,sans-Serif" font-size="10.00">+ FROM_SOMEWHERE_IN_SYSTEM</text>
<polyline fill="none" stroke="black" points="347,-245.5 554,-245.5 "/>
<text text-anchor="middle" x="450.5" y="-233.5" font-family="Helvetica,sans-Serif" font-size="10.00"> </text>
</a>
</g>
</g>
<!-- Node6&#45;&gt;Node1 -->
<g id="edge5" class="edge">
<title>Node6&#45;&gt;Node1</title>
<path fill="none" stroke="#404040" d="M415.05,-226.3C397.61,-201.85 376.2,-171.83 356.76,-144.57"/>
<polygon fill="none" stroke="#404040" points="356.66,-144.44 349.92,-141.88 349.7,-134.67 356.44,-137.23 356.66,-144.44"/>
<text text-anchor="middle" x="396.5" y="-156" font-family="Helvetica,sans-Serif" font-size="10.00"> #typePicked</text>
</g>
<!-- Node7 -->
<g id="node7" class="node">
<title>Node7</title>
<g id="a_node7"><a xlink:href="../../db/d13/interfacecom_1_1fs_1_1starfarer_1_1api_1_1campaign_1_1StarSystemAPI.html" target="_top" xlink:title=" ">
<polygon fill="none" stroke="black" points="572,-182.5 572,-371.5 729,-371.5 729,-182.5 572,-182.5"/>
<text text-anchor="start" x="580" y="-359.5" font-family="Helvetica,sans-Serif" font-size="10.00">com.fs.starfarer.api.campaign.</text>
<text text-anchor="middle" x="650.5" y="-348.5" font-family="Helvetica,sans-Serif" font-size="10.00">StarSystemAPI</text>
<polyline fill="none" stroke="black" points="572,-341.5 729,-341.5 "/>
<text text-anchor="middle" x="650.5" y="-329.5" font-family="Helvetica,sans-Serif" font-size="10.00"> </text>
<polyline fill="none" stroke="black" points="572,-322.5 729,-322.5 "/>
<text text-anchor="start" x="580" y="-310.5" font-family="Helvetica,sans-Serif" font-size="10.00">+ getLocation()</text>
<text text-anchor="start" x="580" y="-299.5" font-family="Helvetica,sans-Serif" font-size="10.00">+ initStar()</text>
<text text-anchor="start" x="580" y="-288.5" font-family="Helvetica,sans-Serif" font-size="10.00">+ initStar()</text>
<text text-anchor="start" x="580" y="-277.5" font-family="Helvetica,sans-Serif" font-size="10.00">+ generateAnchorIfNeeded()</text>
<text text-anchor="start" x="580" y="-266.5" font-family="Helvetica,sans-Serif" font-size="10.00">+ initStar()</text>
<text text-anchor="start" x="580" y="-255.5" font-family="Helvetica,sans-Serif" font-size="10.00">+ initStar()</text>
<text text-anchor="start" x="580" y="-244.5" font-family="Helvetica,sans-Serif" font-size="10.00">+ getHyperspaceAnchor()</text>
<text text-anchor="start" x="580" y="-233.5" font-family="Helvetica,sans-Serif" font-size="10.00">+ setHyperspaceAnchor()</text>
<text text-anchor="start" x="580" y="-222.5" font-family="Helvetica,sans-Serif" font-size="10.00">+ getStar()</text>
<text text-anchor="start" x="580" y="-211.5" font-family="Helvetica,sans-Serif" font-size="10.00">+ autogenerateHyperspaceJump</text>
<text text-anchor="start" x="580" y="-200.5" font-family="Helvetica,sans-Serif" font-size="10.00">Points()</text>
<text text-anchor="start" x="580" y="-189.5" font-family="Helvetica,sans-Serif" font-size="10.00">and 39 more...</text>
</a>
</g>
</g>
<!-- Node7&#45;&gt;Node1 -->
<g id="edge6" class="edge">
<title>Node7&#45;&gt;Node1</title>
<path fill="none" stroke="#404040" d="M572,-189.13C568.87,-186.64 565.7,-184.26 562.5,-182 527.11,-157 485.33,-135.78 445.74,-118.69"/>
<polygon fill="none" stroke="#404040" points="445.69,-118.67 438.6,-120.01 434.64,-113.98 441.73,-112.64 445.69,-118.67"/>
<text text-anchor="middle" x="586.5" y="-156" font-family="Helvetica,sans-Serif" font-size="10.00"> #lastSystemPlayerWasIn</text>
</g>
<!-- Node8 -->
<g id="node8" class="node">
<title>Node8</title>
<g id="a_node8"><a xlink:href="../../d2/d2c/interfacecom_1_1fs_1_1starfarer_1_1api_1_1campaign_1_1LocationAPI.html" target="_top" xlink:title=" ">
<polygon fill="none" stroke="black" points="566.5,-409.5 566.5,-587.5 734.5,-587.5 734.5,-409.5 566.5,-409.5"/>
<text text-anchor="start" x="574.5" y="-575.5" font-family="Helvetica,sans-Serif" font-size="10.00">com.fs.starfarer.api.campaign.</text>
<text text-anchor="middle" x="650.5" y="-564.5" font-family="Helvetica,sans-Serif" font-size="10.00">LocationAPI</text>
<polyline fill="none" stroke="black" points="566.5,-557.5 734.5,-557.5 "/>
<text text-anchor="middle" x="650.5" y="-545.5" font-family="Helvetica,sans-Serif" font-size="10.00"> </text>
<polyline fill="none" stroke="black" points="566.5,-538.5 734.5,-538.5 "/>
<text text-anchor="start" x="574.5" y="-526.5" font-family="Helvetica,sans-Serif" font-size="10.00">+ getId()</text>
<text text-anchor="start" x="574.5" y="-515.5" font-family="Helvetica,sans-Serif" font-size="10.00">+ activeThisFrame()</text>
<text text-anchor="start" x="574.5" y="-504.5" font-family="Helvetica,sans-Serif" font-size="10.00">+ getBackgroundTextureFilename()</text>
<text text-anchor="start" x="574.5" y="-493.5" font-family="Helvetica,sans-Serif" font-size="10.00">+ setBackgroundTextureFilename()</text>
<text text-anchor="start" x="574.5" y="-482.5" font-family="Helvetica,sans-Serif" font-size="10.00">+ addSpawnPoint()</text>
<text text-anchor="start" x="574.5" y="-471.5" font-family="Helvetica,sans-Serif" font-size="10.00">+ removeSpawnPoint()</text>
<text text-anchor="start" x="574.5" y="-460.5" font-family="Helvetica,sans-Serif" font-size="10.00">+ getSpawnPoints()</text>
<text text-anchor="start" x="574.5" y="-449.5" font-family="Helvetica,sans-Serif" font-size="10.00">+ spawnFleet()</text>
<text text-anchor="start" x="574.5" y="-438.5" font-family="Helvetica,sans-Serif" font-size="10.00">+ createToken()</text>
<text text-anchor="start" x="574.5" y="-427.5" font-family="Helvetica,sans-Serif" font-size="10.00">+ createToken()</text>
<text text-anchor="start" x="574.5" y="-416.5" font-family="Helvetica,sans-Serif" font-size="10.00">and 65 more...</text>
</a>
</g>
</g>
<!-- Node8&#45;&gt;Node7 -->
<g id="edge7" class="edge">
<title>Node8&#45;&gt;Node7</title>
<path fill="none" stroke="midnightblue" d="M650.5,-399.24C650.5,-390.11 650.5,-380.87 650.5,-371.78"/>
<polygon fill="none" stroke="midnightblue" points="647,-399.49 650.5,-409.49 654,-399.49 647,-399.49"/>
</g>
</g>
</svg>
        <g id="navigator" transform="translate(0 0)" fill="#404254">
                <rect fill="#f2f5e9" fill-opacity="0.5" stroke="#606060" stroke-width=".5" x="0" y="0" width="60" height="60"/>
                <use id="zoomplus" xlink:href="#zoomPlus" x="17" y="9" onmousedown="handleZoom(evt,'in')"/>
                <use id="zoomminus" xlink:href="#zoomMin" x="42" y="9" onmousedown="handleZoom(evt,'out')"/>
                <use id="reset" xlink:href="#resetDef" x="30" y="36" onmousedown="handleReset()"/>
                <g id="arrowUp" xlink:href="#dirArrow" transform="translate(30 24)" onmousedown="handlePan(0,-1)">
                  <use xlink:href="#rim" fill="#404040">
                        <set attributeName="fill" to="#808080" begin="arrowUp.mouseover" end="arrowUp.mouseout"/>
                  </use>
                  <path fill="none" stroke="white" stroke-width="1.5" d="M0,-3.0v7 M-2.5,-0.5L0,-3.0L2.5,-0.5"/>
                </g>
                <g id="arrowRight" xlink:href="#dirArrow" transform="rotate(90) translate(36 -43)" onmousedown="handlePan(1,0)">
                  <use xlink:href="#rim" fill="#404040">
                        <set attributeName="fill" to="#808080" begin="arrowRight.mouseover" end="arrowRight.mouseout"/>
                  </use>
                  <path fill="none" stroke="white" stroke-width="1.5" d="M0,-3.0v7 M-2.5,-0.5L0,-3.0L2.5,-0.5"/>
                </g>
                <g id="arrowDown" xlink:href="#dirArrow" transform="rotate(180) translate(-30 -48)" onmousedown="handlePan(0,1)">
                  <use xlink:href="#rim" fill="#404040">
                        <set attributeName="fill" to="#808080" begin="arrowDown.mouseover" end="arrowDown.mouseout"/>
                  </use>
                  <path fill="none" stroke="white" stroke-width="1.5" d="M0,-3.0v7 M-2.5,-0.5L0,-3.0L2.5,-0.5"/>
                </g>
                <g id="arrowLeft" xlink:href="#dirArrow" transform="rotate(270) translate(-36 17)" onmousedown="handlePan(-1,0)">
                  <use xlink:href="#rim" fill="#404040">
                        <set attributeName="fill" to="#808080" begin="arrowLeft.mouseover" end="arrowLeft.mouseout"/>
                  </use>
                  <path fill="none" stroke="white" stroke-width="1.5" d="M0,-3.0v7 M-2.5,-0.5L0,-3.0L2.5,-0.5"/>
                </g>
        </g>
        <svg viewBox="0 0 15 15" width="100%" height="30px" preserveAspectRatio="xMaxYMin meet">
         <g id="arrow_out" transform="scale(0.3 0.3)">
          <a xlink:href="classcom_1_1fs_1_1starfarer_1_1api_1_1impl_1_1campaign_1_1missions_1_1DelayedFleetEncounter_1_1C5ecf7828bc4a009001a2efbc5b41bfc0_org.svg" target="_base">
           <rect id="button" ry="5" rx="5" y="6" x="6" height="38" width="38"
                fill="#f2f5e9" fill-opacity="0.5" stroke="#606060" stroke-width="1.0"/>
           <path id="arrow"
             d="M 11.500037,31.436501 C 11.940474,20.09759 22.043105,11.32322 32.158766,21.979434 L 37.068811,17.246167 C 37.068811,17.246167 37.088388,32 37.088388,32 L 22.160133,31.978069 C 22.160133,31.978069 26.997745,27.140456 26.997745,27.140456 C 18.528582,18.264221 13.291696,25.230495 11.500037,31.436501 z"
             style="fill:#404040;"/>
          </a>
         </g>
        </svg>
</svg>
