<?xml version="1.0" encoding="UTF-8" standalone="no"?>
<!DOCTYPE svg PUBLIC "-//W3C//DTD SVG 1.1//EN"
 "http://www.w3.org/Graphics/SVG/1.1/DTD/svg11.dtd">
<!-- Generated by graphviz version 2.44.0 ()
 -->
<!-- Title: com.fs.starfarer.api.combat.listeners.DamageListener Pages: 1 -->
<svg width="217pt" height="193pt"
 viewBox="0.00 0.00 217.00 193.00" xmlns="http://www.w3.org/2000/svg" xmlns:xlink="http://www.w3.org/1999/xlink">
<g id="graph0" class="graph" transform="scale(1 1) rotate(0) translate(4 189)">
<title>com.fs.starfarer.api.combat.listeners.DamageListener</title>
<!-- Node1 -->
<g id="node1" class="node">
<title>Node1</title>
<g id="a_node1"><a xlink:title=" ">
<polygon fill="#bfbfbf" stroke="black" points="17,-116.5 17,-184.5 192,-184.5 192,-116.5 17,-116.5"/>
<text text-anchor="start" x="25" y="-172.5" font-family="Helvetica,sans-Serif" font-size="10.00">com.fs.starfarer.api.combat.listeners.</text>
<text text-anchor="middle" x="104.5" y="-161.5" font-family="Helvetica,sans-Serif" font-size="10.00">DamageListener</text>
<polyline fill="none" stroke="black" points="17,-154.5 192,-154.5 "/>
<text text-anchor="middle" x="104.5" y="-142.5" font-family="Helvetica,sans-Serif" font-size="10.00"> </text>
<polyline fill="none" stroke="black" points="17,-135.5 192,-135.5 "/>
<text text-anchor="start" x="25" y="-123.5" font-family="Helvetica,sans-Serif" font-size="10.00">+ reportDamageApplied()</text>
</a>
</g>
</g>
<!-- Node2 -->
<g id="node2" class="node">
<title>Node2</title>
<g id="a_node2"><a xlink:href="../../d4/d17/classcom_1_1fs_1_1starfarer_1_1api_1_1impl_1_1combat_1_1ChiralFigmentStats_1_1FigmentDamageListener.html" target="_top" xlink:title=" ">
<polygon fill="none" stroke="black" points="0,-0.5 0,-79.5 209,-79.5 209,-0.5 0,-0.5"/>
<text text-anchor="start" x="8" y="-67.5" font-family="Helvetica,sans-Serif" font-size="10.00">com.fs.starfarer.api.impl.combat.</text>
<text text-anchor="middle" x="104.5" y="-56.5" font-family="Helvetica,sans-Serif" font-size="10.00">ChiralFigmentStats.FigmentDamageListener</text>
<polyline fill="none" stroke="black" points="0,-49.5 209,-49.5 "/>
<text text-anchor="start" x="8" y="-37.5" font-family="Helvetica,sans-Serif" font-size="10.00">+ plugin</text>
<polyline fill="none" stroke="black" points="0,-30.5 209,-30.5 "/>
<text text-anchor="start" x="8" y="-18.5" font-family="Helvetica,sans-Serif" font-size="10.00">+ FigmentDamageListener()</text>
<text text-anchor="start" x="8" y="-7.5" font-family="Helvetica,sans-Serif" font-size="10.00">+ reportDamageApplied()</text>
</a>
</g>
</g>
<!-- Node1&#45;&gt;Node2 -->
<g id="edge1" class="edge">
<title>Node1&#45;&gt;Node2</title>
<path fill="none" stroke="midnightblue" d="M104.5,-106.27C104.5,-97.48 104.5,-88.28 104.5,-79.65"/>
<polygon fill="none" stroke="midnightblue" points="101,-106.36 104.5,-116.36 108,-106.36 101,-106.36"/>
</g>
</g>
</svg>
