<?xml version="1.0" encoding="UTF-8" standalone="no"?>
<!DOCTYPE svg PUBLIC "-//W3C//DTD SVG 1.1//EN"
 "http://www.w3.org/Graphics/SVG/1.1/DTD/svg11.dtd">
<!-- Generated by graphviz version 2.44.0 ()
 -->
<!-- Title: com.fs.starfarer.api.impl.campaign.procgen.themes.SalvageSpecialAssigner.SpecialCreator Pages: 1 -->
<svg width="2089pt" height="248pt"
 viewBox="0.00 0.00 2089.00 248.00" xmlns="http://www.w3.org/2000/svg" xmlns:xlink="http://www.w3.org/1999/xlink">
<g id="graph0" class="graph" transform="scale(1 1) rotate(0) translate(4 244)">
<title>com.fs.starfarer.api.impl.campaign.procgen.themes.SalvageSpecialAssigner.SpecialCreator</title>
<!-- Node1 -->
<g id="node1" class="node">
<title>Node1</title>
<g id="a_node1"><a xlink:title=" ">
<polygon fill="#bfbfbf" stroke="black" points="913,-171.5 913,-239.5 1150,-239.5 1150,-171.5 913,-171.5"/>
<text text-anchor="start" x="921" y="-227.5" font-family="Helvetica,sans-Serif" font-size="10.00">com.fs.starfarer.api.impl.campaign.procgen.themes.</text>
<text text-anchor="middle" x="1031.5" y="-216.5" font-family="Helvetica,sans-Serif" font-size="10.00">SalvageSpecialAssigner.SpecialCreator</text>
<polyline fill="none" stroke="black" points="913,-209.5 1150,-209.5 "/>
<text text-anchor="middle" x="1031.5" y="-197.5" font-family="Helvetica,sans-Serif" font-size="10.00"> </text>
<polyline fill="none" stroke="black" points="913,-190.5 1150,-190.5 "/>
<text text-anchor="start" x="921" y="-178.5" font-family="Helvetica,sans-Serif" font-size="10.00">+ createSpecial()</text>
</a>
</g>
</g>
<!-- Node2 -->
<g id="node2" class="node">
<title>Node2</title>
<g id="a_node2"><a xlink:href="../../da/d43/classcom_1_1fs_1_1starfarer_1_1api_1_1impl_1_1campaign_1_1procgen_1_1themes_1_1SalvageSpecialAss1e88cb126a99405e10096a33b0c34f57.html" target="_top" xlink:title=" ">
<polygon fill="none" stroke="black" points="0,-28 0,-107 237,-107 237,-28 0,-28"/>
<text text-anchor="start" x="8" y="-95" font-family="Helvetica,sans-Serif" font-size="10.00">com.fs.starfarer.api.impl.campaign.procgen.themes.</text>
<text text-anchor="middle" x="118.5" y="-84" font-family="Helvetica,sans-Serif" font-size="10.00">SalvageSpecialAssigner.BlueprintSpecialCreator</text>
<polyline fill="none" stroke="black" points="0,-77 237,-77 "/>
<text text-anchor="start" x="8" y="-65" font-family="Helvetica,sans-Serif" font-size="10.00">&#45; random</text>
<polyline fill="none" stroke="black" points="0,-58 237,-58 "/>
<text text-anchor="start" x="8" y="-46" font-family="Helvetica,sans-Serif" font-size="10.00">+ BlueprintSpecialCreator()</text>
<text text-anchor="start" x="8" y="-35" font-family="Helvetica,sans-Serif" font-size="10.00">+ createSpecial()</text>
</a>
</g>
</g>
<!-- Node1&#45;&gt;Node2 -->
<g id="edge1" class="edge">
<title>Node1&#45;&gt;Node2</title>
<path fill="none" stroke="midnightblue" d="M902.79,-199.25C712.37,-190.44 365.2,-170.11 245.5,-135 223.29,-128.49 200.46,-117.93 180.38,-107.13"/>
<polygon fill="none" stroke="midnightblue" points="902.71,-202.75 912.86,-199.71 903.03,-195.75 902.71,-202.75"/>
</g>
<!-- Node3 -->
<g id="node3" class="node">
<title>Node3</title>
<g id="a_node3"><a xlink:href="../../d9/d87/classcom_1_1fs_1_1starfarer_1_1api_1_1impl_1_1campaign_1_1procgen_1_1themes_1_1SalvageSpecialAssfb2fa9b30c73697aba2eb4a03b46204d.html" target="_top" xlink:title=" ">
<polygon fill="none" stroke="black" points="255,-17 255,-118 496,-118 496,-17 255,-17"/>
<text text-anchor="start" x="263" y="-106" font-family="Helvetica,sans-Serif" font-size="10.00">com.fs.starfarer.api.impl.campaign.procgen.themes.</text>
<text text-anchor="middle" x="375.5" y="-95" font-family="Helvetica,sans-Serif" font-size="10.00">SalvageSpecialAssigner.BreadcrumbSpecialCreator</text>
<polyline fill="none" stroke="black" points="255,-88 496,-88 "/>
<text text-anchor="start" x="263" y="-76" font-family="Helvetica,sans-Serif" font-size="10.00">&#45; random</text>
<text text-anchor="start" x="263" y="-65" font-family="Helvetica,sans-Serif" font-size="10.00">&#45; all</text>
<polyline fill="none" stroke="black" points="255,-58 496,-58 "/>
<text text-anchor="start" x="263" y="-46" font-family="Helvetica,sans-Serif" font-size="10.00">+ BreadcrumbSpecialCreator()</text>
<text text-anchor="start" x="263" y="-35" font-family="Helvetica,sans-Serif" font-size="10.00">+ createSpecial()</text>
<text text-anchor="start" x="263" y="-24" font-family="Helvetica,sans-Serif" font-size="10.00">+ isLargeShipOrNonShip()</text>
</a>
</g>
</g>
<!-- Node1&#45;&gt;Node3 -->
<g id="edge2" class="edge">
<title>Node1&#45;&gt;Node3</title>
<path fill="none" stroke="midnightblue" d="M902.82,-199.88C794.45,-193.09 636.44,-176.33 504.5,-135 490.31,-130.56 475.81,-124.63 461.9,-118.14"/>
<polygon fill="none" stroke="midnightblue" points="902.63,-203.37 912.83,-200.49 903.06,-196.39 902.63,-203.37"/>
</g>
<!-- Node4 -->
<g id="node4" class="node">
<title>Node4</title>
<g id="a_node4"><a xlink:href="../../db/ddc/classcom_1_1fs_1_1starfarer_1_1api_1_1impl_1_1campaign_1_1procgen_1_1themes_1_1SalvageSpecialAssa121abdb63eeefd8a50060d39ad888cc.html" target="_top" xlink:title=" ">
<polygon fill="none" stroke="black" points="514,-6 514,-129 765,-129 765,-6 514,-6"/>
<text text-anchor="start" x="522" y="-117" font-family="Helvetica,sans-Serif" font-size="10.00">com.fs.starfarer.api.impl.campaign.procgen.themes.</text>
<text text-anchor="middle" x="639.5" y="-106" font-family="Helvetica,sans-Serif" font-size="10.00">SalvageSpecialAssigner.CargoManifestSpecialCreator</text>
<polyline fill="none" stroke="black" points="514,-99 765,-99 "/>
<text text-anchor="start" x="522" y="-87" font-family="Helvetica,sans-Serif" font-size="10.00">&#45; random</text>
<text text-anchor="start" x="522" y="-76" font-family="Helvetica,sans-Serif" font-size="10.00">&#45; type</text>
<text text-anchor="start" x="522" y="-65" font-family="Helvetica,sans-Serif" font-size="10.00">&#45; cargoPicker</text>
<text text-anchor="start" x="522" y="-54" font-family="Helvetica,sans-Serif" font-size="10.00">&#45; min</text>
<text text-anchor="start" x="522" y="-43" font-family="Helvetica,sans-Serif" font-size="10.00">&#45; max</text>
<polyline fill="none" stroke="black" points="514,-36 765,-36 "/>
<text text-anchor="start" x="522" y="-24" font-family="Helvetica,sans-Serif" font-size="10.00">+ CargoManifestSpecialCreator()</text>
<text text-anchor="start" x="522" y="-13" font-family="Helvetica,sans-Serif" font-size="10.00">+ createSpecial()</text>
</a>
</g>
</g>
<!-- Node1&#45;&gt;Node4 -->
<g id="edge3" class="edge">
<title>Node1&#45;&gt;Node4</title>
<path fill="none" stroke="midnightblue" d="M903.05,-175.23C861.18,-164.29 814.86,-150.66 773.5,-135 768.52,-133.12 763.48,-131.11 758.42,-129"/>
<polygon fill="none" stroke="midnightblue" points="902.19,-178.63 912.75,-177.74 903.94,-171.85 902.19,-178.63"/>
</g>
<!-- Node5 -->
<g id="node5" class="node">
<title>Node5</title>
<g id="a_node5"><a xlink:href="../../d6/d0c/classcom_1_1fs_1_1starfarer_1_1api_1_1impl_1_1campaign_1_1procgen_1_1themes_1_1SalvageSpecialAssigner_1_1NothingSpecialCreator.html" target="_top" xlink:title=" ">
<polygon fill="none" stroke="black" points="783,-33.5 783,-101.5 1020,-101.5 1020,-33.5 783,-33.5"/>
<text text-anchor="start" x="791" y="-89.5" font-family="Helvetica,sans-Serif" font-size="10.00">com.fs.starfarer.api.impl.campaign.procgen.themes.</text>
<text text-anchor="middle" x="901.5" y="-78.5" font-family="Helvetica,sans-Serif" font-size="10.00">SalvageSpecialAssigner.NothingSpecialCreator</text>
<polyline fill="none" stroke="black" points="783,-71.5 1020,-71.5 "/>
<text text-anchor="middle" x="901.5" y="-59.5" font-family="Helvetica,sans-Serif" font-size="10.00"> </text>
<polyline fill="none" stroke="black" points="783,-52.5 1020,-52.5 "/>
<text text-anchor="start" x="791" y="-40.5" font-family="Helvetica,sans-Serif" font-size="10.00">+ createSpecial()</text>
</a>
</g>
</g>
<!-- Node1&#45;&gt;Node5 -->
<g id="edge4" class="edge">
<title>Node1&#45;&gt;Node5</title>
<path fill="none" stroke="midnightblue" d="M992.65,-163.85C973.75,-144.08 951.31,-120.61 933.42,-101.9"/>
<polygon fill="none" stroke="midnightblue" points="990.26,-166.42 999.7,-171.23 995.32,-161.58 990.26,-166.42"/>
</g>
<!-- Node6 -->
<g id="node6" class="node">
<title>Node6</title>
<g id="a_node6"><a xlink:href="../../d3/d23/classcom_1_1fs_1_1starfarer_1_1api_1_1impl_1_1campaign_1_1procgen_1_1themes_1_1SalvageSpecialAss045282595e610e49703c0594678f0146.html" target="_top" xlink:title=" ">
<polygon fill="none" stroke="black" points="1038.5,-0.5 1038.5,-134.5 1286.5,-134.5 1286.5,-0.5 1038.5,-0.5"/>
<text text-anchor="start" x="1046.5" y="-122.5" font-family="Helvetica,sans-Serif" font-size="10.00">com.fs.starfarer.api.impl.campaign.procgen.themes.</text>
<text text-anchor="middle" x="1162.5" y="-111.5" font-family="Helvetica,sans-Serif" font-size="10.00">SalvageSpecialAssigner.ShipRecoverySpecialCreator</text>
<polyline fill="none" stroke="black" points="1038.5,-104.5 1286.5,-104.5 "/>
<text text-anchor="start" x="1046.5" y="-92.5" font-family="Helvetica,sans-Serif" font-size="10.00">~ max</text>
<text text-anchor="start" x="1046.5" y="-81.5" font-family="Helvetica,sans-Serif" font-size="10.00">&#45; min</text>
<text text-anchor="start" x="1046.5" y="-70.5" font-family="Helvetica,sans-Serif" font-size="10.00">&#45; factionPicker</text>
<text text-anchor="start" x="1046.5" y="-59.5" font-family="Helvetica,sans-Serif" font-size="10.00">&#45; random</text>
<text text-anchor="start" x="1046.5" y="-48.5" font-family="Helvetica,sans-Serif" font-size="10.00">&#45; badCondition</text>
<text text-anchor="start" x="1046.5" y="-37.5" font-family="Helvetica,sans-Serif" font-size="10.00">&#45; type</text>
<polyline fill="none" stroke="black" points="1038.5,-30.5 1286.5,-30.5 "/>
<text text-anchor="start" x="1046.5" y="-18.5" font-family="Helvetica,sans-Serif" font-size="10.00">+ ShipRecoverySpecialCreator()</text>
<text text-anchor="start" x="1046.5" y="-7.5" font-family="Helvetica,sans-Serif" font-size="10.00">+ createSpecial()</text>
</a>
</g>
</g>
<!-- Node1&#45;&gt;Node6 -->
<g id="edge5" class="edge">
<title>Node1&#45;&gt;Node6</title>
<path fill="none" stroke="midnightblue" d="M1070.51,-164.01C1079.41,-154.76 1089.11,-144.69 1098.75,-134.68"/>
<polygon fill="none" stroke="midnightblue" points="1067.96,-161.6 1063.55,-171.23 1073,-166.46 1067.96,-161.6"/>
</g>
<!-- Node7 -->
<g id="node7" class="node">
<title>Node7</title>
<g id="a_node7"><a xlink:href="../../d8/d8e/classcom_1_1fs_1_1starfarer_1_1api_1_1impl_1_1campaign_1_1procgen_1_1themes_1_1SalvageSpecialAssb563d58354b77fdc37d63f75a12312b0.html" target="_top" xlink:title=" ">
<polygon fill="none" stroke="black" points="1304.5,-6 1304.5,-129 1548.5,-129 1548.5,-6 1304.5,-6"/>
<text text-anchor="start" x="1312.5" y="-117" font-family="Helvetica,sans-Serif" font-size="10.00">com.fs.starfarer.api.impl.campaign.procgen.themes.</text>
<text text-anchor="middle" x="1426.5" y="-106" font-family="Helvetica,sans-Serif" font-size="10.00">SalvageSpecialAssigner.SleeperPodsSpecialCreator</text>
<polyline fill="none" stroke="black" points="1304.5,-99 1548.5,-99 "/>
<text text-anchor="start" x="1312.5" y="-87" font-family="Helvetica,sans-Serif" font-size="10.00">~ max</text>
<text text-anchor="start" x="1312.5" y="-76" font-family="Helvetica,sans-Serif" font-size="10.00">&#45; type</text>
<text text-anchor="start" x="1312.5" y="-65" font-family="Helvetica,sans-Serif" font-size="10.00">&#45; min</text>
<text text-anchor="start" x="1312.5" y="-54" font-family="Helvetica,sans-Serif" font-size="10.00">&#45; officerFactions</text>
<text text-anchor="start" x="1312.5" y="-43" font-family="Helvetica,sans-Serif" font-size="10.00">&#45; random</text>
<polyline fill="none" stroke="black" points="1304.5,-36 1548.5,-36 "/>
<text text-anchor="start" x="1312.5" y="-24" font-family="Helvetica,sans-Serif" font-size="10.00">+ SleeperPodsSpecialCreator()</text>
<text text-anchor="start" x="1312.5" y="-13" font-family="Helvetica,sans-Serif" font-size="10.00">+ createSpecial()</text>
</a>
</g>
</g>
<!-- Node1&#45;&gt;Node7 -->
<g id="edge6" class="edge">
<title>Node1&#45;&gt;Node7</title>
<path fill="none" stroke="midnightblue" d="M1159.96,-176.5C1203.61,-165.46 1252.26,-151.45 1295.5,-135 1300.39,-133.14 1305.33,-131.15 1310.29,-129.07"/>
<polygon fill="none" stroke="midnightblue" points="1159,-173.13 1150.15,-178.96 1160.7,-179.93 1159,-173.13"/>
</g>
<!-- Node8 -->
<g id="node8" class="node">
<title>Node8</title>
<g id="a_node8"><a xlink:href="../../de/d02/classcom_1_1fs_1_1starfarer_1_1api_1_1impl_1_1campaign_1_1procgen_1_1themes_1_1SalvageSpecialAsscca646965ef900933a72d5d778b42d4d.html" target="_top" xlink:title=" ">
<polygon fill="none" stroke="black" points="1567,-22.5 1567,-112.5 1806,-112.5 1806,-22.5 1567,-22.5"/>
<text text-anchor="start" x="1575" y="-100.5" font-family="Helvetica,sans-Serif" font-size="10.00">com.fs.starfarer.api.impl.campaign.procgen.themes.</text>
<text text-anchor="middle" x="1686.5" y="-89.5" font-family="Helvetica,sans-Serif" font-size="10.00">SalvageSpecialAssigner.SurveyDataSpecialCreator</text>
<polyline fill="none" stroke="black" points="1567,-82.5 1806,-82.5 "/>
<text text-anchor="start" x="1575" y="-70.5" font-family="Helvetica,sans-Serif" font-size="10.00">&#45; random</text>
<text text-anchor="start" x="1575" y="-59.5" font-family="Helvetica,sans-Serif" font-size="10.00">&#45; type</text>
<polyline fill="none" stroke="black" points="1567,-52.5 1806,-52.5 "/>
<text text-anchor="start" x="1575" y="-40.5" font-family="Helvetica,sans-Serif" font-size="10.00">+ SurveyDataSpecialCreator()</text>
<text text-anchor="start" x="1575" y="-29.5" font-family="Helvetica,sans-Serif" font-size="10.00">+ createSpecial()</text>
</a>
</g>
</g>
<!-- Node1&#45;&gt;Node8 -->
<g id="edge7" class="edge">
<title>Node1&#45;&gt;Node8</title>
<path fill="none" stroke="midnightblue" d="M1160.19,-199.83C1268.35,-193.01 1425.91,-176.23 1557.5,-135 1575.65,-129.31 1594.32,-121.19 1611.62,-112.58"/>
<polygon fill="none" stroke="midnightblue" points="1159.98,-196.34 1150.21,-200.44 1160.41,-203.32 1159.98,-196.34"/>
</g>
<!-- Node9 -->
<g id="node9" class="node">
<title>Node9</title>
<g id="a_node9"><a xlink:href="../../d8/d1a/classcom_1_1fs_1_1starfarer_1_1api_1_1impl_1_1campaign_1_1procgen_1_1themes_1_1SalvageSpecialAss4da10bfe440209670d30297696e5f510.html" target="_top" xlink:title=" ">
<polygon fill="none" stroke="black" points="1824,-0.5 1824,-134.5 2081,-134.5 2081,-0.5 1824,-0.5"/>
<text text-anchor="start" x="1832" y="-122.5" font-family="Helvetica,sans-Serif" font-size="10.00">com.fs.starfarer.api.impl.campaign.procgen.themes.</text>
<text text-anchor="middle" x="1952.5" y="-111.5" font-family="Helvetica,sans-Serif" font-size="10.00">SalvageSpecialAssigner.TransmitterTrapSpecialCreator</text>
<polyline fill="none" stroke="black" points="1824,-104.5 2081,-104.5 "/>
<text text-anchor="start" x="1832" y="-92.5" font-family="Helvetica,sans-Serif" font-size="10.00">&#45; random</text>
<text text-anchor="start" x="1832" y="-81.5" font-family="Helvetica,sans-Serif" font-size="10.00">&#45; factionPicker</text>
<text text-anchor="start" x="1832" y="-70.5" font-family="Helvetica,sans-Serif" font-size="10.00">&#45; minPts</text>
<text text-anchor="start" x="1832" y="-59.5" font-family="Helvetica,sans-Serif" font-size="10.00">&#45; maxPts</text>
<text text-anchor="start" x="1832" y="-48.5" font-family="Helvetica,sans-Serif" font-size="10.00">&#45; chance</text>
<text text-anchor="start" x="1832" y="-37.5" font-family="Helvetica,sans-Serif" font-size="10.00">&#45; fleetType</text>
<polyline fill="none" stroke="black" points="1824,-30.5 2081,-30.5 "/>
<text text-anchor="start" x="1832" y="-18.5" font-family="Helvetica,sans-Serif" font-size="10.00">+ TransmitterTrapSpecialCreator()</text>
<text text-anchor="start" x="1832" y="-7.5" font-family="Helvetica,sans-Serif" font-size="10.00">+ createSpecial()</text>
</a>
</g>
</g>
<!-- Node1&#45;&gt;Node9 -->
<g id="edge8" class="edge">
<title>Node1&#45;&gt;Node9</title>
<path fill="none" stroke="midnightblue" d="M1160.13,-198.75C1349.98,-189.31 1695.67,-168.19 1815.5,-135 1818.3,-134.22 1821.12,-133.39 1823.94,-132.51"/>
<polygon fill="none" stroke="midnightblue" points="1159.91,-195.26 1150.1,-199.25 1160.26,-202.25 1159.91,-195.26"/>
</g>
</g>
</svg>
