<?xml version="1.0" encoding="UTF-8" standalone="no"?>
<!DOCTYPE svg PUBLIC "-//W3C//DTD SVG 1.1//EN"
 "http://www.w3.org/Graphics/SVG/1.1/DTD/svg11.dtd">
<!-- Generated by graphviz version 2.44.0 ()
 -->
<!-- Title: com.fs.starfarer.api.impl.campaign.terrain.RadioChatterTerrainPlugin Pages: 1 -->
<!--zoomable 1279 -->
<svg id="main" version="1.1" xmlns="http://www.w3.org/2000/svg" xmlns:xlink="http://www.w3.org/1999/xlink" xml:space="preserve" onload="init(evt)">
<style type="text/css"><![CDATA[
.edge:hover path { stroke: red; }
.edge:hover polygon { stroke: red; fill: red; }
]]></style>
<script type="text/javascript"><![CDATA[
var edges = document.getElementsByTagName('g');
if (edges && edges.length) {
  for (var i=0;i<edges.length;i++) {
    if (edges[i].id.substr(0,4)=='edge') {
      edges[i].setAttribute('class','edge');
    }
  }
}
]]></script>
        <defs>
                <circle id="rim" cx="0" cy="0" r="7"/>
                <circle id="rim2" cx="0" cy="0" r="3.5"/>
                <g id="zoomPlus">
                        <use xlink:href="#rim" fill="#404040">
                                <set attributeName="fill" to="#808080" begin="zoomplus.mouseover" end="zoomplus.mouseout"/>
                        </use>
                        <path d="M-4,0h8M0,-4v8" fill="none" stroke="white" stroke-width="1.5" pointer-events="none"/>
                </g>
                <g id="zoomMin">
                        <use xlink:href="#rim" fill="#404040">
                                <set attributeName="fill" to="#808080" begin="zoomminus.mouseover" end="zoomminus.mouseout"/>
                        </use>
                        <path d="M-4,0h8" fill="none" stroke="white" stroke-width="1.5" pointer-events="none"/>
                </g>
                <g id="dirArrow">
                        <path fill="none" stroke="white" stroke-width="1.5" d="M0,-3.0v7 M-2.5,-0.5L0,-3.0L2.5,-0.5"/>
                </g>
               <g id="resetDef">
                       <use xlink:href="#rim2" fill="#404040">
                               <set attributeName="fill" to="#808080" begin="reset.mouseover" end="reset.mouseout"/>
                       </use>
               </g>
        </defs>

<script type="text/javascript">
var viewWidth = 641;
var viewHeight = 1279;
var sectionId = 'dynsection-1';
</script>
<script xlink:href="../../svgpan.js"/>
<svg id="graph" class="graph">
<g id="viewport">
<title>com.fs.starfarer.api.impl.campaign.terrain.RadioChatterTerrainPlugin</title>
<!-- Node1 -->
<g id="node1" class="node">
<title>Node1</title>
<g id="a_node1"><a xlink:title=" ">
<polygon fill="#bfbfbf" stroke="black" points="239.5,-0.5 239.5,-222.5 434.5,-222.5 434.5,-0.5 239.5,-0.5"/>
<text text-anchor="start" x="247.5" y="-210.5" font-family="Helvetica,sans-Serif" font-size="10.00">com.fs.starfarer.api.impl.campaign.terrain.</text>
<text text-anchor="middle" x="337" y="-199.5" font-family="Helvetica,sans-Serif" font-size="10.00">RadioChatterTerrainPlugin</text>
<polyline fill="none" stroke="black" points="239.5,-192.5 434.5,-192.5 "/>
<text text-anchor="start" x="247.5" y="-180.5" font-family="Helvetica,sans-Serif" font-size="10.00"># phase</text>
<polyline fill="none" stroke="black" points="239.5,-173.5 434.5,-173.5 "/>
<text text-anchor="start" x="247.5" y="-161.5" font-family="Helvetica,sans-Serif" font-size="10.00">+ init()</text>
<text text-anchor="start" x="247.5" y="-150.5" font-family="Helvetica,sans-Serif" font-size="10.00">+ getActiveLayers()</text>
<text text-anchor="start" x="247.5" y="-139.5" font-family="Helvetica,sans-Serif" font-size="10.00">+ render()</text>
<text text-anchor="start" x="247.5" y="-128.5" font-family="Helvetica,sans-Serif" font-size="10.00">+ advance()</text>
<text text-anchor="start" x="247.5" y="-117.5" font-family="Helvetica,sans-Serif" font-size="10.00">+ applyEffect()</text>
<text text-anchor="start" x="247.5" y="-106.5" font-family="Helvetica,sans-Serif" font-size="10.00">+ getProximitySoundFactor()</text>
<text text-anchor="start" x="247.5" y="-95.5" font-family="Helvetica,sans-Serif" font-size="10.00">+ containsPoint()</text>
<text text-anchor="start" x="247.5" y="-84.5" font-family="Helvetica,sans-Serif" font-size="10.00">+ hasTooltip()</text>
<text text-anchor="start" x="247.5" y="-73.5" font-family="Helvetica,sans-Serif" font-size="10.00">+ getTerrainName()</text>
<text text-anchor="start" x="247.5" y="-62.5" font-family="Helvetica,sans-Serif" font-size="10.00">+ getNameForTooltip()</text>
<text text-anchor="start" x="247.5" y="-51.5" font-family="Helvetica,sans-Serif" font-size="10.00">+ getEffectCategory()</text>
<text text-anchor="start" x="247.5" y="-40.5" font-family="Helvetica,sans-Serif" font-size="10.00">+ canPlayerHoldStationIn()</text>
<text text-anchor="start" x="247.5" y="-29.5" font-family="Helvetica,sans-Serif" font-size="10.00">~ writeReplace()</text>
<text text-anchor="start" x="247.5" y="-18.5" font-family="Helvetica,sans-Serif" font-size="10.00"># readResolve()</text>
<text text-anchor="start" x="247.5" y="-7.5" font-family="Helvetica,sans-Serif" font-size="10.00"># getExtraSoundRadius()</text>
</a>
</g>
</g>
<!-- Node2 -->
<g id="node2" class="node">
<title>Node2</title>
<g id="a_node2"><a xlink:href="../../da/de6/classcom_1_1fs_1_1starfarer_1_1api_1_1impl_1_1campaign_1_1terrain_1_1BaseRingTerrain.html" target="_top" xlink:title=" ">
<polygon fill="none" stroke="black" points="239.5,-270.5 239.5,-536.5 434.5,-536.5 434.5,-270.5 239.5,-270.5"/>
<text text-anchor="start" x="247.5" y="-524.5" font-family="Helvetica,sans-Serif" font-size="10.00">com.fs.starfarer.api.impl.campaign.terrain.</text>
<text text-anchor="middle" x="337" y="-513.5" font-family="Helvetica,sans-Serif" font-size="10.00">BaseRingTerrain</text>
<polyline fill="none" stroke="black" points="239.5,-506.5 434.5,-506.5 "/>
<text text-anchor="middle" x="337" y="-494.5" font-family="Helvetica,sans-Serif" font-size="10.00"> </text>
<polyline fill="none" stroke="black" points="239.5,-487.5 434.5,-487.5 "/>
<text text-anchor="start" x="247.5" y="-475.5" font-family="Helvetica,sans-Serif" font-size="10.00">+ init()</text>
<text text-anchor="start" x="247.5" y="-464.5" font-family="Helvetica,sans-Serif" font-size="10.00">+ getRelatedEntity()</text>
<text text-anchor="start" x="247.5" y="-453.5" font-family="Helvetica,sans-Serif" font-size="10.00">+ getActiveLayers()</text>
<text text-anchor="start" x="247.5" y="-442.5" font-family="Helvetica,sans-Serif" font-size="10.00">+ containsEntity()</text>
<text text-anchor="start" x="247.5" y="-431.5" font-family="Helvetica,sans-Serif" font-size="10.00">+ containsPoint()</text>
<text text-anchor="start" x="247.5" y="-420.5" font-family="Helvetica,sans-Serif" font-size="10.00">+ getRenderRange()</text>
<text text-anchor="start" x="247.5" y="-409.5" font-family="Helvetica,sans-Serif" font-size="10.00">+ getRingParams()</text>
<text text-anchor="start" x="247.5" y="-398.5" font-family="Helvetica,sans-Serif" font-size="10.00">+ getProximitySoundFactor()</text>
<text text-anchor="start" x="247.5" y="-387.5" font-family="Helvetica,sans-Serif" font-size="10.00">+ render()</text>
<text text-anchor="start" x="247.5" y="-376.5" font-family="Helvetica,sans-Serif" font-size="10.00">+ renderOnMap()</text>
<text text-anchor="start" x="247.5" y="-365.5" font-family="Helvetica,sans-Serif" font-size="10.00">+ renderOnMapAbove()</text>
<text text-anchor="start" x="247.5" y="-354.5" font-family="Helvetica,sans-Serif" font-size="10.00">+ getMaxEffectRadius()</text>
<text text-anchor="start" x="247.5" y="-343.5" font-family="Helvetica,sans-Serif" font-size="10.00">+ getMinEffectRadius()</text>
<text text-anchor="start" x="247.5" y="-332.5" font-family="Helvetica,sans-Serif" font-size="10.00">+ getOptimalEffectRadius()</text>
<text text-anchor="start" x="247.5" y="-321.5" font-family="Helvetica,sans-Serif" font-size="10.00">+ getNameAOrAn()</text>
<text text-anchor="start" x="247.5" y="-310.5" font-family="Helvetica,sans-Serif" font-size="10.00">~ writeReplace()</text>
<text text-anchor="start" x="247.5" y="-299.5" font-family="Helvetica,sans-Serif" font-size="10.00"># readResolve()</text>
<text text-anchor="start" x="247.5" y="-288.5" font-family="Helvetica,sans-Serif" font-size="10.00"># getMinRadiusForContains()</text>
<text text-anchor="start" x="247.5" y="-277.5" font-family="Helvetica,sans-Serif" font-size="10.00"># getMaxRadiusForContains()</text>
</a>
</g>
</g>
<!-- Node2&#45;&gt;Node1 -->
<g id="edge1" class="edge">
<title>Node2&#45;&gt;Node1</title>
<path fill="none" stroke="midnightblue" d="M337,-260.19C337,-247.65 337,-235.09 337,-222.88"/>
<polygon fill="none" stroke="midnightblue" points="333.5,-260.23 337,-270.23 340.5,-260.23 333.5,-260.23"/>
</g>
<!-- Node3 -->
<g id="node3" class="node">
<title>Node3</title>
<g id="a_node3"><a xlink:href="../../d9/d9b/classcom_1_1fs_1_1starfarer_1_1api_1_1impl_1_1campaign_1_1terrain_1_1BaseTerrain.html" target="_top" xlink:title=" ">
<polygon fill="none" stroke="black" points="226.5,-584.5 226.5,-927.5 421.5,-927.5 421.5,-584.5 226.5,-584.5"/>
<text text-anchor="start" x="234.5" y="-915.5" font-family="Helvetica,sans-Serif" font-size="10.00">com.fs.starfarer.api.impl.campaign.terrain.</text>
<text text-anchor="middle" x="324" y="-904.5" font-family="Helvetica,sans-Serif" font-size="10.00">BaseTerrain</text>
<polyline fill="none" stroke="black" points="226.5,-897.5 421.5,-897.5 "/>
<text text-anchor="start" x="234.5" y="-885.5" font-family="Helvetica,sans-Serif" font-size="10.00">+ EXTRA_SOUND_RADIUS</text>
<text text-anchor="start" x="234.5" y="-874.5" font-family="Helvetica,sans-Serif" font-size="10.00">+ TERRAIN_LOCK_KEY</text>
<text text-anchor="start" x="234.5" y="-863.5" font-family="Helvetica,sans-Serif" font-size="10.00"># terrainId</text>
<text text-anchor="start" x="234.5" y="-852.5" font-family="Helvetica,sans-Serif" font-size="10.00"># name</text>
<polyline fill="none" stroke="black" points="226.5,-845.5 421.5,-845.5 "/>
<text text-anchor="start" x="234.5" y="-833.5" font-family="Helvetica,sans-Serif" font-size="10.00">+ init()</text>
<text text-anchor="start" x="234.5" y="-822.5" font-family="Helvetica,sans-Serif" font-size="10.00">+ getIconSpriteName()</text>
<text text-anchor="start" x="234.5" y="-811.5" font-family="Helvetica,sans-Serif" font-size="10.00">+ getRelatedEntity()</text>
<text text-anchor="start" x="234.5" y="-800.5" font-family="Helvetica,sans-Serif" font-size="10.00">+ getEntity()</text>
<text text-anchor="start" x="234.5" y="-789.5" font-family="Helvetica,sans-Serif" font-size="10.00">+ getTerrainId()</text>
<text text-anchor="start" x="234.5" y="-778.5" font-family="Helvetica,sans-Serif" font-size="10.00">+ advance()</text>
<text text-anchor="start" x="234.5" y="-767.5" font-family="Helvetica,sans-Serif" font-size="10.00">+ getEffectCategory()</text>
<text text-anchor="start" x="234.5" y="-756.5" font-family="Helvetica,sans-Serif" font-size="10.00">+ containsEntity()</text>
<text text-anchor="start" x="234.5" y="-745.5" font-family="Helvetica,sans-Serif" font-size="10.00">+ containsPoint()</text>
<text text-anchor="start" x="234.5" y="-734.5" font-family="Helvetica,sans-Serif" font-size="10.00">+ stacksWithSelf()</text>
<text text-anchor="start" x="234.5" y="-723.5" font-family="Helvetica,sans-Serif" font-size="10.00">and 27 more...</text>
<text text-anchor="start" x="234.5" y="-712.5" font-family="Helvetica,sans-Serif" font-size="10.00"># shouldCheckFleetsToApply</text>
<text text-anchor="start" x="234.5" y="-701.5" font-family="Helvetica,sans-Serif" font-size="10.00">Effect()</text>
<text text-anchor="start" x="234.5" y="-690.5" font-family="Helvetica,sans-Serif" font-size="10.00"># getExtraSoundRadius()</text>
<text text-anchor="start" x="234.5" y="-679.5" font-family="Helvetica,sans-Serif" font-size="10.00"># createFirstSection()</text>
<text text-anchor="start" x="234.5" y="-668.5" font-family="Helvetica,sans-Serif" font-size="10.00"># createTravelSection()</text>
<text text-anchor="start" x="234.5" y="-657.5" font-family="Helvetica,sans-Serif" font-size="10.00"># createCombatSection()</text>
<text text-anchor="start" x="234.5" y="-646.5" font-family="Helvetica,sans-Serif" font-size="10.00"># shouldPlayLoopOne()</text>
<text text-anchor="start" x="234.5" y="-635.5" font-family="Helvetica,sans-Serif" font-size="10.00"># shouldPlayLoopTwo()</text>
<text text-anchor="start" x="234.5" y="-624.5" font-family="Helvetica,sans-Serif" font-size="10.00"># shouldPlayLoopThree()</text>
<text text-anchor="start" x="234.5" y="-613.5" font-family="Helvetica,sans-Serif" font-size="10.00"># shouldPlayLoopFour()</text>
<text text-anchor="start" x="234.5" y="-602.5" font-family="Helvetica,sans-Serif" font-size="10.00"># getLoopOnePitch()</text>
<text text-anchor="start" x="234.5" y="-591.5" font-family="Helvetica,sans-Serif" font-size="10.00">and 9 more...</text>
</a>
</g>
</g>
<!-- Node3&#45;&gt;Node2 -->
<g id="edge2" class="edge">
<title>Node3&#45;&gt;Node2</title>
<path fill="none" stroke="midnightblue" d="M330.7,-574.23C331.17,-561.6 331.64,-549 332.1,-536.7"/>
<polygon fill="none" stroke="midnightblue" points="327.2,-574.25 330.33,-584.37 334.2,-574.51 327.2,-574.25"/>
</g>
<!-- Node4 -->
<g id="node4" class="node">
<title>Node4</title>
<g id="a_node4"><a xlink:href="../../df/d02/interfacecom_1_1fs_1_1starfarer_1_1api_1_1campaign_1_1CampaignTerrainPlugin.html" target="_top" xlink:title=" ">
<polygon fill="none" stroke="black" points="402,-975.5 402,-1153.5 548,-1153.5 548,-975.5 402,-975.5"/>
<text text-anchor="start" x="410" y="-1141.5" font-family="Helvetica,sans-Serif" font-size="10.00">com.fs.starfarer.api.campaign.</text>
<text text-anchor="middle" x="475" y="-1130.5" font-family="Helvetica,sans-Serif" font-size="10.00">CampaignTerrainPlugin</text>
<polyline fill="none" stroke="black" points="402,-1123.5 548,-1123.5 "/>
<text text-anchor="middle" x="475" y="-1111.5" font-family="Helvetica,sans-Serif" font-size="10.00"> </text>
<polyline fill="none" stroke="black" points="402,-1104.5 548,-1104.5 "/>
<text text-anchor="start" x="410" y="-1092.5" font-family="Helvetica,sans-Serif" font-size="10.00">+ init()</text>
<text text-anchor="start" x="410" y="-1081.5" font-family="Helvetica,sans-Serif" font-size="10.00">+ getTerrainId()</text>
<text text-anchor="start" x="410" y="-1070.5" font-family="Helvetica,sans-Serif" font-size="10.00">+ getRenderRange()</text>
<text text-anchor="start" x="410" y="-1059.5" font-family="Helvetica,sans-Serif" font-size="10.00">+ getActiveLayers()</text>
<text text-anchor="start" x="410" y="-1048.5" font-family="Helvetica,sans-Serif" font-size="10.00">+ render()</text>
<text text-anchor="start" x="410" y="-1037.5" font-family="Helvetica,sans-Serif" font-size="10.00">+ advance()</text>
<text text-anchor="start" x="410" y="-1026.5" font-family="Helvetica,sans-Serif" font-size="10.00">+ renderOnMap()</text>
<text text-anchor="start" x="410" y="-1015.5" font-family="Helvetica,sans-Serif" font-size="10.00">+ renderOnMapAbove()</text>
<text text-anchor="start" x="410" y="-1004.5" font-family="Helvetica,sans-Serif" font-size="10.00">+ containsEntity()</text>
<text text-anchor="start" x="410" y="-993.5" font-family="Helvetica,sans-Serif" font-size="10.00">+ containsPoint()</text>
<text text-anchor="start" x="410" y="-982.5" font-family="Helvetica,sans-Serif" font-size="10.00">and 19 more...</text>
</a>
</g>
</g>
<!-- Node4&#45;&gt;Node3 -->
<g id="edge3" class="edge">
<title>Node4&#45;&gt;Node3</title>
<path fill="none" stroke="midnightblue" d="M427.11,-966.29C420.96,-953.82 414.54,-940.77 408.03,-927.56"/>
<polygon fill="none" stroke="midnightblue" points="423.97,-967.84 431.53,-975.26 430.25,-964.74 423.97,-967.84"/>
</g>
<!-- Node5 -->
<g id="node5" class="node">
<title>Node5</title>
<g id="a_node5"><a xlink:href="../../d6/de1/interfacecom_1_1fs_1_1starfarer_1_1api_1_1campaign_1_1SectorEntityToken.html" target="_top" xlink:title=" ">
<polygon fill="none" stroke="black" points="79,-975.5 79,-1153.5 225,-1153.5 225,-975.5 79,-975.5"/>
<text text-anchor="start" x="87" y="-1141.5" font-family="Helvetica,sans-Serif" font-size="10.00">com.fs.starfarer.api.campaign.</text>
<text text-anchor="middle" x="152" y="-1130.5" font-family="Helvetica,sans-Serif" font-size="10.00">SectorEntityToken</text>
<polyline fill="none" stroke="black" points="79,-1123.5 225,-1123.5 "/>
<text text-anchor="middle" x="152" y="-1111.5" font-family="Helvetica,sans-Serif" font-size="10.00"> </text>
<polyline fill="none" stroke="black" points="79,-1104.5 225,-1104.5 "/>
<text text-anchor="start" x="87" y="-1092.5" font-family="Helvetica,sans-Serif" font-size="10.00">+ isPlayerFleet()</text>
<text text-anchor="start" x="87" y="-1081.5" font-family="Helvetica,sans-Serif" font-size="10.00">+ getMarket()</text>
<text text-anchor="start" x="87" y="-1070.5" font-family="Helvetica,sans-Serif" font-size="10.00">+ setMarket()</text>
<text text-anchor="start" x="87" y="-1059.5" font-family="Helvetica,sans-Serif" font-size="10.00">+ getCargo()</text>
<text text-anchor="start" x="87" y="-1048.5" font-family="Helvetica,sans-Serif" font-size="10.00">+ getLocation()</text>
<text text-anchor="start" x="87" y="-1037.5" font-family="Helvetica,sans-Serif" font-size="10.00">+ getLocationInHyperspace()</text>
<text text-anchor="start" x="87" y="-1026.5" font-family="Helvetica,sans-Serif" font-size="10.00">+ getOrbit()</text>
<text text-anchor="start" x="87" y="-1015.5" font-family="Helvetica,sans-Serif" font-size="10.00">+ setOrbit()</text>
<text text-anchor="start" x="87" y="-1004.5" font-family="Helvetica,sans-Serif" font-size="10.00">+ getId()</text>
<text text-anchor="start" x="87" y="-993.5" font-family="Helvetica,sans-Serif" font-size="10.00">+ getName()</text>
<text text-anchor="start" x="87" y="-982.5" font-family="Helvetica,sans-Serif" font-size="10.00">and 115 more...</text>
</a>
</g>
</g>
<!-- Node5&#45;&gt;Node3 -->
<g id="edge4" class="edge">
<title>Node5&#45;&gt;Node3</title>
<path fill="none" stroke="#404040" d="M201.52,-975.26C208.15,-963.45 215.13,-951 222.27,-938.29"/>
<polygon fill="none" stroke="#404040" points="222.42,-938.02 221.86,-930.83 228.29,-927.56 228.84,-934.75 222.42,-938.02"/>
<text text-anchor="middle" x="233.5" y="-949" font-family="Helvetica,sans-Serif" font-size="10.00"> #entity</text>
</g>
<!-- Node9 -->
<g id="node9" class="node">
<title>Node9</title>
<g id="a_node9"><a xlink:href="../../d7/dd4/classcom_1_1fs_1_1starfarer_1_1api_1_1impl_1_1campaign_1_1terrain_1_1BaseRingTerrain_1_1RingParams.html" target="_top" xlink:title=" ">
<polygon fill="none" stroke="black" points="13.5,-705.5 13.5,-806.5 208.5,-806.5 208.5,-705.5 13.5,-705.5"/>
<text text-anchor="start" x="21.5" y="-794.5" font-family="Helvetica,sans-Serif" font-size="10.00">com.fs.starfarer.api.impl.campaign.terrain.</text>
<text text-anchor="middle" x="111" y="-783.5" font-family="Helvetica,sans-Serif" font-size="10.00">BaseRingTerrain.RingParams</text>
<polyline fill="none" stroke="black" points="13.5,-776.5 208.5,-776.5 "/>
<text text-anchor="start" x="21.5" y="-764.5" font-family="Helvetica,sans-Serif" font-size="10.00">+ bandWidthInEngine</text>
<text text-anchor="start" x="21.5" y="-753.5" font-family="Helvetica,sans-Serif" font-size="10.00">+ middleRadius</text>
<text text-anchor="start" x="21.5" y="-742.5" font-family="Helvetica,sans-Serif" font-size="10.00">+ name</text>
<polyline fill="none" stroke="black" points="13.5,-735.5 208.5,-735.5 "/>
<text text-anchor="start" x="21.5" y="-723.5" font-family="Helvetica,sans-Serif" font-size="10.00">+ RingParams()</text>
<text text-anchor="start" x="21.5" y="-712.5" font-family="Helvetica,sans-Serif" font-size="10.00">+ RingParams()</text>
</a>
</g>
</g>
<!-- Node5&#45;&gt;Node9 -->
<g id="edge9" class="edge">
<title>Node5&#45;&gt;Node9</title>
<path fill="none" stroke="#404040" d="M140.2,-975.26C133.48,-925.04 125.23,-863.39 119.22,-818.43"/>
<polygon fill="none" stroke="#404040" points="119.21,-818.41 114.45,-812.99 117.62,-806.51 122.38,-811.93 119.21,-818.41"/>
<text text-anchor="middle" x="169" y="-949" font-family="Helvetica,sans-Serif" font-size="10.00"> +relatedEntity</text>
</g>
<!-- Node6 -->
<g id="node6" class="node">
<title>Node6</title>
<g id="a_node6"><a xlink:href="../../de/da5/interfacecom_1_1fs_1_1starfarer_1_1api_1_1campaign_1_1rules_1_1HasMemory.html" target="_top" xlink:title=" ">
<polygon fill="none" stroke="black" points="67.5,-1191.5 67.5,-1270.5 236.5,-1270.5 236.5,-1191.5 67.5,-1191.5"/>
<text text-anchor="start" x="75.5" y="-1258.5" font-family="Helvetica,sans-Serif" font-size="10.00">com.fs.starfarer.api.campaign.rules.</text>
<text text-anchor="middle" x="152" y="-1247.5" font-family="Helvetica,sans-Serif" font-size="10.00">HasMemory</text>
<polyline fill="none" stroke="black" points="67.5,-1240.5 236.5,-1240.5 "/>
<text text-anchor="middle" x="152" y="-1228.5" font-family="Helvetica,sans-Serif" font-size="10.00"> </text>
<polyline fill="none" stroke="black" points="67.5,-1221.5 236.5,-1221.5 "/>
<text text-anchor="start" x="75.5" y="-1209.5" font-family="Helvetica,sans-Serif" font-size="10.00">+ getMemory()</text>
<text text-anchor="start" x="75.5" y="-1198.5" font-family="Helvetica,sans-Serif" font-size="10.00">+ getMemoryWithoutUpdate()</text>
</a>
</g>
</g>
<!-- Node6&#45;&gt;Node5 -->
<g id="edge5" class="edge">
<title>Node6&#45;&gt;Node5</title>
<path fill="none" stroke="midnightblue" d="M152,-1181.39C152,-1172.56 152,-1163.11 152,-1153.55"/>
<polygon fill="none" stroke="midnightblue" points="148.5,-1181.43 152,-1191.43 155.5,-1181.43 148.5,-1181.43"/>
</g>
<!-- Node7 -->
<g id="node7" class="node">
<title>Node7</title>
<g id="a_node7"><a xlink:href="../../d4/d32/interfacecom_1_1fs_1_1starfarer_1_1api_1_1loading_1_1TerrainSpecAPI.html" target="_top" xlink:title=" ">
<polygon fill="none" stroke="black" points="250,-992 250,-1137 384,-1137 384,-992 250,-992"/>
<text text-anchor="start" x="258" y="-1125" font-family="Helvetica,sans-Serif" font-size="10.00">com.fs.starfarer.api.loading.</text>
<text text-anchor="middle" x="317" y="-1114" font-family="Helvetica,sans-Serif" font-size="10.00">TerrainSpecAPI</text>
<polyline fill="none" stroke="black" points="250,-1107 384,-1107 "/>
<text text-anchor="middle" x="317" y="-1095" font-family="Helvetica,sans-Serif" font-size="10.00"> </text>
<polyline fill="none" stroke="black" points="250,-1088 384,-1088 "/>
<text text-anchor="start" x="258" y="-1076" font-family="Helvetica,sans-Serif" font-size="10.00">+ getId()</text>
<text text-anchor="start" x="258" y="-1065" font-family="Helvetica,sans-Serif" font-size="10.00">+ getPluginClass()</text>
<text text-anchor="start" x="258" y="-1054" font-family="Helvetica,sans-Serif" font-size="10.00">+ getLoopOne()</text>
<text text-anchor="start" x="258" y="-1043" font-family="Helvetica,sans-Serif" font-size="10.00">+ getLoopTwo()</text>
<text text-anchor="start" x="258" y="-1032" font-family="Helvetica,sans-Serif" font-size="10.00">+ getLoopThree()</text>
<text text-anchor="start" x="258" y="-1021" font-family="Helvetica,sans-Serif" font-size="10.00">+ getLoopFour()</text>
<text text-anchor="start" x="258" y="-1010" font-family="Helvetica,sans-Serif" font-size="10.00">+ getCustom()</text>
<text text-anchor="start" x="258" y="-999" font-family="Helvetica,sans-Serif" font-size="10.00">+ getMusicSuppression()</text>
</a>
</g>
</g>
<!-- Node7&#45;&gt;Node3 -->
<g id="edge6" class="edge">
<title>Node7&#45;&gt;Node3</title>
<path fill="none" stroke="#404040" d="M318.64,-991.64C319.01,-975.6 319.41,-957.89 319.83,-939.59"/>
<polygon fill="none" stroke="#404040" points="319.83,-939.5 315.97,-933.41 320.11,-927.5 323.97,-933.59 319.83,-939.5"/>
<text text-anchor="middle" x="333.5" y="-949" font-family="Helvetica,sans-Serif" font-size="10.00"> &#45;spec</text>
</g>
<!-- Node8 -->
<g id="node8" class="node">
<title>Node8</title>
<g id="a_node8"><a xlink:title=" ">
<polygon fill="none" stroke="#bfbfbf" points="439,-722 439,-790 633,-790 633,-722 439,-722"/>
<text text-anchor="start" x="447" y="-778" font-family="Helvetica,sans-Serif" font-size="10.00">EnumSet&lt; com.fs.starfarer.api.campaign.</text>
<text text-anchor="middle" x="536" y="-767" font-family="Helvetica,sans-Serif" font-size="10.00">CampaignEngineLayers &gt;</text>
<polyline fill="none" stroke="#bfbfbf" points="439,-760 633,-760 "/>
<text text-anchor="middle" x="536" y="-748" font-family="Helvetica,sans-Serif" font-size="10.00"> </text>
<polyline fill="none" stroke="#bfbfbf" points="439,-741 633,-741 "/>
<text text-anchor="middle" x="536" y="-729" font-family="Helvetica,sans-Serif" font-size="10.00"> </text>
</a>
</g>
</g>
<!-- Node8&#45;&gt;Node1 -->
<g id="edge10" class="edge">
<title>Node8&#45;&gt;Node1</title>
<path fill="none" stroke="#404040" d="M534.22,-721.93C528.94,-641.6 509.32,-430.91 443,-270 437.9,-257.63 431.75,-245.22 425.02,-233.09"/>
<polygon fill="none" stroke="#404040" points="424.92,-232.93 418.47,-229.71 418.96,-222.52 425.41,-225.73 424.92,-232.93"/>
<text text-anchor="middle" x="528.5" y="-401" font-family="Helvetica,sans-Serif" font-size="10.00"> &#45;layers</text>
</g>
<!-- Node8&#45;&gt;Node2 -->
<g id="edge7" class="edge">
<title>Node8&#45;&gt;Node2</title>
<path fill="none" stroke="#404040" d="M517.1,-721.71C494.31,-681.57 454.51,-611.48 418.12,-547.38"/>
<polygon fill="none" stroke="#404040" points="418,-547.17 411.56,-543.93 412.08,-536.74 418.52,-539.98 418,-547.17"/>
<text text-anchor="middle" x="441" y="-558" font-family="Helvetica,sans-Serif" font-size="10.00"> #layers</text>
</g>
<!-- Node9&#45;&gt;Node2 -->
<g id="edge8" class="edge">
<title>Node9&#45;&gt;Node2</title>
<path fill="none" stroke="#404040" d="M141.17,-705.33C162.14,-671.05 190.9,-624.53 217,-584 224.69,-572.06 232.73,-559.72 240.85,-547.36"/>
<polygon fill="none" stroke="#404040" points="241.09,-547.01 241.05,-539.8 247.69,-536.99 247.73,-544.2 241.09,-547.01"/>
<text text-anchor="middle" x="253.5" y="-558" font-family="Helvetica,sans-Serif" font-size="10.00"> +params</text>
</g>
<!-- Node10 -->
<g id="node10" class="node">
<title>Node10</title>
<g id="a_node10"><a xlink:href="../../df/d35/classcom_1_1fs_1_1starfarer_1_1api_1_1impl_1_1campaign_1_1terrain_1_1RadioChatterTerrainPlugin_1_1RadioChatterParams.html" target="_top" xlink:title=" ">
<polygon fill="none" stroke="black" points="0,-369.5 0,-437.5 222,-437.5 222,-369.5 0,-369.5"/>
<text text-anchor="start" x="8" y="-425.5" font-family="Helvetica,sans-Serif" font-size="10.00">com.fs.starfarer.api.impl.campaign.terrain.</text>
<text text-anchor="middle" x="111" y="-414.5" font-family="Helvetica,sans-Serif" font-size="10.00">RadioChatterTerrainPlugin.RadioChatterParams</text>
<polyline fill="none" stroke="black" points="0,-407.5 222,-407.5 "/>
<text text-anchor="middle" x="111" y="-395.5" font-family="Helvetica,sans-Serif" font-size="10.00"> </text>
<polyline fill="none" stroke="black" points="0,-388.5 222,-388.5 "/>
<text text-anchor="start" x="8" y="-376.5" font-family="Helvetica,sans-Serif" font-size="10.00">+ RadioChatterParams()</text>
</a>
</g>
</g>
<!-- Node9&#45;&gt;Node10 -->
<g id="edge12" class="edge">
<title>Node9&#45;&gt;Node10</title>
<path fill="none" stroke="midnightblue" d="M111,-695.02C111,-620.79 111,-496.97 111,-437.87"/>
<polygon fill="none" stroke="midnightblue" points="107.5,-695.15 111,-705.15 114.5,-695.15 107.5,-695.15"/>
</g>
<!-- Node10&#45;&gt;Node1 -->
<g id="edge11" class="edge">
<title>Node10&#45;&gt;Node1</title>
<path fill="none" stroke="#404040" d="M136.93,-369.23C163.07,-335.69 204.98,-281.9 243.71,-232.2"/>
<polygon fill="none" stroke="#404040" points="243.78,-232.12 244.31,-224.93 251.16,-222.65 250.62,-229.84 243.78,-232.12"/>
<text text-anchor="middle" x="251" y="-244" font-family="Helvetica,sans-Serif" font-size="10.00"> #params</text>
</g>
</g>
</svg>
        <g id="navigator" transform="translate(0 0)" fill="#404254">
                <rect fill="#f2f5e9" fill-opacity="0.5" stroke="#606060" stroke-width=".5" x="0" y="0" width="60" height="60"/>
                <use id="zoomplus" xlink:href="#zoomPlus" x="17" y="9" onmousedown="handleZoom(evt,'in')"/>
                <use id="zoomminus" xlink:href="#zoomMin" x="42" y="9" onmousedown="handleZoom(evt,'out')"/>
                <use id="reset" xlink:href="#resetDef" x="30" y="36" onmousedown="handleReset()"/>
                <g id="arrowUp" xlink:href="#dirArrow" transform="translate(30 24)" onmousedown="handlePan(0,-1)">
                  <use xlink:href="#rim" fill="#404040">
                        <set attributeName="fill" to="#808080" begin="arrowUp.mouseover" end="arrowUp.mouseout"/>
                  </use>
                  <path fill="none" stroke="white" stroke-width="1.5" d="M0,-3.0v7 M-2.5,-0.5L0,-3.0L2.5,-0.5"/>
                </g>
                <g id="arrowRight" xlink:href="#dirArrow" transform="rotate(90) translate(36 -43)" onmousedown="handlePan(1,0)">
                  <use xlink:href="#rim" fill="#404040">
                        <set attributeName="fill" to="#808080" begin="arrowRight.mouseover" end="arrowRight.mouseout"/>
                  </use>
                  <path fill="none" stroke="white" stroke-width="1.5" d="M0,-3.0v7 M-2.5,-0.5L0,-3.0L2.5,-0.5"/>
                </g>
                <g id="arrowDown" xlink:href="#dirArrow" transform="rotate(180) translate(-30 -48)" onmousedown="handlePan(0,1)">
                  <use xlink:href="#rim" fill="#404040">
                        <set attributeName="fill" to="#808080" begin="arrowDown.mouseover" end="arrowDown.mouseout"/>
                  </use>
                  <path fill="none" stroke="white" stroke-width="1.5" d="M0,-3.0v7 M-2.5,-0.5L0,-3.0L2.5,-0.5"/>
                </g>
                <g id="arrowLeft" xlink:href="#dirArrow" transform="rotate(270) translate(-36 17)" onmousedown="handlePan(-1,0)">
                  <use xlink:href="#rim" fill="#404040">
                        <set attributeName="fill" to="#808080" begin="arrowLeft.mouseover" end="arrowLeft.mouseout"/>
                  </use>
                  <path fill="none" stroke="white" stroke-width="1.5" d="M0,-3.0v7 M-2.5,-0.5L0,-3.0L2.5,-0.5"/>
                </g>
        </g>
        <svg viewBox="0 0 15 15" width="100%" height="30px" preserveAspectRatio="xMaxYMin meet">
         <g id="arrow_out" transform="scale(0.3 0.3)">
          <a xlink:href="classcom_1_1fs_1_1starfarer_1_1api_1_1impl_1_1campaign_1_1terrain_1_1RadioChatterTerrainPlugin__coll__graph_org.svg" target="_base">
           <rect id="button" ry="5" rx="5" y="6" x="6" height="38" width="38"
                fill="#f2f5e9" fill-opacity="0.5" stroke="#606060" stroke-width="1.0"/>
           <path id="arrow"
             d="M 11.500037,31.436501 C 11.940474,20.09759 22.043105,11.32322 32.158766,21.979434 L 37.068811,17.246167 C 37.068811,17.246167 37.088388,32 37.088388,32 L 22.160133,31.978069 C 22.160133,31.978069 26.997745,27.140456 26.997745,27.140456 C 18.528582,18.264221 13.291696,25.230495 11.500037,31.436501 z"
             style="fill:#404040;"/>
          </a>
         </g>
        </svg>
</svg>
