<?xml version="1.0" encoding="UTF-8" standalone="no"?>
<!DOCTYPE svg PUBLIC "-//W3C//DTD SVG 1.1//EN"
 "http://www.w3.org/Graphics/SVG/1.1/DTD/svg11.dtd">
<!-- Generated by graphviz version 2.44.0 ()
 -->
<!-- Title: com.fs.starfarer.api.impl.campaign.fleets.DisposableFleetManager Pages: 1 -->
<!--zoomable 1074 -->
<svg id="main" version="1.1" xmlns="http://www.w3.org/2000/svg" xmlns:xlink="http://www.w3.org/1999/xlink" xml:space="preserve" onload="init(evt)">
<style type="text/css"><![CDATA[
.edge:hover path { stroke: red; }
.edge:hover polygon { stroke: red; fill: red; }
]]></style>
<script type="text/javascript"><![CDATA[
var edges = document.getElementsByTagName('g');
if (edges && edges.length) {
  for (var i=0;i<edges.length;i++) {
    if (edges[i].id.substr(0,4)=='edge') {
      edges[i].setAttribute('class','edge');
    }
  }
}
]]></script>
        <defs>
                <circle id="rim" cx="0" cy="0" r="7"/>
                <circle id="rim2" cx="0" cy="0" r="3.5"/>
                <g id="zoomPlus">
                        <use xlink:href="#rim" fill="#404040">
                                <set attributeName="fill" to="#808080" begin="zoomplus.mouseover" end="zoomplus.mouseout"/>
                        </use>
                        <path d="M-4,0h8M0,-4v8" fill="none" stroke="white" stroke-width="1.5" pointer-events="none"/>
                </g>
                <g id="zoomMin">
                        <use xlink:href="#rim" fill="#404040">
                                <set attributeName="fill" to="#808080" begin="zoomminus.mouseover" end="zoomminus.mouseout"/>
                        </use>
                        <path d="M-4,0h8" fill="none" stroke="white" stroke-width="1.5" pointer-events="none"/>
                </g>
                <g id="dirArrow">
                        <path fill="none" stroke="white" stroke-width="1.5" d="M0,-3.0v7 M-2.5,-0.5L0,-3.0L2.5,-0.5"/>
                </g>
               <g id="resetDef">
                       <use xlink:href="#rim2" fill="#404040">
                               <set attributeName="fill" to="#808080" begin="reset.mouseover" end="reset.mouseout"/>
                       </use>
               </g>
        </defs>

<script type="text/javascript">
var viewWidth = 1082;
var viewHeight = 1074;
var sectionId = 'dynsection-1';
</script>
<script xlink:href="../../svgpan.js"/>
<svg id="graph" class="graph">
<g id="viewport">
<title>com.fs.starfarer.api.impl.campaign.fleets.DisposableFleetManager</title>
<!-- Node1 -->
<g id="node1" class="node">
<title>Node1</title>
<g id="a_node1"><a xlink:title=" ">
<polygon fill="#bfbfbf" stroke="black" points="665,-0.5 665,-299.5 856,-299.5 856,-0.5 665,-0.5"/>
<text text-anchor="start" x="673" y="-287.5" font-family="Helvetica,sans-Serif" font-size="10.00">com.fs.starfarer.api.impl.campaign.fleets.</text>
<text text-anchor="middle" x="760.5" y="-276.5" font-family="Helvetica,sans-Serif" font-size="10.00">DisposableFleetManager</text>
<polyline fill="none" stroke="black" points="665,-269.5 856,-269.5 "/>
<text text-anchor="start" x="673" y="-257.5" font-family="Helvetica,sans-Serif" font-size="10.00">+ DEBUG</text>
<text text-anchor="start" x="673" y="-246.5" font-family="Helvetica,sans-Serif" font-size="10.00">+ KEY_SYSTEM</text>
<text text-anchor="start" x="673" y="-235.5" font-family="Helvetica,sans-Serif" font-size="10.00">+ KEY_SPAWN_FP</text>
<text text-anchor="start" x="673" y="-224.5" font-family="Helvetica,sans-Serif" font-size="10.00">+ MAX_RANGE_FROM_PLAYER_LY</text>
<text text-anchor="start" x="673" y="-213.5" font-family="Helvetica,sans-Serif" font-size="10.00">+ DESPAWN_RANGE_LY</text>
<text text-anchor="start" x="673" y="-202.5" font-family="Helvetica,sans-Serif" font-size="10.00"># spawnRateMult</text>
<polyline fill="none" stroke="black" points="665,-195.5 856,-195.5 "/>
<text text-anchor="start" x="673" y="-183.5" font-family="Helvetica,sans-Serif" font-size="10.00">+ getSpawnRateMult()</text>
<text text-anchor="start" x="673" y="-172.5" font-family="Helvetica,sans-Serif" font-size="10.00">+ advance()</text>
<text text-anchor="start" x="673" y="-161.5" font-family="Helvetica,sans-Serif" font-size="10.00">+ getCurrSpawnLoc()</text>
<text text-anchor="start" x="673" y="-150.5" font-family="Helvetica,sans-Serif" font-size="10.00">+ spawnFleet()</text>
<text text-anchor="start" x="673" y="-139.5" font-family="Helvetica,sans-Serif" font-size="10.00"># readResolve()</text>
<text text-anchor="start" x="673" y="-128.5" font-family="Helvetica,sans-Serif" font-size="10.00"># getExpireDaysPerFleet()</text>
<text text-anchor="start" x="673" y="-117.5" font-family="Helvetica,sans-Serif" font-size="10.00"># getSpawnKey()</text>
<text text-anchor="start" x="673" y="-106.5" font-family="Helvetica,sans-Serif" font-size="10.00"># addRecentSpawn()</text>
<text text-anchor="start" x="673" y="-95.5" font-family="Helvetica,sans-Serif" font-size="10.00"># getRecentSpawnsForSystem()</text>
<text text-anchor="start" x="673" y="-84.5" font-family="Helvetica,sans-Serif" font-size="10.00"># getMaxFleets()</text>
<text text-anchor="start" x="673" y="-73.5" font-family="Helvetica,sans-Serif" font-size="10.00"># isOkToDespawnAssumingNot</text>
<text text-anchor="start" x="673" y="-62.5" font-family="Helvetica,sans-Serif" font-size="10.00">PlayerVisible()</text>
<text text-anchor="start" x="673" y="-51.5" font-family="Helvetica,sans-Serif" font-size="10.00"># updateSpawnRateMult()</text>
<text text-anchor="start" x="673" y="-40.5" font-family="Helvetica,sans-Serif" font-size="10.00"># pickCurrentSpawnLocation()</text>
<text text-anchor="start" x="673" y="-29.5" font-family="Helvetica,sans-Serif" font-size="10.00"># getDesiredNumFleetsForSpawn</text>
<text text-anchor="start" x="673" y="-18.5" font-family="Helvetica,sans-Serif" font-size="10.00">Location()</text>
<text text-anchor="start" x="673" y="-7.5" font-family="Helvetica,sans-Serif" font-size="10.00">and 7 more...</text>
</a>
</g>
</g>
<!-- Node2 -->
<g id="node2" class="node">
<title>Node2</title>
<g id="a_node2"><a xlink:href="../../d8/ddb/classcom_1_1fs_1_1starfarer_1_1api_1_1impl_1_1campaign_1_1fleets_1_1PlayerVisibleFleetManager.html" target="_top" xlink:title=" ">
<polygon fill="none" stroke="black" points="506,-375 506,-509 697,-509 697,-375 506,-375"/>
<text text-anchor="start" x="514" y="-497" font-family="Helvetica,sans-Serif" font-size="10.00">com.fs.starfarer.api.impl.campaign.fleets.</text>
<text text-anchor="middle" x="601.5" y="-486" font-family="Helvetica,sans-Serif" font-size="10.00">PlayerVisibleFleetManager</text>
<polyline fill="none" stroke="black" points="506,-479 697,-479 "/>
<text text-anchor="middle" x="601.5" y="-467" font-family="Helvetica,sans-Serif" font-size="10.00"> </text>
<polyline fill="none" stroke="black" points="506,-460 697,-460 "/>
<text text-anchor="start" x="514" y="-448" font-family="Helvetica,sans-Serif" font-size="10.00">+ advance()</text>
<text text-anchor="start" x="514" y="-437" font-family="Helvetica,sans-Serif" font-size="10.00"># readResolve()</text>
<text text-anchor="start" x="514" y="-426" font-family="Helvetica,sans-Serif" font-size="10.00"># isOkToDespawnAssumingNot</text>
<text text-anchor="start" x="514" y="-415" font-family="Helvetica,sans-Serif" font-size="10.00">PlayerVisible()</text>
<text text-anchor="start" x="514" y="-404" font-family="Helvetica,sans-Serif" font-size="10.00"># isVisibleToPlayer()</text>
<text text-anchor="start" x="514" y="-393" font-family="Helvetica,sans-Serif" font-size="10.00"># getHyperspaceCullRange()</text>
<text text-anchor="start" x="514" y="-382" font-family="Helvetica,sans-Serif" font-size="10.00"># getInSystemCullRange()</text>
</a>
</g>
</g>
<!-- Node2&#45;&gt;Node1 -->
<g id="edge1" class="edge">
<title>Node2&#45;&gt;Node1</title>
<path fill="none" stroke="midnightblue" d="M642.66,-365.93C653.86,-345.5 666.4,-322.63 679,-299.65"/>
<polygon fill="none" stroke="midnightblue" points="639.52,-364.38 637.78,-374.83 645.66,-367.75 639.52,-364.38"/>
</g>
<!-- Node3 -->
<g id="node3" class="node">
<title>Node3</title>
<g id="a_node3"><a xlink:href="../../d2/dda/classcom_1_1fs_1_1starfarer_1_1api_1_1impl_1_1campaign_1_1fleets_1_1BaseLimitedFleetManager.html" target="_top" xlink:title=" ">
<polygon fill="none" stroke="black" points="339,-584.5 339,-773.5 530,-773.5 530,-584.5 339,-584.5"/>
<text text-anchor="start" x="347" y="-761.5" font-family="Helvetica,sans-Serif" font-size="10.00">com.fs.starfarer.api.impl.campaign.fleets.</text>
<text text-anchor="middle" x="434.5" y="-750.5" font-family="Helvetica,sans-Serif" font-size="10.00">BaseLimitedFleetManager</text>
<polyline fill="none" stroke="black" points="339,-743.5 530,-743.5 "/>
<text text-anchor="middle" x="434.5" y="-731.5" font-family="Helvetica,sans-Serif" font-size="10.00"> </text>
<polyline fill="none" stroke="black" points="339,-724.5 530,-724.5 "/>
<text text-anchor="start" x="347" y="-712.5" font-family="Helvetica,sans-Serif" font-size="10.00">+ BaseLimitedFleetManager()</text>
<text text-anchor="start" x="347" y="-701.5" font-family="Helvetica,sans-Serif" font-size="10.00">+ advance()</text>
<text text-anchor="start" x="347" y="-690.5" font-family="Helvetica,sans-Serif" font-size="10.00">+ isDone()</text>
<text text-anchor="start" x="347" y="-679.5" font-family="Helvetica,sans-Serif" font-size="10.00">+ runWhilePaused()</text>
<text text-anchor="start" x="347" y="-668.5" font-family="Helvetica,sans-Serif" font-size="10.00">+ reportFleetDespawned()</text>
<text text-anchor="start" x="347" y="-657.5" font-family="Helvetica,sans-Serif" font-size="10.00">+ reportBattleOccurred()</text>
<text text-anchor="start" x="347" y="-646.5" font-family="Helvetica,sans-Serif" font-size="10.00">+ reportFleetDespawnedToListener()</text>
<text text-anchor="start" x="347" y="-635.5" font-family="Helvetica,sans-Serif" font-size="10.00"># readResolve()</text>
<text text-anchor="start" x="347" y="-624.5" font-family="Helvetica,sans-Serif" font-size="10.00"># getMaxFleets()</text>
<text text-anchor="start" x="347" y="-613.5" font-family="Helvetica,sans-Serif" font-size="10.00"># spawnFleet()</text>
<text text-anchor="start" x="347" y="-602.5" font-family="Helvetica,sans-Serif" font-size="10.00"># getNextInterval()</text>
<text text-anchor="start" x="347" y="-591.5" font-family="Helvetica,sans-Serif" font-size="10.00"># getSpawnRateMult()</text>
</a>
</g>
</g>
<!-- Node3&#45;&gt;Node2 -->
<g id="edge2" class="edge">
<title>Node3&#45;&gt;Node2</title>
<path fill="none" stroke="midnightblue" d="M506.9,-576.12C523.03,-553.42 539.73,-529.92 554.52,-509.11"/>
<polygon fill="none" stroke="midnightblue" points="503.92,-574.27 500.98,-584.45 509.63,-578.32 503.92,-574.27"/>
</g>
<!-- Node4 -->
<g id="node4" class="node">
<title>Node4</title>
<g id="a_node4"><a xlink:href="../../d7/d63/interfacecom_1_1fs_1_1starfarer_1_1api_1_1EveryFrameScript.html" target="_top" xlink:title=" ">
<polygon fill="none" stroke="black" points="0,-898.5 0,-988.5 125,-988.5 125,-898.5 0,-898.5"/>
<text text-anchor="start" x="8" y="-976.5" font-family="Helvetica,sans-Serif" font-size="10.00">com.fs.starfarer.api.Every</text>
<text text-anchor="middle" x="62.5" y="-965.5" font-family="Helvetica,sans-Serif" font-size="10.00">FrameScript</text>
<polyline fill="none" stroke="black" points="0,-958.5 125,-958.5 "/>
<text text-anchor="middle" x="62.5" y="-946.5" font-family="Helvetica,sans-Serif" font-size="10.00"> </text>
<polyline fill="none" stroke="black" points="0,-939.5 125,-939.5 "/>
<text text-anchor="start" x="8" y="-927.5" font-family="Helvetica,sans-Serif" font-size="10.00">+ isDone()</text>
<text text-anchor="start" x="8" y="-916.5" font-family="Helvetica,sans-Serif" font-size="10.00">+ runWhilePaused()</text>
<text text-anchor="start" x="8" y="-905.5" font-family="Helvetica,sans-Serif" font-size="10.00">+ advance()</text>
</a>
</g>
</g>
<!-- Node4&#45;&gt;Node3 -->
<g id="edge3" class="edge">
<title>Node4&#45;&gt;Node3</title>
<path fill="none" stroke="midnightblue" d="M84.72,-889.36C96.51,-866.08 112.87,-839.83 133.5,-821 192.2,-767.4 274.88,-730.66 338.74,-708.15"/>
<polygon fill="none" stroke="midnightblue" points="81.52,-887.93 80.26,-898.45 87.81,-891.01 81.52,-887.93"/>
</g>
<!-- Node5 -->
<g id="node5" class="node">
<title>Node5</title>
<g id="a_node5"><a xlink:href="../../d5/d7b/interfacecom_1_1fs_1_1starfarer_1_1api_1_1campaign_1_1listeners_1_1FleetEventListener.html" target="_top" xlink:title=" ">
<polygon fill="none" stroke="black" points="143,-904 143,-983 328,-983 328,-904 143,-904"/>
<text text-anchor="start" x="151" y="-971" font-family="Helvetica,sans-Serif" font-size="10.00">com.fs.starfarer.api.campaign.listeners.</text>
<text text-anchor="middle" x="235.5" y="-960" font-family="Helvetica,sans-Serif" font-size="10.00">FleetEventListener</text>
<polyline fill="none" stroke="black" points="143,-953 328,-953 "/>
<text text-anchor="middle" x="235.5" y="-941" font-family="Helvetica,sans-Serif" font-size="10.00"> </text>
<polyline fill="none" stroke="black" points="143,-934 328,-934 "/>
<text text-anchor="start" x="151" y="-922" font-family="Helvetica,sans-Serif" font-size="10.00">+ reportFleetDespawnedToListener()</text>
<text text-anchor="start" x="151" y="-911" font-family="Helvetica,sans-Serif" font-size="10.00">+ reportBattleOccurred()</text>
</a>
</g>
</g>
<!-- Node5&#45;&gt;Node3 -->
<g id="edge4" class="edge">
<title>Node5&#45;&gt;Node3</title>
<path fill="none" stroke="midnightblue" d="M271.16,-895.46C296.79,-861.66 332.2,-814.95 363.5,-773.66"/>
<polygon fill="none" stroke="midnightblue" points="268.12,-893.68 264.86,-903.77 273.69,-897.91 268.12,-893.68"/>
</g>
<!-- Node6 -->
<g id="node6" class="node">
<title>Node6</title>
<g id="a_node6"><a xlink:title=" ">
<polygon fill="none" stroke="#bfbfbf" points="346,-915 346,-972 393,-972 393,-915 346,-915"/>
<text text-anchor="middle" x="369.5" y="-960" font-family="Helvetica,sans-Serif" font-size="10.00">Logger</text>
<polyline fill="none" stroke="#bfbfbf" points="346,-953 393,-953 "/>
<text text-anchor="middle" x="369.5" y="-941" font-family="Helvetica,sans-Serif" font-size="10.00"> </text>
<polyline fill="none" stroke="#bfbfbf" points="346,-934 393,-934 "/>
<text text-anchor="middle" x="369.5" y="-922" font-family="Helvetica,sans-Serif" font-size="10.00"> </text>
</a>
</g>
</g>
<!-- Node6&#45;&gt;Node3 -->
<g id="edge5" class="edge">
<title>Node6&#45;&gt;Node3</title>
<path fill="none" stroke="#404040" d="M376.33,-914.9C383.95,-884.14 396.73,-832.52 408.38,-785.5"/>
<polygon fill="none" stroke="#404040" points="408.42,-785.3 405.98,-778.52 411.31,-773.65 413.75,-780.44 408.42,-785.3"/>
<text text-anchor="middle" x="417.5" y="-795" font-family="Helvetica,sans-Serif" font-size="10.00"> +log</text>
</g>
<!-- Node7 -->
<g id="node7" class="node">
<title>Node7</title>
<g id="a_node7"><a xlink:href="../../da/db8/classcom_1_1fs_1_1starfarer_1_1api_1_1util_1_1IntervalUtil.html" target="_top" xlink:title=" ">
<polygon fill="none" stroke="black" points="652,-821.5 652,-1065.5 771,-1065.5 771,-821.5 652,-821.5"/>
<text text-anchor="start" x="660" y="-1053.5" font-family="Helvetica,sans-Serif" font-size="10.00">com.fs.starfarer.api.util.</text>
<text text-anchor="middle" x="711.5" y="-1042.5" font-family="Helvetica,sans-Serif" font-size="10.00">IntervalUtil</text>
<polyline fill="none" stroke="black" points="652,-1035.5 771,-1035.5 "/>
<text text-anchor="start" x="660" y="-1023.5" font-family="Helvetica,sans-Serif" font-size="10.00">&#45; minInterval</text>
<text text-anchor="start" x="660" y="-1012.5" font-family="Helvetica,sans-Serif" font-size="10.00">&#45; maxInterval</text>
<text text-anchor="start" x="660" y="-1001.5" font-family="Helvetica,sans-Serif" font-size="10.00">&#45; currInterval</text>
<text text-anchor="start" x="660" y="-990.5" font-family="Helvetica,sans-Serif" font-size="10.00">&#45; elapsed</text>
<text text-anchor="start" x="660" y="-979.5" font-family="Helvetica,sans-Serif" font-size="10.00">&#45; intervalElapsed</text>
<polyline fill="none" stroke="black" points="652,-972.5 771,-972.5 "/>
<text text-anchor="start" x="660" y="-960.5" font-family="Helvetica,sans-Serif" font-size="10.00">+ IntervalUtil()</text>
<text text-anchor="start" x="660" y="-949.5" font-family="Helvetica,sans-Serif" font-size="10.00">+ forceCurrInterval()</text>
<text text-anchor="start" x="660" y="-938.5" font-family="Helvetica,sans-Serif" font-size="10.00">+ randomize()</text>
<text text-anchor="start" x="660" y="-927.5" font-family="Helvetica,sans-Serif" font-size="10.00">+ forceIntervalElapsed()</text>
<text text-anchor="start" x="660" y="-916.5" font-family="Helvetica,sans-Serif" font-size="10.00">+ getElapsed()</text>
<text text-anchor="start" x="660" y="-905.5" font-family="Helvetica,sans-Serif" font-size="10.00">+ advance()</text>
<text text-anchor="start" x="660" y="-894.5" font-family="Helvetica,sans-Serif" font-size="10.00">+ intervalElapsed()</text>
<text text-anchor="start" x="660" y="-883.5" font-family="Helvetica,sans-Serif" font-size="10.00">+ getIntervalDuration()</text>
<text text-anchor="start" x="660" y="-872.5" font-family="Helvetica,sans-Serif" font-size="10.00">+ setInterval()</text>
<text text-anchor="start" x="660" y="-861.5" font-family="Helvetica,sans-Serif" font-size="10.00">+ setElapsed()</text>
<text text-anchor="start" x="660" y="-850.5" font-family="Helvetica,sans-Serif" font-size="10.00">+ getMinInterval()</text>
<text text-anchor="start" x="660" y="-839.5" font-family="Helvetica,sans-Serif" font-size="10.00">+ getMaxInterval()</text>
<text text-anchor="start" x="660" y="-828.5" font-family="Helvetica,sans-Serif" font-size="10.00">&#45; nextInterval()</text>
</a>
</g>
</g>
<!-- Node7&#45;&gt;Node1 -->
<g id="edge9" class="edge">
<title>Node7&#45;&gt;Node1</title>
<path fill="none" stroke="#404040" d="M717.29,-821.26C723.26,-700.89 733.26,-511.12 744.5,-347 745.28,-335.62 746.13,-323.88 747.01,-312.06"/>
<polygon fill="none" stroke="#404040" points="747.04,-311.69 743.51,-305.4 747.95,-299.72 751.48,-306.01 747.04,-311.69"/>
<text text-anchor="middle" x="753" y="-558" font-family="Helvetica,sans-Serif" font-size="10.00"> #tracker2</text>
</g>
<!-- Node7&#45;&gt;Node2 -->
<g id="edge8" class="edge">
<title>Node7&#45;&gt;Node2</title>
<path fill="none" stroke="#404040" d="M651.83,-830.85C643.86,-812.28 636.67,-792.9 631.5,-774 608.48,-689.77 602.19,-589.46 600.9,-521.51"/>
<polygon fill="none" stroke="#404040" points="600.89,-521.21 596.8,-515.27 600.71,-509.21 604.8,-515.15 600.89,-521.21"/>
<text text-anchor="middle" x="671.5" y="-676.5" font-family="Helvetica,sans-Serif" font-size="10.00"> #despawnTracker</text>
</g>
<!-- Node7&#45;&gt;Node3 -->
<g id="edge6" class="edge">
<title>Node7&#45;&gt;Node3</title>
<path fill="none" stroke="#404040" d="M651.74,-828.74C648.78,-825.99 645.71,-823.4 642.5,-821 614.35,-799.96 596.48,-819.6 565.5,-803 554.03,-796.85 542.81,-789.44 532.08,-781.34"/>
<polygon fill="none" stroke="#404040" points="531.81,-781.13 524.62,-780.58 522.36,-773.73 529.55,-774.28 531.81,-781.13"/>
<text text-anchor="middle" x="584.5" y="-795" font-family="Helvetica,sans-Serif" font-size="10.00"> #tracker</text>
</g>
<!-- Node8 -->
<g id="node8" class="node">
<title>Node8</title>
<g id="a_node8"><a xlink:title=" ">
<polygon fill="none" stroke="#bfbfbf" points="411,-909.5 411,-977.5 634,-977.5 634,-909.5 411,-909.5"/>
<text text-anchor="start" x="419" y="-965.5" font-family="Helvetica,sans-Serif" font-size="10.00">List&lt; com.fs.starfarer.api.impl.campaign.fleets.</text>
<text text-anchor="middle" x="522.5" y="-954.5" font-family="Helvetica,sans-Serif" font-size="10.00">BaseLimitedFleetManager.ManagedFleetData &gt;</text>
<polyline fill="none" stroke="#bfbfbf" points="411,-947.5 634,-947.5 "/>
<text text-anchor="middle" x="522.5" y="-935.5" font-family="Helvetica,sans-Serif" font-size="10.00"> </text>
<polyline fill="none" stroke="#bfbfbf" points="411,-928.5 634,-928.5 "/>
<text text-anchor="middle" x="522.5" y="-916.5" font-family="Helvetica,sans-Serif" font-size="10.00"> </text>
</a>
</g>
</g>
<!-- Node8&#45;&gt;Node3 -->
<g id="edge7" class="edge">
<title>Node8&#45;&gt;Node3</title>
<path fill="none" stroke="#404040" d="M511.35,-909.25C500.87,-877.97 484.59,-829.43 469.72,-785.05"/>
<polygon fill="none" stroke="#404040" points="469.68,-784.95 463.98,-780.53 465.87,-773.57 471.57,-777.99 469.68,-784.95"/>
<text text-anchor="middle" x="490.5" y="-795" font-family="Helvetica,sans-Serif" font-size="10.00"> #active</text>
</g>
<!-- Node9 -->
<g id="node9" class="node">
<title>Node9</title>
<g id="a_node9"><a xlink:href="../../db/d13/interfacecom_1_1fs_1_1starfarer_1_1api_1_1campaign_1_1StarSystemAPI.html" target="_top" xlink:title=" ">
<polygon fill="none" stroke="black" points="754,-347.5 754,-536.5 911,-536.5 911,-347.5 754,-347.5"/>
<text text-anchor="start" x="762" y="-524.5" font-family="Helvetica,sans-Serif" font-size="10.00">com.fs.starfarer.api.campaign.</text>
<text text-anchor="middle" x="832.5" y="-513.5" font-family="Helvetica,sans-Serif" font-size="10.00">StarSystemAPI</text>
<polyline fill="none" stroke="black" points="754,-506.5 911,-506.5 "/>
<text text-anchor="middle" x="832.5" y="-494.5" font-family="Helvetica,sans-Serif" font-size="10.00"> </text>
<polyline fill="none" stroke="black" points="754,-487.5 911,-487.5 "/>
<text text-anchor="start" x="762" y="-475.5" font-family="Helvetica,sans-Serif" font-size="10.00">+ getLocation()</text>
<text text-anchor="start" x="762" y="-464.5" font-family="Helvetica,sans-Serif" font-size="10.00">+ initStar()</text>
<text text-anchor="start" x="762" y="-453.5" font-family="Helvetica,sans-Serif" font-size="10.00">+ initStar()</text>
<text text-anchor="start" x="762" y="-442.5" font-family="Helvetica,sans-Serif" font-size="10.00">+ generateAnchorIfNeeded()</text>
<text text-anchor="start" x="762" y="-431.5" font-family="Helvetica,sans-Serif" font-size="10.00">+ initStar()</text>
<text text-anchor="start" x="762" y="-420.5" font-family="Helvetica,sans-Serif" font-size="10.00">+ initStar()</text>
<text text-anchor="start" x="762" y="-409.5" font-family="Helvetica,sans-Serif" font-size="10.00">+ getHyperspaceAnchor()</text>
<text text-anchor="start" x="762" y="-398.5" font-family="Helvetica,sans-Serif" font-size="10.00">+ setHyperspaceAnchor()</text>
<text text-anchor="start" x="762" y="-387.5" font-family="Helvetica,sans-Serif" font-size="10.00">+ getStar()</text>
<text text-anchor="start" x="762" y="-376.5" font-family="Helvetica,sans-Serif" font-size="10.00">+ autogenerateHyperspaceJump</text>
<text text-anchor="start" x="762" y="-365.5" font-family="Helvetica,sans-Serif" font-size="10.00">Points()</text>
<text text-anchor="start" x="762" y="-354.5" font-family="Helvetica,sans-Serif" font-size="10.00">and 39 more...</text>
</a>
</g>
</g>
<!-- Node9&#45;&gt;Node1 -->
<g id="edge10" class="edge">
<title>Node9&#45;&gt;Node1</title>
<path fill="none" stroke="#404040" d="M809.22,-347.25C806.34,-335.65 803.34,-323.54 800.3,-311.29"/>
<polygon fill="none" stroke="#404040" points="800.26,-311.16 794.94,-306.3 797.37,-299.52 802.7,-304.38 800.26,-311.16"/>
<text text-anchor="middle" x="839" y="-321" font-family="Helvetica,sans-Serif" font-size="10.00"> #currSpawnLoc</text>
</g>
<!-- Node10 -->
<g id="node10" class="node">
<title>Node10</title>
<g id="a_node10"><a xlink:href="../../d2/d2c/interfacecom_1_1fs_1_1starfarer_1_1api_1_1campaign_1_1LocationAPI.html" target="_top" xlink:title=" ">
<polygon fill="none" stroke="black" points="753.5,-590 753.5,-768 921.5,-768 921.5,-590 753.5,-590"/>
<text text-anchor="start" x="761.5" y="-756" font-family="Helvetica,sans-Serif" font-size="10.00">com.fs.starfarer.api.campaign.</text>
<text text-anchor="middle" x="837.5" y="-745" font-family="Helvetica,sans-Serif" font-size="10.00">LocationAPI</text>
<polyline fill="none" stroke="black" points="753.5,-738 921.5,-738 "/>
<text text-anchor="middle" x="837.5" y="-726" font-family="Helvetica,sans-Serif" font-size="10.00"> </text>
<polyline fill="none" stroke="black" points="753.5,-719 921.5,-719 "/>
<text text-anchor="start" x="761.5" y="-707" font-family="Helvetica,sans-Serif" font-size="10.00">+ getId()</text>
<text text-anchor="start" x="761.5" y="-696" font-family="Helvetica,sans-Serif" font-size="10.00">+ activeThisFrame()</text>
<text text-anchor="start" x="761.5" y="-685" font-family="Helvetica,sans-Serif" font-size="10.00">+ getBackgroundTextureFilename()</text>
<text text-anchor="start" x="761.5" y="-674" font-family="Helvetica,sans-Serif" font-size="10.00">+ setBackgroundTextureFilename()</text>
<text text-anchor="start" x="761.5" y="-663" font-family="Helvetica,sans-Serif" font-size="10.00">+ addSpawnPoint()</text>
<text text-anchor="start" x="761.5" y="-652" font-family="Helvetica,sans-Serif" font-size="10.00">+ removeSpawnPoint()</text>
<text text-anchor="start" x="761.5" y="-641" font-family="Helvetica,sans-Serif" font-size="10.00">+ getSpawnPoints()</text>
<text text-anchor="start" x="761.5" y="-630" font-family="Helvetica,sans-Serif" font-size="10.00">+ spawnFleet()</text>
<text text-anchor="start" x="761.5" y="-619" font-family="Helvetica,sans-Serif" font-size="10.00">+ createToken()</text>
<text text-anchor="start" x="761.5" y="-608" font-family="Helvetica,sans-Serif" font-size="10.00">+ createToken()</text>
<text text-anchor="start" x="761.5" y="-597" font-family="Helvetica,sans-Serif" font-size="10.00">and 65 more...</text>
</a>
</g>
</g>
<!-- Node10&#45;&gt;Node9 -->
<g id="edge11" class="edge">
<title>Node10&#45;&gt;Node9</title>
<path fill="none" stroke="midnightblue" d="M835.41,-579.58C835.1,-565.41 834.79,-550.86 834.5,-536.78"/>
<polygon fill="none" stroke="midnightblue" points="831.91,-579.9 835.62,-589.83 838.91,-579.75 831.91,-579.9"/>
</g>
<!-- Node11 -->
<g id="node11" class="node">
<title>Node11</title>
<g id="a_node11"><a xlink:title=" ">
<polygon fill="none" stroke="#bfbfbf" points="929,-402.5 929,-481.5 1074,-481.5 1074,-402.5 929,-402.5"/>
<text text-anchor="start" x="937" y="-469.5" font-family="Helvetica,sans-Serif" font-size="10.00">LinkedHashMap&lt; String,</text>
<text text-anchor="start" x="937" y="-458.5" font-family="Helvetica,sans-Serif" font-size="10.00"> com.fs.starfarer.api.util.</text>
<text text-anchor="middle" x="1001.5" y="-447.5" font-family="Helvetica,sans-Serif" font-size="10.00">TimeoutTracker&lt; Boolean &gt; &gt;</text>
<polyline fill="none" stroke="#bfbfbf" points="929,-440.5 1074,-440.5 "/>
<text text-anchor="middle" x="1001.5" y="-428.5" font-family="Helvetica,sans-Serif" font-size="10.00"> </text>
<polyline fill="none" stroke="#bfbfbf" points="929,-421.5 1074,-421.5 "/>
<text text-anchor="middle" x="1001.5" y="-409.5" font-family="Helvetica,sans-Serif" font-size="10.00"> </text>
</a>
</g>
</g>
<!-- Node11&#45;&gt;Node1 -->
<g id="edge12" class="edge">
<title>Node11&#45;&gt;Node1</title>
<path fill="none" stroke="#404040" d="M969.5,-402.49C942.43,-369.91 902.07,-321.36 864.02,-275.57"/>
<polygon fill="none" stroke="#404040" points="863.87,-275.38 856.95,-273.32 856.2,-266.15 863.11,-268.21 863.87,-275.38"/>
<text text-anchor="middle" x="937.5" y="-321" font-family="Helvetica,sans-Serif" font-size="10.00"> #recentSpawns</text>
</g>
</g>
</svg>
        <g id="navigator" transform="translate(0 0)" fill="#404254">
                <rect fill="#f2f5e9" fill-opacity="0.5" stroke="#606060" stroke-width=".5" x="0" y="0" width="60" height="60"/>
                <use id="zoomplus" xlink:href="#zoomPlus" x="17" y="9" onmousedown="handleZoom(evt,'in')"/>
                <use id="zoomminus" xlink:href="#zoomMin" x="42" y="9" onmousedown="handleZoom(evt,'out')"/>
                <use id="reset" xlink:href="#resetDef" x="30" y="36" onmousedown="handleReset()"/>
                <g id="arrowUp" xlink:href="#dirArrow" transform="translate(30 24)" onmousedown="handlePan(0,-1)">
                  <use xlink:href="#rim" fill="#404040">
                        <set attributeName="fill" to="#808080" begin="arrowUp.mouseover" end="arrowUp.mouseout"/>
                  </use>
                  <path fill="none" stroke="white" stroke-width="1.5" d="M0,-3.0v7 M-2.5,-0.5L0,-3.0L2.5,-0.5"/>
                </g>
                <g id="arrowRight" xlink:href="#dirArrow" transform="rotate(90) translate(36 -43)" onmousedown="handlePan(1,0)">
                  <use xlink:href="#rim" fill="#404040">
                        <set attributeName="fill" to="#808080" begin="arrowRight.mouseover" end="arrowRight.mouseout"/>
                  </use>
                  <path fill="none" stroke="white" stroke-width="1.5" d="M0,-3.0v7 M-2.5,-0.5L0,-3.0L2.5,-0.5"/>
                </g>
                <g id="arrowDown" xlink:href="#dirArrow" transform="rotate(180) translate(-30 -48)" onmousedown="handlePan(0,1)">
                  <use xlink:href="#rim" fill="#404040">
                        <set attributeName="fill" to="#808080" begin="arrowDown.mouseover" end="arrowDown.mouseout"/>
                  </use>
                  <path fill="none" stroke="white" stroke-width="1.5" d="M0,-3.0v7 M-2.5,-0.5L0,-3.0L2.5,-0.5"/>
                </g>
                <g id="arrowLeft" xlink:href="#dirArrow" transform="rotate(270) translate(-36 17)" onmousedown="handlePan(-1,0)">
                  <use xlink:href="#rim" fill="#404040">
                        <set attributeName="fill" to="#808080" begin="arrowLeft.mouseover" end="arrowLeft.mouseout"/>
                  </use>
                  <path fill="none" stroke="white" stroke-width="1.5" d="M0,-3.0v7 M-2.5,-0.5L0,-3.0L2.5,-0.5"/>
                </g>
        </g>
        <svg viewBox="0 0 15 15" width="100%" height="30px" preserveAspectRatio="xMaxYMin meet">
         <g id="arrow_out" transform="scale(0.3 0.3)">
          <a xlink:href="classcom_1_1fs_1_1starfarer_1_1api_1_1impl_1_1campaign_1_1fleets_1_1DisposableFleetManager__coll__graph_org.svg" target="_base">
           <rect id="button" ry="5" rx="5" y="6" x="6" height="38" width="38"
                fill="#f2f5e9" fill-opacity="0.5" stroke="#606060" stroke-width="1.0"/>
           <path id="arrow"
             d="M 11.500037,31.436501 C 11.940474,20.09759 22.043105,11.32322 32.158766,21.979434 L 37.068811,17.246167 C 37.068811,17.246167 37.088388,32 37.088388,32 L 22.160133,31.978069 C 22.160133,31.978069 26.997745,27.140456 26.997745,27.140456 C 18.528582,18.264221 13.291696,25.230495 11.500037,31.436501 z"
             style="fill:#404040;"/>
          </a>
         </g>
        </svg>
</svg>
