<?xml version="1.0" encoding="UTF-8" standalone="no"?>
<!DOCTYPE svg PUBLIC "-//W3C//DTD SVG 1.1//EN"
 "http://www.w3.org/Graphics/SVG/1.1/DTD/svg11.dtd">
<!-- Generated by graphviz version 2.44.0 ()
 -->
<!-- Title: com.fs.starfarer.api.combat.ProximityExplosionEffect Pages: 1 -->
<svg width="512pt" height="215pt"
 viewBox="0.00 0.00 512.00 215.00" xmlns="http://www.w3.org/2000/svg" xmlns:xlink="http://www.w3.org/1999/xlink">
<g id="graph0" class="graph" transform="scale(1 1) rotate(0) translate(4 211)">
<title>com.fs.starfarer.api.combat.ProximityExplosionEffect</title>
<!-- Node1 -->
<g id="node1" class="node">
<title>Node1</title>
<g id="a_node1"><a xlink:title=" ">
<polygon fill="#bfbfbf" stroke="black" points="184,-138.5 184,-206.5 320,-206.5 320,-138.5 184,-138.5"/>
<text text-anchor="start" x="192" y="-194.5" font-family="Helvetica,sans-Serif" font-size="10.00">com.fs.starfarer.api.combat.</text>
<text text-anchor="middle" x="252" y="-183.5" font-family="Helvetica,sans-Serif" font-size="10.00">ProximityExplosionEffect</text>
<polyline fill="none" stroke="black" points="184,-176.5 320,-176.5 "/>
<text text-anchor="middle" x="252" y="-164.5" font-family="Helvetica,sans-Serif" font-size="10.00"> </text>
<polyline fill="none" stroke="black" points="184,-157.5 320,-157.5 "/>
<text text-anchor="start" x="192" y="-145.5" font-family="Helvetica,sans-Serif" font-size="10.00">+ onExplosion()</text>
</a>
</g>
</g>
<!-- Node2 -->
<g id="node2" class="node">
<title>Node2</title>
<g id="a_node2"><a xlink:href="../../dc/d88/classcom_1_1fs_1_1starfarer_1_1api_1_1impl_1_1combat_1_1RiftBeamMineExplosion.html" target="_top" xlink:title=" ">
<polygon fill="none" stroke="black" points="0,-17 0,-85 156,-85 156,-17 0,-17"/>
<text text-anchor="start" x="8" y="-73" font-family="Helvetica,sans-Serif" font-size="10.00">com.fs.starfarer.api.impl.combat.</text>
<text text-anchor="middle" x="78" y="-62" font-family="Helvetica,sans-Serif" font-size="10.00">RiftBeamMineExplosion</text>
<polyline fill="none" stroke="black" points="0,-55 156,-55 "/>
<text text-anchor="middle" x="78" y="-43" font-family="Helvetica,sans-Serif" font-size="10.00"> </text>
<polyline fill="none" stroke="black" points="0,-36 156,-36 "/>
<text text-anchor="start" x="8" y="-24" font-family="Helvetica,sans-Serif" font-size="10.00">+ onExplosion()</text>
</a>
</g>
</g>
<!-- Node1&#45;&gt;Node2 -->
<g id="edge1" class="edge">
<title>Node1&#45;&gt;Node2</title>
<path fill="none" stroke="midnightblue" d="M195.15,-132.46C172.87,-117.16 147.58,-99.78 126.21,-85.11"/>
<polygon fill="none" stroke="midnightblue" points="193.31,-135.44 203.53,-138.21 197.27,-129.67 193.31,-135.44"/>
</g>
<!-- Node3 -->
<g id="node3" class="node">
<title>Node3</title>
<g id="a_node3"><a xlink:href="../../dc/d51/classcom_1_1fs_1_1starfarer_1_1api_1_1impl_1_1combat_1_1RiftCascadeMineExplosion.html" target="_top" xlink:title=" ">
<polygon fill="none" stroke="black" points="174,-0.5 174,-101.5 330,-101.5 330,-0.5 174,-0.5"/>
<text text-anchor="start" x="182" y="-89.5" font-family="Helvetica,sans-Serif" font-size="10.00">com.fs.starfarer.api.impl.combat.</text>
<text text-anchor="middle" x="252" y="-78.5" font-family="Helvetica,sans-Serif" font-size="10.00">RiftCascadeMineExplosion</text>
<polyline fill="none" stroke="black" points="174,-71.5 330,-71.5 "/>
<text text-anchor="start" x="182" y="-59.5" font-family="Helvetica,sans-Serif" font-size="10.00">+ SIZE_MULT_KEY</text>
<polyline fill="none" stroke="black" points="174,-52.5 330,-52.5 "/>
<text text-anchor="start" x="182" y="-40.5" font-family="Helvetica,sans-Serif" font-size="10.00">+ onExplosion()</text>
<text text-anchor="start" x="182" y="-29.5" font-family="Helvetica,sans-Serif" font-size="10.00">+ spawnStandardRift()</text>
<text text-anchor="start" x="182" y="-18.5" font-family="Helvetica,sans-Serif" font-size="10.00">+ createStandardRiftParams()</text>
<text text-anchor="start" x="182" y="-7.5" font-family="Helvetica,sans-Serif" font-size="10.00">+ createStandardRiftParams()</text>
</a>
</g>
</g>
<!-- Node1&#45;&gt;Node3 -->
<g id="edge2" class="edge">
<title>Node1&#45;&gt;Node3</title>
<path fill="none" stroke="midnightblue" d="M252,-128.05C252,-119.47 252,-110.41 252,-101.65"/>
<polygon fill="none" stroke="midnightblue" points="248.5,-128.21 252,-138.21 255.5,-128.21 248.5,-128.21"/>
</g>
<!-- Node4 -->
<g id="node4" class="node">
<title>Node4</title>
<g id="a_node4"><a xlink:href="../../d4/d25/classcom_1_1fs_1_1starfarer_1_1api_1_1impl_1_1combat_1_1RiftLanceMineExplosion.html" target="_top" xlink:title=" ">
<polygon fill="none" stroke="black" points="348,-17 348,-85 504,-85 504,-17 348,-17"/>
<text text-anchor="start" x="356" y="-73" font-family="Helvetica,sans-Serif" font-size="10.00">com.fs.starfarer.api.impl.combat.</text>
<text text-anchor="middle" x="426" y="-62" font-family="Helvetica,sans-Serif" font-size="10.00">RiftLanceMineExplosion</text>
<polyline fill="none" stroke="black" points="348,-55 504,-55 "/>
<text text-anchor="middle" x="426" y="-43" font-family="Helvetica,sans-Serif" font-size="10.00"> </text>
<polyline fill="none" stroke="black" points="348,-36 504,-36 "/>
<text text-anchor="start" x="356" y="-24" font-family="Helvetica,sans-Serif" font-size="10.00">+ onExplosion()</text>
</a>
</g>
</g>
<!-- Node1&#45;&gt;Node4 -->
<g id="edge3" class="edge">
<title>Node1&#45;&gt;Node4</title>
<path fill="none" stroke="midnightblue" d="M308.85,-132.46C331.13,-117.16 356.42,-99.78 377.79,-85.11"/>
<polygon fill="none" stroke="midnightblue" points="306.73,-129.67 300.47,-138.21 310.69,-135.44 306.73,-129.67"/>
</g>
</g>
</svg>
