<?xml version="1.0" encoding="UTF-8" standalone="no"?>
<!DOCTYPE svg PUBLIC "-//W3C//DTD SVG 1.1//EN"
 "http://www.w3.org/Graphics/SVG/1.1/DTD/svg11.dtd">
<!-- Generated by graphviz version 2.44.0 ()
 -->
<!-- Title: com.fs.starfarer.api.impl.campaign.fleets.FleetParams Pages: 1 -->
<!--zoomable 574 -->
<svg id="main" version="1.1" xmlns="http://www.w3.org/2000/svg" xmlns:xlink="http://www.w3.org/1999/xlink" xml:space="preserve" onload="init(evt)">
<style type="text/css"><![CDATA[
.edge:hover path { stroke: red; }
.edge:hover polygon { stroke: red; fill: red; }
]]></style>
<script type="text/javascript"><![CDATA[
var edges = document.getElementsByTagName('g');
if (edges && edges.length) {
  for (var i=0;i<edges.length;i++) {
    if (edges[i].id.substr(0,4)=='edge') {
      edges[i].setAttribute('class','edge');
    }
  }
}
]]></script>
        <defs>
                <circle id="rim" cx="0" cy="0" r="7"/>
                <circle id="rim2" cx="0" cy="0" r="3.5"/>
                <g id="zoomPlus">
                        <use xlink:href="#rim" fill="#404040">
                                <set attributeName="fill" to="#808080" begin="zoomplus.mouseover" end="zoomplus.mouseout"/>
                        </use>
                        <path d="M-4,0h8M0,-4v8" fill="none" stroke="white" stroke-width="1.5" pointer-events="none"/>
                </g>
                <g id="zoomMin">
                        <use xlink:href="#rim" fill="#404040">
                                <set attributeName="fill" to="#808080" begin="zoomminus.mouseover" end="zoomminus.mouseout"/>
                        </use>
                        <path d="M-4,0h8" fill="none" stroke="white" stroke-width="1.5" pointer-events="none"/>
                </g>
                <g id="dirArrow">
                        <path fill="none" stroke="white" stroke-width="1.5" d="M0,-3.0v7 M-2.5,-0.5L0,-3.0L2.5,-0.5"/>
                </g>
               <g id="resetDef">
                       <use xlink:href="#rim2" fill="#404040">
                               <set attributeName="fill" to="#808080" begin="reset.mouseover" end="reset.mouseout"/>
                       </use>
               </g>
        </defs>

<script type="text/javascript">
var viewWidth = 486;
var viewHeight = 574;
var sectionId = 'dynsection-0';
</script>
<script xlink:href="../../svgpan.js"/>
<svg id="graph" class="graph">
<g id="viewport">
<title>com.fs.starfarer.api.impl.campaign.fleets.FleetParams</title>
<!-- Node1 -->
<g id="node1" class="node">
<title>Node1</title>
<g id="a_node1"><a xlink:title=" ">
<polygon fill="#bfbfbf" stroke="black" points="148,-0.5 148,-222.5 339,-222.5 339,-0.5 148,-0.5"/>
<text text-anchor="start" x="156" y="-210.5" font-family="Helvetica,sans-Serif" font-size="10.00">com.fs.starfarer.api.impl.campaign.fleets.</text>
<text text-anchor="middle" x="243.5" y="-199.5" font-family="Helvetica,sans-Serif" font-size="10.00">FleetParams</text>
<polyline fill="none" stroke="black" points="148,-192.5 339,-192.5 "/>
<text text-anchor="start" x="156" y="-180.5" font-family="Helvetica,sans-Serif" font-size="10.00">+ factionId</text>
<text text-anchor="start" x="156" y="-169.5" font-family="Helvetica,sans-Serif" font-size="10.00">+ fleetType</text>
<text text-anchor="start" x="156" y="-158.5" font-family="Helvetica,sans-Serif" font-size="10.00">+ combatPts</text>
<text text-anchor="start" x="156" y="-147.5" font-family="Helvetica,sans-Serif" font-size="10.00">+ freighterPts</text>
<text text-anchor="start" x="156" y="-136.5" font-family="Helvetica,sans-Serif" font-size="10.00">+ tankerPts</text>
<text text-anchor="start" x="156" y="-125.5" font-family="Helvetica,sans-Serif" font-size="10.00">+ transportPts</text>
<text text-anchor="start" x="156" y="-114.5" font-family="Helvetica,sans-Serif" font-size="10.00">+ linerPts</text>
<text text-anchor="start" x="156" y="-103.5" font-family="Helvetica,sans-Serif" font-size="10.00">+ civilianPts</text>
<text text-anchor="start" x="156" y="-92.5" font-family="Helvetica,sans-Serif" font-size="10.00">+ utilityPts</text>
<text text-anchor="start" x="156" y="-81.5" font-family="Helvetica,sans-Serif" font-size="10.00">+ qualityBonus</text>
<text text-anchor="start" x="156" y="-70.5" font-family="Helvetica,sans-Serif" font-size="10.00">and 7 more...</text>
<polyline fill="none" stroke="black" points="148,-63.5 339,-63.5 "/>
<text text-anchor="start" x="156" y="-51.5" font-family="Helvetica,sans-Serif" font-size="10.00">+ FleetParams()</text>
<text text-anchor="start" x="156" y="-40.5" font-family="Helvetica,sans-Serif" font-size="10.00">+ FleetParams()</text>
<text text-anchor="start" x="156" y="-29.5" font-family="Helvetica,sans-Serif" font-size="10.00">+ FleetParams()</text>
<text text-anchor="start" x="156" y="-18.5" font-family="Helvetica,sans-Serif" font-size="10.00">+ FleetParams()</text>
<text text-anchor="start" x="156" y="-7.5" font-family="Helvetica,sans-Serif" font-size="10.00">+ getTotalPts()</text>
</a>
</g>
</g>
<!-- Node2 -->
<g id="node2" class="node">
<title>Node2</title>
<g id="a_node2"><a xlink:title=" ">
<polygon fill="none" stroke="#bfbfbf" points="0,-331 0,-388 53,-388 53,-331 0,-331"/>
<text text-anchor="middle" x="26.5" y="-376" font-family="Helvetica,sans-Serif" font-size="10.00">Vector2f</text>
<polyline fill="none" stroke="#bfbfbf" points="0,-369 53,-369 "/>
<text text-anchor="middle" x="26.5" y="-357" font-family="Helvetica,sans-Serif" font-size="10.00"> </text>
<polyline fill="none" stroke="#bfbfbf" points="0,-350 53,-350 "/>
<text text-anchor="middle" x="26.5" y="-338" font-family="Helvetica,sans-Serif" font-size="10.00"> </text>
</a>
</g>
</g>
<!-- Node2&#45;&gt;Node1 -->
<g id="edge1" class="edge">
<title>Node2&#45;&gt;Node1</title>
<path fill="none" stroke="#404040" d="M33.71,-330.91C39.37,-312.56 48.47,-288.51 61.5,-270 82.57,-240.07 110.52,-212.18 138.19,-188.44"/>
<polygon fill="none" stroke="#404040" points="138.38,-188.28 140.39,-181.36 147.55,-180.55 145.54,-187.47 138.38,-188.28"/>
<text text-anchor="middle" x="130.5" y="-244" font-family="Helvetica,sans-Serif" font-size="10.00"> +hyperspaceLocation</text>
</g>
<!-- Node3 -->
<g id="node3" class="node">
<title>Node3</title>
<g id="a_node3"><a xlink:href="../../de/d91/interfacecom_1_1fs_1_1starfarer_1_1api_1_1campaign_1_1econ_1_1MarketAPI.html" target="_top" xlink:title=" ">
<polygon fill="none" stroke="black" points="71,-270.5 71,-448.5 240,-448.5 240,-270.5 71,-270.5"/>
<text text-anchor="start" x="79" y="-436.5" font-family="Helvetica,sans-Serif" font-size="10.00">com.fs.starfarer.api.campaign.econ.</text>
<text text-anchor="middle" x="155.5" y="-425.5" font-family="Helvetica,sans-Serif" font-size="10.00">MarketAPI</text>
<polyline fill="none" stroke="black" points="71,-418.5 240,-418.5 "/>
<text text-anchor="middle" x="155.5" y="-406.5" font-family="Helvetica,sans-Serif" font-size="10.00"> </text>
<polyline fill="none" stroke="black" points="71,-399.5 240,-399.5 "/>
<text text-anchor="start" x="79" y="-387.5" font-family="Helvetica,sans-Serif" font-size="10.00">+ getPrimaryEntity()</text>
<text text-anchor="start" x="79" y="-376.5" font-family="Helvetica,sans-Serif" font-size="10.00">+ getConnectedEntities()</text>
<text text-anchor="start" x="79" y="-365.5" font-family="Helvetica,sans-Serif" font-size="10.00">+ getId()</text>
<text text-anchor="start" x="79" y="-354.5" font-family="Helvetica,sans-Serif" font-size="10.00">+ getName()</text>
<text text-anchor="start" x="79" y="-343.5" font-family="Helvetica,sans-Serif" font-size="10.00">+ getSize()</text>
<text text-anchor="start" x="79" y="-332.5" font-family="Helvetica,sans-Serif" font-size="10.00">+ setSize()</text>
<text text-anchor="start" x="79" y="-321.5" font-family="Helvetica,sans-Serif" font-size="10.00">+ getAllCommodities()</text>
<text text-anchor="start" x="79" y="-310.5" font-family="Helvetica,sans-Serif" font-size="10.00">+ getCommodityData()</text>
<text text-anchor="start" x="79" y="-299.5" font-family="Helvetica,sans-Serif" font-size="10.00">+ getCommoditiesWithTag()</text>
<text text-anchor="start" x="79" y="-288.5" font-family="Helvetica,sans-Serif" font-size="10.00">+ getCommoditiesWithTags()</text>
<text text-anchor="start" x="79" y="-277.5" font-family="Helvetica,sans-Serif" font-size="10.00">and 142 more...</text>
</a>
</g>
</g>
<!-- Node3&#45;&gt;Node1 -->
<g id="edge2" class="edge">
<title>Node3&#45;&gt;Node1</title>
<path fill="none" stroke="#404040" d="M187.02,-270.38C191.21,-258.68 195.56,-246.52 199.9,-234.38"/>
<polygon fill="none" stroke="#404040" points="200.02,-234.05 198.27,-227.05 204.06,-222.75 205.81,-229.75 200.02,-234.05"/>
<text text-anchor="middle" x="217" y="-244" font-family="Helvetica,sans-Serif" font-size="10.00"> +market</text>
</g>
<!-- Node4 -->
<g id="node4" class="node">
<title>Node4</title>
<g id="a_node4"><a xlink:href="../../de/da5/interfacecom_1_1fs_1_1starfarer_1_1api_1_1campaign_1_1rules_1_1HasMemory.html" target="_top" xlink:title=" ">
<polygon fill="none" stroke="black" points="159,-486.5 159,-565.5 328,-565.5 328,-486.5 159,-486.5"/>
<text text-anchor="start" x="167" y="-553.5" font-family="Helvetica,sans-Serif" font-size="10.00">com.fs.starfarer.api.campaign.rules.</text>
<text text-anchor="middle" x="243.5" y="-542.5" font-family="Helvetica,sans-Serif" font-size="10.00">HasMemory</text>
<polyline fill="none" stroke="black" points="159,-535.5 328,-535.5 "/>
<text text-anchor="middle" x="243.5" y="-523.5" font-family="Helvetica,sans-Serif" font-size="10.00"> </text>
<polyline fill="none" stroke="black" points="159,-516.5 328,-516.5 "/>
<text text-anchor="start" x="167" y="-504.5" font-family="Helvetica,sans-Serif" font-size="10.00">+ getMemory()</text>
<text text-anchor="start" x="167" y="-493.5" font-family="Helvetica,sans-Serif" font-size="10.00">+ getMemoryWithoutUpdate()</text>
</a>
</g>
</g>
<!-- Node4&#45;&gt;Node3 -->
<g id="edge3" class="edge">
<title>Node4&#45;&gt;Node3</title>
<path fill="none" stroke="midnightblue" d="M218.11,-477.54C213.21,-468.38 207.94,-458.52 202.6,-448.55"/>
<polygon fill="none" stroke="midnightblue" points="215.06,-479.27 222.87,-486.43 221.24,-475.96 215.06,-479.27"/>
</g>
<!-- Node6 -->
<g id="node6" class="node">
<title>Node6</title>
<g id="a_node6"><a xlink:href="../../d9/df0/interfacecom_1_1fs_1_1starfarer_1_1api_1_1characters_1_1PersonAPI.html" target="_top" xlink:title=" ">
<polygon fill="none" stroke="black" points="258,-270.5 258,-448.5 407,-448.5 407,-270.5 258,-270.5"/>
<text text-anchor="start" x="266" y="-436.5" font-family="Helvetica,sans-Serif" font-size="10.00">com.fs.starfarer.api.characters.</text>
<text text-anchor="middle" x="332.5" y="-425.5" font-family="Helvetica,sans-Serif" font-size="10.00">PersonAPI</text>
<polyline fill="none" stroke="black" points="258,-418.5 407,-418.5 "/>
<text text-anchor="middle" x="332.5" y="-406.5" font-family="Helvetica,sans-Serif" font-size="10.00"> </text>
<polyline fill="none" stroke="black" points="258,-399.5 407,-399.5 "/>
<text text-anchor="start" x="266" y="-387.5" font-family="Helvetica,sans-Serif" font-size="10.00">+ setPersonality()</text>
<text text-anchor="start" x="266" y="-376.5" font-family="Helvetica,sans-Serif" font-size="10.00">+ getStats()</text>
<text text-anchor="start" x="266" y="-365.5" font-family="Helvetica,sans-Serif" font-size="10.00">+ getRank()</text>
<text text-anchor="start" x="266" y="-354.5" font-family="Helvetica,sans-Serif" font-size="10.00">+ getRankArticle()</text>
<text text-anchor="start" x="266" y="-343.5" font-family="Helvetica,sans-Serif" font-size="10.00">+ getRankId()</text>
<text text-anchor="start" x="266" y="-332.5" font-family="Helvetica,sans-Serif" font-size="10.00">+ setRankId()</text>
<text text-anchor="start" x="266" y="-321.5" font-family="Helvetica,sans-Serif" font-size="10.00">+ getPost()</text>
<text text-anchor="start" x="266" y="-310.5" font-family="Helvetica,sans-Serif" font-size="10.00">+ getPostArticle()</text>
<text text-anchor="start" x="266" y="-299.5" font-family="Helvetica,sans-Serif" font-size="10.00">+ setPostId()</text>
<text text-anchor="start" x="266" y="-288.5" font-family="Helvetica,sans-Serif" font-size="10.00">+ getPostId()</text>
<text text-anchor="start" x="266" y="-277.5" font-family="Helvetica,sans-Serif" font-size="10.00">and 49 more...</text>
</a>
</g>
</g>
<!-- Node4&#45;&gt;Node6 -->
<g id="edge6" class="edge">
<title>Node4&#45;&gt;Node6</title>
<path fill="none" stroke="midnightblue" d="M269.18,-477.54C274.13,-468.38 279.47,-458.52 284.86,-448.55"/>
<polygon fill="none" stroke="midnightblue" points="266.05,-475.97 264.37,-486.43 272.2,-479.3 266.05,-475.97"/>
</g>
<!-- Node5 -->
<g id="node5" class="node">
<title>Node5</title>
<g id="a_node5"><a xlink:title=" ">
<polygon fill="none" stroke="#bfbfbf" points="425,-331 425,-388 478,-388 478,-331 425,-331"/>
<text text-anchor="middle" x="451.5" y="-376" font-family="Helvetica,sans-Serif" font-size="10.00">Random</text>
<polyline fill="none" stroke="#bfbfbf" points="425,-369 478,-369 "/>
<text text-anchor="middle" x="451.5" y="-357" font-family="Helvetica,sans-Serif" font-size="10.00"> </text>
<polyline fill="none" stroke="#bfbfbf" points="425,-350 478,-350 "/>
<text text-anchor="middle" x="451.5" y="-338" font-family="Helvetica,sans-Serif" font-size="10.00"> </text>
</a>
</g>
</g>
<!-- Node5&#45;&gt;Node1 -->
<g id="edge4" class="edge">
<title>Node5&#45;&gt;Node1</title>
<path fill="none" stroke="#404040" d="M443.68,-330.6C437.74,-312.34 428.38,-288.52 415.5,-270 396.66,-242.91 372.38,-217.11 348.04,-194.52"/>
<polygon fill="none" stroke="#404040" points="347.94,-194.44 340.82,-193.35 339.08,-186.35 346.21,-187.44 347.94,-194.44"/>
<text text-anchor="middle" x="420" y="-244" font-family="Helvetica,sans-Serif" font-size="10.00"> +random</text>
</g>
<!-- Node6&#45;&gt;Node1 -->
<g id="edge5" class="edge">
<title>Node6&#45;&gt;Node1</title>
<path fill="none" stroke="#404040" d="M300.62,-270.38C296.39,-258.68 291.99,-246.52 287.59,-234.38"/>
<polygon fill="none" stroke="#404040" points="287.47,-234.03 281.67,-229.75 283.39,-222.75 289.19,-227.03 287.47,-234.03"/>
<text text-anchor="middle" x="323.5" y="-244" font-family="Helvetica,sans-Serif" font-size="10.00"> +commander</text>
</g>
</g>
</svg>
        <g id="navigator" transform="translate(0 0)" fill="#404254">
                <rect fill="#f2f5e9" fill-opacity="0.5" stroke="#606060" stroke-width=".5" x="0" y="0" width="60" height="60"/>
                <use id="zoomplus" xlink:href="#zoomPlus" x="17" y="9" onmousedown="handleZoom(evt,'in')"/>
                <use id="zoomminus" xlink:href="#zoomMin" x="42" y="9" onmousedown="handleZoom(evt,'out')"/>
                <use id="reset" xlink:href="#resetDef" x="30" y="36" onmousedown="handleReset()"/>
                <g id="arrowUp" xlink:href="#dirArrow" transform="translate(30 24)" onmousedown="handlePan(0,-1)">
                  <use xlink:href="#rim" fill="#404040">
                        <set attributeName="fill" to="#808080" begin="arrowUp.mouseover" end="arrowUp.mouseout"/>
                  </use>
                  <path fill="none" stroke="white" stroke-width="1.5" d="M0,-3.0v7 M-2.5,-0.5L0,-3.0L2.5,-0.5"/>
                </g>
                <g id="arrowRight" xlink:href="#dirArrow" transform="rotate(90) translate(36 -43)" onmousedown="handlePan(1,0)">
                  <use xlink:href="#rim" fill="#404040">
                        <set attributeName="fill" to="#808080" begin="arrowRight.mouseover" end="arrowRight.mouseout"/>
                  </use>
                  <path fill="none" stroke="white" stroke-width="1.5" d="M0,-3.0v7 M-2.5,-0.5L0,-3.0L2.5,-0.5"/>
                </g>
                <g id="arrowDown" xlink:href="#dirArrow" transform="rotate(180) translate(-30 -48)" onmousedown="handlePan(0,1)">
                  <use xlink:href="#rim" fill="#404040">
                        <set attributeName="fill" to="#808080" begin="arrowDown.mouseover" end="arrowDown.mouseout"/>
                  </use>
                  <path fill="none" stroke="white" stroke-width="1.5" d="M0,-3.0v7 M-2.5,-0.5L0,-3.0L2.5,-0.5"/>
                </g>
                <g id="arrowLeft" xlink:href="#dirArrow" transform="rotate(270) translate(-36 17)" onmousedown="handlePan(-1,0)">
                  <use xlink:href="#rim" fill="#404040">
                        <set attributeName="fill" to="#808080" begin="arrowLeft.mouseover" end="arrowLeft.mouseout"/>
                  </use>
                  <path fill="none" stroke="white" stroke-width="1.5" d="M0,-3.0v7 M-2.5,-0.5L0,-3.0L2.5,-0.5"/>
                </g>
        </g>
        <svg viewBox="0 0 15 15" width="100%" height="30px" preserveAspectRatio="xMaxYMin meet">
         <g id="arrow_out" transform="scale(0.3 0.3)">
          <a xlink:href="classcom_1_1fs_1_1starfarer_1_1api_1_1impl_1_1campaign_1_1fleets_1_1FleetParams__coll__graph_org.svg" target="_base">
           <rect id="button" ry="5" rx="5" y="6" x="6" height="38" width="38"
                fill="#f2f5e9" fill-opacity="0.5" stroke="#606060" stroke-width="1.0"/>
           <path id="arrow"
             d="M 11.500037,31.436501 C 11.940474,20.09759 22.043105,11.32322 32.158766,21.979434 L 37.068811,17.246167 C 37.068811,17.246167 37.088388,32 37.088388,32 L 22.160133,31.978069 C 22.160133,31.978069 26.997745,27.140456 26.997745,27.140456 C 18.528582,18.264221 13.291696,25.230495 11.500037,31.436501 z"
             style="fill:#404040;"/>
          </a>
         </g>
        </svg>
</svg>
