<?xml version="1.0" encoding="UTF-8" standalone="no"?>
<!DOCTYPE svg PUBLIC "-//W3C//DTD SVG 1.1//EN"
 "http://www.w3.org/Graphics/SVG/1.1/DTD/svg11.dtd">
<!-- Generated by graphviz version 2.44.0 ()
 -->
<!-- Title: com.fs.starfarer.api.impl.campaign.BattleAutoresolverPluginImpl.EngagementResultForFleetImpl Pages: 1 -->
<svg width="628pt" height="878pt"
 viewBox="0.00 0.00 627.50 878.00" xmlns="http://www.w3.org/2000/svg" xmlns:xlink="http://www.w3.org/1999/xlink">
<g id="graph0" class="graph" transform="scale(1 1) rotate(0) translate(4 874)">
<title>com.fs.starfarer.api.impl.campaign.BattleAutoresolverPluginImpl.EngagementResultForFleetImpl</title>
<!-- Node1 -->
<g id="node1" class="node">
<title>Node1</title>
<g id="a_node1"><a xlink:title=" ">
<polygon fill="#bfbfbf" stroke="black" points="257,-0.5 257,-244.5 456,-244.5 456,-0.5 257,-0.5"/>
<text text-anchor="start" x="265" y="-232.5" font-family="Helvetica,sans-Serif" font-size="10.00">com.fs.starfarer.api.impl.campaign.</text>
<text text-anchor="start" x="265" y="-221.5" font-family="Helvetica,sans-Serif" font-size="10.00">BattleAutoresolverPluginImpl.Engagement</text>
<text text-anchor="middle" x="356.5" y="-210.5" font-family="Helvetica,sans-Serif" font-size="10.00">ResultForFleetImpl</text>
<polyline fill="none" stroke="black" points="257,-203.5 456,-203.5 "/>
<text text-anchor="start" x="265" y="-191.5" font-family="Helvetica,sans-Serif" font-size="10.00"># winner</text>
<polyline fill="none" stroke="black" points="257,-184.5 456,-184.5 "/>
<text text-anchor="start" x="265" y="-172.5" font-family="Helvetica,sans-Serif" font-size="10.00">+ EngagementResultForFleet</text>
<text text-anchor="start" x="265" y="-161.5" font-family="Helvetica,sans-Serif" font-size="10.00">Impl()</text>
<text text-anchor="start" x="265" y="-150.5" font-family="Helvetica,sans-Serif" font-size="10.00">+ getDeployed()</text>
<text text-anchor="start" x="265" y="-139.5" font-family="Helvetica,sans-Serif" font-size="10.00">+ getDestroyed()</text>
<text text-anchor="start" x="265" y="-128.5" font-family="Helvetica,sans-Serif" font-size="10.00">+ getDisabled()</text>
<text text-anchor="start" x="265" y="-117.5" font-family="Helvetica,sans-Serif" font-size="10.00">+ getFleet()</text>
<text text-anchor="start" x="265" y="-106.5" font-family="Helvetica,sans-Serif" font-size="10.00">+ getGoal()</text>
<text text-anchor="start" x="265" y="-95.5" font-family="Helvetica,sans-Serif" font-size="10.00">+ getReserves()</text>
<text text-anchor="start" x="265" y="-84.5" font-family="Helvetica,sans-Serif" font-size="10.00">+ getRetreated()</text>
<text text-anchor="start" x="265" y="-73.5" font-family="Helvetica,sans-Serif" font-size="10.00">+ getAllEverDeployedCopy()</text>
<text text-anchor="start" x="265" y="-62.5" font-family="Helvetica,sans-Serif" font-size="10.00">+ isWinner()</text>
<text text-anchor="start" x="265" y="-51.5" font-family="Helvetica,sans-Serif" font-size="10.00">+ setWinner()</text>
<text text-anchor="start" x="265" y="-40.5" font-family="Helvetica,sans-Serif" font-size="10.00">+ resetAllEverDeployed()</text>
<text text-anchor="start" x="265" y="-29.5" font-family="Helvetica,sans-Serif" font-size="10.00">+ setGoal()</text>
<text text-anchor="start" x="265" y="-18.5" font-family="Helvetica,sans-Serif" font-size="10.00">+ isPlayer()</text>
<text text-anchor="start" x="265" y="-7.5" font-family="Helvetica,sans-Serif" font-size="10.00">+ enemyCanCleanDisengage()</text>
</a>
</g>
</g>
<!-- Node2 -->
<g id="node2" class="node">
<title>Node2</title>
<g id="a_node2"><a xlink:href="../../d1/db0/interfacecom_1_1fs_1_1starfarer_1_1api_1_1campaign_1_1EngagementResultForFleetAPI.html" target="_top" xlink:title=" ">
<polygon fill="none" stroke="black" points="0,-336.5 0,-536.5 151,-536.5 151,-336.5 0,-336.5"/>
<text text-anchor="start" x="8" y="-524.5" font-family="Helvetica,sans-Serif" font-size="10.00">com.fs.starfarer.api.campaign.</text>
<text text-anchor="middle" x="75.5" y="-513.5" font-family="Helvetica,sans-Serif" font-size="10.00">EngagementResultForFleetAPI</text>
<polyline fill="none" stroke="black" points="0,-506.5 151,-506.5 "/>
<text text-anchor="middle" x="75.5" y="-494.5" font-family="Helvetica,sans-Serif" font-size="10.00"> </text>
<polyline fill="none" stroke="black" points="0,-487.5 151,-487.5 "/>
<text text-anchor="start" x="8" y="-475.5" font-family="Helvetica,sans-Serif" font-size="10.00">+ getFleet()</text>
<text text-anchor="start" x="8" y="-464.5" font-family="Helvetica,sans-Serif" font-size="10.00">+ getGoal()</text>
<text text-anchor="start" x="8" y="-453.5" font-family="Helvetica,sans-Serif" font-size="10.00">+ isWinner()</text>
<text text-anchor="start" x="8" y="-442.5" font-family="Helvetica,sans-Serif" font-size="10.00">+ enemyCanCleanDisengage()</text>
<text text-anchor="start" x="8" y="-431.5" font-family="Helvetica,sans-Serif" font-size="10.00">+ getDeployed()</text>
<text text-anchor="start" x="8" y="-420.5" font-family="Helvetica,sans-Serif" font-size="10.00">+ getDestroyed()</text>
<text text-anchor="start" x="8" y="-409.5" font-family="Helvetica,sans-Serif" font-size="10.00">+ getDisabled()</text>
<text text-anchor="start" x="8" y="-398.5" font-family="Helvetica,sans-Serif" font-size="10.00">+ getRetreated()</text>
<text text-anchor="start" x="8" y="-387.5" font-family="Helvetica,sans-Serif" font-size="10.00">+ getReserves()</text>
<text text-anchor="start" x="8" y="-376.5" font-family="Helvetica,sans-Serif" font-size="10.00">+ resetAllEverDeployed()</text>
<text text-anchor="start" x="8" y="-365.5" font-family="Helvetica,sans-Serif" font-size="10.00">+ getAllEverDeployedCopy()</text>
<text text-anchor="start" x="8" y="-354.5" font-family="Helvetica,sans-Serif" font-size="10.00">+ isPlayer()</text>
<text text-anchor="start" x="8" y="-343.5" font-family="Helvetica,sans-Serif" font-size="10.00">+ setGoal()</text>
</a>
</g>
</g>
<!-- Node2&#45;&gt;Node1 -->
<g id="edge1" class="edge">
<title>Node2&#45;&gt;Node1</title>
<path fill="none" stroke="midnightblue" d="M157.88,-338.96C158.76,-337.97 159.63,-336.98 160.5,-336 191.49,-301.09 225.83,-263.51 256.99,-229.79"/>
<polygon fill="none" stroke="midnightblue" points="155.08,-336.84 151.1,-346.65 160.34,-341.46 155.08,-336.84"/>
</g>
<!-- Node3 -->
<g id="node3" class="node">
<title>Node3</title>
<g id="a_node3"><a xlink:href="../../db/d56/interfacecom_1_1fs_1_1starfarer_1_1api_1_1campaign_1_1CampaignFleetAPI.html" target="_top" xlink:title=" ">
<polygon fill="none" stroke="black" points="169.5,-347.5 169.5,-525.5 315.5,-525.5 315.5,-347.5 169.5,-347.5"/>
<text text-anchor="start" x="177.5" y="-513.5" font-family="Helvetica,sans-Serif" font-size="10.00">com.fs.starfarer.api.campaign.</text>
<text text-anchor="middle" x="242.5" y="-502.5" font-family="Helvetica,sans-Serif" font-size="10.00">CampaignFleetAPI</text>
<polyline fill="none" stroke="black" points="169.5,-495.5 315.5,-495.5 "/>
<text text-anchor="middle" x="242.5" y="-483.5" font-family="Helvetica,sans-Serif" font-size="10.00"> </text>
<polyline fill="none" stroke="black" points="169.5,-476.5 315.5,-476.5 "/>
<text text-anchor="start" x="177.5" y="-464.5" font-family="Helvetica,sans-Serif" font-size="10.00">+ isInCurrentLocation()</text>
<text text-anchor="start" x="177.5" y="-453.5" font-family="Helvetica,sans-Serif" font-size="10.00">+ isInHyperspace()</text>
<text text-anchor="start" x="177.5" y="-442.5" font-family="Helvetica,sans-Serif" font-size="10.00">+ setLocation()</text>
<text text-anchor="start" x="177.5" y="-431.5" font-family="Helvetica,sans-Serif" font-size="10.00">+ despawn()</text>
<text text-anchor="start" x="177.5" y="-420.5" font-family="Helvetica,sans-Serif" font-size="10.00">+ despawn()</text>
<text text-anchor="start" x="177.5" y="-409.5" font-family="Helvetica,sans-Serif" font-size="10.00">+ addAssignment()</text>
<text text-anchor="start" x="177.5" y="-398.5" font-family="Helvetica,sans-Serif" font-size="10.00">+ addAssignment()</text>
<text text-anchor="start" x="177.5" y="-387.5" font-family="Helvetica,sans-Serif" font-size="10.00">+ addAssignment()</text>
<text text-anchor="start" x="177.5" y="-376.5" font-family="Helvetica,sans-Serif" font-size="10.00">+ addAssignment()</text>
<text text-anchor="start" x="177.5" y="-365.5" font-family="Helvetica,sans-Serif" font-size="10.00">+ clearAssignments()</text>
<text text-anchor="start" x="177.5" y="-354.5" font-family="Helvetica,sans-Serif" font-size="10.00">and 92 more...</text>
</a>
</g>
</g>
<!-- Node3&#45;&gt;Node1 -->
<g id="edge2" class="edge">
<title>Node3&#45;&gt;Node1</title>
<path fill="none" stroke="#404040" d="M274.71,-347.34C285.09,-318.94 296.83,-286.8 308.11,-255.93"/>
<polygon fill="none" stroke="#404040" points="308.13,-255.89 306.43,-248.88 312.24,-244.62 313.94,-251.63 308.13,-255.89"/>
<text text-anchor="middle" x="316.5" y="-288" font-family="Helvetica,sans-Serif" font-size="10.00"> #fleet</text>
</g>
<!-- Node4 -->
<g id="node4" class="node">
<title>Node4</title>
<g id="a_node4"><a xlink:href="../../d6/de1/interfacecom_1_1fs_1_1starfarer_1_1api_1_1campaign_1_1SectorEntityToken.html" target="_top" xlink:title=" ">
<polygon fill="none" stroke="black" points="52.5,-574.5 52.5,-752.5 198.5,-752.5 198.5,-574.5 52.5,-574.5"/>
<text text-anchor="start" x="60.5" y="-740.5" font-family="Helvetica,sans-Serif" font-size="10.00">com.fs.starfarer.api.campaign.</text>
<text text-anchor="middle" x="125.5" y="-729.5" font-family="Helvetica,sans-Serif" font-size="10.00">SectorEntityToken</text>
<polyline fill="none" stroke="black" points="52.5,-722.5 198.5,-722.5 "/>
<text text-anchor="middle" x="125.5" y="-710.5" font-family="Helvetica,sans-Serif" font-size="10.00"> </text>
<polyline fill="none" stroke="black" points="52.5,-703.5 198.5,-703.5 "/>
<text text-anchor="start" x="60.5" y="-691.5" font-family="Helvetica,sans-Serif" font-size="10.00">+ isPlayerFleet()</text>
<text text-anchor="start" x="60.5" y="-680.5" font-family="Helvetica,sans-Serif" font-size="10.00">+ getMarket()</text>
<text text-anchor="start" x="60.5" y="-669.5" font-family="Helvetica,sans-Serif" font-size="10.00">+ setMarket()</text>
<text text-anchor="start" x="60.5" y="-658.5" font-family="Helvetica,sans-Serif" font-size="10.00">+ getCargo()</text>
<text text-anchor="start" x="60.5" y="-647.5" font-family="Helvetica,sans-Serif" font-size="10.00">+ getLocation()</text>
<text text-anchor="start" x="60.5" y="-636.5" font-family="Helvetica,sans-Serif" font-size="10.00">+ getLocationInHyperspace()</text>
<text text-anchor="start" x="60.5" y="-625.5" font-family="Helvetica,sans-Serif" font-size="10.00">+ getOrbit()</text>
<text text-anchor="start" x="60.5" y="-614.5" font-family="Helvetica,sans-Serif" font-size="10.00">+ setOrbit()</text>
<text text-anchor="start" x="60.5" y="-603.5" font-family="Helvetica,sans-Serif" font-size="10.00">+ getId()</text>
<text text-anchor="start" x="60.5" y="-592.5" font-family="Helvetica,sans-Serif" font-size="10.00">+ getName()</text>
<text text-anchor="start" x="60.5" y="-581.5" font-family="Helvetica,sans-Serif" font-size="10.00">and 115 more...</text>
</a>
</g>
</g>
<!-- Node4&#45;&gt;Node3 -->
<g id="edge3" class="edge">
<title>Node4&#45;&gt;Node3</title>
<path fill="none" stroke="midnightblue" d="M176.12,-565.15C182.97,-551.98 189.97,-538.52 196.73,-525.53"/>
<polygon fill="none" stroke="midnightblue" points="172.91,-563.73 171.41,-574.22 179.12,-566.96 172.91,-563.73"/>
</g>
<!-- Node5 -->
<g id="node5" class="node">
<title>Node5</title>
<g id="a_node5"><a xlink:href="../../de/da5/interfacecom_1_1fs_1_1starfarer_1_1api_1_1campaign_1_1rules_1_1HasMemory.html" target="_top" xlink:title=" ">
<polygon fill="none" stroke="black" points="41,-790.5 41,-869.5 210,-869.5 210,-790.5 41,-790.5"/>
<text text-anchor="start" x="49" y="-857.5" font-family="Helvetica,sans-Serif" font-size="10.00">com.fs.starfarer.api.campaign.rules.</text>
<text text-anchor="middle" x="125.5" y="-846.5" font-family="Helvetica,sans-Serif" font-size="10.00">HasMemory</text>
<polyline fill="none" stroke="black" points="41,-839.5 210,-839.5 "/>
<text text-anchor="middle" x="125.5" y="-827.5" font-family="Helvetica,sans-Serif" font-size="10.00"> </text>
<polyline fill="none" stroke="black" points="41,-820.5 210,-820.5 "/>
<text text-anchor="start" x="49" y="-808.5" font-family="Helvetica,sans-Serif" font-size="10.00">+ getMemory()</text>
<text text-anchor="start" x="49" y="-797.5" font-family="Helvetica,sans-Serif" font-size="10.00">+ getMemoryWithoutUpdate()</text>
</a>
</g>
</g>
<!-- Node5&#45;&gt;Node4 -->
<g id="edge4" class="edge">
<title>Node5&#45;&gt;Node4</title>
<path fill="none" stroke="midnightblue" d="M125.5,-780.39C125.5,-771.56 125.5,-762.11 125.5,-752.55"/>
<polygon fill="none" stroke="midnightblue" points="122,-780.43 125.5,-790.43 129,-780.43 122,-780.43"/>
</g>
<!-- Node6 -->
<g id="node6" class="node">
<title>Node6</title>
<g id="a_node6"><a xlink:href="../../da/db1/interfacecom_1_1fs_1_1starfarer_1_1api_1_1campaign_1_1FleetOrStubAPI.html" target="_top" xlink:title=" ">
<polygon fill="none" stroke="black" points="216.5,-574.5 216.5,-752.5 362.5,-752.5 362.5,-574.5 216.5,-574.5"/>
<text text-anchor="start" x="224.5" y="-740.5" font-family="Helvetica,sans-Serif" font-size="10.00">com.fs.starfarer.api.campaign.</text>
<text text-anchor="middle" x="289.5" y="-729.5" font-family="Helvetica,sans-Serif" font-size="10.00">FleetOrStubAPI</text>
<polyline fill="none" stroke="black" points="216.5,-722.5 362.5,-722.5 "/>
<text text-anchor="middle" x="289.5" y="-710.5" font-family="Helvetica,sans-Serif" font-size="10.00"> </text>
<polyline fill="none" stroke="black" points="216.5,-703.5 362.5,-703.5 "/>
<text text-anchor="start" x="224.5" y="-691.5" font-family="Helvetica,sans-Serif" font-size="10.00">+ getId()</text>
<text text-anchor="start" x="224.5" y="-680.5" font-family="Helvetica,sans-Serif" font-size="10.00">+ getContainingLocation()</text>
<text text-anchor="start" x="224.5" y="-669.5" font-family="Helvetica,sans-Serif" font-size="10.00">+ getLocation()</text>
<text text-anchor="start" x="224.5" y="-658.5" font-family="Helvetica,sans-Serif" font-size="10.00">+ getCurrentAssignment()</text>
<text text-anchor="start" x="224.5" y="-647.5" font-family="Helvetica,sans-Serif" font-size="10.00">+ getAssignmentsCopy()</text>
<text text-anchor="start" x="224.5" y="-636.5" font-family="Helvetica,sans-Serif" font-size="10.00">+ addAssignment()</text>
<text text-anchor="start" x="224.5" y="-625.5" font-family="Helvetica,sans-Serif" font-size="10.00">+ addAssignment()</text>
<text text-anchor="start" x="224.5" y="-614.5" font-family="Helvetica,sans-Serif" font-size="10.00">+ addAssignment()</text>
<text text-anchor="start" x="224.5" y="-603.5" font-family="Helvetica,sans-Serif" font-size="10.00">+ addAssignmentAtStart()</text>
<text text-anchor="start" x="224.5" y="-592.5" font-family="Helvetica,sans-Serif" font-size="10.00">+ addAssignmentAtStart()</text>
<text text-anchor="start" x="224.5" y="-581.5" font-family="Helvetica,sans-Serif" font-size="10.00">and 15 more...</text>
</a>
</g>
</g>
<!-- Node6&#45;&gt;Node3 -->
<g id="edge5" class="edge">
<title>Node6&#45;&gt;Node3</title>
<path fill="none" stroke="midnightblue" d="M269.01,-564.39C266.31,-551.46 263.55,-538.27 260.89,-525.53"/>
<polygon fill="none" stroke="midnightblue" points="265.59,-565.15 271.06,-574.22 272.44,-563.72 265.59,-565.15"/>
</g>
<!-- Node7 -->
<g id="node7" class="node">
<title>Node7</title>
<g id="a_node7"><a xlink:href="../../d6/d73/enumcom_1_1fs_1_1starfarer_1_1api_1_1fleet_1_1FleetGoal.html" target="_top" xlink:title=" ">
<polygon fill="none" stroke="black" points="333.5,-386 333.5,-487 455.5,-487 455.5,-386 333.5,-386"/>
<text text-anchor="start" x="341.5" y="-475" font-family="Helvetica,sans-Serif" font-size="10.00">com.fs.starfarer.api.fleet.</text>
<text text-anchor="middle" x="394.5" y="-464" font-family="Helvetica,sans-Serif" font-size="10.00">FleetGoal</text>
<polyline fill="none" stroke="black" points="333.5,-457 455.5,-457 "/>
<text text-anchor="start" x="341.5" y="-445" font-family="Helvetica,sans-Serif" font-size="10.00">+ ATTACK</text>
<text text-anchor="start" x="341.5" y="-434" font-family="Helvetica,sans-Serif" font-size="10.00">+ ESCAPE</text>
<text text-anchor="start" x="341.5" y="-423" font-family="Helvetica,sans-Serif" font-size="10.00">&#45; warroomTooltipId</text>
<polyline fill="none" stroke="black" points="333.5,-416 455.5,-416 "/>
<text text-anchor="start" x="341.5" y="-404" font-family="Helvetica,sans-Serif" font-size="10.00">+ getWarroomTooltipId()</text>
<text text-anchor="start" x="341.5" y="-393" font-family="Helvetica,sans-Serif" font-size="10.00">&#45; FleetGoal()</text>
</a>
</g>
</g>
<!-- Node7&#45;&gt;Node1 -->
<g id="edge6" class="edge">
<title>Node7&#45;&gt;Node1</title>
<path fill="none" stroke="#404040" d="M388.44,-385.72C384.2,-350.89 378.32,-302.62 372.76,-256.98"/>
<polygon fill="none" stroke="#404040" points="372.73,-256.73 368.03,-251.26 371.28,-244.82 375.97,-250.29 372.73,-256.73"/>
<text text-anchor="middle" x="393.5" y="-288" font-family="Helvetica,sans-Serif" font-size="10.00"> #goal</text>
</g>
<!-- Node8 -->
<g id="node8" class="node">
<title>Node8</title>
<g id="a_node8"><a xlink:title=" ">
<polygon fill="none" stroke="#bfbfbf" points="473.5,-402.5 473.5,-470.5 619.5,-470.5 619.5,-402.5 473.5,-402.5"/>
<text text-anchor="start" x="481.5" y="-458.5" font-family="Helvetica,sans-Serif" font-size="10.00">List&lt; com.fs.starfarer.api.fleet.</text>
<text text-anchor="middle" x="546.5" y="-447.5" font-family="Helvetica,sans-Serif" font-size="10.00">FleetMemberAPI &gt;</text>
<polyline fill="none" stroke="#bfbfbf" points="473.5,-440.5 619.5,-440.5 "/>
<text text-anchor="middle" x="546.5" y="-428.5" font-family="Helvetica,sans-Serif" font-size="10.00"> </text>
<polyline fill="none" stroke="#bfbfbf" points="473.5,-421.5 619.5,-421.5 "/>
<text text-anchor="middle" x="546.5" y="-409.5" font-family="Helvetica,sans-Serif" font-size="10.00"> </text>
</a>
</g>
</g>
<!-- Node8&#45;&gt;Node1 -->
<g id="edge7" class="edge">
<title>Node8&#45;&gt;Node1</title>
<path fill="none" stroke="#404040" d="M526.35,-402.41C504.9,-367.19 469.6,-309.23 436.72,-255.24"/>
<polygon fill="none" stroke="#404040" points="436.64,-255.1 430.11,-252.06 430.4,-244.85 436.94,-247.9 436.64,-255.1"/>
<text text-anchor="middle" x="497.5" y="-310" font-family="Helvetica,sans-Serif" font-size="10.00"> #deployed</text>
<text text-anchor="middle" x="497.5" y="-299" font-family="Helvetica,sans-Serif" font-size="10.00">#destroyed</text>
<text text-anchor="middle" x="497.5" y="-288" font-family="Helvetica,sans-Serif" font-size="10.00">#disabled</text>
<text text-anchor="middle" x="497.5" y="-277" font-family="Helvetica,sans-Serif" font-size="10.00">#reserves</text>
<text text-anchor="middle" x="497.5" y="-266" font-family="Helvetica,sans-Serif" font-size="10.00">#retreated</text>
</g>
</g>
</svg>
