<?xml version="1.0" encoding="UTF-8" standalone="no"?>
<!DOCTYPE svg PUBLIC "-//W3C//DTD SVG 1.1//EN"
 "http://www.w3.org/Graphics/SVG/1.1/DTD/svg11.dtd">
<!-- Generated by graphviz version 2.44.0 ()
 -->
<!-- Title: com.fs.starfarer.api.impl.campaign.intel.bases.PirateBaseManager Pages: 1 -->
<!--zoomable 981 -->
<svg id="main" version="1.1" xmlns="http://www.w3.org/2000/svg" xmlns:xlink="http://www.w3.org/1999/xlink" xml:space="preserve" onload="init(evt)">
<style type="text/css"><![CDATA[
.edge:hover path { stroke: red; }
.edge:hover polygon { stroke: red; fill: red; }
]]></style>
<script type="text/javascript"><![CDATA[
var edges = document.getElementsByTagName('g');
if (edges && edges.length) {
  for (var i=0;i<edges.length;i++) {
    if (edges[i].id.substr(0,4)=='edge') {
      edges[i].setAttribute('class','edge');
    }
  }
}
]]></script>
        <defs>
                <circle id="rim" cx="0" cy="0" r="7"/>
                <circle id="rim2" cx="0" cy="0" r="3.5"/>
                <g id="zoomPlus">
                        <use xlink:href="#rim" fill="#404040">
                                <set attributeName="fill" to="#808080" begin="zoomplus.mouseover" end="zoomplus.mouseout"/>
                        </use>
                        <path d="M-4,0h8M0,-4v8" fill="none" stroke="white" stroke-width="1.5" pointer-events="none"/>
                </g>
                <g id="zoomMin">
                        <use xlink:href="#rim" fill="#404040">
                                <set attributeName="fill" to="#808080" begin="zoomminus.mouseover" end="zoomminus.mouseout"/>
                        </use>
                        <path d="M-4,0h8" fill="none" stroke="white" stroke-width="1.5" pointer-events="none"/>
                </g>
                <g id="dirArrow">
                        <path fill="none" stroke="white" stroke-width="1.5" d="M0,-3.0v7 M-2.5,-0.5L0,-3.0L2.5,-0.5"/>
                </g>
               <g id="resetDef">
                       <use xlink:href="#rim2" fill="#404040">
                               <set attributeName="fill" to="#808080" begin="reset.mouseover" end="reset.mouseout"/>
                       </use>
               </g>
        </defs>

<script type="text/javascript">
var viewWidth = 527;
var viewHeight = 981;
var sectionId = 'dynsection-1';
</script>
<script xlink:href="../../svgpan.js"/>
<svg id="graph" class="graph">
<g id="viewport">
<title>com.fs.starfarer.api.impl.campaign.intel.bases.PirateBaseManager</title>
<!-- Node1 -->
<g id="node1" class="node">
<title>Node1</title>
<g id="a_node1"><a xlink:title=" ">
<polygon fill="#bfbfbf" stroke="black" points="304,-0.5 304,-354.5 519,-354.5 519,-0.5 304,-0.5"/>
<text text-anchor="start" x="312" y="-342.5" font-family="Helvetica,sans-Serif" font-size="10.00">com.fs.starfarer.api.impl.campaign.intel.bases.</text>
<text text-anchor="middle" x="411.5" y="-331.5" font-family="Helvetica,sans-Serif" font-size="10.00">PirateBaseManager</text>
<polyline fill="none" stroke="black" points="304,-324.5 519,-324.5 "/>
<text text-anchor="start" x="312" y="-312.5" font-family="Helvetica,sans-Serif" font-size="10.00">+ KEY</text>
<text text-anchor="start" x="312" y="-301.5" font-family="Helvetica,sans-Serif" font-size="10.00">+ CHECK_DAYS</text>
<text text-anchor="start" x="312" y="-290.5" font-family="Helvetica,sans-Serif" font-size="10.00">+ CHECK_PROB</text>
<text text-anchor="start" x="312" y="-279.5" font-family="Helvetica,sans-Serif" font-size="10.00">+ RECENTLY_USED_FOR_BASE</text>
<text text-anchor="start" x="312" y="-268.5" font-family="Helvetica,sans-Serif" font-size="10.00"># start</text>
<text text-anchor="start" x="312" y="-257.5" font-family="Helvetica,sans-Serif" font-size="10.00"># extraDays</text>
<text text-anchor="start" x="312" y="-246.5" font-family="Helvetica,sans-Serif" font-size="10.00"># numDestroyed</text>
<text text-anchor="start" x="312" y="-235.5" font-family="Helvetica,sans-Serif" font-size="10.00"># numSpawnChecksToSkip</text>
<polyline fill="none" stroke="black" points="304,-228.5 519,-228.5 "/>
<text text-anchor="start" x="312" y="-216.5" font-family="Helvetica,sans-Serif" font-size="10.00">+ PirateBaseManager()</text>
<text text-anchor="start" x="312" y="-205.5" font-family="Helvetica,sans-Serif" font-size="10.00">+ advance()</text>
<text text-anchor="start" x="312" y="-194.5" font-family="Helvetica,sans-Serif" font-size="10.00">+ pickPirateFaction()</text>
<text text-anchor="start" x="312" y="-183.5" font-family="Helvetica,sans-Serif" font-size="10.00">+ getUnadjustedDaysSinceStart()</text>
<text text-anchor="start" x="312" y="-172.5" font-family="Helvetica,sans-Serif" font-size="10.00">+ getDaysSinceStart()</text>
<text text-anchor="start" x="312" y="-161.5" font-family="Helvetica,sans-Serif" font-size="10.00">+ getStandardTimeFactor()</text>
<text text-anchor="start" x="312" y="-150.5" font-family="Helvetica,sans-Serif" font-size="10.00">+ getExtraDays()</text>
<text text-anchor="start" x="312" y="-139.5" font-family="Helvetica,sans-Serif" font-size="10.00">+ setExtraDays()</text>
<text text-anchor="start" x="312" y="-128.5" font-family="Helvetica,sans-Serif" font-size="10.00">+ getNumDestroyed()</text>
<text text-anchor="start" x="312" y="-117.5" font-family="Helvetica,sans-Serif" font-size="10.00">+ setNumDestroyed()</text>
<text text-anchor="start" x="312" y="-106.5" font-family="Helvetica,sans-Serif" font-size="10.00">+ incrDestroyed()</text>
<text text-anchor="start" x="312" y="-95.5" font-family="Helvetica,sans-Serif" font-size="10.00">+ getInstance()</text>
<text text-anchor="start" x="312" y="-84.5" font-family="Helvetica,sans-Serif" font-size="10.00">+ genBaseUseTimeout()</text>
<text text-anchor="start" x="312" y="-73.5" font-family="Helvetica,sans-Serif" font-size="10.00">+ markRecentlyUsedForBase()</text>
<text text-anchor="start" x="312" y="-62.5" font-family="Helvetica,sans-Serif" font-size="10.00"># getMinConcurrent()</text>
<text text-anchor="start" x="312" y="-51.5" font-family="Helvetica,sans-Serif" font-size="10.00"># getMaxConcurrent()</text>
<text text-anchor="start" x="312" y="-40.5" font-family="Helvetica,sans-Serif" font-size="10.00"># getBaseInterval()</text>
<text text-anchor="start" x="312" y="-29.5" font-family="Helvetica,sans-Serif" font-size="10.00"># createEvent()</text>
<text text-anchor="start" x="312" y="-18.5" font-family="Helvetica,sans-Serif" font-size="10.00"># pickTier()</text>
<text text-anchor="start" x="312" y="-7.5" font-family="Helvetica,sans-Serif" font-size="10.00"># pickSystemForPirateBase()</text>
</a>
</g>
</g>
<!-- Node2 -->
<g id="node2" class="node">
<title>Node2</title>
<g id="a_node2"><a xlink:href="../../d9/d36/classcom_1_1fs_1_1starfarer_1_1api_1_1impl_1_1campaign_1_1intel_1_1BaseEventManager.html" target="_top" xlink:title=" ">
<polygon fill="none" stroke="black" points="241.5,-392.5 241.5,-669.5 427.5,-669.5 427.5,-392.5 241.5,-392.5"/>
<text text-anchor="start" x="249.5" y="-657.5" font-family="Helvetica,sans-Serif" font-size="10.00">com.fs.starfarer.api.impl.campaign.intel.</text>
<text text-anchor="middle" x="334.5" y="-646.5" font-family="Helvetica,sans-Serif" font-size="10.00">BaseEventManager</text>
<polyline fill="none" stroke="black" points="241.5,-639.5 427.5,-639.5 "/>
<text text-anchor="start" x="249.5" y="-627.5" font-family="Helvetica,sans-Serif" font-size="10.00"># currMax</text>
<polyline fill="none" stroke="black" points="241.5,-620.5 427.5,-620.5 "/>
<text text-anchor="start" x="249.5" y="-608.5" font-family="Helvetica,sans-Serif" font-size="10.00">+ BaseEventManager()</text>
<text text-anchor="start" x="249.5" y="-597.5" font-family="Helvetica,sans-Serif" font-size="10.00">+ advance()</text>
<text text-anchor="start" x="249.5" y="-586.5" font-family="Helvetica,sans-Serif" font-size="10.00">+ getActiveCount()</text>
<text text-anchor="start" x="249.5" y="-575.5" font-family="Helvetica,sans-Serif" font-size="10.00">+ getOngoing()</text>
<text text-anchor="start" x="249.5" y="-564.5" font-family="Helvetica,sans-Serif" font-size="10.00">+ getCurrMax()</text>
<text text-anchor="start" x="249.5" y="-553.5" font-family="Helvetica,sans-Serif" font-size="10.00">+ belowMax()</text>
<text text-anchor="start" x="249.5" y="-542.5" font-family="Helvetica,sans-Serif" font-size="10.00">+ addActive()</text>
<text text-anchor="start" x="249.5" y="-531.5" font-family="Helvetica,sans-Serif" font-size="10.00">+ isDone()</text>
<text text-anchor="start" x="249.5" y="-520.5" font-family="Helvetica,sans-Serif" font-size="10.00">+ runWhilePaused()</text>
<text text-anchor="start" x="249.5" y="-509.5" font-family="Helvetica,sans-Serif" font-size="10.00">+ getActive()</text>
<text text-anchor="start" x="249.5" y="-498.5" font-family="Helvetica,sans-Serif" font-size="10.00">+ getTracker()</text>
<text text-anchor="start" x="249.5" y="-487.5" font-family="Helvetica,sans-Serif" font-size="10.00"># updateMax()</text>
<text text-anchor="start" x="249.5" y="-476.5" font-family="Helvetica,sans-Serif" font-size="10.00"># readResolve()</text>
<text text-anchor="start" x="249.5" y="-465.5" font-family="Helvetica,sans-Serif" font-size="10.00"># getMinConcurrent()</text>
<text text-anchor="start" x="249.5" y="-454.5" font-family="Helvetica,sans-Serif" font-size="10.00"># getMaxConcurrent()</text>
<text text-anchor="start" x="249.5" y="-443.5" font-family="Helvetica,sans-Serif" font-size="10.00"># createEvent()</text>
<text text-anchor="start" x="249.5" y="-432.5" font-family="Helvetica,sans-Serif" font-size="10.00"># getUpdateMaxInterval()</text>
<text text-anchor="start" x="249.5" y="-421.5" font-family="Helvetica,sans-Serif" font-size="10.00"># getBaseInterval()</text>
<text text-anchor="start" x="249.5" y="-410.5" font-family="Helvetica,sans-Serif" font-size="10.00"># getIntervalRateMult()</text>
<text text-anchor="start" x="249.5" y="-399.5" font-family="Helvetica,sans-Serif" font-size="10.00"># getHardLimit()</text>
</a>
</g>
</g>
<!-- Node2&#45;&gt;Node1 -->
<g id="edge1" class="edge">
<title>Node2&#45;&gt;Node1</title>
<path fill="none" stroke="midnightblue" d="M366.83,-382.4C368.85,-373.19 370.89,-363.88 372.93,-354.57"/>
<polygon fill="none" stroke="midnightblue" points="363.38,-381.82 364.66,-392.34 370.22,-383.32 363.38,-381.82"/>
</g>
<!-- Node3 -->
<g id="node3" class="node">
<title>Node3</title>
<g id="a_node3"><a xlink:href="../../d7/d63/interfacecom_1_1fs_1_1starfarer_1_1api_1_1EveryFrameScript.html" target="_top" xlink:title=" ">
<polygon fill="none" stroke="black" points="0,-805.5 0,-895.5 125,-895.5 125,-805.5 0,-805.5"/>
<text text-anchor="start" x="8" y="-883.5" font-family="Helvetica,sans-Serif" font-size="10.00">com.fs.starfarer.api.Every</text>
<text text-anchor="middle" x="62.5" y="-872.5" font-family="Helvetica,sans-Serif" font-size="10.00">FrameScript</text>
<polyline fill="none" stroke="black" points="0,-865.5 125,-865.5 "/>
<text text-anchor="middle" x="62.5" y="-853.5" font-family="Helvetica,sans-Serif" font-size="10.00"> </text>
<polyline fill="none" stroke="black" points="0,-846.5 125,-846.5 "/>
<text text-anchor="start" x="8" y="-834.5" font-family="Helvetica,sans-Serif" font-size="10.00">+ isDone()</text>
<text text-anchor="start" x="8" y="-823.5" font-family="Helvetica,sans-Serif" font-size="10.00">+ runWhilePaused()</text>
<text text-anchor="start" x="8" y="-812.5" font-family="Helvetica,sans-Serif" font-size="10.00">+ advance()</text>
</a>
</g>
</g>
<!-- Node3&#45;&gt;Node2 -->
<g id="edge2" class="edge">
<title>Node3&#45;&gt;Node2</title>
<path fill="none" stroke="midnightblue" d="M89.99,-796.38C102.38,-774.37 117.94,-749.11 134.5,-728 166.23,-687.55 205.88,-647.07 241.48,-613.49"/>
<polygon fill="none" stroke="midnightblue" points="86.85,-794.83 85.06,-805.27 92.97,-798.22 86.85,-794.83"/>
</g>
<!-- Node4 -->
<g id="node4" class="node">
<title>Node4</title>
<g id="a_node4"><a xlink:title=" ">
<polygon fill="none" stroke="#bfbfbf" points="143.5,-816.5 143.5,-884.5 269.5,-884.5 269.5,-816.5 143.5,-816.5"/>
<text text-anchor="start" x="151.5" y="-872.5" font-family="Helvetica,sans-Serif" font-size="10.00">List&lt; com.fs.starfarer.api.</text>
<text text-anchor="middle" x="206.5" y="-861.5" font-family="Helvetica,sans-Serif" font-size="10.00">EveryFrameScript &gt;</text>
<polyline fill="none" stroke="#bfbfbf" points="143.5,-854.5 269.5,-854.5 "/>
<text text-anchor="middle" x="206.5" y="-842.5" font-family="Helvetica,sans-Serif" font-size="10.00"> </text>
<polyline fill="none" stroke="#bfbfbf" points="143.5,-835.5 269.5,-835.5 "/>
<text text-anchor="middle" x="206.5" y="-823.5" font-family="Helvetica,sans-Serif" font-size="10.00"> </text>
</a>
</g>
</g>
<!-- Node4&#45;&gt;Node2 -->
<g id="edge3" class="edge">
<title>Node4&#45;&gt;Node2</title>
<path fill="none" stroke="#404040" d="M219.84,-816.42C232.99,-783.79 254.05,-731.56 274.55,-680.71"/>
<polygon fill="none" stroke="#404040" points="274.56,-680.68 273.1,-673.61 279.05,-669.55 280.51,-676.61 274.56,-680.68"/>
<text text-anchor="middle" x="287.5" y="-696.5" font-family="Helvetica,sans-Serif" font-size="10.00"> #active</text>
</g>
<!-- Node5 -->
<g id="node5" class="node">
<title>Node5</title>
<g id="a_node5"><a xlink:href="../../da/db8/classcom_1_1fs_1_1starfarer_1_1api_1_1util_1_1IntervalUtil.html" target="_top" xlink:title=" ">
<polygon fill="none" stroke="black" points="288,-728.5 288,-972.5 407,-972.5 407,-728.5 288,-728.5"/>
<text text-anchor="start" x="296" y="-960.5" font-family="Helvetica,sans-Serif" font-size="10.00">com.fs.starfarer.api.util.</text>
<text text-anchor="middle" x="347.5" y="-949.5" font-family="Helvetica,sans-Serif" font-size="10.00">IntervalUtil</text>
<polyline fill="none" stroke="black" points="288,-942.5 407,-942.5 "/>
<text text-anchor="start" x="296" y="-930.5" font-family="Helvetica,sans-Serif" font-size="10.00">&#45; minInterval</text>
<text text-anchor="start" x="296" y="-919.5" font-family="Helvetica,sans-Serif" font-size="10.00">&#45; maxInterval</text>
<text text-anchor="start" x="296" y="-908.5" font-family="Helvetica,sans-Serif" font-size="10.00">&#45; currInterval</text>
<text text-anchor="start" x="296" y="-897.5" font-family="Helvetica,sans-Serif" font-size="10.00">&#45; elapsed</text>
<text text-anchor="start" x="296" y="-886.5" font-family="Helvetica,sans-Serif" font-size="10.00">&#45; intervalElapsed</text>
<polyline fill="none" stroke="black" points="288,-879.5 407,-879.5 "/>
<text text-anchor="start" x="296" y="-867.5" font-family="Helvetica,sans-Serif" font-size="10.00">+ IntervalUtil()</text>
<text text-anchor="start" x="296" y="-856.5" font-family="Helvetica,sans-Serif" font-size="10.00">+ forceCurrInterval()</text>
<text text-anchor="start" x="296" y="-845.5" font-family="Helvetica,sans-Serif" font-size="10.00">+ randomize()</text>
<text text-anchor="start" x="296" y="-834.5" font-family="Helvetica,sans-Serif" font-size="10.00">+ forceIntervalElapsed()</text>
<text text-anchor="start" x="296" y="-823.5" font-family="Helvetica,sans-Serif" font-size="10.00">+ getElapsed()</text>
<text text-anchor="start" x="296" y="-812.5" font-family="Helvetica,sans-Serif" font-size="10.00">+ advance()</text>
<text text-anchor="start" x="296" y="-801.5" font-family="Helvetica,sans-Serif" font-size="10.00">+ intervalElapsed()</text>
<text text-anchor="start" x="296" y="-790.5" font-family="Helvetica,sans-Serif" font-size="10.00">+ getIntervalDuration()</text>
<text text-anchor="start" x="296" y="-779.5" font-family="Helvetica,sans-Serif" font-size="10.00">+ setInterval()</text>
<text text-anchor="start" x="296" y="-768.5" font-family="Helvetica,sans-Serif" font-size="10.00">+ setElapsed()</text>
<text text-anchor="start" x="296" y="-757.5" font-family="Helvetica,sans-Serif" font-size="10.00">+ getMinInterval()</text>
<text text-anchor="start" x="296" y="-746.5" font-family="Helvetica,sans-Serif" font-size="10.00">+ getMaxInterval()</text>
<text text-anchor="start" x="296" y="-735.5" font-family="Helvetica,sans-Serif" font-size="10.00">&#45; nextInterval()</text>
</a>
</g>
</g>
<!-- Node5&#45;&gt;Node2 -->
<g id="edge4" class="edge">
<title>Node5&#45;&gt;Node2</title>
<path fill="none" stroke="#404040" d="M336.48,-728.18C336.1,-722.04 335.77,-715.95 335.5,-710 335.08,-700.77 334.74,-691.28 334.47,-681.7"/>
<polygon fill="none" stroke="#404040" points="334.47,-681.53 330.32,-675.63 334.17,-669.53 338.32,-675.43 334.47,-681.53"/>
<text text-anchor="middle" x="362.5" y="-702" font-family="Helvetica,sans-Serif" font-size="10.00"> #tracker</text>
<text text-anchor="middle" x="362.5" y="-691" font-family="Helvetica,sans-Serif" font-size="10.00">#trackerMax</text>
</g>
<!-- Node6 -->
<g id="node6" class="node">
<title>Node6</title>
<g id="a_node6"><a xlink:title=" ">
<polygon fill="none" stroke="#bfbfbf" points="450,-822 450,-879 503,-879 503,-822 450,-822"/>
<text text-anchor="middle" x="476.5" y="-867" font-family="Helvetica,sans-Serif" font-size="10.00">Random</text>
<polyline fill="none" stroke="#bfbfbf" points="450,-860 503,-860 "/>
<text text-anchor="middle" x="476.5" y="-848" font-family="Helvetica,sans-Serif" font-size="10.00"> </text>
<polyline fill="none" stroke="#bfbfbf" points="450,-841 503,-841 "/>
<text text-anchor="middle" x="476.5" y="-829" font-family="Helvetica,sans-Serif" font-size="10.00"> </text>
</a>
</g>
</g>
<!-- Node6&#45;&gt;Node1 -->
<g id="edge6" class="edge">
<title>Node6&#45;&gt;Node1</title>
<path fill="none" stroke="#404040" d="M477.33,-821.74C478.06,-789.54 478.58,-734.86 475.5,-688 468.48,-581.15 453.96,-462.4 440.52,-366.44"/>
<polygon fill="none" stroke="#404040" points="440.52,-366.44 435.72,-361.06 438.85,-354.56 443.65,-359.94 440.52,-366.44"/>
<text text-anchor="middle" x="493.5" y="-528.5" font-family="Helvetica,sans-Serif" font-size="10.00"> #random</text>
</g>
<!-- Node6&#45;&gt;Node2 -->
<g id="edge5" class="edge">
<title>Node6&#45;&gt;Node2</title>
<path fill="none" stroke="#404040" d="M463.61,-821.77C450.58,-793.67 429.95,-748.9 412.5,-710 408.24,-700.49 403.87,-690.69 399.48,-680.8"/>
<polygon fill="none" stroke="#404040" points="399.38,-680.58 393.29,-676.72 394.52,-669.61 400.61,-673.48 399.38,-680.58"/>
<text text-anchor="middle" x="444" y="-696.5" font-family="Helvetica,sans-Serif" font-size="10.00"> #randomBase</text>
</g>
</g>
</svg>
        <g id="navigator" transform="translate(0 0)" fill="#404254">
                <rect fill="#f2f5e9" fill-opacity="0.5" stroke="#606060" stroke-width=".5" x="0" y="0" width="60" height="60"/>
                <use id="zoomplus" xlink:href="#zoomPlus" x="17" y="9" onmousedown="handleZoom(evt,'in')"/>
                <use id="zoomminus" xlink:href="#zoomMin" x="42" y="9" onmousedown="handleZoom(evt,'out')"/>
                <use id="reset" xlink:href="#resetDef" x="30" y="36" onmousedown="handleReset()"/>
                <g id="arrowUp" xlink:href="#dirArrow" transform="translate(30 24)" onmousedown="handlePan(0,-1)">
                  <use xlink:href="#rim" fill="#404040">
                        <set attributeName="fill" to="#808080" begin="arrowUp.mouseover" end="arrowUp.mouseout"/>
                  </use>
                  <path fill="none" stroke="white" stroke-width="1.5" d="M0,-3.0v7 M-2.5,-0.5L0,-3.0L2.5,-0.5"/>
                </g>
                <g id="arrowRight" xlink:href="#dirArrow" transform="rotate(90) translate(36 -43)" onmousedown="handlePan(1,0)">
                  <use xlink:href="#rim" fill="#404040">
                        <set attributeName="fill" to="#808080" begin="arrowRight.mouseover" end="arrowRight.mouseout"/>
                  </use>
                  <path fill="none" stroke="white" stroke-width="1.5" d="M0,-3.0v7 M-2.5,-0.5L0,-3.0L2.5,-0.5"/>
                </g>
                <g id="arrowDown" xlink:href="#dirArrow" transform="rotate(180) translate(-30 -48)" onmousedown="handlePan(0,1)">
                  <use xlink:href="#rim" fill="#404040">
                        <set attributeName="fill" to="#808080" begin="arrowDown.mouseover" end="arrowDown.mouseout"/>
                  </use>
                  <path fill="none" stroke="white" stroke-width="1.5" d="M0,-3.0v7 M-2.5,-0.5L0,-3.0L2.5,-0.5"/>
                </g>
                <g id="arrowLeft" xlink:href="#dirArrow" transform="rotate(270) translate(-36 17)" onmousedown="handlePan(-1,0)">
                  <use xlink:href="#rim" fill="#404040">
                        <set attributeName="fill" to="#808080" begin="arrowLeft.mouseover" end="arrowLeft.mouseout"/>
                  </use>
                  <path fill="none" stroke="white" stroke-width="1.5" d="M0,-3.0v7 M-2.5,-0.5L0,-3.0L2.5,-0.5"/>
                </g>
        </g>
        <svg viewBox="0 0 15 15" width="100%" height="30px" preserveAspectRatio="xMaxYMin meet">
         <g id="arrow_out" transform="scale(0.3 0.3)">
          <a xlink:href="classcom_1_1fs_1_1starfarer_1_1api_1_1impl_1_1campaign_1_1intel_1_1bases_1_1PirateBaseManager__coll__graph_org.svg" target="_base">
           <rect id="button" ry="5" rx="5" y="6" x="6" height="38" width="38"
                fill="#f2f5e9" fill-opacity="0.5" stroke="#606060" stroke-width="1.0"/>
           <path id="arrow"
             d="M 11.500037,31.436501 C 11.940474,20.09759 22.043105,11.32322 32.158766,21.979434 L 37.068811,17.246167 C 37.068811,17.246167 37.088388,32 37.088388,32 L 22.160133,31.978069 C 22.160133,31.978069 26.997745,27.140456 26.997745,27.140456 C 18.528582,18.264221 13.291696,25.230495 11.500037,31.436501 z"
             style="fill:#404040;"/>
          </a>
         </g>
        </svg>
</svg>
