<?xml version="1.0" encoding="UTF-8" standalone="no"?>
<!DOCTYPE svg PUBLIC "-//W3C//DTD SVG 1.1//EN"
 "http://www.w3.org/Graphics/SVG/1.1/DTD/svg11.dtd">
<!-- Generated by graphviz version 2.44.0 ()
 -->
<!-- Title: com.fs.starfarer.api.impl.campaign.ghosts.GBCircle Pages: 1 -->
<svg width="632pt" height="474pt"
 viewBox="0.00 0.00 632.00 474.00" xmlns="http://www.w3.org/2000/svg" xmlns:xlink="http://www.w3.org/1999/xlink">
<g id="graph0" class="graph" transform="scale(1 1) rotate(0) translate(4 470)">
<title>com.fs.starfarer.api.impl.campaign.ghosts.GBCircle</title>
<!-- Node1 -->
<g id="node1" class="node">
<title>Node1</title>
<g id="a_node1"><a xlink:title=" ">
<polygon fill="#bfbfbf" stroke="black" points="334,-0.5 334,-101.5 531,-101.5 531,-0.5 334,-0.5"/>
<text text-anchor="start" x="342" y="-89.5" font-family="Helvetica,sans-Serif" font-size="10.00">com.fs.starfarer.api.impl.campaign.ghosts.</text>
<text text-anchor="middle" x="432.5" y="-78.5" font-family="Helvetica,sans-Serif" font-size="10.00">GBCircle</text>
<polyline fill="none" stroke="black" points="334,-71.5 531,-71.5 "/>
<text text-anchor="start" x="342" y="-59.5" font-family="Helvetica,sans-Serif" font-size="10.00"># maxBurn</text>
<text text-anchor="start" x="342" y="-48.5" font-family="Helvetica,sans-Serif" font-size="10.00"># desiredRange</text>
<text text-anchor="start" x="342" y="-37.5" font-family="Helvetica,sans-Serif" font-size="10.00"># circleDir</text>
<polyline fill="none" stroke="black" points="334,-30.5 531,-30.5 "/>
<text text-anchor="start" x="342" y="-18.5" font-family="Helvetica,sans-Serif" font-size="10.00">+ GBCircle()</text>
<text text-anchor="start" x="342" y="-7.5" font-family="Helvetica,sans-Serif" font-size="10.00">+ advance()</text>
</a>
</g>
</g>
<!-- Node2 -->
<g id="node2" class="node">
<title>Node2</title>
<g id="a_node2"><a xlink:href="../../da/d7f/classcom_1_1fs_1_1starfarer_1_1api_1_1impl_1_1campaign_1_1ghosts_1_1BaseGhostBehavior.html" target="_top" xlink:title=" ">
<polygon fill="none" stroke="black" points="228,-182.5 228,-294.5 425,-294.5 425,-182.5 228,-182.5"/>
<text text-anchor="start" x="236" y="-282.5" font-family="Helvetica,sans-Serif" font-size="10.00">com.fs.starfarer.api.impl.campaign.ghosts.</text>
<text text-anchor="middle" x="326.5" y="-271.5" font-family="Helvetica,sans-Serif" font-size="10.00">BaseGhostBehavior</text>
<polyline fill="none" stroke="black" points="228,-264.5 425,-264.5 "/>
<text text-anchor="start" x="236" y="-252.5" font-family="Helvetica,sans-Serif" font-size="10.00"># duration</text>
<polyline fill="none" stroke="black" points="228,-245.5 425,-245.5 "/>
<text text-anchor="start" x="236" y="-233.5" font-family="Helvetica,sans-Serif" font-size="10.00">+ BaseGhostBehavior()</text>
<text text-anchor="start" x="236" y="-222.5" font-family="Helvetica,sans-Serif" font-size="10.00">+ isDone()</text>
<text text-anchor="start" x="236" y="-211.5" font-family="Helvetica,sans-Serif" font-size="10.00">+ advance()</text>
<text text-anchor="start" x="236" y="-200.5" font-family="Helvetica,sans-Serif" font-size="10.00">+ end()</text>
<text text-anchor="start" x="236" y="-189.5" font-family="Helvetica,sans-Serif" font-size="10.00">+ addInterrupt()</text>
</a>
</g>
</g>
<!-- Node2&#45;&gt;Node1 -->
<g id="edge1" class="edge">
<title>Node2&#45;&gt;Node1</title>
<path fill="none" stroke="midnightblue" d="M363.09,-173.47C376.54,-149.93 391.56,-123.65 404.17,-101.57"/>
<polygon fill="none" stroke="midnightblue" points="359.94,-171.93 358.02,-182.35 366.02,-175.4 359.94,-171.93"/>
</g>
<!-- Node3 -->
<g id="node3" class="node">
<title>Node3</title>
<g id="a_node3"><a xlink:href="../../d6/dba/interfacecom_1_1fs_1_1starfarer_1_1api_1_1impl_1_1campaign_1_1ghosts_1_1GhostBehavior.html" target="_top" xlink:title=" ">
<polygon fill="none" stroke="black" points="0,-375.5 0,-465.5 197,-465.5 197,-375.5 0,-375.5"/>
<text text-anchor="start" x="8" y="-453.5" font-family="Helvetica,sans-Serif" font-size="10.00">com.fs.starfarer.api.impl.campaign.ghosts.</text>
<text text-anchor="middle" x="98.5" y="-442.5" font-family="Helvetica,sans-Serif" font-size="10.00">GhostBehavior</text>
<polyline fill="none" stroke="black" points="0,-435.5 197,-435.5 "/>
<text text-anchor="middle" x="98.5" y="-423.5" font-family="Helvetica,sans-Serif" font-size="10.00"> </text>
<polyline fill="none" stroke="black" points="0,-416.5 197,-416.5 "/>
<text text-anchor="start" x="8" y="-404.5" font-family="Helvetica,sans-Serif" font-size="10.00">+ isDone()</text>
<text text-anchor="start" x="8" y="-393.5" font-family="Helvetica,sans-Serif" font-size="10.00">+ advance()</text>
<text text-anchor="start" x="8" y="-382.5" font-family="Helvetica,sans-Serif" font-size="10.00">+ addInterrupt()</text>
</a>
</g>
</g>
<!-- Node3&#45;&gt;Node2 -->
<g id="edge2" class="edge">
<title>Node3&#45;&gt;Node2</title>
<path fill="none" stroke="midnightblue" d="M162.39,-369.06C191.72,-345.91 226.57,-318.39 256.6,-294.69"/>
<polygon fill="none" stroke="midnightblue" points="159.96,-366.52 154.28,-375.47 164.29,-372.02 159.96,-366.52"/>
</g>
<!-- Node4 -->
<g id="node4" class="node">
<title>Node4</title>
<g id="a_node4"><a xlink:title=" ">
<polygon fill="none" stroke="#bfbfbf" points="215.5,-386.5 215.5,-454.5 437.5,-454.5 437.5,-386.5 215.5,-386.5"/>
<text text-anchor="start" x="223.5" y="-442.5" font-family="Helvetica,sans-Serif" font-size="10.00">List&lt; com.fs.starfarer.api.impl.campaign.ghosts.</text>
<text text-anchor="middle" x="326.5" y="-431.5" font-family="Helvetica,sans-Serif" font-size="10.00">GhostBehaviorInterrupt &gt;</text>
<polyline fill="none" stroke="#bfbfbf" points="215.5,-424.5 437.5,-424.5 "/>
<text text-anchor="middle" x="326.5" y="-412.5" font-family="Helvetica,sans-Serif" font-size="10.00"> </text>
<polyline fill="none" stroke="#bfbfbf" points="215.5,-405.5 437.5,-405.5 "/>
<text text-anchor="middle" x="326.5" y="-393.5" font-family="Helvetica,sans-Serif" font-size="10.00"> </text>
</a>
</g>
</g>
<!-- Node4&#45;&gt;Node2 -->
<g id="edge3" class="edge">
<title>Node4&#45;&gt;Node2</title>
<path fill="none" stroke="#404040" d="M326.5,-386.49C326.5,-364.22 326.5,-334.04 326.5,-306.83"/>
<polygon fill="none" stroke="#404040" points="326.5,-306.57 322.5,-300.57 326.5,-294.57 330.5,-300.57 326.5,-306.57"/>
<text text-anchor="middle" x="351" y="-349" font-family="Helvetica,sans-Serif" font-size="10.00"> #interrupts</text>
</g>
<!-- Node5 -->
<g id="node5" class="node">
<title>Node5</title>
<g id="a_node5"><a xlink:href="../../d6/de1/interfacecom_1_1fs_1_1starfarer_1_1api_1_1campaign_1_1SectorEntityToken.html" target="_top" xlink:title=" ">
<polygon fill="none" stroke="black" points="455.5,-149.5 455.5,-327.5 601.5,-327.5 601.5,-149.5 455.5,-149.5"/>
<text text-anchor="start" x="463.5" y="-315.5" font-family="Helvetica,sans-Serif" font-size="10.00">com.fs.starfarer.api.campaign.</text>
<text text-anchor="middle" x="528.5" y="-304.5" font-family="Helvetica,sans-Serif" font-size="10.00">SectorEntityToken</text>
<polyline fill="none" stroke="black" points="455.5,-297.5 601.5,-297.5 "/>
<text text-anchor="middle" x="528.5" y="-285.5" font-family="Helvetica,sans-Serif" font-size="10.00"> </text>
<polyline fill="none" stroke="black" points="455.5,-278.5 601.5,-278.5 "/>
<text text-anchor="start" x="463.5" y="-266.5" font-family="Helvetica,sans-Serif" font-size="10.00">+ isPlayerFleet()</text>
<text text-anchor="start" x="463.5" y="-255.5" font-family="Helvetica,sans-Serif" font-size="10.00">+ getMarket()</text>
<text text-anchor="start" x="463.5" y="-244.5" font-family="Helvetica,sans-Serif" font-size="10.00">+ setMarket()</text>
<text text-anchor="start" x="463.5" y="-233.5" font-family="Helvetica,sans-Serif" font-size="10.00">+ getCargo()</text>
<text text-anchor="start" x="463.5" y="-222.5" font-family="Helvetica,sans-Serif" font-size="10.00">+ getLocation()</text>
<text text-anchor="start" x="463.5" y="-211.5" font-family="Helvetica,sans-Serif" font-size="10.00">+ getLocationInHyperspace()</text>
<text text-anchor="start" x="463.5" y="-200.5" font-family="Helvetica,sans-Serif" font-size="10.00">+ getOrbit()</text>
<text text-anchor="start" x="463.5" y="-189.5" font-family="Helvetica,sans-Serif" font-size="10.00">+ setOrbit()</text>
<text text-anchor="start" x="463.5" y="-178.5" font-family="Helvetica,sans-Serif" font-size="10.00">+ getId()</text>
<text text-anchor="start" x="463.5" y="-167.5" font-family="Helvetica,sans-Serif" font-size="10.00">+ getName()</text>
<text text-anchor="start" x="463.5" y="-156.5" font-family="Helvetica,sans-Serif" font-size="10.00">and 115 more...</text>
</a>
</g>
</g>
<!-- Node5&#45;&gt;Node1 -->
<g id="edge4" class="edge">
<title>Node5&#45;&gt;Node1</title>
<path fill="none" stroke="#404040" d="M482.89,-149.37C476.37,-136.77 469.79,-124.06 463.64,-112.17"/>
<polygon fill="none" stroke="#404040" points="463.64,-112.16 457.33,-108.67 458.12,-101.5 464.43,-105 463.64,-112.16"/>
<text text-anchor="middle" x="487.5" y="-123" font-family="Helvetica,sans-Serif" font-size="10.00"> #other</text>
</g>
<!-- Node6 -->
<g id="node6" class="node">
<title>Node6</title>
<g id="a_node6"><a xlink:href="../../de/da5/interfacecom_1_1fs_1_1starfarer_1_1api_1_1campaign_1_1rules_1_1HasMemory.html" target="_top" xlink:title=" ">
<polygon fill="none" stroke="black" points="455,-381 455,-460 624,-460 624,-381 455,-381"/>
<text text-anchor="start" x="463" y="-448" font-family="Helvetica,sans-Serif" font-size="10.00">com.fs.starfarer.api.campaign.rules.</text>
<text text-anchor="middle" x="539.5" y="-437" font-family="Helvetica,sans-Serif" font-size="10.00">HasMemory</text>
<polyline fill="none" stroke="black" points="455,-430 624,-430 "/>
<text text-anchor="middle" x="539.5" y="-418" font-family="Helvetica,sans-Serif" font-size="10.00"> </text>
<polyline fill="none" stroke="black" points="455,-411 624,-411 "/>
<text text-anchor="start" x="463" y="-399" font-family="Helvetica,sans-Serif" font-size="10.00">+ getMemory()</text>
<text text-anchor="start" x="463" y="-388" font-family="Helvetica,sans-Serif" font-size="10.00">+ getMemoryWithoutUpdate()</text>
</a>
</g>
</g>
<!-- Node6&#45;&gt;Node5 -->
<g id="edge5" class="edge">
<title>Node6&#45;&gt;Node5</title>
<path fill="none" stroke="midnightblue" d="M536.51,-370.56C535.7,-357.24 534.79,-342.39 533.88,-327.61"/>
<polygon fill="none" stroke="midnightblue" points="533.04,-371.12 537.14,-380.89 540.02,-370.69 533.04,-371.12"/>
</g>
</g>
</svg>
