<?xml version="1.0" encoding="UTF-8" standalone="no"?>
<!DOCTYPE svg PUBLIC "-//W3C//DTD SVG 1.1//EN"
 "http://www.w3.org/Graphics/SVG/1.1/DTD/svg11.dtd">
<!-- Generated by graphviz version 2.44.0 ()
 -->
<!-- Title: com.fs.starfarer.api.impl.campaign.missions.hub.BaseHubMission.DefeatTriggerAdded Pages: 1 -->
<svg width="445pt" height="658pt"
 viewBox="0.00 0.00 444.50 658.00" xmlns="http://www.w3.org/2000/svg" xmlns:xlink="http://www.w3.org/1999/xlink">
<g id="graph0" class="graph" transform="scale(1 1) rotate(0) translate(4 654)">
<title>com.fs.starfarer.api.impl.campaign.missions.hub.BaseHubMission.DefeatTriggerAdded</title>
<!-- Node1 -->
<g id="node1" class="node">
<title>Node1</title>
<g id="a_node1"><a xlink:title=" ">
<polygon fill="#bfbfbf" stroke="black" points="16,-0.5 16,-90.5 241,-90.5 241,-0.5 16,-0.5"/>
<text text-anchor="start" x="24" y="-78.5" font-family="Helvetica,sans-Serif" font-size="10.00">com.fs.starfarer.api.impl.campaign.missions.hub.</text>
<text text-anchor="middle" x="128.5" y="-67.5" font-family="Helvetica,sans-Serif" font-size="10.00">BaseHubMission.DefeatTriggerAdded</text>
<polyline fill="none" stroke="black" points="16,-60.5 241,-60.5 "/>
<text text-anchor="start" x="24" y="-48.5" font-family="Helvetica,sans-Serif" font-size="10.00"># trigger</text>
<text text-anchor="start" x="24" y="-37.5" font-family="Helvetica,sans-Serif" font-size="10.00"># permanent</text>
<polyline fill="none" stroke="black" points="16,-30.5 241,-30.5 "/>
<text text-anchor="start" x="24" y="-18.5" font-family="Helvetica,sans-Serif" font-size="10.00">+ DefeatTriggerAdded()</text>
<text text-anchor="start" x="24" y="-7.5" font-family="Helvetica,sans-Serif" font-size="10.00">+ abort()</text>
</a>
</g>
</g>
<!-- Node2 -->
<g id="node2" class="node">
<title>Node2</title>
<g id="a_node2"><a xlink:href="../../da/d1f/interfacecom_1_1fs_1_1starfarer_1_1api_1_1impl_1_1campaign_1_1missions_1_1hub_1_1BaseHubMission_1_1Abortable.html" target="_top" xlink:title=" ">
<polygon fill="none" stroke="black" points="0,-193.5 0,-261.5 225,-261.5 225,-193.5 0,-193.5"/>
<text text-anchor="start" x="8" y="-249.5" font-family="Helvetica,sans-Serif" font-size="10.00">com.fs.starfarer.api.impl.campaign.missions.hub.</text>
<text text-anchor="middle" x="112.5" y="-238.5" font-family="Helvetica,sans-Serif" font-size="10.00">BaseHubMission.Abortable</text>
<polyline fill="none" stroke="black" points="0,-231.5 225,-231.5 "/>
<text text-anchor="middle" x="112.5" y="-219.5" font-family="Helvetica,sans-Serif" font-size="10.00"> </text>
<polyline fill="none" stroke="black" points="0,-212.5 225,-212.5 "/>
<text text-anchor="start" x="8" y="-200.5" font-family="Helvetica,sans-Serif" font-size="10.00">+ abort()</text>
</a>
</g>
</g>
<!-- Node2&#45;&gt;Node1 -->
<g id="edge1" class="edge">
<title>Node2&#45;&gt;Node1</title>
<path fill="none" stroke="midnightblue" d="M116.35,-183.18C118.85,-155.12 122.08,-118.69 124.59,-90.5"/>
<polygon fill="none" stroke="midnightblue" points="112.83,-183.21 115.43,-193.49 119.81,-183.83 112.83,-183.21"/>
</g>
<!-- Node3 -->
<g id="node3" class="node">
<title>Node3</title>
<g id="a_node3"><a xlink:href="../../db/d56/interfacecom_1_1fs_1_1starfarer_1_1api_1_1campaign_1_1CampaignFleetAPI.html" target="_top" xlink:title=" ">
<polygon fill="none" stroke="black" points="243.5,-138.5 243.5,-316.5 389.5,-316.5 389.5,-138.5 243.5,-138.5"/>
<text text-anchor="start" x="251.5" y="-304.5" font-family="Helvetica,sans-Serif" font-size="10.00">com.fs.starfarer.api.campaign.</text>
<text text-anchor="middle" x="316.5" y="-293.5" font-family="Helvetica,sans-Serif" font-size="10.00">CampaignFleetAPI</text>
<polyline fill="none" stroke="black" points="243.5,-286.5 389.5,-286.5 "/>
<text text-anchor="middle" x="316.5" y="-274.5" font-family="Helvetica,sans-Serif" font-size="10.00"> </text>
<polyline fill="none" stroke="black" points="243.5,-267.5 389.5,-267.5 "/>
<text text-anchor="start" x="251.5" y="-255.5" font-family="Helvetica,sans-Serif" font-size="10.00">+ isInCurrentLocation()</text>
<text text-anchor="start" x="251.5" y="-244.5" font-family="Helvetica,sans-Serif" font-size="10.00">+ isInHyperspace()</text>
<text text-anchor="start" x="251.5" y="-233.5" font-family="Helvetica,sans-Serif" font-size="10.00">+ setLocation()</text>
<text text-anchor="start" x="251.5" y="-222.5" font-family="Helvetica,sans-Serif" font-size="10.00">+ despawn()</text>
<text text-anchor="start" x="251.5" y="-211.5" font-family="Helvetica,sans-Serif" font-size="10.00">+ despawn()</text>
<text text-anchor="start" x="251.5" y="-200.5" font-family="Helvetica,sans-Serif" font-size="10.00">+ addAssignment()</text>
<text text-anchor="start" x="251.5" y="-189.5" font-family="Helvetica,sans-Serif" font-size="10.00">+ addAssignment()</text>
<text text-anchor="start" x="251.5" y="-178.5" font-family="Helvetica,sans-Serif" font-size="10.00">+ addAssignment()</text>
<text text-anchor="start" x="251.5" y="-167.5" font-family="Helvetica,sans-Serif" font-size="10.00">+ addAssignment()</text>
<text text-anchor="start" x="251.5" y="-156.5" font-family="Helvetica,sans-Serif" font-size="10.00">+ clearAssignments()</text>
<text text-anchor="start" x="251.5" y="-145.5" font-family="Helvetica,sans-Serif" font-size="10.00">and 92 more...</text>
</a>
</g>
</g>
<!-- Node3&#45;&gt;Node1 -->
<g id="edge2" class="edge">
<title>Node3&#45;&gt;Node1</title>
<path fill="none" stroke="#404040" d="M243.13,-147.45C239.91,-144.23 236.68,-141.07 233.5,-138 219.93,-124.92 204.9,-111.33 190.54,-98.74"/>
<polygon fill="none" stroke="#404040" points="190.28,-98.51 183.13,-97.59 181.23,-90.63 188.38,-91.56 190.28,-98.51"/>
<text text-anchor="middle" x="227.5" y="-112" font-family="Helvetica,sans-Serif" font-size="10.00"> #fleet</text>
</g>
<!-- Node4 -->
<g id="node4" class="node">
<title>Node4</title>
<g id="a_node4"><a xlink:href="../../d6/de1/interfacecom_1_1fs_1_1starfarer_1_1api_1_1campaign_1_1SectorEntityToken.html" target="_top" xlink:title=" ">
<polygon fill="none" stroke="black" points="126.5,-354.5 126.5,-532.5 272.5,-532.5 272.5,-354.5 126.5,-354.5"/>
<text text-anchor="start" x="134.5" y="-520.5" font-family="Helvetica,sans-Serif" font-size="10.00">com.fs.starfarer.api.campaign.</text>
<text text-anchor="middle" x="199.5" y="-509.5" font-family="Helvetica,sans-Serif" font-size="10.00">SectorEntityToken</text>
<polyline fill="none" stroke="black" points="126.5,-502.5 272.5,-502.5 "/>
<text text-anchor="middle" x="199.5" y="-490.5" font-family="Helvetica,sans-Serif" font-size="10.00"> </text>
<polyline fill="none" stroke="black" points="126.5,-483.5 272.5,-483.5 "/>
<text text-anchor="start" x="134.5" y="-471.5" font-family="Helvetica,sans-Serif" font-size="10.00">+ isPlayerFleet()</text>
<text text-anchor="start" x="134.5" y="-460.5" font-family="Helvetica,sans-Serif" font-size="10.00">+ getMarket()</text>
<text text-anchor="start" x="134.5" y="-449.5" font-family="Helvetica,sans-Serif" font-size="10.00">+ setMarket()</text>
<text text-anchor="start" x="134.5" y="-438.5" font-family="Helvetica,sans-Serif" font-size="10.00">+ getCargo()</text>
<text text-anchor="start" x="134.5" y="-427.5" font-family="Helvetica,sans-Serif" font-size="10.00">+ getLocation()</text>
<text text-anchor="start" x="134.5" y="-416.5" font-family="Helvetica,sans-Serif" font-size="10.00">+ getLocationInHyperspace()</text>
<text text-anchor="start" x="134.5" y="-405.5" font-family="Helvetica,sans-Serif" font-size="10.00">+ getOrbit()</text>
<text text-anchor="start" x="134.5" y="-394.5" font-family="Helvetica,sans-Serif" font-size="10.00">+ setOrbit()</text>
<text text-anchor="start" x="134.5" y="-383.5" font-family="Helvetica,sans-Serif" font-size="10.00">+ getId()</text>
<text text-anchor="start" x="134.5" y="-372.5" font-family="Helvetica,sans-Serif" font-size="10.00">+ getName()</text>
<text text-anchor="start" x="134.5" y="-361.5" font-family="Helvetica,sans-Serif" font-size="10.00">and 115 more...</text>
</a>
</g>
</g>
<!-- Node4&#45;&gt;Node3 -->
<g id="edge3" class="edge">
<title>Node4&#45;&gt;Node3</title>
<path fill="none" stroke="midnightblue" d="M252.57,-345.43C257.83,-335.82 263.14,-326.09 268.35,-316.57"/>
<polygon fill="none" stroke="midnightblue" points="249.49,-343.77 247.76,-354.22 255.63,-347.13 249.49,-343.77"/>
</g>
<!-- Node5 -->
<g id="node5" class="node">
<title>Node5</title>
<g id="a_node5"><a xlink:href="../../de/da5/interfacecom_1_1fs_1_1starfarer_1_1api_1_1campaign_1_1rules_1_1HasMemory.html" target="_top" xlink:title=" ">
<polygon fill="none" stroke="black" points="115,-570.5 115,-649.5 284,-649.5 284,-570.5 115,-570.5"/>
<text text-anchor="start" x="123" y="-637.5" font-family="Helvetica,sans-Serif" font-size="10.00">com.fs.starfarer.api.campaign.rules.</text>
<text text-anchor="middle" x="199.5" y="-626.5" font-family="Helvetica,sans-Serif" font-size="10.00">HasMemory</text>
<polyline fill="none" stroke="black" points="115,-619.5 284,-619.5 "/>
<text text-anchor="middle" x="199.5" y="-607.5" font-family="Helvetica,sans-Serif" font-size="10.00"> </text>
<polyline fill="none" stroke="black" points="115,-600.5 284,-600.5 "/>
<text text-anchor="start" x="123" y="-588.5" font-family="Helvetica,sans-Serif" font-size="10.00">+ getMemory()</text>
<text text-anchor="start" x="123" y="-577.5" font-family="Helvetica,sans-Serif" font-size="10.00">+ getMemoryWithoutUpdate()</text>
</a>
</g>
</g>
<!-- Node5&#45;&gt;Node4 -->
<g id="edge4" class="edge">
<title>Node5&#45;&gt;Node4</title>
<path fill="none" stroke="midnightblue" d="M199.5,-560.39C199.5,-551.56 199.5,-542.11 199.5,-532.55"/>
<polygon fill="none" stroke="midnightblue" points="196,-560.43 199.5,-570.43 203,-560.43 196,-560.43"/>
</g>
<!-- Node6 -->
<g id="node6" class="node">
<title>Node6</title>
<g id="a_node6"><a xlink:href="../../da/db1/interfacecom_1_1fs_1_1starfarer_1_1api_1_1campaign_1_1FleetOrStubAPI.html" target="_top" xlink:title=" ">
<polygon fill="none" stroke="black" points="290.5,-354.5 290.5,-532.5 436.5,-532.5 436.5,-354.5 290.5,-354.5"/>
<text text-anchor="start" x="298.5" y="-520.5" font-family="Helvetica,sans-Serif" font-size="10.00">com.fs.starfarer.api.campaign.</text>
<text text-anchor="middle" x="363.5" y="-509.5" font-family="Helvetica,sans-Serif" font-size="10.00">FleetOrStubAPI</text>
<polyline fill="none" stroke="black" points="290.5,-502.5 436.5,-502.5 "/>
<text text-anchor="middle" x="363.5" y="-490.5" font-family="Helvetica,sans-Serif" font-size="10.00"> </text>
<polyline fill="none" stroke="black" points="290.5,-483.5 436.5,-483.5 "/>
<text text-anchor="start" x="298.5" y="-471.5" font-family="Helvetica,sans-Serif" font-size="10.00">+ getId()</text>
<text text-anchor="start" x="298.5" y="-460.5" font-family="Helvetica,sans-Serif" font-size="10.00">+ getContainingLocation()</text>
<text text-anchor="start" x="298.5" y="-449.5" font-family="Helvetica,sans-Serif" font-size="10.00">+ getLocation()</text>
<text text-anchor="start" x="298.5" y="-438.5" font-family="Helvetica,sans-Serif" font-size="10.00">+ getCurrentAssignment()</text>
<text text-anchor="start" x="298.5" y="-427.5" font-family="Helvetica,sans-Serif" font-size="10.00">+ getAssignmentsCopy()</text>
<text text-anchor="start" x="298.5" y="-416.5" font-family="Helvetica,sans-Serif" font-size="10.00">+ addAssignment()</text>
<text text-anchor="start" x="298.5" y="-405.5" font-family="Helvetica,sans-Serif" font-size="10.00">+ addAssignment()</text>
<text text-anchor="start" x="298.5" y="-394.5" font-family="Helvetica,sans-Serif" font-size="10.00">+ addAssignment()</text>
<text text-anchor="start" x="298.5" y="-383.5" font-family="Helvetica,sans-Serif" font-size="10.00">+ addAssignmentAtStart()</text>
<text text-anchor="start" x="298.5" y="-372.5" font-family="Helvetica,sans-Serif" font-size="10.00">+ addAssignmentAtStart()</text>
<text text-anchor="start" x="298.5" y="-361.5" font-family="Helvetica,sans-Serif" font-size="10.00">and 15 more...</text>
</a>
</g>
</g>
<!-- Node6&#45;&gt;Node3 -->
<g id="edge5" class="edge">
<title>Node6&#45;&gt;Node3</title>
<path fill="none" stroke="midnightblue" d="M341.92,-344.25C339.9,-335.02 337.85,-325.7 335.84,-316.57"/>
<polygon fill="none" stroke="midnightblue" points="338.55,-345.21 344.11,-354.22 345.39,-343.7 338.55,-345.21"/>
</g>
</g>
</svg>
