<?xml version="1.0" encoding="UTF-8" standalone="no"?>
<!DOCTYPE svg PUBLIC "-//W3C//DTD SVG 1.1//EN"
 "http://www.w3.org/Graphics/SVG/1.1/DTD/svg11.dtd">
<!-- Generated by graphviz version 2.44.0 ()
 -->
<!-- Title: com.fs.starfarer.api.impl.campaign.rulecmd.salvage.AICores Pages: 1 -->
<!--zoomable 902 -->
<svg id="main" version="1.1" xmlns="http://www.w3.org/2000/svg" xmlns:xlink="http://www.w3.org/1999/xlink" xml:space="preserve" onload="init(evt)">
<style type="text/css"><![CDATA[
.edge:hover path { stroke: red; }
.edge:hover polygon { stroke: red; fill: red; }
]]></style>
<script type="text/javascript"><![CDATA[
var edges = document.getElementsByTagName('g');
if (edges && edges.length) {
  for (var i=0;i<edges.length;i++) {
    if (edges[i].id.substr(0,4)=='edge') {
      edges[i].setAttribute('class','edge');
    }
  }
}
]]></script>
        <defs>
                <circle id="rim" cx="0" cy="0" r="7"/>
                <circle id="rim2" cx="0" cy="0" r="3.5"/>
                <g id="zoomPlus">
                        <use xlink:href="#rim" fill="#404040">
                                <set attributeName="fill" to="#808080" begin="zoomplus.mouseover" end="zoomplus.mouseout"/>
                        </use>
                        <path d="M-4,0h8M0,-4v8" fill="none" stroke="white" stroke-width="1.5" pointer-events="none"/>
                </g>
                <g id="zoomMin">
                        <use xlink:href="#rim" fill="#404040">
                                <set attributeName="fill" to="#808080" begin="zoomminus.mouseover" end="zoomminus.mouseout"/>
                        </use>
                        <path d="M-4,0h8" fill="none" stroke="white" stroke-width="1.5" pointer-events="none"/>
                </g>
                <g id="dirArrow">
                        <path fill="none" stroke="white" stroke-width="1.5" d="M0,-3.0v7 M-2.5,-0.5L0,-3.0L2.5,-0.5"/>
                </g>
               <g id="resetDef">
                       <use xlink:href="#rim2" fill="#404040">
                               <set attributeName="fill" to="#808080" begin="reset.mouseover" end="reset.mouseout"/>
                       </use>
               </g>
        </defs>

<script type="text/javascript">
var viewWidth = 1705;
var viewHeight = 902;
var sectionId = 'dynsection-1';
</script>
<script xlink:href="../../svgpan.js"/>
<svg id="graph" class="graph">
<g id="viewport">
<title>com.fs.starfarer.api.impl.campaign.rulecmd.salvage.AICores</title>
<!-- Node1 -->
<g id="node1" class="node">
<title>Node1</title>
<g id="a_node1"><a xlink:title=" ">
<polygon fill="#bfbfbf" stroke="black" points="702,-0.5 702,-156.5 941,-156.5 941,-0.5 702,-0.5"/>
<text text-anchor="start" x="710" y="-144.5" font-family="Helvetica,sans-Serif" font-size="10.00">com.fs.starfarer.api.impl.campaign.rulecmd.salvage.</text>
<text text-anchor="middle" x="821.5" y="-133.5" font-family="Helvetica,sans-Serif" font-size="10.00">AICores</text>
<polyline fill="none" stroke="black" points="702,-126.5 941,-126.5 "/>
<text text-anchor="start" x="710" y="-114.5" font-family="Helvetica,sans-Serif" font-size="10.00"># buysAICores</text>
<text text-anchor="start" x="710" y="-103.5" font-family="Helvetica,sans-Serif" font-size="10.00"># valueMult</text>
<text text-anchor="start" x="710" y="-92.5" font-family="Helvetica,sans-Serif" font-size="10.00"># repMult</text>
<polyline fill="none" stroke="black" points="702,-85.5 941,-85.5 "/>
<text text-anchor="start" x="710" y="-73.5" font-family="Helvetica,sans-Serif" font-size="10.00">+ execute()</text>
<text text-anchor="start" x="710" y="-62.5" font-family="Helvetica,sans-Serif" font-size="10.00">+ getBaseRepValue()</text>
<text text-anchor="start" x="710" y="-51.5" font-family="Helvetica,sans-Serif" font-size="10.00"># personCanAcceptCores()</text>
<text text-anchor="start" x="710" y="-40.5" font-family="Helvetica,sans-Serif" font-size="10.00"># selectCores()</text>
<text text-anchor="start" x="710" y="-29.5" font-family="Helvetica,sans-Serif" font-size="10.00"># computeCoreCreditValue()</text>
<text text-anchor="start" x="710" y="-18.5" font-family="Helvetica,sans-Serif" font-size="10.00"># computeCoreReputationValue()</text>
<text text-anchor="start" x="710" y="-7.5" font-family="Helvetica,sans-Serif" font-size="10.00"># playerHasCores()</text>
</a>
</g>
</g>
<!-- Node2 -->
<g id="node2" class="node">
<title>Node2</title>
<g id="a_node2"><a xlink:href="../../d7/dd6/classcom_1_1fs_1_1starfarer_1_1api_1_1impl_1_1campaign_1_1rulecmd_1_1BaseCommandPlugin.html" target="_top" xlink:title=" ">
<polygon fill="none" stroke="black" points="0,-248.5 0,-338.5 203,-338.5 203,-248.5 0,-248.5"/>
<text text-anchor="start" x="8" y="-326.5" font-family="Helvetica,sans-Serif" font-size="10.00">com.fs.starfarer.api.impl.campaign.rulecmd.</text>
<text text-anchor="middle" x="101.5" y="-315.5" font-family="Helvetica,sans-Serif" font-size="10.00">BaseCommandPlugin</text>
<polyline fill="none" stroke="black" points="0,-308.5 203,-308.5 "/>
<text text-anchor="middle" x="101.5" y="-296.5" font-family="Helvetica,sans-Serif" font-size="10.00"> </text>
<polyline fill="none" stroke="black" points="0,-289.5 203,-289.5 "/>
<text text-anchor="start" x="8" y="-277.5" font-family="Helvetica,sans-Serif" font-size="10.00">+ doesCommandAddOptions()</text>
<text text-anchor="start" x="8" y="-266.5" font-family="Helvetica,sans-Serif" font-size="10.00">+ getOptionOrder()</text>
<text text-anchor="start" x="8" y="-255.5" font-family="Helvetica,sans-Serif" font-size="10.00">+ getEntityMemory()</text>
</a>
</g>
</g>
<!-- Node2&#45;&gt;Node1 -->
<g id="edge1" class="edge">
<title>Node2&#45;&gt;Node1</title>
<path fill="none" stroke="midnightblue" d="M154.01,-241.85C171.18,-227.7 191.11,-213.58 211.5,-204 371.07,-128.99 574.96,-99.02 701.9,-87.15"/>
<polygon fill="none" stroke="midnightblue" points="151.71,-239.21 146.32,-248.34 156.22,-244.56 151.71,-239.21"/>
</g>
<!-- Node3 -->
<g id="node3" class="node">
<title>Node3</title>
<g id="a_node3"><a xlink:href="../../d0/d5c/interfacecom_1_1fs_1_1starfarer_1_1api_1_1campaign_1_1rules_1_1CommandPlugin.html" target="_top" xlink:title=" ">
<polygon fill="none" stroke="black" points="17,-642.5 17,-732.5 186,-732.5 186,-642.5 17,-642.5"/>
<text text-anchor="start" x="25" y="-720.5" font-family="Helvetica,sans-Serif" font-size="10.00">com.fs.starfarer.api.campaign.rules.</text>
<text text-anchor="middle" x="101.5" y="-709.5" font-family="Helvetica,sans-Serif" font-size="10.00">CommandPlugin</text>
<polyline fill="none" stroke="black" points="17,-702.5 186,-702.5 "/>
<text text-anchor="middle" x="101.5" y="-690.5" font-family="Helvetica,sans-Serif" font-size="10.00"> </text>
<polyline fill="none" stroke="black" points="17,-683.5 186,-683.5 "/>
<text text-anchor="start" x="25" y="-671.5" font-family="Helvetica,sans-Serif" font-size="10.00">+ execute()</text>
<text text-anchor="start" x="25" y="-660.5" font-family="Helvetica,sans-Serif" font-size="10.00">+ doesCommandAddOptions()</text>
<text text-anchor="start" x="25" y="-649.5" font-family="Helvetica,sans-Serif" font-size="10.00">+ getOptionOrder()</text>
</a>
</g>
</g>
<!-- Node3&#45;&gt;Node2 -->
<g id="edge2" class="edge">
<title>Node3&#45;&gt;Node2</title>
<path fill="none" stroke="midnightblue" d="M101.5,-632.15C101.5,-553.81 101.5,-410.68 101.5,-338.54"/>
<polygon fill="none" stroke="midnightblue" points="98,-632.29 101.5,-642.29 105,-632.29 98,-632.29"/>
</g>
<!-- Node4 -->
<g id="node4" class="node">
<title>Node4</title>
<g id="a_node4"><a xlink:title=" ">
<polygon fill="none" stroke="#bfbfbf" points="221,-259.5 221,-327.5 448,-327.5 448,-259.5 221,-259.5"/>
<text text-anchor="start" x="229" y="-315.5" font-family="Helvetica,sans-Serif" font-size="10.00">Map&lt; String, com.fs.starfarer.api.campaign.rules.</text>
<text text-anchor="middle" x="334.5" y="-304.5" font-family="Helvetica,sans-Serif" font-size="10.00">MemoryAPI &gt;</text>
<polyline fill="none" stroke="#bfbfbf" points="221,-297.5 448,-297.5 "/>
<text text-anchor="middle" x="334.5" y="-285.5" font-family="Helvetica,sans-Serif" font-size="10.00"> </text>
<polyline fill="none" stroke="#bfbfbf" points="221,-278.5 448,-278.5 "/>
<text text-anchor="middle" x="334.5" y="-266.5" font-family="Helvetica,sans-Serif" font-size="10.00"> </text>
</a>
</g>
</g>
<!-- Node4&#45;&gt;Node1 -->
<g id="edge3" class="edge">
<title>Node4&#45;&gt;Node1</title>
<path fill="none" stroke="#404040" d="M379.38,-259.37C402.52,-242.5 431.3,-221.85 457.5,-204 477.16,-190.6 480.89,-184.95 502.5,-175 562.06,-147.56 631.48,-125.69 690.31,-109.84"/>
<polygon fill="none" stroke="#404040" points="690.34,-109.83 695.11,-104.42 701.93,-106.75 697.16,-112.15 690.34,-109.83"/>
<text text-anchor="middle" x="533" y="-178" font-family="Helvetica,sans-Serif" font-size="10.00"> #memoryMap</text>
</g>
<!-- Node5 -->
<g id="node5" class="node">
<title>Node5</title>
<g id="a_node5"><a xlink:href="../../dc/d7b/interfacecom_1_1fs_1_1starfarer_1_1api_1_1campaign_1_1CargoAPI.html" target="_top" xlink:title=" ">
<polygon fill="none" stroke="black" points="466.5,-204.5 466.5,-382.5 612.5,-382.5 612.5,-204.5 466.5,-204.5"/>
<text text-anchor="start" x="474.5" y="-370.5" font-family="Helvetica,sans-Serif" font-size="10.00">com.fs.starfarer.api.campaign.</text>
<text text-anchor="middle" x="539.5" y="-359.5" font-family="Helvetica,sans-Serif" font-size="10.00">CargoAPI</text>
<polyline fill="none" stroke="black" points="466.5,-352.5 612.5,-352.5 "/>
<text text-anchor="middle" x="539.5" y="-340.5" font-family="Helvetica,sans-Serif" font-size="10.00"> </text>
<polyline fill="none" stroke="black" points="466.5,-333.5 612.5,-333.5 "/>
<text text-anchor="start" x="474.5" y="-321.5" font-family="Helvetica,sans-Serif" font-size="10.00">+ getWeapons()</text>
<text text-anchor="start" x="474.5" y="-310.5" font-family="Helvetica,sans-Serif" font-size="10.00">+ getNumWeapons()</text>
<text text-anchor="start" x="474.5" y="-299.5" font-family="Helvetica,sans-Serif" font-size="10.00">+ removeWeapons()</text>
<text text-anchor="start" x="474.5" y="-288.5" font-family="Helvetica,sans-Serif" font-size="10.00">+ addWeapons()</text>
<text text-anchor="start" x="474.5" y="-277.5" font-family="Helvetica,sans-Serif" font-size="10.00">+ getSupplies()</text>
<text text-anchor="start" x="474.5" y="-266.5" font-family="Helvetica,sans-Serif" font-size="10.00">+ getFuel()</text>
<text text-anchor="start" x="474.5" y="-255.5" font-family="Helvetica,sans-Serif" font-size="10.00">+ getTotalCrew()</text>
<text text-anchor="start" x="474.5" y="-244.5" font-family="Helvetica,sans-Serif" font-size="10.00">+ addCrew()</text>
<text text-anchor="start" x="474.5" y="-233.5" font-family="Helvetica,sans-Serif" font-size="10.00">+ getCrew()</text>
<text text-anchor="start" x="474.5" y="-222.5" font-family="Helvetica,sans-Serif" font-size="10.00">+ getMarines()</text>
<text text-anchor="start" x="474.5" y="-211.5" font-family="Helvetica,sans-Serif" font-size="10.00">and 49 more...</text>
</a>
</g>
</g>
<!-- Node5&#45;&gt;Node1 -->
<g id="edge4" class="edge">
<title>Node5&#45;&gt;Node1</title>
<path fill="none" stroke="#404040" d="M556.72,-204.24C561.52,-193.55 567.66,-183.44 575.5,-175 605.86,-142.33 648.71,-120.7 690.15,-106.44"/>
<polygon fill="none" stroke="#404040" points="690.39,-106.36 694.84,-100.68 701.79,-102.6 697.34,-108.28 690.39,-106.36"/>
<text text-anchor="middle" x="605" y="-178" font-family="Helvetica,sans-Serif" font-size="10.00"> #playerCargo</text>
</g>
<!-- Node6 -->
<g id="node6" class="node">
<title>Node6</title>
<g id="a_node6"><a xlink:href="../../dd/d35/interfacecom_1_1fs_1_1starfarer_1_1api_1_1campaign_1_1FactionAPI.html" target="_top" xlink:title=" ">
<polygon fill="none" stroke="black" points="506.5,-401.5 506.5,-579.5 652.5,-579.5 652.5,-401.5 506.5,-401.5"/>
<text text-anchor="start" x="514.5" y="-567.5" font-family="Helvetica,sans-Serif" font-size="10.00">com.fs.starfarer.api.campaign.</text>
<text text-anchor="middle" x="579.5" y="-556.5" font-family="Helvetica,sans-Serif" font-size="10.00">FactionAPI</text>
<polyline fill="none" stroke="black" points="506.5,-549.5 652.5,-549.5 "/>
<text text-anchor="middle" x="579.5" y="-537.5" font-family="Helvetica,sans-Serif" font-size="10.00"> </text>
<polyline fill="none" stroke="black" points="506.5,-530.5 652.5,-530.5 "/>
<text text-anchor="start" x="514.5" y="-518.5" font-family="Helvetica,sans-Serif" font-size="10.00">+ adjustRelationship()</text>
<text text-anchor="start" x="514.5" y="-507.5" font-family="Helvetica,sans-Serif" font-size="10.00">+ adjustRelationship()</text>
<text text-anchor="start" x="514.5" y="-496.5" font-family="Helvetica,sans-Serif" font-size="10.00">+ setRelationship()</text>
<text text-anchor="start" x="514.5" y="-485.5" font-family="Helvetica,sans-Serif" font-size="10.00">+ setRelationship()</text>
<text text-anchor="start" x="514.5" y="-474.5" font-family="Helvetica,sans-Serif" font-size="10.00">+ ensureAtBest()</text>
<text text-anchor="start" x="514.5" y="-463.5" font-family="Helvetica,sans-Serif" font-size="10.00">+ ensureAtWorst()</text>
<text text-anchor="start" x="514.5" y="-452.5" font-family="Helvetica,sans-Serif" font-size="10.00">+ getRelationshipLevel()</text>
<text text-anchor="start" x="514.5" y="-441.5" font-family="Helvetica,sans-Serif" font-size="10.00">+ getRelationshipLevel()</text>
<text text-anchor="start" x="514.5" y="-430.5" font-family="Helvetica,sans-Serif" font-size="10.00">+ isAtWorst()</text>
<text text-anchor="start" x="514.5" y="-419.5" font-family="Helvetica,sans-Serif" font-size="10.00">+ isAtWorst()</text>
<text text-anchor="start" x="514.5" y="-408.5" font-family="Helvetica,sans-Serif" font-size="10.00">and 149 more...</text>
</a>
</g>
</g>
<!-- Node6&#45;&gt;Node1 -->
<g id="edge5" class="edge">
<title>Node6&#45;&gt;Node1</title>
<path fill="none" stroke="#404040" d="M615.19,-401.47C617.41,-395.25 619.54,-389.05 621.5,-383 646.84,-304.87 623.09,-273.1 667.5,-204 676.4,-190.15 687.36,-177.13 699.29,-165.11"/>
<polygon fill="none" stroke="#404040" points="699.52,-164.88 701.05,-157.84 708.14,-156.53 706.61,-163.58 699.52,-164.88"/>
<text text-anchor="middle" x="699.5" y="-302" font-family="Helvetica,sans-Serif" font-size="10.00"> #entityFaction</text>
<text text-anchor="middle" x="699.5" y="-291" font-family="Helvetica,sans-Serif" font-size="10.00">#faction</text>
<text text-anchor="middle" x="699.5" y="-280" font-family="Helvetica,sans-Serif" font-size="10.00">#playerFaction</text>
</g>
<!-- Node7 -->
<g id="node7" class="node">
<title>Node7</title>
<g id="a_node7"><a xlink:href="../../de/da5/interfacecom_1_1fs_1_1starfarer_1_1api_1_1campaign_1_1rules_1_1HasMemory.html" target="_top" xlink:title=" ">
<polygon fill="none" stroke="black" points="636,-814.5 636,-893.5 805,-893.5 805,-814.5 636,-814.5"/>
<text text-anchor="start" x="644" y="-881.5" font-family="Helvetica,sans-Serif" font-size="10.00">com.fs.starfarer.api.campaign.rules.</text>
<text text-anchor="middle" x="720.5" y="-870.5" font-family="Helvetica,sans-Serif" font-size="10.00">HasMemory</text>
<polyline fill="none" stroke="black" points="636,-863.5 805,-863.5 "/>
<text text-anchor="middle" x="720.5" y="-851.5" font-family="Helvetica,sans-Serif" font-size="10.00"> </text>
<polyline fill="none" stroke="black" points="636,-844.5 805,-844.5 "/>
<text text-anchor="start" x="644" y="-832.5" font-family="Helvetica,sans-Serif" font-size="10.00">+ getMemory()</text>
<text text-anchor="start" x="644" y="-821.5" font-family="Helvetica,sans-Serif" font-size="10.00">+ getMemoryWithoutUpdate()</text>
</a>
</g>
</g>
<!-- Node7&#45;&gt;Node6 -->
<g id="edge6" class="edge">
<title>Node7&#45;&gt;Node6</title>
<path fill="none" stroke="midnightblue" d="M701.68,-804.76C679.3,-747.36 641.48,-650.4 613.83,-579.52"/>
<polygon fill="none" stroke="midnightblue" points="698.52,-806.27 705.41,-814.31 705.04,-803.72 698.52,-806.27"/>
</g>
<!-- Node8 -->
<g id="node8" class="node">
<title>Node8</title>
<g id="a_node8"><a xlink:href="../../d6/de1/interfacecom_1_1fs_1_1starfarer_1_1api_1_1campaign_1_1SectorEntityToken.html" target="_top" xlink:title=" ">
<polygon fill="none" stroke="black" points="748.5,-598.5 748.5,-776.5 894.5,-776.5 894.5,-598.5 748.5,-598.5"/>
<text text-anchor="start" x="756.5" y="-764.5" font-family="Helvetica,sans-Serif" font-size="10.00">com.fs.starfarer.api.campaign.</text>
<text text-anchor="middle" x="821.5" y="-753.5" font-family="Helvetica,sans-Serif" font-size="10.00">SectorEntityToken</text>
<polyline fill="none" stroke="black" points="748.5,-746.5 894.5,-746.5 "/>
<text text-anchor="middle" x="821.5" y="-734.5" font-family="Helvetica,sans-Serif" font-size="10.00"> </text>
<polyline fill="none" stroke="black" points="748.5,-727.5 894.5,-727.5 "/>
<text text-anchor="start" x="756.5" y="-715.5" font-family="Helvetica,sans-Serif" font-size="10.00">+ isPlayerFleet()</text>
<text text-anchor="start" x="756.5" y="-704.5" font-family="Helvetica,sans-Serif" font-size="10.00">+ getMarket()</text>
<text text-anchor="start" x="756.5" y="-693.5" font-family="Helvetica,sans-Serif" font-size="10.00">+ setMarket()</text>
<text text-anchor="start" x="756.5" y="-682.5" font-family="Helvetica,sans-Serif" font-size="10.00">+ getCargo()</text>
<text text-anchor="start" x="756.5" y="-671.5" font-family="Helvetica,sans-Serif" font-size="10.00">+ getLocation()</text>
<text text-anchor="start" x="756.5" y="-660.5" font-family="Helvetica,sans-Serif" font-size="10.00">+ getLocationInHyperspace()</text>
<text text-anchor="start" x="756.5" y="-649.5" font-family="Helvetica,sans-Serif" font-size="10.00">+ getOrbit()</text>
<text text-anchor="start" x="756.5" y="-638.5" font-family="Helvetica,sans-Serif" font-size="10.00">+ setOrbit()</text>
<text text-anchor="start" x="756.5" y="-627.5" font-family="Helvetica,sans-Serif" font-size="10.00">+ getId()</text>
<text text-anchor="start" x="756.5" y="-616.5" font-family="Helvetica,sans-Serif" font-size="10.00">+ getName()</text>
<text text-anchor="start" x="756.5" y="-605.5" font-family="Helvetica,sans-Serif" font-size="10.00">and 115 more...</text>
</a>
</g>
</g>
<!-- Node7&#45;&gt;Node8 -->
<g id="edge8" class="edge">
<title>Node7&#45;&gt;Node8</title>
<path fill="none" stroke="midnightblue" d="M749.47,-805.82C755.14,-796.59 761.25,-786.63 767.44,-776.55"/>
<polygon fill="none" stroke="midnightblue" points="746.43,-804.08 744.18,-814.43 752.4,-807.74 746.43,-804.08"/>
</g>
<!-- Node15 -->
<g id="node15" class="node">
<title>Node15</title>
<g id="a_node15"><a xlink:href="../../d9/df0/interfacecom_1_1fs_1_1starfarer_1_1api_1_1characters_1_1PersonAPI.html" target="_top" xlink:title=" ">
<polygon fill="none" stroke="black" points="658,-401.5 658,-579.5 807,-579.5 807,-401.5 658,-401.5"/>
<text text-anchor="start" x="666" y="-567.5" font-family="Helvetica,sans-Serif" font-size="10.00">com.fs.starfarer.api.characters.</text>
<text text-anchor="middle" x="732.5" y="-556.5" font-family="Helvetica,sans-Serif" font-size="10.00">PersonAPI</text>
<polyline fill="none" stroke="black" points="658,-549.5 807,-549.5 "/>
<text text-anchor="middle" x="732.5" y="-537.5" font-family="Helvetica,sans-Serif" font-size="10.00"> </text>
<polyline fill="none" stroke="black" points="658,-530.5 807,-530.5 "/>
<text text-anchor="start" x="666" y="-518.5" font-family="Helvetica,sans-Serif" font-size="10.00">+ setPersonality()</text>
<text text-anchor="start" x="666" y="-507.5" font-family="Helvetica,sans-Serif" font-size="10.00">+ getStats()</text>
<text text-anchor="start" x="666" y="-496.5" font-family="Helvetica,sans-Serif" font-size="10.00">+ getRank()</text>
<text text-anchor="start" x="666" y="-485.5" font-family="Helvetica,sans-Serif" font-size="10.00">+ getRankArticle()</text>
<text text-anchor="start" x="666" y="-474.5" font-family="Helvetica,sans-Serif" font-size="10.00">+ getRankId()</text>
<text text-anchor="start" x="666" y="-463.5" font-family="Helvetica,sans-Serif" font-size="10.00">+ setRankId()</text>
<text text-anchor="start" x="666" y="-452.5" font-family="Helvetica,sans-Serif" font-size="10.00">+ getPost()</text>
<text text-anchor="start" x="666" y="-441.5" font-family="Helvetica,sans-Serif" font-size="10.00">+ getPostArticle()</text>
<text text-anchor="start" x="666" y="-430.5" font-family="Helvetica,sans-Serif" font-size="10.00">+ setPostId()</text>
<text text-anchor="start" x="666" y="-419.5" font-family="Helvetica,sans-Serif" font-size="10.00">+ getPostId()</text>
<text text-anchor="start" x="666" y="-408.5" font-family="Helvetica,sans-Serif" font-size="10.00">and 49 more...</text>
</a>
</g>
</g>
<!-- Node7&#45;&gt;Node15 -->
<g id="edge17" class="edge">
<title>Node7&#45;&gt;Node15</title>
<path fill="none" stroke="midnightblue" d="M722.12,-804.05C724.03,-746.56 727.24,-650.1 729.58,-579.52"/>
<polygon fill="none" stroke="midnightblue" points="718.62,-804.2 721.78,-814.31 725.61,-804.43 718.62,-804.2"/>
</g>
<!-- Node8&#45;&gt;Node1 -->
<g id="edge7" class="edge">
<title>Node8&#45;&gt;Node1</title>
<path fill="none" stroke="#404040" d="M821.5,-598.24C821.5,-483.55 821.5,-284.39 821.5,-169.07"/>
<polygon fill="none" stroke="#404040" points="821.5,-168.8 817.5,-162.8 821.5,-156.8 825.5,-162.8 821.5,-168.8"/>
<text text-anchor="middle" x="837" y="-291" font-family="Helvetica,sans-Serif" font-size="10.00"> #entity</text>
</g>
<!-- Node9 -->
<g id="node9" class="node">
<title>Node9</title>
<g id="a_node9"><a xlink:href="../../db/d56/interfacecom_1_1fs_1_1starfarer_1_1api_1_1campaign_1_1CampaignFleetAPI.html" target="_top" xlink:title=" ">
<polygon fill="none" stroke="black" points="870.5,-204.5 870.5,-382.5 1016.5,-382.5 1016.5,-204.5 870.5,-204.5"/>
<text text-anchor="start" x="878.5" y="-370.5" font-family="Helvetica,sans-Serif" font-size="10.00">com.fs.starfarer.api.campaign.</text>
<text text-anchor="middle" x="943.5" y="-359.5" font-family="Helvetica,sans-Serif" font-size="10.00">CampaignFleetAPI</text>
<polyline fill="none" stroke="black" points="870.5,-352.5 1016.5,-352.5 "/>
<text text-anchor="middle" x="943.5" y="-340.5" font-family="Helvetica,sans-Serif" font-size="10.00"> </text>
<polyline fill="none" stroke="black" points="870.5,-333.5 1016.5,-333.5 "/>
<text text-anchor="start" x="878.5" y="-321.5" font-family="Helvetica,sans-Serif" font-size="10.00">+ isInCurrentLocation()</text>
<text text-anchor="start" x="878.5" y="-310.5" font-family="Helvetica,sans-Serif" font-size="10.00">+ isInHyperspace()</text>
<text text-anchor="start" x="878.5" y="-299.5" font-family="Helvetica,sans-Serif" font-size="10.00">+ setLocation()</text>
<text text-anchor="start" x="878.5" y="-288.5" font-family="Helvetica,sans-Serif" font-size="10.00">+ despawn()</text>
<text text-anchor="start" x="878.5" y="-277.5" font-family="Helvetica,sans-Serif" font-size="10.00">+ despawn()</text>
<text text-anchor="start" x="878.5" y="-266.5" font-family="Helvetica,sans-Serif" font-size="10.00">+ addAssignment()</text>
<text text-anchor="start" x="878.5" y="-255.5" font-family="Helvetica,sans-Serif" font-size="10.00">+ addAssignment()</text>
<text text-anchor="start" x="878.5" y="-244.5" font-family="Helvetica,sans-Serif" font-size="10.00">+ addAssignment()</text>
<text text-anchor="start" x="878.5" y="-233.5" font-family="Helvetica,sans-Serif" font-size="10.00">+ addAssignment()</text>
<text text-anchor="start" x="878.5" y="-222.5" font-family="Helvetica,sans-Serif" font-size="10.00">+ clearAssignments()</text>
<text text-anchor="start" x="878.5" y="-211.5" font-family="Helvetica,sans-Serif" font-size="10.00">and 92 more...</text>
</a>
</g>
</g>
<!-- Node8&#45;&gt;Node9 -->
<g id="edge10" class="edge">
<title>Node8&#45;&gt;Node9</title>
<path fill="none" stroke="midnightblue" d="M852.01,-588.46C871.68,-525.26 897.04,-443.78 916.07,-382.64"/>
<polygon fill="none" stroke="midnightblue" points="848.66,-587.45 849.03,-598.04 855.34,-589.53 848.66,-587.45"/>
</g>
<!-- Node9&#45;&gt;Node1 -->
<g id="edge9" class="edge">
<title>Node9&#45;&gt;Node1</title>
<path fill="none" stroke="#404040" d="M893,-204.33C886,-192.11 878.81,-179.56 871.82,-167.35"/>
<polygon fill="none" stroke="#404040" points="871.7,-167.14 865.25,-163.92 865.73,-156.73 872.19,-159.95 871.7,-167.14"/>
<text text-anchor="middle" x="910" y="-178" font-family="Helvetica,sans-Serif" font-size="10.00"> #playerFleet</text>
</g>
<!-- Node10 -->
<g id="node10" class="node">
<title>Node10</title>
<g id="a_node10"><a xlink:href="../../da/db1/interfacecom_1_1fs_1_1starfarer_1_1api_1_1campaign_1_1FleetOrStubAPI.html" target="_top" xlink:title=" ">
<polygon fill="none" stroke="black" points="912.5,-598.5 912.5,-776.5 1058.5,-776.5 1058.5,-598.5 912.5,-598.5"/>
<text text-anchor="start" x="920.5" y="-764.5" font-family="Helvetica,sans-Serif" font-size="10.00">com.fs.starfarer.api.campaign.</text>
<text text-anchor="middle" x="985.5" y="-753.5" font-family="Helvetica,sans-Serif" font-size="10.00">FleetOrStubAPI</text>
<polyline fill="none" stroke="black" points="912.5,-746.5 1058.5,-746.5 "/>
<text text-anchor="middle" x="985.5" y="-734.5" font-family="Helvetica,sans-Serif" font-size="10.00"> </text>
<polyline fill="none" stroke="black" points="912.5,-727.5 1058.5,-727.5 "/>
<text text-anchor="start" x="920.5" y="-715.5" font-family="Helvetica,sans-Serif" font-size="10.00">+ getId()</text>
<text text-anchor="start" x="920.5" y="-704.5" font-family="Helvetica,sans-Serif" font-size="10.00">+ getContainingLocation()</text>
<text text-anchor="start" x="920.5" y="-693.5" font-family="Helvetica,sans-Serif" font-size="10.00">+ getLocation()</text>
<text text-anchor="start" x="920.5" y="-682.5" font-family="Helvetica,sans-Serif" font-size="10.00">+ getCurrentAssignment()</text>
<text text-anchor="start" x="920.5" y="-671.5" font-family="Helvetica,sans-Serif" font-size="10.00">+ getAssignmentsCopy()</text>
<text text-anchor="start" x="920.5" y="-660.5" font-family="Helvetica,sans-Serif" font-size="10.00">+ addAssignment()</text>
<text text-anchor="start" x="920.5" y="-649.5" font-family="Helvetica,sans-Serif" font-size="10.00">+ addAssignment()</text>
<text text-anchor="start" x="920.5" y="-638.5" font-family="Helvetica,sans-Serif" font-size="10.00">+ addAssignment()</text>
<text text-anchor="start" x="920.5" y="-627.5" font-family="Helvetica,sans-Serif" font-size="10.00">+ addAssignmentAtStart()</text>
<text text-anchor="start" x="920.5" y="-616.5" font-family="Helvetica,sans-Serif" font-size="10.00">+ addAssignmentAtStart()</text>
<text text-anchor="start" x="920.5" y="-605.5" font-family="Helvetica,sans-Serif" font-size="10.00">and 15 more...</text>
</a>
</g>
</g>
<!-- Node10&#45;&gt;Node9 -->
<g id="edge11" class="edge">
<title>Node10&#45;&gt;Node9</title>
<path fill="none" stroke="midnightblue" d="M974.95,-588.07C968.19,-524.93 959.48,-443.66 952.94,-382.64"/>
<polygon fill="none" stroke="midnightblue" points="971.48,-588.47 976.02,-598.04 978.44,-587.72 971.48,-588.47"/>
</g>
<!-- Node11 -->
<g id="node11" class="node">
<title>Node11</title>
<g id="a_node11"><a xlink:href="../../da/d65/interfacecom_1_1fs_1_1starfarer_1_1api_1_1campaign_1_1OptionPanelAPI.html" target="_top" xlink:title=" ">
<polygon fill="none" stroke="black" points="1034.5,-204.5 1034.5,-382.5 1180.5,-382.5 1180.5,-204.5 1034.5,-204.5"/>
<text text-anchor="start" x="1042.5" y="-370.5" font-family="Helvetica,sans-Serif" font-size="10.00">com.fs.starfarer.api.campaign.</text>
<text text-anchor="middle" x="1107.5" y="-359.5" font-family="Helvetica,sans-Serif" font-size="10.00">OptionPanelAPI</text>
<polyline fill="none" stroke="black" points="1034.5,-352.5 1180.5,-352.5 "/>
<text text-anchor="middle" x="1107.5" y="-340.5" font-family="Helvetica,sans-Serif" font-size="10.00"> </text>
<polyline fill="none" stroke="black" points="1034.5,-333.5 1180.5,-333.5 "/>
<text text-anchor="start" x="1042.5" y="-321.5" font-family="Helvetica,sans-Serif" font-size="10.00">+ setTooltipHighlights()</text>
<text text-anchor="start" x="1042.5" y="-310.5" font-family="Helvetica,sans-Serif" font-size="10.00">+ setTooltipHighlightColors()</text>
<text text-anchor="start" x="1042.5" y="-299.5" font-family="Helvetica,sans-Serif" font-size="10.00">+ clearOptions()</text>
<text text-anchor="start" x="1042.5" y="-288.5" font-family="Helvetica,sans-Serif" font-size="10.00">+ addOption()</text>
<text text-anchor="start" x="1042.5" y="-277.5" font-family="Helvetica,sans-Serif" font-size="10.00">+ addOption()</text>
<text text-anchor="start" x="1042.5" y="-266.5" font-family="Helvetica,sans-Serif" font-size="10.00">+ addOption()</text>
<text text-anchor="start" x="1042.5" y="-255.5" font-family="Helvetica,sans-Serif" font-size="10.00">+ setShortcut()</text>
<text text-anchor="start" x="1042.5" y="-244.5" font-family="Helvetica,sans-Serif" font-size="10.00">+ setEnabled()</text>
<text text-anchor="start" x="1042.5" y="-233.5" font-family="Helvetica,sans-Serif" font-size="10.00">+ setTooltip()</text>
<text text-anchor="start" x="1042.5" y="-222.5" font-family="Helvetica,sans-Serif" font-size="10.00">+ addSelector()</text>
<text text-anchor="start" x="1042.5" y="-211.5" font-family="Helvetica,sans-Serif" font-size="10.00">and 16 more...</text>
</a>
</g>
</g>
<!-- Node11&#45;&gt;Node1 -->
<g id="edge12" class="edge">
<title>Node11&#45;&gt;Node1</title>
<path fill="none" stroke="#404040" d="M1034.23,-211.44C1031.33,-208.88 1028.42,-206.39 1025.5,-204 1002.78,-185.41 977.04,-167.59 951.68,-151.53"/>
<polygon fill="none" stroke="#404040" points="951.4,-151.35 944.19,-151.56 941.22,-144.99 948.43,-144.78 951.4,-151.35"/>
<text text-anchor="middle" x="1020.5" y="-178" font-family="Helvetica,sans-Serif" font-size="10.00"> #options</text>
</g>
<!-- Node12 -->
<g id="node12" class="node">
<title>Node12</title>
<g id="a_node12"><a xlink:href="../../d0/de7/interfacecom_1_1fs_1_1starfarer_1_1api_1_1campaign_1_1rules_1_1MemoryAPI.html" target="_top" xlink:title=" ">
<polygon fill="none" stroke="black" points="1199,-204.5 1199,-382.5 1368,-382.5 1368,-204.5 1199,-204.5"/>
<text text-anchor="start" x="1207" y="-370.5" font-family="Helvetica,sans-Serif" font-size="10.00">com.fs.starfarer.api.campaign.rules.</text>
<text text-anchor="middle" x="1283.5" y="-359.5" font-family="Helvetica,sans-Serif" font-size="10.00">MemoryAPI</text>
<polyline fill="none" stroke="black" points="1199,-352.5 1368,-352.5 "/>
<text text-anchor="middle" x="1283.5" y="-340.5" font-family="Helvetica,sans-Serif" font-size="10.00"> </text>
<polyline fill="none" stroke="black" points="1199,-333.5 1368,-333.5 "/>
<text text-anchor="start" x="1207" y="-321.5" font-family="Helvetica,sans-Serif" font-size="10.00">+ unset()</text>
<text text-anchor="start" x="1207" y="-310.5" font-family="Helvetica,sans-Serif" font-size="10.00">+ expire()</text>
<text text-anchor="start" x="1207" y="-299.5" font-family="Helvetica,sans-Serif" font-size="10.00">+ contains()</text>
<text text-anchor="start" x="1207" y="-288.5" font-family="Helvetica,sans-Serif" font-size="10.00">+ is()</text>
<text text-anchor="start" x="1207" y="-277.5" font-family="Helvetica,sans-Serif" font-size="10.00">+ is()</text>
<text text-anchor="start" x="1207" y="-266.5" font-family="Helvetica,sans-Serif" font-size="10.00">+ is()</text>
<text text-anchor="start" x="1207" y="-255.5" font-family="Helvetica,sans-Serif" font-size="10.00">+ set()</text>
<text text-anchor="start" x="1207" y="-244.5" font-family="Helvetica,sans-Serif" font-size="10.00">+ set()</text>
<text text-anchor="start" x="1207" y="-233.5" font-family="Helvetica,sans-Serif" font-size="10.00">+ get()</text>
<text text-anchor="start" x="1207" y="-222.5" font-family="Helvetica,sans-Serif" font-size="10.00">+ getString()</text>
<text text-anchor="start" x="1207" y="-211.5" font-family="Helvetica,sans-Serif" font-size="10.00">and 17 more...</text>
</a>
</g>
</g>
<!-- Node12&#45;&gt;Node1 -->
<g id="edge13" class="edge">
<title>Node12&#45;&gt;Node1</title>
<path fill="none" stroke="#404040" d="M1198.95,-210.05C1195.82,-207.93 1192.67,-205.9 1189.5,-204 1116.51,-160.18 1026.04,-129.3 953.06,-109.26"/>
<polygon fill="none" stroke="#404040" points="952.63,-109.14 945.79,-111.44 941.04,-106.01 947.88,-103.72 952.63,-109.14"/>
<text text-anchor="middle" x="1174" y="-178" font-family="Helvetica,sans-Serif" font-size="10.00"> #memory</text>
</g>
<!-- Node13 -->
<g id="node13" class="node">
<title>Node13</title>
<g id="a_node13"><a xlink:href="../../d4/ddc/interfacecom_1_1fs_1_1starfarer_1_1api_1_1campaign_1_1TextPanelAPI.html" target="_top" xlink:title=" ">
<polygon fill="none" stroke="black" points="1386.5,-204.5 1386.5,-382.5 1532.5,-382.5 1532.5,-204.5 1386.5,-204.5"/>
<text text-anchor="start" x="1394.5" y="-370.5" font-family="Helvetica,sans-Serif" font-size="10.00">com.fs.starfarer.api.campaign.</text>
<text text-anchor="middle" x="1459.5" y="-359.5" font-family="Helvetica,sans-Serif" font-size="10.00">TextPanelAPI</text>
<polyline fill="none" stroke="black" points="1386.5,-352.5 1532.5,-352.5 "/>
<text text-anchor="middle" x="1459.5" y="-340.5" font-family="Helvetica,sans-Serif" font-size="10.00"> </text>
<polyline fill="none" stroke="black" points="1386.5,-333.5 1532.5,-333.5 "/>
<text text-anchor="start" x="1394.5" y="-321.5" font-family="Helvetica,sans-Serif" font-size="10.00">+ setFontInsignia()</text>
<text text-anchor="start" x="1394.5" y="-310.5" font-family="Helvetica,sans-Serif" font-size="10.00">+ setFontOrbitron()</text>
<text text-anchor="start" x="1394.5" y="-299.5" font-family="Helvetica,sans-Serif" font-size="10.00">+ setFontVictor()</text>
<text text-anchor="start" x="1394.5" y="-288.5" font-family="Helvetica,sans-Serif" font-size="10.00">+ setFontSmallInsignia()</text>
<text text-anchor="start" x="1394.5" y="-277.5" font-family="Helvetica,sans-Serif" font-size="10.00">+ addPara()</text>
<text text-anchor="start" x="1394.5" y="-266.5" font-family="Helvetica,sans-Serif" font-size="10.00">+ addPara()</text>
<text text-anchor="start" x="1394.5" y="-255.5" font-family="Helvetica,sans-Serif" font-size="10.00">+ addParagraph()</text>
<text text-anchor="start" x="1394.5" y="-244.5" font-family="Helvetica,sans-Serif" font-size="10.00">+ addParagraph()</text>
<text text-anchor="start" x="1394.5" y="-233.5" font-family="Helvetica,sans-Serif" font-size="10.00">+ replaceLastParagraph()</text>
<text text-anchor="start" x="1394.5" y="-222.5" font-family="Helvetica,sans-Serif" font-size="10.00">+ replaceLastParagraph()</text>
<text text-anchor="start" x="1394.5" y="-211.5" font-family="Helvetica,sans-Serif" font-size="10.00">and 25 more...</text>
</a>
</g>
</g>
<!-- Node13&#45;&gt;Node1 -->
<g id="edge14" class="edge">
<title>Node13&#45;&gt;Node1</title>
<path fill="none" stroke="#404040" d="M1386.34,-209.58C1383.45,-207.59 1380.5,-205.72 1377.5,-204 1245.48,-128.08 1071.15,-98.44 953.16,-86.88"/>
<polygon fill="none" stroke="#404040" points="953.15,-86.88 946.8,-90.3 941.2,-85.76 947.55,-82.34 953.15,-86.88"/>
<text text-anchor="middle" x="1348.5" y="-178" font-family="Helvetica,sans-Serif" font-size="10.00"> #text</text>
</g>
<!-- Node14 -->
<g id="node14" class="node">
<title>Node14</title>
<g id="a_node14"><a xlink:href="../../da/d82/interfacecom_1_1fs_1_1starfarer_1_1api_1_1campaign_1_1InteractionDialogAPI.html" target="_top" xlink:title=" ">
<polygon fill="none" stroke="black" points="1550.5,-204.5 1550.5,-382.5 1696.5,-382.5 1696.5,-204.5 1550.5,-204.5"/>
<text text-anchor="start" x="1558.5" y="-370.5" font-family="Helvetica,sans-Serif" font-size="10.00">com.fs.starfarer.api.campaign.</text>
<text text-anchor="middle" x="1623.5" y="-359.5" font-family="Helvetica,sans-Serif" font-size="10.00">InteractionDialogAPI</text>
<polyline fill="none" stroke="black" points="1550.5,-352.5 1696.5,-352.5 "/>
<text text-anchor="middle" x="1623.5" y="-340.5" font-family="Helvetica,sans-Serif" font-size="10.00"> </text>
<polyline fill="none" stroke="black" points="1550.5,-333.5 1696.5,-333.5 "/>
<text text-anchor="start" x="1558.5" y="-321.5" font-family="Helvetica,sans-Serif" font-size="10.00">+ setTextWidth()</text>
<text text-anchor="start" x="1558.5" y="-310.5" font-family="Helvetica,sans-Serif" font-size="10.00">+ setTextHeight()</text>
<text text-anchor="start" x="1558.5" y="-299.5" font-family="Helvetica,sans-Serif" font-size="10.00">+ setXOffset()</text>
<text text-anchor="start" x="1558.5" y="-288.5" font-family="Helvetica,sans-Serif" font-size="10.00">+ setYOffset()</text>
<text text-anchor="start" x="1558.5" y="-277.5" font-family="Helvetica,sans-Serif" font-size="10.00">+ setPromptText()</text>
<text text-anchor="start" x="1558.5" y="-266.5" font-family="Helvetica,sans-Serif" font-size="10.00">+ hideTextPanel()</text>
<text text-anchor="start" x="1558.5" y="-255.5" font-family="Helvetica,sans-Serif" font-size="10.00">+ showTextPanel()</text>
<text text-anchor="start" x="1558.5" y="-244.5" font-family="Helvetica,sans-Serif" font-size="10.00">+ getTextWidth()</text>
<text text-anchor="start" x="1558.5" y="-233.5" font-family="Helvetica,sans-Serif" font-size="10.00">+ getTextHeight()</text>
<text text-anchor="start" x="1558.5" y="-222.5" font-family="Helvetica,sans-Serif" font-size="10.00">+ getXOffset()</text>
<text text-anchor="start" x="1558.5" y="-211.5" font-family="Helvetica,sans-Serif" font-size="10.00">and 37 more...</text>
</a>
</g>
</g>
<!-- Node14&#45;&gt;Node1 -->
<g id="edge15" class="edge">
<title>Node14&#45;&gt;Node1</title>
<path fill="none" stroke="#404040" d="M1550.45,-209.39C1547.52,-207.45 1544.54,-205.65 1541.5,-204 1442.19,-150.09 1132.4,-110.92 953.19,-92.08"/>
<polygon fill="none" stroke="#404040" points="952.98,-92.06 946.6,-95.41 941.04,-90.81 947.42,-87.46 952.98,-92.06"/>
<text text-anchor="middle" x="1515.5" y="-178" font-family="Helvetica,sans-Serif" font-size="10.00"> #dialog</text>
</g>
<!-- Node15&#45;&gt;Node1 -->
<g id="edge16" class="edge">
<title>Node15&#45;&gt;Node1</title>
<path fill="none" stroke="#404040" d="M734.12,-401.23C737.03,-344.07 744.39,-268.54 762.5,-204 765.86,-192.05 770.28,-179.82 775.19,-167.93"/>
<polygon fill="none" stroke="#404040" points="775.3,-167.67 773.99,-160.58 780.04,-156.64 781.34,-163.73 775.3,-167.67"/>
<text text-anchor="middle" x="781" y="-291" font-family="Helvetica,sans-Serif" font-size="10.00"> #person</text>
</g>
</g>
</svg>
        <g id="navigator" transform="translate(0 0)" fill="#404254">
                <rect fill="#f2f5e9" fill-opacity="0.5" stroke="#606060" stroke-width=".5" x="0" y="0" width="60" height="60"/>
                <use id="zoomplus" xlink:href="#zoomPlus" x="17" y="9" onmousedown="handleZoom(evt,'in')"/>
                <use id="zoomminus" xlink:href="#zoomMin" x="42" y="9" onmousedown="handleZoom(evt,'out')"/>
                <use id="reset" xlink:href="#resetDef" x="30" y="36" onmousedown="handleReset()"/>
                <g id="arrowUp" xlink:href="#dirArrow" transform="translate(30 24)" onmousedown="handlePan(0,-1)">
                  <use xlink:href="#rim" fill="#404040">
                        <set attributeName="fill" to="#808080" begin="arrowUp.mouseover" end="arrowUp.mouseout"/>
                  </use>
                  <path fill="none" stroke="white" stroke-width="1.5" d="M0,-3.0v7 M-2.5,-0.5L0,-3.0L2.5,-0.5"/>
                </g>
                <g id="arrowRight" xlink:href="#dirArrow" transform="rotate(90) translate(36 -43)" onmousedown="handlePan(1,0)">
                  <use xlink:href="#rim" fill="#404040">
                        <set attributeName="fill" to="#808080" begin="arrowRight.mouseover" end="arrowRight.mouseout"/>
                  </use>
                  <path fill="none" stroke="white" stroke-width="1.5" d="M0,-3.0v7 M-2.5,-0.5L0,-3.0L2.5,-0.5"/>
                </g>
                <g id="arrowDown" xlink:href="#dirArrow" transform="rotate(180) translate(-30 -48)" onmousedown="handlePan(0,1)">
                  <use xlink:href="#rim" fill="#404040">
                        <set attributeName="fill" to="#808080" begin="arrowDown.mouseover" end="arrowDown.mouseout"/>
                  </use>
                  <path fill="none" stroke="white" stroke-width="1.5" d="M0,-3.0v7 M-2.5,-0.5L0,-3.0L2.5,-0.5"/>
                </g>
                <g id="arrowLeft" xlink:href="#dirArrow" transform="rotate(270) translate(-36 17)" onmousedown="handlePan(-1,0)">
                  <use xlink:href="#rim" fill="#404040">
                        <set attributeName="fill" to="#808080" begin="arrowLeft.mouseover" end="arrowLeft.mouseout"/>
                  </use>
                  <path fill="none" stroke="white" stroke-width="1.5" d="M0,-3.0v7 M-2.5,-0.5L0,-3.0L2.5,-0.5"/>
                </g>
        </g>
        <svg viewBox="0 0 15 15" width="100%" height="30px" preserveAspectRatio="xMaxYMin meet">
         <g id="arrow_out" transform="scale(0.3 0.3)">
          <a xlink:href="classcom_1_1fs_1_1starfarer_1_1api_1_1impl_1_1campaign_1_1rulecmd_1_1salvage_1_1AICores__coll__graph_org.svg" target="_base">
           <rect id="button" ry="5" rx="5" y="6" x="6" height="38" width="38"
                fill="#f2f5e9" fill-opacity="0.5" stroke="#606060" stroke-width="1.0"/>
           <path id="arrow"
             d="M 11.500037,31.436501 C 11.940474,20.09759 22.043105,11.32322 32.158766,21.979434 L 37.068811,17.246167 C 37.068811,17.246167 37.088388,32 37.088388,32 L 22.160133,31.978069 C 22.160133,31.978069 26.997745,27.140456 26.997745,27.140456 C 18.528582,18.264221 13.291696,25.230495 11.500037,31.436501 z"
             style="fill:#404040;"/>
          </a>
         </g>
        </svg>
</svg>
