<?xml version="1.0" encoding="UTF-8" standalone="no"?>
<!DOCTYPE svg PUBLIC "-//W3C//DTD SVG 1.1//EN"
 "http://www.w3.org/Graphics/SVG/1.1/DTD/svg11.dtd">
<!-- Generated by graphviz version 2.44.0 ()
 -->
<!-- Title: com.fs.starfarer.api.impl.campaign.skills.AuxiliarySupport.Level1 Pages: 1 -->
<!--zoomable 991 -->
<svg id="main" version="1.1" xmlns="http://www.w3.org/2000/svg" xmlns:xlink="http://www.w3.org/1999/xlink" xml:space="preserve" onload="init(evt)">
<style type="text/css"><![CDATA[
.edge:hover path { stroke: red; }
.edge:hover polygon { stroke: red; fill: red; }
]]></style>
<script type="text/javascript"><![CDATA[
var edges = document.getElementsByTagName('g');
if (edges && edges.length) {
  for (var i=0;i<edges.length;i++) {
    if (edges[i].id.substr(0,4)=='edge') {
      edges[i].setAttribute('class','edge');
    }
  }
}
]]></script>
        <defs>
                <circle id="rim" cx="0" cy="0" r="7"/>
                <circle id="rim2" cx="0" cy="0" r="3.5"/>
                <g id="zoomPlus">
                        <use xlink:href="#rim" fill="#404040">
                                <set attributeName="fill" to="#808080" begin="zoomplus.mouseover" end="zoomplus.mouseout"/>
                        </use>
                        <path d="M-4,0h8M0,-4v8" fill="none" stroke="white" stroke-width="1.5" pointer-events="none"/>
                </g>
                <g id="zoomMin">
                        <use xlink:href="#rim" fill="#404040">
                                <set attributeName="fill" to="#808080" begin="zoomminus.mouseover" end="zoomminus.mouseout"/>
                        </use>
                        <path d="M-4,0h8" fill="none" stroke="white" stroke-width="1.5" pointer-events="none"/>
                </g>
                <g id="dirArrow">
                        <path fill="none" stroke="white" stroke-width="1.5" d="M0,-3.0v7 M-2.5,-0.5L0,-3.0L2.5,-0.5"/>
                </g>
               <g id="resetDef">
                       <use xlink:href="#rim2" fill="#404040">
                               <set attributeName="fill" to="#808080" begin="reset.mouseover" end="reset.mouseout"/>
                       </use>
               </g>
        </defs>

<script type="text/javascript">
var viewWidth = 472;
var viewHeight = 991;
var sectionId = 'dynsection-1';
</script>
<script xlink:href="../../svgpan.js"/>
<svg id="graph" class="graph">
<g id="viewport">
<title>com.fs.starfarer.api.impl.campaign.skills.AuxiliarySupport.Level1</title>
<!-- Node1 -->
<g id="node1" class="node">
<title>Node1</title>
<g id="a_node1"><a xlink:title=" ">
<polygon fill="#bfbfbf" stroke="black" points="104,-0.5 104,-112.5 295,-112.5 295,-0.5 104,-0.5"/>
<text text-anchor="start" x="112" y="-100.5" font-family="Helvetica,sans-Serif" font-size="10.00">com.fs.starfarer.api.impl.campaign.skills.</text>
<text text-anchor="middle" x="199.5" y="-89.5" font-family="Helvetica,sans-Serif" font-size="10.00">AuxiliarySupport.Level1</text>
<polyline fill="none" stroke="black" points="104,-82.5 295,-82.5 "/>
<text text-anchor="middle" x="199.5" y="-70.5" font-family="Helvetica,sans-Serif" font-size="10.00"> </text>
<polyline fill="none" stroke="black" points="104,-63.5 295,-63.5 "/>
<text text-anchor="start" x="112" y="-51.5" font-family="Helvetica,sans-Serif" font-size="10.00">+ getFleetTotalItem()</text>
<text text-anchor="start" x="112" y="-40.5" font-family="Helvetica,sans-Serif" font-size="10.00">+ apply()</text>
<text text-anchor="start" x="112" y="-29.5" font-family="Helvetica,sans-Serif" font-size="10.00">+ unapply()</text>
<text text-anchor="start" x="112" y="-18.5" font-family="Helvetica,sans-Serif" font-size="10.00">+ getEffectDescription()</text>
<text text-anchor="start" x="112" y="-7.5" font-family="Helvetica,sans-Serif" font-size="10.00">+ createCustomDescription()</text>
</a>
</g>
</g>
<!-- Node2 -->
<g id="node2" class="node">
<title>Node2</title>
<g id="a_node2"><a xlink:href="../../d4/da1/classcom_1_1fs_1_1starfarer_1_1api_1_1impl_1_1campaign_1_1skills_1_1BaseSkillEffectDescription.html" target="_top" xlink:title=" ">
<polygon fill="none" stroke="black" points="102,-150.5 102,-658.5 297,-658.5 297,-150.5 102,-150.5"/>
<text text-anchor="start" x="110" y="-646.5" font-family="Helvetica,sans-Serif" font-size="10.00">com.fs.starfarer.api.impl.campaign.skills.</text>
<text text-anchor="middle" x="199.5" y="-635.5" font-family="Helvetica,sans-Serif" font-size="10.00">BaseSkillEffectDescription</text>
<polyline fill="none" stroke="black" points="102,-628.5 297,-628.5 "/>
<text text-anchor="start" x="110" y="-616.5" font-family="Helvetica,sans-Serif" font-size="10.00">+ TOOLTIP_WIDTH</text>
<text text-anchor="start" x="110" y="-605.5" font-family="Helvetica,sans-Serif" font-size="10.00">+ FIGHTER_BAYS_THRESHOLD</text>
<text text-anchor="start" x="110" y="-594.5" font-family="Helvetica,sans-Serif" font-size="10.00">+ OP_THRESHOLD</text>
<text text-anchor="start" x="110" y="-583.5" font-family="Helvetica,sans-Serif" font-size="10.00">+ OP_LOW_THRESHOLD</text>
<text text-anchor="start" x="110" y="-572.5" font-family="Helvetica,sans-Serif" font-size="10.00">+ OP_ALL_LOW_THRESHOLD</text>
<text text-anchor="start" x="110" y="-561.5" font-family="Helvetica,sans-Serif" font-size="10.00">+ OP_ALL_THRESHOLD</text>
<text text-anchor="start" x="110" y="-550.5" font-family="Helvetica,sans-Serif" font-size="10.00">+ PHASE_OP_THRESHOLD</text>
<text text-anchor="start" x="110" y="-539.5" font-family="Helvetica,sans-Serif" font-size="10.00">+ MILITARIZED_OP_THRESHOLD</text>
<text text-anchor="start" x="110" y="-528.5" font-family="Helvetica,sans-Serif" font-size="10.00">+ AUTOMATED_POINTS_THRESHOLD</text>
<text text-anchor="start" x="110" y="-517.5" font-family="Helvetica,sans-Serif" font-size="10.00">+ USE_RECOVERY_COST</text>
<text text-anchor="start" x="110" y="-506.5" font-family="Helvetica,sans-Serif" font-size="10.00">+ RECOVERY_COST</text>
<text text-anchor="start" x="110" y="-495.5" font-family="Helvetica,sans-Serif" font-size="10.00"># indent</text>
<text text-anchor="start" x="110" y="-484.5" font-family="Helvetica,sans-Serif" font-size="10.00"># alpha</text>
<polyline fill="none" stroke="black" points="102,-477.5 297,-477.5 "/>
<text text-anchor="start" x="110" y="-465.5" font-family="Helvetica,sans-Serif" font-size="10.00">+ init()</text>
<text text-anchor="start" x="110" y="-454.5" font-family="Helvetica,sans-Serif" font-size="10.00">+ initElite()</text>
<text text-anchor="start" x="110" y="-443.5" font-family="Helvetica,sans-Serif" font-size="10.00">+ addFighterBayThresholdInfo()</text>
<text text-anchor="start" x="110" y="-432.5" font-family="Helvetica,sans-Serif" font-size="10.00">+ addOPThresholdInfo()</text>
<text text-anchor="start" x="110" y="-421.5" font-family="Helvetica,sans-Serif" font-size="10.00">+ addOPThresholdInfo()</text>
<text text-anchor="start" x="110" y="-410.5" font-family="Helvetica,sans-Serif" font-size="10.00">+ addOPThresholdAll()</text>
<text text-anchor="start" x="110" y="-399.5" font-family="Helvetica,sans-Serif" font-size="10.00">+ addPhaseOPThresholdInfo()</text>
<text text-anchor="start" x="110" y="-388.5" font-family="Helvetica,sans-Serif" font-size="10.00">+ addAutomatedThresholdInfo()</text>
<text text-anchor="start" x="110" y="-377.5" font-family="Helvetica,sans-Serif" font-size="10.00">+ addMilitarizedOPThreshold</text>
<text text-anchor="start" x="110" y="-366.5" font-family="Helvetica,sans-Serif" font-size="10.00">Info()</text>
<text text-anchor="start" x="110" y="-355.5" font-family="Helvetica,sans-Serif" font-size="10.00">+ getOPTotal()</text>
<text text-anchor="start" x="110" y="-344.5" font-family="Helvetica,sans-Serif" font-size="10.00">and 13 more...</text>
<text text-anchor="start" x="110" y="-333.5" font-family="Helvetica,sans-Serif" font-size="10.00">+ getValueLabelForMember()</text>
<text text-anchor="start" x="110" y="-322.5" font-family="Helvetica,sans-Serif" font-size="10.00">+ isMilitarized()</text>
<text text-anchor="start" x="110" y="-311.5" font-family="Helvetica,sans-Serif" font-size="10.00">+ isMilitarized()</text>
<text text-anchor="start" x="110" y="-300.5" font-family="Helvetica,sans-Serif" font-size="10.00">+ isCivilian()</text>
<text text-anchor="start" x="110" y="-289.5" font-family="Helvetica,sans-Serif" font-size="10.00">+ isCivilian()</text>
<text text-anchor="start" x="110" y="-278.5" font-family="Helvetica,sans-Serif" font-size="10.00">+ hasFighterBays()</text>
<text text-anchor="start" x="110" y="-267.5" font-family="Helvetica,sans-Serif" font-size="10.00">+ hasFighterBays()</text>
<text text-anchor="start" x="110" y="-256.5" font-family="Helvetica,sans-Serif" font-size="10.00">+ getTotalOP()</text>
<text text-anchor="start" x="110" y="-245.5" font-family="Helvetica,sans-Serif" font-size="10.00">+ getTotalOPDetail()</text>
<text text-anchor="start" x="110" y="-234.5" font-family="Helvetica,sans-Serif" font-size="10.00">+ getTotalCombatOP()</text>
<text text-anchor="start" x="110" y="-223.5" font-family="Helvetica,sans-Serif" font-size="10.00">and 13 more...</text>
<text text-anchor="start" x="110" y="-212.5" font-family="Helvetica,sans-Serif" font-size="10.00">~ [static initializer]()</text>
<text text-anchor="start" x="110" y="-201.5" font-family="Helvetica,sans-Serif" font-size="10.00"># computeAndCacheThreshold</text>
<text text-anchor="start" x="110" y="-190.5" font-family="Helvetica,sans-Serif" font-size="10.00">Bonus()</text>
<text text-anchor="start" x="110" y="-179.5" font-family="Helvetica,sans-Serif" font-size="10.00"># computeAndCacheThreshold</text>
<text text-anchor="start" x="110" y="-168.5" font-family="Helvetica,sans-Serif" font-size="10.00">Bonus()</text>
<text text-anchor="start" x="110" y="-157.5" font-family="Helvetica,sans-Serif" font-size="10.00"># getPoints()</text>
</a>
</g>
</g>
<!-- Node2&#45;&gt;Node1 -->
<g id="edge1" class="edge">
<title>Node2&#45;&gt;Node1</title>
<path fill="none" stroke="midnightblue" d="M199.5,-139.96C199.5,-130.28 199.5,-121.13 199.5,-112.69"/>
<polygon fill="none" stroke="midnightblue" points="196,-140.22 199.5,-150.22 203,-140.22 196,-140.22"/>
</g>
<!-- Node3 -->
<g id="node3" class="node">
<title>Node3</title>
<g id="a_node3"><a xlink:href="../../de/d6e/interfacecom_1_1fs_1_1starfarer_1_1api_1_1characters_1_1CustomSkillDescription.html" target="_top" xlink:title=" ">
<polygon fill="none" stroke="black" points="196,-775.5 196,-854.5 345,-854.5 345,-775.5 196,-775.5"/>
<text text-anchor="start" x="204" y="-842.5" font-family="Helvetica,sans-Serif" font-size="10.00">com.fs.starfarer.api.characters.</text>
<text text-anchor="middle" x="270.5" y="-831.5" font-family="Helvetica,sans-Serif" font-size="10.00">CustomSkillDescription</text>
<polyline fill="none" stroke="black" points="196,-824.5 345,-824.5 "/>
<text text-anchor="middle" x="270.5" y="-812.5" font-family="Helvetica,sans-Serif" font-size="10.00"> </text>
<polyline fill="none" stroke="black" points="196,-805.5 345,-805.5 "/>
<text text-anchor="start" x="204" y="-793.5" font-family="Helvetica,sans-Serif" font-size="10.00">+ hasCustomDescription()</text>
<text text-anchor="start" x="204" y="-782.5" font-family="Helvetica,sans-Serif" font-size="10.00">+ createCustomDescription()</text>
</a>
</g>
</g>
<!-- Node3&#45;&gt;Node2 -->
<g id="edge2" class="edge">
<title>Node3&#45;&gt;Node2</title>
<path fill="none" stroke="midnightblue" d="M262.03,-765.26C257.13,-737.06 250.54,-699.16 243.48,-658.53"/>
<polygon fill="none" stroke="midnightblue" points="258.6,-765.95 263.76,-775.2 265.49,-764.75 258.6,-765.95"/>
</g>
<!-- Node4 -->
<g id="node4" class="node">
<title>Node4</title>
<g id="a_node4"><a xlink:href="../../d6/daf/interfacecom_1_1fs_1_1starfarer_1_1api_1_1characters_1_1LevelBasedEffect.html" target="_top" xlink:title=" ">
<polygon fill="none" stroke="black" points="32,-892.5 32,-982.5 189,-982.5 189,-892.5 32,-892.5"/>
<text text-anchor="start" x="40" y="-970.5" font-family="Helvetica,sans-Serif" font-size="10.00">com.fs.starfarer.api.characters.</text>
<text text-anchor="middle" x="110.5" y="-959.5" font-family="Helvetica,sans-Serif" font-size="10.00">LevelBasedEffect</text>
<polyline fill="none" stroke="black" points="32,-952.5 189,-952.5 "/>
<text text-anchor="middle" x="110.5" y="-940.5" font-family="Helvetica,sans-Serif" font-size="10.00"> </text>
<polyline fill="none" stroke="black" points="32,-933.5 189,-933.5 "/>
<text text-anchor="start" x="40" y="-921.5" font-family="Helvetica,sans-Serif" font-size="10.00">+ getEffectDescription()</text>
<text text-anchor="start" x="40" y="-910.5" font-family="Helvetica,sans-Serif" font-size="10.00">+ getEffectPerLevelDescription()</text>
<text text-anchor="start" x="40" y="-899.5" font-family="Helvetica,sans-Serif" font-size="10.00">+ getScopeDescription()</text>
</a>
</g>
</g>
<!-- Node4&#45;&gt;Node3 -->
<g id="edge3" class="edge">
<title>Node4&#45;&gt;Node3</title>
<path fill="none" stroke="midnightblue" d="M177.34,-886.16C191.34,-875.62 205.9,-864.65 219.23,-854.61"/>
<polygon fill="none" stroke="midnightblue" points="175.05,-883.5 169.17,-892.31 179.26,-889.09 175.05,-883.5"/>
</g>
<!-- Node6 -->
<g id="node6" class="node">
<title>Node6</title>
<g id="a_node6"><a xlink:href="../../d7/d51/interfacecom_1_1fs_1_1starfarer_1_1api_1_1characters_1_1CharacterStatsSkillEffect.html" target="_top" xlink:title=" ">
<polygon fill="none" stroke="black" points="0,-677.5 0,-756.5 149,-756.5 149,-677.5 0,-677.5"/>
<text text-anchor="start" x="8" y="-744.5" font-family="Helvetica,sans-Serif" font-size="10.00">com.fs.starfarer.api.characters.</text>
<text text-anchor="middle" x="74.5" y="-733.5" font-family="Helvetica,sans-Serif" font-size="10.00">CharacterStatsSkillEffect</text>
<polyline fill="none" stroke="black" points="0,-726.5 149,-726.5 "/>
<text text-anchor="middle" x="74.5" y="-714.5" font-family="Helvetica,sans-Serif" font-size="10.00"> </text>
<polyline fill="none" stroke="black" points="0,-707.5 149,-707.5 "/>
<text text-anchor="start" x="8" y="-695.5" font-family="Helvetica,sans-Serif" font-size="10.00">+ apply()</text>
<text text-anchor="start" x="8" y="-684.5" font-family="Helvetica,sans-Serif" font-size="10.00">+ unapply()</text>
</a>
</g>
</g>
<!-- Node4&#45;&gt;Node6 -->
<g id="edge6" class="edge">
<title>Node4&#45;&gt;Node6</title>
<path fill="none" stroke="midnightblue" d="M101.55,-882.15C95.12,-843.14 86.61,-791.52 80.87,-756.67"/>
<polygon fill="none" stroke="midnightblue" points="98.14,-882.99 103.21,-892.28 105.04,-881.85 98.14,-882.99"/>
</g>
<!-- Node5 -->
<g id="node5" class="node">
<title>Node5</title>
<g id="a_node5"><a xlink:title=" ">
<polygon fill="none" stroke="#bfbfbf" points="139,-786.5 139,-843.5 178,-843.5 178,-786.5 139,-786.5"/>
<text text-anchor="middle" x="158.5" y="-831.5" font-family="Helvetica,sans-Serif" font-size="10.00">Color</text>
<polyline fill="none" stroke="#bfbfbf" points="139,-824.5 178,-824.5 "/>
<text text-anchor="middle" x="158.5" y="-812.5" font-family="Helvetica,sans-Serif" font-size="10.00"> </text>
<polyline fill="none" stroke="#bfbfbf" points="139,-805.5 178,-805.5 "/>
<text text-anchor="middle" x="158.5" y="-793.5" font-family="Helvetica,sans-Serif" font-size="10.00"> </text>
</a>
</g>
</g>
<!-- Node5&#45;&gt;Node2 -->
<g id="edge4" class="edge">
<title>Node5&#45;&gt;Node2</title>
<path fill="none" stroke="#404040" d="M161.29,-786.24C163.92,-760 168.16,-717.73 172.88,-670.72"/>
<polygon fill="none" stroke="#404040" points="172.89,-670.61 169.51,-664.24 174.09,-658.67 177.47,-665.04 172.89,-670.61"/>
<text text-anchor="middle" x="184.5" y="-731" font-family="Helvetica,sans-Serif" font-size="10.00"> #dhc</text>
<text text-anchor="middle" x="184.5" y="-720" font-family="Helvetica,sans-Serif" font-size="10.00">#dtc</text>
<text text-anchor="middle" x="184.5" y="-709" font-family="Helvetica,sans-Serif" font-size="10.00">#hc</text>
<text text-anchor="middle" x="184.5" y="-698" font-family="Helvetica,sans-Serif" font-size="10.00">#tc</text>
</g>
<!-- Node6&#45;&gt;Node1 -->
<g id="edge5" class="edge">
<title>Node6&#45;&gt;Node1</title>
<path fill="none" stroke="midnightblue" d="M63.64,-667.5C43.42,-565.72 9.16,-324.81 92.5,-150 99.05,-136.26 108.71,-123.75 119.58,-112.68"/>
<polygon fill="none" stroke="midnightblue" points="60.25,-668.38 65.67,-677.49 67.11,-666.99 60.25,-668.38"/>
</g>
<!-- Node7 -->
<g id="node7" class="node">
<title>Node7</title>
<g id="a_node7"><a xlink:href="../../d9/d72/interfacecom_1_1fs_1_1starfarer_1_1api_1_1characters_1_1FleetTotalSource.html" target="_top" xlink:title=" ">
<polygon fill="none" stroke="black" points="315,-370.5 315,-438.5 464,-438.5 464,-370.5 315,-370.5"/>
<text text-anchor="start" x="323" y="-426.5" font-family="Helvetica,sans-Serif" font-size="10.00">com.fs.starfarer.api.characters.</text>
<text text-anchor="middle" x="389.5" y="-415.5" font-family="Helvetica,sans-Serif" font-size="10.00">FleetTotalSource</text>
<polyline fill="none" stroke="black" points="315,-408.5 464,-408.5 "/>
<text text-anchor="middle" x="389.5" y="-396.5" font-family="Helvetica,sans-Serif" font-size="10.00"> </text>
<polyline fill="none" stroke="black" points="315,-389.5 464,-389.5 "/>
<text text-anchor="start" x="323" y="-377.5" font-family="Helvetica,sans-Serif" font-size="10.00">+ getFleetTotalItem()</text>
</a>
</g>
</g>
<!-- Node7&#45;&gt;Node1 -->
<g id="edge7" class="edge">
<title>Node7&#45;&gt;Node1</title>
<path fill="none" stroke="midnightblue" d="M382.4,-360.14C372.15,-307.05 349.41,-216.06 305.5,-150 296.58,-136.58 285.21,-123.92 273.25,-112.54"/>
<polygon fill="none" stroke="midnightblue" points="379.01,-361.05 384.29,-370.24 385.89,-359.76 379.01,-361.05"/>
</g>
</g>
</svg>
        <g id="navigator" transform="translate(0 0)" fill="#404254">
                <rect fill="#f2f5e9" fill-opacity="0.5" stroke="#606060" stroke-width=".5" x="0" y="0" width="60" height="60"/>
                <use id="zoomplus" xlink:href="#zoomPlus" x="17" y="9" onmousedown="handleZoom(evt,'in')"/>
                <use id="zoomminus" xlink:href="#zoomMin" x="42" y="9" onmousedown="handleZoom(evt,'out')"/>
                <use id="reset" xlink:href="#resetDef" x="30" y="36" onmousedown="handleReset()"/>
                <g id="arrowUp" xlink:href="#dirArrow" transform="translate(30 24)" onmousedown="handlePan(0,-1)">
                  <use xlink:href="#rim" fill="#404040">
                        <set attributeName="fill" to="#808080" begin="arrowUp.mouseover" end="arrowUp.mouseout"/>
                  </use>
                  <path fill="none" stroke="white" stroke-width="1.5" d="M0,-3.0v7 M-2.5,-0.5L0,-3.0L2.5,-0.5"/>
                </g>
                <g id="arrowRight" xlink:href="#dirArrow" transform="rotate(90) translate(36 -43)" onmousedown="handlePan(1,0)">
                  <use xlink:href="#rim" fill="#404040">
                        <set attributeName="fill" to="#808080" begin="arrowRight.mouseover" end="arrowRight.mouseout"/>
                  </use>
                  <path fill="none" stroke="white" stroke-width="1.5" d="M0,-3.0v7 M-2.5,-0.5L0,-3.0L2.5,-0.5"/>
                </g>
                <g id="arrowDown" xlink:href="#dirArrow" transform="rotate(180) translate(-30 -48)" onmousedown="handlePan(0,1)">
                  <use xlink:href="#rim" fill="#404040">
                        <set attributeName="fill" to="#808080" begin="arrowDown.mouseover" end="arrowDown.mouseout"/>
                  </use>
                  <path fill="none" stroke="white" stroke-width="1.5" d="M0,-3.0v7 M-2.5,-0.5L0,-3.0L2.5,-0.5"/>
                </g>
                <g id="arrowLeft" xlink:href="#dirArrow" transform="rotate(270) translate(-36 17)" onmousedown="handlePan(-1,0)">
                  <use xlink:href="#rim" fill="#404040">
                        <set attributeName="fill" to="#808080" begin="arrowLeft.mouseover" end="arrowLeft.mouseout"/>
                  </use>
                  <path fill="none" stroke="white" stroke-width="1.5" d="M0,-3.0v7 M-2.5,-0.5L0,-3.0L2.5,-0.5"/>
                </g>
        </g>
        <svg viewBox="0 0 15 15" width="100%" height="30px" preserveAspectRatio="xMaxYMin meet">
         <g id="arrow_out" transform="scale(0.3 0.3)">
          <a xlink:href="classcom_1_1fs_1_1starfarer_1_1api_1_1impl_1_1campaign_1_1skills_1_1AuxiliarySupport_1_1Level1__coll__graph_org.svg" target="_base">
           <rect id="button" ry="5" rx="5" y="6" x="6" height="38" width="38"
                fill="#f2f5e9" fill-opacity="0.5" stroke="#606060" stroke-width="1.0"/>
           <path id="arrow"
             d="M 11.500037,31.436501 C 11.940474,20.09759 22.043105,11.32322 32.158766,21.979434 L 37.068811,17.246167 C 37.068811,17.246167 37.088388,32 37.088388,32 L 22.160133,31.978069 C 22.160133,31.978069 26.997745,27.140456 26.997745,27.140456 C 18.528582,18.264221 13.291696,25.230495 11.500037,31.436501 z"
             style="fill:#404040;"/>
          </a>
         </g>
        </svg>
</svg>
