<?xml version="1.0" encoding="UTF-8" standalone="no"?>
<!DOCTYPE svg PUBLIC "-//W3C//DTD SVG 1.1//EN"
 "http://www.w3.org/Graphics/SVG/1.1/DTD/svg11.dtd">
<!-- Generated by graphviz version 2.44.0 ()
 -->
<!-- Title: com.fs.starfarer.api.impl.campaign.missions.hub.HubMissionWithTriggers.AddTagAfterDelay Pages: 1 -->
<svg width="376pt" height="270pt"
 viewBox="0.00 0.00 376.00 270.00" xmlns="http://www.w3.org/2000/svg" xmlns:xlink="http://www.w3.org/1999/xlink">
<g id="graph0" class="graph" transform="scale(1 1) rotate(0) translate(4 266)">
<title>com.fs.starfarer.api.impl.campaign.missions.hub.HubMissionWithTriggers.AddTagAfterDelay</title>
<!-- Node1 -->
<g id="node1" class="node">
<title>Node1</title>
<g id="a_node1"><a xlink:title=" ">
<polygon fill="#bfbfbf" stroke="black" points="96,-0.5 96,-134.5 321,-134.5 321,-0.5 96,-0.5"/>
<text text-anchor="start" x="104" y="-122.5" font-family="Helvetica,sans-Serif" font-size="10.00">com.fs.starfarer.api.impl.campaign.missions.hub.</text>
<text text-anchor="middle" x="208.5" y="-111.5" font-family="Helvetica,sans-Serif" font-size="10.00">HubMissionWithTriggers.AddTagAfterDelay</text>
<polyline fill="none" stroke="black" points="96,-104.5 321,-104.5 "/>
<text text-anchor="start" x="104" y="-92.5" font-family="Helvetica,sans-Serif" font-size="10.00"># tag</text>
<text text-anchor="start" x="104" y="-81.5" font-family="Helvetica,sans-Serif" font-size="10.00"># delay</text>
<text text-anchor="start" x="104" y="-70.5" font-family="Helvetica,sans-Serif" font-size="10.00"># system</text>
<polyline fill="none" stroke="black" points="96,-63.5 321,-63.5 "/>
<text text-anchor="start" x="104" y="-51.5" font-family="Helvetica,sans-Serif" font-size="10.00">+ AddTagAfterDelay()</text>
<text text-anchor="start" x="104" y="-40.5" font-family="Helvetica,sans-Serif" font-size="10.00">+ doAction()</text>
<text text-anchor="start" x="104" y="-29.5" font-family="Helvetica,sans-Serif" font-size="10.00">+ isDone()</text>
<text text-anchor="start" x="104" y="-18.5" font-family="Helvetica,sans-Serif" font-size="10.00">+ runWhilePaused()</text>
<text text-anchor="start" x="104" y="-7.5" font-family="Helvetica,sans-Serif" font-size="10.00">+ advance()</text>
</a>
</g>
</g>
<!-- Node2 -->
<g id="node2" class="node">
<title>Node2</title>
<g id="a_node2"><a xlink:href="../../d1/dce/interfacecom_1_1fs_1_1starfarer_1_1api_1_1impl_1_1campaign_1_1missions_1_1hub_1_1MissionTrigger_1_1TriggerAction.html" target="_top" xlink:title=" ">
<polygon fill="none" stroke="black" points="0,-182.5 0,-250.5 225,-250.5 225,-182.5 0,-182.5"/>
<text text-anchor="start" x="8" y="-238.5" font-family="Helvetica,sans-Serif" font-size="10.00">com.fs.starfarer.api.impl.campaign.missions.hub.</text>
<text text-anchor="middle" x="112.5" y="-227.5" font-family="Helvetica,sans-Serif" font-size="10.00">MissionTrigger.TriggerAction</text>
<polyline fill="none" stroke="black" points="0,-220.5 225,-220.5 "/>
<text text-anchor="middle" x="112.5" y="-208.5" font-family="Helvetica,sans-Serif" font-size="10.00"> </text>
<polyline fill="none" stroke="black" points="0,-201.5 225,-201.5 "/>
<text text-anchor="start" x="8" y="-189.5" font-family="Helvetica,sans-Serif" font-size="10.00">+ doAction()</text>
</a>
</g>
</g>
<!-- Node2&#45;&gt;Node1 -->
<g id="edge1" class="edge">
<title>Node2&#45;&gt;Node1</title>
<path fill="none" stroke="midnightblue" d="M139.86,-173.61C147.76,-161.5 156.59,-147.99 165.21,-134.79"/>
<polygon fill="none" stroke="midnightblue" points="136.82,-171.86 134.28,-182.14 142.68,-175.68 136.82,-171.86"/>
</g>
<!-- Node3 -->
<g id="node3" class="node">
<title>Node3</title>
<g id="a_node3"><a xlink:href="../../d7/d63/interfacecom_1_1fs_1_1starfarer_1_1api_1_1EveryFrameScript.html" target="_top" xlink:title=" ">
<polygon fill="none" stroke="black" points="243,-171.5 243,-261.5 368,-261.5 368,-171.5 243,-171.5"/>
<text text-anchor="start" x="251" y="-249.5" font-family="Helvetica,sans-Serif" font-size="10.00">com.fs.starfarer.api.Every</text>
<text text-anchor="middle" x="305.5" y="-238.5" font-family="Helvetica,sans-Serif" font-size="10.00">FrameScript</text>
<polyline fill="none" stroke="black" points="243,-231.5 368,-231.5 "/>
<text text-anchor="middle" x="305.5" y="-219.5" font-family="Helvetica,sans-Serif" font-size="10.00"> </text>
<polyline fill="none" stroke="black" points="243,-212.5 368,-212.5 "/>
<text text-anchor="start" x="251" y="-200.5" font-family="Helvetica,sans-Serif" font-size="10.00">+ isDone()</text>
<text text-anchor="start" x="251" y="-189.5" font-family="Helvetica,sans-Serif" font-size="10.00">+ runWhilePaused()</text>
<text text-anchor="start" x="251" y="-178.5" font-family="Helvetica,sans-Serif" font-size="10.00">+ advance()</text>
</a>
</g>
</g>
<!-- Node3&#45;&gt;Node1 -->
<g id="edge2" class="edge">
<title>Node3&#45;&gt;Node1</title>
<path fill="none" stroke="midnightblue" d="M270.72,-162.79C264.69,-153.65 258.34,-144.04 252.11,-134.59"/>
<polygon fill="none" stroke="midnightblue" points="267.97,-164.98 276.4,-171.4 273.81,-161.12 267.97,-164.98"/>
</g>
</g>
</svg>
