<?xml version="1.0" encoding="UTF-8" standalone="no"?>
<!DOCTYPE svg PUBLIC "-//W3C//DTD SVG 1.1//EN"
 "http://www.w3.org/Graphics/SVG/1.1/DTD/svg11.dtd">
<!-- Generated by graphviz version 2.44.0 ()
 -->
<!-- Title: com.fs.starfarer.api.impl.campaign.intel.FactionHostilityManager Pages: 1 -->
<svg width="683pt" height="914pt"
 viewBox="0.00 0.00 683.00 914.00" xmlns="http://www.w3.org/2000/svg" xmlns:xlink="http://www.w3.org/1999/xlink">
<g id="graph0" class="graph" transform="scale(1 1) rotate(0) translate(4 910)">
<title>com.fs.starfarer.api.impl.campaign.intel.FactionHostilityManager</title>
<!-- Node1 -->
<g id="node1" class="node">
<title>Node1</title>
<g id="a_node1"><a xlink:title=" ">
<polygon fill="#bfbfbf" stroke="black" points="396.5,-0.5 396.5,-277.5 582.5,-277.5 582.5,-0.5 396.5,-0.5"/>
<text text-anchor="start" x="404.5" y="-265.5" font-family="Helvetica,sans-Serif" font-size="10.00">com.fs.starfarer.api.impl.campaign.intel.</text>
<text text-anchor="middle" x="489.5" y="-254.5" font-family="Helvetica,sans-Serif" font-size="10.00">FactionHostilityManager</text>
<polyline fill="none" stroke="black" points="396.5,-247.5 582.5,-247.5 "/>
<text text-anchor="start" x="404.5" y="-235.5" font-family="Helvetica,sans-Serif" font-size="10.00">+ KEY</text>
<text text-anchor="start" x="404.5" y="-224.5" font-family="Helvetica,sans-Serif" font-size="10.00">+ TIMEOUT_AFTER_ENDING</text>
<text text-anchor="start" x="404.5" y="-213.5" font-family="Helvetica,sans-Serif" font-size="10.00">+ CHECK_DAYS</text>
<text text-anchor="start" x="404.5" y="-202.5" font-family="Helvetica,sans-Serif" font-size="10.00">+ CHECK_PROB</text>
<polyline fill="none" stroke="black" points="396.5,-195.5 582.5,-195.5 "/>
<text text-anchor="start" x="404.5" y="-183.5" font-family="Helvetica,sans-Serif" font-size="10.00">+ FactionHostilityManager()</text>
<text text-anchor="start" x="404.5" y="-172.5" font-family="Helvetica,sans-Serif" font-size="10.00">+ areHostilitiesOngoing()</text>
<text text-anchor="start" x="404.5" y="-161.5" font-family="Helvetica,sans-Serif" font-size="10.00">+ getHostilties()</text>
<text text-anchor="start" x="404.5" y="-150.5" font-family="Helvetica,sans-Serif" font-size="10.00">+ getHostilitiesInvolving()</text>
<text text-anchor="start" x="404.5" y="-139.5" font-family="Helvetica,sans-Serif" font-size="10.00">+ startHostilities()</text>
<text text-anchor="start" x="404.5" y="-128.5" font-family="Helvetica,sans-Serif" font-size="10.00">+ startHostilities()</text>
<text text-anchor="start" x="404.5" y="-117.5" font-family="Helvetica,sans-Serif" font-size="10.00">+ notifyRecentlyEnded()</text>
<text text-anchor="start" x="404.5" y="-106.5" font-family="Helvetica,sans-Serif" font-size="10.00">+ getRecentlyEnded()</text>
<text text-anchor="start" x="404.5" y="-95.5" font-family="Helvetica,sans-Serif" font-size="10.00">+ advance()</text>
<text text-anchor="start" x="404.5" y="-84.5" font-family="Helvetica,sans-Serif" font-size="10.00">+ getConflictId()</text>
<text text-anchor="start" x="404.5" y="-73.5" font-family="Helvetica,sans-Serif" font-size="10.00">+ getInstance()</text>
<text text-anchor="start" x="404.5" y="-62.5" font-family="Helvetica,sans-Serif" font-size="10.00"># getMinConcurrent()</text>
<text text-anchor="start" x="404.5" y="-51.5" font-family="Helvetica,sans-Serif" font-size="10.00"># getMaxConcurrent()</text>
<text text-anchor="start" x="404.5" y="-40.5" font-family="Helvetica,sans-Serif" font-size="10.00"># getEligibleFactions()</text>
<text text-anchor="start" x="404.5" y="-29.5" font-family="Helvetica,sans-Serif" font-size="10.00"># getBaseInterval()</text>
<text text-anchor="start" x="404.5" y="-18.5" font-family="Helvetica,sans-Serif" font-size="10.00"># createEvent()</text>
<text text-anchor="start" x="404.5" y="-7.5" font-family="Helvetica,sans-Serif" font-size="10.00"># pickFactions()</text>
</a>
</g>
</g>
<!-- Node2 -->
<g id="node2" class="node">
<title>Node2</title>
<g id="a_node2"><a xlink:href="../../d9/d36/classcom_1_1fs_1_1starfarer_1_1api_1_1impl_1_1campaign_1_1intel_1_1BaseEventManager.html" target="_top" xlink:title=" ">
<polygon fill="none" stroke="black" points="241.5,-325.5 241.5,-602.5 427.5,-602.5 427.5,-325.5 241.5,-325.5"/>
<text text-anchor="start" x="249.5" y="-590.5" font-family="Helvetica,sans-Serif" font-size="10.00">com.fs.starfarer.api.impl.campaign.intel.</text>
<text text-anchor="middle" x="334.5" y="-579.5" font-family="Helvetica,sans-Serif" font-size="10.00">BaseEventManager</text>
<polyline fill="none" stroke="black" points="241.5,-572.5 427.5,-572.5 "/>
<text text-anchor="start" x="249.5" y="-560.5" font-family="Helvetica,sans-Serif" font-size="10.00"># currMax</text>
<polyline fill="none" stroke="black" points="241.5,-553.5 427.5,-553.5 "/>
<text text-anchor="start" x="249.5" y="-541.5" font-family="Helvetica,sans-Serif" font-size="10.00">+ BaseEventManager()</text>
<text text-anchor="start" x="249.5" y="-530.5" font-family="Helvetica,sans-Serif" font-size="10.00">+ advance()</text>
<text text-anchor="start" x="249.5" y="-519.5" font-family="Helvetica,sans-Serif" font-size="10.00">+ getActiveCount()</text>
<text text-anchor="start" x="249.5" y="-508.5" font-family="Helvetica,sans-Serif" font-size="10.00">+ getOngoing()</text>
<text text-anchor="start" x="249.5" y="-497.5" font-family="Helvetica,sans-Serif" font-size="10.00">+ getCurrMax()</text>
<text text-anchor="start" x="249.5" y="-486.5" font-family="Helvetica,sans-Serif" font-size="10.00">+ belowMax()</text>
<text text-anchor="start" x="249.5" y="-475.5" font-family="Helvetica,sans-Serif" font-size="10.00">+ addActive()</text>
<text text-anchor="start" x="249.5" y="-464.5" font-family="Helvetica,sans-Serif" font-size="10.00">+ isDone()</text>
<text text-anchor="start" x="249.5" y="-453.5" font-family="Helvetica,sans-Serif" font-size="10.00">+ runWhilePaused()</text>
<text text-anchor="start" x="249.5" y="-442.5" font-family="Helvetica,sans-Serif" font-size="10.00">+ getActive()</text>
<text text-anchor="start" x="249.5" y="-431.5" font-family="Helvetica,sans-Serif" font-size="10.00">+ getTracker()</text>
<text text-anchor="start" x="249.5" y="-420.5" font-family="Helvetica,sans-Serif" font-size="10.00"># updateMax()</text>
<text text-anchor="start" x="249.5" y="-409.5" font-family="Helvetica,sans-Serif" font-size="10.00"># readResolve()</text>
<text text-anchor="start" x="249.5" y="-398.5" font-family="Helvetica,sans-Serif" font-size="10.00"># getMinConcurrent()</text>
<text text-anchor="start" x="249.5" y="-387.5" font-family="Helvetica,sans-Serif" font-size="10.00"># getMaxConcurrent()</text>
<text text-anchor="start" x="249.5" y="-376.5" font-family="Helvetica,sans-Serif" font-size="10.00"># createEvent()</text>
<text text-anchor="start" x="249.5" y="-365.5" font-family="Helvetica,sans-Serif" font-size="10.00"># getUpdateMaxInterval()</text>
<text text-anchor="start" x="249.5" y="-354.5" font-family="Helvetica,sans-Serif" font-size="10.00"># getBaseInterval()</text>
<text text-anchor="start" x="249.5" y="-343.5" font-family="Helvetica,sans-Serif" font-size="10.00"># getIntervalRateMult()</text>
<text text-anchor="start" x="249.5" y="-332.5" font-family="Helvetica,sans-Serif" font-size="10.00"># getHardLimit()</text>
</a>
</g>
</g>
<!-- Node2&#45;&gt;Node1 -->
<g id="edge1" class="edge">
<title>Node2&#45;&gt;Node1</title>
<path fill="none" stroke="midnightblue" d="M405.11,-315.86C411.2,-303.16 417.36,-290.34 423.41,-277.71"/>
<polygon fill="none" stroke="midnightblue" points="401.85,-314.55 400.68,-325.08 408.17,-317.58 401.85,-314.55"/>
</g>
<!-- Node3 -->
<g id="node3" class="node">
<title>Node3</title>
<g id="a_node3"><a xlink:href="../../d7/d63/interfacecom_1_1fs_1_1starfarer_1_1api_1_1EveryFrameScript.html" target="_top" xlink:title=" ">
<polygon fill="none" stroke="black" points="0,-738.5 0,-828.5 125,-828.5 125,-738.5 0,-738.5"/>
<text text-anchor="start" x="8" y="-816.5" font-family="Helvetica,sans-Serif" font-size="10.00">com.fs.starfarer.api.Every</text>
<text text-anchor="middle" x="62.5" y="-805.5" font-family="Helvetica,sans-Serif" font-size="10.00">FrameScript</text>
<polyline fill="none" stroke="black" points="0,-798.5 125,-798.5 "/>
<text text-anchor="middle" x="62.5" y="-786.5" font-family="Helvetica,sans-Serif" font-size="10.00"> </text>
<polyline fill="none" stroke="black" points="0,-779.5 125,-779.5 "/>
<text text-anchor="start" x="8" y="-767.5" font-family="Helvetica,sans-Serif" font-size="10.00">+ isDone()</text>
<text text-anchor="start" x="8" y="-756.5" font-family="Helvetica,sans-Serif" font-size="10.00">+ runWhilePaused()</text>
<text text-anchor="start" x="8" y="-745.5" font-family="Helvetica,sans-Serif" font-size="10.00">+ advance()</text>
</a>
</g>
</g>
<!-- Node3&#45;&gt;Node2 -->
<g id="edge2" class="edge">
<title>Node3&#45;&gt;Node2</title>
<path fill="none" stroke="midnightblue" d="M89.99,-729.38C102.38,-707.37 117.94,-682.11 134.5,-661 166.23,-620.55 205.88,-580.07 241.48,-546.49"/>
<polygon fill="none" stroke="midnightblue" points="86.85,-727.83 85.06,-738.27 92.97,-731.22 86.85,-727.83"/>
</g>
<!-- Node4 -->
<g id="node4" class="node">
<title>Node4</title>
<g id="a_node4"><a xlink:title=" ">
<polygon fill="none" stroke="#bfbfbf" points="143.5,-749.5 143.5,-817.5 269.5,-817.5 269.5,-749.5 143.5,-749.5"/>
<text text-anchor="start" x="151.5" y="-805.5" font-family="Helvetica,sans-Serif" font-size="10.00">List&lt; com.fs.starfarer.api.</text>
<text text-anchor="middle" x="206.5" y="-794.5" font-family="Helvetica,sans-Serif" font-size="10.00">EveryFrameScript &gt;</text>
<polyline fill="none" stroke="#bfbfbf" points="143.5,-787.5 269.5,-787.5 "/>
<text text-anchor="middle" x="206.5" y="-775.5" font-family="Helvetica,sans-Serif" font-size="10.00"> </text>
<polyline fill="none" stroke="#bfbfbf" points="143.5,-768.5 269.5,-768.5 "/>
<text text-anchor="middle" x="206.5" y="-756.5" font-family="Helvetica,sans-Serif" font-size="10.00"> </text>
</a>
</g>
</g>
<!-- Node4&#45;&gt;Node2 -->
<g id="edge3" class="edge">
<title>Node4&#45;&gt;Node2</title>
<path fill="none" stroke="#404040" d="M219.84,-749.42C232.99,-716.79 254.05,-664.56 274.55,-613.71"/>
<polygon fill="none" stroke="#404040" points="274.56,-613.68 273.1,-606.61 279.05,-602.55 280.51,-609.61 274.56,-613.68"/>
<text text-anchor="middle" x="287.5" y="-629.5" font-family="Helvetica,sans-Serif" font-size="10.00"> #active</text>
</g>
<!-- Node5 -->
<g id="node5" class="node">
<title>Node5</title>
<g id="a_node5"><a xlink:href="../../da/db8/classcom_1_1fs_1_1starfarer_1_1api_1_1util_1_1IntervalUtil.html" target="_top" xlink:title=" ">
<polygon fill="none" stroke="black" points="288,-661.5 288,-905.5 407,-905.5 407,-661.5 288,-661.5"/>
<text text-anchor="start" x="296" y="-893.5" font-family="Helvetica,sans-Serif" font-size="10.00">com.fs.starfarer.api.util.</text>
<text text-anchor="middle" x="347.5" y="-882.5" font-family="Helvetica,sans-Serif" font-size="10.00">IntervalUtil</text>
<polyline fill="none" stroke="black" points="288,-875.5 407,-875.5 "/>
<text text-anchor="start" x="296" y="-863.5" font-family="Helvetica,sans-Serif" font-size="10.00">&#45; minInterval</text>
<text text-anchor="start" x="296" y="-852.5" font-family="Helvetica,sans-Serif" font-size="10.00">&#45; maxInterval</text>
<text text-anchor="start" x="296" y="-841.5" font-family="Helvetica,sans-Serif" font-size="10.00">&#45; currInterval</text>
<text text-anchor="start" x="296" y="-830.5" font-family="Helvetica,sans-Serif" font-size="10.00">&#45; elapsed</text>
<text text-anchor="start" x="296" y="-819.5" font-family="Helvetica,sans-Serif" font-size="10.00">&#45; intervalElapsed</text>
<polyline fill="none" stroke="black" points="288,-812.5 407,-812.5 "/>
<text text-anchor="start" x="296" y="-800.5" font-family="Helvetica,sans-Serif" font-size="10.00">+ IntervalUtil()</text>
<text text-anchor="start" x="296" y="-789.5" font-family="Helvetica,sans-Serif" font-size="10.00">+ forceCurrInterval()</text>
<text text-anchor="start" x="296" y="-778.5" font-family="Helvetica,sans-Serif" font-size="10.00">+ randomize()</text>
<text text-anchor="start" x="296" y="-767.5" font-family="Helvetica,sans-Serif" font-size="10.00">+ forceIntervalElapsed()</text>
<text text-anchor="start" x="296" y="-756.5" font-family="Helvetica,sans-Serif" font-size="10.00">+ getElapsed()</text>
<text text-anchor="start" x="296" y="-745.5" font-family="Helvetica,sans-Serif" font-size="10.00">+ advance()</text>
<text text-anchor="start" x="296" y="-734.5" font-family="Helvetica,sans-Serif" font-size="10.00">+ intervalElapsed()</text>
<text text-anchor="start" x="296" y="-723.5" font-family="Helvetica,sans-Serif" font-size="10.00">+ getIntervalDuration()</text>
<text text-anchor="start" x="296" y="-712.5" font-family="Helvetica,sans-Serif" font-size="10.00">+ setInterval()</text>
<text text-anchor="start" x="296" y="-701.5" font-family="Helvetica,sans-Serif" font-size="10.00">+ setElapsed()</text>
<text text-anchor="start" x="296" y="-690.5" font-family="Helvetica,sans-Serif" font-size="10.00">+ getMinInterval()</text>
<text text-anchor="start" x="296" y="-679.5" font-family="Helvetica,sans-Serif" font-size="10.00">+ getMaxInterval()</text>
<text text-anchor="start" x="296" y="-668.5" font-family="Helvetica,sans-Serif" font-size="10.00">&#45; nextInterval()</text>
</a>
</g>
</g>
<!-- Node5&#45;&gt;Node2 -->
<g id="edge4" class="edge">
<title>Node5&#45;&gt;Node2</title>
<path fill="none" stroke="#404040" d="M336.48,-661.18C336.1,-655.04 335.77,-648.95 335.5,-643 335.08,-633.77 334.74,-624.28 334.47,-614.7"/>
<polygon fill="none" stroke="#404040" points="334.47,-614.53 330.32,-608.63 334.17,-602.53 338.32,-608.43 334.47,-614.53"/>
<text text-anchor="middle" x="362.5" y="-635" font-family="Helvetica,sans-Serif" font-size="10.00"> #tracker</text>
<text text-anchor="middle" x="362.5" y="-624" font-family="Helvetica,sans-Serif" font-size="10.00">#trackerMax</text>
</g>
<!-- Node6 -->
<g id="node6" class="node">
<title>Node6</title>
<g id="a_node6"><a xlink:title=" ">
<polygon fill="none" stroke="#bfbfbf" points="450,-755 450,-812 503,-812 503,-755 450,-755"/>
<text text-anchor="middle" x="476.5" y="-800" font-family="Helvetica,sans-Serif" font-size="10.00">Random</text>
<polyline fill="none" stroke="#bfbfbf" points="450,-793 503,-793 "/>
<text text-anchor="middle" x="476.5" y="-781" font-family="Helvetica,sans-Serif" font-size="10.00"> </text>
<polyline fill="none" stroke="#bfbfbf" points="450,-774 503,-774 "/>
<text text-anchor="middle" x="476.5" y="-762" font-family="Helvetica,sans-Serif" font-size="10.00"> </text>
</a>
</g>
</g>
<!-- Node6&#45;&gt;Node1 -->
<g id="edge7" class="edge">
<title>Node6&#45;&gt;Node1</title>
<path fill="none" stroke="#404040" d="M477.06,-754.89C478.65,-676.02 483.32,-445.41 486.46,-290.13"/>
<polygon fill="none" stroke="#404040" points="486.47,-289.68 482.59,-283.6 486.71,-277.68 490.59,-283.76 486.47,-289.68"/>
<text text-anchor="middle" x="506.5" y="-461.5" font-family="Helvetica,sans-Serif" font-size="10.00"> #random</text>
</g>
<!-- Node6&#45;&gt;Node2 -->
<g id="edge5" class="edge">
<title>Node6&#45;&gt;Node2</title>
<path fill="none" stroke="#404040" d="M463.61,-754.77C450.58,-726.67 429.95,-681.9 412.5,-643 408.24,-633.49 403.87,-623.69 399.48,-613.8"/>
<polygon fill="none" stroke="#404040" points="399.38,-613.58 393.29,-609.72 394.52,-602.61 400.61,-606.48 399.38,-613.58"/>
<text text-anchor="middle" x="444" y="-629.5" font-family="Helvetica,sans-Serif" font-size="10.00"> #randomBase</text>
</g>
<!-- Node7 -->
<g id="node7" class="node">
<title>Node7</title>
<g id="a_node7"><a xlink:href="../../dd/df5/classcom_1_1fs_1_1starfarer_1_1api_1_1util_1_1TimeoutTracker.html" target="_top" xlink:title=" ">
<polygon fill="none" stroke="black" points="548,-364 548,-564 675,-564 675,-364 548,-364"/>
<text text-anchor="start" x="556" y="-552" font-family="Helvetica,sans-Serif" font-size="10.00">com.fs.starfarer.api.util.</text>
<text text-anchor="middle" x="611.5" y="-541" font-family="Helvetica,sans-Serif" font-size="10.00">TimeoutTracker&lt; String &gt;</text>
<polyline fill="none" stroke="black" points="548,-534 675,-534 "/>
<text text-anchor="start" x="556" y="-522" font-family="Helvetica,sans-Serif" font-size="10.00">&#45; items</text>
<text text-anchor="start" x="556" y="-511" font-family="Helvetica,sans-Serif" font-size="10.00">&#45; set</text>
<polyline fill="none" stroke="black" points="548,-504 675,-504 "/>
<text text-anchor="start" x="556" y="-492" font-family="Helvetica,sans-Serif" font-size="10.00">+ set()</text>
<text text-anchor="start" x="556" y="-481" font-family="Helvetica,sans-Serif" font-size="10.00">+ add()</text>
<text text-anchor="start" x="556" y="-470" font-family="Helvetica,sans-Serif" font-size="10.00">+ add()</text>
<text text-anchor="start" x="556" y="-459" font-family="Helvetica,sans-Serif" font-size="10.00">+ getRemaining()</text>
<text text-anchor="start" x="556" y="-448" font-family="Helvetica,sans-Serif" font-size="10.00">+ remove()</text>
<text text-anchor="start" x="556" y="-437" font-family="Helvetica,sans-Serif" font-size="10.00">+ getItems()</text>
<text text-anchor="start" x="556" y="-426" font-family="Helvetica,sans-Serif" font-size="10.00">+ clear()</text>
<text text-anchor="start" x="556" y="-415" font-family="Helvetica,sans-Serif" font-size="10.00">+ advance()</text>
<text text-anchor="start" x="556" y="-404" font-family="Helvetica,sans-Serif" font-size="10.00">+ contains()</text>
<text text-anchor="start" x="556" y="-393" font-family="Helvetica,sans-Serif" font-size="10.00">~ readResolve()</text>
<text text-anchor="start" x="556" y="-382" font-family="Helvetica,sans-Serif" font-size="10.00">~ writeReplace()</text>
<text text-anchor="start" x="556" y="-371" font-family="Helvetica,sans-Serif" font-size="10.00">&#45; getData()</text>
</a>
</g>
</g>
<!-- Node7&#45;&gt;Node1 -->
<g id="edge6" class="edge">
<title>Node7&#45;&gt;Node1</title>
<path fill="none" stroke="#404040" d="M574.07,-363.89C565.1,-340.15 555.33,-314.28 545.71,-288.82"/>
<polygon fill="none" stroke="#404040" points="545.7,-288.79 539.84,-284.59 541.46,-277.56 547.32,-281.76 545.7,-288.79"/>
<text text-anchor="middle" x="585" y="-299" font-family="Helvetica,sans-Serif" font-size="10.00"> #recentlyEnded</text>
</g>
</g>
</svg>
