<?xml version="1.0" encoding="UTF-8" standalone="no"?>
<!DOCTYPE svg PUBLIC "-//W3C//DTD SVG 1.1//EN"
 "http://www.w3.org/Graphics/SVG/1.1/DTD/svg11.dtd">
<!-- Generated by graphviz version 2.44.0 ()
 -->
<!-- Title: com.fs.starfarer.api.impl.campaign.tutorial.TutorialMissionIntel.isTutorialInProgress Pages: 1 -->
<svg width="452pt" height="235pt"
 viewBox="0.00 0.00 452.00 235.00" xmlns="http://www.w3.org/2000/svg" xmlns:xlink="http://www.w3.org/1999/xlink">
<g id="graph0" class="graph" transform="scale(1 1) rotate(0) translate(4 231)">
<title>com.fs.starfarer.api.impl.campaign.tutorial.TutorialMissionIntel.isTutorialInProgress</title>
<!-- Node1 -->
<g id="node1" class="node">
<title>Node1</title>
<g id="a_node1"><a xlink:title=" ">
<polygon fill="#bfbfbf" stroke="black" points="247,-98.5 247,-128.5 444,-128.5 444,-98.5 247,-98.5"/>
<text text-anchor="start" x="255" y="-116.5" font-family="Helvetica,sans-Serif" font-size="10.00">com.fs.starfarer.api.impl.campaign.tutorial.</text>
<text text-anchor="middle" x="345.5" y="-105.5" font-family="Helvetica,sans-Serif" font-size="10.00">TutorialMissionIntel.isTutorialInProgress</text>
</a>
</g>
</g>
<!-- Node2 -->
<g id="node2" class="node">
<title>Node2</title>
<g id="a_node2"><a xlink:href="../../d6/d2e/classcom_1_1fs_1_1starfarer_1_1api_1_1impl_1_1campaign_1_1command_1_1WarSimScript.html#a334f35cb530d8e19b2d586bf4788148c" target="_top" xlink:title=" ">
<polygon fill="none" stroke="black" points="0,-196.5 0,-226.5 211,-226.5 211,-196.5 0,-196.5"/>
<text text-anchor="start" x="8" y="-214.5" font-family="Helvetica,sans-Serif" font-size="10.00">com.fs.starfarer.api.impl.campaign.command.</text>
<text text-anchor="middle" x="105.5" y="-203.5" font-family="Helvetica,sans-Serif" font-size="10.00">WarSimScript.advance</text>
</a>
</g>
</g>
<!-- Node1&#45;&gt;Node2 -->
<g id="edge1" class="edge">
<title>Node1&#45;&gt;Node2</title>
<path fill="none" stroke="midnightblue" d="M313.08,-134.24C286.78,-150.78 247.74,-173.42 211,-187.5 202.22,-190.86 192.84,-193.83 183.44,-196.44"/>
<polygon fill="midnightblue" stroke="midnightblue" points="315.28,-136.99 321.83,-128.67 311.52,-131.09 315.28,-136.99"/>
</g>
<!-- Node3 -->
<g id="node3" class="node">
<title>Node3</title>
<g id="a_node3"><a xlink:href="../../d1/d23/classcom_1_1fs_1_1starfarer_1_1api_1_1impl_1_1campaign_1_1fleets_1_1DisposableFleetManager.html#a2295d7a47f2690b0299e4c0cd1496787" target="_top" xlink:title=" ">
<polygon fill="none" stroke="black" points="10,-147.5 10,-177.5 201,-177.5 201,-147.5 10,-147.5"/>
<text text-anchor="start" x="18" y="-165.5" font-family="Helvetica,sans-Serif" font-size="10.00">com.fs.starfarer.api.impl.campaign.fleets.</text>
<text text-anchor="middle" x="105.5" y="-154.5" font-family="Helvetica,sans-Serif" font-size="10.00">DisposableFleetManager.advance</text>
</a>
</g>
</g>
<!-- Node1&#45;&gt;Node3 -->
<g id="edge2" class="edge">
<title>Node1&#45;&gt;Node3</title>
<path fill="none" stroke="midnightblue" d="M261.38,-130.61C234.67,-136.11 205.3,-142.16 179.39,-147.49"/>
<polygon fill="midnightblue" stroke="midnightblue" points="262.39,-133.98 271.47,-128.53 260.97,-127.12 262.39,-133.98"/>
</g>
<!-- Node4 -->
<g id="node4" class="node">
<title>Node4</title>
<g id="a_node4"><a xlink:href="../../da/d6d/classcom_1_1fs_1_1starfarer_1_1api_1_1impl_1_1campaign_1_1abilities_1_1FractureJumpAbility.html#ab23334fb5a6ba37931df1020b522dbfe" target="_top" xlink:title=" ">
<polygon fill="none" stroke="black" points="5,-98.5 5,-128.5 206,-128.5 206,-98.5 5,-98.5"/>
<text text-anchor="start" x="13" y="-116.5" font-family="Helvetica,sans-Serif" font-size="10.00">com.fs.starfarer.api.impl.campaign.abilities.</text>
<text text-anchor="middle" x="105.5" y="-105.5" font-family="Helvetica,sans-Serif" font-size="10.00">FractureJumpAbility.createTooltip</text>
</a>
</g>
</g>
<!-- Node1&#45;&gt;Node4 -->
<g id="edge3" class="edge">
<title>Node1&#45;&gt;Node4</title>
<path fill="none" stroke="midnightblue" d="M236.61,-113.5C226.5,-113.5 216.29,-113.5 206.26,-113.5"/>
<polygon fill="midnightblue" stroke="midnightblue" points="236.67,-117 246.67,-113.5 236.67,-110 236.67,-117"/>
</g>
<!-- Node5 -->
<g id="node5" class="node">
<title>Node5</title>
<g id="a_node5"><a xlink:href="../../d2/d77/classcom_1_1fs_1_1starfarer_1_1api_1_1impl_1_1campaign_1_1intel_1_1BaseIntelPlugin.html#a9351a093151fd63128b67161e2d3243c" target="_top" xlink:title=" ">
<polygon fill="none" stroke="black" points="12.5,-49.5 12.5,-79.5 198.5,-79.5 198.5,-49.5 12.5,-49.5"/>
<text text-anchor="start" x="20.5" y="-67.5" font-family="Helvetica,sans-Serif" font-size="10.00">com.fs.starfarer.api.impl.campaign.intel.</text>
<text text-anchor="middle" x="105.5" y="-56.5" font-family="Helvetica,sans-Serif" font-size="10.00">BaseIntelPlugin.isHidden</text>
</a>
</g>
</g>
<!-- Node1&#45;&gt;Node5 -->
<g id="edge4" class="edge">
<title>Node1&#45;&gt;Node5</title>
<path fill="none" stroke="midnightblue" d="M261.38,-96.39C234.67,-90.89 205.3,-84.84 179.39,-79.51"/>
<polygon fill="midnightblue" stroke="midnightblue" points="260.97,-99.88 271.47,-98.47 262.39,-93.02 260.97,-99.88"/>
</g>
<!-- Node6 -->
<g id="node6" class="node">
<title>Node6</title>
<g id="a_node6"><a xlink:href="../../da/d6d/classcom_1_1fs_1_1starfarer_1_1api_1_1impl_1_1campaign_1_1abilities_1_1FractureJumpAbility.html#a4e7e4ac01a607fc1fb3c5f514fd49c6f" target="_top" xlink:title=" ">
<polygon fill="none" stroke="black" points="5,-0.5 5,-30.5 206,-30.5 206,-0.5 5,-0.5"/>
<text text-anchor="start" x="13" y="-18.5" font-family="Helvetica,sans-Serif" font-size="10.00">com.fs.starfarer.api.impl.campaign.abilities.</text>
<text text-anchor="middle" x="105.5" y="-7.5" font-family="Helvetica,sans-Serif" font-size="10.00">FractureJumpAbility.isUsable</text>
</a>
</g>
</g>
<!-- Node1&#45;&gt;Node6 -->
<g id="edge5" class="edge">
<title>Node1&#45;&gt;Node6</title>
<path fill="none" stroke="midnightblue" d="M312.53,-92.85C286.19,-76.63 247.38,-54.51 211,-40.5 201.25,-36.75 190.77,-33.44 180.34,-30.56"/>
<polygon fill="midnightblue" stroke="midnightblue" points="310.97,-96 321.3,-98.32 314.67,-90.06 310.97,-96"/>
</g>
</g>
</svg>
