<?xml version="1.0" encoding="UTF-8" standalone="no"?>
<!DOCTYPE svg PUBLIC "-//W3C//DTD SVG 1.1//EN"
 "http://www.w3.org/Graphics/SVG/1.1/DTD/svg11.dtd">
<!-- Generated by graphviz version 7.0.5 (20221223.1930)
 -->
<!-- Title: com.fs.starfarer.api.impl.campaign.DelayedBlueprintLearnScript Pages: 1 -->
<svg width="222pt" height="215pt"
 viewBox="0.00 0.00 222.00 215.00" xmlns="http://www.w3.org/2000/svg" xmlns:xlink="http://www.w3.org/1999/xlink">
<g id="graph0" class="graph" transform="scale(1 1) rotate(0) translate(4 211)">
<title>com.fs.starfarer.api.impl.campaign.DelayedBlueprintLearnScript</title>
<!-- Node1 -->
<g id="node1" class="node">
<title>Node1</title>
<g id="a_node1"><a xlink:title=" ">
<polygon fill="#999999" stroke="#666666" points="202.5,-30 36.5,-30 36.5,0 202.5,0 202.5,-30"/>
<text text-anchor="start" x="44.5" y="-18" font-family="Helvetica,sans-Serif" font-size="10.00">com.fs.starfarer.api.impl.campaign.</text>
<text text-anchor="middle" x="119.5" y="-7" font-family="Helvetica,sans-Serif" font-size="10.00">DelayedBlueprintLearnScript</text>
</a>
</g>
</g>
<!-- Node2 -->
<g id="node2" class="node">
<title>Node2</title>
<g id="a_node2"><a xlink:href="../../d9/dd1/classcom_1_1fs_1_1starfarer_1_1api_1_1util_1_1DelayedActionScript.html" target="_top" xlink:title=" ">
<polygon fill="white" stroke="#666666" points="120.5,-140 4.5,-140 4.5,-110 120.5,-110 120.5,-140"/>
<text text-anchor="start" x="12.5" y="-128" font-family="Helvetica,sans-Serif" font-size="10.00">com.fs.starfarer.api.util.</text>
<text text-anchor="middle" x="62.5" y="-117" font-family="Helvetica,sans-Serif" font-size="10.00">DelayedActionScript</text>
</a>
</g>
</g>
<!-- Node2&#45;&gt;Node1 -->
<g id="edge1" class="edge">
<title>Node2&#45;&gt;Node1</title>
<path fill="none" stroke="#63b8ff" d="M75.18,-99.97C86.43,-78.66 102.48,-48.24 111.86,-30.47"/>
<polygon fill="#63b8ff" stroke="#63b8ff" points="72.23,-98.06 70.66,-108.54 78.42,-101.33 72.23,-98.06"/>
</g>
<!-- Node3 -->
<g id="node3" class="node">
<title>Node3</title>
<g id="a_node3"><a xlink:href="../../d7/d63/interfacecom_1_1fs_1_1starfarer_1_1api_1_1EveryFrameScript.html" target="_top" xlink:title=" ">
<polygon fill="white" stroke="#666666" points="125,-207 0,-207 0,-177 125,-177 125,-207"/>
<text text-anchor="start" x="8" y="-195" font-family="Helvetica,sans-Serif" font-size="10.00">com.fs.starfarer.api.Every</text>
<text text-anchor="middle" x="62.5" y="-184" font-family="Helvetica,sans-Serif" font-size="10.00">FrameScript</text>
</a>
</g>
</g>
<!-- Node3&#45;&gt;Node2 -->
<g id="edge2" class="edge">
<title>Node3&#45;&gt;Node2</title>
<path fill="none" stroke="#63b8ff" d="M62.5,-165.28C62.5,-156.81 62.5,-147.7 62.5,-140.39"/>
<polygon fill="#63b8ff" stroke="#63b8ff" points="59,-165.06 62.5,-175.06 66,-165.06 59,-165.06"/>
</g>
<!-- Node4 -->
<g id="node4" class="node">
<title>Node4</title>
<g id="a_node4"><a xlink:title=" ">
<polygon fill="white" stroke="#666666" points="214,-134.5 139,-134.5 139,-115.5 214,-115.5 214,-134.5"/>
<text text-anchor="middle" x="176.5" y="-122.5" font-family="Helvetica,sans-Serif" font-size="10.00">List&lt; String &gt;</text>
</a>
</g>
</g>
<!-- Node4&#45;&gt;Node1 -->
<g id="edge3" class="edge">
<title>Node4&#45;&gt;Node1</title>
<path fill="none" stroke="#9a32cd" stroke-dasharray="5,2" d="M166.51,-105.07C155.26,-83.76 137.22,-49.58 127.07,-30.35"/>
<polygon fill="#9a32cd" stroke="#9a32cd" points="163.37,-106.61 171.13,-113.82 169.56,-103.35 163.37,-106.61"/>
<text text-anchor="middle" x="179" y="-84" font-family="Helvetica,sans-Serif" font-size="10.00"> fighters</text>
<text text-anchor="middle" x="179" y="-73" font-family="Helvetica,sans-Serif" font-size="10.00">industries</text>
<text text-anchor="middle" x="179" y="-62" font-family="Helvetica,sans-Serif" font-size="10.00">ships</text>
<text text-anchor="middle" x="179" y="-51" font-family="Helvetica,sans-Serif" font-size="10.00">weapons</text>
</g>
</g>
</svg>
