<?xml version="1.0" encoding="UTF-8" standalone="no"?>
<!DOCTYPE svg PUBLIC "-//W3C//DTD SVG 1.1//EN"
 "http://www.w3.org/Graphics/SVG/1.1/DTD/svg11.dtd">
<!-- Generated by graphviz version 2.44.0 ()
 -->
<!-- Title: com.fs.starfarer.api.impl.campaign.skills.CarrierGroup.Level1 Pages: 1 -->
<!--zoomable 1002 -->
<svg id="main" version="1.1" xmlns="http://www.w3.org/2000/svg" xmlns:xlink="http://www.w3.org/1999/xlink" xml:space="preserve" onload="init(evt)">
<style type="text/css"><![CDATA[
.edge:hover path { stroke: red; }
.edge:hover polygon { stroke: red; fill: red; }
]]></style>
<script type="text/javascript"><![CDATA[
var edges = document.getElementsByTagName('g');
if (edges && edges.length) {
  for (var i=0;i<edges.length;i++) {
    if (edges[i].id.substr(0,4)=='edge') {
      edges[i].setAttribute('class','edge');
    }
  }
}
]]></script>
        <defs>
                <circle id="rim" cx="0" cy="0" r="7"/>
                <circle id="rim2" cx="0" cy="0" r="3.5"/>
                <g id="zoomPlus">
                        <use xlink:href="#rim" fill="#404040">
                                <set attributeName="fill" to="#808080" begin="zoomplus.mouseover" end="zoomplus.mouseout"/>
                        </use>
                        <path d="M-4,0h8M0,-4v8" fill="none" stroke="white" stroke-width="1.5" pointer-events="none"/>
                </g>
                <g id="zoomMin">
                        <use xlink:href="#rim" fill="#404040">
                                <set attributeName="fill" to="#808080" begin="zoomminus.mouseover" end="zoomminus.mouseout"/>
                        </use>
                        <path d="M-4,0h8" fill="none" stroke="white" stroke-width="1.5" pointer-events="none"/>
                </g>
                <g id="dirArrow">
                        <path fill="none" stroke="white" stroke-width="1.5" d="M0,-3.0v7 M-2.5,-0.5L0,-3.0L2.5,-0.5"/>
                </g>
               <g id="resetDef">
                       <use xlink:href="#rim2" fill="#404040">
                               <set attributeName="fill" to="#808080" begin="reset.mouseover" end="reset.mouseout"/>
                       </use>
               </g>
        </defs>

<script type="text/javascript">
var viewWidth = 472;
var viewHeight = 1002;
var sectionId = 'dynsection-1';
</script>
<script xlink:href="../../svgpan.js"/>
<svg id="graph" class="graph">
<g id="viewport">
<title>com.fs.starfarer.api.impl.campaign.skills.CarrierGroup.Level1</title>
<!-- Node1 -->
<g id="node1" class="node">
<title>Node1</title>
<g id="a_node1"><a xlink:title=" ">
<polygon fill="#bfbfbf" stroke="black" points="104,-0.5 104,-123.5 295,-123.5 295,-0.5 104,-0.5"/>
<text text-anchor="start" x="112" y="-111.5" font-family="Helvetica,sans-Serif" font-size="10.00">com.fs.starfarer.api.impl.campaign.skills.</text>
<text text-anchor="middle" x="199.5" y="-100.5" font-family="Helvetica,sans-Serif" font-size="10.00">CarrierGroup.Level1</text>
<polyline fill="none" stroke="black" points="104,-93.5 295,-93.5 "/>
<text text-anchor="middle" x="199.5" y="-81.5" font-family="Helvetica,sans-Serif" font-size="10.00"> </text>
<polyline fill="none" stroke="black" points="104,-74.5 295,-74.5 "/>
<text text-anchor="start" x="112" y="-62.5" font-family="Helvetica,sans-Serif" font-size="10.00">+ getFleetTotalItem()</text>
<text text-anchor="start" x="112" y="-51.5" font-family="Helvetica,sans-Serif" font-size="10.00">+ apply()</text>
<text text-anchor="start" x="112" y="-40.5" font-family="Helvetica,sans-Serif" font-size="10.00">+ unapply()</text>
<text text-anchor="start" x="112" y="-29.5" font-family="Helvetica,sans-Serif" font-size="10.00">+ getEffectDescription()</text>
<text text-anchor="start" x="112" y="-18.5" font-family="Helvetica,sans-Serif" font-size="10.00">+ createCustomDescription()</text>
<text text-anchor="start" x="112" y="-7.5" font-family="Helvetica,sans-Serif" font-size="10.00">+ getScopeDescription()</text>
</a>
</g>
</g>
<!-- Node2 -->
<g id="node2" class="node">
<title>Node2</title>
<g id="a_node2"><a xlink:href="../../d4/da1/classcom_1_1fs_1_1starfarer_1_1api_1_1impl_1_1campaign_1_1skills_1_1BaseSkillEffectDescription.html" target="_top" xlink:title=" ">
<polygon fill="none" stroke="black" points="102,-161.5 102,-669.5 297,-669.5 297,-161.5 102,-161.5"/>
<text text-anchor="start" x="110" y="-657.5" font-family="Helvetica,sans-Serif" font-size="10.00">com.fs.starfarer.api.impl.campaign.skills.</text>
<text text-anchor="middle" x="199.5" y="-646.5" font-family="Helvetica,sans-Serif" font-size="10.00">BaseSkillEffectDescription</text>
<polyline fill="none" stroke="black" points="102,-639.5 297,-639.5 "/>
<text text-anchor="start" x="110" y="-627.5" font-family="Helvetica,sans-Serif" font-size="10.00">+ TOOLTIP_WIDTH</text>
<text text-anchor="start" x="110" y="-616.5" font-family="Helvetica,sans-Serif" font-size="10.00">+ FIGHTER_BAYS_THRESHOLD</text>
<text text-anchor="start" x="110" y="-605.5" font-family="Helvetica,sans-Serif" font-size="10.00">+ OP_THRESHOLD</text>
<text text-anchor="start" x="110" y="-594.5" font-family="Helvetica,sans-Serif" font-size="10.00">+ OP_LOW_THRESHOLD</text>
<text text-anchor="start" x="110" y="-583.5" font-family="Helvetica,sans-Serif" font-size="10.00">+ OP_ALL_LOW_THRESHOLD</text>
<text text-anchor="start" x="110" y="-572.5" font-family="Helvetica,sans-Serif" font-size="10.00">+ OP_ALL_THRESHOLD</text>
<text text-anchor="start" x="110" y="-561.5" font-family="Helvetica,sans-Serif" font-size="10.00">+ PHASE_OP_THRESHOLD</text>
<text text-anchor="start" x="110" y="-550.5" font-family="Helvetica,sans-Serif" font-size="10.00">+ MILITARIZED_OP_THRESHOLD</text>
<text text-anchor="start" x="110" y="-539.5" font-family="Helvetica,sans-Serif" font-size="10.00">+ AUTOMATED_POINTS_THRESHOLD</text>
<text text-anchor="start" x="110" y="-528.5" font-family="Helvetica,sans-Serif" font-size="10.00">+ USE_RECOVERY_COST</text>
<text text-anchor="start" x="110" y="-517.5" font-family="Helvetica,sans-Serif" font-size="10.00">+ RECOVERY_COST</text>
<text text-anchor="start" x="110" y="-506.5" font-family="Helvetica,sans-Serif" font-size="10.00"># indent</text>
<text text-anchor="start" x="110" y="-495.5" font-family="Helvetica,sans-Serif" font-size="10.00"># alpha</text>
<polyline fill="none" stroke="black" points="102,-488.5 297,-488.5 "/>
<text text-anchor="start" x="110" y="-476.5" font-family="Helvetica,sans-Serif" font-size="10.00">+ init()</text>
<text text-anchor="start" x="110" y="-465.5" font-family="Helvetica,sans-Serif" font-size="10.00">+ initElite()</text>
<text text-anchor="start" x="110" y="-454.5" font-family="Helvetica,sans-Serif" font-size="10.00">+ addFighterBayThresholdInfo()</text>
<text text-anchor="start" x="110" y="-443.5" font-family="Helvetica,sans-Serif" font-size="10.00">+ addOPThresholdInfo()</text>
<text text-anchor="start" x="110" y="-432.5" font-family="Helvetica,sans-Serif" font-size="10.00">+ addOPThresholdInfo()</text>
<text text-anchor="start" x="110" y="-421.5" font-family="Helvetica,sans-Serif" font-size="10.00">+ addOPThresholdAll()</text>
<text text-anchor="start" x="110" y="-410.5" font-family="Helvetica,sans-Serif" font-size="10.00">+ addPhaseOPThresholdInfo()</text>
<text text-anchor="start" x="110" y="-399.5" font-family="Helvetica,sans-Serif" font-size="10.00">+ addAutomatedThresholdInfo()</text>
<text text-anchor="start" x="110" y="-388.5" font-family="Helvetica,sans-Serif" font-size="10.00">+ addMilitarizedOPThreshold</text>
<text text-anchor="start" x="110" y="-377.5" font-family="Helvetica,sans-Serif" font-size="10.00">Info()</text>
<text text-anchor="start" x="110" y="-366.5" font-family="Helvetica,sans-Serif" font-size="10.00">+ getOPTotal()</text>
<text text-anchor="start" x="110" y="-355.5" font-family="Helvetica,sans-Serif" font-size="10.00">and 13 more...</text>
<text text-anchor="start" x="110" y="-344.5" font-family="Helvetica,sans-Serif" font-size="10.00">+ getValueLabelForMember()</text>
<text text-anchor="start" x="110" y="-333.5" font-family="Helvetica,sans-Serif" font-size="10.00">+ isMilitarized()</text>
<text text-anchor="start" x="110" y="-322.5" font-family="Helvetica,sans-Serif" font-size="10.00">+ isMilitarized()</text>
<text text-anchor="start" x="110" y="-311.5" font-family="Helvetica,sans-Serif" font-size="10.00">+ isCivilian()</text>
<text text-anchor="start" x="110" y="-300.5" font-family="Helvetica,sans-Serif" font-size="10.00">+ isCivilian()</text>
<text text-anchor="start" x="110" y="-289.5" font-family="Helvetica,sans-Serif" font-size="10.00">+ hasFighterBays()</text>
<text text-anchor="start" x="110" y="-278.5" font-family="Helvetica,sans-Serif" font-size="10.00">+ hasFighterBays()</text>
<text text-anchor="start" x="110" y="-267.5" font-family="Helvetica,sans-Serif" font-size="10.00">+ getTotalOP()</text>
<text text-anchor="start" x="110" y="-256.5" font-family="Helvetica,sans-Serif" font-size="10.00">+ getTotalOPDetail()</text>
<text text-anchor="start" x="110" y="-245.5" font-family="Helvetica,sans-Serif" font-size="10.00">+ getTotalCombatOP()</text>
<text text-anchor="start" x="110" y="-234.5" font-family="Helvetica,sans-Serif" font-size="10.00">and 13 more...</text>
<text text-anchor="start" x="110" y="-223.5" font-family="Helvetica,sans-Serif" font-size="10.00">~ [static initializer]()</text>
<text text-anchor="start" x="110" y="-212.5" font-family="Helvetica,sans-Serif" font-size="10.00"># computeAndCacheThreshold</text>
<text text-anchor="start" x="110" y="-201.5" font-family="Helvetica,sans-Serif" font-size="10.00">Bonus()</text>
<text text-anchor="start" x="110" y="-190.5" font-family="Helvetica,sans-Serif" font-size="10.00"># computeAndCacheThreshold</text>
<text text-anchor="start" x="110" y="-179.5" font-family="Helvetica,sans-Serif" font-size="10.00">Bonus()</text>
<text text-anchor="start" x="110" y="-168.5" font-family="Helvetica,sans-Serif" font-size="10.00"># getPoints()</text>
</a>
</g>
</g>
<!-- Node2&#45;&gt;Node1 -->
<g id="edge1" class="edge">
<title>Node2&#45;&gt;Node1</title>
<path fill="none" stroke="midnightblue" d="M199.5,-151.11C199.5,-141.42 199.5,-132.2 199.5,-123.64"/>
<polygon fill="none" stroke="midnightblue" points="196,-151.38 199.5,-161.38 203,-151.38 196,-151.38"/>
</g>
<!-- Node3 -->
<g id="node3" class="node">
<title>Node3</title>
<g id="a_node3"><a xlink:href="../../de/d6e/interfacecom_1_1fs_1_1starfarer_1_1api_1_1characters_1_1CustomSkillDescription.html" target="_top" xlink:title=" ">
<polygon fill="none" stroke="black" points="196,-786.5 196,-865.5 345,-865.5 345,-786.5 196,-786.5"/>
<text text-anchor="start" x="204" y="-853.5" font-family="Helvetica,sans-Serif" font-size="10.00">com.fs.starfarer.api.characters.</text>
<text text-anchor="middle" x="270.5" y="-842.5" font-family="Helvetica,sans-Serif" font-size="10.00">CustomSkillDescription</text>
<polyline fill="none" stroke="black" points="196,-835.5 345,-835.5 "/>
<text text-anchor="middle" x="270.5" y="-823.5" font-family="Helvetica,sans-Serif" font-size="10.00"> </text>
<polyline fill="none" stroke="black" points="196,-816.5 345,-816.5 "/>
<text text-anchor="start" x="204" y="-804.5" font-family="Helvetica,sans-Serif" font-size="10.00">+ hasCustomDescription()</text>
<text text-anchor="start" x="204" y="-793.5" font-family="Helvetica,sans-Serif" font-size="10.00">+ createCustomDescription()</text>
</a>
</g>
</g>
<!-- Node3&#45;&gt;Node2 -->
<g id="edge2" class="edge">
<title>Node3&#45;&gt;Node2</title>
<path fill="none" stroke="midnightblue" d="M262.03,-776.26C257.13,-748.06 250.54,-710.16 243.48,-669.53"/>
<polygon fill="none" stroke="midnightblue" points="258.6,-776.95 263.76,-786.2 265.49,-775.75 258.6,-776.95"/>
</g>
<!-- Node4 -->
<g id="node4" class="node">
<title>Node4</title>
<g id="a_node4"><a xlink:href="../../d6/daf/interfacecom_1_1fs_1_1starfarer_1_1api_1_1characters_1_1LevelBasedEffect.html" target="_top" xlink:title=" ">
<polygon fill="none" stroke="black" points="32,-903.5 32,-993.5 189,-993.5 189,-903.5 32,-903.5"/>
<text text-anchor="start" x="40" y="-981.5" font-family="Helvetica,sans-Serif" font-size="10.00">com.fs.starfarer.api.characters.</text>
<text text-anchor="middle" x="110.5" y="-970.5" font-family="Helvetica,sans-Serif" font-size="10.00">LevelBasedEffect</text>
<polyline fill="none" stroke="black" points="32,-963.5 189,-963.5 "/>
<text text-anchor="middle" x="110.5" y="-951.5" font-family="Helvetica,sans-Serif" font-size="10.00"> </text>
<polyline fill="none" stroke="black" points="32,-944.5 189,-944.5 "/>
<text text-anchor="start" x="40" y="-932.5" font-family="Helvetica,sans-Serif" font-size="10.00">+ getEffectDescription()</text>
<text text-anchor="start" x="40" y="-921.5" font-family="Helvetica,sans-Serif" font-size="10.00">+ getEffectPerLevelDescription()</text>
<text text-anchor="start" x="40" y="-910.5" font-family="Helvetica,sans-Serif" font-size="10.00">+ getScopeDescription()</text>
</a>
</g>
</g>
<!-- Node4&#45;&gt;Node3 -->
<g id="edge3" class="edge">
<title>Node4&#45;&gt;Node3</title>
<path fill="none" stroke="midnightblue" d="M177.34,-897.16C191.34,-886.62 205.9,-875.65 219.23,-865.61"/>
<polygon fill="none" stroke="midnightblue" points="175.05,-894.5 169.17,-903.31 179.26,-900.09 175.05,-894.5"/>
</g>
<!-- Node6 -->
<g id="node6" class="node">
<title>Node6</title>
<g id="a_node6"><a xlink:href="../../de/d03/interfacecom_1_1fs_1_1starfarer_1_1api_1_1characters_1_1ShipSkillEffect.html" target="_top" xlink:title=" ">
<polygon fill="none" stroke="black" points="0,-688.5 0,-767.5 149,-767.5 149,-688.5 0,-688.5"/>
<text text-anchor="start" x="8" y="-755.5" font-family="Helvetica,sans-Serif" font-size="10.00">com.fs.starfarer.api.characters.</text>
<text text-anchor="middle" x="74.5" y="-744.5" font-family="Helvetica,sans-Serif" font-size="10.00">ShipSkillEffect</text>
<polyline fill="none" stroke="black" points="0,-737.5 149,-737.5 "/>
<text text-anchor="middle" x="74.5" y="-725.5" font-family="Helvetica,sans-Serif" font-size="10.00"> </text>
<polyline fill="none" stroke="black" points="0,-718.5 149,-718.5 "/>
<text text-anchor="start" x="8" y="-706.5" font-family="Helvetica,sans-Serif" font-size="10.00">+ apply()</text>
<text text-anchor="start" x="8" y="-695.5" font-family="Helvetica,sans-Serif" font-size="10.00">+ unapply()</text>
</a>
</g>
</g>
<!-- Node4&#45;&gt;Node6 -->
<g id="edge6" class="edge">
<title>Node4&#45;&gt;Node6</title>
<path fill="none" stroke="midnightblue" d="M101.55,-893.15C95.12,-854.14 86.61,-802.52 80.87,-767.67"/>
<polygon fill="none" stroke="midnightblue" points="98.14,-893.99 103.21,-903.28 105.04,-892.85 98.14,-893.99"/>
</g>
<!-- Node5 -->
<g id="node5" class="node">
<title>Node5</title>
<g id="a_node5"><a xlink:title=" ">
<polygon fill="none" stroke="#bfbfbf" points="139,-797.5 139,-854.5 178,-854.5 178,-797.5 139,-797.5"/>
<text text-anchor="middle" x="158.5" y="-842.5" font-family="Helvetica,sans-Serif" font-size="10.00">Color</text>
<polyline fill="none" stroke="#bfbfbf" points="139,-835.5 178,-835.5 "/>
<text text-anchor="middle" x="158.5" y="-823.5" font-family="Helvetica,sans-Serif" font-size="10.00"> </text>
<polyline fill="none" stroke="#bfbfbf" points="139,-816.5 178,-816.5 "/>
<text text-anchor="middle" x="158.5" y="-804.5" font-family="Helvetica,sans-Serif" font-size="10.00"> </text>
</a>
</g>
</g>
<!-- Node5&#45;&gt;Node2 -->
<g id="edge4" class="edge">
<title>Node5&#45;&gt;Node2</title>
<path fill="none" stroke="#404040" d="M161.29,-797.24C163.92,-771 168.16,-728.73 172.88,-681.72"/>
<polygon fill="none" stroke="#404040" points="172.89,-681.61 169.51,-675.24 174.09,-669.67 177.47,-676.04 172.89,-681.61"/>
<text text-anchor="middle" x="184.5" y="-742" font-family="Helvetica,sans-Serif" font-size="10.00"> #dhc</text>
<text text-anchor="middle" x="184.5" y="-731" font-family="Helvetica,sans-Serif" font-size="10.00">#dtc</text>
<text text-anchor="middle" x="184.5" y="-720" font-family="Helvetica,sans-Serif" font-size="10.00">#hc</text>
<text text-anchor="middle" x="184.5" y="-709" font-family="Helvetica,sans-Serif" font-size="10.00">#tc</text>
</g>
<!-- Node6&#45;&gt;Node1 -->
<g id="edge5" class="edge">
<title>Node6&#45;&gt;Node1</title>
<path fill="none" stroke="midnightblue" d="M63.97,-678.32C44.5,-576.67 11.77,-336.77 92.5,-161 98.76,-147.38 107.88,-134.8 118.21,-123.5"/>
<polygon fill="none" stroke="midnightblue" points="60.57,-679.15 65.93,-688.29 67.44,-677.8 60.57,-679.15"/>
</g>
<!-- Node7 -->
<g id="node7" class="node">
<title>Node7</title>
<g id="a_node7"><a xlink:href="../../d9/d72/interfacecom_1_1fs_1_1starfarer_1_1api_1_1characters_1_1FleetTotalSource.html" target="_top" xlink:title=" ">
<polygon fill="none" stroke="black" points="315,-381.5 315,-449.5 464,-449.5 464,-381.5 315,-381.5"/>
<text text-anchor="start" x="323" y="-437.5" font-family="Helvetica,sans-Serif" font-size="10.00">com.fs.starfarer.api.characters.</text>
<text text-anchor="middle" x="389.5" y="-426.5" font-family="Helvetica,sans-Serif" font-size="10.00">FleetTotalSource</text>
<polyline fill="none" stroke="black" points="315,-419.5 464,-419.5 "/>
<text text-anchor="middle" x="389.5" y="-407.5" font-family="Helvetica,sans-Serif" font-size="10.00"> </text>
<polyline fill="none" stroke="black" points="315,-400.5 464,-400.5 "/>
<text text-anchor="start" x="323" y="-388.5" font-family="Helvetica,sans-Serif" font-size="10.00">+ getFleetTotalItem()</text>
</a>
</g>
</g>
<!-- Node7&#45;&gt;Node1 -->
<g id="edge7" class="edge">
<title>Node7&#45;&gt;Node1</title>
<path fill="none" stroke="midnightblue" d="M382.09,-371.35C371.52,-318.47 348.46,-227.69 305.5,-161 297.02,-147.83 286.36,-135.25 275.09,-123.76"/>
<polygon fill="none" stroke="midnightblue" points="378.7,-372.25 384.04,-381.4 385.57,-370.92 378.7,-372.25"/>
</g>
</g>
</svg>
        <g id="navigator" transform="translate(0 0)" fill="#404254">
                <rect fill="#f2f5e9" fill-opacity="0.5" stroke="#606060" stroke-width=".5" x="0" y="0" width="60" height="60"/>
                <use id="zoomplus" xlink:href="#zoomPlus" x="17" y="9" onmousedown="handleZoom(evt,'in')"/>
                <use id="zoomminus" xlink:href="#zoomMin" x="42" y="9" onmousedown="handleZoom(evt,'out')"/>
                <use id="reset" xlink:href="#resetDef" x="30" y="36" onmousedown="handleReset()"/>
                <g id="arrowUp" xlink:href="#dirArrow" transform="translate(30 24)" onmousedown="handlePan(0,-1)">
                  <use xlink:href="#rim" fill="#404040">
                        <set attributeName="fill" to="#808080" begin="arrowUp.mouseover" end="arrowUp.mouseout"/>
                  </use>
                  <path fill="none" stroke="white" stroke-width="1.5" d="M0,-3.0v7 M-2.5,-0.5L0,-3.0L2.5,-0.5"/>
                </g>
                <g id="arrowRight" xlink:href="#dirArrow" transform="rotate(90) translate(36 -43)" onmousedown="handlePan(1,0)">
                  <use xlink:href="#rim" fill="#404040">
                        <set attributeName="fill" to="#808080" begin="arrowRight.mouseover" end="arrowRight.mouseout"/>
                  </use>
                  <path fill="none" stroke="white" stroke-width="1.5" d="M0,-3.0v7 M-2.5,-0.5L0,-3.0L2.5,-0.5"/>
                </g>
                <g id="arrowDown" xlink:href="#dirArrow" transform="rotate(180) translate(-30 -48)" onmousedown="handlePan(0,1)">
                  <use xlink:href="#rim" fill="#404040">
                        <set attributeName="fill" to="#808080" begin="arrowDown.mouseover" end="arrowDown.mouseout"/>
                  </use>
                  <path fill="none" stroke="white" stroke-width="1.5" d="M0,-3.0v7 M-2.5,-0.5L0,-3.0L2.5,-0.5"/>
                </g>
                <g id="arrowLeft" xlink:href="#dirArrow" transform="rotate(270) translate(-36 17)" onmousedown="handlePan(-1,0)">
                  <use xlink:href="#rim" fill="#404040">
                        <set attributeName="fill" to="#808080" begin="arrowLeft.mouseover" end="arrowLeft.mouseout"/>
                  </use>
                  <path fill="none" stroke="white" stroke-width="1.5" d="M0,-3.0v7 M-2.5,-0.5L0,-3.0L2.5,-0.5"/>
                </g>
        </g>
        <svg viewBox="0 0 15 15" width="100%" height="30px" preserveAspectRatio="xMaxYMin meet">
         <g id="arrow_out" transform="scale(0.3 0.3)">
          <a xlink:href="classcom_1_1fs_1_1starfarer_1_1api_1_1impl_1_1campaign_1_1skills_1_1CarrierGroup_1_1Level1__coll__graph_org.svg" target="_base">
           <rect id="button" ry="5" rx="5" y="6" x="6" height="38" width="38"
                fill="#f2f5e9" fill-opacity="0.5" stroke="#606060" stroke-width="1.0"/>
           <path id="arrow"
             d="M 11.500037,31.436501 C 11.940474,20.09759 22.043105,11.32322 32.158766,21.979434 L 37.068811,17.246167 C 37.068811,17.246167 37.088388,32 37.088388,32 L 22.160133,31.978069 C 22.160133,31.978069 26.997745,27.140456 26.997745,27.140456 C 18.528582,18.264221 13.291696,25.230495 11.500037,31.436501 z"
             style="fill:#404040;"/>
          </a>
         </g>
        </svg>
</svg>
