<?xml version="1.0" encoding="UTF-8" standalone="no"?>
<!DOCTYPE svg PUBLIC "-//W3C//DTD SVG 1.1//EN"
 "http://www.w3.org/Graphics/SVG/1.1/DTD/svg11.dtd">
<!-- Generated by graphviz version 2.44.0 ()
 -->
<!-- Title: com.fs.starfarer.api.impl.campaign.terrain.RadioChatterTerrainPlugin.RadioChatterParams Pages: 1 -->
<svg width="230pt" height="559pt"
 viewBox="0.00 0.00 230.00 559.00" xmlns="http://www.w3.org/2000/svg" xmlns:xlink="http://www.w3.org/1999/xlink">
<g id="graph0" class="graph" transform="scale(1 1) rotate(0) translate(4 555)">
<title>com.fs.starfarer.api.impl.campaign.terrain.RadioChatterTerrainPlugin.RadioChatterParams</title>
<!-- Node1 -->
<g id="node1" class="node">
<title>Node1</title>
<g id="a_node1"><a xlink:title=" ">
<polygon fill="#bfbfbf" stroke="black" points="0,-0.5 0,-68.5 222,-68.5 222,-0.5 0,-0.5"/>
<text text-anchor="start" x="8" y="-56.5" font-family="Helvetica,sans-Serif" font-size="10.00">com.fs.starfarer.api.impl.campaign.terrain.</text>
<text text-anchor="middle" x="111" y="-45.5" font-family="Helvetica,sans-Serif" font-size="10.00">RadioChatterTerrainPlugin.RadioChatterParams</text>
<polyline fill="none" stroke="black" points="0,-38.5 222,-38.5 "/>
<text text-anchor="middle" x="111" y="-26.5" font-family="Helvetica,sans-Serif" font-size="10.00"> </text>
<polyline fill="none" stroke="black" points="0,-19.5 222,-19.5 "/>
<text text-anchor="start" x="8" y="-7.5" font-family="Helvetica,sans-Serif" font-size="10.00">+ RadioChatterParams()</text>
</a>
</g>
</g>
<!-- Node2 -->
<g id="node2" class="node">
<title>Node2</title>
<g id="a_node2"><a xlink:href="../../d7/dd4/classcom_1_1fs_1_1starfarer_1_1api_1_1impl_1_1campaign_1_1terrain_1_1BaseRingTerrain_1_1RingParams.html" target="_top" xlink:title=" ">
<polygon fill="none" stroke="black" points="13.5,-106.5 13.5,-207.5 208.5,-207.5 208.5,-106.5 13.5,-106.5"/>
<text text-anchor="start" x="21.5" y="-195.5" font-family="Helvetica,sans-Serif" font-size="10.00">com.fs.starfarer.api.impl.campaign.terrain.</text>
<text text-anchor="middle" x="111" y="-184.5" font-family="Helvetica,sans-Serif" font-size="10.00">BaseRingTerrain.RingParams</text>
<polyline fill="none" stroke="black" points="13.5,-177.5 208.5,-177.5 "/>
<text text-anchor="start" x="21.5" y="-165.5" font-family="Helvetica,sans-Serif" font-size="10.00">+ bandWidthInEngine</text>
<text text-anchor="start" x="21.5" y="-154.5" font-family="Helvetica,sans-Serif" font-size="10.00">+ middleRadius</text>
<text text-anchor="start" x="21.5" y="-143.5" font-family="Helvetica,sans-Serif" font-size="10.00">+ name</text>
<polyline fill="none" stroke="black" points="13.5,-136.5 208.5,-136.5 "/>
<text text-anchor="start" x="21.5" y="-124.5" font-family="Helvetica,sans-Serif" font-size="10.00">+ RingParams()</text>
<text text-anchor="start" x="21.5" y="-113.5" font-family="Helvetica,sans-Serif" font-size="10.00">+ RingParams()</text>
</a>
</g>
</g>
<!-- Node2&#45;&gt;Node1 -->
<g id="edge1" class="edge">
<title>Node2&#45;&gt;Node1</title>
<path fill="none" stroke="midnightblue" d="M111,-96.07C111,-86.61 111,-77.14 111,-68.59"/>
<polygon fill="none" stroke="midnightblue" points="107.5,-96.29 111,-106.29 114.5,-96.29 107.5,-96.29"/>
</g>
<!-- Node3 -->
<g id="node3" class="node">
<title>Node3</title>
<g id="a_node3"><a xlink:href="../../d6/de1/interfacecom_1_1fs_1_1starfarer_1_1api_1_1campaign_1_1SectorEntityToken.html" target="_top" xlink:title=" ">
<polygon fill="none" stroke="black" points="38,-255.5 38,-433.5 184,-433.5 184,-255.5 38,-255.5"/>
<text text-anchor="start" x="46" y="-421.5" font-family="Helvetica,sans-Serif" font-size="10.00">com.fs.starfarer.api.campaign.</text>
<text text-anchor="middle" x="111" y="-410.5" font-family="Helvetica,sans-Serif" font-size="10.00">SectorEntityToken</text>
<polyline fill="none" stroke="black" points="38,-403.5 184,-403.5 "/>
<text text-anchor="middle" x="111" y="-391.5" font-family="Helvetica,sans-Serif" font-size="10.00"> </text>
<polyline fill="none" stroke="black" points="38,-384.5 184,-384.5 "/>
<text text-anchor="start" x="46" y="-372.5" font-family="Helvetica,sans-Serif" font-size="10.00">+ isPlayerFleet()</text>
<text text-anchor="start" x="46" y="-361.5" font-family="Helvetica,sans-Serif" font-size="10.00">+ getMarket()</text>
<text text-anchor="start" x="46" y="-350.5" font-family="Helvetica,sans-Serif" font-size="10.00">+ setMarket()</text>
<text text-anchor="start" x="46" y="-339.5" font-family="Helvetica,sans-Serif" font-size="10.00">+ getCargo()</text>
<text text-anchor="start" x="46" y="-328.5" font-family="Helvetica,sans-Serif" font-size="10.00">+ getLocation()</text>
<text text-anchor="start" x="46" y="-317.5" font-family="Helvetica,sans-Serif" font-size="10.00">+ getLocationInHyperspace()</text>
<text text-anchor="start" x="46" y="-306.5" font-family="Helvetica,sans-Serif" font-size="10.00">+ getOrbit()</text>
<text text-anchor="start" x="46" y="-295.5" font-family="Helvetica,sans-Serif" font-size="10.00">+ setOrbit()</text>
<text text-anchor="start" x="46" y="-284.5" font-family="Helvetica,sans-Serif" font-size="10.00">+ getId()</text>
<text text-anchor="start" x="46" y="-273.5" font-family="Helvetica,sans-Serif" font-size="10.00">+ getName()</text>
<text text-anchor="start" x="46" y="-262.5" font-family="Helvetica,sans-Serif" font-size="10.00">and 115 more...</text>
</a>
</g>
</g>
<!-- Node3&#45;&gt;Node2 -->
<g id="edge2" class="edge">
<title>Node3&#45;&gt;Node2</title>
<path fill="none" stroke="#404040" d="M111,-255.37C111,-243.29 111,-231.1 111,-219.63"/>
<polygon fill="none" stroke="#404040" points="111,-219.5 107,-213.51 111,-207.5 115,-213.5 111,-219.5"/>
<text text-anchor="middle" x="142" y="-229" font-family="Helvetica,sans-Serif" font-size="10.00"> +relatedEntity</text>
</g>
<!-- Node4 -->
<g id="node4" class="node">
<title>Node4</title>
<g id="a_node4"><a xlink:href="../../de/da5/interfacecom_1_1fs_1_1starfarer_1_1api_1_1campaign_1_1rules_1_1HasMemory.html" target="_top" xlink:title=" ">
<polygon fill="none" stroke="black" points="26.5,-471.5 26.5,-550.5 195.5,-550.5 195.5,-471.5 26.5,-471.5"/>
<text text-anchor="start" x="34.5" y="-538.5" font-family="Helvetica,sans-Serif" font-size="10.00">com.fs.starfarer.api.campaign.rules.</text>
<text text-anchor="middle" x="111" y="-527.5" font-family="Helvetica,sans-Serif" font-size="10.00">HasMemory</text>
<polyline fill="none" stroke="black" points="26.5,-520.5 195.5,-520.5 "/>
<text text-anchor="middle" x="111" y="-508.5" font-family="Helvetica,sans-Serif" font-size="10.00"> </text>
<polyline fill="none" stroke="black" points="26.5,-501.5 195.5,-501.5 "/>
<text text-anchor="start" x="34.5" y="-489.5" font-family="Helvetica,sans-Serif" font-size="10.00">+ getMemory()</text>
<text text-anchor="start" x="34.5" y="-478.5" font-family="Helvetica,sans-Serif" font-size="10.00">+ getMemoryWithoutUpdate()</text>
</a>
</g>
</g>
<!-- Node4&#45;&gt;Node3 -->
<g id="edge3" class="edge">
<title>Node4&#45;&gt;Node3</title>
<path fill="none" stroke="midnightblue" d="M111,-461.39C111,-452.56 111,-443.11 111,-433.55"/>
<polygon fill="none" stroke="midnightblue" points="107.5,-461.43 111,-471.43 114.5,-461.43 107.5,-461.43"/>
</g>
</g>
</svg>
