<?xml version="1.0" encoding="UTF-8" standalone="no"?>
<!DOCTYPE svg PUBLIC "-//W3C//DTD SVG 1.1//EN"
 "http://www.w3.org/Graphics/SVG/1.1/DTD/svg11.dtd">
<!-- Generated by graphviz version 2.44.0 ()
 -->
<!-- Title: com.fs.starfarer.api.impl.campaign.fleets.PatrolFleetManager.PatrolFleetData Pages: 1 -->
<!--zoomable 814 -->
<svg id="main" version="1.1" xmlns="http://www.w3.org/2000/svg" xmlns:xlink="http://www.w3.org/1999/xlink" xml:space="preserve" onload="init(evt)">
<style type="text/css"><![CDATA[
.edge:hover path { stroke: red; }
.edge:hover polygon { stroke: red; fill: red; }
]]></style>
<script type="text/javascript"><![CDATA[
var edges = document.getElementsByTagName('g');
if (edges && edges.length) {
  for (var i=0;i<edges.length;i++) {
    if (edges[i].id.substr(0,4)=='edge') {
      edges[i].setAttribute('class','edge');
    }
  }
}
]]></script>
        <defs>
                <circle id="rim" cx="0" cy="0" r="7"/>
                <circle id="rim2" cx="0" cy="0" r="3.5"/>
                <g id="zoomPlus">
                        <use xlink:href="#rim" fill="#404040">
                                <set attributeName="fill" to="#808080" begin="zoomplus.mouseover" end="zoomplus.mouseout"/>
                        </use>
                        <path d="M-4,0h8M0,-4v8" fill="none" stroke="white" stroke-width="1.5" pointer-events="none"/>
                </g>
                <g id="zoomMin">
                        <use xlink:href="#rim" fill="#404040">
                                <set attributeName="fill" to="#808080" begin="zoomminus.mouseover" end="zoomminus.mouseout"/>
                        </use>
                        <path d="M-4,0h8" fill="none" stroke="white" stroke-width="1.5" pointer-events="none"/>
                </g>
                <g id="dirArrow">
                        <path fill="none" stroke="white" stroke-width="1.5" d="M0,-3.0v7 M-2.5,-0.5L0,-3.0L2.5,-0.5"/>
                </g>
               <g id="resetDef">
                       <use xlink:href="#rim2" fill="#404040">
                               <set attributeName="fill" to="#808080" begin="reset.mouseover" end="reset.mouseout"/>
                       </use>
               </g>
        </defs>

<script type="text/javascript">
var viewWidth = 534;
var viewHeight = 814;
var sectionId = 'dynsection-0';
</script>
<script xlink:href="../../svgpan.js"/>
<svg id="graph" class="graph">
<g id="viewport">
<title>com.fs.starfarer.api.impl.campaign.fleets.PatrolFleetManager.PatrolFleetData</title>
<!-- Node1 -->
<g id="node1" class="node">
<title>Node1</title>
<g id="a_node1"><a xlink:title=" ">
<polygon fill="#bfbfbf" stroke="black" points="148,-0.5 148,-68.5 339,-68.5 339,-0.5 148,-0.5"/>
<text text-anchor="start" x="156" y="-56.5" font-family="Helvetica,sans-Serif" font-size="10.00">com.fs.starfarer.api.impl.campaign.fleets.</text>
<text text-anchor="middle" x="243.5" y="-45.5" font-family="Helvetica,sans-Serif" font-size="10.00">PatrolFleetManager.PatrolFleetData</text>
<polyline fill="none" stroke="black" points="148,-38.5 339,-38.5 "/>
<text text-anchor="start" x="156" y="-26.5" font-family="Helvetica,sans-Serif" font-size="10.00">+ startingFleetPoints</text>
<polyline fill="none" stroke="black" points="148,-19.5 339,-19.5 "/>
<text text-anchor="start" x="156" y="-7.5" font-family="Helvetica,sans-Serif" font-size="10.00">+ PatrolFleetData()</text>
</a>
</g>
</g>
<!-- Node2 -->
<g id="node2" class="node">
<title>Node2</title>
<g id="a_node2"><a xlink:href="../../db/d56/interfacecom_1_1fs_1_1starfarer_1_1api_1_1campaign_1_1CampaignFleetAPI.html" target="_top" xlink:title=" ">
<polygon fill="none" stroke="black" points="170.5,-116.5 170.5,-294.5 316.5,-294.5 316.5,-116.5 170.5,-116.5"/>
<text text-anchor="start" x="178.5" y="-282.5" font-family="Helvetica,sans-Serif" font-size="10.00">com.fs.starfarer.api.campaign.</text>
<text text-anchor="middle" x="243.5" y="-271.5" font-family="Helvetica,sans-Serif" font-size="10.00">CampaignFleetAPI</text>
<polyline fill="none" stroke="black" points="170.5,-264.5 316.5,-264.5 "/>
<text text-anchor="middle" x="243.5" y="-252.5" font-family="Helvetica,sans-Serif" font-size="10.00"> </text>
<polyline fill="none" stroke="black" points="170.5,-245.5 316.5,-245.5 "/>
<text text-anchor="start" x="178.5" y="-233.5" font-family="Helvetica,sans-Serif" font-size="10.00">+ isInCurrentLocation()</text>
<text text-anchor="start" x="178.5" y="-222.5" font-family="Helvetica,sans-Serif" font-size="10.00">+ isInHyperspace()</text>
<text text-anchor="start" x="178.5" y="-211.5" font-family="Helvetica,sans-Serif" font-size="10.00">+ setLocation()</text>
<text text-anchor="start" x="178.5" y="-200.5" font-family="Helvetica,sans-Serif" font-size="10.00">+ despawn()</text>
<text text-anchor="start" x="178.5" y="-189.5" font-family="Helvetica,sans-Serif" font-size="10.00">+ despawn()</text>
<text text-anchor="start" x="178.5" y="-178.5" font-family="Helvetica,sans-Serif" font-size="10.00">+ addAssignment()</text>
<text text-anchor="start" x="178.5" y="-167.5" font-family="Helvetica,sans-Serif" font-size="10.00">+ addAssignment()</text>
<text text-anchor="start" x="178.5" y="-156.5" font-family="Helvetica,sans-Serif" font-size="10.00">+ addAssignment()</text>
<text text-anchor="start" x="178.5" y="-145.5" font-family="Helvetica,sans-Serif" font-size="10.00">+ addAssignment()</text>
<text text-anchor="start" x="178.5" y="-134.5" font-family="Helvetica,sans-Serif" font-size="10.00">+ clearAssignments()</text>
<text text-anchor="start" x="178.5" y="-123.5" font-family="Helvetica,sans-Serif" font-size="10.00">and 92 more...</text>
</a>
</g>
</g>
<!-- Node2&#45;&gt;Node1 -->
<g id="edge1" class="edge">
<title>Node2&#45;&gt;Node1</title>
<path fill="none" stroke="#404040" d="M243.5,-116.04C243.5,-103.87 243.5,-91.81 243.5,-80.87"/>
<polygon fill="none" stroke="#404040" points="243.5,-80.61 239.5,-74.61 243.5,-68.61 247.5,-74.61 243.5,-80.61"/>
<text text-anchor="middle" x="257" y="-90" font-family="Helvetica,sans-Serif" font-size="10.00"> +fleet</text>
</g>
<!-- Node3 -->
<g id="node3" class="node">
<title>Node3</title>
<g id="a_node3"><a xlink:href="../../d6/de1/interfacecom_1_1fs_1_1starfarer_1_1api_1_1campaign_1_1SectorEntityToken.html" target="_top" xlink:title=" ">
<polygon fill="none" stroke="black" points="276.5,-510.5 276.5,-688.5 422.5,-688.5 422.5,-510.5 276.5,-510.5"/>
<text text-anchor="start" x="284.5" y="-676.5" font-family="Helvetica,sans-Serif" font-size="10.00">com.fs.starfarer.api.campaign.</text>
<text text-anchor="middle" x="349.5" y="-665.5" font-family="Helvetica,sans-Serif" font-size="10.00">SectorEntityToken</text>
<polyline fill="none" stroke="black" points="276.5,-658.5 422.5,-658.5 "/>
<text text-anchor="middle" x="349.5" y="-646.5" font-family="Helvetica,sans-Serif" font-size="10.00"> </text>
<polyline fill="none" stroke="black" points="276.5,-639.5 422.5,-639.5 "/>
<text text-anchor="start" x="284.5" y="-627.5" font-family="Helvetica,sans-Serif" font-size="10.00">+ isPlayerFleet()</text>
<text text-anchor="start" x="284.5" y="-616.5" font-family="Helvetica,sans-Serif" font-size="10.00">+ getMarket()</text>
<text text-anchor="start" x="284.5" y="-605.5" font-family="Helvetica,sans-Serif" font-size="10.00">+ setMarket()</text>
<text text-anchor="start" x="284.5" y="-594.5" font-family="Helvetica,sans-Serif" font-size="10.00">+ getCargo()</text>
<text text-anchor="start" x="284.5" y="-583.5" font-family="Helvetica,sans-Serif" font-size="10.00">+ getLocation()</text>
<text text-anchor="start" x="284.5" y="-572.5" font-family="Helvetica,sans-Serif" font-size="10.00">+ getLocationInHyperspace()</text>
<text text-anchor="start" x="284.5" y="-561.5" font-family="Helvetica,sans-Serif" font-size="10.00">+ getOrbit()</text>
<text text-anchor="start" x="284.5" y="-550.5" font-family="Helvetica,sans-Serif" font-size="10.00">+ setOrbit()</text>
<text text-anchor="start" x="284.5" y="-539.5" font-family="Helvetica,sans-Serif" font-size="10.00">+ getId()</text>
<text text-anchor="start" x="284.5" y="-528.5" font-family="Helvetica,sans-Serif" font-size="10.00">+ getName()</text>
<text text-anchor="start" x="284.5" y="-517.5" font-family="Helvetica,sans-Serif" font-size="10.00">and 115 more...</text>
</a>
</g>
</g>
<!-- Node3&#45;&gt;Node2 -->
<g id="edge2" class="edge">
<title>Node3&#45;&gt;Node2</title>
<path fill="none" stroke="midnightblue" d="M322.88,-500.07C305.81,-436.93 283.83,-355.66 267.33,-294.64"/>
<polygon fill="none" stroke="midnightblue" points="319.59,-501.3 325.58,-510.04 326.35,-499.47 319.59,-501.3"/>
</g>
<!-- Node4 -->
<g id="node4" class="node">
<title>Node4</title>
<g id="a_node4"><a xlink:href="../../de/da5/interfacecom_1_1fs_1_1starfarer_1_1api_1_1campaign_1_1rules_1_1HasMemory.html" target="_top" xlink:title=" ">
<polygon fill="none" stroke="black" points="12,-726.5 12,-805.5 181,-805.5 181,-726.5 12,-726.5"/>
<text text-anchor="start" x="20" y="-793.5" font-family="Helvetica,sans-Serif" font-size="10.00">com.fs.starfarer.api.campaign.rules.</text>
<text text-anchor="middle" x="96.5" y="-782.5" font-family="Helvetica,sans-Serif" font-size="10.00">HasMemory</text>
<polyline fill="none" stroke="black" points="12,-775.5 181,-775.5 "/>
<text text-anchor="middle" x="96.5" y="-763.5" font-family="Helvetica,sans-Serif" font-size="10.00"> </text>
<polyline fill="none" stroke="black" points="12,-756.5 181,-756.5 "/>
<text text-anchor="start" x="20" y="-744.5" font-family="Helvetica,sans-Serif" font-size="10.00">+ getMemory()</text>
<text text-anchor="start" x="20" y="-733.5" font-family="Helvetica,sans-Serif" font-size="10.00">+ getMemoryWithoutUpdate()</text>
</a>
</g>
</g>
<!-- Node4&#45;&gt;Node3 -->
<g id="edge3" class="edge">
<title>Node4&#45;&gt;Node3</title>
<path fill="none" stroke="midnightblue" d="M190.23,-731.47C216.42,-719.99 244.1,-705.74 267.5,-689 270.48,-686.87 273.44,-684.61 276.36,-682.26"/>
<polygon fill="none" stroke="midnightblue" points="188.85,-728.26 181.04,-735.42 191.61,-734.69 188.85,-728.26"/>
</g>
<!-- Node6 -->
<g id="node6" class="node">
<title>Node6</title>
<g id="a_node6"><a xlink:href="../../de/d91/interfacecom_1_1fs_1_1starfarer_1_1api_1_1campaign_1_1econ_1_1MarketAPI.html" target="_top" xlink:title=" ">
<polygon fill="none" stroke="black" points="0,-313.5 0,-491.5 169,-491.5 169,-313.5 0,-313.5"/>
<text text-anchor="start" x="8" y="-479.5" font-family="Helvetica,sans-Serif" font-size="10.00">com.fs.starfarer.api.campaign.econ.</text>
<text text-anchor="middle" x="84.5" y="-468.5" font-family="Helvetica,sans-Serif" font-size="10.00">MarketAPI</text>
<polyline fill="none" stroke="black" points="0,-461.5 169,-461.5 "/>
<text text-anchor="middle" x="84.5" y="-449.5" font-family="Helvetica,sans-Serif" font-size="10.00"> </text>
<polyline fill="none" stroke="black" points="0,-442.5 169,-442.5 "/>
<text text-anchor="start" x="8" y="-430.5" font-family="Helvetica,sans-Serif" font-size="10.00">+ getPrimaryEntity()</text>
<text text-anchor="start" x="8" y="-419.5" font-family="Helvetica,sans-Serif" font-size="10.00">+ getConnectedEntities()</text>
<text text-anchor="start" x="8" y="-408.5" font-family="Helvetica,sans-Serif" font-size="10.00">+ getId()</text>
<text text-anchor="start" x="8" y="-397.5" font-family="Helvetica,sans-Serif" font-size="10.00">+ getName()</text>
<text text-anchor="start" x="8" y="-386.5" font-family="Helvetica,sans-Serif" font-size="10.00">+ getSize()</text>
<text text-anchor="start" x="8" y="-375.5" font-family="Helvetica,sans-Serif" font-size="10.00">+ setSize()</text>
<text text-anchor="start" x="8" y="-364.5" font-family="Helvetica,sans-Serif" font-size="10.00">+ getAllCommodities()</text>
<text text-anchor="start" x="8" y="-353.5" font-family="Helvetica,sans-Serif" font-size="10.00">+ getCommodityData()</text>
<text text-anchor="start" x="8" y="-342.5" font-family="Helvetica,sans-Serif" font-size="10.00">+ getCommoditiesWithTag()</text>
<text text-anchor="start" x="8" y="-331.5" font-family="Helvetica,sans-Serif" font-size="10.00">+ getCommoditiesWithTags()</text>
<text text-anchor="start" x="8" y="-320.5" font-family="Helvetica,sans-Serif" font-size="10.00">and 142 more...</text>
</a>
</g>
</g>
<!-- Node4&#45;&gt;Node6 -->
<g id="edge6" class="edge">
<title>Node4&#45;&gt;Node6</title>
<path fill="none" stroke="midnightblue" d="M94.88,-716.05C92.97,-658.56 89.76,-562.1 87.42,-491.52"/>
<polygon fill="none" stroke="midnightblue" points="91.39,-716.43 95.22,-726.31 98.38,-716.2 91.39,-716.43"/>
</g>
<!-- Node5 -->
<g id="node5" class="node">
<title>Node5</title>
<g id="a_node5"><a xlink:href="../../da/db1/interfacecom_1_1fs_1_1starfarer_1_1api_1_1campaign_1_1FleetOrStubAPI.html" target="_top" xlink:title=" ">
<polygon fill="none" stroke="black" points="112.5,-510.5 112.5,-688.5 258.5,-688.5 258.5,-510.5 112.5,-510.5"/>
<text text-anchor="start" x="120.5" y="-676.5" font-family="Helvetica,sans-Serif" font-size="10.00">com.fs.starfarer.api.campaign.</text>
<text text-anchor="middle" x="185.5" y="-665.5" font-family="Helvetica,sans-Serif" font-size="10.00">FleetOrStubAPI</text>
<polyline fill="none" stroke="black" points="112.5,-658.5 258.5,-658.5 "/>
<text text-anchor="middle" x="185.5" y="-646.5" font-family="Helvetica,sans-Serif" font-size="10.00"> </text>
<polyline fill="none" stroke="black" points="112.5,-639.5 258.5,-639.5 "/>
<text text-anchor="start" x="120.5" y="-627.5" font-family="Helvetica,sans-Serif" font-size="10.00">+ getId()</text>
<text text-anchor="start" x="120.5" y="-616.5" font-family="Helvetica,sans-Serif" font-size="10.00">+ getContainingLocation()</text>
<text text-anchor="start" x="120.5" y="-605.5" font-family="Helvetica,sans-Serif" font-size="10.00">+ getLocation()</text>
<text text-anchor="start" x="120.5" y="-594.5" font-family="Helvetica,sans-Serif" font-size="10.00">+ getCurrentAssignment()</text>
<text text-anchor="start" x="120.5" y="-583.5" font-family="Helvetica,sans-Serif" font-size="10.00">+ getAssignmentsCopy()</text>
<text text-anchor="start" x="120.5" y="-572.5" font-family="Helvetica,sans-Serif" font-size="10.00">+ addAssignment()</text>
<text text-anchor="start" x="120.5" y="-561.5" font-family="Helvetica,sans-Serif" font-size="10.00">+ addAssignment()</text>
<text text-anchor="start" x="120.5" y="-550.5" font-family="Helvetica,sans-Serif" font-size="10.00">+ addAssignment()</text>
<text text-anchor="start" x="120.5" y="-539.5" font-family="Helvetica,sans-Serif" font-size="10.00">+ addAssignmentAtStart()</text>
<text text-anchor="start" x="120.5" y="-528.5" font-family="Helvetica,sans-Serif" font-size="10.00">+ addAssignmentAtStart()</text>
<text text-anchor="start" x="120.5" y="-517.5" font-family="Helvetica,sans-Serif" font-size="10.00">and 15 more...</text>
</a>
</g>
</g>
<!-- Node5&#45;&gt;Node2 -->
<g id="edge4" class="edge">
<title>Node5&#45;&gt;Node2</title>
<path fill="none" stroke="midnightblue" d="M200.06,-500.07C209.41,-436.93 221.43,-355.66 230.46,-294.64"/>
<polygon fill="none" stroke="midnightblue" points="196.59,-499.63 198.59,-510.04 203.51,-500.66 196.59,-499.63"/>
</g>
<!-- Node6&#45;&gt;Node1 -->
<g id="edge5" class="edge">
<title>Node6&#45;&gt;Node1</title>
<path fill="none" stroke="#404040" d="M65.62,-313.5C57.65,-253.44 57.25,-174.48 93.5,-116 104.24,-98.68 120.08,-84.84 137.49,-73.88"/>
<polygon fill="none" stroke="#404040" points="137.56,-73.84 140.7,-67.35 147.9,-67.75 144.76,-74.24 137.56,-73.84"/>
<text text-anchor="middle" x="127.5" y="-203" font-family="Helvetica,sans-Serif" font-size="10.00"> +sourceMarket</text>
</g>
<!-- Node7 -->
<g id="node7" class="node">
<title>Node7</title>
<g id="a_node7"><a xlink:href="../../dd/d7b/enumcom_1_1fs_1_1starfarer_1_1api_1_1impl_1_1campaign_1_1fleets_1_1FleetFactory_1_1PatrolType.html" target="_top" xlink:title=" ">
<polygon fill="none" stroke="black" points="335,-149.5 335,-261.5 526,-261.5 526,-149.5 335,-149.5"/>
<text text-anchor="start" x="343" y="-249.5" font-family="Helvetica,sans-Serif" font-size="10.00">com.fs.starfarer.api.impl.campaign.fleets.</text>
<text text-anchor="middle" x="430.5" y="-238.5" font-family="Helvetica,sans-Serif" font-size="10.00">FleetFactory.PatrolType</text>
<polyline fill="none" stroke="black" points="335,-231.5 526,-231.5 "/>
<text text-anchor="start" x="343" y="-219.5" font-family="Helvetica,sans-Serif" font-size="10.00">+ FAST</text>
<text text-anchor="start" x="343" y="-208.5" font-family="Helvetica,sans-Serif" font-size="10.00">+ COMBAT</text>
<text text-anchor="start" x="343" y="-197.5" font-family="Helvetica,sans-Serif" font-size="10.00">+ HEAVY</text>
<text text-anchor="start" x="343" y="-186.5" font-family="Helvetica,sans-Serif" font-size="10.00">&#45; fleetType</text>
<polyline fill="none" stroke="black" points="335,-179.5 526,-179.5 "/>
<text text-anchor="start" x="343" y="-167.5" font-family="Helvetica,sans-Serif" font-size="10.00">+ getFleetType()</text>
<text text-anchor="start" x="343" y="-156.5" font-family="Helvetica,sans-Serif" font-size="10.00">&#45; PatrolType()</text>
</a>
</g>
</g>
<!-- Node7&#45;&gt;Node1 -->
<g id="edge7" class="edge">
<title>Node7&#45;&gt;Node1</title>
<path fill="none" stroke="#404040" d="M369.53,-149.4C343.35,-125.74 313.28,-98.57 289.09,-76.7"/>
<polygon fill="none" stroke="#404040" points="289.02,-76.64 281.89,-75.58 280.12,-68.59 287.25,-69.65 289.02,-76.64"/>
<text text-anchor="middle" x="323" y="-90" font-family="Helvetica,sans-Serif" font-size="10.00"> +type</text>
</g>
</g>
</svg>
        <g id="navigator" transform="translate(0 0)" fill="#404254">
                <rect fill="#f2f5e9" fill-opacity="0.5" stroke="#606060" stroke-width=".5" x="0" y="0" width="60" height="60"/>
                <use id="zoomplus" xlink:href="#zoomPlus" x="17" y="9" onmousedown="handleZoom(evt,'in')"/>
                <use id="zoomminus" xlink:href="#zoomMin" x="42" y="9" onmousedown="handleZoom(evt,'out')"/>
                <use id="reset" xlink:href="#resetDef" x="30" y="36" onmousedown="handleReset()"/>
                <g id="arrowUp" xlink:href="#dirArrow" transform="translate(30 24)" onmousedown="handlePan(0,-1)">
                  <use xlink:href="#rim" fill="#404040">
                        <set attributeName="fill" to="#808080" begin="arrowUp.mouseover" end="arrowUp.mouseout"/>
                  </use>
                  <path fill="none" stroke="white" stroke-width="1.5" d="M0,-3.0v7 M-2.5,-0.5L0,-3.0L2.5,-0.5"/>
                </g>
                <g id="arrowRight" xlink:href="#dirArrow" transform="rotate(90) translate(36 -43)" onmousedown="handlePan(1,0)">
                  <use xlink:href="#rim" fill="#404040">
                        <set attributeName="fill" to="#808080" begin="arrowRight.mouseover" end="arrowRight.mouseout"/>
                  </use>
                  <path fill="none" stroke="white" stroke-width="1.5" d="M0,-3.0v7 M-2.5,-0.5L0,-3.0L2.5,-0.5"/>
                </g>
                <g id="arrowDown" xlink:href="#dirArrow" transform="rotate(180) translate(-30 -48)" onmousedown="handlePan(0,1)">
                  <use xlink:href="#rim" fill="#404040">
                        <set attributeName="fill" to="#808080" begin="arrowDown.mouseover" end="arrowDown.mouseout"/>
                  </use>
                  <path fill="none" stroke="white" stroke-width="1.5" d="M0,-3.0v7 M-2.5,-0.5L0,-3.0L2.5,-0.5"/>
                </g>
                <g id="arrowLeft" xlink:href="#dirArrow" transform="rotate(270) translate(-36 17)" onmousedown="handlePan(-1,0)">
                  <use xlink:href="#rim" fill="#404040">
                        <set attributeName="fill" to="#808080" begin="arrowLeft.mouseover" end="arrowLeft.mouseout"/>
                  </use>
                  <path fill="none" stroke="white" stroke-width="1.5" d="M0,-3.0v7 M-2.5,-0.5L0,-3.0L2.5,-0.5"/>
                </g>
        </g>
        <svg viewBox="0 0 15 15" width="100%" height="30px" preserveAspectRatio="xMaxYMin meet">
         <g id="arrow_out" transform="scale(0.3 0.3)">
          <a xlink:href="classcom_1_1fs_1_1starfarer_1_1api_1_1impl_1_1campaign_1_1fleets_1_1PatrolFleetManager_1_1PatrolFleetData__coll__graph_org.svg" target="_base">
           <rect id="button" ry="5" rx="5" y="6" x="6" height="38" width="38"
                fill="#f2f5e9" fill-opacity="0.5" stroke="#606060" stroke-width="1.0"/>
           <path id="arrow"
             d="M 11.500037,31.436501 C 11.940474,20.09759 22.043105,11.32322 32.158766,21.979434 L 37.068811,17.246167 C 37.068811,17.246167 37.088388,32 37.088388,32 L 22.160133,31.978069 C 22.160133,31.978069 26.997745,27.140456 26.997745,27.140456 C 18.528582,18.264221 13.291696,25.230495 11.500037,31.436501 z"
             style="fill:#404040;"/>
          </a>
         </g>
        </svg>
</svg>
