<?xml version="1.0" encoding="UTF-8" standalone="no"?>
<!DOCTYPE svg PUBLIC "-//W3C//DTD SVG 1.1//EN"
 "http://www.w3.org/Graphics/SVG/1.1/DTD/svg11.dtd">
<!-- Generated by graphviz version 2.44.0 ()
 -->
<!-- Title: com.fs.starfarer.api.impl.campaign.missions.hub.BaseHubMission.HostilitiesEndedChecker Pages: 1 -->
<!--zoomable 431 -->
<svg id="main" version="1.1" xmlns="http://www.w3.org/2000/svg" xmlns:xlink="http://www.w3.org/1999/xlink" xml:space="preserve" onload="init(evt)">
<style type="text/css"><![CDATA[
.edge:hover path { stroke: red; }
.edge:hover polygon { stroke: red; fill: red; }
]]></style>
<script type="text/javascript"><![CDATA[
var edges = document.getElementsByTagName('g');
if (edges && edges.length) {
  for (var i=0;i<edges.length;i++) {
    if (edges[i].id.substr(0,4)=='edge') {
      edges[i].setAttribute('class','edge');
    }
  }
}
]]></script>
        <defs>
                <circle id="rim" cx="0" cy="0" r="7"/>
                <circle id="rim2" cx="0" cy="0" r="3.5"/>
                <g id="zoomPlus">
                        <use xlink:href="#rim" fill="#404040">
                                <set attributeName="fill" to="#808080" begin="zoomplus.mouseover" end="zoomplus.mouseout"/>
                        </use>
                        <path d="M-4,0h8M0,-4v8" fill="none" stroke="white" stroke-width="1.5" pointer-events="none"/>
                </g>
                <g id="zoomMin">
                        <use xlink:href="#rim" fill="#404040">
                                <set attributeName="fill" to="#808080" begin="zoomminus.mouseover" end="zoomminus.mouseout"/>
                        </use>
                        <path d="M-4,0h8" fill="none" stroke="white" stroke-width="1.5" pointer-events="none"/>
                </g>
                <g id="dirArrow">
                        <path fill="none" stroke="white" stroke-width="1.5" d="M0,-3.0v7 M-2.5,-0.5L0,-3.0L2.5,-0.5"/>
                </g>
               <g id="resetDef">
                       <use xlink:href="#rim2" fill="#404040">
                               <set attributeName="fill" to="#808080" begin="reset.mouseover" end="reset.mouseout"/>
                       </use>
               </g>
        </defs>

<script type="text/javascript">
var viewWidth = 587;
var viewHeight = 431;
var sectionId = 'dynsection-1';
</script>
<script xlink:href="../../svgpan.js"/>
<svg id="graph" class="graph">
<g id="viewport">
<title>com.fs.starfarer.api.impl.campaign.missions.hub.BaseHubMission.HostilitiesEndedChecker</title>
<!-- Node1 -->
<g id="node1" class="node">
<title>Node1</title>
<g id="a_node1"><a xlink:title=" ">
<polygon fill="#bfbfbf" stroke="black" points="215,-0.5 215,-79.5 440,-79.5 440,-0.5 215,-0.5"/>
<text text-anchor="start" x="223" y="-67.5" font-family="Helvetica,sans-Serif" font-size="10.00">com.fs.starfarer.api.impl.campaign.missions.hub.</text>
<text text-anchor="middle" x="327.5" y="-56.5" font-family="Helvetica,sans-Serif" font-size="10.00">BaseHubMission.HostilitiesEndedChecker</text>
<polyline fill="none" stroke="black" points="215,-49.5 440,-49.5 "/>
<text text-anchor="middle" x="327.5" y="-37.5" font-family="Helvetica,sans-Serif" font-size="10.00"> </text>
<polyline fill="none" stroke="black" points="215,-30.5 440,-30.5 "/>
<text text-anchor="start" x="223" y="-18.5" font-family="Helvetica,sans-Serif" font-size="10.00">+ HostilitiesEndedChecker()</text>
<text text-anchor="start" x="223" y="-7.5" font-family="Helvetica,sans-Serif" font-size="10.00">+ conditionsMet()</text>
</a>
</g>
</g>
<!-- Node2 -->
<g id="node2" class="node">
<title>Node2</title>
<g id="a_node2"><a xlink:href="../../d9/d5b/interfacecom_1_1fs_1_1starfarer_1_1api_1_1impl_1_1campaign_1_1missions_1_1hub_1_1BaseHubMission_1_1ConditionChecker.html" target="_top" xlink:title=" ">
<polygon fill="none" stroke="black" points="0,-182.5 0,-250.5 225,-250.5 225,-182.5 0,-182.5"/>
<text text-anchor="start" x="8" y="-238.5" font-family="Helvetica,sans-Serif" font-size="10.00">com.fs.starfarer.api.impl.campaign.missions.hub.</text>
<text text-anchor="middle" x="112.5" y="-227.5" font-family="Helvetica,sans-Serif" font-size="10.00">BaseHubMission.ConditionChecker</text>
<polyline fill="none" stroke="black" points="0,-220.5 225,-220.5 "/>
<text text-anchor="middle" x="112.5" y="-208.5" font-family="Helvetica,sans-Serif" font-size="10.00"> </text>
<polyline fill="none" stroke="black" points="0,-201.5 225,-201.5 "/>
<text text-anchor="start" x="8" y="-189.5" font-family="Helvetica,sans-Serif" font-size="10.00">+ conditionsMet()</text>
</a>
</g>
</g>
<!-- Node2&#45;&gt;Node1 -->
<g id="edge1" class="edge">
<title>Node2&#45;&gt;Node1</title>
<path fill="none" stroke="midnightblue" d="M161.03,-176.11C196.56,-147.28 244.53,-108.34 279.85,-79.68"/>
<polygon fill="none" stroke="midnightblue" points="158.75,-173.45 153.19,-182.47 163.16,-178.89 158.75,-173.45"/>
</g>
<!-- Node3 -->
<g id="node3" class="node">
<title>Node3</title>
<g id="a_node3"><a xlink:href="../../de/d91/interfacecom_1_1fs_1_1starfarer_1_1api_1_1campaign_1_1econ_1_1MarketAPI.html" target="_top" xlink:title=" ">
<polygon fill="none" stroke="black" points="243,-127.5 243,-305.5 412,-305.5 412,-127.5 243,-127.5"/>
<text text-anchor="start" x="251" y="-293.5" font-family="Helvetica,sans-Serif" font-size="10.00">com.fs.starfarer.api.campaign.econ.</text>
<text text-anchor="middle" x="327.5" y="-282.5" font-family="Helvetica,sans-Serif" font-size="10.00">MarketAPI</text>
<polyline fill="none" stroke="black" points="243,-275.5 412,-275.5 "/>
<text text-anchor="middle" x="327.5" y="-263.5" font-family="Helvetica,sans-Serif" font-size="10.00"> </text>
<polyline fill="none" stroke="black" points="243,-256.5 412,-256.5 "/>
<text text-anchor="start" x="251" y="-244.5" font-family="Helvetica,sans-Serif" font-size="10.00">+ getPrimaryEntity()</text>
<text text-anchor="start" x="251" y="-233.5" font-family="Helvetica,sans-Serif" font-size="10.00">+ getConnectedEntities()</text>
<text text-anchor="start" x="251" y="-222.5" font-family="Helvetica,sans-Serif" font-size="10.00">+ getId()</text>
<text text-anchor="start" x="251" y="-211.5" font-family="Helvetica,sans-Serif" font-size="10.00">+ getName()</text>
<text text-anchor="start" x="251" y="-200.5" font-family="Helvetica,sans-Serif" font-size="10.00">+ getSize()</text>
<text text-anchor="start" x="251" y="-189.5" font-family="Helvetica,sans-Serif" font-size="10.00">+ setSize()</text>
<text text-anchor="start" x="251" y="-178.5" font-family="Helvetica,sans-Serif" font-size="10.00">+ getAllCommodities()</text>
<text text-anchor="start" x="251" y="-167.5" font-family="Helvetica,sans-Serif" font-size="10.00">+ getCommodityData()</text>
<text text-anchor="start" x="251" y="-156.5" font-family="Helvetica,sans-Serif" font-size="10.00">+ getCommoditiesWithTag()</text>
<text text-anchor="start" x="251" y="-145.5" font-family="Helvetica,sans-Serif" font-size="10.00">+ getCommoditiesWithTags()</text>
<text text-anchor="start" x="251" y="-134.5" font-family="Helvetica,sans-Serif" font-size="10.00">and 142 more...</text>
</a>
</g>
</g>
<!-- Node3&#45;&gt;Node1 -->
<g id="edge2" class="edge">
<title>Node3&#45;&gt;Node1</title>
<path fill="none" stroke="#404040" d="M327.5,-127.48C327.5,-115.3 327.5,-103.13 327.5,-91.94"/>
<polygon fill="none" stroke="#404040" points="327.5,-91.76 323.5,-85.76 327.5,-79.76 331.5,-85.76 327.5,-91.76"/>
<text text-anchor="middle" x="347" y="-101" font-family="Helvetica,sans-Serif" font-size="10.00"> +market</text>
</g>
<!-- Node4 -->
<g id="node4" class="node">
<title>Node4</title>
<g id="a_node4"><a xlink:href="../../de/da5/interfacecom_1_1fs_1_1starfarer_1_1api_1_1campaign_1_1rules_1_1HasMemory.html" target="_top" xlink:title=" ">
<polygon fill="none" stroke="black" points="331,-343.5 331,-422.5 500,-422.5 500,-343.5 331,-343.5"/>
<text text-anchor="start" x="339" y="-410.5" font-family="Helvetica,sans-Serif" font-size="10.00">com.fs.starfarer.api.campaign.rules.</text>
<text text-anchor="middle" x="415.5" y="-399.5" font-family="Helvetica,sans-Serif" font-size="10.00">HasMemory</text>
<polyline fill="none" stroke="black" points="331,-392.5 500,-392.5 "/>
<text text-anchor="middle" x="415.5" y="-380.5" font-family="Helvetica,sans-Serif" font-size="10.00"> </text>
<polyline fill="none" stroke="black" points="331,-373.5 500,-373.5 "/>
<text text-anchor="start" x="339" y="-361.5" font-family="Helvetica,sans-Serif" font-size="10.00">+ getMemory()</text>
<text text-anchor="start" x="339" y="-350.5" font-family="Helvetica,sans-Serif" font-size="10.00">+ getMemoryWithoutUpdate()</text>
</a>
</g>
</g>
<!-- Node4&#45;&gt;Node3 -->
<g id="edge3" class="edge">
<title>Node4&#45;&gt;Node3</title>
<path fill="none" stroke="midnightblue" d="M390.11,-334.54C385.21,-325.38 379.94,-315.52 374.6,-305.55"/>
<polygon fill="none" stroke="midnightblue" points="387.06,-336.27 394.87,-343.43 393.24,-332.96 387.06,-336.27"/>
</g>
<!-- Node5 -->
<g id="node5" class="node">
<title>Node5</title>
<g id="a_node5"><a xlink:href="../../d9/df0/interfacecom_1_1fs_1_1starfarer_1_1api_1_1characters_1_1PersonAPI.html" target="_top" xlink:title=" ">
<polygon fill="none" stroke="black" points="430,-127.5 430,-305.5 579,-305.5 579,-127.5 430,-127.5"/>
<text text-anchor="start" x="438" y="-293.5" font-family="Helvetica,sans-Serif" font-size="10.00">com.fs.starfarer.api.characters.</text>
<text text-anchor="middle" x="504.5" y="-282.5" font-family="Helvetica,sans-Serif" font-size="10.00">PersonAPI</text>
<polyline fill="none" stroke="black" points="430,-275.5 579,-275.5 "/>
<text text-anchor="middle" x="504.5" y="-263.5" font-family="Helvetica,sans-Serif" font-size="10.00"> </text>
<polyline fill="none" stroke="black" points="430,-256.5 579,-256.5 "/>
<text text-anchor="start" x="438" y="-244.5" font-family="Helvetica,sans-Serif" font-size="10.00">+ setPersonality()</text>
<text text-anchor="start" x="438" y="-233.5" font-family="Helvetica,sans-Serif" font-size="10.00">+ getStats()</text>
<text text-anchor="start" x="438" y="-222.5" font-family="Helvetica,sans-Serif" font-size="10.00">+ getRank()</text>
<text text-anchor="start" x="438" y="-211.5" font-family="Helvetica,sans-Serif" font-size="10.00">+ getRankArticle()</text>
<text text-anchor="start" x="438" y="-200.5" font-family="Helvetica,sans-Serif" font-size="10.00">+ getRankId()</text>
<text text-anchor="start" x="438" y="-189.5" font-family="Helvetica,sans-Serif" font-size="10.00">+ setRankId()</text>
<text text-anchor="start" x="438" y="-178.5" font-family="Helvetica,sans-Serif" font-size="10.00">+ getPost()</text>
<text text-anchor="start" x="438" y="-167.5" font-family="Helvetica,sans-Serif" font-size="10.00">+ getPostArticle()</text>
<text text-anchor="start" x="438" y="-156.5" font-family="Helvetica,sans-Serif" font-size="10.00">+ setPostId()</text>
<text text-anchor="start" x="438" y="-145.5" font-family="Helvetica,sans-Serif" font-size="10.00">+ getPostId()</text>
<text text-anchor="start" x="438" y="-134.5" font-family="Helvetica,sans-Serif" font-size="10.00">and 49 more...</text>
</a>
</g>
</g>
<!-- Node4&#45;&gt;Node5 -->
<g id="edge5" class="edge">
<title>Node4&#45;&gt;Node5</title>
<path fill="none" stroke="midnightblue" d="M441.18,-334.54C446.13,-325.38 451.47,-315.52 456.86,-305.55"/>
<polygon fill="none" stroke="midnightblue" points="438.05,-332.97 436.37,-343.43 444.2,-336.3 438.05,-332.97"/>
</g>
<!-- Node5&#45;&gt;Node1 -->
<g id="edge4" class="edge">
<title>Node5&#45;&gt;Node1</title>
<path fill="none" stroke="#404040" d="M429.65,-136.12C426.57,-133.03 423.52,-129.98 420.5,-127 407.53,-114.2 393.21,-100.67 379.77,-88.23"/>
<polygon fill="none" stroke="#404040" points="379.47,-87.95 372.34,-86.82 370.64,-79.81 377.77,-80.94 379.47,-87.95"/>
<text text-anchor="middle" x="420.5" y="-101" font-family="Helvetica,sans-Serif" font-size="10.00"> +person</text>
</g>
</g>
</svg>
        <g id="navigator" transform="translate(0 0)" fill="#404254">
                <rect fill="#f2f5e9" fill-opacity="0.5" stroke="#606060" stroke-width=".5" x="0" y="0" width="60" height="60"/>
                <use id="zoomplus" xlink:href="#zoomPlus" x="17" y="9" onmousedown="handleZoom(evt,'in')"/>
                <use id="zoomminus" xlink:href="#zoomMin" x="42" y="9" onmousedown="handleZoom(evt,'out')"/>
                <use id="reset" xlink:href="#resetDef" x="30" y="36" onmousedown="handleReset()"/>
                <g id="arrowUp" xlink:href="#dirArrow" transform="translate(30 24)" onmousedown="handlePan(0,-1)">
                  <use xlink:href="#rim" fill="#404040">
                        <set attributeName="fill" to="#808080" begin="arrowUp.mouseover" end="arrowUp.mouseout"/>
                  </use>
                  <path fill="none" stroke="white" stroke-width="1.5" d="M0,-3.0v7 M-2.5,-0.5L0,-3.0L2.5,-0.5"/>
                </g>
                <g id="arrowRight" xlink:href="#dirArrow" transform="rotate(90) translate(36 -43)" onmousedown="handlePan(1,0)">
                  <use xlink:href="#rim" fill="#404040">
                        <set attributeName="fill" to="#808080" begin="arrowRight.mouseover" end="arrowRight.mouseout"/>
                  </use>
                  <path fill="none" stroke="white" stroke-width="1.5" d="M0,-3.0v7 M-2.5,-0.5L0,-3.0L2.5,-0.5"/>
                </g>
                <g id="arrowDown" xlink:href="#dirArrow" transform="rotate(180) translate(-30 -48)" onmousedown="handlePan(0,1)">
                  <use xlink:href="#rim" fill="#404040">
                        <set attributeName="fill" to="#808080" begin="arrowDown.mouseover" end="arrowDown.mouseout"/>
                  </use>
                  <path fill="none" stroke="white" stroke-width="1.5" d="M0,-3.0v7 M-2.5,-0.5L0,-3.0L2.5,-0.5"/>
                </g>
                <g id="arrowLeft" xlink:href="#dirArrow" transform="rotate(270) translate(-36 17)" onmousedown="handlePan(-1,0)">
                  <use xlink:href="#rim" fill="#404040">
                        <set attributeName="fill" to="#808080" begin="arrowLeft.mouseover" end="arrowLeft.mouseout"/>
                  </use>
                  <path fill="none" stroke="white" stroke-width="1.5" d="M0,-3.0v7 M-2.5,-0.5L0,-3.0L2.5,-0.5"/>
                </g>
        </g>
        <svg viewBox="0 0 15 15" width="100%" height="30px" preserveAspectRatio="xMaxYMin meet">
         <g id="arrow_out" transform="scale(0.3 0.3)">
          <a xlink:href="classcom_1_1fs_1_1starfarer_1_1api_1_1impl_1_1campaign_1_1missions_1_1hub_1_1BaseHubMission_1_1Hc332f2ea74a9c895a2c0f2231b8370c1_org.svg" target="_base">
           <rect id="button" ry="5" rx="5" y="6" x="6" height="38" width="38"
                fill="#f2f5e9" fill-opacity="0.5" stroke="#606060" stroke-width="1.0"/>
           <path id="arrow"
             d="M 11.500037,31.436501 C 11.940474,20.09759 22.043105,11.32322 32.158766,21.979434 L 37.068811,17.246167 C 37.068811,17.246167 37.088388,32 37.088388,32 L 22.160133,31.978069 C 22.160133,31.978069 26.997745,27.140456 26.997745,27.140456 C 18.528582,18.264221 13.291696,25.230495 11.500037,31.436501 z"
             style="fill:#404040;"/>
          </a>
         </g>
        </svg>
</svg>
