<?xml version="1.0" encoding="UTF-8" standalone="no"?>
<!DOCTYPE svg PUBLIC "-//W3C//DTD SVG 1.1//EN"
 "http://www.w3.org/Graphics/SVG/1.1/DTD/svg11.dtd">
<!-- Generated by graphviz version 2.44.0 ()
 -->
<!-- Title: com.fs.starfarer.api.impl.campaign.ghosts.BaseGhostBehavior Pages: 1 -->
<!--zoomable 551 -->
<svg id="main" version="1.1" xmlns="http://www.w3.org/2000/svg" xmlns:xlink="http://www.w3.org/1999/xlink" xml:space="preserve" onload="init(evt)">
<style type="text/css"><![CDATA[
.edge:hover path { stroke: red; }
.edge:hover polygon { stroke: red; fill: red; }
]]></style>
<script type="text/javascript"><![CDATA[
var edges = document.getElementsByTagName('g');
if (edges && edges.length) {
  for (var i=0;i<edges.length;i++) {
    if (edges[i].id.substr(0,4)=='edge') {
      edges[i].setAttribute('class','edge');
    }
  }
}
]]></script>
        <defs>
                <circle id="rim" cx="0" cy="0" r="7"/>
                <circle id="rim2" cx="0" cy="0" r="3.5"/>
                <g id="zoomPlus">
                        <use xlink:href="#rim" fill="#404040">
                                <set attributeName="fill" to="#808080" begin="zoomplus.mouseover" end="zoomplus.mouseout"/>
                        </use>
                        <path d="M-4,0h8M0,-4v8" fill="none" stroke="white" stroke-width="1.5" pointer-events="none"/>
                </g>
                <g id="zoomMin">
                        <use xlink:href="#rim" fill="#404040">
                                <set attributeName="fill" to="#808080" begin="zoomminus.mouseover" end="zoomminus.mouseout"/>
                        </use>
                        <path d="M-4,0h8" fill="none" stroke="white" stroke-width="1.5" pointer-events="none"/>
                </g>
                <g id="dirArrow">
                        <path fill="none" stroke="white" stroke-width="1.5" d="M0,-3.0v7 M-2.5,-0.5L0,-3.0L2.5,-0.5"/>
                </g>
               <g id="resetDef">
                       <use xlink:href="#rim2" fill="#404040">
                               <set attributeName="fill" to="#808080" begin="reset.mouseover" end="reset.mouseout"/>
                       </use>
               </g>
        </defs>

<script type="text/javascript">
var viewWidth = 3430;
var viewHeight = 551;
var sectionId = 'dynsection-0';
</script>
<script xlink:href="../../svgpan.js"/>
<svg id="graph" class="graph">
<g id="viewport">
<title>com.fs.starfarer.api.impl.campaign.ghosts.BaseGhostBehavior</title>
<!-- Node1 -->
<g id="node1" class="node">
<title>Node1</title>
<g id="a_node1"><a xlink:title=" ">
<polygon fill="#bfbfbf" stroke="black" points="1612,-292.5 1612,-415.5 1809,-415.5 1809,-292.5 1612,-292.5"/>
<text text-anchor="start" x="1620" y="-403.5" font-family="Helvetica,sans-Serif" font-size="10.00">com.fs.starfarer.api.impl.campaign.ghosts.</text>
<text text-anchor="middle" x="1710.5" y="-392.5" font-family="Helvetica,sans-Serif" font-size="10.00">BaseGhostBehavior</text>
<polyline fill="none" stroke="black" points="1612,-385.5 1809,-385.5 "/>
<text text-anchor="start" x="1620" y="-373.5" font-family="Helvetica,sans-Serif" font-size="10.00"># duration</text>
<text text-anchor="start" x="1620" y="-362.5" font-family="Helvetica,sans-Serif" font-size="10.00"># interrupts</text>
<polyline fill="none" stroke="black" points="1612,-355.5 1809,-355.5 "/>
<text text-anchor="start" x="1620" y="-343.5" font-family="Helvetica,sans-Serif" font-size="10.00">+ BaseGhostBehavior()</text>
<text text-anchor="start" x="1620" y="-332.5" font-family="Helvetica,sans-Serif" font-size="10.00">+ isDone()</text>
<text text-anchor="start" x="1620" y="-321.5" font-family="Helvetica,sans-Serif" font-size="10.00">+ advance()</text>
<text text-anchor="start" x="1620" y="-310.5" font-family="Helvetica,sans-Serif" font-size="10.00">+ end()</text>
<text text-anchor="start" x="1620" y="-299.5" font-family="Helvetica,sans-Serif" font-size="10.00">+ addInterrupt()</text>
</a>
</g>
</g>
<!-- Node3 -->
<g id="node3" class="node">
<title>Node3</title>
<g id="a_node3"><a xlink:href="../../d7/d98/classcom_1_1fs_1_1starfarer_1_1api_1_1impl_1_1campaign_1_1ghosts_1_1GBCircle.html" target="_top" xlink:title=" ">
<polygon fill="none" stroke="black" points="0,-72 0,-184 197,-184 197,-72 0,-72"/>
<text text-anchor="start" x="8" y="-172" font-family="Helvetica,sans-Serif" font-size="10.00">com.fs.starfarer.api.impl.campaign.ghosts.</text>
<text text-anchor="middle" x="98.5" y="-161" font-family="Helvetica,sans-Serif" font-size="10.00">GBCircle</text>
<polyline fill="none" stroke="black" points="0,-154 197,-154 "/>
<text text-anchor="start" x="8" y="-142" font-family="Helvetica,sans-Serif" font-size="10.00"># other</text>
<text text-anchor="start" x="8" y="-131" font-family="Helvetica,sans-Serif" font-size="10.00"># maxBurn</text>
<text text-anchor="start" x="8" y="-120" font-family="Helvetica,sans-Serif" font-size="10.00"># desiredRange</text>
<text text-anchor="start" x="8" y="-109" font-family="Helvetica,sans-Serif" font-size="10.00"># circleDir</text>
<polyline fill="none" stroke="black" points="0,-102 197,-102 "/>
<text text-anchor="start" x="8" y="-90" font-family="Helvetica,sans-Serif" font-size="10.00">+ GBCircle()</text>
<text text-anchor="start" x="8" y="-79" font-family="Helvetica,sans-Serif" font-size="10.00">+ advance()</text>
</a>
</g>
</g>
<!-- Node1&#45;&gt;Node3 -->
<g id="edge2" class="edge">
<title>Node1&#45;&gt;Node3</title>
<path fill="none" stroke="midnightblue" d="M1601.44,-350.89C1276.41,-343.92 329.13,-318.41 205.5,-256 174.23,-240.21 148.54,-210.8 130.18,-184.26"/>
<polygon fill="none" stroke="midnightblue" points="1601.74,-354.4 1611.81,-351.11 1601.89,-347.4 1601.74,-354.4"/>
</g>
<!-- Node4 -->
<g id="node4" class="node">
<title>Node4</title>
<g id="a_node4"><a xlink:href="../../d8/dea/classcom_1_1fs_1_1starfarer_1_1api_1_1impl_1_1campaign_1_1ghosts_1_1GBDartAround.html" target="_top" xlink:title=" ">
<polygon fill="none" stroke="black" points="215,-50 215,-206 412,-206 412,-50 215,-50"/>
<text text-anchor="start" x="223" y="-194" font-family="Helvetica,sans-Serif" font-size="10.00">com.fs.starfarer.api.impl.campaign.ghosts.</text>
<text text-anchor="middle" x="313.5" y="-183" font-family="Helvetica,sans-Serif" font-size="10.00">GBDartAround</text>
<polyline fill="none" stroke="black" points="215,-176 412,-176 "/>
<text text-anchor="start" x="223" y="-164" font-family="Helvetica,sans-Serif" font-size="10.00"># other</text>
<text text-anchor="start" x="223" y="-153" font-family="Helvetica,sans-Serif" font-size="10.00"># maxBurn</text>
<text text-anchor="start" x="223" y="-142" font-family="Helvetica,sans-Serif" font-size="10.00"># desiredRange</text>
<text text-anchor="start" x="223" y="-131" font-family="Helvetica,sans-Serif" font-size="10.00"># desiredRangeMin</text>
<text text-anchor="start" x="223" y="-120" font-family="Helvetica,sans-Serif" font-size="10.00"># desiredRangeMax</text>
<text text-anchor="start" x="223" y="-109" font-family="Helvetica,sans-Serif" font-size="10.00"># interval</text>
<text text-anchor="start" x="223" y="-98" font-family="Helvetica,sans-Serif" font-size="10.00"># angleOffset</text>
<text text-anchor="start" x="223" y="-87" font-family="Helvetica,sans-Serif" font-size="10.00"># dest</text>
<polyline fill="none" stroke="black" points="215,-80 412,-80 "/>
<text text-anchor="start" x="223" y="-68" font-family="Helvetica,sans-Serif" font-size="10.00">+ GBDartAround()</text>
<text text-anchor="start" x="223" y="-57" font-family="Helvetica,sans-Serif" font-size="10.00">+ advance()</text>
</a>
</g>
</g>
<!-- Node1&#45;&gt;Node4 -->
<g id="edge3" class="edge">
<title>Node1&#45;&gt;Node4</title>
<path fill="none" stroke="midnightblue" d="M1601.78,-349.64C1309.94,-339.94 524.4,-309.15 420.5,-256 397.78,-244.38 377.99,-225.62 361.8,-206.04"/>
<polygon fill="none" stroke="midnightblue" points="1601.84,-353.14 1611.95,-349.97 1602.07,-346.14 1601.84,-353.14"/>
</g>
<!-- Node5 -->
<g id="node5" class="node">
<title>Node5</title>
<g id="a_node5"><a xlink:href="../../d8/d6b/classcom_1_1fs_1_1starfarer_1_1api_1_1impl_1_1campaign_1_1ghosts_1_1GBEchoMovement.html" target="_top" xlink:title=" ">
<polygon fill="none" stroke="black" points="430,-77.5 430,-178.5 627,-178.5 627,-77.5 430,-77.5"/>
<text text-anchor="start" x="438" y="-166.5" font-family="Helvetica,sans-Serif" font-size="10.00">com.fs.starfarer.api.impl.campaign.ghosts.</text>
<text text-anchor="middle" x="528.5" y="-155.5" font-family="Helvetica,sans-Serif" font-size="10.00">GBEchoMovement</text>
<polyline fill="none" stroke="black" points="430,-148.5 627,-148.5 "/>
<text text-anchor="start" x="438" y="-136.5" font-family="Helvetica,sans-Serif" font-size="10.00"># snapshots</text>
<text text-anchor="start" x="438" y="-125.5" font-family="Helvetica,sans-Serif" font-size="10.00"># other</text>
<text text-anchor="start" x="438" y="-114.5" font-family="Helvetica,sans-Serif" font-size="10.00"># delayDays</text>
<polyline fill="none" stroke="black" points="430,-107.5 627,-107.5 "/>
<text text-anchor="start" x="438" y="-95.5" font-family="Helvetica,sans-Serif" font-size="10.00">+ GBEchoMovement()</text>
<text text-anchor="start" x="438" y="-84.5" font-family="Helvetica,sans-Serif" font-size="10.00">+ advance()</text>
</a>
</g>
</g>
<!-- Node1&#45;&gt;Node5 -->
<g id="edge4" class="edge">
<title>Node1&#45;&gt;Node5</title>
<path fill="none" stroke="midnightblue" d="M1601.67,-353.53C1362.96,-353.06 801.48,-342.48 635.5,-256 602.39,-238.75 575.4,-206.45 556.8,-178.75"/>
<polygon fill="none" stroke="midnightblue" points="1601.75,-357.03 1611.75,-353.55 1601.76,-350.03 1601.75,-357.03"/>
</g>
<!-- Node6 -->
<g id="node6" class="node">
<title>Node6</title>
<g id="a_node6"><a xlink:href="../../d3/df1/classcom_1_1fs_1_1starfarer_1_1api_1_1impl_1_1campaign_1_1ghosts_1_1GBFollow.html" target="_top" xlink:title=" ">
<polygon fill="none" stroke="black" points="645,-50 645,-206 842,-206 842,-50 645,-50"/>
<text text-anchor="start" x="653" y="-194" font-family="Helvetica,sans-Serif" font-size="10.00">com.fs.starfarer.api.impl.campaign.ghosts.</text>
<text text-anchor="middle" x="743.5" y="-183" font-family="Helvetica,sans-Serif" font-size="10.00">GBFollow</text>
<polyline fill="none" stroke="black" points="645,-176 842,-176 "/>
<text text-anchor="start" x="653" y="-164" font-family="Helvetica,sans-Serif" font-size="10.00"># other</text>
<text text-anchor="start" x="653" y="-153" font-family="Helvetica,sans-Serif" font-size="10.00"># maxBurn</text>
<text text-anchor="start" x="653" y="-142" font-family="Helvetica,sans-Serif" font-size="10.00"># desiredRange</text>
<text text-anchor="start" x="653" y="-131" font-family="Helvetica,sans-Serif" font-size="10.00"># desiredRangeMin</text>
<text text-anchor="start" x="653" y="-120" font-family="Helvetica,sans-Serif" font-size="10.00"># desiredRangeMax</text>
<text text-anchor="start" x="653" y="-109" font-family="Helvetica,sans-Serif" font-size="10.00"># interval</text>
<text text-anchor="start" x="653" y="-98" font-family="Helvetica,sans-Serif" font-size="10.00"># angleOffset</text>
<text text-anchor="start" x="653" y="-87" font-family="Helvetica,sans-Serif" font-size="10.00"># dest</text>
<polyline fill="none" stroke="black" points="645,-80 842,-80 "/>
<text text-anchor="start" x="653" y="-68" font-family="Helvetica,sans-Serif" font-size="10.00">+ GBFollow()</text>
<text text-anchor="start" x="653" y="-57" font-family="Helvetica,sans-Serif" font-size="10.00">+ advance()</text>
</a>
</g>
</g>
<!-- Node1&#45;&gt;Node6 -->
<g id="edge5" class="edge">
<title>Node1&#45;&gt;Node6</title>
<path fill="none" stroke="midnightblue" d="M1601.93,-350.67C1400.56,-344.73 978.08,-324.29 850.5,-256 828.26,-244.09 808.72,-225.49 792.64,-206.16"/>
<polygon fill="none" stroke="midnightblue" points="1601.84,-354.16 1611.94,-350.95 1602.04,-347.17 1601.84,-354.16"/>
</g>
<!-- Node7 -->
<g id="node7" class="node">
<title>Node7</title>
<g id="a_node7"><a xlink:href="../../d7/dc9/classcom_1_1fs_1_1starfarer_1_1api_1_1impl_1_1campaign_1_1ghosts_1_1GBFollowClosely.html" target="_top" xlink:title=" ">
<polygon fill="none" stroke="black" points="860,-61 860,-195 1057,-195 1057,-61 860,-61"/>
<text text-anchor="start" x="868" y="-183" font-family="Helvetica,sans-Serif" font-size="10.00">com.fs.starfarer.api.impl.campaign.ghosts.</text>
<text text-anchor="middle" x="958.5" y="-172" font-family="Helvetica,sans-Serif" font-size="10.00">GBFollowClosely</text>
<polyline fill="none" stroke="black" points="860,-165 1057,-165 "/>
<text text-anchor="start" x="868" y="-153" font-family="Helvetica,sans-Serif" font-size="10.00"># other</text>
<text text-anchor="start" x="868" y="-142" font-family="Helvetica,sans-Serif" font-size="10.00"># maxBurn</text>
<text text-anchor="start" x="868" y="-131" font-family="Helvetica,sans-Serif" font-size="10.00"># desiredRangeMin</text>
<text text-anchor="start" x="868" y="-120" font-family="Helvetica,sans-Serif" font-size="10.00"># desiredRangeMax</text>
<text text-anchor="start" x="868" y="-109" font-family="Helvetica,sans-Serif" font-size="10.00"># interval</text>
<text text-anchor="start" x="868" y="-98" font-family="Helvetica,sans-Serif" font-size="10.00"># angleOffset</text>
<polyline fill="none" stroke="black" points="860,-91 1057,-91 "/>
<text text-anchor="start" x="868" y="-79" font-family="Helvetica,sans-Serif" font-size="10.00">+ GBFollowClosely()</text>
<text text-anchor="start" x="868" y="-68" font-family="Helvetica,sans-Serif" font-size="10.00">+ advance()</text>
</a>
</g>
</g>
<!-- Node1&#45;&gt;Node7 -->
<g id="edge6" class="edge">
<title>Node1&#45;&gt;Node7</title>
<path fill="none" stroke="midnightblue" d="M1601.57,-345.91C1442.35,-334 1155.26,-306.2 1065.5,-256 1039.46,-241.43 1016.98,-217.89 999.45,-195"/>
<polygon fill="none" stroke="midnightblue" points="1601.63,-349.42 1611.86,-346.67 1602.15,-342.44 1601.63,-349.42"/>
</g>
<!-- Node8 -->
<g id="node8" class="node">
<title>Node8</title>
<g id="a_node8"><a xlink:href="../../d9/da1/classcom_1_1fs_1_1starfarer_1_1api_1_1impl_1_1campaign_1_1ghosts_1_1GBFollowStream.html" target="_top" xlink:title=" ">
<polygon fill="none" stroke="black" points="1075,-66.5 1075,-189.5 1272,-189.5 1272,-66.5 1075,-66.5"/>
<text text-anchor="start" x="1083" y="-177.5" font-family="Helvetica,sans-Serif" font-size="10.00">com.fs.starfarer.api.impl.campaign.ghosts.</text>
<text text-anchor="middle" x="1173.5" y="-166.5" font-family="Helvetica,sans-Serif" font-size="10.00">GBFollowStream</text>
<polyline fill="none" stroke="black" points="1075,-159.5 1272,-159.5 "/>
<text text-anchor="start" x="1083" y="-147.5" font-family="Helvetica,sans-Serif" font-size="10.00"># maxBurn</text>
<text text-anchor="start" x="1083" y="-136.5" font-family="Helvetica,sans-Serif" font-size="10.00"># plugin</text>
<text text-anchor="start" x="1083" y="-125.5" font-family="Helvetica,sans-Serif" font-size="10.00"># phase</text>
<text text-anchor="start" x="1083" y="-114.5" font-family="Helvetica,sans-Serif" font-size="10.00"># preferredYOff</text>
<text text-anchor="start" x="1083" y="-103.5" font-family="Helvetica,sans-Serif" font-size="10.00"># courseCorrecting</text>
<polyline fill="none" stroke="black" points="1075,-96.5 1272,-96.5 "/>
<text text-anchor="start" x="1083" y="-84.5" font-family="Helvetica,sans-Serif" font-size="10.00">+ GBFollowStream()</text>
<text text-anchor="start" x="1083" y="-73.5" font-family="Helvetica,sans-Serif" font-size="10.00">+ advance()</text>
</a>
</g>
</g>
<!-- Node1&#45;&gt;Node8 -->
<g id="edge7" class="edge">
<title>Node1&#45;&gt;Node8</title>
<path fill="none" stroke="midnightblue" d="M1601.5,-347.62C1509.99,-338.8 1378.82,-315.78 1280.5,-256 1253.4,-239.52 1229.83,-213.76 1211.77,-189.73"/>
<polygon fill="none" stroke="midnightblue" points="1601.34,-351.12 1611.62,-348.55 1601.98,-344.15 1601.34,-351.12"/>
</g>
<!-- Node9 -->
<g id="node9" class="node">
<title>Node9</title>
<g id="a_node9"><a xlink:href="../../d8/dc0/classcom_1_1fs_1_1starfarer_1_1api_1_1impl_1_1campaign_1_1ghosts_1_1GBGoAwayFrom.html" target="_top" xlink:title=" ">
<polygon fill="none" stroke="black" points="1290,-83 1290,-173 1487,-173 1487,-83 1290,-83"/>
<text text-anchor="start" x="1298" y="-161" font-family="Helvetica,sans-Serif" font-size="10.00">com.fs.starfarer.api.impl.campaign.ghosts.</text>
<text text-anchor="middle" x="1388.5" y="-150" font-family="Helvetica,sans-Serif" font-size="10.00">GBGoAwayFrom</text>
<polyline fill="none" stroke="black" points="1290,-143 1487,-143 "/>
<text text-anchor="start" x="1298" y="-131" font-family="Helvetica,sans-Serif" font-size="10.00"># from</text>
<text text-anchor="start" x="1298" y="-120" font-family="Helvetica,sans-Serif" font-size="10.00"># maxBurn</text>
<polyline fill="none" stroke="black" points="1290,-113 1487,-113 "/>
<text text-anchor="start" x="1298" y="-101" font-family="Helvetica,sans-Serif" font-size="10.00">+ GBGoAwayFrom()</text>
<text text-anchor="start" x="1298" y="-90" font-family="Helvetica,sans-Serif" font-size="10.00">+ advance()</text>
</a>
</g>
</g>
<!-- Node1&#45;&gt;Node9 -->
<g id="edge8" class="edge">
<title>Node1&#45;&gt;Node9</title>
<path fill="none" stroke="midnightblue" d="M1602.22,-315.3C1566.34,-299.99 1527.44,-280.14 1495.5,-256 1465.03,-232.97 1437.43,-199.75 1417.9,-173.07"/>
<polygon fill="none" stroke="midnightblue" points="1601.19,-318.66 1611.76,-319.3 1603.89,-312.21 1601.19,-318.66"/>
</g>
<!-- Node10 -->
<g id="node10" class="node">
<title>Node10</title>
<g id="a_node10"><a xlink:href="../../d3/d25/classcom_1_1fs_1_1starfarer_1_1api_1_1impl_1_1campaign_1_1ghosts_1_1GBGoAwayFromFixed.html" target="_top" xlink:title=" ">
<polygon fill="none" stroke="black" points="1505,-72 1505,-184 1702,-184 1702,-72 1505,-72"/>
<text text-anchor="start" x="1513" y="-172" font-family="Helvetica,sans-Serif" font-size="10.00">com.fs.starfarer.api.impl.campaign.ghosts.</text>
<text text-anchor="middle" x="1603.5" y="-161" font-family="Helvetica,sans-Serif" font-size="10.00">GBGoAwayFromFixed</text>
<polyline fill="none" stroke="black" points="1505,-154 1702,-154 "/>
<text text-anchor="start" x="1513" y="-142" font-family="Helvetica,sans-Serif" font-size="10.00"># dirSet</text>
<text text-anchor="start" x="1513" y="-131" font-family="Helvetica,sans-Serif" font-size="10.00"># dir</text>
<text text-anchor="start" x="1513" y="-120" font-family="Helvetica,sans-Serif" font-size="10.00"># from</text>
<text text-anchor="start" x="1513" y="-109" font-family="Helvetica,sans-Serif" font-size="10.00"># maxBurn</text>
<polyline fill="none" stroke="black" points="1505,-102 1702,-102 "/>
<text text-anchor="start" x="1513" y="-90" font-family="Helvetica,sans-Serif" font-size="10.00">+ GBGoAwayFromFixed()</text>
<text text-anchor="start" x="1513" y="-79" font-family="Helvetica,sans-Serif" font-size="10.00">+ advance()</text>
</a>
</g>
</g>
<!-- Node1&#45;&gt;Node10 -->
<g id="edge9" class="edge">
<title>Node1&#45;&gt;Node10</title>
<path fill="none" stroke="midnightblue" d="M1677.12,-283.12C1661.92,-251.29 1644.17,-214.14 1629.91,-184.29"/>
<polygon fill="none" stroke="midnightblue" points="1674.08,-284.87 1681.54,-292.38 1680.39,-281.85 1674.08,-284.87"/>
</g>
<!-- Node11 -->
<g id="node11" class="node">
<title>Node11</title>
<g id="a_node11"><a xlink:href="../../d1/d3d/classcom_1_1fs_1_1starfarer_1_1api_1_1impl_1_1campaign_1_1ghosts_1_1GBGoInDirection.html" target="_top" xlink:title=" ">
<polygon fill="none" stroke="black" points="1720,-83 1720,-173 1917,-173 1917,-83 1720,-83"/>
<text text-anchor="start" x="1728" y="-161" font-family="Helvetica,sans-Serif" font-size="10.00">com.fs.starfarer.api.impl.campaign.ghosts.</text>
<text text-anchor="middle" x="1818.5" y="-150" font-family="Helvetica,sans-Serif" font-size="10.00">GBGoInDirection</text>
<polyline fill="none" stroke="black" points="1720,-143 1917,-143 "/>
<text text-anchor="start" x="1728" y="-131" font-family="Helvetica,sans-Serif" font-size="10.00"># direction</text>
<text text-anchor="start" x="1728" y="-120" font-family="Helvetica,sans-Serif" font-size="10.00"># maxBurn</text>
<polyline fill="none" stroke="black" points="1720,-113 1917,-113 "/>
<text text-anchor="start" x="1728" y="-101" font-family="Helvetica,sans-Serif" font-size="10.00">+ GBGoInDirection()</text>
<text text-anchor="start" x="1728" y="-90" font-family="Helvetica,sans-Serif" font-size="10.00">+ advance()</text>
</a>
</g>
</g>
<!-- Node1&#45;&gt;Node11 -->
<g id="edge10" class="edge">
<title>Node1&#45;&gt;Node11</title>
<path fill="none" stroke="midnightblue" d="M1744.27,-282.95C1761.55,-247.12 1782.06,-204.59 1797.13,-173.32"/>
<polygon fill="none" stroke="midnightblue" points="1740.92,-281.85 1739.73,-292.38 1747.22,-284.89 1740.92,-281.85"/>
</g>
<!-- Node12 -->
<g id="node12" class="node">
<title>Node12</title>
<g id="a_node12"><a xlink:href="../../d0/d7d/classcom_1_1fs_1_1starfarer_1_1api_1_1impl_1_1campaign_1_1ghosts_1_1GBGoInDirectionWithWobble.html" target="_top" xlink:title=" ">
<polygon fill="none" stroke="black" points="1935,-66.5 1935,-189.5 2132,-189.5 2132,-66.5 1935,-66.5"/>
<text text-anchor="start" x="1943" y="-177.5" font-family="Helvetica,sans-Serif" font-size="10.00">com.fs.starfarer.api.impl.campaign.ghosts.</text>
<text text-anchor="middle" x="2033.5" y="-166.5" font-family="Helvetica,sans-Serif" font-size="10.00">GBGoInDirectionWithWobble</text>
<polyline fill="none" stroke="black" points="1935,-159.5 2132,-159.5 "/>
<text text-anchor="start" x="1943" y="-147.5" font-family="Helvetica,sans-Serif" font-size="10.00"># direction</text>
<text text-anchor="start" x="1943" y="-136.5" font-family="Helvetica,sans-Serif" font-size="10.00"># maxBurn</text>
<text text-anchor="start" x="1943" y="-125.5" font-family="Helvetica,sans-Serif" font-size="10.00"># phase</text>
<text text-anchor="start" x="1943" y="-114.5" font-family="Helvetica,sans-Serif" font-size="10.00"># wobbleRate</text>
<text text-anchor="start" x="1943" y="-103.5" font-family="Helvetica,sans-Serif" font-size="10.00"># maxWobble</text>
<polyline fill="none" stroke="black" points="1935,-96.5 2132,-96.5 "/>
<text text-anchor="start" x="1943" y="-84.5" font-family="Helvetica,sans-Serif" font-size="10.00">+ GBGoInDirectionWithWobble()</text>
<text text-anchor="start" x="1943" y="-73.5" font-family="Helvetica,sans-Serif" font-size="10.00">+ advance()</text>
</a>
</g>
</g>
<!-- Node1&#45;&gt;Node12 -->
<g id="edge11" class="edge">
<title>Node1&#45;&gt;Node12</title>
<path fill="none" stroke="midnightblue" d="M1818.78,-315.59C1854.97,-300.26 1894.27,-280.32 1926.5,-256 1950.9,-237.59 1973.43,-212.66 1991.47,-189.75"/>
<polygon fill="none" stroke="midnightblue" points="1817.05,-312.52 1809.16,-319.59 1819.73,-318.99 1817.05,-312.52"/>
</g>
<!-- Node13 -->
<g id="node13" class="node">
<title>Node13</title>
<g id="a_node13"><a xlink:href="../../d8/d65/classcom_1_1fs_1_1starfarer_1_1api_1_1impl_1_1campaign_1_1ghosts_1_1GBGoTo.html" target="_top" xlink:title=" ">
<polygon fill="none" stroke="black" points="2150,-83 2150,-173 2347,-173 2347,-83 2150,-83"/>
<text text-anchor="start" x="2158" y="-161" font-family="Helvetica,sans-Serif" font-size="10.00">com.fs.starfarer.api.impl.campaign.ghosts.</text>
<text text-anchor="middle" x="2248.5" y="-150" font-family="Helvetica,sans-Serif" font-size="10.00">GBGoTo</text>
<polyline fill="none" stroke="black" points="2150,-143 2347,-143 "/>
<text text-anchor="start" x="2158" y="-131" font-family="Helvetica,sans-Serif" font-size="10.00"># to</text>
<text text-anchor="start" x="2158" y="-120" font-family="Helvetica,sans-Serif" font-size="10.00"># maxBurn</text>
<polyline fill="none" stroke="black" points="2150,-113 2347,-113 "/>
<text text-anchor="start" x="2158" y="-101" font-family="Helvetica,sans-Serif" font-size="10.00">+ GBGoTo()</text>
<text text-anchor="start" x="2158" y="-90" font-family="Helvetica,sans-Serif" font-size="10.00">+ advance()</text>
</a>
</g>
</g>
<!-- Node1&#45;&gt;Node13 -->
<g id="edge12" class="edge">
<title>Node1&#45;&gt;Node13</title>
<path fill="none" stroke="midnightblue" d="M1819.31,-347.71C1911.05,-338.96 2042.78,-315.98 2141.5,-256 2175.01,-235.64 2203.11,-201.07 2222.1,-173.13"/>
<polygon fill="none" stroke="midnightblue" points="1818.81,-344.25 1809.17,-348.64 1819.44,-351.22 1818.81,-344.25"/>
</g>
<!-- Node14 -->
<g id="node14" class="node">
<title>Node14</title>
<g id="a_node14"><a xlink:href="../../dd/dba/classcom_1_1fs_1_1starfarer_1_1api_1_1impl_1_1campaign_1_1ghosts_1_1GBIntercept.html" target="_top" xlink:title=" ">
<polygon fill="none" stroke="black" points="2365,-66.5 2365,-189.5 2562,-189.5 2562,-66.5 2365,-66.5"/>
<text text-anchor="start" x="2373" y="-177.5" font-family="Helvetica,sans-Serif" font-size="10.00">com.fs.starfarer.api.impl.campaign.ghosts.</text>
<text text-anchor="middle" x="2463.5" y="-166.5" font-family="Helvetica,sans-Serif" font-size="10.00">GBIntercept</text>
<polyline fill="none" stroke="black" points="2365,-159.5 2562,-159.5 "/>
<text text-anchor="start" x="2373" y="-147.5" font-family="Helvetica,sans-Serif" font-size="10.00"># other</text>
<text text-anchor="start" x="2373" y="-136.5" font-family="Helvetica,sans-Serif" font-size="10.00"># maxBurn</text>
<text text-anchor="start" x="2373" y="-125.5" font-family="Helvetica,sans-Serif" font-size="10.00"># endOnIntercept</text>
<text text-anchor="start" x="2373" y="-114.5" font-family="Helvetica,sans-Serif" font-size="10.00"># desiredRange</text>
<polyline fill="none" stroke="black" points="2365,-107.5 2562,-107.5 "/>
<text text-anchor="start" x="2373" y="-95.5" font-family="Helvetica,sans-Serif" font-size="10.00">+ GBIntercept()</text>
<text text-anchor="start" x="2373" y="-84.5" font-family="Helvetica,sans-Serif" font-size="10.00">+ GBIntercept()</text>
<text text-anchor="start" x="2373" y="-73.5" font-family="Helvetica,sans-Serif" font-size="10.00">+ advance()</text>
</a>
</g>
</g>
<!-- Node1&#45;&gt;Node14 -->
<g id="edge13" class="edge">
<title>Node1&#45;&gt;Node14</title>
<path fill="none" stroke="midnightblue" d="M1819.6,-345.93C1979.06,-334.04 2266.6,-306.27 2356.5,-256 2384.56,-240.31 2408.47,-214.2 2426.53,-189.71"/>
<polygon fill="none" stroke="midnightblue" points="1819,-342.46 1809.29,-346.69 1819.52,-349.44 1819,-342.46"/>
</g>
<!-- Node15 -->
<g id="node15" class="node">
<title>Node15</title>
<g id="a_node15"><a xlink:href="../../d6/d67/classcom_1_1fs_1_1starfarer_1_1api_1_1impl_1_1campaign_1_1ghosts_1_1GBLeadPlayerTo.html" target="_top" xlink:title=" ">
<polygon fill="none" stroke="black" points="2580,-72 2580,-184 2777,-184 2777,-72 2580,-72"/>
<text text-anchor="start" x="2588" y="-172" font-family="Helvetica,sans-Serif" font-size="10.00">com.fs.starfarer.api.impl.campaign.ghosts.</text>
<text text-anchor="middle" x="2678.5" y="-161" font-family="Helvetica,sans-Serif" font-size="10.00">GBLeadPlayerTo</text>
<polyline fill="none" stroke="black" points="2580,-154 2777,-154 "/>
<text text-anchor="start" x="2588" y="-142" font-family="Helvetica,sans-Serif" font-size="10.00"># to</text>
<text text-anchor="start" x="2588" y="-131" font-family="Helvetica,sans-Serif" font-size="10.00"># maxBurn</text>
<text text-anchor="start" x="2588" y="-120" font-family="Helvetica,sans-Serif" font-size="10.00"># maxDistAhead</text>
<text text-anchor="start" x="2588" y="-109" font-family="Helvetica,sans-Serif" font-size="10.00"># returningToPlayer</text>
<polyline fill="none" stroke="black" points="2580,-102 2777,-102 "/>
<text text-anchor="start" x="2588" y="-90" font-family="Helvetica,sans-Serif" font-size="10.00">+ GBLeadPlayerTo()</text>
<text text-anchor="start" x="2588" y="-79" font-family="Helvetica,sans-Serif" font-size="10.00">+ advance()</text>
</a>
</g>
</g>
<!-- Node1&#45;&gt;Node15 -->
<g id="edge14" class="edge">
<title>Node1&#45;&gt;Node15</title>
<path fill="none" stroke="midnightblue" d="M1819.2,-350.68C2020.79,-344.77 2443.77,-324.36 2571.5,-256 2602.13,-239.61 2627.63,-210.51 2646.05,-184.3"/>
<polygon fill="none" stroke="midnightblue" points="1819.07,-347.18 1809.18,-350.97 1819.27,-354.18 1819.07,-347.18"/>
</g>
<!-- Node16 -->
<g id="node16" class="node">
<title>Node16</title>
<g id="a_node16"><a xlink:href="../../d0/d43/classcom_1_1fs_1_1starfarer_1_1api_1_1impl_1_1campaign_1_1ghosts_1_1GBLeviathanCalfRun.html" target="_top" xlink:title=" ">
<polygon fill="none" stroke="black" points="2795,-0.5 2795,-255.5 2992,-255.5 2992,-0.5 2795,-0.5"/>
<text text-anchor="start" x="2803" y="-243.5" font-family="Helvetica,sans-Serif" font-size="10.00">com.fs.starfarer.api.impl.campaign.ghosts.</text>
<text text-anchor="middle" x="2893.5" y="-232.5" font-family="Helvetica,sans-Serif" font-size="10.00">GBLeviathanCalfRun</text>
<polyline fill="none" stroke="black" points="2795,-225.5 2992,-225.5 "/>
<text text-anchor="start" x="2803" y="-213.5" font-family="Helvetica,sans-Serif" font-size="10.00">+ SENSOR_BURST_TURN_RATE</text>
<text text-anchor="start" x="2803" y="-202.5" font-family="Helvetica,sans-Serif" font-size="10.00">+ PULSE_BURN_BONUS</text>
<text text-anchor="start" x="2803" y="-191.5" font-family="Helvetica,sans-Serif" font-size="10.00">+ PULSE_BURN_BONUS_DECAY</text>
<text text-anchor="start" x="2803" y="-180.5" font-family="Helvetica,sans-Serif" font-size="10.00"># dirSet</text>
<text text-anchor="start" x="2803" y="-169.5" font-family="Helvetica,sans-Serif" font-size="10.00"># dir</text>
<text text-anchor="start" x="2803" y="-158.5" font-family="Helvetica,sans-Serif" font-size="10.00"># burnBonus</text>
<text text-anchor="start" x="2803" y="-147.5" font-family="Helvetica,sans-Serif" font-size="10.00"># origPluginBurn</text>
<text text-anchor="start" x="2803" y="-136.5" font-family="Helvetica,sans-Serif" font-size="10.00"># from</text>
<text text-anchor="start" x="2803" y="-125.5" font-family="Helvetica,sans-Serif" font-size="10.00"># phase</text>
<text text-anchor="start" x="2803" y="-114.5" font-family="Helvetica,sans-Serif" font-size="10.00"># maxBurn</text>
<text text-anchor="start" x="2803" y="-103.5" font-family="Helvetica,sans-Serif" font-size="10.00"># plugin</text>
<text text-anchor="start" x="2803" y="-92.5" font-family="Helvetica,sans-Serif" font-size="10.00"># affectedByPulse</text>
<text text-anchor="start" x="2803" y="-81.5" font-family="Helvetica,sans-Serif" font-size="10.00"># wobbleRate</text>
<text text-anchor="start" x="2803" y="-70.5" font-family="Helvetica,sans-Serif" font-size="10.00"># maxWobble</text>
<polyline fill="none" stroke="black" points="2795,-63.5 2992,-63.5 "/>
<text text-anchor="start" x="2803" y="-51.5" font-family="Helvetica,sans-Serif" font-size="10.00">+ GBLeviathanCalfRun()</text>
<text text-anchor="start" x="2803" y="-40.5" font-family="Helvetica,sans-Serif" font-size="10.00">+ advance()</text>
<text text-anchor="start" x="2803" y="-29.5" font-family="Helvetica,sans-Serif" font-size="10.00">+ checkInterdictionPulses()</text>
<text text-anchor="start" x="2803" y="-18.5" font-family="Helvetica,sans-Serif" font-size="10.00">+ checkSensorBursts()</text>
<text text-anchor="start" x="2803" y="-7.5" font-family="Helvetica,sans-Serif" font-size="10.00">+ setSlipstream()</text>
</a>
</g>
</g>
<!-- Node1&#45;&gt;Node16 -->
<g id="edge15" class="edge">
<title>Node1&#45;&gt;Node16</title>
<path fill="none" stroke="midnightblue" d="M1819.43,-353.54C2058.36,-353.09 2620.36,-342.55 2786.5,-256 2789.31,-254.53 2792.08,-252.96 2794.8,-251.29"/>
<polygon fill="none" stroke="midnightblue" points="1819.34,-350.04 1809.34,-353.56 1819.35,-357.04 1819.34,-350.04"/>
</g>
<!-- Node17 -->
<g id="node17" class="node">
<title>Node17</title>
<g id="a_node17"><a xlink:href="../../d4/dce/classcom_1_1fs_1_1starfarer_1_1api_1_1impl_1_1campaign_1_1ghosts_1_1GBStayInPlace.html" target="_top" xlink:title=" ">
<polygon fill="none" stroke="black" points="3010,-88.5 3010,-167.5 3207,-167.5 3207,-88.5 3010,-88.5"/>
<text text-anchor="start" x="3018" y="-155.5" font-family="Helvetica,sans-Serif" font-size="10.00">com.fs.starfarer.api.impl.campaign.ghosts.</text>
<text text-anchor="middle" x="3108.5" y="-144.5" font-family="Helvetica,sans-Serif" font-size="10.00">GBStayInPlace</text>
<polyline fill="none" stroke="black" points="3010,-137.5 3207,-137.5 "/>
<text text-anchor="middle" x="3108.5" y="-125.5" font-family="Helvetica,sans-Serif" font-size="10.00"> </text>
<polyline fill="none" stroke="black" points="3010,-118.5 3207,-118.5 "/>
<text text-anchor="start" x="3018" y="-106.5" font-family="Helvetica,sans-Serif" font-size="10.00">+ GBStayInPlace()</text>
<text text-anchor="start" x="3018" y="-95.5" font-family="Helvetica,sans-Serif" font-size="10.00">+ advance()</text>
</a>
</g>
</g>
<!-- Node1&#45;&gt;Node17 -->
<g id="edge16" class="edge">
<title>Node1&#45;&gt;Node17</title>
<path fill="none" stroke="midnightblue" d="M1819.31,-349.64C2111.37,-339.95 2897.52,-309.19 3001.5,-256 3039.36,-236.63 3069.11,-197.42 3087.53,-167.67"/>
<polygon fill="none" stroke="midnightblue" points="1819.01,-346.15 1809.13,-349.98 1819.24,-353.14 1819.01,-346.15"/>
</g>
<!-- Node18 -->
<g id="node18" class="node">
<title>Node18</title>
<g id="a_node18"><a xlink:href="../../da/d3a/classcom_1_1fs_1_1starfarer_1_1api_1_1impl_1_1campaign_1_1ghosts_1_1GBStormArea.html" target="_top" xlink:title=" ">
<polygon fill="none" stroke="black" points="3225,-88.5 3225,-167.5 3422,-167.5 3422,-88.5 3225,-88.5"/>
<text text-anchor="start" x="3233" y="-155.5" font-family="Helvetica,sans-Serif" font-size="10.00">com.fs.starfarer.api.impl.campaign.ghosts.</text>
<text text-anchor="middle" x="3323.5" y="-144.5" font-family="Helvetica,sans-Serif" font-size="10.00">GBStormArea</text>
<polyline fill="none" stroke="black" points="3225,-137.5 3422,-137.5 "/>
<text text-anchor="start" x="3233" y="-125.5" font-family="Helvetica,sans-Serif" font-size="10.00"># radius</text>
<polyline fill="none" stroke="black" points="3225,-118.5 3422,-118.5 "/>
<text text-anchor="start" x="3233" y="-106.5" font-family="Helvetica,sans-Serif" font-size="10.00">+ GBStormArea()</text>
<text text-anchor="start" x="3233" y="-95.5" font-family="Helvetica,sans-Serif" font-size="10.00">+ advance()</text>
</a>
</g>
</g>
<!-- Node1&#45;&gt;Node18 -->
<g id="edge17" class="edge">
<title>Node1&#45;&gt;Node18</title>
<path fill="none" stroke="midnightblue" d="M1819.63,-350.89C2144.88,-343.93 3092.79,-318.45 3216.5,-256 3254.46,-236.84 3284.2,-197.59 3302.59,-167.77"/>
<polygon fill="none" stroke="midnightblue" points="1819.18,-347.4 1809.26,-351.11 1819.33,-354.4 1819.18,-347.4"/>
</g>
<!-- Node2 -->
<g id="node2" class="node">
<title>Node2</title>
<g id="a_node2"><a xlink:href="../../d6/dba/interfacecom_1_1fs_1_1starfarer_1_1api_1_1impl_1_1campaign_1_1ghosts_1_1GhostBehavior.html" target="_top" xlink:title=" ">
<polygon fill="none" stroke="black" points="1612,-452.5 1612,-542.5 1809,-542.5 1809,-452.5 1612,-452.5"/>
<text text-anchor="start" x="1620" y="-530.5" font-family="Helvetica,sans-Serif" font-size="10.00">com.fs.starfarer.api.impl.campaign.ghosts.</text>
<text text-anchor="middle" x="1710.5" y="-519.5" font-family="Helvetica,sans-Serif" font-size="10.00">GhostBehavior</text>
<polyline fill="none" stroke="black" points="1612,-512.5 1809,-512.5 "/>
<text text-anchor="middle" x="1710.5" y="-500.5" font-family="Helvetica,sans-Serif" font-size="10.00"> </text>
<polyline fill="none" stroke="black" points="1612,-493.5 1809,-493.5 "/>
<text text-anchor="start" x="1620" y="-481.5" font-family="Helvetica,sans-Serif" font-size="10.00">+ isDone()</text>
<text text-anchor="start" x="1620" y="-470.5" font-family="Helvetica,sans-Serif" font-size="10.00">+ advance()</text>
<text text-anchor="start" x="1620" y="-459.5" font-family="Helvetica,sans-Serif" font-size="10.00">+ addInterrupt()</text>
</a>
</g>
</g>
<!-- Node2&#45;&gt;Node1 -->
<g id="edge1" class="edge">
<title>Node2&#45;&gt;Node1</title>
<path fill="none" stroke="midnightblue" d="M1710.5,-442.11C1710.5,-433.42 1710.5,-424.38 1710.5,-415.56"/>
<polygon fill="none" stroke="midnightblue" points="1707,-442.12 1710.5,-452.12 1714,-442.12 1707,-442.12"/>
</g>
</g>
</svg>
        <g id="navigator" transform="translate(0 0)" fill="#404254">
                <rect fill="#f2f5e9" fill-opacity="0.5" stroke="#606060" stroke-width=".5" x="0" y="0" width="60" height="60"/>
                <use id="zoomplus" xlink:href="#zoomPlus" x="17" y="9" onmousedown="handleZoom(evt,'in')"/>
                <use id="zoomminus" xlink:href="#zoomMin" x="42" y="9" onmousedown="handleZoom(evt,'out')"/>
                <use id="reset" xlink:href="#resetDef" x="30" y="36" onmousedown="handleReset()"/>
                <g id="arrowUp" xlink:href="#dirArrow" transform="translate(30 24)" onmousedown="handlePan(0,-1)">
                  <use xlink:href="#rim" fill="#404040">
                        <set attributeName="fill" to="#808080" begin="arrowUp.mouseover" end="arrowUp.mouseout"/>
                  </use>
                  <path fill="none" stroke="white" stroke-width="1.5" d="M0,-3.0v7 M-2.5,-0.5L0,-3.0L2.5,-0.5"/>
                </g>
                <g id="arrowRight" xlink:href="#dirArrow" transform="rotate(90) translate(36 -43)" onmousedown="handlePan(1,0)">
                  <use xlink:href="#rim" fill="#404040">
                        <set attributeName="fill" to="#808080" begin="arrowRight.mouseover" end="arrowRight.mouseout"/>
                  </use>
                  <path fill="none" stroke="white" stroke-width="1.5" d="M0,-3.0v7 M-2.5,-0.5L0,-3.0L2.5,-0.5"/>
                </g>
                <g id="arrowDown" xlink:href="#dirArrow" transform="rotate(180) translate(-30 -48)" onmousedown="handlePan(0,1)">
                  <use xlink:href="#rim" fill="#404040">
                        <set attributeName="fill" to="#808080" begin="arrowDown.mouseover" end="arrowDown.mouseout"/>
                  </use>
                  <path fill="none" stroke="white" stroke-width="1.5" d="M0,-3.0v7 M-2.5,-0.5L0,-3.0L2.5,-0.5"/>
                </g>
                <g id="arrowLeft" xlink:href="#dirArrow" transform="rotate(270) translate(-36 17)" onmousedown="handlePan(-1,0)">
                  <use xlink:href="#rim" fill="#404040">
                        <set attributeName="fill" to="#808080" begin="arrowLeft.mouseover" end="arrowLeft.mouseout"/>
                  </use>
                  <path fill="none" stroke="white" stroke-width="1.5" d="M0,-3.0v7 M-2.5,-0.5L0,-3.0L2.5,-0.5"/>
                </g>
        </g>
        <svg viewBox="0 0 15 15" width="100%" height="30px" preserveAspectRatio="xMaxYMin meet">
         <g id="arrow_out" transform="scale(0.3 0.3)">
          <a xlink:href="classcom_1_1fs_1_1starfarer_1_1api_1_1impl_1_1campaign_1_1ghosts_1_1BaseGhostBehavior__inherit__graph_org.svg" target="_base">
           <rect id="button" ry="5" rx="5" y="6" x="6" height="38" width="38"
                fill="#f2f5e9" fill-opacity="0.5" stroke="#606060" stroke-width="1.0"/>
           <path id="arrow"
             d="M 11.500037,31.436501 C 11.940474,20.09759 22.043105,11.32322 32.158766,21.979434 L 37.068811,17.246167 C 37.068811,17.246167 37.088388,32 37.088388,32 L 22.160133,31.978069 C 22.160133,31.978069 26.997745,27.140456 26.997745,27.140456 C 18.528582,18.264221 13.291696,25.230495 11.500037,31.436501 z"
             style="fill:#404040;"/>
          </a>
         </g>
        </svg>
</svg>
