<?xml version="1.0" encoding="UTF-8" standalone="no"?>
<!DOCTYPE svg PUBLIC "-//W3C//DTD SVG 1.1//EN"
 "http://www.w3.org/Graphics/SVG/1.1/DTD/svg11.dtd">
<!-- Generated by graphviz version 2.44.0 ()
 -->
<!-- Title: com.fs.starfarer.api.impl.campaign.procgen.themes.SalvageSpecialAssigner.SleeperPodsSpecialCreator Pages: 1 -->
<!--zoomable 402 -->
<svg id="main" version="1.1" xmlns="http://www.w3.org/2000/svg" xmlns:xlink="http://www.w3.org/1999/xlink" xml:space="preserve" onload="init(evt)">
<style type="text/css"><![CDATA[
.edge:hover path { stroke: red; }
.edge:hover polygon { stroke: red; fill: red; }
]]></style>
<script type="text/javascript"><![CDATA[
var edges = document.getElementsByTagName('g');
if (edges && edges.length) {
  for (var i=0;i<edges.length;i++) {
    if (edges[i].id.substr(0,4)=='edge') {
      edges[i].setAttribute('class','edge');
    }
  }
}
]]></script>
        <defs>
                <circle id="rim" cx="0" cy="0" r="7"/>
                <circle id="rim2" cx="0" cy="0" r="3.5"/>
                <g id="zoomPlus">
                        <use xlink:href="#rim" fill="#404040">
                                <set attributeName="fill" to="#808080" begin="zoomplus.mouseover" end="zoomplus.mouseout"/>
                        </use>
                        <path d="M-4,0h8M0,-4v8" fill="none" stroke="white" stroke-width="1.5" pointer-events="none"/>
                </g>
                <g id="zoomMin">
                        <use xlink:href="#rim" fill="#404040">
                                <set attributeName="fill" to="#808080" begin="zoomminus.mouseover" end="zoomminus.mouseout"/>
                        </use>
                        <path d="M-4,0h8" fill="none" stroke="white" stroke-width="1.5" pointer-events="none"/>
                </g>
                <g id="dirArrow">
                        <path fill="none" stroke="white" stroke-width="1.5" d="M0,-3.0v7 M-2.5,-0.5L0,-3.0L2.5,-0.5"/>
                </g>
               <g id="resetDef">
                       <use xlink:href="#rim2" fill="#404040">
                               <set attributeName="fill" to="#808080" begin="reset.mouseover" end="reset.mouseout"/>
                       </use>
               </g>
        </defs>

<script type="text/javascript">
var viewWidth = 788;
var viewHeight = 402;
var sectionId = 'dynsection-1';
</script>
<script xlink:href="../../svgpan.js"/>
<svg id="graph" class="graph">
<g id="viewport">
<title>com.fs.starfarer.api.impl.campaign.procgen.themes.SalvageSpecialAssigner.SleeperPodsSpecialCreator</title>
<!-- Node1 -->
<g id="node1" class="node">
<title>Node1</title>
<g id="a_node1"><a xlink:title=" ">
<polygon fill="#bfbfbf" stroke="black" points="277.5,-0.5 277.5,-90.5 521.5,-90.5 521.5,-0.5 277.5,-0.5"/>
<text text-anchor="start" x="285.5" y="-78.5" font-family="Helvetica,sans-Serif" font-size="10.00">com.fs.starfarer.api.impl.campaign.procgen.themes.</text>
<text text-anchor="middle" x="399.5" y="-67.5" font-family="Helvetica,sans-Serif" font-size="10.00">SalvageSpecialAssigner.SleeperPodsSpecialCreator</text>
<polyline fill="none" stroke="black" points="277.5,-60.5 521.5,-60.5 "/>
<text text-anchor="start" x="285.5" y="-48.5" font-family="Helvetica,sans-Serif" font-size="10.00">~ max</text>
<text text-anchor="start" x="285.5" y="-37.5" font-family="Helvetica,sans-Serif" font-size="10.00">&#45; min</text>
<polyline fill="none" stroke="black" points="277.5,-30.5 521.5,-30.5 "/>
<text text-anchor="start" x="285.5" y="-18.5" font-family="Helvetica,sans-Serif" font-size="10.00">+ SleeperPodsSpecialCreator()</text>
<text text-anchor="start" x="285.5" y="-7.5" font-family="Helvetica,sans-Serif" font-size="10.00">+ createSpecial()</text>
</a>
</g>
</g>
<!-- Node2 -->
<g id="node2" class="node">
<title>Node2</title>
<g id="a_node2"><a xlink:href="../../dc/d6d/interfacecom_1_1fs_1_1starfarer_1_1api_1_1impl_1_1campaign_1_1procgen_1_1themes_1_1SalvageSpecialAssigner_1_1SpecialCreator.html" target="_top" xlink:title=" ">
<polygon fill="none" stroke="black" points="0,-232 0,-300 237,-300 237,-232 0,-232"/>
<text text-anchor="start" x="8" y="-288" font-family="Helvetica,sans-Serif" font-size="10.00">com.fs.starfarer.api.impl.campaign.procgen.themes.</text>
<text text-anchor="middle" x="118.5" y="-277" font-family="Helvetica,sans-Serif" font-size="10.00">SalvageSpecialAssigner.SpecialCreator</text>
<polyline fill="none" stroke="black" points="0,-270 237,-270 "/>
<text text-anchor="middle" x="118.5" y="-258" font-family="Helvetica,sans-Serif" font-size="10.00"> </text>
<polyline fill="none" stroke="black" points="0,-251 237,-251 "/>
<text text-anchor="start" x="8" y="-239" font-family="Helvetica,sans-Serif" font-size="10.00">+ createSpecial()</text>
</a>
</g>
</g>
<!-- Node2&#45;&gt;Node1 -->
<g id="edge1" class="edge">
<title>Node2&#45;&gt;Node1</title>
<path fill="none" stroke="midnightblue" d="M154.19,-224.38C178.46,-198.05 212.11,-163.95 245.5,-138 267.48,-120.92 292.91,-104.6 316.7,-90.59"/>
<polygon fill="none" stroke="midnightblue" points="151.45,-222.19 147.29,-231.93 156.62,-226.91 151.45,-222.19"/>
</g>
<!-- Node3 -->
<g id="node3" class="node">
<title>Node3</title>
<g id="a_node3"><a xlink:href="../../df/d90/classcom_1_1fs_1_1starfarer_1_1api_1_1util_1_1WeightedRandomPicker.html" target="_top" xlink:title=" ">
<polygon fill="none" stroke="black" points="255,-138.5 255,-393.5 418,-393.5 418,-138.5 255,-138.5"/>
<text text-anchor="start" x="263" y="-381.5" font-family="Helvetica,sans-Serif" font-size="10.00">com.fs.starfarer.api.util.</text>
<text text-anchor="middle" x="336.5" y="-370.5" font-family="Helvetica,sans-Serif" font-size="10.00">WeightedRandomPicker&lt; String &gt;</text>
<polyline fill="none" stroke="black" points="255,-363.5 418,-363.5 "/>
<text text-anchor="start" x="263" y="-351.5" font-family="Helvetica,sans-Serif" font-size="10.00">&#45; items</text>
<text text-anchor="start" x="263" y="-340.5" font-family="Helvetica,sans-Serif" font-size="10.00">&#45; weights</text>
<text text-anchor="start" x="263" y="-329.5" font-family="Helvetica,sans-Serif" font-size="10.00">&#45; w</text>
<text text-anchor="start" x="263" y="-318.5" font-family="Helvetica,sans-Serif" font-size="10.00">&#45; total</text>
<text text-anchor="start" x="263" y="-307.5" font-family="Helvetica,sans-Serif" font-size="10.00">&#45; ignoreWeights</text>
<text text-anchor="start" x="263" y="-296.5" font-family="Helvetica,sans-Serif" font-size="10.00">&#45; random</text>
<polyline fill="none" stroke="black" points="255,-289.5 418,-289.5 "/>
<text text-anchor="start" x="263" y="-277.5" font-family="Helvetica,sans-Serif" font-size="10.00">+ clone()</text>
<text text-anchor="start" x="263" y="-266.5" font-family="Helvetica,sans-Serif" font-size="10.00">+ WeightedRandomPicker()</text>
<text text-anchor="start" x="263" y="-255.5" font-family="Helvetica,sans-Serif" font-size="10.00">+ WeightedRandomPicker()</text>
<text text-anchor="start" x="263" y="-244.5" font-family="Helvetica,sans-Serif" font-size="10.00">+ WeightedRandomPicker()</text>
<text text-anchor="start" x="263" y="-233.5" font-family="Helvetica,sans-Serif" font-size="10.00">+ clear()</text>
<text text-anchor="start" x="263" y="-222.5" font-family="Helvetica,sans-Serif" font-size="10.00">+ addAll()</text>
<text text-anchor="start" x="263" y="-211.5" font-family="Helvetica,sans-Serif" font-size="10.00">+ addAll()</text>
<text text-anchor="start" x="263" y="-200.5" font-family="Helvetica,sans-Serif" font-size="10.00">+ add()</text>
<text text-anchor="start" x="263" y="-189.5" font-family="Helvetica,sans-Serif" font-size="10.00">+ add()</text>
<text text-anchor="start" x="263" y="-178.5" font-family="Helvetica,sans-Serif" font-size="10.00">+ remove()</text>
<text text-anchor="start" x="263" y="-167.5" font-family="Helvetica,sans-Serif" font-size="10.00">and 12 more...</text>
<text text-anchor="start" x="263" y="-156.5" font-family="Helvetica,sans-Serif" font-size="10.00">~ readResolve()</text>
<text text-anchor="start" x="263" y="-145.5" font-family="Helvetica,sans-Serif" font-size="10.00">~ writeReplace()</text>
</a>
</g>
</g>
<!-- Node3&#45;&gt;Node1 -->
<g id="edge2" class="edge">
<title>Node3&#45;&gt;Node1</title>
<path fill="none" stroke="#404040" d="M362.63,-138.4C365.39,-128.38 368.35,-118.48 371.5,-109 372.25,-106.76 373.04,-104.49 373.88,-102.21"/>
<polygon fill="none" stroke="#404040" points="373.98,-101.97 372.44,-94.92 378.35,-90.79 379.89,-97.84 373.98,-101.97"/>
<text text-anchor="middle" x="406" y="-112" font-family="Helvetica,sans-Serif" font-size="10.00"> &#45;officerFactions</text>
</g>
<!-- Node4 -->
<g id="node4" class="node">
<title>Node4</title>
<g id="a_node4"><a xlink:title=" ">
<polygon fill="none" stroke="#bfbfbf" points="436,-237.5 436,-294.5 489,-294.5 489,-237.5 436,-237.5"/>
<text text-anchor="middle" x="462.5" y="-282.5" font-family="Helvetica,sans-Serif" font-size="10.00">Random</text>
<polyline fill="none" stroke="#bfbfbf" points="436,-275.5 489,-275.5 "/>
<text text-anchor="middle" x="462.5" y="-263.5" font-family="Helvetica,sans-Serif" font-size="10.00"> </text>
<polyline fill="none" stroke="#bfbfbf" points="436,-256.5 489,-256.5 "/>
<text text-anchor="middle" x="462.5" y="-244.5" font-family="Helvetica,sans-Serif" font-size="10.00"> </text>
</a>
</g>
</g>
<!-- Node4&#45;&gt;Node1 -->
<g id="edge3" class="edge">
<title>Node4&#45;&gt;Node1</title>
<path fill="none" stroke="#404040" d="M462.22,-237.33C461.09,-205.43 456.65,-151.87 440.5,-109 439.55,-106.48 438.49,-103.97 437.34,-101.46"/>
<polygon fill="none" stroke="#404040" points="437.26,-101.31 430.96,-97.8 431.78,-90.63 438.08,-94.14 437.26,-101.31"/>
<text text-anchor="middle" x="462.5" y="-112" font-family="Helvetica,sans-Serif" font-size="10.00"> &#45;random</text>
</g>
<!-- Node5 -->
<g id="node5" class="node">
<title>Node5</title>
<g id="a_node5"><a xlink:href="../../d5/d43/enumcom_1_1fs_1_1starfarer_1_1api_1_1impl_1_1campaign_1_1rulecmd_1_1salvage_1_1special_1_1Sleepeda3b230931a92445ccb96dc9c928387b.html" target="_top" xlink:title=" ">
<polygon fill="none" stroke="black" points="507.5,-210 507.5,-322 779.5,-322 779.5,-210 507.5,-210"/>
<text text-anchor="start" x="515.5" y="-310" font-family="Helvetica,sans-Serif" font-size="10.00">com.fs.starfarer.api.impl.campaign.rulecmd.salvage.special.</text>
<text text-anchor="middle" x="643.5" y="-299" font-family="Helvetica,sans-Serif" font-size="10.00">SleeperPodsSpecial.SleeperSpecialType</text>
<polyline fill="none" stroke="black" points="507.5,-292 779.5,-292 "/>
<text text-anchor="start" x="515.5" y="-280" font-family="Helvetica,sans-Serif" font-size="10.00">+ CREW</text>
<text text-anchor="start" x="515.5" y="-269" font-family="Helvetica,sans-Serif" font-size="10.00">+ MARINES</text>
<text text-anchor="start" x="515.5" y="-258" font-family="Helvetica,sans-Serif" font-size="10.00">+ OFFICER</text>
<text text-anchor="start" x="515.5" y="-247" font-family="Helvetica,sans-Serif" font-size="10.00">+ ADMIN</text>
<text text-anchor="start" x="515.5" y="-236" font-family="Helvetica,sans-Serif" font-size="10.00">+ ORGANS</text>
<polyline fill="none" stroke="black" points="507.5,-229 779.5,-229 "/>
<text text-anchor="middle" x="643.5" y="-217" font-family="Helvetica,sans-Serif" font-size="10.00"> </text>
</a>
</g>
</g>
<!-- Node5&#45;&gt;Node1 -->
<g id="edge4" class="edge">
<title>Node5&#45;&gt;Node1</title>
<path fill="none" stroke="#404040" d="M591.65,-209.85C561.69,-179.01 522.68,-140.55 485.5,-109 481.35,-105.48 477.02,-101.94 472.6,-98.43"/>
<polygon fill="none" stroke="#404040" points="472.29,-98.19 465.1,-97.67 462.81,-90.83 470.01,-91.35 472.29,-98.19"/>
<text text-anchor="middle" x="506.5" y="-112" font-family="Helvetica,sans-Serif" font-size="10.00"> &#45;type</text>
</g>
</g>
</svg>
        <g id="navigator" transform="translate(0 0)" fill="#404254">
                <rect fill="#f2f5e9" fill-opacity="0.5" stroke="#606060" stroke-width=".5" x="0" y="0" width="60" height="60"/>
                <use id="zoomplus" xlink:href="#zoomPlus" x="17" y="9" onmousedown="handleZoom(evt,'in')"/>
                <use id="zoomminus" xlink:href="#zoomMin" x="42" y="9" onmousedown="handleZoom(evt,'out')"/>
                <use id="reset" xlink:href="#resetDef" x="30" y="36" onmousedown="handleReset()"/>
                <g id="arrowUp" xlink:href="#dirArrow" transform="translate(30 24)" onmousedown="handlePan(0,-1)">
                  <use xlink:href="#rim" fill="#404040">
                        <set attributeName="fill" to="#808080" begin="arrowUp.mouseover" end="arrowUp.mouseout"/>
                  </use>
                  <path fill="none" stroke="white" stroke-width="1.5" d="M0,-3.0v7 M-2.5,-0.5L0,-3.0L2.5,-0.5"/>
                </g>
                <g id="arrowRight" xlink:href="#dirArrow" transform="rotate(90) translate(36 -43)" onmousedown="handlePan(1,0)">
                  <use xlink:href="#rim" fill="#404040">
                        <set attributeName="fill" to="#808080" begin="arrowRight.mouseover" end="arrowRight.mouseout"/>
                  </use>
                  <path fill="none" stroke="white" stroke-width="1.5" d="M0,-3.0v7 M-2.5,-0.5L0,-3.0L2.5,-0.5"/>
                </g>
                <g id="arrowDown" xlink:href="#dirArrow" transform="rotate(180) translate(-30 -48)" onmousedown="handlePan(0,1)">
                  <use xlink:href="#rim" fill="#404040">
                        <set attributeName="fill" to="#808080" begin="arrowDown.mouseover" end="arrowDown.mouseout"/>
                  </use>
                  <path fill="none" stroke="white" stroke-width="1.5" d="M0,-3.0v7 M-2.5,-0.5L0,-3.0L2.5,-0.5"/>
                </g>
                <g id="arrowLeft" xlink:href="#dirArrow" transform="rotate(270) translate(-36 17)" onmousedown="handlePan(-1,0)">
                  <use xlink:href="#rim" fill="#404040">
                        <set attributeName="fill" to="#808080" begin="arrowLeft.mouseover" end="arrowLeft.mouseout"/>
                  </use>
                  <path fill="none" stroke="white" stroke-width="1.5" d="M0,-3.0v7 M-2.5,-0.5L0,-3.0L2.5,-0.5"/>
                </g>
        </g>
        <svg viewBox="0 0 15 15" width="100%" height="30px" preserveAspectRatio="xMaxYMin meet">
         <g id="arrow_out" transform="scale(0.3 0.3)">
          <a xlink:href="classcom_1_1fs_1_1starfarer_1_1api_1_1impl_1_1campaign_1_1procgen_1_1themes_1_1SalvageSpecialAssaf0b41b63e1d22cac158aafa9140579c_org.svg" target="_base">
           <rect id="button" ry="5" rx="5" y="6" x="6" height="38" width="38"
                fill="#f2f5e9" fill-opacity="0.5" stroke="#606060" stroke-width="1.0"/>
           <path id="arrow"
             d="M 11.500037,31.436501 C 11.940474,20.09759 22.043105,11.32322 32.158766,21.979434 L 37.068811,17.246167 C 37.068811,17.246167 37.088388,32 37.088388,32 L 22.160133,31.978069 C 22.160133,31.978069 26.997745,27.140456 26.997745,27.140456 C 18.528582,18.264221 13.291696,25.230495 11.500037,31.436501 z"
             style="fill:#404040;"/>
          </a>
         </g>
        </svg>
</svg>
