<?xml version="1.0" encoding="UTF-8" standalone="no"?>
<!DOCTYPE svg PUBLIC "-//W3C//DTD SVG 1.1//EN"
 "http://www.w3.org/Graphics/SVG/1.1/DTD/svg11.dtd">
<!-- Generated by graphviz version 7.0.5 (20221223.1930)
 -->
<!-- Title: com.fs.starfarer.api.impl.campaign.rulecmd.salvage.special.BlueprintSpecial Pages: 1 -->
<svg width="1330pt" height="459pt"
 viewBox="0.00 0.00 1330.00 459.00" xmlns="http://www.w3.org/2000/svg" xmlns:xlink="http://www.w3.org/1999/xlink">
<g id="graph0" class="graph" transform="scale(1 1) rotate(0) translate(4 455)">
<title>com.fs.starfarer.api.impl.campaign.rulecmd.salvage.special.BlueprintSpecial</title>
<!-- Node1 -->
<g id="node1" class="node">
<title>Node1</title>
<g id="a_node1"><a xlink:title=" ">
<polygon fill="#999999" stroke="#666666" points="1322,-151 1050,-151 1050,-121 1322,-121 1322,-151"/>
<text text-anchor="start" x="1058" y="-139" font-family="Helvetica,sans-Serif" font-size="10.00">com.fs.starfarer.api.impl.campaign.rulecmd.salvage.special.</text>
<text text-anchor="middle" x="1186" y="-128" font-family="Helvetica,sans-Serif" font-size="10.00">BlueprintSpecial</text>
</a>
</g>
</g>
<!-- Node2 -->
<g id="node2" class="node">
<title>Node2</title>
<g id="a_node2"><a xlink:href="../../d3/d39/classcom_1_1fs_1_1starfarer_1_1api_1_1impl_1_1campaign_1_1rulecmd_1_1salvage_1_1special_1_1BaseSalvageSpecial.html" target="_top" xlink:title=" ">
<polygon fill="white" stroke="#666666" points="992,-247 720,-247 720,-217 992,-217 992,-247"/>
<text text-anchor="start" x="728" y="-235" font-family="Helvetica,sans-Serif" font-size="10.00">com.fs.starfarer.api.impl.campaign.rulecmd.salvage.special.</text>
<text text-anchor="middle" x="856" y="-224" font-family="Helvetica,sans-Serif" font-size="10.00">BaseSalvageSpecial</text>
</a>
</g>
</g>
<!-- Node2&#45;&gt;Node1 -->
<g id="edge1" class="edge">
<title>Node2&#45;&gt;Node1</title>
<path fill="none" stroke="#63b8ff" d="M920.45,-213.43C982.04,-195.4 1074.45,-168.36 1132.16,-151.47"/>
<polygon fill="#63b8ff" stroke="#63b8ff" points="919.77,-209.98 911.15,-216.15 921.73,-216.7 919.77,-209.98"/>
</g>
<!-- Node3 -->
<g id="node3" class="node">
<title>Node3</title>
<g id="a_node3"><a xlink:title=" ">
<polygon fill="white" stroke="#666666" points="628,-451 389,-451 389,-421 628,-421 628,-451"/>
<text text-anchor="start" x="397" y="-439" font-family="Helvetica,sans-Serif" font-size="10.00">com.fs.starfarer.api.impl.campaign.rulecmd.salvage.</text>
<text text-anchor="middle" x="508.5" y="-428" font-family="Helvetica,sans-Serif" font-size="10.00">SalvageSpecialInteraction.SalvageSpecialPlugin</text>
</a>
</g>
</g>
<!-- Node3&#45;&gt;Node2 -->
<g id="edge2" class="edge">
<title>Node3&#45;&gt;Node2</title>
<path fill="none" stroke="#63b8ff" d="M610.61,-417.57C616.54,-415.86 622.38,-414 628,-412 724.41,-377.63 810.98,-284.16 842.44,-247.27"/>
<polygon fill="#63b8ff" stroke="#63b8ff" points="610.04,-414.1 601.31,-420.11 611.88,-420.85 610.04,-414.1"/>
</g>
<!-- Node4 -->
<g id="node4" class="node">
<title>Node4</title>
<g id="a_node4"><a xlink:href="../../da/d82/interfacecom_1_1fs_1_1starfarer_1_1api_1_1campaign_1_1InteractionDialogAPI.html" target="_top" xlink:title=" ">
<polygon fill="white" stroke="#666666" points="581.5,-403 435.5,-403 435.5,-373 581.5,-373 581.5,-403"/>
<text text-anchor="start" x="443.5" y="-391" font-family="Helvetica,sans-Serif" font-size="10.00">com.fs.starfarer.api.campaign.</text>
<text text-anchor="middle" x="508.5" y="-380" font-family="Helvetica,sans-Serif" font-size="10.00">InteractionDialogAPI</text>
</a>
</g>
</g>
<!-- Node4&#45;&gt;Node2 -->
<g id="edge3" class="edge">
<title>Node4&#45;&gt;Node2</title>
<path fill="none" stroke="#9a32cd" stroke-dasharray="5,2" d="M592.65,-373.07C604.59,-370.37 616.67,-367.34 628,-364 661.88,-354.01 670.72,-351.41 702,-335 752.48,-308.53 806.73,-269.07 835.1,-247.49"/>
<polygon fill="#9a32cd" stroke="#9a32cd" points="592.24,-369.57 583.22,-375.13 593.74,-376.41 592.24,-369.57"/>
<text text-anchor="middle" x="674" y="-361" font-family="Helvetica,sans-Serif" font-size="10.00"> dialog</text>
</g>
<!-- Node5 -->
<g id="node5" class="node">
<title>Node5</title>
<g id="a_node5"><a xlink:title=" ">
<polygon fill="white" stroke="#666666" points="535,-354.5 482,-354.5 482,-335.5 535,-335.5 535,-354.5"/>
<text text-anchor="middle" x="508.5" y="-342.5" font-family="Helvetica,sans-Serif" font-size="10.00">Random</text>
</a>
</g>
</g>
<!-- Node5&#45;&gt;Node2 -->
<g id="edge4" class="edge">
<title>Node5&#45;&gt;Node2</title>
<path fill="none" stroke="#9a32cd" stroke-dasharray="5,2" d="M546.55,-341.24C570.15,-338.32 601.22,-333.47 628,-326 700.93,-305.65 781.85,-268.33 824.63,-247.36"/>
<polygon fill="#9a32cd" stroke="#9a32cd" points="546.31,-337.75 536.79,-342.39 547.13,-344.7 546.31,-337.75"/>
<text text-anchor="middle" x="674" y="-323" font-family="Helvetica,sans-Serif" font-size="10.00"> random</text>
</g>
<!-- Node6 -->
<g id="node6" class="node">
<title>Node6</title>
<g id="a_node6"><a xlink:href="../../d6/de1/interfacecom_1_1fs_1_1starfarer_1_1api_1_1campaign_1_1SectorEntityToken.html" target="_top" xlink:title=" ">
<polygon fill="white" stroke="#666666" points="352,-274 206,-274 206,-244 352,-244 352,-274"/>
<text text-anchor="start" x="214" y="-262" font-family="Helvetica,sans-Serif" font-size="10.00">com.fs.starfarer.api.campaign.</text>
<text text-anchor="middle" x="279" y="-251" font-family="Helvetica,sans-Serif" font-size="10.00">SectorEntityToken</text>
</a>
</g>
</g>
<!-- Node6&#45;&gt;Node2 -->
<g id="edge5" class="edge">
<title>Node6&#45;&gt;Node2</title>
<path fill="none" stroke="#9a32cd" stroke-dasharray="5,2" d="M363.61,-255.07C456.95,-250.69 609.38,-243.53 719.74,-238.35"/>
<polygon fill="#9a32cd" stroke="#9a32cd" points="363.58,-251.57 353.75,-255.54 363.91,-258.56 363.58,-251.57"/>
<text text-anchor="middle" x="508.5" y="-256" font-family="Helvetica,sans-Serif" font-size="10.00"> entity</text>
</g>
<!-- Node12 -->
<g id="node12" class="node">
<title>Node12</title>
<g id="a_node12"><a xlink:href="../../db/d56/interfacecom_1_1fs_1_1starfarer_1_1api_1_1campaign_1_1CampaignFleetAPI.html" target="_top" xlink:title=" ">
<polygon fill="white" stroke="#666666" points="581.5,-317 435.5,-317 435.5,-287 581.5,-287 581.5,-317"/>
<text text-anchor="start" x="443.5" y="-305" font-family="Helvetica,sans-Serif" font-size="10.00">com.fs.starfarer.api.campaign.</text>
<text text-anchor="middle" x="508.5" y="-294" font-family="Helvetica,sans-Serif" font-size="10.00">CampaignFleetAPI</text>
</a>
</g>
</g>
<!-- Node6&#45;&gt;Node12 -->
<g id="edge12" class="edge">
<title>Node6&#45;&gt;Node12</title>
<path fill="none" stroke="#63b8ff" d="M363.3,-274.75C386.81,-279.19 412.19,-283.98 435,-288.3"/>
<polygon fill="#63b8ff" stroke="#63b8ff" points="364.26,-271.36 353.78,-272.95 362.96,-278.24 364.26,-271.36"/>
</g>
<!-- Node7 -->
<g id="node7" class="node">
<title>Node7</title>
<g id="a_node7"><a xlink:href="../../de/da5/interfacecom_1_1fs_1_1starfarer_1_1api_1_1campaign_1_1rules_1_1HasMemory.html" target="_top" xlink:title=" ">
<polygon fill="white" stroke="#666666" points="169,-274 0,-274 0,-244 169,-244 169,-274"/>
<text text-anchor="start" x="8" y="-262" font-family="Helvetica,sans-Serif" font-size="10.00">com.fs.starfarer.api.campaign.rules.</text>
<text text-anchor="middle" x="84.5" y="-251" font-family="Helvetica,sans-Serif" font-size="10.00">HasMemory</text>
</a>
</g>
</g>
<!-- Node7&#45;&gt;Node6 -->
<g id="edge6" class="edge">
<title>Node7&#45;&gt;Node6</title>
<path fill="none" stroke="#63b8ff" d="M180.73,-259C189.08,-259 197.44,-259 205.56,-259"/>
<polygon fill="#63b8ff" stroke="#63b8ff" points="180.89,-255.5 170.89,-259 180.89,-262.5 180.89,-255.5"/>
</g>
<!-- Node8 -->
<g id="node8" class="node">
<title>Node8</title>
<g id="a_node8"><a xlink:href="../../d4/ddc/interfacecom_1_1fs_1_1starfarer_1_1api_1_1campaign_1_1TextPanelAPI.html" target="_top" xlink:title=" ">
<polygon fill="white" stroke="#666666" points="581.5,-222 435.5,-222 435.5,-192 581.5,-192 581.5,-222"/>
<text text-anchor="start" x="443.5" y="-210" font-family="Helvetica,sans-Serif" font-size="10.00">com.fs.starfarer.api.campaign.</text>
<text text-anchor="middle" x="508.5" y="-199" font-family="Helvetica,sans-Serif" font-size="10.00">TextPanelAPI</text>
</a>
</g>
</g>
<!-- Node8&#45;&gt;Node2 -->
<g id="edge7" class="edge">
<title>Node8&#45;&gt;Node2</title>
<path fill="none" stroke="#9a32cd" stroke-dasharray="5,2" d="M592.93,-213.04C630.89,-215.78 676.8,-219.11 719.51,-222.2"/>
<polygon fill="#9a32cd" stroke="#9a32cd" points="593.66,-209.58 583.44,-212.35 593.16,-216.56 593.66,-209.58"/>
<text text-anchor="middle" x="674" y="-223" font-family="Helvetica,sans-Serif" font-size="10.00"> text</text>
</g>
<!-- Node9 -->
<g id="node9" class="node">
<title>Node9</title>
<g id="a_node9"><a xlink:href="../../da/d65/interfacecom_1_1fs_1_1starfarer_1_1api_1_1campaign_1_1OptionPanelAPI.html" target="_top" xlink:title=" ">
<polygon fill="white" stroke="#666666" points="581.5,-174 435.5,-174 435.5,-144 581.5,-144 581.5,-174"/>
<text text-anchor="start" x="443.5" y="-162" font-family="Helvetica,sans-Serif" font-size="10.00">com.fs.starfarer.api.campaign.</text>
<text text-anchor="middle" x="508.5" y="-151" font-family="Helvetica,sans-Serif" font-size="10.00">OptionPanelAPI</text>
</a>
</g>
</g>
<!-- Node9&#45;&gt;Node2 -->
<g id="edge8" class="edge">
<title>Node9&#45;&gt;Node2</title>
<path fill="none" stroke="#9a32cd" stroke-dasharray="5,2" d="M593.08,-175.79C604.81,-178.19 616.71,-180.64 628,-183 680.49,-193.98 739.71,-206.78 784.5,-216.54"/>
<polygon fill="#9a32cd" stroke="#9a32cd" points="593.89,-172.38 583.39,-173.81 592.49,-179.24 593.89,-172.38"/>
<text text-anchor="middle" x="674" y="-200" font-family="Helvetica,sans-Serif" font-size="10.00"> options</text>
</g>
<!-- Node10 -->
<g id="node10" class="node">
<title>Node10</title>
<g id="a_node10"><a xlink:href="../../d1/d60/interfacecom_1_1fs_1_1starfarer_1_1api_1_1campaign_1_1VisualPanelAPI.html" target="_top" xlink:title=" ">
<polygon fill="white" stroke="#666666" points="581.5,-126 435.5,-126 435.5,-96 581.5,-96 581.5,-126"/>
<text text-anchor="start" x="443.5" y="-114" font-family="Helvetica,sans-Serif" font-size="10.00">com.fs.starfarer.api.campaign.</text>
<text text-anchor="middle" x="508.5" y="-103" font-family="Helvetica,sans-Serif" font-size="10.00">VisualPanelAPI</text>
</a>
</g>
</g>
<!-- Node10&#45;&gt;Node2 -->
<g id="edge9" class="edge">
<title>Node10&#45;&gt;Node2</title>
<path fill="none" stroke="#9a32cd" stroke-dasharray="5,2" d="M592.75,-125.62C604.68,-128.36 616.72,-131.49 628,-135 700.63,-157.61 781.67,-195.5 824.55,-216.61"/>
<polygon fill="#9a32cd" stroke="#9a32cd" points="593.84,-122.28 583.32,-123.54 592.33,-129.11 593.84,-122.28"/>
<text text-anchor="middle" x="674" y="-163" font-family="Helvetica,sans-Serif" font-size="10.00"> visual</text>
</g>
<!-- Node11 -->
<g id="node11" class="node">
<title>Node11</title>
<g id="a_node11"><a xlink:title=" ">
<polygon fill="white" stroke="#666666" points="622,-78 395,-78 395,-48 622,-48 622,-78"/>
<text text-anchor="start" x="403" y="-66" font-family="Helvetica,sans-Serif" font-size="10.00">Map&lt; String, com.fs.starfarer.api.campaign.rules.</text>
<text text-anchor="middle" x="508.5" y="-55" font-family="Helvetica,sans-Serif" font-size="10.00">MemoryAPI &gt;</text>
</a>
</g>
</g>
<!-- Node11&#45;&gt;Node2 -->
<g id="edge10" class="edge">
<title>Node11&#45;&gt;Node2</title>
<path fill="none" stroke="#9a32cd" stroke-dasharray="5,2" d="M610.61,-81.43C616.54,-83.14 622.38,-85 628,-87 663.02,-99.48 670.22,-106.71 702,-126 751.17,-155.84 805.93,-195.43 834.74,-216.79"/>
<polygon fill="#9a32cd" stroke="#9a32cd" points="611.88,-78.15 601.31,-78.89 610.04,-84.9 611.88,-78.15"/>
<text text-anchor="middle" x="674" y="-129" font-family="Helvetica,sans-Serif" font-size="10.00"> memoryMap</text>
</g>
<!-- Node12&#45;&gt;Node2 -->
<g id="edge11" class="edge">
<title>Node12&#45;&gt;Node2</title>
<path fill="none" stroke="#9a32cd" stroke-dasharray="5,2" d="M592.87,-290.89C626.86,-285.87 666.45,-279.4 702,-272 735.33,-265.06 772.27,-255.46 801.5,-247.41"/>
<polygon fill="#9a32cd" stroke="#9a32cd" points="592.46,-287.41 583.07,-292.31 593.47,-294.34 592.46,-287.41"/>
<text text-anchor="middle" x="674" y="-284" font-family="Helvetica,sans-Serif" font-size="10.00"> playerFleet</text>
</g>
<!-- Node13 -->
<g id="node13" class="node">
<title>Node13</title>
<g id="a_node13"><a xlink:href="../../da/db1/interfacecom_1_1fs_1_1starfarer_1_1api_1_1campaign_1_1FleetOrStubAPI.html" target="_top" xlink:title=" ">
<polygon fill="white" stroke="#666666" points="352,-323 206,-323 206,-293 352,-293 352,-323"/>
<text text-anchor="start" x="214" y="-311" font-family="Helvetica,sans-Serif" font-size="10.00">com.fs.starfarer.api.campaign.</text>
<text text-anchor="middle" x="279" y="-300" font-family="Helvetica,sans-Serif" font-size="10.00">FleetOrStubAPI</text>
</a>
</g>
</g>
<!-- Node13&#45;&gt;Node12 -->
<g id="edge13" class="edge">
<title>Node13&#45;&gt;Node12</title>
<path fill="none" stroke="#63b8ff" d="M363.62,-305.79C387.04,-305.18 412.29,-304.51 435,-303.91"/>
<polygon fill="#63b8ff" stroke="#63b8ff" points="363.71,-302.29 353.81,-306.05 363.9,-309.29 363.71,-302.29"/>
</g>
<!-- Node14 -->
<g id="node14" class="node">
<title>Node14</title>
<g id="a_node14"><a xlink:title=" ">
<polygon fill="white" stroke="#666666" points="992,-127 720,-127 720,-97 992,-97 992,-127"/>
<text text-anchor="start" x="728" y="-115" font-family="Helvetica,sans-Serif" font-size="10.00">com.fs.starfarer.api.impl.campaign.rulecmd.salvage.special.</text>
<text text-anchor="middle" x="856" y="-104" font-family="Helvetica,sans-Serif" font-size="10.00">BlueprintSpecial.BlueprintSpecialData</text>
</a>
</g>
</g>
<!-- Node14&#45;&gt;Node1 -->
<g id="edge14" class="edge">
<title>Node14&#45;&gt;Node1</title>
<path fill="none" stroke="#9a32cd" stroke-dasharray="5,2" d="M1003.47,-122.72C1018.87,-123.84 1034.48,-124.99 1049.74,-126.1"/>
<polygon fill="#9a32cd" stroke="#9a32cd" points="1004.04,-119.25 993.81,-122.01 1003.53,-126.23 1004.04,-119.25"/>
<text text-anchor="middle" x="1021" y="-127" font-family="Helvetica,sans-Serif" font-size="10.00"> data</text>
</g>
<!-- Node15 -->
<g id="node15" class="node">
<title>Node15</title>
<g id="a_node15"><a xlink:title=" ">
<polygon fill="white" stroke="#666666" points="628,-30 389,-30 389,0 628,0 628,-30"/>
<text text-anchor="start" x="397" y="-18" font-family="Helvetica,sans-Serif" font-size="10.00">com.fs.starfarer.api.impl.campaign.rulecmd.salvage.</text>
<text text-anchor="middle" x="508.5" y="-7" font-family="Helvetica,sans-Serif" font-size="10.00">SalvageSpecialInteraction.SalvageSpecialData</text>
</a>
</g>
</g>
<!-- Node15&#45;&gt;Node14 -->
<g id="edge15" class="edge">
<title>Node15&#45;&gt;Node14</title>
<path fill="none" stroke="#63b8ff" d="M639.58,-27.15C660.67,-30.66 682.11,-35.19 702,-41 748.38,-54.56 798.53,-80.13 828.33,-96.6"/>
<polygon fill="#63b8ff" stroke="#63b8ff" points="640.17,-23.7 629.75,-25.59 639.08,-30.61 640.17,-23.7"/>
</g>
</g>
</svg>
