<?xml version="1.0" encoding="UTF-8" standalone="no"?>
<!DOCTYPE svg PUBLIC "-//W3C//DTD SVG 1.1//EN"
 "http://www.w3.org/Graphics/SVG/1.1/DTD/svg11.dtd">
<!-- Generated by graphviz version 2.44.0 ()
 -->
<!-- Title: com.fs.starfarer.api.impl.campaign.missions.hub.HubMissionWithSearch.MultipleStarSystemRequirements Pages: 1 -->
<svg width="274pt" height="309pt"
 viewBox="0.00 0.00 274.00 309.00" xmlns="http://www.w3.org/2000/svg" xmlns:xlink="http://www.w3.org/1999/xlink">
<g id="graph0" class="graph" transform="scale(1 1) rotate(0) translate(4 305)">
<title>com.fs.starfarer.api.impl.campaign.missions.hub.HubMissionWithSearch.MultipleStarSystemRequirements</title>
<!-- Node1 -->
<g id="node1" class="node">
<title>Node1</title>
<g id="a_node1"><a xlink:title=" ">
<polygon fill="#bfbfbf" stroke="black" points="0,-0.5 0,-90.5 266,-90.5 266,-0.5 0,-0.5"/>
<text text-anchor="start" x="8" y="-78.5" font-family="Helvetica,sans-Serif" font-size="10.00">com.fs.starfarer.api.impl.campaign.missions.hub.</text>
<text text-anchor="middle" x="133" y="-67.5" font-family="Helvetica,sans-Serif" font-size="10.00">HubMissionWithSearch.MultipleStarSystemRequirements</text>
<polyline fill="none" stroke="black" points="0,-60.5 266,-60.5 "/>
<text text-anchor="start" x="8" y="-48.5" font-family="Helvetica,sans-Serif" font-size="10.00"># reqs</text>
<text text-anchor="start" x="8" y="-37.5" font-family="Helvetica,sans-Serif" font-size="10.00"># mode</text>
<polyline fill="none" stroke="black" points="0,-30.5 266,-30.5 "/>
<text text-anchor="start" x="8" y="-18.5" font-family="Helvetica,sans-Serif" font-size="10.00">+ MultipleStarSystemRequirements()</text>
<text text-anchor="start" x="8" y="-7.5" font-family="Helvetica,sans-Serif" font-size="10.00">+ systemMatchesRequirement()</text>
</a>
</g>
</g>
<!-- Node2 -->
<g id="node2" class="node">
<title>Node2</title>
<g id="a_node2"><a xlink:href="../../de/d4e/interfacecom_1_1fs_1_1starfarer_1_1api_1_1impl_1_1campaign_1_1missions_1_1hub_1_1HubMissionWithSearch_1_1StarSystemRequirement.html" target="_top" xlink:title=" ">
<polygon fill="none" stroke="black" points="19.5,-127.5 19.5,-195.5 246.5,-195.5 246.5,-127.5 19.5,-127.5"/>
<text text-anchor="start" x="27.5" y="-183.5" font-family="Helvetica,sans-Serif" font-size="10.00">com.fs.starfarer.api.impl.campaign.missions.hub.</text>
<text text-anchor="middle" x="133" y="-172.5" font-family="Helvetica,sans-Serif" font-size="10.00">HubMissionWithSearch.StarSystemRequirement</text>
<polyline fill="none" stroke="black" points="19.5,-165.5 246.5,-165.5 "/>
<text text-anchor="middle" x="133" y="-153.5" font-family="Helvetica,sans-Serif" font-size="10.00"> </text>
<polyline fill="none" stroke="black" points="19.5,-146.5 246.5,-146.5 "/>
<text text-anchor="start" x="27.5" y="-134.5" font-family="Helvetica,sans-Serif" font-size="10.00">+ systemMatchesRequirement()</text>
</a>
</g>
</g>
<!-- Node2&#45;&gt;Node1 -->
<g id="edge1" class="edge">
<title>Node2&#45;&gt;Node1</title>
<path fill="none" stroke="midnightblue" d="M133,-116.97C133,-108.35 133,-99.28 133,-90.64"/>
<polygon fill="none" stroke="midnightblue" points="129.5,-117.22 133,-127.22 136.5,-117.22 129.5,-117.22"/>
</g>
<!-- Node3 -->
<g id="node3" class="node">
<title>Node3</title>
<g id="a_node3"><a xlink:href="../../db/da0/interfacecom_1_1fs_1_1starfarer_1_1api_1_1impl_1_1campaign_1_1missions_1_1hub_1_1HubMissionWithSearch_1_1GenericRequirement.html" target="_top" xlink:title=" ">
<polygon fill="none" stroke="black" points="20.5,-232.5 20.5,-300.5 245.5,-300.5 245.5,-232.5 20.5,-232.5"/>
<text text-anchor="start" x="28.5" y="-288.5" font-family="Helvetica,sans-Serif" font-size="10.00">com.fs.starfarer.api.impl.campaign.missions.hub.</text>
<text text-anchor="middle" x="133" y="-277.5" font-family="Helvetica,sans-Serif" font-size="10.00">HubMissionWithSearch.GenericRequirement</text>
<polyline fill="none" stroke="black" points="20.5,-270.5 245.5,-270.5 "/>
<text text-anchor="middle" x="133" y="-258.5" font-family="Helvetica,sans-Serif" font-size="10.00"> </text>
<polyline fill="none" stroke="black" points="20.5,-251.5 245.5,-251.5 "/>
<text text-anchor="middle" x="133" y="-239.5" font-family="Helvetica,sans-Serif" font-size="10.00"> </text>
</a>
</g>
</g>
<!-- Node3&#45;&gt;Node2 -->
<g id="edge2" class="edge">
<title>Node3&#45;&gt;Node2</title>
<path fill="none" stroke="midnightblue" d="M133,-222.14C133,-213.26 133,-204.04 133,-195.59"/>
<polygon fill="none" stroke="midnightblue" points="129.5,-222.34 133,-232.34 136.5,-222.34 129.5,-222.34"/>
</g>
</g>
</svg>
