<?xml version="1.0" encoding="UTF-8" standalone="no"?>
<!DOCTYPE svg PUBLIC "-//W3C//DTD SVG 1.1//EN"
 "http://www.w3.org/Graphics/SVG/1.1/DTD/svg11.dtd">
<!-- Generated by graphviz version 7.0.5 (20221223.1930)
 -->
<!-- Title: com.fs.starfarer.api.combat.BaseEveryFrameCombatPlugin Pages: 1 -->
<svg width="160pt" height="170pt"
 viewBox="0.00 0.00 160.00 170.00" xmlns="http://www.w3.org/2000/svg" xmlns:xlink="http://www.w3.org/1999/xlink">
<g id="graph0" class="graph" transform="scale(1 1) rotate(0) translate(4 166)">
<title>com.fs.starfarer.api.combat.BaseEveryFrameCombatPlugin</title>
<!-- Node1 -->
<g id="node1" class="node">
<title>Node1</title>
<g id="a_node1"><a xlink:title=" ">
<polygon fill="#999999" stroke="#666666" points="152,-30 0,-30 0,0 152,0 152,-30"/>
<text text-anchor="start" x="8" y="-18" font-family="Helvetica,sans-Serif" font-size="10.00">com.fs.starfarer.api.combat.</text>
<text text-anchor="middle" x="76" y="-7" font-family="Helvetica,sans-Serif" font-size="10.00">BaseEveryFrameCombatPlugin</text>
</a>
</g>
</g>
<!-- Node2 -->
<g id="node2" class="node">
<title>Node2</title>
<g id="a_node2"><a xlink:href="../../d4/d6f/interfacecom_1_1fs_1_1starfarer_1_1api_1_1combat_1_1EveryFrameCombatPlugin.html" target="_top" xlink:title=" ">
<polygon fill="white" stroke="#666666" points="144,-96 8,-96 8,-66 144,-66 144,-96"/>
<text text-anchor="start" x="16" y="-84" font-family="Helvetica,sans-Serif" font-size="10.00">com.fs.starfarer.api.combat.</text>
<text text-anchor="middle" x="76" y="-73" font-family="Helvetica,sans-Serif" font-size="10.00">EveryFrameCombatPlugin</text>
</a>
</g>
</g>
<!-- Node2&#45;&gt;Node1 -->
<g id="edge1" class="edge">
<title>Node2&#45;&gt;Node1</title>
<path fill="none" stroke="#63b8ff" d="M76,-54.39C76,-46.13 76,-37.28 76,-30.16"/>
<polygon fill="#63b8ff" stroke="#63b8ff" points="72.5,-54.28 76,-64.28 79.5,-54.28 72.5,-54.28"/>
</g>
<!-- Node3 -->
<g id="node3" class="node">
<title>Node3</title>
<g id="a_node3"><a xlink:href="../../d0/d05/interfacecom_1_1fs_1_1starfarer_1_1api_1_1combat_1_1CombatEnginePlugin.html" target="_top" xlink:title=" ">
<polygon fill="white" stroke="#666666" points="144,-162 8,-162 8,-132 144,-132 144,-162"/>
<text text-anchor="start" x="16" y="-150" font-family="Helvetica,sans-Serif" font-size="10.00">com.fs.starfarer.api.combat.</text>
<text text-anchor="middle" x="76" y="-139" font-family="Helvetica,sans-Serif" font-size="10.00">CombatEnginePlugin</text>
</a>
</g>
</g>
<!-- Node3&#45;&gt;Node2 -->
<g id="edge2" class="edge">
<title>Node3&#45;&gt;Node2</title>
<path fill="none" stroke="#63b8ff" d="M76,-120.39C76,-112.13 76,-103.28 76,-96.16"/>
<polygon fill="#63b8ff" stroke="#63b8ff" points="72.5,-120.28 76,-130.28 79.5,-120.28 72.5,-120.28"/>
</g>
</g>
</svg>
