<?xml version="1.0" encoding="UTF-8" standalone="no"?>
<!DOCTYPE svg PUBLIC "-//W3C//DTD SVG 1.1//EN"
 "http://www.w3.org/Graphics/SVG/1.1/DTD/svg11.dtd">
<!-- Generated by graphviz version 2.44.0 ()
 -->
<!-- Title: com.fs.starfarer.api.impl.campaign.intel.bar.events.historian.HistorianBarEvent Pages: 1 -->
<svg width="2041pt" height="767pt"
 viewBox="0.00 0.00 2041.00 767.00" xmlns="http://www.w3.org/2000/svg" xmlns:xlink="http://www.w3.org/1999/xlink">
<g id="graph0" class="graph" transform="scale(1 1) rotate(0) translate(4 763)">
<title>com.fs.starfarer.api.impl.campaign.intel.bar.events.historian.HistorianBarEvent</title>
<!-- Node1 -->
<g id="node1" class="node">
<title>Node1</title>
<g id="a_node1"><a xlink:title=" ">
<polygon fill="#bfbfbf" stroke="black" points="1247.5,-0.5 1247.5,-167.5 1519.5,-167.5 1519.5,-0.5 1247.5,-0.5"/>
<text text-anchor="start" x="1255.5" y="-155.5" font-family="Helvetica,sans-Serif" font-size="10.00">com.fs.starfarer.api.impl.campaign.intel.bar.events.historian.</text>
<text text-anchor="middle" x="1383.5" y="-144.5" font-family="Helvetica,sans-Serif" font-size="10.00">HistorianBarEvent</text>
<polyline fill="none" stroke="black" points="1247.5,-137.5 1519.5,-137.5 "/>
<text text-anchor="start" x="1255.5" y="-125.5" font-family="Helvetica,sans-Serif" font-size="10.00">+ MIN_SNAPSHOTS_TO_SHOW_PLOG</text>
<text text-anchor="start" x="1255.5" y="-114.5" font-family="Helvetica,sans-Serif" font-size="10.00">+ PROB_TO_SHOW</text>
<text text-anchor="start" x="1255.5" y="-103.5" font-family="Helvetica,sans-Serif" font-size="10.00"># seed</text>
<polyline fill="none" stroke="black" points="1247.5,-96.5 1519.5,-96.5 "/>
<text text-anchor="start" x="1255.5" y="-84.5" font-family="Helvetica,sans-Serif" font-size="10.00">+ HistorianBarEvent()</text>
<text text-anchor="start" x="1255.5" y="-73.5" font-family="Helvetica,sans-Serif" font-size="10.00">+ shouldShowAtMarket()</text>
<text text-anchor="start" x="1255.5" y="-62.5" font-family="Helvetica,sans-Serif" font-size="10.00">+ addPromptAndOption()</text>
<text text-anchor="start" x="1255.5" y="-51.5" font-family="Helvetica,sans-Serif" font-size="10.00">+ init()</text>
<text text-anchor="start" x="1255.5" y="-40.5" font-family="Helvetica,sans-Serif" font-size="10.00">+ optionSelected()</text>
<text text-anchor="start" x="1255.5" y="-29.5" font-family="Helvetica,sans-Serif" font-size="10.00"># regen()</text>
<text text-anchor="start" x="1255.5" y="-18.5" font-family="Helvetica,sans-Serif" font-size="10.00"># getOptionText()</text>
<text text-anchor="start" x="1255.5" y="-7.5" font-family="Helvetica,sans-Serif" font-size="10.00"># getPrompt()</text>
</a>
</g>
</g>
<!-- Node2 -->
<g id="node2" class="node">
<title>Node2</title>
<g id="a_node2"><a xlink:href="../../dc/da0/classcom_1_1fs_1_1starfarer_1_1api_1_1impl_1_1campaign_1_1intel_1_1bar_1_1events_1_1BaseBarEvent.html" target="_top" xlink:title=" ">
<polygon fill="none" stroke="black" points="558,-215.5 558,-415.5 791,-415.5 791,-215.5 558,-215.5"/>
<text text-anchor="start" x="566" y="-403.5" font-family="Helvetica,sans-Serif" font-size="10.00">com.fs.starfarer.api.impl.campaign.intel.bar.events.</text>
<text text-anchor="middle" x="674.5" y="-392.5" font-family="Helvetica,sans-Serif" font-size="10.00">BaseBarEvent</text>
<polyline fill="none" stroke="black" points="558,-385.5 791,-385.5 "/>
<text text-anchor="start" x="566" y="-373.5" font-family="Helvetica,sans-Serif" font-size="10.00"># noContinue</text>
<text text-anchor="start" x="566" y="-362.5" font-family="Helvetica,sans-Serif" font-size="10.00"># done</text>
<polyline fill="none" stroke="black" points="558,-355.5 791,-355.5 "/>
<text text-anchor="start" x="566" y="-343.5" font-family="Helvetica,sans-Serif" font-size="10.00">+ isAlwaysShow()</text>
<text text-anchor="start" x="566" y="-332.5" font-family="Helvetica,sans-Serif" font-size="10.00">+ init()</text>
<text text-anchor="start" x="566" y="-321.5" font-family="Helvetica,sans-Serif" font-size="10.00">+ getBarEventId()</text>
<text text-anchor="start" x="566" y="-310.5" font-family="Helvetica,sans-Serif" font-size="10.00">+ endWithContinue()</text>
<text text-anchor="start" x="566" y="-299.5" font-family="Helvetica,sans-Serif" font-size="10.00">+ isDialogFinished()</text>
<text text-anchor="start" x="566" y="-288.5" font-family="Helvetica,sans-Serif" font-size="10.00">+ optionSelected()</text>
<text text-anchor="start" x="566" y="-277.5" font-family="Helvetica,sans-Serif" font-size="10.00">+ advance()</text>
<text text-anchor="start" x="566" y="-266.5" font-family="Helvetica,sans-Serif" font-size="10.00">+ shouldRemoveEvent()</text>
<text text-anchor="start" x="566" y="-255.5" font-family="Helvetica,sans-Serif" font-size="10.00">+ shouldShowAtMarket()</text>
<text text-anchor="start" x="566" y="-244.5" font-family="Helvetica,sans-Serif" font-size="10.00">+ addPromptAndOption()</text>
<text text-anchor="start" x="566" y="-233.5" font-family="Helvetica,sans-Serif" font-size="10.00">+ wasShownAtMarket()</text>
<text text-anchor="start" x="566" y="-222.5" font-family="Helvetica,sans-Serif" font-size="10.00">+ getShownAt()</text>
</a>
</g>
</g>
<!-- Node2&#45;&gt;Node1 -->
<g id="edge1" class="edge">
<title>Node2&#45;&gt;Node1</title>
<path fill="none" stroke="midnightblue" d="M800.82,-263.32C864.15,-238.51 942.33,-209.14 1013.5,-186 1090.12,-161.08 1176.97,-137.16 1247.26,-118.85"/>
<polygon fill="none" stroke="midnightblue" points="799.21,-260.19 791.18,-267.1 801.77,-266.71 799.21,-260.19"/>
</g>
<!-- Node3 -->
<g id="node3" class="node">
<title>Node3</title>
<g id="a_node3"><a xlink:href="../../d8/d74/interfacecom_1_1fs_1_1starfarer_1_1api_1_1impl_1_1campaign_1_1intel_1_1bar_1_1PortsideBarEvent.html" target="_top" xlink:title=" ">
<polygon fill="none" stroke="black" points="573.5,-463.5 573.5,-641.5 775.5,-641.5 775.5,-463.5 573.5,-463.5"/>
<text text-anchor="start" x="581.5" y="-629.5" font-family="Helvetica,sans-Serif" font-size="10.00">com.fs.starfarer.api.impl.campaign.intel.bar.</text>
<text text-anchor="middle" x="674.5" y="-618.5" font-family="Helvetica,sans-Serif" font-size="10.00">PortsideBarEvent</text>
<polyline fill="none" stroke="black" points="573.5,-611.5 775.5,-611.5 "/>
<text text-anchor="middle" x="674.5" y="-599.5" font-family="Helvetica,sans-Serif" font-size="10.00"> </text>
<polyline fill="none" stroke="black" points="573.5,-592.5 775.5,-592.5 "/>
<text text-anchor="start" x="581.5" y="-580.5" font-family="Helvetica,sans-Serif" font-size="10.00">+ init()</text>
<text text-anchor="start" x="581.5" y="-569.5" font-family="Helvetica,sans-Serif" font-size="10.00">+ isDialogFinished()</text>
<text text-anchor="start" x="581.5" y="-558.5" font-family="Helvetica,sans-Serif" font-size="10.00">+ endWithContinue()</text>
<text text-anchor="start" x="581.5" y="-547.5" font-family="Helvetica,sans-Serif" font-size="10.00">+ optionSelected()</text>
<text text-anchor="start" x="581.5" y="-536.5" font-family="Helvetica,sans-Serif" font-size="10.00">+ shouldRemoveEvent()</text>
<text text-anchor="start" x="581.5" y="-525.5" font-family="Helvetica,sans-Serif" font-size="10.00">+ shouldShowAtMarket()</text>
<text text-anchor="start" x="581.5" y="-514.5" font-family="Helvetica,sans-Serif" font-size="10.00">+ advance()</text>
<text text-anchor="start" x="581.5" y="-503.5" font-family="Helvetica,sans-Serif" font-size="10.00">+ addPromptAndOption()</text>
<text text-anchor="start" x="581.5" y="-492.5" font-family="Helvetica,sans-Serif" font-size="10.00">+ wasShownAtMarket()</text>
<text text-anchor="start" x="581.5" y="-481.5" font-family="Helvetica,sans-Serif" font-size="10.00">+ getBarEventId()</text>
<text text-anchor="start" x="581.5" y="-470.5" font-family="Helvetica,sans-Serif" font-size="10.00">+ isAlwaysShow()</text>
</a>
</g>
</g>
<!-- Node3&#45;&gt;Node2 -->
<g id="edge2" class="edge">
<title>Node3&#45;&gt;Node2</title>
<path fill="none" stroke="midnightblue" d="M674.5,-453.06C674.5,-440.75 674.5,-428.15 674.5,-415.82"/>
<polygon fill="none" stroke="midnightblue" points="671,-453.33 674.5,-463.33 678,-453.33 671,-453.33"/>
</g>
<!-- Node4 -->
<g id="node4" class="node">
<title>Node4</title>
<g id="a_node4"><a xlink:title=" ">
<polygon fill="none" stroke="#bfbfbf" points="0,-518.5 0,-586.5 227,-586.5 227,-518.5 0,-518.5"/>
<text text-anchor="start" x="8" y="-574.5" font-family="Helvetica,sans-Serif" font-size="10.00">Map&lt; String, com.fs.starfarer.api.campaign.rules.</text>
<text text-anchor="middle" x="113.5" y="-563.5" font-family="Helvetica,sans-Serif" font-size="10.00">MemoryAPI &gt;</text>
<polyline fill="none" stroke="#bfbfbf" points="0,-556.5 227,-556.5 "/>
<text text-anchor="middle" x="113.5" y="-544.5" font-family="Helvetica,sans-Serif" font-size="10.00"> </text>
<polyline fill="none" stroke="#bfbfbf" points="0,-537.5 227,-537.5 "/>
<text text-anchor="middle" x="113.5" y="-525.5" font-family="Helvetica,sans-Serif" font-size="10.00"> </text>
</a>
</g>
</g>
<!-- Node4&#45;&gt;Node2 -->
<g id="edge3" class="edge">
<title>Node4&#45;&gt;Node2</title>
<path fill="none" stroke="#404040" d="M153.07,-518.33C176.26,-500.13 206.76,-478.23 236.5,-463 335.81,-412.15 456.57,-373.29 546.12,-348.42"/>
<polygon fill="none" stroke="#404040" points="546.14,-348.41 550.86,-342.96 557.71,-345.23 552.98,-350.68 546.14,-348.41"/>
<text text-anchor="middle" x="324" y="-437" font-family="Helvetica,sans-Serif" font-size="10.00"> #memoryMap</text>
</g>
<!-- Node5 -->
<g id="node5" class="node">
<title>Node5</title>
<g id="a_node5"><a xlink:href="../../da/d65/interfacecom_1_1fs_1_1starfarer_1_1api_1_1campaign_1_1OptionPanelAPI.html" target="_top" xlink:title=" ">
<polygon fill="none" stroke="black" points="245.5,-463.5 245.5,-641.5 391.5,-641.5 391.5,-463.5 245.5,-463.5"/>
<text text-anchor="start" x="253.5" y="-629.5" font-family="Helvetica,sans-Serif" font-size="10.00">com.fs.starfarer.api.campaign.</text>
<text text-anchor="middle" x="318.5" y="-618.5" font-family="Helvetica,sans-Serif" font-size="10.00">OptionPanelAPI</text>
<polyline fill="none" stroke="black" points="245.5,-611.5 391.5,-611.5 "/>
<text text-anchor="middle" x="318.5" y="-599.5" font-family="Helvetica,sans-Serif" font-size="10.00"> </text>
<polyline fill="none" stroke="black" points="245.5,-592.5 391.5,-592.5 "/>
<text text-anchor="start" x="253.5" y="-580.5" font-family="Helvetica,sans-Serif" font-size="10.00">+ setTooltipHighlights()</text>
<text text-anchor="start" x="253.5" y="-569.5" font-family="Helvetica,sans-Serif" font-size="10.00">+ setTooltipHighlightColors()</text>
<text text-anchor="start" x="253.5" y="-558.5" font-family="Helvetica,sans-Serif" font-size="10.00">+ clearOptions()</text>
<text text-anchor="start" x="253.5" y="-547.5" font-family="Helvetica,sans-Serif" font-size="10.00">+ addOption()</text>
<text text-anchor="start" x="253.5" y="-536.5" font-family="Helvetica,sans-Serif" font-size="10.00">+ addOption()</text>
<text text-anchor="start" x="253.5" y="-525.5" font-family="Helvetica,sans-Serif" font-size="10.00">+ addOption()</text>
<text text-anchor="start" x="253.5" y="-514.5" font-family="Helvetica,sans-Serif" font-size="10.00">+ setShortcut()</text>
<text text-anchor="start" x="253.5" y="-503.5" font-family="Helvetica,sans-Serif" font-size="10.00">+ setEnabled()</text>
<text text-anchor="start" x="253.5" y="-492.5" font-family="Helvetica,sans-Serif" font-size="10.00">+ setTooltip()</text>
<text text-anchor="start" x="253.5" y="-481.5" font-family="Helvetica,sans-Serif" font-size="10.00">+ addSelector()</text>
<text text-anchor="start" x="253.5" y="-470.5" font-family="Helvetica,sans-Serif" font-size="10.00">and 16 more...</text>
</a>
</g>
</g>
<!-- Node5&#45;&gt;Node2 -->
<g id="edge4" class="edge">
<title>Node5&#45;&gt;Node2</title>
<path fill="none" stroke="#404040" d="M391.6,-470.22C394.54,-467.72 397.52,-465.3 400.5,-463 445.07,-428.61 498.83,-397.91 546.89,-373.61"/>
<polygon fill="none" stroke="#404040" points="546.95,-373.58 550.53,-367.32 557.69,-368.21 554.11,-374.47 546.95,-373.58"/>
<text text-anchor="middle" x="455.5" y="-437" font-family="Helvetica,sans-Serif" font-size="10.00"> #options</text>
</g>
<!-- Node6 -->
<g id="node6" class="node">
<title>Node6</title>
<g id="a_node6"><a xlink:href="../../d4/ddc/interfacecom_1_1fs_1_1starfarer_1_1api_1_1campaign_1_1TextPanelAPI.html" target="_top" xlink:title=" ">
<polygon fill="none" stroke="black" points="409.5,-463.5 409.5,-641.5 555.5,-641.5 555.5,-463.5 409.5,-463.5"/>
<text text-anchor="start" x="417.5" y="-629.5" font-family="Helvetica,sans-Serif" font-size="10.00">com.fs.starfarer.api.campaign.</text>
<text text-anchor="middle" x="482.5" y="-618.5" font-family="Helvetica,sans-Serif" font-size="10.00">TextPanelAPI</text>
<polyline fill="none" stroke="black" points="409.5,-611.5 555.5,-611.5 "/>
<text text-anchor="middle" x="482.5" y="-599.5" font-family="Helvetica,sans-Serif" font-size="10.00"> </text>
<polyline fill="none" stroke="black" points="409.5,-592.5 555.5,-592.5 "/>
<text text-anchor="start" x="417.5" y="-580.5" font-family="Helvetica,sans-Serif" font-size="10.00">+ setFontInsignia()</text>
<text text-anchor="start" x="417.5" y="-569.5" font-family="Helvetica,sans-Serif" font-size="10.00">+ setFontOrbitron()</text>
<text text-anchor="start" x="417.5" y="-558.5" font-family="Helvetica,sans-Serif" font-size="10.00">+ setFontVictor()</text>
<text text-anchor="start" x="417.5" y="-547.5" font-family="Helvetica,sans-Serif" font-size="10.00">+ setFontSmallInsignia()</text>
<text text-anchor="start" x="417.5" y="-536.5" font-family="Helvetica,sans-Serif" font-size="10.00">+ addPara()</text>
<text text-anchor="start" x="417.5" y="-525.5" font-family="Helvetica,sans-Serif" font-size="10.00">+ addPara()</text>
<text text-anchor="start" x="417.5" y="-514.5" font-family="Helvetica,sans-Serif" font-size="10.00">+ addParagraph()</text>
<text text-anchor="start" x="417.5" y="-503.5" font-family="Helvetica,sans-Serif" font-size="10.00">+ addParagraph()</text>
<text text-anchor="start" x="417.5" y="-492.5" font-family="Helvetica,sans-Serif" font-size="10.00">+ replaceLastParagraph()</text>
<text text-anchor="start" x="417.5" y="-481.5" font-family="Helvetica,sans-Serif" font-size="10.00">+ replaceLastParagraph()</text>
<text text-anchor="start" x="417.5" y="-470.5" font-family="Helvetica,sans-Serif" font-size="10.00">and 25 more...</text>
</a>
</g>
</g>
<!-- Node6&#45;&gt;Node2 -->
<g id="edge5" class="edge">
<title>Node6&#45;&gt;Node2</title>
<path fill="none" stroke="#404040" d="M554.54,-463.33C564.63,-450.98 575.1,-438.16 585.46,-425.48"/>
<polygon fill="none" stroke="#404040" points="585.76,-425.12 586.46,-417.94 593.35,-415.82 592.65,-423 585.76,-425.12"/>
<text text-anchor="middle" x="590.5" y="-437" font-family="Helvetica,sans-Serif" font-size="10.00"> #text</text>
</g>
<!-- Node7 -->
<g id="node7" class="node">
<title>Node7</title>
<g id="a_node7"><a xlink:href="../../de/d91/interfacecom_1_1fs_1_1starfarer_1_1api_1_1campaign_1_1econ_1_1MarketAPI.html" target="_top" xlink:title=" ">
<polygon fill="none" stroke="black" points="958,-463.5 958,-641.5 1127,-641.5 1127,-463.5 958,-463.5"/>
<text text-anchor="start" x="966" y="-629.5" font-family="Helvetica,sans-Serif" font-size="10.00">com.fs.starfarer.api.campaign.econ.</text>
<text text-anchor="middle" x="1042.5" y="-618.5" font-family="Helvetica,sans-Serif" font-size="10.00">MarketAPI</text>
<polyline fill="none" stroke="black" points="958,-611.5 1127,-611.5 "/>
<text text-anchor="middle" x="1042.5" y="-599.5" font-family="Helvetica,sans-Serif" font-size="10.00"> </text>
<polyline fill="none" stroke="black" points="958,-592.5 1127,-592.5 "/>
<text text-anchor="start" x="966" y="-580.5" font-family="Helvetica,sans-Serif" font-size="10.00">+ getPrimaryEntity()</text>
<text text-anchor="start" x="966" y="-569.5" font-family="Helvetica,sans-Serif" font-size="10.00">+ getConnectedEntities()</text>
<text text-anchor="start" x="966" y="-558.5" font-family="Helvetica,sans-Serif" font-size="10.00">+ getId()</text>
<text text-anchor="start" x="966" y="-547.5" font-family="Helvetica,sans-Serif" font-size="10.00">+ getName()</text>
<text text-anchor="start" x="966" y="-536.5" font-family="Helvetica,sans-Serif" font-size="10.00">+ getSize()</text>
<text text-anchor="start" x="966" y="-525.5" font-family="Helvetica,sans-Serif" font-size="10.00">+ setSize()</text>
<text text-anchor="start" x="966" y="-514.5" font-family="Helvetica,sans-Serif" font-size="10.00">+ getAllCommodities()</text>
<text text-anchor="start" x="966" y="-503.5" font-family="Helvetica,sans-Serif" font-size="10.00">+ getCommodityData()</text>
<text text-anchor="start" x="966" y="-492.5" font-family="Helvetica,sans-Serif" font-size="10.00">+ getCommoditiesWithTag()</text>
<text text-anchor="start" x="966" y="-481.5" font-family="Helvetica,sans-Serif" font-size="10.00">+ getCommoditiesWithTags()</text>
<text text-anchor="start" x="966" y="-470.5" font-family="Helvetica,sans-Serif" font-size="10.00">and 142 more...</text>
</a>
</g>
</g>
<!-- Node7&#45;&gt;Node1 -->
<g id="edge12" class="edge">
<title>Node7&#45;&gt;Node1</title>
<path fill="none" stroke="#404040" d="M1014.58,-463.25C997.21,-390.18 986.57,-287.03 1036.5,-215 1081.37,-150.27 1162.69,-117.72 1235.34,-101.37"/>
<polygon fill="none" stroke="#404040" points="1235.65,-101.31 1240.67,-96.14 1247.38,-98.79 1242.35,-103.96 1235.65,-101.31"/>
<text text-anchor="middle" x="1055.5" y="-313" font-family="Helvetica,sans-Serif" font-size="10.00"> #market</text>
</g>
<!-- Node7&#45;&gt;Node2 -->
<g id="edge6" class="edge">
<title>Node7&#45;&gt;Node2</title>
<path fill="none" stroke="#404040" d="M957.78,-469.93C954.69,-467.54 951.59,-465.22 948.5,-463 903.09,-430.37 849.53,-400.14 801.87,-375.72"/>
<polygon fill="none" stroke="#404040" points="801.86,-375.72 794.7,-376.57 791.16,-370.29 798.32,-369.44 801.86,-375.72"/>
<text text-anchor="middle" x="944.5" y="-437" font-family="Helvetica,sans-Serif" font-size="10.00"> #shownAt</text>
</g>
<!-- Node8 -->
<g id="node8" class="node">
<title>Node8</title>
<g id="a_node8"><a xlink:href="../../de/da5/interfacecom_1_1fs_1_1starfarer_1_1api_1_1campaign_1_1rules_1_1HasMemory.html" target="_top" xlink:title=" ">
<polygon fill="none" stroke="black" points="958,-679.5 958,-758.5 1127,-758.5 1127,-679.5 958,-679.5"/>
<text text-anchor="start" x="966" y="-746.5" font-family="Helvetica,sans-Serif" font-size="10.00">com.fs.starfarer.api.campaign.rules.</text>
<text text-anchor="middle" x="1042.5" y="-735.5" font-family="Helvetica,sans-Serif" font-size="10.00">HasMemory</text>
<polyline fill="none" stroke="black" points="958,-728.5 1127,-728.5 "/>
<text text-anchor="middle" x="1042.5" y="-716.5" font-family="Helvetica,sans-Serif" font-size="10.00"> </text>
<polyline fill="none" stroke="black" points="958,-709.5 1127,-709.5 "/>
<text text-anchor="start" x="966" y="-697.5" font-family="Helvetica,sans-Serif" font-size="10.00">+ getMemory()</text>
<text text-anchor="start" x="966" y="-686.5" font-family="Helvetica,sans-Serif" font-size="10.00">+ getMemoryWithoutUpdate()</text>
</a>
</g>
</g>
<!-- Node8&#45;&gt;Node7 -->
<g id="edge7" class="edge">
<title>Node8&#45;&gt;Node7</title>
<path fill="none" stroke="midnightblue" d="M1042.5,-669.39C1042.5,-660.56 1042.5,-651.11 1042.5,-641.55"/>
<polygon fill="none" stroke="midnightblue" points="1039,-669.43 1042.5,-679.43 1046,-669.43 1039,-669.43"/>
</g>
<!-- Node9 -->
<g id="node9" class="node">
<title>Node9</title>
<g id="a_node9"><a xlink:href="../../da/d82/interfacecom_1_1fs_1_1starfarer_1_1api_1_1campaign_1_1InteractionDialogAPI.html" target="_top" xlink:title=" ">
<polygon fill="none" stroke="black" points="793.5,-463.5 793.5,-641.5 939.5,-641.5 939.5,-463.5 793.5,-463.5"/>
<text text-anchor="start" x="801.5" y="-629.5" font-family="Helvetica,sans-Serif" font-size="10.00">com.fs.starfarer.api.campaign.</text>
<text text-anchor="middle" x="866.5" y="-618.5" font-family="Helvetica,sans-Serif" font-size="10.00">InteractionDialogAPI</text>
<polyline fill="none" stroke="black" points="793.5,-611.5 939.5,-611.5 "/>
<text text-anchor="middle" x="866.5" y="-599.5" font-family="Helvetica,sans-Serif" font-size="10.00"> </text>
<polyline fill="none" stroke="black" points="793.5,-592.5 939.5,-592.5 "/>
<text text-anchor="start" x="801.5" y="-580.5" font-family="Helvetica,sans-Serif" font-size="10.00">+ setTextWidth()</text>
<text text-anchor="start" x="801.5" y="-569.5" font-family="Helvetica,sans-Serif" font-size="10.00">+ setTextHeight()</text>
<text text-anchor="start" x="801.5" y="-558.5" font-family="Helvetica,sans-Serif" font-size="10.00">+ setXOffset()</text>
<text text-anchor="start" x="801.5" y="-547.5" font-family="Helvetica,sans-Serif" font-size="10.00">+ setYOffset()</text>
<text text-anchor="start" x="801.5" y="-536.5" font-family="Helvetica,sans-Serif" font-size="10.00">+ setPromptText()</text>
<text text-anchor="start" x="801.5" y="-525.5" font-family="Helvetica,sans-Serif" font-size="10.00">+ hideTextPanel()</text>
<text text-anchor="start" x="801.5" y="-514.5" font-family="Helvetica,sans-Serif" font-size="10.00">+ showTextPanel()</text>
<text text-anchor="start" x="801.5" y="-503.5" font-family="Helvetica,sans-Serif" font-size="10.00">+ getTextWidth()</text>
<text text-anchor="start" x="801.5" y="-492.5" font-family="Helvetica,sans-Serif" font-size="10.00">+ getTextHeight()</text>
<text text-anchor="start" x="801.5" y="-481.5" font-family="Helvetica,sans-Serif" font-size="10.00">+ getXOffset()</text>
<text text-anchor="start" x="801.5" y="-470.5" font-family="Helvetica,sans-Serif" font-size="10.00">and 37 more...</text>
</a>
</g>
</g>
<!-- Node9&#45;&gt;Node2 -->
<g id="edge8" class="edge">
<title>Node9&#45;&gt;Node2</title>
<path fill="none" stroke="#404040" d="M794.46,-463.33C784.37,-450.98 773.9,-438.16 763.54,-425.48"/>
<polygon fill="none" stroke="#404040" points="763.24,-425.12 756.35,-423 755.65,-415.82 762.54,-417.94 763.24,-425.12"/>
<text text-anchor="middle" x="793.5" y="-437" font-family="Helvetica,sans-Serif" font-size="10.00"> #dialog</text>
</g>
<!-- Node10 -->
<g id="node10" class="node">
<title>Node10</title>
<g id="a_node10"><a xlink:title=" ">
<polygon fill="none" stroke="#bfbfbf" points="1084,-281.5 1084,-349.5 1381,-349.5 1381,-281.5 1084,-281.5"/>
<text text-anchor="start" x="1092" y="-337.5" font-family="Helvetica,sans-Serif" font-size="10.00">List&lt; com.fs.starfarer.api.impl.campaign.intel.bar.events.historian.</text>
<text text-anchor="middle" x="1232.5" y="-326.5" font-family="Helvetica,sans-Serif" font-size="10.00">HistorianData.HistorianOffer &gt;</text>
<polyline fill="none" stroke="#bfbfbf" points="1084,-319.5 1381,-319.5 "/>
<text text-anchor="middle" x="1232.5" y="-307.5" font-family="Helvetica,sans-Serif" font-size="10.00"> </text>
<polyline fill="none" stroke="#bfbfbf" points="1084,-300.5 1381,-300.5 "/>
<text text-anchor="middle" x="1232.5" y="-288.5" font-family="Helvetica,sans-Serif" font-size="10.00"> </text>
</a>
</g>
</g>
<!-- Node10&#45;&gt;Node1 -->
<g id="edge9" class="edge">
<title>Node10&#45;&gt;Node1</title>
<path fill="none" stroke="#404040" d="M1254.46,-281.13C1272.25,-254.08 1298.22,-214.61 1322.21,-178.16"/>
<polygon fill="none" stroke="#404040" points="1322.31,-177.99 1322.27,-170.78 1328.91,-167.97 1328.95,-175.18 1322.31,-177.99"/>
<text text-anchor="middle" x="1333.5" y="-189" font-family="Helvetica,sans-Serif" font-size="10.00"> #offers</text>
</g>
<!-- Node11 -->
<g id="node11" class="node">
<title>Node11</title>
<g id="a_node11"><a xlink:href="../../df/d5c/interfacecom_1_1fs_1_1starfarer_1_1api_1_1impl_1_1campaign_1_1intel_1_1bar_1_1events_1_1historiabc24949840d03ccd3f1da79a95c3699e.html" target="_top" xlink:title=" ">
<polygon fill="none" stroke="black" points="1399.5,-270.5 1399.5,-360.5 1671.5,-360.5 1671.5,-270.5 1399.5,-270.5"/>
<text text-anchor="start" x="1407.5" y="-348.5" font-family="Helvetica,sans-Serif" font-size="10.00">com.fs.starfarer.api.impl.campaign.intel.bar.events.historian.</text>
<text text-anchor="middle" x="1535.5" y="-337.5" font-family="Helvetica,sans-Serif" font-size="10.00">HistorianBackstory.HistorianBackstoryInfo</text>
<polyline fill="none" stroke="black" points="1399.5,-330.5 1671.5,-330.5 "/>
<text text-anchor="middle" x="1535.5" y="-318.5" font-family="Helvetica,sans-Serif" font-size="10.00"> </text>
<polyline fill="none" stroke="black" points="1399.5,-311.5 1671.5,-311.5 "/>
<text text-anchor="start" x="1407.5" y="-299.5" font-family="Helvetica,sans-Serif" font-size="10.00">+ getText()</text>
<text text-anchor="start" x="1407.5" y="-288.5" font-family="Helvetica,sans-Serif" font-size="10.00">+ getWeight()</text>
<text text-anchor="start" x="1407.5" y="-277.5" font-family="Helvetica,sans-Serif" font-size="10.00">+ getId()</text>
</a>
</g>
</g>
<!-- Node11&#45;&gt;Node1 -->
<g id="edge10" class="edge">
<title>Node11&#45;&gt;Node1</title>
<path fill="none" stroke="#404040" d="M1506.19,-270.25C1488.83,-244.04 1466.17,-209.82 1445.05,-177.93"/>
<polygon fill="none" stroke="#404040" points="1444.88,-177.68 1438.23,-174.88 1438.25,-167.67 1444.9,-170.47 1444.88,-177.68"/>
<text text-anchor="middle" x="1480.5" y="-189" font-family="Helvetica,sans-Serif" font-size="10.00"> #backstory</text>
</g>
<!-- Node12 -->
<g id="node12" class="node">
<title>Node12</title>
<g id="a_node12"><a xlink:href="../../de/def/interfacecom_1_1fs_1_1starfarer_1_1api_1_1impl_1_1campaign_1_1intel_1_1bar_1_1events_1_1historia737e60c4808d3e5d9412abd0120ed627.html" target="_top" xlink:title=" ">
<polygon fill="none" stroke="black" points="1689.5,-232 1689.5,-399 1961.5,-399 1961.5,-232 1689.5,-232"/>
<text text-anchor="start" x="1697.5" y="-387" font-family="Helvetica,sans-Serif" font-size="10.00">com.fs.starfarer.api.impl.campaign.intel.bar.events.historian.</text>
<text text-anchor="middle" x="1825.5" y="-376" font-family="Helvetica,sans-Serif" font-size="10.00">HistorianData.HistorianOffer</text>
<polyline fill="none" stroke="black" points="1689.5,-369 1961.5,-369 "/>
<text text-anchor="middle" x="1825.5" y="-357" font-family="Helvetica,sans-Serif" font-size="10.00"> </text>
<polyline fill="none" stroke="black" points="1689.5,-350 1961.5,-350 "/>
<text text-anchor="start" x="1697.5" y="-338" font-family="Helvetica,sans-Serif" font-size="10.00">+ init()</text>
<text text-anchor="start" x="1697.5" y="-327" font-family="Helvetica,sans-Serif" font-size="10.00">+ addPromptAndOption()</text>
<text text-anchor="start" x="1697.5" y="-316" font-family="Helvetica,sans-Serif" font-size="10.00">+ optionSelected()</text>
<text text-anchor="start" x="1697.5" y="-305" font-family="Helvetica,sans-Serif" font-size="10.00">+ shouldRemoveOffer()</text>
<text text-anchor="start" x="1697.5" y="-294" font-family="Helvetica,sans-Serif" font-size="10.00">+ isInteractionFinished()</text>
<text text-anchor="start" x="1697.5" y="-283" font-family="Helvetica,sans-Serif" font-size="10.00">+ shouldEndConversationOnReturning()</text>
<text text-anchor="start" x="1697.5" y="-272" font-family="Helvetica,sans-Serif" font-size="10.00">+ notifyAccepted()</text>
<text text-anchor="start" x="1697.5" y="-261" font-family="Helvetica,sans-Serif" font-size="10.00">+ getSortOrder()</text>
<text text-anchor="start" x="1697.5" y="-250" font-family="Helvetica,sans-Serif" font-size="10.00">+ getCreator()</text>
<text text-anchor="start" x="1697.5" y="-239" font-family="Helvetica,sans-Serif" font-size="10.00">+ setCreator()</text>
</a>
</g>
</g>
<!-- Node12&#45;&gt;Node1 -->
<g id="edge11" class="edge">
<title>Node12&#45;&gt;Node1</title>
<path fill="none" stroke="#404040" d="M1709.18,-231.92C1699.61,-225.98 1689.97,-220.26 1680.5,-215 1633.14,-188.69 1579.41,-163.79 1530.79,-142.96"/>
<polygon fill="none" stroke="#404040" points="1530.57,-142.86 1523.48,-144.19 1519.53,-138.16 1526.61,-136.83 1530.57,-142.86"/>
<text text-anchor="middle" x="1672" y="-189" font-family="Helvetica,sans-Serif" font-size="10.00"> #currentOffer</text>
</g>
<!-- Node13 -->
<g id="node13" class="node">
<title>Node13</title>
<g id="a_node13"><a xlink:title=" ">
<polygon fill="none" stroke="#bfbfbf" points="1980,-287 1980,-344 2033,-344 2033,-287 1980,-287"/>
<text text-anchor="middle" x="2006.5" y="-332" font-family="Helvetica,sans-Serif" font-size="10.00">Random</text>
<polyline fill="none" stroke="#bfbfbf" points="1980,-325 2033,-325 "/>
<text text-anchor="middle" x="2006.5" y="-313" font-family="Helvetica,sans-Serif" font-size="10.00"> </text>
<polyline fill="none" stroke="#bfbfbf" points="1980,-306 2033,-306 "/>
<text text-anchor="middle" x="2006.5" y="-294" font-family="Helvetica,sans-Serif" font-size="10.00"> </text>
</a>
</g>
</g>
<!-- Node13&#45;&gt;Node1 -->
<g id="edge13" class="edge">
<title>Node13&#45;&gt;Node1</title>
<path fill="none" stroke="#404040" d="M2003.74,-286.8C2000,-264.22 1991.2,-233.19 1970.5,-215 1906.22,-158.53 1683.55,-121.08 1531.71,-101.44"/>
<polygon fill="none" stroke="#404040" points="1531.44,-101.4 1524.98,-104.61 1519.53,-99.88 1525.99,-96.67 1531.44,-101.4"/>
<text text-anchor="middle" x="1958.5" y="-189" font-family="Helvetica,sans-Serif" font-size="10.00"> #random</text>
</g>
</g>
</svg>
