<?xml version="1.0" encoding="UTF-8" standalone="no"?>
<!DOCTYPE svg PUBLIC "-//W3C//DTD SVG 1.1//EN"
 "http://www.w3.org/Graphics/SVG/1.1/DTD/svg11.dtd">
<!-- Generated by graphviz version 7.0.5 (20221223.1930)
 -->
<!-- Title: com.fs.starfarer.api.impl.campaign.ghosts.GBStormArea Pages: 1 -->
<svg width="740pt" height="86pt"
 viewBox="0.00 0.00 740.00 86.00" xmlns="http://www.w3.org/2000/svg" xmlns:xlink="http://www.w3.org/1999/xlink">
<g id="graph0" class="graph" transform="scale(1 1) rotate(0) translate(4 82)">
<title>com.fs.starfarer.api.impl.campaign.ghosts.GBStormArea</title>
<!-- Node1 -->
<g id="node1" class="node">
<title>Node1</title>
<g id="a_node1"><a xlink:title=" ">
<polygon fill="#999999" stroke="#666666" points="732,-54 535,-54 535,-24 732,-24 732,-54"/>
<text text-anchor="start" x="543" y="-42" font-family="Helvetica,sans-Serif" font-size="10.00">com.fs.starfarer.api.impl.campaign.ghosts.</text>
<text text-anchor="middle" x="633.5" y="-31" font-family="Helvetica,sans-Serif" font-size="10.00">GBStormArea</text>
</a>
</g>
</g>
<!-- Node2 -->
<g id="node2" class="node">
<title>Node2</title>
<g id="a_node2"><a xlink:href="../../da/d7f/classcom_1_1fs_1_1starfarer_1_1api_1_1impl_1_1campaign_1_1ghosts_1_1BaseGhostBehavior.html" target="_top" xlink:title=" ">
<polygon fill="white" stroke="#666666" points="498,-54 301,-54 301,-24 498,-24 498,-54"/>
<text text-anchor="start" x="309" y="-42" font-family="Helvetica,sans-Serif" font-size="10.00">com.fs.starfarer.api.impl.campaign.ghosts.</text>
<text text-anchor="middle" x="399.5" y="-31" font-family="Helvetica,sans-Serif" font-size="10.00">BaseGhostBehavior</text>
</a>
</g>
</g>
<!-- Node2&#45;&gt;Node1 -->
<g id="edge1" class="edge">
<title>Node2&#45;&gt;Node1</title>
<path fill="none" stroke="#63b8ff" d="M509.54,-39C517.88,-39 526.26,-39 534.52,-39"/>
<polygon fill="#63b8ff" stroke="#63b8ff" points="509.73,-35.5 499.73,-39 509.73,-42.5 509.73,-35.5"/>
</g>
<!-- Node3 -->
<g id="node3" class="node">
<title>Node3</title>
<g id="a_node3"><a xlink:href="../../d6/dba/interfacecom_1_1fs_1_1starfarer_1_1api_1_1impl_1_1campaign_1_1ghosts_1_1GhostBehavior.html" target="_top" xlink:title=" ">
<polygon fill="white" stroke="#666666" points="209.5,-78 12.5,-78 12.5,-48 209.5,-48 209.5,-78"/>
<text text-anchor="start" x="20.5" y="-66" font-family="Helvetica,sans-Serif" font-size="10.00">com.fs.starfarer.api.impl.campaign.ghosts.</text>
<text text-anchor="middle" x="111" y="-55" font-family="Helvetica,sans-Serif" font-size="10.00">GhostBehavior</text>
</a>
</g>
</g>
<!-- Node3&#45;&gt;Node2 -->
<g id="edge2" class="edge">
<title>Node3&#45;&gt;Node2</title>
<path fill="none" stroke="#63b8ff" d="M220.92,-53.88C247.14,-51.68 274.98,-49.35 300.66,-47.2"/>
<polygon fill="#63b8ff" stroke="#63b8ff" points="220.98,-50.36 211.3,-54.68 221.56,-57.33 220.98,-50.36"/>
</g>
<!-- Node4 -->
<g id="node4" class="node">
<title>Node4</title>
<g id="a_node4"><a xlink:title=" ">
<polygon fill="white" stroke="#666666" points="222,-30 0,-30 0,0 222,0 222,-30"/>
<text text-anchor="start" x="8" y="-18" font-family="Helvetica,sans-Serif" font-size="10.00">List&lt; com.fs.starfarer.api.impl.campaign.ghosts.</text>
<text text-anchor="middle" x="111" y="-7" font-family="Helvetica,sans-Serif" font-size="10.00">GhostBehaviorInterrupt &gt;</text>
</a>
</g>
</g>
<!-- Node4&#45;&gt;Node2 -->
<g id="edge3" class="edge">
<title>Node4&#45;&gt;Node2</title>
<path fill="none" stroke="#9a32cd" stroke-dasharray="5,2" d="M233.65,-25.19C256.08,-27.07 279.22,-29.01 300.83,-30.82"/>
<polygon fill="#9a32cd" stroke="#9a32cd" points="234.12,-21.72 223.87,-24.37 233.54,-28.69 234.12,-21.72"/>
<text text-anchor="middle" x="261.5" y="-32" font-family="Helvetica,sans-Serif" font-size="10.00"> interrupts</text>
</g>
</g>
</svg>
