<?xml version="1.0" encoding="UTF-8" standalone="no"?>
<!DOCTYPE svg PUBLIC "-//W3C//DTD SVG 1.1//EN"
 "http://www.w3.org/Graphics/SVG/1.1/DTD/svg11.dtd">
<!-- Generated by graphviz version 2.44.0 ()
 -->
<!-- Title: com.fs.starfarer.api.impl.campaign.missions.hub.HubMissionWithSearch.PlanetRequirement Pages: 1 -->
<svg width="2504pt" height="331pt"
 viewBox="0.00 0.00 2503.50 331.00" xmlns="http://www.w3.org/2000/svg" xmlns:xlink="http://www.w3.org/1999/xlink">
<g id="graph0" class="graph" transform="scale(1 1) rotate(0) translate(4 327)">
<title>com.fs.starfarer.api.impl.campaign.missions.hub.HubMissionWithSearch.PlanetRequirement</title>
<!-- Node1 -->
<g id="node1" class="node">
<title>Node1</title>
<g id="a_node1"><a xlink:title=" ">
<polygon fill="#bfbfbf" stroke="black" points="1127.5,-149.5 1127.5,-217.5 1352.5,-217.5 1352.5,-149.5 1127.5,-149.5"/>
<text text-anchor="start" x="1135.5" y="-205.5" font-family="Helvetica,sans-Serif" font-size="10.00">com.fs.starfarer.api.impl.campaign.missions.hub.</text>
<text text-anchor="middle" x="1240" y="-194.5" font-family="Helvetica,sans-Serif" font-size="10.00">HubMissionWithSearch.PlanetRequirement</text>
<polyline fill="none" stroke="black" points="1127.5,-187.5 1352.5,-187.5 "/>
<text text-anchor="middle" x="1240" y="-175.5" font-family="Helvetica,sans-Serif" font-size="10.00"> </text>
<polyline fill="none" stroke="black" points="1127.5,-168.5 1352.5,-168.5 "/>
<text text-anchor="start" x="1135.5" y="-156.5" font-family="Helvetica,sans-Serif" font-size="10.00">+ planetMatchesRequirement()</text>
</a>
</g>
</g>
<!-- Node3 -->
<g id="node3" class="node">
<title>Node3</title>
<g id="a_node3"><a xlink:href="../../d4/d29/classcom_1_1fs_1_1starfarer_1_1api_1_1impl_1_1campaign_1_1missions_1_1hub_1_1HubMissionWithSearch_1_1MultiplePlanetRequirements.html" target="_top" xlink:title=" ">
<polygon fill="none" stroke="black" points="0,-11.5 0,-101.5 242,-101.5 242,-11.5 0,-11.5"/>
<text text-anchor="start" x="8" y="-89.5" font-family="Helvetica,sans-Serif" font-size="10.00">com.fs.starfarer.api.impl.campaign.missions.hub.</text>
<text text-anchor="middle" x="121" y="-78.5" font-family="Helvetica,sans-Serif" font-size="10.00">HubMissionWithSearch.MultiplePlanetRequirements</text>
<polyline fill="none" stroke="black" points="0,-71.5 242,-71.5 "/>
<text text-anchor="start" x="8" y="-59.5" font-family="Helvetica,sans-Serif" font-size="10.00"># reqs</text>
<text text-anchor="start" x="8" y="-48.5" font-family="Helvetica,sans-Serif" font-size="10.00"># mode</text>
<polyline fill="none" stroke="black" points="0,-41.5 242,-41.5 "/>
<text text-anchor="start" x="8" y="-29.5" font-family="Helvetica,sans-Serif" font-size="10.00">+ MultiplePlanetRequirements()</text>
<text text-anchor="start" x="8" y="-18.5" font-family="Helvetica,sans-Serif" font-size="10.00">+ planetMatchesRequirement()</text>
</a>
</g>
</g>
<!-- Node1&#45;&gt;Node3 -->
<g id="edge2" class="edge">
<title>Node1&#45;&gt;Node3</title>
<path fill="none" stroke="midnightblue" d="M1117.07,-178.96C889.7,-171.56 411.98,-151.85 251,-113 238.83,-110.06 226.36,-106.09 214.17,-101.62"/>
<polygon fill="none" stroke="midnightblue" points="1117.27,-182.47 1127.37,-179.29 1117.49,-175.47 1117.27,-182.47"/>
</g>
<!-- Node4 -->
<g id="node4" class="node">
<title>Node4</title>
<g id="a_node4"><a xlink:href="../../dd/d82/classcom_1_1fs_1_1starfarer_1_1api_1_1impl_1_1campaign_1_1missions_1_1hub_1_1HubMissionWithSearch_1_1PlanetFullySurveyedReq.html" target="_top" xlink:title=" ">
<polygon fill="none" stroke="black" points="260.5,-11.5 260.5,-101.5 487.5,-101.5 487.5,-11.5 260.5,-11.5"/>
<text text-anchor="start" x="268.5" y="-89.5" font-family="Helvetica,sans-Serif" font-size="10.00">com.fs.starfarer.api.impl.campaign.missions.hub.</text>
<text text-anchor="middle" x="374" y="-78.5" font-family="Helvetica,sans-Serif" font-size="10.00">HubMissionWithSearch.PlanetFullySurveyedReq</text>
<polyline fill="none" stroke="black" points="260.5,-71.5 487.5,-71.5 "/>
<text text-anchor="start" x="268.5" y="-59.5" font-family="Helvetica,sans-Serif" font-size="10.00"># negate</text>
<polyline fill="none" stroke="black" points="260.5,-52.5 487.5,-52.5 "/>
<text text-anchor="start" x="268.5" y="-40.5" font-family="Helvetica,sans-Serif" font-size="10.00">+ PlanetFullySurveyedReq()</text>
<text text-anchor="start" x="268.5" y="-29.5" font-family="Helvetica,sans-Serif" font-size="10.00">+ PlanetFullySurveyedReq()</text>
<text text-anchor="start" x="268.5" y="-18.5" font-family="Helvetica,sans-Serif" font-size="10.00">+ planetMatchesRequirement()</text>
</a>
</g>
</g>
<!-- Node1&#45;&gt;Node4 -->
<g id="edge3" class="edge">
<title>Node1&#45;&gt;Node4</title>
<path fill="none" stroke="midnightblue" d="M1117.29,-175.94C937.31,-165.48 610.78,-143.09 497,-113 485.56,-109.97 473.85,-105.98 462.42,-101.52"/>
<polygon fill="none" stroke="midnightblue" points="1117.16,-179.44 1127.34,-176.52 1117.56,-172.45 1117.16,-179.44"/>
</g>
<!-- Node5 -->
<g id="node5" class="node">
<title>Node5</title>
<g id="a_node5"><a xlink:href="../../da/d25/classcom_1_1fs_1_1starfarer_1_1api_1_1impl_1_1campaign_1_1missions_1_1hub_1_1HubMissionWithSearc7b7268c35ea9041286808048decd6ebd.html" target="_top" xlink:title=" ">
<polygon fill="none" stroke="black" points="506,-0.5 506,-112.5 736,-112.5 736,-0.5 506,-0.5"/>
<text text-anchor="start" x="514" y="-100.5" font-family="Helvetica,sans-Serif" font-size="10.00">com.fs.starfarer.api.impl.campaign.missions.hub.</text>
<text text-anchor="start" x="514" y="-89.5" font-family="Helvetica,sans-Serif" font-size="10.00">HubMissionWithSearch.PlanetInDirectionOfOther</text>
<text text-anchor="middle" x="621" y="-78.5" font-family="Helvetica,sans-Serif" font-size="10.00">MissionsReq</text>
<polyline fill="none" stroke="black" points="506,-71.5 736,-71.5 "/>
<text text-anchor="start" x="514" y="-59.5" font-family="Helvetica,sans-Serif" font-size="10.00"># mission</text>
<text text-anchor="start" x="514" y="-48.5" font-family="Helvetica,sans-Serif" font-size="10.00"># arcMult</text>
<polyline fill="none" stroke="black" points="506,-41.5 736,-41.5 "/>
<text text-anchor="start" x="514" y="-29.5" font-family="Helvetica,sans-Serif" font-size="10.00">+ PlanetInDirectionOfOther</text>
<text text-anchor="start" x="514" y="-18.5" font-family="Helvetica,sans-Serif" font-size="10.00">MissionsReq()</text>
<text text-anchor="start" x="514" y="-7.5" font-family="Helvetica,sans-Serif" font-size="10.00">+ planetMatchesRequirement()</text>
</a>
</g>
</g>
<!-- Node1&#45;&gt;Node5 -->
<g id="edge4" class="edge">
<title>Node1&#45;&gt;Node5</title>
<path fill="none" stroke="midnightblue" d="M1117.07,-174.89C1015.68,-166.33 868.89,-148.65 745,-113 742.05,-112.15 739.09,-111.25 736.11,-110.29"/>
<polygon fill="none" stroke="midnightblue" points="1116.79,-178.38 1127.05,-175.71 1117.37,-171.4 1116.79,-178.38"/>
</g>
<!-- Node6 -->
<g id="node6" class="node">
<title>Node6</title>
<g id="a_node6"><a xlink:href="../../df/dce/classcom_1_1fs_1_1starfarer_1_1api_1_1impl_1_1campaign_1_1missions_1_1hub_1_1HubMissionWithSearch_1_1PlanetIsGasGiantReq.html" target="_top" xlink:title=" ">
<polygon fill="none" stroke="black" points="754.5,-11.5 754.5,-101.5 979.5,-101.5 979.5,-11.5 754.5,-11.5"/>
<text text-anchor="start" x="762.5" y="-89.5" font-family="Helvetica,sans-Serif" font-size="10.00">com.fs.starfarer.api.impl.campaign.missions.hub.</text>
<text text-anchor="middle" x="867" y="-78.5" font-family="Helvetica,sans-Serif" font-size="10.00">HubMissionWithSearch.PlanetIsGasGiantReq</text>
<polyline fill="none" stroke="black" points="754.5,-71.5 979.5,-71.5 "/>
<text text-anchor="start" x="762.5" y="-59.5" font-family="Helvetica,sans-Serif" font-size="10.00"># negate</text>
<polyline fill="none" stroke="black" points="754.5,-52.5 979.5,-52.5 "/>
<text text-anchor="start" x="762.5" y="-40.5" font-family="Helvetica,sans-Serif" font-size="10.00">+ PlanetIsGasGiantReq()</text>
<text text-anchor="start" x="762.5" y="-29.5" font-family="Helvetica,sans-Serif" font-size="10.00">+ PlanetIsGasGiantReq()</text>
<text text-anchor="start" x="762.5" y="-18.5" font-family="Helvetica,sans-Serif" font-size="10.00">+ planetMatchesRequirement()</text>
</a>
</g>
</g>
<!-- Node1&#45;&gt;Node6 -->
<g id="edge5" class="edge">
<title>Node1&#45;&gt;Node6</title>
<path fill="none" stroke="midnightblue" d="M1117.55,-152.97C1075.97,-141.83 1029.55,-128.15 988,-113 978.55,-109.56 968.83,-105.68 959.18,-101.62"/>
<polygon fill="none" stroke="midnightblue" points="1116.88,-156.42 1127.45,-155.6 1118.68,-149.65 1116.88,-156.42"/>
</g>
<!-- Node7 -->
<g id="node7" class="node">
<title>Node7</title>
<g id="a_node7"><a xlink:href="../../d7/dfe/classcom_1_1fs_1_1starfarer_1_1api_1_1impl_1_1campaign_1_1missions_1_1hub_1_1HubMissionWithSearch_1_1PlanetIsPopulatedReq.html" target="_top" xlink:title=" ">
<polygon fill="none" stroke="black" points="997.5,-11.5 997.5,-101.5 1222.5,-101.5 1222.5,-11.5 997.5,-11.5"/>
<text text-anchor="start" x="1005.5" y="-89.5" font-family="Helvetica,sans-Serif" font-size="10.00">com.fs.starfarer.api.impl.campaign.missions.hub.</text>
<text text-anchor="middle" x="1110" y="-78.5" font-family="Helvetica,sans-Serif" font-size="10.00">HubMissionWithSearch.PlanetIsPopulatedReq</text>
<polyline fill="none" stroke="black" points="997.5,-71.5 1222.5,-71.5 "/>
<text text-anchor="start" x="1005.5" y="-59.5" font-family="Helvetica,sans-Serif" font-size="10.00"># negate</text>
<polyline fill="none" stroke="black" points="997.5,-52.5 1222.5,-52.5 "/>
<text text-anchor="start" x="1005.5" y="-40.5" font-family="Helvetica,sans-Serif" font-size="10.00">+ PlanetIsPopulatedReq()</text>
<text text-anchor="start" x="1005.5" y="-29.5" font-family="Helvetica,sans-Serif" font-size="10.00">+ PlanetIsPopulatedReq()</text>
<text text-anchor="start" x="1005.5" y="-18.5" font-family="Helvetica,sans-Serif" font-size="10.00">+ planetMatchesRequirement()</text>
</a>
</g>
</g>
<!-- Node1&#45;&gt;Node7 -->
<g id="edge6" class="edge">
<title>Node1&#45;&gt;Node7</title>
<path fill="none" stroke="midnightblue" d="M1198.19,-142.3C1184.7,-129.33 1169.69,-114.89 1155.93,-101.66"/>
<polygon fill="none" stroke="midnightblue" points="1195.87,-144.92 1205.5,-149.33 1200.72,-139.88 1195.87,-144.92"/>
</g>
<!-- Node8 -->
<g id="node8" class="node">
<title>Node8</title>
<g id="a_node8"><a xlink:href="../../dc/ddd/classcom_1_1fs_1_1starfarer_1_1api_1_1impl_1_1campaign_1_1missions_1_1hub_1_1HubMissionWithSearcd5ca3cb37cc5611165a68af216d7f12a.html" target="_top" xlink:title=" ">
<polygon fill="none" stroke="black" points="1240.5,-11.5 1240.5,-101.5 1501.5,-101.5 1501.5,-11.5 1240.5,-11.5"/>
<text text-anchor="start" x="1248.5" y="-89.5" font-family="Helvetica,sans-Serif" font-size="10.00">com.fs.starfarer.api.impl.campaign.missions.hub.</text>
<text text-anchor="middle" x="1371" y="-78.5" font-family="Helvetica,sans-Serif" font-size="10.00">HubMissionWithSearch.PlanetOrbitIsNotNearJumpPoint</text>
<polyline fill="none" stroke="black" points="1240.5,-71.5 1501.5,-71.5 "/>
<text text-anchor="start" x="1248.5" y="-59.5" font-family="Helvetica,sans-Serif" font-size="10.00"># checkDist</text>
<polyline fill="none" stroke="black" points="1240.5,-52.5 1501.5,-52.5 "/>
<text text-anchor="start" x="1248.5" y="-40.5" font-family="Helvetica,sans-Serif" font-size="10.00">+ PlanetOrbitIsNotNearJump</text>
<text text-anchor="start" x="1248.5" y="-29.5" font-family="Helvetica,sans-Serif" font-size="10.00">Point()</text>
<text text-anchor="start" x="1248.5" y="-18.5" font-family="Helvetica,sans-Serif" font-size="10.00">+ planetMatchesRequirement()</text>
</a>
</g>
</g>
<!-- Node1&#45;&gt;Node8 -->
<g id="edge7" class="edge">
<title>Node1&#45;&gt;Node8</title>
<path fill="none" stroke="midnightblue" d="M1282.13,-142.3C1295.72,-129.33 1310.85,-114.89 1324.72,-101.66"/>
<polygon fill="none" stroke="midnightblue" points="1279.58,-139.89 1274.76,-149.33 1284.41,-144.96 1279.58,-139.89"/>
</g>
<!-- Node9 -->
<g id="node9" class="node">
<title>Node9</title>
<g id="a_node9"><a xlink:href="../../d2/d5b/classcom_1_1fs_1_1starfarer_1_1api_1_1impl_1_1campaign_1_1missions_1_1hub_1_1HubMissionWithSearch_1_1PlanetUnexploredRuinsReq.html" target="_top" xlink:title=" ">
<polygon fill="none" stroke="black" points="1519.5,-11.5 1519.5,-101.5 1758.5,-101.5 1758.5,-11.5 1519.5,-11.5"/>
<text text-anchor="start" x="1527.5" y="-89.5" font-family="Helvetica,sans-Serif" font-size="10.00">com.fs.starfarer.api.impl.campaign.missions.hub.</text>
<text text-anchor="middle" x="1639" y="-78.5" font-family="Helvetica,sans-Serif" font-size="10.00">HubMissionWithSearch.PlanetUnexploredRuinsReq</text>
<polyline fill="none" stroke="black" points="1519.5,-71.5 1758.5,-71.5 "/>
<text text-anchor="start" x="1527.5" y="-59.5" font-family="Helvetica,sans-Serif" font-size="10.00"># negate</text>
<polyline fill="none" stroke="black" points="1519.5,-52.5 1758.5,-52.5 "/>
<text text-anchor="start" x="1527.5" y="-40.5" font-family="Helvetica,sans-Serif" font-size="10.00">+ PlanetUnexploredRuinsReq()</text>
<text text-anchor="start" x="1527.5" y="-29.5" font-family="Helvetica,sans-Serif" font-size="10.00">+ PlanetUnexploredRuinsReq()</text>
<text text-anchor="start" x="1527.5" y="-18.5" font-family="Helvetica,sans-Serif" font-size="10.00">+ planetMatchesRequirement()</text>
</a>
</g>
</g>
<!-- Node1&#45;&gt;Node9 -->
<g id="edge8" class="edge">
<title>Node1&#45;&gt;Node9</title>
<path fill="none" stroke="midnightblue" d="M1362.49,-155.44C1409.43,-143.94 1463.17,-129.39 1511,-113 1521.08,-109.55 1531.48,-105.64 1541.79,-101.54"/>
<polygon fill="none" stroke="midnightblue" points="1361.48,-152.08 1352.59,-157.85 1363.13,-158.89 1361.48,-152.08"/>
</g>
<!-- Node10 -->
<g id="node10" class="node">
<title>Node10</title>
<g id="a_node10"><a xlink:href="../../d5/df0/classcom_1_1fs_1_1starfarer_1_1api_1_1impl_1_1campaign_1_1missions_1_1hub_1_1HubMissionWithSearch_1_1PlanetUnsurveyedReq.html" target="_top" xlink:title=" ">
<polygon fill="none" stroke="black" points="1776.5,-11.5 1776.5,-101.5 2001.5,-101.5 2001.5,-11.5 1776.5,-11.5"/>
<text text-anchor="start" x="1784.5" y="-89.5" font-family="Helvetica,sans-Serif" font-size="10.00">com.fs.starfarer.api.impl.campaign.missions.hub.</text>
<text text-anchor="middle" x="1889" y="-78.5" font-family="Helvetica,sans-Serif" font-size="10.00">HubMissionWithSearch.PlanetUnsurveyedReq</text>
<polyline fill="none" stroke="black" points="1776.5,-71.5 2001.5,-71.5 "/>
<text text-anchor="start" x="1784.5" y="-59.5" font-family="Helvetica,sans-Serif" font-size="10.00"># negate</text>
<polyline fill="none" stroke="black" points="1776.5,-52.5 2001.5,-52.5 "/>
<text text-anchor="start" x="1784.5" y="-40.5" font-family="Helvetica,sans-Serif" font-size="10.00">+ PlanetUnsurveyedReq()</text>
<text text-anchor="start" x="1784.5" y="-29.5" font-family="Helvetica,sans-Serif" font-size="10.00">+ PlanetUnsurveyedReq()</text>
<text text-anchor="start" x="1784.5" y="-18.5" font-family="Helvetica,sans-Serif" font-size="10.00">+ planetMatchesRequirement()</text>
</a>
</g>
</g>
<!-- Node1&#45;&gt;Node10 -->
<g id="edge9" class="edge">
<title>Node1&#45;&gt;Node10</title>
<path fill="none" stroke="midnightblue" d="M1362.71,-176.74C1471.1,-169.22 1632.52,-152.03 1768,-113 1778.88,-109.87 1790.03,-105.9 1800.95,-101.53"/>
<polygon fill="none" stroke="midnightblue" points="1362.46,-173.25 1352.72,-177.42 1362.93,-180.23 1362.46,-173.25"/>
</g>
<!-- Node11 -->
<g id="node11" class="node">
<title>Node11</title>
<g id="a_node11"><a xlink:href="../../d3/dd3/classcom_1_1fs_1_1starfarer_1_1api_1_1impl_1_1campaign_1_1missions_1_1hub_1_1HubMissionWithSearch_1_1RequiredPlanetConditions.html" target="_top" xlink:title=" ">
<polygon fill="none" stroke="black" points="2019.5,-17 2019.5,-96 2252.5,-96 2252.5,-17 2019.5,-17"/>
<text text-anchor="start" x="2027.5" y="-84" font-family="Helvetica,sans-Serif" font-size="10.00">com.fs.starfarer.api.impl.campaign.missions.hub.</text>
<text text-anchor="middle" x="2136" y="-73" font-family="Helvetica,sans-Serif" font-size="10.00">HubMissionWithSearch.RequiredPlanetConditions</text>
<polyline fill="none" stroke="black" points="2019.5,-66 2252.5,-66 "/>
<text text-anchor="middle" x="2136" y="-54" font-family="Helvetica,sans-Serif" font-size="10.00"> </text>
<polyline fill="none" stroke="black" points="2019.5,-47 2252.5,-47 "/>
<text text-anchor="start" x="2027.5" y="-35" font-family="Helvetica,sans-Serif" font-size="10.00">+ RequiredPlanetConditions()</text>
<text text-anchor="start" x="2027.5" y="-24" font-family="Helvetica,sans-Serif" font-size="10.00">+ planetMatchesRequirement()</text>
</a>
</g>
</g>
<!-- Node1&#45;&gt;Node11 -->
<g id="edge10" class="edge">
<title>Node1&#45;&gt;Node11</title>
<path fill="none" stroke="midnightblue" d="M1362.89,-176.33C1548.64,-166.16 1891.88,-143.91 2011,-113 2027.2,-108.8 2043.96,-102.7 2059.74,-96.07"/>
<polygon fill="none" stroke="midnightblue" points="1362.59,-172.84 1352.8,-176.87 1362.98,-179.83 1362.59,-172.84"/>
</g>
<!-- Node12 -->
<g id="node12" class="node">
<title>Node12</title>
<g id="a_node12"><a xlink:href="../../df/db1/classcom_1_1fs_1_1starfarer_1_1api_1_1impl_1_1campaign_1_1missions_1_1hub_1_1HubMissionWithSearch_1_1RequiredPlanetTags.html" target="_top" xlink:title=" ">
<polygon fill="none" stroke="black" points="2270.5,-17 2270.5,-96 2495.5,-96 2495.5,-17 2270.5,-17"/>
<text text-anchor="start" x="2278.5" y="-84" font-family="Helvetica,sans-Serif" font-size="10.00">com.fs.starfarer.api.impl.campaign.missions.hub.</text>
<text text-anchor="middle" x="2383" y="-73" font-family="Helvetica,sans-Serif" font-size="10.00">HubMissionWithSearch.RequiredPlanetTags</text>
<polyline fill="none" stroke="black" points="2270.5,-66 2495.5,-66 "/>
<text text-anchor="middle" x="2383" y="-54" font-family="Helvetica,sans-Serif" font-size="10.00"> </text>
<polyline fill="none" stroke="black" points="2270.5,-47 2495.5,-47 "/>
<text text-anchor="start" x="2278.5" y="-35" font-family="Helvetica,sans-Serif" font-size="10.00">+ RequiredPlanetTags()</text>
<text text-anchor="start" x="2278.5" y="-24" font-family="Helvetica,sans-Serif" font-size="10.00">+ planetMatchesRequirement()</text>
</a>
</g>
</g>
<!-- Node1&#45;&gt;Node12 -->
<g id="edge11" class="edge">
<title>Node1&#45;&gt;Node12</title>
<path fill="none" stroke="midnightblue" d="M1362.75,-179.69C1596.06,-173.43 2095.14,-155.42 2262,-113 2278.02,-108.93 2294.52,-102.8 2310,-96.09"/>
<polygon fill="none" stroke="midnightblue" points="1362.42,-176.2 1352.52,-179.96 1362.61,-183.19 1362.42,-176.2"/>
</g>
<!-- Node2 -->
<g id="node2" class="node">
<title>Node2</title>
<g id="a_node2"><a xlink:href="../../db/da0/interfacecom_1_1fs_1_1starfarer_1_1api_1_1impl_1_1campaign_1_1missions_1_1hub_1_1HubMissionWithSearch_1_1GenericRequirement.html" target="_top" xlink:title=" ">
<polygon fill="none" stroke="black" points="1127.5,-254.5 1127.5,-322.5 1352.5,-322.5 1352.5,-254.5 1127.5,-254.5"/>
<text text-anchor="start" x="1135.5" y="-310.5" font-family="Helvetica,sans-Serif" font-size="10.00">com.fs.starfarer.api.impl.campaign.missions.hub.</text>
<text text-anchor="middle" x="1240" y="-299.5" font-family="Helvetica,sans-Serif" font-size="10.00">HubMissionWithSearch.GenericRequirement</text>
<polyline fill="none" stroke="black" points="1127.5,-292.5 1352.5,-292.5 "/>
<text text-anchor="middle" x="1240" y="-280.5" font-family="Helvetica,sans-Serif" font-size="10.00"> </text>
<polyline fill="none" stroke="black" points="1127.5,-273.5 1352.5,-273.5 "/>
<text text-anchor="middle" x="1240" y="-261.5" font-family="Helvetica,sans-Serif" font-size="10.00"> </text>
</a>
</g>
</g>
<!-- Node2&#45;&gt;Node1 -->
<g id="edge1" class="edge">
<title>Node2&#45;&gt;Node1</title>
<path fill="none" stroke="midnightblue" d="M1240,-244.14C1240,-235.26 1240,-226.04 1240,-217.59"/>
<polygon fill="none" stroke="midnightblue" points="1236.5,-244.34 1240,-254.34 1243.5,-244.34 1236.5,-244.34"/>
</g>
</g>
</svg>
