<?xml version="1.0" encoding="UTF-8" standalone="no"?>
<!DOCTYPE svg PUBLIC "-//W3C//DTD SVG 1.1//EN"
 "http://www.w3.org/Graphics/SVG/1.1/DTD/svg11.dtd">
<!-- Generated by graphviz version 7.0.5 (20221223.1930)
 -->
<!-- Title: com.fs.starfarer.api.impl.campaign.fleets.BaseLimitedFleetManager Pages: 1 -->
<svg width="453pt" height="209pt"
 viewBox="0.00 0.00 453.00 209.00" xmlns="http://www.w3.org/2000/svg" xmlns:xlink="http://www.w3.org/1999/xlink">
<g id="graph0" class="graph" transform="scale(1 1) rotate(0) translate(4 205)">
<title>com.fs.starfarer.api.impl.campaign.fleets.BaseLimitedFleetManager</title>
<!-- Node1 -->
<g id="node1" class="node">
<title>Node1</title>
<g id="a_node1"><a xlink:title=" ">
<polygon fill="#999999" stroke="#666666" points="445,-110 254,-110 254,-80 445,-80 445,-110"/>
<text text-anchor="start" x="262" y="-98" font-family="Helvetica,sans-Serif" font-size="10.00">com.fs.starfarer.api.impl.campaign.fleets.</text>
<text text-anchor="middle" x="349.5" y="-87" font-family="Helvetica,sans-Serif" font-size="10.00">BaseLimitedFleetManager</text>
</a>
</g>
</g>
<!-- Node2 -->
<g id="node2" class="node">
<title>Node2</title>
<g id="a_node2"><a xlink:href="../../d7/d63/interfacecom_1_1fs_1_1starfarer_1_1api_1_1EveryFrameScript.html" target="_top" xlink:title=" ">
<polygon fill="white" stroke="#666666" points="155,-201 30,-201 30,-171 155,-171 155,-201"/>
<text text-anchor="start" x="38" y="-189" font-family="Helvetica,sans-Serif" font-size="10.00">com.fs.starfarer.api.Every</text>
<text text-anchor="middle" x="92.5" y="-178" font-family="Helvetica,sans-Serif" font-size="10.00">FrameScript</text>
</a>
</g>
</g>
<!-- Node2&#45;&gt;Node1 -->
<g id="edge1" class="edge">
<title>Node2&#45;&gt;Node1</title>
<path fill="none" stroke="#63b8ff" d="M166.14,-167.89C172.55,-166.01 178.91,-164.04 185,-162 230.68,-146.73 281.82,-124.99 314.55,-110.46"/>
<polygon fill="#63b8ff" stroke="#63b8ff" points="165.46,-164.45 156.81,-170.55 167.38,-171.18 165.46,-164.45"/>
</g>
<!-- Node3 -->
<g id="node3" class="node">
<title>Node3</title>
<g id="a_node3"><a xlink:href="../../d5/d7b/interfacecom_1_1fs_1_1starfarer_1_1api_1_1campaign_1_1listeners_1_1FleetEventListener.html" target="_top" xlink:title=" ">
<polygon fill="white" stroke="#666666" points="185,-153 0,-153 0,-123 185,-123 185,-153"/>
<text text-anchor="start" x="8" y="-141" font-family="Helvetica,sans-Serif" font-size="10.00">com.fs.starfarer.api.campaign.listeners.</text>
<text text-anchor="middle" x="92.5" y="-130" font-family="Helvetica,sans-Serif" font-size="10.00">FleetEventListener</text>
</a>
</g>
</g>
<!-- Node3&#45;&gt;Node1 -->
<g id="edge2" class="edge">
<title>Node3&#45;&gt;Node1</title>
<path fill="none" stroke="#63b8ff" d="M196.5,-120.63C216.44,-117.27 237.21,-113.77 256.76,-110.47"/>
<polygon fill="#63b8ff" stroke="#63b8ff" points="195.97,-117.17 186.69,-122.29 197.14,-124.07 195.97,-117.17"/>
</g>
<!-- Node4 -->
<g id="node4" class="node">
<title>Node4</title>
<g id="a_node4"><a xlink:title=" ">
<polygon fill="white" stroke="#666666" points="116,-104.5 69,-104.5 69,-85.5 116,-85.5 116,-104.5"/>
<text text-anchor="middle" x="92.5" y="-92.5" font-family="Helvetica,sans-Serif" font-size="10.00">Logger</text>
</a>
</g>
</g>
<!-- Node4&#45;&gt;Node1 -->
<g id="edge3" class="edge">
<title>Node4&#45;&gt;Node1</title>
<path fill="none" stroke="#9a32cd" stroke-dasharray="5,2" d="M127.55,-95C159.72,-95 209.49,-95 253.65,-95"/>
<polygon fill="#9a32cd" stroke="#9a32cd" points="127.64,-91.5 117.64,-95 127.64,-98.5 127.64,-91.5"/>
<text text-anchor="middle" x="219.5" y="-98" font-family="Helvetica,sans-Serif" font-size="10.00"> log</text>
</g>
<!-- Node5 -->
<g id="node5" class="node">
<title>Node5</title>
<g id="a_node5"><a xlink:title=" ">
<polygon fill="white" stroke="#666666" points="158,-67.5 27,-67.5 27,-48.5 158,-48.5 158,-67.5"/>
<text text-anchor="middle" x="92.5" y="-55.5" font-family="Helvetica,sans-Serif" font-size="10.00">List&lt; ManagedFleetData &gt;</text>
</a>
</g>
</g>
<!-- Node5&#45;&gt;Node1 -->
<g id="edge4" class="edge">
<title>Node5&#45;&gt;Node1</title>
<path fill="none" stroke="#9a32cd" stroke-dasharray="5,2" d="M169.27,-68.99C195.72,-72.83 225.74,-77.19 253.54,-81.22"/>
<polygon fill="#9a32cd" stroke="#9a32cd" points="170.07,-65.57 159.67,-67.6 169.07,-72.5 170.07,-65.57"/>
<text text-anchor="middle" x="219.5" y="-80" font-family="Helvetica,sans-Serif" font-size="10.00"> active</text>
</g>
<!-- Node6 -->
<g id="node6" class="node">
<title>Node6</title>
<g id="a_node6"><a xlink:href="../../da/db8/classcom_1_1fs_1_1starfarer_1_1api_1_1util_1_1IntervalUtil.html" target="_top" xlink:title=" ">
<polygon fill="white" stroke="#666666" points="150.5,-30 34.5,-30 34.5,0 150.5,0 150.5,-30"/>
<text text-anchor="start" x="42.5" y="-18" font-family="Helvetica,sans-Serif" font-size="10.00">com.fs.starfarer.api.util.</text>
<text text-anchor="middle" x="92.5" y="-7" font-family="Helvetica,sans-Serif" font-size="10.00">IntervalUtil</text>
</a>
</g>
</g>
<!-- Node6&#45;&gt;Node1 -->
<g id="edge5" class="edge">
<title>Node6&#45;&gt;Node1</title>
<path fill="none" stroke="#9a32cd" stroke-dasharray="5,2" d="M161.82,-32.33C169.66,-34.49 177.52,-36.74 185,-39 226.51,-51.53 273.25,-67.76 306.09,-79.52"/>
<polygon fill="#9a32cd" stroke="#9a32cd" points="162.82,-28.97 152.25,-29.73 160.98,-35.73 162.82,-28.97"/>
<text text-anchor="middle" x="219.5" y="-57" font-family="Helvetica,sans-Serif" font-size="10.00"> tracker</text>
</g>
</g>
</svg>
