<?xml version="1.0" encoding="UTF-8" standalone="no"?>
<!DOCTYPE svg PUBLIC "-//W3C//DTD SVG 1.1//EN"
 "http://www.w3.org/Graphics/SVG/1.1/DTD/svg11.dtd">
<!-- Generated by graphviz version 2.44.0 ()
 -->
<!-- Title: com.fs.starfarer.api.impl.campaign.fleets.BaseLimitedFleetManager Pages: 1 -->
<svg width="779pt" height="490pt"
 viewBox="0.00 0.00 779.00 490.00" xmlns="http://www.w3.org/2000/svg" xmlns:xlink="http://www.w3.org/1999/xlink">
<g id="graph0" class="graph" transform="scale(1 1) rotate(0) translate(4 486)">
<title>com.fs.starfarer.api.impl.campaign.fleets.BaseLimitedFleetManager</title>
<!-- Node1 -->
<g id="node1" class="node">
<title>Node1</title>
<g id="a_node1"><a xlink:title=" ">
<polygon fill="#bfbfbf" stroke="black" points="274,-0.5 274,-189.5 465,-189.5 465,-0.5 274,-0.5"/>
<text text-anchor="start" x="282" y="-177.5" font-family="Helvetica,sans-Serif" font-size="10.00">com.fs.starfarer.api.impl.campaign.fleets.</text>
<text text-anchor="middle" x="369.5" y="-166.5" font-family="Helvetica,sans-Serif" font-size="10.00">BaseLimitedFleetManager</text>
<polyline fill="none" stroke="black" points="274,-159.5 465,-159.5 "/>
<text text-anchor="middle" x="369.5" y="-147.5" font-family="Helvetica,sans-Serif" font-size="10.00"> </text>
<polyline fill="none" stroke="black" points="274,-140.5 465,-140.5 "/>
<text text-anchor="start" x="282" y="-128.5" font-family="Helvetica,sans-Serif" font-size="10.00">+ BaseLimitedFleetManager()</text>
<text text-anchor="start" x="282" y="-117.5" font-family="Helvetica,sans-Serif" font-size="10.00">+ advance()</text>
<text text-anchor="start" x="282" y="-106.5" font-family="Helvetica,sans-Serif" font-size="10.00">+ isDone()</text>
<text text-anchor="start" x="282" y="-95.5" font-family="Helvetica,sans-Serif" font-size="10.00">+ runWhilePaused()</text>
<text text-anchor="start" x="282" y="-84.5" font-family="Helvetica,sans-Serif" font-size="10.00">+ reportFleetDespawned()</text>
<text text-anchor="start" x="282" y="-73.5" font-family="Helvetica,sans-Serif" font-size="10.00">+ reportBattleOccurred()</text>
<text text-anchor="start" x="282" y="-62.5" font-family="Helvetica,sans-Serif" font-size="10.00">+ reportFleetDespawnedToListener()</text>
<text text-anchor="start" x="282" y="-51.5" font-family="Helvetica,sans-Serif" font-size="10.00"># readResolve()</text>
<text text-anchor="start" x="282" y="-40.5" font-family="Helvetica,sans-Serif" font-size="10.00"># getMaxFleets()</text>
<text text-anchor="start" x="282" y="-29.5" font-family="Helvetica,sans-Serif" font-size="10.00"># spawnFleet()</text>
<text text-anchor="start" x="282" y="-18.5" font-family="Helvetica,sans-Serif" font-size="10.00"># getNextInterval()</text>
<text text-anchor="start" x="282" y="-7.5" font-family="Helvetica,sans-Serif" font-size="10.00"># getSpawnRateMult()</text>
</a>
</g>
</g>
<!-- Node2 -->
<g id="node2" class="node">
<title>Node2</title>
<g id="a_node2"><a xlink:href="../../d7/d63/interfacecom_1_1fs_1_1starfarer_1_1api_1_1EveryFrameScript.html" target="_top" xlink:title=" ">
<polygon fill="none" stroke="black" points="0,-314.5 0,-404.5 125,-404.5 125,-314.5 0,-314.5"/>
<text text-anchor="start" x="8" y="-392.5" font-family="Helvetica,sans-Serif" font-size="10.00">com.fs.starfarer.api.Every</text>
<text text-anchor="middle" x="62.5" y="-381.5" font-family="Helvetica,sans-Serif" font-size="10.00">FrameScript</text>
<polyline fill="none" stroke="black" points="0,-374.5 125,-374.5 "/>
<text text-anchor="middle" x="62.5" y="-362.5" font-family="Helvetica,sans-Serif" font-size="10.00"> </text>
<polyline fill="none" stroke="black" points="0,-355.5 125,-355.5 "/>
<text text-anchor="start" x="8" y="-343.5" font-family="Helvetica,sans-Serif" font-size="10.00">+ isDone()</text>
<text text-anchor="start" x="8" y="-332.5" font-family="Helvetica,sans-Serif" font-size="10.00">+ runWhilePaused()</text>
<text text-anchor="start" x="8" y="-321.5" font-family="Helvetica,sans-Serif" font-size="10.00">+ advance()</text>
</a>
</g>
</g>
<!-- Node2&#45;&gt;Node1 -->
<g id="edge1" class="edge">
<title>Node2&#45;&gt;Node1</title>
<path fill="none" stroke="midnightblue" d="M86.03,-305.48C97.96,-282.59 114.07,-256.62 133.5,-237 173.63,-196.48 227.72,-163.06 273.99,-138.95"/>
<polygon fill="none" stroke="midnightblue" points="82.9,-303.91 81.5,-314.41 89.14,-307.08 82.9,-303.91"/>
</g>
<!-- Node3 -->
<g id="node3" class="node">
<title>Node3</title>
<g id="a_node3"><a xlink:href="../../d5/d7b/interfacecom_1_1fs_1_1starfarer_1_1api_1_1campaign_1_1listeners_1_1FleetEventListener.html" target="_top" xlink:title=" ">
<polygon fill="none" stroke="black" points="143,-320 143,-399 328,-399 328,-320 143,-320"/>
<text text-anchor="start" x="151" y="-387" font-family="Helvetica,sans-Serif" font-size="10.00">com.fs.starfarer.api.campaign.listeners.</text>
<text text-anchor="middle" x="235.5" y="-376" font-family="Helvetica,sans-Serif" font-size="10.00">FleetEventListener</text>
<polyline fill="none" stroke="black" points="143,-369 328,-369 "/>
<text text-anchor="middle" x="235.5" y="-357" font-family="Helvetica,sans-Serif" font-size="10.00"> </text>
<polyline fill="none" stroke="black" points="143,-350 328,-350 "/>
<text text-anchor="start" x="151" y="-338" font-family="Helvetica,sans-Serif" font-size="10.00">+ reportFleetDespawnedToListener()</text>
<text text-anchor="start" x="151" y="-327" font-family="Helvetica,sans-Serif" font-size="10.00">+ reportBattleOccurred()</text>
</a>
</g>
</g>
<!-- Node3&#45;&gt;Node1 -->
<g id="edge2" class="edge">
<title>Node3&#45;&gt;Node1</title>
<path fill="none" stroke="midnightblue" d="M259.95,-310.6C277.17,-276.86 300.79,-230.6 321.69,-189.66"/>
<polygon fill="none" stroke="midnightblue" points="256.7,-309.27 255.27,-319.77 262.94,-312.45 256.7,-309.27"/>
</g>
<!-- Node4 -->
<g id="node4" class="node">
<title>Node4</title>
<g id="a_node4"><a xlink:title=" ">
<polygon fill="none" stroke="#bfbfbf" points="346,-331 346,-388 393,-388 393,-331 346,-331"/>
<text text-anchor="middle" x="369.5" y="-376" font-family="Helvetica,sans-Serif" font-size="10.00">Logger</text>
<polyline fill="none" stroke="#bfbfbf" points="346,-369 393,-369 "/>
<text text-anchor="middle" x="369.5" y="-357" font-family="Helvetica,sans-Serif" font-size="10.00"> </text>
<polyline fill="none" stroke="#bfbfbf" points="346,-350 393,-350 "/>
<text text-anchor="middle" x="369.5" y="-338" font-family="Helvetica,sans-Serif" font-size="10.00"> </text>
</a>
</g>
</g>
<!-- Node4&#45;&gt;Node1 -->
<g id="edge3" class="edge">
<title>Node4&#45;&gt;Node1</title>
<path fill="none" stroke="#404040" d="M369.5,-330.9C369.5,-300.21 369.5,-248.74 369.5,-201.8"/>
<polygon fill="none" stroke="#404040" points="369.5,-201.65 365.5,-195.65 369.5,-189.65 373.5,-195.65 369.5,-201.65"/>
<text text-anchor="middle" x="380.5" y="-211" font-family="Helvetica,sans-Serif" font-size="10.00"> +log</text>
</g>
<!-- Node5 -->
<g id="node5" class="node">
<title>Node5</title>
<g id="a_node5"><a xlink:href="../../da/db8/classcom_1_1fs_1_1starfarer_1_1api_1_1util_1_1IntervalUtil.html" target="_top" xlink:title=" ">
<polygon fill="none" stroke="black" points="411,-237.5 411,-481.5 530,-481.5 530,-237.5 411,-237.5"/>
<text text-anchor="start" x="419" y="-469.5" font-family="Helvetica,sans-Serif" font-size="10.00">com.fs.starfarer.api.util.</text>
<text text-anchor="middle" x="470.5" y="-458.5" font-family="Helvetica,sans-Serif" font-size="10.00">IntervalUtil</text>
<polyline fill="none" stroke="black" points="411,-451.5 530,-451.5 "/>
<text text-anchor="start" x="419" y="-439.5" font-family="Helvetica,sans-Serif" font-size="10.00">&#45; minInterval</text>
<text text-anchor="start" x="419" y="-428.5" font-family="Helvetica,sans-Serif" font-size="10.00">&#45; maxInterval</text>
<text text-anchor="start" x="419" y="-417.5" font-family="Helvetica,sans-Serif" font-size="10.00">&#45; currInterval</text>
<text text-anchor="start" x="419" y="-406.5" font-family="Helvetica,sans-Serif" font-size="10.00">&#45; elapsed</text>
<text text-anchor="start" x="419" y="-395.5" font-family="Helvetica,sans-Serif" font-size="10.00">&#45; intervalElapsed</text>
<polyline fill="none" stroke="black" points="411,-388.5 530,-388.5 "/>
<text text-anchor="start" x="419" y="-376.5" font-family="Helvetica,sans-Serif" font-size="10.00">+ IntervalUtil()</text>
<text text-anchor="start" x="419" y="-365.5" font-family="Helvetica,sans-Serif" font-size="10.00">+ forceCurrInterval()</text>
<text text-anchor="start" x="419" y="-354.5" font-family="Helvetica,sans-Serif" font-size="10.00">+ randomize()</text>
<text text-anchor="start" x="419" y="-343.5" font-family="Helvetica,sans-Serif" font-size="10.00">+ forceIntervalElapsed()</text>
<text text-anchor="start" x="419" y="-332.5" font-family="Helvetica,sans-Serif" font-size="10.00">+ getElapsed()</text>
<text text-anchor="start" x="419" y="-321.5" font-family="Helvetica,sans-Serif" font-size="10.00">+ advance()</text>
<text text-anchor="start" x="419" y="-310.5" font-family="Helvetica,sans-Serif" font-size="10.00">+ intervalElapsed()</text>
<text text-anchor="start" x="419" y="-299.5" font-family="Helvetica,sans-Serif" font-size="10.00">+ getIntervalDuration()</text>
<text text-anchor="start" x="419" y="-288.5" font-family="Helvetica,sans-Serif" font-size="10.00">+ setInterval()</text>
<text text-anchor="start" x="419" y="-277.5" font-family="Helvetica,sans-Serif" font-size="10.00">+ setElapsed()</text>
<text text-anchor="start" x="419" y="-266.5" font-family="Helvetica,sans-Serif" font-size="10.00">+ getMinInterval()</text>
<text text-anchor="start" x="419" y="-255.5" font-family="Helvetica,sans-Serif" font-size="10.00">+ getMaxInterval()</text>
<text text-anchor="start" x="419" y="-244.5" font-family="Helvetica,sans-Serif" font-size="10.00">&#45; nextInterval()</text>
</a>
</g>
</g>
<!-- Node5&#45;&gt;Node1 -->
<g id="edge4" class="edge">
<title>Node5&#45;&gt;Node1</title>
<path fill="none" stroke="#404040" d="M423.84,-237.24C419.18,-225.12 414.48,-212.9 409.89,-200.97"/>
<polygon fill="none" stroke="#404040" points="409.84,-200.84 403.95,-196.68 405.53,-189.64 411.42,-193.8 409.84,-200.84"/>
<text text-anchor="middle" x="433.5" y="-211" font-family="Helvetica,sans-Serif" font-size="10.00"> #tracker</text>
</g>
<!-- Node6 -->
<g id="node6" class="node">
<title>Node6</title>
<g id="a_node6"><a xlink:title=" ">
<polygon fill="none" stroke="#bfbfbf" points="548,-325.5 548,-393.5 771,-393.5 771,-325.5 548,-325.5"/>
<text text-anchor="start" x="556" y="-381.5" font-family="Helvetica,sans-Serif" font-size="10.00">List&lt; com.fs.starfarer.api.impl.campaign.fleets.</text>
<text text-anchor="middle" x="659.5" y="-370.5" font-family="Helvetica,sans-Serif" font-size="10.00">BaseLimitedFleetManager.ManagedFleetData &gt;</text>
<polyline fill="none" stroke="#bfbfbf" points="548,-363.5 771,-363.5 "/>
<text text-anchor="middle" x="659.5" y="-351.5" font-family="Helvetica,sans-Serif" font-size="10.00"> </text>
<polyline fill="none" stroke="#bfbfbf" points="548,-344.5 771,-344.5 "/>
<text text-anchor="middle" x="659.5" y="-332.5" font-family="Helvetica,sans-Serif" font-size="10.00"> </text>
</a>
</g>
</g>
<!-- Node6&#45;&gt;Node1 -->
<g id="edge5" class="edge">
<title>Node6&#45;&gt;Node1</title>
<path fill="none" stroke="#404040" d="M628.51,-325.39C604.77,-300.45 570.86,-265.75 539.5,-237 518.97,-218.18 496.41,-198.69 474.62,-180.43"/>
<polygon fill="none" stroke="#404040" points="474.55,-180.37 467.38,-179.6 465.34,-172.68 472.51,-173.45 474.55,-180.37"/>
<text text-anchor="middle" x="533.5" y="-211" font-family="Helvetica,sans-Serif" font-size="10.00"> #active</text>
</g>
</g>
</svg>
