<?xml version="1.0" encoding="UTF-8" standalone="no"?>
<!DOCTYPE svg PUBLIC "-//W3C//DTD SVG 1.1//EN"
 "http://www.w3.org/Graphics/SVG/1.1/DTD/svg11.dtd">
<!-- Generated by graphviz version 2.44.0 ()
 -->
<!-- Title: com.fs.starfarer.api.impl.campaign.plog.PLStatFleet Pages: 1 -->
<svg width="284pt" height="563pt"
 viewBox="0.00 0.00 283.50 563.00" xmlns="http://www.w3.org/2000/svg" xmlns:xlink="http://www.w3.org/1999/xlink">
<g id="graph0" class="graph" transform="scale(1 1) rotate(0) translate(4 559)">
<title>com.fs.starfarer.api.impl.campaign.plog.PLStatFleet</title>
<!-- Node1 -->
<g id="node1" class="node">
<title>Node1</title>
<g id="a_node1"><a xlink:title=" ">
<polygon fill="#bfbfbf" stroke="black" points="73,-0.5 73,-123.5 259,-123.5 259,-0.5 73,-0.5"/>
<text text-anchor="start" x="81" y="-111.5" font-family="Helvetica,sans-Serif" font-size="10.00">com.fs.starfarer.api.impl.campaign.plog.</text>
<text text-anchor="middle" x="166" y="-100.5" font-family="Helvetica,sans-Serif" font-size="10.00">PLStatFleet</text>
<polyline fill="none" stroke="black" points="73,-93.5 259,-93.5 "/>
<text text-anchor="middle" x="166" y="-81.5" font-family="Helvetica,sans-Serif" font-size="10.00"> </text>
<polyline fill="none" stroke="black" points="73,-74.5 259,-74.5 "/>
<text text-anchor="start" x="81" y="-62.5" font-family="Helvetica,sans-Serif" font-size="10.00">+ getCurrentValue()</text>
<text text-anchor="start" x="81" y="-51.5" font-family="Helvetica,sans-Serif" font-size="10.00">+ getGraphColor()</text>
<text text-anchor="start" x="81" y="-40.5" font-family="Helvetica,sans-Serif" font-size="10.00">+ getGraphLabel()</text>
<text text-anchor="start" x="81" y="-29.5" font-family="Helvetica,sans-Serif" font-size="10.00">+ getId()</text>
<text text-anchor="start" x="81" y="-18.5" font-family="Helvetica,sans-Serif" font-size="10.00">+ getGraphMax()</text>
<text text-anchor="start" x="81" y="-7.5" font-family="Helvetica,sans-Serif" font-size="10.00">+ getHoverText()</text>
</a>
</g>
</g>
<!-- Node2 -->
<g id="node2" class="node">
<title>Node2</title>
<g id="a_node2"><a xlink:href="../../de/d8f/classcom_1_1fs_1_1starfarer_1_1api_1_1impl_1_1campaign_1_1plog_1_1BasePLStat.html" target="_top" xlink:title=" ">
<polygon fill="none" stroke="black" points="73,-161.5 73,-328.5 259,-328.5 259,-161.5 73,-161.5"/>
<text text-anchor="start" x="81" y="-316.5" font-family="Helvetica,sans-Serif" font-size="10.00">com.fs.starfarer.api.impl.campaign.plog.</text>
<text text-anchor="middle" x="166" y="-305.5" font-family="Helvetica,sans-Serif" font-size="10.00">BasePLStat</text>
<polyline fill="none" stroke="black" points="73,-298.5 259,-298.5 "/>
<text text-anchor="middle" x="166" y="-286.5" font-family="Helvetica,sans-Serif" font-size="10.00"> </text>
<polyline fill="none" stroke="black" points="73,-279.5 259,-279.5 "/>
<text text-anchor="start" x="81" y="-267.5" font-family="Helvetica,sans-Serif" font-size="10.00">+ getGraphColor()</text>
<text text-anchor="start" x="81" y="-256.5" font-family="Helvetica,sans-Serif" font-size="10.00">+ getGraphLabel()</text>
<text text-anchor="start" x="81" y="-245.5" font-family="Helvetica,sans-Serif" font-size="10.00">+ getId()</text>
<text text-anchor="start" x="81" y="-234.5" font-family="Helvetica,sans-Serif" font-size="10.00">+ accrueValue()</text>
<text text-anchor="start" x="81" y="-223.5" font-family="Helvetica,sans-Serif" font-size="10.00">+ getValueForAllAccrued()</text>
<text text-anchor="start" x="81" y="-212.5" font-family="Helvetica,sans-Serif" font-size="10.00">+ getCurrentValue()</text>
<text text-anchor="start" x="81" y="-201.5" font-family="Helvetica,sans-Serif" font-size="10.00">+ getGraphMax()</text>
<text text-anchor="start" x="81" y="-190.5" font-family="Helvetica,sans-Serif" font-size="10.00">+ getHoverText()</text>
<text text-anchor="start" x="81" y="-179.5" font-family="Helvetica,sans-Serif" font-size="10.00">+ getSharedCategory()</text>
<text text-anchor="start" x="81" y="-168.5" font-family="Helvetica,sans-Serif" font-size="10.00"># readResolve()</text>
</a>
</g>
</g>
<!-- Node2&#45;&gt;Node1 -->
<g id="edge1" class="edge">
<title>Node2&#45;&gt;Node1</title>
<path fill="none" stroke="midnightblue" d="M166,-151.24C166,-141.83 166,-132.45 166,-123.52"/>
<polygon fill="none" stroke="midnightblue" points="162.5,-151.44 166,-161.44 169.5,-151.45 162.5,-151.44"/>
</g>
<!-- Node3 -->
<g id="node3" class="node">
<title>Node3</title>
<g id="a_node3"><a xlink:href="../../dc/d0f/interfacecom_1_1fs_1_1starfarer_1_1api_1_1impl_1_1campaign_1_1plog_1_1PLStat.html" target="_top" xlink:title=" ">
<polygon fill="none" stroke="black" points="0,-376.5 0,-554.5 186,-554.5 186,-376.5 0,-376.5"/>
<text text-anchor="start" x="8" y="-542.5" font-family="Helvetica,sans-Serif" font-size="10.00">com.fs.starfarer.api.impl.campaign.plog.</text>
<text text-anchor="middle" x="93" y="-531.5" font-family="Helvetica,sans-Serif" font-size="10.00">PLStat</text>
<polyline fill="none" stroke="black" points="0,-524.5 186,-524.5 "/>
<text text-anchor="start" x="8" y="-512.5" font-family="Helvetica,sans-Serif" font-size="10.00">+ CREDITS_MAX</text>
<text text-anchor="start" x="8" y="-501.5" font-family="Helvetica,sans-Serif" font-size="10.00">+ CARGO_MAX</text>
<text text-anchor="start" x="8" y="-490.5" font-family="Helvetica,sans-Serif" font-size="10.00">+ FLEET_MAX</text>
<text text-anchor="start" x="8" y="-479.5" font-family="Helvetica,sans-Serif" font-size="10.00">+ COLONY_MAX</text>
<polyline fill="none" stroke="black" points="0,-472.5 186,-472.5 "/>
<text text-anchor="start" x="8" y="-460.5" font-family="Helvetica,sans-Serif" font-size="10.00">+ getId()</text>
<text text-anchor="start" x="8" y="-449.5" font-family="Helvetica,sans-Serif" font-size="10.00">+ getGraphColor()</text>
<text text-anchor="start" x="8" y="-438.5" font-family="Helvetica,sans-Serif" font-size="10.00">+ getGraphLabel()</text>
<text text-anchor="start" x="8" y="-427.5" font-family="Helvetica,sans-Serif" font-size="10.00">+ getValueForAllAccrued()</text>
<text text-anchor="start" x="8" y="-416.5" font-family="Helvetica,sans-Serif" font-size="10.00">+ accrueValue()</text>
<text text-anchor="start" x="8" y="-405.5" font-family="Helvetica,sans-Serif" font-size="10.00">+ getGraphMax()</text>
<text text-anchor="start" x="8" y="-394.5" font-family="Helvetica,sans-Serif" font-size="10.00">+ getHoverText()</text>
<text text-anchor="start" x="8" y="-383.5" font-family="Helvetica,sans-Serif" font-size="10.00">+ getSharedCategory()</text>
</a>
</g>
</g>
<!-- Node3&#45;&gt;Node2 -->
<g id="edge2" class="edge">
<title>Node3&#45;&gt;Node2</title>
<path fill="none" stroke="midnightblue" d="M125.71,-366.59C129.95,-353.89 134.27,-340.98 138.42,-328.56"/>
<polygon fill="none" stroke="midnightblue" points="122.33,-365.66 122.48,-376.26 128.97,-367.88 122.33,-365.66"/>
</g>
<!-- Node4 -->
<g id="node4" class="node">
<title>Node4</title>
<g id="a_node4"><a xlink:title=" ">
<polygon fill="none" stroke="#bfbfbf" points="204.5,-437 204.5,-494 275.5,-494 275.5,-437 204.5,-437"/>
<text text-anchor="middle" x="240" y="-482" font-family="Helvetica,sans-Serif" font-size="10.00">List&lt; Long &gt;</text>
<polyline fill="none" stroke="#bfbfbf" points="204.5,-475 275.5,-475 "/>
<text text-anchor="middle" x="240" y="-463" font-family="Helvetica,sans-Serif" font-size="10.00"> </text>
<polyline fill="none" stroke="#bfbfbf" points="204.5,-456 275.5,-456 "/>
<text text-anchor="middle" x="240" y="-444" font-family="Helvetica,sans-Serif" font-size="10.00"> </text>
</a>
</g>
</g>
<!-- Node4&#45;&gt;Node2 -->
<g id="edge3" class="edge">
<title>Node4&#45;&gt;Node2</title>
<path fill="none" stroke="#404040" d="M230.63,-436.83C222.38,-412.48 209.88,-375.57 198.07,-340.68"/>
<polygon fill="none" stroke="#404040" points="197.94,-340.31 192.23,-335.91 194.09,-328.95 199.8,-333.35 197.94,-340.31"/>
<text text-anchor="middle" x="224.5" y="-350" font-family="Helvetica,sans-Serif" font-size="10.00"> ~accrued</text>
</g>
</g>
</svg>
