<?xml version="1.0" encoding="UTF-8" standalone="no"?>
<!DOCTYPE svg PUBLIC "-//W3C//DTD SVG 1.1//EN"
 "http://www.w3.org/Graphics/SVG/1.1/DTD/svg11.dtd">
<!-- Generated by graphviz version 2.44.0 ()
 -->
<!-- Title: com.fs.starfarer.api.campaign.SectorAPI.addPing Pages: 1 -->
<svg width="391pt" height="88pt"
 viewBox="0.00 0.00 391.00 88.00" xmlns="http://www.w3.org/2000/svg" xmlns:xlink="http://www.w3.org/1999/xlink">
<g id="graph0" class="graph" transform="scale(1 1) rotate(0) translate(4 84)">
<title>com.fs.starfarer.api.campaign.SectorAPI.addPing</title>
<!-- Node1 -->
<g id="node1" class="node">
<title>Node1</title>
<g id="a_node1"><a xlink:title=" ">
<polygon fill="#bfbfbf" stroke="black" points="237,-24.5 237,-54.5 383,-54.5 383,-24.5 237,-24.5"/>
<text text-anchor="start" x="245" y="-42.5" font-family="Helvetica,sans-Serif" font-size="10.00">com.fs.starfarer.api.campaign.</text>
<text text-anchor="middle" x="310" y="-31.5" font-family="Helvetica,sans-Serif" font-size="10.00">SectorAPI.addPing</text>
</a>
</g>
</g>
<!-- Node2 -->
<g id="node2" class="node">
<title>Node2</title>
<g id="a_node2"><a xlink:href="../../d5/d94/classcom_1_1fs_1_1starfarer_1_1api_1_1impl_1_1campaign_1_1WarningBeaconEntityPlugin.html#a22f7ef9fd68d2b1fb5a595853bcce1cd" target="_top" xlink:title=" ">
<polygon fill="none" stroke="black" points="13,-49.5 13,-79.5 188,-79.5 188,-49.5 13,-49.5"/>
<text text-anchor="start" x="21" y="-67.5" font-family="Helvetica,sans-Serif" font-size="10.00">com.fs.starfarer.api.impl.campaign.</text>
<text text-anchor="middle" x="100.5" y="-56.5" font-family="Helvetica,sans-Serif" font-size="10.00">WarningBeaconEntityPlugin.advance</text>
</a>
</g>
</g>
<!-- Node1&#45;&gt;Node2 -->
<g id="edge1" class="edge">
<title>Node1&#45;&gt;Node2</title>
<path fill="none" stroke="midnightblue" d="M226.67,-49.42C214.01,-50.94 200.9,-52.52 188.15,-54.06"/>
<polygon fill="midnightblue" stroke="midnightblue" points="227.21,-52.88 236.72,-48.21 226.37,-45.93 227.21,-52.88"/>
</g>
<!-- Node3 -->
<g id="node3" class="node">
<title>Node3</title>
<g id="a_node3"><a xlink:href="../../d8/d99/classcom_1_1fs_1_1starfarer_1_1api_1_1impl_1_1campaign_1_1abilities_1_1InterdictionPulseAbility.html#af226ed1a758cf823ca7b2c1e9959e248" target="_top" xlink:title=" ">
<polygon fill="none" stroke="black" points="0,-0.5 0,-30.5 201,-30.5 201,-0.5 0,-0.5"/>
<text text-anchor="start" x="8" y="-18.5" font-family="Helvetica,sans-Serif" font-size="10.00">com.fs.starfarer.api.impl.campaign.abilities.</text>
<text text-anchor="middle" x="100.5" y="-7.5" font-family="Helvetica,sans-Serif" font-size="10.00">InterdictionPulseAbility.applyEffect</text>
</a>
</g>
</g>
<!-- Node1&#45;&gt;Node3 -->
<g id="edge2" class="edge">
<title>Node1&#45;&gt;Node3</title>
<path fill="none" stroke="midnightblue" d="M226.65,-29.98C218.31,-29.01 209.77,-28.02 201.27,-27.04"/>
<polygon fill="midnightblue" stroke="midnightblue" points="226.38,-33.47 236.72,-31.14 227.19,-26.51 226.38,-33.47"/>
</g>
</g>
</svg>
