<?xml version="1.0" encoding="UTF-8" standalone="no"?>
<!DOCTYPE svg PUBLIC "-//W3C//DTD SVG 1.1//EN"
 "http://www.w3.org/Graphics/SVG/1.1/DTD/svg11.dtd">
<!-- Generated by graphviz version 7.0.5 (20221223.1930)
 -->
<!-- Title: com.fs.starfarer.api.impl.campaign.submarkets.LocalResourcesSubmarketPlugin Pages: 1 -->
<svg width="1046pt" height="372pt"
 viewBox="0.00 0.00 1046.00 371.50" xmlns="http://www.w3.org/2000/svg" xmlns:xlink="http://www.w3.org/1999/xlink">
<g id="graph0" class="graph" transform="scale(1 1) rotate(0) translate(4 367.5)">
<title>com.fs.starfarer.api.impl.campaign.submarkets.LocalResourcesSubmarketPlugin</title>
<!-- Node1 -->
<g id="node1" class="node">
<title>Node1</title>
<g id="a_node1"><a xlink:title=" ">
<polygon fill="#999999" stroke="#666666" points="1038,-126 819,-126 819,-96 1038,-96 1038,-126"/>
<text text-anchor="start" x="827" y="-114" font-family="Helvetica,sans-Serif" font-size="10.00">com.fs.starfarer.api.impl.campaign.submarkets.</text>
<text text-anchor="middle" x="928.5" y="-103" font-family="Helvetica,sans-Serif" font-size="10.00">LocalResourcesSubmarketPlugin</text>
</a>
</g>
</g>
<!-- Node2 -->
<g id="node2" class="node">
<title>Node2</title>
<g id="a_node2"><a xlink:href="../../d3/da9/classcom_1_1fs_1_1starfarer_1_1api_1_1impl_1_1campaign_1_1submarkets_1_1BaseSubmarketPlugin.html" target="_top" xlink:title=" ">
<polygon fill="white" stroke="#666666" points="706,-266 487,-266 487,-236 706,-236 706,-266"/>
<text text-anchor="start" x="495" y="-254" font-family="Helvetica,sans-Serif" font-size="10.00">com.fs.starfarer.api.impl.campaign.submarkets.</text>
<text text-anchor="middle" x="596.5" y="-243" font-family="Helvetica,sans-Serif" font-size="10.00">BaseSubmarketPlugin</text>
</a>
</g>
</g>
<!-- Node2&#45;&gt;Node1 -->
<g id="edge1" class="edge">
<title>Node2&#45;&gt;Node1</title>
<path fill="none" stroke="#63b8ff" d="M654.86,-231.95C696.04,-217.77 752.58,-197.27 801,-176 835.81,-160.71 874.52,-140.29 899.84,-126.45"/>
<polygon fill="#63b8ff" stroke="#63b8ff" points="653.96,-228.56 645.64,-235.11 656.23,-235.18 653.96,-228.56"/>
</g>
<!-- Node3 -->
<g id="node3" class="node">
<title>Node3</title>
<g id="a_node3"><a xlink:href="../../d7/d80/interfacecom_1_1fs_1_1starfarer_1_1api_1_1campaign_1_1SubmarketPlugin.html" target="_top" xlink:title=" ">
<polygon fill="white" stroke="#666666" points="363.5,-326 217.5,-326 217.5,-296 363.5,-296 363.5,-326"/>
<text text-anchor="start" x="225.5" y="-314" font-family="Helvetica,sans-Serif" font-size="10.00">com.fs.starfarer.api.campaign.</text>
<text text-anchor="middle" x="290.5" y="-303" font-family="Helvetica,sans-Serif" font-size="10.00">SubmarketPlugin</text>
</a>
</g>
</g>
<!-- Node3&#45;&gt;Node2 -->
<g id="edge2" class="edge">
<title>Node3&#45;&gt;Node2</title>
<path fill="none" stroke="#63b8ff" d="M374.99,-294.52C419.39,-285.76 473.65,-275.05 517.23,-266.45"/>
<polygon fill="#63b8ff" stroke="#63b8ff" points="374.55,-291.04 365.41,-296.41 375.9,-297.91 374.55,-291.04"/>
</g>
<!-- Node4 -->
<g id="node4" class="node">
<title>Node4</title>
<g id="a_node4"><a xlink:href="../../de/d91/interfacecom_1_1fs_1_1starfarer_1_1api_1_1campaign_1_1econ_1_1MarketAPI.html" target="_top" xlink:title=" ">
<polygon fill="white" stroke="#666666" points="375,-278 206,-278 206,-248 375,-248 375,-278"/>
<text text-anchor="start" x="214" y="-266" font-family="Helvetica,sans-Serif" font-size="10.00">com.fs.starfarer.api.campaign.econ.</text>
<text text-anchor="middle" x="290.5" y="-255" font-family="Helvetica,sans-Serif" font-size="10.00">MarketAPI</text>
</a>
</g>
</g>
<!-- Node4&#45;&gt;Node2 -->
<g id="edge3" class="edge">
<title>Node4&#45;&gt;Node2</title>
<path fill="none" stroke="#9a32cd" stroke-dasharray="5,2" d="M386.85,-259.24C418.49,-257.99 453.95,-256.59 486.53,-255.3"/>
<polygon fill="#9a32cd" stroke="#9a32cd" points="386.74,-255.74 376.89,-259.63 387.02,-262.73 386.74,-255.74"/>
<text text-anchor="middle" x="431" y="-261" font-family="Helvetica,sans-Serif" font-size="10.00"> market</text>
</g>
<!-- Node5 -->
<g id="node5" class="node">
<title>Node5</title>
<g id="a_node5"><a xlink:href="../../de/da5/interfacecom_1_1fs_1_1starfarer_1_1api_1_1campaign_1_1rules_1_1HasMemory.html" target="_top" xlink:title=" ">
<polygon fill="white" stroke="#666666" points="169,-278 0,-278 0,-248 169,-248 169,-278"/>
<text text-anchor="start" x="8" y="-266" font-family="Helvetica,sans-Serif" font-size="10.00">com.fs.starfarer.api.campaign.rules.</text>
<text text-anchor="middle" x="84.5" y="-255" font-family="Helvetica,sans-Serif" font-size="10.00">HasMemory</text>
</a>
</g>
</g>
<!-- Node5&#45;&gt;Node4 -->
<g id="edge4" class="edge">
<title>Node5&#45;&gt;Node4</title>
<path fill="none" stroke="#63b8ff" d="M180.67,-263C189,-263 197.4,-263 205.64,-263"/>
<polygon fill="#63b8ff" stroke="#63b8ff" points="180.87,-259.5 170.87,-263 180.87,-266.5 180.87,-259.5"/>
</g>
<!-- Node6 -->
<g id="node6" class="node">
<title>Node6</title>
<g id="a_node6"><a xlink:href="../../d4/d17/interfacecom_1_1fs_1_1starfarer_1_1api_1_1campaign_1_1econ_1_1SubmarketAPI.html" target="_top" xlink:title=" ">
<polygon fill="white" stroke="#666666" points="375,-230 206,-230 206,-200 375,-200 375,-230"/>
<text text-anchor="start" x="214" y="-218" font-family="Helvetica,sans-Serif" font-size="10.00">com.fs.starfarer.api.campaign.econ.</text>
<text text-anchor="middle" x="290.5" y="-207" font-family="Helvetica,sans-Serif" font-size="10.00">SubmarketAPI</text>
</a>
</g>
</g>
<!-- Node6&#45;&gt;Node2 -->
<g id="edge5" class="edge">
<title>Node6&#45;&gt;Node2</title>
<path fill="none" stroke="#9a32cd" stroke-dasharray="5,2" d="M386.43,-226.24C418.17,-230 453.81,-234.22 486.53,-238.1"/>
<polygon fill="#9a32cd" stroke="#9a32cd" points="387.22,-222.81 376.88,-225.11 386.4,-229.76 387.22,-222.81"/>
<text text-anchor="middle" x="431" y="-238" font-family="Helvetica,sans-Serif" font-size="10.00"> submarket</text>
</g>
<!-- Node7 -->
<g id="node7" class="node">
<title>Node7</title>
<g id="a_node7"><a xlink:href="../../dc/d7b/interfacecom_1_1fs_1_1starfarer_1_1api_1_1campaign_1_1CargoAPI.html" target="_top" xlink:title=" ">
<polygon fill="white" stroke="#666666" points="363.5,-180 217.5,-180 217.5,-150 363.5,-150 363.5,-180"/>
<text text-anchor="start" x="225.5" y="-168" font-family="Helvetica,sans-Serif" font-size="10.00">com.fs.starfarer.api.campaign.</text>
<text text-anchor="middle" x="290.5" y="-157" font-family="Helvetica,sans-Serif" font-size="10.00">CargoAPI</text>
</a>
</g>
</g>
<!-- Node7&#45;&gt;Node1 -->
<g id="edge10" class="edge">
<title>Node7&#45;&gt;Node1</title>
<path fill="none" stroke="#9a32cd" stroke-dasharray="5,2" d="M375.05,-159.76C458.81,-154.31 591.43,-145.17 706,-135 748.29,-131.24 758.79,-129.56 801,-125 806.82,-124.37 812.79,-123.72 818.82,-123.07"/>
<polygon fill="#9a32cd" stroke="#9a32cd" points="375.08,-156.25 365.33,-160.39 375.53,-163.23 375.08,-156.25"/>
<text text-anchor="middle" x="596.5" y="-187" font-family="Helvetica,sans-Serif" font-size="10.00"> left</text>
<text text-anchor="start" x="551" y="-176" font-family="Helvetica,sans-Serif" font-size="10.00">preTransactionCargo</text>
<text text-anchor="middle" x="596.5" y="-165" font-family="Helvetica,sans-Serif" font-size="10.00">Copy</text>
<text text-anchor="middle" x="596.5" y="-154" font-family="Helvetica,sans-Serif" font-size="10.00">taken</text>
</g>
<!-- Node7&#45;&gt;Node2 -->
<g id="edge6" class="edge">
<title>Node7&#45;&gt;Node2</title>
<path fill="none" stroke="#9a32cd" stroke-dasharray="5,2" d="M363.19,-183.28C395.59,-191.72 434.31,-202.06 469,-212 494.85,-219.4 523.49,-228.19 546.98,-235.54"/>
<polygon fill="#9a32cd" stroke="#9a32cd" points="364.48,-180 353.92,-180.88 362.72,-186.78 364.48,-180"/>
<text text-anchor="middle" x="431" y="-215" font-family="Helvetica,sans-Serif" font-size="10.00"> cargo</text>
</g>
<!-- Node8 -->
<g id="node8" class="node">
<title>Node8</title>
<g id="a_node8"><a xlink:title=" ">
<polygon fill="white" stroke="#666666" points="317,-363.5 264,-363.5 264,-344.5 317,-344.5 317,-363.5"/>
<text text-anchor="middle" x="290.5" y="-351.5" font-family="Helvetica,sans-Serif" font-size="10.00">Random</text>
</a>
</g>
</g>
<!-- Node8&#45;&gt;Node2 -->
<g id="edge7" class="edge">
<title>Node8&#45;&gt;Node2</title>
<path fill="none" stroke="#9a32cd" stroke-dasharray="5,2" d="M328.48,-346.75C343.09,-343.59 359.95,-339.55 375,-335 441.46,-314.89 516.58,-284.58 559.75,-266.4"/>
<polygon fill="#9a32cd" stroke="#9a32cd" points="327.87,-343.3 318.81,-348.79 329.31,-350.15 327.87,-343.3"/>
<text text-anchor="middle" x="431" y="-332" font-family="Helvetica,sans-Serif" font-size="10.00"> itemGenRandom</text>
</g>
<!-- Node9 -->
<g id="node9" class="node">
<title>Node9</title>
<g id="a_node9"><a xlink:title=" ">
<polygon fill="white" stroke="#666666" points="687.5,-126 505.5,-126 505.5,-96 687.5,-96 687.5,-126"/>
<text text-anchor="start" x="513.5" y="-114" font-family="Helvetica,sans-Serif" font-size="10.00">com.fs.starfarer.api.campaign.econ.</text>
<text text-anchor="middle" x="596.5" y="-103" font-family="Helvetica,sans-Serif" font-size="10.00">EconomyAPI.EconomyUpdateListener</text>
</a>
</g>
</g>
<!-- Node9&#45;&gt;Node1 -->
<g id="edge8" class="edge">
<title>Node9&#45;&gt;Node1</title>
<path fill="none" stroke="#63b8ff" d="M698.75,-111C736.72,-111 780.02,-111 818.65,-111"/>
<polygon fill="#63b8ff" stroke="#63b8ff" points="699.19,-107.5 689.19,-111 699.19,-114.5 699.19,-107.5"/>
</g>
<!-- Node10 -->
<g id="node10" class="node">
<title>Node10</title>
<g id="a_node10"><a xlink:href="../../d4/df0/interfacecom_1_1fs_1_1starfarer_1_1api_1_1campaign_1_1listeners_1_1EconomyTickListener.html" target="_top" xlink:title=" ">
<polygon fill="white" stroke="#666666" points="689,-78 504,-78 504,-48 689,-48 689,-78"/>
<text text-anchor="start" x="512" y="-66" font-family="Helvetica,sans-Serif" font-size="10.00">com.fs.starfarer.api.campaign.listeners.</text>
<text text-anchor="middle" x="596.5" y="-55" font-family="Helvetica,sans-Serif" font-size="10.00">EconomyTickListener</text>
</a>
</g>
</g>
<!-- Node10&#45;&gt;Node1 -->
<g id="edge9" class="edge">
<title>Node10&#45;&gt;Node1</title>
<path fill="none" stroke="#63b8ff" d="M700.62,-78C738.98,-83.58 782.56,-89.92 821.2,-95.54"/>
<polygon fill="#63b8ff" stroke="#63b8ff" points="701.32,-74.56 690.92,-76.59 700.31,-81.49 701.32,-74.56"/>
</g>
<!-- Node11 -->
<g id="node11" class="node">
<title>Node11</title>
<g id="a_node11"><a xlink:title=" ">
<polygon fill="white" stroke="#666666" points="693.5,-30 499.5,-30 499.5,0 693.5,0 693.5,-30"/>
<text text-anchor="start" x="507.5" y="-18" font-family="Helvetica,sans-Serif" font-size="10.00">Map&lt; String, com.fs.starfarer.api.combat.</text>
<text text-anchor="middle" x="596.5" y="-7" font-family="Helvetica,sans-Serif" font-size="10.00">MutableStat &gt;</text>
</a>
</g>
</g>
<!-- Node11&#45;&gt;Node1 -->
<g id="edge11" class="edge">
<title>Node11&#45;&gt;Node1</title>
<path fill="none" stroke="#9a32cd" stroke-dasharray="5,2" d="M681.78,-33.04C689.99,-34.98 698.17,-36.98 706,-39 769.43,-55.34 841.28,-79.83 885.5,-95.62"/>
<polygon fill="#9a32cd" stroke="#9a32cd" points="682.63,-29.65 672.09,-30.79 681.04,-36.47 682.63,-29.65"/>
<text text-anchor="middle" x="762.5" y="-68" font-family="Helvetica,sans-Serif" font-size="10.00"> stockpilingBonus</text>
</g>
</g>
</svg>
