<?xml version="1.0" encoding="UTF-8" standalone="no"?>
<!DOCTYPE svg PUBLIC "-//W3C//DTD SVG 1.1//EN"
 "http://www.w3.org/Graphics/SVG/1.1/DTD/svg11.dtd">
<!-- Generated by graphviz version 7.0.5 (20221223.1930)
 -->
<!-- Title: com.fs.starfarer.api.impl.campaign.fleets.PersonalFleetScript Pages: 1 -->
<svg width="647pt" height="86pt"
 viewBox="0.00 0.00 647.00 86.00" xmlns="http://www.w3.org/2000/svg" xmlns:xlink="http://www.w3.org/1999/xlink">
<g id="graph0" class="graph" transform="scale(1 1) rotate(0) translate(4 82)">
<title>com.fs.starfarer.api.impl.campaign.fleets.PersonalFleetScript</title>
<!-- Node1 -->
<g id="node1" class="node">
<title>Node1</title>
<g id="a_node1"><a xlink:title=" ">
<polygon fill="#999999" stroke="#666666" points="412,-54 221,-54 221,-24 412,-24 412,-54"/>
<text text-anchor="start" x="229" y="-42" font-family="Helvetica,sans-Serif" font-size="10.00">com.fs.starfarer.api.impl.campaign.fleets.</text>
<text text-anchor="middle" x="316.5" y="-31" font-family="Helvetica,sans-Serif" font-size="10.00">PersonalFleetScript</text>
</a>
</g>
</g>
<!-- Node4 -->
<g id="node4" class="node">
<title>Node4</title>
<g id="a_node4"><a xlink:href="../../dc/d7b/classcom_1_1fs_1_1starfarer_1_1api_1_1impl_1_1campaign_1_1fleets_1_1PersonalFleetHoracioCaden.html" target="_top" xlink:title=" ">
<polygon fill="white" stroke="#666666" points="639,-78 448,-78 448,-48 639,-48 639,-78"/>
<text text-anchor="start" x="456" y="-66" font-family="Helvetica,sans-Serif" font-size="10.00">com.fs.starfarer.api.impl.campaign.fleets.</text>
<text text-anchor="middle" x="543.5" y="-55" font-family="Helvetica,sans-Serif" font-size="10.00">PersonalFleetHoracioCaden</text>
</a>
</g>
</g>
<!-- Node1&#45;&gt;Node4 -->
<g id="edge3" class="edge">
<title>Node1&#45;&gt;Node4</title>
<path fill="none" stroke="#63b8ff" d="M423.64,-50.32C431.72,-51.18 439.84,-52.05 447.84,-52.9"/>
<polygon fill="#63b8ff" stroke="#63b8ff" points="424.09,-46.85 413.77,-49.27 423.35,-53.81 424.09,-46.85"/>
</g>
<!-- Node5 -->
<g id="node5" class="node">
<title>Node5</title>
<g id="a_node5"><a xlink:href="../../d9/de6/classcom_1_1fs_1_1starfarer_1_1api_1_1impl_1_1campaign_1_1fleets_1_1PersonalFleetOxanaHyder.html" target="_top" xlink:title=" ">
<polygon fill="white" stroke="#666666" points="639,-30 448,-30 448,0 639,0 639,-30"/>
<text text-anchor="start" x="456" y="-18" font-family="Helvetica,sans-Serif" font-size="10.00">com.fs.starfarer.api.impl.campaign.fleets.</text>
<text text-anchor="middle" x="543.5" y="-7" font-family="Helvetica,sans-Serif" font-size="10.00">PersonalFleetOxanaHyder</text>
</a>
</g>
</g>
<!-- Node1&#45;&gt;Node5 -->
<g id="edge4" class="edge">
<title>Node1&#45;&gt;Node5</title>
<path fill="none" stroke="#63b8ff" d="M423.64,-27.68C431.72,-26.82 439.84,-25.95 447.84,-25.1"/>
<polygon fill="#63b8ff" stroke="#63b8ff" points="423.35,-24.19 413.77,-28.73 424.09,-31.15 423.35,-24.19"/>
</g>
<!-- Node2 -->
<g id="node2" class="node">
<title>Node2</title>
<g id="a_node2"><a xlink:href="../../d7/d63/interfacecom_1_1fs_1_1starfarer_1_1api_1_1EveryFrameScript.html" target="_top" xlink:title=" ">
<polygon fill="white" stroke="#666666" points="155,-78 30,-78 30,-48 155,-48 155,-78"/>
<text text-anchor="start" x="38" y="-66" font-family="Helvetica,sans-Serif" font-size="10.00">com.fs.starfarer.api.Every</text>
<text text-anchor="middle" x="92.5" y="-55" font-family="Helvetica,sans-Serif" font-size="10.00">FrameScript</text>
</a>
</g>
</g>
<!-- Node2&#45;&gt;Node1 -->
<g id="edge1" class="edge">
<title>Node2&#45;&gt;Node1</title>
<path fill="none" stroke="#63b8ff" d="M166.51,-55.11C183.85,-53.23 202.6,-51.21 220.75,-49.24"/>
<polygon fill="#63b8ff" stroke="#63b8ff" points="166.41,-51.6 156.84,-56.15 167.16,-58.56 166.41,-51.6"/>
</g>
<!-- Node3 -->
<g id="node3" class="node">
<title>Node3</title>
<g id="a_node3"><a xlink:href="../../d5/d7b/interfacecom_1_1fs_1_1starfarer_1_1api_1_1campaign_1_1listeners_1_1FleetEventListener.html" target="_top" xlink:title=" ">
<polygon fill="white" stroke="#666666" points="185,-30 0,-30 0,0 185,0 185,-30"/>
<text text-anchor="start" x="8" y="-18" font-family="Helvetica,sans-Serif" font-size="10.00">com.fs.starfarer.api.campaign.listeners.</text>
<text text-anchor="middle" x="92.5" y="-7" font-family="Helvetica,sans-Serif" font-size="10.00">FleetEventListener</text>
</a>
</g>
</g>
<!-- Node3&#45;&gt;Node1 -->
<g id="edge2" class="edge">
<title>Node3&#45;&gt;Node1</title>
<path fill="none" stroke="#63b8ff" d="M196.7,-26.16C204.74,-27.03 212.83,-27.9 220.8,-28.76"/>
<polygon fill="#63b8ff" stroke="#63b8ff" points="197.22,-22.69 186.9,-25.1 196.47,-29.65 197.22,-22.69"/>
</g>
</g>
</svg>
