<?xml version="1.0" encoding="UTF-8" standalone="no"?>
<!DOCTYPE svg PUBLIC "-//W3C//DTD SVG 1.1//EN"
 "http://www.w3.org/Graphics/SVG/1.1/DTD/svg11.dtd">
<!-- Generated by graphviz version 2.44.0 ()
 -->
<!-- Title: com.fs.starfarer.api.impl.campaign.terrain.BaseRingTerrain.RingParams Pages: 1 -->
<!--zoomable 369 -->
<svg id="main" version="1.1" xmlns="http://www.w3.org/2000/svg" xmlns:xlink="http://www.w3.org/1999/xlink" xml:space="preserve" onload="init(evt)">
<style type="text/css"><![CDATA[
.edge:hover path { stroke: red; }
.edge:hover polygon { stroke: red; fill: red; }
]]></style>
<script type="text/javascript"><![CDATA[
var edges = document.getElementsByTagName('g');
if (edges && edges.length) {
  for (var i=0;i<edges.length;i++) {
    if (edges[i].id.substr(0,4)=='edge') {
      edges[i].setAttribute('class','edge');
    }
  }
}
]]></script>
        <defs>
                <circle id="rim" cx="0" cy="0" r="7"/>
                <circle id="rim2" cx="0" cy="0" r="3.5"/>
                <g id="zoomPlus">
                        <use xlink:href="#rim" fill="#404040">
                                <set attributeName="fill" to="#808080" begin="zoomplus.mouseover" end="zoomplus.mouseout"/>
                        </use>
                        <path d="M-4,0h8M0,-4v8" fill="none" stroke="white" stroke-width="1.5" pointer-events="none"/>
                </g>
                <g id="zoomMin">
                        <use xlink:href="#rim" fill="#404040">
                                <set attributeName="fill" to="#808080" begin="zoomminus.mouseover" end="zoomminus.mouseout"/>
                        </use>
                        <path d="M-4,0h8" fill="none" stroke="white" stroke-width="1.5" pointer-events="none"/>
                </g>
                <g id="dirArrow">
                        <path fill="none" stroke="white" stroke-width="1.5" d="M0,-3.0v7 M-2.5,-0.5L0,-3.0L2.5,-0.5"/>
                </g>
               <g id="resetDef">
                       <use xlink:href="#rim2" fill="#404040">
                               <set attributeName="fill" to="#808080" begin="reset.mouseover" end="reset.mouseout"/>
                       </use>
               </g>
        </defs>

<script type="text/javascript">
var viewWidth = 1657;
var viewHeight = 369;
var sectionId = 'dynsection-0';
</script>
<script xlink:href="../../svgpan.js"/>
<svg id="graph" class="graph">
<g id="viewport">
<title>com.fs.starfarer.api.impl.campaign.terrain.BaseRingTerrain.RingParams</title>
<!-- Node1 -->
<g id="node1" class="node">
<title>Node1</title>
<g id="a_node1"><a xlink:title=" ">
<polygon fill="#bfbfbf" stroke="black" points="719.5,-248.5 719.5,-360.5 914.5,-360.5 914.5,-248.5 719.5,-248.5"/>
<text text-anchor="start" x="727.5" y="-348.5" font-family="Helvetica,sans-Serif" font-size="10.00">com.fs.starfarer.api.impl.campaign.terrain.</text>
<text text-anchor="middle" x="817" y="-337.5" font-family="Helvetica,sans-Serif" font-size="10.00">BaseRingTerrain.RingParams</text>
<polyline fill="none" stroke="black" points="719.5,-330.5 914.5,-330.5 "/>
<text text-anchor="start" x="727.5" y="-318.5" font-family="Helvetica,sans-Serif" font-size="10.00">+ bandWidthInEngine</text>
<text text-anchor="start" x="727.5" y="-307.5" font-family="Helvetica,sans-Serif" font-size="10.00">+ middleRadius</text>
<text text-anchor="start" x="727.5" y="-296.5" font-family="Helvetica,sans-Serif" font-size="10.00">+ relatedEntity</text>
<text text-anchor="start" x="727.5" y="-285.5" font-family="Helvetica,sans-Serif" font-size="10.00">+ name</text>
<polyline fill="none" stroke="black" points="719.5,-278.5 914.5,-278.5 "/>
<text text-anchor="start" x="727.5" y="-266.5" font-family="Helvetica,sans-Serif" font-size="10.00">+ RingParams()</text>
<text text-anchor="start" x="727.5" y="-255.5" font-family="Helvetica,sans-Serif" font-size="10.00">+ RingParams()</text>
</a>
</g>
</g>
<!-- Node2 -->
<g id="node2" class="node">
<title>Node2</title>
<g id="a_node2"><a xlink:href="../../d5/dca/classcom_1_1fs_1_1starfarer_1_1api_1_1impl_1_1campaign_1_1terrain_1_1AsteroidBeltTerrainPlugin_1_1AsteroidBeltParams.html" target="_top" xlink:title=" ">
<polygon fill="none" stroke="black" points="0,-50 0,-162 216,-162 216,-50 0,-50"/>
<text text-anchor="start" x="8" y="-150" font-family="Helvetica,sans-Serif" font-size="10.00">com.fs.starfarer.api.impl.campaign.terrain.</text>
<text text-anchor="middle" x="108" y="-139" font-family="Helvetica,sans-Serif" font-size="10.00">AsteroidBeltTerrainPlugin.AsteroidBeltParams</text>
<polyline fill="none" stroke="black" points="0,-132 216,-132 "/>
<text text-anchor="start" x="8" y="-120" font-family="Helvetica,sans-Serif" font-size="10.00">+ numAsteroids</text>
<text text-anchor="start" x="8" y="-109" font-family="Helvetica,sans-Serif" font-size="10.00">+ minOrbitDays</text>
<text text-anchor="start" x="8" y="-98" font-family="Helvetica,sans-Serif" font-size="10.00">+ maxOrbitDays</text>
<text text-anchor="start" x="8" y="-87" font-family="Helvetica,sans-Serif" font-size="10.00">+ minSize</text>
<text text-anchor="start" x="8" y="-76" font-family="Helvetica,sans-Serif" font-size="10.00">+ maxSize</text>
<polyline fill="none" stroke="black" points="0,-69 216,-69 "/>
<text text-anchor="start" x="8" y="-57" font-family="Helvetica,sans-Serif" font-size="10.00">+ AsteroidBeltParams()</text>
</a>
</g>
</g>
<!-- Node1&#45;&gt;Node2 -->
<g id="edge1" class="edge">
<title>Node1&#45;&gt;Node2</title>
<path fill="none" stroke="midnightblue" d="M708.86,-294.22C562.12,-280.37 308.64,-251.62 225,-212 199.72,-200.02 175.92,-180.81 156.48,-162.06"/>
<polygon fill="none" stroke="midnightblue" points="708.95,-297.75 719.24,-295.19 709.61,-290.78 708.95,-297.75"/>
</g>
<!-- Node3 -->
<g id="node3" class="node">
<title>Node3</title>
<g id="a_node3"><a xlink:href="../../d2/df5/classcom_1_1fs_1_1starfarer_1_1api_1_1impl_1_1campaign_1_1terrain_1_1AsteroidFieldTerrainPlugin_1_1AsteroidFieldParams.html" target="_top" xlink:title=" ">
<polygon fill="none" stroke="black" points="234,-39 234,-173 458,-173 458,-39 234,-39"/>
<text text-anchor="start" x="242" y="-161" font-family="Helvetica,sans-Serif" font-size="10.00">com.fs.starfarer.api.impl.campaign.terrain.</text>
<text text-anchor="middle" x="346" y="-150" font-family="Helvetica,sans-Serif" font-size="10.00">AsteroidFieldTerrainPlugin.AsteroidFieldParams</text>
<polyline fill="none" stroke="black" points="234,-143 458,-143 "/>
<text text-anchor="start" x="242" y="-131" font-family="Helvetica,sans-Serif" font-size="10.00">+ minRadius</text>
<text text-anchor="start" x="242" y="-120" font-family="Helvetica,sans-Serif" font-size="10.00">+ maxRadius</text>
<text text-anchor="start" x="242" y="-109" font-family="Helvetica,sans-Serif" font-size="10.00">+ minAsteroids</text>
<text text-anchor="start" x="242" y="-98" font-family="Helvetica,sans-Serif" font-size="10.00">+ maxAsteroids</text>
<text text-anchor="start" x="242" y="-87" font-family="Helvetica,sans-Serif" font-size="10.00">+ minSize</text>
<text text-anchor="start" x="242" y="-76" font-family="Helvetica,sans-Serif" font-size="10.00">+ maxSize</text>
<text text-anchor="start" x="242" y="-65" font-family="Helvetica,sans-Serif" font-size="10.00">+ numAsteroids</text>
<polyline fill="none" stroke="black" points="234,-58 458,-58 "/>
<text text-anchor="start" x="242" y="-46" font-family="Helvetica,sans-Serif" font-size="10.00">+ AsteroidFieldParams()</text>
</a>
</g>
</g>
<!-- Node1&#45;&gt;Node3 -->
<g id="edge2" class="edge">
<title>Node1&#45;&gt;Node3</title>
<path fill="none" stroke="midnightblue" d="M709.47,-288.53C637.74,-275.45 543.01,-252.08 467,-212 447.44,-201.69 428.36,-187.65 411.35,-173.2"/>
<polygon fill="none" stroke="midnightblue" points="708.98,-292 719.44,-290.31 710.21,-285.1 708.98,-292"/>
</g>
<!-- Node4 -->
<g id="node4" class="node">
<title>Node4</title>
<g id="a_node4"><a xlink:href="../../d6/d43/classcom_1_1fs_1_1starfarer_1_1api_1_1impl_1_1campaign_1_1terrain_1_1DebrisFieldTerrainPlugin_1_1DebrisFieldParams.html" target="_top" xlink:title=" ">
<polygon fill="none" stroke="black" points="476.5,-0.5 476.5,-211.5 683.5,-211.5 683.5,-0.5 476.5,-0.5"/>
<text text-anchor="start" x="484.5" y="-199.5" font-family="Helvetica,sans-Serif" font-size="10.00">com.fs.starfarer.api.impl.campaign.terrain.</text>
<text text-anchor="middle" x="580" y="-188.5" font-family="Helvetica,sans-Serif" font-size="10.00">DebrisFieldTerrainPlugin.DebrisFieldParams</text>
<polyline fill="none" stroke="black" points="476.5,-181.5 683.5,-181.5 "/>
<text text-anchor="start" x="484.5" y="-169.5" font-family="Helvetica,sans-Serif" font-size="10.00">+ density</text>
<text text-anchor="start" x="484.5" y="-158.5" font-family="Helvetica,sans-Serif" font-size="10.00">+ baseDensity</text>
<text text-anchor="start" x="484.5" y="-147.5" font-family="Helvetica,sans-Serif" font-size="10.00">+ glowsDays</text>
<text text-anchor="start" x="484.5" y="-136.5" font-family="Helvetica,sans-Serif" font-size="10.00">+ lastsDays</text>
<text text-anchor="start" x="484.5" y="-125.5" font-family="Helvetica,sans-Serif" font-size="10.00">+ minSize</text>
<text text-anchor="start" x="484.5" y="-114.5" font-family="Helvetica,sans-Serif" font-size="10.00">+ maxSize</text>
<text text-anchor="start" x="484.5" y="-103.5" font-family="Helvetica,sans-Serif" font-size="10.00">+ glowColor</text>
<text text-anchor="start" x="484.5" y="-92.5" font-family="Helvetica,sans-Serif" font-size="10.00">+ defFaction</text>
<text text-anchor="start" x="484.5" y="-81.5" font-family="Helvetica,sans-Serif" font-size="10.00">+ defenderProb</text>
<text text-anchor="start" x="484.5" y="-70.5" font-family="Helvetica,sans-Serif" font-size="10.00">+ minStr</text>
<text text-anchor="start" x="484.5" y="-59.5" font-family="Helvetica,sans-Serif" font-size="10.00">+ maxStr</text>
<text text-anchor="start" x="484.5" y="-48.5" font-family="Helvetica,sans-Serif" font-size="10.00">+ maxDefenderSize</text>
<text text-anchor="start" x="484.5" y="-37.5" font-family="Helvetica,sans-Serif" font-size="10.00">+ baseSalvageXP</text>
<text text-anchor="start" x="484.5" y="-26.5" font-family="Helvetica,sans-Serif" font-size="10.00">+ source</text>
<polyline fill="none" stroke="black" points="476.5,-19.5 683.5,-19.5 "/>
<text text-anchor="start" x="484.5" y="-7.5" font-family="Helvetica,sans-Serif" font-size="10.00">+ DebrisFieldParams()</text>
</a>
</g>
</g>
<!-- Node1&#45;&gt;Node4 -->
<g id="edge3" class="edge">
<title>Node1&#45;&gt;Node4</title>
<path fill="none" stroke="midnightblue" d="M731.45,-242.34C718.38,-232.44 705.2,-222.11 693,-212 689.91,-209.44 686.79,-206.81 683.66,-204.14"/>
<polygon fill="none" stroke="midnightblue" points="729.47,-245.23 739.56,-248.45 733.68,-239.64 729.47,-245.23"/>
</g>
<!-- Node5 -->
<g id="node5" class="node">
<title>Node5</title>
<g id="a_node5"><a xlink:href="../../de/d82/classcom_1_1fs_1_1starfarer_1_1api_1_1impl_1_1campaign_1_1terrain_1_1MagneticFieldTerrainPlugin_1_1MagneticFieldParams.html" target="_top" xlink:title=" ">
<polygon fill="none" stroke="black" points="701.5,-28 701.5,-184 932.5,-184 932.5,-28 701.5,-28"/>
<text text-anchor="start" x="709.5" y="-172" font-family="Helvetica,sans-Serif" font-size="10.00">com.fs.starfarer.api.impl.campaign.terrain.</text>
<text text-anchor="middle" x="817" y="-161" font-family="Helvetica,sans-Serif" font-size="10.00">MagneticFieldTerrainPlugin.MagneticFieldParams</text>
<polyline fill="none" stroke="black" points="701.5,-154 932.5,-154 "/>
<text text-anchor="start" x="709.5" y="-142" font-family="Helvetica,sans-Serif" font-size="10.00">+ baseColor</text>
<text text-anchor="start" x="709.5" y="-131" font-family="Helvetica,sans-Serif" font-size="10.00">+ auroraColorRange</text>
<text text-anchor="start" x="709.5" y="-120" font-family="Helvetica,sans-Serif" font-size="10.00">+ c</text>
<text text-anchor="start" x="709.5" y="-109" font-family="Helvetica,sans-Serif" font-size="10.00">+ auroraFrequency</text>
<text text-anchor="start" x="709.5" y="-98" font-family="Helvetica,sans-Serif" font-size="10.00">+ innerRadius</text>
<text text-anchor="start" x="709.5" y="-87" font-family="Helvetica,sans-Serif" font-size="10.00">+ outerRadius</text>
<polyline fill="none" stroke="black" points="701.5,-80 932.5,-80 "/>
<text text-anchor="start" x="709.5" y="-68" font-family="Helvetica,sans-Serif" font-size="10.00">+ MagneticFieldParams()</text>
<text text-anchor="start" x="709.5" y="-57" font-family="Helvetica,sans-Serif" font-size="10.00">+ MagneticFieldParams()</text>
<text text-anchor="start" x="709.5" y="-46" font-family="Helvetica,sans-Serif" font-size="10.00">~ readResolve()</text>
<text text-anchor="start" x="709.5" y="-35" font-family="Helvetica,sans-Serif" font-size="10.00">~ writeReplace()</text>
</a>
</g>
</g>
<!-- Node1&#45;&gt;Node5 -->
<g id="edge4" class="edge">
<title>Node1&#45;&gt;Node5</title>
<path fill="none" stroke="midnightblue" d="M817,-237.76C817,-220.58 817,-201.91 817,-184.2"/>
<polygon fill="none" stroke="midnightblue" points="813.5,-238.24 817,-248.24 820.5,-238.24 813.5,-238.24"/>
</g>
<!-- Node6 -->
<g id="node6" class="node">
<title>Node6</title>
<g id="a_node6"><a xlink:href="../../df/d35/classcom_1_1fs_1_1starfarer_1_1api_1_1impl_1_1campaign_1_1terrain_1_1RadioChatterTerrainPlugin_1_1RadioChatterParams.html" target="_top" xlink:title=" ">
<polygon fill="none" stroke="black" points="950,-72 950,-140 1172,-140 1172,-72 950,-72"/>
<text text-anchor="start" x="958" y="-128" font-family="Helvetica,sans-Serif" font-size="10.00">com.fs.starfarer.api.impl.campaign.terrain.</text>
<text text-anchor="middle" x="1061" y="-117" font-family="Helvetica,sans-Serif" font-size="10.00">RadioChatterTerrainPlugin.RadioChatterParams</text>
<polyline fill="none" stroke="black" points="950,-110 1172,-110 "/>
<text text-anchor="middle" x="1061" y="-98" font-family="Helvetica,sans-Serif" font-size="10.00"> </text>
<polyline fill="none" stroke="black" points="950,-91 1172,-91 "/>
<text text-anchor="start" x="958" y="-79" font-family="Helvetica,sans-Serif" font-size="10.00">+ RadioChatterParams()</text>
</a>
</g>
</g>
<!-- Node1&#45;&gt;Node6 -->
<g id="edge5" class="edge">
<title>Node1&#45;&gt;Node6</title>
<path fill="none" stroke="midnightblue" d="M902.01,-242.23C915.2,-232.3 928.57,-222 941,-212 969.8,-188.84 1001.2,-161.28 1024.65,-140.21"/>
<polygon fill="none" stroke="midnightblue" points="899.73,-239.56 893.83,-248.35 903.93,-245.16 899.73,-239.56"/>
</g>
<!-- Node7 -->
<g id="node7" class="node">
<title>Node7</title>
<g id="a_node7"><a xlink:href="../../d9/d93/classcom_1_1fs_1_1starfarer_1_1api_1_1impl_1_1campaign_1_1terrain_1_1SpatialAnomalyTerrainPlugin_1_1SpatialAnomalyParams.html" target="_top" xlink:title=" ">
<polygon fill="none" stroke="black" points="1190.5,-66.5 1190.5,-145.5 1435.5,-145.5 1435.5,-66.5 1190.5,-66.5"/>
<text text-anchor="start" x="1198.5" y="-133.5" font-family="Helvetica,sans-Serif" font-size="10.00">com.fs.starfarer.api.impl.campaign.terrain.</text>
<text text-anchor="middle" x="1313" y="-122.5" font-family="Helvetica,sans-Serif" font-size="10.00">SpatialAnomalyTerrainPlugin.SpatialAnomalyParams</text>
<polyline fill="none" stroke="black" points="1190.5,-115.5 1435.5,-115.5 "/>
<text text-anchor="start" x="1198.5" y="-103.5" font-family="Helvetica,sans-Serif" font-size="10.00">+ dur</text>
<text text-anchor="start" x="1198.5" y="-92.5" font-family="Helvetica,sans-Serif" font-size="10.00">+ source</text>
<polyline fill="none" stroke="black" points="1190.5,-85.5 1435.5,-85.5 "/>
<text text-anchor="start" x="1198.5" y="-73.5" font-family="Helvetica,sans-Serif" font-size="10.00">+ SpatialAnomalyParams()</text>
</a>
</g>
</g>
<!-- Node1&#45;&gt;Node7 -->
<g id="edge6" class="edge">
<title>Node1&#45;&gt;Node7</title>
<path fill="none" stroke="midnightblue" d="M924.7,-288.79C999.46,-275.67 1099.8,-252.14 1181,-212 1215.26,-195.07 1248.89,-168.11 1273.63,-145.75"/>
<polygon fill="none" stroke="midnightblue" points="924.06,-285.35 914.79,-290.49 925.24,-292.25 924.06,-285.35"/>
</g>
<!-- Node8 -->
<g id="node8" class="node">
<title>Node8</title>
<g id="a_node8"><a xlink:href="../../d7/dc4/classcom_1_1fs_1_1starfarer_1_1api_1_1impl_1_1campaign_1_1terrain_1_1StarCoronaTerrainPlugin_1_1CoronaParams.html" target="_top" xlink:title=" ">
<polygon fill="none" stroke="black" points="1453.5,-61 1453.5,-151 1648.5,-151 1648.5,-61 1453.5,-61"/>
<text text-anchor="start" x="1461.5" y="-139" font-family="Helvetica,sans-Serif" font-size="10.00">com.fs.starfarer.api.impl.campaign.terrain.</text>
<text text-anchor="middle" x="1551" y="-128" font-family="Helvetica,sans-Serif" font-size="10.00">StarCoronaTerrainPlugin.CoronaParams</text>
<polyline fill="none" stroke="black" points="1453.5,-121 1648.5,-121 "/>
<text text-anchor="start" x="1461.5" y="-109" font-family="Helvetica,sans-Serif" font-size="10.00">+ windBurnLevel</text>
<text text-anchor="start" x="1461.5" y="-98" font-family="Helvetica,sans-Serif" font-size="10.00">+ flareProbability</text>
<text text-anchor="start" x="1461.5" y="-87" font-family="Helvetica,sans-Serif" font-size="10.00">+ crLossMult</text>
<polyline fill="none" stroke="black" points="1453.5,-80 1648.5,-80 "/>
<text text-anchor="start" x="1461.5" y="-68" font-family="Helvetica,sans-Serif" font-size="10.00">+ CoronaParams()</text>
</a>
</g>
</g>
<!-- Node1&#45;&gt;Node8 -->
<g id="edge7" class="edge">
<title>Node1&#45;&gt;Node8</title>
<path fill="none" stroke="midnightblue" d="M924.71,-295.96C1079.46,-283.75 1355.88,-256.45 1445,-212 1473.51,-197.78 1499.09,-172.98 1517.98,-151.06"/>
<polygon fill="none" stroke="midnightblue" points="924.39,-292.47 914.7,-296.74 924.94,-299.45 924.39,-292.47"/>
</g>
</g>
</svg>
        <g id="navigator" transform="translate(0 0)" fill="#404254">
                <rect fill="#f2f5e9" fill-opacity="0.5" stroke="#606060" stroke-width=".5" x="0" y="0" width="60" height="60"/>
                <use id="zoomplus" xlink:href="#zoomPlus" x="17" y="9" onmousedown="handleZoom(evt,'in')"/>
                <use id="zoomminus" xlink:href="#zoomMin" x="42" y="9" onmousedown="handleZoom(evt,'out')"/>
                <use id="reset" xlink:href="#resetDef" x="30" y="36" onmousedown="handleReset()"/>
                <g id="arrowUp" xlink:href="#dirArrow" transform="translate(30 24)" onmousedown="handlePan(0,-1)">
                  <use xlink:href="#rim" fill="#404040">
                        <set attributeName="fill" to="#808080" begin="arrowUp.mouseover" end="arrowUp.mouseout"/>
                  </use>
                  <path fill="none" stroke="white" stroke-width="1.5" d="M0,-3.0v7 M-2.5,-0.5L0,-3.0L2.5,-0.5"/>
                </g>
                <g id="arrowRight" xlink:href="#dirArrow" transform="rotate(90) translate(36 -43)" onmousedown="handlePan(1,0)">
                  <use xlink:href="#rim" fill="#404040">
                        <set attributeName="fill" to="#808080" begin="arrowRight.mouseover" end="arrowRight.mouseout"/>
                  </use>
                  <path fill="none" stroke="white" stroke-width="1.5" d="M0,-3.0v7 M-2.5,-0.5L0,-3.0L2.5,-0.5"/>
                </g>
                <g id="arrowDown" xlink:href="#dirArrow" transform="rotate(180) translate(-30 -48)" onmousedown="handlePan(0,1)">
                  <use xlink:href="#rim" fill="#404040">
                        <set attributeName="fill" to="#808080" begin="arrowDown.mouseover" end="arrowDown.mouseout"/>
                  </use>
                  <path fill="none" stroke="white" stroke-width="1.5" d="M0,-3.0v7 M-2.5,-0.5L0,-3.0L2.5,-0.5"/>
                </g>
                <g id="arrowLeft" xlink:href="#dirArrow" transform="rotate(270) translate(-36 17)" onmousedown="handlePan(-1,0)">
                  <use xlink:href="#rim" fill="#404040">
                        <set attributeName="fill" to="#808080" begin="arrowLeft.mouseover" end="arrowLeft.mouseout"/>
                  </use>
                  <path fill="none" stroke="white" stroke-width="1.5" d="M0,-3.0v7 M-2.5,-0.5L0,-3.0L2.5,-0.5"/>
                </g>
        </g>
        <svg viewBox="0 0 15 15" width="100%" height="30px" preserveAspectRatio="xMaxYMin meet">
         <g id="arrow_out" transform="scale(0.3 0.3)">
          <a xlink:href="classcom_1_1fs_1_1starfarer_1_1api_1_1impl_1_1campaign_1_1terrain_1_1BaseRingTerrain_1_1RingParams__inherit__graph_org.svg" target="_base">
           <rect id="button" ry="5" rx="5" y="6" x="6" height="38" width="38"
                fill="#f2f5e9" fill-opacity="0.5" stroke="#606060" stroke-width="1.0"/>
           <path id="arrow"
             d="M 11.500037,31.436501 C 11.940474,20.09759 22.043105,11.32322 32.158766,21.979434 L 37.068811,17.246167 C 37.068811,17.246167 37.088388,32 37.088388,32 L 22.160133,31.978069 C 22.160133,31.978069 26.997745,27.140456 26.997745,27.140456 C 18.528582,18.264221 13.291696,25.230495 11.500037,31.436501 z"
             style="fill:#404040;"/>
          </a>
         </g>
        </svg>
</svg>
