<?xml version="1.0" encoding="UTF-8" standalone="no"?>
<!DOCTYPE svg PUBLIC "-//W3C//DTD SVG 1.1//EN"
 "http://www.w3.org/Graphics/SVG/1.1/DTD/svg11.dtd">
<!-- Generated by graphviz version 2.44.0 ()
 -->
<!-- Title: com.fs.starfarer.api.impl.campaign.skills.EnergyWeaponMastery.EWMDamageDealtMod Pages: 1 -->
<!--zoomable 541 -->
<svg id="main" version="1.1" xmlns="http://www.w3.org/2000/svg" xmlns:xlink="http://www.w3.org/1999/xlink" xml:space="preserve" onload="init(evt)">
<style type="text/css"><![CDATA[
.edge:hover path { stroke: red; }
.edge:hover polygon { stroke: red; fill: red; }
]]></style>
<script type="text/javascript"><![CDATA[
var edges = document.getElementsByTagName('g');
if (edges && edges.length) {
  for (var i=0;i<edges.length;i++) {
    if (edges[i].id.substr(0,4)=='edge') {
      edges[i].setAttribute('class','edge');
    }
  }
}
]]></script>
        <defs>
                <circle id="rim" cx="0" cy="0" r="7"/>
                <circle id="rim2" cx="0" cy="0" r="3.5"/>
                <g id="zoomPlus">
                        <use xlink:href="#rim" fill="#404040">
                                <set attributeName="fill" to="#808080" begin="zoomplus.mouseover" end="zoomplus.mouseout"/>
                        </use>
                        <path d="M-4,0h8M0,-4v8" fill="none" stroke="white" stroke-width="1.5" pointer-events="none"/>
                </g>
                <g id="zoomMin">
                        <use xlink:href="#rim" fill="#404040">
                                <set attributeName="fill" to="#808080" begin="zoomminus.mouseover" end="zoomminus.mouseout"/>
                        </use>
                        <path d="M-4,0h8" fill="none" stroke="white" stroke-width="1.5" pointer-events="none"/>
                </g>
                <g id="dirArrow">
                        <path fill="none" stroke="white" stroke-width="1.5" d="M0,-3.0v7 M-2.5,-0.5L0,-3.0L2.5,-0.5"/>
                </g>
               <g id="resetDef">
                       <use xlink:href="#rim2" fill="#404040">
                               <set attributeName="fill" to="#808080" begin="reset.mouseover" end="reset.mouseout"/>
                       </use>
               </g>
        </defs>

<script type="text/javascript">
var viewWidth = 531;
var viewHeight = 541;
var sectionId = 'dynsection-1';
</script>
<script xlink:href="../../svgpan.js"/>
<svg id="graph" class="graph">
<g id="viewport">
<title>com.fs.starfarer.api.impl.campaign.skills.EnergyWeaponMastery.EWMDamageDealtMod</title>
<!-- Node1 -->
<g id="node1" class="node">
<title>Node1</title>
<g id="a_node1"><a xlink:title=" ">
<polygon fill="#bfbfbf" stroke="black" points="171.5,-0.5 171.5,-90.5 389.5,-90.5 389.5,-0.5 171.5,-0.5"/>
<text text-anchor="start" x="179.5" y="-78.5" font-family="Helvetica,sans-Serif" font-size="10.00">com.fs.starfarer.api.impl.campaign.skills.</text>
<text text-anchor="middle" x="280.5" y="-67.5" font-family="Helvetica,sans-Serif" font-size="10.00">EnergyWeaponMastery.EWMDamageDealtMod</text>
<polyline fill="none" stroke="black" points="171.5,-60.5 389.5,-60.5 "/>
<text text-anchor="middle" x="280.5" y="-48.5" font-family="Helvetica,sans-Serif" font-size="10.00"> </text>
<polyline fill="none" stroke="black" points="171.5,-41.5 389.5,-41.5 "/>
<text text-anchor="start" x="179.5" y="-29.5" font-family="Helvetica,sans-Serif" font-size="10.00">+ EWMDamageDealtMod()</text>
<text text-anchor="start" x="179.5" y="-18.5" font-family="Helvetica,sans-Serif" font-size="10.00">+ advance()</text>
<text text-anchor="start" x="179.5" y="-7.5" font-family="Helvetica,sans-Serif" font-size="10.00">+ modifyDamageDealt()</text>
</a>
</g>
</g>
<!-- Node2 -->
<g id="node2" class="node">
<title>Node2</title>
<g id="a_node2"><a xlink:href="../../d5/dd3/interfacecom_1_1fs_1_1starfarer_1_1api_1_1combat_1_1listeners_1_1DamageDealtModifier.html" target="_top" xlink:title=" ">
<polygon fill="none" stroke="black" points="0,-193.5 0,-261.5 175,-261.5 175,-193.5 0,-193.5"/>
<text text-anchor="start" x="8" y="-249.5" font-family="Helvetica,sans-Serif" font-size="10.00">com.fs.starfarer.api.combat.listeners.</text>
<text text-anchor="middle" x="87.5" y="-238.5" font-family="Helvetica,sans-Serif" font-size="10.00">DamageDealtModifier</text>
<polyline fill="none" stroke="black" points="0,-231.5 175,-231.5 "/>
<text text-anchor="start" x="8" y="-219.5" font-family="Helvetica,sans-Serif" font-size="10.00">+ EMP_SHIP_SYSTEM_PARAM</text>
<polyline fill="none" stroke="black" points="0,-212.5 175,-212.5 "/>
<text text-anchor="start" x="8" y="-200.5" font-family="Helvetica,sans-Serif" font-size="10.00">+ modifyDamageDealt()</text>
</a>
</g>
</g>
<!-- Node2&#45;&gt;Node1 -->
<g id="edge1" class="edge">
<title>Node2&#45;&gt;Node1</title>
<path fill="none" stroke="midnightblue" d="M130.42,-186.47C160.93,-158.02 201.9,-119.81 233.32,-90.5"/>
<polygon fill="none" stroke="midnightblue" points="127.83,-184.11 122.9,-193.49 132.6,-189.22 127.83,-184.11"/>
</g>
<!-- Node3 -->
<g id="node3" class="node">
<title>Node3</title>
<g id="a_node3"><a xlink:href="../../df/d85/interfacecom_1_1fs_1_1starfarer_1_1api_1_1combat_1_1listeners_1_1AdvanceableListener.html" target="_top" xlink:title=" ">
<polygon fill="none" stroke="black" points="193,-193.5 193,-261.5 368,-261.5 368,-193.5 193,-193.5"/>
<text text-anchor="start" x="201" y="-249.5" font-family="Helvetica,sans-Serif" font-size="10.00">com.fs.starfarer.api.combat.listeners.</text>
<text text-anchor="middle" x="280.5" y="-238.5" font-family="Helvetica,sans-Serif" font-size="10.00">AdvanceableListener</text>
<polyline fill="none" stroke="black" points="193,-231.5 368,-231.5 "/>
<text text-anchor="middle" x="280.5" y="-219.5" font-family="Helvetica,sans-Serif" font-size="10.00"> </text>
<polyline fill="none" stroke="black" points="193,-212.5 368,-212.5 "/>
<text text-anchor="start" x="201" y="-200.5" font-family="Helvetica,sans-Serif" font-size="10.00">+ advance()</text>
</a>
</g>
</g>
<!-- Node3&#45;&gt;Node1 -->
<g id="edge2" class="edge">
<title>Node3&#45;&gt;Node1</title>
<path fill="none" stroke="midnightblue" d="M280.5,-183.18C280.5,-155.12 280.5,-118.69 280.5,-90.5"/>
<polygon fill="none" stroke="midnightblue" points="277,-183.49 280.5,-193.49 284,-183.49 277,-183.49"/>
</g>
<!-- Node4 -->
<g id="node4" class="node">
<title>Node4</title>
<g id="a_node4"><a xlink:href="../../d4/de6/interfacecom_1_1fs_1_1starfarer_1_1api_1_1combat_1_1ShipAPI.html" target="_top" xlink:title=" ">
<polygon fill="none" stroke="black" points="386.5,-138.5 386.5,-316.5 522.5,-316.5 522.5,-138.5 386.5,-138.5"/>
<text text-anchor="start" x="394.5" y="-304.5" font-family="Helvetica,sans-Serif" font-size="10.00">com.fs.starfarer.api.combat.</text>
<text text-anchor="middle" x="454.5" y="-293.5" font-family="Helvetica,sans-Serif" font-size="10.00">ShipAPI</text>
<polyline fill="none" stroke="black" points="386.5,-286.5 522.5,-286.5 "/>
<text text-anchor="middle" x="454.5" y="-274.5" font-family="Helvetica,sans-Serif" font-size="10.00"> </text>
<polyline fill="none" stroke="black" points="386.5,-267.5 522.5,-267.5 "/>
<text text-anchor="start" x="394.5" y="-255.5" font-family="Helvetica,sans-Serif" font-size="10.00">+ getFleetMemberId()</text>
<text text-anchor="start" x="394.5" y="-244.5" font-family="Helvetica,sans-Serif" font-size="10.00">+ getMouseTarget()</text>
<text text-anchor="start" x="394.5" y="-233.5" font-family="Helvetica,sans-Serif" font-size="10.00">+ isShuttlePod()</text>
<text text-anchor="start" x="394.5" y="-222.5" font-family="Helvetica,sans-Serif" font-size="10.00">+ isDrone()</text>
<text text-anchor="start" x="394.5" y="-211.5" font-family="Helvetica,sans-Serif" font-size="10.00">+ isFighter()</text>
<text text-anchor="start" x="394.5" y="-200.5" font-family="Helvetica,sans-Serif" font-size="10.00">+ isFrigate()</text>
<text text-anchor="start" x="394.5" y="-189.5" font-family="Helvetica,sans-Serif" font-size="10.00">+ isDestroyer()</text>
<text text-anchor="start" x="394.5" y="-178.5" font-family="Helvetica,sans-Serif" font-size="10.00">+ isCruiser()</text>
<text text-anchor="start" x="394.5" y="-167.5" font-family="Helvetica,sans-Serif" font-size="10.00">+ isCapital()</text>
<text text-anchor="start" x="394.5" y="-156.5" font-family="Helvetica,sans-Serif" font-size="10.00">+ getHullSize()</text>
<text text-anchor="start" x="394.5" y="-145.5" font-family="Helvetica,sans-Serif" font-size="10.00">and 234 more...</text>
</a>
</g>
</g>
<!-- Node4&#45;&gt;Node1 -->
<g id="edge3" class="edge">
<title>Node4&#45;&gt;Node1</title>
<path fill="none" stroke="#404040" d="M386.46,-147.49C383.46,-144.26 380.46,-141.08 377.5,-138 365.12,-125.11 351.39,-111.68 338.24,-99.2"/>
<polygon fill="none" stroke="#404040" points="337.99,-98.96 330.88,-97.76 329.26,-90.73 336.37,-91.94 337.99,-98.96"/>
<text text-anchor="middle" x="372.5" y="-112" font-family="Helvetica,sans-Serif" font-size="10.00"> #ship</text>
</g>
<!-- Node5 -->
<g id="node5" class="node">
<title>Node5</title>
<g id="a_node5"><a xlink:href="../../db/d65/interfacecom_1_1fs_1_1starfarer_1_1api_1_1combat_1_1CombatEntityAPI.html" target="_top" xlink:title=" ">
<polygon fill="none" stroke="black" points="386.5,-354.5 386.5,-532.5 522.5,-532.5 522.5,-354.5 386.5,-354.5"/>
<text text-anchor="start" x="394.5" y="-520.5" font-family="Helvetica,sans-Serif" font-size="10.00">com.fs.starfarer.api.combat.</text>
<text text-anchor="middle" x="454.5" y="-509.5" font-family="Helvetica,sans-Serif" font-size="10.00">CombatEntityAPI</text>
<polyline fill="none" stroke="black" points="386.5,-502.5 522.5,-502.5 "/>
<text text-anchor="middle" x="454.5" y="-490.5" font-family="Helvetica,sans-Serif" font-size="10.00"> </text>
<polyline fill="none" stroke="black" points="386.5,-483.5 522.5,-483.5 "/>
<text text-anchor="start" x="394.5" y="-471.5" font-family="Helvetica,sans-Serif" font-size="10.00">+ getLocation()</text>
<text text-anchor="start" x="394.5" y="-460.5" font-family="Helvetica,sans-Serif" font-size="10.00">+ getVelocity()</text>
<text text-anchor="start" x="394.5" y="-449.5" font-family="Helvetica,sans-Serif" font-size="10.00">+ getFacing()</text>
<text text-anchor="start" x="394.5" y="-438.5" font-family="Helvetica,sans-Serif" font-size="10.00">+ setFacing()</text>
<text text-anchor="start" x="394.5" y="-427.5" font-family="Helvetica,sans-Serif" font-size="10.00">+ getAngularVelocity()</text>
<text text-anchor="start" x="394.5" y="-416.5" font-family="Helvetica,sans-Serif" font-size="10.00">+ setAngularVelocity()</text>
<text text-anchor="start" x="394.5" y="-405.5" font-family="Helvetica,sans-Serif" font-size="10.00">+ getOwner()</text>
<text text-anchor="start" x="394.5" y="-394.5" font-family="Helvetica,sans-Serif" font-size="10.00">+ setOwner()</text>
<text text-anchor="start" x="394.5" y="-383.5" font-family="Helvetica,sans-Serif" font-size="10.00">+ getCollisionRadius()</text>
<text text-anchor="start" x="394.5" y="-372.5" font-family="Helvetica,sans-Serif" font-size="10.00">+ getCollisionClass()</text>
<text text-anchor="start" x="394.5" y="-361.5" font-family="Helvetica,sans-Serif" font-size="10.00">and 15 more...</text>
</a>
</g>
</g>
<!-- Node5&#45;&gt;Node4 -->
<g id="edge4" class="edge">
<title>Node5&#45;&gt;Node4</title>
<path fill="none" stroke="midnightblue" d="M454.5,-343.96C454.5,-334.82 454.5,-325.61 454.5,-316.57"/>
<polygon fill="none" stroke="midnightblue" points="451,-344.22 454.5,-354.22 458,-344.22 451,-344.22"/>
</g>
</g>
</svg>
        <g id="navigator" transform="translate(0 0)" fill="#404254">
                <rect fill="#f2f5e9" fill-opacity="0.5" stroke="#606060" stroke-width=".5" x="0" y="0" width="60" height="60"/>
                <use id="zoomplus" xlink:href="#zoomPlus" x="17" y="9" onmousedown="handleZoom(evt,'in')"/>
                <use id="zoomminus" xlink:href="#zoomMin" x="42" y="9" onmousedown="handleZoom(evt,'out')"/>
                <use id="reset" xlink:href="#resetDef" x="30" y="36" onmousedown="handleReset()"/>
                <g id="arrowUp" xlink:href="#dirArrow" transform="translate(30 24)" onmousedown="handlePan(0,-1)">
                  <use xlink:href="#rim" fill="#404040">
                        <set attributeName="fill" to="#808080" begin="arrowUp.mouseover" end="arrowUp.mouseout"/>
                  </use>
                  <path fill="none" stroke="white" stroke-width="1.5" d="M0,-3.0v7 M-2.5,-0.5L0,-3.0L2.5,-0.5"/>
                </g>
                <g id="arrowRight" xlink:href="#dirArrow" transform="rotate(90) translate(36 -43)" onmousedown="handlePan(1,0)">
                  <use xlink:href="#rim" fill="#404040">
                        <set attributeName="fill" to="#808080" begin="arrowRight.mouseover" end="arrowRight.mouseout"/>
                  </use>
                  <path fill="none" stroke="white" stroke-width="1.5" d="M0,-3.0v7 M-2.5,-0.5L0,-3.0L2.5,-0.5"/>
                </g>
                <g id="arrowDown" xlink:href="#dirArrow" transform="rotate(180) translate(-30 -48)" onmousedown="handlePan(0,1)">
                  <use xlink:href="#rim" fill="#404040">
                        <set attributeName="fill" to="#808080" begin="arrowDown.mouseover" end="arrowDown.mouseout"/>
                  </use>
                  <path fill="none" stroke="white" stroke-width="1.5" d="M0,-3.0v7 M-2.5,-0.5L0,-3.0L2.5,-0.5"/>
                </g>
                <g id="arrowLeft" xlink:href="#dirArrow" transform="rotate(270) translate(-36 17)" onmousedown="handlePan(-1,0)">
                  <use xlink:href="#rim" fill="#404040">
                        <set attributeName="fill" to="#808080" begin="arrowLeft.mouseover" end="arrowLeft.mouseout"/>
                  </use>
                  <path fill="none" stroke="white" stroke-width="1.5" d="M0,-3.0v7 M-2.5,-0.5L0,-3.0L2.5,-0.5"/>
                </g>
        </g>
        <svg viewBox="0 0 15 15" width="100%" height="30px" preserveAspectRatio="xMaxYMin meet">
         <g id="arrow_out" transform="scale(0.3 0.3)">
          <a xlink:href="classcom_1_1fs_1_1starfarer_1_1api_1_1impl_1_1campaign_1_1skills_1_1EnergyWeaponMastery_1_1EWMDamageDealtMod__coll__graph_org.svg" target="_base">
           <rect id="button" ry="5" rx="5" y="6" x="6" height="38" width="38"
                fill="#f2f5e9" fill-opacity="0.5" stroke="#606060" stroke-width="1.0"/>
           <path id="arrow"
             d="M 11.500037,31.436501 C 11.940474,20.09759 22.043105,11.32322 32.158766,21.979434 L 37.068811,17.246167 C 37.068811,17.246167 37.088388,32 37.088388,32 L 22.160133,31.978069 C 22.160133,31.978069 26.997745,27.140456 26.997745,27.140456 C 18.528582,18.264221 13.291696,25.230495 11.500037,31.436501 z"
             style="fill:#404040;"/>
          </a>
         </g>
        </svg>
</svg>
