<?xml version="1.0" encoding="UTF-8" standalone="no"?>
<!DOCTYPE svg PUBLIC "-//W3C//DTD SVG 1.1//EN"
 "http://www.w3.org/Graphics/SVG/1.1/DTD/svg11.dtd">
<!-- Generated by graphviz version 7.0.5 (20221223.1930)
 -->
<!-- Title: com.fs.starfarer.api.impl.campaign.rulecmd.RepIsAtWorst Pages: 1 -->
<svg width="894pt" height="86pt"
 viewBox="0.00 0.00 894.00 86.00" xmlns="http://www.w3.org/2000/svg" xmlns:xlink="http://www.w3.org/1999/xlink">
<g id="graph0" class="graph" transform="scale(1 1) rotate(0) translate(4 82)">
<title>com.fs.starfarer.api.impl.campaign.rulecmd.RepIsAtWorst</title>
<!-- Node1 -->
<g id="node1" class="node">
<title>Node1</title>
<g id="a_node1"><a xlink:title=" ">
<polygon fill="#999999" stroke="#666666" points="647,-54 444,-54 444,-24 647,-24 647,-54"/>
<text text-anchor="start" x="452" y="-42" font-family="Helvetica,sans-Serif" font-size="10.00">com.fs.starfarer.api.impl.campaign.rulecmd.</text>
<text text-anchor="middle" x="545.5" y="-31" font-family="Helvetica,sans-Serif" font-size="10.00">RepIsAtWorst</text>
</a>
</g>
</g>
<!-- Node4 -->
<g id="node4" class="node">
<title>Node4</title>
<g id="a_node4"><a xlink:href="../../d2/dfd/classcom_1_1fs_1_1starfarer_1_1api_1_1impl_1_1campaign_1_1rulecmd_1_1ImportanceAtLeast.html" target="_top" xlink:title=" ">
<polygon fill="white" stroke="#666666" points="886,-78 683,-78 683,-48 886,-48 886,-78"/>
<text text-anchor="start" x="691" y="-66" font-family="Helvetica,sans-Serif" font-size="10.00">com.fs.starfarer.api.impl.campaign.rulecmd.</text>
<text text-anchor="middle" x="784.5" y="-55" font-family="Helvetica,sans-Serif" font-size="10.00">ImportanceAtLeast</text>
</a>
</g>
</g>
<!-- Node1&#45;&gt;Node4 -->
<g id="edge3" class="edge">
<title>Node1&#45;&gt;Node4</title>
<path fill="none" stroke="#63b8ff" d="M658.67,-50.36C666.7,-51.17 674.77,-51.99 682.74,-52.8"/>
<polygon fill="#63b8ff" stroke="#63b8ff" points="659.16,-46.89 648.86,-49.37 658.46,-53.86 659.16,-46.89"/>
</g>
<!-- Node5 -->
<g id="node5" class="node">
<title>Node5</title>
<g id="a_node5"><a xlink:href="../../df/d6a/classcom_1_1fs_1_1starfarer_1_1api_1_1impl_1_1campaign_1_1rulecmd_1_1RepGTE.html" target="_top" xlink:title=" ">
<polygon fill="white" stroke="#666666" points="886,-30 683,-30 683,0 886,0 886,-30"/>
<text text-anchor="start" x="691" y="-18" font-family="Helvetica,sans-Serif" font-size="10.00">com.fs.starfarer.api.impl.campaign.rulecmd.</text>
<text text-anchor="middle" x="784.5" y="-7" font-family="Helvetica,sans-Serif" font-size="10.00">RepGTE</text>
</a>
</g>
</g>
<!-- Node1&#45;&gt;Node5 -->
<g id="edge4" class="edge">
<title>Node1&#45;&gt;Node5</title>
<path fill="none" stroke="#63b8ff" d="M658.67,-27.64C666.7,-26.83 674.77,-26.01 682.74,-25.2"/>
<polygon fill="#63b8ff" stroke="#63b8ff" points="658.46,-24.14 648.86,-28.63 659.16,-31.11 658.46,-24.14"/>
</g>
<!-- Node2 -->
<g id="node2" class="node">
<title>Node2</title>
<g id="a_node2"><a xlink:href="../../d7/dd6/classcom_1_1fs_1_1starfarer_1_1api_1_1impl_1_1campaign_1_1rulecmd_1_1BaseCommandPlugin.html" target="_top" xlink:title=" ">
<polygon fill="white" stroke="#666666" points="408,-54 205,-54 205,-24 408,-24 408,-54"/>
<text text-anchor="start" x="213" y="-42" font-family="Helvetica,sans-Serif" font-size="10.00">com.fs.starfarer.api.impl.campaign.rulecmd.</text>
<text text-anchor="middle" x="306.5" y="-31" font-family="Helvetica,sans-Serif" font-size="10.00">BaseCommandPlugin</text>
</a>
</g>
</g>
<!-- Node2&#45;&gt;Node1 -->
<g id="edge1" class="edge">
<title>Node2&#45;&gt;Node1</title>
<path fill="none" stroke="#63b8ff" d="M419.67,-39C427.7,-39 435.77,-39 443.74,-39"/>
<polygon fill="#63b8ff" stroke="#63b8ff" points="419.87,-35.5 409.87,-39 419.87,-42.5 419.87,-35.5"/>
</g>
<!-- Node3 -->
<g id="node3" class="node">
<title>Node3</title>
<g id="a_node3"><a xlink:href="../../d0/d5c/interfacecom_1_1fs_1_1starfarer_1_1api_1_1campaign_1_1rules_1_1CommandPlugin.html" target="_top" xlink:title=" ">
<polygon fill="white" stroke="#666666" points="169,-54 0,-54 0,-24 169,-24 169,-54"/>
<text text-anchor="start" x="8" y="-42" font-family="Helvetica,sans-Serif" font-size="10.00">com.fs.starfarer.api.campaign.rules.</text>
<text text-anchor="middle" x="84.5" y="-31" font-family="Helvetica,sans-Serif" font-size="10.00">CommandPlugin</text>
</a>
</g>
</g>
<!-- Node3&#45;&gt;Node2 -->
<g id="edge2" class="edge">
<title>Node3&#45;&gt;Node2</title>
<path fill="none" stroke="#63b8ff" d="M180.77,-39C188.66,-39 196.65,-39 204.58,-39"/>
<polygon fill="#63b8ff" stroke="#63b8ff" points="180.81,-35.5 170.81,-39 180.81,-42.5 180.81,-35.5"/>
</g>
</g>
</svg>
