<?xml version="1.0" encoding="UTF-8" standalone="no"?>
<!DOCTYPE svg PUBLIC "-//W3C//DTD SVG 1.1//EN"
 "http://www.w3.org/Graphics/SVG/1.1/DTD/svg11.dtd">
<!-- Generated by graphviz version 2.44.0 ()
 -->
<!-- Title: com.fs.starfarer.api.impl.campaign.fleets.AutoDespawnScript Pages: 1 -->
<svg width="362pt" height="669pt"
 viewBox="0.00 0.00 361.50 669.00" xmlns="http://www.w3.org/2000/svg" xmlns:xlink="http://www.w3.org/1999/xlink">
<g id="graph0" class="graph" transform="scale(1 1) rotate(0) translate(4 665)">
<title>com.fs.starfarer.api.impl.campaign.fleets.AutoDespawnScript</title>
<!-- Node1 -->
<g id="node1" class="node">
<title>Node1</title>
<g id="a_node1"><a xlink:title=" ">
<polygon fill="#bfbfbf" stroke="black" points="0,-0.5 0,-101.5 191,-101.5 191,-0.5 0,-0.5"/>
<text text-anchor="start" x="8" y="-89.5" font-family="Helvetica,sans-Serif" font-size="10.00">com.fs.starfarer.api.impl.campaign.fleets.</text>
<text text-anchor="middle" x="95.5" y="-78.5" font-family="Helvetica,sans-Serif" font-size="10.00">AutoDespawnScript</text>
<polyline fill="none" stroke="black" points="0,-71.5 191,-71.5 "/>
<text text-anchor="start" x="8" y="-59.5" font-family="Helvetica,sans-Serif" font-size="10.00"># elapsed</text>
<polyline fill="none" stroke="black" points="0,-52.5 191,-52.5 "/>
<text text-anchor="start" x="8" y="-40.5" font-family="Helvetica,sans-Serif" font-size="10.00">+ AutoDespawnScript()</text>
<text text-anchor="start" x="8" y="-29.5" font-family="Helvetica,sans-Serif" font-size="10.00">+ advance()</text>
<text text-anchor="start" x="8" y="-18.5" font-family="Helvetica,sans-Serif" font-size="10.00">+ isDone()</text>
<text text-anchor="start" x="8" y="-7.5" font-family="Helvetica,sans-Serif" font-size="10.00">+ runWhilePaused()</text>
</a>
</g>
</g>
<!-- Node2 -->
<g id="node2" class="node">
<title>Node2</title>
<g id="a_node2"><a xlink:href="../../d7/d63/interfacecom_1_1fs_1_1starfarer_1_1api_1_1EveryFrameScript.html" target="_top" xlink:title=" ">
<polygon fill="none" stroke="black" points="17,-193.5 17,-283.5 142,-283.5 142,-193.5 17,-193.5"/>
<text text-anchor="start" x="25" y="-271.5" font-family="Helvetica,sans-Serif" font-size="10.00">com.fs.starfarer.api.Every</text>
<text text-anchor="middle" x="79.5" y="-260.5" font-family="Helvetica,sans-Serif" font-size="10.00">FrameScript</text>
<polyline fill="none" stroke="black" points="17,-253.5 142,-253.5 "/>
<text text-anchor="middle" x="79.5" y="-241.5" font-family="Helvetica,sans-Serif" font-size="10.00"> </text>
<polyline fill="none" stroke="black" points="17,-234.5 142,-234.5 "/>
<text text-anchor="start" x="25" y="-222.5" font-family="Helvetica,sans-Serif" font-size="10.00">+ isDone()</text>
<text text-anchor="start" x="25" y="-211.5" font-family="Helvetica,sans-Serif" font-size="10.00">+ runWhilePaused()</text>
<text text-anchor="start" x="25" y="-200.5" font-family="Helvetica,sans-Serif" font-size="10.00">+ advance()</text>
</a>
</g>
</g>
<!-- Node2&#45;&gt;Node1 -->
<g id="edge1" class="edge">
<title>Node2&#45;&gt;Node1</title>
<path fill="none" stroke="midnightblue" d="M84.19,-183.08C86.42,-157.31 89.05,-126.75 91.22,-101.62"/>
<polygon fill="none" stroke="midnightblue" points="80.7,-182.8 83.33,-193.07 87.68,-183.41 80.7,-182.8"/>
</g>
<!-- Node3 -->
<g id="node3" class="node">
<title>Node3</title>
<g id="a_node3"><a xlink:href="../../db/d56/interfacecom_1_1fs_1_1starfarer_1_1api_1_1campaign_1_1CampaignFleetAPI.html" target="_top" xlink:title=" ">
<polygon fill="none" stroke="black" points="160.5,-149.5 160.5,-327.5 306.5,-327.5 306.5,-149.5 160.5,-149.5"/>
<text text-anchor="start" x="168.5" y="-315.5" font-family="Helvetica,sans-Serif" font-size="10.00">com.fs.starfarer.api.campaign.</text>
<text text-anchor="middle" x="233.5" y="-304.5" font-family="Helvetica,sans-Serif" font-size="10.00">CampaignFleetAPI</text>
<polyline fill="none" stroke="black" points="160.5,-297.5 306.5,-297.5 "/>
<text text-anchor="middle" x="233.5" y="-285.5" font-family="Helvetica,sans-Serif" font-size="10.00"> </text>
<polyline fill="none" stroke="black" points="160.5,-278.5 306.5,-278.5 "/>
<text text-anchor="start" x="168.5" y="-266.5" font-family="Helvetica,sans-Serif" font-size="10.00">+ isInCurrentLocation()</text>
<text text-anchor="start" x="168.5" y="-255.5" font-family="Helvetica,sans-Serif" font-size="10.00">+ isInHyperspace()</text>
<text text-anchor="start" x="168.5" y="-244.5" font-family="Helvetica,sans-Serif" font-size="10.00">+ setLocation()</text>
<text text-anchor="start" x="168.5" y="-233.5" font-family="Helvetica,sans-Serif" font-size="10.00">+ despawn()</text>
<text text-anchor="start" x="168.5" y="-222.5" font-family="Helvetica,sans-Serif" font-size="10.00">+ despawn()</text>
<text text-anchor="start" x="168.5" y="-211.5" font-family="Helvetica,sans-Serif" font-size="10.00">+ addAssignment()</text>
<text text-anchor="start" x="168.5" y="-200.5" font-family="Helvetica,sans-Serif" font-size="10.00">+ addAssignment()</text>
<text text-anchor="start" x="168.5" y="-189.5" font-family="Helvetica,sans-Serif" font-size="10.00">+ addAssignment()</text>
<text text-anchor="start" x="168.5" y="-178.5" font-family="Helvetica,sans-Serif" font-size="10.00">+ addAssignment()</text>
<text text-anchor="start" x="168.5" y="-167.5" font-family="Helvetica,sans-Serif" font-size="10.00">+ clearAssignments()</text>
<text text-anchor="start" x="168.5" y="-156.5" font-family="Helvetica,sans-Serif" font-size="10.00">and 92 more...</text>
</a>
</g>
</g>
<!-- Node3&#45;&gt;Node1 -->
<g id="edge2" class="edge">
<title>Node3&#45;&gt;Node1</title>
<path fill="none" stroke="#404040" d="M167.94,-149.37C158.37,-136.51 148.72,-123.54 139.72,-111.44"/>
<polygon fill="none" stroke="#404040" points="139.49,-111.13 132.7,-108.71 132.33,-101.5 139.12,-103.93 139.49,-111.13"/>
<text text-anchor="middle" x="165.5" y="-123" font-family="Helvetica,sans-Serif" font-size="10.00"> #fleet</text>
</g>
<!-- Node4 -->
<g id="node4" class="node">
<title>Node4</title>
<g id="a_node4"><a xlink:href="../../d6/de1/interfacecom_1_1fs_1_1starfarer_1_1api_1_1campaign_1_1SectorEntityToken.html" target="_top" xlink:title=" ">
<polygon fill="none" stroke="black" points="43.5,-365.5 43.5,-543.5 189.5,-543.5 189.5,-365.5 43.5,-365.5"/>
<text text-anchor="start" x="51.5" y="-531.5" font-family="Helvetica,sans-Serif" font-size="10.00">com.fs.starfarer.api.campaign.</text>
<text text-anchor="middle" x="116.5" y="-520.5" font-family="Helvetica,sans-Serif" font-size="10.00">SectorEntityToken</text>
<polyline fill="none" stroke="black" points="43.5,-513.5 189.5,-513.5 "/>
<text text-anchor="middle" x="116.5" y="-501.5" font-family="Helvetica,sans-Serif" font-size="10.00"> </text>
<polyline fill="none" stroke="black" points="43.5,-494.5 189.5,-494.5 "/>
<text text-anchor="start" x="51.5" y="-482.5" font-family="Helvetica,sans-Serif" font-size="10.00">+ isPlayerFleet()</text>
<text text-anchor="start" x="51.5" y="-471.5" font-family="Helvetica,sans-Serif" font-size="10.00">+ getMarket()</text>
<text text-anchor="start" x="51.5" y="-460.5" font-family="Helvetica,sans-Serif" font-size="10.00">+ setMarket()</text>
<text text-anchor="start" x="51.5" y="-449.5" font-family="Helvetica,sans-Serif" font-size="10.00">+ getCargo()</text>
<text text-anchor="start" x="51.5" y="-438.5" font-family="Helvetica,sans-Serif" font-size="10.00">+ getLocation()</text>
<text text-anchor="start" x="51.5" y="-427.5" font-family="Helvetica,sans-Serif" font-size="10.00">+ getLocationInHyperspace()</text>
<text text-anchor="start" x="51.5" y="-416.5" font-family="Helvetica,sans-Serif" font-size="10.00">+ getOrbit()</text>
<text text-anchor="start" x="51.5" y="-405.5" font-family="Helvetica,sans-Serif" font-size="10.00">+ setOrbit()</text>
<text text-anchor="start" x="51.5" y="-394.5" font-family="Helvetica,sans-Serif" font-size="10.00">+ getId()</text>
<text text-anchor="start" x="51.5" y="-383.5" font-family="Helvetica,sans-Serif" font-size="10.00">+ getName()</text>
<text text-anchor="start" x="51.5" y="-372.5" font-family="Helvetica,sans-Serif" font-size="10.00">and 115 more...</text>
</a>
</g>
</g>
<!-- Node4&#45;&gt;Node3 -->
<g id="edge3" class="edge">
<title>Node4&#45;&gt;Node3</title>
<path fill="none" stroke="midnightblue" d="M169.57,-356.43C174.83,-346.82 180.14,-337.09 185.35,-327.57"/>
<polygon fill="none" stroke="midnightblue" points="166.49,-354.77 164.76,-365.22 172.63,-358.13 166.49,-354.77"/>
</g>
<!-- Node5 -->
<g id="node5" class="node">
<title>Node5</title>
<g id="a_node5"><a xlink:href="../../de/da5/interfacecom_1_1fs_1_1starfarer_1_1api_1_1campaign_1_1rules_1_1HasMemory.html" target="_top" xlink:title=" ">
<polygon fill="none" stroke="black" points="32,-581.5 32,-660.5 201,-660.5 201,-581.5 32,-581.5"/>
<text text-anchor="start" x="40" y="-648.5" font-family="Helvetica,sans-Serif" font-size="10.00">com.fs.starfarer.api.campaign.rules.</text>
<text text-anchor="middle" x="116.5" y="-637.5" font-family="Helvetica,sans-Serif" font-size="10.00">HasMemory</text>
<polyline fill="none" stroke="black" points="32,-630.5 201,-630.5 "/>
<text text-anchor="middle" x="116.5" y="-618.5" font-family="Helvetica,sans-Serif" font-size="10.00"> </text>
<polyline fill="none" stroke="black" points="32,-611.5 201,-611.5 "/>
<text text-anchor="start" x="40" y="-599.5" font-family="Helvetica,sans-Serif" font-size="10.00">+ getMemory()</text>
<text text-anchor="start" x="40" y="-588.5" font-family="Helvetica,sans-Serif" font-size="10.00">+ getMemoryWithoutUpdate()</text>
</a>
</g>
</g>
<!-- Node5&#45;&gt;Node4 -->
<g id="edge4" class="edge">
<title>Node5&#45;&gt;Node4</title>
<path fill="none" stroke="midnightblue" d="M116.5,-571.39C116.5,-562.56 116.5,-553.11 116.5,-543.55"/>
<polygon fill="none" stroke="midnightblue" points="113,-571.43 116.5,-581.43 120,-571.43 113,-571.43"/>
</g>
<!-- Node6 -->
<g id="node6" class="node">
<title>Node6</title>
<g id="a_node6"><a xlink:href="../../da/db1/interfacecom_1_1fs_1_1starfarer_1_1api_1_1campaign_1_1FleetOrStubAPI.html" target="_top" xlink:title=" ">
<polygon fill="none" stroke="black" points="207.5,-365.5 207.5,-543.5 353.5,-543.5 353.5,-365.5 207.5,-365.5"/>
<text text-anchor="start" x="215.5" y="-531.5" font-family="Helvetica,sans-Serif" font-size="10.00">com.fs.starfarer.api.campaign.</text>
<text text-anchor="middle" x="280.5" y="-520.5" font-family="Helvetica,sans-Serif" font-size="10.00">FleetOrStubAPI</text>
<polyline fill="none" stroke="black" points="207.5,-513.5 353.5,-513.5 "/>
<text text-anchor="middle" x="280.5" y="-501.5" font-family="Helvetica,sans-Serif" font-size="10.00"> </text>
<polyline fill="none" stroke="black" points="207.5,-494.5 353.5,-494.5 "/>
<text text-anchor="start" x="215.5" y="-482.5" font-family="Helvetica,sans-Serif" font-size="10.00">+ getId()</text>
<text text-anchor="start" x="215.5" y="-471.5" font-family="Helvetica,sans-Serif" font-size="10.00">+ getContainingLocation()</text>
<text text-anchor="start" x="215.5" y="-460.5" font-family="Helvetica,sans-Serif" font-size="10.00">+ getLocation()</text>
<text text-anchor="start" x="215.5" y="-449.5" font-family="Helvetica,sans-Serif" font-size="10.00">+ getCurrentAssignment()</text>
<text text-anchor="start" x="215.5" y="-438.5" font-family="Helvetica,sans-Serif" font-size="10.00">+ getAssignmentsCopy()</text>
<text text-anchor="start" x="215.5" y="-427.5" font-family="Helvetica,sans-Serif" font-size="10.00">+ addAssignment()</text>
<text text-anchor="start" x="215.5" y="-416.5" font-family="Helvetica,sans-Serif" font-size="10.00">+ addAssignment()</text>
<text text-anchor="start" x="215.5" y="-405.5" font-family="Helvetica,sans-Serif" font-size="10.00">+ addAssignment()</text>
<text text-anchor="start" x="215.5" y="-394.5" font-family="Helvetica,sans-Serif" font-size="10.00">+ addAssignmentAtStart()</text>
<text text-anchor="start" x="215.5" y="-383.5" font-family="Helvetica,sans-Serif" font-size="10.00">+ addAssignmentAtStart()</text>
<text text-anchor="start" x="215.5" y="-372.5" font-family="Helvetica,sans-Serif" font-size="10.00">and 15 more...</text>
</a>
</g>
</g>
<!-- Node6&#45;&gt;Node3 -->
<g id="edge5" class="edge">
<title>Node6&#45;&gt;Node3</title>
<path fill="none" stroke="midnightblue" d="M258.92,-355.25C256.9,-346.02 254.85,-336.7 252.84,-327.57"/>
<polygon fill="none" stroke="midnightblue" points="255.55,-356.21 261.11,-365.22 262.39,-354.7 255.55,-356.21"/>
</g>
</g>
</svg>
