<?xml version="1.0" encoding="UTF-8" standalone="no"?>
<!DOCTYPE svg PUBLIC "-//W3C//DTD SVG 1.1//EN"
 "http://www.w3.org/Graphics/SVG/1.1/DTD/svg11.dtd">
<!-- Generated by graphviz version 2.44.0 ()
 -->
<!-- Title: com.fs.starfarer.api.impl.combat.InterdictorArrayStats Pages: 1 -->
<svg width="261pt" height="713pt"
 viewBox="0.00 0.00 260.50 713.00" xmlns="http://www.w3.org/2000/svg" xmlns:xlink="http://www.w3.org/1999/xlink">
<g id="graph0" class="graph" transform="scale(1 1) rotate(0) translate(4 709)">
<title>com.fs.starfarer.api.impl.combat.InterdictorArrayStats</title>
<!-- Node1 -->
<g id="node1" class="node">
<title>Node1</title>
<g id="a_node1"><a xlink:title=" ">
<polygon fill="#bfbfbf" stroke="black" points="60.5,-0.5 60.5,-178.5 216.5,-178.5 216.5,-0.5 60.5,-0.5"/>
<text text-anchor="start" x="68.5" y="-166.5" font-family="Helvetica,sans-Serif" font-size="10.00">com.fs.starfarer.api.impl.combat.</text>
<text text-anchor="middle" x="138.5" y="-155.5" font-family="Helvetica,sans-Serif" font-size="10.00">InterdictorArrayStats</text>
<polyline fill="none" stroke="black" points="60.5,-148.5 216.5,-148.5 "/>
<text text-anchor="start" x="68.5" y="-136.5" font-family="Helvetica,sans-Serif" font-size="10.00">+ SHIP_KEY</text>
<text text-anchor="start" x="68.5" y="-125.5" font-family="Helvetica,sans-Serif" font-size="10.00">+ TARGET_KEY</text>
<text text-anchor="start" x="68.5" y="-114.5" font-family="Helvetica,sans-Serif" font-size="10.00">+ WING_EFFECT_RANGE</text>
<text text-anchor="start" x="68.5" y="-103.5" font-family="Helvetica,sans-Serif" font-size="10.00">+ RANGE</text>
<polyline fill="none" stroke="black" points="60.5,-96.5 216.5,-96.5 "/>
<text text-anchor="start" x="68.5" y="-84.5" font-family="Helvetica,sans-Serif" font-size="10.00">+ apply()</text>
<text text-anchor="start" x="68.5" y="-73.5" font-family="Helvetica,sans-Serif" font-size="10.00">+ unapply()</text>
<text text-anchor="start" x="68.5" y="-62.5" font-family="Helvetica,sans-Serif" font-size="10.00">+ getStatusData()</text>
<text text-anchor="start" x="68.5" y="-51.5" font-family="Helvetica,sans-Serif" font-size="10.00">+ getInfoText()</text>
<text text-anchor="start" x="68.5" y="-40.5" font-family="Helvetica,sans-Serif" font-size="10.00">+ isUsable()</text>
<text text-anchor="start" x="68.5" y="-29.5" font-family="Helvetica,sans-Serif" font-size="10.00"># getEffectColor()</text>
<text text-anchor="start" x="68.5" y="-18.5" font-family="Helvetica,sans-Serif" font-size="10.00"># findTarget()</text>
<text text-anchor="start" x="68.5" y="-7.5" font-family="Helvetica,sans-Serif" font-size="10.00"># getMaxRange()</text>
</a>
</g>
</g>
<!-- Node2 -->
<g id="node2" class="node">
<title>Node2</title>
<g id="a_node2"><a xlink:href="../../d7/d9b/classcom_1_1fs_1_1starfarer_1_1api_1_1impl_1_1combat_1_1BaseShipSystemScript.html" target="_top" xlink:title=" ">
<polygon fill="none" stroke="black" points="2.5,-226.5 2.5,-404.5 158.5,-404.5 158.5,-226.5 2.5,-226.5"/>
<text text-anchor="start" x="10.5" y="-392.5" font-family="Helvetica,sans-Serif" font-size="10.00">com.fs.starfarer.api.impl.combat.</text>
<text text-anchor="middle" x="80.5" y="-381.5" font-family="Helvetica,sans-Serif" font-size="10.00">BaseShipSystemScript</text>
<polyline fill="none" stroke="black" points="2.5,-374.5 158.5,-374.5 "/>
<text text-anchor="middle" x="80.5" y="-362.5" font-family="Helvetica,sans-Serif" font-size="10.00"> </text>
<polyline fill="none" stroke="black" points="2.5,-355.5 158.5,-355.5 "/>
<text text-anchor="start" x="10.5" y="-343.5" font-family="Helvetica,sans-Serif" font-size="10.00">+ BaseShipSystemScript()</text>
<text text-anchor="start" x="10.5" y="-332.5" font-family="Helvetica,sans-Serif" font-size="10.00">+ apply()</text>
<text text-anchor="start" x="10.5" y="-321.5" font-family="Helvetica,sans-Serif" font-size="10.00">+ getStatusData()</text>
<text text-anchor="start" x="10.5" y="-310.5" font-family="Helvetica,sans-Serif" font-size="10.00">+ unapply()</text>
<text text-anchor="start" x="10.5" y="-299.5" font-family="Helvetica,sans-Serif" font-size="10.00">+ getInfoText()</text>
<text text-anchor="start" x="10.5" y="-288.5" font-family="Helvetica,sans-Serif" font-size="10.00">+ isUsable()</text>
<text text-anchor="start" x="10.5" y="-277.5" font-family="Helvetica,sans-Serif" font-size="10.00">+ getActiveOverride()</text>
<text text-anchor="start" x="10.5" y="-266.5" font-family="Helvetica,sans-Serif" font-size="10.00">+ getInOverride()</text>
<text text-anchor="start" x="10.5" y="-255.5" font-family="Helvetica,sans-Serif" font-size="10.00">+ getOutOverride()</text>
<text text-anchor="start" x="10.5" y="-244.5" font-family="Helvetica,sans-Serif" font-size="10.00">+ getRegenOverride()</text>
<text text-anchor="start" x="10.5" y="-233.5" font-family="Helvetica,sans-Serif" font-size="10.00">+ getUsesOverride()</text>
</a>
</g>
</g>
<!-- Node2&#45;&gt;Node1 -->
<g id="edge1" class="edge">
<title>Node2&#45;&gt;Node1</title>
<path fill="none" stroke="midnightblue" d="M105.93,-216.3C109.17,-203.76 112.48,-190.99 115.68,-178.63"/>
<polygon fill="none" stroke="midnightblue" points="102.46,-215.73 103.34,-226.29 109.23,-217.49 102.46,-215.73"/>
</g>
<!-- Node3 -->
<g id="node3" class="node">
<title>Node3</title>
<g id="a_node3"><a xlink:href="../../db/d18/interfacecom_1_1fs_1_1starfarer_1_1api_1_1plugins_1_1ShipSystemStatsScriptAdvanced.html" target="_top" xlink:title=" ">
<polygon fill="none" stroke="black" points="0,-442.5 0,-521.5 161,-521.5 161,-442.5 0,-442.5"/>
<text text-anchor="start" x="8" y="-509.5" font-family="Helvetica,sans-Serif" font-size="10.00">com.fs.starfarer.api.plugins.</text>
<text text-anchor="middle" x="80.5" y="-498.5" font-family="Helvetica,sans-Serif" font-size="10.00">ShipSystemStatsScriptAdvanced</text>
<polyline fill="none" stroke="black" points="0,-491.5 161,-491.5 "/>
<text text-anchor="middle" x="80.5" y="-479.5" font-family="Helvetica,sans-Serif" font-size="10.00"> </text>
<polyline fill="none" stroke="black" points="0,-472.5 161,-472.5 "/>
<text text-anchor="start" x="8" y="-460.5" font-family="Helvetica,sans-Serif" font-size="10.00">+ isUsable()</text>
<text text-anchor="start" x="8" y="-449.5" font-family="Helvetica,sans-Serif" font-size="10.00">+ getInfoText()</text>
</a>
</g>
</g>
<!-- Node3&#45;&gt;Node2 -->
<g id="edge2" class="edge">
<title>Node3&#45;&gt;Node2</title>
<path fill="none" stroke="midnightblue" d="M80.5,-432.39C80.5,-423.56 80.5,-414.11 80.5,-404.55"/>
<polygon fill="none" stroke="midnightblue" points="77,-432.43 80.5,-442.43 84,-432.43 77,-432.43"/>
</g>
<!-- Node4 -->
<g id="node4" class="node">
<title>Node4</title>
<g id="a_node4"><a xlink:href="../../d3/d3b/interfacecom_1_1fs_1_1starfarer_1_1api_1_1plugins_1_1ShipSystemStatsScript.html" target="_top" xlink:title=" ">
<polygon fill="none" stroke="black" points="13.5,-559.5 13.5,-704.5 147.5,-704.5 147.5,-559.5 13.5,-559.5"/>
<text text-anchor="start" x="21.5" y="-692.5" font-family="Helvetica,sans-Serif" font-size="10.00">com.fs.starfarer.api.plugins.</text>
<text text-anchor="middle" x="80.5" y="-681.5" font-family="Helvetica,sans-Serif" font-size="10.00">ShipSystemStatsScript</text>
<polyline fill="none" stroke="black" points="13.5,-674.5 147.5,-674.5 "/>
<text text-anchor="middle" x="80.5" y="-662.5" font-family="Helvetica,sans-Serif" font-size="10.00"> </text>
<polyline fill="none" stroke="black" points="13.5,-655.5 147.5,-655.5 "/>
<text text-anchor="start" x="21.5" y="-643.5" font-family="Helvetica,sans-Serif" font-size="10.00">+ apply()</text>
<text text-anchor="start" x="21.5" y="-632.5" font-family="Helvetica,sans-Serif" font-size="10.00">+ unapply()</text>
<text text-anchor="start" x="21.5" y="-621.5" font-family="Helvetica,sans-Serif" font-size="10.00">+ getStatusData()</text>
<text text-anchor="start" x="21.5" y="-610.5" font-family="Helvetica,sans-Serif" font-size="10.00">+ getActiveOverride()</text>
<text text-anchor="start" x="21.5" y="-599.5" font-family="Helvetica,sans-Serif" font-size="10.00">+ getInOverride()</text>
<text text-anchor="start" x="21.5" y="-588.5" font-family="Helvetica,sans-Serif" font-size="10.00">+ getOutOverride()</text>
<text text-anchor="start" x="21.5" y="-577.5" font-family="Helvetica,sans-Serif" font-size="10.00">+ getUsesOverride()</text>
<text text-anchor="start" x="21.5" y="-566.5" font-family="Helvetica,sans-Serif" font-size="10.00">+ getRegenOverride()</text>
</a>
</g>
</g>
<!-- Node4&#45;&gt;Node3 -->
<g id="edge3" class="edge">
<title>Node4&#45;&gt;Node3</title>
<path fill="none" stroke="midnightblue" d="M80.5,-549.15C80.5,-539.58 80.5,-530.18 80.5,-521.61"/>
<polygon fill="none" stroke="midnightblue" points="77,-549.17 80.5,-559.17 84,-549.17 77,-549.17"/>
</g>
<!-- Node5 -->
<g id="node5" class="node">
<title>Node5</title>
<g id="a_node5"><a xlink:title=" ">
<polygon fill="none" stroke="#bfbfbf" points="177,-287 177,-344 216,-344 216,-287 177,-287"/>
<text text-anchor="middle" x="196.5" y="-332" font-family="Helvetica,sans-Serif" font-size="10.00">Color</text>
<polyline fill="none" stroke="#bfbfbf" points="177,-325 216,-325 "/>
<text text-anchor="middle" x="196.5" y="-313" font-family="Helvetica,sans-Serif" font-size="10.00"> </text>
<polyline fill="none" stroke="#bfbfbf" points="177,-306 216,-306 "/>
<text text-anchor="middle" x="196.5" y="-294" font-family="Helvetica,sans-Serif" font-size="10.00"> </text>
</a>
</g>
</g>
<!-- Node5&#45;&gt;Node1 -->
<g id="edge4" class="edge">
<title>Node5&#45;&gt;Node1</title>
<path fill="none" stroke="#404040" d="M189.27,-286.58C182.98,-262.3 173.48,-225.58 164.38,-190.46"/>
<polygon fill="none" stroke="#404040" points="164.33,-190.24 158.95,-185.44 161.32,-178.63 166.69,-183.43 164.33,-190.24"/>
<text text-anchor="middle" x="210" y="-200" font-family="Helvetica,sans-Serif" font-size="10.00"> +EFFECT_COLOR</text>
</g>
</g>
</svg>
