<?xml version="1.0" encoding="UTF-8" standalone="no"?>
<!DOCTYPE svg PUBLIC "-//W3C//DTD SVG 1.1//EN"
 "http://www.w3.org/Graphics/SVG/1.1/DTD/svg11.dtd">
<!-- Generated by graphviz version 2.44.0 ()
 -->
<!-- Title: com.fs.starfarer.api.campaign.CombatDamageData Pages: 1 -->
<svg width="232pt" height="226pt"
 viewBox="0.00 0.00 232.00 226.00" xmlns="http://www.w3.org/2000/svg" xmlns:xlink="http://www.w3.org/1999/xlink">
<g id="graph0" class="graph" transform="scale(1 1) rotate(0) translate(4 222)">
<title>com.fs.starfarer.api.campaign.CombatDamageData</title>
<!-- Node1 -->
<g id="node1" class="node">
<title>Node1</title>
<g id="a_node1"><a xlink:title=" ">
<polygon fill="#bfbfbf" stroke="black" points="39,-0.5 39,-90.5 185,-90.5 185,-0.5 39,-0.5"/>
<text text-anchor="start" x="47" y="-78.5" font-family="Helvetica,sans-Serif" font-size="10.00">com.fs.starfarer.api.campaign.</text>
<text text-anchor="middle" x="112" y="-67.5" font-family="Helvetica,sans-Serif" font-size="10.00">CombatDamageData</text>
<polyline fill="none" stroke="black" points="39,-60.5 185,-60.5 "/>
<text text-anchor="middle" x="112" y="-48.5" font-family="Helvetica,sans-Serif" font-size="10.00"> </text>
<polyline fill="none" stroke="black" points="39,-41.5 185,-41.5 "/>
<text text-anchor="start" x="47" y="-29.5" font-family="Helvetica,sans-Serif" font-size="10.00">+ getDealt()</text>
<text text-anchor="start" x="47" y="-18.5" font-family="Helvetica,sans-Serif" font-size="10.00">+ getDealtBy()</text>
<text text-anchor="start" x="47" y="-7.5" font-family="Helvetica,sans-Serif" font-size="10.00">+ add()</text>
</a>
</g>
</g>
<!-- Node2 -->
<g id="node2" class="node">
<title>Node2</title>
<g id="a_node2"><a xlink:title=" ">
<polygon fill="none" stroke="#bfbfbf" points="0,-138.5 0,-217.5 224,-217.5 224,-138.5 0,-138.5"/>
<text text-anchor="start" x="8" y="-205.5" font-family="Helvetica,sans-Serif" font-size="10.00">Map&lt; com.fs.starfarer.api.fleet.</text>
<text text-anchor="start" x="8" y="-194.5" font-family="Helvetica,sans-Serif" font-size="10.00">FleetMemberAPI, com.fs.starfarer.api.campaign.</text>
<text text-anchor="middle" x="112" y="-183.5" font-family="Helvetica,sans-Serif" font-size="10.00">CombatDamageData.DealtByFleetMember &gt;</text>
<polyline fill="none" stroke="#bfbfbf" points="0,-176.5 224,-176.5 "/>
<text text-anchor="middle" x="112" y="-164.5" font-family="Helvetica,sans-Serif" font-size="10.00"> </text>
<polyline fill="none" stroke="#bfbfbf" points="0,-157.5 224,-157.5 "/>
<text text-anchor="middle" x="112" y="-145.5" font-family="Helvetica,sans-Serif" font-size="10.00"> </text>
</a>
</g>
</g>
<!-- Node2&#45;&gt;Node1 -->
<g id="edge1" class="edge">
<title>Node2&#45;&gt;Node1</title>
<path fill="none" stroke="#404040" d="M112,-138.2C112,-127.16 112,-114.9 112,-103.04"/>
<polygon fill="none" stroke="#404040" points="112,-102.88 108,-96.88 112,-90.88 116,-96.88 112,-102.88"/>
<text text-anchor="middle" x="125.5" y="-112" font-family="Helvetica,sans-Serif" font-size="10.00"> &#45;dealt</text>
</g>
</g>
</svg>
