<?xml version="1.0" encoding="UTF-8" standalone="no"?>
<!DOCTYPE svg PUBLIC "-//W3C//DTD SVG 1.1//EN"
 "http://www.w3.org/Graphics/SVG/1.1/DTD/svg11.dtd">
<!-- Generated by graphviz version 2.44.0 ()
 -->
<!-- Title: com.fs.starfarer.api.impl.campaign.shared.CommodityStatTracker Pages: 1 -->
<svg width="549pt" height="468pt"
 viewBox="0.00 0.00 549.00 468.00" xmlns="http://www.w3.org/2000/svg" xmlns:xlink="http://www.w3.org/1999/xlink">
<g id="graph0" class="graph" transform="scale(1 1) rotate(0) translate(4 464)">
<title>com.fs.starfarer.api.impl.campaign.shared.CommodityStatTracker</title>
<!-- Node1 -->
<g id="node1" class="node">
<title>Node1</title>
<g id="a_node1"><a xlink:title=" ">
<polygon fill="#bfbfbf" stroke="black" points="240,-0.5 240,-167.5 437,-167.5 437,-0.5 240,-0.5"/>
<text text-anchor="start" x="248" y="-155.5" font-family="Helvetica,sans-Serif" font-size="10.00">com.fs.starfarer.api.impl.campaign.shared.</text>
<text text-anchor="middle" x="338.5" y="-144.5" font-family="Helvetica,sans-Serif" font-size="10.00">CommodityStatTracker</text>
<polyline fill="none" stroke="black" points="240,-137.5 437,-137.5 "/>
<text text-anchor="start" x="248" y="-125.5" font-family="Helvetica,sans-Serif" font-size="10.00">&#45; firstFrame</text>
<polyline fill="none" stroke="black" points="240,-118.5 437,-118.5 "/>
<text text-anchor="start" x="248" y="-106.5" font-family="Helvetica,sans-Serif" font-size="10.00">+ advance()</text>
<text text-anchor="start" x="248" y="-95.5" font-family="Helvetica,sans-Serif" font-size="10.00">+ isSupplyPriceSignificant()</text>
<text text-anchor="start" x="248" y="-84.5" font-family="Helvetica,sans-Serif" font-size="10.00">+ isDemandPriceSignificant()</text>
<text text-anchor="start" x="248" y="-73.5" font-family="Helvetica,sans-Serif" font-size="10.00">+ isSupplyPriceWithMultSignificant()</text>
<text text-anchor="start" x="248" y="-62.5" font-family="Helvetica,sans-Serif" font-size="10.00">+ isDemandPriceWithMultSignificant()</text>
<text text-anchor="start" x="248" y="-51.5" font-family="Helvetica,sans-Serif" font-size="10.00">+ isSupplyPriceSignificant()</text>
<text text-anchor="start" x="248" y="-40.5" font-family="Helvetica,sans-Serif" font-size="10.00">+ isDemandPriceSignificant()</text>
<text text-anchor="start" x="248" y="-29.5" font-family="Helvetica,sans-Serif" font-size="10.00">+ updateCommodityStats()</text>
<text text-anchor="start" x="248" y="-18.5" font-family="Helvetica,sans-Serif" font-size="10.00">+ getStats()</text>
<text text-anchor="start" x="248" y="-7.5" font-family="Helvetica,sans-Serif" font-size="10.00">&#45; updateStatsNextStep()</text>
</a>
</g>
</g>
<!-- Node2 -->
<g id="node2" class="node">
<title>Node2</title>
<g id="a_node2"><a xlink:title=" ">
<polygon fill="none" stroke="#bfbfbf" points="0,-303.5 0,-371.5 255,-371.5 255,-303.5 0,-303.5"/>
<text text-anchor="start" x="8" y="-359.5" font-family="Helvetica,sans-Serif" font-size="10.00">Map&lt; String, com.fs.starfarer.api.impl.campaign.shared.</text>
<text text-anchor="middle" x="127.5" y="-348.5" font-family="Helvetica,sans-Serif" font-size="10.00">CommodityStatTracker.CommodityStats &gt;</text>
<polyline fill="none" stroke="#bfbfbf" points="0,-341.5 255,-341.5 "/>
<text text-anchor="middle" x="127.5" y="-329.5" font-family="Helvetica,sans-Serif" font-size="10.00"> </text>
<polyline fill="none" stroke="#bfbfbf" points="0,-322.5 255,-322.5 "/>
<text text-anchor="middle" x="127.5" y="-310.5" font-family="Helvetica,sans-Serif" font-size="10.00"> </text>
</a>
</g>
</g>
<!-- Node2&#45;&gt;Node1 -->
<g id="edge1" class="edge">
<title>Node2&#45;&gt;Node1</title>
<path fill="none" stroke="#404040" d="M155.3,-303.36C182.2,-271.3 224.23,-221.2 261.25,-177.08"/>
<polygon fill="none" stroke="#404040" points="261.35,-176.96 262.14,-169.79 269.07,-167.76 268.27,-174.93 261.35,-176.96"/>
<text text-anchor="middle" x="276" y="-189" font-family="Helvetica,sans-Serif" font-size="10.00"> &#45;priceData</text>
</g>
<!-- Node3 -->
<g id="node3" class="node">
<title>Node3</title>
<g id="a_node3"><a xlink:href="../../dc/d19/classcom_1_1fs_1_1starfarer_1_1api_1_1util_1_1SaveableIterator.html" target="_top" xlink:title=" ">
<polygon fill="none" stroke="black" points="273.5,-281.5 273.5,-393.5 403.5,-393.5 403.5,-281.5 273.5,-281.5"/>
<text text-anchor="start" x="281.5" y="-381.5" font-family="Helvetica,sans-Serif" font-size="10.00">com.fs.starfarer.api.util.</text>
<text text-anchor="middle" x="338.5" y="-370.5" font-family="Helvetica,sans-Serif" font-size="10.00">SaveableIterator&lt; String &gt;</text>
<polyline fill="none" stroke="black" points="273.5,-363.5 403.5,-363.5 "/>
<text text-anchor="start" x="281.5" y="-351.5" font-family="Helvetica,sans-Serif" font-size="10.00">&#45; list</text>
<text text-anchor="start" x="281.5" y="-340.5" font-family="Helvetica,sans-Serif" font-size="10.00">&#45; index</text>
<polyline fill="none" stroke="black" points="273.5,-333.5 403.5,-333.5 "/>
<text text-anchor="start" x="281.5" y="-321.5" font-family="Helvetica,sans-Serif" font-size="10.00">+ SaveableIterator()</text>
<text text-anchor="start" x="281.5" y="-310.5" font-family="Helvetica,sans-Serif" font-size="10.00">+ hasNext()</text>
<text text-anchor="start" x="281.5" y="-299.5" font-family="Helvetica,sans-Serif" font-size="10.00">+ next()</text>
<text text-anchor="start" x="281.5" y="-288.5" font-family="Helvetica,sans-Serif" font-size="10.00">+ remove()</text>
</a>
</g>
</g>
<!-- Node3&#45;&gt;Node1 -->
<g id="edge2" class="edge">
<title>Node3&#45;&gt;Node1</title>
<path fill="none" stroke="#404040" d="M338.5,-281.31C338.5,-251.69 338.5,-214.35 338.5,-180.2"/>
<polygon fill="none" stroke="#404040" points="338.5,-179.79 334.5,-173.79 338.5,-167.79 342.5,-173.79 338.5,-179.79"/>
<text text-anchor="middle" x="380.5" y="-189" font-family="Helvetica,sans-Serif" font-size="10.00"> &#45;commodityIterator</text>
</g>
<!-- Node4 -->
<g id="node4" class="node">
<title>Node4</title>
<g id="a_node4"><a xlink:href="../../da/db8/classcom_1_1fs_1_1starfarer_1_1api_1_1util_1_1IntervalUtil.html" target="_top" xlink:title=" ">
<polygon fill="none" stroke="black" points="422,-215.5 422,-459.5 541,-459.5 541,-215.5 422,-215.5"/>
<text text-anchor="start" x="430" y="-447.5" font-family="Helvetica,sans-Serif" font-size="10.00">com.fs.starfarer.api.util.</text>
<text text-anchor="middle" x="481.5" y="-436.5" font-family="Helvetica,sans-Serif" font-size="10.00">IntervalUtil</text>
<polyline fill="none" stroke="black" points="422,-429.5 541,-429.5 "/>
<text text-anchor="start" x="430" y="-417.5" font-family="Helvetica,sans-Serif" font-size="10.00">&#45; minInterval</text>
<text text-anchor="start" x="430" y="-406.5" font-family="Helvetica,sans-Serif" font-size="10.00">&#45; maxInterval</text>
<text text-anchor="start" x="430" y="-395.5" font-family="Helvetica,sans-Serif" font-size="10.00">&#45; currInterval</text>
<text text-anchor="start" x="430" y="-384.5" font-family="Helvetica,sans-Serif" font-size="10.00">&#45; elapsed</text>
<text text-anchor="start" x="430" y="-373.5" font-family="Helvetica,sans-Serif" font-size="10.00">&#45; intervalElapsed</text>
<polyline fill="none" stroke="black" points="422,-366.5 541,-366.5 "/>
<text text-anchor="start" x="430" y="-354.5" font-family="Helvetica,sans-Serif" font-size="10.00">+ IntervalUtil()</text>
<text text-anchor="start" x="430" y="-343.5" font-family="Helvetica,sans-Serif" font-size="10.00">+ forceCurrInterval()</text>
<text text-anchor="start" x="430" y="-332.5" font-family="Helvetica,sans-Serif" font-size="10.00">+ randomize()</text>
<text text-anchor="start" x="430" y="-321.5" font-family="Helvetica,sans-Serif" font-size="10.00">+ forceIntervalElapsed()</text>
<text text-anchor="start" x="430" y="-310.5" font-family="Helvetica,sans-Serif" font-size="10.00">+ getElapsed()</text>
<text text-anchor="start" x="430" y="-299.5" font-family="Helvetica,sans-Serif" font-size="10.00">+ advance()</text>
<text text-anchor="start" x="430" y="-288.5" font-family="Helvetica,sans-Serif" font-size="10.00">+ intervalElapsed()</text>
<text text-anchor="start" x="430" y="-277.5" font-family="Helvetica,sans-Serif" font-size="10.00">+ getIntervalDuration()</text>
<text text-anchor="start" x="430" y="-266.5" font-family="Helvetica,sans-Serif" font-size="10.00">+ setInterval()</text>
<text text-anchor="start" x="430" y="-255.5" font-family="Helvetica,sans-Serif" font-size="10.00">+ setElapsed()</text>
<text text-anchor="start" x="430" y="-244.5" font-family="Helvetica,sans-Serif" font-size="10.00">+ getMinInterval()</text>
<text text-anchor="start" x="430" y="-233.5" font-family="Helvetica,sans-Serif" font-size="10.00">+ getMaxInterval()</text>
<text text-anchor="start" x="430" y="-222.5" font-family="Helvetica,sans-Serif" font-size="10.00">&#45; nextInterval()</text>
</a>
</g>
</g>
<!-- Node4&#45;&gt;Node1 -->
<g id="edge3" class="edge">
<title>Node4&#45;&gt;Node1</title>
<path fill="none" stroke="#404040" d="M441.65,-215.16C437,-205.07 431.95,-195.22 426.5,-186 424.84,-183.19 423.09,-180.38 421.28,-177.58"/>
<polygon fill="none" stroke="#404040" points="421.19,-177.45 414.51,-174.74 414.44,-167.53 421.13,-170.24 421.19,-177.45"/>
<text text-anchor="middle" x="444.5" y="-189" font-family="Helvetica,sans-Serif" font-size="10.00"> &#45;timer</text>
</g>
</g>
</svg>
