<?xml version="1.0" encoding="UTF-8" standalone="no"?>
<!DOCTYPE svg PUBLIC "-//W3C//DTD SVG 1.1//EN"
 "http://www.w3.org/Graphics/SVG/1.1/DTD/svg11.dtd">
<!-- Generated by graphviz version 2.44.0 ()
 -->
<!-- Title: com.fs.starfarer.api.impl.combat.CryoblasterEffect.ParticleData Pages: 1 -->
<svg width="509pt" height="661pt"
 viewBox="0.00 0.00 508.50 661.00" xmlns="http://www.w3.org/2000/svg" xmlns:xlink="http://www.w3.org/1999/xlink">
<g id="graph0" class="graph" transform="scale(1 1) rotate(0) translate(4 657)">
<title>com.fs.starfarer.api.impl.combat.CryoblasterEffect.ParticleData</title>
<!-- Node1 -->
<g id="node1" class="node">
<title>Node1</title>
<g id="a_node1"><a xlink:title=" ">
<polygon fill="#bfbfbf" stroke="black" points="210.5,-0.5 210.5,-123.5 366.5,-123.5 366.5,-0.5 210.5,-0.5"/>
<text text-anchor="start" x="218.5" y="-111.5" font-family="Helvetica,sans-Serif" font-size="10.00">com.fs.starfarer.api.impl.combat.</text>
<text text-anchor="middle" x="288.5" y="-100.5" font-family="Helvetica,sans-Serif" font-size="10.00">CryoblasterEffect.ParticleData</text>
<polyline fill="none" stroke="black" points="210.5,-93.5 366.5,-93.5 "/>
<text text-anchor="start" x="218.5" y="-81.5" font-family="Helvetica,sans-Serif" font-size="10.00">+ scale</text>
<text text-anchor="start" x="218.5" y="-70.5" font-family="Helvetica,sans-Serif" font-size="10.00">+ scaleIncreaseRate</text>
<text text-anchor="start" x="218.5" y="-59.5" font-family="Helvetica,sans-Serif" font-size="10.00">+ turnDir</text>
<text text-anchor="start" x="218.5" y="-48.5" font-family="Helvetica,sans-Serif" font-size="10.00">+ angle</text>
<text text-anchor="start" x="218.5" y="-37.5" font-family="Helvetica,sans-Serif" font-size="10.00">+ maxDur</text>
<polyline fill="none" stroke="black" points="210.5,-30.5 366.5,-30.5 "/>
<text text-anchor="start" x="218.5" y="-18.5" font-family="Helvetica,sans-Serif" font-size="10.00">+ ParticleData()</text>
<text text-anchor="start" x="218.5" y="-7.5" font-family="Helvetica,sans-Serif" font-size="10.00">+ advance()</text>
</a>
</g>
</g>
<!-- Node2 -->
<g id="node2" class="node">
<title>Node2</title>
<g id="a_node2"><a xlink:href="../../d2/dd5/interfacecom_1_1fs_1_1starfarer_1_1api_1_1combat_1_1DamagingProjectileAPI.html" target="_top" xlink:title=" ">
<polygon fill="none" stroke="black" points="0,-226.5 0,-404.5 137,-404.5 137,-226.5 0,-226.5"/>
<text text-anchor="start" x="8" y="-392.5" font-family="Helvetica,sans-Serif" font-size="10.00">com.fs.starfarer.api.combat.</text>
<text text-anchor="middle" x="68.5" y="-381.5" font-family="Helvetica,sans-Serif" font-size="10.00">DamagingProjectileAPI</text>
<polyline fill="none" stroke="black" points="0,-374.5 137,-374.5 "/>
<text text-anchor="middle" x="68.5" y="-362.5" font-family="Helvetica,sans-Serif" font-size="10.00"> </text>
<polyline fill="none" stroke="black" points="0,-355.5 137,-355.5 "/>
<text text-anchor="start" x="8" y="-343.5" font-family="Helvetica,sans-Serif" font-size="10.00">+ getDamageType()</text>
<text text-anchor="start" x="8" y="-332.5" font-family="Helvetica,sans-Serif" font-size="10.00">+ getDamageAmount()</text>
<text text-anchor="start" x="8" y="-321.5" font-family="Helvetica,sans-Serif" font-size="10.00">+ getBaseDamageAmount()</text>
<text text-anchor="start" x="8" y="-310.5" font-family="Helvetica,sans-Serif" font-size="10.00">+ getEmpAmount()</text>
<text text-anchor="start" x="8" y="-299.5" font-family="Helvetica,sans-Serif" font-size="10.00">+ setDamageAmount()</text>
<text text-anchor="start" x="8" y="-288.5" font-family="Helvetica,sans-Serif" font-size="10.00">+ getWeapon()</text>
<text text-anchor="start" x="8" y="-277.5" font-family="Helvetica,sans-Serif" font-size="10.00">+ didDamage()</text>
<text text-anchor="start" x="8" y="-266.5" font-family="Helvetica,sans-Serif" font-size="10.00">+ getDamageTarget()</text>
<text text-anchor="start" x="8" y="-255.5" font-family="Helvetica,sans-Serif" font-size="10.00">+ getProjectileSpecId()</text>
<text text-anchor="start" x="8" y="-244.5" font-family="Helvetica,sans-Serif" font-size="10.00">+ getSource()</text>
<text text-anchor="start" x="8" y="-233.5" font-family="Helvetica,sans-Serif" font-size="10.00">and 15 more...</text>
</a>
</g>
</g>
<!-- Node2&#45;&gt;Node1 -->
<g id="edge1" class="edge">
<title>Node2&#45;&gt;Node1</title>
<path fill="none" stroke="#404040" d="M128.65,-226.28C134.51,-218.61 140.51,-211.08 146.5,-204 167.19,-179.52 191.41,-154.38 213.93,-132.22"/>
<polygon fill="none" stroke="#404040" points="214.21,-131.95 215.71,-124.9 222.79,-123.57 221.29,-130.62 214.21,-131.95"/>
<text text-anchor="middle" x="215" y="-161.5" font-family="Helvetica,sans-Serif" font-size="10.00"> +proj</text>
</g>
<!-- Node3 -->
<g id="node3" class="node">
<title>Node3</title>
<g id="a_node3"><a xlink:href="../../db/d65/interfacecom_1_1fs_1_1starfarer_1_1api_1_1combat_1_1CombatEntityAPI.html" target="_top" xlink:title=" ">
<polygon fill="none" stroke="black" points="0.5,-474.5 0.5,-652.5 136.5,-652.5 136.5,-474.5 0.5,-474.5"/>
<text text-anchor="start" x="8.5" y="-640.5" font-family="Helvetica,sans-Serif" font-size="10.00">com.fs.starfarer.api.combat.</text>
<text text-anchor="middle" x="68.5" y="-629.5" font-family="Helvetica,sans-Serif" font-size="10.00">CombatEntityAPI</text>
<polyline fill="none" stroke="black" points="0.5,-622.5 136.5,-622.5 "/>
<text text-anchor="middle" x="68.5" y="-610.5" font-family="Helvetica,sans-Serif" font-size="10.00"> </text>
<polyline fill="none" stroke="black" points="0.5,-603.5 136.5,-603.5 "/>
<text text-anchor="start" x="8.5" y="-591.5" font-family="Helvetica,sans-Serif" font-size="10.00">+ getLocation()</text>
<text text-anchor="start" x="8.5" y="-580.5" font-family="Helvetica,sans-Serif" font-size="10.00">+ getVelocity()</text>
<text text-anchor="start" x="8.5" y="-569.5" font-family="Helvetica,sans-Serif" font-size="10.00">+ getFacing()</text>
<text text-anchor="start" x="8.5" y="-558.5" font-family="Helvetica,sans-Serif" font-size="10.00">+ setFacing()</text>
<text text-anchor="start" x="8.5" y="-547.5" font-family="Helvetica,sans-Serif" font-size="10.00">+ getAngularVelocity()</text>
<text text-anchor="start" x="8.5" y="-536.5" font-family="Helvetica,sans-Serif" font-size="10.00">+ setAngularVelocity()</text>
<text text-anchor="start" x="8.5" y="-525.5" font-family="Helvetica,sans-Serif" font-size="10.00">+ getOwner()</text>
<text text-anchor="start" x="8.5" y="-514.5" font-family="Helvetica,sans-Serif" font-size="10.00">+ setOwner()</text>
<text text-anchor="start" x="8.5" y="-503.5" font-family="Helvetica,sans-Serif" font-size="10.00">+ getCollisionRadius()</text>
<text text-anchor="start" x="8.5" y="-492.5" font-family="Helvetica,sans-Serif" font-size="10.00">+ getCollisionClass()</text>
<text text-anchor="start" x="8.5" y="-481.5" font-family="Helvetica,sans-Serif" font-size="10.00">and 15 more...</text>
</a>
</g>
</g>
<!-- Node3&#45;&gt;Node2 -->
<g id="edge2" class="edge">
<title>Node3&#45;&gt;Node2</title>
<path fill="none" stroke="midnightblue" d="M68.5,-464.21C68.5,-444.59 68.5,-424.09 68.5,-404.83"/>
<polygon fill="none" stroke="midnightblue" points="65,-464.38 68.5,-474.38 72,-464.38 65,-464.38"/>
</g>
<!-- Node4 -->
<g id="node4" class="node">
<title>Node4</title>
<g id="a_node4"><a xlink:href="../../d4/d3e/classcom_1_1fs_1_1starfarer_1_1api_1_1util_1_1FaderUtil.html" target="_top" xlink:title=" ">
<polygon fill="none" stroke="black" points="155.5,-204.5 155.5,-426.5 271.5,-426.5 271.5,-204.5 155.5,-204.5"/>
<text text-anchor="start" x="163.5" y="-414.5" font-family="Helvetica,sans-Serif" font-size="10.00">com.fs.starfarer.api.util.</text>
<text text-anchor="middle" x="213.5" y="-403.5" font-family="Helvetica,sans-Serif" font-size="10.00">FaderUtil</text>
<polyline fill="none" stroke="black" points="155.5,-396.5 271.5,-396.5 "/>
<text text-anchor="start" x="163.5" y="-384.5" font-family="Helvetica,sans-Serif" font-size="10.00">~ durationOut</text>
<text text-anchor="start" x="163.5" y="-373.5" font-family="Helvetica,sans-Serif" font-size="10.00">&#45; currBrightness</text>
<text text-anchor="start" x="163.5" y="-362.5" font-family="Helvetica,sans-Serif" font-size="10.00">&#45; durationIn</text>
<text text-anchor="start" x="163.5" y="-351.5" font-family="Helvetica,sans-Serif" font-size="10.00">&#45; bounceDown</text>
<text text-anchor="start" x="163.5" y="-340.5" font-family="Helvetica,sans-Serif" font-size="10.00">&#45; bounceUp</text>
<polyline fill="none" stroke="black" points="155.5,-333.5 271.5,-333.5 "/>
<text text-anchor="start" x="163.5" y="-321.5" font-family="Helvetica,sans-Serif" font-size="10.00">+ FaderUtil()</text>
<text text-anchor="start" x="163.5" y="-310.5" font-family="Helvetica,sans-Serif" font-size="10.00">+ FaderUtil()</text>
<text text-anchor="start" x="163.5" y="-299.5" font-family="Helvetica,sans-Serif" font-size="10.00">+ FaderUtil()</text>
<text text-anchor="start" x="163.5" y="-288.5" font-family="Helvetica,sans-Serif" font-size="10.00">+ getState()</text>
<text text-anchor="start" x="163.5" y="-277.5" font-family="Helvetica,sans-Serif" font-size="10.00">+ setState()</text>
<text text-anchor="start" x="163.5" y="-266.5" font-family="Helvetica,sans-Serif" font-size="10.00">+ setBounceDown()</text>
<text text-anchor="start" x="163.5" y="-255.5" font-family="Helvetica,sans-Serif" font-size="10.00">+ setBounceUp()</text>
<text text-anchor="start" x="163.5" y="-244.5" font-family="Helvetica,sans-Serif" font-size="10.00">+ setBounce()</text>
<text text-anchor="start" x="163.5" y="-233.5" font-family="Helvetica,sans-Serif" font-size="10.00">+ forceIn()</text>
<text text-anchor="start" x="163.5" y="-222.5" font-family="Helvetica,sans-Serif" font-size="10.00">+ forceOut()</text>
<text text-anchor="start" x="163.5" y="-211.5" font-family="Helvetica,sans-Serif" font-size="10.00">and 18 more...</text>
</a>
</g>
</g>
<!-- Node4&#45;&gt;Node1 -->
<g id="edge3" class="edge">
<title>Node4&#45;&gt;Node1</title>
<path fill="none" stroke="#404040" d="M243.15,-204.26C249.02,-183.51 255.29,-162.04 261.5,-142 262.19,-139.77 262.9,-137.5 263.63,-135.22"/>
<polygon fill="none" stroke="#404040" points="263.66,-135.11 261.71,-128.17 267.36,-123.7 269.32,-130.64 263.66,-135.11"/>
<text text-anchor="middle" x="277" y="-161.5" font-family="Helvetica,sans-Serif" font-size="10.00"> +fader</text>
</g>
<!-- Node5 -->
<g id="node5" class="node">
<title>Node5</title>
<g id="a_node5"><a xlink:href="../../df/dae/enumcom_1_1fs_1_1starfarer_1_1api_1_1util_1_1FaderUtil_1_1State.html" target="_top" xlink:title=" ">
<polygon fill="none" stroke="black" points="155.5,-518.5 155.5,-608.5 271.5,-608.5 271.5,-518.5 155.5,-518.5"/>
<text text-anchor="start" x="163.5" y="-596.5" font-family="Helvetica,sans-Serif" font-size="10.00">com.fs.starfarer.api.util.</text>
<text text-anchor="middle" x="213.5" y="-585.5" font-family="Helvetica,sans-Serif" font-size="10.00">FaderUtil.State</text>
<polyline fill="none" stroke="black" points="155.5,-578.5 271.5,-578.5 "/>
<text text-anchor="start" x="163.5" y="-566.5" font-family="Helvetica,sans-Serif" font-size="10.00">+ IN</text>
<text text-anchor="start" x="163.5" y="-555.5" font-family="Helvetica,sans-Serif" font-size="10.00">+ OUT</text>
<text text-anchor="start" x="163.5" y="-544.5" font-family="Helvetica,sans-Serif" font-size="10.00">+ IDLE</text>
<polyline fill="none" stroke="black" points="155.5,-537.5 271.5,-537.5 "/>
<text text-anchor="middle" x="213.5" y="-525.5" font-family="Helvetica,sans-Serif" font-size="10.00"> </text>
</a>
</g>
</g>
<!-- Node5&#45;&gt;Node4 -->
<g id="edge4" class="edge">
<title>Node5&#45;&gt;Node4</title>
<path fill="none" stroke="#404040" d="M213.5,-518.24C213.5,-495.78 213.5,-467.29 213.5,-438.85"/>
<polygon fill="none" stroke="#404040" points="213.5,-438.68 209.5,-432.68 213.5,-426.68 217.5,-432.68 213.5,-438.68"/>
<text text-anchor="middle" x="227.5" y="-448" font-family="Helvetica,sans-Serif" font-size="10.00"> &#45;state</text>
</g>
<!-- Node6 -->
<g id="node6" class="node">
<title>Node6</title>
<g id="a_node6"><a xlink:title=" ">
<polygon fill="none" stroke="#bfbfbf" points="289,-287 289,-344 342,-344 342,-287 289,-287"/>
<text text-anchor="middle" x="315.5" y="-332" font-family="Helvetica,sans-Serif" font-size="10.00">Vector2f</text>
<polyline fill="none" stroke="#bfbfbf" points="289,-325 342,-325 "/>
<text text-anchor="middle" x="315.5" y="-313" font-family="Helvetica,sans-Serif" font-size="10.00"> </text>
<polyline fill="none" stroke="#bfbfbf" points="289,-306 342,-306 "/>
<text text-anchor="middle" x="315.5" y="-294" font-family="Helvetica,sans-Serif" font-size="10.00"> </text>
</a>
</g>
</g>
<!-- Node6&#45;&gt;Node1 -->
<g id="edge5" class="edge">
<title>Node6&#45;&gt;Node1</title>
<path fill="none" stroke="#404040" d="M312.51,-286.62C308.63,-250.53 301.73,-186.28 296.32,-135.88"/>
<polygon fill="none" stroke="#404040" points="296.3,-135.65 291.68,-130.11 295.02,-123.72 299.64,-129.26 296.3,-135.65"/>
<text text-anchor="middle" x="334" y="-178" font-family="Helvetica,sans-Serif" font-size="10.00"> +dirVelChange</text>
<text text-anchor="middle" x="334" y="-167" font-family="Helvetica,sans-Serif" font-size="10.00">+offset</text>
<text text-anchor="middle" x="334" y="-156" font-family="Helvetica,sans-Serif" font-size="10.00">+origVel</text>
<text text-anchor="middle" x="334" y="-145" font-family="Helvetica,sans-Serif" font-size="10.00">+vel</text>
</g>
<!-- Node7 -->
<g id="node7" class="node">
<title>Node7</title>
<g id="a_node7"><a xlink:href="../../db/d53/interfacecom_1_1fs_1_1starfarer_1_1api_1_1graphics_1_1SpriteAPI.html" target="_top" xlink:title=" ">
<polygon fill="none" stroke="black" points="360.5,-226.5 360.5,-404.5 500.5,-404.5 500.5,-226.5 360.5,-226.5"/>
<text text-anchor="start" x="368.5" y="-392.5" font-family="Helvetica,sans-Serif" font-size="10.00">com.fs.starfarer.api.graphics.</text>
<text text-anchor="middle" x="430.5" y="-381.5" font-family="Helvetica,sans-Serif" font-size="10.00">SpriteAPI</text>
<polyline fill="none" stroke="black" points="360.5,-374.5 500.5,-374.5 "/>
<text text-anchor="middle" x="430.5" y="-362.5" font-family="Helvetica,sans-Serif" font-size="10.00"> </text>
<polyline fill="none" stroke="black" points="360.5,-355.5 500.5,-355.5 "/>
<text text-anchor="start" x="368.5" y="-343.5" font-family="Helvetica,sans-Serif" font-size="10.00">+ setBlendFunc()</text>
<text text-anchor="start" x="368.5" y="-332.5" font-family="Helvetica,sans-Serif" font-size="10.00">+ setNormalBlend()</text>
<text text-anchor="start" x="368.5" y="-321.5" font-family="Helvetica,sans-Serif" font-size="10.00">+ setAdditiveBlend()</text>
<text text-anchor="start" x="368.5" y="-310.5" font-family="Helvetica,sans-Serif" font-size="10.00">+ setCenter()</text>
<text text-anchor="start" x="368.5" y="-299.5" font-family="Helvetica,sans-Serif" font-size="10.00">+ setSize()</text>
<text text-anchor="start" x="368.5" y="-288.5" font-family="Helvetica,sans-Serif" font-size="10.00">+ getAngle()</text>
<text text-anchor="start" x="368.5" y="-277.5" font-family="Helvetica,sans-Serif" font-size="10.00">+ setAngle()</text>
<text text-anchor="start" x="368.5" y="-266.5" font-family="Helvetica,sans-Serif" font-size="10.00">+ getColor()</text>
<text text-anchor="start" x="368.5" y="-255.5" font-family="Helvetica,sans-Serif" font-size="10.00">+ setColor()</text>
<text text-anchor="start" x="368.5" y="-244.5" font-family="Helvetica,sans-Serif" font-size="10.00">+ setHeight()</text>
<text text-anchor="start" x="368.5" y="-233.5" font-family="Helvetica,sans-Serif" font-size="10.00">and 24 more...</text>
</a>
</g>
</g>
<!-- Node7&#45;&gt;Node1 -->
<g id="edge6" class="edge">
<title>Node7&#45;&gt;Node1</title>
<path fill="none" stroke="#404040" d="M409.24,-226.12C400.16,-197.92 387.81,-167.45 371.5,-142 369.64,-139.09 367.65,-136.22 365.56,-133.39"/>
<polygon fill="none" stroke="#404040" points="365.52,-133.34 358.66,-131.11 358.08,-123.92 364.94,-126.15 365.52,-133.34"/>
<text text-anchor="middle" x="408" y="-161.5" font-family="Helvetica,sans-Serif" font-size="10.00"> +sprite</text>
</g>
</g>
</svg>
