<?xml version="1.0" encoding="UTF-8" standalone="no"?>
<!DOCTYPE svg PUBLIC "-//W3C//DTD SVG 1.1//EN"
 "http://www.w3.org/Graphics/SVG/1.1/DTD/svg11.dtd">
<!-- Generated by graphviz version 2.44.0 ()
 -->
<!-- Title: com.fs.starfarer.api.impl.campaign.missions.hub.HubMissionWithSearch.SearchData Pages: 1 -->
<!--zoomable 204 -->
<svg id="main" version="1.1" xmlns="http://www.w3.org/2000/svg" xmlns:xlink="http://www.w3.org/1999/xlink" xml:space="preserve" onload="init(evt)">
<style type="text/css"><![CDATA[
.edge:hover path { stroke: red; }
.edge:hover polygon { stroke: red; fill: red; }
]]></style>
<script type="text/javascript"><![CDATA[
var edges = document.getElementsByTagName('g');
if (edges && edges.length) {
  for (var i=0;i<edges.length;i++) {
    if (edges[i].id.substr(0,4)=='edge') {
      edges[i].setAttribute('class','edge');
    }
  }
}
]]></script>
        <defs>
                <circle id="rim" cx="0" cy="0" r="7"/>
                <circle id="rim2" cx="0" cy="0" r="3.5"/>
                <g id="zoomPlus">
                        <use xlink:href="#rim" fill="#404040">
                                <set attributeName="fill" to="#808080" begin="zoomplus.mouseover" end="zoomplus.mouseout"/>
                        </use>
                        <path d="M-4,0h8M0,-4v8" fill="none" stroke="white" stroke-width="1.5" pointer-events="none"/>
                </g>
                <g id="zoomMin">
                        <use xlink:href="#rim" fill="#404040">
                                <set attributeName="fill" to="#808080" begin="zoomminus.mouseover" end="zoomminus.mouseout"/>
                        </use>
                        <path d="M-4,0h8" fill="none" stroke="white" stroke-width="1.5" pointer-events="none"/>
                </g>
                <g id="dirArrow">
                        <path fill="none" stroke="white" stroke-width="1.5" d="M0,-3.0v7 M-2.5,-0.5L0,-3.0L2.5,-0.5"/>
                </g>
               <g id="resetDef">
                       <use xlink:href="#rim2" fill="#404040">
                               <set attributeName="fill" to="#808080" begin="reset.mouseover" end="reset.mouseout"/>
                       </use>
               </g>
        </defs>

<script type="text/javascript">
var viewWidth = 1998;
var viewHeight = 204;
var sectionId = 'dynsection-0';
</script>
<script xlink:href="../../svgpan.js"/>
<svg id="graph" class="graph">
<g id="viewport">
<title>com.fs.starfarer.api.impl.campaign.missions.hub.HubMissionWithSearch.SearchData</title>
<!-- Node1 -->
<g id="node1" class="node">
<title>Node1</title>
<g id="a_node1"><a xlink:title=" ">
<polygon fill="#bfbfbf" stroke="black" points="894.5,-0.5 894.5,-68.5 1119.5,-68.5 1119.5,-0.5 894.5,-0.5"/>
<text text-anchor="start" x="902.5" y="-56.5" font-family="Helvetica,sans-Serif" font-size="10.00">com.fs.starfarer.api.impl.campaign.missions.hub.</text>
<text text-anchor="middle" x="1007" y="-45.5" font-family="Helvetica,sans-Serif" font-size="10.00">HubMissionWithSearch.SearchData</text>
<polyline fill="none" stroke="black" points="894.5,-38.5 1119.5,-38.5 "/>
<text text-anchor="middle" x="1007" y="-26.5" font-family="Helvetica,sans-Serif" font-size="10.00"> </text>
<polyline fill="none" stroke="black" points="894.5,-19.5 1119.5,-19.5 "/>
<text text-anchor="middle" x="1007" y="-7.5" font-family="Helvetica,sans-Serif" font-size="10.00"> </text>
</a>
</g>
</g>
<!-- Node2 -->
<g id="node2" class="node">
<title>Node2</title>
<g id="a_node2"><a xlink:title=" ">
<polygon fill="none" stroke="#bfbfbf" points="0,-127.5 0,-195.5 250,-195.5 250,-127.5 0,-127.5"/>
<text text-anchor="start" x="8" y="-183.5" font-family="Helvetica,sans-Serif" font-size="10.00">List&lt; com.fs.starfarer.api.impl.campaign.missions.hub.</text>
<text text-anchor="middle" x="125" y="-172.5" font-family="Helvetica,sans-Serif" font-size="10.00">HubMissionWithSearch.PlanetRequirement &gt;</text>
<polyline fill="none" stroke="#bfbfbf" points="0,-165.5 250,-165.5 "/>
<text text-anchor="middle" x="125" y="-153.5" font-family="Helvetica,sans-Serif" font-size="10.00"> </text>
<polyline fill="none" stroke="#bfbfbf" points="0,-146.5 250,-146.5 "/>
<text text-anchor="middle" x="125" y="-134.5" font-family="Helvetica,sans-Serif" font-size="10.00"> </text>
</a>
</g>
</g>
<!-- Node2&#45;&gt;Node1 -->
<g id="edge1" class="edge">
<title>Node2&#45;&gt;Node1</title>
<path fill="none" stroke="#404040" d="M250.09,-128.78C253.08,-128.17 256.06,-127.57 259,-127 476.2,-84.84 732.88,-58.45 882.07,-45.39"/>
<polygon fill="none" stroke="#404040" points="882.44,-45.36 888.07,-40.86 894.4,-44.32 888.77,-48.83 882.44,-45.36"/>
<text text-anchor="middle" x="534" y="-101" font-family="Helvetica,sans-Serif" font-size="10.00"> +planetPrefs</text>
<text text-anchor="middle" x="534" y="-90" font-family="Helvetica,sans-Serif" font-size="10.00">+planetReqs</text>
</g>
<!-- Node3 -->
<g id="node3" class="node">
<title>Node3</title>
<g id="a_node3"><a xlink:title=" ">
<polygon fill="none" stroke="#bfbfbf" points="268,-127.5 268,-195.5 518,-195.5 518,-127.5 268,-127.5"/>
<text text-anchor="start" x="276" y="-183.5" font-family="Helvetica,sans-Serif" font-size="10.00">List&lt; com.fs.starfarer.api.impl.campaign.missions.hub.</text>
<text text-anchor="middle" x="393" y="-172.5" font-family="Helvetica,sans-Serif" font-size="10.00">HubMissionWithSearch.GenericRequirement &gt;</text>
<polyline fill="none" stroke="#bfbfbf" points="268,-165.5 518,-165.5 "/>
<text text-anchor="middle" x="393" y="-153.5" font-family="Helvetica,sans-Serif" font-size="10.00"> </text>
<polyline fill="none" stroke="#bfbfbf" points="268,-146.5 518,-146.5 "/>
<text text-anchor="middle" x="393" y="-134.5" font-family="Helvetica,sans-Serif" font-size="10.00"> </text>
</a>
</g>
</g>
<!-- Node3&#45;&gt;Node1 -->
<g id="edge2" class="edge">
<title>Node3&#45;&gt;Node1</title>
<path fill="none" stroke="#404040" d="M518.15,-129.07C521.13,-128.37 524.08,-127.68 527,-127 609.36,-107.85 630.01,-103.19 713,-87 768.44,-76.19 829.98,-65.24 882.36,-56.24"/>
<polygon fill="none" stroke="#404040" points="882.6,-56.2 887.84,-51.25 894.43,-54.18 889.19,-59.13 882.6,-56.2"/>
<text text-anchor="middle" x="745" y="-101" font-family="Helvetica,sans-Serif" font-size="10.00"> +systemPrefs</text>
<text text-anchor="middle" x="745" y="-90" font-family="Helvetica,sans-Serif" font-size="10.00">+systemReqs</text>
</g>
<!-- Node4 -->
<g id="node4" class="node">
<title>Node4</title>
<g id="a_node4"><a xlink:title=" ">
<polygon fill="none" stroke="#bfbfbf" points="536,-127.5 536,-195.5 730,-195.5 730,-127.5 536,-127.5"/>
<text text-anchor="start" x="544" y="-183.5" font-family="Helvetica,sans-Serif" font-size="10.00">List&lt; com.fs.starfarer.api.campaign.econ.</text>
<text text-anchor="middle" x="633" y="-172.5" font-family="Helvetica,sans-Serif" font-size="10.00">MarketAPI &gt;</text>
<polyline fill="none" stroke="#bfbfbf" points="536,-165.5 730,-165.5 "/>
<text text-anchor="middle" x="633" y="-153.5" font-family="Helvetica,sans-Serif" font-size="10.00"> </text>
<polyline fill="none" stroke="#bfbfbf" points="536,-146.5 730,-146.5 "/>
<text text-anchor="middle" x="633" y="-134.5" font-family="Helvetica,sans-Serif" font-size="10.00"> </text>
</a>
</g>
</g>
<!-- Node4&#45;&gt;Node1 -->
<g id="edge3" class="edge">
<title>Node4&#45;&gt;Node1</title>
<path fill="none" stroke="#404040" d="M726.75,-127.41C763.54,-114.58 806.18,-99.9 845,-87 859.51,-82.18 874.77,-77.2 889.9,-72.33"/>
<polygon fill="none" stroke="#404040" points="890,-72.3 894.49,-66.65 901.43,-68.63 896.94,-74.27 890,-72.3"/>
<text text-anchor="middle" x="886.5" y="-101" font-family="Helvetica,sans-Serif" font-size="10.00"> ~matchingMarkets</text>
<text text-anchor="middle" x="886.5" y="-90" font-family="Helvetica,sans-Serif" font-size="10.00">~preferredMarkets</text>
</g>
<!-- Node5 -->
<g id="node5" class="node">
<title>Node5</title>
<g id="a_node5"><a xlink:title=" ">
<polygon fill="none" stroke="#bfbfbf" points="748,-127.5 748,-195.5 998,-195.5 998,-127.5 748,-127.5"/>
<text text-anchor="start" x="756" y="-183.5" font-family="Helvetica,sans-Serif" font-size="10.00">List&lt; com.fs.starfarer.api.impl.campaign.missions.hub.</text>
<text text-anchor="middle" x="873" y="-172.5" font-family="Helvetica,sans-Serif" font-size="10.00">HubMissionWithSearch.TerrainRequirement &gt;</text>
<polyline fill="none" stroke="#bfbfbf" points="748,-165.5 998,-165.5 "/>
<text text-anchor="middle" x="873" y="-153.5" font-family="Helvetica,sans-Serif" font-size="10.00"> </text>
<polyline fill="none" stroke="#bfbfbf" points="748,-146.5 998,-146.5 "/>
<text text-anchor="middle" x="873" y="-134.5" font-family="Helvetica,sans-Serif" font-size="10.00"> </text>
</a>
</g>
</g>
<!-- Node5&#45;&gt;Node1 -->
<g id="edge4" class="edge">
<title>Node5&#45;&gt;Node1</title>
<path fill="none" stroke="#404040" d="M908.56,-127.33C925.06,-111.93 944.86,-93.46 962.36,-77.14"/>
<polygon fill="none" stroke="#404040" points="962.5,-77.01 964.16,-69.99 971.28,-68.82 969.62,-75.84 962.5,-77.01"/>
<text text-anchor="middle" x="978.5" y="-101" font-family="Helvetica,sans-Serif" font-size="10.00"> +terrainPrefs</text>
<text text-anchor="middle" x="978.5" y="-90" font-family="Helvetica,sans-Serif" font-size="10.00">+terrainReqs</text>
</g>
<!-- Node6 -->
<g id="node6" class="node">
<title>Node6</title>
<g id="a_node6"><a xlink:title=" ">
<polygon fill="none" stroke="#bfbfbf" points="1016,-127.5 1016,-195.5 1266,-195.5 1266,-127.5 1016,-127.5"/>
<text text-anchor="start" x="1024" y="-183.5" font-family="Helvetica,sans-Serif" font-size="10.00">List&lt; com.fs.starfarer.api.impl.campaign.missions.hub.</text>
<text text-anchor="middle" x="1141" y="-172.5" font-family="Helvetica,sans-Serif" font-size="10.00">HubMissionWithSearch.EntityRequirement &gt;</text>
<polyline fill="none" stroke="#bfbfbf" points="1016,-165.5 1266,-165.5 "/>
<text text-anchor="middle" x="1141" y="-153.5" font-family="Helvetica,sans-Serif" font-size="10.00"> </text>
<polyline fill="none" stroke="#bfbfbf" points="1016,-146.5 1266,-146.5 "/>
<text text-anchor="middle" x="1141" y="-134.5" font-family="Helvetica,sans-Serif" font-size="10.00"> </text>
</a>
</g>
</g>
<!-- Node6&#45;&gt;Node1 -->
<g id="edge5" class="edge">
<title>Node6&#45;&gt;Node1</title>
<path fill="none" stroke="#404040" d="M1105.44,-127.33C1088.94,-111.93 1069.14,-93.46 1051.64,-77.14"/>
<polygon fill="none" stroke="#404040" points="1051.5,-77.01 1044.38,-75.84 1042.72,-68.82 1049.84,-69.99 1051.5,-77.01"/>
<text text-anchor="middle" x="1110.5" y="-101" font-family="Helvetica,sans-Serif" font-size="10.00"> +entityPrefs</text>
<text text-anchor="middle" x="1110.5" y="-90" font-family="Helvetica,sans-Serif" font-size="10.00">+entityReqs</text>
</g>
<!-- Node7 -->
<g id="node7" class="node">
<title>Node7</title>
<g id="a_node7"><a xlink:title=" ">
<polygon fill="none" stroke="#bfbfbf" points="1284,-127.5 1284,-195.5 1454,-195.5 1454,-127.5 1284,-127.5"/>
<text text-anchor="start" x="1292" y="-183.5" font-family="Helvetica,sans-Serif" font-size="10.00">List&lt; com.fs.starfarer.api.campaign.</text>
<text text-anchor="middle" x="1369" y="-172.5" font-family="Helvetica,sans-Serif" font-size="10.00">StarSystemAPI &gt;</text>
<polyline fill="none" stroke="#bfbfbf" points="1284,-165.5 1454,-165.5 "/>
<text text-anchor="middle" x="1369" y="-153.5" font-family="Helvetica,sans-Serif" font-size="10.00"> </text>
<polyline fill="none" stroke="#bfbfbf" points="1284,-146.5 1454,-146.5 "/>
<text text-anchor="middle" x="1369" y="-134.5" font-family="Helvetica,sans-Serif" font-size="10.00"> </text>
</a>
</g>
</g>
<!-- Node7&#45;&gt;Node1 -->
<g id="edge6" class="edge">
<title>Node7&#45;&gt;Node1</title>
<path fill="none" stroke="#404040" d="M1283.96,-130.14C1280.94,-129.08 1277.94,-128.03 1275,-127 1222.89,-108.82 1164.95,-88.99 1116.32,-72.45"/>
<polygon fill="none" stroke="#404040" points="1116.17,-72.4 1109.2,-74.26 1104.81,-68.54 1111.77,-66.69 1116.17,-72.4"/>
<text text-anchor="middle" x="1260" y="-101" font-family="Helvetica,sans-Serif" font-size="10.00"> ~matchingSystems</text>
<text text-anchor="middle" x="1260" y="-90" font-family="Helvetica,sans-Serif" font-size="10.00">~preferredSystems</text>
</g>
<!-- Node8 -->
<g id="node8" class="node">
<title>Node8</title>
<g id="a_node8"><a xlink:title=" ">
<polygon fill="none" stroke="#bfbfbf" points="1472,-127.5 1472,-195.5 1722,-195.5 1722,-127.5 1472,-127.5"/>
<text text-anchor="start" x="1480" y="-183.5" font-family="Helvetica,sans-Serif" font-size="10.00">List&lt; com.fs.starfarer.api.impl.campaign.missions.hub.</text>
<text text-anchor="middle" x="1597" y="-172.5" font-family="Helvetica,sans-Serif" font-size="10.00">HubMissionWithSearch.CommodityRequirement &gt;</text>
<polyline fill="none" stroke="#bfbfbf" points="1472,-165.5 1722,-165.5 "/>
<text text-anchor="middle" x="1597" y="-153.5" font-family="Helvetica,sans-Serif" font-size="10.00"> </text>
<polyline fill="none" stroke="#bfbfbf" points="1472,-146.5 1722,-146.5 "/>
<text text-anchor="middle" x="1597" y="-134.5" font-family="Helvetica,sans-Serif" font-size="10.00"> </text>
</a>
</g>
</g>
<!-- Node8&#45;&gt;Node1 -->
<g id="edge7" class="edge">
<title>Node8&#45;&gt;Node1</title>
<path fill="none" stroke="#404040" d="M1475.44,-127.44C1423.73,-113.96 1362.63,-98.81 1307,-87 1249.69,-74.84 1185.75,-63.55 1131.68,-54.66"/>
<polygon fill="none" stroke="#404040" points="1131.43,-54.62 1124.86,-57.6 1119.59,-52.69 1126.15,-49.71 1131.43,-54.62"/>
<text text-anchor="middle" x="1434.5" y="-101" font-family="Helvetica,sans-Serif" font-size="10.00"> +commodityPrefs</text>
<text text-anchor="middle" x="1434.5" y="-90" font-family="Helvetica,sans-Serif" font-size="10.00">+commodityReqs</text>
</g>
<!-- Node9 -->
<g id="node9" class="node">
<title>Node9</title>
<g id="a_node9"><a xlink:title=" ">
<polygon fill="none" stroke="#bfbfbf" points="1740,-127.5 1740,-195.5 1990,-195.5 1990,-127.5 1740,-127.5"/>
<text text-anchor="start" x="1748" y="-183.5" font-family="Helvetica,sans-Serif" font-size="10.00">List&lt; com.fs.starfarer.api.impl.campaign.missions.hub.</text>
<text text-anchor="middle" x="1865" y="-172.5" font-family="Helvetica,sans-Serif" font-size="10.00">HubMissionWithSearch.MarketRequirement &gt;</text>
<polyline fill="none" stroke="#bfbfbf" points="1740,-165.5 1990,-165.5 "/>
<text text-anchor="middle" x="1865" y="-153.5" font-family="Helvetica,sans-Serif" font-size="10.00"> </text>
<polyline fill="none" stroke="#bfbfbf" points="1740,-146.5 1990,-146.5 "/>
<text text-anchor="middle" x="1865" y="-134.5" font-family="Helvetica,sans-Serif" font-size="10.00"> </text>
</a>
</g>
</g>
<!-- Node9&#45;&gt;Node1 -->
<g id="edge8" class="edge">
<title>Node9&#45;&gt;Node1</title>
<path fill="none" stroke="#404040" d="M1739.9,-128.86C1736.91,-128.22 1733.94,-127.6 1731,-127 1522.85,-84.61 1276.8,-58.5 1131.78,-45.53"/>
<polygon fill="none" stroke="#404040" points="1131.74,-45.52 1125.41,-48.98 1119.79,-44.46 1126.12,-41.01 1131.74,-45.52"/>
<text text-anchor="middle" x="1664" y="-101" font-family="Helvetica,sans-Serif" font-size="10.00"> +marketPrefs</text>
<text text-anchor="middle" x="1664" y="-90" font-family="Helvetica,sans-Serif" font-size="10.00">+marketReqs</text>
</g>
</g>
</svg>
        <g id="navigator" transform="translate(0 0)" fill="#404254">
                <rect fill="#f2f5e9" fill-opacity="0.5" stroke="#606060" stroke-width=".5" x="0" y="0" width="60" height="60"/>
                <use id="zoomplus" xlink:href="#zoomPlus" x="17" y="9" onmousedown="handleZoom(evt,'in')"/>
                <use id="zoomminus" xlink:href="#zoomMin" x="42" y="9" onmousedown="handleZoom(evt,'out')"/>
                <use id="reset" xlink:href="#resetDef" x="30" y="36" onmousedown="handleReset()"/>
                <g id="arrowUp" xlink:href="#dirArrow" transform="translate(30 24)" onmousedown="handlePan(0,-1)">
                  <use xlink:href="#rim" fill="#404040">
                        <set attributeName="fill" to="#808080" begin="arrowUp.mouseover" end="arrowUp.mouseout"/>
                  </use>
                  <path fill="none" stroke="white" stroke-width="1.5" d="M0,-3.0v7 M-2.5,-0.5L0,-3.0L2.5,-0.5"/>
                </g>
                <g id="arrowRight" xlink:href="#dirArrow" transform="rotate(90) translate(36 -43)" onmousedown="handlePan(1,0)">
                  <use xlink:href="#rim" fill="#404040">
                        <set attributeName="fill" to="#808080" begin="arrowRight.mouseover" end="arrowRight.mouseout"/>
                  </use>
                  <path fill="none" stroke="white" stroke-width="1.5" d="M0,-3.0v7 M-2.5,-0.5L0,-3.0L2.5,-0.5"/>
                </g>
                <g id="arrowDown" xlink:href="#dirArrow" transform="rotate(180) translate(-30 -48)" onmousedown="handlePan(0,1)">
                  <use xlink:href="#rim" fill="#404040">
                        <set attributeName="fill" to="#808080" begin="arrowDown.mouseover" end="arrowDown.mouseout"/>
                  </use>
                  <path fill="none" stroke="white" stroke-width="1.5" d="M0,-3.0v7 M-2.5,-0.5L0,-3.0L2.5,-0.5"/>
                </g>
                <g id="arrowLeft" xlink:href="#dirArrow" transform="rotate(270) translate(-36 17)" onmousedown="handlePan(-1,0)">
                  <use xlink:href="#rim" fill="#404040">
                        <set attributeName="fill" to="#808080" begin="arrowLeft.mouseover" end="arrowLeft.mouseout"/>
                  </use>
                  <path fill="none" stroke="white" stroke-width="1.5" d="M0,-3.0v7 M-2.5,-0.5L0,-3.0L2.5,-0.5"/>
                </g>
        </g>
        <svg viewBox="0 0 15 15" width="100%" height="30px" preserveAspectRatio="xMaxYMin meet">
         <g id="arrow_out" transform="scale(0.3 0.3)">
          <a xlink:href="classcom_1_1fs_1_1starfarer_1_1api_1_1impl_1_1campaign_1_1missions_1_1hub_1_1HubMissionWithSearch_1_1SearchData__coll__graph_org.svg" target="_base">
           <rect id="button" ry="5" rx="5" y="6" x="6" height="38" width="38"
                fill="#f2f5e9" fill-opacity="0.5" stroke="#606060" stroke-width="1.0"/>
           <path id="arrow"
             d="M 11.500037,31.436501 C 11.940474,20.09759 22.043105,11.32322 32.158766,21.979434 L 37.068811,17.246167 C 37.068811,17.246167 37.088388,32 37.088388,32 L 22.160133,31.978069 C 22.160133,31.978069 26.997745,27.140456 26.997745,27.140456 C 18.528582,18.264221 13.291696,25.230495 11.500037,31.436501 z"
             style="fill:#404040;"/>
          </a>
         </g>
        </svg>
</svg>
