<?xml version="1.0" encoding="UTF-8" standalone="no"?>
<!DOCTYPE svg PUBLIC "-//W3C//DTD SVG 1.1//EN"
 "http://www.w3.org/Graphics/SVG/1.1/DTD/svg11.dtd">
<!-- Generated by graphviz version 2.44.0 ()
 -->
<!-- Title: com.fs.starfarer.api.impl.campaign.procgen.ConstellationGen.SpringNode Pages: 1 -->
<svg width="306pt" height="248pt"
 viewBox="0.00 0.00 306.00 248.00" xmlns="http://www.w3.org/2000/svg" xmlns:xlink="http://www.w3.org/1999/xlink">
<g id="graph0" class="graph" transform="scale(1 1) rotate(0) translate(4 244)">
<title>com.fs.starfarer.api.impl.campaign.procgen.ConstellationGen.SpringNode</title>
<!-- Node1 -->
<g id="node1" class="node">
<title>Node1</title>
<g id="a_node1"><a xlink:title=" ">
<polygon fill="#bfbfbf" stroke="black" points="4,-0.5 4,-101.5 207,-101.5 207,-0.5 4,-0.5"/>
<text text-anchor="start" x="12" y="-89.5" font-family="Helvetica,sans-Serif" font-size="10.00">com.fs.starfarer.api.impl.campaign.procgen.</text>
<text text-anchor="middle" x="105.5" y="-78.5" font-family="Helvetica,sans-Serif" font-size="10.00">ConstellationGen.SpringNode</text>
<polyline fill="none" stroke="black" points="4,-71.5 207,-71.5 "/>
<text text-anchor="start" x="12" y="-59.5" font-family="Helvetica,sans-Serif" font-size="10.00">+ custom</text>
<text text-anchor="start" x="12" y="-48.5" font-family="Helvetica,sans-Serif" font-size="10.00">+ radius</text>
<text text-anchor="start" x="12" y="-37.5" font-family="Helvetica,sans-Serif" font-size="10.00">+ mass</text>
<text text-anchor="start" x="12" y="-26.5" font-family="Helvetica,sans-Serif" font-size="10.00">+ moveable</text>
<polyline fill="none" stroke="black" points="4,-19.5 207,-19.5 "/>
<text text-anchor="middle" x="105.5" y="-7.5" font-family="Helvetica,sans-Serif" font-size="10.00"> </text>
</a>
</g>
</g>
<!-- Node2 -->
<g id="node2" class="node">
<title>Node2</title>
<g id="a_node2"><a xlink:title=" ">
<polygon fill="none" stroke="#bfbfbf" points="0,-177 0,-234 53,-234 53,-177 0,-177"/>
<text text-anchor="middle" x="26.5" y="-222" font-family="Helvetica,sans-Serif" font-size="10.00">Vector2f</text>
<polyline fill="none" stroke="#bfbfbf" points="0,-215 53,-215 "/>
<text text-anchor="middle" x="26.5" y="-203" font-family="Helvetica,sans-Serif" font-size="10.00"> </text>
<polyline fill="none" stroke="#bfbfbf" points="0,-196 53,-196 "/>
<text text-anchor="middle" x="26.5" y="-184" font-family="Helvetica,sans-Serif" font-size="10.00"> </text>
</a>
</g>
</g>
<!-- Node2&#45;&gt;Node1 -->
<g id="edge1" class="edge">
<title>Node2&#45;&gt;Node1</title>
<path fill="none" stroke="#404040" d="M40.81,-176.88C50.13,-158.89 62.67,-134.68 74.22,-112.38"/>
<polygon fill="none" stroke="#404040" points="74.28,-112.27 73.49,-105.1 79.8,-101.61 80.59,-108.78 74.28,-112.27"/>
<text text-anchor="middle" x="84" y="-145" font-family="Helvetica,sans-Serif" font-size="10.00"> +force</text>
<text text-anchor="middle" x="84" y="-134" font-family="Helvetica,sans-Serif" font-size="10.00">+loc</text>
<text text-anchor="middle" x="84" y="-123" font-family="Helvetica,sans-Serif" font-size="10.00">+vel</text>
</g>
<!-- Node3 -->
<g id="node3" class="node">
<title>Node3</title>
<g id="a_node3"><a xlink:title=" ">
<polygon fill="none" stroke="#bfbfbf" points="71,-171.5 71,-239.5 298,-239.5 298,-171.5 71,-171.5"/>
<text text-anchor="start" x="79" y="-227.5" font-family="Helvetica,sans-Serif" font-size="10.00">List&lt; com.fs.starfarer.api.impl.campaign.procgen.</text>
<text text-anchor="middle" x="184.5" y="-216.5" font-family="Helvetica,sans-Serif" font-size="10.00">ConstellationGen.SpringConnection &gt;</text>
<polyline fill="none" stroke="#bfbfbf" points="71,-209.5 298,-209.5 "/>
<text text-anchor="middle" x="184.5" y="-197.5" font-family="Helvetica,sans-Serif" font-size="10.00"> </text>
<polyline fill="none" stroke="#bfbfbf" points="71,-190.5 298,-190.5 "/>
<text text-anchor="middle" x="184.5" y="-178.5" font-family="Helvetica,sans-Serif" font-size="10.00"> </text>
</a>
</g>
</g>
<!-- Node3&#45;&gt;Node1 -->
<g id="edge2" class="edge">
<title>Node3&#45;&gt;Node1</title>
<path fill="none" stroke="#404040" d="M167.36,-171.41C158.4,-154.11 147.14,-132.39 136.7,-112.23"/>
<polygon fill="none" stroke="#404040" points="136.69,-112.2 130.38,-108.71 131.17,-101.55 137.48,-105.03 136.69,-112.2"/>
<text text-anchor="middle" x="187" y="-134" font-family="Helvetica,sans-Serif" font-size="10.00"> +connections</text>
</g>
</g>
</svg>
