<?xml version="1.0" encoding="UTF-8" standalone="no"?>
<!DOCTYPE svg PUBLIC "-//W3C//DTD SVG 1.1//EN"
 "http://www.w3.org/Graphics/SVG/1.1/DTD/svg11.dtd">
<!-- Generated by graphviz version 2.44.0 ()
 -->
<!-- Title: com.fs.starfarer.api.impl.campaign.missions.hub.MissionTrigger.TriggerActionContext Pages: 1 -->
<!--zoomable 891 -->
<svg id="main" version="1.1" xmlns="http://www.w3.org/2000/svg" xmlns:xlink="http://www.w3.org/1999/xlink" xml:space="preserve" onload="init(evt)">
<style type="text/css"><![CDATA[
.edge:hover path { stroke: red; }
.edge:hover polygon { stroke: red; fill: red; }
]]></style>
<script type="text/javascript"><![CDATA[
var edges = document.getElementsByTagName('g');
if (edges && edges.length) {
  for (var i=0;i<edges.length;i++) {
    if (edges[i].id.substr(0,4)=='edge') {
      edges[i].setAttribute('class','edge');
    }
  }
}
]]></script>
        <defs>
                <circle id="rim" cx="0" cy="0" r="7"/>
                <circle id="rim2" cx="0" cy="0" r="3.5"/>
                <g id="zoomPlus">
                        <use xlink:href="#rim" fill="#404040">
                                <set attributeName="fill" to="#808080" begin="zoomplus.mouseover" end="zoomplus.mouseout"/>
                        </use>
                        <path d="M-4,0h8M0,-4v8" fill="none" stroke="white" stroke-width="1.5" pointer-events="none"/>
                </g>
                <g id="zoomMin">
                        <use xlink:href="#rim" fill="#404040">
                                <set attributeName="fill" to="#808080" begin="zoomminus.mouseover" end="zoomminus.mouseout"/>
                        </use>
                        <path d="M-4,0h8" fill="none" stroke="white" stroke-width="1.5" pointer-events="none"/>
                </g>
                <g id="dirArrow">
                        <path fill="none" stroke="white" stroke-width="1.5" d="M0,-3.0v7 M-2.5,-0.5L0,-3.0L2.5,-0.5"/>
                </g>
               <g id="resetDef">
                       <use xlink:href="#rim2" fill="#404040">
                               <set attributeName="fill" to="#808080" begin="reset.mouseover" end="reset.mouseout"/>
                       </use>
               </g>
        </defs>

<script type="text/javascript">
var viewWidth = 1512;
var viewHeight = 891;
var sectionId = 'dynsection-0';
</script>
<script xlink:href="../../svgpan.js"/>
<svg id="graph" class="graph">
<g id="viewport">
<title>com.fs.starfarer.api.impl.campaign.missions.hub.MissionTrigger.TriggerActionContext</title>
<!-- Node1 -->
<g id="node1" class="node">
<title>Node1</title>
<g id="a_node1"><a xlink:title=" ">
<polygon fill="#bfbfbf" stroke="black" points="646.8,-0.5 646.8,-134.5 871.8,-134.5 871.8,-0.5 646.8,-0.5"/>
<text text-anchor="start" x="654.8" y="-122.5" font-family="Helvetica,sans-Serif" font-size="10.00">com.fs.starfarer.api.impl.campaign.missions.hub.</text>
<text text-anchor="middle" x="759.3" y="-111.5" font-family="Helvetica,sans-Serif" font-size="10.00">MissionTrigger.TriggerActionContext</text>
<polyline fill="none" stroke="black" points="646.8,-104.5 871.8,-104.5 "/>
<text text-anchor="start" x="654.8" y="-92.5" font-family="Helvetica,sans-Serif" font-size="10.00">+ counter</text>
<text text-anchor="start" x="654.8" y="-81.5" font-family="Helvetica,sans-Serif" font-size="10.00">+ custom1</text>
<text text-anchor="start" x="654.8" y="-70.5" font-family="Helvetica,sans-Serif" font-size="10.00">+ custom2</text>
<text text-anchor="start" x="654.8" y="-59.5" font-family="Helvetica,sans-Serif" font-size="10.00">+ custom3</text>
<text text-anchor="start" x="654.8" y="-48.5" font-family="Helvetica,sans-Serif" font-size="10.00">+ patrolText</text>
<text text-anchor="start" x="654.8" y="-37.5" font-family="Helvetica,sans-Serif" font-size="10.00">+ travelText</text>
<text text-anchor="start" x="654.8" y="-26.5" font-family="Helvetica,sans-Serif" font-size="10.00">+ makeAllFleetFlagsPermanent</text>
<polyline fill="none" stroke="black" points="646.8,-19.5 871.8,-19.5 "/>
<text text-anchor="start" x="654.8" y="-7.5" font-family="Helvetica,sans-Serif" font-size="10.00">+ TriggerActionContext()</text>
</a>
</g>
</g>
<!-- Node2 -->
<g id="node2" class="node">
<title>Node2</title>
<g id="a_node2"><a xlink:href="../../d2/d2c/interfacecom_1_1fs_1_1starfarer_1_1api_1_1campaign_1_1LocationAPI.html" target="_top" xlink:title=" ">
<polygon fill="none" stroke="black" points="47.3,-587.5 47.3,-765.5 215.3,-765.5 215.3,-587.5 47.3,-587.5"/>
<text text-anchor="start" x="55.3" y="-753.5" font-family="Helvetica,sans-Serif" font-size="10.00">com.fs.starfarer.api.campaign.</text>
<text text-anchor="middle" x="131.3" y="-742.5" font-family="Helvetica,sans-Serif" font-size="10.00">LocationAPI</text>
<polyline fill="none" stroke="black" points="47.3,-735.5 215.3,-735.5 "/>
<text text-anchor="middle" x="131.3" y="-723.5" font-family="Helvetica,sans-Serif" font-size="10.00"> </text>
<polyline fill="none" stroke="black" points="47.3,-716.5 215.3,-716.5 "/>
<text text-anchor="start" x="55.3" y="-704.5" font-family="Helvetica,sans-Serif" font-size="10.00">+ getId()</text>
<text text-anchor="start" x="55.3" y="-693.5" font-family="Helvetica,sans-Serif" font-size="10.00">+ activeThisFrame()</text>
<text text-anchor="start" x="55.3" y="-682.5" font-family="Helvetica,sans-Serif" font-size="10.00">+ getBackgroundTextureFilename()</text>
<text text-anchor="start" x="55.3" y="-671.5" font-family="Helvetica,sans-Serif" font-size="10.00">+ setBackgroundTextureFilename()</text>
<text text-anchor="start" x="55.3" y="-660.5" font-family="Helvetica,sans-Serif" font-size="10.00">+ addSpawnPoint()</text>
<text text-anchor="start" x="55.3" y="-649.5" font-family="Helvetica,sans-Serif" font-size="10.00">+ removeSpawnPoint()</text>
<text text-anchor="start" x="55.3" y="-638.5" font-family="Helvetica,sans-Serif" font-size="10.00">+ getSpawnPoints()</text>
<text text-anchor="start" x="55.3" y="-627.5" font-family="Helvetica,sans-Serif" font-size="10.00">+ spawnFleet()</text>
<text text-anchor="start" x="55.3" y="-616.5" font-family="Helvetica,sans-Serif" font-size="10.00">+ createToken()</text>
<text text-anchor="start" x="55.3" y="-605.5" font-family="Helvetica,sans-Serif" font-size="10.00">+ createToken()</text>
<text text-anchor="start" x="55.3" y="-594.5" font-family="Helvetica,sans-Serif" font-size="10.00">and 65 more...</text>
</a>
</g>
</g>
<!-- Node2&#45;&gt;Node1 -->
<g id="edge1" class="edge">
<title>Node2&#45;&gt;Node1</title>
<path fill="none" stroke="#404040" d="M78.79,-587.22C21.92,-478.85 -48.54,-295.52 48.3,-182 122.19,-95.38 450.91,-74.57 634.4,-69.76"/>
<polygon fill="none" stroke="#404040" points="634.55,-69.76 640.45,-65.61 646.55,-69.46 640.65,-73.61 634.55,-69.76"/>
<text text-anchor="middle" x="93.8" y="-274.5" font-family="Helvetica,sans-Serif" font-size="10.00"> +containingLocation</text>
</g>
<!-- Node9 -->
<g id="node9" class="node">
<title>Node9</title>
<g id="a_node9"><a xlink:href="../../db/d13/interfacecom_1_1fs_1_1starfarer_1_1api_1_1campaign_1_1StarSystemAPI.html" target="_top" xlink:title=" ">
<polygon fill="none" stroke="black" points="148.8,-182.5 148.8,-371.5 305.8,-371.5 305.8,-182.5 148.8,-182.5"/>
<text text-anchor="start" x="156.8" y="-359.5" font-family="Helvetica,sans-Serif" font-size="10.00">com.fs.starfarer.api.campaign.</text>
<text text-anchor="middle" x="227.3" y="-348.5" font-family="Helvetica,sans-Serif" font-size="10.00">StarSystemAPI</text>
<polyline fill="none" stroke="black" points="148.8,-341.5 305.8,-341.5 "/>
<text text-anchor="middle" x="227.3" y="-329.5" font-family="Helvetica,sans-Serif" font-size="10.00"> </text>
<polyline fill="none" stroke="black" points="148.8,-322.5 305.8,-322.5 "/>
<text text-anchor="start" x="156.8" y="-310.5" font-family="Helvetica,sans-Serif" font-size="10.00">+ getLocation()</text>
<text text-anchor="start" x="156.8" y="-299.5" font-family="Helvetica,sans-Serif" font-size="10.00">+ initStar()</text>
<text text-anchor="start" x="156.8" y="-288.5" font-family="Helvetica,sans-Serif" font-size="10.00">+ initStar()</text>
<text text-anchor="start" x="156.8" y="-277.5" font-family="Helvetica,sans-Serif" font-size="10.00">+ generateAnchorIfNeeded()</text>
<text text-anchor="start" x="156.8" y="-266.5" font-family="Helvetica,sans-Serif" font-size="10.00">+ initStar()</text>
<text text-anchor="start" x="156.8" y="-255.5" font-family="Helvetica,sans-Serif" font-size="10.00">+ initStar()</text>
<text text-anchor="start" x="156.8" y="-244.5" font-family="Helvetica,sans-Serif" font-size="10.00">+ getHyperspaceAnchor()</text>
<text text-anchor="start" x="156.8" y="-233.5" font-family="Helvetica,sans-Serif" font-size="10.00">+ setHyperspaceAnchor()</text>
<text text-anchor="start" x="156.8" y="-222.5" font-family="Helvetica,sans-Serif" font-size="10.00">+ getStar()</text>
<text text-anchor="start" x="156.8" y="-211.5" font-family="Helvetica,sans-Serif" font-size="10.00">+ autogenerateHyperspaceJump</text>
<text text-anchor="start" x="156.8" y="-200.5" font-family="Helvetica,sans-Serif" font-size="10.00">Points()</text>
<text text-anchor="start" x="156.8" y="-189.5" font-family="Helvetica,sans-Serif" font-size="10.00">and 39 more...</text>
</a>
</g>
</g>
<!-- Node2&#45;&gt;Node9 -->
<g id="edge11" class="edge">
<title>Node2&#45;&gt;Node9</title>
<path fill="none" stroke="midnightblue" d="M155.01,-577.36C170.19,-514.51 189.77,-433.43 204.72,-371.51"/>
<polygon fill="none" stroke="midnightblue" points="151.56,-576.74 152.61,-587.28 158.36,-578.38 151.56,-576.74"/>
</g>
<!-- Node3 -->
<g id="node3" class="node">
<title>Node3</title>
<g id="a_node3"><a xlink:href="../../da/d9e/interfacecom_1_1fs_1_1starfarer_1_1api_1_1campaign_1_1PlanetAPI.html" target="_top" xlink:title=" ">
<polygon fill="none" stroke="black" points="574.8,-188 574.8,-366 723.8,-366 723.8,-188 574.8,-188"/>
<text text-anchor="start" x="582.8" y="-354" font-family="Helvetica,sans-Serif" font-size="10.00">com.fs.starfarer.api.campaign.</text>
<text text-anchor="middle" x="649.3" y="-343" font-family="Helvetica,sans-Serif" font-size="10.00">PlanetAPI</text>
<polyline fill="none" stroke="black" points="574.8,-336 723.8,-336 "/>
<text text-anchor="middle" x="649.3" y="-324" font-family="Helvetica,sans-Serif" font-size="10.00"> </text>
<polyline fill="none" stroke="black" points="574.8,-317 723.8,-317 "/>
<text text-anchor="start" x="582.8" y="-305" font-family="Helvetica,sans-Serif" font-size="10.00">+ getTypeId()</text>
<text text-anchor="start" x="582.8" y="-294" font-family="Helvetica,sans-Serif" font-size="10.00">+ isStar()</text>
<text text-anchor="start" x="582.8" y="-283" font-family="Helvetica,sans-Serif" font-size="10.00">+ isNormalStar()</text>
<text text-anchor="start" x="582.8" y="-272" font-family="Helvetica,sans-Serif" font-size="10.00">+ isGasGiant()</text>
<text text-anchor="start" x="582.8" y="-261" font-family="Helvetica,sans-Serif" font-size="10.00">+ isMoon()</text>
<text text-anchor="start" x="582.8" y="-250" font-family="Helvetica,sans-Serif" font-size="10.00">+ getSpec()</text>
<text text-anchor="start" x="582.8" y="-239" font-family="Helvetica,sans-Serif" font-size="10.00">+ applySpecChanges()</text>
<text text-anchor="start" x="582.8" y="-228" font-family="Helvetica,sans-Serif" font-size="10.00">+ setRadius()</text>
<text text-anchor="start" x="582.8" y="-217" font-family="Helvetica,sans-Serif" font-size="10.00">+ getLightColorOverrideIfStar()</text>
<text text-anchor="start" x="582.8" y="-206" font-family="Helvetica,sans-Serif" font-size="10.00">+ setLightColorOverrideIfStar()</text>
<text text-anchor="start" x="582.8" y="-195" font-family="Helvetica,sans-Serif" font-size="10.00">and 6 more...</text>
</a>
</g>
</g>
<!-- Node3&#45;&gt;Node1 -->
<g id="edge2" class="edge">
<title>Node3&#45;&gt;Node1</title>
<path fill="none" stroke="#404040" d="M692.1,-187.96C698.09,-176.14 704.27,-164.23 710.3,-153 711.66,-150.48 713.05,-147.92 714.46,-145.35"/>
<polygon fill="none" stroke="#404040" points="714.55,-145.18 713.97,-138 720.38,-134.69 720.96,-141.88 714.55,-145.18"/>
<text text-anchor="middle" x="727.8" y="-156" font-family="Helvetica,sans-Serif" font-size="10.00"> +planet</text>
</g>
<!-- Node4 -->
<g id="node4" class="node">
<title>Node4</title>
<g id="a_node4"><a xlink:href="../../d6/de1/interfacecom_1_1fs_1_1starfarer_1_1api_1_1campaign_1_1SectorEntityToken.html" target="_top" xlink:title=" ">
<polygon fill="none" stroke="black" points="492.3,-587.5 492.3,-765.5 638.3,-765.5 638.3,-587.5 492.3,-587.5"/>
<text text-anchor="start" x="500.3" y="-753.5" font-family="Helvetica,sans-Serif" font-size="10.00">com.fs.starfarer.api.campaign.</text>
<text text-anchor="middle" x="565.3" y="-742.5" font-family="Helvetica,sans-Serif" font-size="10.00">SectorEntityToken</text>
<polyline fill="none" stroke="black" points="492.3,-735.5 638.3,-735.5 "/>
<text text-anchor="middle" x="565.3" y="-723.5" font-family="Helvetica,sans-Serif" font-size="10.00"> </text>
<polyline fill="none" stroke="black" points="492.3,-716.5 638.3,-716.5 "/>
<text text-anchor="start" x="500.3" y="-704.5" font-family="Helvetica,sans-Serif" font-size="10.00">+ isPlayerFleet()</text>
<text text-anchor="start" x="500.3" y="-693.5" font-family="Helvetica,sans-Serif" font-size="10.00">+ getMarket()</text>
<text text-anchor="start" x="500.3" y="-682.5" font-family="Helvetica,sans-Serif" font-size="10.00">+ setMarket()</text>
<text text-anchor="start" x="500.3" y="-671.5" font-family="Helvetica,sans-Serif" font-size="10.00">+ getCargo()</text>
<text text-anchor="start" x="500.3" y="-660.5" font-family="Helvetica,sans-Serif" font-size="10.00">+ getLocation()</text>
<text text-anchor="start" x="500.3" y="-649.5" font-family="Helvetica,sans-Serif" font-size="10.00">+ getLocationInHyperspace()</text>
<text text-anchor="start" x="500.3" y="-638.5" font-family="Helvetica,sans-Serif" font-size="10.00">+ getOrbit()</text>
<text text-anchor="start" x="500.3" y="-627.5" font-family="Helvetica,sans-Serif" font-size="10.00">+ setOrbit()</text>
<text text-anchor="start" x="500.3" y="-616.5" font-family="Helvetica,sans-Serif" font-size="10.00">+ getId()</text>
<text text-anchor="start" x="500.3" y="-605.5" font-family="Helvetica,sans-Serif" font-size="10.00">+ getName()</text>
<text text-anchor="start" x="500.3" y="-594.5" font-family="Helvetica,sans-Serif" font-size="10.00">and 115 more...</text>
</a>
</g>
</g>
<!-- Node4&#45;&gt;Node1 -->
<g id="edge5" class="edge">
<title>Node4&#45;&gt;Node1</title>
<path fill="none" stroke="#404040" d="M543.5,-587.35C515.11,-463.87 473.72,-247.21 515.3,-182 542.23,-139.79 589.37,-113.02 635.08,-96.18"/>
<polygon fill="none" stroke="#404040" points="635.34,-96.09 639.67,-90.32 646.66,-92.1 642.33,-97.87 635.34,-96.09"/>
<text text-anchor="middle" x="540.3" y="-285.5" font-family="Helvetica,sans-Serif" font-size="10.00"> +entity</text>
<text text-anchor="middle" x="540.3" y="-274.5" font-family="Helvetica,sans-Serif" font-size="10.00">+jumpPoint</text>
<text text-anchor="middle" x="540.3" y="-263.5" font-family="Helvetica,sans-Serif" font-size="10.00">+token</text>
</g>
<!-- Node4&#45;&gt;Node3 -->
<g id="edge3" class="edge">
<title>Node4&#45;&gt;Node3</title>
<path fill="none" stroke="midnightblue" d="M559.74,-577.1C559.38,-521.09 563.7,-450.3 582.3,-390 584.78,-381.99 587.93,-373.95 591.53,-366.07"/>
<polygon fill="none" stroke="midnightblue" points="556.24,-577.42 559.86,-587.38 563.24,-577.34 556.24,-577.42"/>
</g>
<!-- Node6 -->
<g id="node6" class="node">
<title>Node6</title>
<g id="a_node6"><a xlink:href="../../db/d56/interfacecom_1_1fs_1_1starfarer_1_1api_1_1campaign_1_1CampaignFleetAPI.html" target="_top" xlink:title=" ">
<polygon fill="none" stroke="black" points="324.3,-188 324.3,-366 470.3,-366 470.3,-188 324.3,-188"/>
<text text-anchor="start" x="332.3" y="-354" font-family="Helvetica,sans-Serif" font-size="10.00">com.fs.starfarer.api.campaign.</text>
<text text-anchor="middle" x="397.3" y="-343" font-family="Helvetica,sans-Serif" font-size="10.00">CampaignFleetAPI</text>
<polyline fill="none" stroke="black" points="324.3,-336 470.3,-336 "/>
<text text-anchor="middle" x="397.3" y="-324" font-family="Helvetica,sans-Serif" font-size="10.00"> </text>
<polyline fill="none" stroke="black" points="324.3,-317 470.3,-317 "/>
<text text-anchor="start" x="332.3" y="-305" font-family="Helvetica,sans-Serif" font-size="10.00">+ isInCurrentLocation()</text>
<text text-anchor="start" x="332.3" y="-294" font-family="Helvetica,sans-Serif" font-size="10.00">+ isInHyperspace()</text>
<text text-anchor="start" x="332.3" y="-283" font-family="Helvetica,sans-Serif" font-size="10.00">+ setLocation()</text>
<text text-anchor="start" x="332.3" y="-272" font-family="Helvetica,sans-Serif" font-size="10.00">+ despawn()</text>
<text text-anchor="start" x="332.3" y="-261" font-family="Helvetica,sans-Serif" font-size="10.00">+ despawn()</text>
<text text-anchor="start" x="332.3" y="-250" font-family="Helvetica,sans-Serif" font-size="10.00">+ addAssignment()</text>
<text text-anchor="start" x="332.3" y="-239" font-family="Helvetica,sans-Serif" font-size="10.00">+ addAssignment()</text>
<text text-anchor="start" x="332.3" y="-228" font-family="Helvetica,sans-Serif" font-size="10.00">+ addAssignment()</text>
<text text-anchor="start" x="332.3" y="-217" font-family="Helvetica,sans-Serif" font-size="10.00">+ addAssignment()</text>
<text text-anchor="start" x="332.3" y="-206" font-family="Helvetica,sans-Serif" font-size="10.00">+ clearAssignments()</text>
<text text-anchor="start" x="332.3" y="-195" font-family="Helvetica,sans-Serif" font-size="10.00">and 92 more...</text>
</a>
</g>
</g>
<!-- Node4&#45;&gt;Node6 -->
<g id="edge7" class="edge">
<title>Node4&#45;&gt;Node6</title>
<path fill="none" stroke="midnightblue" d="M497.22,-578.51C495.51,-575.34 493.86,-572.16 492.3,-569 460.16,-503.82 435.25,-425.24 419.01,-366.17"/>
<polygon fill="none" stroke="midnightblue" points="494.28,-580.42 502.21,-587.45 500.39,-577.01 494.28,-580.42"/>
</g>
<!-- Node5 -->
<g id="node5" class="node">
<title>Node5</title>
<g id="a_node5"><a xlink:href="../../de/da5/interfacecom_1_1fs_1_1starfarer_1_1api_1_1campaign_1_1rules_1_1HasMemory.html" target="_top" xlink:title=" ">
<polygon fill="none" stroke="black" points="585.8,-803.5 585.8,-882.5 754.8,-882.5 754.8,-803.5 585.8,-803.5"/>
<text text-anchor="start" x="593.8" y="-870.5" font-family="Helvetica,sans-Serif" font-size="10.00">com.fs.starfarer.api.campaign.rules.</text>
<text text-anchor="middle" x="670.3" y="-859.5" font-family="Helvetica,sans-Serif" font-size="10.00">HasMemory</text>
<polyline fill="none" stroke="black" points="585.8,-852.5 754.8,-852.5 "/>
<text text-anchor="middle" x="670.3" y="-840.5" font-family="Helvetica,sans-Serif" font-size="10.00"> </text>
<polyline fill="none" stroke="black" points="585.8,-833.5 754.8,-833.5 "/>
<text text-anchor="start" x="593.8" y="-821.5" font-family="Helvetica,sans-Serif" font-size="10.00">+ getMemory()</text>
<text text-anchor="start" x="593.8" y="-810.5" font-family="Helvetica,sans-Serif" font-size="10.00">+ getMemoryWithoutUpdate()</text>
</a>
</g>
</g>
<!-- Node5&#45;&gt;Node4 -->
<g id="edge4" class="edge">
<title>Node5&#45;&gt;Node4</title>
<path fill="none" stroke="midnightblue" d="M640.19,-794.82C634.3,-785.59 627.94,-775.63 621.51,-765.55"/>
<polygon fill="none" stroke="midnightblue" points="637.36,-796.89 645.69,-803.43 643.26,-793.12 637.36,-796.89"/>
</g>
<!-- Node11 -->
<g id="node11" class="node">
<title>Node11</title>
<g id="a_node11"><a xlink:href="../../de/d91/interfacecom_1_1fs_1_1starfarer_1_1api_1_1campaign_1_1econ_1_1MarketAPI.html" target="_top" xlink:title=" ">
<polygon fill="none" stroke="black" points="585.8,-390.5 585.8,-568.5 754.8,-568.5 754.8,-390.5 585.8,-390.5"/>
<text text-anchor="start" x="593.8" y="-556.5" font-family="Helvetica,sans-Serif" font-size="10.00">com.fs.starfarer.api.campaign.econ.</text>
<text text-anchor="middle" x="670.3" y="-545.5" font-family="Helvetica,sans-Serif" font-size="10.00">MarketAPI</text>
<polyline fill="none" stroke="black" points="585.8,-538.5 754.8,-538.5 "/>
<text text-anchor="middle" x="670.3" y="-526.5" font-family="Helvetica,sans-Serif" font-size="10.00"> </text>
<polyline fill="none" stroke="black" points="585.8,-519.5 754.8,-519.5 "/>
<text text-anchor="start" x="593.8" y="-507.5" font-family="Helvetica,sans-Serif" font-size="10.00">+ getPrimaryEntity()</text>
<text text-anchor="start" x="593.8" y="-496.5" font-family="Helvetica,sans-Serif" font-size="10.00">+ getConnectedEntities()</text>
<text text-anchor="start" x="593.8" y="-485.5" font-family="Helvetica,sans-Serif" font-size="10.00">+ getId()</text>
<text text-anchor="start" x="593.8" y="-474.5" font-family="Helvetica,sans-Serif" font-size="10.00">+ getName()</text>
<text text-anchor="start" x="593.8" y="-463.5" font-family="Helvetica,sans-Serif" font-size="10.00">+ getSize()</text>
<text text-anchor="start" x="593.8" y="-452.5" font-family="Helvetica,sans-Serif" font-size="10.00">+ setSize()</text>
<text text-anchor="start" x="593.8" y="-441.5" font-family="Helvetica,sans-Serif" font-size="10.00">+ getAllCommodities()</text>
<text text-anchor="start" x="593.8" y="-430.5" font-family="Helvetica,sans-Serif" font-size="10.00">+ getCommodityData()</text>
<text text-anchor="start" x="593.8" y="-419.5" font-family="Helvetica,sans-Serif" font-size="10.00">+ getCommoditiesWithTag()</text>
<text text-anchor="start" x="593.8" y="-408.5" font-family="Helvetica,sans-Serif" font-size="10.00">+ getCommoditiesWithTags()</text>
<text text-anchor="start" x="593.8" y="-397.5" font-family="Helvetica,sans-Serif" font-size="10.00">and 142 more...</text>
</a>
</g>
</g>
<!-- Node5&#45;&gt;Node11 -->
<g id="edge14" class="edge">
<title>Node5&#45;&gt;Node11</title>
<path fill="none" stroke="midnightblue" d="M670.3,-793.05C670.3,-735.56 670.3,-639.1 670.3,-568.52"/>
<polygon fill="none" stroke="midnightblue" points="666.8,-793.31 670.3,-803.31 673.8,-793.31 666.8,-793.31"/>
</g>
<!-- Node14 -->
<g id="node14" class="node">
<title>Node14</title>
<g id="a_node14"><a xlink:href="../../d9/df0/interfacecom_1_1fs_1_1starfarer_1_1api_1_1characters_1_1PersonAPI.html" target="_top" xlink:title=" ">
<polygon fill="none" stroke="black" points="759.8,-390.5 759.8,-568.5 908.8,-568.5 908.8,-390.5 759.8,-390.5"/>
<text text-anchor="start" x="767.8" y="-556.5" font-family="Helvetica,sans-Serif" font-size="10.00">com.fs.starfarer.api.characters.</text>
<text text-anchor="middle" x="834.3" y="-545.5" font-family="Helvetica,sans-Serif" font-size="10.00">PersonAPI</text>
<polyline fill="none" stroke="black" points="759.8,-538.5 908.8,-538.5 "/>
<text text-anchor="middle" x="834.3" y="-526.5" font-family="Helvetica,sans-Serif" font-size="10.00"> </text>
<polyline fill="none" stroke="black" points="759.8,-519.5 908.8,-519.5 "/>
<text text-anchor="start" x="767.8" y="-507.5" font-family="Helvetica,sans-Serif" font-size="10.00">+ setPersonality()</text>
<text text-anchor="start" x="767.8" y="-496.5" font-family="Helvetica,sans-Serif" font-size="10.00">+ getStats()</text>
<text text-anchor="start" x="767.8" y="-485.5" font-family="Helvetica,sans-Serif" font-size="10.00">+ getRank()</text>
<text text-anchor="start" x="767.8" y="-474.5" font-family="Helvetica,sans-Serif" font-size="10.00">+ getRankArticle()</text>
<text text-anchor="start" x="767.8" y="-463.5" font-family="Helvetica,sans-Serif" font-size="10.00">+ getRankId()</text>
<text text-anchor="start" x="767.8" y="-452.5" font-family="Helvetica,sans-Serif" font-size="10.00">+ setRankId()</text>
<text text-anchor="start" x="767.8" y="-441.5" font-family="Helvetica,sans-Serif" font-size="10.00">+ getPost()</text>
<text text-anchor="start" x="767.8" y="-430.5" font-family="Helvetica,sans-Serif" font-size="10.00">+ getPostArticle()</text>
<text text-anchor="start" x="767.8" y="-419.5" font-family="Helvetica,sans-Serif" font-size="10.00">+ setPostId()</text>
<text text-anchor="start" x="767.8" y="-408.5" font-family="Helvetica,sans-Serif" font-size="10.00">+ getPostId()</text>
<text text-anchor="start" x="767.8" y="-397.5" font-family="Helvetica,sans-Serif" font-size="10.00">and 49 more...</text>
</a>
</g>
</g>
<!-- Node5&#45;&gt;Node14 -->
<g id="edge18" class="edge">
<title>Node5&#45;&gt;Node14</title>
<path fill="none" stroke="midnightblue" d="M692.03,-794.12C718.05,-736.76 762.15,-639.54 794.37,-568.52"/>
<polygon fill="none" stroke="midnightblue" points="688.8,-792.76 687.86,-803.31 695.17,-795.65 688.8,-792.76"/>
</g>
<!-- Node6&#45;&gt;Node1 -->
<g id="edge6" class="edge">
<title>Node6&#45;&gt;Node1</title>
<path fill="none" stroke="#404040" d="M434.68,-187.7C443.22,-174.7 453.38,-162.5 465.3,-153 513.39,-114.69 578.1,-93.74 634.58,-82.3"/>
<polygon fill="none" stroke="#404040" points="634.71,-82.27 639.85,-77.21 646.49,-80 641.36,-85.06 634.71,-82.27"/>
<text text-anchor="middle" x="478.8" y="-156" font-family="Helvetica,sans-Serif" font-size="10.00"> +fleet</text>
</g>
<!-- Node7 -->
<g id="node7" class="node">
<title>Node7</title>
<g id="a_node7"><a xlink:href="../../da/db1/interfacecom_1_1fs_1_1starfarer_1_1api_1_1campaign_1_1FleetOrStubAPI.html" target="_top" xlink:title=" ">
<polygon fill="none" stroke="black" points="324.3,-587.5 324.3,-765.5 470.3,-765.5 470.3,-587.5 324.3,-587.5"/>
<text text-anchor="start" x="332.3" y="-753.5" font-family="Helvetica,sans-Serif" font-size="10.00">com.fs.starfarer.api.campaign.</text>
<text text-anchor="middle" x="397.3" y="-742.5" font-family="Helvetica,sans-Serif" font-size="10.00">FleetOrStubAPI</text>
<polyline fill="none" stroke="black" points="324.3,-735.5 470.3,-735.5 "/>
<text text-anchor="middle" x="397.3" y="-723.5" font-family="Helvetica,sans-Serif" font-size="10.00"> </text>
<polyline fill="none" stroke="black" points="324.3,-716.5 470.3,-716.5 "/>
<text text-anchor="start" x="332.3" y="-704.5" font-family="Helvetica,sans-Serif" font-size="10.00">+ getId()</text>
<text text-anchor="start" x="332.3" y="-693.5" font-family="Helvetica,sans-Serif" font-size="10.00">+ getContainingLocation()</text>
<text text-anchor="start" x="332.3" y="-682.5" font-family="Helvetica,sans-Serif" font-size="10.00">+ getLocation()</text>
<text text-anchor="start" x="332.3" y="-671.5" font-family="Helvetica,sans-Serif" font-size="10.00">+ getCurrentAssignment()</text>
<text text-anchor="start" x="332.3" y="-660.5" font-family="Helvetica,sans-Serif" font-size="10.00">+ getAssignmentsCopy()</text>
<text text-anchor="start" x="332.3" y="-649.5" font-family="Helvetica,sans-Serif" font-size="10.00">+ addAssignment()</text>
<text text-anchor="start" x="332.3" y="-638.5" font-family="Helvetica,sans-Serif" font-size="10.00">+ addAssignment()</text>
<text text-anchor="start" x="332.3" y="-627.5" font-family="Helvetica,sans-Serif" font-size="10.00">+ addAssignment()</text>
<text text-anchor="start" x="332.3" y="-616.5" font-family="Helvetica,sans-Serif" font-size="10.00">+ addAssignmentAtStart()</text>
<text text-anchor="start" x="332.3" y="-605.5" font-family="Helvetica,sans-Serif" font-size="10.00">+ addAssignmentAtStart()</text>
<text text-anchor="start" x="332.3" y="-594.5" font-family="Helvetica,sans-Serif" font-size="10.00">and 15 more...</text>
</a>
</g>
</g>
<!-- Node7&#45;&gt;Node6 -->
<g id="edge8" class="edge">
<title>Node7&#45;&gt;Node6</title>
<path fill="none" stroke="midnightblue" d="M397.3,-577.09C397.3,-512.5 397.3,-428.76 397.3,-366.31"/>
<polygon fill="none" stroke="midnightblue" points="393.8,-577.28 397.3,-587.28 400.8,-577.28 393.8,-577.28"/>
</g>
<!-- Node8 -->
<g id="node8" class="node">
<title>Node8</title>
<g id="a_node8"><a xlink:title=" ">
<polygon fill="none" stroke="#bfbfbf" points="890.8,-248.5 890.8,-305.5 943.8,-305.5 943.8,-248.5 890.8,-248.5"/>
<text text-anchor="middle" x="917.3" y="-293.5" font-family="Helvetica,sans-Serif" font-size="10.00">Vector2f</text>
<polyline fill="none" stroke="#bfbfbf" points="890.8,-286.5 943.8,-286.5 "/>
<text text-anchor="middle" x="917.3" y="-274.5" font-family="Helvetica,sans-Serif" font-size="10.00"> </text>
<polyline fill="none" stroke="#bfbfbf" points="890.8,-267.5 943.8,-267.5 "/>
<text text-anchor="middle" x="917.3" y="-255.5" font-family="Helvetica,sans-Serif" font-size="10.00"> </text>
</a>
</g>
</g>
<!-- Node8&#45;&gt;Node1 -->
<g id="edge9" class="edge">
<title>Node8&#45;&gt;Node1</title>
<path fill="none" stroke="#404040" d="M908.22,-248.35C901.13,-228.89 890.16,-202.72 876.3,-182 867.38,-168.66 856.66,-155.65 845.39,-143.49"/>
<polygon fill="none" stroke="#404040" points="845.38,-143.48 838.34,-141.9 837.1,-134.8 844.13,-136.38 845.38,-143.48"/>
<text text-anchor="middle" x="890.8" y="-156" font-family="Helvetica,sans-Serif" font-size="10.00"> +coordinates</text>
</g>
<!-- Node9&#45;&gt;Node1 -->
<g id="edge10" class="edge">
<title>Node9&#45;&gt;Node1</title>
<path fill="none" stroke="#404040" d="M306.04,-188.24C309.08,-186.04 312.17,-183.95 315.3,-182 412.5,-121.43 540.76,-93.09 634.43,-79.89"/>
<polygon fill="none" stroke="#404040" points="634.65,-79.86 640.06,-75.08 646.54,-78.23 641.14,-83.01 634.65,-79.86"/>
<text text-anchor="middle" x="379.3" y="-156" font-family="Helvetica,sans-Serif" font-size="10.00"> +system</text>
</g>
<!-- Node10 -->
<g id="node10" class="node">
<title>Node10</title>
<g id="a_node10"><a xlink:title=" ">
<polygon fill="none" stroke="#bfbfbf" points="961.8,-248.5 961.8,-305.5 1072.8,-305.5 1072.8,-248.5 961.8,-248.5"/>
<text text-anchor="middle" x="1017.3" y="-293.5" font-family="Helvetica,sans-Serif" font-size="10.00">Map&lt; String, Object &gt;</text>
<polyline fill="none" stroke="#bfbfbf" points="961.8,-286.5 1072.8,-286.5 "/>
<text text-anchor="middle" x="1017.3" y="-274.5" font-family="Helvetica,sans-Serif" font-size="10.00"> </text>
<polyline fill="none" stroke="#bfbfbf" points="961.8,-267.5 1072.8,-267.5 "/>
<text text-anchor="middle" x="1017.3" y="-255.5" font-family="Helvetica,sans-Serif" font-size="10.00"> </text>
</a>
</g>
</g>
<!-- Node10&#45;&gt;Node1 -->
<g id="edge12" class="edge">
<title>Node10&#45;&gt;Node1</title>
<path fill="none" stroke="#404040" d="M999.94,-248.41C987.44,-229.21 969.78,-203.33 952.3,-182 940.95,-168.14 938.7,-163.67 924.3,-153 911.3,-143.36 897.04,-134.24 882.52,-125.82"/>
<polygon fill="none" stroke="#404040" points="882.35,-125.73 875.16,-126.25 871.91,-119.81 879.1,-119.29 882.35,-125.73"/>
<text text-anchor="middle" x="956.8" y="-156" font-family="Helvetica,sans-Serif" font-size="10.00"> +custom</text>
</g>
<!-- Node11&#45;&gt;Node1 -->
<g id="edge13" class="edge">
<title>Node11&#45;&gt;Node1</title>
<path fill="none" stroke="#404040" d="M725.4,-390.35C728.02,-384.26 730.36,-378.12 732.3,-372 745.16,-331.59 752.5,-222.76 756.2,-147.06"/>
<polygon fill="none" stroke="#404040" points="756.21,-146.72 752.5,-140.54 756.78,-134.74 760.49,-140.92 756.21,-146.72"/>
<text text-anchor="middle" x="773.8" y="-274.5" font-family="Helvetica,sans-Serif" font-size="10.00"> +market</text>
</g>
<!-- Node12 -->
<g id="node12" class="node">
<title>Node12</title>
<g id="a_node12"><a xlink:href="../../d3/d33/interfacecom_1_1fs_1_1starfarer_1_1api_1_1impl_1_1campaign_1_1missions_1_1hub_1_1HubMission.html" target="_top" xlink:title=" ">
<polygon fill="none" stroke="black" points="1090.8,-188 1090.8,-366 1315.8,-366 1315.8,-188 1090.8,-188"/>
<text text-anchor="start" x="1098.8" y="-354" font-family="Helvetica,sans-Serif" font-size="10.00">com.fs.starfarer.api.impl.campaign.missions.hub.</text>
<text text-anchor="middle" x="1203.3" y="-343" font-family="Helvetica,sans-Serif" font-size="10.00">HubMission</text>
<polyline fill="none" stroke="black" points="1090.8,-336 1315.8,-336 "/>
<text text-anchor="middle" x="1203.3" y="-324" font-family="Helvetica,sans-Serif" font-size="10.00"> </text>
<polyline fill="none" stroke="black" points="1090.8,-317 1315.8,-317 "/>
<text text-anchor="start" x="1098.8" y="-305" font-family="Helvetica,sans-Serif" font-size="10.00">+ getTriggerPrefix()</text>
<text text-anchor="start" x="1098.8" y="-294" font-family="Helvetica,sans-Serif" font-size="10.00">+ getBlurbText()</text>
<text text-anchor="start" x="1098.8" y="-283" font-family="Helvetica,sans-Serif" font-size="10.00">+ getMissionId()</text>
<text text-anchor="start" x="1098.8" y="-272" font-family="Helvetica,sans-Serif" font-size="10.00">+ setMissionId()</text>
<text text-anchor="start" x="1098.8" y="-261" font-family="Helvetica,sans-Serif" font-size="10.00">+ setGenRandom()</text>
<text text-anchor="start" x="1098.8" y="-250" font-family="Helvetica,sans-Serif" font-size="10.00">+ accept()</text>
<text text-anchor="start" x="1098.8" y="-239" font-family="Helvetica,sans-Serif" font-size="10.00">+ updateInteractionData()</text>
<text text-anchor="start" x="1098.8" y="-228" font-family="Helvetica,sans-Serif" font-size="10.00">+ createAndAbortIfFailed()</text>
<text text-anchor="start" x="1098.8" y="-217" font-family="Helvetica,sans-Serif" font-size="10.00">+ abort()</text>
<text text-anchor="start" x="1098.8" y="-206" font-family="Helvetica,sans-Serif" font-size="10.00">+ isMissionCreationAborted()</text>
<text text-anchor="start" x="1098.8" y="-195" font-family="Helvetica,sans-Serif" font-size="10.00">and 7 more...</text>
</a>
</g>
</g>
<!-- Node12&#45;&gt;Node1 -->
<g id="edge15" class="edge">
<title>Node12&#45;&gt;Node1</title>
<path fill="none" stroke="#404040" d="M1092.47,-187.8C1089.08,-185.79 1085.69,-183.85 1082.3,-182 1019.92,-147.98 945.36,-120.99 883.61,-101.87"/>
<polygon fill="none" stroke="#404040" points="883.31,-101.78 876.4,-103.85 871.83,-98.27 878.74,-96.2 883.31,-101.78"/>
<text text-anchor="middle" x="1061.8" y="-156" font-family="Helvetica,sans-Serif" font-size="10.00"> +mission</text>
</g>
<!-- Node13 -->
<g id="node13" class="node">
<title>Node13</title>
<g id="a_node13"><a xlink:title=" ">
<polygon fill="none" stroke="#bfbfbf" points="1334.3,-243 1334.3,-311 1504.3,-311 1504.3,-243 1334.3,-243"/>
<text text-anchor="start" x="1342.3" y="-299" font-family="Helvetica,sans-Serif" font-size="10.00">List&lt; com.fs.starfarer.api.campaign.</text>
<text text-anchor="middle" x="1419.3" y="-288" font-family="Helvetica,sans-Serif" font-size="10.00">CampaignFleetAPI &gt;</text>
<polyline fill="none" stroke="#bfbfbf" points="1334.3,-281 1504.3,-281 "/>
<text text-anchor="middle" x="1419.3" y="-269" font-family="Helvetica,sans-Serif" font-size="10.00"> </text>
<polyline fill="none" stroke="#bfbfbf" points="1334.3,-262 1504.3,-262 "/>
<text text-anchor="middle" x="1419.3" y="-250" font-family="Helvetica,sans-Serif" font-size="10.00"> </text>
</a>
</g>
</g>
<!-- Node13&#45;&gt;Node1 -->
<g id="edge16" class="edge">
<title>Node13&#45;&gt;Node1</title>
<path fill="none" stroke="#404040" d="M1394.56,-242.71C1377.41,-222.04 1352.77,-196.71 1325.3,-182 1185.97,-107.38 1003.5,-81.63 883.93,-72.85"/>
<polygon fill="none" stroke="#404040" points="883.8,-72.84 877.54,-76.41 871.83,-72 878.1,-68.43 883.8,-72.84"/>
<text text-anchor="middle" x="1306.3" y="-156" font-family="Helvetica,sans-Serif" font-size="10.00"> +allFleets</text>
</g>
<!-- Node14&#45;&gt;Node1 -->
<g id="edge17" class="edge">
<title>Node14&#45;&gt;Node1</title>
<path fill="none" stroke="#404040" d="M830.67,-390.25C826.78,-330.76 818.78,-250.86 802.3,-182 799.46,-170.12 795.7,-157.8 791.59,-145.85"/>
<polygon fill="none" stroke="#404040" points="791.58,-145.83 785.8,-141.52 787.55,-134.53 793.33,-138.84 791.58,-145.83"/>
<text text-anchor="middle" x="848.3" y="-274.5" font-family="Helvetica,sans-Serif" font-size="10.00"> +person</text>
</g>
</g>
</svg>
        <g id="navigator" transform="translate(0 0)" fill="#404254">
                <rect fill="#f2f5e9" fill-opacity="0.5" stroke="#606060" stroke-width=".5" x="0" y="0" width="60" height="60"/>
                <use id="zoomplus" xlink:href="#zoomPlus" x="17" y="9" onmousedown="handleZoom(evt,'in')"/>
                <use id="zoomminus" xlink:href="#zoomMin" x="42" y="9" onmousedown="handleZoom(evt,'out')"/>
                <use id="reset" xlink:href="#resetDef" x="30" y="36" onmousedown="handleReset()"/>
                <g id="arrowUp" xlink:href="#dirArrow" transform="translate(30 24)" onmousedown="handlePan(0,-1)">
                  <use xlink:href="#rim" fill="#404040">
                        <set attributeName="fill" to="#808080" begin="arrowUp.mouseover" end="arrowUp.mouseout"/>
                  </use>
                  <path fill="none" stroke="white" stroke-width="1.5" d="M0,-3.0v7 M-2.5,-0.5L0,-3.0L2.5,-0.5"/>
                </g>
                <g id="arrowRight" xlink:href="#dirArrow" transform="rotate(90) translate(36 -43)" onmousedown="handlePan(1,0)">
                  <use xlink:href="#rim" fill="#404040">
                        <set attributeName="fill" to="#808080" begin="arrowRight.mouseover" end="arrowRight.mouseout"/>
                  </use>
                  <path fill="none" stroke="white" stroke-width="1.5" d="M0,-3.0v7 M-2.5,-0.5L0,-3.0L2.5,-0.5"/>
                </g>
                <g id="arrowDown" xlink:href="#dirArrow" transform="rotate(180) translate(-30 -48)" onmousedown="handlePan(0,1)">
                  <use xlink:href="#rim" fill="#404040">
                        <set attributeName="fill" to="#808080" begin="arrowDown.mouseover" end="arrowDown.mouseout"/>
                  </use>
                  <path fill="none" stroke="white" stroke-width="1.5" d="M0,-3.0v7 M-2.5,-0.5L0,-3.0L2.5,-0.5"/>
                </g>
                <g id="arrowLeft" xlink:href="#dirArrow" transform="rotate(270) translate(-36 17)" onmousedown="handlePan(-1,0)">
                  <use xlink:href="#rim" fill="#404040">
                        <set attributeName="fill" to="#808080" begin="arrowLeft.mouseover" end="arrowLeft.mouseout"/>
                  </use>
                  <path fill="none" stroke="white" stroke-width="1.5" d="M0,-3.0v7 M-2.5,-0.5L0,-3.0L2.5,-0.5"/>
                </g>
        </g>
        <svg viewBox="0 0 15 15" width="100%" height="30px" preserveAspectRatio="xMaxYMin meet">
         <g id="arrow_out" transform="scale(0.3 0.3)">
          <a xlink:href="classcom_1_1fs_1_1starfarer_1_1api_1_1impl_1_1campaign_1_1missions_1_1hub_1_1MissionTrigger_1_1T2bfcbe8524e9034e71b3c1352278aa50_org.svg" target="_base">
           <rect id="button" ry="5" rx="5" y="6" x="6" height="38" width="38"
                fill="#f2f5e9" fill-opacity="0.5" stroke="#606060" stroke-width="1.0"/>
           <path id="arrow"
             d="M 11.500037,31.436501 C 11.940474,20.09759 22.043105,11.32322 32.158766,21.979434 L 37.068811,17.246167 C 37.068811,17.246167 37.088388,32 37.088388,32 L 22.160133,31.978069 C 22.160133,31.978069 26.997745,27.140456 26.997745,27.140456 C 18.528582,18.264221 13.291696,25.230495 11.500037,31.436501 z"
             style="fill:#404040;"/>
          </a>
         </g>
        </svg>
</svg>
