<?xml version="1.0" encoding="UTF-8" standalone="no"?>
<!DOCTYPE svg PUBLIC "-//W3C//DTD SVG 1.1//EN"
 "http://www.w3.org/Graphics/SVG/1.1/DTD/svg11.dtd">
<!-- Generated by graphviz version 7.0.5 (20221223.1930)
 -->
<!-- Title: com.fs.starfarer.api.impl.campaign.velfield.BoundingBox Pages: 1 -->
<svg width="206pt" height="126pt"
 viewBox="0.00 0.00 206.00 126.00" xmlns="http://www.w3.org/2000/svg" xmlns:xlink="http://www.w3.org/1999/xlink">
<g id="graph0" class="graph" transform="scale(1 1) rotate(0) translate(4 122)">
<title>com.fs.starfarer.api.impl.campaign.velfield.BoundingBox</title>
<!-- Node1 -->
<g id="node1" class="node">
<title>Node1</title>
<g id="a_node1"><a xlink:title=" ">
<polygon fill="#999999" stroke="#666666" points="198,-30 0,-30 0,0 198,0 198,-30"/>
<text text-anchor="start" x="8" y="-18" font-family="Helvetica,sans-Serif" font-size="10.00">com.fs.starfarer.api.impl.campaign.velfield.</text>
<text text-anchor="middle" x="99" y="-7" font-family="Helvetica,sans-Serif" font-size="10.00">BoundingBox</text>
</a>
</g>
</g>
<!-- Node2 -->
<g id="node2" class="node">
<title>Node2</title>
<g id="a_node2"><a xlink:title=" ">
<polygon fill="white" stroke="#666666" points="98,-118 12,-118 12,-99 98,-99 98,-118"/>
<text text-anchor="middle" x="55" y="-106" font-family="Helvetica,sans-Serif" font-size="10.00">List&lt; Vector2f &gt;</text>
</a>
</g>
</g>
<!-- Node2&#45;&gt;Node1 -->
<g id="edge1" class="edge">
<title>Node2&#45;&gt;Node1</title>
<path fill="none" stroke="#9a32cd" stroke-dasharray="5,2" d="M58.49,-87.58C61.11,-75.62 65.4,-60.38 72,-48 75.35,-41.71 80.09,-35.55 84.67,-30.34"/>
<polygon fill="#9a32cd" stroke="#9a32cd" points="55.11,-86.62 56.63,-97.1 61.98,-87.96 55.11,-86.62"/>
<text text-anchor="middle" x="96.5" y="-73" font-family="Helvetica,sans-Serif" font-size="10.00"> box</text>
<text text-anchor="middle" x="96.5" y="-62" font-family="Helvetica,sans-Serif" font-size="10.00">convexHull</text>
<text text-anchor="middle" x="96.5" y="-51" font-family="Helvetica,sans-Serif" font-size="10.00">points</text>
</g>
<!-- Node3 -->
<g id="node3" class="node">
<title>Node3</title>
<g id="a_node3"><a xlink:title=" ">
<polygon fill="white" stroke="#666666" points="169.5,-118 116.5,-118 116.5,-99 169.5,-99 169.5,-118"/>
<text text-anchor="middle" x="143" y="-106" font-family="Helvetica,sans-Serif" font-size="10.00">Vector2f</text>
</a>
</g>
</g>
<!-- Node3&#45;&gt;Node1 -->
<g id="edge2" class="edge">
<title>Node3&#45;&gt;Node1</title>
<path fill="none" stroke="#9a32cd" stroke-dasharray="5,2" d="M137.1,-87.86C133.21,-76 127.62,-60.77 121,-48 117.9,-42.01 113.86,-35.82 110.1,-30.5"/>
<polygon fill="#9a32cd" stroke="#9a32cd" points="133.73,-88.8 140.06,-97.3 140.41,-86.71 133.73,-88.8"/>
<text text-anchor="middle" x="149" y="-62" font-family="Helvetica,sans-Serif" font-size="10.00"> center</text>
</g>
</g>
</svg>
