<?xml version="1.0" encoding="UTF-8" standalone="no"?>
<!DOCTYPE svg PUBLIC "-//W3C//DTD SVG 1.1//EN"
 "http://www.w3.org/Graphics/SVG/1.1/DTD/svg11.dtd">
<!-- Generated by graphviz version 2.44.0 ()
 -->
<!-- Title: com.fs.starfarer.api.impl.combat.NavBuoyEffect Pages: 1 -->
<!--zoomable 713 -->
<svg id="main" version="1.1" xmlns="http://www.w3.org/2000/svg" xmlns:xlink="http://www.w3.org/1999/xlink" xml:space="preserve" onload="init(evt)">
<style type="text/css"><![CDATA[
.edge:hover path { stroke: red; }
.edge:hover polygon { stroke: red; fill: red; }
]]></style>
<script type="text/javascript"><![CDATA[
var edges = document.getElementsByTagName('g');
if (edges && edges.length) {
  for (var i=0;i<edges.length;i++) {
    if (edges[i].id.substr(0,4)=='edge') {
      edges[i].setAttribute('class','edge');
    }
  }
}
]]></script>
        <defs>
                <circle id="rim" cx="0" cy="0" r="7"/>
                <circle id="rim2" cx="0" cy="0" r="3.5"/>
                <g id="zoomPlus">
                        <use xlink:href="#rim" fill="#404040">
                                <set attributeName="fill" to="#808080" begin="zoomplus.mouseover" end="zoomplus.mouseout"/>
                        </use>
                        <path d="M-4,0h8M0,-4v8" fill="none" stroke="white" stroke-width="1.5" pointer-events="none"/>
                </g>
                <g id="zoomMin">
                        <use xlink:href="#rim" fill="#404040">
                                <set attributeName="fill" to="#808080" begin="zoomminus.mouseover" end="zoomminus.mouseout"/>
                        </use>
                        <path d="M-4,0h8" fill="none" stroke="white" stroke-width="1.5" pointer-events="none"/>
                </g>
                <g id="dirArrow">
                        <path fill="none" stroke="white" stroke-width="1.5" d="M0,-3.0v7 M-2.5,-0.5L0,-3.0L2.5,-0.5"/>
                </g>
               <g id="resetDef">
                       <use xlink:href="#rim2" fill="#404040">
                               <set attributeName="fill" to="#808080" begin="reset.mouseover" end="reset.mouseout"/>
                       </use>
               </g>
        </defs>

<script type="text/javascript">
var viewWidth = 870;
var viewHeight = 713;
var sectionId = 'dynsection-1';
</script>
<script xlink:href="../../svgpan.js"/>
<svg id="graph" class="graph">
<g id="viewport">
<title>com.fs.starfarer.api.impl.combat.NavBuoyEffect</title>
<!-- Node1 -->
<g id="node1" class="node">
<title>Node1</title>
<g id="a_node1"><a xlink:title=" ">
<polygon fill="#bfbfbf" stroke="black" points="636.5,-0.5 636.5,-112.5 811.5,-112.5 811.5,-0.5 636.5,-0.5"/>
<text text-anchor="start" x="644.5" y="-100.5" font-family="Helvetica,sans-Serif" font-size="10.00">com.fs.starfarer.api.impl.combat.</text>
<text text-anchor="middle" x="724" y="-89.5" font-family="Helvetica,sans-Serif" font-size="10.00">NavBuoyEffect</text>
<polyline fill="none" stroke="black" points="636.5,-82.5 811.5,-82.5 "/>
<text text-anchor="start" x="644.5" y="-70.5" font-family="Helvetica,sans-Serif" font-size="10.00">+ NAV_BUOY_FOG_LIFT_RADIUS</text>
<text text-anchor="start" x="644.5" y="-59.5" font-family="Helvetica,sans-Serif" font-size="10.00">&#45; id</text>
<polyline fill="none" stroke="black" points="636.5,-52.5 811.5,-52.5 "/>
<text text-anchor="start" x="644.5" y="-40.5" font-family="Helvetica,sans-Serif" font-size="10.00">+ init()</text>
<text text-anchor="start" x="644.5" y="-29.5" font-family="Helvetica,sans-Serif" font-size="10.00">+ advance()</text>
<text text-anchor="start" x="644.5" y="-18.5" font-family="Helvetica,sans-Serif" font-size="10.00">+ getLongDescription()</text>
<text text-anchor="start" x="644.5" y="-7.5" font-family="Helvetica,sans-Serif" font-size="10.00">+ getStatusItemsFor()</text>
</a>
</g>
</g>
<!-- Node2 -->
<g id="node2" class="node">
<title>Node2</title>
<g id="a_node2"><a xlink:href="../../dc/de1/classcom_1_1fs_1_1starfarer_1_1api_1_1impl_1_1combat_1_1BaseBattleObjectiveEffect.html" target="_top" xlink:title=" ">
<polygon fill="none" stroke="black" points="483,-150.5 483,-251.5 659,-251.5 659,-150.5 483,-150.5"/>
<text text-anchor="start" x="491" y="-239.5" font-family="Helvetica,sans-Serif" font-size="10.00">com.fs.starfarer.api.impl.combat.</text>
<text text-anchor="middle" x="571" y="-228.5" font-family="Helvetica,sans-Serif" font-size="10.00">BaseBattleObjectiveEffect</text>
<polyline fill="none" stroke="black" points="483,-221.5 659,-221.5 "/>
<text text-anchor="middle" x="571" y="-209.5" font-family="Helvetica,sans-Serif" font-size="10.00"> </text>
<polyline fill="none" stroke="black" points="483,-202.5 659,-202.5 "/>
<text text-anchor="start" x="491" y="-190.5" font-family="Helvetica,sans-Serif" font-size="10.00">+ init()</text>
<text text-anchor="start" x="491" y="-179.5" font-family="Helvetica,sans-Serif" font-size="10.00">+ getBonusDeploymentPoints()</text>
<text text-anchor="start" x="491" y="-168.5" font-family="Helvetica,sans-Serif" font-size="10.00">+ giveCommandPointsForCapturing()</text>
<text text-anchor="start" x="491" y="-157.5" font-family="Helvetica,sans-Serif" font-size="10.00">+ revealArea()</text>
</a>
</g>
</g>
<!-- Node2&#45;&gt;Node1 -->
<g id="edge1" class="edge">
<title>Node2&#45;&gt;Node1</title>
<path fill="none" stroke="midnightblue" d="M631.92,-143.26C642.74,-133.18 654,-122.7 664.77,-112.66"/>
<polygon fill="none" stroke="midnightblue" points="629.44,-140.78 624.51,-150.16 634.22,-145.91 629.44,-140.78"/>
</g>
<!-- Node3 -->
<g id="node3" class="node">
<title>Node3</title>
<g id="a_node3"><a xlink:href="../../d6/dfd/interfacecom_1_1fs_1_1starfarer_1_1api_1_1combat_1_1BattleObjectiveEffect.html" target="_top" xlink:title=" ">
<polygon fill="none" stroke="black" points="420.5,-343.5 420.5,-455.5 571.5,-455.5 571.5,-343.5 420.5,-343.5"/>
<text text-anchor="start" x="428.5" y="-443.5" font-family="Helvetica,sans-Serif" font-size="10.00">com.fs.starfarer.api.combat.</text>
<text text-anchor="middle" x="496" y="-432.5" font-family="Helvetica,sans-Serif" font-size="10.00">BattleObjectiveEffect</text>
<polyline fill="none" stroke="black" points="420.5,-425.5 571.5,-425.5 "/>
<text text-anchor="middle" x="496" y="-413.5" font-family="Helvetica,sans-Serif" font-size="10.00"> </text>
<polyline fill="none" stroke="black" points="420.5,-406.5 571.5,-406.5 "/>
<text text-anchor="start" x="428.5" y="-394.5" font-family="Helvetica,sans-Serif" font-size="10.00">+ init()</text>
<text text-anchor="start" x="428.5" y="-383.5" font-family="Helvetica,sans-Serif" font-size="10.00">+ advance()</text>
<text text-anchor="start" x="428.5" y="-372.5" font-family="Helvetica,sans-Serif" font-size="10.00">+ getStatusItemsFor()</text>
<text text-anchor="start" x="428.5" y="-361.5" font-family="Helvetica,sans-Serif" font-size="10.00">+ getLongDescription()</text>
<text text-anchor="start" x="428.5" y="-350.5" font-family="Helvetica,sans-Serif" font-size="10.00">+ getBonusDeploymentPoints()</text>
</a>
</g>
</g>
<!-- Node3&#45;&gt;Node2 -->
<g id="edge2" class="edge">
<title>Node3&#45;&gt;Node2</title>
<path fill="none" stroke="midnightblue" d="M520.77,-333.62C530.93,-306.99 542.51,-276.65 551.99,-251.81"/>
<polygon fill="none" stroke="midnightblue" points="517.39,-332.65 517.09,-343.24 523.93,-335.15 517.39,-332.65"/>
</g>
<!-- Node4 -->
<g id="node4" class="node">
<title>Node4</title>
<g id="a_node4"><a xlink:href="../../de/d6c/interfacecom_1_1fs_1_1starfarer_1_1api_1_1combat_1_1BattleObjectiveAPI.html" target="_top" xlink:title=" ">
<polygon fill="none" stroke="black" points="69,-327 69,-472 221,-472 221,-327 69,-327"/>
<text text-anchor="start" x="77" y="-460" font-family="Helvetica,sans-Serif" font-size="10.00">com.fs.starfarer.api.combat.</text>
<text text-anchor="middle" x="145" y="-449" font-family="Helvetica,sans-Serif" font-size="10.00">BattleObjectiveAPI</text>
<polyline fill="none" stroke="black" points="69,-442 221,-442 "/>
<text text-anchor="middle" x="145" y="-430" font-family="Helvetica,sans-Serif" font-size="10.00"> </text>
<polyline fill="none" stroke="black" points="69,-423 221,-423 "/>
<text text-anchor="start" x="77" y="-411" font-family="Helvetica,sans-Serif" font-size="10.00">+ getLocation()</text>
<text text-anchor="start" x="77" y="-400" font-family="Helvetica,sans-Serif" font-size="10.00">+ getOwner()</text>
<text text-anchor="start" x="77" y="-389" font-family="Helvetica,sans-Serif" font-size="10.00">+ getType()</text>
<text text-anchor="start" x="77" y="-378" font-family="Helvetica,sans-Serif" font-size="10.00">+ getImportance()</text>
<text text-anchor="start" x="77" y="-367" font-family="Helvetica,sans-Serif" font-size="10.00">+ getDisplayName()</text>
<text text-anchor="start" x="77" y="-356" font-family="Helvetica,sans-Serif" font-size="10.00">+ getSprite()</text>
<text text-anchor="start" x="77" y="-345" font-family="Helvetica,sans-Serif" font-size="10.00">+ setSprite()</text>
<text text-anchor="start" x="77" y="-334" font-family="Helvetica,sans-Serif" font-size="10.00">+ getBattleSizeFractionBonus()</text>
</a>
</g>
</g>
<!-- Node4&#45;&gt;Node2 -->
<g id="edge3" class="edge">
<title>Node4&#45;&gt;Node2</title>
<path fill="none" stroke="#404040" d="M207.2,-326.91C214.48,-320.68 222.13,-314.89 230,-310 304.16,-263.9 399.73,-235.86 470.82,-219.95"/>
<polygon fill="none" stroke="#404040" points="471.18,-219.87 476.19,-214.68 482.9,-217.31 477.9,-222.5 471.18,-219.87"/>
<text text-anchor="middle" x="332.5" y="-278.5" font-family="Helvetica,sans-Serif" font-size="10.00"> #objective</text>
</g>
<!-- Node5 -->
<g id="node5" class="node">
<title>Node5</title>
<g id="a_node5"><a xlink:href="../../db/d65/interfacecom_1_1fs_1_1starfarer_1_1api_1_1combat_1_1CombatEntityAPI.html" target="_top" xlink:title=" ">
<polygon fill="none" stroke="black" points="0,-526.5 0,-704.5 136,-704.5 136,-526.5 0,-526.5"/>
<text text-anchor="start" x="8" y="-692.5" font-family="Helvetica,sans-Serif" font-size="10.00">com.fs.starfarer.api.combat.</text>
<text text-anchor="middle" x="68" y="-681.5" font-family="Helvetica,sans-Serif" font-size="10.00">CombatEntityAPI</text>
<polyline fill="none" stroke="black" points="0,-674.5 136,-674.5 "/>
<text text-anchor="middle" x="68" y="-662.5" font-family="Helvetica,sans-Serif" font-size="10.00"> </text>
<polyline fill="none" stroke="black" points="0,-655.5 136,-655.5 "/>
<text text-anchor="start" x="8" y="-643.5" font-family="Helvetica,sans-Serif" font-size="10.00">+ getLocation()</text>
<text text-anchor="start" x="8" y="-632.5" font-family="Helvetica,sans-Serif" font-size="10.00">+ getVelocity()</text>
<text text-anchor="start" x="8" y="-621.5" font-family="Helvetica,sans-Serif" font-size="10.00">+ getFacing()</text>
<text text-anchor="start" x="8" y="-610.5" font-family="Helvetica,sans-Serif" font-size="10.00">+ setFacing()</text>
<text text-anchor="start" x="8" y="-599.5" font-family="Helvetica,sans-Serif" font-size="10.00">+ getAngularVelocity()</text>
<text text-anchor="start" x="8" y="-588.5" font-family="Helvetica,sans-Serif" font-size="10.00">+ setAngularVelocity()</text>
<text text-anchor="start" x="8" y="-577.5" font-family="Helvetica,sans-Serif" font-size="10.00">+ getOwner()</text>
<text text-anchor="start" x="8" y="-566.5" font-family="Helvetica,sans-Serif" font-size="10.00">+ setOwner()</text>
<text text-anchor="start" x="8" y="-555.5" font-family="Helvetica,sans-Serif" font-size="10.00">+ getCollisionRadius()</text>
<text text-anchor="start" x="8" y="-544.5" font-family="Helvetica,sans-Serif" font-size="10.00">+ getCollisionClass()</text>
<text text-anchor="start" x="8" y="-533.5" font-family="Helvetica,sans-Serif" font-size="10.00">and 15 more...</text>
</a>
</g>
</g>
<!-- Node5&#45;&gt;Node4 -->
<g id="edge4" class="edge">
<title>Node5&#45;&gt;Node4</title>
<path fill="none" stroke="midnightblue" d="M103.27,-516.48C108.63,-501.59 114.07,-486.46 119.18,-472.27"/>
<polygon fill="none" stroke="midnightblue" points="99.86,-515.63 99.76,-526.22 106.44,-518 99.86,-515.63"/>
</g>
<!-- Node6 -->
<g id="node6" class="node">
<title>Node6</title>
<g id="a_node6"><a xlink:href="../../d3/d71/interfacecom_1_1fs_1_1starfarer_1_1api_1_1combat_1_1AssignmentTargetAPI.html" target="_top" xlink:title=" ">
<polygon fill="none" stroke="black" points="154,-570.5 154,-660.5 290,-660.5 290,-570.5 154,-570.5"/>
<text text-anchor="start" x="162" y="-648.5" font-family="Helvetica,sans-Serif" font-size="10.00">com.fs.starfarer.api.combat.</text>
<text text-anchor="middle" x="222" y="-637.5" font-family="Helvetica,sans-Serif" font-size="10.00">AssignmentTargetAPI</text>
<polyline fill="none" stroke="black" points="154,-630.5 290,-630.5 "/>
<text text-anchor="middle" x="222" y="-618.5" font-family="Helvetica,sans-Serif" font-size="10.00"> </text>
<polyline fill="none" stroke="black" points="154,-611.5 290,-611.5 "/>
<text text-anchor="start" x="162" y="-599.5" font-family="Helvetica,sans-Serif" font-size="10.00">+ getLocation()</text>
<text text-anchor="start" x="162" y="-588.5" font-family="Helvetica,sans-Serif" font-size="10.00">+ getVelocity()</text>
<text text-anchor="start" x="162" y="-577.5" font-family="Helvetica,sans-Serif" font-size="10.00">+ getOwner()</text>
</a>
</g>
</g>
<!-- Node6&#45;&gt;Node4 -->
<g id="edge5" class="edge">
<title>Node6&#45;&gt;Node4</title>
<path fill="none" stroke="midnightblue" d="M202.69,-560.84C193.05,-534.04 181.25,-501.25 170.84,-472.32"/>
<polygon fill="none" stroke="midnightblue" points="199.46,-562.19 206.14,-570.42 206.05,-559.82 199.46,-562.19"/>
</g>
<!-- Node7 -->
<g id="node7" class="node">
<title>Node7</title>
<g id="a_node7"><a xlink:title=" ">
<polygon fill="none" stroke="#bfbfbf" points="239.5,-365.5 239.5,-433.5 402.5,-433.5 402.5,-365.5 239.5,-365.5"/>
<text text-anchor="start" x="247.5" y="-421.5" font-family="Helvetica,sans-Serif" font-size="10.00">Map&lt; com.fs.starfarer.api.combat.</text>
<text text-anchor="middle" x="321" y="-410.5" font-family="Helvetica,sans-Serif" font-size="10.00">BattleObjectiveAPI, Integer &gt;</text>
<polyline fill="none" stroke="#bfbfbf" points="239.5,-403.5 402.5,-403.5 "/>
<text text-anchor="middle" x="321" y="-391.5" font-family="Helvetica,sans-Serif" font-size="10.00"> </text>
<polyline fill="none" stroke="#bfbfbf" points="239.5,-384.5 402.5,-384.5 "/>
<text text-anchor="middle" x="321" y="-372.5" font-family="Helvetica,sans-Serif" font-size="10.00"> </text>
</a>
</g>
</g>
<!-- Node7&#45;&gt;Node2 -->
<g id="edge6" class="edge">
<title>Node7&#45;&gt;Node2</title>
<path fill="none" stroke="#404040" d="M351.74,-365.47C368.54,-348.16 390.13,-327.06 411,-310 432.81,-292.17 457.55,-274.4 480.94,-258.58"/>
<polygon fill="none" stroke="#404040" points="481.25,-258.37 484.01,-251.71 491.22,-251.69 488.46,-258.35 481.25,-258.37"/>
<text text-anchor="middle" x="491" y="-278.5" font-family="Helvetica,sans-Serif" font-size="10.00"> &#45;prevOwners</text>
</g>
<!-- Node8 -->
<g id="node8" class="node">
<title>Node8</title>
<g id="a_node8"><a xlink:title=" ">
<polygon fill="none" stroke="#bfbfbf" points="744.5,-371 744.5,-428 861.5,-428 861.5,-371 744.5,-371"/>
<text text-anchor="middle" x="803" y="-416" font-family="Helvetica,sans-Serif" font-size="10.00">List&lt; ShipStatusItem &gt;</text>
<polyline fill="none" stroke="#bfbfbf" points="744.5,-409 861.5,-409 "/>
<text text-anchor="middle" x="803" y="-397" font-family="Helvetica,sans-Serif" font-size="10.00"> </text>
<polyline fill="none" stroke="#bfbfbf" points="744.5,-390 861.5,-390 "/>
<text text-anchor="middle" x="803" y="-378" font-family="Helvetica,sans-Serif" font-size="10.00"> </text>
</a>
</g>
</g>
<!-- Node8&#45;&gt;Node1 -->
<g id="edge9" class="edge">
<title>Node8&#45;&gt;Node1</title>
<path fill="none" stroke="#404040" d="M801.49,-370.69C799.7,-344.51 796.05,-304.29 789,-270 778.8,-220.37 761.96,-165.73 747.97,-124.28"/>
<polygon fill="none" stroke="#404040" points="747.89,-124.04 742.17,-119.65 744.02,-112.68 749.74,-117.07 747.89,-124.04"/>
<text text-anchor="middle" x="799" y="-198.5" font-family="Helvetica,sans-Serif" font-size="10.00"> &#45;items</text>
</g>
<!-- Node8&#45;&gt;Node2 -->
<g id="edge7" class="edge">
<title>Node8&#45;&gt;Node2</title>
<path fill="none" stroke="#404040" d="M785.52,-370.96C772.91,-352.4 754.68,-328.1 735,-310 724.11,-299.99 719.39,-300.08 707,-292 690.5,-281.24 672.93,-269.68 656.08,-258.55"/>
<polygon fill="none" stroke="#404040" points="655.72,-258.31 648.5,-258.34 645.7,-251.69 652.92,-251.67 655.72,-258.31"/>
<text text-anchor="middle" x="748" y="-284" font-family="Helvetica,sans-Serif" font-size="10.00"> #itemsNAFighters</text>
<text text-anchor="middle" x="748" y="-273" font-family="Helvetica,sans-Serif" font-size="10.00">#itemsNAFrigates</text>
</g>
<!-- Node9 -->
<g id="node9" class="node">
<title>Node9</title>
<g id="a_node9"><a xlink:href="../../df/d5a/interfacecom_1_1fs_1_1starfarer_1_1api_1_1combat_1_1CombatEngineAPI.html" target="_top" xlink:title=" ">
<polygon fill="none" stroke="black" points="590,-310.5 590,-488.5 726,-488.5 726,-310.5 590,-310.5"/>
<text text-anchor="start" x="598" y="-476.5" font-family="Helvetica,sans-Serif" font-size="10.00">com.fs.starfarer.api.combat.</text>
<text text-anchor="middle" x="658" y="-465.5" font-family="Helvetica,sans-Serif" font-size="10.00">CombatEngineAPI</text>
<polyline fill="none" stroke="black" points="590,-458.5 726,-458.5 "/>
<text text-anchor="middle" x="658" y="-446.5" font-family="Helvetica,sans-Serif" font-size="10.00"> </text>
<polyline fill="none" stroke="black" points="590,-439.5 726,-439.5 "/>
<text text-anchor="start" x="598" y="-427.5" font-family="Helvetica,sans-Serif" font-size="10.00">+ isInCampaign()</text>
<text text-anchor="start" x="598" y="-416.5" font-family="Helvetica,sans-Serif" font-size="10.00">+ isInCampaignSim()</text>
<text text-anchor="start" x="598" y="-405.5" font-family="Helvetica,sans-Serif" font-size="10.00">+ getCombatUI()</text>
<text text-anchor="start" x="598" y="-394.5" font-family="Helvetica,sans-Serif" font-size="10.00">+ setHyperspaceMode()</text>
<text text-anchor="start" x="598" y="-383.5" font-family="Helvetica,sans-Serif" font-size="10.00">+ getAllObjectives()</text>
<text text-anchor="start" x="598" y="-372.5" font-family="Helvetica,sans-Serif" font-size="10.00">+ getAllShips()</text>
<text text-anchor="start" x="598" y="-361.5" font-family="Helvetica,sans-Serif" font-size="10.00">+ getObjectives()</text>
<text text-anchor="start" x="598" y="-350.5" font-family="Helvetica,sans-Serif" font-size="10.00">+ getShips()</text>
<text text-anchor="start" x="598" y="-339.5" font-family="Helvetica,sans-Serif" font-size="10.00">+ getMissiles()</text>
<text text-anchor="start" x="598" y="-328.5" font-family="Helvetica,sans-Serif" font-size="10.00">+ getAsteroids()</text>
<text text-anchor="start" x="598" y="-317.5" font-family="Helvetica,sans-Serif" font-size="10.00">and 101 more...</text>
</a>
</g>
</g>
<!-- Node9&#45;&gt;Node2 -->
<g id="edge8" class="edge">
<title>Node9&#45;&gt;Node2</title>
<path fill="none" stroke="#404040" d="M618.95,-310.31C611.86,-294.29 604.61,-277.92 597.97,-262.9"/>
<polygon fill="none" stroke="#404040" points="597.87,-262.69 591.79,-258.83 593.01,-251.72 599.1,-255.59 597.87,-262.69"/>
<text text-anchor="middle" x="627.5" y="-278.5" font-family="Helvetica,sans-Serif" font-size="10.00"> #engine</text>
</g>
</g>
</svg>
        <g id="navigator" transform="translate(0 0)" fill="#404254">
                <rect fill="#f2f5e9" fill-opacity="0.5" stroke="#606060" stroke-width=".5" x="0" y="0" width="60" height="60"/>
                <use id="zoomplus" xlink:href="#zoomPlus" x="17" y="9" onmousedown="handleZoom(evt,'in')"/>
                <use id="zoomminus" xlink:href="#zoomMin" x="42" y="9" onmousedown="handleZoom(evt,'out')"/>
                <use id="reset" xlink:href="#resetDef" x="30" y="36" onmousedown="handleReset()"/>
                <g id="arrowUp" xlink:href="#dirArrow" transform="translate(30 24)" onmousedown="handlePan(0,-1)">
                  <use xlink:href="#rim" fill="#404040">
                        <set attributeName="fill" to="#808080" begin="arrowUp.mouseover" end="arrowUp.mouseout"/>
                  </use>
                  <path fill="none" stroke="white" stroke-width="1.5" d="M0,-3.0v7 M-2.5,-0.5L0,-3.0L2.5,-0.5"/>
                </g>
                <g id="arrowRight" xlink:href="#dirArrow" transform="rotate(90) translate(36 -43)" onmousedown="handlePan(1,0)">
                  <use xlink:href="#rim" fill="#404040">
                        <set attributeName="fill" to="#808080" begin="arrowRight.mouseover" end="arrowRight.mouseout"/>
                  </use>
                  <path fill="none" stroke="white" stroke-width="1.5" d="M0,-3.0v7 M-2.5,-0.5L0,-3.0L2.5,-0.5"/>
                </g>
                <g id="arrowDown" xlink:href="#dirArrow" transform="rotate(180) translate(-30 -48)" onmousedown="handlePan(0,1)">
                  <use xlink:href="#rim" fill="#404040">
                        <set attributeName="fill" to="#808080" begin="arrowDown.mouseover" end="arrowDown.mouseout"/>
                  </use>
                  <path fill="none" stroke="white" stroke-width="1.5" d="M0,-3.0v7 M-2.5,-0.5L0,-3.0L2.5,-0.5"/>
                </g>
                <g id="arrowLeft" xlink:href="#dirArrow" transform="rotate(270) translate(-36 17)" onmousedown="handlePan(-1,0)">
                  <use xlink:href="#rim" fill="#404040">
                        <set attributeName="fill" to="#808080" begin="arrowLeft.mouseover" end="arrowLeft.mouseout"/>
                  </use>
                  <path fill="none" stroke="white" stroke-width="1.5" d="M0,-3.0v7 M-2.5,-0.5L0,-3.0L2.5,-0.5"/>
                </g>
        </g>
        <svg viewBox="0 0 15 15" width="100%" height="30px" preserveAspectRatio="xMaxYMin meet">
         <g id="arrow_out" transform="scale(0.3 0.3)">
          <a xlink:href="classcom_1_1fs_1_1starfarer_1_1api_1_1impl_1_1combat_1_1NavBuoyEffect__coll__graph_org.svg" target="_base">
           <rect id="button" ry="5" rx="5" y="6" x="6" height="38" width="38"
                fill="#f2f5e9" fill-opacity="0.5" stroke="#606060" stroke-width="1.0"/>
           <path id="arrow"
             d="M 11.500037,31.436501 C 11.940474,20.09759 22.043105,11.32322 32.158766,21.979434 L 37.068811,17.246167 C 37.068811,17.246167 37.088388,32 37.088388,32 L 22.160133,31.978069 C 22.160133,31.978069 26.997745,27.140456 26.997745,27.140456 C 18.528582,18.264221 13.291696,25.230495 11.500037,31.436501 z"
             style="fill:#404040;"/>
          </a>
         </g>
        </svg>
</svg>
