<?xml version="1.0" encoding="UTF-8" standalone="no"?>
<!DOCTYPE svg PUBLIC "-//W3C//DTD SVG 1.1//EN"
 "http://www.w3.org/Graphics/SVG/1.1/DTD/svg11.dtd">
<!-- Generated by graphviz version 2.44.0 ()
 -->
<!-- Title: com.fs.starfarer.api.impl.campaign.abilities.GoDarkAbility.applyEffect Pages: 1 -->
<svg width="391pt" height="88pt"
 viewBox="0.00 0.00 391.00 88.00" xmlns="http://www.w3.org/2000/svg" xmlns:xlink="http://www.w3.org/1999/xlink">
<g id="graph0" class="graph" transform="scale(1 1) rotate(0) translate(4 84)">
<title>com.fs.starfarer.api.impl.campaign.abilities.GoDarkAbility.applyEffect</title>
<!-- Node1 -->
<g id="node1" class="node">
<title>Node1</title>
<g id="a_node1"><a xlink:title=" ">
<polygon fill="#bfbfbf" stroke="black" points="0,-24.5 0,-54.5 201,-54.5 201,-24.5 0,-24.5"/>
<text text-anchor="start" x="8" y="-42.5" font-family="Helvetica,sans-Serif" font-size="10.00">com.fs.starfarer.api.impl.campaign.abilities.</text>
<text text-anchor="middle" x="100.5" y="-31.5" font-family="Helvetica,sans-Serif" font-size="10.00">GoDarkAbility.applyEffect</text>
</a>
</g>
</g>
<!-- Node2 -->
<g id="node2" class="node">
<title>Node2</title>
<g id="a_node2"><a xlink:href="../../db/dcf/interfacecom_1_1fs_1_1starfarer_1_1api_1_1util_1_1DynamicStatsAPI.html#a73ee4989e89b94b194c02666c712c07e" target="_top" xlink:title=" ">
<polygon fill="none" stroke="black" points="243,-49.5 243,-79.5 377,-79.5 377,-49.5 243,-49.5"/>
<text text-anchor="start" x="251" y="-67.5" font-family="Helvetica,sans-Serif" font-size="10.00">com.fs.starfarer.api.util.</text>
<text text-anchor="middle" x="310" y="-56.5" font-family="Helvetica,sans-Serif" font-size="10.00">DynamicStatsAPI.getValue</text>
</a>
</g>
</g>
<!-- Node1&#45;&gt;Node2 -->
<g id="edge1" class="edge">
<title>Node1&#45;&gt;Node2</title>
<path fill="none" stroke="midnightblue" d="M201.3,-51.52C211.89,-52.8 222.53,-54.08 232.79,-55.32"/>
<polygon fill="midnightblue" stroke="midnightblue" points="232.56,-58.82 242.9,-56.54 233.4,-51.87 232.56,-58.82"/>
</g>
<!-- Node3 -->
<g id="node3" class="node">
<title>Node3</title>
<g id="a_node3"><a xlink:href="../../db/d56/interfacecom_1_1fs_1_1starfarer_1_1api_1_1campaign_1_1CampaignFleetAPI.html#a4bc3b0ccbf1e9b68e8fccd749e8e3c2d" target="_top" xlink:title=" ">
<polygon fill="none" stroke="black" points="237,-0.5 237,-30.5 383,-30.5 383,-0.5 237,-0.5"/>
<text text-anchor="start" x="245" y="-18.5" font-family="Helvetica,sans-Serif" font-size="10.00">com.fs.starfarer.api.campaign.</text>
<text text-anchor="middle" x="310" y="-7.5" font-family="Helvetica,sans-Serif" font-size="10.00">CampaignFleetAPI.getViews</text>
</a>
</g>
</g>
<!-- Node1&#45;&gt;Node3 -->
<g id="edge2" class="edge">
<title>Node1&#45;&gt;Node3</title>
<path fill="none" stroke="midnightblue" d="M201.3,-27.96C209.86,-26.97 218.46,-25.97 226.86,-25"/>
<polygon fill="midnightblue" stroke="midnightblue" points="227.46,-28.45 236.99,-23.83 226.66,-21.5 227.46,-28.45"/>
</g>
</g>
</svg>
