<?xml version="1.0" encoding="UTF-8" standalone="no"?>
<!DOCTYPE svg PUBLIC "-//W3C//DTD SVG 1.1//EN"
 "http://www.w3.org/Graphics/SVG/1.1/DTD/svg11.dtd">
<!-- Generated by graphviz version 2.44.0 ()
 -->
<!-- Title: com.fs.starfarer.api.impl.campaign.missions.hub.HubMissionWithSearch.EntityRequirement Pages: 1 -->
<!--zoomable 331 -->
<svg id="main" version="1.1" xmlns="http://www.w3.org/2000/svg" xmlns:xlink="http://www.w3.org/1999/xlink" xml:space="preserve" onload="init(evt)">
<style type="text/css"><![CDATA[
.edge:hover path { stroke: red; }
.edge:hover polygon { stroke: red; fill: red; }
]]></style>
<script type="text/javascript"><![CDATA[
var edges = document.getElementsByTagName('g');
if (edges && edges.length) {
  for (var i=0;i<edges.length;i++) {
    if (edges[i].id.substr(0,4)=='edge') {
      edges[i].setAttribute('class','edge');
    }
  }
}
]]></script>
        <defs>
                <circle id="rim" cx="0" cy="0" r="7"/>
                <circle id="rim2" cx="0" cy="0" r="3.5"/>
                <g id="zoomPlus">
                        <use xlink:href="#rim" fill="#404040">
                                <set attributeName="fill" to="#808080" begin="zoomplus.mouseover" end="zoomplus.mouseout"/>
                        </use>
                        <path d="M-4,0h8M0,-4v8" fill="none" stroke="white" stroke-width="1.5" pointer-events="none"/>
                </g>
                <g id="zoomMin">
                        <use xlink:href="#rim" fill="#404040">
                                <set attributeName="fill" to="#808080" begin="zoomminus.mouseover" end="zoomminus.mouseout"/>
                        </use>
                        <path d="M-4,0h8" fill="none" stroke="white" stroke-width="1.5" pointer-events="none"/>
                </g>
                <g id="dirArrow">
                        <path fill="none" stroke="white" stroke-width="1.5" d="M0,-3.0v7 M-2.5,-0.5L0,-3.0L2.5,-0.5"/>
                </g>
               <g id="resetDef">
                       <use xlink:href="#rim2" fill="#404040">
                               <set attributeName="fill" to="#808080" begin="reset.mouseover" end="reset.mouseout"/>
                       </use>
               </g>
        </defs>

<script type="text/javascript">
var viewWidth = 1464;
var viewHeight = 331;
var sectionId = 'dynsection-0';
</script>
<script xlink:href="../../svgpan.js"/>
<svg id="graph" class="graph">
<g id="viewport">
<title>com.fs.starfarer.api.impl.campaign.missions.hub.HubMissionWithSearch.EntityRequirement</title>
<!-- Node1 -->
<g id="node1" class="node">
<title>Node1</title>
<g id="a_node1"><a xlink:title=" ">
<polygon fill="#bfbfbf" stroke="black" points="608.5,-149.5 608.5,-217.5 833.5,-217.5 833.5,-149.5 608.5,-149.5"/>
<text text-anchor="start" x="616.5" y="-205.5" font-family="Helvetica,sans-Serif" font-size="10.00">com.fs.starfarer.api.impl.campaign.missions.hub.</text>
<text text-anchor="middle" x="721" y="-194.5" font-family="Helvetica,sans-Serif" font-size="10.00">HubMissionWithSearch.EntityRequirement</text>
<polyline fill="none" stroke="black" points="608.5,-187.5 833.5,-187.5 "/>
<text text-anchor="middle" x="721" y="-175.5" font-family="Helvetica,sans-Serif" font-size="10.00"> </text>
<polyline fill="none" stroke="black" points="608.5,-168.5 833.5,-168.5 "/>
<text text-anchor="start" x="616.5" y="-156.5" font-family="Helvetica,sans-Serif" font-size="10.00">+ entityMatchesRequirement()</text>
</a>
</g>
</g>
<!-- Node3 -->
<g id="node3" class="node">
<title>Node3</title>
<g id="a_node3"><a xlink:href="../../d3/d6f/classcom_1_1fs_1_1starfarer_1_1api_1_1impl_1_1campaign_1_1missions_1_1hub_1_1HubMissionWithSearca0f5c7a86cc8e7fa8ae6db383e5eaa6f.html" target="_top" xlink:title=" ">
<polygon fill="none" stroke="black" points="0,-0.5 0,-112.5 226,-112.5 226,-0.5 0,-0.5"/>
<text text-anchor="start" x="8" y="-100.5" font-family="Helvetica,sans-Serif" font-size="10.00">com.fs.starfarer.api.impl.campaign.missions.hub.</text>
<text text-anchor="start" x="8" y="-89.5" font-family="Helvetica,sans-Serif" font-size="10.00">HubMissionWithSearch.EntityInDirectionOfOther</text>
<text text-anchor="middle" x="113" y="-78.5" font-family="Helvetica,sans-Serif" font-size="10.00">MissionsReq</text>
<polyline fill="none" stroke="black" points="0,-71.5 226,-71.5 "/>
<text text-anchor="start" x="8" y="-59.5" font-family="Helvetica,sans-Serif" font-size="10.00"># mission</text>
<text text-anchor="start" x="8" y="-48.5" font-family="Helvetica,sans-Serif" font-size="10.00"># arcMult</text>
<polyline fill="none" stroke="black" points="0,-41.5 226,-41.5 "/>
<text text-anchor="start" x="8" y="-29.5" font-family="Helvetica,sans-Serif" font-size="10.00">+ EntityInDirectionOfOther</text>
<text text-anchor="start" x="8" y="-18.5" font-family="Helvetica,sans-Serif" font-size="10.00">MissionsReq()</text>
<text text-anchor="start" x="8" y="-7.5" font-family="Helvetica,sans-Serif" font-size="10.00">+ entityMatchesRequirement()</text>
</a>
</g>
</g>
<!-- Node1&#45;&gt;Node3 -->
<g id="edge2" class="edge">
<title>Node1&#45;&gt;Node3</title>
<path fill="none" stroke="midnightblue" d="M598,-174.63C498.5,-165.97 355.61,-148.27 235,-113 232.1,-112.15 229.17,-111.25 226.24,-110.29"/>
<polygon fill="none" stroke="midnightblue" points="597.83,-178.13 608.09,-175.49 598.43,-171.16 597.83,-178.13"/>
</g>
<!-- Node4 -->
<g id="node4" class="node">
<title>Node4</title>
<g id="a_node4"><a xlink:href="../../d3/db9/classcom_1_1fs_1_1starfarer_1_1api_1_1impl_1_1campaign_1_1missions_1_1hub_1_1HubMissionWithSearch_1_1EntityMemoryReq.html" target="_top" xlink:title=" ">
<polygon fill="none" stroke="black" points="244.5,-17 244.5,-96 469.5,-96 469.5,-17 244.5,-17"/>
<text text-anchor="start" x="252.5" y="-84" font-family="Helvetica,sans-Serif" font-size="10.00">com.fs.starfarer.api.impl.campaign.missions.hub.</text>
<text text-anchor="middle" x="357" y="-73" font-family="Helvetica,sans-Serif" font-size="10.00">HubMissionWithSearch.EntityMemoryReq</text>
<polyline fill="none" stroke="black" points="244.5,-66 469.5,-66 "/>
<text text-anchor="start" x="252.5" y="-54" font-family="Helvetica,sans-Serif" font-size="10.00">&#45; flags</text>
<polyline fill="none" stroke="black" points="244.5,-47 469.5,-47 "/>
<text text-anchor="start" x="252.5" y="-35" font-family="Helvetica,sans-Serif" font-size="10.00">+ EntityMemoryReq()</text>
<text text-anchor="start" x="252.5" y="-24" font-family="Helvetica,sans-Serif" font-size="10.00">+ entityMatchesRequirement()</text>
</a>
</g>
</g>
<!-- Node1&#45;&gt;Node4 -->
<g id="edge3" class="edge">
<title>Node1&#45;&gt;Node4</title>
<path fill="none" stroke="midnightblue" d="M598.45,-151.35C559.54,-140.43 516.6,-127.28 478,-113 464.45,-107.99 450.31,-102.12 436.67,-96.1"/>
<polygon fill="none" stroke="midnightblue" points="597.68,-154.77 608.26,-154.08 599.56,-148.03 597.68,-154.77"/>
</g>
<!-- Node5 -->
<g id="node5" class="node">
<title>Node5</title>
<g id="a_node5"><a xlink:href="../../d6/dfd/classcom_1_1fs_1_1starfarer_1_1api_1_1impl_1_1campaign_1_1missions_1_1hub_1_1HubMissionWithSearch_1_1EntityTypeReq.html" target="_top" xlink:title=" ">
<polygon fill="none" stroke="black" points="487.5,-17 487.5,-96 712.5,-96 712.5,-17 487.5,-17"/>
<text text-anchor="start" x="495.5" y="-84" font-family="Helvetica,sans-Serif" font-size="10.00">com.fs.starfarer.api.impl.campaign.missions.hub.</text>
<text text-anchor="middle" x="600" y="-73" font-family="Helvetica,sans-Serif" font-size="10.00">HubMissionWithSearch.EntityTypeReq</text>
<polyline fill="none" stroke="black" points="487.5,-66 712.5,-66 "/>
<text text-anchor="start" x="495.5" y="-54" font-family="Helvetica,sans-Serif" font-size="10.00">&#45; set</text>
<polyline fill="none" stroke="black" points="487.5,-47 712.5,-47 "/>
<text text-anchor="start" x="495.5" y="-35" font-family="Helvetica,sans-Serif" font-size="10.00">+ EntityTypeReq()</text>
<text text-anchor="start" x="495.5" y="-24" font-family="Helvetica,sans-Serif" font-size="10.00">+ entityMatchesRequirement()</text>
</a>
</g>
</g>
<!-- Node1&#45;&gt;Node5 -->
<g id="edge4" class="edge">
<title>Node1&#45;&gt;Node5</title>
<path fill="none" stroke="midnightblue" d="M681.64,-141.84C667.44,-127.17 651.45,-110.65 637.41,-96.15"/>
<polygon fill="none" stroke="midnightblue" points="679.42,-144.58 688.89,-149.33 684.45,-139.71 679.42,-144.58"/>
</g>
<!-- Node6 -->
<g id="node6" class="node">
<title>Node6</title>
<g id="a_node6"><a xlink:href="../../d6/da4/classcom_1_1fs_1_1starfarer_1_1api_1_1impl_1_1campaign_1_1missions_1_1hub_1_1HubMissionWithSearch_1_1EntityUndiscoveredReq.html" target="_top" xlink:title=" ">
<polygon fill="none" stroke="black" points="730.5,-17 730.5,-96 955.5,-96 955.5,-17 730.5,-17"/>
<text text-anchor="start" x="738.5" y="-84" font-family="Helvetica,sans-Serif" font-size="10.00">com.fs.starfarer.api.impl.campaign.missions.hub.</text>
<text text-anchor="middle" x="843" y="-73" font-family="Helvetica,sans-Serif" font-size="10.00">HubMissionWithSearch.EntityUndiscoveredReq</text>
<polyline fill="none" stroke="black" points="730.5,-66 955.5,-66 "/>
<text text-anchor="start" x="738.5" y="-54" font-family="Helvetica,sans-Serif" font-size="10.00">~ negate</text>
<polyline fill="none" stroke="black" points="730.5,-47 955.5,-47 "/>
<text text-anchor="start" x="738.5" y="-35" font-family="Helvetica,sans-Serif" font-size="10.00">+ EntityUndiscoveredReq()</text>
<text text-anchor="start" x="738.5" y="-24" font-family="Helvetica,sans-Serif" font-size="10.00">+ entityMatchesRequirement()</text>
</a>
</g>
</g>
<!-- Node1&#45;&gt;Node6 -->
<g id="edge5" class="edge">
<title>Node1&#45;&gt;Node6</title>
<path fill="none" stroke="midnightblue" d="M760.68,-141.84C775.01,-127.17 791.13,-110.65 805.28,-96.15"/>
<polygon fill="none" stroke="midnightblue" points="757.85,-139.73 753.37,-149.33 762.86,-144.62 757.85,-139.73"/>
</g>
<!-- Node7 -->
<g id="node7" class="node">
<title>Node7</title>
<g id="a_node7"><a xlink:href="../../de/dda/classcom_1_1fs_1_1starfarer_1_1api_1_1impl_1_1campaign_1_1missions_1_1hub_1_1HubMissionWithSearch_1_1MultipleEntityRequirements.html" target="_top" xlink:title=" ">
<polygon fill="none" stroke="black" points="973.5,-11.5 973.5,-101.5 1212.5,-101.5 1212.5,-11.5 973.5,-11.5"/>
<text text-anchor="start" x="981.5" y="-89.5" font-family="Helvetica,sans-Serif" font-size="10.00">com.fs.starfarer.api.impl.campaign.missions.hub.</text>
<text text-anchor="middle" x="1093" y="-78.5" font-family="Helvetica,sans-Serif" font-size="10.00">HubMissionWithSearch.MultipleEntityRequirements</text>
<polyline fill="none" stroke="black" points="973.5,-71.5 1212.5,-71.5 "/>
<text text-anchor="start" x="981.5" y="-59.5" font-family="Helvetica,sans-Serif" font-size="10.00"># reqs</text>
<text text-anchor="start" x="981.5" y="-48.5" font-family="Helvetica,sans-Serif" font-size="10.00"># mode</text>
<polyline fill="none" stroke="black" points="973.5,-41.5 1212.5,-41.5 "/>
<text text-anchor="start" x="981.5" y="-29.5" font-family="Helvetica,sans-Serif" font-size="10.00">+ MultipleEntityRequirements()</text>
<text text-anchor="start" x="981.5" y="-18.5" font-family="Helvetica,sans-Serif" font-size="10.00">+ entityMatchesRequirement()</text>
</a>
</g>
</g>
<!-- Node1&#45;&gt;Node7 -->
<g id="edge6" class="edge">
<title>Node1&#45;&gt;Node7</title>
<path fill="none" stroke="midnightblue" d="M843.59,-150.98C882.73,-140.02 926,-126.94 965,-113 974.81,-109.49 984.93,-105.6 994.99,-101.55"/>
<polygon fill="none" stroke="midnightblue" points="842.43,-147.67 833.73,-153.73 844.3,-154.42 842.43,-147.67"/>
</g>
<!-- Node8 -->
<g id="node8" class="node">
<title>Node8</title>
<g id="a_node8"><a xlink:href="../../d4/d1c/classcom_1_1fs_1_1starfarer_1_1api_1_1impl_1_1campaign_1_1missions_1_1hub_1_1HubMissionWithSearch_1_1RequiredEntityTags.html" target="_top" xlink:title=" ">
<polygon fill="none" stroke="black" points="1230.5,-17 1230.5,-96 1455.5,-96 1455.5,-17 1230.5,-17"/>
<text text-anchor="start" x="1238.5" y="-84" font-family="Helvetica,sans-Serif" font-size="10.00">com.fs.starfarer.api.impl.campaign.missions.hub.</text>
<text text-anchor="middle" x="1343" y="-73" font-family="Helvetica,sans-Serif" font-size="10.00">HubMissionWithSearch.RequiredEntityTags</text>
<polyline fill="none" stroke="black" points="1230.5,-66 1455.5,-66 "/>
<text text-anchor="middle" x="1343" y="-54" font-family="Helvetica,sans-Serif" font-size="10.00"> </text>
<polyline fill="none" stroke="black" points="1230.5,-47 1455.5,-47 "/>
<text text-anchor="start" x="1238.5" y="-35" font-family="Helvetica,sans-Serif" font-size="10.00">+ RequiredEntityTags()</text>
<text text-anchor="start" x="1238.5" y="-24" font-family="Helvetica,sans-Serif" font-size="10.00">+ entityMatchesRequirement()</text>
</a>
</g>
</g>
<!-- Node1&#45;&gt;Node8 -->
<g id="edge7" class="edge">
<title>Node1&#45;&gt;Node8</title>
<path fill="none" stroke="midnightblue" d="M844,-175.48C946.73,-167.25 1096.16,-149.72 1222,-113 1237.2,-108.56 1252.93,-102.53 1267.81,-96.07"/>
<polygon fill="none" stroke="midnightblue" points="843.6,-172 833.9,-176.27 844.14,-178.98 843.6,-172"/>
</g>
<!-- Node2 -->
<g id="node2" class="node">
<title>Node2</title>
<g id="a_node2"><a xlink:href="../../db/da0/interfacecom_1_1fs_1_1starfarer_1_1api_1_1impl_1_1campaign_1_1missions_1_1hub_1_1HubMissionWithSearch_1_1GenericRequirement.html" target="_top" xlink:title=" ">
<polygon fill="none" stroke="black" points="608.5,-254.5 608.5,-322.5 833.5,-322.5 833.5,-254.5 608.5,-254.5"/>
<text text-anchor="start" x="616.5" y="-310.5" font-family="Helvetica,sans-Serif" font-size="10.00">com.fs.starfarer.api.impl.campaign.missions.hub.</text>
<text text-anchor="middle" x="721" y="-299.5" font-family="Helvetica,sans-Serif" font-size="10.00">HubMissionWithSearch.GenericRequirement</text>
<polyline fill="none" stroke="black" points="608.5,-292.5 833.5,-292.5 "/>
<text text-anchor="middle" x="721" y="-280.5" font-family="Helvetica,sans-Serif" font-size="10.00"> </text>
<polyline fill="none" stroke="black" points="608.5,-273.5 833.5,-273.5 "/>
<text text-anchor="middle" x="721" y="-261.5" font-family="Helvetica,sans-Serif" font-size="10.00"> </text>
</a>
</g>
</g>
<!-- Node2&#45;&gt;Node1 -->
<g id="edge1" class="edge">
<title>Node2&#45;&gt;Node1</title>
<path fill="none" stroke="midnightblue" d="M721,-244.14C721,-235.26 721,-226.04 721,-217.59"/>
<polygon fill="none" stroke="midnightblue" points="717.5,-244.34 721,-254.34 724.5,-244.34 717.5,-244.34"/>
</g>
</g>
</svg>
        <g id="navigator" transform="translate(0 0)" fill="#404254">
                <rect fill="#f2f5e9" fill-opacity="0.5" stroke="#606060" stroke-width=".5" x="0" y="0" width="60" height="60"/>
                <use id="zoomplus" xlink:href="#zoomPlus" x="17" y="9" onmousedown="handleZoom(evt,'in')"/>
                <use id="zoomminus" xlink:href="#zoomMin" x="42" y="9" onmousedown="handleZoom(evt,'out')"/>
                <use id="reset" xlink:href="#resetDef" x="30" y="36" onmousedown="handleReset()"/>
                <g id="arrowUp" xlink:href="#dirArrow" transform="translate(30 24)" onmousedown="handlePan(0,-1)">
                  <use xlink:href="#rim" fill="#404040">
                        <set attributeName="fill" to="#808080" begin="arrowUp.mouseover" end="arrowUp.mouseout"/>
                  </use>
                  <path fill="none" stroke="white" stroke-width="1.5" d="M0,-3.0v7 M-2.5,-0.5L0,-3.0L2.5,-0.5"/>
                </g>
                <g id="arrowRight" xlink:href="#dirArrow" transform="rotate(90) translate(36 -43)" onmousedown="handlePan(1,0)">
                  <use xlink:href="#rim" fill="#404040">
                        <set attributeName="fill" to="#808080" begin="arrowRight.mouseover" end="arrowRight.mouseout"/>
                  </use>
                  <path fill="none" stroke="white" stroke-width="1.5" d="M0,-3.0v7 M-2.5,-0.5L0,-3.0L2.5,-0.5"/>
                </g>
                <g id="arrowDown" xlink:href="#dirArrow" transform="rotate(180) translate(-30 -48)" onmousedown="handlePan(0,1)">
                  <use xlink:href="#rim" fill="#404040">
                        <set attributeName="fill" to="#808080" begin="arrowDown.mouseover" end="arrowDown.mouseout"/>
                  </use>
                  <path fill="none" stroke="white" stroke-width="1.5" d="M0,-3.0v7 M-2.5,-0.5L0,-3.0L2.5,-0.5"/>
                </g>
                <g id="arrowLeft" xlink:href="#dirArrow" transform="rotate(270) translate(-36 17)" onmousedown="handlePan(-1,0)">
                  <use xlink:href="#rim" fill="#404040">
                        <set attributeName="fill" to="#808080" begin="arrowLeft.mouseover" end="arrowLeft.mouseout"/>
                  </use>
                  <path fill="none" stroke="white" stroke-width="1.5" d="M0,-3.0v7 M-2.5,-0.5L0,-3.0L2.5,-0.5"/>
                </g>
        </g>
        <svg viewBox="0 0 15 15" width="100%" height="30px" preserveAspectRatio="xMaxYMin meet">
         <g id="arrow_out" transform="scale(0.3 0.3)">
          <a xlink:href="interfacecom_1_1fs_1_1starfarer_1_1api_1_1impl_1_1campaign_1_1missions_1_1hub_1_1HubMissionWithS2fb6e4e8ded4b517183e9051cbaa1d97_org.svg" target="_base">
           <rect id="button" ry="5" rx="5" y="6" x="6" height="38" width="38"
                fill="#f2f5e9" fill-opacity="0.5" stroke="#606060" stroke-width="1.0"/>
           <path id="arrow"
             d="M 11.500037,31.436501 C 11.940474,20.09759 22.043105,11.32322 32.158766,21.979434 L 37.068811,17.246167 C 37.068811,17.246167 37.088388,32 37.088388,32 L 22.160133,31.978069 C 22.160133,31.978069 26.997745,27.140456 26.997745,27.140456 C 18.528582,18.264221 13.291696,25.230495 11.500037,31.436501 z"
             style="fill:#404040;"/>
          </a>
         </g>
        </svg>
</svg>
