<?xml version="1.0" encoding="UTF-8" standalone="no"?>
<!DOCTYPE svg PUBLIC "-//W3C//DTD SVG 1.1//EN"
 "http://www.w3.org/Graphics/SVG/1.1/DTD/svg11.dtd">
<!-- Generated by graphviz version 2.44.0 ()
 -->
<!-- Title: com.fs.starfarer.api.combat.EveryFrameWeaponEffectPluginWithAdvanceAfter Pages: 1 -->
<svg width="183pt" height="193pt"
 viewBox="0.00 0.00 183.00 193.00" xmlns="http://www.w3.org/2000/svg" xmlns:xlink="http://www.w3.org/1999/xlink">
<g id="graph0" class="graph" transform="scale(1 1) rotate(0) translate(4 189)">
<title>com.fs.starfarer.api.combat.EveryFrameWeaponEffectPluginWithAdvanceAfter</title>
<!-- Node1 -->
<g id="node1" class="node">
<title>Node1</title>
<g id="a_node1"><a xlink:title=" ">
<polygon fill="#bfbfbf" stroke="black" points="0,-0.5 0,-79.5 175,-79.5 175,-0.5 0,-0.5"/>
<text text-anchor="start" x="8" y="-67.5" font-family="Helvetica,sans-Serif" font-size="10.00">com.fs.starfarer.api.combat.</text>
<text text-anchor="start" x="8" y="-56.5" font-family="Helvetica,sans-Serif" font-size="10.00">EveryFrameWeaponEffectPluginWith</text>
<text text-anchor="middle" x="87.5" y="-45.5" font-family="Helvetica,sans-Serif" font-size="10.00">AdvanceAfter</text>
<polyline fill="none" stroke="black" points="0,-38.5 175,-38.5 "/>
<text text-anchor="middle" x="87.5" y="-26.5" font-family="Helvetica,sans-Serif" font-size="10.00"> </text>
<polyline fill="none" stroke="black" points="0,-19.5 175,-19.5 "/>
<text text-anchor="start" x="8" y="-7.5" font-family="Helvetica,sans-Serif" font-size="10.00">+ advanceAfter()</text>
</a>
</g>
</g>
<!-- Node2 -->
<g id="node2" class="node">
<title>Node2</title>
<g id="a_node2"><a xlink:href="../../da/d61/interfacecom_1_1fs_1_1starfarer_1_1api_1_1combat_1_1EveryFrameWeaponEffectPlugin.html" target="_top" xlink:title=" ">
<polygon fill="none" stroke="black" points="10,-116.5 10,-184.5 165,-184.5 165,-116.5 10,-116.5"/>
<text text-anchor="start" x="18" y="-172.5" font-family="Helvetica,sans-Serif" font-size="10.00">com.fs.starfarer.api.combat.</text>
<text text-anchor="middle" x="87.5" y="-161.5" font-family="Helvetica,sans-Serif" font-size="10.00">EveryFrameWeaponEffectPlugin</text>
<polyline fill="none" stroke="black" points="10,-154.5 165,-154.5 "/>
<text text-anchor="middle" x="87.5" y="-142.5" font-family="Helvetica,sans-Serif" font-size="10.00"> </text>
<polyline fill="none" stroke="black" points="10,-135.5 165,-135.5 "/>
<text text-anchor="start" x="18" y="-123.5" font-family="Helvetica,sans-Serif" font-size="10.00">+ advance()</text>
</a>
</g>
</g>
<!-- Node2&#45;&gt;Node1 -->
<g id="edge1" class="edge">
<title>Node2&#45;&gt;Node1</title>
<path fill="none" stroke="midnightblue" d="M87.5,-106.27C87.5,-97.48 87.5,-88.28 87.5,-79.65"/>
<polygon fill="none" stroke="midnightblue" points="84,-106.36 87.5,-116.36 91,-106.36 84,-106.36"/>
</g>
</g>
</svg>
