<?xml version="1.0" encoding="UTF-8" standalone="no"?>
<!DOCTYPE svg PUBLIC "-//W3C//DTD SVG 1.1//EN"
 "http://www.w3.org/Graphics/SVG/1.1/DTD/svg11.dtd">
<!-- Generated by graphviz version 2.44.0 ()
 -->
<!-- Title: com.fs.starfarer.api.combat.ShipAPI.isAlive Pages: 1 -->
<svg width="374pt" height="186pt"
 viewBox="0.00 0.00 374.00 186.00" xmlns="http://www.w3.org/2000/svg" xmlns:xlink="http://www.w3.org/1999/xlink">
<g id="graph0" class="graph" transform="scale(1 1) rotate(0) translate(4 182)">
<title>com.fs.starfarer.api.combat.ShipAPI.isAlive</title>
<!-- Node1 -->
<g id="node1" class="node">
<title>Node1</title>
<g id="a_node1"><a xlink:title=" ">
<polygon fill="#bfbfbf" stroke="black" points="230,-73.5 230,-103.5 366,-103.5 366,-73.5 230,-73.5"/>
<text text-anchor="start" x="238" y="-91.5" font-family="Helvetica,sans-Serif" font-size="10.00">com.fs.starfarer.api.combat.</text>
<text text-anchor="middle" x="298" y="-80.5" font-family="Helvetica,sans-Serif" font-size="10.00">ShipAPI.isAlive</text>
</a>
</g>
</g>
<!-- Node2 -->
<g id="node2" class="node">
<title>Node2</title>
<g id="a_node2"><a xlink:href="../../dd/df4/classcom_1_1fs_1_1starfarer_1_1api_1_1impl_1_1hullmods_1_1PeriodicMissileReload.html#acd4ac260f37473e5c6b196bc3448b1c4" target="_top" xlink:title=" ">
<polygon fill="none" stroke="black" points="0,-147.5 0,-177.5 194,-177.5 194,-147.5 0,-147.5"/>
<text text-anchor="start" x="8" y="-165.5" font-family="Helvetica,sans-Serif" font-size="10.00">com.fs.starfarer.api.impl.hullmods.</text>
<text text-anchor="middle" x="97" y="-154.5" font-family="Helvetica,sans-Serif" font-size="10.00">PeriodicMissileReload.advanceInCombat</text>
</a>
</g>
</g>
<!-- Node1&#45;&gt;Node2 -->
<g id="edge1" class="edge">
<title>Node1&#45;&gt;Node2</title>
<path fill="none" stroke="midnightblue" d="M260.63,-108.44C241.27,-118.47 216.8,-130.22 194,-138.5 184.96,-141.78 175.28,-144.78 165.67,-147.46"/>
<polygon fill="midnightblue" stroke="midnightblue" points="262.47,-111.43 269.7,-103.68 259.22,-105.23 262.47,-111.43"/>
</g>
<!-- Node3 -->
<g id="node3" class="node">
<title>Node3</title>
<g id="a_node3"><a xlink:href="../../df/d1b/classcom_1_1fs_1_1starfarer_1_1api_1_1impl_1_1hullmods_1_1SharedFluxSink.html#a5a23b81fd2e55bfe1f32f4ebaf68b8e4" target="_top" xlink:title=" ">
<polygon fill="none" stroke="black" points="14,-98.5 14,-128.5 180,-128.5 180,-98.5 14,-98.5"/>
<text text-anchor="start" x="22" y="-116.5" font-family="Helvetica,sans-Serif" font-size="10.00">com.fs.starfarer.api.impl.hullmods.</text>
<text text-anchor="middle" x="97" y="-105.5" font-family="Helvetica,sans-Serif" font-size="10.00">SharedFluxSink.advanceInCombat</text>
</a>
</g>
</g>
<!-- Node1&#45;&gt;Node3 -->
<g id="edge2" class="edge">
<title>Node1&#45;&gt;Node3</title>
<path fill="none" stroke="midnightblue" d="M219.69,-98.21C206.79,-99.83 193.36,-101.52 180.34,-103.16"/>
<polygon fill="midnightblue" stroke="midnightblue" points="220.42,-101.65 229.91,-96.93 219.55,-94.7 220.42,-101.65"/>
</g>
<!-- Node4 -->
<g id="node4" class="node">
<title>Node4</title>
<g id="a_node4"><a xlink:href="../../de/d41/classcom_1_1fs_1_1starfarer_1_1api_1_1impl_1_1hullmods_1_1ShieldAlwaysOn.html#a07634a9366138dd35ffaaf779c9bf045" target="_top" xlink:title=" ">
<polygon fill="none" stroke="black" points="12.5,-49.5 12.5,-79.5 181.5,-79.5 181.5,-49.5 12.5,-49.5"/>
<text text-anchor="start" x="20.5" y="-67.5" font-family="Helvetica,sans-Serif" font-size="10.00">com.fs.starfarer.api.impl.hullmods.</text>
<text text-anchor="middle" x="97" y="-56.5" font-family="Helvetica,sans-Serif" font-size="10.00">ShieldAlwaysOn.advanceInCombat</text>
</a>
</g>
</g>
<!-- Node1&#45;&gt;Node4 -->
<g id="edge3" class="edge">
<title>Node1&#45;&gt;Node4</title>
<path fill="none" stroke="midnightblue" d="M219.61,-79.17C207.2,-77.67 194.3,-76.11 181.75,-74.6"/>
<polygon fill="midnightblue" stroke="midnightblue" points="219.56,-82.69 229.91,-80.41 220.4,-75.74 219.56,-82.69"/>
</g>
<!-- Node5 -->
<g id="node5" class="node">
<title>Node5</title>
<g id="a_node5"><a xlink:href="../../d6/df8/classcom_1_1fs_1_1starfarer_1_1api_1_1impl_1_1hullmods_1_1StealthMinefield.html#aca60047ab7441fe25b5b999dca0190dc" target="_top" xlink:title=" ">
<polygon fill="none" stroke="black" points="13.5,-0.5 13.5,-30.5 180.5,-30.5 180.5,-0.5 13.5,-0.5"/>
<text text-anchor="start" x="21.5" y="-18.5" font-family="Helvetica,sans-Serif" font-size="10.00">com.fs.starfarer.api.impl.hullmods.</text>
<text text-anchor="middle" x="97" y="-7.5" font-family="Helvetica,sans-Serif" font-size="10.00">StealthMinefield.advanceInCombat</text>
</a>
</g>
</g>
<!-- Node1&#45;&gt;Node5 -->
<g id="edge4" class="edge">
<title>Node1&#45;&gt;Node5</title>
<path fill="none" stroke="midnightblue" d="M259.28,-68.91C240.08,-59.46 216.17,-48.48 194,-40.5 183.87,-36.86 172.97,-33.5 162.27,-30.51"/>
<polygon fill="midnightblue" stroke="midnightblue" points="257.78,-72.08 268.29,-73.4 260.9,-65.81 257.78,-72.08"/>
</g>
</g>
</svg>
