<?xml version="1.0" encoding="UTF-8" standalone="no"?>
<!DOCTYPE svg PUBLIC "-//W3C//DTD SVG 1.1//EN"
 "http://www.w3.org/Graphics/SVG/1.1/DTD/svg11.dtd">
<!-- Generated by graphviz version 7.0.5 (20221223.1930)
 -->
<!-- Title: com.fs.starfarer.api.impl.campaign.intel.bar.events.PlanetaryShieldBarEvent Pages: 1 -->
<svg width="1356pt" height="309pt"
 viewBox="0.00 0.00 1356.00 309.00" xmlns="http://www.w3.org/2000/svg" xmlns:xlink="http://www.w3.org/1999/xlink">
<g id="graph0" class="graph" transform="scale(1 1) rotate(0) translate(4 305)">
<title>com.fs.starfarer.api.impl.campaign.intel.bar.events.PlanetaryShieldBarEvent</title>
<!-- Node1 -->
<g id="node1" class="node">
<title>Node1</title>
<g id="a_node1"><a xlink:title=" ">
<polygon fill="#999999" stroke="#666666" points="1348,-232 1115,-232 1115,-202 1348,-202 1348,-232"/>
<text text-anchor="start" x="1123" y="-220" font-family="Helvetica,sans-Serif" font-size="10.00">com.fs.starfarer.api.impl.campaign.intel.bar.events.</text>
<text text-anchor="middle" x="1231.5" y="-209" font-family="Helvetica,sans-Serif" font-size="10.00">PlanetaryShieldBarEvent</text>
</a>
</g>
</g>
<!-- Node2 -->
<g id="node2" class="node">
<title>Node2</title>
<g id="a_node2"><a xlink:href="../../da/d99/classcom_1_1fs_1_1starfarer_1_1api_1_1impl_1_1campaign_1_1intel_1_1bar_1_1events_1_1BaseBarEventWithPerson.html" target="_top" xlink:title=" ">
<polygon fill="white" stroke="#666666" points="1078,-232 845,-232 845,-202 1078,-202 1078,-232"/>
<text text-anchor="start" x="853" y="-220" font-family="Helvetica,sans-Serif" font-size="10.00">com.fs.starfarer.api.impl.campaign.intel.bar.events.</text>
<text text-anchor="middle" x="961.5" y="-209" font-family="Helvetica,sans-Serif" font-size="10.00">BaseBarEventWithPerson</text>
</a>
</g>
</g>
<!-- Node2&#45;&gt;Node1 -->
<g id="edge1" class="edge">
<title>Node2&#45;&gt;Node1</title>
<path fill="none" stroke="#63b8ff" d="M1089.81,-217C1098.13,-217 1106.49,-217 1114.76,-217"/>
<polygon fill="#63b8ff" stroke="#63b8ff" points="1090,-213.5 1080,-217 1090,-220.5 1090,-213.5"/>
</g>
<!-- Node3 -->
<g id="node3" class="node">
<title>Node3</title>
<g id="a_node3"><a xlink:href="../../dc/da0/classcom_1_1fs_1_1starfarer_1_1api_1_1impl_1_1campaign_1_1intel_1_1bar_1_1events_1_1BaseBarEvent.html" target="_top" xlink:title=" ">
<polygon fill="white" stroke="#666666" points="758,-205 525,-205 525,-175 758,-175 758,-205"/>
<text text-anchor="start" x="533" y="-193" font-family="Helvetica,sans-Serif" font-size="10.00">com.fs.starfarer.api.impl.campaign.intel.bar.events.</text>
<text text-anchor="middle" x="641.5" y="-182" font-family="Helvetica,sans-Serif" font-size="10.00">BaseBarEvent</text>
</a>
</g>
</g>
<!-- Node3&#45;&gt;Node2 -->
<g id="edge2" class="edge">
<title>Node3&#45;&gt;Node2</title>
<path fill="none" stroke="#63b8ff" d="M769.51,-200.78C794.31,-202.89 820.2,-205.09 844.61,-207.16"/>
<polygon fill="#63b8ff" stroke="#63b8ff" points="769.97,-197.31 759.71,-199.95 769.38,-204.29 769.97,-197.31"/>
</g>
<!-- Node4 -->
<g id="node4" class="node">
<title>Node4</title>
<g id="a_node4"><a xlink:href="../../d8/d74/interfacecom_1_1fs_1_1starfarer_1_1api_1_1impl_1_1campaign_1_1intel_1_1bar_1_1PortsideBarEvent.html" target="_top" xlink:title=" ">
<polygon fill="white" stroke="#666666" points="420.5,-205 218.5,-205 218.5,-175 420.5,-175 420.5,-205"/>
<text text-anchor="start" x="226.5" y="-193" font-family="Helvetica,sans-Serif" font-size="10.00">com.fs.starfarer.api.impl.campaign.intel.bar.</text>
<text text-anchor="middle" x="319.5" y="-182" font-family="Helvetica,sans-Serif" font-size="10.00">PortsideBarEvent</text>
</a>
</g>
</g>
<!-- Node4&#45;&gt;Node3 -->
<g id="edge3" class="edge">
<title>Node4&#45;&gt;Node3</title>
<path fill="none" stroke="#63b8ff" d="M432.19,-190C462.08,-190 494.45,-190 524.55,-190"/>
<polygon fill="#63b8ff" stroke="#63b8ff" points="432.39,-186.5 422.39,-190 432.39,-193.5 432.39,-186.5"/>
</g>
<!-- Node5 -->
<g id="node5" class="node">
<title>Node5</title>
<g id="a_node5"><a xlink:href="../../da/d82/interfacecom_1_1fs_1_1starfarer_1_1api_1_1campaign_1_1InteractionDialogAPI.html" target="_top" xlink:title=" ">
<polygon fill="white" stroke="#666666" points="392.5,-157 246.5,-157 246.5,-127 392.5,-127 392.5,-157"/>
<text text-anchor="start" x="254.5" y="-145" font-family="Helvetica,sans-Serif" font-size="10.00">com.fs.starfarer.api.campaign.</text>
<text text-anchor="middle" x="319.5" y="-134" font-family="Helvetica,sans-Serif" font-size="10.00">InteractionDialogAPI</text>
</a>
</g>
</g>
<!-- Node5&#45;&gt;Node3 -->
<g id="edge4" class="edge">
<title>Node5&#45;&gt;Node3</title>
<path fill="none" stroke="#9a32cd" stroke-dasharray="5,2" d="M403.97,-154.52C444.74,-160.64 494.18,-168.05 537.3,-174.52"/>
<polygon fill="#9a32cd" stroke="#9a32cd" points="404.62,-151.08 394.21,-153.06 403.58,-158 404.62,-151.08"/>
<text text-anchor="middle" x="479" y="-172" font-family="Helvetica,sans-Serif" font-size="10.00"> dialog</text>
</g>
<!-- Node6 -->
<g id="node6" class="node">
<title>Node6</title>
<g id="a_node6"><a xlink:href="../../d4/ddc/interfacecom_1_1fs_1_1starfarer_1_1api_1_1campaign_1_1TextPanelAPI.html" target="_top" xlink:title=" ">
<polygon fill="white" stroke="#666666" points="392.5,-109 246.5,-109 246.5,-79 392.5,-79 392.5,-109"/>
<text text-anchor="start" x="254.5" y="-97" font-family="Helvetica,sans-Serif" font-size="10.00">com.fs.starfarer.api.campaign.</text>
<text text-anchor="middle" x="319.5" y="-86" font-family="Helvetica,sans-Serif" font-size="10.00">TextPanelAPI</text>
</a>
</g>
</g>
<!-- Node6&#45;&gt;Node3 -->
<g id="edge5" class="edge">
<title>Node6&#45;&gt;Node3</title>
<path fill="none" stroke="#9a32cd" stroke-dasharray="5,2" d="M404.02,-110.22C413.85,-112.6 423.69,-115.2 433,-118 466.83,-128.16 477.71,-127.26 507,-147 516.65,-153.5 514.84,-160.34 525,-166 530.9,-169.29 537.2,-172.13 543.7,-174.59"/>
<polygon fill="#9a32cd" stroke="#9a32cd" points="404.97,-106.85 394.44,-107.98 403.37,-113.67 404.97,-106.85"/>
<text text-anchor="middle" x="479" y="-150" font-family="Helvetica,sans-Serif" font-size="10.00"> text</text>
</g>
<!-- Node7 -->
<g id="node7" class="node">
<title>Node7</title>
<g id="a_node7"><a xlink:href="../../da/d65/interfacecom_1_1fs_1_1starfarer_1_1api_1_1campaign_1_1OptionPanelAPI.html" target="_top" xlink:title=" ">
<polygon fill="white" stroke="#666666" points="392.5,-61 246.5,-61 246.5,-31 392.5,-31 392.5,-61"/>
<text text-anchor="start" x="254.5" y="-49" font-family="Helvetica,sans-Serif" font-size="10.00">com.fs.starfarer.api.campaign.</text>
<text text-anchor="middle" x="319.5" y="-38" font-family="Helvetica,sans-Serif" font-size="10.00">OptionPanelAPI</text>
</a>
</g>
</g>
<!-- Node7&#45;&gt;Node3 -->
<g id="edge6" class="edge">
<title>Node7&#45;&gt;Node3</title>
<path fill="none" stroke="#9a32cd" stroke-dasharray="5,2" d="M403.92,-61.1C413.84,-63.68 423.72,-66.64 433,-70 467.95,-82.66 483.17,-80.47 507,-109 524.03,-129.39 505.29,-148.19 525,-166 528.57,-169.23 532.46,-172.06 536.58,-174.56"/>
<polygon fill="#9a32cd" stroke="#9a32cd" points="404.76,-57.7 394.22,-58.7 403.08,-64.49 404.76,-57.7"/>
<text text-anchor="middle" x="479" y="-112" font-family="Helvetica,sans-Serif" font-size="10.00"> options</text>
</g>
<!-- Node8 -->
<g id="node8" class="node">
<title>Node8</title>
<g id="a_node8"><a xlink:title=" ">
<polygon fill="white" stroke="#666666" points="433,-253 206,-253 206,-223 433,-223 433,-253"/>
<text text-anchor="start" x="214" y="-241" font-family="Helvetica,sans-Serif" font-size="10.00">Map&lt; String, com.fs.starfarer.api.campaign.rules.</text>
<text text-anchor="middle" x="319.5" y="-230" font-family="Helvetica,sans-Serif" font-size="10.00">MemoryAPI &gt;</text>
</a>
</g>
</g>
<!-- Node8&#45;&gt;Node3 -->
<g id="edge7" class="edge">
<title>Node8&#45;&gt;Node3</title>
<path fill="none" stroke="#9a32cd" stroke-dasharray="5,2" d="M434.75,-220.86C468.24,-215.84 504.65,-210.38 537.41,-205.46"/>
<polygon fill="#9a32cd" stroke="#9a32cd" points="434.38,-217.38 425.01,-222.32 435.42,-224.3 434.38,-217.38"/>
<text text-anchor="middle" x="479" y="-221" font-family="Helvetica,sans-Serif" font-size="10.00"> memoryMap</text>
</g>
<!-- Node9 -->
<g id="node9" class="node">
<title>Node9</title>
<g id="a_node9"><a xlink:href="../../de/d91/interfacecom_1_1fs_1_1starfarer_1_1api_1_1campaign_1_1econ_1_1MarketAPI.html" target="_top" xlink:title=" ">
<polygon fill="white" stroke="#666666" points="404,-301 235,-301 235,-271 404,-271 404,-301"/>
<text text-anchor="start" x="243" y="-289" font-family="Helvetica,sans-Serif" font-size="10.00">com.fs.starfarer.api.campaign.econ.</text>
<text text-anchor="middle" x="319.5" y="-278" font-family="Helvetica,sans-Serif" font-size="10.00">MarketAPI</text>
</a>
</g>
</g>
<!-- Node9&#45;&gt;Node1 -->
<g id="edge15" class="edge">
<title>Node9&#45;&gt;Node1</title>
<path fill="none" stroke="#9a32cd" stroke-dasharray="5,2" d="M415.71,-290.07C427.59,-290.45 439.58,-290.78 451,-291 475.88,-291.48 482.11,-291.1 507,-291 618.56,-290.56 646.78,-297.74 758,-289 901.37,-277.73 935.86,-262.85 1078,-241 1095.75,-238.27 1114.65,-235.33 1132.89,-232.47"/>
<polygon fill="#9a32cd" stroke="#9a32cd" points="416,-286.58 405.89,-289.74 415.77,-293.58 416,-286.58"/>
<text text-anchor="middle" x="801.5" y="-290" font-family="Helvetica,sans-Serif" font-size="10.00"> pilotMarket</text>
</g>
<!-- Node9&#45;&gt;Node2 -->
<g id="edge12" class="edge">
<title>Node9&#45;&gt;Node2</title>
<path fill="none" stroke="#9a32cd" stroke-dasharray="5,2" d="M415.6,-281.49C504.4,-276.65 640.51,-267.61 758,-253 788.89,-249.16 796.35,-246.42 827,-241 842.54,-238.25 859.08,-235.3 875.05,-232.44"/>
<polygon fill="#9a32cd" stroke="#9a32cd" points="415.51,-277.99 405.72,-282.02 415.89,-284.98 415.51,-277.99"/>
<text text-anchor="middle" x="641.5" y="-277" font-family="Helvetica,sans-Serif" font-size="10.00"> market</text>
</g>
<!-- Node9&#45;&gt;Node3 -->
<g id="edge8" class="edge">
<title>Node9&#45;&gt;Node3</title>
<path fill="none" stroke="#9a32cd" stroke-dasharray="5,2" d="M411.78,-267.85C419,-266.01 426.14,-264.06 433,-262 466.83,-251.84 477.17,-251.92 507,-233 516.29,-227.11 515.29,-221.17 525,-216 532.8,-211.85 541.24,-208.36 549.88,-205.42"/>
<polygon fill="#9a32cd" stroke="#9a32cd" points="411.15,-264.4 402.27,-270.19 412.82,-271.2 411.15,-264.4"/>
<text text-anchor="middle" x="479" y="-259" font-family="Helvetica,sans-Serif" font-size="10.00"> shownAt</text>
</g>
<!-- Node10 -->
<g id="node10" class="node">
<title>Node10</title>
<g id="a_node10"><a xlink:href="../../de/da5/interfacecom_1_1fs_1_1starfarer_1_1api_1_1campaign_1_1rules_1_1HasMemory.html" target="_top" xlink:title=" ">
<polygon fill="white" stroke="#666666" points="169,-30 0,-30 0,0 169,0 169,-30"/>
<text text-anchor="start" x="8" y="-18" font-family="Helvetica,sans-Serif" font-size="10.00">com.fs.starfarer.api.campaign.rules.</text>
<text text-anchor="middle" x="84.5" y="-7" font-family="Helvetica,sans-Serif" font-size="10.00">HasMemory</text>
</a>
</g>
</g>
<!-- Node10&#45;&gt;Node9 -->
<g id="edge9" class="edge">
<title>Node10&#45;&gt;Node9</title>
<path fill="none" stroke="#63b8ff" d="M90.46,-41.45C101.49,-92.59 133.1,-205 206,-262 214.5,-268.64 224.41,-273.55 234.77,-277.16"/>
<polygon fill="#63b8ff" stroke="#63b8ff" points="93.93,-40.97 88.49,-31.88 87.07,-42.38 93.93,-40.97"/>
</g>
<!-- Node11 -->
<g id="node11" class="node">
<title>Node11</title>
<g id="a_node11"><a xlink:href="../../d9/df0/interfacecom_1_1fs_1_1starfarer_1_1api_1_1characters_1_1PersonAPI.html" target="_top" xlink:title=" ">
<polygon fill="white" stroke="#666666" points="716,-157 567,-157 567,-127 716,-127 716,-157"/>
<text text-anchor="start" x="575" y="-145" font-family="Helvetica,sans-Serif" font-size="10.00">com.fs.starfarer.api.characters.</text>
<text text-anchor="middle" x="641.5" y="-134" font-family="Helvetica,sans-Serif" font-size="10.00">PersonAPI</text>
</a>
</g>
</g>
<!-- Node10&#45;&gt;Node11 -->
<g id="edge11" class="edge">
<title>Node10&#45;&gt;Node11</title>
<path fill="none" stroke="#63b8ff" d="M180.48,-4.31C251.4,0.67 349.97,1.18 433,-22 509.36,-43.32 586.98,-99.36 621.7,-126.64"/>
<polygon fill="#63b8ff" stroke="#63b8ff" points="180.56,-0.79 170.85,-5.03 181.09,-7.78 180.56,-0.79"/>
</g>
<!-- Node11&#45;&gt;Node1 -->
<g id="edge14" class="edge">
<title>Node11&#45;&gt;Node1</title>
<path fill="none" stroke="#9a32cd" stroke-dasharray="5,2" d="M727.74,-146.44C815.84,-151.83 957.15,-162.67 1078,-182 1109.11,-186.98 1143.34,-194.63 1171.48,-201.51"/>
<polygon fill="#9a32cd" stroke="#9a32cd" points="728.17,-142.96 717.98,-145.86 727.75,-149.95 728.17,-142.96"/>
<text text-anchor="middle" x="961.5" y="-185" font-family="Helvetica,sans-Serif" font-size="10.00"> pilot</text>
</g>
<!-- Node11&#45;&gt;Node2 -->
<g id="edge10" class="edge">
<title>Node11&#45;&gt;Node2</title>
<path fill="none" stroke="#9a32cd" stroke-dasharray="5,2" d="M727.38,-159.22C737.71,-161.43 748.11,-163.73 758,-166 806.58,-177.16 861.4,-191.05 901.73,-201.51"/>
<polygon fill="#9a32cd" stroke="#9a32cd" points="728.22,-155.81 717.71,-157.16 726.76,-162.66 728.22,-155.81"/>
<text text-anchor="middle" x="801.5" y="-186" font-family="Helvetica,sans-Serif" font-size="10.00"> person</text>
</g>
<!-- Node12 -->
<g id="node12" class="node">
<title>Node12</title>
<g id="a_node12"><a xlink:title=" ">
<polygon fill="white" stroke="#666666" points="668,-243.5 615,-243.5 615,-224.5 668,-224.5 668,-243.5"/>
<text text-anchor="middle" x="641.5" y="-231.5" font-family="Helvetica,sans-Serif" font-size="10.00">Random</text>
</a>
</g>
</g>
<!-- Node12&#45;&gt;Node2 -->
<g id="edge13" class="edge">
<title>Node12&#45;&gt;Node2</title>
<path fill="none" stroke="#9a32cd" stroke-dasharray="5,2" d="M679.65,-232.01C720,-229.86 786.48,-226.3 844.63,-223.19"/>
<polygon fill="#9a32cd" stroke="#9a32cd" points="679.56,-228.51 669.77,-232.54 679.94,-235.5 679.56,-228.51"/>
<text text-anchor="middle" x="801.5" y="-229" font-family="Helvetica,sans-Serif" font-size="10.00"> random</text>
</g>
</g>
</svg>
