<?xml version="1.0" encoding="UTF-8" standalone="no"?>
<!DOCTYPE svg PUBLIC "-//W3C//DTD SVG 1.1//EN"
 "http://www.w3.org/Graphics/SVG/1.1/DTD/svg11.dtd">
<!-- Generated by graphviz version 2.44.0 ()
 -->
<!-- Title: com.fs.starfarer.api.impl.campaign.econ.WorldFarming Pages: 1 -->
<svg width="1853pt" height="733pt"
 viewBox="0.00 0.00 1853.00 733.00" xmlns="http://www.w3.org/2000/svg" xmlns:xlink="http://www.w3.org/1999/xlink">
<g id="graph0" class="graph" transform="scale(1 1) rotate(0) translate(4 729)">
<title>com.fs.starfarer.api.impl.campaign.econ.WorldFarming</title>
<!-- Node1 -->
<g id="node1" class="node">
<title>Node1</title>
<g id="a_node1"><a xlink:title=" ">
<polygon fill="#bfbfbf" stroke="black" points="828,-105.5 828,-217.5 1017,-217.5 1017,-105.5 828,-105.5"/>
<text text-anchor="start" x="836" y="-205.5" font-family="Helvetica,sans-Serif" font-size="10.00">com.fs.starfarer.api.impl.campaign.econ.</text>
<text text-anchor="middle" x="922.5" y="-194.5" font-family="Helvetica,sans-Serif" font-size="10.00">WorldFarming</text>
<polyline fill="none" stroke="black" points="828,-187.5 1017,-187.5 "/>
<text text-anchor="middle" x="922.5" y="-175.5" font-family="Helvetica,sans-Serif" font-size="10.00"> </text>
<polyline fill="none" stroke="black" points="828,-168.5 1017,-168.5 "/>
<text text-anchor="start" x="836" y="-156.5" font-family="Helvetica,sans-Serif" font-size="10.00">+ WorldFarming()</text>
<text text-anchor="start" x="836" y="-145.5" font-family="Helvetica,sans-Serif" font-size="10.00">+ showIcon()</text>
<text text-anchor="start" x="836" y="-134.5" font-family="Helvetica,sans-Serif" font-size="10.00">+ WorldFarming()</text>
<text text-anchor="start" x="836" y="-123.5" font-family="Helvetica,sans-Serif" font-size="10.00">+ apply()</text>
<text text-anchor="start" x="836" y="-112.5" font-family="Helvetica,sans-Serif" font-size="10.00">+ unapply()</text>
</a>
</g>
</g>
<!-- Node4 -->
<g id="node4" class="node">
<title>Node4</title>
<g id="a_node4"><a xlink:href="../../d1/d2b/classcom_1_1fs_1_1starfarer_1_1api_1_1impl_1_1campaign_1_1econ_1_1WorldArid.html" target="_top" xlink:title=" ">
<polygon fill="none" stroke="black" points="0,-0.5 0,-68.5 189,-68.5 189,-0.5 0,-0.5"/>
<text text-anchor="start" x="8" y="-56.5" font-family="Helvetica,sans-Serif" font-size="10.00">com.fs.starfarer.api.impl.campaign.econ.</text>
<text text-anchor="middle" x="94.5" y="-45.5" font-family="Helvetica,sans-Serif" font-size="10.00">WorldArid</text>
<polyline fill="none" stroke="black" points="0,-38.5 189,-38.5 "/>
<text text-anchor="middle" x="94.5" y="-26.5" font-family="Helvetica,sans-Serif" font-size="10.00"> </text>
<polyline fill="none" stroke="black" points="0,-19.5 189,-19.5 "/>
<text text-anchor="start" x="8" y="-7.5" font-family="Helvetica,sans-Serif" font-size="10.00">+ WorldArid()</text>
</a>
</g>
</g>
<!-- Node1&#45;&gt;Node4 -->
<g id="edge3" class="edge">
<title>Node1&#45;&gt;Node4</title>
<path fill="none" stroke="midnightblue" d="M817.95,-153.54C676.08,-142.67 415.28,-117.7 197.5,-69 194.75,-68.38 191.96,-67.73 189.16,-67.03"/>
<polygon fill="none" stroke="midnightblue" points="817.72,-157.03 827.96,-154.29 818.25,-150.05 817.72,-157.03"/>
</g>
<!-- Node5 -->
<g id="node5" class="node">
<title>Node5</title>
<g id="a_node5"><a xlink:href="../../dc/d09/classcom_1_1fs_1_1starfarer_1_1api_1_1impl_1_1campaign_1_1econ_1_1WorldBarrenMarginal.html" target="_top" xlink:title=" ">
<polygon fill="none" stroke="black" points="207,-0.5 207,-68.5 396,-68.5 396,-0.5 207,-0.5"/>
<text text-anchor="start" x="215" y="-56.5" font-family="Helvetica,sans-Serif" font-size="10.00">com.fs.starfarer.api.impl.campaign.econ.</text>
<text text-anchor="middle" x="301.5" y="-45.5" font-family="Helvetica,sans-Serif" font-size="10.00">WorldBarrenMarginal</text>
<polyline fill="none" stroke="black" points="207,-38.5 396,-38.5 "/>
<text text-anchor="middle" x="301.5" y="-26.5" font-family="Helvetica,sans-Serif" font-size="10.00"> </text>
<polyline fill="none" stroke="black" points="207,-19.5 396,-19.5 "/>
<text text-anchor="start" x="215" y="-7.5" font-family="Helvetica,sans-Serif" font-size="10.00">+ WorldBarrenMarginal()</text>
</a>
</g>
</g>
<!-- Node1&#45;&gt;Node5 -->
<g id="edge4" class="edge">
<title>Node1&#45;&gt;Node5</title>
<path fill="none" stroke="midnightblue" d="M817.62,-146.37C712.34,-131.15 545.91,-104.3 404.5,-69 401.76,-68.32 398.99,-67.6 396.2,-66.85"/>
<polygon fill="none" stroke="midnightblue" points="817.22,-149.84 827.62,-147.8 818.22,-142.92 817.22,-149.84"/>
</g>
<!-- Node6 -->
<g id="node6" class="node">
<title>Node6</title>
<g id="a_node6"><a xlink:href="../../da/d76/classcom_1_1fs_1_1starfarer_1_1api_1_1impl_1_1campaign_1_1econ_1_1WorldDesert.html" target="_top" xlink:title=" ">
<polygon fill="none" stroke="black" points="414,-0.5 414,-68.5 603,-68.5 603,-0.5 414,-0.5"/>
<text text-anchor="start" x="422" y="-56.5" font-family="Helvetica,sans-Serif" font-size="10.00">com.fs.starfarer.api.impl.campaign.econ.</text>
<text text-anchor="middle" x="508.5" y="-45.5" font-family="Helvetica,sans-Serif" font-size="10.00">WorldDesert</text>
<polyline fill="none" stroke="black" points="414,-38.5 603,-38.5 "/>
<text text-anchor="middle" x="508.5" y="-26.5" font-family="Helvetica,sans-Serif" font-size="10.00"> </text>
<polyline fill="none" stroke="black" points="414,-19.5 603,-19.5 "/>
<text text-anchor="start" x="422" y="-7.5" font-family="Helvetica,sans-Serif" font-size="10.00">+ WorldDesert()</text>
</a>
</g>
</g>
<!-- Node1&#45;&gt;Node6 -->
<g id="edge5" class="edge">
<title>Node1&#45;&gt;Node6</title>
<path fill="none" stroke="midnightblue" d="M817.77,-130.49C757.35,-112.97 680,-90.21 611.5,-69 608.72,-68.14 605.89,-67.26 603.04,-66.36"/>
<polygon fill="none" stroke="midnightblue" points="817.12,-133.94 827.7,-133.36 819.07,-127.22 817.12,-133.94"/>
</g>
<!-- Node7 -->
<g id="node7" class="node">
<title>Node7</title>
<g id="a_node7"><a xlink:href="../../df/d0f/classcom_1_1fs_1_1starfarer_1_1api_1_1impl_1_1campaign_1_1econ_1_1WorldIce.html" target="_top" xlink:title=" ">
<polygon fill="none" stroke="black" points="621,-0.5 621,-68.5 810,-68.5 810,-0.5 621,-0.5"/>
<text text-anchor="start" x="629" y="-56.5" font-family="Helvetica,sans-Serif" font-size="10.00">com.fs.starfarer.api.impl.campaign.econ.</text>
<text text-anchor="middle" x="715.5" y="-45.5" font-family="Helvetica,sans-Serif" font-size="10.00">WorldIce</text>
<polyline fill="none" stroke="black" points="621,-38.5 810,-38.5 "/>
<text text-anchor="middle" x="715.5" y="-26.5" font-family="Helvetica,sans-Serif" font-size="10.00"> </text>
<polyline fill="none" stroke="black" points="621,-19.5 810,-19.5 "/>
<text text-anchor="start" x="629" y="-7.5" font-family="Helvetica,sans-Serif" font-size="10.00">+ WorldIce()</text>
</a>
</g>
</g>
<!-- Node1&#45;&gt;Node7 -->
<g id="edge6" class="edge">
<title>Node1&#45;&gt;Node7</title>
<path fill="none" stroke="midnightblue" d="M822.59,-100.17C804.59,-89.3 786.44,-78.34 770.33,-68.61"/>
<polygon fill="none" stroke="midnightblue" points="821.04,-103.32 831.41,-105.49 824.65,-97.33 821.04,-103.32"/>
</g>
<!-- Node8 -->
<g id="node8" class="node">
<title>Node8</title>
<g id="a_node8"><a xlink:href="../../db/d17/classcom_1_1fs_1_1starfarer_1_1api_1_1impl_1_1campaign_1_1econ_1_1WorldJungle.html" target="_top" xlink:title=" ">
<polygon fill="none" stroke="black" points="828,-0.5 828,-68.5 1017,-68.5 1017,-0.5 828,-0.5"/>
<text text-anchor="start" x="836" y="-56.5" font-family="Helvetica,sans-Serif" font-size="10.00">com.fs.starfarer.api.impl.campaign.econ.</text>
<text text-anchor="middle" x="922.5" y="-45.5" font-family="Helvetica,sans-Serif" font-size="10.00">WorldJungle</text>
<polyline fill="none" stroke="black" points="828,-38.5 1017,-38.5 "/>
<text text-anchor="middle" x="922.5" y="-26.5" font-family="Helvetica,sans-Serif" font-size="10.00"> </text>
<polyline fill="none" stroke="black" points="828,-19.5 1017,-19.5 "/>
<text text-anchor="start" x="836" y="-7.5" font-family="Helvetica,sans-Serif" font-size="10.00">+ WorldJungle()</text>
</a>
</g>
</g>
<!-- Node1&#45;&gt;Node8 -->
<g id="edge7" class="edge">
<title>Node1&#45;&gt;Node8</title>
<path fill="none" stroke="midnightblue" d="M922.5,-95.26C922.5,-85.99 922.5,-76.8 922.5,-68.51"/>
<polygon fill="none" stroke="midnightblue" points="919,-95.31 922.5,-105.31 926,-95.31 919,-95.31"/>
</g>
<!-- Node9 -->
<g id="node9" class="node">
<title>Node9</title>
<g id="a_node9"><a xlink:href="../../d8/daf/classcom_1_1fs_1_1starfarer_1_1api_1_1impl_1_1campaign_1_1econ_1_1WorldTerran.html" target="_top" xlink:title=" ">
<polygon fill="none" stroke="black" points="1035,-0.5 1035,-68.5 1224,-68.5 1224,-0.5 1035,-0.5"/>
<text text-anchor="start" x="1043" y="-56.5" font-family="Helvetica,sans-Serif" font-size="10.00">com.fs.starfarer.api.impl.campaign.econ.</text>
<text text-anchor="middle" x="1129.5" y="-45.5" font-family="Helvetica,sans-Serif" font-size="10.00">WorldTerran</text>
<polyline fill="none" stroke="black" points="1035,-38.5 1224,-38.5 "/>
<text text-anchor="middle" x="1129.5" y="-26.5" font-family="Helvetica,sans-Serif" font-size="10.00"> </text>
<polyline fill="none" stroke="black" points="1035,-19.5 1224,-19.5 "/>
<text text-anchor="start" x="1043" y="-7.5" font-family="Helvetica,sans-Serif" font-size="10.00">+ WorldTerran()</text>
</a>
</g>
</g>
<!-- Node1&#45;&gt;Node9 -->
<g id="edge8" class="edge">
<title>Node1&#45;&gt;Node9</title>
<path fill="none" stroke="midnightblue" d="M1022.41,-100.17C1040.41,-89.3 1058.56,-78.34 1074.67,-68.61"/>
<polygon fill="none" stroke="midnightblue" points="1020.35,-97.33 1013.59,-105.49 1023.96,-103.32 1020.35,-97.33"/>
</g>
<!-- Node10 -->
<g id="node10" class="node">
<title>Node10</title>
<g id="a_node10"><a xlink:href="../../db/d75/classcom_1_1fs_1_1starfarer_1_1api_1_1impl_1_1campaign_1_1econ_1_1WorldTundra.html" target="_top" xlink:title=" ">
<polygon fill="none" stroke="black" points="1242,-0.5 1242,-68.5 1431,-68.5 1431,-0.5 1242,-0.5"/>
<text text-anchor="start" x="1250" y="-56.5" font-family="Helvetica,sans-Serif" font-size="10.00">com.fs.starfarer.api.impl.campaign.econ.</text>
<text text-anchor="middle" x="1336.5" y="-45.5" font-family="Helvetica,sans-Serif" font-size="10.00">WorldTundra</text>
<polyline fill="none" stroke="black" points="1242,-38.5 1431,-38.5 "/>
<text text-anchor="middle" x="1336.5" y="-26.5" font-family="Helvetica,sans-Serif" font-size="10.00"> </text>
<polyline fill="none" stroke="black" points="1242,-19.5 1431,-19.5 "/>
<text text-anchor="start" x="1250" y="-7.5" font-family="Helvetica,sans-Serif" font-size="10.00">+ WorldTundra()</text>
</a>
</g>
</g>
<!-- Node1&#45;&gt;Node10 -->
<g id="edge9" class="edge">
<title>Node1&#45;&gt;Node10</title>
<path fill="none" stroke="midnightblue" d="M1027.23,-130.49C1087.65,-112.97 1165,-90.21 1233.5,-69 1236.28,-68.14 1239.11,-67.26 1241.96,-66.36"/>
<polygon fill="none" stroke="midnightblue" points="1025.93,-127.22 1017.3,-133.36 1027.88,-133.94 1025.93,-127.22"/>
</g>
<!-- Node11 -->
<g id="node11" class="node">
<title>Node11</title>
<g id="a_node11"><a xlink:href="../../d0/db0/classcom_1_1fs_1_1starfarer_1_1api_1_1impl_1_1campaign_1_1econ_1_1WorldTwilight.html" target="_top" xlink:title=" ">
<polygon fill="none" stroke="black" points="1449,-0.5 1449,-68.5 1638,-68.5 1638,-0.5 1449,-0.5"/>
<text text-anchor="start" x="1457" y="-56.5" font-family="Helvetica,sans-Serif" font-size="10.00">com.fs.starfarer.api.impl.campaign.econ.</text>
<text text-anchor="middle" x="1543.5" y="-45.5" font-family="Helvetica,sans-Serif" font-size="10.00">WorldTwilight</text>
<polyline fill="none" stroke="black" points="1449,-38.5 1638,-38.5 "/>
<text text-anchor="middle" x="1543.5" y="-26.5" font-family="Helvetica,sans-Serif" font-size="10.00"> </text>
<polyline fill="none" stroke="black" points="1449,-19.5 1638,-19.5 "/>
<text text-anchor="start" x="1457" y="-7.5" font-family="Helvetica,sans-Serif" font-size="10.00">+ WorldTwilight()</text>
</a>
</g>
</g>
<!-- Node1&#45;&gt;Node11 -->
<g id="edge10" class="edge">
<title>Node1&#45;&gt;Node11</title>
<path fill="none" stroke="midnightblue" d="M1027.38,-146.37C1132.66,-131.15 1299.09,-104.3 1440.5,-69 1443.24,-68.32 1446.01,-67.6 1448.8,-66.85"/>
<polygon fill="none" stroke="midnightblue" points="1026.78,-142.92 1017.38,-147.8 1027.78,-149.84 1026.78,-142.92"/>
</g>
<!-- Node12 -->
<g id="node12" class="node">
<title>Node12</title>
<g id="a_node12"><a xlink:href="../../d3/d6e/classcom_1_1fs_1_1starfarer_1_1api_1_1impl_1_1campaign_1_1econ_1_1WorldWater.html" target="_top" xlink:title=" ">
<polygon fill="none" stroke="black" points="1656,-0.5 1656,-68.5 1845,-68.5 1845,-0.5 1656,-0.5"/>
<text text-anchor="start" x="1664" y="-56.5" font-family="Helvetica,sans-Serif" font-size="10.00">com.fs.starfarer.api.impl.campaign.econ.</text>
<text text-anchor="middle" x="1750.5" y="-45.5" font-family="Helvetica,sans-Serif" font-size="10.00">WorldWater</text>
<polyline fill="none" stroke="black" points="1656,-38.5 1845,-38.5 "/>
<text text-anchor="middle" x="1750.5" y="-26.5" font-family="Helvetica,sans-Serif" font-size="10.00"> </text>
<polyline fill="none" stroke="black" points="1656,-19.5 1845,-19.5 "/>
<text text-anchor="start" x="1664" y="-7.5" font-family="Helvetica,sans-Serif" font-size="10.00">+ WorldWater()</text>
</a>
</g>
</g>
<!-- Node1&#45;&gt;Node12 -->
<g id="edge11" class="edge">
<title>Node1&#45;&gt;Node12</title>
<path fill="none" stroke="midnightblue" d="M1027.05,-153.54C1168.92,-142.67 1429.72,-117.7 1647.5,-69 1650.25,-68.38 1653.04,-67.73 1655.84,-67.03"/>
<polygon fill="none" stroke="midnightblue" points="1026.75,-150.05 1017.04,-154.29 1027.28,-157.03 1026.75,-150.05"/>
</g>
<!-- Node2 -->
<g id="node2" class="node">
<title>Node2</title>
<g id="a_node2"><a xlink:href="../../db/d90/classcom_1_1fs_1_1starfarer_1_1api_1_1impl_1_1campaign_1_1econ_1_1BaseMarketConditionPlugin.html" target="_top" xlink:title=" ">
<polygon fill="none" stroke="black" points="828,-254.5 828,-509.5 1017,-509.5 1017,-254.5 828,-254.5"/>
<text text-anchor="start" x="836" y="-497.5" font-family="Helvetica,sans-Serif" font-size="10.00">com.fs.starfarer.api.impl.campaign.econ.</text>
<text text-anchor="middle" x="922.5" y="-486.5" font-family="Helvetica,sans-Serif" font-size="10.00">BaseMarketConditionPlugin</text>
<polyline fill="none" stroke="black" points="828,-479.5 1017,-479.5 "/>
<text text-anchor="start" x="836" y="-467.5" font-family="Helvetica,sans-Serif" font-size="10.00"># market</text>
<text text-anchor="start" x="836" y="-456.5" font-family="Helvetica,sans-Serif" font-size="10.00"># condition</text>
<polyline fill="none" stroke="black" points="828,-449.5 1017,-449.5 "/>
<text text-anchor="start" x="836" y="-437.5" font-family="Helvetica,sans-Serif" font-size="10.00">+ init()</text>
<text text-anchor="start" x="836" y="-426.5" font-family="Helvetica,sans-Serif" font-size="10.00">+ apply()</text>
<text text-anchor="start" x="836" y="-415.5" font-family="Helvetica,sans-Serif" font-size="10.00">+ unapply()</text>
<text text-anchor="start" x="836" y="-404.5" font-family="Helvetica,sans-Serif" font-size="10.00">+ advance()</text>
<text text-anchor="start" x="836" y="-393.5" font-family="Helvetica,sans-Serif" font-size="10.00">+ getModId()</text>
<text text-anchor="start" x="836" y="-382.5" font-family="Helvetica,sans-Serif" font-size="10.00">+ getRelatedCommodities()</text>
<text text-anchor="start" x="836" y="-371.5" font-family="Helvetica,sans-Serif" font-size="10.00">+ setParam()</text>
<text text-anchor="start" x="836" y="-360.5" font-family="Helvetica,sans-Serif" font-size="10.00">+ getTokenReplacements()</text>
<text text-anchor="start" x="836" y="-349.5" font-family="Helvetica,sans-Serif" font-size="10.00">+ getHighlights()</text>
<text text-anchor="start" x="836" y="-338.5" font-family="Helvetica,sans-Serif" font-size="10.00">+ getHighlightColors()</text>
<text text-anchor="start" x="836" y="-327.5" font-family="Helvetica,sans-Serif" font-size="10.00">and 11 more...</text>
<text text-anchor="start" x="836" y="-316.5" font-family="Helvetica,sans-Serif" font-size="10.00">+ getLowStabilityBonusMult()</text>
<text text-anchor="start" x="836" y="-305.5" font-family="Helvetica,sans-Serif" font-size="10.00">+ getLowStabilityPenaltyMult()</text>
<text text-anchor="start" x="836" y="-294.5" font-family="Helvetica,sans-Serif" font-size="10.00">+ getHighStabilityBonusMult()</text>
<text text-anchor="start" x="836" y="-283.5" font-family="Helvetica,sans-Serif" font-size="10.00">+ getHighStabilityPenaltyMult()</text>
<text text-anchor="start" x="836" y="-272.5" font-family="Helvetica,sans-Serif" font-size="10.00">+ main()</text>
<text text-anchor="start" x="836" y="-261.5" font-family="Helvetica,sans-Serif" font-size="10.00"># createTooltipAfterDescription()</text>
</a>
</g>
</g>
<!-- Node2&#45;&gt;Node1 -->
<g id="edge1" class="edge">
<title>Node2&#45;&gt;Node1</title>
<path fill="none" stroke="midnightblue" d="M922.5,-244.1C922.5,-234.86 922.5,-225.91 922.5,-217.53"/>
<polygon fill="none" stroke="midnightblue" points="919,-244.21 922.5,-254.21 926,-244.21 919,-244.21"/>
</g>
<!-- Node3 -->
<g id="node3" class="node">
<title>Node3</title>
<g id="a_node3"><a xlink:href="../../d4/dcb/interfacecom_1_1fs_1_1starfarer_1_1api_1_1campaign_1_1econ_1_1MarketConditionPlugin.html" target="_top" xlink:title=" ">
<polygon fill="none" stroke="black" points="838,-546.5 838,-724.5 1007,-724.5 1007,-546.5 838,-546.5"/>
<text text-anchor="start" x="846" y="-712.5" font-family="Helvetica,sans-Serif" font-size="10.00">com.fs.starfarer.api.campaign.econ.</text>
<text text-anchor="middle" x="922.5" y="-701.5" font-family="Helvetica,sans-Serif" font-size="10.00">MarketConditionPlugin</text>
<polyline fill="none" stroke="black" points="838,-694.5 1007,-694.5 "/>
<text text-anchor="middle" x="922.5" y="-682.5" font-family="Helvetica,sans-Serif" font-size="10.00"> </text>
<polyline fill="none" stroke="black" points="838,-675.5 1007,-675.5 "/>
<text text-anchor="start" x="846" y="-663.5" font-family="Helvetica,sans-Serif" font-size="10.00">+ advance()</text>
<text text-anchor="start" x="846" y="-652.5" font-family="Helvetica,sans-Serif" font-size="10.00">+ init()</text>
<text text-anchor="start" x="846" y="-641.5" font-family="Helvetica,sans-Serif" font-size="10.00">+ apply()</text>
<text text-anchor="start" x="846" y="-630.5" font-family="Helvetica,sans-Serif" font-size="10.00">+ unapply()</text>
<text text-anchor="start" x="846" y="-619.5" font-family="Helvetica,sans-Serif" font-size="10.00">+ getRelatedCommodities()</text>
<text text-anchor="start" x="846" y="-608.5" font-family="Helvetica,sans-Serif" font-size="10.00">+ getTokenReplacements()</text>
<text text-anchor="start" x="846" y="-597.5" font-family="Helvetica,sans-Serif" font-size="10.00">+ getHighlights()</text>
<text text-anchor="start" x="846" y="-586.5" font-family="Helvetica,sans-Serif" font-size="10.00">+ getHighlightColors()</text>
<text text-anchor="start" x="846" y="-575.5" font-family="Helvetica,sans-Serif" font-size="10.00">+ setParam()</text>
<text text-anchor="start" x="846" y="-564.5" font-family="Helvetica,sans-Serif" font-size="10.00">+ isTransient()</text>
<text text-anchor="start" x="846" y="-553.5" font-family="Helvetica,sans-Serif" font-size="10.00">and 9 more...</text>
</a>
</g>
</g>
<!-- Node3&#45;&gt;Node2 -->
<g id="edge2" class="edge">
<title>Node3&#45;&gt;Node2</title>
<path fill="none" stroke="midnightblue" d="M922.5,-536.05C922.5,-527.33 922.5,-518.43 922.5,-509.52"/>
<polygon fill="none" stroke="midnightblue" points="919,-536.18 922.5,-546.18 926,-536.18 919,-536.18"/>
</g>
</g>
</svg>
