<?xml version="1.0" encoding="UTF-8" standalone="no"?>
<!DOCTYPE svg PUBLIC "-//W3C//DTD SVG 1.1//EN"
 "http://www.w3.org/Graphics/SVG/1.1/DTD/svg11.dtd">
<!-- Generated by graphviz version 2.44.0 ()
 -->
<!-- Title: com.fs.starfarer.api.combat.OnHitEffectPlugin Pages: 1 -->
<!--zoomable 391 -->
<svg id="main" version="1.1" xmlns="http://www.w3.org/2000/svg" xmlns:xlink="http://www.w3.org/1999/xlink" xml:space="preserve" onload="init(evt)">
<style type="text/css"><![CDATA[
.edge:hover path { stroke: red; }
.edge:hover polygon { stroke: red; fill: red; }
]]></style>
<script type="text/javascript"><![CDATA[
var edges = document.getElementsByTagName('g');
if (edges && edges.length) {
  for (var i=0;i<edges.length;i++) {
    if (edges[i].id.substr(0,4)=='edge') {
      edges[i].setAttribute('class','edge');
    }
  }
}
]]></script>
        <defs>
                <circle id="rim" cx="0" cy="0" r="7"/>
                <circle id="rim2" cx="0" cy="0" r="3.5"/>
                <g id="zoomPlus">
                        <use xlink:href="#rim" fill="#404040">
                                <set attributeName="fill" to="#808080" begin="zoomplus.mouseover" end="zoomplus.mouseout"/>
                        </use>
                        <path d="M-4,0h8M0,-4v8" fill="none" stroke="white" stroke-width="1.5" pointer-events="none"/>
                </g>
                <g id="zoomMin">
                        <use xlink:href="#rim" fill="#404040">
                                <set attributeName="fill" to="#808080" begin="zoomminus.mouseover" end="zoomminus.mouseout"/>
                        </use>
                        <path d="M-4,0h8" fill="none" stroke="white" stroke-width="1.5" pointer-events="none"/>
                </g>
                <g id="dirArrow">
                        <path fill="none" stroke="white" stroke-width="1.5" d="M0,-3.0v7 M-2.5,-0.5L0,-3.0L2.5,-0.5"/>
                </g>
               <g id="resetDef">
                       <use xlink:href="#rim2" fill="#404040">
                               <set attributeName="fill" to="#808080" begin="reset.mouseover" end="reset.mouseout"/>
                       </use>
               </g>
        </defs>

<script type="text/javascript">
var viewWidth = 1904;
var viewHeight = 391;
var sectionId = 'dynsection-0';
</script>
<script xlink:href="../../svgpan.js"/>
<svg id="graph" class="graph">
<g id="viewport">
<title>com.fs.starfarer.api.combat.OnHitEffectPlugin</title>
<!-- Node1 -->
<g id="node1" class="node">
<title>Node1</title>
<g id="a_node1"><a xlink:title=" ">
<polygon fill="#bfbfbf" stroke="black" points="880,-314.5 880,-382.5 1016,-382.5 1016,-314.5 880,-314.5"/>
<text text-anchor="start" x="888" y="-370.5" font-family="Helvetica,sans-Serif" font-size="10.00">com.fs.starfarer.api.combat.</text>
<text text-anchor="middle" x="948" y="-359.5" font-family="Helvetica,sans-Serif" font-size="10.00">OnHitEffectPlugin</text>
<polyline fill="none" stroke="black" points="880,-352.5 1016,-352.5 "/>
<text text-anchor="middle" x="948" y="-340.5" font-family="Helvetica,sans-Serif" font-size="10.00"> </text>
<polyline fill="none" stroke="black" points="880,-333.5 1016,-333.5 "/>
<text text-anchor="start" x="888" y="-321.5" font-family="Helvetica,sans-Serif" font-size="10.00">+ onHit()</text>
</a>
</g>
</g>
<!-- Node2 -->
<g id="node2" class="node">
<title>Node2</title>
<g id="a_node2"><a xlink:href="../../d1/ddb/classcom_1_1fs_1_1starfarer_1_1api_1_1impl_1_1combat_1_1BreachOnHitEffect.html" target="_top" xlink:title=" ">
<polygon fill="none" stroke="black" points="0,-99.5 0,-178.5 156,-178.5 156,-99.5 0,-99.5"/>
<text text-anchor="start" x="8" y="-166.5" font-family="Helvetica,sans-Serif" font-size="10.00">com.fs.starfarer.api.impl.combat.</text>
<text text-anchor="middle" x="78" y="-155.5" font-family="Helvetica,sans-Serif" font-size="10.00">BreachOnHitEffect</text>
<polyline fill="none" stroke="black" points="0,-148.5 156,-148.5 "/>
<text text-anchor="start" x="8" y="-136.5" font-family="Helvetica,sans-Serif" font-size="10.00">+ DAMAGE</text>
<polyline fill="none" stroke="black" points="0,-129.5 156,-129.5 "/>
<text text-anchor="start" x="8" y="-117.5" font-family="Helvetica,sans-Serif" font-size="10.00">+ onHit()</text>
<text text-anchor="start" x="8" y="-106.5" font-family="Helvetica,sans-Serif" font-size="10.00">+ dealArmorDamage()</text>
</a>
</g>
</g>
<!-- Node1&#45;&gt;Node2 -->
<g id="edge1" class="edge">
<title>Node1&#45;&gt;Node2</title>
<path fill="none" stroke="midnightblue" d="M869.87,-344.48C683.55,-336.74 224.21,-314.18 165,-278 128.26,-255.56 104.48,-211.11 91.22,-178.71"/>
<polygon fill="none" stroke="midnightblue" points="869.74,-347.98 879.87,-344.9 870.02,-340.99 869.74,-347.98"/>
</g>
<!-- Node3 -->
<g id="node3" class="node">
<title>Node3</title>
<g id="a_node3"><a xlink:href="../../de/dd3/classcom_1_1fs_1_1starfarer_1_1api_1_1impl_1_1combat_1_1CryoblasterEffect.html" target="_top" xlink:title=" ">
<polygon fill="none" stroke="black" points="174,-28 174,-250 330,-250 330,-28 174,-28"/>
<text text-anchor="start" x="182" y="-238" font-family="Helvetica,sans-Serif" font-size="10.00">com.fs.starfarer.api.impl.combat.</text>
<text text-anchor="middle" x="252" y="-227" font-family="Helvetica,sans-Serif" font-size="10.00">CryoblasterEffect</text>
<polyline fill="none" stroke="black" points="174,-220 330,-220 "/>
<text text-anchor="start" x="182" y="-208" font-family="Helvetica,sans-Serif" font-size="10.00"># particles</text>
<text text-anchor="start" x="182" y="-197" font-family="Helvetica,sans-Serif" font-size="10.00"># proj</text>
<text text-anchor="start" x="182" y="-186" font-family="Helvetica,sans-Serif" font-size="10.00"># projVel</text>
<text text-anchor="start" x="182" y="-175" font-family="Helvetica,sans-Serif" font-size="10.00"># projLoc</text>
<text text-anchor="start" x="182" y="-164" font-family="Helvetica,sans-Serif" font-size="10.00"># layers</text>
<text text-anchor="start" x="182" y="-153" font-family="Helvetica,sans-Serif" font-size="10.00"># resetTrailSpeed</text>
<polyline fill="none" stroke="black" points="174,-146 330,-146 "/>
<text text-anchor="start" x="182" y="-134" font-family="Helvetica,sans-Serif" font-size="10.00">+ CryoblasterEffect()</text>
<text text-anchor="start" x="182" y="-123" font-family="Helvetica,sans-Serif" font-size="10.00">+ onHit()</text>
<text text-anchor="start" x="182" y="-112" font-family="Helvetica,sans-Serif" font-size="10.00">+ onFire()</text>
<text text-anchor="start" x="182" y="-101" font-family="Helvetica,sans-Serif" font-size="10.00">+ CryoblasterEffect()</text>
<text text-anchor="start" x="182" y="-90" font-family="Helvetica,sans-Serif" font-size="10.00">+ getRenderRadius()</text>
<text text-anchor="start" x="182" y="-79" font-family="Helvetica,sans-Serif" font-size="10.00">+ getActiveLayers()</text>
<text text-anchor="start" x="182" y="-68" font-family="Helvetica,sans-Serif" font-size="10.00">+ init()</text>
<text text-anchor="start" x="182" y="-57" font-family="Helvetica,sans-Serif" font-size="10.00">+ advance()</text>
<text text-anchor="start" x="182" y="-46" font-family="Helvetica,sans-Serif" font-size="10.00">+ isExpired()</text>
<text text-anchor="start" x="182" y="-35" font-family="Helvetica,sans-Serif" font-size="10.00">+ render()</text>
</a>
</g>
</g>
<!-- Node1&#45;&gt;Node3 -->
<g id="edge2" class="edge">
<title>Node1&#45;&gt;Node3</title>
<path fill="none" stroke="midnightblue" d="M869.65,-346.84C725.63,-344.3 425.62,-332.42 339,-278 327.25,-270.62 316.81,-261 307.61,-250.29"/>
<polygon fill="none" stroke="midnightblue" points="869.69,-350.34 879.74,-347.01 869.8,-343.34 869.69,-350.34"/>
</g>
<!-- Node4 -->
<g id="node4" class="node">
<title>Node4</title>
<g id="a_node4"><a xlink:href="../../dd/d06/classcom_1_1fs_1_1starfarer_1_1api_1_1impl_1_1combat_1_1CryofluxTransducerEffect.html" target="_top" xlink:title=" ">
<polygon fill="none" stroke="black" points="348,-22.5 348,-255.5 504,-255.5 504,-22.5 348,-22.5"/>
<text text-anchor="start" x="356" y="-243.5" font-family="Helvetica,sans-Serif" font-size="10.00">com.fs.starfarer.api.impl.combat.</text>
<text text-anchor="middle" x="426" y="-232.5" font-family="Helvetica,sans-Serif" font-size="10.00">CryofluxTransducerEffect</text>
<polyline fill="none" stroke="black" points="348,-225.5 504,-225.5 "/>
<text text-anchor="start" x="356" y="-213.5" font-family="Helvetica,sans-Serif" font-size="10.00"># trails</text>
<text text-anchor="start" x="356" y="-202.5" font-family="Helvetica,sans-Serif" font-size="10.00"># particles</text>
<text text-anchor="start" x="356" y="-191.5" font-family="Helvetica,sans-Serif" font-size="10.00"># proj</text>
<text text-anchor="start" x="356" y="-180.5" font-family="Helvetica,sans-Serif" font-size="10.00"># prev</text>
<text text-anchor="start" x="356" y="-169.5" font-family="Helvetica,sans-Serif" font-size="10.00"># baseFacing</text>
<text text-anchor="start" x="356" y="-158.5" font-family="Helvetica,sans-Serif" font-size="10.00"># layers</text>
<polyline fill="none" stroke="black" points="348,-151.5 504,-151.5 "/>
<text text-anchor="start" x="356" y="-139.5" font-family="Helvetica,sans-Serif" font-size="10.00">+ CryofluxTransducerEffect()</text>
<text text-anchor="start" x="356" y="-128.5" font-family="Helvetica,sans-Serif" font-size="10.00">+ advance()</text>
<text text-anchor="start" x="356" y="-117.5" font-family="Helvetica,sans-Serif" font-size="10.00">+ onHit()</text>
<text text-anchor="start" x="356" y="-106.5" font-family="Helvetica,sans-Serif" font-size="10.00">+ onFire()</text>
<text text-anchor="start" x="356" y="-95.5" font-family="Helvetica,sans-Serif" font-size="10.00">+ CryofluxTransducerEffect()</text>
<text text-anchor="start" x="356" y="-84.5" font-family="Helvetica,sans-Serif" font-size="10.00">+ getRenderRadius()</text>
<text text-anchor="start" x="356" y="-73.5" font-family="Helvetica,sans-Serif" font-size="10.00">+ getActiveLayers()</text>
<text text-anchor="start" x="356" y="-62.5" font-family="Helvetica,sans-Serif" font-size="10.00">+ init()</text>
<text text-anchor="start" x="356" y="-51.5" font-family="Helvetica,sans-Serif" font-size="10.00">+ advance()</text>
<text text-anchor="start" x="356" y="-40.5" font-family="Helvetica,sans-Serif" font-size="10.00">+ isExpired()</text>
<text text-anchor="start" x="356" y="-29.5" font-family="Helvetica,sans-Serif" font-size="10.00">+ render()</text>
</a>
</g>
</g>
<!-- Node1&#45;&gt;Node4 -->
<g id="edge3" class="edge">
<title>Node1&#45;&gt;Node4</title>
<path fill="none" stroke="midnightblue" d="M869.52,-342.68C760.5,-334.71 570.2,-315.75 513,-278 503.54,-271.76 494.92,-264.1 487.1,-255.62"/>
<polygon fill="none" stroke="midnightblue" points="869.58,-346.2 879.8,-343.42 870.08,-339.21 869.58,-346.2"/>
</g>
<!-- Node5 -->
<g id="node5" class="node">
<title>Node5</title>
<g id="a_node5"><a xlink:href="../../df/dd2/classcom_1_1fs_1_1starfarer_1_1api_1_1impl_1_1combat_1_1DisintegratorEffect.html" target="_top" xlink:title=" ">
<polygon fill="none" stroke="black" points="522,-0.5 522,-277.5 678,-277.5 678,-0.5 522,-0.5"/>
<text text-anchor="start" x="530" y="-265.5" font-family="Helvetica,sans-Serif" font-size="10.00">com.fs.starfarer.api.impl.combat.</text>
<text text-anchor="middle" x="600" y="-254.5" font-family="Helvetica,sans-Serif" font-size="10.00">DisintegratorEffect</text>
<polyline fill="none" stroke="black" points="522,-247.5 678,-247.5 "/>
<text text-anchor="start" x="530" y="-235.5" font-family="Helvetica,sans-Serif" font-size="10.00">+ NUM_TICKS</text>
<text text-anchor="start" x="530" y="-224.5" font-family="Helvetica,sans-Serif" font-size="10.00">+ TOTAL_DAMAGE</text>
<text text-anchor="start" x="530" y="-213.5" font-family="Helvetica,sans-Serif" font-size="10.00"># particles</text>
<text text-anchor="start" x="530" y="-202.5" font-family="Helvetica,sans-Serif" font-size="10.00"># proj</text>
<text text-anchor="start" x="530" y="-191.5" font-family="Helvetica,sans-Serif" font-size="10.00"># target</text>
<text text-anchor="start" x="530" y="-180.5" font-family="Helvetica,sans-Serif" font-size="10.00"># offset</text>
<text text-anchor="start" x="530" y="-169.5" font-family="Helvetica,sans-Serif" font-size="10.00"># ticks</text>
<text text-anchor="start" x="530" y="-158.5" font-family="Helvetica,sans-Serif" font-size="10.00"># interval</text>
<text text-anchor="start" x="530" y="-147.5" font-family="Helvetica,sans-Serif" font-size="10.00"># fader</text>
<text text-anchor="start" x="530" y="-136.5" font-family="Helvetica,sans-Serif" font-size="10.00"># layers</text>
<polyline fill="none" stroke="black" points="522,-129.5 678,-129.5 "/>
<text text-anchor="start" x="530" y="-117.5" font-family="Helvetica,sans-Serif" font-size="10.00">+ DisintegratorEffect()</text>
<text text-anchor="start" x="530" y="-106.5" font-family="Helvetica,sans-Serif" font-size="10.00">+ onHit()</text>
<text text-anchor="start" x="530" y="-95.5" font-family="Helvetica,sans-Serif" font-size="10.00">+ DisintegratorEffect()</text>
<text text-anchor="start" x="530" y="-84.5" font-family="Helvetica,sans-Serif" font-size="10.00">+ getRenderRadius()</text>
<text text-anchor="start" x="530" y="-73.5" font-family="Helvetica,sans-Serif" font-size="10.00">+ getActiveLayers()</text>
<text text-anchor="start" x="530" y="-62.5" font-family="Helvetica,sans-Serif" font-size="10.00">+ init()</text>
<text text-anchor="start" x="530" y="-51.5" font-family="Helvetica,sans-Serif" font-size="10.00">+ advance()</text>
<text text-anchor="start" x="530" y="-40.5" font-family="Helvetica,sans-Serif" font-size="10.00">+ isExpired()</text>
<text text-anchor="start" x="530" y="-29.5" font-family="Helvetica,sans-Serif" font-size="10.00">+ render()</text>
<text text-anchor="start" x="530" y="-18.5" font-family="Helvetica,sans-Serif" font-size="10.00">+ getDamageTypeMult()</text>
<text text-anchor="start" x="530" y="-7.5" font-family="Helvetica,sans-Serif" font-size="10.00"># dealDamage()</text>
</a>
</g>
</g>
<!-- Node1&#45;&gt;Node5 -->
<g id="edge4" class="edge">
<title>Node1&#45;&gt;Node5</title>
<path fill="none" stroke="midnightblue" d="M869.8,-341.78C814.25,-334.34 740.34,-317.24 687,-278 683.92,-275.73 680.92,-273.32 678.01,-270.79"/>
<polygon fill="none" stroke="midnightblue" points="869.59,-345.28 879.95,-343.06 870.47,-338.34 869.59,-345.28"/>
</g>
<!-- Node6 -->
<g id="node6" class="node">
<title>Node6</title>
<g id="a_node6"><a xlink:href="../../d8/db4/classcom_1_1fs_1_1starfarer_1_1api_1_1impl_1_1combat_1_1IonCannonOnHitEffect.html" target="_top" xlink:title=" ">
<polygon fill="none" stroke="black" points="696,-105 696,-173 852,-173 852,-105 696,-105"/>
<text text-anchor="start" x="704" y="-161" font-family="Helvetica,sans-Serif" font-size="10.00">com.fs.starfarer.api.impl.combat.</text>
<text text-anchor="middle" x="774" y="-150" font-family="Helvetica,sans-Serif" font-size="10.00">IonCannonOnHitEffect</text>
<polyline fill="none" stroke="black" points="696,-143 852,-143 "/>
<text text-anchor="middle" x="774" y="-131" font-family="Helvetica,sans-Serif" font-size="10.00"> </text>
<polyline fill="none" stroke="black" points="696,-124 852,-124 "/>
<text text-anchor="start" x="704" y="-112" font-family="Helvetica,sans-Serif" font-size="10.00">+ onHit()</text>
</a>
</g>
</g>
<!-- Node1&#45;&gt;Node6 -->
<g id="edge5" class="edge">
<title>Node1&#45;&gt;Node6</title>
<path fill="none" stroke="midnightblue" d="M892.71,-307.94C881.59,-298.75 870.44,-288.55 861,-278 832.02,-245.59 806.51,-202.43 790.74,-173.07"/>
<polygon fill="none" stroke="midnightblue" points="890.8,-310.89 900.78,-314.45 895.19,-305.44 890.8,-310.89"/>
</g>
<!-- Node7 -->
<g id="node7" class="node">
<title>Node7</title>
<g id="a_node7"><a xlink:href="../../de/d61/classcom_1_1fs_1_1starfarer_1_1api_1_1impl_1_1combat_1_1MoteOnHitEffect.html" target="_top" xlink:title=" ">
<polygon fill="none" stroke="black" points="870,-105 870,-173 1026,-173 1026,-105 870,-105"/>
<text text-anchor="start" x="878" y="-161" font-family="Helvetica,sans-Serif" font-size="10.00">com.fs.starfarer.api.impl.combat.</text>
<text text-anchor="middle" x="948" y="-150" font-family="Helvetica,sans-Serif" font-size="10.00">MoteOnHitEffect</text>
<polyline fill="none" stroke="black" points="870,-143 1026,-143 "/>
<text text-anchor="middle" x="948" y="-131" font-family="Helvetica,sans-Serif" font-size="10.00"> </text>
<polyline fill="none" stroke="black" points="870,-124 1026,-124 "/>
<text text-anchor="start" x="878" y="-112" font-family="Helvetica,sans-Serif" font-size="10.00">+ onHit()</text>
</a>
</g>
</g>
<!-- Node1&#45;&gt;Node7 -->
<g id="edge6" class="edge">
<title>Node1&#45;&gt;Node7</title>
<path fill="none" stroke="midnightblue" d="M948,-304.16C948,-265.19 948,-208.77 948,-173.26"/>
<polygon fill="none" stroke="midnightblue" points="944.5,-304.16 948,-314.16 951.5,-304.16 944.5,-304.16"/>
</g>
<!-- Node8 -->
<g id="node8" class="node">
<title>Node8</title>
<g id="a_node8"><a xlink:href="../../db/df5/classcom_1_1fs_1_1starfarer_1_1api_1_1impl_1_1combat_1_1PilumOnHitEffect.html" target="_top" xlink:title=" ">
<polygon fill="none" stroke="black" points="1044,-105 1044,-173 1200,-173 1200,-105 1044,-105"/>
<text text-anchor="start" x="1052" y="-161" font-family="Helvetica,sans-Serif" font-size="10.00">com.fs.starfarer.api.impl.combat.</text>
<text text-anchor="middle" x="1122" y="-150" font-family="Helvetica,sans-Serif" font-size="10.00">PilumOnHitEffect</text>
<polyline fill="none" stroke="black" points="1044,-143 1200,-143 "/>
<text text-anchor="middle" x="1122" y="-131" font-family="Helvetica,sans-Serif" font-size="10.00"> </text>
<polyline fill="none" stroke="black" points="1044,-124 1200,-124 "/>
<text text-anchor="start" x="1052" y="-112" font-family="Helvetica,sans-Serif" font-size="10.00">+ onHit()</text>
</a>
</g>
</g>
<!-- Node1&#45;&gt;Node8 -->
<g id="edge7" class="edge">
<title>Node1&#45;&gt;Node8</title>
<path fill="none" stroke="midnightblue" d="M1003.29,-307.94C1014.41,-298.75 1025.56,-288.55 1035,-278 1063.98,-245.59 1089.49,-202.43 1105.26,-173.07"/>
<polygon fill="none" stroke="midnightblue" points="1000.81,-305.44 995.22,-314.45 1005.2,-310.89 1000.81,-305.44"/>
</g>
<!-- Node9 -->
<g id="node9" class="node">
<title>Node9</title>
<g id="a_node9"><a xlink:href="../../df/d2b/classcom_1_1fs_1_1starfarer_1_1api_1_1impl_1_1combat_1_1RealityDisruptorEffect.html" target="_top" xlink:title=" ">
<polygon fill="none" stroke="black" points="1218,-83 1218,-195 1374,-195 1374,-83 1218,-83"/>
<text text-anchor="start" x="1226" y="-183" font-family="Helvetica,sans-Serif" font-size="10.00">com.fs.starfarer.api.impl.combat.</text>
<text text-anchor="middle" x="1296" y="-172" font-family="Helvetica,sans-Serif" font-size="10.00">RealityDisruptorEffect</text>
<polyline fill="none" stroke="black" points="1218,-165 1374,-165 "/>
<text text-anchor="start" x="1226" y="-153" font-family="Helvetica,sans-Serif" font-size="10.00"># chargeGlowEntity</text>
<text text-anchor="start" x="1226" y="-142" font-family="Helvetica,sans-Serif" font-size="10.00"># chargeGlowPlugin</text>
<polyline fill="none" stroke="black" points="1218,-135 1374,-135 "/>
<text text-anchor="start" x="1226" y="-123" font-family="Helvetica,sans-Serif" font-size="10.00">+ RealityDisruptorEffect()</text>
<text text-anchor="start" x="1226" y="-112" font-family="Helvetica,sans-Serif" font-size="10.00">+ advance()</text>
<text text-anchor="start" x="1226" y="-101" font-family="Helvetica,sans-Serif" font-size="10.00">+ onHit()</text>
<text text-anchor="start" x="1226" y="-90" font-family="Helvetica,sans-Serif" font-size="10.00">+ onFire()</text>
</a>
</g>
</g>
<!-- Node1&#45;&gt;Node9 -->
<g id="edge8" class="edge">
<title>Node1&#45;&gt;Node9</title>
<path fill="none" stroke="midnightblue" d="M1026.2,-341.78C1081.75,-334.34 1155.66,-317.24 1209,-278 1237.4,-257.1 1258.76,-223.89 1273.2,-195.29"/>
<polygon fill="none" stroke="midnightblue" points="1025.53,-338.34 1016.05,-343.06 1026.41,-345.28 1025.53,-338.34"/>
</g>
<!-- Node10 -->
<g id="node10" class="node">
<title>Node10</title>
<g id="a_node10"><a xlink:href="../../d3/dcb/classcom_1_1fs_1_1starfarer_1_1api_1_1impl_1_1combat_1_1RiftTorpedoEffect.html" target="_top" xlink:title=" ">
<polygon fill="none" stroke="black" points="1392,-99.5 1392,-178.5 1548,-178.5 1548,-99.5 1392,-99.5"/>
<text text-anchor="start" x="1400" y="-166.5" font-family="Helvetica,sans-Serif" font-size="10.00">com.fs.starfarer.api.impl.combat.</text>
<text text-anchor="middle" x="1470" y="-155.5" font-family="Helvetica,sans-Serif" font-size="10.00">RiftTorpedoEffect</text>
<polyline fill="none" stroke="black" points="1392,-148.5 1548,-148.5 "/>
<text text-anchor="middle" x="1470" y="-136.5" font-family="Helvetica,sans-Serif" font-size="10.00"> </text>
<polyline fill="none" stroke="black" points="1392,-129.5 1548,-129.5 "/>
<text text-anchor="start" x="1400" y="-117.5" font-family="Helvetica,sans-Serif" font-size="10.00">+ onHit()</text>
<text text-anchor="start" x="1400" y="-106.5" font-family="Helvetica,sans-Serif" font-size="10.00">+ onFire()</text>
</a>
</g>
</g>
<!-- Node1&#45;&gt;Node10 -->
<g id="edge9" class="edge">
<title>Node1&#45;&gt;Node10</title>
<path fill="none" stroke="midnightblue" d="M1026.48,-342.68C1135.5,-334.71 1325.8,-315.75 1383,-278 1418.69,-254.44 1442.55,-210.66 1456.11,-178.71"/>
<polygon fill="none" stroke="midnightblue" points="1025.92,-339.21 1016.2,-343.42 1026.42,-346.2 1025.92,-339.21"/>
</g>
<!-- Node11 -->
<g id="node11" class="node">
<title>Node11</title>
<g id="a_node11"><a xlink:href="../../d7/d07/classcom_1_1fs_1_1starfarer_1_1api_1_1impl_1_1combat_1_1SabotOnHitEffect.html" target="_top" xlink:title=" ">
<polygon fill="none" stroke="black" points="1566,-105 1566,-173 1722,-173 1722,-105 1566,-105"/>
<text text-anchor="start" x="1574" y="-161" font-family="Helvetica,sans-Serif" font-size="10.00">com.fs.starfarer.api.impl.combat.</text>
<text text-anchor="middle" x="1644" y="-150" font-family="Helvetica,sans-Serif" font-size="10.00">SabotOnHitEffect</text>
<polyline fill="none" stroke="black" points="1566,-143 1722,-143 "/>
<text text-anchor="middle" x="1644" y="-131" font-family="Helvetica,sans-Serif" font-size="10.00"> </text>
<polyline fill="none" stroke="black" points="1566,-124 1722,-124 "/>
<text text-anchor="start" x="1574" y="-112" font-family="Helvetica,sans-Serif" font-size="10.00">+ onHit()</text>
</a>
</g>
</g>
<!-- Node1&#45;&gt;Node11 -->
<g id="edge10" class="edge">
<title>Node1&#45;&gt;Node11</title>
<path fill="none" stroke="midnightblue" d="M1026.35,-346.84C1170.37,-344.3 1470.38,-332.42 1557,-278 1595.49,-253.82 1619.91,-205.71 1632.78,-173.19"/>
<polygon fill="none" stroke="midnightblue" points="1026.2,-343.34 1016.26,-347.01 1026.31,-350.34 1026.2,-343.34"/>
</g>
<!-- Node12 -->
<g id="node12" class="node">
<title>Node12</title>
<g id="a_node12"><a xlink:href="../../d0/d5b/classcom_1_1fs_1_1starfarer_1_1api_1_1impl_1_1combat_1_1TestOnHitEffect.html" target="_top" xlink:title=" ">
<polygon fill="none" stroke="black" points="1740,-105 1740,-173 1896,-173 1896,-105 1740,-105"/>
<text text-anchor="start" x="1748" y="-161" font-family="Helvetica,sans-Serif" font-size="10.00">com.fs.starfarer.api.impl.combat.</text>
<text text-anchor="middle" x="1818" y="-150" font-family="Helvetica,sans-Serif" font-size="10.00">TestOnHitEffect</text>
<polyline fill="none" stroke="black" points="1740,-143 1896,-143 "/>
<text text-anchor="middle" x="1818" y="-131" font-family="Helvetica,sans-Serif" font-size="10.00"> </text>
<polyline fill="none" stroke="black" points="1740,-124 1896,-124 "/>
<text text-anchor="start" x="1748" y="-112" font-family="Helvetica,sans-Serif" font-size="10.00">+ onHit()</text>
</a>
</g>
</g>
<!-- Node1&#45;&gt;Node12 -->
<g id="edge11" class="edge">
<title>Node1&#45;&gt;Node12</title>
<path fill="none" stroke="midnightblue" d="M1026.13,-344.48C1212.45,-336.74 1671.79,-314.18 1731,-278 1769.91,-254.23 1794.29,-205.77 1807.03,-173.09"/>
<polygon fill="none" stroke="midnightblue" points="1025.98,-340.99 1016.13,-344.9 1026.26,-347.98 1025.98,-340.99"/>
</g>
</g>
</svg>
        <g id="navigator" transform="translate(0 0)" fill="#404254">
                <rect fill="#f2f5e9" fill-opacity="0.5" stroke="#606060" stroke-width=".5" x="0" y="0" width="60" height="60"/>
                <use id="zoomplus" xlink:href="#zoomPlus" x="17" y="9" onmousedown="handleZoom(evt,'in')"/>
                <use id="zoomminus" xlink:href="#zoomMin" x="42" y="9" onmousedown="handleZoom(evt,'out')"/>
                <use id="reset" xlink:href="#resetDef" x="30" y="36" onmousedown="handleReset()"/>
                <g id="arrowUp" xlink:href="#dirArrow" transform="translate(30 24)" onmousedown="handlePan(0,-1)">
                  <use xlink:href="#rim" fill="#404040">
                        <set attributeName="fill" to="#808080" begin="arrowUp.mouseover" end="arrowUp.mouseout"/>
                  </use>
                  <path fill="none" stroke="white" stroke-width="1.5" d="M0,-3.0v7 M-2.5,-0.5L0,-3.0L2.5,-0.5"/>
                </g>
                <g id="arrowRight" xlink:href="#dirArrow" transform="rotate(90) translate(36 -43)" onmousedown="handlePan(1,0)">
                  <use xlink:href="#rim" fill="#404040">
                        <set attributeName="fill" to="#808080" begin="arrowRight.mouseover" end="arrowRight.mouseout"/>
                  </use>
                  <path fill="none" stroke="white" stroke-width="1.5" d="M0,-3.0v7 M-2.5,-0.5L0,-3.0L2.5,-0.5"/>
                </g>
                <g id="arrowDown" xlink:href="#dirArrow" transform="rotate(180) translate(-30 -48)" onmousedown="handlePan(0,1)">
                  <use xlink:href="#rim" fill="#404040">
                        <set attributeName="fill" to="#808080" begin="arrowDown.mouseover" end="arrowDown.mouseout"/>
                  </use>
                  <path fill="none" stroke="white" stroke-width="1.5" d="M0,-3.0v7 M-2.5,-0.5L0,-3.0L2.5,-0.5"/>
                </g>
                <g id="arrowLeft" xlink:href="#dirArrow" transform="rotate(270) translate(-36 17)" onmousedown="handlePan(-1,0)">
                  <use xlink:href="#rim" fill="#404040">
                        <set attributeName="fill" to="#808080" begin="arrowLeft.mouseover" end="arrowLeft.mouseout"/>
                  </use>
                  <path fill="none" stroke="white" stroke-width="1.5" d="M0,-3.0v7 M-2.5,-0.5L0,-3.0L2.5,-0.5"/>
                </g>
        </g>
        <svg viewBox="0 0 15 15" width="100%" height="30px" preserveAspectRatio="xMaxYMin meet">
         <g id="arrow_out" transform="scale(0.3 0.3)">
          <a xlink:href="interfacecom_1_1fs_1_1starfarer_1_1api_1_1combat_1_1OnHitEffectPlugin__inherit__graph_org.svg" target="_base">
           <rect id="button" ry="5" rx="5" y="6" x="6" height="38" width="38"
                fill="#f2f5e9" fill-opacity="0.5" stroke="#606060" stroke-width="1.0"/>
           <path id="arrow"
             d="M 11.500037,31.436501 C 11.940474,20.09759 22.043105,11.32322 32.158766,21.979434 L 37.068811,17.246167 C 37.068811,17.246167 37.088388,32 37.088388,32 L 22.160133,31.978069 C 22.160133,31.978069 26.997745,27.140456 26.997745,27.140456 C 18.528582,18.264221 13.291696,25.230495 11.500037,31.436501 z"
             style="fill:#404040;"/>
          </a>
         </g>
        </svg>
</svg>
