<?xml version="1.0" encoding="UTF-8" standalone="no"?>
<!DOCTYPE svg PUBLIC "-//W3C//DTD SVG 1.1//EN"
 "http://www.w3.org/Graphics/SVG/1.1/DTD/svg11.dtd">
<!-- Generated by graphviz version 2.44.0 ()
 -->
<!-- Title: com.fs.starfarer.api.impl.campaign.FleetEncounterContext.BoardingResult Pages: 1 -->
<svg width="648pt" height="446pt"
 viewBox="0.00 0.00 647.50 446.00" xmlns="http://www.w3.org/2000/svg" xmlns:xlink="http://www.w3.org/1999/xlink">
<g id="graph0" class="graph" transform="scale(1 1) rotate(0) translate(4 442)">
<title>com.fs.starfarer.api.impl.campaign.FleetEncounterContext.BoardingResult</title>
<!-- Node1 -->
<g id="node1" class="node">
<title>Node1</title>
<g id="a_node1"><a xlink:title=" ">
<polygon fill="#bfbfbf" stroke="black" points="197.5,-0.5 197.5,-156.5 380.5,-156.5 380.5,-0.5 197.5,-0.5"/>
<text text-anchor="start" x="205.5" y="-144.5" font-family="Helvetica,sans-Serif" font-size="10.00">com.fs.starfarer.api.impl.campaign.</text>
<text text-anchor="middle" x="289" y="-133.5" font-family="Helvetica,sans-Serif" font-size="10.00">FleetEncounterContext.BoardingResult</text>
<polyline fill="none" stroke="black" points="197.5,-126.5 380.5,-126.5 "/>
<text text-anchor="middle" x="289" y="-114.5" font-family="Helvetica,sans-Serif" font-size="10.00"> </text>
<polyline fill="none" stroke="black" points="197.5,-107.5 380.5,-107.5 "/>
<text text-anchor="start" x="205.5" y="-95.5" font-family="Helvetica,sans-Serif" font-size="10.00">+ getOutcome()</text>
<text text-anchor="start" x="205.5" y="-84.5" font-family="Helvetica,sans-Serif" font-size="10.00">+ getLostInSelfDestruct()</text>
<text text-anchor="start" x="205.5" y="-73.5" font-family="Helvetica,sans-Serif" font-size="10.00">+ setOutcome()</text>
<text text-anchor="start" x="205.5" y="-62.5" font-family="Helvetica,sans-Serif" font-size="10.00">+ getAttackerLosses()</text>
<text text-anchor="start" x="205.5" y="-51.5" font-family="Helvetica,sans-Serif" font-size="10.00">+ setAttackerLosses()</text>
<text text-anchor="start" x="205.5" y="-40.5" font-family="Helvetica,sans-Serif" font-size="10.00">+ getDefenderLosses()</text>
<text text-anchor="start" x="205.5" y="-29.5" font-family="Helvetica,sans-Serif" font-size="10.00">+ setDefenderLosses()</text>
<text text-anchor="start" x="205.5" y="-18.5" font-family="Helvetica,sans-Serif" font-size="10.00">+ getMember()</text>
<text text-anchor="start" x="205.5" y="-7.5" font-family="Helvetica,sans-Serif" font-size="10.00">+ setMember()</text>
</a>
</g>
</g>
<!-- Node2 -->
<g id="node2" class="node">
<title>Node2</title>
<g id="a_node2"><a xlink:href="../../d0/da6/interfacecom_1_1fs_1_1starfarer_1_1api_1_1fleet_1_1FleetMemberAPI.html" target="_top" xlink:title=" ">
<polygon fill="none" stroke="black" points="0,-237.5 0,-415.5 122,-415.5 122,-237.5 0,-237.5"/>
<text text-anchor="start" x="8" y="-403.5" font-family="Helvetica,sans-Serif" font-size="10.00">com.fs.starfarer.api.fleet.</text>
<text text-anchor="middle" x="61" y="-392.5" font-family="Helvetica,sans-Serif" font-size="10.00">FleetMemberAPI</text>
<polyline fill="none" stroke="black" points="0,-385.5 122,-385.5 "/>
<text text-anchor="middle" x="61" y="-373.5" font-family="Helvetica,sans-Serif" font-size="10.00"> </text>
<polyline fill="none" stroke="black" points="0,-366.5 122,-366.5 "/>
<text text-anchor="start" x="8" y="-354.5" font-family="Helvetica,sans-Serif" font-size="10.00">+ getCaptain()</text>
<text text-anchor="start" x="8" y="-343.5" font-family="Helvetica,sans-Serif" font-size="10.00">+ getStats()</text>
<text text-anchor="start" x="8" y="-332.5" font-family="Helvetica,sans-Serif" font-size="10.00">+ getShipName()</text>
<text text-anchor="start" x="8" y="-321.5" font-family="Helvetica,sans-Serif" font-size="10.00">+ setShipName()</text>
<text text-anchor="start" x="8" y="-310.5" font-family="Helvetica,sans-Serif" font-size="10.00">+ getId()</text>
<text text-anchor="start" x="8" y="-299.5" font-family="Helvetica,sans-Serif" font-size="10.00">+ getSpecId()</text>
<text text-anchor="start" x="8" y="-288.5" font-family="Helvetica,sans-Serif" font-size="10.00">+ getHullId()</text>
<text text-anchor="start" x="8" y="-277.5" font-family="Helvetica,sans-Serif" font-size="10.00">+ getType()</text>
<text text-anchor="start" x="8" y="-266.5" font-family="Helvetica,sans-Serif" font-size="10.00">+ isFlagship()</text>
<text text-anchor="start" x="8" y="-255.5" font-family="Helvetica,sans-Serif" font-size="10.00">+ getNumFlightDecks()</text>
<text text-anchor="start" x="8" y="-244.5" font-family="Helvetica,sans-Serif" font-size="10.00">and 58 more...</text>
</a>
</g>
</g>
<!-- Node2&#45;&gt;Node1 -->
<g id="edge1" class="edge">
<title>Node2&#45;&gt;Node1</title>
<path fill="none" stroke="#404040" d="M113.3,-237.49C118.97,-229.66 124.91,-222.04 131,-215 148.12,-195.21 168.2,-175.78 188.19,-158.08"/>
<polygon fill="none" stroke="#404040" points="188.32,-157.97 190.21,-151.01 197.36,-150.08 195.47,-157.04 188.32,-157.97"/>
<text text-anchor="middle" x="187.5" y="-183.5" font-family="Helvetica,sans-Serif" font-size="10.00"> &#45;member</text>
</g>
<!-- Node3 -->
<g id="node3" class="node">
<title>Node3</title>
<g id="a_node3"><a xlink:title=" ">
<polygon fill="none" stroke="#bfbfbf" points="140,-292.5 140,-360.5 286,-360.5 286,-292.5 140,-292.5"/>
<text text-anchor="start" x="148" y="-348.5" font-family="Helvetica,sans-Serif" font-size="10.00">List&lt; com.fs.starfarer.api.fleet.</text>
<text text-anchor="middle" x="213" y="-337.5" font-family="Helvetica,sans-Serif" font-size="10.00">FleetMemberAPI &gt;</text>
<polyline fill="none" stroke="#bfbfbf" points="140,-330.5 286,-330.5 "/>
<text text-anchor="middle" x="213" y="-318.5" font-family="Helvetica,sans-Serif" font-size="10.00"> </text>
<polyline fill="none" stroke="#bfbfbf" points="140,-311.5 286,-311.5 "/>
<text text-anchor="middle" x="213" y="-299.5" font-family="Helvetica,sans-Serif" font-size="10.00"> </text>
</a>
</g>
</g>
<!-- Node3&#45;&gt;Node1 -->
<g id="edge2" class="edge">
<title>Node3&#45;&gt;Node1</title>
<path fill="none" stroke="#404040" d="M223.07,-292.3C232.34,-261.79 246.51,-215.32 259,-175 259.69,-172.76 260.4,-170.49 261.11,-168.2"/>
<polygon fill="none" stroke="#404040" points="261.15,-168.08 259.11,-161.16 264.72,-156.63 266.75,-163.54 261.15,-168.08"/>
<text text-anchor="middle" x="301" y="-183.5" font-family="Helvetica,sans-Serif" font-size="10.00"> &#45;lostInSelfDestruct</text>
</g>
<!-- Node4 -->
<g id="node4" class="node">
<title>Node4</title>
<g id="a_node4"><a xlink:href="../../d6/db8/interfacecom_1_1fs_1_1starfarer_1_1api_1_1fleet_1_1CrewCompositionAPI.html" target="_top" xlink:title=" ">
<polygon fill="none" stroke="black" points="304,-215.5 304,-437.5 426,-437.5 426,-215.5 304,-215.5"/>
<text text-anchor="start" x="312" y="-425.5" font-family="Helvetica,sans-Serif" font-size="10.00">com.fs.starfarer.api.fleet.</text>
<text text-anchor="middle" x="365" y="-414.5" font-family="Helvetica,sans-Serif" font-size="10.00">CrewCompositionAPI</text>
<polyline fill="none" stroke="black" points="304,-407.5 426,-407.5 "/>
<text text-anchor="middle" x="365" y="-395.5" font-family="Helvetica,sans-Serif" font-size="10.00"> </text>
<polyline fill="none" stroke="black" points="304,-388.5 426,-388.5 "/>
<text text-anchor="start" x="312" y="-376.5" font-family="Helvetica,sans-Serif" font-size="10.00">+ getCrew()</text>
<text text-anchor="start" x="312" y="-365.5" font-family="Helvetica,sans-Serif" font-size="10.00">+ setMarines()</text>
<text text-anchor="start" x="312" y="-354.5" font-family="Helvetica,sans-Serif" font-size="10.00">+ getMarines()</text>
<text text-anchor="start" x="312" y="-343.5" font-family="Helvetica,sans-Serif" font-size="10.00">+ addMarines()</text>
<text text-anchor="start" x="312" y="-332.5" font-family="Helvetica,sans-Serif" font-size="10.00">+ removeAllCrew()</text>
<text text-anchor="start" x="312" y="-321.5" font-family="Helvetica,sans-Serif" font-size="10.00">+ transfer()</text>
<text text-anchor="start" x="312" y="-310.5" font-family="Helvetica,sans-Serif" font-size="10.00">+ addCrew()</text>
<text text-anchor="start" x="312" y="-299.5" font-family="Helvetica,sans-Serif" font-size="10.00">+ addAll()</text>
<text text-anchor="start" x="312" y="-288.5" font-family="Helvetica,sans-Serif" font-size="10.00">+ removeAll()</text>
<text text-anchor="start" x="312" y="-277.5" font-family="Helvetica,sans-Serif" font-size="10.00">+ multiplyBy()</text>
<text text-anchor="start" x="312" y="-266.5" font-family="Helvetica,sans-Serif" font-size="10.00">+ addToCargo()</text>
<text text-anchor="start" x="312" y="-255.5" font-family="Helvetica,sans-Serif" font-size="10.00">+ removeFromCargo()</text>
<text text-anchor="start" x="312" y="-244.5" font-family="Helvetica,sans-Serif" font-size="10.00">+ clear()</text>
<text text-anchor="start" x="312" y="-233.5" font-family="Helvetica,sans-Serif" font-size="10.00">+ setCrew()</text>
<text text-anchor="start" x="312" y="-222.5" font-family="Helvetica,sans-Serif" font-size="10.00">+ getCrewInt()</text>
</a>
</g>
</g>
<!-- Node4&#45;&gt;Node1 -->
<g id="edge3" class="edge">
<title>Node4&#45;&gt;Node1</title>
<path fill="none" stroke="#404040" d="M353.75,-215.45C350.93,-201.65 347.41,-187.87 343,-175 342.18,-172.61 341.3,-170.2 340.37,-167.8"/>
<polygon fill="none" stroke="#404040" points="340.3,-167.64 334.29,-163.65 335.66,-156.57 341.67,-160.56 340.3,-167.64"/>
<text text-anchor="middle" x="384.5" y="-189" font-family="Helvetica,sans-Serif" font-size="10.00"> &#45;attackerLosses</text>
<text text-anchor="middle" x="384.5" y="-178" font-family="Helvetica,sans-Serif" font-size="10.00">&#45;defenderLosses</text>
</g>
<!-- Node5 -->
<g id="node5" class="node">
<title>Node5</title>
<g id="a_node5"><a xlink:href="../../d6/d37/enumcom_1_1fs_1_1starfarer_1_1api_1_1impl_1_1campaign_1_1FleetEncounterContext_1_1BoardingOutcome.html" target="_top" xlink:title=" ">
<polygon fill="none" stroke="black" points="444.5,-270.5 444.5,-382.5 639.5,-382.5 639.5,-270.5 444.5,-270.5"/>
<text text-anchor="start" x="452.5" y="-370.5" font-family="Helvetica,sans-Serif" font-size="10.00">com.fs.starfarer.api.impl.campaign.</text>
<text text-anchor="middle" x="542" y="-359.5" font-family="Helvetica,sans-Serif" font-size="10.00">FleetEncounterContext.BoardingOutcome</text>
<polyline fill="none" stroke="black" points="444.5,-352.5 639.5,-352.5 "/>
<text text-anchor="start" x="452.5" y="-340.5" font-family="Helvetica,sans-Serif" font-size="10.00">+ SUCCESS</text>
<text text-anchor="start" x="452.5" y="-329.5" font-family="Helvetica,sans-Serif" font-size="10.00">+ SELF_DESTRUCT</text>
<text text-anchor="start" x="452.5" y="-318.5" font-family="Helvetica,sans-Serif" font-size="10.00">+ SUCCESS_TOO_DAMAGED</text>
<text text-anchor="start" x="452.5" y="-307.5" font-family="Helvetica,sans-Serif" font-size="10.00">+ SHIP_ESCAPED</text>
<text text-anchor="start" x="452.5" y="-296.5" font-family="Helvetica,sans-Serif" font-size="10.00">+ SHIP_ESCAPED_CLEAN</text>
<polyline fill="none" stroke="black" points="444.5,-289.5 639.5,-289.5 "/>
<text text-anchor="middle" x="542" y="-277.5" font-family="Helvetica,sans-Serif" font-size="10.00"> </text>
</a>
</g>
</g>
<!-- Node5&#45;&gt;Node1 -->
<g id="edge4" class="edge">
<title>Node5&#45;&gt;Node1</title>
<path fill="none" stroke="#404040" d="M505.23,-270.38C483.78,-240.38 455.07,-203.65 425,-175 414.37,-164.87 402.59,-155 390.54,-145.67"/>
<polygon fill="none" stroke="#404040" points="390.4,-145.57 383.2,-145.13 380.83,-138.32 388.03,-138.76 390.4,-145.57"/>
<text text-anchor="middle" x="464.5" y="-183.5" font-family="Helvetica,sans-Serif" font-size="10.00"> &#45;outcome</text>
</g>
</g>
</svg>
