<?xml version="1.0" encoding="UTF-8" standalone="no"?>
<!DOCTYPE svg PUBLIC "-//W3C//DTD SVG 1.1//EN"
 "http://www.w3.org/Graphics/SVG/1.1/DTD/svg11.dtd">
<!-- Generated by graphviz version 2.44.0 ()
 -->
<!-- Title: com.fs.starfarer.api.impl.campaign.terrain.PulsarBeamTerrainPlugin Pages: 1 -->
<svg width="1368pt" height="1345pt"
 viewBox="0.00 0.00 1367.50 1345.00" xmlns="http://www.w3.org/2000/svg" xmlns:xlink="http://www.w3.org/1999/xlink">
<g id="graph0" class="graph" transform="scale(1 1) rotate(0) translate(4 1341)">
<title>com.fs.starfarer.api.impl.campaign.terrain.PulsarBeamTerrainPlugin</title>
<!-- Node1 -->
<g id="node1" class="node">
<title>Node1</title>
<g id="a_node1"><a xlink:title=" ">
<polygon fill="#bfbfbf" stroke="black" points="687.5,-0.5 687.5,-266.5 882.5,-266.5 882.5,-0.5 687.5,-0.5"/>
<text text-anchor="start" x="695.5" y="-254.5" font-family="Helvetica,sans-Serif" font-size="10.00">com.fs.starfarer.api.impl.campaign.terrain.</text>
<text text-anchor="middle" x="785" y="-243.5" font-family="Helvetica,sans-Serif" font-size="10.00">PulsarBeamTerrainPlugin</text>
<polyline fill="none" stroke="black" points="687.5,-236.5 882.5,-236.5 "/>
<text text-anchor="start" x="695.5" y="-224.5" font-family="Helvetica,sans-Serif" font-size="10.00">+ PULSAR_ARC</text>
<text text-anchor="start" x="695.5" y="-213.5" font-family="Helvetica,sans-Serif" font-size="10.00"># pulsarAngle</text>
<text text-anchor="start" x="695.5" y="-202.5" font-family="Helvetica,sans-Serif" font-size="10.00"># pulsarRotation</text>
<polyline fill="none" stroke="black" points="687.5,-195.5 882.5,-195.5 "/>
<text text-anchor="start" x="695.5" y="-183.5" font-family="Helvetica,sans-Serif" font-size="10.00">+ init()</text>
<text text-anchor="start" x="695.5" y="-172.5" font-family="Helvetica,sans-Serif" font-size="10.00">+ getNameForTooltip()</text>
<text text-anchor="start" x="695.5" y="-161.5" font-family="Helvetica,sans-Serif" font-size="10.00">+ getActiveLayers()</text>
<text text-anchor="start" x="695.5" y="-150.5" font-family="Helvetica,sans-Serif" font-size="10.00">+ getParams()</text>
<text text-anchor="start" x="695.5" y="-139.5" font-family="Helvetica,sans-Serif" font-size="10.00">+ advance()</text>
<text text-anchor="start" x="695.5" y="-128.5" font-family="Helvetica,sans-Serif" font-size="10.00">+ render()</text>
<text text-anchor="start" x="695.5" y="-117.5" font-family="Helvetica,sans-Serif" font-size="10.00">+ getRenderRange()</text>
<text text-anchor="start" x="695.5" y="-106.5" font-family="Helvetica,sans-Serif" font-size="10.00">+ containsPoint()</text>
<text text-anchor="start" x="695.5" y="-95.5" font-family="Helvetica,sans-Serif" font-size="10.00">+ applyEffect()</text>
<text text-anchor="start" x="695.5" y="-84.5" font-family="Helvetica,sans-Serif" font-size="10.00">+ getIntensityAtPoint()</text>
<text text-anchor="start" x="695.5" y="-73.5" font-family="Helvetica,sans-Serif" font-size="10.00">and 22 more...</text>
<text text-anchor="start" x="695.5" y="-62.5" font-family="Helvetica,sans-Serif" font-size="10.00">~ writeReplace()</text>
<text text-anchor="start" x="695.5" y="-51.5" font-family="Helvetica,sans-Serif" font-size="10.00"># readResolve()</text>
<text text-anchor="start" x="695.5" y="-40.5" font-family="Helvetica,sans-Serif" font-size="10.00"># shouldPlayLoopOne()</text>
<text text-anchor="start" x="695.5" y="-29.5" font-family="Helvetica,sans-Serif" font-size="10.00"># getLoopOneVolume()</text>
<text text-anchor="start" x="695.5" y="-18.5" font-family="Helvetica,sans-Serif" font-size="10.00"># getExtraSoundRadius()</text>
<text text-anchor="start" x="695.5" y="-7.5" font-family="Helvetica,sans-Serif" font-size="10.00"># isNearViewport()</text>
</a>
</g>
</g>
<!-- Node2 -->
<g id="node2" class="node">
<title>Node2</title>
<g id="a_node2"><a xlink:href="../../da/de6/classcom_1_1fs_1_1starfarer_1_1api_1_1impl_1_1campaign_1_1terrain_1_1BaseRingTerrain.html" target="_top" xlink:title=" ">
<polygon fill="none" stroke="black" points="204.5,-325.5 204.5,-591.5 399.5,-591.5 399.5,-325.5 204.5,-325.5"/>
<text text-anchor="start" x="212.5" y="-579.5" font-family="Helvetica,sans-Serif" font-size="10.00">com.fs.starfarer.api.impl.campaign.terrain.</text>
<text text-anchor="middle" x="302" y="-568.5" font-family="Helvetica,sans-Serif" font-size="10.00">BaseRingTerrain</text>
<polyline fill="none" stroke="black" points="204.5,-561.5 399.5,-561.5 "/>
<text text-anchor="middle" x="302" y="-549.5" font-family="Helvetica,sans-Serif" font-size="10.00"> </text>
<polyline fill="none" stroke="black" points="204.5,-542.5 399.5,-542.5 "/>
<text text-anchor="start" x="212.5" y="-530.5" font-family="Helvetica,sans-Serif" font-size="10.00">+ init()</text>
<text text-anchor="start" x="212.5" y="-519.5" font-family="Helvetica,sans-Serif" font-size="10.00">+ getRelatedEntity()</text>
<text text-anchor="start" x="212.5" y="-508.5" font-family="Helvetica,sans-Serif" font-size="10.00">+ getActiveLayers()</text>
<text text-anchor="start" x="212.5" y="-497.5" font-family="Helvetica,sans-Serif" font-size="10.00">+ containsEntity()</text>
<text text-anchor="start" x="212.5" y="-486.5" font-family="Helvetica,sans-Serif" font-size="10.00">+ containsPoint()</text>
<text text-anchor="start" x="212.5" y="-475.5" font-family="Helvetica,sans-Serif" font-size="10.00">+ getRenderRange()</text>
<text text-anchor="start" x="212.5" y="-464.5" font-family="Helvetica,sans-Serif" font-size="10.00">+ getRingParams()</text>
<text text-anchor="start" x="212.5" y="-453.5" font-family="Helvetica,sans-Serif" font-size="10.00">+ getProximitySoundFactor()</text>
<text text-anchor="start" x="212.5" y="-442.5" font-family="Helvetica,sans-Serif" font-size="10.00">+ render()</text>
<text text-anchor="start" x="212.5" y="-431.5" font-family="Helvetica,sans-Serif" font-size="10.00">+ renderOnMap()</text>
<text text-anchor="start" x="212.5" y="-420.5" font-family="Helvetica,sans-Serif" font-size="10.00">+ renderOnMapAbove()</text>
<text text-anchor="start" x="212.5" y="-409.5" font-family="Helvetica,sans-Serif" font-size="10.00">+ getMaxEffectRadius()</text>
<text text-anchor="start" x="212.5" y="-398.5" font-family="Helvetica,sans-Serif" font-size="10.00">+ getMinEffectRadius()</text>
<text text-anchor="start" x="212.5" y="-387.5" font-family="Helvetica,sans-Serif" font-size="10.00">+ getOptimalEffectRadius()</text>
<text text-anchor="start" x="212.5" y="-376.5" font-family="Helvetica,sans-Serif" font-size="10.00">+ getNameAOrAn()</text>
<text text-anchor="start" x="212.5" y="-365.5" font-family="Helvetica,sans-Serif" font-size="10.00">~ writeReplace()</text>
<text text-anchor="start" x="212.5" y="-354.5" font-family="Helvetica,sans-Serif" font-size="10.00"># readResolve()</text>
<text text-anchor="start" x="212.5" y="-343.5" font-family="Helvetica,sans-Serif" font-size="10.00"># getMinRadiusForContains()</text>
<text text-anchor="start" x="212.5" y="-332.5" font-family="Helvetica,sans-Serif" font-size="10.00"># getMaxRadiusForContains()</text>
</a>
</g>
</g>
<!-- Node2&#45;&gt;Node1 -->
<g id="edge1" class="edge">
<title>Node2&#45;&gt;Node1</title>
<path fill="none" stroke="midnightblue" d="M407.2,-325.66C407.46,-325.44 407.73,-325.22 408,-325 492.97,-256.01 607,-202.71 687.33,-170.26"/>
<polygon fill="none" stroke="midnightblue" points="404.84,-323.06 399.51,-332.22 409.39,-328.39 404.84,-323.06"/>
</g>
<!-- Node3 -->
<g id="node3" class="node">
<title>Node3</title>
<g id="a_node3"><a xlink:href="../../d9/d9b/classcom_1_1fs_1_1starfarer_1_1api_1_1impl_1_1campaign_1_1terrain_1_1BaseTerrain.html" target="_top" xlink:title=" ">
<polygon fill="none" stroke="black" points="126.5,-650.5 126.5,-993.5 321.5,-993.5 321.5,-650.5 126.5,-650.5"/>
<text text-anchor="start" x="134.5" y="-981.5" font-family="Helvetica,sans-Serif" font-size="10.00">com.fs.starfarer.api.impl.campaign.terrain.</text>
<text text-anchor="middle" x="224" y="-970.5" font-family="Helvetica,sans-Serif" font-size="10.00">BaseTerrain</text>
<polyline fill="none" stroke="black" points="126.5,-963.5 321.5,-963.5 "/>
<text text-anchor="start" x="134.5" y="-951.5" font-family="Helvetica,sans-Serif" font-size="10.00">+ EXTRA_SOUND_RADIUS</text>
<text text-anchor="start" x="134.5" y="-940.5" font-family="Helvetica,sans-Serif" font-size="10.00">+ TERRAIN_LOCK_KEY</text>
<text text-anchor="start" x="134.5" y="-929.5" font-family="Helvetica,sans-Serif" font-size="10.00"># terrainId</text>
<text text-anchor="start" x="134.5" y="-918.5" font-family="Helvetica,sans-Serif" font-size="10.00"># name</text>
<polyline fill="none" stroke="black" points="126.5,-911.5 321.5,-911.5 "/>
<text text-anchor="start" x="134.5" y="-899.5" font-family="Helvetica,sans-Serif" font-size="10.00">+ init()</text>
<text text-anchor="start" x="134.5" y="-888.5" font-family="Helvetica,sans-Serif" font-size="10.00">+ getIconSpriteName()</text>
<text text-anchor="start" x="134.5" y="-877.5" font-family="Helvetica,sans-Serif" font-size="10.00">+ getRelatedEntity()</text>
<text text-anchor="start" x="134.5" y="-866.5" font-family="Helvetica,sans-Serif" font-size="10.00">+ getEntity()</text>
<text text-anchor="start" x="134.5" y="-855.5" font-family="Helvetica,sans-Serif" font-size="10.00">+ getTerrainId()</text>
<text text-anchor="start" x="134.5" y="-844.5" font-family="Helvetica,sans-Serif" font-size="10.00">+ advance()</text>
<text text-anchor="start" x="134.5" y="-833.5" font-family="Helvetica,sans-Serif" font-size="10.00">+ getEffectCategory()</text>
<text text-anchor="start" x="134.5" y="-822.5" font-family="Helvetica,sans-Serif" font-size="10.00">+ containsEntity()</text>
<text text-anchor="start" x="134.5" y="-811.5" font-family="Helvetica,sans-Serif" font-size="10.00">+ containsPoint()</text>
<text text-anchor="start" x="134.5" y="-800.5" font-family="Helvetica,sans-Serif" font-size="10.00">+ stacksWithSelf()</text>
<text text-anchor="start" x="134.5" y="-789.5" font-family="Helvetica,sans-Serif" font-size="10.00">and 27 more...</text>
<text text-anchor="start" x="134.5" y="-778.5" font-family="Helvetica,sans-Serif" font-size="10.00"># shouldCheckFleetsToApply</text>
<text text-anchor="start" x="134.5" y="-767.5" font-family="Helvetica,sans-Serif" font-size="10.00">Effect()</text>
<text text-anchor="start" x="134.5" y="-756.5" font-family="Helvetica,sans-Serif" font-size="10.00"># getExtraSoundRadius()</text>
<text text-anchor="start" x="134.5" y="-745.5" font-family="Helvetica,sans-Serif" font-size="10.00"># createFirstSection()</text>
<text text-anchor="start" x="134.5" y="-734.5" font-family="Helvetica,sans-Serif" font-size="10.00"># createTravelSection()</text>
<text text-anchor="start" x="134.5" y="-723.5" font-family="Helvetica,sans-Serif" font-size="10.00"># createCombatSection()</text>
<text text-anchor="start" x="134.5" y="-712.5" font-family="Helvetica,sans-Serif" font-size="10.00"># shouldPlayLoopOne()</text>
<text text-anchor="start" x="134.5" y="-701.5" font-family="Helvetica,sans-Serif" font-size="10.00"># shouldPlayLoopTwo()</text>
<text text-anchor="start" x="134.5" y="-690.5" font-family="Helvetica,sans-Serif" font-size="10.00"># shouldPlayLoopThree()</text>
<text text-anchor="start" x="134.5" y="-679.5" font-family="Helvetica,sans-Serif" font-size="10.00"># shouldPlayLoopFour()</text>
<text text-anchor="start" x="134.5" y="-668.5" font-family="Helvetica,sans-Serif" font-size="10.00"># getLoopOnePitch()</text>
<text text-anchor="start" x="134.5" y="-657.5" font-family="Helvetica,sans-Serif" font-size="10.00">and 9 more...</text>
</a>
</g>
</g>
<!-- Node3&#45;&gt;Node2 -->
<g id="edge2" class="edge">
<title>Node3&#45;&gt;Node2</title>
<path fill="none" stroke="midnightblue" d="M263.03,-640.12C266.56,-623.74 270.09,-607.37 273.51,-591.54"/>
<polygon fill="none" stroke="midnightblue" points="259.52,-639.79 260.83,-650.31 266.36,-641.27 259.52,-639.79"/>
</g>
<!-- Node4 -->
<g id="node4" class="node">
<title>Node4</title>
<g id="a_node4"><a xlink:href="../../df/d02/interfacecom_1_1fs_1_1starfarer_1_1api_1_1campaign_1_1CampaignTerrainPlugin.html" target="_top" xlink:title=" ">
<polygon fill="none" stroke="black" points="0,-1041.5 0,-1219.5 146,-1219.5 146,-1041.5 0,-1041.5"/>
<text text-anchor="start" x="8" y="-1207.5" font-family="Helvetica,sans-Serif" font-size="10.00">com.fs.starfarer.api.campaign.</text>
<text text-anchor="middle" x="73" y="-1196.5" font-family="Helvetica,sans-Serif" font-size="10.00">CampaignTerrainPlugin</text>
<polyline fill="none" stroke="black" points="0,-1189.5 146,-1189.5 "/>
<text text-anchor="middle" x="73" y="-1177.5" font-family="Helvetica,sans-Serif" font-size="10.00"> </text>
<polyline fill="none" stroke="black" points="0,-1170.5 146,-1170.5 "/>
<text text-anchor="start" x="8" y="-1158.5" font-family="Helvetica,sans-Serif" font-size="10.00">+ init()</text>
<text text-anchor="start" x="8" y="-1147.5" font-family="Helvetica,sans-Serif" font-size="10.00">+ getTerrainId()</text>
<text text-anchor="start" x="8" y="-1136.5" font-family="Helvetica,sans-Serif" font-size="10.00">+ getRenderRange()</text>
<text text-anchor="start" x="8" y="-1125.5" font-family="Helvetica,sans-Serif" font-size="10.00">+ getActiveLayers()</text>
<text text-anchor="start" x="8" y="-1114.5" font-family="Helvetica,sans-Serif" font-size="10.00">+ render()</text>
<text text-anchor="start" x="8" y="-1103.5" font-family="Helvetica,sans-Serif" font-size="10.00">+ advance()</text>
<text text-anchor="start" x="8" y="-1092.5" font-family="Helvetica,sans-Serif" font-size="10.00">+ renderOnMap()</text>
<text text-anchor="start" x="8" y="-1081.5" font-family="Helvetica,sans-Serif" font-size="10.00">+ renderOnMapAbove()</text>
<text text-anchor="start" x="8" y="-1070.5" font-family="Helvetica,sans-Serif" font-size="10.00">+ containsEntity()</text>
<text text-anchor="start" x="8" y="-1059.5" font-family="Helvetica,sans-Serif" font-size="10.00">+ containsPoint()</text>
<text text-anchor="start" x="8" y="-1048.5" font-family="Helvetica,sans-Serif" font-size="10.00">and 19 more...</text>
</a>
</g>
</g>
<!-- Node4&#45;&gt;Node3 -->
<g id="edge3" class="edge">
<title>Node4&#45;&gt;Node3</title>
<path fill="none" stroke="midnightblue" d="M120.89,-1032.29C127.04,-1019.82 133.46,-1006.77 139.97,-993.56"/>
<polygon fill="none" stroke="midnightblue" points="117.75,-1030.74 116.47,-1041.26 124.03,-1033.84 117.75,-1030.74"/>
</g>
<!-- Node5 -->
<g id="node5" class="node">
<title>Node5</title>
<g id="a_node5"><a xlink:href="../../d6/de1/interfacecom_1_1fs_1_1starfarer_1_1api_1_1campaign_1_1SectorEntityToken.html" target="_top" xlink:title=" ">
<polygon fill="none" stroke="black" points="343,-1041.5 343,-1219.5 489,-1219.5 489,-1041.5 343,-1041.5"/>
<text text-anchor="start" x="351" y="-1207.5" font-family="Helvetica,sans-Serif" font-size="10.00">com.fs.starfarer.api.campaign.</text>
<text text-anchor="middle" x="416" y="-1196.5" font-family="Helvetica,sans-Serif" font-size="10.00">SectorEntityToken</text>
<polyline fill="none" stroke="black" points="343,-1189.5 489,-1189.5 "/>
<text text-anchor="middle" x="416" y="-1177.5" font-family="Helvetica,sans-Serif" font-size="10.00"> </text>
<polyline fill="none" stroke="black" points="343,-1170.5 489,-1170.5 "/>
<text text-anchor="start" x="351" y="-1158.5" font-family="Helvetica,sans-Serif" font-size="10.00">+ isPlayerFleet()</text>
<text text-anchor="start" x="351" y="-1147.5" font-family="Helvetica,sans-Serif" font-size="10.00">+ getMarket()</text>
<text text-anchor="start" x="351" y="-1136.5" font-family="Helvetica,sans-Serif" font-size="10.00">+ setMarket()</text>
<text text-anchor="start" x="351" y="-1125.5" font-family="Helvetica,sans-Serif" font-size="10.00">+ getCargo()</text>
<text text-anchor="start" x="351" y="-1114.5" font-family="Helvetica,sans-Serif" font-size="10.00">+ getLocation()</text>
<text text-anchor="start" x="351" y="-1103.5" font-family="Helvetica,sans-Serif" font-size="10.00">+ getLocationInHyperspace()</text>
<text text-anchor="start" x="351" y="-1092.5" font-family="Helvetica,sans-Serif" font-size="10.00">+ getOrbit()</text>
<text text-anchor="start" x="351" y="-1081.5" font-family="Helvetica,sans-Serif" font-size="10.00">+ setOrbit()</text>
<text text-anchor="start" x="351" y="-1070.5" font-family="Helvetica,sans-Serif" font-size="10.00">+ getId()</text>
<text text-anchor="start" x="351" y="-1059.5" font-family="Helvetica,sans-Serif" font-size="10.00">+ getName()</text>
<text text-anchor="start" x="351" y="-1048.5" font-family="Helvetica,sans-Serif" font-size="10.00">and 115 more...</text>
</a>
</g>
</g>
<!-- Node5&#45;&gt;Node3 -->
<g id="edge4" class="edge">
<title>Node5&#45;&gt;Node3</title>
<path fill="none" stroke="#404040" d="M359.89,-1041.39C349.9,-1025.63 339.62,-1009.34 330,-994 329.39,-993.03 328.78,-992.05 328.17,-991.08"/>
<polygon fill="none" stroke="#404040" points="327.92,-990.68 321.34,-987.72 321.55,-980.51 328.12,-983.47 327.92,-990.68"/>
<text text-anchor="middle" x="362.5" y="-1015" font-family="Helvetica,sans-Serif" font-size="10.00"> #entity</text>
</g>
<!-- Node9 -->
<g id="node9" class="node">
<title>Node9</title>
<g id="a_node9"><a xlink:href="../../d7/dd4/classcom_1_1fs_1_1starfarer_1_1api_1_1impl_1_1campaign_1_1terrain_1_1BaseRingTerrain_1_1RingParams.html" target="_top" xlink:title=" ">
<polygon fill="none" stroke="black" points="339.5,-771.5 339.5,-872.5 534.5,-872.5 534.5,-771.5 339.5,-771.5"/>
<text text-anchor="start" x="347.5" y="-860.5" font-family="Helvetica,sans-Serif" font-size="10.00">com.fs.starfarer.api.impl.campaign.terrain.</text>
<text text-anchor="middle" x="437" y="-849.5" font-family="Helvetica,sans-Serif" font-size="10.00">BaseRingTerrain.RingParams</text>
<polyline fill="none" stroke="black" points="339.5,-842.5 534.5,-842.5 "/>
<text text-anchor="start" x="347.5" y="-830.5" font-family="Helvetica,sans-Serif" font-size="10.00">+ bandWidthInEngine</text>
<text text-anchor="start" x="347.5" y="-819.5" font-family="Helvetica,sans-Serif" font-size="10.00">+ middleRadius</text>
<text text-anchor="start" x="347.5" y="-808.5" font-family="Helvetica,sans-Serif" font-size="10.00">+ name</text>
<polyline fill="none" stroke="black" points="339.5,-801.5 534.5,-801.5 "/>
<text text-anchor="start" x="347.5" y="-789.5" font-family="Helvetica,sans-Serif" font-size="10.00">+ RingParams()</text>
<text text-anchor="start" x="347.5" y="-778.5" font-family="Helvetica,sans-Serif" font-size="10.00">+ RingParams()</text>
</a>
</g>
</g>
<!-- Node5&#45;&gt;Node9 -->
<g id="edge9" class="edge">
<title>Node5&#45;&gt;Node9</title>
<path fill="none" stroke="#404040" d="M422.05,-1041.26C425.48,-991.15 429.69,-929.65 432.77,-884.72"/>
<polygon fill="none" stroke="#404040" points="432.79,-884.48 429.21,-878.22 433.61,-872.51 437.19,-878.77 432.79,-884.48"/>
<text text-anchor="middle" x="456" y="-1015" font-family="Helvetica,sans-Serif" font-size="10.00"> +relatedEntity</text>
</g>
<!-- Node6 -->
<g id="node6" class="node">
<title>Node6</title>
<g id="a_node6"><a xlink:href="../../de/da5/interfacecom_1_1fs_1_1starfarer_1_1api_1_1campaign_1_1rules_1_1HasMemory.html" target="_top" xlink:title=" ">
<polygon fill="none" stroke="black" points="331.5,-1257.5 331.5,-1336.5 500.5,-1336.5 500.5,-1257.5 331.5,-1257.5"/>
<text text-anchor="start" x="339.5" y="-1324.5" font-family="Helvetica,sans-Serif" font-size="10.00">com.fs.starfarer.api.campaign.rules.</text>
<text text-anchor="middle" x="416" y="-1313.5" font-family="Helvetica,sans-Serif" font-size="10.00">HasMemory</text>
<polyline fill="none" stroke="black" points="331.5,-1306.5 500.5,-1306.5 "/>
<text text-anchor="middle" x="416" y="-1294.5" font-family="Helvetica,sans-Serif" font-size="10.00"> </text>
<polyline fill="none" stroke="black" points="331.5,-1287.5 500.5,-1287.5 "/>
<text text-anchor="start" x="339.5" y="-1275.5" font-family="Helvetica,sans-Serif" font-size="10.00">+ getMemory()</text>
<text text-anchor="start" x="339.5" y="-1264.5" font-family="Helvetica,sans-Serif" font-size="10.00">+ getMemoryWithoutUpdate()</text>
</a>
</g>
</g>
<!-- Node6&#45;&gt;Node5 -->
<g id="edge5" class="edge">
<title>Node6&#45;&gt;Node5</title>
<path fill="none" stroke="midnightblue" d="M416,-1247.39C416,-1238.56 416,-1229.11 416,-1219.55"/>
<polygon fill="none" stroke="midnightblue" points="412.5,-1247.43 416,-1257.43 419.5,-1247.43 412.5,-1247.43"/>
</g>
<!-- Node7 -->
<g id="node7" class="node">
<title>Node7</title>
<g id="a_node7"><a xlink:href="../../d4/d32/interfacecom_1_1fs_1_1starfarer_1_1api_1_1loading_1_1TerrainSpecAPI.html" target="_top" xlink:title=" ">
<polygon fill="none" stroke="black" points="164,-1058 164,-1203 298,-1203 298,-1058 164,-1058"/>
<text text-anchor="start" x="172" y="-1191" font-family="Helvetica,sans-Serif" font-size="10.00">com.fs.starfarer.api.loading.</text>
<text text-anchor="middle" x="231" y="-1180" font-family="Helvetica,sans-Serif" font-size="10.00">TerrainSpecAPI</text>
<polyline fill="none" stroke="black" points="164,-1173 298,-1173 "/>
<text text-anchor="middle" x="231" y="-1161" font-family="Helvetica,sans-Serif" font-size="10.00"> </text>
<polyline fill="none" stroke="black" points="164,-1154 298,-1154 "/>
<text text-anchor="start" x="172" y="-1142" font-family="Helvetica,sans-Serif" font-size="10.00">+ getId()</text>
<text text-anchor="start" x="172" y="-1131" font-family="Helvetica,sans-Serif" font-size="10.00">+ getPluginClass()</text>
<text text-anchor="start" x="172" y="-1120" font-family="Helvetica,sans-Serif" font-size="10.00">+ getLoopOne()</text>
<text text-anchor="start" x="172" y="-1109" font-family="Helvetica,sans-Serif" font-size="10.00">+ getLoopTwo()</text>
<text text-anchor="start" x="172" y="-1098" font-family="Helvetica,sans-Serif" font-size="10.00">+ getLoopThree()</text>
<text text-anchor="start" x="172" y="-1087" font-family="Helvetica,sans-Serif" font-size="10.00">+ getLoopFour()</text>
<text text-anchor="start" x="172" y="-1076" font-family="Helvetica,sans-Serif" font-size="10.00">+ getCustom()</text>
<text text-anchor="start" x="172" y="-1065" font-family="Helvetica,sans-Serif" font-size="10.00">+ getMusicSuppression()</text>
</a>
</g>
</g>
<!-- Node7&#45;&gt;Node3 -->
<g id="edge6" class="edge">
<title>Node7&#45;&gt;Node3</title>
<path fill="none" stroke="#404040" d="M229.36,-1057.64C228.99,-1041.6 228.59,-1023.89 228.17,-1005.59"/>
<polygon fill="none" stroke="#404040" points="228.17,-1005.5 224.03,-999.59 227.89,-993.5 232.03,-999.41 228.17,-1005.5"/>
<text text-anchor="middle" x="242.5" y="-1015" font-family="Helvetica,sans-Serif" font-size="10.00"> &#45;spec</text>
</g>
<!-- Node8 -->
<g id="node8" class="node">
<title>Node8</title>
<g id="a_node8"><a xlink:title=" ">
<polygon fill="none" stroke="#bfbfbf" points="552,-788 552,-856 746,-856 746,-788 552,-788"/>
<text text-anchor="start" x="560" y="-844" font-family="Helvetica,sans-Serif" font-size="10.00">EnumSet&lt; com.fs.starfarer.api.campaign.</text>
<text text-anchor="middle" x="649" y="-833" font-family="Helvetica,sans-Serif" font-size="10.00">CampaignEngineLayers &gt;</text>
<polyline fill="none" stroke="#bfbfbf" points="552,-826 746,-826 "/>
<text text-anchor="middle" x="649" y="-814" font-family="Helvetica,sans-Serif" font-size="10.00"> </text>
<polyline fill="none" stroke="#bfbfbf" points="552,-807 746,-807 "/>
<text text-anchor="middle" x="649" y="-795" font-family="Helvetica,sans-Serif" font-size="10.00"> </text>
</a>
</g>
</g>
<!-- Node8&#45;&gt;Node1 -->
<g id="edge11" class="edge">
<title>Node8&#45;&gt;Node1</title>
<path fill="none" stroke="#404040" d="M643.33,-787.78C630.8,-706.5 605.76,-492.07 658,-325 663.77,-306.54 671.94,-288.22 681.38,-270.65"/>
<polygon fill="none" stroke="#404040" points="681.57,-270.3 681,-263.11 687.41,-259.81 687.99,-267 681.57,-270.3"/>
<text text-anchor="middle" x="673.5" y="-456" font-family="Helvetica,sans-Serif" font-size="10.00"> &#45;layers</text>
</g>
<!-- Node8&#45;&gt;Node2 -->
<g id="edge7" class="edge">
<title>Node8&#45;&gt;Node2</title>
<path fill="none" stroke="#404040" d="M635.8,-787.85C619.22,-749.97 587.47,-688.29 543,-650 496.32,-609.81 463.8,-629.04 409.65,-592.52"/>
<polygon fill="none" stroke="#404040" points="409.39,-592.33 402.19,-592.07 399.66,-585.32 406.87,-585.58 409.39,-592.33"/>
<text text-anchor="middle" x="532" y="-618.5" font-family="Helvetica,sans-Serif" font-size="10.00"> #layers</text>
</g>
<!-- Node9&#45;&gt;Node2 -->
<g id="edge8" class="edge">
<title>Node9&#45;&gt;Node2</title>
<path fill="none" stroke="#404040" d="M415.31,-771.25C399.08,-733.36 376.72,-679.76 359,-632 355.53,-622.65 352.05,-612.97 348.61,-603.2"/>
<polygon fill="none" stroke="#404040" points="348.55,-603.03 342.8,-598.68 344.6,-591.7 350.35,-596.04 348.55,-603.03"/>
<text text-anchor="middle" x="379.5" y="-618.5" font-family="Helvetica,sans-Serif" font-size="10.00"> +params</text>
</g>
<!-- Node17 -->
<g id="node17" class="node">
<title>Node17</title>
<g id="a_node17"><a xlink:href="../../d7/dc4/classcom_1_1fs_1_1starfarer_1_1api_1_1impl_1_1campaign_1_1terrain_1_1StarCoronaTerrainPlugin_1_1CoronaParams.html" target="_top" xlink:title=" ">
<polygon fill="none" stroke="black" points="417.5,-413.5 417.5,-503.5 612.5,-503.5 612.5,-413.5 417.5,-413.5"/>
<text text-anchor="start" x="425.5" y="-491.5" font-family="Helvetica,sans-Serif" font-size="10.00">com.fs.starfarer.api.impl.campaign.terrain.</text>
<text text-anchor="middle" x="515" y="-480.5" font-family="Helvetica,sans-Serif" font-size="10.00">StarCoronaTerrainPlugin.CoronaParams</text>
<polyline fill="none" stroke="black" points="417.5,-473.5 612.5,-473.5 "/>
<text text-anchor="start" x="425.5" y="-461.5" font-family="Helvetica,sans-Serif" font-size="10.00">+ windBurnLevel</text>
<text text-anchor="start" x="425.5" y="-450.5" font-family="Helvetica,sans-Serif" font-size="10.00">+ flareProbability</text>
<text text-anchor="start" x="425.5" y="-439.5" font-family="Helvetica,sans-Serif" font-size="10.00">+ crLossMult</text>
<polyline fill="none" stroke="black" points="417.5,-432.5 612.5,-432.5 "/>
<text text-anchor="start" x="425.5" y="-420.5" font-family="Helvetica,sans-Serif" font-size="10.00">+ CoronaParams()</text>
</a>
</g>
</g>
<!-- Node9&#45;&gt;Node17 -->
<g id="edge20" class="edge">
<title>Node9&#45;&gt;Node17</title>
<path fill="none" stroke="midnightblue" d="M449.82,-761.6C465.45,-689.13 491.52,-568.3 505.49,-503.6"/>
<polygon fill="none" stroke="midnightblue" points="446.37,-760.98 447.68,-771.49 453.21,-762.46 446.37,-760.98"/>
</g>
<!-- Node10 -->
<g id="node10" class="node">
<title>Node10</title>
<g id="a_node10"><a xlink:href="../../dd/d41/interfacecom_1_1fs_1_1starfarer_1_1api_1_1impl_1_1campaign_1_1terrain_1_1PulsarRenderer_1_1PulsarRendererDelegate.html" target="_top" xlink:title=" ">
<polygon fill="none" stroke="black" points="908.5,-744 908.5,-900 1103.5,-900 1103.5,-744 908.5,-744"/>
<text text-anchor="start" x="916.5" y="-888" font-family="Helvetica,sans-Serif" font-size="10.00">com.fs.starfarer.api.impl.campaign.terrain.</text>
<text text-anchor="middle" x="1006" y="-877" font-family="Helvetica,sans-Serif" font-size="10.00">PulsarRenderer.PulsarRendererDelegate</text>
<polyline fill="none" stroke="black" points="908.5,-870 1103.5,-870 "/>
<text text-anchor="middle" x="1006" y="-858" font-family="Helvetica,sans-Serif" font-size="10.00"> </text>
<polyline fill="none" stroke="black" points="908.5,-851 1103.5,-851 "/>
<text text-anchor="start" x="916.5" y="-839" font-family="Helvetica,sans-Serif" font-size="10.00">+ getPulsarInnerRadius()</text>
<text text-anchor="start" x="916.5" y="-828" font-family="Helvetica,sans-Serif" font-size="10.00">+ getPulsarOuterRadius()</text>
<text text-anchor="start" x="916.5" y="-817" font-family="Helvetica,sans-Serif" font-size="10.00">+ getPulsarCenterLoc()</text>
<text text-anchor="start" x="916.5" y="-806" font-family="Helvetica,sans-Serif" font-size="10.00">+ getPulsarInnerWidth()</text>
<text text-anchor="start" x="916.5" y="-795" font-family="Helvetica,sans-Serif" font-size="10.00">+ getPulsarOuterWidth()</text>
<text text-anchor="start" x="916.5" y="-784" font-family="Helvetica,sans-Serif" font-size="10.00">+ getPulsarColorForAngle()</text>
<text text-anchor="start" x="916.5" y="-773" font-family="Helvetica,sans-Serif" font-size="10.00">+ getPulsarTexture()</text>
<text text-anchor="start" x="916.5" y="-762" font-family="Helvetica,sans-Serif" font-size="10.00">+ getPulsarBlocker()</text>
<text text-anchor="start" x="916.5" y="-751" font-family="Helvetica,sans-Serif" font-size="10.00">+ getPulsarScrollSpeed()</text>
</a>
</g>
</g>
<!-- Node10&#45;&gt;Node1 -->
<g id="edge10" class="edge">
<title>Node10&#45;&gt;Node1</title>
<path fill="none" stroke="midnightblue" d="M1000.94,-733.64C992.81,-601.26 976.12,-361.33 960,-325 942.24,-284.98 912.62,-247.81 882.75,-217.13"/>
<polygon fill="none" stroke="midnightblue" points="997.45,-733.99 1001.56,-743.76 1004.44,-733.57 997.45,-733.99"/>
</g>
<!-- Node13 -->
<g id="node13" class="node">
<title>Node13</title>
<g id="a_node13"><a xlink:href="../../df/d7b/classcom_1_1fs_1_1starfarer_1_1api_1_1impl_1_1campaign_1_1terrain_1_1PulsarRenderer.html" target="_top" xlink:title=" ">
<polygon fill="none" stroke="black" points="1164.5,-391.5 1164.5,-525.5 1359.5,-525.5 1359.5,-391.5 1164.5,-391.5"/>
<text text-anchor="start" x="1172.5" y="-513.5" font-family="Helvetica,sans-Serif" font-size="10.00">com.fs.starfarer.api.impl.campaign.terrain.</text>
<text text-anchor="middle" x="1262" y="-502.5" font-family="Helvetica,sans-Serif" font-size="10.00">PulsarRenderer</text>
<polyline fill="none" stroke="black" points="1164.5,-495.5 1359.5,-495.5 "/>
<text text-anchor="start" x="1172.5" y="-483.5" font-family="Helvetica,sans-Serif" font-size="10.00">&#45; texOffset</text>
<text text-anchor="start" x="1172.5" y="-472.5" font-family="Helvetica,sans-Serif" font-size="10.00">&#45; currAngle</text>
<text text-anchor="start" x="1172.5" y="-461.5" font-family="Helvetica,sans-Serif" font-size="10.00">&#45; rendered</text>
<polyline fill="none" stroke="black" points="1164.5,-454.5 1359.5,-454.5 "/>
<text text-anchor="start" x="1172.5" y="-442.5" font-family="Helvetica,sans-Serif" font-size="10.00">+ PulsarRenderer()</text>
<text text-anchor="start" x="1172.5" y="-431.5" font-family="Helvetica,sans-Serif" font-size="10.00">+ getCurrAngle()</text>
<text text-anchor="start" x="1172.5" y="-420.5" font-family="Helvetica,sans-Serif" font-size="10.00">+ setCurrAngle()</text>
<text text-anchor="start" x="1172.5" y="-409.5" font-family="Helvetica,sans-Serif" font-size="10.00">+ advance()</text>
<text text-anchor="start" x="1172.5" y="-398.5" font-family="Helvetica,sans-Serif" font-size="10.00">+ render()</text>
</a>
</g>
</g>
<!-- Node10&#45;&gt;Node13 -->
<g id="edge16" class="edge">
<title>Node10&#45;&gt;Node13</title>
<path fill="none" stroke="#404040" d="M1060.6,-743.89C1104.14,-682.41 1164.79,-596.77 1208.14,-535.56"/>
<polygon fill="none" stroke="#404040" points="1208.27,-535.37 1208.48,-528.16 1215.21,-525.58 1215,-532.78 1208.27,-535.37"/>
<text text-anchor="middle" x="1170.5" y="-618.5" font-family="Helvetica,sans-Serif" font-size="10.00"> &#45;delegate</text>
</g>
<!-- Node11 -->
<g id="node11" class="node">
<title>Node11</title>
<g id="a_node11"><a xlink:title=" ">
<polygon fill="none" stroke="#bfbfbf" points="698.5,-430 698.5,-487 737.5,-487 737.5,-430 698.5,-430"/>
<text text-anchor="middle" x="718" y="-475" font-family="Helvetica,sans-Serif" font-size="10.00">Color</text>
<polyline fill="none" stroke="#bfbfbf" points="698.5,-468 737.5,-468 "/>
<text text-anchor="middle" x="718" y="-456" font-family="Helvetica,sans-Serif" font-size="10.00"> </text>
<polyline fill="none" stroke="#bfbfbf" points="698.5,-449 737.5,-449 "/>
<text text-anchor="middle" x="718" y="-437" font-family="Helvetica,sans-Serif" font-size="10.00"> </text>
</a>
</g>
</g>
<!-- Node11&#45;&gt;Node1 -->
<g id="edge12" class="edge">
<title>Node11&#45;&gt;Node1</title>
<path fill="none" stroke="#404040" d="M723.71,-429.96C730.76,-395.99 743.27,-335.69 755.15,-278.38"/>
<polygon fill="none" stroke="#404040" points="755.16,-278.34 752.47,-271.65 757.6,-266.59 760.3,-273.28 755.16,-278.34"/>
<text text-anchor="middle" x="768.5" y="-293.5" font-family="Helvetica,sans-Serif" font-size="10.00"> ~color</text>
</g>
<!-- Node12 -->
<g id="node12" class="node">
<title>Node12</title>
<g id="a_node12"><a xlink:href="../../d8/d39/classcom_1_1fs_1_1starfarer_1_1api_1_1impl_1_1campaign_1_1terrain_1_1RangeBlockerUtil.html" target="_top" xlink:title=" ">
<polygon fill="none" stroke="black" points="755.5,-325.5 755.5,-591.5 950.5,-591.5 950.5,-325.5 755.5,-325.5"/>
<text text-anchor="start" x="763.5" y="-579.5" font-family="Helvetica,sans-Serif" font-size="10.00">com.fs.starfarer.api.impl.campaign.terrain.</text>
<text text-anchor="middle" x="853" y="-568.5" font-family="Helvetica,sans-Serif" font-size="10.00">RangeBlockerUtil</text>
<polyline fill="none" stroke="black" points="755.5,-561.5 950.5,-561.5 "/>
<text text-anchor="start" x="763.5" y="-549.5" font-family="Helvetica,sans-Serif" font-size="10.00">&#45; resolution</text>
<text text-anchor="start" x="763.5" y="-538.5" font-family="Helvetica,sans-Serif" font-size="10.00">&#45; maxRange</text>
<text text-anchor="start" x="763.5" y="-527.5" font-family="Helvetica,sans-Serif" font-size="10.00">&#45; degreesPerUnit</text>
<text text-anchor="start" x="763.5" y="-516.5" font-family="Helvetica,sans-Serif" font-size="10.00">&#45; limits</text>
<text text-anchor="start" x="763.5" y="-505.5" font-family="Helvetica,sans-Serif" font-size="10.00">&#45; curr</text>
<text text-anchor="start" x="763.5" y="-494.5" font-family="Helvetica,sans-Serif" font-size="10.00">&#45; wasUpdated</text>
<text text-anchor="start" x="763.5" y="-483.5" font-family="Helvetica,sans-Serif" font-size="10.00">&#45; isAnythingShortened</text>
<polyline fill="none" stroke="black" points="755.5,-476.5 950.5,-476.5 "/>
<text text-anchor="start" x="763.5" y="-464.5" font-family="Helvetica,sans-Serif" font-size="10.00">+ RangeBlockerUtil()</text>
<text text-anchor="start" x="763.5" y="-453.5" font-family="Helvetica,sans-Serif" font-size="10.00">+ wasEverUpdated()</text>
<text text-anchor="start" x="763.5" y="-442.5" font-family="Helvetica,sans-Serif" font-size="10.00">+ updateAndSync()</text>
<text text-anchor="start" x="763.5" y="-431.5" font-family="Helvetica,sans-Serif" font-size="10.00">+ sync()</text>
<text text-anchor="start" x="763.5" y="-420.5" font-family="Helvetica,sans-Serif" font-size="10.00">+ getShortenAmountAt()</text>
<text text-anchor="start" x="763.5" y="-409.5" font-family="Helvetica,sans-Serif" font-size="10.00">+ getCurrMaxAt()</text>
<text text-anchor="start" x="763.5" y="-398.5" font-family="Helvetica,sans-Serif" font-size="10.00">+ getAlphaAt()</text>
<text text-anchor="start" x="763.5" y="-387.5" font-family="Helvetica,sans-Serif" font-size="10.00">+ advance()</text>
<text text-anchor="start" x="763.5" y="-376.5" font-family="Helvetica,sans-Serif" font-size="10.00">+ updateLimits()</text>
<text text-anchor="start" x="763.5" y="-365.5" font-family="Helvetica,sans-Serif" font-size="10.00">+ block()</text>
<text text-anchor="start" x="763.5" y="-354.5" font-family="Helvetica,sans-Serif" font-size="10.00">+ getIndexForAngle()</text>
<text text-anchor="start" x="763.5" y="-343.5" font-family="Helvetica,sans-Serif" font-size="10.00">+ isAnythingShortened()</text>
<text text-anchor="start" x="763.5" y="-332.5" font-family="Helvetica,sans-Serif" font-size="10.00">+ getMaxRange()</text>
</a>
</g>
</g>
<!-- Node12&#45;&gt;Node1 -->
<g id="edge13" class="edge">
<title>Node12&#45;&gt;Node1</title>
<path fill="none" stroke="#404040" d="M825.15,-325.19C821.9,-309.78 818.58,-294 815.3,-278.45"/>
<polygon fill="none" stroke="#404040" points="815.28,-278.35 810.13,-273.3 812.81,-266.6 817.96,-271.65 815.28,-278.35"/>
<text text-anchor="middle" x="841" y="-293.5" font-family="Helvetica,sans-Serif" font-size="10.00"> #blocker</text>
</g>
<!-- Node13&#45;&gt;Node1 -->
<g id="edge14" class="edge">
<title>Node13&#45;&gt;Node1</title>
<path fill="none" stroke="#404040" d="M1217.29,-391.34C1199.7,-368.46 1178.16,-343.86 1155,-325 1075.97,-260.64 971.7,-209.37 893.99,-176.3"/>
<polygon fill="none" stroke="#404040" points="893.78,-176.21 886.7,-177.57 882.72,-171.55 889.81,-170.2 893.78,-176.21"/>
<text text-anchor="middle" x="1143.5" y="-299" font-family="Helvetica,sans-Serif" font-size="10.00"> #flare1</text>
<text text-anchor="middle" x="1143.5" y="-288" font-family="Helvetica,sans-Serif" font-size="10.00">~flare2</text>
</g>
<!-- Node14 -->
<g id="node14" class="node">
<title>Node14</title>
<g id="a_node14"><a xlink:title=" ">
<polygon fill="none" stroke="#bfbfbf" points="1190,-793.5 1190,-850.5 1252,-850.5 1252,-793.5 1190,-793.5"/>
<text text-anchor="middle" x="1221" y="-838.5" font-family="Helvetica,sans-Serif" font-size="10.00">ByteBuffer</text>
<polyline fill="none" stroke="#bfbfbf" points="1190,-831.5 1252,-831.5 "/>
<text text-anchor="middle" x="1221" y="-819.5" font-family="Helvetica,sans-Serif" font-size="10.00"> </text>
<polyline fill="none" stroke="#bfbfbf" points="1190,-812.5 1252,-812.5 "/>
<text text-anchor="middle" x="1221" y="-800.5" font-family="Helvetica,sans-Serif" font-size="10.00"> </text>
</a>
</g>
</g>
<!-- Node14&#45;&gt;Node13 -->
<g id="edge15" class="edge">
<title>Node14&#45;&gt;Node13</title>
<path fill="none" stroke="#404040" d="M1219.12,-793.2C1216.86,-752.7 1214.38,-675.19 1223,-610 1226.15,-586.19 1231.82,-560.75 1237.88,-537.68"/>
<polygon fill="none" stroke="#404040" points="1237.95,-537.45 1235.65,-530.61 1241.08,-525.86 1243.37,-532.7 1237.95,-537.45"/>
<text text-anchor="middle" x="1249" y="-618.5" font-family="Helvetica,sans-Serif" font-size="10.00"> &#45;colorBuffer</text>
</g>
<!-- Node15 -->
<g id="node15" class="node">
<title>Node15</title>
<g id="a_node15"><a xlink:title=" ">
<polygon fill="none" stroke="#bfbfbf" points="1270,-793.5 1270,-850.5 1334,-850.5 1334,-793.5 1270,-793.5"/>
<text text-anchor="middle" x="1302" y="-838.5" font-family="Helvetica,sans-Serif" font-size="10.00">FloatBuffer</text>
<polyline fill="none" stroke="#bfbfbf" points="1270,-831.5 1334,-831.5 "/>
<text text-anchor="middle" x="1302" y="-819.5" font-family="Helvetica,sans-Serif" font-size="10.00"> </text>
<polyline fill="none" stroke="#bfbfbf" points="1270,-812.5 1334,-812.5 "/>
<text text-anchor="middle" x="1302" y="-800.5" font-family="Helvetica,sans-Serif" font-size="10.00"> </text>
</a>
</g>
</g>
<!-- Node15&#45;&gt;Node13 -->
<g id="edge17" class="edge">
<title>Node15&#45;&gt;Node13</title>
<path fill="none" stroke="#404040" d="M1298.93,-793.23C1292.95,-739.22 1279.56,-618.24 1270.66,-537.75"/>
<polygon fill="none" stroke="#404040" points="1270.64,-537.62 1266.01,-532.1 1269.32,-525.69 1273.96,-531.22 1270.64,-537.62"/>
<text text-anchor="middle" x="1310.5" y="-624" font-family="Helvetica,sans-Serif" font-size="10.00"> &#45;vertexBuffer</text>
<text text-anchor="middle" x="1310.5" y="-613" font-family="Helvetica,sans-Serif" font-size="10.00">~textureBuffer</text>
</g>
<!-- Node16 -->
<g id="node16" class="node">
<title>Node16</title>
<g id="a_node16"><a xlink:href="../../db/d53/interfacecom_1_1fs_1_1starfarer_1_1api_1_1graphics_1_1SpriteAPI.html" target="_top" xlink:title=" ">
<polygon fill="none" stroke="black" points="1006,-369.5 1006,-547.5 1146,-547.5 1146,-369.5 1006,-369.5"/>
<text text-anchor="start" x="1014" y="-535.5" font-family="Helvetica,sans-Serif" font-size="10.00">com.fs.starfarer.api.graphics.</text>
<text text-anchor="middle" x="1076" y="-524.5" font-family="Helvetica,sans-Serif" font-size="10.00">SpriteAPI</text>
<polyline fill="none" stroke="black" points="1006,-517.5 1146,-517.5 "/>
<text text-anchor="middle" x="1076" y="-505.5" font-family="Helvetica,sans-Serif" font-size="10.00"> </text>
<polyline fill="none" stroke="black" points="1006,-498.5 1146,-498.5 "/>
<text text-anchor="start" x="1014" y="-486.5" font-family="Helvetica,sans-Serif" font-size="10.00">+ setBlendFunc()</text>
<text text-anchor="start" x="1014" y="-475.5" font-family="Helvetica,sans-Serif" font-size="10.00">+ setNormalBlend()</text>
<text text-anchor="start" x="1014" y="-464.5" font-family="Helvetica,sans-Serif" font-size="10.00">+ setAdditiveBlend()</text>
<text text-anchor="start" x="1014" y="-453.5" font-family="Helvetica,sans-Serif" font-size="10.00">+ setCenter()</text>
<text text-anchor="start" x="1014" y="-442.5" font-family="Helvetica,sans-Serif" font-size="10.00">+ setSize()</text>
<text text-anchor="start" x="1014" y="-431.5" font-family="Helvetica,sans-Serif" font-size="10.00">+ getAngle()</text>
<text text-anchor="start" x="1014" y="-420.5" font-family="Helvetica,sans-Serif" font-size="10.00">+ setAngle()</text>
<text text-anchor="start" x="1014" y="-409.5" font-family="Helvetica,sans-Serif" font-size="10.00">+ getColor()</text>
<text text-anchor="start" x="1014" y="-398.5" font-family="Helvetica,sans-Serif" font-size="10.00">+ setColor()</text>
<text text-anchor="start" x="1014" y="-387.5" font-family="Helvetica,sans-Serif" font-size="10.00">+ setHeight()</text>
<text text-anchor="start" x="1014" y="-376.5" font-family="Helvetica,sans-Serif" font-size="10.00">and 24 more...</text>
</a>
</g>
</g>
<!-- Node16&#45;&gt;Node1 -->
<g id="edge18" class="edge">
<title>Node16&#45;&gt;Node1</title>
<path fill="none" stroke="#404040" d="M1043.06,-369.19C1029.84,-340.52 1012.76,-309.76 992,-285 964.2,-251.84 927.6,-222.13 892.91,-198.04"/>
<polygon fill="none" stroke="#404040" points="892.61,-197.84 885.4,-197.76 882.7,-191.08 889.91,-191.15 892.61,-197.84"/>
<text text-anchor="middle" x="1036" y="-293.5" font-family="Helvetica,sans-Serif" font-size="10.00"> #flareTexture</text>
</g>
<!-- Node17&#45;&gt;Node1 -->
<g id="edge19" class="edge">
<title>Node17&#45;&gt;Node1</title>
<path fill="none" stroke="#404040" d="M529.02,-413.27C542.15,-376.43 564.34,-323.89 595,-285 618.17,-255.61 648.18,-228.47 677.47,-205.57"/>
<polygon fill="none" stroke="#404040" points="677.85,-205.28 680.17,-198.45 687.37,-197.97 685.05,-204.8 677.85,-205.28"/>
<text text-anchor="middle" x="615" y="-293.5" font-family="Helvetica,sans-Serif" font-size="10.00"> #params</text>
</g>
</g>
</svg>
