<?xml version="1.0" encoding="UTF-8" standalone="no"?>
<!DOCTYPE svg PUBLIC "-//W3C//DTD SVG 1.1//EN"
 "http://www.w3.org/Graphics/SVG/1.1/DTD/svg11.dtd">
<!-- Generated by graphviz version 7.0.5 (20221223.1930)
 -->
<!-- Title: com.fs.starfarer.api.impl.campaign.GenericFieldItemSprite Pages: 1 -->
<svg width="620pt" height="173pt"
 viewBox="0.00 0.00 620.00 173.00" xmlns="http://www.w3.org/2000/svg" xmlns:xlink="http://www.w3.org/1999/xlink">
<g id="graph0" class="graph" transform="scale(1 1) rotate(0) translate(4 169)">
<title>com.fs.starfarer.api.impl.campaign.GenericFieldItemSprite</title>
<!-- Node1 -->
<g id="node1" class="node">
<title>Node1</title>
<g id="a_node1"><a xlink:title=" ">
<polygon fill="#999999" stroke="#666666" points="612,-95 446,-95 446,-65 612,-65 612,-95"/>
<text text-anchor="start" x="454" y="-83" font-family="Helvetica,sans-Serif" font-size="10.00">com.fs.starfarer.api.impl.campaign.</text>
<text text-anchor="middle" x="529" y="-72" font-family="Helvetica,sans-Serif" font-size="10.00">GenericFieldItemSprite</text>
</a>
</g>
</g>
<!-- Node2 -->
<g id="node2" class="node">
<title>Node2</title>
<g id="a_node2"><a xlink:href="../../db/d53/interfacecom_1_1fs_1_1starfarer_1_1api_1_1graphics_1_1SpriteAPI.html" target="_top" xlink:title=" ">
<polygon fill="white" stroke="#666666" points="349,-165 209,-165 209,-135 349,-135 349,-165"/>
<text text-anchor="start" x="217" y="-153" font-family="Helvetica,sans-Serif" font-size="10.00">com.fs.starfarer.api.graphics.</text>
<text text-anchor="middle" x="279" y="-142" font-family="Helvetica,sans-Serif" font-size="10.00">SpriteAPI</text>
</a>
</g>
</g>
<!-- Node2&#45;&gt;Node1 -->
<g id="edge1" class="edge">
<title>Node2&#45;&gt;Node1</title>
<path fill="none" stroke="#9a32cd" stroke-dasharray="5,2" d="M345.67,-131.46C385.51,-120.22 435.76,-106.04 473.41,-95.41"/>
<polygon fill="#9a32cd" stroke="#9a32cd" points="344.86,-128.06 336.19,-134.14 346.76,-134.79 344.86,-128.06"/>
<text text-anchor="middle" x="399" y="-148" font-family="Helvetica,sans-Serif" font-size="10.00"> glow</text>
<text text-anchor="middle" x="399" y="-137" font-family="Helvetica,sans-Serif" font-size="10.00">shadowMask</text>
<text text-anchor="middle" x="399" y="-126" font-family="Helvetica,sans-Serif" font-size="10.00">sprite</text>
</g>
<!-- Node3 -->
<g id="node3" class="node">
<title>Node3</title>
<g id="a_node3"><a xlink:href="../../d6/de1/interfacecom_1_1fs_1_1starfarer_1_1api_1_1campaign_1_1SectorEntityToken.html" target="_top" xlink:title=" ">
<polygon fill="white" stroke="#666666" points="352,-117 206,-117 206,-87 352,-87 352,-117"/>
<text text-anchor="start" x="214" y="-105" font-family="Helvetica,sans-Serif" font-size="10.00">com.fs.starfarer.api.campaign.</text>
<text text-anchor="middle" x="279" y="-94" font-family="Helvetica,sans-Serif" font-size="10.00">SectorEntityToken</text>
</a>
</g>
</g>
<!-- Node3&#45;&gt;Node1 -->
<g id="edge2" class="edge">
<title>Node3&#45;&gt;Node1</title>
<path fill="none" stroke="#9a32cd" stroke-dasharray="5,2" d="M363.59,-94.58C390.15,-92.23 419.48,-89.63 445.92,-87.28"/>
<polygon fill="#9a32cd" stroke="#9a32cd" points="363.56,-91.07 353.91,-95.44 364.18,-98.05 363.56,-91.07"/>
<text text-anchor="middle" x="399" y="-96" font-family="Helvetica,sans-Serif" font-size="10.00"> entity</text>
</g>
<!-- Node4 -->
<g id="node4" class="node">
<title>Node4</title>
<g id="a_node4"><a xlink:href="../../de/da5/interfacecom_1_1fs_1_1starfarer_1_1api_1_1campaign_1_1rules_1_1HasMemory.html" target="_top" xlink:title=" ">
<polygon fill="white" stroke="#666666" points="169,-117 0,-117 0,-87 169,-87 169,-117"/>
<text text-anchor="start" x="8" y="-105" font-family="Helvetica,sans-Serif" font-size="10.00">com.fs.starfarer.api.campaign.rules.</text>
<text text-anchor="middle" x="84.5" y="-94" font-family="Helvetica,sans-Serif" font-size="10.00">HasMemory</text>
</a>
</g>
</g>
<!-- Node4&#45;&gt;Node3 -->
<g id="edge3" class="edge">
<title>Node4&#45;&gt;Node3</title>
<path fill="none" stroke="#63b8ff" d="M180.73,-102C189.08,-102 197.44,-102 205.56,-102"/>
<polygon fill="#63b8ff" stroke="#63b8ff" points="180.89,-98.5 170.89,-102 180.89,-105.5 180.89,-98.5"/>
</g>
<!-- Node5 -->
<g id="node5" class="node">
<title>Node5</title>
<g id="a_node5"><a xlink:title=" ">
<polygon fill="white" stroke="#666666" points="305.5,-67.5 252.5,-67.5 252.5,-48.5 305.5,-48.5 305.5,-67.5"/>
<text text-anchor="middle" x="279" y="-55.5" font-family="Helvetica,sans-Serif" font-size="10.00">Vector2f</text>
</a>
</g>
</g>
<!-- Node5&#45;&gt;Node1 -->
<g id="edge4" class="edge">
<title>Node5&#45;&gt;Node1</title>
<path fill="none" stroke="#9a32cd" stroke-dasharray="5,2" d="M316.93,-57.87C346.93,-58.1 390.29,-59.18 428,-63 433.78,-63.59 439.73,-64.3 445.72,-65.11"/>
<polygon fill="#9a32cd" stroke="#9a32cd" points="317.27,-54.37 307.25,-57.83 317.24,-61.37 317.27,-54.37"/>
<text text-anchor="middle" x="399" y="-77" font-family="Helvetica,sans-Serif" font-size="10.00"> loc</text>
<text text-anchor="middle" x="399" y="-66" font-family="Helvetica,sans-Serif" font-size="10.00">vel</text>
</g>
<!-- Node6 -->
<g id="node6" class="node">
<title>Node6</title>
<g id="a_node6"><a xlink:href="../../d4/d3e/classcom_1_1fs_1_1starfarer_1_1api_1_1util_1_1FaderUtil.html" target="_top" xlink:title=" ">
<polygon fill="white" stroke="#666666" points="337,-30 221,-30 221,0 337,0 337,-30"/>
<text text-anchor="start" x="229" y="-18" font-family="Helvetica,sans-Serif" font-size="10.00">com.fs.starfarer.api.util.</text>
<text text-anchor="middle" x="279" y="-7" font-family="Helvetica,sans-Serif" font-size="10.00">FaderUtil</text>
</a>
</g>
</g>
<!-- Node6&#45;&gt;Node1 -->
<g id="edge5" class="edge">
<title>Node6&#45;&gt;Node1</title>
<path fill="none" stroke="#9a32cd" stroke-dasharray="5,2" d="M348.69,-26.21C373.84,-30.9 402.39,-36.93 428,-44 448.63,-49.7 471.1,-57.63 489.5,-64.59"/>
<polygon fill="#9a32cd" stroke="#9a32cd" points="349.35,-22.78 338.89,-24.42 348.1,-29.66 349.35,-22.78"/>
<text text-anchor="middle" x="399" y="-47" font-family="Helvetica,sans-Serif" font-size="10.00"> fader</text>
</g>
</g>
</svg>
