<?xml version="1.0" encoding="UTF-8" standalone="no"?>
<!DOCTYPE svg PUBLIC "-//W3C//DTD SVG 1.1//EN"
 "http://www.w3.org/Graphics/SVG/1.1/DTD/svg11.dtd">
<!-- Generated by graphviz version 2.44.0 ()
 -->
<!-- Title: com.fs.starfarer.api.impl.campaign.GenericFieldItemSprite Pages: 1 -->
<svg width="537pt" height="584pt"
 viewBox="0.00 0.00 536.50 584.00" xmlns="http://www.w3.org/2000/svg" xmlns:xlink="http://www.w3.org/1999/xlink">
<g id="graph0" class="graph" transform="scale(1 1) rotate(0) translate(4 580)">
<title>com.fs.starfarer.api.impl.campaign.GenericFieldItemSprite</title>
<!-- Node1 -->
<g id="node1" class="node">
<title>Node1</title>
<g id="a_node1"><a xlink:title=" ">
<polygon fill="#bfbfbf" stroke="black" points="233.5,-0.5 233.5,-145.5 399.5,-145.5 399.5,-0.5 233.5,-0.5"/>
<text text-anchor="start" x="241.5" y="-133.5" font-family="Helvetica,sans-Serif" font-size="10.00">com.fs.starfarer.api.impl.campaign.</text>
<text text-anchor="middle" x="316.5" y="-122.5" font-family="Helvetica,sans-Serif" font-size="10.00">GenericFieldItemSprite</text>
<polyline fill="none" stroke="black" points="233.5,-115.5 399.5,-115.5 "/>
<text text-anchor="start" x="241.5" y="-103.5" font-family="Helvetica,sans-Serif" font-size="10.00"># width</text>
<text text-anchor="start" x="241.5" y="-92.5" font-family="Helvetica,sans-Serif" font-size="10.00"># height</text>
<text text-anchor="start" x="241.5" y="-81.5" font-family="Helvetica,sans-Serif" font-size="10.00"># timeLeft</text>
<text text-anchor="start" x="241.5" y="-70.5" font-family="Helvetica,sans-Serif" font-size="10.00"># facing</text>
<text text-anchor="start" x="241.5" y="-59.5" font-family="Helvetica,sans-Serif" font-size="10.00"># angVel</text>
<polyline fill="none" stroke="black" points="233.5,-52.5 399.5,-52.5 "/>
<text text-anchor="start" x="241.5" y="-40.5" font-family="Helvetica,sans-Serif" font-size="10.00">+ GenericFieldItemSprite()</text>
<text text-anchor="start" x="241.5" y="-29.5" font-family="Helvetica,sans-Serif" font-size="10.00">+ render()</text>
<text text-anchor="start" x="241.5" y="-18.5" font-family="Helvetica,sans-Serif" font-size="10.00">+ advance()</text>
<text text-anchor="start" x="241.5" y="-7.5" font-family="Helvetica,sans-Serif" font-size="10.00">+ isDone()</text>
</a>
</g>
</g>
<!-- Node2 -->
<g id="node2" class="node">
<title>Node2</title>
<g id="a_node2"><a xlink:href="../../d6/de1/interfacecom_1_1fs_1_1starfarer_1_1api_1_1campaign_1_1SectorEntityToken.html" target="_top" xlink:title=" ">
<polygon fill="none" stroke="black" points="14.5,-237.5 14.5,-415.5 160.5,-415.5 160.5,-237.5 14.5,-237.5"/>
<text text-anchor="start" x="22.5" y="-403.5" font-family="Helvetica,sans-Serif" font-size="10.00">com.fs.starfarer.api.campaign.</text>
<text text-anchor="middle" x="87.5" y="-392.5" font-family="Helvetica,sans-Serif" font-size="10.00">SectorEntityToken</text>
<polyline fill="none" stroke="black" points="14.5,-385.5 160.5,-385.5 "/>
<text text-anchor="middle" x="87.5" y="-373.5" font-family="Helvetica,sans-Serif" font-size="10.00"> </text>
<polyline fill="none" stroke="black" points="14.5,-366.5 160.5,-366.5 "/>
<text text-anchor="start" x="22.5" y="-354.5" font-family="Helvetica,sans-Serif" font-size="10.00">+ isPlayerFleet()</text>
<text text-anchor="start" x="22.5" y="-343.5" font-family="Helvetica,sans-Serif" font-size="10.00">+ getMarket()</text>
<text text-anchor="start" x="22.5" y="-332.5" font-family="Helvetica,sans-Serif" font-size="10.00">+ setMarket()</text>
<text text-anchor="start" x="22.5" y="-321.5" font-family="Helvetica,sans-Serif" font-size="10.00">+ getCargo()</text>
<text text-anchor="start" x="22.5" y="-310.5" font-family="Helvetica,sans-Serif" font-size="10.00">+ getLocation()</text>
<text text-anchor="start" x="22.5" y="-299.5" font-family="Helvetica,sans-Serif" font-size="10.00">+ getLocationInHyperspace()</text>
<text text-anchor="start" x="22.5" y="-288.5" font-family="Helvetica,sans-Serif" font-size="10.00">+ getOrbit()</text>
<text text-anchor="start" x="22.5" y="-277.5" font-family="Helvetica,sans-Serif" font-size="10.00">+ setOrbit()</text>
<text text-anchor="start" x="22.5" y="-266.5" font-family="Helvetica,sans-Serif" font-size="10.00">+ getId()</text>
<text text-anchor="start" x="22.5" y="-255.5" font-family="Helvetica,sans-Serif" font-size="10.00">+ getName()</text>
<text text-anchor="start" x="22.5" y="-244.5" font-family="Helvetica,sans-Serif" font-size="10.00">and 115 more...</text>
</a>
</g>
</g>
<!-- Node2&#45;&gt;Node1 -->
<g id="edge1" class="edge">
<title>Node2&#45;&gt;Node1</title>
<path fill="none" stroke="#404040" d="M155.4,-237.24C161.74,-229.62 168.16,-222.11 174.5,-215 192.62,-194.67 212.96,-173.56 232.46,-154.07"/>
<polygon fill="none" stroke="#404040" points="232.54,-153.99 233.98,-146.92 241.05,-145.53 239.62,-152.59 232.54,-153.99"/>
<text text-anchor="middle" x="236" y="-178" font-family="Helvetica,sans-Serif" font-size="10.00"> #entity</text>
</g>
<!-- Node3 -->
<g id="node3" class="node">
<title>Node3</title>
<g id="a_node3"><a xlink:href="../../de/da5/interfacecom_1_1fs_1_1starfarer_1_1api_1_1campaign_1_1rules_1_1HasMemory.html" target="_top" xlink:title=" ">
<polygon fill="none" stroke="black" points="0,-491 0,-570 169,-570 169,-491 0,-491"/>
<text text-anchor="start" x="8" y="-558" font-family="Helvetica,sans-Serif" font-size="10.00">com.fs.starfarer.api.campaign.rules.</text>
<text text-anchor="middle" x="84.5" y="-547" font-family="Helvetica,sans-Serif" font-size="10.00">HasMemory</text>
<polyline fill="none" stroke="black" points="0,-540 169,-540 "/>
<text text-anchor="middle" x="84.5" y="-528" font-family="Helvetica,sans-Serif" font-size="10.00"> </text>
<polyline fill="none" stroke="black" points="0,-521 169,-521 "/>
<text text-anchor="start" x="8" y="-509" font-family="Helvetica,sans-Serif" font-size="10.00">+ getMemory()</text>
<text text-anchor="start" x="8" y="-498" font-family="Helvetica,sans-Serif" font-size="10.00">+ getMemoryWithoutUpdate()</text>
</a>
</g>
</g>
<!-- Node3&#45;&gt;Node2 -->
<g id="edge2" class="edge">
<title>Node3&#45;&gt;Node2</title>
<path fill="none" stroke="midnightblue" d="M85.23,-480.41C85.52,-460.92 85.86,-437.89 86.19,-415.7"/>
<polygon fill="none" stroke="midnightblue" points="81.73,-480.5 85.08,-490.55 88.73,-480.61 81.73,-480.5"/>
</g>
<!-- Node4 -->
<g id="node4" class="node">
<title>Node4</title>
<g id="a_node4"><a xlink:href="../../d4/d3e/classcom_1_1fs_1_1starfarer_1_1api_1_1util_1_1FaderUtil.html" target="_top" xlink:title=" ">
<polygon fill="none" stroke="black" points="183.5,-215.5 183.5,-437.5 299.5,-437.5 299.5,-215.5 183.5,-215.5"/>
<text text-anchor="start" x="191.5" y="-425.5" font-family="Helvetica,sans-Serif" font-size="10.00">com.fs.starfarer.api.util.</text>
<text text-anchor="middle" x="241.5" y="-414.5" font-family="Helvetica,sans-Serif" font-size="10.00">FaderUtil</text>
<polyline fill="none" stroke="black" points="183.5,-407.5 299.5,-407.5 "/>
<text text-anchor="start" x="191.5" y="-395.5" font-family="Helvetica,sans-Serif" font-size="10.00">~ durationOut</text>
<text text-anchor="start" x="191.5" y="-384.5" font-family="Helvetica,sans-Serif" font-size="10.00">&#45; currBrightness</text>
<text text-anchor="start" x="191.5" y="-373.5" font-family="Helvetica,sans-Serif" font-size="10.00">&#45; durationIn</text>
<text text-anchor="start" x="191.5" y="-362.5" font-family="Helvetica,sans-Serif" font-size="10.00">&#45; bounceDown</text>
<text text-anchor="start" x="191.5" y="-351.5" font-family="Helvetica,sans-Serif" font-size="10.00">&#45; bounceUp</text>
<polyline fill="none" stroke="black" points="183.5,-344.5 299.5,-344.5 "/>
<text text-anchor="start" x="191.5" y="-332.5" font-family="Helvetica,sans-Serif" font-size="10.00">+ FaderUtil()</text>
<text text-anchor="start" x="191.5" y="-321.5" font-family="Helvetica,sans-Serif" font-size="10.00">+ FaderUtil()</text>
<text text-anchor="start" x="191.5" y="-310.5" font-family="Helvetica,sans-Serif" font-size="10.00">+ FaderUtil()</text>
<text text-anchor="start" x="191.5" y="-299.5" font-family="Helvetica,sans-Serif" font-size="10.00">+ getState()</text>
<text text-anchor="start" x="191.5" y="-288.5" font-family="Helvetica,sans-Serif" font-size="10.00">+ setState()</text>
<text text-anchor="start" x="191.5" y="-277.5" font-family="Helvetica,sans-Serif" font-size="10.00">+ setBounceDown()</text>
<text text-anchor="start" x="191.5" y="-266.5" font-family="Helvetica,sans-Serif" font-size="10.00">+ setBounceUp()</text>
<text text-anchor="start" x="191.5" y="-255.5" font-family="Helvetica,sans-Serif" font-size="10.00">+ setBounce()</text>
<text text-anchor="start" x="191.5" y="-244.5" font-family="Helvetica,sans-Serif" font-size="10.00">+ forceIn()</text>
<text text-anchor="start" x="191.5" y="-233.5" font-family="Helvetica,sans-Serif" font-size="10.00">+ forceOut()</text>
<text text-anchor="start" x="191.5" y="-222.5" font-family="Helvetica,sans-Serif" font-size="10.00">and 18 more...</text>
</a>
</g>
</g>
<!-- Node4&#45;&gt;Node1 -->
<g id="edge3" class="edge">
<title>Node4&#45;&gt;Node1</title>
<path fill="none" stroke="#404040" d="M274.4,-215.19C280.2,-195.72 286.16,-175.74 291.7,-157.17"/>
<polygon fill="none" stroke="#404040" points="291.75,-157 289.63,-150.11 295.18,-145.5 297.3,-152.4 291.75,-157"/>
<text text-anchor="middle" x="303.5" y="-178" font-family="Helvetica,sans-Serif" font-size="10.00"> #fader</text>
</g>
<!-- Node5 -->
<g id="node5" class="node">
<title>Node5</title>
<g id="a_node5"><a xlink:href="../../df/dae/enumcom_1_1fs_1_1starfarer_1_1api_1_1util_1_1FaderUtil_1_1State.html" target="_top" xlink:title=" ">
<polygon fill="none" stroke="black" points="186.5,-485.5 186.5,-575.5 302.5,-575.5 302.5,-485.5 186.5,-485.5"/>
<text text-anchor="start" x="194.5" y="-563.5" font-family="Helvetica,sans-Serif" font-size="10.00">com.fs.starfarer.api.util.</text>
<text text-anchor="middle" x="244.5" y="-552.5" font-family="Helvetica,sans-Serif" font-size="10.00">FaderUtil.State</text>
<polyline fill="none" stroke="black" points="186.5,-545.5 302.5,-545.5 "/>
<text text-anchor="start" x="194.5" y="-533.5" font-family="Helvetica,sans-Serif" font-size="10.00">+ IN</text>
<text text-anchor="start" x="194.5" y="-522.5" font-family="Helvetica,sans-Serif" font-size="10.00">+ OUT</text>
<text text-anchor="start" x="194.5" y="-511.5" font-family="Helvetica,sans-Serif" font-size="10.00">+ IDLE</text>
<polyline fill="none" stroke="black" points="186.5,-504.5 302.5,-504.5 "/>
<text text-anchor="middle" x="244.5" y="-492.5" font-family="Helvetica,sans-Serif" font-size="10.00"> </text>
</a>
</g>
</g>
<!-- Node5&#45;&gt;Node4 -->
<g id="edge4" class="edge">
<title>Node5&#45;&gt;Node4</title>
<path fill="none" stroke="#404040" d="M243.84,-485.17C243.68,-474.35 243.5,-462.24 243.31,-449.67"/>
<polygon fill="none" stroke="#404040" points="243.31,-449.5 239.22,-443.56 243.13,-437.51 247.22,-443.45 243.31,-449.5"/>
<text text-anchor="middle" x="258.5" y="-459" font-family="Helvetica,sans-Serif" font-size="10.00"> &#45;state</text>
</g>
<!-- Node6 -->
<g id="node6" class="node">
<title>Node6</title>
<g id="a_node6"><a xlink:title=" ">
<polygon fill="none" stroke="#bfbfbf" points="317,-298 317,-355 370,-355 370,-298 317,-298"/>
<text text-anchor="middle" x="343.5" y="-343" font-family="Helvetica,sans-Serif" font-size="10.00">Vector2f</text>
<polyline fill="none" stroke="#bfbfbf" points="317,-336 370,-336 "/>
<text text-anchor="middle" x="343.5" y="-324" font-family="Helvetica,sans-Serif" font-size="10.00"> </text>
<polyline fill="none" stroke="#bfbfbf" points="317,-317 370,-317 "/>
<text text-anchor="middle" x="343.5" y="-305" font-family="Helvetica,sans-Serif" font-size="10.00"> </text>
</a>
</g>
</g>
<!-- Node6&#45;&gt;Node1 -->
<g id="edge5" class="edge">
<title>Node6&#45;&gt;Node1</title>
<path fill="none" stroke="#404040" d="M340.51,-297.62C336.91,-264.08 330.69,-206.22 325.49,-157.76"/>
<polygon fill="none" stroke="#404040" points="325.47,-157.6 320.86,-152.06 324.19,-145.67 328.81,-151.2 325.47,-157.6"/>
<text text-anchor="middle" x="339" y="-183.5" font-family="Helvetica,sans-Serif" font-size="10.00"> #loc</text>
<text text-anchor="middle" x="339" y="-172.5" font-family="Helvetica,sans-Serif" font-size="10.00">#vel</text>
</g>
<!-- Node7 -->
<g id="node7" class="node">
<title>Node7</title>
<g id="a_node7"><a xlink:href="../../db/d53/interfacecom_1_1fs_1_1starfarer_1_1api_1_1graphics_1_1SpriteAPI.html" target="_top" xlink:title=" ">
<polygon fill="none" stroke="black" points="388.5,-237.5 388.5,-415.5 528.5,-415.5 528.5,-237.5 388.5,-237.5"/>
<text text-anchor="start" x="396.5" y="-403.5" font-family="Helvetica,sans-Serif" font-size="10.00">com.fs.starfarer.api.graphics.</text>
<text text-anchor="middle" x="458.5" y="-392.5" font-family="Helvetica,sans-Serif" font-size="10.00">SpriteAPI</text>
<polyline fill="none" stroke="black" points="388.5,-385.5 528.5,-385.5 "/>
<text text-anchor="middle" x="458.5" y="-373.5" font-family="Helvetica,sans-Serif" font-size="10.00"> </text>
<polyline fill="none" stroke="black" points="388.5,-366.5 528.5,-366.5 "/>
<text text-anchor="start" x="396.5" y="-354.5" font-family="Helvetica,sans-Serif" font-size="10.00">+ setBlendFunc()</text>
<text text-anchor="start" x="396.5" y="-343.5" font-family="Helvetica,sans-Serif" font-size="10.00">+ setNormalBlend()</text>
<text text-anchor="start" x="396.5" y="-332.5" font-family="Helvetica,sans-Serif" font-size="10.00">+ setAdditiveBlend()</text>
<text text-anchor="start" x="396.5" y="-321.5" font-family="Helvetica,sans-Serif" font-size="10.00">+ setCenter()</text>
<text text-anchor="start" x="396.5" y="-310.5" font-family="Helvetica,sans-Serif" font-size="10.00">+ setSize()</text>
<text text-anchor="start" x="396.5" y="-299.5" font-family="Helvetica,sans-Serif" font-size="10.00">+ getAngle()</text>
<text text-anchor="start" x="396.5" y="-288.5" font-family="Helvetica,sans-Serif" font-size="10.00">+ setAngle()</text>
<text text-anchor="start" x="396.5" y="-277.5" font-family="Helvetica,sans-Serif" font-size="10.00">+ getColor()</text>
<text text-anchor="start" x="396.5" y="-266.5" font-family="Helvetica,sans-Serif" font-size="10.00">+ setColor()</text>
<text text-anchor="start" x="396.5" y="-255.5" font-family="Helvetica,sans-Serif" font-size="10.00">+ setHeight()</text>
<text text-anchor="start" x="396.5" y="-244.5" font-family="Helvetica,sans-Serif" font-size="10.00">and 24 more...</text>
</a>
</g>
</g>
<!-- Node7&#45;&gt;Node1 -->
<g id="edge6" class="edge">
<title>Node7&#45;&gt;Node1</title>
<path fill="none" stroke="#404040" d="M408.64,-237.18C393.75,-210.81 377.49,-182.02 362.84,-156.07"/>
<polygon fill="none" stroke="#404040" points="362.78,-155.96 356.35,-152.71 356.88,-145.52 363.31,-148.77 362.78,-155.96"/>
<text text-anchor="middle" x="414.5" y="-189" font-family="Helvetica,sans-Serif" font-size="10.00"> #glow</text>
<text text-anchor="middle" x="414.5" y="-178" font-family="Helvetica,sans-Serif" font-size="10.00">#shadowMask</text>
<text text-anchor="middle" x="414.5" y="-167" font-family="Helvetica,sans-Serif" font-size="10.00">#sprite</text>
</g>
</g>
</svg>
