<?xml version="1.0" encoding="UTF-8" standalone="no"?>
<!DOCTYPE svg PUBLIC "-//W3C//DTD SVG 1.1//EN"
 "http://www.w3.org/Graphics/SVG/1.1/DTD/svg11.dtd">
<!-- Generated by graphviz version 2.44.0 ()
 -->
<!-- Title: com.fs.starfarer.api.util.Misc Pages: 1 -->
<!--zoomable 699 -->
<svg id="main" version="1.1" xmlns="http://www.w3.org/2000/svg" xmlns:xlink="http://www.w3.org/1999/xlink" xml:space="preserve" onload="init(evt)">
<style type="text/css"><![CDATA[
.edge:hover path { stroke: red; }
.edge:hover polygon { stroke: red; fill: red; }
]]></style>
<script type="text/javascript"><![CDATA[
var edges = document.getElementsByTagName('g');
if (edges && edges.length) {
  for (var i=0;i<edges.length;i++) {
    if (edges[i].id.substr(0,4)=='edge') {
      edges[i].setAttribute('class','edge');
    }
  }
}
]]></script>
        <defs>
                <circle id="rim" cx="0" cy="0" r="7"/>
                <circle id="rim2" cx="0" cy="0" r="3.5"/>
                <g id="zoomPlus">
                        <use xlink:href="#rim" fill="#404040">
                                <set attributeName="fill" to="#808080" begin="zoomplus.mouseover" end="zoomplus.mouseout"/>
                        </use>
                        <path d="M-4,0h8M0,-4v8" fill="none" stroke="white" stroke-width="1.5" pointer-events="none"/>
                </g>
                <g id="zoomMin">
                        <use xlink:href="#rim" fill="#404040">
                                <set attributeName="fill" to="#808080" begin="zoomminus.mouseover" end="zoomminus.mouseout"/>
                        </use>
                        <path d="M-4,0h8" fill="none" stroke="white" stroke-width="1.5" pointer-events="none"/>
                </g>
                <g id="dirArrow">
                        <path fill="none" stroke="white" stroke-width="1.5" d="M0,-3.0v7 M-2.5,-0.5L0,-3.0L2.5,-0.5"/>
                </g>
               <g id="resetDef">
                       <use xlink:href="#rim2" fill="#404040">
                               <set attributeName="fill" to="#808080" begin="reset.mouseover" end="reset.mouseout"/>
                       </use>
               </g>
        </defs>

<script type="text/javascript">
var viewWidth = 954;
var viewHeight = 699;
var sectionId = 'dynsection-0';
</script>
<script xlink:href="../../svgpan.js"/>
<svg id="graph" class="graph">
<g id="viewport">
<title>com.fs.starfarer.api.util.Misc</title>
<!-- Node1 -->
<g id="node1" class="node">
<title>Node1</title>
<g id="a_node1"><a xlink:title=" ">
<polygon fill="#bfbfbf" stroke="black" points="408.5,-0.5 408.5,-365.5 566.5,-365.5 566.5,-0.5 408.5,-0.5"/>
<text text-anchor="middle" x="487.5" y="-353.5" font-family="Helvetica,sans-Serif" font-size="10.00">com.fs.starfarer.api.util.Misc</text>
<polyline fill="none" stroke="black" points="408.5,-346.5 566.5,-346.5 "/>
<text text-anchor="start" x="416.5" y="-334.5" font-family="Helvetica,sans-Serif" font-size="10.00">+ MOUNT_UNIVERSAL</text>
<text text-anchor="start" x="416.5" y="-323.5" font-family="Helvetica,sans-Serif" font-size="10.00">+ OWNER_NEUTRAL</text>
<text text-anchor="start" x="416.5" y="-312.5" font-family="Helvetica,sans-Serif" font-size="10.00">+ OWNER_PLAYER</text>
<text text-anchor="start" x="416.5" y="-301.5" font-family="Helvetica,sans-Serif" font-size="10.00">+ GATE_FUEL_COST_MULT</text>
<text text-anchor="start" x="416.5" y="-290.5" font-family="Helvetica,sans-Serif" font-size="10.00">+ MAX_COLONY_SIZE</text>
<text text-anchor="start" x="416.5" y="-279.5" font-family="Helvetica,sans-Serif" font-size="10.00">+ OVER_MAX_INDUSTRIES</text>
<text text-anchor="start" x="416.5" y="-268.5" font-family="Helvetica,sans-Serif" font-size="10.00">_PENALTY</text>
<text text-anchor="start" x="416.5" y="-257.5" font-family="Helvetica,sans-Serif" font-size="10.00">+ FP_TO_BOMBARD_COST</text>
<text text-anchor="start" x="416.5" y="-246.5" font-family="Helvetica,sans-Serif" font-size="10.00">_APPROX_MULT</text>
<text text-anchor="start" x="416.5" y="-235.5" font-family="Helvetica,sans-Serif" font-size="10.00">+ FP_TO_GROUND_RAID_STR</text>
<text text-anchor="start" x="416.5" y="-224.5" font-family="Helvetica,sans-Serif" font-size="10.00">_APPROX_MULT</text>
<text text-anchor="start" x="416.5" y="-213.5" font-family="Helvetica,sans-Serif" font-size="10.00">+ UNKNOWN</text>
<text text-anchor="start" x="416.5" y="-202.5" font-family="Helvetica,sans-Serif" font-size="10.00">+ UNSURVEYED</text>
<text text-anchor="start" x="416.5" y="-191.5" font-family="Helvetica,sans-Serif" font-size="10.00">and 24 more...</text>
<text text-anchor="start" x="416.5" y="-180.5" font-family="Helvetica,sans-Serif" font-size="10.00"># canCheckVramNVIDIA</text>
<text text-anchor="start" x="416.5" y="-169.5" font-family="Helvetica,sans-Serif" font-size="10.00">&#45; cbMode</text>
<polyline fill="none" stroke="black" points="408.5,-162.5 566.5,-162.5 "/>
<text text-anchor="start" x="416.5" y="-150.5" font-family="Helvetica,sans-Serif" font-size="10.00">+ tokenize()</text>
<text text-anchor="start" x="416.5" y="-139.5" font-family="Helvetica,sans-Serif" font-size="10.00">+ ucFirst()</text>
<text text-anchor="start" x="416.5" y="-128.5" font-family="Helvetica,sans-Serif" font-size="10.00">+ lcFirst()</text>
<text text-anchor="start" x="416.5" y="-117.5" font-family="Helvetica,sans-Serif" font-size="10.00">+ replaceTokensFromMemory()</text>
<text text-anchor="start" x="416.5" y="-106.5" font-family="Helvetica,sans-Serif" font-size="10.00">+ getDistance()</text>
<text text-anchor="start" x="416.5" y="-95.5" font-family="Helvetica,sans-Serif" font-size="10.00">+ getDistanceLY()</text>
<text text-anchor="start" x="416.5" y="-84.5" font-family="Helvetica,sans-Serif" font-size="10.00">+ getDistance()</text>
<text text-anchor="start" x="416.5" y="-73.5" font-family="Helvetica,sans-Serif" font-size="10.00">+ getDistanceSq()</text>
<text text-anchor="start" x="416.5" y="-62.5" font-family="Helvetica,sans-Serif" font-size="10.00">+ getDistance()</text>
<text text-anchor="start" x="416.5" y="-51.5" font-family="Helvetica,sans-Serif" font-size="10.00">+ getDistanceToPlayerLY()</text>
<text text-anchor="start" x="416.5" y="-40.5" font-family="Helvetica,sans-Serif" font-size="10.00">and 439 more...</text>
<text text-anchor="start" x="416.5" y="-29.5" font-family="Helvetica,sans-Serif" font-size="10.00">&#45; isDigit()</text>
<text text-anchor="start" x="416.5" y="-18.5" font-family="Helvetica,sans-Serif" font-size="10.00">&#45; isOperatorChar()</text>
<text text-anchor="start" x="416.5" y="-7.5" font-family="Helvetica,sans-Serif" font-size="10.00">&#45; fill()</text>
</a>
</g>
</g>
<!-- Node2 -->
<g id="node2" class="node">
<title>Node2</title>
<g id="a_node2"><a xlink:title=" ">
<polygon fill="none" stroke="#bfbfbf" points="0,-600.5 0,-657.5 83,-657.5 83,-600.5 0,-600.5"/>
<text text-anchor="middle" x="41.5" y="-645.5" font-family="Helvetica,sans-Serif" font-size="10.00">DecimalFormat</text>
<polyline fill="none" stroke="#bfbfbf" points="0,-638.5 83,-638.5 "/>
<text text-anchor="middle" x="41.5" y="-626.5" font-family="Helvetica,sans-Serif" font-size="10.00"> </text>
<polyline fill="none" stroke="#bfbfbf" points="0,-619.5 83,-619.5 "/>
<text text-anchor="middle" x="41.5" y="-607.5" font-family="Helvetica,sans-Serif" font-size="10.00"> </text>
</a>
</g>
</g>
<!-- Node2&#45;&gt;Node1 -->
<g id="edge1" class="edge">
<title>Node2&#45;&gt;Node1</title>
<path fill="none" stroke="#404040" d="M43.54,-600.3C48.47,-551.43 64.93,-448.93 118.5,-384 191.14,-295.97 313.03,-240.79 396.71,-211.22"/>
<polygon fill="none" stroke="#404040" points="396.91,-211.14 401.27,-205.4 408.25,-207.21 403.89,-212.96 396.91,-211.14"/>
<text text-anchor="middle" x="136.5" y="-464" font-family="Helvetica,sans-Serif" font-size="10.00"> #format</text>
</g>
<!-- Node3 -->
<g id="node3" class="node">
<title>Node3</title>
<g id="a_node3"><a xlink:href="../../d6/d06/interfacecom_1_1fs_1_1starfarer_1_1api_1_1MusicPlayerPlugin.html" target="_top" xlink:title=" ">
<polygon fill="none" stroke="black" points="101.5,-567.5 101.5,-690.5 247.5,-690.5 247.5,-567.5 101.5,-567.5"/>
<text text-anchor="start" x="109.5" y="-678.5" font-family="Helvetica,sans-Serif" font-size="10.00">com.fs.starfarer.api.Music</text>
<text text-anchor="middle" x="174.5" y="-667.5" font-family="Helvetica,sans-Serif" font-size="10.00">PlayerPlugin</text>
<polyline fill="none" stroke="black" points="101.5,-660.5 247.5,-660.5 "/>
<text text-anchor="middle" x="174.5" y="-648.5" font-family="Helvetica,sans-Serif" font-size="10.00"> </text>
<polyline fill="none" stroke="black" points="101.5,-641.5 247.5,-641.5 "/>
<text text-anchor="start" x="109.5" y="-629.5" font-family="Helvetica,sans-Serif" font-size="10.00">+ getStateTokenForCampaign</text>
<text text-anchor="start" x="109.5" y="-618.5" font-family="Helvetica,sans-Serif" font-size="10.00">Location()</text>
<text text-anchor="start" x="109.5" y="-607.5" font-family="Helvetica,sans-Serif" font-size="10.00">+ getMusicSetIdForCampaign</text>
<text text-anchor="start" x="109.5" y="-596.5" font-family="Helvetica,sans-Serif" font-size="10.00">StateToken()</text>
<text text-anchor="start" x="109.5" y="-585.5" font-family="Helvetica,sans-Serif" font-size="10.00">+ getMusicSetIdForCombat()</text>
<text text-anchor="start" x="109.5" y="-574.5" font-family="Helvetica,sans-Serif" font-size="10.00">+ getMusicSetIdForTitle()</text>
</a>
</g>
</g>
<!-- Node3&#45;&gt;Node1 -->
<g id="edge2" class="edge">
<title>Node3&#45;&gt;Node1</title>
<path fill="none" stroke="#404040" d="M163.03,-567.4C156.39,-515.31 154.7,-439.96 186.5,-384 232.55,-302.97 326.51,-248.63 397.27,-217.3"/>
<polygon fill="none" stroke="#404040" points="397.41,-217.24 401.32,-211.18 408.42,-212.46 404.5,-218.52 397.41,-217.24"/>
<text text-anchor="middle" x="217.5" y="-464" font-family="Helvetica,sans-Serif" font-size="10.00"> +musicPlugin</text>
</g>
<!-- Node4 -->
<g id="node4" class="node">
<title>Node4</title>
<g id="a_node4"><a xlink:title=" ">
<polygon fill="none" stroke="#bfbfbf" points="266,-600.5 266,-657.5 305,-657.5 305,-600.5 266,-600.5"/>
<text text-anchor="middle" x="285.5" y="-645.5" font-family="Helvetica,sans-Serif" font-size="10.00">Color</text>
<polyline fill="none" stroke="#bfbfbf" points="266,-638.5 305,-638.5 "/>
<text text-anchor="middle" x="285.5" y="-626.5" font-family="Helvetica,sans-Serif" font-size="10.00"> </text>
<polyline fill="none" stroke="#bfbfbf" points="266,-619.5 305,-619.5 "/>
<text text-anchor="middle" x="285.5" y="-607.5" font-family="Helvetica,sans-Serif" font-size="10.00"> </text>
</a>
</g>
</g>
<!-- Node4&#45;&gt;Node1 -->
<g id="edge3" class="edge">
<title>Node4&#45;&gt;Node1</title>
<path fill="none" stroke="#404040" d="M275.68,-600.22C260.81,-553.37 237.55,-456.67 269.5,-384 296,-323.74 350.6,-273.68 398.54,-238.72"/>
<polygon fill="none" stroke="#404040" points="398.58,-238.7 401.13,-231.95 408.34,-231.71 405.78,-238.46 398.58,-238.7"/>
<text text-anchor="start" x="269.5" y="-541" font-family="Helvetica,sans-Serif" font-size="10.00"> +FLOATY_ARMOR_DAMAGE</text>
<text text-anchor="middle" x="337.5" y="-530" font-family="Helvetica,sans-Serif" font-size="10.00">_COLOR</text>
<text text-anchor="start" x="269.5" y="-519" font-family="Helvetica,sans-Serif" font-size="10.00">+FLOATY_EMP_DAMAGE</text>
<text text-anchor="middle" x="337.5" y="-508" font-family="Helvetica,sans-Serif" font-size="10.00">_COLOR</text>
<text text-anchor="start" x="269.5" y="-497" font-family="Helvetica,sans-Serif" font-size="10.00">+FLOATY_HULL_DAMAGE</text>
<text text-anchor="middle" x="337.5" y="-486" font-family="Helvetica,sans-Serif" font-size="10.00">_COLOR</text>
<text text-anchor="start" x="269.5" y="-475" font-family="Helvetica,sans-Serif" font-size="10.00">+FLOATY_SHIELD_DAMAGE</text>
<text text-anchor="middle" x="337.5" y="-464" font-family="Helvetica,sans-Serif" font-size="10.00">_COLOR</text>
<text text-anchor="middle" x="337.5" y="-453" font-family="Helvetica,sans-Serif" font-size="10.00">+MOUNT_BALLISTIC</text>
<text text-anchor="middle" x="337.5" y="-442" font-family="Helvetica,sans-Serif" font-size="10.00">+MOUNT_COMPOSITE</text>
<text text-anchor="middle" x="337.5" y="-431" font-family="Helvetica,sans-Serif" font-size="10.00">+MOUNT_ENERGY</text>
<text text-anchor="middle" x="337.5" y="-420" font-family="Helvetica,sans-Serif" font-size="10.00">+MOUNT_HYBRID</text>
<text text-anchor="middle" x="337.5" y="-409" font-family="Helvetica,sans-Serif" font-size="10.00">+MOUNT_MISSILE</text>
<text text-anchor="middle" x="337.5" y="-398" font-family="Helvetica,sans-Serif" font-size="10.00">+MOUNT_SYNERGY</text>
<text text-anchor="middle" x="337.5" y="-387" font-family="Helvetica,sans-Serif" font-size="10.00">...</text>
</g>
<!-- Node5 -->
<g id="node5" class="node">
<title>Node5</title>
<g id="a_node5"><a xlink:title=" ">
<polygon fill="none" stroke="#bfbfbf" points="368,-600.5 368,-657.5 421,-657.5 421,-600.5 368,-600.5"/>
<text text-anchor="middle" x="394.5" y="-645.5" font-family="Helvetica,sans-Serif" font-size="10.00">Vector3f</text>
<polyline fill="none" stroke="#bfbfbf" points="368,-638.5 421,-638.5 "/>
<text text-anchor="middle" x="394.5" y="-626.5" font-family="Helvetica,sans-Serif" font-size="10.00"> </text>
<polyline fill="none" stroke="#bfbfbf" points="368,-619.5 421,-619.5 "/>
<text text-anchor="middle" x="394.5" y="-607.5" font-family="Helvetica,sans-Serif" font-size="10.00"> </text>
</a>
</g>
</g>
<!-- Node5&#45;&gt;Node1 -->
<g id="edge4" class="edge">
<title>Node5&#45;&gt;Node1</title>
<path fill="none" stroke="#404040" d="M400.11,-600.27C403.08,-585.15 406.69,-566.08 409.5,-549 421.52,-475.94 417.54,-456.52 432.5,-384 432.95,-381.81 433.41,-379.62 433.88,-377.41"/>
<polygon fill="none" stroke="#404040" points="433.92,-377.24 431.3,-370.53 436.49,-365.52 439.11,-372.24 433.92,-377.24"/>
<text text-anchor="middle" x="449" y="-464" font-family="Helvetica,sans-Serif" font-size="10.00"> &#45;temp4</text>
</g>
<!-- Node6 -->
<g id="node6" class="node">
<title>Node6</title>
<g id="a_node6"><a xlink:title=" ">
<polygon fill="none" stroke="#bfbfbf" points="439,-600.5 439,-657.5 492,-657.5 492,-600.5 439,-600.5"/>
<text text-anchor="middle" x="465.5" y="-645.5" font-family="Helvetica,sans-Serif" font-size="10.00">Vector2f</text>
<polyline fill="none" stroke="#bfbfbf" points="439,-638.5 492,-638.5 "/>
<text text-anchor="middle" x="465.5" y="-626.5" font-family="Helvetica,sans-Serif" font-size="10.00"> </text>
<polyline fill="none" stroke="#bfbfbf" points="439,-619.5 492,-619.5 "/>
<text text-anchor="middle" x="465.5" y="-607.5" font-family="Helvetica,sans-Serif" font-size="10.00"> </text>
</a>
</g>
</g>
<!-- Node6&#45;&gt;Node1 -->
<g id="edge5" class="edge">
<title>Node6&#45;&gt;Node1</title>
<path fill="none" stroke="#404040" d="M466.88,-600.23C469.09,-555.49 473.64,-463.75 477.9,-377.76"/>
<polygon fill="none" stroke="#404040" points="477.9,-377.65 474.21,-371.46 478.5,-365.67 482.2,-371.86 477.9,-377.65"/>
<text text-anchor="middle" x="494" y="-469.5" font-family="Helvetica,sans-Serif" font-size="10.00"> +ZERO</text>
<text text-anchor="middle" x="494" y="-458.5" font-family="Helvetica,sans-Serif" font-size="10.00">&#45;temp3</text>
</g>
<!-- Node7 -->
<g id="node7" class="node">
<title>Node7</title>
<g id="a_node7"><a xlink:title=" ">
<polygon fill="none" stroke="#bfbfbf" points="510,-600.5 510,-657.5 623,-657.5 623,-600.5 510,-600.5"/>
<text text-anchor="middle" x="566.5" y="-645.5" font-family="Helvetica,sans-Serif" font-size="10.00">Map&lt; String, Integer &gt;</text>
<polyline fill="none" stroke="#bfbfbf" points="510,-638.5 623,-638.5 "/>
<text text-anchor="middle" x="566.5" y="-626.5" font-family="Helvetica,sans-Serif" font-size="10.00"> </text>
<polyline fill="none" stroke="#bfbfbf" points="510,-619.5 623,-619.5 "/>
<text text-anchor="middle" x="566.5" y="-607.5" font-family="Helvetica,sans-Serif" font-size="10.00"> </text>
</a>
</g>
</g>
<!-- Node7&#45;&gt;Node1 -->
<g id="edge6" class="edge">
<title>Node7&#45;&gt;Node1</title>
<path fill="none" stroke="#404040" d="M561.56,-600.23C553.59,-555.44 537.24,-463.56 521.93,-377.5"/>
<polygon fill="none" stroke="#404040" points="521.93,-377.48 516.94,-372.28 519.82,-365.67 524.81,-370.88 521.93,-377.48"/>
<text text-anchor="middle" x="595.5" y="-464" font-family="Helvetica,sans-Serif" font-size="10.00"> +variantToFPCache</text>
</g>
<!-- Node8 -->
<g id="node8" class="node">
<title>Node8</title>
<g id="a_node8"><a xlink:title=" ">
<polygon fill="none" stroke="#bfbfbf" points="641.5,-600.5 641.5,-657.5 749.5,-657.5 749.5,-600.5 641.5,-600.5"/>
<text text-anchor="middle" x="695.5" y="-645.5" font-family="Helvetica,sans-Serif" font-size="10.00">Map&lt; String, String &gt;</text>
<polyline fill="none" stroke="#bfbfbf" points="641.5,-638.5 749.5,-638.5 "/>
<text text-anchor="middle" x="695.5" y="-626.5" font-family="Helvetica,sans-Serif" font-size="10.00"> </text>
<polyline fill="none" stroke="#bfbfbf" points="641.5,-619.5 749.5,-619.5 "/>
<text text-anchor="middle" x="695.5" y="-607.5" font-family="Helvetica,sans-Serif" font-size="10.00"> </text>
</a>
</g>
</g>
<!-- Node8&#45;&gt;Node1 -->
<g id="edge7" class="edge">
<title>Node8&#45;&gt;Node1</title>
<path fill="none" stroke="#404040" d="M691.36,-600.41C682.79,-545.05 662.4,-422.45 644.5,-384 626.69,-345.76 600.3,-308.2 574.22,-276.14"/>
<polygon fill="none" stroke="#404040" points="574.15,-276.06 567.25,-273.98 566.51,-266.81 573.41,-268.88 574.15,-276.06"/>
<text text-anchor="middle" x="728.5" y="-464" font-family="Helvetica,sans-Serif" font-size="10.00"> +variantToHullCache</text>
</g>
<!-- Node9 -->
<g id="node9" class="node">
<title>Node9</title>
<g id="a_node9"><a xlink:title=" ">
<polygon fill="none" stroke="#bfbfbf" points="768,-600.5 768,-657.5 837,-657.5 837,-600.5 768,-600.5"/>
<text text-anchor="middle" x="802.5" y="-645.5" font-family="Helvetica,sans-Serif" font-size="10.00">AtomicLong</text>
<polyline fill="none" stroke="#bfbfbf" points="768,-638.5 837,-638.5 "/>
<text text-anchor="middle" x="802.5" y="-626.5" font-family="Helvetica,sans-Serif" font-size="10.00"> </text>
<polyline fill="none" stroke="#bfbfbf" points="768,-619.5 837,-619.5 "/>
<text text-anchor="middle" x="802.5" y="-607.5" font-family="Helvetica,sans-Serif" font-size="10.00"> </text>
</a>
</g>
</g>
<!-- Node9&#45;&gt;Node1 -->
<g id="edge8" class="edge">
<title>Node9&#45;&gt;Node1</title>
<path fill="none" stroke="#404040" d="M802.79,-600.42C802.91,-544.5 800.71,-420.02 779.5,-384 734.02,-306.76 645.56,-252.6 577.86,-220.31"/>
<polygon fill="none" stroke="#404040" points="577.63,-220.2 570.5,-221.28 566.76,-215.12 573.89,-214.03 577.63,-220.2"/>
<text text-anchor="middle" x="835" y="-464" font-family="Helvetica,sans-Serif" font-size="10.00"> &#45;seedUniquifier</text>
</g>
<!-- Node10 -->
<g id="node10" class="node">
<title>Node10</title>
<g id="a_node10"><a xlink:title=" ">
<polygon fill="none" stroke="#bfbfbf" points="866,-600.5 866,-657.5 919,-657.5 919,-600.5 866,-600.5"/>
<text text-anchor="middle" x="892.5" y="-645.5" font-family="Helvetica,sans-Serif" font-size="10.00">Random</text>
<polyline fill="none" stroke="#bfbfbf" points="866,-638.5 919,-638.5 "/>
<text text-anchor="middle" x="892.5" y="-626.5" font-family="Helvetica,sans-Serif" font-size="10.00"> </text>
<polyline fill="none" stroke="#bfbfbf" points="866,-619.5 919,-619.5 "/>
<text text-anchor="middle" x="892.5" y="-607.5" font-family="Helvetica,sans-Serif" font-size="10.00"> </text>
</a>
</g>
</g>
<!-- Node10&#45;&gt;Node1 -->
<g id="edge9" class="edge">
<title>Node10&#45;&gt;Node1</title>
<path fill="none" stroke="#404040" d="M897.95,-600.34C905.89,-551.96 915.21,-450.81 870.5,-384 803.16,-283.36 668.46,-230.12 578.12,-204.52"/>
<polygon fill="none" stroke="#404040" points="578.08,-204.5 571.23,-206.76 566.51,-201.31 573.36,-199.05 578.08,-204.5"/>
<text text-anchor="middle" x="925" y="-464" font-family="Helvetica,sans-Serif" font-size="10.00"> +random</text>
</g>
</g>
</svg>
        <g id="navigator" transform="translate(0 0)" fill="#404254">
                <rect fill="#f2f5e9" fill-opacity="0.5" stroke="#606060" stroke-width=".5" x="0" y="0" width="60" height="60"/>
                <use id="zoomplus" xlink:href="#zoomPlus" x="17" y="9" onmousedown="handleZoom(evt,'in')"/>
                <use id="zoomminus" xlink:href="#zoomMin" x="42" y="9" onmousedown="handleZoom(evt,'out')"/>
                <use id="reset" xlink:href="#resetDef" x="30" y="36" onmousedown="handleReset()"/>
                <g id="arrowUp" xlink:href="#dirArrow" transform="translate(30 24)" onmousedown="handlePan(0,-1)">
                  <use xlink:href="#rim" fill="#404040">
                        <set attributeName="fill" to="#808080" begin="arrowUp.mouseover" end="arrowUp.mouseout"/>
                  </use>
                  <path fill="none" stroke="white" stroke-width="1.5" d="M0,-3.0v7 M-2.5,-0.5L0,-3.0L2.5,-0.5"/>
                </g>
                <g id="arrowRight" xlink:href="#dirArrow" transform="rotate(90) translate(36 -43)" onmousedown="handlePan(1,0)">
                  <use xlink:href="#rim" fill="#404040">
                        <set attributeName="fill" to="#808080" begin="arrowRight.mouseover" end="arrowRight.mouseout"/>
                  </use>
                  <path fill="none" stroke="white" stroke-width="1.5" d="M0,-3.0v7 M-2.5,-0.5L0,-3.0L2.5,-0.5"/>
                </g>
                <g id="arrowDown" xlink:href="#dirArrow" transform="rotate(180) translate(-30 -48)" onmousedown="handlePan(0,1)">
                  <use xlink:href="#rim" fill="#404040">
                        <set attributeName="fill" to="#808080" begin="arrowDown.mouseover" end="arrowDown.mouseout"/>
                  </use>
                  <path fill="none" stroke="white" stroke-width="1.5" d="M0,-3.0v7 M-2.5,-0.5L0,-3.0L2.5,-0.5"/>
                </g>
                <g id="arrowLeft" xlink:href="#dirArrow" transform="rotate(270) translate(-36 17)" onmousedown="handlePan(-1,0)">
                  <use xlink:href="#rim" fill="#404040">
                        <set attributeName="fill" to="#808080" begin="arrowLeft.mouseover" end="arrowLeft.mouseout"/>
                  </use>
                  <path fill="none" stroke="white" stroke-width="1.5" d="M0,-3.0v7 M-2.5,-0.5L0,-3.0L2.5,-0.5"/>
                </g>
        </g>
        <svg viewBox="0 0 15 15" width="100%" height="30px" preserveAspectRatio="xMaxYMin meet">
         <g id="arrow_out" transform="scale(0.3 0.3)">
          <a xlink:href="classcom_1_1fs_1_1starfarer_1_1api_1_1util_1_1Misc__coll__graph_org.svg" target="_base">
           <rect id="button" ry="5" rx="5" y="6" x="6" height="38" width="38"
                fill="#f2f5e9" fill-opacity="0.5" stroke="#606060" stroke-width="1.0"/>
           <path id="arrow"
             d="M 11.500037,31.436501 C 11.940474,20.09759 22.043105,11.32322 32.158766,21.979434 L 37.068811,17.246167 C 37.068811,17.246167 37.088388,32 37.088388,32 L 22.160133,31.978069 C 22.160133,31.978069 26.997745,27.140456 26.997745,27.140456 C 18.528582,18.264221 13.291696,25.230495 11.500037,31.436501 z"
             style="fill:#404040;"/>
          </a>
         </g>
        </svg>
</svg>
