<?xml version="1.0" encoding="UTF-8" standalone="no"?>
<!DOCTYPE svg PUBLIC "-//W3C//DTD SVG 1.1//EN"
 "http://www.w3.org/Graphics/SVG/1.1/DTD/svg11.dtd">
<!-- Generated by graphviz version 2.44.0 ()
 -->
<!-- Title: com.fs.starfarer.api.impl.campaign.rulecmd.salvage.SalvageSpecialInteraction.SalvageSpecialDialogPlugin Pages: 1 -->
<svg width="822pt" height="391pt"
 viewBox="0.00 0.00 821.50 391.00" xmlns="http://www.w3.org/2000/svg" xmlns:xlink="http://www.w3.org/1999/xlink">
<g id="graph0" class="graph" transform="scale(1 1) rotate(0) translate(4 387)">
<title>com.fs.starfarer.api.impl.campaign.rulecmd.salvage.SalvageSpecialInteraction.SalvageSpecialDialogPlugin</title>
<!-- Node1 -->
<g id="node1" class="node">
<title>Node1</title>
<g id="a_node1"><a xlink:title=" ">
<polygon fill="#bfbfbf" stroke="black" points="151,-0.5 151,-156.5 405,-156.5 405,-0.5 151,-0.5"/>
<text text-anchor="start" x="159" y="-144.5" font-family="Helvetica,sans-Serif" font-size="10.00">com.fs.starfarer.api.impl.campaign.rulecmd.salvage.</text>
<text text-anchor="middle" x="278" y="-133.5" font-family="Helvetica,sans-Serif" font-size="10.00">SalvageSpecialInteraction.SalvageSpecialDialogPlugin</text>
<polyline fill="none" stroke="black" points="151,-126.5 405,-126.5 "/>
<text text-anchor="start" x="159" y="-114.5" font-family="Helvetica,sans-Serif" font-size="10.00">&#45; specialData</text>
<polyline fill="none" stroke="black" points="151,-107.5 405,-107.5 "/>
<text text-anchor="start" x="159" y="-95.5" font-family="Helvetica,sans-Serif" font-size="10.00">+ SalvageSpecialDialogPlugin()</text>
<text text-anchor="start" x="159" y="-84.5" font-family="Helvetica,sans-Serif" font-size="10.00">+ init()</text>
<text text-anchor="start" x="159" y="-73.5" font-family="Helvetica,sans-Serif" font-size="10.00">+ optionSelected()</text>
<text text-anchor="start" x="159" y="-62.5" font-family="Helvetica,sans-Serif" font-size="10.00">+ endSpecial()</text>
<text text-anchor="start" x="159" y="-51.5" font-family="Helvetica,sans-Serif" font-size="10.00">+ advance()</text>
<text text-anchor="start" x="159" y="-40.5" font-family="Helvetica,sans-Serif" font-size="10.00">+ backFromEngagement()</text>
<text text-anchor="start" x="159" y="-29.5" font-family="Helvetica,sans-Serif" font-size="10.00">+ getContext()</text>
<text text-anchor="start" x="159" y="-18.5" font-family="Helvetica,sans-Serif" font-size="10.00">+ getMemoryMap()</text>
<text text-anchor="start" x="159" y="-7.5" font-family="Helvetica,sans-Serif" font-size="10.00">+ optionMousedOver()</text>
</a>
</g>
</g>
<!-- Node2 -->
<g id="node2" class="node">
<title>Node2</title>
<g id="a_node2"><a xlink:href="../../d9/d56/interfacecom_1_1fs_1_1starfarer_1_1api_1_1campaign_1_1InteractionDialogPlugin.html" target="_top" xlink:title=" ">
<polygon fill="none" stroke="black" points="0,-226.5 0,-360.5 146,-360.5 146,-226.5 0,-226.5"/>
<text text-anchor="start" x="8" y="-348.5" font-family="Helvetica,sans-Serif" font-size="10.00">com.fs.starfarer.api.campaign.</text>
<text text-anchor="middle" x="73" y="-337.5" font-family="Helvetica,sans-Serif" font-size="10.00">InteractionDialogPlugin</text>
<polyline fill="none" stroke="black" points="0,-330.5 146,-330.5 "/>
<text text-anchor="middle" x="73" y="-318.5" font-family="Helvetica,sans-Serif" font-size="10.00"> </text>
<polyline fill="none" stroke="black" points="0,-311.5 146,-311.5 "/>
<text text-anchor="start" x="8" y="-299.5" font-family="Helvetica,sans-Serif" font-size="10.00">+ init()</text>
<text text-anchor="start" x="8" y="-288.5" font-family="Helvetica,sans-Serif" font-size="10.00">+ optionSelected()</text>
<text text-anchor="start" x="8" y="-277.5" font-family="Helvetica,sans-Serif" font-size="10.00">+ optionMousedOver()</text>
<text text-anchor="start" x="8" y="-266.5" font-family="Helvetica,sans-Serif" font-size="10.00">+ advance()</text>
<text text-anchor="start" x="8" y="-255.5" font-family="Helvetica,sans-Serif" font-size="10.00">+ backFromEngagement()</text>
<text text-anchor="start" x="8" y="-244.5" font-family="Helvetica,sans-Serif" font-size="10.00">+ getContext()</text>
<text text-anchor="start" x="8" y="-233.5" font-family="Helvetica,sans-Serif" font-size="10.00">+ getMemoryMap()</text>
</a>
</g>
</g>
<!-- Node2&#45;&gt;Node1 -->
<g id="edge1" class="edge">
<title>Node2&#45;&gt;Node1</title>
<path fill="none" stroke="midnightblue" d="M114.95,-217.56C124.85,-202.7 136.04,-187.77 148,-175 153.84,-168.77 160.13,-162.66 166.69,-156.74"/>
<polygon fill="none" stroke="midnightblue" points="111.8,-215.98 109.28,-226.27 117.67,-219.8 111.8,-215.98"/>
</g>
<!-- Node2&#45;&gt;Node1 -->
<g id="edge3" class="edge">
<title>Node2&#45;&gt;Node1</title>
<path fill="none" stroke="#404040" d="M134.11,-226.08C141.12,-218.6 148.19,-211.11 155,-204 166.95,-191.51 179.66,-178.43 192.2,-165.63"/>
<polygon fill="none" stroke="#404040" points="192.44,-165.39 193.79,-158.31 200.85,-156.83 199.5,-163.91 192.44,-165.39"/>
<text text-anchor="middle" x="214" y="-178" font-family="Helvetica,sans-Serif" font-size="10.00"> &#45;originalPlugin</text>
</g>
<!-- Node3 -->
<g id="node3" class="node">
<title>Node3</title>
<g id="a_node3"><a xlink:title=" ">
<polygon fill="none" stroke="#bfbfbf" points="164.5,-259.5 164.5,-327.5 391.5,-327.5 391.5,-259.5 164.5,-259.5"/>
<text text-anchor="start" x="172.5" y="-315.5" font-family="Helvetica,sans-Serif" font-size="10.00">Map&lt; String, com.fs.starfarer.api.campaign.rules.</text>
<text text-anchor="middle" x="278" y="-304.5" font-family="Helvetica,sans-Serif" font-size="10.00">MemoryAPI &gt;</text>
<polyline fill="none" stroke="#bfbfbf" points="164.5,-297.5 391.5,-297.5 "/>
<text text-anchor="middle" x="278" y="-285.5" font-family="Helvetica,sans-Serif" font-size="10.00"> </text>
<polyline fill="none" stroke="#bfbfbf" points="164.5,-278.5 391.5,-278.5 "/>
<text text-anchor="middle" x="278" y="-266.5" font-family="Helvetica,sans-Serif" font-size="10.00"> </text>
</a>
</g>
</g>
<!-- Node3&#45;&gt;Node1 -->
<g id="edge2" class="edge">
<title>Node3&#45;&gt;Node1</title>
<path fill="none" stroke="#404040" d="M278,-259.22C278,-234.94 278,-200.83 278,-168.83"/>
<polygon fill="none" stroke="#404040" points="278,-168.7 274,-162.7 278,-156.7 282,-162.7 278,-168.7"/>
<text text-anchor="middle" x="307.5" y="-178" font-family="Helvetica,sans-Serif" font-size="10.00"> &#45;memoryMap</text>
</g>
<!-- Node4 -->
<g id="node4" class="node">
<title>Node4</title>
<g id="a_node4"><a xlink:href="../../da/d82/interfacecom_1_1fs_1_1starfarer_1_1api_1_1campaign_1_1InteractionDialogAPI.html" target="_top" xlink:title=" ">
<polygon fill="none" stroke="black" points="410,-204.5 410,-382.5 556,-382.5 556,-204.5 410,-204.5"/>
<text text-anchor="start" x="418" y="-370.5" font-family="Helvetica,sans-Serif" font-size="10.00">com.fs.starfarer.api.campaign.</text>
<text text-anchor="middle" x="483" y="-359.5" font-family="Helvetica,sans-Serif" font-size="10.00">InteractionDialogAPI</text>
<polyline fill="none" stroke="black" points="410,-352.5 556,-352.5 "/>
<text text-anchor="middle" x="483" y="-340.5" font-family="Helvetica,sans-Serif" font-size="10.00"> </text>
<polyline fill="none" stroke="black" points="410,-333.5 556,-333.5 "/>
<text text-anchor="start" x="418" y="-321.5" font-family="Helvetica,sans-Serif" font-size="10.00">+ setTextWidth()</text>
<text text-anchor="start" x="418" y="-310.5" font-family="Helvetica,sans-Serif" font-size="10.00">+ setTextHeight()</text>
<text text-anchor="start" x="418" y="-299.5" font-family="Helvetica,sans-Serif" font-size="10.00">+ setXOffset()</text>
<text text-anchor="start" x="418" y="-288.5" font-family="Helvetica,sans-Serif" font-size="10.00">+ setYOffset()</text>
<text text-anchor="start" x="418" y="-277.5" font-family="Helvetica,sans-Serif" font-size="10.00">+ setPromptText()</text>
<text text-anchor="start" x="418" y="-266.5" font-family="Helvetica,sans-Serif" font-size="10.00">+ hideTextPanel()</text>
<text text-anchor="start" x="418" y="-255.5" font-family="Helvetica,sans-Serif" font-size="10.00">+ showTextPanel()</text>
<text text-anchor="start" x="418" y="-244.5" font-family="Helvetica,sans-Serif" font-size="10.00">+ getTextWidth()</text>
<text text-anchor="start" x="418" y="-233.5" font-family="Helvetica,sans-Serif" font-size="10.00">+ getTextHeight()</text>
<text text-anchor="start" x="418" y="-222.5" font-family="Helvetica,sans-Serif" font-size="10.00">+ getXOffset()</text>
<text text-anchor="start" x="418" y="-211.5" font-family="Helvetica,sans-Serif" font-size="10.00">and 37 more...</text>
</a>
</g>
</g>
<!-- Node4&#45;&gt;Node1 -->
<g id="edge4" class="edge">
<title>Node4&#45;&gt;Node1</title>
<path fill="none" stroke="#404040" d="M409.77,-214.23C406.48,-210.77 403.21,-207.35 400,-204 388,-191.49 375.27,-178.34 362.72,-165.47"/>
<polygon fill="none" stroke="#404040" points="362.46,-165.2 355.41,-163.7 354.08,-156.61 361.14,-158.12 362.46,-165.2"/>
<text text-anchor="middle" x="396.5" y="-178" font-family="Helvetica,sans-Serif" font-size="10.00"> &#45;dialog</text>
</g>
<!-- Node5 -->
<g id="node5" class="node">
<title>Node5</title>
<g id="a_node5"><a xlink:href="../../d9/d29/interfacecom_1_1fs_1_1starfarer_1_1api_1_1impl_1_1campaign_1_1rulecmd_1_1salvage_1_1SalvageSpeci0c23cb623422966b4963c997c750605b.html" target="_top" xlink:title=" ">
<polygon fill="none" stroke="black" points="574.5,-226.5 574.5,-360.5 813.5,-360.5 813.5,-226.5 574.5,-226.5"/>
<text text-anchor="start" x="582.5" y="-348.5" font-family="Helvetica,sans-Serif" font-size="10.00">com.fs.starfarer.api.impl.campaign.rulecmd.salvage.</text>
<text text-anchor="middle" x="694" y="-337.5" font-family="Helvetica,sans-Serif" font-size="10.00">SalvageSpecialInteraction.SalvageSpecialPlugin</text>
<polyline fill="none" stroke="black" points="574.5,-330.5 813.5,-330.5 "/>
<text text-anchor="middle" x="694" y="-318.5" font-family="Helvetica,sans-Serif" font-size="10.00"> </text>
<polyline fill="none" stroke="black" points="574.5,-311.5 813.5,-311.5 "/>
<text text-anchor="start" x="582.5" y="-299.5" font-family="Helvetica,sans-Serif" font-size="10.00">+ init()</text>
<text text-anchor="start" x="582.5" y="-288.5" font-family="Helvetica,sans-Serif" font-size="10.00">+ optionSelected()</text>
<text text-anchor="start" x="582.5" y="-277.5" font-family="Helvetica,sans-Serif" font-size="10.00">+ isDone()</text>
<text text-anchor="start" x="582.5" y="-266.5" font-family="Helvetica,sans-Serif" font-size="10.00">+ endWithContinue()</text>
<text text-anchor="start" x="582.5" y="-255.5" font-family="Helvetica,sans-Serif" font-size="10.00">+ shouldShowAgain()</text>
<text text-anchor="start" x="582.5" y="-244.5" font-family="Helvetica,sans-Serif" font-size="10.00">+ shouldAbortSalvageAndRemove</text>
<text text-anchor="start" x="582.5" y="-233.5" font-family="Helvetica,sans-Serif" font-size="10.00">Entity()</text>
</a>
</g>
</g>
<!-- Node5&#45;&gt;Node1 -->
<g id="edge5" class="edge">
<title>Node5&#45;&gt;Node1</title>
<path fill="none" stroke="#404040" d="M602.35,-226.49C590.02,-218.55 577.36,-210.84 565,-204 517.93,-177.96 464.33,-153.44 416.29,-133.15"/>
<polygon fill="none" stroke="#404040" points="416.24,-133.13 409.16,-134.5 405.17,-128.49 412.25,-127.12 416.24,-133.13"/>
<text text-anchor="middle" x="545.5" y="-178" font-family="Helvetica,sans-Serif" font-size="10.00"> &#45;special</text>
</g>
</g>
</svg>
