<?xml version="1.0" encoding="UTF-8" standalone="no"?>
<!DOCTYPE svg PUBLIC "-//W3C//DTD SVG 1.1//EN"
 "http://www.w3.org/Graphics/SVG/1.1/DTD/svg11.dtd">
<!-- Generated by graphviz version 2.44.0 ()
 -->
<!-- Title: com.fs.starfarer.api.impl.campaign.missions.hub.MissionFleetAutoDespawn Pages: 1 -->
<svg width="541pt" height="691pt"
 viewBox="0.00 0.00 541.00 691.00" xmlns="http://www.w3.org/2000/svg" xmlns:xlink="http://www.w3.org/1999/xlink">
<g id="graph0" class="graph" transform="scale(1 1) rotate(0) translate(4 687)">
<title>com.fs.starfarer.api.impl.campaign.missions.hub.MissionFleetAutoDespawn</title>
<!-- Node1 -->
<g id="node1" class="node">
<title>Node1</title>
<g id="a_node1"><a xlink:title=" ">
<polygon fill="#bfbfbf" stroke="black" points="104,-0.5 104,-123.5 329,-123.5 329,-0.5 104,-0.5"/>
<text text-anchor="start" x="112" y="-111.5" font-family="Helvetica,sans-Serif" font-size="10.00">com.fs.starfarer.api.impl.campaign.missions.hub.</text>
<text text-anchor="middle" x="216.5" y="-100.5" font-family="Helvetica,sans-Serif" font-size="10.00">MissionFleetAutoDespawn</text>
<polyline fill="none" stroke="black" points="104,-93.5 329,-93.5 "/>
<text text-anchor="start" x="112" y="-81.5" font-family="Helvetica,sans-Serif" font-size="10.00"># elapsedWaitingForDespawn</text>
<text text-anchor="start" x="112" y="-70.5" font-family="Helvetica,sans-Serif" font-size="10.00"># framesWithNoAssignment</text>
<polyline fill="none" stroke="black" points="104,-63.5 329,-63.5 "/>
<text text-anchor="start" x="112" y="-51.5" font-family="Helvetica,sans-Serif" font-size="10.00">+ MissionFleetAutoDespawn()</text>
<text text-anchor="start" x="112" y="-40.5" font-family="Helvetica,sans-Serif" font-size="10.00">+ advance()</text>
<text text-anchor="start" x="112" y="-29.5" font-family="Helvetica,sans-Serif" font-size="10.00">+ isMissionEnded()</text>
<text text-anchor="start" x="112" y="-18.5" font-family="Helvetica,sans-Serif" font-size="10.00">+ isDone()</text>
<text text-anchor="start" x="112" y="-7.5" font-family="Helvetica,sans-Serif" font-size="10.00">+ runWhilePaused()</text>
</a>
</g>
</g>
<!-- Node2 -->
<g id="node2" class="node">
<title>Node2</title>
<g id="a_node2"><a xlink:href="../../d7/d63/interfacecom_1_1fs_1_1starfarer_1_1api_1_1EveryFrameScript.html" target="_top" xlink:title=" ">
<polygon fill="none" stroke="black" points="0,-215.5 0,-305.5 125,-305.5 125,-215.5 0,-215.5"/>
<text text-anchor="start" x="8" y="-293.5" font-family="Helvetica,sans-Serif" font-size="10.00">com.fs.starfarer.api.Every</text>
<text text-anchor="middle" x="62.5" y="-282.5" font-family="Helvetica,sans-Serif" font-size="10.00">FrameScript</text>
<polyline fill="none" stroke="black" points="0,-275.5 125,-275.5 "/>
<text text-anchor="middle" x="62.5" y="-263.5" font-family="Helvetica,sans-Serif" font-size="10.00"> </text>
<polyline fill="none" stroke="black" points="0,-256.5 125,-256.5 "/>
<text text-anchor="start" x="8" y="-244.5" font-family="Helvetica,sans-Serif" font-size="10.00">+ isDone()</text>
<text text-anchor="start" x="8" y="-233.5" font-family="Helvetica,sans-Serif" font-size="10.00">+ runWhilePaused()</text>
<text text-anchor="start" x="8" y="-222.5" font-family="Helvetica,sans-Serif" font-size="10.00">+ advance()</text>
</a>
</g>
</g>
<!-- Node2&#45;&gt;Node1 -->
<g id="edge1" class="edge">
<title>Node2&#45;&gt;Node1</title>
<path fill="none" stroke="midnightblue" d="M103.44,-207.26C123.57,-181.57 147.96,-150.46 168.92,-123.71"/>
<polygon fill="none" stroke="midnightblue" points="100.47,-205.37 97.06,-215.4 105.98,-209.69 100.47,-205.37"/>
</g>
<!-- Node3 -->
<g id="node3" class="node">
<title>Node3</title>
<g id="a_node3"><a xlink:href="../../db/d56/interfacecom_1_1fs_1_1starfarer_1_1api_1_1campaign_1_1CampaignFleetAPI.html" target="_top" xlink:title=" ">
<polygon fill="none" stroke="black" points="143.5,-171.5 143.5,-349.5 289.5,-349.5 289.5,-171.5 143.5,-171.5"/>
<text text-anchor="start" x="151.5" y="-337.5" font-family="Helvetica,sans-Serif" font-size="10.00">com.fs.starfarer.api.campaign.</text>
<text text-anchor="middle" x="216.5" y="-326.5" font-family="Helvetica,sans-Serif" font-size="10.00">CampaignFleetAPI</text>
<polyline fill="none" stroke="black" points="143.5,-319.5 289.5,-319.5 "/>
<text text-anchor="middle" x="216.5" y="-307.5" font-family="Helvetica,sans-Serif" font-size="10.00"> </text>
<polyline fill="none" stroke="black" points="143.5,-300.5 289.5,-300.5 "/>
<text text-anchor="start" x="151.5" y="-288.5" font-family="Helvetica,sans-Serif" font-size="10.00">+ isInCurrentLocation()</text>
<text text-anchor="start" x="151.5" y="-277.5" font-family="Helvetica,sans-Serif" font-size="10.00">+ isInHyperspace()</text>
<text text-anchor="start" x="151.5" y="-266.5" font-family="Helvetica,sans-Serif" font-size="10.00">+ setLocation()</text>
<text text-anchor="start" x="151.5" y="-255.5" font-family="Helvetica,sans-Serif" font-size="10.00">+ despawn()</text>
<text text-anchor="start" x="151.5" y="-244.5" font-family="Helvetica,sans-Serif" font-size="10.00">+ despawn()</text>
<text text-anchor="start" x="151.5" y="-233.5" font-family="Helvetica,sans-Serif" font-size="10.00">+ addAssignment()</text>
<text text-anchor="start" x="151.5" y="-222.5" font-family="Helvetica,sans-Serif" font-size="10.00">+ addAssignment()</text>
<text text-anchor="start" x="151.5" y="-211.5" font-family="Helvetica,sans-Serif" font-size="10.00">+ addAssignment()</text>
<text text-anchor="start" x="151.5" y="-200.5" font-family="Helvetica,sans-Serif" font-size="10.00">+ addAssignment()</text>
<text text-anchor="start" x="151.5" y="-189.5" font-family="Helvetica,sans-Serif" font-size="10.00">+ clearAssignments()</text>
<text text-anchor="start" x="151.5" y="-178.5" font-family="Helvetica,sans-Serif" font-size="10.00">and 92 more...</text>
</a>
</g>
</g>
<!-- Node3&#45;&gt;Node1 -->
<g id="edge2" class="edge">
<title>Node3&#45;&gt;Node1</title>
<path fill="none" stroke="#404040" d="M216.5,-171.31C216.5,-159.47 216.5,-147.44 216.5,-135.9"/>
<polygon fill="none" stroke="#404040" points="216.5,-135.61 212.5,-129.61 216.5,-123.61 220.5,-129.61 216.5,-135.61"/>
<text text-anchor="middle" x="229.5" y="-145" font-family="Helvetica,sans-Serif" font-size="10.00"> #fleet</text>
</g>
<!-- Node4 -->
<g id="node4" class="node">
<title>Node4</title>
<g id="a_node4"><a xlink:href="../../d6/de1/interfacecom_1_1fs_1_1starfarer_1_1api_1_1campaign_1_1SectorEntityToken.html" target="_top" xlink:title=" ">
<polygon fill="none" stroke="black" points="26.5,-387.5 26.5,-565.5 172.5,-565.5 172.5,-387.5 26.5,-387.5"/>
<text text-anchor="start" x="34.5" y="-553.5" font-family="Helvetica,sans-Serif" font-size="10.00">com.fs.starfarer.api.campaign.</text>
<text text-anchor="middle" x="99.5" y="-542.5" font-family="Helvetica,sans-Serif" font-size="10.00">SectorEntityToken</text>
<polyline fill="none" stroke="black" points="26.5,-535.5 172.5,-535.5 "/>
<text text-anchor="middle" x="99.5" y="-523.5" font-family="Helvetica,sans-Serif" font-size="10.00"> </text>
<polyline fill="none" stroke="black" points="26.5,-516.5 172.5,-516.5 "/>
<text text-anchor="start" x="34.5" y="-504.5" font-family="Helvetica,sans-Serif" font-size="10.00">+ isPlayerFleet()</text>
<text text-anchor="start" x="34.5" y="-493.5" font-family="Helvetica,sans-Serif" font-size="10.00">+ getMarket()</text>
<text text-anchor="start" x="34.5" y="-482.5" font-family="Helvetica,sans-Serif" font-size="10.00">+ setMarket()</text>
<text text-anchor="start" x="34.5" y="-471.5" font-family="Helvetica,sans-Serif" font-size="10.00">+ getCargo()</text>
<text text-anchor="start" x="34.5" y="-460.5" font-family="Helvetica,sans-Serif" font-size="10.00">+ getLocation()</text>
<text text-anchor="start" x="34.5" y="-449.5" font-family="Helvetica,sans-Serif" font-size="10.00">+ getLocationInHyperspace()</text>
<text text-anchor="start" x="34.5" y="-438.5" font-family="Helvetica,sans-Serif" font-size="10.00">+ getOrbit()</text>
<text text-anchor="start" x="34.5" y="-427.5" font-family="Helvetica,sans-Serif" font-size="10.00">+ setOrbit()</text>
<text text-anchor="start" x="34.5" y="-416.5" font-family="Helvetica,sans-Serif" font-size="10.00">+ getId()</text>
<text text-anchor="start" x="34.5" y="-405.5" font-family="Helvetica,sans-Serif" font-size="10.00">+ getName()</text>
<text text-anchor="start" x="34.5" y="-394.5" font-family="Helvetica,sans-Serif" font-size="10.00">and 115 more...</text>
</a>
</g>
</g>
<!-- Node4&#45;&gt;Node3 -->
<g id="edge3" class="edge">
<title>Node4&#45;&gt;Node3</title>
<path fill="none" stroke="midnightblue" d="M152.57,-378.43C157.83,-368.82 163.14,-359.09 168.35,-349.57"/>
<polygon fill="none" stroke="midnightblue" points="149.49,-376.77 147.76,-387.22 155.63,-380.13 149.49,-376.77"/>
</g>
<!-- Node5 -->
<g id="node5" class="node">
<title>Node5</title>
<g id="a_node5"><a xlink:href="../../de/da5/interfacecom_1_1fs_1_1starfarer_1_1api_1_1campaign_1_1rules_1_1HasMemory.html" target="_top" xlink:title=" ">
<polygon fill="none" stroke="black" points="15,-603.5 15,-682.5 184,-682.5 184,-603.5 15,-603.5"/>
<text text-anchor="start" x="23" y="-670.5" font-family="Helvetica,sans-Serif" font-size="10.00">com.fs.starfarer.api.campaign.rules.</text>
<text text-anchor="middle" x="99.5" y="-659.5" font-family="Helvetica,sans-Serif" font-size="10.00">HasMemory</text>
<polyline fill="none" stroke="black" points="15,-652.5 184,-652.5 "/>
<text text-anchor="middle" x="99.5" y="-640.5" font-family="Helvetica,sans-Serif" font-size="10.00"> </text>
<polyline fill="none" stroke="black" points="15,-633.5 184,-633.5 "/>
<text text-anchor="start" x="23" y="-621.5" font-family="Helvetica,sans-Serif" font-size="10.00">+ getMemory()</text>
<text text-anchor="start" x="23" y="-610.5" font-family="Helvetica,sans-Serif" font-size="10.00">+ getMemoryWithoutUpdate()</text>
</a>
</g>
</g>
<!-- Node5&#45;&gt;Node4 -->
<g id="edge4" class="edge">
<title>Node5&#45;&gt;Node4</title>
<path fill="none" stroke="midnightblue" d="M99.5,-593.39C99.5,-584.56 99.5,-575.11 99.5,-565.55"/>
<polygon fill="none" stroke="midnightblue" points="96,-593.43 99.5,-603.43 103,-593.43 96,-593.43"/>
</g>
<!-- Node6 -->
<g id="node6" class="node">
<title>Node6</title>
<g id="a_node6"><a xlink:href="../../da/db1/interfacecom_1_1fs_1_1starfarer_1_1api_1_1campaign_1_1FleetOrStubAPI.html" target="_top" xlink:title=" ">
<polygon fill="none" stroke="black" points="190.5,-387.5 190.5,-565.5 336.5,-565.5 336.5,-387.5 190.5,-387.5"/>
<text text-anchor="start" x="198.5" y="-553.5" font-family="Helvetica,sans-Serif" font-size="10.00">com.fs.starfarer.api.campaign.</text>
<text text-anchor="middle" x="263.5" y="-542.5" font-family="Helvetica,sans-Serif" font-size="10.00">FleetOrStubAPI</text>
<polyline fill="none" stroke="black" points="190.5,-535.5 336.5,-535.5 "/>
<text text-anchor="middle" x="263.5" y="-523.5" font-family="Helvetica,sans-Serif" font-size="10.00"> </text>
<polyline fill="none" stroke="black" points="190.5,-516.5 336.5,-516.5 "/>
<text text-anchor="start" x="198.5" y="-504.5" font-family="Helvetica,sans-Serif" font-size="10.00">+ getId()</text>
<text text-anchor="start" x="198.5" y="-493.5" font-family="Helvetica,sans-Serif" font-size="10.00">+ getContainingLocation()</text>
<text text-anchor="start" x="198.5" y="-482.5" font-family="Helvetica,sans-Serif" font-size="10.00">+ getLocation()</text>
<text text-anchor="start" x="198.5" y="-471.5" font-family="Helvetica,sans-Serif" font-size="10.00">+ getCurrentAssignment()</text>
<text text-anchor="start" x="198.5" y="-460.5" font-family="Helvetica,sans-Serif" font-size="10.00">+ getAssignmentsCopy()</text>
<text text-anchor="start" x="198.5" y="-449.5" font-family="Helvetica,sans-Serif" font-size="10.00">+ addAssignment()</text>
<text text-anchor="start" x="198.5" y="-438.5" font-family="Helvetica,sans-Serif" font-size="10.00">+ addAssignment()</text>
<text text-anchor="start" x="198.5" y="-427.5" font-family="Helvetica,sans-Serif" font-size="10.00">+ addAssignment()</text>
<text text-anchor="start" x="198.5" y="-416.5" font-family="Helvetica,sans-Serif" font-size="10.00">+ addAssignmentAtStart()</text>
<text text-anchor="start" x="198.5" y="-405.5" font-family="Helvetica,sans-Serif" font-size="10.00">+ addAssignmentAtStart()</text>
<text text-anchor="start" x="198.5" y="-394.5" font-family="Helvetica,sans-Serif" font-size="10.00">and 15 more...</text>
</a>
</g>
</g>
<!-- Node6&#45;&gt;Node3 -->
<g id="edge5" class="edge">
<title>Node6&#45;&gt;Node3</title>
<path fill="none" stroke="midnightblue" d="M241.92,-377.25C239.9,-368.02 237.85,-358.7 235.84,-349.57"/>
<polygon fill="none" stroke="midnightblue" points="238.55,-378.21 244.11,-387.22 245.39,-376.7 238.55,-378.21"/>
</g>
<!-- Node7 -->
<g id="node7" class="node">
<title>Node7</title>
<g id="a_node7"><a xlink:href="../../d3/d33/interfacecom_1_1fs_1_1starfarer_1_1api_1_1impl_1_1campaign_1_1missions_1_1hub_1_1HubMission.html" target="_top" xlink:title=" ">
<polygon fill="none" stroke="black" points="308,-171.5 308,-349.5 533,-349.5 533,-171.5 308,-171.5"/>
<text text-anchor="start" x="316" y="-337.5" font-family="Helvetica,sans-Serif" font-size="10.00">com.fs.starfarer.api.impl.campaign.missions.hub.</text>
<text text-anchor="middle" x="420.5" y="-326.5" font-family="Helvetica,sans-Serif" font-size="10.00">HubMission</text>
<polyline fill="none" stroke="black" points="308,-319.5 533,-319.5 "/>
<text text-anchor="middle" x="420.5" y="-307.5" font-family="Helvetica,sans-Serif" font-size="10.00"> </text>
<polyline fill="none" stroke="black" points="308,-300.5 533,-300.5 "/>
<text text-anchor="start" x="316" y="-288.5" font-family="Helvetica,sans-Serif" font-size="10.00">+ getTriggerPrefix()</text>
<text text-anchor="start" x="316" y="-277.5" font-family="Helvetica,sans-Serif" font-size="10.00">+ getBlurbText()</text>
<text text-anchor="start" x="316" y="-266.5" font-family="Helvetica,sans-Serif" font-size="10.00">+ getMissionId()</text>
<text text-anchor="start" x="316" y="-255.5" font-family="Helvetica,sans-Serif" font-size="10.00">+ setMissionId()</text>
<text text-anchor="start" x="316" y="-244.5" font-family="Helvetica,sans-Serif" font-size="10.00">+ setGenRandom()</text>
<text text-anchor="start" x="316" y="-233.5" font-family="Helvetica,sans-Serif" font-size="10.00">+ accept()</text>
<text text-anchor="start" x="316" y="-222.5" font-family="Helvetica,sans-Serif" font-size="10.00">+ updateInteractionData()</text>
<text text-anchor="start" x="316" y="-211.5" font-family="Helvetica,sans-Serif" font-size="10.00">+ createAndAbortIfFailed()</text>
<text text-anchor="start" x="316" y="-200.5" font-family="Helvetica,sans-Serif" font-size="10.00">+ abort()</text>
<text text-anchor="start" x="316" y="-189.5" font-family="Helvetica,sans-Serif" font-size="10.00">+ isMissionCreationAborted()</text>
<text text-anchor="start" x="316" y="-178.5" font-family="Helvetica,sans-Serif" font-size="10.00">and 7 more...</text>
</a>
</g>
</g>
<!-- Node7&#45;&gt;Node1 -->
<g id="edge6" class="edge">
<title>Node7&#45;&gt;Node1</title>
<path fill="none" stroke="#404040" d="M328.94,-171.31C315.35,-158.21 301.5,-144.87 288.38,-132.24"/>
<polygon fill="none" stroke="#404040" points="288.07,-131.94 280.97,-130.66 279.43,-123.61 286.52,-124.89 288.07,-131.94"/>
<text text-anchor="middle" x="327.5" y="-145" font-family="Helvetica,sans-Serif" font-size="10.00"> #mission</text>
</g>
</g>
</svg>
