<?xml version="1.0" encoding="UTF-8" standalone="no"?>
<!DOCTYPE svg PUBLIC "-//W3C//DTD SVG 1.1//EN"
 "http://www.w3.org/Graphics/SVG/1.1/DTD/svg11.dtd">
<!-- Generated by graphviz version 2.44.0 ()
 -->
<!-- Title: com.fs.starfarer.api.impl.combat.CryofluxTransducerEffect Pages: 1 -->
<svg width="1584pt" height="650pt"
 viewBox="0.00 0.00 1583.50 650.00" xmlns="http://www.w3.org/2000/svg" xmlns:xlink="http://www.w3.org/1999/xlink">
<g id="graph0" class="graph" transform="scale(1 1) rotate(0) translate(4 646)">
<title>com.fs.starfarer.api.impl.combat.CryofluxTransducerEffect</title>
<!-- Node1 -->
<g id="node1" class="node">
<title>Node1</title>
<g id="a_node1"><a xlink:title=" ">
<polygon fill="#bfbfbf" stroke="black" points="729.5,-0.5 729.5,-178.5 885.5,-178.5 885.5,-0.5 729.5,-0.5"/>
<text text-anchor="start" x="737.5" y="-166.5" font-family="Helvetica,sans-Serif" font-size="10.00">com.fs.starfarer.api.impl.combat.</text>
<text text-anchor="middle" x="807.5" y="-155.5" font-family="Helvetica,sans-Serif" font-size="10.00">CryofluxTransducerEffect</text>
<polyline fill="none" stroke="black" points="729.5,-148.5 885.5,-148.5 "/>
<text text-anchor="start" x="737.5" y="-136.5" font-family="Helvetica,sans-Serif" font-size="10.00"># baseFacing</text>
<polyline fill="none" stroke="black" points="729.5,-129.5 885.5,-129.5 "/>
<text text-anchor="start" x="737.5" y="-117.5" font-family="Helvetica,sans-Serif" font-size="10.00">+ CryofluxTransducerEffect()</text>
<text text-anchor="start" x="737.5" y="-106.5" font-family="Helvetica,sans-Serif" font-size="10.00">+ advance()</text>
<text text-anchor="start" x="737.5" y="-95.5" font-family="Helvetica,sans-Serif" font-size="10.00">+ onHit()</text>
<text text-anchor="start" x="737.5" y="-84.5" font-family="Helvetica,sans-Serif" font-size="10.00">+ onFire()</text>
<text text-anchor="start" x="737.5" y="-73.5" font-family="Helvetica,sans-Serif" font-size="10.00">+ CryofluxTransducerEffect()</text>
<text text-anchor="start" x="737.5" y="-62.5" font-family="Helvetica,sans-Serif" font-size="10.00">+ getRenderRadius()</text>
<text text-anchor="start" x="737.5" y="-51.5" font-family="Helvetica,sans-Serif" font-size="10.00">+ getActiveLayers()</text>
<text text-anchor="start" x="737.5" y="-40.5" font-family="Helvetica,sans-Serif" font-size="10.00">+ init()</text>
<text text-anchor="start" x="737.5" y="-29.5" font-family="Helvetica,sans-Serif" font-size="10.00">+ advance()</text>
<text text-anchor="start" x="737.5" y="-18.5" font-family="Helvetica,sans-Serif" font-size="10.00">+ isExpired()</text>
<text text-anchor="start" x="737.5" y="-7.5" font-family="Helvetica,sans-Serif" font-size="10.00">+ render()</text>
</a>
</g>
</g>
<!-- Node2 -->
<g id="node2" class="node">
<title>Node2</title>
<g id="a_node2"><a xlink:href="../../d9/d57/classcom_1_1fs_1_1starfarer_1_1api_1_1combat_1_1BaseCombatLayeredRenderingPlugin.html" target="_top" xlink:title=" ">
<polygon fill="none" stroke="black" points="151.5,-237.5 151.5,-415.5 329.5,-415.5 329.5,-237.5 151.5,-237.5"/>
<text text-anchor="start" x="159.5" y="-403.5" font-family="Helvetica,sans-Serif" font-size="10.00">com.fs.starfarer.api.combat.</text>
<text text-anchor="middle" x="240.5" y="-392.5" font-family="Helvetica,sans-Serif" font-size="10.00">BaseCombatLayeredRenderingPlugin</text>
<polyline fill="none" stroke="black" points="151.5,-385.5 329.5,-385.5 "/>
<text text-anchor="middle" x="240.5" y="-373.5" font-family="Helvetica,sans-Serif" font-size="10.00"> </text>
<polyline fill="none" stroke="black" points="151.5,-366.5 329.5,-366.5 "/>
<text text-anchor="start" x="159.5" y="-354.5" font-family="Helvetica,sans-Serif" font-size="10.00">+ BaseCombatLayeredRendering</text>
<text text-anchor="start" x="159.5" y="-343.5" font-family="Helvetica,sans-Serif" font-size="10.00">Plugin()</text>
<text text-anchor="start" x="159.5" y="-332.5" font-family="Helvetica,sans-Serif" font-size="10.00">+ BaseCombatLayeredRendering</text>
<text text-anchor="start" x="159.5" y="-321.5" font-family="Helvetica,sans-Serif" font-size="10.00">Plugin()</text>
<text text-anchor="start" x="159.5" y="-310.5" font-family="Helvetica,sans-Serif" font-size="10.00">+ advance()</text>
<text text-anchor="start" x="159.5" y="-299.5" font-family="Helvetica,sans-Serif" font-size="10.00">+ cleanup()</text>
<text text-anchor="start" x="159.5" y="-288.5" font-family="Helvetica,sans-Serif" font-size="10.00">+ getActiveLayers()</text>
<text text-anchor="start" x="159.5" y="-277.5" font-family="Helvetica,sans-Serif" font-size="10.00">+ getRenderRadius()</text>
<text text-anchor="start" x="159.5" y="-266.5" font-family="Helvetica,sans-Serif" font-size="10.00">+ init()</text>
<text text-anchor="start" x="159.5" y="-255.5" font-family="Helvetica,sans-Serif" font-size="10.00">+ isExpired()</text>
<text text-anchor="start" x="159.5" y="-244.5" font-family="Helvetica,sans-Serif" font-size="10.00">+ render()</text>
</a>
</g>
</g>
<!-- Node2&#45;&gt;Node1 -->
<g id="edge1" class="edge">
<title>Node2&#45;&gt;Node1</title>
<path fill="none" stroke="midnightblue" d="M338.22,-237.16C338.31,-237.11 338.41,-237.05 338.5,-237 465.56,-164.48 632.86,-123.38 729.47,-104.14"/>
<polygon fill="none" stroke="midnightblue" points="336.32,-234.22 329.59,-242.41 339.95,-240.2 336.32,-234.22"/>
</g>
<!-- Node3 -->
<g id="node3" class="node">
<title>Node3</title>
<g id="a_node3"><a xlink:href="../../d6/d49/interfacecom_1_1fs_1_1starfarer_1_1api_1_1combat_1_1CombatLayeredRenderingPlugin.html" target="_top" xlink:title=" ">
<polygon fill="none" stroke="black" points="0,-485.5 0,-619.5 155,-619.5 155,-485.5 0,-485.5"/>
<text text-anchor="start" x="8" y="-607.5" font-family="Helvetica,sans-Serif" font-size="10.00">com.fs.starfarer.api.combat.</text>
<text text-anchor="middle" x="77.5" y="-596.5" font-family="Helvetica,sans-Serif" font-size="10.00">CombatLayeredRenderingPlugin</text>
<polyline fill="none" stroke="black" points="0,-589.5 155,-589.5 "/>
<text text-anchor="middle" x="77.5" y="-577.5" font-family="Helvetica,sans-Serif" font-size="10.00"> </text>
<polyline fill="none" stroke="black" points="0,-570.5 155,-570.5 "/>
<text text-anchor="start" x="8" y="-558.5" font-family="Helvetica,sans-Serif" font-size="10.00">+ init()</text>
<text text-anchor="start" x="8" y="-547.5" font-family="Helvetica,sans-Serif" font-size="10.00">+ cleanup()</text>
<text text-anchor="start" x="8" y="-536.5" font-family="Helvetica,sans-Serif" font-size="10.00">+ isExpired()</text>
<text text-anchor="start" x="8" y="-525.5" font-family="Helvetica,sans-Serif" font-size="10.00">+ advance()</text>
<text text-anchor="start" x="8" y="-514.5" font-family="Helvetica,sans-Serif" font-size="10.00">+ getActiveLayers()</text>
<text text-anchor="start" x="8" y="-503.5" font-family="Helvetica,sans-Serif" font-size="10.00">+ getRenderRadius()</text>
<text text-anchor="start" x="8" y="-492.5" font-family="Helvetica,sans-Serif" font-size="10.00">+ render()</text>
</a>
</g>
</g>
<!-- Node3&#45;&gt;Node2 -->
<g id="edge2" class="edge">
<title>Node3&#45;&gt;Node2</title>
<path fill="none" stroke="midnightblue" d="M131.78,-476.9C146.07,-457.27 161.61,-435.91 176.36,-415.64"/>
<polygon fill="none" stroke="midnightblue" points="128.8,-475.06 125.74,-485.2 134.46,-479.18 128.8,-475.06"/>
</g>
<!-- Node4 -->
<g id="node4" class="node">
<title>Node4</title>
<g id="a_node4"><a xlink:href="../../d5/d0d/enumcom_1_1fs_1_1starfarer_1_1api_1_1combat_1_1CombatEngineLayers.html" target="_top" xlink:title=" ">
<polygon fill="none" stroke="black" points="173.5,-463.5 173.5,-641.5 313.5,-641.5 313.5,-463.5 173.5,-463.5"/>
<text text-anchor="start" x="181.5" y="-629.5" font-family="Helvetica,sans-Serif" font-size="10.00">com.fs.starfarer.api.combat.</text>
<text text-anchor="middle" x="243.5" y="-618.5" font-family="Helvetica,sans-Serif" font-size="10.00">CombatEngineLayers</text>
<polyline fill="none" stroke="black" points="173.5,-611.5 313.5,-611.5 "/>
<text text-anchor="start" x="181.5" y="-599.5" font-family="Helvetica,sans-Serif" font-size="10.00">+ BELOW_PLANETS</text>
<text text-anchor="start" x="181.5" y="-588.5" font-family="Helvetica,sans-Serif" font-size="10.00">+ PLANET_LAYER</text>
<text text-anchor="start" x="181.5" y="-577.5" font-family="Helvetica,sans-Serif" font-size="10.00">+ ABOVE_PLANETS</text>
<text text-anchor="start" x="181.5" y="-566.5" font-family="Helvetica,sans-Serif" font-size="10.00">+ CLOUD_LAYER</text>
<text text-anchor="start" x="181.5" y="-555.5" font-family="Helvetica,sans-Serif" font-size="10.00">+ BELOW_SHIPS_LAYER</text>
<text text-anchor="start" x="181.5" y="-544.5" font-family="Helvetica,sans-Serif" font-size="10.00">+ UNDER_SHIPS_LAYER</text>
<text text-anchor="start" x="181.5" y="-533.5" font-family="Helvetica,sans-Serif" font-size="10.00">+ ASTEROIDS_LAYER</text>
<text text-anchor="start" x="181.5" y="-522.5" font-family="Helvetica,sans-Serif" font-size="10.00">+ CAPITAL_SHIPS_LAYER</text>
<text text-anchor="start" x="181.5" y="-511.5" font-family="Helvetica,sans-Serif" font-size="10.00">+ CRUISERS_LAYER</text>
<text text-anchor="start" x="181.5" y="-500.5" font-family="Helvetica,sans-Serif" font-size="10.00">+ DESTROYERS_LAYER</text>
<text text-anchor="start" x="181.5" y="-489.5" font-family="Helvetica,sans-Serif" font-size="10.00">and 13 more...</text>
<polyline fill="none" stroke="black" points="173.5,-482.5 313.5,-482.5 "/>
<text text-anchor="middle" x="243.5" y="-470.5" font-family="Helvetica,sans-Serif" font-size="10.00"> </text>
</a>
</g>
</g>
<!-- Node4&#45;&gt;Node2 -->
<g id="edge3" class="edge">
<title>Node4&#45;&gt;Node2</title>
<path fill="none" stroke="#404040" d="M242.32,-463.29C242.16,-451.66 242,-439.67 241.84,-427.86"/>
<polygon fill="none" stroke="#404040" points="241.84,-427.63 237.76,-421.68 241.68,-415.63 245.76,-421.57 241.84,-427.63"/>
<text text-anchor="middle" x="256.5" y="-437" font-family="Helvetica,sans-Serif" font-size="10.00"> #layer</text>
</g>
<!-- Node5 -->
<g id="node5" class="node">
<title>Node5</title>
<g id="a_node5"><a xlink:href="../../db/d65/interfacecom_1_1fs_1_1starfarer_1_1api_1_1combat_1_1CombatEntityAPI.html" target="_top" xlink:title=" ">
<polygon fill="none" stroke="black" points="341.5,-463.5 341.5,-641.5 477.5,-641.5 477.5,-463.5 341.5,-463.5"/>
<text text-anchor="start" x="349.5" y="-629.5" font-family="Helvetica,sans-Serif" font-size="10.00">com.fs.starfarer.api.combat.</text>
<text text-anchor="middle" x="409.5" y="-618.5" font-family="Helvetica,sans-Serif" font-size="10.00">CombatEntityAPI</text>
<polyline fill="none" stroke="black" points="341.5,-611.5 477.5,-611.5 "/>
<text text-anchor="middle" x="409.5" y="-599.5" font-family="Helvetica,sans-Serif" font-size="10.00"> </text>
<polyline fill="none" stroke="black" points="341.5,-592.5 477.5,-592.5 "/>
<text text-anchor="start" x="349.5" y="-580.5" font-family="Helvetica,sans-Serif" font-size="10.00">+ getLocation()</text>
<text text-anchor="start" x="349.5" y="-569.5" font-family="Helvetica,sans-Serif" font-size="10.00">+ getVelocity()</text>
<text text-anchor="start" x="349.5" y="-558.5" font-family="Helvetica,sans-Serif" font-size="10.00">+ getFacing()</text>
<text text-anchor="start" x="349.5" y="-547.5" font-family="Helvetica,sans-Serif" font-size="10.00">+ setFacing()</text>
<text text-anchor="start" x="349.5" y="-536.5" font-family="Helvetica,sans-Serif" font-size="10.00">+ getAngularVelocity()</text>
<text text-anchor="start" x="349.5" y="-525.5" font-family="Helvetica,sans-Serif" font-size="10.00">+ setAngularVelocity()</text>
<text text-anchor="start" x="349.5" y="-514.5" font-family="Helvetica,sans-Serif" font-size="10.00">+ getOwner()</text>
<text text-anchor="start" x="349.5" y="-503.5" font-family="Helvetica,sans-Serif" font-size="10.00">+ setOwner()</text>
<text text-anchor="start" x="349.5" y="-492.5" font-family="Helvetica,sans-Serif" font-size="10.00">+ getCollisionRadius()</text>
<text text-anchor="start" x="349.5" y="-481.5" font-family="Helvetica,sans-Serif" font-size="10.00">+ getCollisionClass()</text>
<text text-anchor="start" x="349.5" y="-470.5" font-family="Helvetica,sans-Serif" font-size="10.00">and 15 more...</text>
</a>
</g>
</g>
<!-- Node5&#45;&gt;Node2 -->
<g id="edge4" class="edge">
<title>Node5&#45;&gt;Node2</title>
<path fill="none" stroke="#404040" d="M342.95,-463.29C333.53,-450.8 323.79,-437.9 314.25,-425.25"/>
<polygon fill="none" stroke="#404040" points="314.22,-425.21 307.41,-422.83 306.99,-415.63 313.8,-418.01 314.22,-425.21"/>
<text text-anchor="middle" x="341" y="-437" font-family="Helvetica,sans-Serif" font-size="10.00"> #entity</text>
</g>
<!-- Node9 -->
<g id="node9" class="node">
<title>Node9</title>
<g id="a_node9"><a xlink:href="../../d2/dd5/interfacecom_1_1fs_1_1starfarer_1_1api_1_1combat_1_1DamagingProjectileAPI.html" target="_top" xlink:title=" ">
<polygon fill="none" stroke="black" points="348,-237.5 348,-415.5 485,-415.5 485,-237.5 348,-237.5"/>
<text text-anchor="start" x="356" y="-403.5" font-family="Helvetica,sans-Serif" font-size="10.00">com.fs.starfarer.api.combat.</text>
<text text-anchor="middle" x="416.5" y="-392.5" font-family="Helvetica,sans-Serif" font-size="10.00">DamagingProjectileAPI</text>
<polyline fill="none" stroke="black" points="348,-385.5 485,-385.5 "/>
<text text-anchor="middle" x="416.5" y="-373.5" font-family="Helvetica,sans-Serif" font-size="10.00"> </text>
<polyline fill="none" stroke="black" points="348,-366.5 485,-366.5 "/>
<text text-anchor="start" x="356" y="-354.5" font-family="Helvetica,sans-Serif" font-size="10.00">+ getDamageType()</text>
<text text-anchor="start" x="356" y="-343.5" font-family="Helvetica,sans-Serif" font-size="10.00">+ getDamageAmount()</text>
<text text-anchor="start" x="356" y="-332.5" font-family="Helvetica,sans-Serif" font-size="10.00">+ getBaseDamageAmount()</text>
<text text-anchor="start" x="356" y="-321.5" font-family="Helvetica,sans-Serif" font-size="10.00">+ getEmpAmount()</text>
<text text-anchor="start" x="356" y="-310.5" font-family="Helvetica,sans-Serif" font-size="10.00">+ setDamageAmount()</text>
<text text-anchor="start" x="356" y="-299.5" font-family="Helvetica,sans-Serif" font-size="10.00">+ getWeapon()</text>
<text text-anchor="start" x="356" y="-288.5" font-family="Helvetica,sans-Serif" font-size="10.00">+ didDamage()</text>
<text text-anchor="start" x="356" y="-277.5" font-family="Helvetica,sans-Serif" font-size="10.00">+ getDamageTarget()</text>
<text text-anchor="start" x="356" y="-266.5" font-family="Helvetica,sans-Serif" font-size="10.00">+ getProjectileSpecId()</text>
<text text-anchor="start" x="356" y="-255.5" font-family="Helvetica,sans-Serif" font-size="10.00">+ getSource()</text>
<text text-anchor="start" x="356" y="-244.5" font-family="Helvetica,sans-Serif" font-size="10.00">and 15 more...</text>
</a>
</g>
</g>
<!-- Node5&#45;&gt;Node9 -->
<g id="edge9" class="edge">
<title>Node5&#45;&gt;Node9</title>
<path fill="none" stroke="midnightblue" d="M412.58,-452.93C412.97,-440.51 413.36,-427.87 413.75,-415.63"/>
<polygon fill="none" stroke="midnightblue" points="409.07,-453.19 412.26,-463.29 416.07,-453.41 409.07,-453.19"/>
</g>
<!-- Node6 -->
<g id="node6" class="node">
<title>Node6</title>
<g id="a_node6"><a xlink:href="../../df/d88/interfacecom_1_1fs_1_1starfarer_1_1api_1_1combat_1_1OnFireEffectPlugin.html" target="_top" xlink:title=" ">
<polygon fill="none" stroke="black" points="503.5,-292.5 503.5,-360.5 639.5,-360.5 639.5,-292.5 503.5,-292.5"/>
<text text-anchor="start" x="511.5" y="-348.5" font-family="Helvetica,sans-Serif" font-size="10.00">com.fs.starfarer.api.combat.</text>
<text text-anchor="middle" x="571.5" y="-337.5" font-family="Helvetica,sans-Serif" font-size="10.00">OnFireEffectPlugin</text>
<polyline fill="none" stroke="black" points="503.5,-330.5 639.5,-330.5 "/>
<text text-anchor="middle" x="571.5" y="-318.5" font-family="Helvetica,sans-Serif" font-size="10.00"> </text>
<polyline fill="none" stroke="black" points="503.5,-311.5 639.5,-311.5 "/>
<text text-anchor="start" x="511.5" y="-299.5" font-family="Helvetica,sans-Serif" font-size="10.00">+ onFire()</text>
</a>
</g>
</g>
<!-- Node6&#45;&gt;Node1 -->
<g id="edge5" class="edge">
<title>Node6&#45;&gt;Node1</title>
<path fill="none" stroke="midnightblue" d="M605.45,-284.59C618.55,-269.32 633.87,-252.05 648.5,-237 674.01,-210.76 703.15,-183.25 729.46,-159.26"/>
<polygon fill="none" stroke="midnightblue" points="602.65,-282.48 598.83,-292.37 607.98,-287.02 602.65,-282.48"/>
</g>
<!-- Node7 -->
<g id="node7" class="node">
<title>Node7</title>
<g id="a_node7"><a xlink:href="../../dd/d68/interfacecom_1_1fs_1_1starfarer_1_1api_1_1combat_1_1OnHitEffectPlugin.html" target="_top" xlink:title=" ">
<polygon fill="none" stroke="black" points="657.5,-292.5 657.5,-360.5 793.5,-360.5 793.5,-292.5 657.5,-292.5"/>
<text text-anchor="start" x="665.5" y="-348.5" font-family="Helvetica,sans-Serif" font-size="10.00">com.fs.starfarer.api.combat.</text>
<text text-anchor="middle" x="725.5" y="-337.5" font-family="Helvetica,sans-Serif" font-size="10.00">OnHitEffectPlugin</text>
<polyline fill="none" stroke="black" points="657.5,-330.5 793.5,-330.5 "/>
<text text-anchor="middle" x="725.5" y="-318.5" font-family="Helvetica,sans-Serif" font-size="10.00"> </text>
<polyline fill="none" stroke="black" points="657.5,-311.5 793.5,-311.5 "/>
<text text-anchor="start" x="665.5" y="-299.5" font-family="Helvetica,sans-Serif" font-size="10.00">+ onHit()</text>
</a>
</g>
</g>
<!-- Node7&#45;&gt;Node1 -->
<g id="edge6" class="edge">
<title>Node7&#45;&gt;Node1</title>
<path fill="none" stroke="midnightblue" d="M740.5,-282.52C750.61,-253.53 764.33,-214.22 776.72,-178.72"/>
<polygon fill="none" stroke="midnightblue" points="737.06,-281.73 737.07,-292.33 743.67,-284.04 737.06,-281.73"/>
</g>
<!-- Node8 -->
<g id="node8" class="node">
<title>Node8</title>
<g id="a_node8"><a xlink:href="../../da/d61/interfacecom_1_1fs_1_1starfarer_1_1api_1_1combat_1_1EveryFrameWeaponEffectPlugin.html" target="_top" xlink:title=" ">
<polygon fill="none" stroke="black" points="812,-292.5 812,-360.5 967,-360.5 967,-292.5 812,-292.5"/>
<text text-anchor="start" x="820" y="-348.5" font-family="Helvetica,sans-Serif" font-size="10.00">com.fs.starfarer.api.combat.</text>
<text text-anchor="middle" x="889.5" y="-337.5" font-family="Helvetica,sans-Serif" font-size="10.00">EveryFrameWeaponEffectPlugin</text>
<polyline fill="none" stroke="black" points="812,-330.5 967,-330.5 "/>
<text text-anchor="middle" x="889.5" y="-318.5" font-family="Helvetica,sans-Serif" font-size="10.00"> </text>
<polyline fill="none" stroke="black" points="812,-311.5 967,-311.5 "/>
<text text-anchor="start" x="820" y="-299.5" font-family="Helvetica,sans-Serif" font-size="10.00">+ advance()</text>
</a>
</g>
</g>
<!-- Node8&#45;&gt;Node1 -->
<g id="edge7" class="edge">
<title>Node8&#45;&gt;Node1</title>
<path fill="none" stroke="midnightblue" d="M874.5,-282.52C864.39,-253.53 850.67,-214.22 838.28,-178.72"/>
<polygon fill="none" stroke="midnightblue" points="871.33,-284.04 877.93,-292.33 877.94,-281.73 871.33,-284.04"/>
</g>
<!-- Node9&#45;&gt;Node1 -->
<g id="edge8" class="edge">
<title>Node9&#45;&gt;Node1</title>
<path fill="none" stroke="#404040" d="M485.27,-244.39C488.3,-241.81 491.39,-239.33 494.5,-237 562.89,-185.75 652.09,-146.18 717.75,-121.15"/>
<polygon fill="none" stroke="#404040" points="718.09,-121.03 722.29,-115.17 729.32,-116.8 725.11,-122.66 718.09,-121.03"/>
<text text-anchor="middle" x="563" y="-211" font-family="Helvetica,sans-Serif" font-size="10.00"> #prev</text>
<text text-anchor="middle" x="563" y="-200" font-family="Helvetica,sans-Serif" font-size="10.00">#proj</text>
</g>
<!-- Node10 -->
<g id="node10" class="node">
<title>Node10</title>
<g id="a_node10"><a xlink:title=" ">
<polygon fill="none" stroke="#bfbfbf" points="985.5,-292.5 985.5,-360.5 1169.5,-360.5 1169.5,-292.5 985.5,-292.5"/>
<text text-anchor="start" x="993.5" y="-348.5" font-family="Helvetica,sans-Serif" font-size="10.00">EnumSet&lt; com.fs.starfarer.api.combat.</text>
<text text-anchor="middle" x="1077.5" y="-337.5" font-family="Helvetica,sans-Serif" font-size="10.00">CombatEngineLayers &gt;</text>
<polyline fill="none" stroke="#bfbfbf" points="985.5,-330.5 1169.5,-330.5 "/>
<text text-anchor="middle" x="1077.5" y="-318.5" font-family="Helvetica,sans-Serif" font-size="10.00"> </text>
<polyline fill="none" stroke="#bfbfbf" points="985.5,-311.5 1169.5,-311.5 "/>
<text text-anchor="middle" x="1077.5" y="-299.5" font-family="Helvetica,sans-Serif" font-size="10.00"> </text>
</a>
</g>
</g>
<!-- Node10&#45;&gt;Node1 -->
<g id="edge10" class="edge">
<title>Node10&#45;&gt;Node1</title>
<path fill="none" stroke="#404040" d="M1039.39,-292.33C1002.04,-259.82 943.78,-209.11 895,-166.66"/>
<polygon fill="none" stroke="#404040" points="894.75,-166.44 887.59,-165.51 885.69,-158.56 892.85,-159.48 894.75,-166.44"/>
<text text-anchor="middle" x="968.5" y="-205.5" font-family="Helvetica,sans-Serif" font-size="10.00"> #layers</text>
</g>
<!-- Node11 -->
<g id="node11" class="node">
<title>Node11</title>
<g id="a_node11"><a xlink:title=" ">
<polygon fill="none" stroke="#bfbfbf" points="1188,-292.5 1188,-360.5 1369,-360.5 1369,-292.5 1188,-292.5"/>
<text text-anchor="start" x="1196" y="-348.5" font-family="Helvetica,sans-Serif" font-size="10.00">List&lt; com.fs.starfarer.api.impl.combat.</text>
<text text-anchor="middle" x="1278.5" y="-337.5" font-family="Helvetica,sans-Serif" font-size="10.00">CryofluxTransducerEffect &gt;</text>
<polyline fill="none" stroke="#bfbfbf" points="1188,-330.5 1369,-330.5 "/>
<text text-anchor="middle" x="1278.5" y="-318.5" font-family="Helvetica,sans-Serif" font-size="10.00"> </text>
<polyline fill="none" stroke="#bfbfbf" points="1188,-311.5 1369,-311.5 "/>
<text text-anchor="middle" x="1278.5" y="-299.5" font-family="Helvetica,sans-Serif" font-size="10.00"> </text>
</a>
</g>
</g>
<!-- Node11&#45;&gt;Node1 -->
<g id="edge11" class="edge">
<title>Node11&#45;&gt;Node1</title>
<path fill="none" stroke="#404040" d="M1247.03,-292.46C1228.4,-274.3 1203.6,-252.4 1178.5,-237 1088.95,-182.06 975.24,-140.79 897.46,-116.28"/>
<polygon fill="none" stroke="#404040" points="897.23,-116.21 890.31,-118.24 885.77,-112.64 892.69,-110.6 897.23,-116.21"/>
<text text-anchor="middle" x="1156" y="-205.5" font-family="Helvetica,sans-Serif" font-size="10.00"> #trails</text>
</g>
<!-- Node12 -->
<g id="node12" class="node">
<title>Node12</title>
<g id="a_node12"><a xlink:title=" ">
<polygon fill="none" stroke="#bfbfbf" points="1387.5,-292.5 1387.5,-360.5 1575.5,-360.5 1575.5,-292.5 1387.5,-292.5"/>
<text text-anchor="start" x="1395.5" y="-348.5" font-family="Helvetica,sans-Serif" font-size="10.00">List&lt; com.fs.starfarer.api.impl.combat.</text>
<text text-anchor="middle" x="1481.5" y="-337.5" font-family="Helvetica,sans-Serif" font-size="10.00">CryofluxTransducerEffect.ParticleData &gt;</text>
<polyline fill="none" stroke="#bfbfbf" points="1387.5,-330.5 1575.5,-330.5 "/>
<text text-anchor="middle" x="1481.5" y="-318.5" font-family="Helvetica,sans-Serif" font-size="10.00"> </text>
<polyline fill="none" stroke="#bfbfbf" points="1387.5,-311.5 1575.5,-311.5 "/>
<text text-anchor="middle" x="1481.5" y="-299.5" font-family="Helvetica,sans-Serif" font-size="10.00"> </text>
</a>
</g>
</g>
<!-- Node12&#45;&gt;Node1 -->
<g id="edge12" class="edge">
<title>Node12&#45;&gt;Node1</title>
<path fill="none" stroke="#404040" d="M1450.52,-292.15C1431.41,-273.42 1405.47,-251.06 1378.5,-237 1220.94,-154.88 1014.49,-116.76 897.91,-100.74"/>
<polygon fill="none" stroke="#404040" points="897.77,-100.72 891.29,-103.88 885.88,-99.12 892.36,-95.95 897.77,-100.72"/>
<text text-anchor="middle" x="1358" y="-205.5" font-family="Helvetica,sans-Serif" font-size="10.00"> #particles</text>
</g>
</g>
</svg>
