<?xml version="1.0" encoding="UTF-8" standalone="no"?>
<!DOCTYPE svg PUBLIC "-//W3C//DTD SVG 1.1//EN"
 "http://www.w3.org/Graphics/SVG/1.1/DTD/svg11.dtd">
<!-- Generated by graphviz version 2.44.0 ()
 -->
<!-- Title: com.fs.starfarer.api.impl.campaign.missions.hub.HubMissionWithTriggers.PickLocationTowardsPlayerAction Pages: 1 -->
<svg width="418pt" height="475pt"
 viewBox="0.00 0.00 418.00 475.00" xmlns="http://www.w3.org/2000/svg" xmlns:xlink="http://www.w3.org/1999/xlink">
<g id="graph0" class="graph" transform="scale(1 1) rotate(0) translate(4 471)">
<title>com.fs.starfarer.api.impl.campaign.missions.hub.HubMissionWithTriggers.PickLocationTowardsPlayerAction</title>
<!-- Node1 -->
<g id="node1" class="node">
<title>Node1</title>
<g id="a_node1"><a xlink:title=" ">
<polygon fill="#bfbfbf" stroke="black" points="0,-0.5 0,-123.5 275,-123.5 275,-0.5 0,-0.5"/>
<text text-anchor="start" x="8" y="-111.5" font-family="Helvetica,sans-Serif" font-size="10.00">com.fs.starfarer.api.impl.campaign.missions.hub.</text>
<text text-anchor="middle" x="137.5" y="-100.5" font-family="Helvetica,sans-Serif" font-size="10.00">HubMissionWithTriggers.PickLocationTowardsPlayerAction</text>
<polyline fill="none" stroke="black" points="0,-93.5 275,-93.5 "/>
<text text-anchor="start" x="8" y="-81.5" font-family="Helvetica,sans-Serif" font-size="10.00"># arc</text>
<text text-anchor="start" x="8" y="-70.5" font-family="Helvetica,sans-Serif" font-size="10.00"># minDist</text>
<text text-anchor="start" x="8" y="-59.5" font-family="Helvetica,sans-Serif" font-size="10.00"># maxDist</text>
<text text-anchor="start" x="8" y="-48.5" font-family="Helvetica,sans-Serif" font-size="10.00"># minDistFromPlayer</text>
<polyline fill="none" stroke="black" points="0,-41.5 275,-41.5 "/>
<text text-anchor="start" x="8" y="-29.5" font-family="Helvetica,sans-Serif" font-size="10.00">+ PickLocationTowardsPlayer</text>
<text text-anchor="start" x="8" y="-18.5" font-family="Helvetica,sans-Serif" font-size="10.00">Action()</text>
<text text-anchor="start" x="8" y="-7.5" font-family="Helvetica,sans-Serif" font-size="10.00">+ doAction()</text>
</a>
</g>
</g>
<!-- Node2 -->
<g id="node2" class="node">
<title>Node2</title>
<g id="a_node2"><a xlink:href="../../d1/dce/interfacecom_1_1fs_1_1starfarer_1_1api_1_1impl_1_1campaign_1_1missions_1_1hub_1_1MissionTrigger_1_1TriggerAction.html" target="_top" xlink:title=" ">
<polygon fill="none" stroke="black" points="9,-226.5 9,-294.5 234,-294.5 234,-226.5 9,-226.5"/>
<text text-anchor="start" x="17" y="-282.5" font-family="Helvetica,sans-Serif" font-size="10.00">com.fs.starfarer.api.impl.campaign.missions.hub.</text>
<text text-anchor="middle" x="121.5" y="-271.5" font-family="Helvetica,sans-Serif" font-size="10.00">MissionTrigger.TriggerAction</text>
<polyline fill="none" stroke="black" points="9,-264.5 234,-264.5 "/>
<text text-anchor="middle" x="121.5" y="-252.5" font-family="Helvetica,sans-Serif" font-size="10.00"> </text>
<polyline fill="none" stroke="black" points="9,-245.5 234,-245.5 "/>
<text text-anchor="start" x="17" y="-233.5" font-family="Helvetica,sans-Serif" font-size="10.00">+ doAction()</text>
</a>
</g>
</g>
<!-- Node2&#45;&gt;Node1 -->
<g id="edge1" class="edge">
<title>Node2&#45;&gt;Node1</title>
<path fill="none" stroke="midnightblue" d="M125.03,-216.18C127.24,-188.98 130.13,-153.52 132.57,-123.56"/>
<polygon fill="none" stroke="midnightblue" points="121.54,-215.92 124.21,-226.17 128.51,-216.48 121.54,-215.92"/>
</g>
<!-- Node3 -->
<g id="node3" class="node">
<title>Node3</title>
<g id="a_node3"><a xlink:href="../../d6/de1/interfacecom_1_1fs_1_1starfarer_1_1api_1_1campaign_1_1SectorEntityToken.html" target="_top" xlink:title=" ">
<polygon fill="none" stroke="black" points="252.5,-171.5 252.5,-349.5 398.5,-349.5 398.5,-171.5 252.5,-171.5"/>
<text text-anchor="start" x="260.5" y="-337.5" font-family="Helvetica,sans-Serif" font-size="10.00">com.fs.starfarer.api.campaign.</text>
<text text-anchor="middle" x="325.5" y="-326.5" font-family="Helvetica,sans-Serif" font-size="10.00">SectorEntityToken</text>
<polyline fill="none" stroke="black" points="252.5,-319.5 398.5,-319.5 "/>
<text text-anchor="middle" x="325.5" y="-307.5" font-family="Helvetica,sans-Serif" font-size="10.00"> </text>
<polyline fill="none" stroke="black" points="252.5,-300.5 398.5,-300.5 "/>
<text text-anchor="start" x="260.5" y="-288.5" font-family="Helvetica,sans-Serif" font-size="10.00">+ isPlayerFleet()</text>
<text text-anchor="start" x="260.5" y="-277.5" font-family="Helvetica,sans-Serif" font-size="10.00">+ getMarket()</text>
<text text-anchor="start" x="260.5" y="-266.5" font-family="Helvetica,sans-Serif" font-size="10.00">+ setMarket()</text>
<text text-anchor="start" x="260.5" y="-255.5" font-family="Helvetica,sans-Serif" font-size="10.00">+ getCargo()</text>
<text text-anchor="start" x="260.5" y="-244.5" font-family="Helvetica,sans-Serif" font-size="10.00">+ getLocation()</text>
<text text-anchor="start" x="260.5" y="-233.5" font-family="Helvetica,sans-Serif" font-size="10.00">+ getLocationInHyperspace()</text>
<text text-anchor="start" x="260.5" y="-222.5" font-family="Helvetica,sans-Serif" font-size="10.00">+ getOrbit()</text>
<text text-anchor="start" x="260.5" y="-211.5" font-family="Helvetica,sans-Serif" font-size="10.00">+ setOrbit()</text>
<text text-anchor="start" x="260.5" y="-200.5" font-family="Helvetica,sans-Serif" font-size="10.00">+ getId()</text>
<text text-anchor="start" x="260.5" y="-189.5" font-family="Helvetica,sans-Serif" font-size="10.00">+ getName()</text>
<text text-anchor="start" x="260.5" y="-178.5" font-family="Helvetica,sans-Serif" font-size="10.00">and 115 more...</text>
</a>
</g>
</g>
<!-- Node3&#45;&gt;Node1 -->
<g id="edge2" class="edge">
<title>Node3&#45;&gt;Node1</title>
<path fill="none" stroke="#404040" d="M252.29,-180.27C249.33,-177.13 246.39,-174.03 243.5,-171 231.49,-158.41 218.61,-145.11 206.1,-132.3"/>
<polygon fill="none" stroke="#404040" points="205.91,-132.11 198.85,-130.62 197.51,-123.53 204.57,-125.02 205.91,-132.11"/>
<text text-anchor="middle" x="238" y="-145" font-family="Helvetica,sans-Serif" font-size="10.00"> #entity</text>
</g>
<!-- Node4 -->
<g id="node4" class="node">
<title>Node4</title>
<g id="a_node4"><a xlink:href="../../de/da5/interfacecom_1_1fs_1_1starfarer_1_1api_1_1campaign_1_1rules_1_1HasMemory.html" target="_top" xlink:title=" ">
<polygon fill="none" stroke="black" points="241,-387.5 241,-466.5 410,-466.5 410,-387.5 241,-387.5"/>
<text text-anchor="start" x="249" y="-454.5" font-family="Helvetica,sans-Serif" font-size="10.00">com.fs.starfarer.api.campaign.rules.</text>
<text text-anchor="middle" x="325.5" y="-443.5" font-family="Helvetica,sans-Serif" font-size="10.00">HasMemory</text>
<polyline fill="none" stroke="black" points="241,-436.5 410,-436.5 "/>
<text text-anchor="middle" x="325.5" y="-424.5" font-family="Helvetica,sans-Serif" font-size="10.00"> </text>
<polyline fill="none" stroke="black" points="241,-417.5 410,-417.5 "/>
<text text-anchor="start" x="249" y="-405.5" font-family="Helvetica,sans-Serif" font-size="10.00">+ getMemory()</text>
<text text-anchor="start" x="249" y="-394.5" font-family="Helvetica,sans-Serif" font-size="10.00">+ getMemoryWithoutUpdate()</text>
</a>
</g>
</g>
<!-- Node4&#45;&gt;Node3 -->
<g id="edge3" class="edge">
<title>Node4&#45;&gt;Node3</title>
<path fill="none" stroke="midnightblue" d="M325.5,-377.39C325.5,-368.56 325.5,-359.11 325.5,-349.55"/>
<polygon fill="none" stroke="midnightblue" points="322,-377.43 325.5,-387.43 329,-377.43 322,-377.43"/>
</g>
</g>
</svg>
