<?xml version="1.0" encoding="UTF-8" standalone="no"?>
<!DOCTYPE svg PUBLIC "-//W3C//DTD SVG 1.1//EN"
 "http://www.w3.org/Graphics/SVG/1.1/DTD/svg11.dtd">
<!-- Generated by graphviz version 2.44.0 ()
 -->
<!-- Title: com.fs.starfarer.api.impl.campaign.missions.hub.HubMissionWithSearch.SystemOnFringeOfSectorReq Pages: 1 -->
<svg width="258pt" height="320pt"
 viewBox="0.00 0.00 258.00 320.00" xmlns="http://www.w3.org/2000/svg" xmlns:xlink="http://www.w3.org/1999/xlink">
<g id="graph0" class="graph" transform="scale(1 1) rotate(0) translate(4 316)">
<title>com.fs.starfarer.api.impl.campaign.missions.hub.HubMissionWithSearch.SystemOnFringeOfSectorReq</title>
<!-- Node1 -->
<g id="node1" class="node">
<title>Node1</title>
<g id="a_node1"><a xlink:title=" ">
<polygon fill="#bfbfbf" stroke="black" points="0,-0.5 0,-101.5 250,-101.5 250,-0.5 0,-0.5"/>
<text text-anchor="start" x="8" y="-89.5" font-family="Helvetica,sans-Serif" font-size="10.00">com.fs.starfarer.api.impl.campaign.missions.hub.</text>
<text text-anchor="middle" x="125" y="-78.5" font-family="Helvetica,sans-Serif" font-size="10.00">HubMissionWithSearch.SystemOnFringeOfSectorReq</text>
<polyline fill="none" stroke="black" points="0,-71.5 250,-71.5 "/>
<text text-anchor="start" x="8" y="-59.5" font-family="Helvetica,sans-Serif" font-size="10.00"># rangeLY</text>
<text text-anchor="start" x="8" y="-48.5" font-family="Helvetica,sans-Serif" font-size="10.00"># negate</text>
<polyline fill="none" stroke="black" points="0,-41.5 250,-41.5 "/>
<text text-anchor="start" x="8" y="-29.5" font-family="Helvetica,sans-Serif" font-size="10.00">+ SystemOnFringeOfSectorReq()</text>
<text text-anchor="start" x="8" y="-18.5" font-family="Helvetica,sans-Serif" font-size="10.00">+ SystemOnFringeOfSectorReq()</text>
<text text-anchor="start" x="8" y="-7.5" font-family="Helvetica,sans-Serif" font-size="10.00">+ systemMatchesRequirement()</text>
</a>
</g>
</g>
<!-- Node2 -->
<g id="node2" class="node">
<title>Node2</title>
<g id="a_node2"><a xlink:href="../../de/d4e/interfacecom_1_1fs_1_1starfarer_1_1api_1_1impl_1_1campaign_1_1missions_1_1hub_1_1HubMissionWithSearch_1_1StarSystemRequirement.html" target="_top" xlink:title=" ">
<polygon fill="none" stroke="black" points="11.5,-138.5 11.5,-206.5 238.5,-206.5 238.5,-138.5 11.5,-138.5"/>
<text text-anchor="start" x="19.5" y="-194.5" font-family="Helvetica,sans-Serif" font-size="10.00">com.fs.starfarer.api.impl.campaign.missions.hub.</text>
<text text-anchor="middle" x="125" y="-183.5" font-family="Helvetica,sans-Serif" font-size="10.00">HubMissionWithSearch.StarSystemRequirement</text>
<polyline fill="none" stroke="black" points="11.5,-176.5 238.5,-176.5 "/>
<text text-anchor="middle" x="125" y="-164.5" font-family="Helvetica,sans-Serif" font-size="10.00"> </text>
<polyline fill="none" stroke="black" points="11.5,-157.5 238.5,-157.5 "/>
<text text-anchor="start" x="19.5" y="-145.5" font-family="Helvetica,sans-Serif" font-size="10.00">+ systemMatchesRequirement()</text>
</a>
</g>
</g>
<!-- Node2&#45;&gt;Node1 -->
<g id="edge1" class="edge">
<title>Node2&#45;&gt;Node1</title>
<path fill="none" stroke="midnightblue" d="M125,-128.05C125,-119.47 125,-110.41 125,-101.65"/>
<polygon fill="none" stroke="midnightblue" points="121.5,-128.21 125,-138.21 128.5,-128.21 121.5,-128.21"/>
</g>
<!-- Node3 -->
<g id="node3" class="node">
<title>Node3</title>
<g id="a_node3"><a xlink:href="../../db/da0/interfacecom_1_1fs_1_1starfarer_1_1api_1_1impl_1_1campaign_1_1missions_1_1hub_1_1HubMissionWithSearch_1_1GenericRequirement.html" target="_top" xlink:title=" ">
<polygon fill="none" stroke="black" points="12.5,-243.5 12.5,-311.5 237.5,-311.5 237.5,-243.5 12.5,-243.5"/>
<text text-anchor="start" x="20.5" y="-299.5" font-family="Helvetica,sans-Serif" font-size="10.00">com.fs.starfarer.api.impl.campaign.missions.hub.</text>
<text text-anchor="middle" x="125" y="-288.5" font-family="Helvetica,sans-Serif" font-size="10.00">HubMissionWithSearch.GenericRequirement</text>
<polyline fill="none" stroke="black" points="12.5,-281.5 237.5,-281.5 "/>
<text text-anchor="middle" x="125" y="-269.5" font-family="Helvetica,sans-Serif" font-size="10.00"> </text>
<polyline fill="none" stroke="black" points="12.5,-262.5 237.5,-262.5 "/>
<text text-anchor="middle" x="125" y="-250.5" font-family="Helvetica,sans-Serif" font-size="10.00"> </text>
</a>
</g>
</g>
<!-- Node3&#45;&gt;Node2 -->
<g id="edge2" class="edge">
<title>Node3&#45;&gt;Node2</title>
<path fill="none" stroke="midnightblue" d="M125,-233.14C125,-224.26 125,-215.04 125,-206.59"/>
<polygon fill="none" stroke="midnightblue" points="121.5,-233.34 125,-243.34 128.5,-233.34 121.5,-233.34"/>
</g>
</g>
</svg>
