<?xml version="1.0" encoding="UTF-8" standalone="no"?>
<!DOCTYPE svg PUBLIC "-//W3C//DTD SVG 1.1//EN"
 "http://www.w3.org/Graphics/SVG/1.1/DTD/svg11.dtd">
<!-- Generated by graphviz version 2.44.0 ()
 -->
<!-- Title: com.fs.starfarer.api.impl.campaign.shared.PersonBountyEventData Pages: 1 -->
<svg width="205pt" height="292pt"
 viewBox="0.00 0.00 205.00 292.00" xmlns="http://www.w3.org/2000/svg" xmlns:xlink="http://www.w3.org/1999/xlink">
<g id="graph0" class="graph" transform="scale(1 1) rotate(0) translate(4 288)">
<title>com.fs.starfarer.api.impl.campaign.shared.PersonBountyEventData</title>
<!-- Node1 -->
<g id="node1" class="node">
<title>Node1</title>
<g id="a_node1"><a xlink:title=" ">
<polygon fill="#bfbfbf" stroke="black" points="0,-0.5 0,-178.5 197,-178.5 197,-0.5 0,-0.5"/>
<text text-anchor="start" x="8" y="-166.5" font-family="Helvetica,sans-Serif" font-size="10.00">com.fs.starfarer.api.impl.campaign.shared.</text>
<text text-anchor="middle" x="98.5" y="-155.5" font-family="Helvetica,sans-Serif" font-size="10.00">PersonBountyEventData</text>
<polyline fill="none" stroke="black" points="0,-148.5 197,-148.5 "/>
<text text-anchor="start" x="8" y="-136.5" font-family="Helvetica,sans-Serif" font-size="10.00">&#45; level</text>
<text text-anchor="start" x="8" y="-125.5" font-family="Helvetica,sans-Serif" font-size="10.00">&#45; successesThisLevel</text>
<polyline fill="none" stroke="black" points="0,-118.5 197,-118.5 "/>
<text text-anchor="start" x="8" y="-106.5" font-family="Helvetica,sans-Serif" font-size="10.00">+ PersonBountyEventData()</text>
<text text-anchor="start" x="8" y="-95.5" font-family="Helvetica,sans-Serif" font-size="10.00">+ reportSuccess()</text>
<text text-anchor="start" x="8" y="-84.5" font-family="Helvetica,sans-Serif" font-size="10.00">+ getThresholdForLevel()</text>
<text text-anchor="start" x="8" y="-73.5" font-family="Helvetica,sans-Serif" font-size="10.00">+ getLevel()</text>
<text text-anchor="start" x="8" y="-62.5" font-family="Helvetica,sans-Serif" font-size="10.00">+ setLevel()</text>
<text text-anchor="start" x="8" y="-51.5" font-family="Helvetica,sans-Serif" font-size="10.00">+ setSuccessesThisLevel()</text>
<text text-anchor="start" x="8" y="-40.5" font-family="Helvetica,sans-Serif" font-size="10.00">+ getParticipatingFactions()</text>
<text text-anchor="start" x="8" y="-29.5" font-family="Helvetica,sans-Serif" font-size="10.00">+ addParticipatingFaction()</text>
<text text-anchor="start" x="8" y="-18.5" font-family="Helvetica,sans-Serif" font-size="10.00">+ removeParticipatingFaction()</text>
<text text-anchor="start" x="8" y="-7.5" font-family="Helvetica,sans-Serif" font-size="10.00">+ isParticipating()</text>
</a>
</g>
</g>
<!-- Node2 -->
<g id="node2" class="node">
<title>Node2</title>
<g id="a_node2"><a xlink:title=" ">
<polygon fill="none" stroke="#bfbfbf" points="61,-226.5 61,-283.5 136,-283.5 136,-226.5 61,-226.5"/>
<text text-anchor="middle" x="98.5" y="-271.5" font-family="Helvetica,sans-Serif" font-size="10.00">List&lt; String &gt;</text>
<polyline fill="none" stroke="#bfbfbf" points="61,-264.5 136,-264.5 "/>
<text text-anchor="middle" x="98.5" y="-252.5" font-family="Helvetica,sans-Serif" font-size="10.00"> </text>
<polyline fill="none" stroke="#bfbfbf" points="61,-245.5 136,-245.5 "/>
<text text-anchor="middle" x="98.5" y="-233.5" font-family="Helvetica,sans-Serif" font-size="10.00"> </text>
</a>
</g>
</g>
<!-- Node2&#45;&gt;Node1 -->
<g id="edge1" class="edge">
<title>Node2&#45;&gt;Node1</title>
<path fill="none" stroke="#404040" d="M98.5,-226.26C98.5,-216.01 98.5,-203.7 98.5,-190.74"/>
<polygon fill="none" stroke="#404040" points="98.5,-190.7 94.5,-184.7 98.5,-178.7 102.5,-184.7 98.5,-190.7"/>
<text text-anchor="middle" x="146.5" y="-200" font-family="Helvetica,sans-Serif" font-size="10.00"> &#45;participatingFactions</text>
</g>
</g>
</svg>
