<?xml version="1.0" encoding="UTF-8" standalone="no"?>
<!DOCTYPE svg PUBLIC "-//W3C//DTD SVG 1.1//EN"
 "http://www.w3.org/Graphics/SVG/1.1/DTD/svg11.dtd">
<!-- Generated by graphviz version 2.44.0 ()
 -->
<!-- Title: com.fs.starfarer.api.impl.campaign.events.OfficerManagerEvent Pages: 1 -->
<svg width="1572pt" height="1524pt"
 viewBox="0.00 0.00 1572.00 1524.00" xmlns="http://www.w3.org/2000/svg" xmlns:xlink="http://www.w3.org/1999/xlink">
<g id="graph0" class="graph" transform="scale(1 1) rotate(0) translate(4 1520)">
<title>com.fs.starfarer.api.impl.campaign.events.OfficerManagerEvent</title>
<!-- Node1 -->
<g id="node1" class="node">
<title>Node1</title>
<g id="a_node1"><a xlink:title=" ">
<polygon fill="#bfbfbf" stroke="black" points="867,-0.5 867,-409.5 1064,-409.5 1064,-0.5 867,-0.5"/>
<text text-anchor="start" x="875" y="-397.5" font-family="Helvetica,sans-Serif" font-size="10.00">com.fs.starfarer.api.impl.campaign.events.</text>
<text text-anchor="middle" x="965.5" y="-386.5" font-family="Helvetica,sans-Serif" font-size="10.00">OfficerManagerEvent</text>
<polyline fill="none" stroke="black" points="867,-379.5 1064,-379.5 "/>
<text text-anchor="start" x="875" y="-367.5" font-family="Helvetica,sans-Serif" font-size="10.00">+ DEBUG</text>
<text text-anchor="start" x="875" y="-356.5" font-family="Helvetica,sans-Serif" font-size="10.00"># seed</text>
<polyline fill="none" stroke="black" points="867,-349.5 1064,-349.5 "/>
<text text-anchor="start" x="875" y="-337.5" font-family="Helvetica,sans-Serif" font-size="10.00">+ OfficerManagerEvent()</text>
<text text-anchor="start" x="875" y="-326.5" font-family="Helvetica,sans-Serif" font-size="10.00">+ reportPlayerClosedMarket()</text>
<text text-anchor="start" x="875" y="-315.5" font-family="Helvetica,sans-Serif" font-size="10.00">+ reportPlayerOpenedMarket()</text>
<text text-anchor="start" x="875" y="-304.5" font-family="Helvetica,sans-Serif" font-size="10.00">+ advance()</text>
<text text-anchor="start" x="875" y="-293.5" font-family="Helvetica,sans-Serif" font-size="10.00">+ pruneFromRemovedMarkets()</text>
<text text-anchor="start" x="875" y="-282.5" font-family="Helvetica,sans-Serif" font-size="10.00">+ addAvailable()</text>
<text text-anchor="start" x="875" y="-271.5" font-family="Helvetica,sans-Serif" font-size="10.00">+ addAvailableAdmin()</text>
<text text-anchor="start" x="875" y="-260.5" font-family="Helvetica,sans-Serif" font-size="10.00">+ removeAvailable()</text>
<text text-anchor="start" x="875" y="-249.5" font-family="Helvetica,sans-Serif" font-size="10.00">+ callEvent()</text>
<text text-anchor="start" x="875" y="-238.5" font-family="Helvetica,sans-Serif" font-size="10.00">+ reportPlayerMarketTransaction()</text>
<text text-anchor="start" x="875" y="-227.5" font-family="Helvetica,sans-Serif" font-size="10.00">+ reportPlayerOpenedMarket</text>
<text text-anchor="start" x="875" y="-216.5" font-family="Helvetica,sans-Serif" font-size="10.00">AndCargoUpdated()</text>
<text text-anchor="start" x="875" y="-205.5" font-family="Helvetica,sans-Serif" font-size="10.00">+ runWhilePaused()</text>
<text text-anchor="start" x="875" y="-194.5" font-family="Helvetica,sans-Serif" font-size="10.00">+ isDone()</text>
<text text-anchor="start" x="875" y="-183.5" font-family="Helvetica,sans-Serif" font-size="10.00">+ pickPortrait()</text>
<text text-anchor="start" x="875" y="-172.5" font-family="Helvetica,sans-Serif" font-size="10.00">+ createAdmin()</text>
<text text-anchor="start" x="875" y="-161.5" font-family="Helvetica,sans-Serif" font-size="10.00">+ createOfficerInternal()</text>
<text text-anchor="start" x="875" y="-150.5" font-family="Helvetica,sans-Serif" font-size="10.00">+ createMercInternal()</text>
<text text-anchor="start" x="875" y="-139.5" font-family="Helvetica,sans-Serif" font-size="10.00">+ createOfficer()</text>
<text text-anchor="start" x="875" y="-128.5" font-family="Helvetica,sans-Serif" font-size="10.00">+ createOfficer()</text>
<text text-anchor="start" x="875" y="-117.5" font-family="Helvetica,sans-Serif" font-size="10.00">+ createOfficer()</text>
<text text-anchor="start" x="875" y="-106.5" font-family="Helvetica,sans-Serif" font-size="10.00">+ createOfficer()</text>
<text text-anchor="start" x="875" y="-95.5" font-family="Helvetica,sans-Serif" font-size="10.00">+ addEliteSkills()</text>
<text text-anchor="start" x="875" y="-84.5" font-family="Helvetica,sans-Serif" font-size="10.00">+ pickSkill()</text>
<text text-anchor="start" x="875" y="-73.5" font-family="Helvetica,sans-Serif" font-size="10.00">~ readResolve()</text>
<text text-anchor="start" x="875" y="-62.5" font-family="Helvetica,sans-Serif" font-size="10.00"># getOfficerDuration()</text>
<text text-anchor="start" x="875" y="-51.5" font-family="Helvetica,sans-Serif" font-size="10.00"># setEventDataAndAddToMarket()</text>
<text text-anchor="start" x="875" y="-40.5" font-family="Helvetica,sans-Serif" font-size="10.00"># createAdmin()</text>
<text text-anchor="start" x="875" y="-29.5" font-family="Helvetica,sans-Serif" font-size="10.00"># createOfficer()</text>
<text text-anchor="start" x="875" y="-18.5" font-family="Helvetica,sans-Serif" font-size="10.00">&#45; getOfficer()</text>
<text text-anchor="start" x="875" y="-7.5" font-family="Helvetica,sans-Serif" font-size="10.00">&#45; getAdmin()</text>
</a>
</g>
</g>
<!-- Node2 -->
<g id="node2" class="node">
<title>Node2</title>
<g id="a_node2"><a xlink:href="../../da/d38/classcom_1_1fs_1_1starfarer_1_1api_1_1impl_1_1campaign_1_1events_1_1BaseEventPlugin.html" target="_top" xlink:title=" ">
<polygon fill="none" stroke="black" points="433,-468.5 433,-767.5 630,-767.5 630,-468.5 433,-468.5"/>
<text text-anchor="start" x="441" y="-755.5" font-family="Helvetica,sans-Serif" font-size="10.00">com.fs.starfarer.api.impl.campaign.events.</text>
<text text-anchor="middle" x="531.5" y="-744.5" font-family="Helvetica,sans-Serif" font-size="10.00">BaseEventPlugin</text>
<polyline fill="none" stroke="black" points="433,-737.5 630,-737.5 "/>
<text text-anchor="start" x="441" y="-725.5" font-family="Helvetica,sans-Serif" font-size="10.00"># eventType</text>
<text text-anchor="start" x="441" y="-714.5" font-family="Helvetica,sans-Serif" font-size="10.00"># statModId</text>
<text text-anchor="start" x="441" y="-703.5" font-family="Helvetica,sans-Serif" font-size="10.00"># started</text>
<text text-anchor="start" x="441" y="-692.5" font-family="Helvetica,sans-Serif" font-size="10.00"># startProbability</text>
<text text-anchor="start" x="441" y="-681.5" font-family="Helvetica,sans-Serif" font-size="10.00">&#45; id</text>
<polyline fill="none" stroke="black" points="433,-674.5 630,-674.5 "/>
<text text-anchor="start" x="441" y="-662.5" font-family="Helvetica,sans-Serif" font-size="10.00">+ init()</text>
<text text-anchor="start" x="441" y="-651.5" font-family="Helvetica,sans-Serif" font-size="10.00">+ init()</text>
<text text-anchor="start" x="441" y="-640.5" font-family="Helvetica,sans-Serif" font-size="10.00">+ setTarget()</text>
<text text-anchor="start" x="441" y="-629.5" font-family="Helvetica,sans-Serif" font-size="10.00">+ cleanup()</text>
<text text-anchor="start" x="441" y="-618.5" font-family="Helvetica,sans-Serif" font-size="10.00">+ startEvent()</text>
<text text-anchor="start" x="441" y="-607.5" font-family="Helvetica,sans-Serif" font-size="10.00">+ startEvent()</text>
<text text-anchor="start" x="441" y="-596.5" font-family="Helvetica,sans-Serif" font-size="10.00">+ advance()</text>
<text text-anchor="start" x="441" y="-585.5" font-family="Helvetica,sans-Serif" font-size="10.00">+ getEventTarget()</text>
<text text-anchor="start" x="441" y="-574.5" font-family="Helvetica,sans-Serif" font-size="10.00">+ getEventType()</text>
<text text-anchor="start" x="441" y="-563.5" font-family="Helvetica,sans-Serif" font-size="10.00">+ getStageIdForLikely()</text>
<text text-anchor="start" x="441" y="-552.5" font-family="Helvetica,sans-Serif" font-size="10.00">and 48 more...</text>
<text text-anchor="start" x="441" y="-541.5" font-family="Helvetica,sans-Serif" font-size="10.00">+ addFactionNameTokens()</text>
<text text-anchor="start" x="441" y="-530.5" font-family="Helvetica,sans-Serif" font-size="10.00">+ addPersonTokens()</text>
<text text-anchor="start" x="441" y="-519.5" font-family="Helvetica,sans-Serif" font-size="10.00">+ findNearestMarket()</text>
<text text-anchor="start" x="441" y="-508.5" font-family="Helvetica,sans-Serif" font-size="10.00">+ findMatchingMarkets()</text>
<text text-anchor="start" x="441" y="-497.5" font-family="Helvetica,sans-Serif" font-size="10.00"># getLoggingId()</text>
<text text-anchor="start" x="441" y="-486.5" font-family="Helvetica,sans-Serif" font-size="10.00"># isEventStarted()</text>
<text text-anchor="start" x="441" y="-475.5" font-family="Helvetica,sans-Serif" font-size="10.00"># getDefaultPriority()</text>
</a>
</g>
</g>
<!-- Node2&#45;&gt;Node1 -->
<g id="edge1" class="edge">
<title>Node2&#45;&gt;Node1</title>
<path fill="none" stroke="midnightblue" d="M637.22,-469.36C637.64,-468.9 638.07,-468.45 638.5,-468 708.22,-394.51 798.84,-323.45 867,-273.92"/>
<polygon fill="none" stroke="midnightblue" points="634.51,-467.14 630.32,-476.87 639.66,-471.87 634.51,-467.14"/>
</g>
<!-- Node3 -->
<g id="node3" class="node">
<title>Node3</title>
<g id="a_node3"><a xlink:href="../../d9/d97/interfacecom_1_1fs_1_1starfarer_1_1api_1_1campaign_1_1events_1_1CampaignEventPlugin.html" target="_top" xlink:title=" ">
<polygon fill="none" stroke="black" points="100,-821 100,-999 277,-999 277,-821 100,-821"/>
<text text-anchor="start" x="108" y="-987" font-family="Helvetica,sans-Serif" font-size="10.00">com.fs.starfarer.api.campaign.events.</text>
<text text-anchor="middle" x="188.5" y="-976" font-family="Helvetica,sans-Serif" font-size="10.00">CampaignEventPlugin</text>
<polyline fill="none" stroke="black" points="100,-969 277,-969 "/>
<text text-anchor="middle" x="188.5" y="-957" font-family="Helvetica,sans-Serif" font-size="10.00"> </text>
<polyline fill="none" stroke="black" points="100,-950 277,-950 "/>
<text text-anchor="start" x="108" y="-938" font-family="Helvetica,sans-Serif" font-size="10.00">+ getId()</text>
<text text-anchor="start" x="108" y="-927" font-family="Helvetica,sans-Serif" font-size="10.00">+ init()</text>
<text text-anchor="start" x="108" y="-916" font-family="Helvetica,sans-Serif" font-size="10.00">+ cleanup()</text>
<text text-anchor="start" x="108" y="-905" font-family="Helvetica,sans-Serif" font-size="10.00">+ setProbability()</text>
<text text-anchor="start" x="108" y="-894" font-family="Helvetica,sans-Serif" font-size="10.00">+ startEvent()</text>
<text text-anchor="start" x="108" y="-883" font-family="Helvetica,sans-Serif" font-size="10.00">+ advance()</text>
<text text-anchor="start" x="108" y="-872" font-family="Helvetica,sans-Serif" font-size="10.00">+ isDone()</text>
<text text-anchor="start" x="108" y="-861" font-family="Helvetica,sans-Serif" font-size="10.00">+ getEventTarget()</text>
<text text-anchor="start" x="108" y="-850" font-family="Helvetica,sans-Serif" font-size="10.00">+ getEventType()</text>
<text text-anchor="start" x="108" y="-839" font-family="Helvetica,sans-Serif" font-size="10.00">+ getTokenReplacements()</text>
<text text-anchor="start" x="108" y="-828" font-family="Helvetica,sans-Serif" font-size="10.00">and 20 more...</text>
</a>
</g>
</g>
<!-- Node3&#45;&gt;Node2 -->
<g id="edge2" class="edge">
<title>Node3&#45;&gt;Node2</title>
<path fill="none" stroke="midnightblue" d="M284.75,-816.54C285.34,-816.02 285.92,-815.51 286.5,-815 333.51,-773.8 387.6,-730.16 432.98,-694.54"/>
<polygon fill="none" stroke="midnightblue" points="282.25,-814.08 277.11,-823.34 286.91,-819.3 282.25,-814.08"/>
</g>
<!-- Node4 -->
<g id="node4" class="node">
<title>Node4</title>
<g id="a_node4"><a xlink:href="../../d7/d28/interfacecom_1_1fs_1_1starfarer_1_1api_1_1impl_1_1campaign_1_1rulecmd_1_1CallEvent_1_1CallableEvent.html" target="_top" xlink:title=" ">
<polygon fill="none" stroke="black" points="0,-1275.5 0,-1343.5 203,-1343.5 203,-1275.5 0,-1275.5"/>
<text text-anchor="start" x="8" y="-1331.5" font-family="Helvetica,sans-Serif" font-size="10.00">com.fs.starfarer.api.impl.campaign.rulecmd.</text>
<text text-anchor="middle" x="101.5" y="-1320.5" font-family="Helvetica,sans-Serif" font-size="10.00">CallEvent.CallableEvent</text>
<polyline fill="none" stroke="black" points="0,-1313.5 203,-1313.5 "/>
<text text-anchor="middle" x="101.5" y="-1301.5" font-family="Helvetica,sans-Serif" font-size="10.00"> </text>
<polyline fill="none" stroke="black" points="0,-1294.5 203,-1294.5 "/>
<text text-anchor="start" x="8" y="-1282.5" font-family="Helvetica,sans-Serif" font-size="10.00">+ callEvent()</text>
</a>
</g>
</g>
<!-- Node4&#45;&gt;Node1 -->
<g id="edge15" class="edge">
<title>Node4&#45;&gt;Node1</title>
<path fill="none" stroke="midnightblue" d="M89.64,-1265.55C67.56,-1177.31 27.82,-970.83 90.5,-815 226.04,-478.01 667.99,-299.8 866.9,-234.97"/>
<polygon fill="none" stroke="midnightblue" points="86.3,-1266.64 92.17,-1275.46 93.09,-1264.91 86.3,-1266.64"/>
</g>
<!-- Node4&#45;&gt;Node3 -->
<g id="edge3" class="edge">
<title>Node4&#45;&gt;Node3</title>
<path fill="none" stroke="midnightblue" d="M110.97,-1265.22C124.89,-1201.64 151.16,-1081.62 169.23,-999.04"/>
<polygon fill="none" stroke="midnightblue" points="107.49,-1264.78 108.77,-1275.29 114.33,-1266.27 107.49,-1264.78"/>
</g>
<!-- Node5 -->
<g id="node5" class="node">
<title>Node5</title>
<g id="a_node5"><a xlink:href="../../db/d06/interfacecom_1_1fs_1_1starfarer_1_1api_1_1campaign_1_1CampaignEventListener.html" target="_top" xlink:title=" ">
<polygon fill="none" stroke="black" points="295.5,-815.5 295.5,-1004.5 459.5,-1004.5 459.5,-815.5 295.5,-815.5"/>
<text text-anchor="start" x="303.5" y="-992.5" font-family="Helvetica,sans-Serif" font-size="10.00">com.fs.starfarer.api.campaign.</text>
<text text-anchor="middle" x="377.5" y="-981.5" font-family="Helvetica,sans-Serif" font-size="10.00">CampaignEventListener</text>
<polyline fill="none" stroke="black" points="295.5,-974.5 459.5,-974.5 "/>
<text text-anchor="middle" x="377.5" y="-962.5" font-family="Helvetica,sans-Serif" font-size="10.00"> </text>
<polyline fill="none" stroke="black" points="295.5,-955.5 459.5,-955.5 "/>
<text text-anchor="start" x="303.5" y="-943.5" font-family="Helvetica,sans-Serif" font-size="10.00">+ reportPlayerOpenedMarket()</text>
<text text-anchor="start" x="303.5" y="-932.5" font-family="Helvetica,sans-Serif" font-size="10.00">+ reportPlayerClosedMarket()</text>
<text text-anchor="start" x="303.5" y="-921.5" font-family="Helvetica,sans-Serif" font-size="10.00">+ reportPlayerOpenedMarket</text>
<text text-anchor="start" x="303.5" y="-910.5" font-family="Helvetica,sans-Serif" font-size="10.00">AndCargoUpdated()</text>
<text text-anchor="start" x="303.5" y="-899.5" font-family="Helvetica,sans-Serif" font-size="10.00">+ reportEncounterLootGenerated()</text>
<text text-anchor="start" x="303.5" y="-888.5" font-family="Helvetica,sans-Serif" font-size="10.00">+ reportPlayerMarketTransaction()</text>
<text text-anchor="start" x="303.5" y="-877.5" font-family="Helvetica,sans-Serif" font-size="10.00">+ reportBattleOccurred()</text>
<text text-anchor="start" x="303.5" y="-866.5" font-family="Helvetica,sans-Serif" font-size="10.00">+ reportBattleFinished()</text>
<text text-anchor="start" x="303.5" y="-855.5" font-family="Helvetica,sans-Serif" font-size="10.00">+ reportPlayerEngagement()</text>
<text text-anchor="start" x="303.5" y="-844.5" font-family="Helvetica,sans-Serif" font-size="10.00">+ reportFleetDespawned()</text>
<text text-anchor="start" x="303.5" y="-833.5" font-family="Helvetica,sans-Serif" font-size="10.00">+ reportFleetSpawned()</text>
<text text-anchor="start" x="303.5" y="-822.5" font-family="Helvetica,sans-Serif" font-size="10.00">and 11 more...</text>
</a>
</g>
</g>
<!-- Node5&#45;&gt;Node2 -->
<g id="edge4" class="edge">
<title>Node5&#45;&gt;Node2</title>
<path fill="none" stroke="midnightblue" d="M432.1,-806.18C438.77,-793.62 445.69,-780.58 452.63,-767.52"/>
<polygon fill="none" stroke="midnightblue" points="428.89,-804.77 427.29,-815.25 435.07,-808.06 428.89,-804.77"/>
</g>
<!-- Node6 -->
<g id="node6" class="node">
<title>Node6</title>
<g id="a_node6"><a xlink:href="../../dd/d35/interfacecom_1_1fs_1_1starfarer_1_1api_1_1campaign_1_1FactionAPI.html" target="_top" xlink:title=" ">
<polygon fill="none" stroke="black" points="407.5,-1023.5 407.5,-1201.5 553.5,-1201.5 553.5,-1023.5 407.5,-1023.5"/>
<text text-anchor="start" x="415.5" y="-1189.5" font-family="Helvetica,sans-Serif" font-size="10.00">com.fs.starfarer.api.campaign.</text>
<text text-anchor="middle" x="480.5" y="-1178.5" font-family="Helvetica,sans-Serif" font-size="10.00">FactionAPI</text>
<polyline fill="none" stroke="black" points="407.5,-1171.5 553.5,-1171.5 "/>
<text text-anchor="middle" x="480.5" y="-1159.5" font-family="Helvetica,sans-Serif" font-size="10.00"> </text>
<polyline fill="none" stroke="black" points="407.5,-1152.5 553.5,-1152.5 "/>
<text text-anchor="start" x="415.5" y="-1140.5" font-family="Helvetica,sans-Serif" font-size="10.00">+ adjustRelationship()</text>
<text text-anchor="start" x="415.5" y="-1129.5" font-family="Helvetica,sans-Serif" font-size="10.00">+ adjustRelationship()</text>
<text text-anchor="start" x="415.5" y="-1118.5" font-family="Helvetica,sans-Serif" font-size="10.00">+ setRelationship()</text>
<text text-anchor="start" x="415.5" y="-1107.5" font-family="Helvetica,sans-Serif" font-size="10.00">+ setRelationship()</text>
<text text-anchor="start" x="415.5" y="-1096.5" font-family="Helvetica,sans-Serif" font-size="10.00">+ ensureAtBest()</text>
<text text-anchor="start" x="415.5" y="-1085.5" font-family="Helvetica,sans-Serif" font-size="10.00">+ ensureAtWorst()</text>
<text text-anchor="start" x="415.5" y="-1074.5" font-family="Helvetica,sans-Serif" font-size="10.00">+ getRelationshipLevel()</text>
<text text-anchor="start" x="415.5" y="-1063.5" font-family="Helvetica,sans-Serif" font-size="10.00">+ getRelationshipLevel()</text>
<text text-anchor="start" x="415.5" y="-1052.5" font-family="Helvetica,sans-Serif" font-size="10.00">+ isAtWorst()</text>
<text text-anchor="start" x="415.5" y="-1041.5" font-family="Helvetica,sans-Serif" font-size="10.00">+ isAtWorst()</text>
<text text-anchor="start" x="415.5" y="-1030.5" font-family="Helvetica,sans-Serif" font-size="10.00">and 149 more...</text>
</a>
</g>
</g>
<!-- Node6&#45;&gt;Node2 -->
<g id="edge5" class="edge">
<title>Node6&#45;&gt;Node2</title>
<path fill="none" stroke="#404040" d="M488.8,-1023.24C494.43,-964.26 502.15,-884.96 509.5,-815 510.71,-803.51 511.98,-791.64 513.28,-779.69"/>
<polygon fill="none" stroke="#404040" points="513.28,-779.66 509.95,-773.26 514.58,-767.73 517.91,-774.13 513.28,-779.66"/>
<text text-anchor="middle" x="528" y="-907.5" font-family="Helvetica,sans-Serif" font-size="10.00"> #faction</text>
</g>
<!-- Node7 -->
<g id="node7" class="node">
<title>Node7</title>
<g id="a_node7"><a xlink:href="../../de/da5/interfacecom_1_1fs_1_1starfarer_1_1api_1_1campaign_1_1rules_1_1HasMemory.html" target="_top" xlink:title=" ">
<polygon fill="none" stroke="black" points="497,-1436.5 497,-1515.5 666,-1515.5 666,-1436.5 497,-1436.5"/>
<text text-anchor="start" x="505" y="-1503.5" font-family="Helvetica,sans-Serif" font-size="10.00">com.fs.starfarer.api.campaign.rules.</text>
<text text-anchor="middle" x="581.5" y="-1492.5" font-family="Helvetica,sans-Serif" font-size="10.00">HasMemory</text>
<polyline fill="none" stroke="black" points="497,-1485.5 666,-1485.5 "/>
<text text-anchor="middle" x="581.5" y="-1473.5" font-family="Helvetica,sans-Serif" font-size="10.00"> </text>
<polyline fill="none" stroke="black" points="497,-1466.5 666,-1466.5 "/>
<text text-anchor="start" x="505" y="-1454.5" font-family="Helvetica,sans-Serif" font-size="10.00">+ getMemory()</text>
<text text-anchor="start" x="505" y="-1443.5" font-family="Helvetica,sans-Serif" font-size="10.00">+ getMemoryWithoutUpdate()</text>
</a>
</g>
</g>
<!-- Node7&#45;&gt;Node6 -->
<g id="edge6" class="edge">
<title>Node7&#45;&gt;Node6</title>
<path fill="none" stroke="midnightblue" d="M520.41,-1428.81C512.09,-1419.83 504.66,-1409.81 499.5,-1399 470.26,-1337.68 466.84,-1260.41 470,-1201.72"/>
<polygon fill="none" stroke="midnightblue" points="518.07,-1431.42 527.57,-1436.1 523.06,-1426.51 518.07,-1431.42"/>
</g>
<!-- Node8 -->
<g id="node8" class="node">
<title>Node8</title>
<g id="a_node8"><a xlink:href="../../d6/de1/interfacecom_1_1fs_1_1starfarer_1_1api_1_1campaign_1_1SectorEntityToken.html" target="_top" xlink:title=" ">
<polygon fill="none" stroke="black" points="508.5,-1220.5 508.5,-1398.5 654.5,-1398.5 654.5,-1220.5 508.5,-1220.5"/>
<text text-anchor="start" x="516.5" y="-1386.5" font-family="Helvetica,sans-Serif" font-size="10.00">com.fs.starfarer.api.campaign.</text>
<text text-anchor="middle" x="581.5" y="-1375.5" font-family="Helvetica,sans-Serif" font-size="10.00">SectorEntityToken</text>
<polyline fill="none" stroke="black" points="508.5,-1368.5 654.5,-1368.5 "/>
<text text-anchor="middle" x="581.5" y="-1356.5" font-family="Helvetica,sans-Serif" font-size="10.00"> </text>
<polyline fill="none" stroke="black" points="508.5,-1349.5 654.5,-1349.5 "/>
<text text-anchor="start" x="516.5" y="-1337.5" font-family="Helvetica,sans-Serif" font-size="10.00">+ isPlayerFleet()</text>
<text text-anchor="start" x="516.5" y="-1326.5" font-family="Helvetica,sans-Serif" font-size="10.00">+ getMarket()</text>
<text text-anchor="start" x="516.5" y="-1315.5" font-family="Helvetica,sans-Serif" font-size="10.00">+ setMarket()</text>
<text text-anchor="start" x="516.5" y="-1304.5" font-family="Helvetica,sans-Serif" font-size="10.00">+ getCargo()</text>
<text text-anchor="start" x="516.5" y="-1293.5" font-family="Helvetica,sans-Serif" font-size="10.00">+ getLocation()</text>
<text text-anchor="start" x="516.5" y="-1282.5" font-family="Helvetica,sans-Serif" font-size="10.00">+ getLocationInHyperspace()</text>
<text text-anchor="start" x="516.5" y="-1271.5" font-family="Helvetica,sans-Serif" font-size="10.00">+ getOrbit()</text>
<text text-anchor="start" x="516.5" y="-1260.5" font-family="Helvetica,sans-Serif" font-size="10.00">+ setOrbit()</text>
<text text-anchor="start" x="516.5" y="-1249.5" font-family="Helvetica,sans-Serif" font-size="10.00">+ getId()</text>
<text text-anchor="start" x="516.5" y="-1238.5" font-family="Helvetica,sans-Serif" font-size="10.00">+ getName()</text>
<text text-anchor="start" x="516.5" y="-1227.5" font-family="Helvetica,sans-Serif" font-size="10.00">and 115 more...</text>
</a>
</g>
</g>
<!-- Node7&#45;&gt;Node8 -->
<g id="edge8" class="edge">
<title>Node7&#45;&gt;Node8</title>
<path fill="none" stroke="midnightblue" d="M581.5,-1426.39C581.5,-1417.56 581.5,-1408.11 581.5,-1398.55"/>
<polygon fill="none" stroke="midnightblue" points="578,-1426.43 581.5,-1436.43 585,-1426.43 578,-1426.43"/>
</g>
<!-- Node10 -->
<g id="node10" class="node">
<title>Node10</title>
<g id="a_node10"><a xlink:href="../../de/d91/interfacecom_1_1fs_1_1starfarer_1_1api_1_1campaign_1_1econ_1_1MarketAPI.html" target="_top" xlink:title=" ">
<polygon fill="none" stroke="black" points="867,-1023.5 867,-1201.5 1036,-1201.5 1036,-1023.5 867,-1023.5"/>
<text text-anchor="start" x="875" y="-1189.5" font-family="Helvetica,sans-Serif" font-size="10.00">com.fs.starfarer.api.campaign.econ.</text>
<text text-anchor="middle" x="951.5" y="-1178.5" font-family="Helvetica,sans-Serif" font-size="10.00">MarketAPI</text>
<polyline fill="none" stroke="black" points="867,-1171.5 1036,-1171.5 "/>
<text text-anchor="middle" x="951.5" y="-1159.5" font-family="Helvetica,sans-Serif" font-size="10.00"> </text>
<polyline fill="none" stroke="black" points="867,-1152.5 1036,-1152.5 "/>
<text text-anchor="start" x="875" y="-1140.5" font-family="Helvetica,sans-Serif" font-size="10.00">+ getPrimaryEntity()</text>
<text text-anchor="start" x="875" y="-1129.5" font-family="Helvetica,sans-Serif" font-size="10.00">+ getConnectedEntities()</text>
<text text-anchor="start" x="875" y="-1118.5" font-family="Helvetica,sans-Serif" font-size="10.00">+ getId()</text>
<text text-anchor="start" x="875" y="-1107.5" font-family="Helvetica,sans-Serif" font-size="10.00">+ getName()</text>
<text text-anchor="start" x="875" y="-1096.5" font-family="Helvetica,sans-Serif" font-size="10.00">+ getSize()</text>
<text text-anchor="start" x="875" y="-1085.5" font-family="Helvetica,sans-Serif" font-size="10.00">+ setSize()</text>
<text text-anchor="start" x="875" y="-1074.5" font-family="Helvetica,sans-Serif" font-size="10.00">+ getAllCommodities()</text>
<text text-anchor="start" x="875" y="-1063.5" font-family="Helvetica,sans-Serif" font-size="10.00">+ getCommodityData()</text>
<text text-anchor="start" x="875" y="-1052.5" font-family="Helvetica,sans-Serif" font-size="10.00">+ getCommoditiesWithTag()</text>
<text text-anchor="start" x="875" y="-1041.5" font-family="Helvetica,sans-Serif" font-size="10.00">+ getCommoditiesWithTags()</text>
<text text-anchor="start" x="875" y="-1030.5" font-family="Helvetica,sans-Serif" font-size="10.00">and 142 more...</text>
</a>
</g>
</g>
<!-- Node7&#45;&gt;Node10 -->
<g id="edge11" class="edge">
<title>Node7&#45;&gt;Node10</title>
<path fill="none" stroke="midnightblue" d="M676.31,-1469.49C733.01,-1461.47 802.85,-1442.63 849.5,-1399 904.37,-1347.68 929.77,-1264.82 941.49,-1201.55"/>
<polygon fill="none" stroke="midnightblue" points="675.71,-1466.04 666.25,-1470.82 676.63,-1472.98 675.71,-1466.04"/>
</g>
<!-- Node8&#45;&gt;Node2 -->
<g id="edge7" class="edge">
<title>Node8&#45;&gt;Node2</title>
<path fill="none" stroke="#404040" d="M575.39,-1220.23C568.52,-1121.49 556.95,-956.77 546.5,-815 545.66,-803.63 544.79,-791.9 543.9,-780.08"/>
<polygon fill="none" stroke="#404040" points="543.87,-779.71 539.43,-774.03 542.97,-767.75 547.41,-773.43 543.87,-779.71"/>
<text text-anchor="middle" x="576" y="-907.5" font-family="Helvetica,sans-Serif" font-size="10.00"> #entity</text>
</g>
<!-- Node11 -->
<g id="node11" class="node">
<title>Node11</title>
<g id="a_node11"><a xlink:href="../../dc/d60/classcom_1_1fs_1_1starfarer_1_1api_1_1campaign_1_1events_1_1CampaignEventTarget.html" target="_top" xlink:title=" ">
<polygon fill="none" stroke="black" points="618,-815.5 618,-1004.5 795,-1004.5 795,-815.5 618,-815.5"/>
<text text-anchor="start" x="626" y="-992.5" font-family="Helvetica,sans-Serif" font-size="10.00">com.fs.starfarer.api.campaign.events.</text>
<text text-anchor="middle" x="706.5" y="-981.5" font-family="Helvetica,sans-Serif" font-size="10.00">CampaignEventTarget</text>
<polyline fill="none" stroke="black" points="618,-974.5 795,-974.5 "/>
<text text-anchor="start" x="626" y="-962.5" font-family="Helvetica,sans-Serif" font-size="10.00">&#45; custom</text>
<text text-anchor="start" x="626" y="-951.5" font-family="Helvetica,sans-Serif" font-size="10.00">&#45; extra</text>
<polyline fill="none" stroke="black" points="618,-944.5 795,-944.5 "/>
<text text-anchor="start" x="626" y="-932.5" font-family="Helvetica,sans-Serif" font-size="10.00">+ CampaignEventTarget()</text>
<text text-anchor="start" x="626" y="-921.5" font-family="Helvetica,sans-Serif" font-size="10.00">+ CampaignEventTarget()</text>
<text text-anchor="start" x="626" y="-910.5" font-family="Helvetica,sans-Serif" font-size="10.00">+ CampaignEventTarget()</text>
<text text-anchor="start" x="626" y="-899.5" font-family="Helvetica,sans-Serif" font-size="10.00">+ CampaignEventTarget()</text>
<text text-anchor="start" x="626" y="-888.5" font-family="Helvetica,sans-Serif" font-size="10.00">+ getMarket()</text>
<text text-anchor="start" x="626" y="-877.5" font-family="Helvetica,sans-Serif" font-size="10.00">+ getLocationInHyperspace()</text>
<text text-anchor="start" x="626" y="-866.5" font-family="Helvetica,sans-Serif" font-size="10.00">+ getLocation()</text>
<text text-anchor="start" x="626" y="-855.5" font-family="Helvetica,sans-Serif" font-size="10.00">+ setLocation()</text>
<text text-anchor="start" x="626" y="-844.5" font-family="Helvetica,sans-Serif" font-size="10.00">+ getEntity()</text>
<text text-anchor="start" x="626" y="-833.5" font-family="Helvetica,sans-Serif" font-size="10.00">+ setEntity()</text>
<text text-anchor="start" x="626" y="-822.5" font-family="Helvetica,sans-Serif" font-size="10.00">and 7 more...</text>
</a>
</g>
</g>
<!-- Node8&#45;&gt;Node11 -->
<g id="edge14" class="edge">
<title>Node8&#45;&gt;Node11</title>
<path fill="none" stroke="#404040" d="M609.24,-1220.28C628.2,-1159.99 653.42,-1079.8 673.42,-1016.19"/>
<polygon fill="none" stroke="#404040" points="673.49,-1015.96 671.48,-1009.03 677.09,-1004.51 679.11,-1011.43 673.49,-1015.96"/>
<text text-anchor="middle" x="685" y="-1110" font-family="Helvetica,sans-Serif" font-size="10.00"> &#45;entity</text>
</g>
<!-- Node9 -->
<g id="node9" class="node">
<title>Node9</title>
<g id="a_node9"><a xlink:href="../../d0/de7/interfacecom_1_1fs_1_1starfarer_1_1api_1_1campaign_1_1rules_1_1MemoryAPI.html" target="_top" xlink:title=" ">
<polygon fill="none" stroke="black" points="813,-821 813,-999 982,-999 982,-821 813,-821"/>
<text text-anchor="start" x="821" y="-987" font-family="Helvetica,sans-Serif" font-size="10.00">com.fs.starfarer.api.campaign.rules.</text>
<text text-anchor="middle" x="897.5" y="-976" font-family="Helvetica,sans-Serif" font-size="10.00">MemoryAPI</text>
<polyline fill="none" stroke="black" points="813,-969 982,-969 "/>
<text text-anchor="middle" x="897.5" y="-957" font-family="Helvetica,sans-Serif" font-size="10.00"> </text>
<polyline fill="none" stroke="black" points="813,-950 982,-950 "/>
<text text-anchor="start" x="821" y="-938" font-family="Helvetica,sans-Serif" font-size="10.00">+ unset()</text>
<text text-anchor="start" x="821" y="-927" font-family="Helvetica,sans-Serif" font-size="10.00">+ expire()</text>
<text text-anchor="start" x="821" y="-916" font-family="Helvetica,sans-Serif" font-size="10.00">+ contains()</text>
<text text-anchor="start" x="821" y="-905" font-family="Helvetica,sans-Serif" font-size="10.00">+ is()</text>
<text text-anchor="start" x="821" y="-894" font-family="Helvetica,sans-Serif" font-size="10.00">+ is()</text>
<text text-anchor="start" x="821" y="-883" font-family="Helvetica,sans-Serif" font-size="10.00">+ is()</text>
<text text-anchor="start" x="821" y="-872" font-family="Helvetica,sans-Serif" font-size="10.00">+ set()</text>
<text text-anchor="start" x="821" y="-861" font-family="Helvetica,sans-Serif" font-size="10.00">+ set()</text>
<text text-anchor="start" x="821" y="-850" font-family="Helvetica,sans-Serif" font-size="10.00">+ get()</text>
<text text-anchor="start" x="821" y="-839" font-family="Helvetica,sans-Serif" font-size="10.00">+ getString()</text>
<text text-anchor="start" x="821" y="-828" font-family="Helvetica,sans-Serif" font-size="10.00">and 17 more...</text>
</a>
</g>
</g>
<!-- Node9&#45;&gt;Node2 -->
<g id="edge9" class="edge">
<title>Node9&#45;&gt;Node2</title>
<path fill="none" stroke="#404040" d="M812.95,-820.99C809.84,-818.88 806.68,-816.87 803.5,-815 799.91,-812.89 679.8,-780.73 641.14,-766.56"/>
<polygon fill="none" stroke="#404040" points="641.03,-766.51 633.92,-767.74 630.05,-761.66 637.15,-760.43 641.03,-766.51"/>
<text text-anchor="middle" x="762" y="-789" font-family="Helvetica,sans-Serif" font-size="10.00"> #memory</text>
</g>
<!-- Node10&#45;&gt;Node2 -->
<g id="edge10" class="edge">
<title>Node10&#45;&gt;Node2</title>
<path fill="none" stroke="#404040" d="M995.49,-1023.33C1021.02,-958.23 1039.49,-871.48 990.5,-815 941.07,-758 726.5,-803.75 640.98,-768.03"/>
<polygon fill="none" stroke="#404040" points="640.77,-767.93 633.62,-768.83 630.03,-762.57 637.19,-761.67 640.77,-767.93"/>
<text text-anchor="middle" x="1040.5" y="-907.5" font-family="Helvetica,sans-Serif" font-size="10.00"> #market</text>
</g>
<!-- Node11&#45;&gt;Node2 -->
<g id="edge12" class="edge">
<title>Node11&#45;&gt;Node2</title>
<path fill="none" stroke="#404040" d="M649.92,-815.25C642.71,-803.29 635.17,-790.79 627.54,-778.16"/>
<polygon fill="none" stroke="#404040" points="627.32,-777.79 620.8,-774.72 621.12,-767.52 627.65,-770.59 627.32,-777.79"/>
<text text-anchor="middle" x="665.5" y="-789" font-family="Helvetica,sans-Serif" font-size="10.00"> #eventTarget</text>
</g>
<!-- Node12 -->
<g id="node12" class="node">
<title>Node12</title>
<g id="a_node12"><a xlink:href="../../d2/d2c/interfacecom_1_1fs_1_1starfarer_1_1api_1_1campaign_1_1LocationAPI.html" target="_top" xlink:title=" ">
<polygon fill="none" stroke="black" points="672.5,-1220.5 672.5,-1398.5 840.5,-1398.5 840.5,-1220.5 672.5,-1220.5"/>
<text text-anchor="start" x="680.5" y="-1386.5" font-family="Helvetica,sans-Serif" font-size="10.00">com.fs.starfarer.api.campaign.</text>
<text text-anchor="middle" x="756.5" y="-1375.5" font-family="Helvetica,sans-Serif" font-size="10.00">LocationAPI</text>
<polyline fill="none" stroke="black" points="672.5,-1368.5 840.5,-1368.5 "/>
<text text-anchor="middle" x="756.5" y="-1356.5" font-family="Helvetica,sans-Serif" font-size="10.00"> </text>
<polyline fill="none" stroke="black" points="672.5,-1349.5 840.5,-1349.5 "/>
<text text-anchor="start" x="680.5" y="-1337.5" font-family="Helvetica,sans-Serif" font-size="10.00">+ getId()</text>
<text text-anchor="start" x="680.5" y="-1326.5" font-family="Helvetica,sans-Serif" font-size="10.00">+ activeThisFrame()</text>
<text text-anchor="start" x="680.5" y="-1315.5" font-family="Helvetica,sans-Serif" font-size="10.00">+ getBackgroundTextureFilename()</text>
<text text-anchor="start" x="680.5" y="-1304.5" font-family="Helvetica,sans-Serif" font-size="10.00">+ setBackgroundTextureFilename()</text>
<text text-anchor="start" x="680.5" y="-1293.5" font-family="Helvetica,sans-Serif" font-size="10.00">+ addSpawnPoint()</text>
<text text-anchor="start" x="680.5" y="-1282.5" font-family="Helvetica,sans-Serif" font-size="10.00">+ removeSpawnPoint()</text>
<text text-anchor="start" x="680.5" y="-1271.5" font-family="Helvetica,sans-Serif" font-size="10.00">+ getSpawnPoints()</text>
<text text-anchor="start" x="680.5" y="-1260.5" font-family="Helvetica,sans-Serif" font-size="10.00">+ spawnFleet()</text>
<text text-anchor="start" x="680.5" y="-1249.5" font-family="Helvetica,sans-Serif" font-size="10.00">+ createToken()</text>
<text text-anchor="start" x="680.5" y="-1238.5" font-family="Helvetica,sans-Serif" font-size="10.00">+ createToken()</text>
<text text-anchor="start" x="680.5" y="-1227.5" font-family="Helvetica,sans-Serif" font-size="10.00">and 65 more...</text>
</a>
</g>
</g>
<!-- Node12&#45;&gt;Node11 -->
<g id="edge13" class="edge">
<title>Node12&#45;&gt;Node11</title>
<path fill="none" stroke="#404040" d="M745.4,-1220.28C737.84,-1160.12 727.78,-1080.14 719.78,-1016.58"/>
<polygon fill="none" stroke="#404040" points="719.76,-1016.42 715.04,-1010.96 718.26,-1004.51 722.98,-1009.96 719.76,-1016.42"/>
<text text-anchor="middle" x="763.5" y="-1110" font-family="Helvetica,sans-Serif" font-size="10.00"> &#45;location</text>
</g>
<!-- Node13 -->
<g id="node13" class="node">
<title>Node13</title>
<g id="a_node13"><a xlink:href="../../d4/d25/interfacecom_1_1fs_1_1starfarer_1_1api_1_1campaign_1_1listeners_1_1ColonyInteractionListener.html" target="_top" xlink:title=" ">
<polygon fill="none" stroke="black" points="648,-562 648,-674 833,-674 833,-562 648,-562"/>
<text text-anchor="start" x="656" y="-662" font-family="Helvetica,sans-Serif" font-size="10.00">com.fs.starfarer.api.campaign.listeners.</text>
<text text-anchor="middle" x="740.5" y="-651" font-family="Helvetica,sans-Serif" font-size="10.00">ColonyInteractionListener</text>
<polyline fill="none" stroke="black" points="648,-644 833,-644 "/>
<text text-anchor="middle" x="740.5" y="-632" font-family="Helvetica,sans-Serif" font-size="10.00"> </text>
<polyline fill="none" stroke="black" points="648,-625 833,-625 "/>
<text text-anchor="start" x="656" y="-613" font-family="Helvetica,sans-Serif" font-size="10.00">+ reportPlayerOpenedMarket()</text>
<text text-anchor="start" x="656" y="-602" font-family="Helvetica,sans-Serif" font-size="10.00">+ reportPlayerClosedMarket()</text>
<text text-anchor="start" x="656" y="-591" font-family="Helvetica,sans-Serif" font-size="10.00">+ reportPlayerOpenedMarket</text>
<text text-anchor="start" x="656" y="-580" font-family="Helvetica,sans-Serif" font-size="10.00">AndCargoUpdated()</text>
<text text-anchor="start" x="656" y="-569" font-family="Helvetica,sans-Serif" font-size="10.00">+ reportPlayerMarketTransaction()</text>
</a>
</g>
</g>
<!-- Node13&#45;&gt;Node1 -->
<g id="edge16" class="edge">
<title>Node13&#45;&gt;Node1</title>
<path fill="none" stroke="midnightblue" d="M775.55,-552.98C800.11,-508.11 834.24,-445.76 866.81,-386.28"/>
<polygon fill="none" stroke="midnightblue" points="772.34,-551.54 770.61,-562 778.48,-554.91 772.34,-551.54"/>
</g>
<!-- Node14 -->
<g id="node14" class="node">
<title>Node14</title>
<g id="a_node14"><a xlink:href="../../d7/d63/interfacecom_1_1fs_1_1starfarer_1_1api_1_1EveryFrameScript.html" target="_top" xlink:title=" ">
<polygon fill="none" stroke="black" points="851,-573 851,-663 976,-663 976,-573 851,-573"/>
<text text-anchor="start" x="859" y="-651" font-family="Helvetica,sans-Serif" font-size="10.00">com.fs.starfarer.api.Every</text>
<text text-anchor="middle" x="913.5" y="-640" font-family="Helvetica,sans-Serif" font-size="10.00">FrameScript</text>
<polyline fill="none" stroke="black" points="851,-633 976,-633 "/>
<text text-anchor="middle" x="913.5" y="-621" font-family="Helvetica,sans-Serif" font-size="10.00"> </text>
<polyline fill="none" stroke="black" points="851,-614 976,-614 "/>
<text text-anchor="start" x="859" y="-602" font-family="Helvetica,sans-Serif" font-size="10.00">+ isDone()</text>
<text text-anchor="start" x="859" y="-591" font-family="Helvetica,sans-Serif" font-size="10.00">+ runWhilePaused()</text>
<text text-anchor="start" x="859" y="-580" font-family="Helvetica,sans-Serif" font-size="10.00">+ advance()</text>
</a>
</g>
</g>
<!-- Node14&#45;&gt;Node1 -->
<g id="edge17" class="edge">
<title>Node14&#45;&gt;Node1</title>
<path fill="none" stroke="midnightblue" d="M920.38,-562.65C925.4,-522.92 932.56,-466.34 939.7,-409.92"/>
<polygon fill="none" stroke="midnightblue" points="916.9,-562.27 919.11,-572.63 923.84,-563.14 916.9,-562.27"/>
</g>
<!-- Node15 -->
<g id="node15" class="node">
<title>Node15</title>
<g id="a_node15"><a xlink:title=" ">
<polygon fill="none" stroke="#bfbfbf" points="994,-589.5 994,-646.5 1041,-646.5 1041,-589.5 994,-589.5"/>
<text text-anchor="middle" x="1017.5" y="-634.5" font-family="Helvetica,sans-Serif" font-size="10.00">Logger</text>
<polyline fill="none" stroke="#bfbfbf" points="994,-627.5 1041,-627.5 "/>
<text text-anchor="middle" x="1017.5" y="-615.5" font-family="Helvetica,sans-Serif" font-size="10.00"> </text>
<polyline fill="none" stroke="#bfbfbf" points="994,-608.5 1041,-608.5 "/>
<text text-anchor="middle" x="1017.5" y="-596.5" font-family="Helvetica,sans-Serif" font-size="10.00"> </text>
</a>
</g>
</g>
<!-- Node15&#45;&gt;Node1 -->
<g id="edge18" class="edge">
<title>Node15&#45;&gt;Node1</title>
<path fill="none" stroke="#404040" d="M1014.01,-589.39C1009.5,-553.78 1001.23,-488.43 992.78,-421.65"/>
<polygon fill="none" stroke="#404040" points="992.77,-421.52 988.05,-416.07 991.26,-409.61 995.98,-415.06 992.77,-421.52"/>
<text text-anchor="middle" x="1007.5" y="-436.5" font-family="Helvetica,sans-Serif" font-size="10.00"> +log</text>
</g>
<!-- Node16 -->
<g id="node16" class="node">
<title>Node16</title>
<g id="a_node16"><a xlink:href="../../dd/df5/classcom_1_1fs_1_1starfarer_1_1api_1_1util_1_1TimeoutTracker.html" target="_top" xlink:title=" ">
<polygon fill="none" stroke="black" points="1059,-518 1059,-718 1186,-718 1186,-518 1059,-518"/>
<text text-anchor="start" x="1067" y="-706" font-family="Helvetica,sans-Serif" font-size="10.00">com.fs.starfarer.api.util.</text>
<text text-anchor="middle" x="1122.5" y="-695" font-family="Helvetica,sans-Serif" font-size="10.00">TimeoutTracker&lt; String &gt;</text>
<polyline fill="none" stroke="black" points="1059,-688 1186,-688 "/>
<text text-anchor="start" x="1067" y="-676" font-family="Helvetica,sans-Serif" font-size="10.00">&#45; items</text>
<text text-anchor="start" x="1067" y="-665" font-family="Helvetica,sans-Serif" font-size="10.00">&#45; set</text>
<polyline fill="none" stroke="black" points="1059,-658 1186,-658 "/>
<text text-anchor="start" x="1067" y="-646" font-family="Helvetica,sans-Serif" font-size="10.00">+ set()</text>
<text text-anchor="start" x="1067" y="-635" font-family="Helvetica,sans-Serif" font-size="10.00">+ add()</text>
<text text-anchor="start" x="1067" y="-624" font-family="Helvetica,sans-Serif" font-size="10.00">+ add()</text>
<text text-anchor="start" x="1067" y="-613" font-family="Helvetica,sans-Serif" font-size="10.00">+ getRemaining()</text>
<text text-anchor="start" x="1067" y="-602" font-family="Helvetica,sans-Serif" font-size="10.00">+ remove()</text>
<text text-anchor="start" x="1067" y="-591" font-family="Helvetica,sans-Serif" font-size="10.00">+ getItems()</text>
<text text-anchor="start" x="1067" y="-580" font-family="Helvetica,sans-Serif" font-size="10.00">+ clear()</text>
<text text-anchor="start" x="1067" y="-569" font-family="Helvetica,sans-Serif" font-size="10.00">+ advance()</text>
<text text-anchor="start" x="1067" y="-558" font-family="Helvetica,sans-Serif" font-size="10.00">+ contains()</text>
<text text-anchor="start" x="1067" y="-547" font-family="Helvetica,sans-Serif" font-size="10.00">~ readResolve()</text>
<text text-anchor="start" x="1067" y="-536" font-family="Helvetica,sans-Serif" font-size="10.00">~ writeReplace()</text>
<text text-anchor="start" x="1067" y="-525" font-family="Helvetica,sans-Serif" font-size="10.00">&#45; getData()</text>
</a>
</g>
</g>
<!-- Node16&#45;&gt;Node1 -->
<g id="edge19" class="edge">
<title>Node16&#45;&gt;Node1</title>
<path fill="none" stroke="#404040" d="M1084.59,-517.77C1073.34,-488.32 1060.56,-454.85 1047.64,-421.03"/>
<polygon fill="none" stroke="#404040" points="1047.54,-420.77 1041.66,-416.59 1043.26,-409.56 1049.14,-413.73 1047.54,-420.77"/>
<text text-anchor="middle" x="1097.5" y="-436.5" font-family="Helvetica,sans-Serif" font-size="10.00"> &#45;recentlyChecked</text>
</g>
<!-- Node17 -->
<g id="node17" class="node">
<title>Node17</title>
<g id="a_node17"><a xlink:title=" ">
<polygon fill="none" stroke="#bfbfbf" points="1204.5,-584 1204.5,-652 1426.5,-652 1426.5,-584 1204.5,-584"/>
<text text-anchor="start" x="1212.5" y="-640" font-family="Helvetica,sans-Serif" font-size="10.00">List&lt; com.fs.starfarer.api.impl.campaign.events.</text>
<text text-anchor="middle" x="1315.5" y="-629" font-family="Helvetica,sans-Serif" font-size="10.00">OfficerManagerEvent.AvailableOfficer &gt;</text>
<polyline fill="none" stroke="#bfbfbf" points="1204.5,-622 1426.5,-622 "/>
<text text-anchor="middle" x="1315.5" y="-610" font-family="Helvetica,sans-Serif" font-size="10.00"> </text>
<polyline fill="none" stroke="#bfbfbf" points="1204.5,-603 1426.5,-603 "/>
<text text-anchor="middle" x="1315.5" y="-591" font-family="Helvetica,sans-Serif" font-size="10.00"> </text>
</a>
</g>
</g>
<!-- Node17&#45;&gt;Node1 -->
<g id="edge20" class="edge">
<title>Node17&#45;&gt;Node1</title>
<path fill="none" stroke="#404040" d="M1289.44,-583.83C1265.4,-553.41 1228.53,-507.27 1195.5,-468 1155.87,-420.87 1111.41,-369.82 1072.22,-325.41"/>
<polygon fill="none" stroke="#404040" points="1072.14,-325.32 1065.17,-323.47 1064.2,-316.33 1071.17,-318.18 1072.14,-325.32"/>
<text text-anchor="middle" x="1214" y="-442" font-family="Helvetica,sans-Serif" font-size="10.00"> &#45;available</text>
<text text-anchor="middle" x="1214" y="-431" font-family="Helvetica,sans-Serif" font-size="10.00">&#45;availableAdmins</text>
</g>
<!-- Node18 -->
<g id="node18" class="node">
<title>Node18</title>
<g id="a_node18"><a xlink:href="../../da/db8/classcom_1_1fs_1_1starfarer_1_1api_1_1util_1_1IntervalUtil.html" target="_top" xlink:title=" ">
<polygon fill="none" stroke="black" points="1445,-496 1445,-740 1564,-740 1564,-496 1445,-496"/>
<text text-anchor="start" x="1453" y="-728" font-family="Helvetica,sans-Serif" font-size="10.00">com.fs.starfarer.api.util.</text>
<text text-anchor="middle" x="1504.5" y="-717" font-family="Helvetica,sans-Serif" font-size="10.00">IntervalUtil</text>
<polyline fill="none" stroke="black" points="1445,-710 1564,-710 "/>
<text text-anchor="start" x="1453" y="-698" font-family="Helvetica,sans-Serif" font-size="10.00">&#45; minInterval</text>
<text text-anchor="start" x="1453" y="-687" font-family="Helvetica,sans-Serif" font-size="10.00">&#45; maxInterval</text>
<text text-anchor="start" x="1453" y="-676" font-family="Helvetica,sans-Serif" font-size="10.00">&#45; currInterval</text>
<text text-anchor="start" x="1453" y="-665" font-family="Helvetica,sans-Serif" font-size="10.00">&#45; elapsed</text>
<text text-anchor="start" x="1453" y="-654" font-family="Helvetica,sans-Serif" font-size="10.00">&#45; intervalElapsed</text>
<polyline fill="none" stroke="black" points="1445,-647 1564,-647 "/>
<text text-anchor="start" x="1453" y="-635" font-family="Helvetica,sans-Serif" font-size="10.00">+ IntervalUtil()</text>
<text text-anchor="start" x="1453" y="-624" font-family="Helvetica,sans-Serif" font-size="10.00">+ forceCurrInterval()</text>
<text text-anchor="start" x="1453" y="-613" font-family="Helvetica,sans-Serif" font-size="10.00">+ randomize()</text>
<text text-anchor="start" x="1453" y="-602" font-family="Helvetica,sans-Serif" font-size="10.00">+ forceIntervalElapsed()</text>
<text text-anchor="start" x="1453" y="-591" font-family="Helvetica,sans-Serif" font-size="10.00">+ getElapsed()</text>
<text text-anchor="start" x="1453" y="-580" font-family="Helvetica,sans-Serif" font-size="10.00">+ advance()</text>
<text text-anchor="start" x="1453" y="-569" font-family="Helvetica,sans-Serif" font-size="10.00">+ intervalElapsed()</text>
<text text-anchor="start" x="1453" y="-558" font-family="Helvetica,sans-Serif" font-size="10.00">+ getIntervalDuration()</text>
<text text-anchor="start" x="1453" y="-547" font-family="Helvetica,sans-Serif" font-size="10.00">+ setInterval()</text>
<text text-anchor="start" x="1453" y="-536" font-family="Helvetica,sans-Serif" font-size="10.00">+ setElapsed()</text>
<text text-anchor="start" x="1453" y="-525" font-family="Helvetica,sans-Serif" font-size="10.00">+ getMinInterval()</text>
<text text-anchor="start" x="1453" y="-514" font-family="Helvetica,sans-Serif" font-size="10.00">+ getMaxInterval()</text>
<text text-anchor="start" x="1453" y="-503" font-family="Helvetica,sans-Serif" font-size="10.00">&#45; nextInterval()</text>
</a>
</g>
</g>
<!-- Node18&#45;&gt;Node1 -->
<g id="edge21" class="edge">
<title>Node18&#45;&gt;Node1</title>
<path fill="none" stroke="#404040" d="M1456.59,-495.63C1450.27,-485.74 1443.26,-476.36 1435.5,-468 1335.11,-359.8 1179.62,-285.36 1075.27,-244.22"/>
<polygon fill="none" stroke="#404040" points="1075.26,-244.22 1068.21,-245.77 1064.08,-239.86 1071.12,-238.31 1075.26,-244.22"/>
<text text-anchor="middle" x="1450" y="-436.5" font-family="Helvetica,sans-Serif" font-size="10.00"> &#45;removeTracker</text>
</g>
</g>
</svg>
